<?xml version="1.0" encoding="UTF-8" standalone="no"?>
<!DOCTYPE svg PUBLIC "-//W3C//DTD SVG 1.1//EN"
 "http://www.w3.org/Graphics/SVG/1.1/DTD/svg11.dtd">
<!-- Generated by graphviz version 2.40.1 (20161225.0304)
 -->
<!-- Title: twoDegreesRelationshipsDiagramImplied Pages: 1 -->
<svg width="723pt" height="547pt"
 viewBox="0.00 0.00 723.00 546.70" xmlns="http://www.w3.org/2000/svg" xmlns:xlink="http://www.w3.org/1999/xlink">
<g id="graph0" class="graph" transform="scale(1 1) rotate(0) translate(4 542.7)">
<title>twoDegreesRelationshipsDiagramImplied</title>
<polygon fill="#ffffff" stroke="transparent" points="-4,4 -4,-542.7 719,-542.7 719,4 -4,4"/>
<text text-anchor="middle" x="72.4936" y="-7.3" font-family="Helvetica,sans-Serif" font-size="11.00" fill="#000000">Generated by SchemaSpy</text>
<!-- actividades -->
<g id="node1" class="node">
<title>actividades</title>
<g id="a_node1"><a xlink:href="../../tables/actividades.html" xlink:title="actividades" target="_top">
<polygon fill="#ffffff" stroke="transparent" points="334,-38.2 334,-370.2 568,-370.2 568,-38.2 334,-38.2"/>
<polygon fill="#f5f5f5" stroke="transparent" points="336,-345.2 336,-368.2 566,-368.2 566,-345.2 336,-345.2"/>
<polygon fill="none" stroke="#000000" points="336,-345.2 336,-368.2 566,-368.2 566,-345.2 336,-345.2"/>
<text text-anchor="start" x="341" y="-354.3" font-family="Helvetica,sans-Serif" font-weight="bold" font-size="11.00" fill="#000000">actividades</text>
<text text-anchor="start" x="531.0437" y="-353.3" font-family="Helvetica,sans-Serif" font-size="11.00" fill="#000000">[table]</text>
<polygon fill="none" stroke="#000000" points="336,-323.2 336,-345.2 476,-345.2 476,-323.2 336,-323.2"/>
<image xlink:href="../../images/primaryKeys.png" width="11px" height="12px" preserveAspectRatio="xMinYMin meet" x="341" y="-340.2"/>
<text text-anchor="start" x="356" y="-330.3" font-family="Helvetica,sans-Serif" font-size="11.00" fill="#000000">actividad_id</text>
<polygon fill="none" stroke="#000000" points="476,-323.2 476,-345.2 566,-345.2 566,-323.2 476,-323.2"/>
<text text-anchor="start" x="479" y="-330.9" font-family="Helvetica,sans-Serif" font-size="11.00" fill="#000000">int4[10]</text>
<polygon fill="none" stroke="#000000" points="336,-301.2 336,-323.2 476,-323.2 476,-301.2 336,-301.2"/>
<text text-anchor="start" x="356" y="-308.3" font-family="Helvetica,sans-Serif" font-size="11.00" fill="#000000">nombre</text>
<polygon fill="none" stroke="#000000" points="476,-301.2 476,-323.2 566,-323.2 566,-301.2 476,-301.2"/>
<text text-anchor="start" x="479" y="-308.9" font-family="Helvetica,sans-Serif" font-size="11.00" fill="#000000">varchar[120]</text>
<polygon fill="none" stroke="#000000" points="336,-279.2 336,-301.2 476,-301.2 476,-279.2 336,-279.2"/>
<text text-anchor="start" x="356" y="-286.3" font-family="Helvetica,sans-Serif" font-size="11.00" fill="#000000">descripcion</text>
<polygon fill="none" stroke="#000000" points="476,-279.2 476,-301.2 566,-301.2 566,-279.2 476,-279.2"/>
<text text-anchor="start" x="478.5043" y="-286.9" font-family="Helvetica,sans-Serif" font-size="11.00" fill="#000000">text[2147483647]</text>
<polygon fill="none" stroke="#000000" points="336,-257.2 336,-279.2 476,-279.2 476,-257.2 336,-257.2"/>
<text text-anchor="start" x="356" y="-264.3" font-family="Helvetica,sans-Serif" font-size="11.00" fill="#000000">estado</text>
<polygon fill="none" stroke="#000000" points="476,-257.2 476,-279.2 566,-279.2 566,-257.2 476,-257.2"/>
<text text-anchor="start" x="479" y="-264.9" font-family="Helvetica,sans-Serif" font-size="11.00" fill="#000000">int4[10]</text>
<polygon fill="none" stroke="#000000" points="336,-235.2 336,-257.2 476,-257.2 476,-235.2 336,-235.2"/>
<text text-anchor="start" x="356" y="-242.3" font-family="Helvetica,sans-Serif" font-size="11.00" fill="#000000">tip_referencia</text>
<polygon fill="none" stroke="#000000" points="476,-235.2 476,-257.2 566,-257.2 566,-235.2 476,-235.2"/>
<text text-anchor="start" x="479" y="-242.9" font-family="Helvetica,sans-Serif" font-size="11.00" fill="#000000">int4[10]</text>
<polygon fill="none" stroke="#000000" points="336,-213.2 336,-235.2 476,-235.2 476,-213.2 336,-213.2"/>
<text text-anchor="start" x="356" y="-220.3" font-family="Helvetica,sans-Serif" font-size="11.00" fill="#000000">referencia_id</text>
<polygon fill="none" stroke="#000000" points="476,-213.2 476,-235.2 566,-235.2 566,-213.2 476,-213.2"/>
<text text-anchor="start" x="479" y="-220.9" font-family="Helvetica,sans-Serif" font-size="11.00" fill="#000000">int4[10]</text>
<polygon fill="none" stroke="#000000" points="336,-191.2 336,-213.2 476,-213.2 476,-191.2 336,-191.2"/>
<text text-anchor="start" x="356" y="-198.3" font-family="Helvetica,sans-Serif" font-size="11.00" fill="#000000">fec_insercion</text>
<polygon fill="none" stroke="#000000" points="476,-191.2 476,-213.2 566,-213.2 566,-191.2 476,-191.2"/>
<text text-anchor="start" x="479" y="-198.9" font-family="Helvetica,sans-Serif" font-size="11.00" fill="#000000">timestamp[29,6]</text>
<polygon fill="none" stroke="#000000" points="336,-169.2 336,-191.2 476,-191.2 476,-169.2 336,-169.2"/>
<text text-anchor="start" x="356" y="-176.3" font-family="Helvetica,sans-Serif" font-size="11.00" fill="#000000">fec_modificacion</text>
<polygon fill="none" stroke="#000000" points="476,-169.2 476,-191.2 566,-191.2 566,-169.2 476,-169.2"/>
<text text-anchor="start" x="479" y="-176.9" font-family="Helvetica,sans-Serif" font-size="11.00" fill="#000000">timestamp[29,6]</text>
<polygon fill="none" stroke="#000000" points="336,-147.2 336,-169.2 476,-169.2 476,-147.2 336,-147.2"/>
<text text-anchor="start" x="356" y="-154.3" font-family="Helvetica,sans-Serif" font-size="11.00" fill="#000000">fec_eliminacion</text>
<polygon fill="none" stroke="#000000" points="476,-147.2 476,-169.2 566,-169.2 566,-147.2 476,-147.2"/>
<text text-anchor="start" x="479" y="-154.9" font-family="Helvetica,sans-Serif" font-size="11.00" fill="#000000">timestamp[29,6]</text>
<polygon fill="none" stroke="#000000" points="336,-125.2 336,-147.2 476,-147.2 476,-125.2 336,-125.2"/>
<image xlink:href="../../images/foreignKeys.png" width="11px" height="12px" preserveAspectRatio="xMinYMin meet" x="341" y="-142.2"/>
<text text-anchor="start" x="356" y="-132.3" font-family="Helvetica,sans-Serif" font-size="11.00" fill="#000000">usu_asignado_id</text>
<polygon fill="none" stroke="#000000" points="476,-125.2 476,-147.2 566,-147.2 566,-125.2 476,-125.2"/>
<text text-anchor="start" x="479" y="-132.9" font-family="Helvetica,sans-Serif" font-size="11.00" fill="#000000">int4[10]</text>
<polygon fill="none" stroke="#000000" points="336,-103.2 336,-125.2 476,-125.2 476,-103.2 336,-103.2"/>
<image xlink:href="../../images/foreignKeys.png" width="11px" height="12px" preserveAspectRatio="xMinYMin meet" x="341" y="-120.2"/>
<text text-anchor="start" x="356" y="-110.3" font-family="Helvetica,sans-Serif" font-size="11.00" fill="#000000">usu_insercion_id</text>
<polygon fill="none" stroke="#000000" points="476,-103.2 476,-125.2 566,-125.2 566,-103.2 476,-103.2"/>
<text text-anchor="start" x="479" y="-110.9" font-family="Helvetica,sans-Serif" font-size="11.00" fill="#000000">int4[10]</text>
<polygon fill="none" stroke="#000000" points="336,-81.2 336,-103.2 476,-103.2 476,-81.2 336,-81.2"/>
<image xlink:href="../../images/foreignKeys.png" width="11px" height="12px" preserveAspectRatio="xMinYMin meet" x="341" y="-98.2"/>
<text text-anchor="start" x="356" y="-88.3" font-family="Helvetica,sans-Serif" font-size="11.00" fill="#000000">usu_modificacion_id</text>
<polygon fill="none" stroke="#000000" points="476,-81.2 476,-103.2 566,-103.2 566,-81.2 476,-81.2"/>
<text text-anchor="start" x="479" y="-88.9" font-family="Helvetica,sans-Serif" font-size="11.00" fill="#000000">int4[10]</text>
<polygon fill="none" stroke="#000000" points="336,-59.2 336,-81.2 476,-81.2 476,-59.2 336,-59.2"/>
<image xlink:href="../../images/foreignKeys.png" width="11px" height="12px" preserveAspectRatio="xMinYMin meet" x="341" y="-76.2"/>
<text text-anchor="start" x="356" y="-66.3" font-family="Helvetica,sans-Serif" font-size="11.00" fill="#000000">usu_eliminacion_id</text>
<polygon fill="none" stroke="#000000" points="476,-59.2 476,-81.2 566,-81.2 566,-59.2 476,-59.2"/>
<text text-anchor="start" x="479" y="-66.9" font-family="Helvetica,sans-Serif" font-size="11.00" fill="#000000">int4[10]</text>
<polygon fill="#ffffff" stroke="transparent" points="336,-40.2 336,-59.2 397,-59.2 397,-40.2 336,-40.2"/>
<polygon fill="none" stroke="#000000" points="336,-40.2 336,-59.2 397,-59.2 397,-40.2 336,-40.2"/>
<text text-anchor="start" x="339" y="-46.3" font-family="Helvetica,sans-Serif" font-size="11.00" fill="#000000">&lt; 4</text>
<polygon fill="#ffffff" stroke="transparent" points="397,-40.2 397,-59.2 476,-59.2 476,-40.2 397,-40.2"/>
<polygon fill="none" stroke="#000000" points="397,-40.2 397,-59.2 476,-59.2 476,-40.2 397,-40.2"/>
<text text-anchor="start" x="440.6105" y="-46.3" font-family="Helvetica,sans-Serif" font-size="11.00" fill="#000000">0 rows</text>
<polygon fill="#ffffff" stroke="transparent" points="476,-40.2 476,-59.2 566,-59.2 566,-40.2 476,-40.2"/>
<polygon fill="none" stroke="#000000" points="476,-40.2 476,-59.2 566,-59.2 566,-40.2 476,-40.2"/>
<text text-anchor="start" x="547.4053" y="-46.3" font-family="Helvetica,sans-Serif" font-size="11.00" fill="#000000">2 &gt;</text>
<polygon fill="none" stroke="#000000" stroke-width="2" points="335,-39.2 335,-369.2 567,-369.2 567,-39.2 335,-39.2"/>
</a>
</g>
</g>
<!-- usuarios -->
<g id="node2" class="node">
<title>usuarios</title>
<g id="a_node2"><a xlink:href="../../tables/usuarios.html" xlink:title="usuarios" target="_top">
<polygon fill="#ffffff" stroke="transparent" points="145,-348.7 145,-453.7 285,-453.7 285,-348.7 145,-348.7"/>
<polygon fill="#f5f5f5" stroke="transparent" points="145,-430.2 145,-453.2 285,-453.2 285,-430.2 145,-430.2"/>
<polygon fill="none" stroke="#000000" points="145,-430.2 145,-453.2 285,-453.2 285,-430.2 145,-430.2"/>
<text text-anchor="start" x="150" y="-439.3" font-family="Helvetica,sans-Serif" font-weight="bold" font-size="11.00" fill="#000000">usuarios</text>
<text text-anchor="start" x="250.0437" y="-438.3" font-family="Helvetica,sans-Serif" font-size="11.00" fill="#000000">[table]</text>
<polygon fill="none" stroke="#000000" points="145,-408.2 145,-430.2 285,-430.2 285,-408.2 145,-408.2"/>
<image xlink:href="../../images/primaryKeys.png" width="11px" height="12px" preserveAspectRatio="xMinYMin meet" x="150" y="-425.2"/>
<text text-anchor="start" x="165" y="-415.3" font-family="Helvetica,sans-Serif" font-size="11.00" fill="#000000">usuario_id</text>
<polygon fill="none" stroke="#000000" points="145,-386.2 145,-408.2 285,-408.2 285,-386.2 145,-386.2"/>
<image xlink:href="../../images/foreignKeys.png" width="11px" height="12px" preserveAspectRatio="xMinYMin meet" x="150" y="-403.2"/>
<text text-anchor="start" x="165" y="-393.3" font-family="Helvetica,sans-Serif" font-size="11.00" fill="#000000">persona_id</text>
<polygon fill="none" stroke="#000000" points="145,-367.2 145,-386.2 285,-386.2 285,-367.2 145,-367.2"/>
<text text-anchor="start" x="148" y="-373.3" font-family="Helvetica,sans-Serif" font-size="11.00" fill="#000000">...</text>
<polygon fill="#ffffff" stroke="transparent" points="145,-348.2 145,-367.2 193,-367.2 193,-348.2 145,-348.2"/>
<polygon fill="none" stroke="#000000" points="145,-348.2 145,-367.2 193,-367.2 193,-348.2 145,-348.2"/>
<text text-anchor="start" x="148" y="-354.3" font-family="Helvetica,sans-Serif" font-size="11.00" fill="#000000">&lt; 1</text>
<polygon fill="#ffffff" stroke="transparent" points="193,-348.2 193,-367.2 244,-367.2 244,-348.2 193,-348.2"/>
<polygon fill="none" stroke="#000000" points="193,-348.2 193,-367.2 244,-367.2 244,-348.2 193,-348.2"/>
<text text-anchor="start" x="208.6105" y="-354.3" font-family="Helvetica,sans-Serif" font-size="11.00" fill="#000000">0 rows</text>
<polygon fill="#ffffff" stroke="transparent" points="244,-348.2 244,-367.2 285,-367.2 285,-348.2 244,-348.2"/>
<polygon fill="none" stroke="#000000" points="244,-348.2 244,-367.2 285,-367.2 285,-348.2 244,-348.2"/>
<text text-anchor="start" x="260.2904" y="-354.3" font-family="Helvetica,sans-Serif" font-size="11.00" fill="#000000">12 &gt;</text>
</a>
</g>
</g>
<!-- actividades&#45;&gt;usuarios -->
<g id="edge1" class="edge">
<title>actividades:w&#45;&gt;usuarios:e</title>
<path fill="none" stroke="#000000" d="M322.7104,-141.853C284.0063,-181.7391 343.5352,-419.2 285,-419.2"/>
<polygon fill="#000000" stroke="#000000" points="328.6383,-139.3315 337.4092,-139.5128 332.3192,-137.7657 336,-136.2 336,-136.2 336,-136.2 332.3192,-137.7657 334.5908,-132.8872 328.6383,-139.3315 328.6383,-139.3315"/>
<ellipse fill="none" stroke="#000000" cx="325.6937" cy="-140.5841" rx="3.2" ry="3.2"/>
</g>
<!-- actividades&#45;&gt;usuarios -->
<g id="edge2" class="edge">
<title>actividades:w&#45;&gt;usuarios:e</title>
<path fill="none" stroke="#000000" d="M322.0699,-75.1336C271.5827,-117.5527 357.8682,-419.2 285,-419.2"/>
<polygon fill="#000000" stroke="#000000" points="328.459,-72.8708 337.2019,-73.5935 332.2295,-71.5354 336,-70.2 336,-70.2 336,-70.2 332.2295,-71.5354 334.7981,-66.8065 328.459,-72.8708 328.459,-72.8708"/>
<ellipse fill="none" stroke="#000000" cx="325.4426" cy="-73.9391" rx="3.2" ry="3.2"/>
</g>
<!-- actividades&#45;&gt;usuarios -->
<g id="edge3" class="edge">
<title>actividades:w&#45;&gt;usuarios:e</title>
<path fill="none" stroke="#000000" d="M322.5871,-119.4938C279.8401,-159.9947 348.3501,-419.2 285,-419.2"/>
<polygon fill="#000000" stroke="#000000" points="328.5586,-117.137 337.3217,-117.5486 332.2793,-115.6685 336,-114.2 336,-114.2 336,-114.2 332.2793,-115.6685 334.6783,-110.8514 328.5586,-117.137 328.5586,-117.137"/>
<ellipse fill="none" stroke="#000000" cx="325.5821" cy="-118.3118" rx="3.2" ry="3.2"/>
</g>
<!-- actividades&#45;&gt;usuarios -->
<g id="edge4" class="edge">
<title>actividades:w&#45;&gt;usuarios:e</title>
<path fill="none" stroke="#000000" d="M322.2893,-97.3364C275.7838,-138.9378 353.0867,-419.2 285,-419.2"/>
<polygon fill="#000000" stroke="#000000" points="328.5084,-95.0066 337.263,-95.5712 332.2542,-93.6033 336,-92.2 336,-92.2 336,-92.2 332.2542,-93.6033 334.737,-88.8288 328.5084,-95.0066 328.5084,-95.0066"/>
<ellipse fill="none" stroke="#000000" cx="325.5118" cy="-96.1292" rx="3.2" ry="3.2"/>
</g>
<!-- personas -->
<g id="node7" class="node">
<title>personas</title>
<g id="a_node7"><a xlink:href="../../tables/personas.html" xlink:title="personas" target="_top">
<polygon fill="#ffffff" stroke="transparent" points="8,-369.7 8,-430.7 96,-430.7 96,-369.7 8,-369.7"/>
<polygon fill="#f5f5f5" stroke="transparent" points="8,-407.2 8,-430.2 96,-430.2 96,-407.2 8,-407.2"/>
<polygon fill="none" stroke="#000000" points="8,-407.2 8,-430.2 96,-430.2 96,-407.2 8,-407.2"/>
<text text-anchor="start" x="12.8818" y="-416.3" font-family="Helvetica,sans-Serif" font-weight="bold" font-size="11.00" fill="#000000">personas</text>
<text text-anchor="start" x="61.5219" y="-415.3" font-family="Helvetica,sans-Serif" font-size="11.00" fill="#000000">[table]</text>
<polygon fill="none" stroke="#000000" points="8,-388.2 8,-407.2 96,-407.2 96,-388.2 8,-388.2"/>
<text text-anchor="start" x="11" y="-394.3" font-family="Helvetica,sans-Serif" font-size="11.00" fill="#000000">...</text>
<polygon fill="#ffffff" stroke="transparent" points="8,-369.2 8,-388.2 28,-388.2 28,-369.2 8,-369.2"/>
<polygon fill="none" stroke="#000000" points="8,-369.2 8,-388.2 28,-388.2 28,-369.2 8,-369.2"/>
<text text-anchor="start" x="11" y="-375.3" font-family="Helvetica,sans-Serif" font-size="11.00" fill="#000000"> &#160;</text>
<polygon fill="#ffffff" stroke="transparent" points="28,-369.2 28,-388.2 70,-388.2 70,-369.2 28,-369.2"/>
<polygon fill="none" stroke="#000000" points="28,-369.2 28,-388.2 70,-388.2 70,-369.2 28,-369.2"/>
<text text-anchor="start" x="34.6105" y="-375.3" font-family="Helvetica,sans-Serif" font-size="11.00" fill="#000000">0 rows</text>
<polygon fill="#ffffff" stroke="transparent" points="70,-369.2 70,-388.2 96,-388.2 96,-369.2 70,-369.2"/>
<polygon fill="none" stroke="#000000" points="70,-369.2 70,-388.2 96,-388.2 96,-369.2 70,-369.2"/>
<text text-anchor="start" x="77.4053" y="-375.3" font-family="Helvetica,sans-Serif" font-size="11.00" fill="#000000">4 &gt;</text>
</a>
</g>
</g>
<!-- usuarios&#45;&gt;personas -->
<g id="edge15" class="edge">
<title>usuarios:w&#45;&gt;personas:e</title>
<path fill="none" stroke="#000000" stroke-dasharray="5,2" d="M130.4909,-397.2C119.1774,-397.2 111.9931,-397.2 96,-397.2"/>
<polygon fill="#000000" stroke="#000000" points="137,-397.2001 145,-400.8 141,-397.2 145,-397.2 145,-397.2 145,-397.2 141,-397.2 145,-393.6 137,-397.2001 137,-397.2001"/>
<ellipse fill="none" stroke="#000000" cx="133.8" cy="-397.2001" rx="3.2" ry="3.2"/>
</g>
<!-- campanas -->
<g id="node3" class="node">
<title>campanas</title>
<g id="a_node3"><a xlink:href="../../tables/campanas.html" xlink:title="campanas" target="_top">
<polygon fill="#ffffff" stroke="transparent" points="404.5,-473.7 404.5,-534.7 497.5,-534.7 497.5,-473.7 404.5,-473.7"/>
<polygon fill="#f5f5f5" stroke="transparent" points="405,-511.2 405,-534.2 498,-534.2 498,-511.2 405,-511.2"/>
<polygon fill="none" stroke="#000000" points="405,-511.2 405,-534.2 498,-534.2 498,-511.2 405,-511.2"/>
<text text-anchor="start" x="409.6318" y="-520.3" font-family="Helvetica,sans-Serif" font-weight="bold" font-size="11.00" fill="#000000">campanas</text>
<text text-anchor="start" x="463.5219" y="-519.3" font-family="Helvetica,sans-Serif" font-size="11.00" fill="#000000">[table]</text>
<polygon fill="none" stroke="#000000" points="405,-492.2 405,-511.2 498,-511.2 498,-492.2 405,-492.2"/>
<text text-anchor="start" x="408" y="-498.3" font-family="Helvetica,sans-Serif" font-size="11.00" fill="#000000">...</text>
<polygon fill="#ffffff" stroke="transparent" points="405,-473.2 405,-492.2 437,-492.2 437,-473.2 405,-473.2"/>
<polygon fill="none" stroke="#000000" points="405,-473.2 405,-492.2 437,-492.2 437,-473.2 405,-473.2"/>
<text text-anchor="start" x="408" y="-479.3" font-family="Helvetica,sans-Serif" font-size="11.00" fill="#000000">&lt; 4</text>
<polygon fill="#ffffff" stroke="transparent" points="437,-473.2 437,-492.2 480,-492.2 480,-473.2 437,-473.2"/>
<polygon fill="none" stroke="#000000" points="437,-473.2 437,-492.2 480,-492.2 480,-473.2 437,-473.2"/>
<text text-anchor="start" x="444.6105" y="-479.3" font-family="Helvetica,sans-Serif" font-size="11.00" fill="#000000">0 rows</text>
<polygon fill="#ffffff" stroke="transparent" points="480,-473.2 480,-492.2 498,-492.2 498,-473.2 480,-473.2"/>
<polygon fill="none" stroke="#000000" points="480,-473.2 480,-492.2 498,-492.2 498,-473.2 480,-473.2"/>
<text text-anchor="start" x="488.8862" y="-479.3" font-family="Helvetica,sans-Serif" font-size="11.00" fill="#000000"> &#160;</text>
</a>
</g>
</g>
<!-- campanas&#45;&gt;usuarios -->
<g id="edge5" class="edge">
<title>campanas:w&#45;&gt;usuarios:e</title>
<path fill="none" stroke="#000000" d="M392.0848,-494.456C363.6077,-478.4703 353.5787,-464.4991 326,-444.2 304.473,-428.3552 311.7296,-400.2 285,-419.2"/>
<polygon fill="#000000" stroke="#000000" points="397.9086,-497.497 403.3337,-504.3911 401.4543,-499.3485 405,-501.2 405,-501.2 405,-501.2 401.4543,-499.3485 406.6663,-498.0089 397.9086,-497.497 397.9086,-497.497"/>
<ellipse fill="none" stroke="#000000" cx="395.072" cy="-496.0158" rx="3.2" ry="3.2"/>
</g>
<!-- campanas&#45;&gt;usuarios -->
<g id="edge6" class="edge">
<title>campanas:w&#45;&gt;usuarios:e</title>
<path fill="none" stroke="#000000" d="M390.5833,-498.2416C363.2456,-490.9715 353.0884,-477.1383 326,-457.2 304.473,-441.3552 311.7296,-413.2 285,-419.2"/>
<polygon fill="#000000" stroke="#000000" points="397.1633,-499.5918 404.2763,-504.7265 401.0817,-500.3959 405,-501.2 405,-501.2 405,-501.2 401.0817,-500.3959 405.7237,-497.6735 397.1633,-499.5918 397.1633,-499.5918"/>
<ellipse fill="none" stroke="#000000" cx="394.0286" cy="-498.9485" rx="3.2" ry="3.2"/>
</g>
<!-- campanas&#45;&gt;usuarios -->
<g id="edge7" class="edge">
<title>campanas:w&#45;&gt;usuarios:e</title>
<path fill="none" stroke="#000000" d="M390.5833,-502.8778C363.2456,-503.9715 353.0884,-490.1383 326,-470.2 304.473,-454.3552 311.7296,-426.2 285,-419.2"/>
<polygon fill="#000000" stroke="#000000" points="397.0536,-502.1249 405.4162,-504.7759 401.0268,-501.6624 405,-501.2 405,-501.2 405,-501.2 401.0268,-501.6624 404.5838,-497.6241 397.0536,-502.1249 397.0536,-502.1249"/>
<ellipse fill="none" stroke="#000000" cx="393.8751" cy="-502.4948" rx="3.2" ry="3.2"/>
</g>
<!-- campanas&#45;&gt;usuarios -->
<g id="edge8" class="edge">
<title>campanas:w&#45;&gt;usuarios:e</title>
<path fill="none" stroke="#000000" d="M391.7062,-507.116C363.5182,-517.346 353.4561,-503.4089 326,-483.2 304.473,-467.3552 311.7296,-439.2 285,-419.2"/>
<polygon fill="#000000" stroke="#000000" points="397.6911,-504.4527 406.4637,-504.489 401.3455,-502.8263 405,-501.2 405,-501.2 405,-501.2 401.3455,-502.8263 403.5363,-497.911 397.6911,-504.4527 397.6911,-504.4527"/>
<ellipse fill="none" stroke="#000000" cx="394.7675" cy="-505.7537" rx="3.2" ry="3.2"/>
</g>
<!-- casos -->
<g id="node4" class="node">
<title>casos</title>
<g id="a_node4"><a xlink:href="../../tables/casos.html" xlink:title="casos" target="_top">
<polygon fill="#ffffff" stroke="transparent" points="415.5,-391.7 415.5,-452.7 486.5,-452.7 486.5,-391.7 415.5,-391.7"/>
<polygon fill="#f5f5f5" stroke="transparent" points="416,-429.2 416,-452.2 487,-452.2 487,-429.2 416,-429.2"/>
<polygon fill="none" stroke="#000000" points="416,-429.2 416,-452.2 487,-452.2 487,-429.2 416,-429.2"/>
<text text-anchor="start" x="420.6351" y="-438.3" font-family="Helvetica,sans-Serif" font-weight="bold" font-size="11.00" fill="#000000">casos</text>
<text text-anchor="start" x="452.5219" y="-437.3" font-family="Helvetica,sans-Serif" font-size="11.00" fill="#000000">[table]</text>
<polygon fill="none" stroke="#000000" points="416,-410.2 416,-429.2 487,-429.2 487,-410.2 416,-410.2"/>
<text text-anchor="start" x="419" y="-416.3" font-family="Helvetica,sans-Serif" font-size="11.00" fill="#000000">...</text>
<polygon fill="#ffffff" stroke="transparent" points="416,-391.2 416,-410.2 437,-410.2 437,-391.2 416,-391.2"/>
<polygon fill="none" stroke="#000000" points="416,-391.2 416,-410.2 437,-410.2 437,-391.2 416,-391.2"/>
<text text-anchor="start" x="418.7027" y="-397.3" font-family="Helvetica,sans-Serif" font-size="11.00" fill="#000000">&lt; 4</text>
<polygon fill="#ffffff" stroke="transparent" points="437,-391.2 437,-410.2 475,-410.2 475,-391.2 437,-391.2"/>
<polygon fill="none" stroke="#000000" points="437,-391.2 437,-410.2 475,-410.2 475,-391.2 437,-391.2"/>
<text text-anchor="start" x="439.8053" y="-397.3" font-family="Helvetica,sans-Serif" font-size="11.00" fill="#000000">0 rows</text>
<polygon fill="#ffffff" stroke="transparent" points="475,-391.2 475,-410.2 487,-410.2 487,-391.2 475,-391.2"/>
<polygon fill="none" stroke="#000000" points="475,-391.2 475,-410.2 487,-410.2 487,-391.2 475,-391.2"/>
<text text-anchor="start" x="477.9431" y="-397.3" font-family="Helvetica,sans-Serif" font-size="11.00" fill="#000000"> &#160;</text>
</a>
</g>
</g>
<!-- casos&#45;&gt;usuarios -->
<g id="edge9" class="edge">
<title>casos:w&#45;&gt;usuarios:e</title>
<path fill="none" stroke="#000000" d="M402.203,-414.8149C355.0249,-400.334 338.3325,-401.7957 285,-419.2"/>
<polygon fill="#000000" stroke="#000000" points="408.3758,-416.7768 414.9096,-422.6309 412.1879,-417.9884 416,-419.2 416,-419.2 416,-419.2 412.1879,-417.9884 417.0904,-415.7691 408.3758,-416.7768 408.3758,-416.7768"/>
<ellipse fill="none" stroke="#000000" cx="405.3261" cy="-415.8075" rx="3.2" ry="3.2"/>
</g>
<!-- casos&#45;&gt;usuarios -->
<g id="edge10" class="edge">
<title>casos:w&#45;&gt;usuarios:e</title>
<path fill="none" stroke="#000000" d="M401.6011,-417.757C354.8819,-413.2463 338.105,-413.7273 285,-419.2"/>
<polygon fill="#000000" stroke="#000000" points="408.0399,-418.4022 415.641,-422.7821 412.0199,-418.8011 416,-419.2 416,-419.2 416,-419.2 412.0199,-418.8011 416.359,-415.6179 408.0399,-418.4022 408.0399,-418.4022"/>
<ellipse fill="none" stroke="#000000" cx="404.8558" cy="-418.0831" rx="3.2" ry="3.2"/>
</g>
<!-- casos&#45;&gt;usuarios -->
<g id="edge11" class="edge">
<title>casos:w&#45;&gt;usuarios:e</title>
<path fill="none" stroke="#000000" d="M401.6011,-420.8835C354.8819,-426.1459 338.105,-425.5848 285,-419.2"/>
<polygon fill="#000000" stroke="#000000" points="408.0541,-420.1291 416.4181,-422.7756 412.0271,-419.6645 416,-419.2 416,-419.2 416,-419.2 412.0271,-419.6645 415.5819,-415.6244 408.0541,-420.1291 408.0541,-420.1291"/>
<ellipse fill="none" stroke="#000000" cx="404.8758" cy="-420.5007" rx="3.2" ry="3.2"/>
</g>
<!-- casos&#45;&gt;usuarios -->
<g id="edge12" class="edge">
<title>casos:w&#45;&gt;usuarios:e</title>
<path fill="none" stroke="#000000" d="M402.203,-423.8159C355.0249,-439.0589 338.3325,-437.5203 285,-419.2"/>
<polygon fill="#000000" stroke="#000000" points="408.4133,-421.7382 417.1422,-422.614 412.2067,-420.4691 416,-419.2 416,-419.2 416,-419.2 412.2067,-420.4691 414.8578,-415.786 408.4133,-421.7382 408.4133,-421.7382"/>
<ellipse fill="none" stroke="#000000" cx="405.3786" cy="-422.7535" rx="3.2" ry="3.2"/>
</g>
<!-- llamadas -->
<g id="node5" class="node">
<title>llamadas</title>
<g id="a_node5"><a xlink:href="../../tables/llamadas.html" xlink:title="llamadas" target="_top">
<polygon fill="#ffffff" stroke="transparent" points="617,-358.2 617,-444.2 707,-444.2 707,-358.2 617,-358.2"/>
<polygon fill="#f5f5f5" stroke="transparent" points="617,-421.2 617,-444.2 707,-444.2 707,-421.2 617,-421.2"/>
<polygon fill="none" stroke="#000000" points="617,-421.2 617,-444.2 707,-444.2 707,-421.2 617,-421.2"/>
<text text-anchor="start" x="622" y="-430.3" font-family="Helvetica,sans-Serif" font-weight="bold" font-size="11.00" fill="#000000">llamadas</text>
<text text-anchor="start" x="672.0437" y="-429.3" font-family="Helvetica,sans-Serif" font-size="11.00" fill="#000000">[table]</text>
<polygon fill="none" stroke="#000000" points="617,-399.2 617,-421.2 707,-421.2 707,-399.2 617,-399.2"/>
<image xlink:href="../../images/primaryKeys.png" width="11px" height="12px" preserveAspectRatio="xMinYMin meet" x="622" y="-416.2"/>
<text text-anchor="start" x="637" y="-406.3" font-family="Helvetica,sans-Serif" font-size="11.00" fill="#000000">llamada_id</text>
<polygon fill="none" stroke="#000000" points="617,-377.2 617,-399.2 707,-399.2 707,-377.2 617,-377.2"/>
<image xlink:href="../../images/foreignKeys.png" width="11px" height="12px" preserveAspectRatio="xMinYMin meet" x="622" y="-394.2"/>
<text text-anchor="start" x="637" y="-384.3" font-family="Helvetica,sans-Serif" font-size="11.00" fill="#000000">actividad_id</text>
<polygon fill="#ffffff" stroke="transparent" points="617,-358.2 617,-377.2 647,-377.2 647,-358.2 617,-358.2"/>
<polygon fill="none" stroke="#000000" points="617,-358.2 617,-377.2 647,-377.2 647,-358.2 617,-358.2"/>
<text text-anchor="start" x="620" y="-364.3" font-family="Helvetica,sans-Serif" font-size="11.00" fill="#000000">&lt; 1</text>
<polygon fill="#ffffff" stroke="transparent" points="647,-358.2 647,-377.2 690,-377.2 690,-358.2 647,-358.2"/>
<polygon fill="none" stroke="#000000" points="647,-358.2 647,-377.2 690,-377.2 690,-358.2 647,-358.2"/>
<text text-anchor="start" x="654.6105" y="-364.3" font-family="Helvetica,sans-Serif" font-size="11.00" fill="#000000">0 rows</text>
<polygon fill="#ffffff" stroke="transparent" points="690,-358.2 690,-377.2 707,-377.2 707,-358.2 690,-358.2"/>
<polygon fill="none" stroke="#000000" points="690,-358.2 690,-377.2 707,-377.2 707,-358.2 690,-358.2"/>
<text text-anchor="start" x="697.8862" y="-364.3" font-family="Helvetica,sans-Serif" font-size="11.00" fill="#000000"> &#160;</text>
</a>
</g>
</g>
<!-- llamadas&#45;&gt;actividades -->
<g id="edge13" class="edge">
<title>llamadas:w&#45;&gt;actividades:e</title>
<path fill="none" stroke="#000000" d="M603.3001,-383.596C587.8364,-370.5373 593.08,-334.2 566,-334.2"/>
<polygon fill="#000000" stroke="#000000" points="609.4168,-385.6515 615.8532,-391.6125 613.2084,-386.9258 617,-388.2 617,-388.2 617,-388.2 613.2084,-386.9258 618.1468,-384.7875 609.4168,-385.6515 609.4168,-385.6515"/>
<ellipse fill="none" stroke="#000000" cx="606.3835" cy="-384.6322" rx="3.2" ry="3.2"/>
</g>
<!-- tareas -->
<g id="node6" class="node">
<title>tareas</title>
<g id="a_node6"><a xlink:href="../../tables/tareas.html" xlink:title="tareas" target="_top">
<polygon fill="#ffffff" stroke="transparent" points="617,-231.7 617,-336.7 707,-336.7 707,-231.7 617,-231.7"/>
<polygon fill="#f5f5f5" stroke="transparent" points="617,-313.2 617,-336.2 707,-336.2 707,-313.2 617,-313.2"/>
<polygon fill="none" stroke="#000000" points="617,-313.2 617,-336.2 707,-336.2 707,-313.2 617,-313.2"/>
<text text-anchor="start" x="622" y="-322.3" font-family="Helvetica,sans-Serif" font-weight="bold" font-size="11.00" fill="#000000">tareas</text>
<text text-anchor="start" x="672.0437" y="-321.3" font-family="Helvetica,sans-Serif" font-size="11.00" fill="#000000">[table]</text>
<polygon fill="none" stroke="#000000" points="617,-291.2 617,-313.2 707,-313.2 707,-291.2 617,-291.2"/>
<image xlink:href="../../images/primaryKeys.png" width="11px" height="12px" preserveAspectRatio="xMinYMin meet" x="622" y="-308.2"/>
<text text-anchor="start" x="637" y="-298.3" font-family="Helvetica,sans-Serif" font-size="11.00" fill="#000000">tarea_id</text>
<polygon fill="none" stroke="#000000" points="617,-269.2 617,-291.2 707,-291.2 707,-269.2 617,-269.2"/>
<image xlink:href="../../images/foreignKeys.png" width="11px" height="12px" preserveAspectRatio="xMinYMin meet" x="622" y="-286.2"/>
<text text-anchor="start" x="637" y="-276.3" font-family="Helvetica,sans-Serif" font-size="11.00" fill="#000000">actividad_id</text>
<polygon fill="none" stroke="#000000" points="617,-250.2 617,-269.2 707,-269.2 707,-250.2 617,-250.2"/>
<text text-anchor="start" x="620" y="-256.3" font-family="Helvetica,sans-Serif" font-size="11.00" fill="#000000">...</text>
<polygon fill="#ffffff" stroke="transparent" points="617,-231.2 617,-250.2 647,-250.2 647,-231.2 617,-231.2"/>
<polygon fill="none" stroke="#000000" points="617,-231.2 617,-250.2 647,-250.2 647,-231.2 617,-231.2"/>
<text text-anchor="start" x="620" y="-237.3" font-family="Helvetica,sans-Serif" font-size="11.00" fill="#000000">&lt; 1</text>
<polygon fill="#ffffff" stroke="transparent" points="647,-231.2 647,-250.2 690,-250.2 690,-231.2 647,-231.2"/>
<polygon fill="none" stroke="#000000" points="647,-231.2 647,-250.2 690,-250.2 690,-231.2 647,-231.2"/>
<text text-anchor="start" x="654.6105" y="-237.3" font-family="Helvetica,sans-Serif" font-size="11.00" fill="#000000">0 rows</text>
<polygon fill="#ffffff" stroke="transparent" points="690,-231.2 690,-250.2 707,-250.2 707,-231.2 690,-231.2"/>
<polygon fill="none" stroke="#000000" points="690,-231.2 690,-250.2 707,-250.2 707,-231.2 690,-231.2"/>
<text text-anchor="start" x="697.8862" y="-237.3" font-family="Helvetica,sans-Serif" font-size="11.00" fill="#000000"> &#160;</text>
</a>
</g>
</g>
<!-- tareas&#45;&gt;actividades -->
<g id="edge14" class="edge">
<title>tareas:w&#45;&gt;actividades:e</title>
<path fill="none" stroke="#000000" d="M603.3001,-284.804C587.8364,-297.8627 593.08,-334.2 566,-334.2"/>
<polygon fill="#000000" stroke="#000000" points="609.4168,-282.7485 618.1468,-283.6125 613.2084,-281.4742 617,-280.2 617,-280.2 617,-280.2 613.2084,-281.4742 615.8532,-276.7875 609.4168,-282.7485 609.4168,-282.7485"/>
<ellipse fill="none" stroke="#000000" cx="606.3835" cy="-283.7678" rx="3.2" ry="3.2"/>
</g>
</g>
</svg>
