<?xml version="1.0" encoding="UTF-8" standalone="no"?>
<!DOCTYPE svg PUBLIC "-//W3C//DTD SVG 1.1//EN"
 "http://www.w3.org/Graphics/SVG/1.1/DTD/svg11.dtd">
<!-- Generated by graphviz version 2.40.1 (20161225.0304)
 -->
<!-- Title: twoDegreesRelationshipsDiagram Pages: 1 -->
<svg width="745pt" height="623pt"
 viewBox="0.00 0.00 745.00 622.70" xmlns="http://www.w3.org/2000/svg" xmlns:xlink="http://www.w3.org/1999/xlink">
<g id="graph0" class="graph" transform="scale(1 1) rotate(0) translate(4 618.7)">
<title>twoDegreesRelationshipsDiagram</title>
<polygon fill="#ffffff" stroke="transparent" points="-4,4 -4,-618.7 741,-618.7 741,4 -4,4"/>
<text text-anchor="middle" x="72.4936" y="-7.3" font-family="Helvetica,sans-Serif" font-size="11.00" fill="#000000">Generated by SchemaSpy</text>
<!-- actividades -->
<g id="node1" class="node">
<title>actividades</title>
<g id="a_node1"><a xlink:href="../../tables/actividades.html" xlink:title="actividades" target="_top">
<polygon fill="#ffffff" stroke="transparent" points="334,-38.2 334,-370.2 568,-370.2 568,-38.2 334,-38.2"/>
<polygon fill="#f5f5f5" stroke="transparent" points="336,-345.2 336,-368.2 566,-368.2 566,-345.2 336,-345.2"/>
<polygon fill="none" stroke="#000000" points="336,-345.2 336,-368.2 566,-368.2 566,-345.2 336,-345.2"/>
<text text-anchor="start" x="341" y="-354.3" font-family="Helvetica,sans-Serif" font-weight="bold" font-size="11.00" fill="#000000">actividades</text>
<text text-anchor="start" x="531.0437" y="-353.3" font-family="Helvetica,sans-Serif" font-size="11.00" fill="#000000">[table]</text>
<polygon fill="none" stroke="#000000" points="336,-323.2 336,-345.2 476,-345.2 476,-323.2 336,-323.2"/>
<image xlink:href="../../images/primaryKeys.png" width="11px" height="12px" preserveAspectRatio="xMinYMin meet" x="341" y="-340.2"/>
<text text-anchor="start" x="356" y="-330.3" font-family="Helvetica,sans-Serif" font-size="11.00" fill="#000000">actividad_id</text>
<polygon fill="none" stroke="#000000" points="476,-323.2 476,-345.2 566,-345.2 566,-323.2 476,-323.2"/>
<text text-anchor="start" x="479" y="-330.9" font-family="Helvetica,sans-Serif" font-size="11.00" fill="#000000">int4[10]</text>
<polygon fill="none" stroke="#000000" points="336,-301.2 336,-323.2 476,-323.2 476,-301.2 336,-301.2"/>
<text text-anchor="start" x="356" y="-308.3" font-family="Helvetica,sans-Serif" font-size="11.00" fill="#000000">nombre</text>
<polygon fill="none" stroke="#000000" points="476,-301.2 476,-323.2 566,-323.2 566,-301.2 476,-301.2"/>
<text text-anchor="start" x="479" y="-308.9" font-family="Helvetica,sans-Serif" font-size="11.00" fill="#000000">varchar[120]</text>
<polygon fill="none" stroke="#000000" points="336,-279.2 336,-301.2 476,-301.2 476,-279.2 336,-279.2"/>
<text text-anchor="start" x="356" y="-286.3" font-family="Helvetica,sans-Serif" font-size="11.00" fill="#000000">descripcion</text>
<polygon fill="none" stroke="#000000" points="476,-279.2 476,-301.2 566,-301.2 566,-279.2 476,-279.2"/>
<text text-anchor="start" x="478.5043" y="-286.9" font-family="Helvetica,sans-Serif" font-size="11.00" fill="#000000">text[2147483647]</text>
<polygon fill="none" stroke="#000000" points="336,-257.2 336,-279.2 476,-279.2 476,-257.2 336,-257.2"/>
<text text-anchor="start" x="356" y="-264.3" font-family="Helvetica,sans-Serif" font-size="11.00" fill="#000000">estado</text>
<polygon fill="none" stroke="#000000" points="476,-257.2 476,-279.2 566,-279.2 566,-257.2 476,-257.2"/>
<text text-anchor="start" x="479" y="-264.9" font-family="Helvetica,sans-Serif" font-size="11.00" fill="#000000">int4[10]</text>
<polygon fill="none" stroke="#000000" points="336,-235.2 336,-257.2 476,-257.2 476,-235.2 336,-235.2"/>
<text text-anchor="start" x="356" y="-242.3" font-family="Helvetica,sans-Serif" font-size="11.00" fill="#000000">tip_referencia</text>
<polygon fill="none" stroke="#000000" points="476,-235.2 476,-257.2 566,-257.2 566,-235.2 476,-235.2"/>
<text text-anchor="start" x="479" y="-242.9" font-family="Helvetica,sans-Serif" font-size="11.00" fill="#000000">int4[10]</text>
<polygon fill="none" stroke="#000000" points="336,-213.2 336,-235.2 476,-235.2 476,-213.2 336,-213.2"/>
<text text-anchor="start" x="356" y="-220.3" font-family="Helvetica,sans-Serif" font-size="11.00" fill="#000000">referencia_id</text>
<polygon fill="none" stroke="#000000" points="476,-213.2 476,-235.2 566,-235.2 566,-213.2 476,-213.2"/>
<text text-anchor="start" x="479" y="-220.9" font-family="Helvetica,sans-Serif" font-size="11.00" fill="#000000">int4[10]</text>
<polygon fill="none" stroke="#000000" points="336,-191.2 336,-213.2 476,-213.2 476,-191.2 336,-191.2"/>
<text text-anchor="start" x="356" y="-198.3" font-family="Helvetica,sans-Serif" font-size="11.00" fill="#000000">fec_insercion</text>
<polygon fill="none" stroke="#000000" points="476,-191.2 476,-213.2 566,-213.2 566,-191.2 476,-191.2"/>
<text text-anchor="start" x="479" y="-198.9" font-family="Helvetica,sans-Serif" font-size="11.00" fill="#000000">timestamp[29,6]</text>
<polygon fill="none" stroke="#000000" points="336,-169.2 336,-191.2 476,-191.2 476,-169.2 336,-169.2"/>
<text text-anchor="start" x="356" y="-176.3" font-family="Helvetica,sans-Serif" font-size="11.00" fill="#000000">fec_modificacion</text>
<polygon fill="none" stroke="#000000" points="476,-169.2 476,-191.2 566,-191.2 566,-169.2 476,-169.2"/>
<text text-anchor="start" x="479" y="-176.9" font-family="Helvetica,sans-Serif" font-size="11.00" fill="#000000">timestamp[29,6]</text>
<polygon fill="none" stroke="#000000" points="336,-147.2 336,-169.2 476,-169.2 476,-147.2 336,-147.2"/>
<text text-anchor="start" x="356" y="-154.3" font-family="Helvetica,sans-Serif" font-size="11.00" fill="#000000">fec_eliminacion</text>
<polygon fill="none" stroke="#000000" points="476,-147.2 476,-169.2 566,-169.2 566,-147.2 476,-147.2"/>
<text text-anchor="start" x="479" y="-154.9" font-family="Helvetica,sans-Serif" font-size="11.00" fill="#000000">timestamp[29,6]</text>
<polygon fill="none" stroke="#000000" points="336,-125.2 336,-147.2 476,-147.2 476,-125.2 336,-125.2"/>
<image xlink:href="../../images/foreignKeys.png" width="11px" height="12px" preserveAspectRatio="xMinYMin meet" x="341" y="-142.2"/>
<text text-anchor="start" x="356" y="-132.3" font-family="Helvetica,sans-Serif" font-size="11.00" fill="#000000">usu_asignado_id</text>
<polygon fill="none" stroke="#000000" points="476,-125.2 476,-147.2 566,-147.2 566,-125.2 476,-125.2"/>
<text text-anchor="start" x="479" y="-132.9" font-family="Helvetica,sans-Serif" font-size="11.00" fill="#000000">int4[10]</text>
<polygon fill="none" stroke="#000000" points="336,-103.2 336,-125.2 476,-125.2 476,-103.2 336,-103.2"/>
<image xlink:href="../../images/foreignKeys.png" width="11px" height="12px" preserveAspectRatio="xMinYMin meet" x="341" y="-120.2"/>
<text text-anchor="start" x="356" y="-110.3" font-family="Helvetica,sans-Serif" font-size="11.00" fill="#000000">usu_insercion_id</text>
<polygon fill="none" stroke="#000000" points="476,-103.2 476,-125.2 566,-125.2 566,-103.2 476,-103.2"/>
<text text-anchor="start" x="479" y="-110.9" font-family="Helvetica,sans-Serif" font-size="11.00" fill="#000000">int4[10]</text>
<polygon fill="none" stroke="#000000" points="336,-81.2 336,-103.2 476,-103.2 476,-81.2 336,-81.2"/>
<image xlink:href="../../images/foreignKeys.png" width="11px" height="12px" preserveAspectRatio="xMinYMin meet" x="341" y="-98.2"/>
<text text-anchor="start" x="356" y="-88.3" font-family="Helvetica,sans-Serif" font-size="11.00" fill="#000000">usu_modificacion_id</text>
<polygon fill="none" stroke="#000000" points="476,-81.2 476,-103.2 566,-103.2 566,-81.2 476,-81.2"/>
<text text-anchor="start" x="479" y="-88.9" font-family="Helvetica,sans-Serif" font-size="11.00" fill="#000000">int4[10]</text>
<polygon fill="none" stroke="#000000" points="336,-59.2 336,-81.2 476,-81.2 476,-59.2 336,-59.2"/>
<image xlink:href="../../images/foreignKeys.png" width="11px" height="12px" preserveAspectRatio="xMinYMin meet" x="341" y="-76.2"/>
<text text-anchor="start" x="356" y="-66.3" font-family="Helvetica,sans-Serif" font-size="11.00" fill="#000000">usu_eliminacion_id</text>
<polygon fill="none" stroke="#000000" points="476,-59.2 476,-81.2 566,-81.2 566,-59.2 476,-59.2"/>
<text text-anchor="start" x="479" y="-66.9" font-family="Helvetica,sans-Serif" font-size="11.00" fill="#000000">int4[10]</text>
<polygon fill="#ffffff" stroke="transparent" points="336,-40.2 336,-59.2 397,-59.2 397,-40.2 336,-40.2"/>
<polygon fill="none" stroke="#000000" points="336,-40.2 336,-59.2 397,-59.2 397,-40.2 336,-40.2"/>
<text text-anchor="start" x="339" y="-46.3" font-family="Helvetica,sans-Serif" font-size="11.00" fill="#000000">&lt; 4</text>
<polygon fill="#ffffff" stroke="transparent" points="397,-40.2 397,-59.2 476,-59.2 476,-40.2 397,-40.2"/>
<polygon fill="none" stroke="#000000" points="397,-40.2 397,-59.2 476,-59.2 476,-40.2 397,-40.2"/>
<text text-anchor="start" x="440.6105" y="-46.3" font-family="Helvetica,sans-Serif" font-size="11.00" fill="#000000">0 rows</text>
<polygon fill="#ffffff" stroke="transparent" points="476,-40.2 476,-59.2 566,-59.2 566,-40.2 476,-40.2"/>
<polygon fill="none" stroke="#000000" points="476,-40.2 476,-59.2 566,-59.2 566,-40.2 476,-40.2"/>
<text text-anchor="start" x="547.4053" y="-46.3" font-family="Helvetica,sans-Serif" font-size="11.00" fill="#000000">2 &gt;</text>
<polygon fill="none" stroke="#000000" stroke-width="2" points="335,-39.2 335,-369.2 567,-369.2 567,-39.2 335,-39.2"/>
</a>
</g>
</g>
<!-- usuarios -->
<g id="node2" class="node">
<title>usuarios</title>
<g id="a_node2"><a xlink:href="../../tables/usuarios.html" xlink:title="usuarios" target="_top">
<polygon fill="#ffffff" stroke="transparent" points="145,-323.7 145,-494.7 285,-494.7 285,-323.7 145,-323.7"/>
<polygon fill="#f5f5f5" stroke="transparent" points="145,-471.2 145,-494.2 285,-494.2 285,-471.2 145,-471.2"/>
<polygon fill="none" stroke="#000000" points="145,-471.2 145,-494.2 285,-494.2 285,-471.2 145,-471.2"/>
<text text-anchor="start" x="150" y="-480.3" font-family="Helvetica,sans-Serif" font-weight="bold" font-size="11.00" fill="#000000">usuarios</text>
<text text-anchor="start" x="250.0437" y="-479.3" font-family="Helvetica,sans-Serif" font-size="11.00" fill="#000000">[table]</text>
<polygon fill="none" stroke="#000000" points="145,-449.2 145,-471.2 285,-471.2 285,-449.2 145,-449.2"/>
<image xlink:href="../../images/primaryKeys.png" width="11px" height="12px" preserveAspectRatio="xMinYMin meet" x="150" y="-466.2"/>
<text text-anchor="start" x="165" y="-456.3" font-family="Helvetica,sans-Serif" font-size="11.00" fill="#000000">usuario_id</text>
<polygon fill="none" stroke="#000000" points="145,-427.2 145,-449.2 285,-449.2 285,-427.2 145,-427.2"/>
<image xlink:href="../../images/foreignKeys.png" width="11px" height="12px" preserveAspectRatio="xMinYMin meet" x="150" y="-444.2"/>
<text text-anchor="start" x="165" y="-434.3" font-family="Helvetica,sans-Serif" font-size="11.00" fill="#000000">persona_id</text>
<polygon fill="none" stroke="#000000" points="145,-405.2 145,-427.2 285,-427.2 285,-405.2 145,-405.2"/>
<image xlink:href="../../images/foreignKeys.png" width="11px" height="12px" preserveAspectRatio="xMinYMin meet" x="150" y="-422.2"/>
<text text-anchor="start" x="165" y="-412.3" font-family="Helvetica,sans-Serif" font-size="11.00" fill="#000000">usu_insercion_id</text>
<polygon fill="none" stroke="#000000" points="145,-383.2 145,-405.2 285,-405.2 285,-383.2 145,-383.2"/>
<image xlink:href="../../images/foreignKeys.png" width="11px" height="12px" preserveAspectRatio="xMinYMin meet" x="150" y="-400.2"/>
<text text-anchor="start" x="165" y="-390.3" font-family="Helvetica,sans-Serif" font-size="11.00" fill="#000000">usu_modificacion_id</text>
<polygon fill="none" stroke="#000000" points="145,-361.2 145,-383.2 285,-383.2 285,-361.2 145,-361.2"/>
<image xlink:href="../../images/foreignKeys.png" width="11px" height="12px" preserveAspectRatio="xMinYMin meet" x="150" y="-378.2"/>
<text text-anchor="start" x="165" y="-368.3" font-family="Helvetica,sans-Serif" font-size="11.00" fill="#000000">usu_eliminacion_id</text>
<polygon fill="none" stroke="#000000" points="145,-342.2 145,-361.2 285,-361.2 285,-342.2 145,-342.2"/>
<text text-anchor="start" x="148" y="-348.3" font-family="Helvetica,sans-Serif" font-size="11.00" fill="#000000">...</text>
<polygon fill="#ffffff" stroke="transparent" points="145,-323.2 145,-342.2 193,-342.2 193,-323.2 145,-323.2"/>
<polygon fill="none" stroke="#000000" points="145,-323.2 145,-342.2 193,-342.2 193,-323.2 145,-323.2"/>
<text text-anchor="start" x="148" y="-329.3" font-family="Helvetica,sans-Serif" font-size="11.00" fill="#000000">&lt; 4</text>
<polygon fill="#ffffff" stroke="transparent" points="193,-323.2 193,-342.2 244,-342.2 244,-323.2 193,-323.2"/>
<polygon fill="none" stroke="#000000" points="193,-323.2 193,-342.2 244,-342.2 244,-323.2 193,-323.2"/>
<text text-anchor="start" x="208.6105" y="-329.3" font-family="Helvetica,sans-Serif" font-size="11.00" fill="#000000">0 rows</text>
<polygon fill="#ffffff" stroke="transparent" points="244,-323.2 244,-342.2 285,-342.2 285,-323.2 244,-323.2"/>
<polygon fill="none" stroke="#000000" points="244,-323.2 244,-342.2 285,-342.2 285,-323.2 244,-323.2"/>
<text text-anchor="start" x="260.2904" y="-329.3" font-family="Helvetica,sans-Serif" font-size="11.00" fill="#000000">19 &gt;</text>
</a>
</g>
</g>
<!-- actividades&#45;&gt;usuarios -->
<g id="edge1" class="edge">
<title>actividades:w&#45;&gt;usuarios:e</title>
<path fill="none" stroke="#000000" d="M322.4049,-141.2893C276.2578,-182.509 352.477,-460.2 285,-460.2"/>
<polygon fill="#000000" stroke="#000000" points="328.5078,-139.0047 337.2621,-139.5715 332.2539,-137.6024 336,-136.2 336,-136.2 336,-136.2 332.2539,-137.6024 334.7379,-132.8285 328.5078,-139.0047 328.5078,-139.0047"/>
<ellipse fill="none" stroke="#000000" cx="325.5109" cy="-140.1266" rx="3.2" ry="3.2"/>
</g>
<!-- actividades&#45;&gt;usuarios -->
<g id="edge2" class="edge">
<title>actividades:w&#45;&gt;usuarios:e</title>
<path fill="none" stroke="#000000" d="M321.9837,-74.5799C263.2465,-117.4266 366.9418,-460.2 285,-460.2"/>
<polygon fill="#000000" stroke="#000000" points="328.3641,-72.5861 337.0738,-73.6361 332.1821,-71.3931 336,-70.2 336,-70.2 336,-70.2 332.1821,-71.3931 334.9262,-66.7639 328.3641,-72.5861 328.3641,-72.5861"/>
<ellipse fill="none" stroke="#000000" cx="325.3098" cy="-73.5406" rx="3.2" ry="3.2"/>
</g>
<!-- actividades&#45;&gt;usuarios -->
<g id="edge3" class="edge">
<title>actividades:w&#45;&gt;usuarios:e</title>
<path fill="none" stroke="#000000" d="M322.1811,-119.0912C272.0666,-161.1457 357.255,-460.2 285,-460.2"/>
<polygon fill="#000000" stroke="#000000" points="328.4585,-116.8693 337.2012,-117.5937 332.2292,-115.5347 336,-114.2 336,-114.2 336,-114.2 332.2292,-115.5347 334.7988,-110.8063 328.4585,-116.8693 328.4585,-116.8693"/>
<ellipse fill="none" stroke="#000000" cx="325.4418" cy="-117.9371" rx="3.2" ry="3.2"/>
</g>
<!-- actividades&#45;&gt;usuarios -->
<g id="edge4" class="edge">
<title>actividades:w&#45;&gt;usuarios:e</title>
<path fill="none" stroke="#000000" d="M322.0394,-96.8529C267.7297,-139.4522 362.0769,-460.2 285,-460.2"/>
<polygon fill="#000000" stroke="#000000" points="328.4104,-94.7295 337.1383,-95.6153 332.2052,-93.4648 336,-92.2 336,-92.2 336,-92.2 332.2052,-93.4648 334.8617,-88.7847 328.4104,-94.7295 328.4104,-94.7295"/>
<ellipse fill="none" stroke="#000000" cx="325.3746" cy="-95.7413" rx="3.2" ry="3.2"/>
</g>
<!-- personas -->
<g id="node8" class="node">
<title>personas</title>
<g id="a_node8"><a xlink:href="../../tables/personas.html" xlink:title="personas" target="_top">
<polygon fill="#ffffff" stroke="transparent" points="8,-410.7 8,-471.7 96,-471.7 96,-410.7 8,-410.7"/>
<polygon fill="#f5f5f5" stroke="transparent" points="8,-448.2 8,-471.2 96,-471.2 96,-448.2 8,-448.2"/>
<polygon fill="none" stroke="#000000" points="8,-448.2 8,-471.2 96,-471.2 96,-448.2 8,-448.2"/>
<text text-anchor="start" x="12.8818" y="-457.3" font-family="Helvetica,sans-Serif" font-weight="bold" font-size="11.00" fill="#000000">personas</text>
<text text-anchor="start" x="61.5219" y="-456.3" font-family="Helvetica,sans-Serif" font-size="11.00" fill="#000000">[table]</text>
<polygon fill="none" stroke="#000000" points="8,-429.2 8,-448.2 96,-448.2 96,-429.2 8,-429.2"/>
<text text-anchor="start" x="11" y="-435.3" font-family="Helvetica,sans-Serif" font-size="11.00" fill="#000000">...</text>
<polygon fill="#ffffff" stroke="transparent" points="8,-410.2 8,-429.2 28,-429.2 28,-410.2 8,-410.2"/>
<polygon fill="none" stroke="#000000" points="8,-410.2 8,-429.2 28,-429.2 28,-410.2 8,-410.2"/>
<text text-anchor="start" x="11" y="-416.3" font-family="Helvetica,sans-Serif" font-size="11.00" fill="#000000"> &#160;</text>
<polygon fill="#ffffff" stroke="transparent" points="28,-410.2 28,-429.2 70,-429.2 70,-410.2 28,-410.2"/>
<polygon fill="none" stroke="#000000" points="28,-410.2 28,-429.2 70,-429.2 70,-410.2 28,-410.2"/>
<text text-anchor="start" x="34.6105" y="-416.3" font-family="Helvetica,sans-Serif" font-size="11.00" fill="#000000">0 rows</text>
<polygon fill="#ffffff" stroke="transparent" points="70,-410.2 70,-429.2 96,-429.2 96,-410.2 70,-410.2"/>
<polygon fill="none" stroke="#000000" points="70,-410.2 70,-429.2 96,-429.2 96,-410.2 70,-410.2"/>
<text text-anchor="start" x="77.4053" y="-416.3" font-family="Helvetica,sans-Serif" font-size="11.00" fill="#000000">4 &gt;</text>
</a>
</g>
</g>
<!-- usuarios&#45;&gt;personas -->
<g id="edge20" class="edge">
<title>usuarios:w&#45;&gt;personas:e</title>
<path fill="none" stroke="#000000" d="M130.4909,-438.2C119.1774,-438.2 111.9931,-438.2 96,-438.2"/>
<polygon fill="#000000" stroke="#000000" points="137,-438.2001 145,-441.8 141,-438.2 145,-438.2 145,-438.2 145,-438.2 141,-438.2 145,-434.6 137,-438.2001 137,-438.2001"/>
<ellipse fill="none" stroke="#000000" cx="133.8" cy="-438.2001" rx="3.2" ry="3.2"/>
</g>
<!-- campanas -->
<g id="node3" class="node">
<title>campanas</title>
<g id="a_node3"><a xlink:href="../../tables/campanas.html" xlink:title="campanas" target="_top">
<polygon fill="#ffffff" stroke="transparent" points="404.5,-473.7 404.5,-534.7 497.5,-534.7 497.5,-473.7 404.5,-473.7"/>
<polygon fill="#f5f5f5" stroke="transparent" points="405,-511.2 405,-534.2 498,-534.2 498,-511.2 405,-511.2"/>
<polygon fill="none" stroke="#000000" points="405,-511.2 405,-534.2 498,-534.2 498,-511.2 405,-511.2"/>
<text text-anchor="start" x="409.6318" y="-520.3" font-family="Helvetica,sans-Serif" font-weight="bold" font-size="11.00" fill="#000000">campanas</text>
<text text-anchor="start" x="463.5219" y="-519.3" font-family="Helvetica,sans-Serif" font-size="11.00" fill="#000000">[table]</text>
<polygon fill="none" stroke="#000000" points="405,-492.2 405,-511.2 498,-511.2 498,-492.2 405,-492.2"/>
<text text-anchor="start" x="408" y="-498.3" font-family="Helvetica,sans-Serif" font-size="11.00" fill="#000000">...</text>
<polygon fill="#ffffff" stroke="transparent" points="405,-473.2 405,-492.2 432,-492.2 432,-473.2 405,-473.2"/>
<polygon fill="none" stroke="#000000" points="405,-473.2 405,-492.2 432,-492.2 432,-473.2 405,-473.2"/>
<text text-anchor="start" x="408" y="-479.3" font-family="Helvetica,sans-Serif" font-size="11.00" fill="#000000">&lt; 4</text>
<polygon fill="#ffffff" stroke="transparent" points="432,-473.2 432,-492.2 473,-492.2 473,-473.2 432,-473.2"/>
<polygon fill="none" stroke="#000000" points="432,-473.2 432,-492.2 473,-492.2 473,-473.2 432,-473.2"/>
<text text-anchor="start" x="437.6105" y="-479.3" font-family="Helvetica,sans-Serif" font-size="11.00" fill="#000000">0 rows</text>
<polygon fill="#ffffff" stroke="transparent" points="473,-473.2 473,-492.2 498,-492.2 498,-473.2 473,-473.2"/>
<polygon fill="none" stroke="#000000" points="473,-473.2 473,-492.2 498,-492.2 498,-473.2 473,-473.2"/>
<text text-anchor="start" x="479.4053" y="-479.3" font-family="Helvetica,sans-Serif" font-size="11.00" fill="#000000">1 &gt;</text>
</a>
</g>
</g>
<!-- campanas&#45;&gt;usuarios -->
<g id="edge5" class="edge">
<title>campanas:w&#45;&gt;usuarios:e</title>
<path fill="none" stroke="#000000" d="M391.4947,-495.8662C347.026,-475.5962 336.5169,-442.8328 285,-460.2"/>
<polygon fill="#000000" stroke="#000000" points="397.5593,-498.2613 403.6776,-504.5483 401.2796,-499.7307 405,-501.2 405,-501.2 405,-501.2 401.2796,-499.7307 406.3224,-497.8517 397.5593,-498.2613 397.5593,-498.2613"/>
<ellipse fill="none" stroke="#000000" cx="394.583" cy="-497.0858" rx="3.2" ry="3.2"/>
</g>
<!-- campanas&#45;&gt;usuarios -->
<g id="edge6" class="edge">
<title>campanas:w&#45;&gt;usuarios:e</title>
<path fill="none" stroke="#000000" d="M390.6437,-498.7263C346.8896,-488.0687 336.1867,-454.7508 285,-460.2"/>
<polygon fill="#000000" stroke="#000000" points="397.1162,-499.8415 404.3887,-504.7477 401.0581,-500.5208 405,-501.2 405,-501.2 405,-501.2 401.0581,-500.5208 405.6113,-497.6523 397.1162,-499.8415 397.1162,-499.8415"/>
<ellipse fill="none" stroke="#000000" cx="393.9627" cy="-499.2981" rx="3.2" ry="3.2"/>
</g>
<!-- campanas&#45;&gt;usuarios -->
<g id="edge7" class="edge">
<title>campanas:w&#45;&gt;usuarios:e</title>
<path fill="none" stroke="#000000" d="M390.3619,-501.9707C346.8434,-500.8113 336.0766,-466.5438 285,-460.2"/>
<polygon fill="#000000" stroke="#000000" points="397.0111,-501.6207 405.1893,-504.795 401.0055,-501.4103 405,-501.2 405,-501.2 405,-501.2 401.0055,-501.4103 404.8107,-497.605 397.0111,-501.6207 397.0111,-501.6207"/>
<ellipse fill="none" stroke="#000000" cx="393.8155" cy="-501.7889" rx="3.2" ry="3.2"/>
</g>
<!-- campanas&#45;&gt;usuarios -->
<g id="edge8" class="edge">
<title>campanas:w&#45;&gt;usuarios:e</title>
<path fill="none" stroke="#000000" d="M390.9265,-505.1729C346.9354,-514.0023 336.2968,-478.4031 285,-460.2"/>
<polygon fill="#000000" stroke="#000000" points="397.3009,-503.3735 405.9781,-504.6646 401.1504,-502.2867 405,-501.2 405,-501.2 405,-501.2 401.1504,-502.2867 404.0219,-497.7354 397.3009,-503.3735 397.3009,-503.3735"/>
<ellipse fill="none" stroke="#000000" cx="394.2213" cy="-504.2429" rx="3.2" ry="3.2"/>
</g>
<!-- casos -->
<g id="node4" class="node">
<title>casos</title>
<g id="a_node4"><a xlink:href="../../tables/casos.html" xlink:title="casos" target="_top">
<polygon fill="#ffffff" stroke="transparent" points="415.5,-391.7 415.5,-452.7 486.5,-452.7 486.5,-391.7 415.5,-391.7"/>
<polygon fill="#f5f5f5" stroke="transparent" points="416,-429.2 416,-452.2 487,-452.2 487,-429.2 416,-429.2"/>
<polygon fill="none" stroke="#000000" points="416,-429.2 416,-452.2 487,-452.2 487,-429.2 416,-429.2"/>
<text text-anchor="start" x="420.6351" y="-438.3" font-family="Helvetica,sans-Serif" font-weight="bold" font-size="11.00" fill="#000000">casos</text>
<text text-anchor="start" x="452.5219" y="-437.3" font-family="Helvetica,sans-Serif" font-size="11.00" fill="#000000">[table]</text>
<polygon fill="none" stroke="#000000" points="416,-410.2 416,-429.2 487,-429.2 487,-410.2 416,-410.2"/>
<text text-anchor="start" x="419" y="-416.3" font-family="Helvetica,sans-Serif" font-size="11.00" fill="#000000">...</text>
<polygon fill="#ffffff" stroke="transparent" points="416,-391.2 416,-410.2 437,-410.2 437,-391.2 416,-391.2"/>
<polygon fill="none" stroke="#000000" points="416,-391.2 416,-410.2 437,-410.2 437,-391.2 416,-391.2"/>
<text text-anchor="start" x="418.7027" y="-397.3" font-family="Helvetica,sans-Serif" font-size="11.00" fill="#000000">&lt; 5</text>
<polygon fill="#ffffff" stroke="transparent" points="437,-391.2 437,-410.2 475,-410.2 475,-391.2 437,-391.2"/>
<polygon fill="none" stroke="#000000" points="437,-391.2 437,-410.2 475,-410.2 475,-391.2 437,-391.2"/>
<text text-anchor="start" x="439.8053" y="-397.3" font-family="Helvetica,sans-Serif" font-size="11.00" fill="#000000">0 rows</text>
<polygon fill="#ffffff" stroke="transparent" points="475,-391.2 475,-410.2 487,-410.2 487,-391.2 475,-391.2"/>
<polygon fill="none" stroke="#000000" points="475,-391.2 475,-410.2 487,-410.2 487,-391.2 475,-391.2"/>
<text text-anchor="start" x="477.9431" y="-397.3" font-family="Helvetica,sans-Serif" font-size="11.00" fill="#000000"> &#160;</text>
</a>
</g>
</g>
<!-- casos&#45;&gt;usuarios -->
<g id="edge9" class="edge">
<title>casos:w&#45;&gt;usuarios:e</title>
<path fill="none" stroke="#000000" d="M401.9793,-415.6902C353.1686,-406.7785 341.0027,-442.7586 285,-460.2"/>
<polygon fill="#000000" stroke="#000000" points="408.2395,-417.2573 415.1258,-422.6922 412.1197,-418.2286 416,-419.2 416,-419.2 416,-419.2 412.1197,-418.2286 416.8742,-415.7078 408.2395,-417.2573 408.2395,-417.2573"/>
<ellipse fill="none" stroke="#000000" cx="405.1352" cy="-416.4802" rx="3.2" ry="3.2"/>
</g>
<!-- casos&#45;&gt;usuarios -->
<g id="edge10" class="edge">
<title>casos:w&#45;&gt;usuarios:e</title>
<path fill="none" stroke="#000000" d="M401.3581,-418.6424C353.0642,-419.9884 340.7644,-454.7156 285,-460.2"/>
<polygon fill="#000000" stroke="#000000" points="408.0058,-418.8955 415.863,-422.7974 412.0029,-419.0478 416,-419.2 416,-419.2 416,-419.2 412.0029,-419.0478 416.137,-415.6026 408.0058,-418.8955 408.0058,-418.8955"/>
<ellipse fill="none" stroke="#000000" cx="404.8081" cy="-418.7737" rx="3.2" ry="3.2"/>
</g>
<!-- casos&#45;&gt;usuarios -->
<g id="edge11" class="edge">
<title>casos:w&#45;&gt;usuarios:e</title>
<path fill="none" stroke="#000000" d="M401.6682,-421.6345C353.1166,-432.7482 340.8835,-466.6121 285,-460.2"/>
<polygon fill="#000000" stroke="#000000" points="408.113,-420.5398 416.6029,-422.7492 412.0565,-419.8699 416,-419.2 416,-419.2 416,-419.2 412.0565,-419.8699 415.3971,-415.6508 408.113,-420.5398 408.113,-420.5398"/>
<ellipse fill="none" stroke="#000000" cx="404.9582" cy="-421.0757" rx="3.2" ry="3.2"/>
</g>
<!-- casos&#45;&gt;usuarios -->
<g id="edge12" class="edge">
<title>casos:w&#45;&gt;usuarios:e</title>
<path fill="none" stroke="#000000" d="M402.2913,-424.3666C353.2201,-445.3752 341.1218,-478.5984 285,-460.2"/>
<polygon fill="#000000" stroke="#000000" points="408.514,-422.0214 417.2696,-422.5687 412.257,-420.6107 416,-419.2 416,-419.2 416,-419.2 412.257,-420.6107 414.7304,-415.8313 408.514,-422.0214 408.514,-422.0214"/>
<ellipse fill="none" stroke="#000000" cx="405.5196" cy="-423.1499" rx="3.2" ry="3.2"/>
</g>
<!-- llamadas -->
<g id="node5" class="node">
<title>llamadas</title>
<g id="a_node5"><a xlink:href="../../tables/llamadas.html" xlink:title="llamadas" target="_top">
<polygon fill="#ffffff" stroke="transparent" points="628,-358.2 628,-444.2 718,-444.2 718,-358.2 628,-358.2"/>
<polygon fill="#f5f5f5" stroke="transparent" points="628,-421.2 628,-444.2 718,-444.2 718,-421.2 628,-421.2"/>
<polygon fill="none" stroke="#000000" points="628,-421.2 628,-444.2 718,-444.2 718,-421.2 628,-421.2"/>
<text text-anchor="start" x="633" y="-430.3" font-family="Helvetica,sans-Serif" font-weight="bold" font-size="11.00" fill="#000000">llamadas</text>
<text text-anchor="start" x="683.0437" y="-429.3" font-family="Helvetica,sans-Serif" font-size="11.00" fill="#000000">[table]</text>
<polygon fill="none" stroke="#000000" points="628,-399.2 628,-421.2 718,-421.2 718,-399.2 628,-399.2"/>
<image xlink:href="../../images/primaryKeys.png" width="11px" height="12px" preserveAspectRatio="xMinYMin meet" x="633" y="-416.2"/>
<text text-anchor="start" x="648" y="-406.3" font-family="Helvetica,sans-Serif" font-size="11.00" fill="#000000">llamada_id</text>
<polygon fill="none" stroke="#000000" points="628,-377.2 628,-399.2 718,-399.2 718,-377.2 628,-377.2"/>
<image xlink:href="../../images/foreignKeys.png" width="11px" height="12px" preserveAspectRatio="xMinYMin meet" x="633" y="-394.2"/>
<text text-anchor="start" x="648" y="-384.3" font-family="Helvetica,sans-Serif" font-size="11.00" fill="#000000">actividad_id</text>
<polygon fill="#ffffff" stroke="transparent" points="628,-358.2 628,-377.2 658,-377.2 658,-358.2 628,-358.2"/>
<polygon fill="none" stroke="#000000" points="628,-358.2 628,-377.2 658,-377.2 658,-358.2 628,-358.2"/>
<text text-anchor="start" x="631" y="-364.3" font-family="Helvetica,sans-Serif" font-size="11.00" fill="#000000">&lt; 1</text>
<polygon fill="#ffffff" stroke="transparent" points="658,-358.2 658,-377.2 701,-377.2 701,-358.2 658,-358.2"/>
<polygon fill="none" stroke="#000000" points="658,-358.2 658,-377.2 701,-377.2 701,-358.2 658,-358.2"/>
<text text-anchor="start" x="665.6105" y="-364.3" font-family="Helvetica,sans-Serif" font-size="11.00" fill="#000000">0 rows</text>
<polygon fill="#ffffff" stroke="transparent" points="701,-358.2 701,-377.2 718,-377.2 718,-358.2 701,-358.2"/>
<polygon fill="none" stroke="#000000" points="701,-358.2 701,-377.2 718,-377.2 718,-358.2 701,-358.2"/>
<text text-anchor="start" x="708.8862" y="-364.3" font-family="Helvetica,sans-Serif" font-size="11.00" fill="#000000"> &#160;</text>
</a>
</g>
</g>
<!-- llamadas&#45;&gt;actividades -->
<g id="edge13" class="edge">
<title>llamadas:w&#45;&gt;actividades:e</title>
<path fill="none" stroke="#000000" d="M613.9958,-384.6569C593.7591,-372.6434 596.8322,-334.2 566,-334.2"/>
<polygon fill="#000000" stroke="#000000" points="620.2444,-386.2378 627.117,-391.69 624.1222,-387.2189 628,-388.2 628,-388.2 628,-388.2 624.1222,-387.2189 628.883,-384.71 620.2444,-386.2378 620.2444,-386.2378"/>
<ellipse fill="none" stroke="#000000" cx="617.1421" cy="-385.4529" rx="3.2" ry="3.2"/>
</g>
<!-- oportunidades -->
<g id="node6" class="node">
<title>oportunidades</title>
<g id="a_node6"><a xlink:href="../../tables/oportunidades.html" xlink:title="oportunidades" target="_top">
<polygon fill="#ffffff" stroke="transparent" points="617,-549.7 617,-610.7 729,-610.7 729,-549.7 617,-549.7"/>
<polygon fill="#f5f5f5" stroke="transparent" points="617,-587.2 617,-610.2 729,-610.2 729,-587.2 617,-587.2"/>
<polygon fill="none" stroke="#000000" points="617,-587.2 617,-610.2 729,-610.2 729,-587.2 617,-587.2"/>
<text text-anchor="start" x="621.6531" y="-596.3" font-family="Helvetica,sans-Serif" font-weight="bold" font-size="11.00" fill="#000000">oportunidades</text>
<text text-anchor="start" x="694.5219" y="-595.3" font-family="Helvetica,sans-Serif" font-size="11.00" fill="#000000">[table]</text>
<polygon fill="none" stroke="#000000" points="617,-568.2 617,-587.2 729,-587.2 729,-568.2 617,-568.2"/>
<text text-anchor="start" x="620" y="-574.3" font-family="Helvetica,sans-Serif" font-size="11.00" fill="#000000">...</text>
<polygon fill="#ffffff" stroke="transparent" points="617,-549.2 617,-568.2 654,-568.2 654,-549.2 617,-549.2"/>
<polygon fill="none" stroke="#000000" points="617,-549.2 617,-568.2 654,-568.2 654,-549.2 617,-549.2"/>
<text text-anchor="start" x="620" y="-555.3" font-family="Helvetica,sans-Serif" font-size="11.00" fill="#000000">&lt; 5</text>
<polygon fill="#ffffff" stroke="transparent" points="654,-549.2 654,-568.2 700,-568.2 700,-549.2 654,-549.2"/>
<polygon fill="none" stroke="#000000" points="654,-549.2 654,-568.2 700,-568.2 700,-549.2 654,-549.2"/>
<text text-anchor="start" x="664.6105" y="-555.3" font-family="Helvetica,sans-Serif" font-size="11.00" fill="#000000">0 rows</text>
<polygon fill="#ffffff" stroke="transparent" points="700,-549.2 700,-568.2 729,-568.2 729,-549.2 700,-549.2"/>
<polygon fill="none" stroke="#000000" points="700,-549.2 700,-568.2 729,-568.2 729,-549.2 700,-549.2"/>
<text text-anchor="start" x="710.4053" y="-555.3" font-family="Helvetica,sans-Serif" font-size="11.00" fill="#000000">1 &gt;</text>
</a>
</g>
</g>
<!-- oportunidades&#45;&gt;usuarios -->
<g id="edge15" class="edge">
<title>oportunidades:w&#45;&gt;usuarios:e</title>
<path fill="none" stroke="#000000" d="M602.455,-577.3787C482.6496,-580.3128 428.1931,-617.4562 326,-545.2 291.7529,-520.9854 326.9429,-460.2 285,-460.2"/>
<polygon fill="#000000" stroke="#000000" points="609.0006,-577.2983 617.0443,-580.7997 613.0003,-577.2492 617,-577.2 617,-577.2 617,-577.2 613.0003,-577.2492 616.9557,-573.6003 609.0006,-577.2983 609.0006,-577.2983"/>
<ellipse fill="none" stroke="#000000" cx="605.8008" cy="-577.3377" rx="3.2" ry="3.2"/>
</g>
<!-- oportunidades&#45;&gt;usuarios -->
<g id="edge16" class="edge">
<title>oportunidades:w&#45;&gt;usuarios:e</title>
<path fill="none" stroke="#000000" d="M602.4347,-575.9315C482.4864,-567.0009 428.5568,-600.2848 326,-528.2 292.9894,-504.9976 325.3491,-447.2 285,-460.2"/>
<polygon fill="#000000" stroke="#000000" points="609.0302,-576.5059 616.6876,-580.7864 613.0151,-576.8529 617,-577.2 617,-577.2 617,-577.2 613.0151,-576.8529 617.3124,-573.6136 609.0302,-576.5059 609.0302,-576.5059"/>
<ellipse fill="none" stroke="#000000" cx="605.8422" cy="-576.2282" rx="3.2" ry="3.2"/>
</g>
<!-- oportunidades&#45;&gt;usuarios -->
<g id="edge17" class="edge">
<title>oportunidades:w&#45;&gt;usuarios:e</title>
<path fill="none" stroke="#000000" d="M602.4347,-577.361C482.4864,-580.0009 428.5568,-613.2848 326,-541.2 292.9894,-517.9976 325.3491,-460.2 285,-460.2"/>
<polygon fill="#000000" stroke="#000000" points="609.0005,-577.2885 617.0398,-580.7998 613.0002,-577.2442 617,-577.2 617,-577.2 617,-577.2 613.0002,-577.2442 616.9602,-573.6002 609.0005,-577.2885 609.0005,-577.2885"/>
<ellipse fill="none" stroke="#000000" cx="605.8007" cy="-577.3239" rx="3.2" ry="3.2"/>
</g>
<!-- oportunidades&#45;&gt;usuarios -->
<g id="edge18" class="edge">
<title>oportunidades:w&#45;&gt;usuarios:e</title>
<path fill="none" stroke="#000000" d="M602.4347,-578.7905C482.4864,-593.0009 428.5568,-626.2848 326,-554.2 292.9894,-530.9976 325.3491,-473.2 285,-460.2"/>
<polygon fill="#000000" stroke="#000000" points="609.0473,-578.0685 617.3908,-580.7787 613.0236,-577.6342 617,-577.2 617,-577.2 617,-577.2 613.0236,-577.6342 616.6092,-573.6213 609.0473,-578.0685 609.0473,-578.0685"/>
<ellipse fill="none" stroke="#000000" cx="605.8662" cy="-578.4159" rx="3.2" ry="3.2"/>
</g>
<!-- oportunidades&#45;&gt;campanas -->
<g id="edge14" class="edge">
<title>oportunidades:w&#45;&gt;campanas:e</title>
<path fill="none" stroke="#000000" d="M602.9416,-574.0213C593.3509,-568.7523 589.4507,-557.9246 576,-549.2 541.85,-527.0491 538.7049,-501.2 498,-501.2"/>
<polygon fill="#000000" stroke="#000000" points="609.197,-575.4357 616.206,-580.7114 613.0985,-576.3178 617,-577.2 617,-577.2 617,-577.2 613.0985,-576.3178 617.794,-573.6886 609.197,-575.4357 609.197,-575.4357"/>
<ellipse fill="none" stroke="#000000" cx="606.0758" cy="-574.7299" rx="3.2" ry="3.2"/>
</g>
<!-- tareas -->
<g id="node7" class="node">
<title>tareas</title>
<g id="a_node7"><a xlink:href="../../tables/tareas.html" xlink:title="tareas" target="_top">
<polygon fill="#ffffff" stroke="transparent" points="628,-231.7 628,-336.7 718,-336.7 718,-231.7 628,-231.7"/>
<polygon fill="#f5f5f5" stroke="transparent" points="628,-313.2 628,-336.2 718,-336.2 718,-313.2 628,-313.2"/>
<polygon fill="none" stroke="#000000" points="628,-313.2 628,-336.2 718,-336.2 718,-313.2 628,-313.2"/>
<text text-anchor="start" x="633" y="-322.3" font-family="Helvetica,sans-Serif" font-weight="bold" font-size="11.00" fill="#000000">tareas</text>
<text text-anchor="start" x="683.0437" y="-321.3" font-family="Helvetica,sans-Serif" font-size="11.00" fill="#000000">[table]</text>
<polygon fill="none" stroke="#000000" points="628,-291.2 628,-313.2 718,-313.2 718,-291.2 628,-291.2"/>
<image xlink:href="../../images/primaryKeys.png" width="11px" height="12px" preserveAspectRatio="xMinYMin meet" x="633" y="-308.2"/>
<text text-anchor="start" x="648" y="-298.3" font-family="Helvetica,sans-Serif" font-size="11.00" fill="#000000">tarea_id</text>
<polygon fill="none" stroke="#000000" points="628,-269.2 628,-291.2 718,-291.2 718,-269.2 628,-269.2"/>
<image xlink:href="../../images/foreignKeys.png" width="11px" height="12px" preserveAspectRatio="xMinYMin meet" x="633" y="-286.2"/>
<text text-anchor="start" x="648" y="-276.3" font-family="Helvetica,sans-Serif" font-size="11.00" fill="#000000">actividad_id</text>
<polygon fill="none" stroke="#000000" points="628,-250.2 628,-269.2 718,-269.2 718,-250.2 628,-250.2"/>
<text text-anchor="start" x="631" y="-256.3" font-family="Helvetica,sans-Serif" font-size="11.00" fill="#000000">...</text>
<polygon fill="#ffffff" stroke="transparent" points="628,-231.2 628,-250.2 658,-250.2 658,-231.2 628,-231.2"/>
<polygon fill="none" stroke="#000000" points="628,-231.2 628,-250.2 658,-250.2 658,-231.2 628,-231.2"/>
<text text-anchor="start" x="631" y="-237.3" font-family="Helvetica,sans-Serif" font-size="11.00" fill="#000000">&lt; 1</text>
<polygon fill="#ffffff" stroke="transparent" points="658,-231.2 658,-250.2 701,-250.2 701,-231.2 658,-231.2"/>
<polygon fill="none" stroke="#000000" points="658,-231.2 658,-250.2 701,-250.2 701,-231.2 658,-231.2"/>
<text text-anchor="start" x="665.6105" y="-237.3" font-family="Helvetica,sans-Serif" font-size="11.00" fill="#000000">0 rows</text>
<polygon fill="#ffffff" stroke="transparent" points="701,-231.2 701,-250.2 718,-250.2 718,-231.2 701,-231.2"/>
<polygon fill="none" stroke="#000000" points="701,-231.2 701,-250.2 718,-250.2 718,-231.2 701,-231.2"/>
<text text-anchor="start" x="708.8862" y="-237.3" font-family="Helvetica,sans-Serif" font-size="11.00" fill="#000000"> &#160;</text>
</a>
</g>
</g>
<!-- tareas&#45;&gt;actividades -->
<g id="edge19" class="edge">
<title>tareas:w&#45;&gt;actividades:e</title>
<path fill="none" stroke="#000000" d="M613.9958,-283.7431C593.7591,-295.7566 596.8322,-334.2 566,-334.2"/>
<polygon fill="#000000" stroke="#000000" points="620.2444,-282.1622 628.883,-283.69 624.1222,-281.1811 628,-280.2 628,-280.2 628,-280.2 624.1222,-281.1811 627.117,-276.71 620.2444,-282.1622 620.2444,-282.1622"/>
<ellipse fill="none" stroke="#000000" cx="617.1421" cy="-282.9471" rx="3.2" ry="3.2"/>
</g>
</g>
</svg>
