<?xml version="1.0" encoding="UTF-8" standalone="no"?>
<!DOCTYPE svg PUBLIC "-//W3C//DTD SVG 1.1//EN"
 "http://www.w3.org/Graphics/SVG/1.1/DTD/svg11.dtd">
<!-- Generated by graphviz version 2.40.1 (20161225.0304)
 -->
<!-- Title: oneDegreeRelationshipsDiagram Pages: 1 -->
<svg width="586pt" height="528pt"
 viewBox="0.00 0.00 586.00 527.70" xmlns="http://www.w3.org/2000/svg" xmlns:xlink="http://www.w3.org/1999/xlink">
<g id="graph0" class="graph" transform="scale(1 1) rotate(0) translate(4 523.7)">
<title>oneDegreeRelationshipsDiagram</title>
<polygon fill="#ffffff" stroke="transparent" points="-4,4 -4,-523.7 582,-523.7 582,4 -4,4"/>
<text text-anchor="middle" x="72.4936" y="-7.3" font-family="Helvetica,sans-Serif" font-size="11.00" fill="#000000">Generated by SchemaSpy</text>
<!-- actividades -->
<g id="node1" class="node">
<title>actividades</title>
<g id="a_node1"><a xlink:href="../../tables/actividades.html" xlink:title="actividades" target="_top">
<polygon fill="#ffffff" stroke="transparent" points="197,-109.7 197,-441.7 431,-441.7 431,-109.7 197,-109.7"/>
<polygon fill="#f5f5f5" stroke="transparent" points="199,-416.7 199,-439.7 429,-439.7 429,-416.7 199,-416.7"/>
<polygon fill="none" stroke="#000000" points="199,-416.7 199,-439.7 429,-439.7 429,-416.7 199,-416.7"/>
<text text-anchor="start" x="204" y="-425.8" font-family="Helvetica,sans-Serif" font-weight="bold" font-size="11.00" fill="#000000">actividades</text>
<text text-anchor="start" x="394.0437" y="-424.8" font-family="Helvetica,sans-Serif" font-size="11.00" fill="#000000">[table]</text>
<polygon fill="none" stroke="#000000" points="199,-394.7 199,-416.7 339,-416.7 339,-394.7 199,-394.7"/>
<image xlink:href="../../images/primaryKeys.png" width="11px" height="12px" preserveAspectRatio="xMinYMin meet" x="204" y="-411.7"/>
<text text-anchor="start" x="219" y="-401.8" font-family="Helvetica,sans-Serif" font-size="11.00" fill="#000000">actividad_id</text>
<polygon fill="none" stroke="#000000" points="339,-394.7 339,-416.7 429,-416.7 429,-394.7 339,-394.7"/>
<text text-anchor="start" x="342" y="-402.4" font-family="Helvetica,sans-Serif" font-size="11.00" fill="#000000">int4[10]</text>
<polygon fill="none" stroke="#000000" points="199,-372.7 199,-394.7 339,-394.7 339,-372.7 199,-372.7"/>
<text text-anchor="start" x="219" y="-379.8" font-family="Helvetica,sans-Serif" font-size="11.00" fill="#000000">nombre</text>
<polygon fill="none" stroke="#000000" points="339,-372.7 339,-394.7 429,-394.7 429,-372.7 339,-372.7"/>
<text text-anchor="start" x="342" y="-380.4" font-family="Helvetica,sans-Serif" font-size="11.00" fill="#000000">varchar[120]</text>
<polygon fill="none" stroke="#000000" points="199,-350.7 199,-372.7 339,-372.7 339,-350.7 199,-350.7"/>
<text text-anchor="start" x="219" y="-357.8" font-family="Helvetica,sans-Serif" font-size="11.00" fill="#000000">descripcion</text>
<polygon fill="none" stroke="#000000" points="339,-350.7 339,-372.7 429,-372.7 429,-350.7 339,-350.7"/>
<text text-anchor="start" x="341.5043" y="-358.4" font-family="Helvetica,sans-Serif" font-size="11.00" fill="#000000">text[2147483647]</text>
<polygon fill="none" stroke="#000000" points="199,-328.7 199,-350.7 339,-350.7 339,-328.7 199,-328.7"/>
<text text-anchor="start" x="219" y="-335.8" font-family="Helvetica,sans-Serif" font-size="11.00" fill="#000000">estado</text>
<polygon fill="none" stroke="#000000" points="339,-328.7 339,-350.7 429,-350.7 429,-328.7 339,-328.7"/>
<text text-anchor="start" x="342" y="-336.4" font-family="Helvetica,sans-Serif" font-size="11.00" fill="#000000">int4[10]</text>
<polygon fill="none" stroke="#000000" points="199,-306.7 199,-328.7 339,-328.7 339,-306.7 199,-306.7"/>
<text text-anchor="start" x="219" y="-313.8" font-family="Helvetica,sans-Serif" font-size="11.00" fill="#000000">tip_referencia</text>
<polygon fill="none" stroke="#000000" points="339,-306.7 339,-328.7 429,-328.7 429,-306.7 339,-306.7"/>
<text text-anchor="start" x="342" y="-314.4" font-family="Helvetica,sans-Serif" font-size="11.00" fill="#000000">int4[10]</text>
<polygon fill="none" stroke="#000000" points="199,-284.7 199,-306.7 339,-306.7 339,-284.7 199,-284.7"/>
<text text-anchor="start" x="219" y="-291.8" font-family="Helvetica,sans-Serif" font-size="11.00" fill="#000000">referencia_id</text>
<polygon fill="none" stroke="#000000" points="339,-284.7 339,-306.7 429,-306.7 429,-284.7 339,-284.7"/>
<text text-anchor="start" x="342" y="-292.4" font-family="Helvetica,sans-Serif" font-size="11.00" fill="#000000">int4[10]</text>
<polygon fill="none" stroke="#000000" points="199,-262.7 199,-284.7 339,-284.7 339,-262.7 199,-262.7"/>
<text text-anchor="start" x="219" y="-269.8" font-family="Helvetica,sans-Serif" font-size="11.00" fill="#000000">fec_insercion</text>
<polygon fill="none" stroke="#000000" points="339,-262.7 339,-284.7 429,-284.7 429,-262.7 339,-262.7"/>
<text text-anchor="start" x="342" y="-270.4" font-family="Helvetica,sans-Serif" font-size="11.00" fill="#000000">timestamp[29,6]</text>
<polygon fill="none" stroke="#000000" points="199,-240.7 199,-262.7 339,-262.7 339,-240.7 199,-240.7"/>
<text text-anchor="start" x="219" y="-247.8" font-family="Helvetica,sans-Serif" font-size="11.00" fill="#000000">fec_modificacion</text>
<polygon fill="none" stroke="#000000" points="339,-240.7 339,-262.7 429,-262.7 429,-240.7 339,-240.7"/>
<text text-anchor="start" x="342" y="-248.4" font-family="Helvetica,sans-Serif" font-size="11.00" fill="#000000">timestamp[29,6]</text>
<polygon fill="none" stroke="#000000" points="199,-218.7 199,-240.7 339,-240.7 339,-218.7 199,-218.7"/>
<text text-anchor="start" x="219" y="-225.8" font-family="Helvetica,sans-Serif" font-size="11.00" fill="#000000">fec_eliminacion</text>
<polygon fill="none" stroke="#000000" points="339,-218.7 339,-240.7 429,-240.7 429,-218.7 339,-218.7"/>
<text text-anchor="start" x="342" y="-226.4" font-family="Helvetica,sans-Serif" font-size="11.00" fill="#000000">timestamp[29,6]</text>
<polygon fill="none" stroke="#000000" points="199,-196.7 199,-218.7 339,-218.7 339,-196.7 199,-196.7"/>
<image xlink:href="../../images/foreignKeys.png" width="11px" height="12px" preserveAspectRatio="xMinYMin meet" x="204" y="-213.7"/>
<text text-anchor="start" x="219" y="-203.8" font-family="Helvetica,sans-Serif" font-size="11.00" fill="#000000">usu_asignado_id</text>
<polygon fill="none" stroke="#000000" points="339,-196.7 339,-218.7 429,-218.7 429,-196.7 339,-196.7"/>
<text text-anchor="start" x="342" y="-204.4" font-family="Helvetica,sans-Serif" font-size="11.00" fill="#000000">int4[10]</text>
<polygon fill="none" stroke="#000000" points="199,-174.7 199,-196.7 339,-196.7 339,-174.7 199,-174.7"/>
<image xlink:href="../../images/foreignKeys.png" width="11px" height="12px" preserveAspectRatio="xMinYMin meet" x="204" y="-191.7"/>
<text text-anchor="start" x="219" y="-181.8" font-family="Helvetica,sans-Serif" font-size="11.00" fill="#000000">usu_insercion_id</text>
<polygon fill="none" stroke="#000000" points="339,-174.7 339,-196.7 429,-196.7 429,-174.7 339,-174.7"/>
<text text-anchor="start" x="342" y="-182.4" font-family="Helvetica,sans-Serif" font-size="11.00" fill="#000000">int4[10]</text>
<polygon fill="none" stroke="#000000" points="199,-152.7 199,-174.7 339,-174.7 339,-152.7 199,-152.7"/>
<image xlink:href="../../images/foreignKeys.png" width="11px" height="12px" preserveAspectRatio="xMinYMin meet" x="204" y="-169.7"/>
<text text-anchor="start" x="219" y="-159.8" font-family="Helvetica,sans-Serif" font-size="11.00" fill="#000000">usu_modificacion_id</text>
<polygon fill="none" stroke="#000000" points="339,-152.7 339,-174.7 429,-174.7 429,-152.7 339,-152.7"/>
<text text-anchor="start" x="342" y="-160.4" font-family="Helvetica,sans-Serif" font-size="11.00" fill="#000000">int4[10]</text>
<polygon fill="none" stroke="#000000" points="199,-130.7 199,-152.7 339,-152.7 339,-130.7 199,-130.7"/>
<image xlink:href="../../images/foreignKeys.png" width="11px" height="12px" preserveAspectRatio="xMinYMin meet" x="204" y="-147.7"/>
<text text-anchor="start" x="219" y="-137.8" font-family="Helvetica,sans-Serif" font-size="11.00" fill="#000000">usu_eliminacion_id</text>
<polygon fill="none" stroke="#000000" points="339,-130.7 339,-152.7 429,-152.7 429,-130.7 339,-130.7"/>
<text text-anchor="start" x="342" y="-138.4" font-family="Helvetica,sans-Serif" font-size="11.00" fill="#000000">int4[10]</text>
<polygon fill="#ffffff" stroke="transparent" points="199,-111.7 199,-130.7 260,-130.7 260,-111.7 199,-111.7"/>
<polygon fill="none" stroke="#000000" points="199,-111.7 199,-130.7 260,-130.7 260,-111.7 199,-111.7"/>
<text text-anchor="start" x="202" y="-117.8" font-family="Helvetica,sans-Serif" font-size="11.00" fill="#000000">&lt; 4</text>
<polygon fill="#ffffff" stroke="transparent" points="260,-111.7 260,-130.7 339,-130.7 339,-111.7 260,-111.7"/>
<polygon fill="none" stroke="#000000" points="260,-111.7 260,-130.7 339,-130.7 339,-111.7 260,-111.7"/>
<text text-anchor="start" x="303.6105" y="-117.8" font-family="Helvetica,sans-Serif" font-size="11.00" fill="#000000">0 rows</text>
<polygon fill="#ffffff" stroke="transparent" points="339,-111.7 339,-130.7 429,-130.7 429,-111.7 339,-111.7"/>
<polygon fill="none" stroke="#000000" points="339,-111.7 339,-130.7 429,-130.7 429,-111.7 339,-111.7"/>
<text text-anchor="start" x="410.4053" y="-117.8" font-family="Helvetica,sans-Serif" font-size="11.00" fill="#000000">2 &gt;</text>
<polygon fill="none" stroke="#000000" stroke-width="2" points="198,-110.7 198,-440.7 430,-440.7 430,-110.7 198,-110.7"/>
</a>
</g>
</g>
<!-- usuarios -->
<g id="node2" class="node">
<title>usuarios</title>
<g id="a_node2"><a xlink:href="../../tables/usuarios.html" xlink:title="usuarios" target="_top">
<polygon fill="#ffffff" stroke="transparent" points="8,-38.2 8,-209.2 148,-209.2 148,-38.2 8,-38.2"/>
<polygon fill="#f5f5f5" stroke="transparent" points="8,-185.7 8,-208.7 148,-208.7 148,-185.7 8,-185.7"/>
<polygon fill="none" stroke="#000000" points="8,-185.7 8,-208.7 148,-208.7 148,-185.7 8,-185.7"/>
<text text-anchor="start" x="13" y="-194.8" font-family="Helvetica,sans-Serif" font-weight="bold" font-size="11.00" fill="#000000">usuarios</text>
<text text-anchor="start" x="113.0437" y="-193.8" font-family="Helvetica,sans-Serif" font-size="11.00" fill="#000000">[table]</text>
<polygon fill="none" stroke="#000000" points="8,-163.7 8,-185.7 148,-185.7 148,-163.7 8,-163.7"/>
<image xlink:href="../../images/primaryKeys.png" width="11px" height="12px" preserveAspectRatio="xMinYMin meet" x="13" y="-180.7"/>
<text text-anchor="start" x="28" y="-170.8" font-family="Helvetica,sans-Serif" font-size="11.00" fill="#000000">usuario_id</text>
<polygon fill="none" stroke="#000000" points="8,-141.7 8,-163.7 148,-163.7 148,-141.7 8,-141.7"/>
<image xlink:href="../../images/foreignKeys.png" width="11px" height="12px" preserveAspectRatio="xMinYMin meet" x="13" y="-158.7"/>
<text text-anchor="start" x="28" y="-148.8" font-family="Helvetica,sans-Serif" font-size="11.00" fill="#000000">persona_id</text>
<polygon fill="none" stroke="#000000" points="8,-119.7 8,-141.7 148,-141.7 148,-119.7 8,-119.7"/>
<image xlink:href="../../images/foreignKeys.png" width="11px" height="12px" preserveAspectRatio="xMinYMin meet" x="13" y="-136.7"/>
<text text-anchor="start" x="28" y="-126.8" font-family="Helvetica,sans-Serif" font-size="11.00" fill="#000000">usu_insercion_id</text>
<polygon fill="none" stroke="#000000" points="8,-97.7 8,-119.7 148,-119.7 148,-97.7 8,-97.7"/>
<image xlink:href="../../images/foreignKeys.png" width="11px" height="12px" preserveAspectRatio="xMinYMin meet" x="13" y="-114.7"/>
<text text-anchor="start" x="28" y="-104.8" font-family="Helvetica,sans-Serif" font-size="11.00" fill="#000000">usu_modificacion_id</text>
<polygon fill="none" stroke="#000000" points="8,-75.7 8,-97.7 148,-97.7 148,-75.7 8,-75.7"/>
<image xlink:href="../../images/foreignKeys.png" width="11px" height="12px" preserveAspectRatio="xMinYMin meet" x="13" y="-92.7"/>
<text text-anchor="start" x="28" y="-82.8" font-family="Helvetica,sans-Serif" font-size="11.00" fill="#000000">usu_eliminacion_id</text>
<polygon fill="none" stroke="#000000" points="8,-56.7 8,-75.7 148,-75.7 148,-56.7 8,-56.7"/>
<text text-anchor="start" x="11" y="-62.8" font-family="Helvetica,sans-Serif" font-size="11.00" fill="#000000">...</text>
<polygon fill="#ffffff" stroke="transparent" points="8,-37.7 8,-56.7 56,-56.7 56,-37.7 8,-37.7"/>
<polygon fill="none" stroke="#000000" points="8,-37.7 8,-56.7 56,-56.7 56,-37.7 8,-37.7"/>
<text text-anchor="start" x="11" y="-43.8" font-family="Helvetica,sans-Serif" font-size="11.00" fill="#000000">&lt; 4</text>
<polygon fill="#ffffff" stroke="transparent" points="56,-37.7 56,-56.7 107,-56.7 107,-37.7 56,-37.7"/>
<polygon fill="none" stroke="#000000" points="56,-37.7 56,-56.7 107,-56.7 107,-37.7 56,-37.7"/>
<text text-anchor="start" x="71.6105" y="-43.8" font-family="Helvetica,sans-Serif" font-size="11.00" fill="#000000">0 rows</text>
<polygon fill="#ffffff" stroke="transparent" points="107,-37.7 107,-56.7 148,-56.7 148,-37.7 107,-37.7"/>
<polygon fill="none" stroke="#000000" points="107,-37.7 107,-56.7 148,-56.7 148,-37.7 107,-37.7"/>
<text text-anchor="start" x="123.2904" y="-43.8" font-family="Helvetica,sans-Serif" font-size="11.00" fill="#000000">19 &gt;</text>
</a>
</g>
</g>
<!-- actividades&#45;&gt;usuarios -->
<g id="edge1" class="edge">
<title>actividades:w&#45;&gt;usuarios:e</title>
<path fill="none" stroke="#000000" d="M184.9604,-203.6536C171.8775,-194.8416 169.0921,-174.7 148,-174.7"/>
<polygon fill="#000000" stroke="#000000" points="191.3129,-205.4844 198.003,-211.1592 195.1565,-206.5922 199,-207.7 199,-207.7 199,-207.7 195.1565,-206.5922 199.997,-204.2408 191.3129,-205.4844 191.3129,-205.4844"/>
<ellipse fill="none" stroke="#000000" cx="188.2381" cy="-204.5982" rx="3.2" ry="3.2"/>
</g>
<!-- actividades&#45;&gt;usuarios -->
<g id="edge2" class="edge">
<title>actividades:w&#45;&gt;usuarios:e</title>
<path fill="none" stroke="#000000" d="M184.9604,-145.7464C171.8775,-154.5584 169.0921,-174.7 148,-174.7"/>
<polygon fill="#000000" stroke="#000000" points="191.3129,-143.9156 199.997,-145.1592 195.1565,-142.8078 199,-141.7 199,-141.7 199,-141.7 195.1565,-142.8078 198.003,-138.2408 191.3129,-143.9156 191.3129,-143.9156"/>
<ellipse fill="none" stroke="#000000" cx="188.2381" cy="-144.8018" rx="3.2" ry="3.2"/>
</g>
<!-- actividades&#45;&gt;usuarios -->
<g id="edge3" class="edge">
<title>actividades:w&#45;&gt;usuarios:e</title>
<path fill="none" stroke="#000000" d="M184.5097,-183.9813C172.3398,-180.8875 165.3909,-174.7 148,-174.7"/>
<polygon fill="#000000" stroke="#000000" points="191.0557,-184.7576 198.5759,-189.2749 195.0278,-185.2288 199,-185.7 199,-185.7 199,-185.7 195.0278,-185.2288 199.4241,-182.1251 191.0557,-184.7576 191.0557,-184.7576"/>
<ellipse fill="none" stroke="#000000" cx="187.878" cy="-184.3807" rx="3.2" ry="3.2"/>
</g>
<!-- actividades&#45;&gt;usuarios -->
<g id="edge4" class="edge">
<title>actividades:w&#45;&gt;usuarios:e</title>
<path fill="none" stroke="#000000" d="M184.5097,-165.4188C172.3398,-168.5125 165.3909,-174.7 148,-174.7"/>
<polygon fill="#000000" stroke="#000000" points="191.0557,-164.6424 199.4241,-167.2749 195.0278,-164.1712 199,-163.7 199,-163.7 199,-163.7 195.0278,-164.1712 198.5759,-160.1251 191.0557,-164.6424 191.0557,-164.6424"/>
<ellipse fill="none" stroke="#000000" cx="187.878" cy="-165.0193" rx="3.2" ry="3.2"/>
</g>
<!-- llamadas -->
<g id="node3" class="node">
<title>llamadas</title>
<g id="a_node3"><a xlink:href="../../tables/llamadas.html" xlink:title="llamadas" target="_top">
<polygon fill="#ffffff" stroke="transparent" points="480,-429.7 480,-515.7 570,-515.7 570,-429.7 480,-429.7"/>
<polygon fill="#f5f5f5" stroke="transparent" points="480,-492.7 480,-515.7 570,-515.7 570,-492.7 480,-492.7"/>
<polygon fill="none" stroke="#000000" points="480,-492.7 480,-515.7 570,-515.7 570,-492.7 480,-492.7"/>
<text text-anchor="start" x="485" y="-501.8" font-family="Helvetica,sans-Serif" font-weight="bold" font-size="11.00" fill="#000000">llamadas</text>
<text text-anchor="start" x="535.0437" y="-500.8" font-family="Helvetica,sans-Serif" font-size="11.00" fill="#000000">[table]</text>
<polygon fill="none" stroke="#000000" points="480,-470.7 480,-492.7 570,-492.7 570,-470.7 480,-470.7"/>
<image xlink:href="../../images/primaryKeys.png" width="11px" height="12px" preserveAspectRatio="xMinYMin meet" x="485" y="-487.7"/>
<text text-anchor="start" x="500" y="-477.8" font-family="Helvetica,sans-Serif" font-size="11.00" fill="#000000">llamada_id</text>
<polygon fill="none" stroke="#000000" points="480,-448.7 480,-470.7 570,-470.7 570,-448.7 480,-448.7"/>
<image xlink:href="../../images/foreignKeys.png" width="11px" height="12px" preserveAspectRatio="xMinYMin meet" x="485" y="-465.7"/>
<text text-anchor="start" x="500" y="-455.8" font-family="Helvetica,sans-Serif" font-size="11.00" fill="#000000">actividad_id</text>
<polygon fill="#ffffff" stroke="transparent" points="480,-429.7 480,-448.7 510,-448.7 510,-429.7 480,-429.7"/>
<polygon fill="none" stroke="#000000" points="480,-429.7 480,-448.7 510,-448.7 510,-429.7 480,-429.7"/>
<text text-anchor="start" x="483" y="-435.8" font-family="Helvetica,sans-Serif" font-size="11.00" fill="#000000">&lt; 1</text>
<polygon fill="#ffffff" stroke="transparent" points="510,-429.7 510,-448.7 553,-448.7 553,-429.7 510,-429.7"/>
<polygon fill="none" stroke="#000000" points="510,-429.7 510,-448.7 553,-448.7 553,-429.7 510,-429.7"/>
<text text-anchor="start" x="517.6105" y="-435.8" font-family="Helvetica,sans-Serif" font-size="11.00" fill="#000000">0 rows</text>
<polygon fill="#ffffff" stroke="transparent" points="553,-429.7 553,-448.7 570,-448.7 570,-429.7 553,-429.7"/>
<polygon fill="none" stroke="#000000" points="553,-429.7 553,-448.7 570,-448.7 570,-429.7 553,-429.7"/>
<text text-anchor="start" x="560.8862" y="-435.8" font-family="Helvetica,sans-Serif" font-size="11.00" fill="#000000"> &#160;</text>
</a>
</g>
</g>
<!-- llamadas&#45;&gt;actividades -->
<g id="edge5" class="edge">
<title>llamadas:w&#45;&gt;actividades:e</title>
<path fill="none" stroke="#000000" d="M466.3001,-455.096C450.8364,-442.0373 456.08,-405.7 429,-405.7"/>
<polygon fill="#000000" stroke="#000000" points="472.4168,-457.1515 478.8532,-463.1125 476.2084,-458.4258 480,-459.7 480,-459.7 480,-459.7 476.2084,-458.4258 481.1468,-456.2875 472.4168,-457.1515 472.4168,-457.1515"/>
<ellipse fill="none" stroke="#000000" cx="469.3835" cy="-456.1322" rx="3.2" ry="3.2"/>
</g>
<!-- tareas -->
<g id="node4" class="node">
<title>tareas</title>
<g id="a_node4"><a xlink:href="../../tables/tareas.html" xlink:title="tareas" target="_top">
<polygon fill="#ffffff" stroke="transparent" points="480,-303.2 480,-408.2 570,-408.2 570,-303.2 480,-303.2"/>
<polygon fill="#f5f5f5" stroke="transparent" points="480,-384.7 480,-407.7 570,-407.7 570,-384.7 480,-384.7"/>
<polygon fill="none" stroke="#000000" points="480,-384.7 480,-407.7 570,-407.7 570,-384.7 480,-384.7"/>
<text text-anchor="start" x="485" y="-393.8" font-family="Helvetica,sans-Serif" font-weight="bold" font-size="11.00" fill="#000000">tareas</text>
<text text-anchor="start" x="535.0437" y="-392.8" font-family="Helvetica,sans-Serif" font-size="11.00" fill="#000000">[table]</text>
<polygon fill="none" stroke="#000000" points="480,-362.7 480,-384.7 570,-384.7 570,-362.7 480,-362.7"/>
<image xlink:href="../../images/primaryKeys.png" width="11px" height="12px" preserveAspectRatio="xMinYMin meet" x="485" y="-379.7"/>
<text text-anchor="start" x="500" y="-369.8" font-family="Helvetica,sans-Serif" font-size="11.00" fill="#000000">tarea_id</text>
<polygon fill="none" stroke="#000000" points="480,-340.7 480,-362.7 570,-362.7 570,-340.7 480,-340.7"/>
<image xlink:href="../../images/foreignKeys.png" width="11px" height="12px" preserveAspectRatio="xMinYMin meet" x="485" y="-357.7"/>
<text text-anchor="start" x="500" y="-347.8" font-family="Helvetica,sans-Serif" font-size="11.00" fill="#000000">actividad_id</text>
<polygon fill="none" stroke="#000000" points="480,-321.7 480,-340.7 570,-340.7 570,-321.7 480,-321.7"/>
<text text-anchor="start" x="483" y="-327.8" font-family="Helvetica,sans-Serif" font-size="11.00" fill="#000000">...</text>
<polygon fill="#ffffff" stroke="transparent" points="480,-302.7 480,-321.7 510,-321.7 510,-302.7 480,-302.7"/>
<polygon fill="none" stroke="#000000" points="480,-302.7 480,-321.7 510,-321.7 510,-302.7 480,-302.7"/>
<text text-anchor="start" x="483" y="-308.8" font-family="Helvetica,sans-Serif" font-size="11.00" fill="#000000">&lt; 1</text>
<polygon fill="#ffffff" stroke="transparent" points="510,-302.7 510,-321.7 553,-321.7 553,-302.7 510,-302.7"/>
<polygon fill="none" stroke="#000000" points="510,-302.7 510,-321.7 553,-321.7 553,-302.7 510,-302.7"/>
<text text-anchor="start" x="517.6105" y="-308.8" font-family="Helvetica,sans-Serif" font-size="11.00" fill="#000000">0 rows</text>
<polygon fill="#ffffff" stroke="transparent" points="553,-302.7 553,-321.7 570,-321.7 570,-302.7 553,-302.7"/>
<polygon fill="none" stroke="#000000" points="553,-302.7 553,-321.7 570,-321.7 570,-302.7 553,-302.7"/>
<text text-anchor="start" x="560.8862" y="-308.8" font-family="Helvetica,sans-Serif" font-size="11.00" fill="#000000"> &#160;</text>
</a>
</g>
</g>
<!-- tareas&#45;&gt;actividades -->
<g id="edge6" class="edge">
<title>tareas:w&#45;&gt;actividades:e</title>
<path fill="none" stroke="#000000" d="M466.3001,-356.304C450.8364,-369.3627 456.08,-405.7 429,-405.7"/>
<polygon fill="#000000" stroke="#000000" points="472.4168,-354.2485 481.1468,-355.1125 476.2084,-352.9742 480,-351.7 480,-351.7 480,-351.7 476.2084,-352.9742 478.8532,-348.2875 472.4168,-354.2485 472.4168,-354.2485"/>
<ellipse fill="none" stroke="#000000" cx="469.3835" cy="-355.2678" rx="3.2" ry="3.2"/>
</g>
</g>
</svg>
