<?xml version="1.0" encoding="UTF-8" standalone="no"?>
<!DOCTYPE svg PUBLIC "-//W3C//DTD SVG 1.1//EN"
 "http://www.w3.org/Graphics/SVG/1.1/DTD/svg11.dtd">
<!-- Generated by graphviz version 2.40.1 (20161225.0304)
 -->
<!-- Title: oneDegreeRelationshipsDiagramImplied Pages: 1 -->
<svg width="586pt" height="462pt"
 viewBox="0.00 0.00 586.00 461.70" xmlns="http://www.w3.org/2000/svg" xmlns:xlink="http://www.w3.org/1999/xlink">
<g id="graph0" class="graph" transform="scale(1 1) rotate(0) translate(4 457.7)">
<title>oneDegreeRelationshipsDiagramImplied</title>
<polygon fill="#ffffff" stroke="transparent" points="-4,4 -4,-457.7 582,-457.7 582,4 -4,4"/>
<text text-anchor="middle" x="72.4936" y="-7.3" font-family="Helvetica,sans-Serif" font-size="11.00" fill="#000000">Generated by SchemaSpy</text>
<!-- actividades -->
<g id="node1" class="node">
<title>actividades</title>
<g id="a_node1"><a xlink:href="../../tables/actividades.html" xlink:title="actividades" target="_top">
<polygon fill="#ffffff" stroke="transparent" points="197,-43.7 197,-375.7 431,-375.7 431,-43.7 197,-43.7"/>
<polygon fill="#f5f5f5" stroke="transparent" points="199,-350.7 199,-373.7 429,-373.7 429,-350.7 199,-350.7"/>
<polygon fill="none" stroke="#000000" points="199,-350.7 199,-373.7 429,-373.7 429,-350.7 199,-350.7"/>
<text text-anchor="start" x="204" y="-359.8" font-family="Helvetica,sans-Serif" font-weight="bold" font-size="11.00" fill="#000000">actividades</text>
<text text-anchor="start" x="394.0437" y="-358.8" font-family="Helvetica,sans-Serif" font-size="11.00" fill="#000000">[table]</text>
<polygon fill="none" stroke="#000000" points="199,-328.7 199,-350.7 339,-350.7 339,-328.7 199,-328.7"/>
<image xlink:href="../../images/primaryKeys.png" width="11px" height="12px" preserveAspectRatio="xMinYMin meet" x="204" y="-345.7"/>
<text text-anchor="start" x="219" y="-335.8" font-family="Helvetica,sans-Serif" font-size="11.00" fill="#000000">actividad_id</text>
<polygon fill="none" stroke="#000000" points="339,-328.7 339,-350.7 429,-350.7 429,-328.7 339,-328.7"/>
<text text-anchor="start" x="342" y="-336.4" font-family="Helvetica,sans-Serif" font-size="11.00" fill="#000000">int4[10]</text>
<polygon fill="none" stroke="#000000" points="199,-306.7 199,-328.7 339,-328.7 339,-306.7 199,-306.7"/>
<text text-anchor="start" x="219" y="-313.8" font-family="Helvetica,sans-Serif" font-size="11.00" fill="#000000">nombre</text>
<polygon fill="none" stroke="#000000" points="339,-306.7 339,-328.7 429,-328.7 429,-306.7 339,-306.7"/>
<text text-anchor="start" x="342" y="-314.4" font-family="Helvetica,sans-Serif" font-size="11.00" fill="#000000">varchar[120]</text>
<polygon fill="none" stroke="#000000" points="199,-284.7 199,-306.7 339,-306.7 339,-284.7 199,-284.7"/>
<text text-anchor="start" x="219" y="-291.8" font-family="Helvetica,sans-Serif" font-size="11.00" fill="#000000">descripcion</text>
<polygon fill="none" stroke="#000000" points="339,-284.7 339,-306.7 429,-306.7 429,-284.7 339,-284.7"/>
<text text-anchor="start" x="341.5043" y="-292.4" font-family="Helvetica,sans-Serif" font-size="11.00" fill="#000000">text[2147483647]</text>
<polygon fill="none" stroke="#000000" points="199,-262.7 199,-284.7 339,-284.7 339,-262.7 199,-262.7"/>
<text text-anchor="start" x="219" y="-269.8" font-family="Helvetica,sans-Serif" font-size="11.00" fill="#000000">estado</text>
<polygon fill="none" stroke="#000000" points="339,-262.7 339,-284.7 429,-284.7 429,-262.7 339,-262.7"/>
<text text-anchor="start" x="342" y="-270.4" font-family="Helvetica,sans-Serif" font-size="11.00" fill="#000000">int4[10]</text>
<polygon fill="none" stroke="#000000" points="199,-240.7 199,-262.7 339,-262.7 339,-240.7 199,-240.7"/>
<text text-anchor="start" x="219" y="-247.8" font-family="Helvetica,sans-Serif" font-size="11.00" fill="#000000">tip_referencia</text>
<polygon fill="none" stroke="#000000" points="339,-240.7 339,-262.7 429,-262.7 429,-240.7 339,-240.7"/>
<text text-anchor="start" x="342" y="-248.4" font-family="Helvetica,sans-Serif" font-size="11.00" fill="#000000">int4[10]</text>
<polygon fill="none" stroke="#000000" points="199,-218.7 199,-240.7 339,-240.7 339,-218.7 199,-218.7"/>
<text text-anchor="start" x="219" y="-225.8" font-family="Helvetica,sans-Serif" font-size="11.00" fill="#000000">referencia_id</text>
<polygon fill="none" stroke="#000000" points="339,-218.7 339,-240.7 429,-240.7 429,-218.7 339,-218.7"/>
<text text-anchor="start" x="342" y="-226.4" font-family="Helvetica,sans-Serif" font-size="11.00" fill="#000000">int4[10]</text>
<polygon fill="none" stroke="#000000" points="199,-196.7 199,-218.7 339,-218.7 339,-196.7 199,-196.7"/>
<text text-anchor="start" x="219" y="-203.8" font-family="Helvetica,sans-Serif" font-size="11.00" fill="#000000">fec_insercion</text>
<polygon fill="none" stroke="#000000" points="339,-196.7 339,-218.7 429,-218.7 429,-196.7 339,-196.7"/>
<text text-anchor="start" x="342" y="-204.4" font-family="Helvetica,sans-Serif" font-size="11.00" fill="#000000">timestamp[29,6]</text>
<polygon fill="none" stroke="#000000" points="199,-174.7 199,-196.7 339,-196.7 339,-174.7 199,-174.7"/>
<text text-anchor="start" x="219" y="-181.8" font-family="Helvetica,sans-Serif" font-size="11.00" fill="#000000">fec_modificacion</text>
<polygon fill="none" stroke="#000000" points="339,-174.7 339,-196.7 429,-196.7 429,-174.7 339,-174.7"/>
<text text-anchor="start" x="342" y="-182.4" font-family="Helvetica,sans-Serif" font-size="11.00" fill="#000000">timestamp[29,6]</text>
<polygon fill="none" stroke="#000000" points="199,-152.7 199,-174.7 339,-174.7 339,-152.7 199,-152.7"/>
<text text-anchor="start" x="219" y="-159.8" font-family="Helvetica,sans-Serif" font-size="11.00" fill="#000000">fec_eliminacion</text>
<polygon fill="none" stroke="#000000" points="339,-152.7 339,-174.7 429,-174.7 429,-152.7 339,-152.7"/>
<text text-anchor="start" x="342" y="-160.4" font-family="Helvetica,sans-Serif" font-size="11.00" fill="#000000">timestamp[29,6]</text>
<polygon fill="none" stroke="#000000" points="199,-130.7 199,-152.7 339,-152.7 339,-130.7 199,-130.7"/>
<image xlink:href="../../images/foreignKeys.png" width="11px" height="12px" preserveAspectRatio="xMinYMin meet" x="204" y="-147.7"/>
<text text-anchor="start" x="219" y="-137.8" font-family="Helvetica,sans-Serif" font-size="11.00" fill="#000000">usu_asignado_id</text>
<polygon fill="none" stroke="#000000" points="339,-130.7 339,-152.7 429,-152.7 429,-130.7 339,-130.7"/>
<text text-anchor="start" x="342" y="-138.4" font-family="Helvetica,sans-Serif" font-size="11.00" fill="#000000">int4[10]</text>
<polygon fill="none" stroke="#000000" points="199,-108.7 199,-130.7 339,-130.7 339,-108.7 199,-108.7"/>
<image xlink:href="../../images/foreignKeys.png" width="11px" height="12px" preserveAspectRatio="xMinYMin meet" x="204" y="-125.7"/>
<text text-anchor="start" x="219" y="-115.8" font-family="Helvetica,sans-Serif" font-size="11.00" fill="#000000">usu_insercion_id</text>
<polygon fill="none" stroke="#000000" points="339,-108.7 339,-130.7 429,-130.7 429,-108.7 339,-108.7"/>
<text text-anchor="start" x="342" y="-116.4" font-family="Helvetica,sans-Serif" font-size="11.00" fill="#000000">int4[10]</text>
<polygon fill="none" stroke="#000000" points="199,-86.7 199,-108.7 339,-108.7 339,-86.7 199,-86.7"/>
<image xlink:href="../../images/foreignKeys.png" width="11px" height="12px" preserveAspectRatio="xMinYMin meet" x="204" y="-103.7"/>
<text text-anchor="start" x="219" y="-93.8" font-family="Helvetica,sans-Serif" font-size="11.00" fill="#000000">usu_modificacion_id</text>
<polygon fill="none" stroke="#000000" points="339,-86.7 339,-108.7 429,-108.7 429,-86.7 339,-86.7"/>
<text text-anchor="start" x="342" y="-94.4" font-family="Helvetica,sans-Serif" font-size="11.00" fill="#000000">int4[10]</text>
<polygon fill="none" stroke="#000000" points="199,-64.7 199,-86.7 339,-86.7 339,-64.7 199,-64.7"/>
<image xlink:href="../../images/foreignKeys.png" width="11px" height="12px" preserveAspectRatio="xMinYMin meet" x="204" y="-81.7"/>
<text text-anchor="start" x="219" y="-71.8" font-family="Helvetica,sans-Serif" font-size="11.00" fill="#000000">usu_eliminacion_id</text>
<polygon fill="none" stroke="#000000" points="339,-64.7 339,-86.7 429,-86.7 429,-64.7 339,-64.7"/>
<text text-anchor="start" x="342" y="-72.4" font-family="Helvetica,sans-Serif" font-size="11.00" fill="#000000">int4[10]</text>
<polygon fill="#ffffff" stroke="transparent" points="199,-45.7 199,-64.7 260,-64.7 260,-45.7 199,-45.7"/>
<polygon fill="none" stroke="#000000" points="199,-45.7 199,-64.7 260,-64.7 260,-45.7 199,-45.7"/>
<text text-anchor="start" x="202" y="-51.8" font-family="Helvetica,sans-Serif" font-size="11.00" fill="#000000">&lt; 4</text>
<polygon fill="#ffffff" stroke="transparent" points="260,-45.7 260,-64.7 339,-64.7 339,-45.7 260,-45.7"/>
<polygon fill="none" stroke="#000000" points="260,-45.7 260,-64.7 339,-64.7 339,-45.7 260,-45.7"/>
<text text-anchor="start" x="303.6105" y="-51.8" font-family="Helvetica,sans-Serif" font-size="11.00" fill="#000000">0 rows</text>
<polygon fill="#ffffff" stroke="transparent" points="339,-45.7 339,-64.7 429,-64.7 429,-45.7 339,-45.7"/>
<polygon fill="none" stroke="#000000" points="339,-45.7 339,-64.7 429,-64.7 429,-45.7 339,-45.7"/>
<text text-anchor="start" x="410.4053" y="-51.8" font-family="Helvetica,sans-Serif" font-size="11.00" fill="#000000">2 &gt;</text>
<polygon fill="none" stroke="#000000" stroke-width="2" points="198,-44.7 198,-374.7 430,-374.7 430,-44.7 198,-44.7"/>
</a>
</g>
</g>
<!-- usuarios -->
<g id="node2" class="node">
<title>usuarios</title>
<g id="a_node2"><a xlink:href="../../tables/usuarios.html" xlink:title="usuarios" target="_top">
<polygon fill="#ffffff" stroke="transparent" points="8,-38.2 8,-143.2 148,-143.2 148,-38.2 8,-38.2"/>
<polygon fill="#f5f5f5" stroke="transparent" points="8,-119.7 8,-142.7 148,-142.7 148,-119.7 8,-119.7"/>
<polygon fill="none" stroke="#000000" points="8,-119.7 8,-142.7 148,-142.7 148,-119.7 8,-119.7"/>
<text text-anchor="start" x="13" y="-128.8" font-family="Helvetica,sans-Serif" font-weight="bold" font-size="11.00" fill="#000000">usuarios</text>
<text text-anchor="start" x="113.0437" y="-127.8" font-family="Helvetica,sans-Serif" font-size="11.00" fill="#000000">[table]</text>
<polygon fill="none" stroke="#000000" points="8,-97.7 8,-119.7 148,-119.7 148,-97.7 8,-97.7"/>
<image xlink:href="../../images/primaryKeys.png" width="11px" height="12px" preserveAspectRatio="xMinYMin meet" x="13" y="-114.7"/>
<text text-anchor="start" x="28" y="-104.8" font-family="Helvetica,sans-Serif" font-size="11.00" fill="#000000">usuario_id</text>
<polygon fill="none" stroke="#000000" points="8,-75.7 8,-97.7 148,-97.7 148,-75.7 8,-75.7"/>
<image xlink:href="../../images/foreignKeys.png" width="11px" height="12px" preserveAspectRatio="xMinYMin meet" x="13" y="-92.7"/>
<text text-anchor="start" x="28" y="-82.8" font-family="Helvetica,sans-Serif" font-size="11.00" fill="#000000">persona_id</text>
<polygon fill="none" stroke="#000000" points="8,-56.7 8,-75.7 148,-75.7 148,-56.7 8,-56.7"/>
<text text-anchor="start" x="11" y="-62.8" font-family="Helvetica,sans-Serif" font-size="11.00" fill="#000000">...</text>
<polygon fill="#ffffff" stroke="transparent" points="8,-37.7 8,-56.7 51,-56.7 51,-37.7 8,-37.7"/>
<polygon fill="none" stroke="#000000" points="8,-37.7 8,-56.7 51,-56.7 51,-37.7 8,-37.7"/>
<text text-anchor="start" x="11" y="-43.8" font-family="Helvetica,sans-Serif" font-size="11.00" fill="#000000"> &#160;</text>
<polygon fill="#ffffff" stroke="transparent" points="51,-37.7 51,-56.7 105,-56.7 105,-37.7 51,-37.7"/>
<polygon fill="none" stroke="#000000" points="51,-37.7 51,-56.7 105,-56.7 105,-37.7 51,-37.7"/>
<text text-anchor="start" x="69.6105" y="-43.8" font-family="Helvetica,sans-Serif" font-size="11.00" fill="#000000">0 rows</text>
<polygon fill="#ffffff" stroke="transparent" points="105,-37.7 105,-56.7 148,-56.7 148,-37.7 105,-37.7"/>
<polygon fill="none" stroke="#000000" points="105,-37.7 105,-56.7 148,-56.7 148,-37.7 105,-37.7"/>
<text text-anchor="start" x="123.2904" y="-43.8" font-family="Helvetica,sans-Serif" font-size="11.00" fill="#000000">12 &gt;</text>
</a>
</g>
</g>
<!-- actividades&#45;&gt;usuarios -->
<g id="edge1" class="edge">
<title>actividades:w&#45;&gt;usuarios:e</title>
<path fill="none" stroke="#000000" d="M184.9604,-137.6536C171.8775,-128.8416 169.0921,-108.7 148,-108.7"/>
<polygon fill="#000000" stroke="#000000" points="191.3129,-139.4844 198.003,-145.1592 195.1565,-140.5922 199,-141.7 199,-141.7 199,-141.7 195.1565,-140.5922 199.997,-138.2408 191.3129,-139.4844 191.3129,-139.4844"/>
<ellipse fill="none" stroke="#000000" cx="188.2381" cy="-138.5982" rx="3.2" ry="3.2"/>
</g>
<!-- actividades&#45;&gt;usuarios -->
<g id="edge2" class="edge">
<title>actividades:w&#45;&gt;usuarios:e</title>
<path fill="none" stroke="#000000" d="M184.9604,-79.7464C171.8775,-88.5584 169.0921,-108.7 148,-108.7"/>
<polygon fill="#000000" stroke="#000000" points="191.3129,-77.9156 199.997,-79.1592 195.1565,-76.8078 199,-75.7 199,-75.7 199,-75.7 195.1565,-76.8078 198.003,-72.2408 191.3129,-77.9156 191.3129,-77.9156"/>
<ellipse fill="none" stroke="#000000" cx="188.2381" cy="-78.8018" rx="3.2" ry="3.2"/>
</g>
<!-- actividades&#45;&gt;usuarios -->
<g id="edge3" class="edge">
<title>actividades:w&#45;&gt;usuarios:e</title>
<path fill="none" stroke="#000000" d="M184.5097,-117.9813C172.3398,-114.8875 165.3909,-108.7 148,-108.7"/>
<polygon fill="#000000" stroke="#000000" points="191.0557,-118.7576 198.5759,-123.2749 195.0278,-119.2288 199,-119.7 199,-119.7 199,-119.7 195.0278,-119.2288 199.4241,-116.1251 191.0557,-118.7576 191.0557,-118.7576"/>
<ellipse fill="none" stroke="#000000" cx="187.878" cy="-118.3807" rx="3.2" ry="3.2"/>
</g>
<!-- actividades&#45;&gt;usuarios -->
<g id="edge4" class="edge">
<title>actividades:w&#45;&gt;usuarios:e</title>
<path fill="none" stroke="#000000" d="M184.5097,-99.4187C172.3398,-102.5125 165.3909,-108.7 148,-108.7"/>
<polygon fill="#000000" stroke="#000000" points="191.0557,-98.6424 199.4241,-101.2749 195.0278,-98.1712 199,-97.7 199,-97.7 199,-97.7 195.0278,-98.1712 198.5759,-94.1251 191.0557,-98.6424 191.0557,-98.6424"/>
<ellipse fill="none" stroke="#000000" cx="187.878" cy="-99.0193" rx="3.2" ry="3.2"/>
</g>
<!-- llamadas -->
<g id="node3" class="node">
<title>llamadas</title>
<g id="a_node3"><a xlink:href="../../tables/llamadas.html" xlink:title="llamadas" target="_top">
<polygon fill="#ffffff" stroke="transparent" points="480,-363.7 480,-449.7 570,-449.7 570,-363.7 480,-363.7"/>
<polygon fill="#f5f5f5" stroke="transparent" points="480,-426.7 480,-449.7 570,-449.7 570,-426.7 480,-426.7"/>
<polygon fill="none" stroke="#000000" points="480,-426.7 480,-449.7 570,-449.7 570,-426.7 480,-426.7"/>
<text text-anchor="start" x="485" y="-435.8" font-family="Helvetica,sans-Serif" font-weight="bold" font-size="11.00" fill="#000000">llamadas</text>
<text text-anchor="start" x="535.0437" y="-434.8" font-family="Helvetica,sans-Serif" font-size="11.00" fill="#000000">[table]</text>
<polygon fill="none" stroke="#000000" points="480,-404.7 480,-426.7 570,-426.7 570,-404.7 480,-404.7"/>
<image xlink:href="../../images/primaryKeys.png" width="11px" height="12px" preserveAspectRatio="xMinYMin meet" x="485" y="-421.7"/>
<text text-anchor="start" x="500" y="-411.8" font-family="Helvetica,sans-Serif" font-size="11.00" fill="#000000">llamada_id</text>
<polygon fill="none" stroke="#000000" points="480,-382.7 480,-404.7 570,-404.7 570,-382.7 480,-382.7"/>
<image xlink:href="../../images/foreignKeys.png" width="11px" height="12px" preserveAspectRatio="xMinYMin meet" x="485" y="-399.7"/>
<text text-anchor="start" x="500" y="-389.8" font-family="Helvetica,sans-Serif" font-size="11.00" fill="#000000">actividad_id</text>
<polygon fill="#ffffff" stroke="transparent" points="480,-363.7 480,-382.7 510,-382.7 510,-363.7 480,-363.7"/>
<polygon fill="none" stroke="#000000" points="480,-363.7 480,-382.7 510,-382.7 510,-363.7 480,-363.7"/>
<text text-anchor="start" x="483" y="-369.8" font-family="Helvetica,sans-Serif" font-size="11.00" fill="#000000">&lt; 1</text>
<polygon fill="#ffffff" stroke="transparent" points="510,-363.7 510,-382.7 553,-382.7 553,-363.7 510,-363.7"/>
<polygon fill="none" stroke="#000000" points="510,-363.7 510,-382.7 553,-382.7 553,-363.7 510,-363.7"/>
<text text-anchor="start" x="517.6105" y="-369.8" font-family="Helvetica,sans-Serif" font-size="11.00" fill="#000000">0 rows</text>
<polygon fill="#ffffff" stroke="transparent" points="553,-363.7 553,-382.7 570,-382.7 570,-363.7 553,-363.7"/>
<polygon fill="none" stroke="#000000" points="553,-363.7 553,-382.7 570,-382.7 570,-363.7 553,-363.7"/>
<text text-anchor="start" x="560.8862" y="-369.8" font-family="Helvetica,sans-Serif" font-size="11.00" fill="#000000"> &#160;</text>
</a>
</g>
</g>
<!-- llamadas&#45;&gt;actividades -->
<g id="edge5" class="edge">
<title>llamadas:w&#45;&gt;actividades:e</title>
<path fill="none" stroke="#000000" d="M466.3001,-389.096C450.8364,-376.0373 456.08,-339.7 429,-339.7"/>
<polygon fill="#000000" stroke="#000000" points="472.4168,-391.1515 478.8532,-397.1125 476.2084,-392.4258 480,-393.7 480,-393.7 480,-393.7 476.2084,-392.4258 481.1468,-390.2875 472.4168,-391.1515 472.4168,-391.1515"/>
<ellipse fill="none" stroke="#000000" cx="469.3835" cy="-390.1322" rx="3.2" ry="3.2"/>
</g>
<!-- tareas -->
<g id="node4" class="node">
<title>tareas</title>
<g id="a_node4"><a xlink:href="../../tables/tareas.html" xlink:title="tareas" target="_top">
<polygon fill="#ffffff" stroke="transparent" points="480,-237.2 480,-342.2 570,-342.2 570,-237.2 480,-237.2"/>
<polygon fill="#f5f5f5" stroke="transparent" points="480,-318.7 480,-341.7 570,-341.7 570,-318.7 480,-318.7"/>
<polygon fill="none" stroke="#000000" points="480,-318.7 480,-341.7 570,-341.7 570,-318.7 480,-318.7"/>
<text text-anchor="start" x="485" y="-327.8" font-family="Helvetica,sans-Serif" font-weight="bold" font-size="11.00" fill="#000000">tareas</text>
<text text-anchor="start" x="535.0437" y="-326.8" font-family="Helvetica,sans-Serif" font-size="11.00" fill="#000000">[table]</text>
<polygon fill="none" stroke="#000000" points="480,-296.7 480,-318.7 570,-318.7 570,-296.7 480,-296.7"/>
<image xlink:href="../../images/primaryKeys.png" width="11px" height="12px" preserveAspectRatio="xMinYMin meet" x="485" y="-313.7"/>
<text text-anchor="start" x="500" y="-303.8" font-family="Helvetica,sans-Serif" font-size="11.00" fill="#000000">tarea_id</text>
<polygon fill="none" stroke="#000000" points="480,-274.7 480,-296.7 570,-296.7 570,-274.7 480,-274.7"/>
<image xlink:href="../../images/foreignKeys.png" width="11px" height="12px" preserveAspectRatio="xMinYMin meet" x="485" y="-291.7"/>
<text text-anchor="start" x="500" y="-281.8" font-family="Helvetica,sans-Serif" font-size="11.00" fill="#000000">actividad_id</text>
<polygon fill="none" stroke="#000000" points="480,-255.7 480,-274.7 570,-274.7 570,-255.7 480,-255.7"/>
<text text-anchor="start" x="483" y="-261.8" font-family="Helvetica,sans-Serif" font-size="11.00" fill="#000000">...</text>
<polygon fill="#ffffff" stroke="transparent" points="480,-236.7 480,-255.7 510,-255.7 510,-236.7 480,-236.7"/>
<polygon fill="none" stroke="#000000" points="480,-236.7 480,-255.7 510,-255.7 510,-236.7 480,-236.7"/>
<text text-anchor="start" x="483" y="-242.8" font-family="Helvetica,sans-Serif" font-size="11.00" fill="#000000">&lt; 1</text>
<polygon fill="#ffffff" stroke="transparent" points="510,-236.7 510,-255.7 553,-255.7 553,-236.7 510,-236.7"/>
<polygon fill="none" stroke="#000000" points="510,-236.7 510,-255.7 553,-255.7 553,-236.7 510,-236.7"/>
<text text-anchor="start" x="517.6105" y="-242.8" font-family="Helvetica,sans-Serif" font-size="11.00" fill="#000000">0 rows</text>
<polygon fill="#ffffff" stroke="transparent" points="553,-236.7 553,-255.7 570,-255.7 570,-236.7 553,-236.7"/>
<polygon fill="none" stroke="#000000" points="553,-236.7 553,-255.7 570,-255.7 570,-236.7 553,-236.7"/>
<text text-anchor="start" x="560.8862" y="-242.8" font-family="Helvetica,sans-Serif" font-size="11.00" fill="#000000"> &#160;</text>
</a>
</g>
</g>
<!-- tareas&#45;&gt;actividades -->
<g id="edge6" class="edge">
<title>tareas:w&#45;&gt;actividades:e</title>
<path fill="none" stroke="#000000" d="M466.3001,-290.304C450.8364,-303.3627 456.08,-339.7 429,-339.7"/>
<polygon fill="#000000" stroke="#000000" points="472.4168,-288.2485 481.1468,-289.1125 476.2084,-286.9742 480,-285.7 480,-285.7 480,-285.7 476.2084,-286.9742 478.8532,-282.2875 472.4168,-288.2485 472.4168,-288.2485"/>
<ellipse fill="none" stroke="#000000" cx="469.3835" cy="-289.2678" rx="3.2" ry="3.2"/>
</g>
</g>
</svg>
