<?xml version="1.0" encoding="UTF-8" standalone="no"?>
<!DOCTYPE svg PUBLIC "-//W3C//DTD SVG 1.1//EN"
 "http://www.w3.org/Graphics/SVG/1.1/DTD/svg11.dtd">
<!-- Generated by graphviz version 2.40.1 (20161225.0304)
 -->
<!-- Title: twoDegreesRelationshipsDiagramImplied Pages: 1 -->
<svg width="415pt" height="528pt"
 viewBox="0.00 0.00 415.00 528.20" xmlns="http://www.w3.org/2000/svg" xmlns:xlink="http://www.w3.org/1999/xlink">
<g id="graph0" class="graph" transform="scale(1 1) rotate(0) translate(4 524.2)">
<title>twoDegreesRelationshipsDiagramImplied</title>
<polygon fill="#ffffff" stroke="transparent" points="-4,4 -4,-524.2 411,-524.2 411,4 -4,4"/>
<text text-anchor="middle" x="72.4936" y="-7.3" font-family="Helvetica,sans-Serif" font-size="11.00" fill="#000000">Generated by SchemaSpy</text>
<!-- campana_tipos -->
<g id="node1" class="node">
<title>campana_tipos</title>
<g id="a_node1"><a xlink:href="../../tables/campana_tipos.html" xlink:title="campana_tipos" target="_top">
<polygon fill="#ffffff" stroke="transparent" points="276,-411.2 276,-516.2 399,-516.2 399,-411.2 276,-411.2"/>
<polygon fill="#f5f5f5" stroke="transparent" points="276.5,-492.7 276.5,-515.7 399.5,-515.7 399.5,-492.7 276.5,-492.7"/>
<polygon fill="none" stroke="#000000" points="276.5,-492.7 276.5,-515.7 399.5,-515.7 399.5,-492.7 276.5,-492.7"/>
<text text-anchor="start" x="281.5" y="-501.8" font-family="Helvetica,sans-Serif" font-weight="bold" font-size="11.00" fill="#000000">campana_tipos</text>
<text text-anchor="start" x="364.5437" y="-500.8" font-family="Helvetica,sans-Serif" font-size="11.00" fill="#000000">[table]</text>
<polygon fill="none" stroke="#000000" points="276.5,-470.7 276.5,-492.7 399.5,-492.7 399.5,-470.7 276.5,-470.7"/>
<image xlink:href="../../images/foreignKeys.png" width="11px" height="12px" preserveAspectRatio="xMinYMin meet" x="281.5" y="-487.7"/>
<text text-anchor="start" x="296.5" y="-477.8" font-family="Helvetica,sans-Serif" font-size="11.00" fill="#000000">campana_id</text>
<polygon fill="none" stroke="#000000" points="276.5,-448.7 276.5,-470.7 399.5,-470.7 399.5,-448.7 276.5,-448.7"/>
<image xlink:href="../../images/foreignKeys.png" width="11px" height="12px" preserveAspectRatio="xMinYMin meet" x="281.5" y="-465.7"/>
<text text-anchor="start" x="296.5" y="-455.8" font-family="Helvetica,sans-Serif" font-size="11.00" fill="#000000">tip_campana_id</text>
<polygon fill="none" stroke="#000000" points="276.5,-429.7 276.5,-448.7 399.5,-448.7 399.5,-429.7 276.5,-429.7"/>
<text text-anchor="start" x="279.5" y="-435.8" font-family="Helvetica,sans-Serif" font-size="11.00" fill="#000000">...</text>
<polygon fill="#ffffff" stroke="transparent" points="276.5,-410.7 276.5,-429.7 323.5,-429.7 323.5,-410.7 276.5,-410.7"/>
<polygon fill="none" stroke="#000000" points="276.5,-410.7 276.5,-429.7 323.5,-429.7 323.5,-410.7 276.5,-410.7"/>
<text text-anchor="start" x="279.5" y="-416.8" font-family="Helvetica,sans-Serif" font-size="11.00" fill="#000000">&lt; 2</text>
<polygon fill="#ffffff" stroke="transparent" points="323.5,-410.7 323.5,-429.7 374.5,-429.7 374.5,-410.7 323.5,-410.7"/>
<polygon fill="none" stroke="#000000" points="323.5,-410.7 323.5,-429.7 374.5,-429.7 374.5,-410.7 323.5,-410.7"/>
<text text-anchor="start" x="339.1105" y="-416.8" font-family="Helvetica,sans-Serif" font-size="11.00" fill="#000000">0 rows</text>
<polygon fill="#ffffff" stroke="transparent" points="374.5,-410.7 374.5,-429.7 399.5,-429.7 399.5,-410.7 374.5,-410.7"/>
<polygon fill="none" stroke="#000000" points="374.5,-410.7 374.5,-429.7 399.5,-429.7 399.5,-410.7 374.5,-410.7"/>
<text text-anchor="start" x="390.3862" y="-416.8" font-family="Helvetica,sans-Serif" font-size="11.00" fill="#000000"> &#160;</text>
</a>
</g>
</g>
<!-- campanas -->
<g id="node2" class="node">
<title>campanas</title>
<g id="a_node2"><a xlink:href="../../tables/campanas.html" xlink:title="campanas" target="_top">
<polygon fill="#ffffff" stroke="transparent" points="8,-284.7 8,-506.7 227,-506.7 227,-284.7 8,-284.7"/>
<polygon fill="#f5f5f5" stroke="transparent" points="10.5,-481.7 10.5,-504.7 225.5,-504.7 225.5,-481.7 10.5,-481.7"/>
<polygon fill="none" stroke="#000000" points="10.5,-481.7 10.5,-504.7 225.5,-504.7 225.5,-481.7 10.5,-481.7"/>
<text text-anchor="start" x="15.5" y="-490.8" font-family="Helvetica,sans-Serif" font-weight="bold" font-size="11.00" fill="#000000">campanas</text>
<text text-anchor="start" x="190.5437" y="-489.8" font-family="Helvetica,sans-Serif" font-size="11.00" fill="#000000">[table]</text>
<polygon fill="none" stroke="#000000" points="10.5,-459.7 10.5,-481.7 133.5,-481.7 133.5,-459.7 10.5,-459.7"/>
<image xlink:href="../../images/primaryKeys.png" width="11px" height="12px" preserveAspectRatio="xMinYMin meet" x="15.5" y="-476.7"/>
<text text-anchor="start" x="30.5" y="-466.8" font-family="Helvetica,sans-Serif" font-size="11.00" fill="#000000">campana_id</text>
<polygon fill="none" stroke="#000000" points="133.5,-459.7 133.5,-481.7 225.5,-481.7 225.5,-459.7 133.5,-459.7"/>
<text text-anchor="start" x="136.5" y="-467.4" font-family="Helvetica,sans-Serif" font-size="11.00" fill="#000000">serial[10]</text>
<polygon fill="none" stroke="#000000" points="10.5,-437.7 10.5,-459.7 133.5,-459.7 133.5,-437.7 10.5,-437.7"/>
<text text-anchor="start" x="30.5" y="-444.8" font-family="Helvetica,sans-Serif" font-size="11.00" fill="#000000">nombre</text>
<polygon fill="none" stroke="#000000" points="133.5,-437.7 133.5,-459.7 225.5,-459.7 225.5,-437.7 133.5,-437.7"/>
<text text-anchor="start" x="136.5" y="-445.4" font-family="Helvetica,sans-Serif" font-size="11.00" fill="#000000">varchar[1000]</text>
<polygon fill="none" stroke="#000000" points="10.5,-415.7 10.5,-437.7 133.5,-437.7 133.5,-415.7 10.5,-415.7"/>
<text text-anchor="start" x="30.5" y="-422.8" font-family="Helvetica,sans-Serif" font-size="11.00" fill="#000000">fec_inicio</text>
<polygon fill="none" stroke="#000000" points="133.5,-415.7 133.5,-437.7 225.5,-437.7 225.5,-415.7 133.5,-415.7"/>
<text text-anchor="start" x="136.1023" y="-423.4" font-family="Helvetica,sans-Serif" font-size="11.00" fill="#000000">timestamptz[35,6]</text>
<polygon fill="none" stroke="#000000" points="10.5,-393.7 10.5,-415.7 133.5,-415.7 133.5,-393.7 10.5,-393.7"/>
<text text-anchor="start" x="30.5" y="-400.8" font-family="Helvetica,sans-Serif" font-size="11.00" fill="#000000">fec_fin</text>
<polygon fill="none" stroke="#000000" points="133.5,-393.7 133.5,-415.7 225.5,-415.7 225.5,-393.7 133.5,-393.7"/>
<text text-anchor="start" x="136.1023" y="-401.4" font-family="Helvetica,sans-Serif" font-size="11.00" fill="#000000">timestamptz[35,6]</text>
<polygon fill="none" stroke="#000000" points="10.5,-371.7 10.5,-393.7 133.5,-393.7 133.5,-371.7 10.5,-371.7"/>
<text text-anchor="start" x="30.5" y="-378.8" font-family="Helvetica,sans-Serif" font-size="11.00" fill="#000000">usu_insercion</text>
<polygon fill="none" stroke="#000000" points="133.5,-371.7 133.5,-393.7 225.5,-393.7 225.5,-371.7 133.5,-371.7"/>
<text text-anchor="start" x="136.5" y="-379.4" font-family="Helvetica,sans-Serif" font-size="11.00" fill="#000000">varchar[20]</text>
<polygon fill="none" stroke="#000000" points="10.5,-349.7 10.5,-371.7 133.5,-371.7 133.5,-349.7 10.5,-349.7"/>
<text text-anchor="start" x="30.5" y="-356.8" font-family="Helvetica,sans-Serif" font-size="11.00" fill="#000000">fec_insercion</text>
<polygon fill="none" stroke="#000000" points="133.5,-349.7 133.5,-371.7 225.5,-371.7 225.5,-349.7 133.5,-349.7"/>
<text text-anchor="start" x="136.1023" y="-357.4" font-family="Helvetica,sans-Serif" font-size="11.00" fill="#000000">timestamptz[35,6]</text>
<polygon fill="none" stroke="#000000" points="10.5,-327.7 10.5,-349.7 133.5,-349.7 133.5,-327.7 10.5,-327.7"/>
<text text-anchor="start" x="30.5" y="-334.8" font-family="Helvetica,sans-Serif" font-size="11.00" fill="#000000">fec_modificacion</text>
<polygon fill="none" stroke="#000000" points="133.5,-327.7 133.5,-349.7 225.5,-349.7 225.5,-327.7 133.5,-327.7"/>
<text text-anchor="start" x="136.1023" y="-335.4" font-family="Helvetica,sans-Serif" font-size="11.00" fill="#000000">timestamptz[35,6]</text>
<polygon fill="none" stroke="#000000" points="10.5,-305.7 10.5,-327.7 133.5,-327.7 133.5,-305.7 10.5,-305.7"/>
<text text-anchor="start" x="30.5" y="-312.8" font-family="Helvetica,sans-Serif" font-size="11.00" fill="#000000">usu_modificacion</text>
<polygon fill="none" stroke="#000000" points="133.5,-305.7 133.5,-327.7 225.5,-327.7 225.5,-305.7 133.5,-305.7"/>
<text text-anchor="start" x="136.5" y="-313.4" font-family="Helvetica,sans-Serif" font-size="11.00" fill="#000000">varchar[20]</text>
<polygon fill="#ffffff" stroke="transparent" points="10.5,-286.7 10.5,-305.7 63.5,-305.7 63.5,-286.7 10.5,-286.7"/>
<polygon fill="none" stroke="#000000" points="10.5,-286.7 10.5,-305.7 63.5,-305.7 63.5,-286.7 10.5,-286.7"/>
<text text-anchor="start" x="13.5" y="-292.8" font-family="Helvetica,sans-Serif" font-size="11.00" fill="#000000">&lt; 0</text>
<polygon fill="#ffffff" stroke="transparent" points="63.5,-286.7 63.5,-305.7 133.5,-305.7 133.5,-286.7 63.5,-286.7"/>
<polygon fill="none" stroke="#000000" points="63.5,-286.7 63.5,-305.7 133.5,-305.7 133.5,-286.7 63.5,-286.7"/>
<text text-anchor="start" x="98.1105" y="-292.8" font-family="Helvetica,sans-Serif" font-size="11.00" fill="#000000">4 rows</text>
<polygon fill="#ffffff" stroke="transparent" points="133.5,-286.7 133.5,-305.7 225.5,-305.7 225.5,-286.7 133.5,-286.7"/>
<polygon fill="none" stroke="#000000" points="133.5,-286.7 133.5,-305.7 225.5,-305.7 225.5,-286.7 133.5,-286.7"/>
<text text-anchor="start" x="206.9053" y="-292.8" font-family="Helvetica,sans-Serif" font-size="11.00" fill="#000000">3 &gt;</text>
<polygon fill="none" stroke="#000000" stroke-width="2" points="9,-285.7 9,-505.7 226,-505.7 226,-285.7 9,-285.7"/>
</a>
</g>
</g>
<!-- campana_tipos&#45;&gt;campanas -->
<g id="edge1" class="edge">
<title>campana_tipos:w&#45;&gt;campanas:e</title>
<path fill="none" stroke="#000000" d="M262.0097,-479.9813C249.8398,-476.8875 242.8909,-470.7 225.5,-470.7"/>
<polygon fill="#000000" stroke="#000000" points="268.5557,-480.7576 276.0759,-485.2749 272.5278,-481.2288 276.5,-481.7 276.5,-481.7 276.5,-481.7 272.5278,-481.2288 276.9241,-478.1251 268.5557,-480.7576 268.5557,-480.7576"/>
<ellipse fill="none" stroke="#000000" cx="265.378" cy="-480.3807" rx="3.2" ry="3.2"/>
</g>
<!-- campana_tipos&#45;&gt;campanas -->
<g id="edge2" class="edge">
<title>campana_tipos:w&#45;&gt;campanas:e</title>
<path fill="none" stroke="#000000" stroke-dasharray="5,2" d="M262.0097,-461.4188C249.8398,-464.5125 242.8909,-470.7 225.5,-470.7"/>
<polygon fill="#000000" stroke="#000000" points="268.5557,-460.6424 276.9241,-463.2749 272.5278,-460.1712 276.5,-459.7 276.5,-459.7 276.5,-459.7 272.5278,-460.1712 276.0759,-456.1251 268.5557,-460.6424 268.5557,-460.6424"/>
<ellipse fill="none" stroke="#000000" cx="265.378" cy="-461.0193" rx="3.2" ry="3.2"/>
</g>
<!-- leads -->
<g id="node3" class="node">
<title>leads</title>
<g id="a_node3"><a xlink:href="../../tables/leads.html" xlink:title="leads" target="_top">
<polygon fill="#ffffff" stroke="transparent" points="276,-96.2 276,-267.2 399,-267.2 399,-96.2 276,-96.2"/>
<polygon fill="#f5f5f5" stroke="transparent" points="276.5,-243.7 276.5,-266.7 399.5,-266.7 399.5,-243.7 276.5,-243.7"/>
<polygon fill="none" stroke="#000000" points="276.5,-243.7 276.5,-266.7 399.5,-266.7 399.5,-243.7 276.5,-243.7"/>
<text text-anchor="start" x="281.5" y="-252.8" font-family="Helvetica,sans-Serif" font-weight="bold" font-size="11.00" fill="#000000">leads</text>
<text text-anchor="start" x="364.5437" y="-251.8" font-family="Helvetica,sans-Serif" font-size="11.00" fill="#000000">[table]</text>
<polygon fill="none" stroke="#000000" points="276.5,-221.7 276.5,-243.7 399.5,-243.7 399.5,-221.7 276.5,-221.7"/>
<image xlink:href="../../images/primaryKeys.png" width="11px" height="12px" preserveAspectRatio="xMinYMin meet" x="281.5" y="-238.7"/>
<text text-anchor="start" x="296.5" y="-228.8" font-family="Helvetica,sans-Serif" font-size="11.00" fill="#000000">lead_id</text>
<polygon fill="none" stroke="#000000" points="276.5,-199.7 276.5,-221.7 399.5,-221.7 399.5,-199.7 276.5,-199.7"/>
<image xlink:href="../../images/foreignKeys.png" width="11px" height="12px" preserveAspectRatio="xMinYMin meet" x="281.5" y="-216.7"/>
<text text-anchor="start" x="296.5" y="-206.8" font-family="Helvetica,sans-Serif" font-size="11.00" fill="#000000">usu_asignado_id</text>
<polygon fill="none" stroke="#000000" points="276.5,-177.7 276.5,-199.7 399.5,-199.7 399.5,-177.7 276.5,-177.7"/>
<image xlink:href="../../images/foreignKeys.png" width="11px" height="12px" preserveAspectRatio="xMinYMin meet" x="281.5" y="-194.7"/>
<text text-anchor="start" x="296.5" y="-184.8" font-family="Helvetica,sans-Serif" font-size="11.00" fill="#000000">campana_id</text>
<polygon fill="none" stroke="#000000" points="276.5,-155.7 276.5,-177.7 399.5,-177.7 399.5,-155.7 276.5,-155.7"/>
<image xlink:href="../../images/foreignKeys.png" width="11px" height="12px" preserveAspectRatio="xMinYMin meet" x="281.5" y="-172.7"/>
<text text-anchor="start" x="296.5" y="-162.8" font-family="Helvetica,sans-Serif" font-size="11.00" fill="#000000">persona_id</text>
<polygon fill="none" stroke="#000000" points="276.5,-133.7 276.5,-155.7 399.5,-155.7 399.5,-133.7 276.5,-133.7"/>
<image xlink:href="../../images/foreignKeys.png" width="11px" height="12px" preserveAspectRatio="xMinYMin meet" x="281.5" y="-150.7"/>
<text text-anchor="start" x="296.5" y="-140.8" font-family="Helvetica,sans-Serif" font-size="11.00" fill="#000000">curso_id</text>
<polygon fill="none" stroke="#000000" points="276.5,-114.7 276.5,-133.7 399.5,-133.7 399.5,-114.7 276.5,-114.7"/>
<text text-anchor="start" x="279.5" y="-120.8" font-family="Helvetica,sans-Serif" font-size="11.00" fill="#000000">...</text>
<polygon fill="#ffffff" stroke="transparent" points="276.5,-95.7 276.5,-114.7 323.5,-114.7 323.5,-95.7 276.5,-95.7"/>
<polygon fill="none" stroke="#000000" points="276.5,-95.7 276.5,-114.7 323.5,-114.7 323.5,-95.7 276.5,-95.7"/>
<text text-anchor="start" x="279.5" y="-101.8" font-family="Helvetica,sans-Serif" font-size="11.00" fill="#000000">&lt; 4</text>
<polygon fill="#ffffff" stroke="transparent" points="323.5,-95.7 323.5,-114.7 374.5,-114.7 374.5,-95.7 323.5,-95.7"/>
<polygon fill="none" stroke="#000000" points="323.5,-95.7 323.5,-114.7 374.5,-114.7 374.5,-95.7 323.5,-95.7"/>
<text text-anchor="start" x="339.1105" y="-101.8" font-family="Helvetica,sans-Serif" font-size="11.00" fill="#000000">0 rows</text>
<polygon fill="#ffffff" stroke="transparent" points="374.5,-95.7 374.5,-114.7 399.5,-114.7 399.5,-95.7 374.5,-95.7"/>
<polygon fill="none" stroke="#000000" points="374.5,-95.7 374.5,-114.7 399.5,-114.7 399.5,-95.7 374.5,-95.7"/>
<text text-anchor="start" x="390.3862" y="-101.8" font-family="Helvetica,sans-Serif" font-size="11.00" fill="#000000"> &#160;</text>
</a>
</g>
</g>
<!-- leads&#45;&gt;campanas -->
<g id="edge3" class="edge">
<title>leads:w&#45;&gt;campanas:e</title>
<path fill="none" stroke="#000000" stroke-dasharray="5,2" d="M263.0068,-194.59C224.9079,-235.0861 283.7105,-470.7 225.5,-470.7"/>
<polygon fill="#000000" stroke="#000000" points="269.1681,-191.9005 277.9402,-191.9994 272.834,-190.3003 276.5,-188.7 276.5,-188.7 276.5,-188.7 272.834,-190.3003 275.0598,-185.4006 269.1681,-191.9005 269.1681,-191.9005"/>
<ellipse fill="none" stroke="#000000" cx="266.2353" cy="-193.1807" rx="3.2" ry="3.2"/>
</g>
<!-- cursos -->
<g id="node4" class="node">
<title>cursos</title>
<g id="a_node4"><a xlink:href="../../tables/cursos.html" xlink:title="cursos" target="_top">
<polygon fill="#ffffff" stroke="transparent" points="80,-38.2 80,-99.2 155,-99.2 155,-38.2 80,-38.2"/>
<polygon fill="#f5f5f5" stroke="transparent" points="80.5,-75.7 80.5,-98.7 155.5,-98.7 155.5,-75.7 80.5,-75.7"/>
<polygon fill="none" stroke="#000000" points="80.5,-75.7 80.5,-98.7 155.5,-98.7 155.5,-75.7 80.5,-75.7"/>
<text text-anchor="start" x="85.3042" y="-84.8" font-family="Helvetica,sans-Serif" font-weight="bold" font-size="11.00" fill="#000000">cursos</text>
<text text-anchor="start" x="121.0219" y="-83.8" font-family="Helvetica,sans-Serif" font-size="11.00" fill="#000000">[table]</text>
<polygon fill="none" stroke="#000000" points="80.5,-56.7 80.5,-75.7 155.5,-75.7 155.5,-56.7 80.5,-56.7"/>
<text text-anchor="start" x="83.5" y="-62.8" font-family="Helvetica,sans-Serif" font-size="11.00" fill="#000000">...</text>
<polygon fill="#ffffff" stroke="transparent" points="80.5,-37.7 80.5,-56.7 94.5,-56.7 94.5,-37.7 80.5,-37.7"/>
<polygon fill="none" stroke="#000000" points="80.5,-37.7 80.5,-56.7 94.5,-56.7 94.5,-37.7 80.5,-37.7"/>
<text text-anchor="start" x="83.5" y="-43.8" font-family="Helvetica,sans-Serif" font-size="11.00" fill="#000000"> &#160;</text>
<polygon fill="#ffffff" stroke="transparent" points="94.5,-37.7 94.5,-56.7 133.5,-56.7 133.5,-37.7 94.5,-37.7"/>
<polygon fill="none" stroke="#000000" points="94.5,-37.7 94.5,-56.7 133.5,-56.7 133.5,-37.7 94.5,-37.7"/>
<text text-anchor="start" x="98.1105" y="-43.8" font-family="Helvetica,sans-Serif" font-size="11.00" fill="#000000">0 rows</text>
<polygon fill="#ffffff" stroke="transparent" points="133.5,-37.7 133.5,-56.7 155.5,-56.7 155.5,-37.7 133.5,-37.7"/>
<polygon fill="none" stroke="#000000" points="133.5,-37.7 133.5,-56.7 155.5,-56.7 155.5,-37.7 133.5,-37.7"/>
<text text-anchor="start" x="136.9053" y="-43.8" font-family="Helvetica,sans-Serif" font-size="11.00" fill="#000000">1 &gt;</text>
</a>
</g>
</g>
<!-- leads&#45;&gt;cursos -->
<g id="edge4" class="edge">
<title>leads:w&#45;&gt;cursos:e</title>
<path fill="none" stroke="#000000" stroke-dasharray="5,2" d="M262.3084,-140.9457C252.1739,-134.2165 249.7488,-119.8567 235,-109.7 201.7397,-86.7955 195.884,-65.7 155.5,-65.7"/>
<polygon fill="#000000" stroke="#000000" points="268.766,-142.654 275.5793,-148.1803 272.633,-143.677 276.5,-144.7 276.5,-144.7 276.5,-144.7 272.633,-143.677 277.4207,-141.2197 268.766,-142.654 268.766,-142.654"/>
<ellipse fill="none" stroke="#000000" cx="265.6725" cy="-141.8356" rx="3.2" ry="3.2"/>
</g>
<!-- personas -->
<g id="node5" class="node">
<title>personas</title>
<g id="a_node5"><a xlink:href="../../tables/personas.html" xlink:title="personas" target="_top">
<polygon fill="#ffffff" stroke="transparent" points="73.5,-120.2 73.5,-181.2 161.5,-181.2 161.5,-120.2 73.5,-120.2"/>
<polygon fill="#f5f5f5" stroke="transparent" points="73.5,-157.7 73.5,-180.7 161.5,-180.7 161.5,-157.7 73.5,-157.7"/>
<polygon fill="none" stroke="#000000" points="73.5,-157.7 73.5,-180.7 161.5,-180.7 161.5,-157.7 73.5,-157.7"/>
<text text-anchor="start" x="78.3818" y="-166.8" font-family="Helvetica,sans-Serif" font-weight="bold" font-size="11.00" fill="#000000">personas</text>
<text text-anchor="start" x="127.0219" y="-165.8" font-family="Helvetica,sans-Serif" font-size="11.00" fill="#000000">[table]</text>
<polygon fill="none" stroke="#000000" points="73.5,-138.7 73.5,-157.7 161.5,-157.7 161.5,-138.7 73.5,-138.7"/>
<text text-anchor="start" x="76.5" y="-144.8" font-family="Helvetica,sans-Serif" font-size="11.00" fill="#000000">...</text>
<polygon fill="#ffffff" stroke="transparent" points="73.5,-119.7 73.5,-138.7 90.5,-138.7 90.5,-119.7 73.5,-119.7"/>
<polygon fill="none" stroke="#000000" points="73.5,-119.7 73.5,-138.7 90.5,-138.7 90.5,-119.7 73.5,-119.7"/>
<text text-anchor="start" x="76.5" y="-125.8" font-family="Helvetica,sans-Serif" font-size="11.00" fill="#000000"> &#160;</text>
<polygon fill="#ffffff" stroke="transparent" points="90.5,-119.7 90.5,-138.7 137.5,-138.7 137.5,-119.7 90.5,-119.7"/>
<polygon fill="none" stroke="#000000" points="90.5,-119.7 90.5,-138.7 137.5,-138.7 137.5,-119.7 90.5,-119.7"/>
<text text-anchor="start" x="95.9956" y="-125.8" font-family="Helvetica,sans-Serif" font-size="11.00" fill="#000000">22 rows</text>
<polygon fill="#ffffff" stroke="transparent" points="137.5,-119.7 137.5,-138.7 161.5,-138.7 161.5,-119.7 137.5,-119.7"/>
<polygon fill="none" stroke="#000000" points="137.5,-119.7 137.5,-138.7 161.5,-138.7 161.5,-119.7 137.5,-119.7"/>
<text text-anchor="start" x="142.9053" y="-125.8" font-family="Helvetica,sans-Serif" font-size="11.00" fill="#000000">2 &gt;</text>
</a>
</g>
</g>
<!-- leads&#45;&gt;personas -->
<g id="edge5" class="edge">
<title>leads:w&#45;&gt;personas:e</title>
<path fill="none" stroke="#000000" d="M261.8818,-166.1519C221.9652,-163.0366 208.0427,-147.7 161.5,-147.7"/>
<polygon fill="#000000" stroke="#000000" points="268.5056,-166.4002 276.3651,-170.2975 272.5028,-166.5501 276.5,-166.7 276.5,-166.7 276.5,-166.7 272.5028,-166.5501 276.6349,-163.1025 268.5056,-166.4002 268.5056,-166.4002"/>
<ellipse fill="none" stroke="#000000" cx="265.3079" cy="-166.2803" rx="3.2" ry="3.2"/>
</g>
<!-- usuarios -->
<g id="node6" class="node">
<title>usuarios</title>
<g id="a_node6"><a xlink:href="../../tables/usuarios.html" xlink:title="usuarios" target="_top">
<polygon fill="#ffffff" stroke="transparent" points="75.5,-202.2 75.5,-263.2 159.5,-263.2 159.5,-202.2 75.5,-202.2"/>
<polygon fill="#f5f5f5" stroke="transparent" points="75.5,-239.7 75.5,-262.7 159.5,-262.7 159.5,-239.7 75.5,-239.7"/>
<polygon fill="none" stroke="#000000" points="75.5,-239.7 75.5,-262.7 159.5,-262.7 159.5,-239.7 75.5,-239.7"/>
<text text-anchor="start" x="80.2188" y="-248.8" font-family="Helvetica,sans-Serif" font-weight="bold" font-size="11.00" fill="#000000">usuarios</text>
<text text-anchor="start" x="125.0219" y="-247.8" font-family="Helvetica,sans-Serif" font-size="11.00" fill="#000000">[table]</text>
<polygon fill="none" stroke="#000000" points="75.5,-220.7 75.5,-239.7 159.5,-239.7 159.5,-220.7 75.5,-220.7"/>
<text text-anchor="start" x="78.5" y="-226.8" font-family="Helvetica,sans-Serif" font-size="11.00" fill="#000000">...</text>
<polygon fill="#ffffff" stroke="transparent" points="75.5,-201.7 75.5,-220.7 93.5,-220.7 93.5,-201.7 75.5,-201.7"/>
<polygon fill="none" stroke="#000000" points="75.5,-201.7 75.5,-220.7 93.5,-220.7 93.5,-201.7 75.5,-201.7"/>
<text text-anchor="start" x="78.5" y="-207.8" font-family="Helvetica,sans-Serif" font-size="11.00" fill="#000000"> &#160;</text>
<polygon fill="#ffffff" stroke="transparent" points="93.5,-201.7 93.5,-220.7 134.5,-220.7 134.5,-201.7 93.5,-201.7"/>
<polygon fill="none" stroke="#000000" points="93.5,-201.7 93.5,-220.7 134.5,-220.7 134.5,-201.7 93.5,-201.7"/>
<text text-anchor="start" x="99.1105" y="-207.8" font-family="Helvetica,sans-Serif" font-size="11.00" fill="#000000">2 rows</text>
<polygon fill="#ffffff" stroke="transparent" points="134.5,-201.7 134.5,-220.7 159.5,-220.7 159.5,-201.7 134.5,-201.7"/>
<polygon fill="none" stroke="#000000" points="134.5,-201.7 134.5,-220.7 159.5,-220.7 159.5,-201.7 134.5,-201.7"/>
<text text-anchor="start" x="140.9053" y="-207.8" font-family="Helvetica,sans-Serif" font-size="11.00" fill="#000000">2 &gt;</text>
</a>
</g>
</g>
<!-- leads&#45;&gt;usuarios -->
<g id="edge6" class="edge">
<title>leads:w&#45;&gt;usuarios:e</title>
<path fill="none" stroke="#000000" d="M261.898,-211.228C221.0931,-214.2966 206.9337,-229.7 159.5,-229.7"/>
<polygon fill="#000000" stroke="#000000" points="268.5052,-210.9891 276.6301,-214.2976 272.5026,-210.8446 276.5,-210.7 276.5,-210.7 276.5,-210.7 272.5026,-210.8446 276.3699,-207.1024 268.5052,-210.9891 268.5052,-210.9891"/>
<ellipse fill="none" stroke="#000000" cx="265.3073" cy="-211.1048" rx="3.2" ry="3.2"/>
</g>
</g>
</svg>
