<?xml version="1.0" encoding="UTF-8" standalone="no"?>
<!DOCTYPE svg PUBLIC "-//W3C//DTD SVG 1.1//EN"
 "http://www.w3.org/Graphics/SVG/1.1/DTD/svg11.dtd">
<!-- Generated by graphviz version 2.40.1 (20161225.0304)
 -->
<!-- Title: twoDegreesRelationshipsDiagram Pages: 1 -->
<svg width="748pt" height="589pt"
 viewBox="0.00 0.00 748.00 588.74" xmlns="http://www.w3.org/2000/svg" xmlns:xlink="http://www.w3.org/1999/xlink">
<g id="graph0" class="graph" transform="scale(1 1) rotate(0) translate(4 584.7449)">
<title>twoDegreesRelationshipsDiagram</title>
<polygon fill="#ffffff" stroke="transparent" points="-4,4 -4,-584.7449 744,-584.7449 744,4 -4,4"/>
<text text-anchor="middle" x="72.4936" y="-7.3" font-family="Helvetica,sans-Serif" font-size="11.00" fill="#000000">Generated by SchemaSpy</text>
<!-- campana_tipos -->
<g id="node1" class="node">
<title>campana_tipos</title>
<g id="a_node1"><a xlink:href="../../tables/campana_tipos.html" xlink:title="campana_tipos" target="_top">
<polygon fill="#ffffff" stroke="transparent" points="413,-430.7449 413,-535.7449 536,-535.7449 536,-430.7449 413,-430.7449"/>
<polygon fill="#f5f5f5" stroke="transparent" points="413.5,-512.2449 413.5,-535.2449 536.5,-535.2449 536.5,-512.2449 413.5,-512.2449"/>
<polygon fill="none" stroke="#000000" points="413.5,-512.2449 413.5,-535.2449 536.5,-535.2449 536.5,-512.2449 413.5,-512.2449"/>
<text text-anchor="start" x="418.5" y="-521.3449" font-family="Helvetica,sans-Serif" font-weight="bold" font-size="11.00" fill="#000000">campana_tipos</text>
<text text-anchor="start" x="501.5437" y="-520.3449" font-family="Helvetica,sans-Serif" font-size="11.00" fill="#000000">[table]</text>
<polygon fill="none" stroke="#000000" points="413.5,-490.2449 413.5,-512.2449 536.5,-512.2449 536.5,-490.2449 413.5,-490.2449"/>
<image xlink:href="../../images/foreignKeys.png" width="11px" height="12px" preserveAspectRatio="xMinYMin meet" x="418.5" y="-507.245"/>
<text text-anchor="start" x="433.5" y="-497.3449" font-family="Helvetica,sans-Serif" font-size="11.00" fill="#000000">campana_id</text>
<polygon fill="none" stroke="#000000" points="413.5,-468.2449 413.5,-490.2449 536.5,-490.2449 536.5,-468.2449 413.5,-468.2449"/>
<image xlink:href="../../images/foreignKeys.png" width="11px" height="12px" preserveAspectRatio="xMinYMin meet" x="418.5" y="-485.245"/>
<text text-anchor="start" x="433.5" y="-475.3449" font-family="Helvetica,sans-Serif" font-size="11.00" fill="#000000">tip_campana_id</text>
<polygon fill="none" stroke="#000000" points="413.5,-449.2449 413.5,-468.2449 536.5,-468.2449 536.5,-449.2449 413.5,-449.2449"/>
<text text-anchor="start" x="416.5" y="-455.3449" font-family="Helvetica,sans-Serif" font-size="11.00" fill="#000000">...</text>
<polygon fill="#ffffff" stroke="transparent" points="413.5,-430.2449 413.5,-449.2449 460.5,-449.2449 460.5,-430.2449 413.5,-430.2449"/>
<polygon fill="none" stroke="#000000" points="413.5,-430.2449 413.5,-449.2449 460.5,-449.2449 460.5,-430.2449 413.5,-430.2449"/>
<text text-anchor="start" x="416.5" y="-436.3449" font-family="Helvetica,sans-Serif" font-size="11.00" fill="#000000">&lt; 1</text>
<polygon fill="#ffffff" stroke="transparent" points="460.5,-430.2449 460.5,-449.2449 511.5,-449.2449 511.5,-430.2449 460.5,-430.2449"/>
<polygon fill="none" stroke="#000000" points="460.5,-430.2449 460.5,-449.2449 511.5,-449.2449 511.5,-430.2449 460.5,-430.2449"/>
<text text-anchor="start" x="476.1105" y="-436.3449" font-family="Helvetica,sans-Serif" font-size="11.00" fill="#000000">0 rows</text>
<polygon fill="#ffffff" stroke="transparent" points="511.5,-430.2449 511.5,-449.2449 536.5,-449.2449 536.5,-430.2449 511.5,-430.2449"/>
<polygon fill="none" stroke="#000000" points="511.5,-430.2449 511.5,-449.2449 536.5,-449.2449 536.5,-430.2449 511.5,-430.2449"/>
<text text-anchor="start" x="527.3862" y="-436.3449" font-family="Helvetica,sans-Serif" font-size="11.00" fill="#000000"> &#160;</text>
</a>
</g>
</g>
<!-- campanas -->
<g id="node2" class="node">
<title>campanas</title>
<g id="a_node2"><a xlink:href="../../tables/campanas.html" xlink:title="campanas" target="_top">
<polygon fill="#ffffff" stroke="transparent" points="145,-250.2449 145,-494.2449 364,-494.2449 364,-250.2449 145,-250.2449"/>
<polygon fill="#f5f5f5" stroke="transparent" points="147.5,-469.2449 147.5,-492.2449 362.5,-492.2449 362.5,-469.2449 147.5,-469.2449"/>
<polygon fill="none" stroke="#000000" points="147.5,-469.2449 147.5,-492.2449 362.5,-492.2449 362.5,-469.2449 147.5,-469.2449"/>
<text text-anchor="start" x="152.5" y="-478.3449" font-family="Helvetica,sans-Serif" font-weight="bold" font-size="11.00" fill="#000000">campanas</text>
<text text-anchor="start" x="327.5437" y="-477.3449" font-family="Helvetica,sans-Serif" font-size="11.00" fill="#000000">[table]</text>
<polygon fill="none" stroke="#000000" points="147.5,-447.2449 147.5,-469.2449 270.5,-469.2449 270.5,-447.2449 147.5,-447.2449"/>
<image xlink:href="../../images/primaryKeys.png" width="11px" height="12px" preserveAspectRatio="xMinYMin meet" x="152.5" y="-464.245"/>
<text text-anchor="start" x="167.5" y="-454.3449" font-family="Helvetica,sans-Serif" font-size="11.00" fill="#000000">campana_id</text>
<polygon fill="none" stroke="#000000" points="270.5,-447.2449 270.5,-469.2449 362.5,-469.2449 362.5,-447.2449 270.5,-447.2449"/>
<text text-anchor="start" x="273.5" y="-454.9449" font-family="Helvetica,sans-Serif" font-size="11.00" fill="#000000">serial[10]</text>
<polygon fill="none" stroke="#000000" points="147.5,-425.2449 147.5,-447.2449 270.5,-447.2449 270.5,-425.2449 147.5,-425.2449"/>
<text text-anchor="start" x="167.5" y="-432.3449" font-family="Helvetica,sans-Serif" font-size="11.00" fill="#000000">nombre</text>
<polygon fill="none" stroke="#000000" points="270.5,-425.2449 270.5,-447.2449 362.5,-447.2449 362.5,-425.2449 270.5,-425.2449"/>
<text text-anchor="start" x="273.5" y="-432.9449" font-family="Helvetica,sans-Serif" font-size="11.00" fill="#000000">varchar[255]</text>
<polygon fill="none" stroke="#000000" points="147.5,-403.2449 147.5,-425.2449 270.5,-425.2449 270.5,-403.2449 147.5,-403.2449"/>
<text text-anchor="start" x="167.5" y="-410.3449" font-family="Helvetica,sans-Serif" font-size="11.00" fill="#000000">descripcion</text>
<polygon fill="none" stroke="#000000" points="270.5,-403.2449 270.5,-425.2449 362.5,-425.2449 362.5,-403.2449 270.5,-403.2449"/>
<text text-anchor="start" x="273.5" y="-410.9449" font-family="Helvetica,sans-Serif" font-size="11.00" fill="#000000">text[2147483647]</text>
<polygon fill="none" stroke="#000000" points="147.5,-381.2449 147.5,-403.2449 270.5,-403.2449 270.5,-381.2449 147.5,-381.2449"/>
<text text-anchor="start" x="167.5" y="-388.3449" font-family="Helvetica,sans-Serif" font-size="11.00" fill="#000000">fec_inicio</text>
<polygon fill="none" stroke="#000000" points="270.5,-381.2449 270.5,-403.2449 362.5,-403.2449 362.5,-381.2449 270.5,-381.2449"/>
<text text-anchor="start" x="273.1023" y="-388.9449" font-family="Helvetica,sans-Serif" font-size="11.00" fill="#000000">timestamptz[35,6]</text>
<polygon fill="none" stroke="#000000" points="147.5,-359.2449 147.5,-381.2449 270.5,-381.2449 270.5,-359.2449 147.5,-359.2449"/>
<text text-anchor="start" x="167.5" y="-366.3449" font-family="Helvetica,sans-Serif" font-size="11.00" fill="#000000">fec_fin</text>
<polygon fill="none" stroke="#000000" points="270.5,-359.2449 270.5,-381.2449 362.5,-381.2449 362.5,-359.2449 270.5,-359.2449"/>
<text text-anchor="start" x="273.1023" y="-366.9449" font-family="Helvetica,sans-Serif" font-size="11.00" fill="#000000">timestamptz[35,6]</text>
<polygon fill="none" stroke="#000000" points="147.5,-337.2449 147.5,-359.2449 270.5,-359.2449 270.5,-337.2449 147.5,-337.2449"/>
<text text-anchor="start" x="167.5" y="-344.3449" font-family="Helvetica,sans-Serif" font-size="11.00" fill="#000000">usu_insercion</text>
<polygon fill="none" stroke="#000000" points="270.5,-337.2449 270.5,-359.2449 362.5,-359.2449 362.5,-337.2449 270.5,-337.2449"/>
<text text-anchor="start" x="273.5" y="-344.9449" font-family="Helvetica,sans-Serif" font-size="11.00" fill="#000000">varchar[20]</text>
<polygon fill="none" stroke="#000000" points="147.5,-315.2449 147.5,-337.2449 270.5,-337.2449 270.5,-315.2449 147.5,-315.2449"/>
<text text-anchor="start" x="167.5" y="-322.3449" font-family="Helvetica,sans-Serif" font-size="11.00" fill="#000000">fec_insercion</text>
<polygon fill="none" stroke="#000000" points="270.5,-315.2449 270.5,-337.2449 362.5,-337.2449 362.5,-315.2449 270.5,-315.2449"/>
<text text-anchor="start" x="273.1023" y="-322.9449" font-family="Helvetica,sans-Serif" font-size="11.00" fill="#000000">timestamptz[35,6]</text>
<polygon fill="none" stroke="#000000" points="147.5,-293.2449 147.5,-315.2449 270.5,-315.2449 270.5,-293.2449 147.5,-293.2449"/>
<text text-anchor="start" x="167.5" y="-300.3449" font-family="Helvetica,sans-Serif" font-size="11.00" fill="#000000">fec_modificacion</text>
<polygon fill="none" stroke="#000000" points="270.5,-293.2449 270.5,-315.2449 362.5,-315.2449 362.5,-293.2449 270.5,-293.2449"/>
<text text-anchor="start" x="273.1023" y="-300.9449" font-family="Helvetica,sans-Serif" font-size="11.00" fill="#000000">timestamptz[35,6]</text>
<polygon fill="none" stroke="#000000" points="147.5,-271.2449 147.5,-293.2449 270.5,-293.2449 270.5,-271.2449 147.5,-271.2449"/>
<text text-anchor="start" x="167.5" y="-278.3449" font-family="Helvetica,sans-Serif" font-size="11.00" fill="#000000">usu_modificacion</text>
<polygon fill="none" stroke="#000000" points="270.5,-271.2449 270.5,-293.2449 362.5,-293.2449 362.5,-271.2449 270.5,-271.2449"/>
<text text-anchor="start" x="273.5" y="-278.9449" font-family="Helvetica,sans-Serif" font-size="11.00" fill="#000000">varchar[20]</text>
<polygon fill="#ffffff" stroke="transparent" points="147.5,-252.2449 147.5,-271.2449 200.5,-271.2449 200.5,-252.2449 147.5,-252.2449"/>
<polygon fill="none" stroke="#000000" points="147.5,-252.2449 147.5,-271.2449 200.5,-271.2449 200.5,-252.2449 147.5,-252.2449"/>
<text text-anchor="start" x="150.5" y="-258.3449" font-family="Helvetica,sans-Serif" font-size="11.00" fill="#000000">&lt; 0</text>
<polygon fill="#ffffff" stroke="transparent" points="200.5,-252.2449 200.5,-271.2449 270.5,-271.2449 270.5,-252.2449 200.5,-252.2449"/>
<polygon fill="none" stroke="#000000" points="200.5,-252.2449 200.5,-271.2449 270.5,-271.2449 270.5,-252.2449 200.5,-252.2449"/>
<text text-anchor="start" x="235.1105" y="-258.3449" font-family="Helvetica,sans-Serif" font-size="11.00" fill="#000000">0 rows</text>
<polygon fill="#ffffff" stroke="transparent" points="270.5,-252.2449 270.5,-271.2449 362.5,-271.2449 362.5,-252.2449 270.5,-252.2449"/>
<polygon fill="none" stroke="#000000" points="270.5,-252.2449 270.5,-271.2449 362.5,-271.2449 362.5,-252.2449 270.5,-252.2449"/>
<text text-anchor="start" x="343.9053" y="-258.3449" font-family="Helvetica,sans-Serif" font-size="11.00" fill="#000000">3 &gt;</text>
<polygon fill="none" stroke="#000000" stroke-width="2" points="146,-251.2449 146,-493.2449 363,-493.2449 363,-251.2449 146,-251.2449"/>
</a>
</g>
</g>
<!-- campana_tipos&#45;&gt;campanas -->
<g id="edge1" class="edge">
<title>campana_tipos:w&#45;&gt;campanas:e</title>
<path fill="none" stroke="#000000" d="M399.4939,-496.6431C385.6566,-485.5503 386.1259,-458.2449 362.5,-458.2449"/>
<polygon fill="#000000" stroke="#000000" points="405.8997,-498.7477 412.3763,-504.665 409.6999,-499.9963 413.5,-501.2449 413.5,-501.2449 413.5,-501.2449 409.6999,-499.9963 414.6237,-497.8247 405.8997,-498.7477 405.8997,-498.7477"/>
<ellipse fill="none" stroke="#000000" cx="402.8596" cy="-497.7489" rx="3.2" ry="3.2"/>
</g>
<!-- contactos -->
<g id="node3" class="node">
<title>contactos</title>
<g id="a_node3"><a xlink:href="../../tables/contactos.html" xlink:title="contactos" target="_top">
<polygon fill="#ffffff" stroke="transparent" points="209.5,-515.7449 209.5,-576.7449 299.5,-576.7449 299.5,-515.7449 209.5,-515.7449"/>
<polygon fill="#f5f5f5" stroke="transparent" points="209.5,-553.2449 209.5,-576.2449 299.5,-576.2449 299.5,-553.2449 209.5,-553.2449"/>
<polygon fill="none" stroke="#000000" points="209.5,-553.2449 209.5,-576.2449 299.5,-576.2449 299.5,-553.2449 209.5,-553.2449"/>
<text text-anchor="start" x="214.4633" y="-562.3449" font-family="Helvetica,sans-Serif" font-weight="bold" font-size="11.00" fill="#000000">contactos</text>
<text text-anchor="start" x="265.0219" y="-561.3449" font-family="Helvetica,sans-Serif" font-size="11.00" fill="#000000">[table]</text>
<polygon fill="none" stroke="#000000" points="209.5,-534.2449 209.5,-553.2449 299.5,-553.2449 299.5,-534.2449 209.5,-534.2449"/>
<text text-anchor="start" x="212.5" y="-540.3449" font-family="Helvetica,sans-Serif" font-size="11.00" fill="#000000">...</text>
<polygon fill="#ffffff" stroke="transparent" points="209.5,-515.2449 209.5,-534.2449 235.5,-534.2449 235.5,-515.2449 209.5,-515.2449"/>
<polygon fill="none" stroke="#000000" points="209.5,-515.2449 209.5,-534.2449 235.5,-534.2449 235.5,-515.2449 209.5,-515.2449"/>
<text text-anchor="start" x="212.5" y="-521.3449" font-family="Helvetica,sans-Serif" font-size="11.00" fill="#000000">&lt; 2</text>
<polygon fill="#ffffff" stroke="transparent" points="235.5,-515.2449 235.5,-534.2449 275.5,-534.2449 275.5,-515.2449 235.5,-515.2449"/>
<polygon fill="none" stroke="#000000" points="235.5,-515.2449 235.5,-534.2449 275.5,-534.2449 275.5,-515.2449 235.5,-515.2449"/>
<text text-anchor="start" x="240.1105" y="-521.3449" font-family="Helvetica,sans-Serif" font-size="11.00" fill="#000000">0 rows</text>
<polygon fill="#ffffff" stroke="transparent" points="275.5,-515.2449 275.5,-534.2449 299.5,-534.2449 299.5,-515.2449 275.5,-515.2449"/>
<polygon fill="none" stroke="#000000" points="275.5,-515.2449 275.5,-534.2449 299.5,-534.2449 299.5,-515.2449 275.5,-515.2449"/>
<text text-anchor="start" x="280.9053" y="-521.3449" font-family="Helvetica,sans-Serif" font-size="11.00" fill="#000000">2 &gt;</text>
</a>
</g>
</g>
<!-- personas -->
<g id="node4" class="node">
<title>personas</title>
<g id="a_node4"><a xlink:href="../../tables/personas.html" xlink:title="personas" target="_top">
<polygon fill="#ffffff" stroke="transparent" points="8,-274.7449 8,-335.7449 96,-335.7449 96,-274.7449 8,-274.7449"/>
<polygon fill="#f5f5f5" stroke="transparent" points="8,-312.2449 8,-335.2449 96,-335.2449 96,-312.2449 8,-312.2449"/>
<polygon fill="none" stroke="#000000" points="8,-312.2449 8,-335.2449 96,-335.2449 96,-312.2449 8,-312.2449"/>
<text text-anchor="start" x="12.8818" y="-321.3449" font-family="Helvetica,sans-Serif" font-weight="bold" font-size="11.00" fill="#000000">personas</text>
<text text-anchor="start" x="61.5219" y="-320.3449" font-family="Helvetica,sans-Serif" font-size="11.00" fill="#000000">[table]</text>
<polygon fill="none" stroke="#000000" points="8,-293.2449 8,-312.2449 96,-312.2449 96,-293.2449 8,-293.2449"/>
<text text-anchor="start" x="11" y="-299.3449" font-family="Helvetica,sans-Serif" font-size="11.00" fill="#000000">...</text>
<polygon fill="#ffffff" stroke="transparent" points="8,-274.2449 8,-293.2449 28,-293.2449 28,-274.2449 8,-274.2449"/>
<polygon fill="none" stroke="#000000" points="8,-274.2449 8,-293.2449 28,-293.2449 28,-274.2449 8,-274.2449"/>
<text text-anchor="start" x="11" y="-280.3449" font-family="Helvetica,sans-Serif" font-size="11.00" fill="#000000"> &#160;</text>
<polygon fill="#ffffff" stroke="transparent" points="28,-274.2449 28,-293.2449 70,-293.2449 70,-274.2449 28,-274.2449"/>
<polygon fill="none" stroke="#000000" points="28,-274.2449 28,-293.2449 70,-293.2449 70,-274.2449 28,-274.2449"/>
<text text-anchor="start" x="34.6105" y="-280.3449" font-family="Helvetica,sans-Serif" font-size="11.00" fill="#000000">0 rows</text>
<polygon fill="#ffffff" stroke="transparent" points="70,-274.2449 70,-293.2449 96,-293.2449 96,-274.2449 70,-274.2449"/>
<polygon fill="none" stroke="#000000" points="70,-274.2449 70,-293.2449 96,-293.2449 96,-274.2449 70,-274.2449"/>
<text text-anchor="start" x="77.4053" y="-280.3449" font-family="Helvetica,sans-Serif" font-size="11.00" fill="#000000">7 &gt;</text>
</a>
</g>
</g>
<!-- contactos&#45;&gt;personas -->
<g id="edge2" class="edge">
<title>contactos:w&#45;&gt;personas:e</title>
<path fill="none" stroke="#000000" d="M195.0209,-542.653C168.8324,-540.2504 155.6771,-530.1395 137,-505.2449 81.7621,-431.6183 188.044,-302.2449 96,-302.2449"/>
<polygon fill="#000000" stroke="#000000" points="201.5067,-542.9181 209.353,-546.8419 205.5033,-543.0815 209.5,-543.2449 209.5,-543.2449 209.5,-543.2449 205.5033,-543.0815 209.647,-539.6479 201.5067,-542.9181 201.5067,-542.9181"/>
<ellipse fill="none" stroke="#000000" cx="198.3093" cy="-542.7874" rx="3.2" ry="3.2"/>
</g>
<!-- encuesta_respuestas -->
<g id="node5" class="node">
<title>encuesta_respuestas</title>
<g id="a_node5"><a xlink:href="../../tables/encuesta_respuestas.html" xlink:title="encuesta_respuestas" target="_top">
<polygon fill="#ffffff" stroke="transparent" points="585,-439.7449 585,-500.7449 732,-500.7449 732,-439.7449 585,-439.7449"/>
<polygon fill="#f5f5f5" stroke="transparent" points="585.5,-477.2449 585.5,-500.2449 732.5,-500.2449 732.5,-477.2449 585.5,-477.2449"/>
<polygon fill="none" stroke="#000000" points="585.5,-477.2449 585.5,-500.2449 732.5,-500.2449 732.5,-477.2449 585.5,-477.2449"/>
<text text-anchor="start" x="590.2302" y="-486.3449" font-family="Helvetica,sans-Serif" font-weight="bold" font-size="11.00" fill="#000000">encuesta_respuestas</text>
<text text-anchor="start" x="698.0219" y="-485.3449" font-family="Helvetica,sans-Serif" font-size="11.00" fill="#000000">[table]</text>
<polygon fill="none" stroke="#000000" points="585.5,-458.2449 585.5,-477.2449 732.5,-477.2449 732.5,-458.2449 585.5,-458.2449"/>
<text text-anchor="start" x="588.5" y="-464.3449" font-family="Helvetica,sans-Serif" font-size="11.00" fill="#000000">...</text>
<polygon fill="#ffffff" stroke="transparent" points="585.5,-439.2449 585.5,-458.2449 639.5,-458.2449 639.5,-439.2449 585.5,-439.2449"/>
<polygon fill="none" stroke="#000000" points="585.5,-439.2449 585.5,-458.2449 639.5,-458.2449 639.5,-439.2449 585.5,-439.2449"/>
<text text-anchor="start" x="588.5" y="-445.3449" font-family="Helvetica,sans-Serif" font-size="11.00" fill="#000000">&lt; 2</text>
<polygon fill="#ffffff" stroke="transparent" points="639.5,-439.2449 639.5,-458.2449 694.5,-458.2449 694.5,-439.2449 639.5,-439.2449"/>
<polygon fill="none" stroke="#000000" points="639.5,-439.2449 639.5,-458.2449 694.5,-458.2449 694.5,-439.2449 639.5,-439.2449"/>
<text text-anchor="start" x="659.1105" y="-445.3449" font-family="Helvetica,sans-Serif" font-size="11.00" fill="#000000">0 rows</text>
<polygon fill="#ffffff" stroke="transparent" points="694.5,-439.2449 694.5,-458.2449 732.5,-458.2449 732.5,-439.2449 694.5,-439.2449"/>
<polygon fill="none" stroke="#000000" points="694.5,-439.2449 694.5,-458.2449 732.5,-458.2449 732.5,-439.2449 694.5,-439.2449"/>
<text text-anchor="start" x="713.9053" y="-445.3449" font-family="Helvetica,sans-Serif" font-size="11.00" fill="#000000">1 &gt;</text>
</a>
</g>
</g>
<!-- encuesta_respuestas&#45;&gt;contactos -->
<g id="edge3" class="edge">
<title>encuesta_respuestas:w&#45;&gt;contactos:e</title>
<path fill="none" stroke="#000000" d="M571.6396,-471.1607C554.2596,-484.5953 572.641,-528.9381 544,-546.2449 450.9876,-602.4491 408.1748,-543.2449 299.5,-543.2449"/>
<polygon fill="#000000" stroke="#000000" points="577.8013,-469.4199 586.4788,-470.7093 581.6507,-468.3324 585.5,-467.2449 585.5,-467.2449 585.5,-467.2449 581.6507,-468.3324 584.5212,-463.7805 577.8013,-469.4199 577.8013,-469.4199"/>
<ellipse fill="none" stroke="#000000" cx="574.7219" cy="-470.2899" rx="3.2" ry="3.2"/>
</g>
<!-- oportunidades -->
<g id="node6" class="node">
<title>oportunidades</title>
<g id="a_node6"><a xlink:href="../../tables/oportunidades.html" xlink:title="oportunidades" target="_top">
<polygon fill="#ffffff" stroke="transparent" points="413,-238.7449 413,-409.7449 536,-409.7449 536,-238.7449 413,-238.7449"/>
<polygon fill="#f5f5f5" stroke="transparent" points="413.5,-386.2449 413.5,-409.2449 536.5,-409.2449 536.5,-386.2449 413.5,-386.2449"/>
<polygon fill="none" stroke="#000000" points="413.5,-386.2449 413.5,-409.2449 536.5,-409.2449 536.5,-386.2449 413.5,-386.2449"/>
<text text-anchor="start" x="418.5" y="-395.3449" font-family="Helvetica,sans-Serif" font-weight="bold" font-size="11.00" fill="#000000">oportunidades</text>
<text text-anchor="start" x="501.5437" y="-394.3449" font-family="Helvetica,sans-Serif" font-size="11.00" fill="#000000">[table]</text>
<polygon fill="none" stroke="#000000" points="413.5,-364.2449 413.5,-386.2449 536.5,-386.2449 536.5,-364.2449 413.5,-364.2449"/>
<image xlink:href="../../images/primaryKeys.png" width="11px" height="12px" preserveAspectRatio="xMinYMin meet" x="418.5" y="-381.245"/>
<text text-anchor="start" x="433.5" y="-371.3449" font-family="Helvetica,sans-Serif" font-size="11.00" fill="#000000">oportunidad_id</text>
<polygon fill="none" stroke="#000000" points="413.5,-342.2449 413.5,-364.2449 536.5,-364.2449 536.5,-342.2449 413.5,-342.2449"/>
<image xlink:href="../../images/foreignKeys.png" width="11px" height="12px" preserveAspectRatio="xMinYMin meet" x="418.5" y="-359.245"/>
<text text-anchor="start" x="433.5" y="-349.3449" font-family="Helvetica,sans-Serif" font-size="11.00" fill="#000000">campana_id</text>
<polygon fill="none" stroke="#000000" points="413.5,-320.2449 413.5,-342.2449 536.5,-342.2449 536.5,-320.2449 413.5,-320.2449"/>
<image xlink:href="../../images/foreignKeys.png" width="11px" height="12px" preserveAspectRatio="xMinYMin meet" x="418.5" y="-337.245"/>
<text text-anchor="start" x="433.5" y="-327.3449" font-family="Helvetica,sans-Serif" font-size="11.00" fill="#000000">contacto_id</text>
<polygon fill="none" stroke="#000000" points="413.5,-298.2449 413.5,-320.2449 536.5,-320.2449 536.5,-298.2449 413.5,-298.2449"/>
<image xlink:href="../../images/foreignKeys.png" width="11px" height="12px" preserveAspectRatio="xMinYMin meet" x="418.5" y="-315.245"/>
<text text-anchor="start" x="433.5" y="-305.3449" font-family="Helvetica,sans-Serif" font-size="11.00" fill="#000000">curso_id</text>
<polygon fill="none" stroke="#000000" points="413.5,-276.2449 413.5,-298.2449 536.5,-298.2449 536.5,-276.2449 413.5,-276.2449"/>
<image xlink:href="../../images/foreignKeys.png" width="11px" height="12px" preserveAspectRatio="xMinYMin meet" x="418.5" y="-293.245"/>
<text text-anchor="start" x="433.5" y="-283.3449" font-family="Helvetica,sans-Serif" font-size="11.00" fill="#000000">usu_asignado_id</text>
<polygon fill="none" stroke="#000000" points="413.5,-257.2449 413.5,-276.2449 536.5,-276.2449 536.5,-257.2449 413.5,-257.2449"/>
<text text-anchor="start" x="416.5" y="-263.3449" font-family="Helvetica,sans-Serif" font-size="11.00" fill="#000000">...</text>
<polygon fill="#ffffff" stroke="transparent" points="413.5,-238.2449 413.5,-257.2449 455.5,-257.2449 455.5,-238.2449 413.5,-238.2449"/>
<polygon fill="none" stroke="#000000" points="413.5,-238.2449 413.5,-257.2449 455.5,-257.2449 455.5,-238.2449 413.5,-238.2449"/>
<text text-anchor="start" x="416.5" y="-244.3449" font-family="Helvetica,sans-Serif" font-size="11.00" fill="#000000">&lt; 4</text>
<polygon fill="#ffffff" stroke="transparent" points="455.5,-238.2449 455.5,-257.2449 504.5,-257.2449 504.5,-238.2449 455.5,-238.2449"/>
<polygon fill="none" stroke="#000000" points="455.5,-238.2449 455.5,-257.2449 504.5,-257.2449 504.5,-238.2449 455.5,-238.2449"/>
<text text-anchor="start" x="469.1105" y="-244.3449" font-family="Helvetica,sans-Serif" font-size="11.00" fill="#000000">0 rows</text>
<polygon fill="#ffffff" stroke="transparent" points="504.5,-238.2449 504.5,-257.2449 536.5,-257.2449 536.5,-238.2449 504.5,-238.2449"/>
<polygon fill="none" stroke="#000000" points="504.5,-238.2449 504.5,-257.2449 536.5,-257.2449 536.5,-238.2449 504.5,-238.2449"/>
<text text-anchor="start" x="517.9053" y="-244.3449" font-family="Helvetica,sans-Serif" font-size="11.00" fill="#000000">1 &gt;</text>
</a>
</g>
</g>
<!-- encuesta_respuestas&#45;&gt;oportunidades -->
<g id="edge4" class="edge">
<title>encuesta_respuestas:w&#45;&gt;oportunidades:e</title>
<path fill="none" stroke="#000000" d="M571.6846,-463.0527C548.9325,-445.0549 576.855,-375.2449 536.5,-375.2449"/>
<polygon fill="#000000" stroke="#000000" points="577.8447,-464.9219 584.4547,-470.6898 581.6723,-466.0834 585.5,-467.2449 585.5,-467.2449 585.5,-467.2449 581.6723,-466.0834 586.5453,-463.8 577.8447,-464.9219 577.8447,-464.9219"/>
<ellipse fill="none" stroke="#000000" cx="574.7825" cy="-463.9927" rx="3.2" ry="3.2"/>
</g>
<!-- oportunidades&#45;&gt;campanas -->
<g id="edge9" class="edge">
<title>oportunidades:w&#45;&gt;campanas:e</title>
<path fill="none" stroke="#000000" d="M399.5931,-356.9819C372.2305,-375.6865 408.5031,-458.2449 362.5,-458.2449"/>
<polygon fill="#000000" stroke="#000000" points="405.7741,-355.321 414.4343,-356.7215 409.637,-354.2829 413.5,-353.2449 413.5,-353.2449 413.5,-353.2449 409.637,-354.2829 412.5657,-349.7682 405.7741,-355.321 405.7741,-355.321"/>
<ellipse fill="none" stroke="#000000" cx="402.6837" cy="-356.1514" rx="3.2" ry="3.2"/>
</g>
<!-- oportunidades&#45;&gt;contactos -->
<g id="edge10" class="edge">
<title>oportunidades:w&#45;&gt;contactos:e</title>
<path fill="none" stroke="#000000" d="M399.0917,-332.8393C345.5353,-346.6491 417.3799,-446.9035 372,-505.2449 349.6638,-533.9607 335.88,-543.2449 299.5,-543.2449"/>
<polygon fill="#000000" stroke="#000000" points="405.5485,-332.1248 413.896,-334.823 409.5243,-331.6848 413.5,-331.2449 413.5,-331.2449 413.5,-331.2449 409.5243,-331.6848 413.104,-327.6667 405.5485,-332.1248 405.5485,-332.1248"/>
<ellipse fill="none" stroke="#000000" cx="402.368" cy="-332.4768" rx="3.2" ry="3.2"/>
</g>
<!-- cursos -->
<g id="node8" class="node">
<title>cursos</title>
<g id="a_node8"><a xlink:href="../../tables/cursos.html" xlink:title="cursos" target="_top">
<polygon fill="#ffffff" stroke="transparent" points="217,-85.7449 217,-146.7449 292,-146.7449 292,-85.7449 217,-85.7449"/>
<polygon fill="#f5f5f5" stroke="transparent" points="217.5,-123.2449 217.5,-146.2449 292.5,-146.2449 292.5,-123.2449 217.5,-123.2449"/>
<polygon fill="none" stroke="#000000" points="217.5,-123.2449 217.5,-146.2449 292.5,-146.2449 292.5,-123.2449 217.5,-123.2449"/>
<text text-anchor="start" x="222.3042" y="-132.3449" font-family="Helvetica,sans-Serif" font-weight="bold" font-size="11.00" fill="#000000">cursos</text>
<text text-anchor="start" x="258.0219" y="-131.3449" font-family="Helvetica,sans-Serif" font-size="11.00" fill="#000000">[table]</text>
<polygon fill="none" stroke="#000000" points="217.5,-104.2449 217.5,-123.2449 292.5,-123.2449 292.5,-104.2449 217.5,-104.2449"/>
<text text-anchor="start" x="220.5" y="-110.3449" font-family="Helvetica,sans-Serif" font-size="11.00" fill="#000000">...</text>
<polygon fill="#ffffff" stroke="transparent" points="217.5,-85.2449 217.5,-104.2449 234.5,-104.2449 234.5,-85.2449 217.5,-85.2449"/>
<polygon fill="none" stroke="#000000" points="217.5,-85.2449 217.5,-104.2449 234.5,-104.2449 234.5,-85.2449 217.5,-85.2449"/>
<text text-anchor="start" x="220.5" y="-91.3449" font-family="Helvetica,sans-Serif" font-size="11.00" fill="#000000"> &#160;</text>
<polygon fill="#ffffff" stroke="transparent" points="234.5,-85.2449 234.5,-104.2449 268.5,-104.2449 268.5,-85.2449 234.5,-85.2449"/>
<polygon fill="none" stroke="#000000" points="234.5,-85.2449 234.5,-104.2449 268.5,-104.2449 268.5,-85.2449 234.5,-85.2449"/>
<text text-anchor="start" x="238.6105" y="-91.3449" font-family="Helvetica,sans-Serif" font-size="11.00" fill="#000000">1 row</text>
<polygon fill="#ffffff" stroke="transparent" points="268.5,-85.2449 268.5,-104.2449 292.5,-104.2449 292.5,-85.2449 268.5,-85.2449"/>
<polygon fill="none" stroke="#000000" points="268.5,-85.2449 268.5,-104.2449 292.5,-104.2449 292.5,-85.2449 268.5,-85.2449"/>
<text text-anchor="start" x="273.9053" y="-91.3449" font-family="Helvetica,sans-Serif" font-size="11.00" fill="#000000">4 &gt;</text>
</a>
</g>
</g>
<!-- oportunidades&#45;&gt;cursos -->
<g id="edge11" class="edge">
<title>oportunidades:w&#45;&gt;cursos:e</title>
<path fill="none" stroke="#000000" d="M398.9876,-307.3646C354.4757,-293.6235 411.7132,-207.7944 372,-157.2449 347.0516,-125.4889 332.884,-113.2449 292.5,-113.2449"/>
<polygon fill="#000000" stroke="#000000" points="405.5663,-308.2169 413.0374,-312.815 409.5332,-308.7309 413.5,-309.2449 413.5,-309.2449 413.5,-309.2449 409.5332,-308.7309 413.9626,-305.6747 405.5663,-308.2169 405.5663,-308.2169"/>
<ellipse fill="none" stroke="#000000" cx="402.3928" cy="-307.8058" rx="3.2" ry="3.2"/>
</g>
<!-- usuarios -->
<g id="node9" class="node">
<title>usuarios</title>
<g id="a_node9"><a xlink:href="../../tables/usuarios.html" xlink:title="usuarios" target="_top">
<polygon fill="#ffffff" stroke="transparent" points="212.5,-167.7449 212.5,-228.7449 296.5,-228.7449 296.5,-167.7449 212.5,-167.7449"/>
<polygon fill="#f5f5f5" stroke="transparent" points="212.5,-205.2449 212.5,-228.2449 296.5,-228.2449 296.5,-205.2449 212.5,-205.2449"/>
<polygon fill="none" stroke="#000000" points="212.5,-205.2449 212.5,-228.2449 296.5,-228.2449 296.5,-205.2449 212.5,-205.2449"/>
<text text-anchor="start" x="217.2188" y="-214.3449" font-family="Helvetica,sans-Serif" font-weight="bold" font-size="11.00" fill="#000000">usuarios</text>
<text text-anchor="start" x="262.0219" y="-213.3449" font-family="Helvetica,sans-Serif" font-size="11.00" fill="#000000">[table]</text>
<polygon fill="none" stroke="#000000" points="212.5,-186.2449 212.5,-205.2449 296.5,-205.2449 296.5,-186.2449 212.5,-186.2449"/>
<text text-anchor="start" x="215.5" y="-192.3449" font-family="Helvetica,sans-Serif" font-size="11.00" fill="#000000">...</text>
<polygon fill="#ffffff" stroke="transparent" points="212.5,-167.2449 212.5,-186.2449 230.5,-186.2449 230.5,-167.2449 212.5,-167.2449"/>
<polygon fill="none" stroke="#000000" points="212.5,-167.2449 212.5,-186.2449 230.5,-186.2449 230.5,-167.2449 212.5,-167.2449"/>
<text text-anchor="start" x="215.5" y="-173.3449" font-family="Helvetica,sans-Serif" font-size="11.00" fill="#000000"> &#160;</text>
<polygon fill="#ffffff" stroke="transparent" points="230.5,-167.2449 230.5,-186.2449 271.5,-186.2449 271.5,-167.2449 230.5,-167.2449"/>
<polygon fill="none" stroke="#000000" points="230.5,-167.2449 230.5,-186.2449 271.5,-186.2449 271.5,-167.2449 230.5,-167.2449"/>
<text text-anchor="start" x="236.1105" y="-173.3449" font-family="Helvetica,sans-Serif" font-size="11.00" fill="#000000">0 rows</text>
<polygon fill="#ffffff" stroke="transparent" points="271.5,-167.2449 271.5,-186.2449 296.5,-186.2449 296.5,-167.2449 271.5,-167.2449"/>
<polygon fill="none" stroke="#000000" points="271.5,-167.2449 271.5,-186.2449 296.5,-186.2449 296.5,-167.2449 271.5,-167.2449"/>
<text text-anchor="start" x="277.9053" y="-173.3449" font-family="Helvetica,sans-Serif" font-size="11.00" fill="#000000">5 &gt;</text>
</a>
</g>
</g>
<!-- oportunidades&#45;&gt;usuarios -->
<g id="edge12" class="edge">
<title>oportunidades:w&#45;&gt;usuarios:e</title>
<path fill="none" stroke="#000000" d="M399.5492,-283.3791C387.534,-274.698 388.9532,-253.3164 372,-239.2449 342.1151,-214.4398 335.3381,-195.2449 296.5,-195.2449"/>
<polygon fill="#000000" stroke="#000000" points="405.7905,-285.1085 412.5387,-290.7141 409.6453,-286.1767 413.5,-287.2449 413.5,-287.2449 413.5,-287.2449 409.6453,-286.1767 414.4613,-283.7756 405.7905,-285.1085 405.7905,-285.1085"/>
<ellipse fill="none" stroke="#000000" cx="402.7067" cy="-284.254" rx="3.2" ry="3.2"/>
</g>
<!-- leads -->
<g id="node7" class="node">
<title>leads</title>
<g id="a_node7"><a xlink:href="../../tables/leads.html" xlink:title="leads" target="_top">
<polygon fill="#ffffff" stroke="transparent" points="413,-46.7449 413,-217.7449 536,-217.7449 536,-46.7449 413,-46.7449"/>
<polygon fill="#f5f5f5" stroke="transparent" points="413.5,-194.2449 413.5,-217.2449 536.5,-217.2449 536.5,-194.2449 413.5,-194.2449"/>
<polygon fill="none" stroke="#000000" points="413.5,-194.2449 413.5,-217.2449 536.5,-217.2449 536.5,-194.2449 413.5,-194.2449"/>
<text text-anchor="start" x="418.5" y="-203.3449" font-family="Helvetica,sans-Serif" font-weight="bold" font-size="11.00" fill="#000000">leads</text>
<text text-anchor="start" x="501.5437" y="-202.3449" font-family="Helvetica,sans-Serif" font-size="11.00" fill="#000000">[table]</text>
<polygon fill="none" stroke="#000000" points="413.5,-172.2449 413.5,-194.2449 536.5,-194.2449 536.5,-172.2449 413.5,-172.2449"/>
<image xlink:href="../../images/primaryKeys.png" width="11px" height="12px" preserveAspectRatio="xMinYMin meet" x="418.5" y="-189.245"/>
<text text-anchor="start" x="433.5" y="-179.3449" font-family="Helvetica,sans-Serif" font-size="11.00" fill="#000000">lead_id</text>
<polygon fill="none" stroke="#000000" points="413.5,-150.2449 413.5,-172.2449 536.5,-172.2449 536.5,-150.2449 413.5,-150.2449"/>
<image xlink:href="../../images/foreignKeys.png" width="11px" height="12px" preserveAspectRatio="xMinYMin meet" x="418.5" y="-167.245"/>
<text text-anchor="start" x="433.5" y="-157.3449" font-family="Helvetica,sans-Serif" font-size="11.00" fill="#000000">usu_asignado_id</text>
<polygon fill="none" stroke="#000000" points="413.5,-128.2449 413.5,-150.2449 536.5,-150.2449 536.5,-128.2449 413.5,-128.2449"/>
<image xlink:href="../../images/foreignKeys.png" width="11px" height="12px" preserveAspectRatio="xMinYMin meet" x="418.5" y="-145.245"/>
<text text-anchor="start" x="433.5" y="-135.3449" font-family="Helvetica,sans-Serif" font-size="11.00" fill="#000000">campana_id</text>
<polygon fill="none" stroke="#000000" points="413.5,-106.2449 413.5,-128.2449 536.5,-128.2449 536.5,-106.2449 413.5,-106.2449"/>
<image xlink:href="../../images/foreignKeys.png" width="11px" height="12px" preserveAspectRatio="xMinYMin meet" x="418.5" y="-123.245"/>
<text text-anchor="start" x="433.5" y="-113.3449" font-family="Helvetica,sans-Serif" font-size="11.00" fill="#000000">persona_id</text>
<polygon fill="none" stroke="#000000" points="413.5,-84.2449 413.5,-106.2449 536.5,-106.2449 536.5,-84.2449 413.5,-84.2449"/>
<image xlink:href="../../images/foreignKeys.png" width="11px" height="12px" preserveAspectRatio="xMinYMin meet" x="418.5" y="-101.245"/>
<text text-anchor="start" x="433.5" y="-91.3449" font-family="Helvetica,sans-Serif" font-size="11.00" fill="#000000">curso_id</text>
<polygon fill="none" stroke="#000000" points="413.5,-65.2449 413.5,-84.2449 536.5,-84.2449 536.5,-65.2449 413.5,-65.2449"/>
<text text-anchor="start" x="416.5" y="-71.3449" font-family="Helvetica,sans-Serif" font-size="11.00" fill="#000000">...</text>
<polygon fill="#ffffff" stroke="transparent" points="413.5,-46.2449 413.5,-65.2449 460.5,-65.2449 460.5,-46.2449 413.5,-46.2449"/>
<polygon fill="none" stroke="#000000" points="413.5,-46.2449 413.5,-65.2449 460.5,-65.2449 460.5,-46.2449 413.5,-46.2449"/>
<text text-anchor="start" x="416.5" y="-52.3449" font-family="Helvetica,sans-Serif" font-size="11.00" fill="#000000">&lt; 4</text>
<polygon fill="#ffffff" stroke="transparent" points="460.5,-46.2449 460.5,-65.2449 511.5,-65.2449 511.5,-46.2449 460.5,-46.2449"/>
<polygon fill="none" stroke="#000000" points="460.5,-46.2449 460.5,-65.2449 511.5,-65.2449 511.5,-46.2449 460.5,-46.2449"/>
<text text-anchor="start" x="476.1105" y="-52.3449" font-family="Helvetica,sans-Serif" font-size="11.00" fill="#000000">0 rows</text>
<polygon fill="#ffffff" stroke="transparent" points="511.5,-46.2449 511.5,-65.2449 536.5,-65.2449 536.5,-46.2449 511.5,-46.2449"/>
<polygon fill="none" stroke="#000000" points="511.5,-46.2449 511.5,-65.2449 536.5,-65.2449 536.5,-46.2449 511.5,-46.2449"/>
<text text-anchor="start" x="527.3862" y="-52.3449" font-family="Helvetica,sans-Serif" font-size="11.00" fill="#000000"> &#160;</text>
</a>
</g>
</g>
<!-- leads&#45;&gt;campanas -->
<g id="edge5" class="edge">
<title>leads:w&#45;&gt;campanas:e</title>
<path fill="none" stroke="#000000" d="M399.8108,-144.5155C354.8609,-185.9916 428.8208,-458.2449 362.5,-458.2449"/>
<polygon fill="#000000" stroke="#000000" points="406.0343,-142.1194 414.7935,-142.6044 409.7671,-140.6821 413.5,-139.2449 413.5,-139.2449 413.5,-139.2449 409.7671,-140.6821 412.2065,-135.8853 406.0343,-142.1194 406.0343,-142.1194"/>
<ellipse fill="none" stroke="#000000" cx="403.048" cy="-143.2692" rx="3.2" ry="3.2"/>
</g>
<!-- leads&#45;&gt;personas -->
<g id="edge7" class="edge">
<title>leads:w&#45;&gt;personas:e</title>
<path fill="none" stroke="#000000" d="M399.656,-112.3964C389.6506,-103.0774 390.3499,-82.9101 372,-75.2449 275.626,-34.987 217.1485,-8.2757 137,-75.2449 58.3273,-140.9809 198.5213,-302.2449 96,-302.2449"/>
<polygon fill="#000000" stroke="#000000" points="405.9496,-114.6005 412.3101,-120.6425 409.7248,-115.9227 413.5,-117.2449 413.5,-117.2449 413.5,-117.2449 409.7248,-115.9227 414.6899,-113.8472 405.9496,-114.6005 405.9496,-114.6005"/>
<ellipse fill="none" stroke="#000000" cx="402.9295" cy="-113.5428" rx="3.2" ry="3.2"/>
</g>
<!-- leads&#45;&gt;cursos -->
<g id="edge6" class="edge">
<title>leads:w&#45;&gt;cursos:e</title>
<path fill="none" stroke="#000000" d="M398.9732,-95.7079C356.398,-98.5253 341.6662,-113.2449 292.5,-113.2449"/>
<polygon fill="#000000" stroke="#000000" points="405.5041,-95.4998 413.6147,-98.843 409.502,-95.3723 413.5,-95.2449 413.5,-95.2449 413.5,-95.2449 409.502,-95.3723 413.3853,-91.6467 405.5041,-95.4998 405.5041,-95.4998"/>
<ellipse fill="none" stroke="#000000" cx="402.3057" cy="-95.6017" rx="3.2" ry="3.2"/>
</g>
<!-- leads&#45;&gt;usuarios -->
<g id="edge8" class="edge">
<title>leads:w&#45;&gt;usuarios:e</title>
<path fill="none" stroke="#000000" d="M399.122,-162.1195C357.2678,-167.4413 345.4687,-195.2449 296.5,-195.2449"/>
<polygon fill="#000000" stroke="#000000" points="405.5148,-161.7307 413.7186,-164.8382 409.5074,-161.4878 413.5,-161.2449 413.5,-161.2449 413.5,-161.2449 409.5074,-161.4878 413.2814,-157.6515 405.5148,-161.7307 405.5148,-161.7307"/>
<ellipse fill="none" stroke="#000000" cx="402.3207" cy="-161.925" rx="3.2" ry="3.2"/>
</g>
</g>
</svg>
