<?xml version="1.0" encoding="UTF-8" standalone="no"?>
<!DOCTYPE svg PUBLIC "-//W3C//DTD SVG 1.1//EN"
 "http://www.w3.org/Graphics/SVG/1.1/DTD/svg11.dtd">
<!-- Generated by graphviz version 2.40.1 (20161225.0304)
 -->
<!-- Title: twoDegreesRelationshipsDiagramImplied Pages: 1 -->
<svg width="748pt" height="584pt"
 viewBox="0.00 0.00 748.00 584.20" xmlns="http://www.w3.org/2000/svg" xmlns:xlink="http://www.w3.org/1999/xlink">
<g id="graph0" class="graph" transform="scale(1 1) rotate(0) translate(4 580.2)">
<title>twoDegreesRelationshipsDiagramImplied</title>
<polygon fill="#ffffff" stroke="transparent" points="-4,4 -4,-580.2 744,-580.2 744,4 -4,4"/>
<text text-anchor="middle" x="72.4936" y="-7.3" font-family="Helvetica,sans-Serif" font-size="11.00" fill="#000000">Generated by SchemaSpy</text>
<!-- campana_tipos -->
<g id="node1" class="node">
<title>campana_tipos</title>
<g id="a_node1"><a xlink:href="../../tables/campana_tipos.html" xlink:title="campana_tipos" target="_top">
<polygon fill="#ffffff" stroke="transparent" points="413,-467.2 413,-572.2 536,-572.2 536,-467.2 413,-467.2"/>
<polygon fill="#f5f5f5" stroke="transparent" points="413.5,-548.7 413.5,-571.7 536.5,-571.7 536.5,-548.7 413.5,-548.7"/>
<polygon fill="none" stroke="#000000" points="413.5,-548.7 413.5,-571.7 536.5,-571.7 536.5,-548.7 413.5,-548.7"/>
<text text-anchor="start" x="418.5" y="-557.8" font-family="Helvetica,sans-Serif" font-weight="bold" font-size="11.00" fill="#000000">campana_tipos</text>
<text text-anchor="start" x="501.5437" y="-556.8" font-family="Helvetica,sans-Serif" font-size="11.00" fill="#000000">[table]</text>
<polygon fill="none" stroke="#000000" points="413.5,-526.7 413.5,-548.7 536.5,-548.7 536.5,-526.7 413.5,-526.7"/>
<image xlink:href="../../images/foreignKeys.png" width="11px" height="12px" preserveAspectRatio="xMinYMin meet" x="418.5" y="-543.7"/>
<text text-anchor="start" x="433.5" y="-533.8" font-family="Helvetica,sans-Serif" font-size="11.00" fill="#000000">campana_id</text>
<polygon fill="none" stroke="#000000" points="413.5,-504.7 413.5,-526.7 536.5,-526.7 536.5,-504.7 413.5,-504.7"/>
<image xlink:href="../../images/foreignKeys.png" width="11px" height="12px" preserveAspectRatio="xMinYMin meet" x="418.5" y="-521.7"/>
<text text-anchor="start" x="433.5" y="-511.8" font-family="Helvetica,sans-Serif" font-size="11.00" fill="#000000">tip_campana_id</text>
<polygon fill="none" stroke="#000000" points="413.5,-485.7 413.5,-504.7 536.5,-504.7 536.5,-485.7 413.5,-485.7"/>
<text text-anchor="start" x="416.5" y="-491.8" font-family="Helvetica,sans-Serif" font-size="11.00" fill="#000000">...</text>
<polygon fill="#ffffff" stroke="transparent" points="413.5,-466.7 413.5,-485.7 460.5,-485.7 460.5,-466.7 413.5,-466.7"/>
<polygon fill="none" stroke="#000000" points="413.5,-466.7 413.5,-485.7 460.5,-485.7 460.5,-466.7 413.5,-466.7"/>
<text text-anchor="start" x="416.5" y="-472.8" font-family="Helvetica,sans-Serif" font-size="11.00" fill="#000000">&lt; 2</text>
<polygon fill="#ffffff" stroke="transparent" points="460.5,-466.7 460.5,-485.7 511.5,-485.7 511.5,-466.7 460.5,-466.7"/>
<polygon fill="none" stroke="#000000" points="460.5,-466.7 460.5,-485.7 511.5,-485.7 511.5,-466.7 460.5,-466.7"/>
<text text-anchor="start" x="476.1105" y="-472.8" font-family="Helvetica,sans-Serif" font-size="11.00" fill="#000000">0 rows</text>
<polygon fill="#ffffff" stroke="transparent" points="511.5,-466.7 511.5,-485.7 536.5,-485.7 536.5,-466.7 511.5,-466.7"/>
<polygon fill="none" stroke="#000000" points="511.5,-466.7 511.5,-485.7 536.5,-485.7 536.5,-466.7 511.5,-466.7"/>
<text text-anchor="start" x="527.3862" y="-472.8" font-family="Helvetica,sans-Serif" font-size="11.00" fill="#000000"> &#160;</text>
</a>
</g>
</g>
<!-- campanas -->
<g id="node2" class="node">
<title>campanas</title>
<g id="a_node2"><a xlink:href="../../tables/campanas.html" xlink:title="campanas" target="_top">
<polygon fill="#ffffff" stroke="transparent" points="145,-312.7 145,-556.7 364,-556.7 364,-312.7 145,-312.7"/>
<polygon fill="#f5f5f5" stroke="transparent" points="147.5,-531.7 147.5,-554.7 362.5,-554.7 362.5,-531.7 147.5,-531.7"/>
<polygon fill="none" stroke="#000000" points="147.5,-531.7 147.5,-554.7 362.5,-554.7 362.5,-531.7 147.5,-531.7"/>
<text text-anchor="start" x="152.5" y="-540.8" font-family="Helvetica,sans-Serif" font-weight="bold" font-size="11.00" fill="#000000">campanas</text>
<text text-anchor="start" x="327.5437" y="-539.8" font-family="Helvetica,sans-Serif" font-size="11.00" fill="#000000">[table]</text>
<polygon fill="none" stroke="#000000" points="147.5,-509.7 147.5,-531.7 270.5,-531.7 270.5,-509.7 147.5,-509.7"/>
<image xlink:href="../../images/primaryKeys.png" width="11px" height="12px" preserveAspectRatio="xMinYMin meet" x="152.5" y="-526.7"/>
<text text-anchor="start" x="167.5" y="-516.8" font-family="Helvetica,sans-Serif" font-size="11.00" fill="#000000">campana_id</text>
<polygon fill="none" stroke="#000000" points="270.5,-509.7 270.5,-531.7 362.5,-531.7 362.5,-509.7 270.5,-509.7"/>
<text text-anchor="start" x="273.5" y="-517.4" font-family="Helvetica,sans-Serif" font-size="11.00" fill="#000000">serial[10]</text>
<polygon fill="none" stroke="#000000" points="147.5,-487.7 147.5,-509.7 270.5,-509.7 270.5,-487.7 147.5,-487.7"/>
<text text-anchor="start" x="167.5" y="-494.8" font-family="Helvetica,sans-Serif" font-size="11.00" fill="#000000">nombre</text>
<polygon fill="none" stroke="#000000" points="270.5,-487.7 270.5,-509.7 362.5,-509.7 362.5,-487.7 270.5,-487.7"/>
<text text-anchor="start" x="273.5" y="-495.4" font-family="Helvetica,sans-Serif" font-size="11.00" fill="#000000">varchar[255]</text>
<polygon fill="none" stroke="#000000" points="147.5,-465.7 147.5,-487.7 270.5,-487.7 270.5,-465.7 147.5,-465.7"/>
<text text-anchor="start" x="167.5" y="-472.8" font-family="Helvetica,sans-Serif" font-size="11.00" fill="#000000">descripcion</text>
<polygon fill="none" stroke="#000000" points="270.5,-465.7 270.5,-487.7 362.5,-487.7 362.5,-465.7 270.5,-465.7"/>
<text text-anchor="start" x="273.5" y="-473.4" font-family="Helvetica,sans-Serif" font-size="11.00" fill="#000000">text[2147483647]</text>
<polygon fill="none" stroke="#000000" points="147.5,-443.7 147.5,-465.7 270.5,-465.7 270.5,-443.7 147.5,-443.7"/>
<text text-anchor="start" x="167.5" y="-450.8" font-family="Helvetica,sans-Serif" font-size="11.00" fill="#000000">fec_inicio</text>
<polygon fill="none" stroke="#000000" points="270.5,-443.7 270.5,-465.7 362.5,-465.7 362.5,-443.7 270.5,-443.7"/>
<text text-anchor="start" x="273.1023" y="-451.4" font-family="Helvetica,sans-Serif" font-size="11.00" fill="#000000">timestamptz[35,6]</text>
<polygon fill="none" stroke="#000000" points="147.5,-421.7 147.5,-443.7 270.5,-443.7 270.5,-421.7 147.5,-421.7"/>
<text text-anchor="start" x="167.5" y="-428.8" font-family="Helvetica,sans-Serif" font-size="11.00" fill="#000000">fec_fin</text>
<polygon fill="none" stroke="#000000" points="270.5,-421.7 270.5,-443.7 362.5,-443.7 362.5,-421.7 270.5,-421.7"/>
<text text-anchor="start" x="273.1023" y="-429.4" font-family="Helvetica,sans-Serif" font-size="11.00" fill="#000000">timestamptz[35,6]</text>
<polygon fill="none" stroke="#000000" points="147.5,-399.7 147.5,-421.7 270.5,-421.7 270.5,-399.7 147.5,-399.7"/>
<text text-anchor="start" x="167.5" y="-406.8" font-family="Helvetica,sans-Serif" font-size="11.00" fill="#000000">usu_insercion</text>
<polygon fill="none" stroke="#000000" points="270.5,-399.7 270.5,-421.7 362.5,-421.7 362.5,-399.7 270.5,-399.7"/>
<text text-anchor="start" x="273.5" y="-407.4" font-family="Helvetica,sans-Serif" font-size="11.00" fill="#000000">varchar[20]</text>
<polygon fill="none" stroke="#000000" points="147.5,-377.7 147.5,-399.7 270.5,-399.7 270.5,-377.7 147.5,-377.7"/>
<text text-anchor="start" x="167.5" y="-384.8" font-family="Helvetica,sans-Serif" font-size="11.00" fill="#000000">fec_insercion</text>
<polygon fill="none" stroke="#000000" points="270.5,-377.7 270.5,-399.7 362.5,-399.7 362.5,-377.7 270.5,-377.7"/>
<text text-anchor="start" x="273.1023" y="-385.4" font-family="Helvetica,sans-Serif" font-size="11.00" fill="#000000">timestamptz[35,6]</text>
<polygon fill="none" stroke="#000000" points="147.5,-355.7 147.5,-377.7 270.5,-377.7 270.5,-355.7 147.5,-355.7"/>
<text text-anchor="start" x="167.5" y="-362.8" font-family="Helvetica,sans-Serif" font-size="11.00" fill="#000000">fec_modificacion</text>
<polygon fill="none" stroke="#000000" points="270.5,-355.7 270.5,-377.7 362.5,-377.7 362.5,-355.7 270.5,-355.7"/>
<text text-anchor="start" x="273.1023" y="-363.4" font-family="Helvetica,sans-Serif" font-size="11.00" fill="#000000">timestamptz[35,6]</text>
<polygon fill="none" stroke="#000000" points="147.5,-333.7 147.5,-355.7 270.5,-355.7 270.5,-333.7 147.5,-333.7"/>
<text text-anchor="start" x="167.5" y="-340.8" font-family="Helvetica,sans-Serif" font-size="11.00" fill="#000000">usu_modificacion</text>
<polygon fill="none" stroke="#000000" points="270.5,-333.7 270.5,-355.7 362.5,-355.7 362.5,-333.7 270.5,-333.7"/>
<text text-anchor="start" x="273.5" y="-341.4" font-family="Helvetica,sans-Serif" font-size="11.00" fill="#000000">varchar[20]</text>
<polygon fill="#ffffff" stroke="transparent" points="147.5,-314.7 147.5,-333.7 200.5,-333.7 200.5,-314.7 147.5,-314.7"/>
<polygon fill="none" stroke="#000000" points="147.5,-314.7 147.5,-333.7 200.5,-333.7 200.5,-314.7 147.5,-314.7"/>
<text text-anchor="start" x="150.5" y="-320.8" font-family="Helvetica,sans-Serif" font-size="11.00" fill="#000000">&lt; 0</text>
<polygon fill="#ffffff" stroke="transparent" points="200.5,-314.7 200.5,-333.7 270.5,-333.7 270.5,-314.7 200.5,-314.7"/>
<polygon fill="none" stroke="#000000" points="200.5,-314.7 200.5,-333.7 270.5,-333.7 270.5,-314.7 200.5,-314.7"/>
<text text-anchor="start" x="235.1105" y="-320.8" font-family="Helvetica,sans-Serif" font-size="11.00" fill="#000000">0 rows</text>
<polygon fill="#ffffff" stroke="transparent" points="270.5,-314.7 270.5,-333.7 362.5,-333.7 362.5,-314.7 270.5,-314.7"/>
<polygon fill="none" stroke="#000000" points="270.5,-314.7 270.5,-333.7 362.5,-333.7 362.5,-314.7 270.5,-314.7"/>
<text text-anchor="start" x="343.9053" y="-320.8" font-family="Helvetica,sans-Serif" font-size="11.00" fill="#000000">4 &gt;</text>
<polygon fill="none" stroke="#000000" stroke-width="2" points="146,-313.7 146,-555.7 363,-555.7 363,-313.7 146,-313.7"/>
</a>
</g>
</g>
<!-- campana_tipos&#45;&gt;campanas -->
<g id="edge1" class="edge">
<title>campana_tipos:w&#45;&gt;campanas:e</title>
<path fill="none" stroke="#000000" d="M399.1916,-535.1916C386.8373,-530.4628 380.6062,-520.7 362.5,-520.7"/>
<polygon fill="#000000" stroke="#000000" points="405.6202,-536.3185 412.8783,-541.2459 409.5601,-537.0093 413.5,-537.7 413.5,-537.7 413.5,-537.7 409.5601,-537.0093 414.1217,-534.1541 405.6202,-536.3185 405.6202,-536.3185"/>
<ellipse fill="none" stroke="#000000" cx="402.4682" cy="-535.766" rx="3.2" ry="3.2"/>
</g>
<!-- campana_tipos&#45;&gt;campanas -->
<g id="edge2" class="edge">
<title>campana_tipos:w&#45;&gt;campanas:e</title>
<path fill="none" stroke="#000000" stroke-dasharray="5,2" d="M398.7457,-516.5256C386.7632,-517.9458 379.4036,-520.7 362.5,-520.7"/>
<polygon fill="#000000" stroke="#000000" points="405.5125,-516.147 413.7012,-519.2944 409.5062,-515.9235 413.5,-515.7 413.5,-515.7 413.5,-515.7 409.5062,-515.9235 413.2988,-512.1056 405.5125,-516.147 405.5125,-516.147"/>
<ellipse fill="none" stroke="#000000" cx="402.3175" cy="-516.3258" rx="3.2" ry="3.2"/>
</g>
<!-- contactos -->
<g id="node3" class="node">
<title>contactos</title>
<g id="a_node3"><a xlink:href="../../tables/contactos.html" xlink:title="contactos" target="_top">
<polygon fill="#ffffff" stroke="transparent" points="209.5,-38.2 209.5,-99.2 299.5,-99.2 299.5,-38.2 209.5,-38.2"/>
<polygon fill="#f5f5f5" stroke="transparent" points="209.5,-75.7 209.5,-98.7 299.5,-98.7 299.5,-75.7 209.5,-75.7"/>
<polygon fill="none" stroke="#000000" points="209.5,-75.7 209.5,-98.7 299.5,-98.7 299.5,-75.7 209.5,-75.7"/>
<text text-anchor="start" x="214.4633" y="-84.8" font-family="Helvetica,sans-Serif" font-weight="bold" font-size="11.00" fill="#000000">contactos</text>
<text text-anchor="start" x="265.0219" y="-83.8" font-family="Helvetica,sans-Serif" font-size="11.00" fill="#000000">[table]</text>
<polygon fill="none" stroke="#000000" points="209.5,-56.7 209.5,-75.7 299.5,-75.7 299.5,-56.7 209.5,-56.7"/>
<text text-anchor="start" x="212.5" y="-62.8" font-family="Helvetica,sans-Serif" font-size="11.00" fill="#000000">...</text>
<polygon fill="#ffffff" stroke="transparent" points="209.5,-37.7 209.5,-56.7 238.5,-56.7 238.5,-37.7 209.5,-37.7"/>
<polygon fill="none" stroke="#000000" points="209.5,-37.7 209.5,-56.7 238.5,-56.7 238.5,-37.7 209.5,-37.7"/>
<text text-anchor="start" x="212.5" y="-43.8" font-family="Helvetica,sans-Serif" font-size="11.00" fill="#000000">&lt; 2</text>
<polygon fill="#ffffff" stroke="transparent" points="238.5,-37.7 238.5,-56.7 274.5,-56.7 274.5,-37.7 238.5,-37.7"/>
<polygon fill="none" stroke="#000000" points="238.5,-37.7 238.5,-56.7 274.5,-56.7 274.5,-37.7 238.5,-37.7"/>
<text text-anchor="start" x="244.6105" y="-43.8" font-family="Helvetica,sans-Serif" font-size="11.00" fill="#000000">1 row</text>
<polygon fill="#ffffff" stroke="transparent" points="274.5,-37.7 274.5,-56.7 299.5,-56.7 299.5,-37.7 274.5,-37.7"/>
<polygon fill="none" stroke="#000000" points="274.5,-37.7 274.5,-56.7 299.5,-56.7 299.5,-37.7 274.5,-37.7"/>
<text text-anchor="start" x="280.9053" y="-43.8" font-family="Helvetica,sans-Serif" font-size="11.00" fill="#000000">2 &gt;</text>
</a>
</g>
</g>
<!-- personas -->
<g id="node4" class="node">
<title>personas</title>
<g id="a_node4"><a xlink:href="../../tables/personas.html" xlink:title="personas" target="_top">
<polygon fill="#ffffff" stroke="transparent" points="8,-108.2 8,-169.2 96,-169.2 96,-108.2 8,-108.2"/>
<polygon fill="#f5f5f5" stroke="transparent" points="8,-145.7 8,-168.7 96,-168.7 96,-145.7 8,-145.7"/>
<polygon fill="none" stroke="#000000" points="8,-145.7 8,-168.7 96,-168.7 96,-145.7 8,-145.7"/>
<text text-anchor="start" x="12.8818" y="-154.8" font-family="Helvetica,sans-Serif" font-weight="bold" font-size="11.00" fill="#000000">personas</text>
<text text-anchor="start" x="61.5219" y="-153.8" font-family="Helvetica,sans-Serif" font-size="11.00" fill="#000000">[table]</text>
<polygon fill="none" stroke="#000000" points="8,-126.7 8,-145.7 96,-145.7 96,-126.7 8,-126.7"/>
<text text-anchor="start" x="11" y="-132.8" font-family="Helvetica,sans-Serif" font-size="11.00" fill="#000000">...</text>
<polygon fill="#ffffff" stroke="transparent" points="8,-107.7 8,-126.7 28,-126.7 28,-107.7 8,-107.7"/>
<polygon fill="none" stroke="#000000" points="8,-107.7 8,-126.7 28,-126.7 28,-107.7 8,-107.7"/>
<text text-anchor="start" x="11" y="-113.8" font-family="Helvetica,sans-Serif" font-size="11.00" fill="#000000"> &#160;</text>
<polygon fill="#ffffff" stroke="transparent" points="28,-107.7 28,-126.7 70,-126.7 70,-107.7 28,-107.7"/>
<polygon fill="none" stroke="#000000" points="28,-107.7 28,-126.7 70,-126.7 70,-107.7 28,-107.7"/>
<text text-anchor="start" x="34.6105" y="-113.8" font-family="Helvetica,sans-Serif" font-size="11.00" fill="#000000">2 rows</text>
<polygon fill="#ffffff" stroke="transparent" points="70,-107.7 70,-126.7 96,-126.7 96,-107.7 70,-107.7"/>
<polygon fill="none" stroke="#000000" points="70,-107.7 70,-126.7 96,-126.7 96,-107.7 70,-107.7"/>
<text text-anchor="start" x="77.4053" y="-113.8" font-family="Helvetica,sans-Serif" font-size="11.00" fill="#000000">7 &gt;</text>
</a>
</g>
</g>
<!-- contactos&#45;&gt;personas -->
<g id="edge3" class="edge">
<title>contactos:w&#45;&gt;personas:e</title>
<path fill="none" stroke="#000000" d="M195.1511,-67.1264C170.3935,-72.5857 164.3992,-92.7005 137,-109.7 118.665,-121.0757 117.5773,-135.7 96,-135.7"/>
<polygon fill="#000000" stroke="#000000" points="201.5392,-66.4914 209.8561,-69.2823 205.5196,-66.0957 209.5,-65.7 209.5,-65.7 209.5,-65.7 205.5196,-66.0957 209.1439,-62.1177 201.5392,-66.4914 201.5392,-66.4914"/>
<ellipse fill="none" stroke="#000000" cx="198.3549" cy="-66.808" rx="3.2" ry="3.2"/>
</g>
<!-- encuesta_respuestas -->
<g id="node5" class="node">
<title>encuesta_respuestas</title>
<g id="a_node5"><a xlink:href="../../tables/encuesta_respuestas.html" xlink:title="encuesta_respuestas" target="_top">
<polygon fill="#ffffff" stroke="transparent" points="585,-105.2 585,-166.2 732,-166.2 732,-105.2 585,-105.2"/>
<polygon fill="#f5f5f5" stroke="transparent" points="585.5,-142.7 585.5,-165.7 732.5,-165.7 732.5,-142.7 585.5,-142.7"/>
<polygon fill="none" stroke="#000000" points="585.5,-142.7 585.5,-165.7 732.5,-165.7 732.5,-142.7 585.5,-142.7"/>
<text text-anchor="start" x="590.2302" y="-151.8" font-family="Helvetica,sans-Serif" font-weight="bold" font-size="11.00" fill="#000000">encuesta_respuestas</text>
<text text-anchor="start" x="698.0219" y="-150.8" font-family="Helvetica,sans-Serif" font-size="11.00" fill="#000000">[table]</text>
<polygon fill="none" stroke="#000000" points="585.5,-123.7 585.5,-142.7 732.5,-142.7 732.5,-123.7 585.5,-123.7"/>
<text text-anchor="start" x="588.5" y="-129.8" font-family="Helvetica,sans-Serif" font-size="11.00" fill="#000000">...</text>
<polygon fill="#ffffff" stroke="transparent" points="585.5,-104.7 585.5,-123.7 642.5,-123.7 642.5,-104.7 585.5,-104.7"/>
<polygon fill="none" stroke="#000000" points="585.5,-104.7 585.5,-123.7 642.5,-123.7 642.5,-104.7 585.5,-104.7"/>
<text text-anchor="start" x="588.5" y="-110.8" font-family="Helvetica,sans-Serif" font-size="11.00" fill="#000000">&lt; 2</text>
<polygon fill="#ffffff" stroke="transparent" points="642.5,-104.7 642.5,-123.7 692.5,-123.7 692.5,-104.7 642.5,-104.7"/>
<polygon fill="none" stroke="#000000" points="642.5,-104.7 642.5,-123.7 692.5,-123.7 692.5,-104.7 642.5,-104.7"/>
<text text-anchor="start" x="662.6105" y="-110.8" font-family="Helvetica,sans-Serif" font-size="11.00" fill="#000000">1 row</text>
<polygon fill="#ffffff" stroke="transparent" points="692.5,-104.7 692.5,-123.7 732.5,-123.7 732.5,-104.7 692.5,-104.7"/>
<polygon fill="none" stroke="#000000" points="692.5,-104.7 692.5,-123.7 732.5,-123.7 732.5,-104.7 692.5,-104.7"/>
<text text-anchor="start" x="713.9053" y="-110.8" font-family="Helvetica,sans-Serif" font-size="11.00" fill="#000000">1 &gt;</text>
</a>
</g>
</g>
<!-- encuesta_respuestas&#45;&gt;contactos -->
<g id="edge4" class="edge">
<title>encuesta_respuestas:w&#45;&gt;contactos:e</title>
<path fill="none" stroke="#000000" d="M571.3993,-128.0504C557.7524,-115.3946 568.6148,-80.3647 544,-66.7 448.9908,-13.9563 408.1676,-65.7 299.5,-65.7"/>
<polygon fill="#000000" stroke="#000000" points="577.9024,-130.1947 584.3726,-136.1189 581.7012,-131.4474 585.5,-132.7 585.5,-132.7 585.5,-132.7 581.7012,-131.4474 586.6274,-129.2811 577.9024,-130.1947 577.9024,-130.1947"/>
<ellipse fill="none" stroke="#000000" cx="574.8633" cy="-129.1926" rx="3.2" ry="3.2"/>
</g>
<!-- oportunidades -->
<g id="node6" class="node">
<title>oportunidades</title>
<g id="a_node6"><a xlink:href="../../tables/oportunidades.html" xlink:title="oportunidades" target="_top">
<polygon fill="#ffffff" stroke="transparent" points="413,-77.2 413,-248.2 536,-248.2 536,-77.2 413,-77.2"/>
<polygon fill="#f5f5f5" stroke="transparent" points="413.5,-224.7 413.5,-247.7 536.5,-247.7 536.5,-224.7 413.5,-224.7"/>
<polygon fill="none" stroke="#000000" points="413.5,-224.7 413.5,-247.7 536.5,-247.7 536.5,-224.7 413.5,-224.7"/>
<text text-anchor="start" x="418.5" y="-233.8" font-family="Helvetica,sans-Serif" font-weight="bold" font-size="11.00" fill="#000000">oportunidades</text>
<text text-anchor="start" x="501.5437" y="-232.8" font-family="Helvetica,sans-Serif" font-size="11.00" fill="#000000">[table]</text>
<polygon fill="none" stroke="#000000" points="413.5,-202.7 413.5,-224.7 536.5,-224.7 536.5,-202.7 413.5,-202.7"/>
<image xlink:href="../../images/primaryKeys.png" width="11px" height="12px" preserveAspectRatio="xMinYMin meet" x="418.5" y="-219.7"/>
<text text-anchor="start" x="433.5" y="-209.8" font-family="Helvetica,sans-Serif" font-size="11.00" fill="#000000">oportunidad_id</text>
<polygon fill="none" stroke="#000000" points="413.5,-180.7 413.5,-202.7 536.5,-202.7 536.5,-180.7 413.5,-180.7"/>
<image xlink:href="../../images/foreignKeys.png" width="11px" height="12px" preserveAspectRatio="xMinYMin meet" x="418.5" y="-197.7"/>
<text text-anchor="start" x="433.5" y="-187.8" font-family="Helvetica,sans-Serif" font-size="11.00" fill="#000000">campana_id</text>
<polygon fill="none" stroke="#000000" points="413.5,-158.7 413.5,-180.7 536.5,-180.7 536.5,-158.7 413.5,-158.7"/>
<image xlink:href="../../images/foreignKeys.png" width="11px" height="12px" preserveAspectRatio="xMinYMin meet" x="418.5" y="-175.7"/>
<text text-anchor="start" x="433.5" y="-165.8" font-family="Helvetica,sans-Serif" font-size="11.00" fill="#000000">contacto_id</text>
<polygon fill="none" stroke="#000000" points="413.5,-136.7 413.5,-158.7 536.5,-158.7 536.5,-136.7 413.5,-136.7"/>
<image xlink:href="../../images/foreignKeys.png" width="11px" height="12px" preserveAspectRatio="xMinYMin meet" x="418.5" y="-153.7"/>
<text text-anchor="start" x="433.5" y="-143.8" font-family="Helvetica,sans-Serif" font-size="11.00" fill="#000000">curso_id</text>
<polygon fill="none" stroke="#000000" points="413.5,-114.7 413.5,-136.7 536.5,-136.7 536.5,-114.7 413.5,-114.7"/>
<image xlink:href="../../images/foreignKeys.png" width="11px" height="12px" preserveAspectRatio="xMinYMin meet" x="418.5" y="-131.7"/>
<text text-anchor="start" x="433.5" y="-121.8" font-family="Helvetica,sans-Serif" font-size="11.00" fill="#000000">usu_asignado_id</text>
<polygon fill="none" stroke="#000000" points="413.5,-95.7 413.5,-114.7 536.5,-114.7 536.5,-95.7 413.5,-95.7"/>
<text text-anchor="start" x="416.5" y="-101.8" font-family="Helvetica,sans-Serif" font-size="11.00" fill="#000000">...</text>
<polygon fill="#ffffff" stroke="transparent" points="413.5,-76.7 413.5,-95.7 458.5,-95.7 458.5,-76.7 413.5,-76.7"/>
<polygon fill="none" stroke="#000000" points="413.5,-76.7 413.5,-95.7 458.5,-95.7 458.5,-76.7 413.5,-76.7"/>
<text text-anchor="start" x="416.5" y="-82.8" font-family="Helvetica,sans-Serif" font-size="11.00" fill="#000000">&lt; 4</text>
<polygon fill="#ffffff" stroke="transparent" points="458.5,-76.7 458.5,-95.7 502.5,-95.7 502.5,-76.7 458.5,-76.7"/>
<polygon fill="none" stroke="#000000" points="458.5,-76.7 458.5,-95.7 502.5,-95.7 502.5,-76.7 458.5,-76.7"/>
<text text-anchor="start" x="472.6105" y="-82.8" font-family="Helvetica,sans-Serif" font-size="11.00" fill="#000000">1 row</text>
<polygon fill="#ffffff" stroke="transparent" points="502.5,-76.7 502.5,-95.7 536.5,-95.7 536.5,-76.7 502.5,-76.7"/>
<polygon fill="none" stroke="#000000" points="502.5,-76.7 502.5,-95.7 536.5,-95.7 536.5,-76.7 502.5,-76.7"/>
<text text-anchor="start" x="517.9053" y="-82.8" font-family="Helvetica,sans-Serif" font-size="11.00" fill="#000000">1 &gt;</text>
</a>
</g>
</g>
<!-- encuesta_respuestas&#45;&gt;oportunidades -->
<g id="edge5" class="edge">
<title>encuesta_respuestas:w&#45;&gt;oportunidades:e</title>
<path fill="none" stroke="#000000" d="M571.6299,-137.287C551.9726,-154.422 572.4935,-213.7 536.5,-213.7"/>
<polygon fill="#000000" stroke="#000000" points="577.9046,-135.2119 586.6304,-136.1179 581.7023,-133.956 585.5,-132.7 585.5,-132.7 585.5,-132.7 581.7023,-133.956 584.3696,-129.2821 577.9046,-135.2119 577.9046,-135.2119"/>
<ellipse fill="none" stroke="#000000" cx="574.8664" cy="-136.2167" rx="3.2" ry="3.2"/>
</g>
<!-- oportunidades&#45;&gt;campanas -->
<g id="edge10" class="edge">
<title>oportunidades:w&#45;&gt;campanas:e</title>
<path fill="none" stroke="#000000" d="M399.7122,-196.8678C352.9678,-238.7237 430.9933,-520.7 362.5,-520.7"/>
<polygon fill="#000000" stroke="#000000" points="406.0089,-194.5078 414.7635,-195.071 409.7544,-193.1039 413.5,-191.7 413.5,-191.7 413.5,-191.7 409.7544,-193.1039 412.2365,-188.329 406.0089,-194.5078 406.0089,-194.5078"/>
<ellipse fill="none" stroke="#000000" cx="403.0125" cy="-195.6309" rx="3.2" ry="3.2"/>
</g>
<!-- oportunidades&#45;&gt;contactos -->
<g id="edge11" class="edge">
<title>oportunidades:w&#45;&gt;contactos:e</title>
<path fill="none" stroke="#000000" d="M399.2406,-165.7751C385.2954,-155.54 390.991,-127.591 372,-109.7 344.5649,-83.8541 337.1921,-65.7 299.5,-65.7"/>
<polygon fill="#000000" stroke="#000000" points="405.7869,-167.5769 412.5446,-173.1709 409.6434,-168.6385 413.5,-169.7 413.5,-169.7 413.5,-169.7 409.6434,-168.6385 414.4554,-166.2291 405.7869,-167.5769 405.7869,-167.5769"/>
<ellipse fill="none" stroke="#000000" cx="402.7016" cy="-166.7277" rx="3.2" ry="3.2"/>
</g>
<!-- cursos -->
<g id="node8" class="node">
<title>cursos</title>
<g id="a_node8"><a xlink:href="../../tables/cursos.html" xlink:title="cursos" target="_top">
<polygon fill="#ffffff" stroke="transparent" points="217,-120.2 217,-181.2 292,-181.2 292,-120.2 217,-120.2"/>
<polygon fill="#f5f5f5" stroke="transparent" points="217.5,-157.7 217.5,-180.7 292.5,-180.7 292.5,-157.7 217.5,-157.7"/>
<polygon fill="none" stroke="#000000" points="217.5,-157.7 217.5,-180.7 292.5,-180.7 292.5,-157.7 217.5,-157.7"/>
<text text-anchor="start" x="222.3042" y="-166.8" font-family="Helvetica,sans-Serif" font-weight="bold" font-size="11.00" fill="#000000">cursos</text>
<text text-anchor="start" x="258.0219" y="-165.8" font-family="Helvetica,sans-Serif" font-size="11.00" fill="#000000">[table]</text>
<polygon fill="none" stroke="#000000" points="217.5,-138.7 217.5,-157.7 292.5,-157.7 292.5,-138.7 217.5,-138.7"/>
<text text-anchor="start" x="220.5" y="-144.8" font-family="Helvetica,sans-Serif" font-size="11.00" fill="#000000">...</text>
<polygon fill="#ffffff" stroke="transparent" points="217.5,-119.7 217.5,-138.7 234.5,-138.7 234.5,-119.7 217.5,-119.7"/>
<polygon fill="none" stroke="#000000" points="217.5,-119.7 217.5,-138.7 234.5,-138.7 234.5,-119.7 217.5,-119.7"/>
<text text-anchor="start" x="220.5" y="-125.8" font-family="Helvetica,sans-Serif" font-size="11.00" fill="#000000"> &#160;</text>
<polygon fill="#ffffff" stroke="transparent" points="234.5,-119.7 234.5,-138.7 268.5,-138.7 268.5,-119.7 234.5,-119.7"/>
<polygon fill="none" stroke="#000000" points="234.5,-119.7 234.5,-138.7 268.5,-138.7 268.5,-119.7 234.5,-119.7"/>
<text text-anchor="start" x="238.6105" y="-125.8" font-family="Helvetica,sans-Serif" font-size="11.00" fill="#000000">1 row</text>
<polygon fill="#ffffff" stroke="transparent" points="268.5,-119.7 268.5,-138.7 292.5,-138.7 292.5,-119.7 268.5,-119.7"/>
<polygon fill="none" stroke="#000000" points="268.5,-119.7 268.5,-138.7 292.5,-138.7 292.5,-119.7 268.5,-119.7"/>
<text text-anchor="start" x="273.9053" y="-125.8" font-family="Helvetica,sans-Serif" font-size="11.00" fill="#000000">4 &gt;</text>
</a>
</g>
</g>
<!-- oportunidades&#45;&gt;cursos -->
<g id="edge12" class="edge">
<title>oportunidades:w&#45;&gt;cursos:e</title>
<path fill="none" stroke="#000000" d="M399.0974,-147.7C356.7795,-147.7 341.1311,-147.7 292.5,-147.7"/>
<polygon fill="#000000" stroke="#000000" points="405.5,-147.7001 413.5,-151.3 409.5,-147.7 413.5,-147.7 413.5,-147.7 413.5,-147.7 409.5,-147.7 413.5,-144.1 405.5,-147.7001 405.5,-147.7001"/>
<ellipse fill="none" stroke="#000000" cx="402.3" cy="-147.7001" rx="3.2" ry="3.2"/>
</g>
<!-- usuarios -->
<g id="node9" class="node">
<title>usuarios</title>
<g id="a_node9"><a xlink:href="../../tables/usuarios.html" xlink:title="usuarios" target="_top">
<polygon fill="#ffffff" stroke="transparent" points="212.5,-230.2 212.5,-291.2 296.5,-291.2 296.5,-230.2 212.5,-230.2"/>
<polygon fill="#f5f5f5" stroke="transparent" points="212.5,-267.7 212.5,-290.7 296.5,-290.7 296.5,-267.7 212.5,-267.7"/>
<polygon fill="none" stroke="#000000" points="212.5,-267.7 212.5,-290.7 296.5,-290.7 296.5,-267.7 212.5,-267.7"/>
<text text-anchor="start" x="217.2188" y="-276.8" font-family="Helvetica,sans-Serif" font-weight="bold" font-size="11.00" fill="#000000">usuarios</text>
<text text-anchor="start" x="262.0219" y="-275.8" font-family="Helvetica,sans-Serif" font-size="11.00" fill="#000000">[table]</text>
<polygon fill="none" stroke="#000000" points="212.5,-248.7 212.5,-267.7 296.5,-267.7 296.5,-248.7 212.5,-248.7"/>
<text text-anchor="start" x="215.5" y="-254.8" font-family="Helvetica,sans-Serif" font-size="11.00" fill="#000000">...</text>
<polygon fill="#ffffff" stroke="transparent" points="212.5,-229.7 212.5,-248.7 233.5,-248.7 233.5,-229.7 212.5,-229.7"/>
<polygon fill="none" stroke="#000000" points="212.5,-229.7 212.5,-248.7 233.5,-248.7 233.5,-229.7 212.5,-229.7"/>
<text text-anchor="start" x="215.5" y="-235.8" font-family="Helvetica,sans-Serif" font-size="11.00" fill="#000000"> &#160;</text>
<polygon fill="#ffffff" stroke="transparent" points="233.5,-229.7 233.5,-248.7 270.5,-248.7 270.5,-229.7 233.5,-229.7"/>
<polygon fill="none" stroke="#000000" points="233.5,-229.7 233.5,-248.7 270.5,-248.7 270.5,-229.7 233.5,-229.7"/>
<text text-anchor="start" x="240.6105" y="-235.8" font-family="Helvetica,sans-Serif" font-size="11.00" fill="#000000">1 row</text>
<polygon fill="#ffffff" stroke="transparent" points="270.5,-229.7 270.5,-248.7 296.5,-248.7 296.5,-229.7 270.5,-229.7"/>
<polygon fill="none" stroke="#000000" points="270.5,-229.7 270.5,-248.7 296.5,-248.7 296.5,-229.7 270.5,-229.7"/>
<text text-anchor="start" x="277.9053" y="-235.8" font-family="Helvetica,sans-Serif" font-size="11.00" fill="#000000">5 &gt;</text>
</a>
</g>
</g>
<!-- oportunidades&#45;&gt;usuarios -->
<g id="edge13" class="edge">
<title>oportunidades:w&#45;&gt;usuarios:e</title>
<path fill="none" stroke="#000000" d="M399.1807,-129.2336C383.2435,-139.5204 390.4604,-170.0865 372,-191.7 343.0539,-225.5902 341.0693,-257.7 296.5,-257.7"/>
<polygon fill="#000000" stroke="#000000" points="405.733,-127.6167 414.3625,-129.1952 409.6165,-126.6584 413.5,-125.7 413.5,-125.7 413.5,-125.7 409.6165,-126.6584 412.6375,-122.2048 405.733,-127.6167 405.733,-127.6167"/>
<ellipse fill="none" stroke="#000000" cx="402.6262" cy="-128.3834" rx="3.2" ry="3.2"/>
</g>
<!-- leads -->
<g id="node7" class="node">
<title>leads</title>
<g id="a_node7"><a xlink:href="../../tables/leads.html" xlink:title="leads" target="_top">
<polygon fill="#ffffff" stroke="transparent" points="413,-269.2 413,-440.2 536,-440.2 536,-269.2 413,-269.2"/>
<polygon fill="#f5f5f5" stroke="transparent" points="413.5,-416.7 413.5,-439.7 536.5,-439.7 536.5,-416.7 413.5,-416.7"/>
<polygon fill="none" stroke="#000000" points="413.5,-416.7 413.5,-439.7 536.5,-439.7 536.5,-416.7 413.5,-416.7"/>
<text text-anchor="start" x="418.5" y="-425.8" font-family="Helvetica,sans-Serif" font-weight="bold" font-size="11.00" fill="#000000">leads</text>
<text text-anchor="start" x="501.5437" y="-424.8" font-family="Helvetica,sans-Serif" font-size="11.00" fill="#000000">[table]</text>
<polygon fill="none" stroke="#000000" points="413.5,-394.7 413.5,-416.7 536.5,-416.7 536.5,-394.7 413.5,-394.7"/>
<image xlink:href="../../images/primaryKeys.png" width="11px" height="12px" preserveAspectRatio="xMinYMin meet" x="418.5" y="-411.7"/>
<text text-anchor="start" x="433.5" y="-401.8" font-family="Helvetica,sans-Serif" font-size="11.00" fill="#000000">lead_id</text>
<polygon fill="none" stroke="#000000" points="413.5,-372.7 413.5,-394.7 536.5,-394.7 536.5,-372.7 413.5,-372.7"/>
<image xlink:href="../../images/foreignKeys.png" width="11px" height="12px" preserveAspectRatio="xMinYMin meet" x="418.5" y="-389.7"/>
<text text-anchor="start" x="433.5" y="-379.8" font-family="Helvetica,sans-Serif" font-size="11.00" fill="#000000">usu_asignado_id</text>
<polygon fill="none" stroke="#000000" points="413.5,-350.7 413.5,-372.7 536.5,-372.7 536.5,-350.7 413.5,-350.7"/>
<image xlink:href="../../images/foreignKeys.png" width="11px" height="12px" preserveAspectRatio="xMinYMin meet" x="418.5" y="-367.7"/>
<text text-anchor="start" x="433.5" y="-357.8" font-family="Helvetica,sans-Serif" font-size="11.00" fill="#000000">campana_id</text>
<polygon fill="none" stroke="#000000" points="413.5,-328.7 413.5,-350.7 536.5,-350.7 536.5,-328.7 413.5,-328.7"/>
<image xlink:href="../../images/foreignKeys.png" width="11px" height="12px" preserveAspectRatio="xMinYMin meet" x="418.5" y="-345.7"/>
<text text-anchor="start" x="433.5" y="-335.8" font-family="Helvetica,sans-Serif" font-size="11.00" fill="#000000">persona_id</text>
<polygon fill="none" stroke="#000000" points="413.5,-306.7 413.5,-328.7 536.5,-328.7 536.5,-306.7 413.5,-306.7"/>
<image xlink:href="../../images/foreignKeys.png" width="11px" height="12px" preserveAspectRatio="xMinYMin meet" x="418.5" y="-323.7"/>
<text text-anchor="start" x="433.5" y="-313.8" font-family="Helvetica,sans-Serif" font-size="11.00" fill="#000000">curso_id</text>
<polygon fill="none" stroke="#000000" points="413.5,-287.7 413.5,-306.7 536.5,-306.7 536.5,-287.7 413.5,-287.7"/>
<text text-anchor="start" x="416.5" y="-293.8" font-family="Helvetica,sans-Serif" font-size="11.00" fill="#000000">...</text>
<polygon fill="#ffffff" stroke="transparent" points="413.5,-268.7 413.5,-287.7 460.5,-287.7 460.5,-268.7 413.5,-268.7"/>
<polygon fill="none" stroke="#000000" points="413.5,-268.7 413.5,-287.7 460.5,-287.7 460.5,-268.7 413.5,-268.7"/>
<text text-anchor="start" x="416.5" y="-274.8" font-family="Helvetica,sans-Serif" font-size="11.00" fill="#000000">&lt; 4</text>
<polygon fill="#ffffff" stroke="transparent" points="460.5,-268.7 460.5,-287.7 511.5,-287.7 511.5,-268.7 460.5,-268.7"/>
<polygon fill="none" stroke="#000000" points="460.5,-268.7 460.5,-287.7 511.5,-287.7 511.5,-268.7 460.5,-268.7"/>
<text text-anchor="start" x="476.1105" y="-274.8" font-family="Helvetica,sans-Serif" font-size="11.00" fill="#000000">0 rows</text>
<polygon fill="#ffffff" stroke="transparent" points="511.5,-268.7 511.5,-287.7 536.5,-287.7 536.5,-268.7 511.5,-268.7"/>
<polygon fill="none" stroke="#000000" points="511.5,-268.7 511.5,-287.7 536.5,-287.7 536.5,-268.7 511.5,-268.7"/>
<text text-anchor="start" x="527.3862" y="-274.8" font-family="Helvetica,sans-Serif" font-size="11.00" fill="#000000"> &#160;</text>
</a>
</g>
</g>
<!-- leads&#45;&gt;campanas -->
<g id="edge6" class="edge">
<title>leads:w&#45;&gt;campanas:e</title>
<path fill="none" stroke="#000000" d="M399.0855,-364.4597C353.4623,-385.5733 430.915,-520.7 362.5,-520.7"/>
<polygon fill="#000000" stroke="#000000" points="405.6427,-363.2044 414.177,-365.2358 409.5714,-362.4522 413.5,-361.7 413.5,-361.7 413.5,-361.7 409.5714,-362.4522 412.823,-358.1642 405.6427,-363.2044 405.6427,-363.2044"/>
<ellipse fill="none" stroke="#000000" cx="402.4998" cy="-363.8061" rx="3.2" ry="3.2"/>
</g>
<!-- leads&#45;&gt;personas -->
<g id="edge8" class="edge">
<title>leads:w&#45;&gt;personas:e</title>
<path fill="none" stroke="#000000" d="M399.2364,-337.034C368.3429,-322.4031 411.3091,-251.3718 372,-219.7 290.0944,-153.7077 227.8215,-244.7561 137,-191.7 110.3653,-176.1405 126.8465,-135.7 96,-135.7"/>
<polygon fill="#000000" stroke="#000000" points="405.6362,-338.2301 412.8386,-343.2387 409.5681,-338.9651 413.5,-339.7 413.5,-339.7 413.5,-339.7 409.5681,-338.9651 414.1614,-336.1613 405.6362,-338.2301 405.6362,-338.2301"/>
<ellipse fill="none" stroke="#000000" cx="402.4907" cy="-337.6422" rx="3.2" ry="3.2"/>
</g>
<!-- leads&#45;&gt;cursos -->
<g id="edge7" class="edge">
<title>leads:w&#45;&gt;cursos:e</title>
<path fill="none" stroke="#000000" d="M399.2153,-315.4207C365.8217,-302.3193 404.2653,-235.7841 372,-195.7 346.1195,-163.5479 333.7742,-147.7 292.5,-147.7"/>
<polygon fill="#000000" stroke="#000000" points="405.5999,-316.4394 412.9327,-321.255 409.55,-317.0697 413.5,-317.7 413.5,-317.7 413.5,-317.7 409.55,-317.0697 414.0673,-314.145 405.5999,-316.4394 405.5999,-316.4394"/>
<ellipse fill="none" stroke="#000000" cx="402.4399" cy="-315.9352" rx="3.2" ry="3.2"/>
</g>
<!-- leads&#45;&gt;usuarios -->
<g id="edge9" class="edge">
<title>leads:w&#45;&gt;usuarios:e</title>
<path fill="none" stroke="#000000" d="M399.254,-380.3743C379.9015,-368.52 395.4567,-327.7085 372,-302.7 345.2759,-274.2079 335.5637,-257.7 296.5,-257.7"/>
<polygon fill="#000000" stroke="#000000" points="405.7095,-381.8813 412.6816,-387.2057 409.6047,-382.7906 413.5,-383.7 413.5,-383.7 413.5,-383.7 409.6047,-382.7906 414.3184,-380.1943 405.7095,-381.8813 405.7095,-381.8813"/>
<ellipse fill="none" stroke="#000000" cx="402.5932" cy="-381.1538" rx="3.2" ry="3.2"/>
</g>
</g>
</svg>
