<?xml version="1.0" encoding="UTF-8" standalone="no"?>
<!DOCTYPE svg PUBLIC "-//W3C//DTD SVG 1.1//EN"
 "http://www.w3.org/Graphics/SVG/1.1/DTD/svg11.dtd">
<!-- Generated by graphviz version 2.40.1 (20161225.0304)
 -->
<!-- Title: twoDegreesRelationshipsDiagramImplied Pages: 1 -->
<svg width="415pt" height="311pt"
 viewBox="0.00 0.00 415.00 310.70" xmlns="http://www.w3.org/2000/svg" xmlns:xlink="http://www.w3.org/1999/xlink">
<g id="graph0" class="graph" transform="scale(1 1) rotate(0) translate(4 306.7)">
<title>twoDegreesRelationshipsDiagramImplied</title>
<polygon fill="#ffffff" stroke="transparent" points="-4,4 -4,-306.7 411,-306.7 411,4 -4,4"/>
<text text-anchor="middle" x="72.4936" y="-7.3" font-family="Helvetica,sans-Serif" font-size="11.00" fill="#000000">Generated by SchemaSpy</text>
<!-- campana_tipos -->
<g id="node1" class="node">
<title>campana_tipos</title>
<g id="a_node1"><a xlink:href="../../tables/campana_tipos.html" xlink:title="campana_tipos" target="_top">
<polygon fill="#ffffff" stroke="transparent" points="180,-120.7 180,-298.7 399,-298.7 399,-120.7 180,-120.7"/>
<polygon fill="#f5f5f5" stroke="transparent" points="182.5,-273.7 182.5,-296.7 397.5,-296.7 397.5,-273.7 182.5,-273.7"/>
<polygon fill="none" stroke="#000000" points="182.5,-273.7 182.5,-296.7 397.5,-296.7 397.5,-273.7 182.5,-273.7"/>
<text text-anchor="start" x="187.5" y="-282.8" font-family="Helvetica,sans-Serif" font-weight="bold" font-size="11.00" fill="#000000">campana_tipos</text>
<text text-anchor="start" x="362.5437" y="-281.8" font-family="Helvetica,sans-Serif" font-size="11.00" fill="#000000">[table]</text>
<polygon fill="none" stroke="#000000" points="182.5,-251.7 182.5,-273.7 305.5,-273.7 305.5,-251.7 182.5,-251.7"/>
<image xlink:href="../../images/foreignKeys.png" width="11px" height="12px" preserveAspectRatio="xMinYMin meet" x="187.5" y="-268.7"/>
<text text-anchor="start" x="202.5" y="-258.8" font-family="Helvetica,sans-Serif" font-size="11.00" fill="#000000">campana_id</text>
<polygon fill="none" stroke="#000000" points="305.5,-251.7 305.5,-273.7 397.5,-273.7 397.5,-251.7 305.5,-251.7"/>
<text text-anchor="start" x="308.5" y="-259.4" font-family="Helvetica,sans-Serif" font-size="11.00" fill="#000000">int4[10]</text>
<polygon fill="none" stroke="#000000" points="182.5,-229.7 182.5,-251.7 305.5,-251.7 305.5,-229.7 182.5,-229.7"/>
<image xlink:href="../../images/foreignKeys.png" width="11px" height="12px" preserveAspectRatio="xMinYMin meet" x="187.5" y="-246.7"/>
<text text-anchor="start" x="202.5" y="-236.8" font-family="Helvetica,sans-Serif" font-size="11.00" fill="#000000">tip_campana_id</text>
<polygon fill="none" stroke="#000000" points="305.5,-229.7 305.5,-251.7 397.5,-251.7 397.5,-229.7 305.5,-229.7"/>
<text text-anchor="start" x="308.5" y="-237.4" font-family="Helvetica,sans-Serif" font-size="11.00" fill="#000000">int4[10]</text>
<polygon fill="none" stroke="#000000" points="182.5,-207.7 182.5,-229.7 305.5,-229.7 305.5,-207.7 182.5,-207.7"/>
<text text-anchor="start" x="202.5" y="-214.8" font-family="Helvetica,sans-Serif" font-size="11.00" fill="#000000">usu_insercion</text>
<polygon fill="none" stroke="#000000" points="305.5,-207.7 305.5,-229.7 397.5,-229.7 397.5,-207.7 305.5,-207.7"/>
<text text-anchor="start" x="308.5" y="-215.4" font-family="Helvetica,sans-Serif" font-size="11.00" fill="#000000">varchar[20]</text>
<polygon fill="none" stroke="#000000" points="182.5,-185.7 182.5,-207.7 305.5,-207.7 305.5,-185.7 182.5,-185.7"/>
<text text-anchor="start" x="202.5" y="-192.8" font-family="Helvetica,sans-Serif" font-size="11.00" fill="#000000">fec_insercion</text>
<polygon fill="none" stroke="#000000" points="305.5,-185.7 305.5,-207.7 397.5,-207.7 397.5,-185.7 305.5,-185.7"/>
<text text-anchor="start" x="308.1023" y="-193.4" font-family="Helvetica,sans-Serif" font-size="11.00" fill="#000000">timestamptz[35,6]</text>
<polygon fill="none" stroke="#000000" points="182.5,-163.7 182.5,-185.7 305.5,-185.7 305.5,-163.7 182.5,-163.7"/>
<text text-anchor="start" x="202.5" y="-170.8" font-family="Helvetica,sans-Serif" font-size="11.00" fill="#000000">fec_modificacion</text>
<polygon fill="none" stroke="#000000" points="305.5,-163.7 305.5,-185.7 397.5,-185.7 397.5,-163.7 305.5,-163.7"/>
<text text-anchor="start" x="308.1023" y="-171.4" font-family="Helvetica,sans-Serif" font-size="11.00" fill="#000000">timestamptz[35,6]</text>
<polygon fill="none" stroke="#000000" points="182.5,-141.7 182.5,-163.7 305.5,-163.7 305.5,-141.7 182.5,-141.7"/>
<text text-anchor="start" x="202.5" y="-148.8" font-family="Helvetica,sans-Serif" font-size="11.00" fill="#000000">usu_modificacion</text>
<polygon fill="none" stroke="#000000" points="305.5,-141.7 305.5,-163.7 397.5,-163.7 397.5,-141.7 305.5,-141.7"/>
<text text-anchor="start" x="308.5" y="-149.4" font-family="Helvetica,sans-Serif" font-size="11.00" fill="#000000">varchar[20]</text>
<polygon fill="#ffffff" stroke="transparent" points="182.5,-122.7 182.5,-141.7 235.5,-141.7 235.5,-122.7 182.5,-122.7"/>
<polygon fill="none" stroke="#000000" points="182.5,-122.7 182.5,-141.7 235.5,-141.7 235.5,-122.7 182.5,-122.7"/>
<text text-anchor="start" x="185.5" y="-128.8" font-family="Helvetica,sans-Serif" font-size="11.00" fill="#000000">&lt; 2</text>
<polygon fill="#ffffff" stroke="transparent" points="235.5,-122.7 235.5,-141.7 305.5,-141.7 305.5,-122.7 235.5,-122.7"/>
<polygon fill="none" stroke="#000000" points="235.5,-122.7 235.5,-141.7 305.5,-141.7 305.5,-122.7 235.5,-122.7"/>
<text text-anchor="start" x="270.1105" y="-128.8" font-family="Helvetica,sans-Serif" font-size="11.00" fill="#000000">0 rows</text>
<polygon fill="#ffffff" stroke="transparent" points="305.5,-122.7 305.5,-141.7 397.5,-141.7 397.5,-122.7 305.5,-122.7"/>
<polygon fill="none" stroke="#000000" points="305.5,-122.7 305.5,-141.7 397.5,-141.7 397.5,-122.7 305.5,-122.7"/>
<text text-anchor="start" x="378.9053" y="-128.8" font-family="Helvetica,sans-Serif" font-size="11.00" fill="#000000">0 &gt;</text>
<polygon fill="none" stroke="#000000" stroke-width="2" points="181,-121.7 181,-297.7 398,-297.7 398,-121.7 181,-121.7"/>
</a>
</g>
</g>
<!-- campanas -->
<g id="node2" class="node">
<title>campanas</title>
<g id="a_node2"><a xlink:href="../../tables/campanas.html" xlink:title="campanas" target="_top">
<polygon fill="#ffffff" stroke="transparent" points="8,-192.2 8,-275.2 131,-275.2 131,-192.2 8,-192.2"/>
<polygon fill="#f5f5f5" stroke="transparent" points="8.5,-251.7 8.5,-274.7 131.5,-274.7 131.5,-251.7 8.5,-251.7"/>
<polygon fill="none" stroke="#000000" points="8.5,-251.7 8.5,-274.7 131.5,-274.7 131.5,-251.7 8.5,-251.7"/>
<text text-anchor="start" x="13.5" y="-260.8" font-family="Helvetica,sans-Serif" font-weight="bold" font-size="11.00" fill="#000000">campanas</text>
<text text-anchor="start" x="96.5437" y="-259.8" font-family="Helvetica,sans-Serif" font-size="11.00" fill="#000000">[table]</text>
<polygon fill="none" stroke="#000000" points="8.5,-229.7 8.5,-251.7 131.5,-251.7 131.5,-229.7 8.5,-229.7"/>
<image xlink:href="../../images/primaryKeys.png" width="11px" height="12px" preserveAspectRatio="xMinYMin meet" x="13.5" y="-246.7"/>
<text text-anchor="start" x="28.5" y="-236.8" font-family="Helvetica,sans-Serif" font-size="11.00" fill="#000000">campana_id</text>
<polygon fill="none" stroke="#000000" points="8.5,-210.7 8.5,-229.7 131.5,-229.7 131.5,-210.7 8.5,-210.7"/>
<text text-anchor="start" x="11.5" y="-216.8" font-family="Helvetica,sans-Serif" font-size="11.00" fill="#000000">...</text>
<polygon fill="#ffffff" stroke="transparent" points="8.5,-191.7 8.5,-210.7 46.5,-210.7 46.5,-191.7 8.5,-191.7"/>
<polygon fill="none" stroke="#000000" points="8.5,-191.7 8.5,-210.7 46.5,-210.7 46.5,-191.7 8.5,-191.7"/>
<text text-anchor="start" x="11.5" y="-197.8" font-family="Helvetica,sans-Serif" font-size="11.00" fill="#000000"> &#160;</text>
<polygon fill="#ffffff" stroke="transparent" points="46.5,-191.7 46.5,-210.7 97.5,-210.7 97.5,-191.7 46.5,-191.7"/>
<polygon fill="none" stroke="#000000" points="46.5,-191.7 46.5,-210.7 97.5,-210.7 97.5,-191.7 46.5,-191.7"/>
<text text-anchor="start" x="62.1105" y="-197.8" font-family="Helvetica,sans-Serif" font-size="11.00" fill="#000000">4 rows</text>
<polygon fill="#ffffff" stroke="transparent" points="97.5,-191.7 97.5,-210.7 131.5,-210.7 131.5,-191.7 97.5,-191.7"/>
<polygon fill="none" stroke="#000000" points="97.5,-191.7 97.5,-210.7 131.5,-210.7 131.5,-191.7 97.5,-191.7"/>
<text text-anchor="start" x="112.9053" y="-197.8" font-family="Helvetica,sans-Serif" font-size="11.00" fill="#000000">3 &gt;</text>
</a>
</g>
</g>
<!-- campana_tipos&#45;&gt;campanas -->
<g id="edge1" class="edge">
<title>campana_tipos:w&#45;&gt;campanas:e</title>
<path fill="none" stroke="#000000" d="M168.3489,-259.641C155.7843,-253.596 150.4,-240.7 131.5,-240.7"/>
<polygon fill="#000000" stroke="#000000" points="174.6806,-261.0097 181.7393,-266.2187 178.5903,-261.8548 182.5,-262.7 182.5,-262.7 182.5,-262.7 178.5903,-261.8548 183.2607,-259.1813 174.6806,-261.0097 174.6806,-261.0097"/>
<ellipse fill="none" stroke="#000000" cx="171.5528" cy="-260.3335" rx="3.2" ry="3.2"/>
</g>
<!-- campana_tipos&#45;&gt;campanas -->
<g id="edge2" class="edge">
<title>campana_tipos:w&#45;&gt;campanas:e</title>
<path fill="none" stroke="#000000" stroke-dasharray="5,2" d="M167.776,-240.7C155.7815,-240.7 148.3229,-240.7 131.5,-240.7"/>
<polygon fill="#000000" stroke="#000000" points="174.5,-240.7001 182.5,-244.3 178.5,-240.7 182.5,-240.7 182.5,-240.7 182.5,-240.7 178.5,-240.7 182.5,-237.1 174.5,-240.7001 174.5,-240.7001"/>
<ellipse fill="none" stroke="#000000" cx="171.3" cy="-240.7001" rx="3.2" ry="3.2"/>
</g>
<!-- leads -->
<g id="node3" class="node">
<title>leads</title>
<g id="a_node3"><a xlink:href="../../tables/leads.html" xlink:title="leads" target="_top">
<polygon fill="#ffffff" stroke="transparent" points="254,-38.2 254,-99.2 325,-99.2 325,-38.2 254,-38.2"/>
<polygon fill="#f5f5f5" stroke="transparent" points="254.5,-75.7 254.5,-98.7 325.5,-98.7 325.5,-75.7 254.5,-75.7"/>
<polygon fill="none" stroke="#000000" points="254.5,-75.7 254.5,-98.7 325.5,-98.7 325.5,-75.7 254.5,-75.7"/>
<text text-anchor="start" x="259.5" y="-84.8" font-family="Helvetica,sans-Serif" font-weight="bold" font-size="11.00" fill="#000000">leads</text>
<text text-anchor="start" x="290.5437" y="-83.8" font-family="Helvetica,sans-Serif" font-size="11.00" fill="#000000">[table]</text>
<polygon fill="none" stroke="#000000" points="254.5,-56.7 254.5,-75.7 325.5,-75.7 325.5,-56.7 254.5,-56.7"/>
<text text-anchor="start" x="257.5" y="-62.8" font-family="Helvetica,sans-Serif" font-size="11.00" fill="#000000">...</text>
<polygon fill="#ffffff" stroke="transparent" points="254.5,-37.7 254.5,-56.7 275.5,-56.7 275.5,-37.7 254.5,-37.7"/>
<polygon fill="none" stroke="#000000" points="254.5,-37.7 254.5,-56.7 275.5,-56.7 275.5,-37.7 254.5,-37.7"/>
<text text-anchor="start" x="257.2027" y="-43.8" font-family="Helvetica,sans-Serif" font-size="11.00" fill="#000000">&lt; 4</text>
<polygon fill="#ffffff" stroke="transparent" points="275.5,-37.7 275.5,-56.7 313.5,-56.7 313.5,-37.7 275.5,-37.7"/>
<polygon fill="none" stroke="#000000" points="275.5,-37.7 275.5,-56.7 313.5,-56.7 313.5,-37.7 275.5,-37.7"/>
<text text-anchor="start" x="278.3053" y="-43.8" font-family="Helvetica,sans-Serif" font-size="11.00" fill="#000000">0 rows</text>
<polygon fill="#ffffff" stroke="transparent" points="313.5,-37.7 313.5,-56.7 325.5,-56.7 325.5,-37.7 313.5,-37.7"/>
<polygon fill="none" stroke="#000000" points="313.5,-37.7 313.5,-56.7 325.5,-56.7 325.5,-37.7 313.5,-37.7"/>
<text text-anchor="start" x="316.4431" y="-43.8" font-family="Helvetica,sans-Serif" font-size="11.00" fill="#000000"> &#160;</text>
</a>
</g>
</g>
<!-- leads&#45;&gt;campanas -->
<g id="edge3" class="edge">
<title>leads:w&#45;&gt;campanas:e</title>
<path fill="none" stroke="#000000" stroke-dasharray="5,2" d="M240.0496,-66.3088C208.9791,-69.1815 195.1704,-82.4383 172,-110.7 133.6317,-157.499 192.0167,-240.7 131.5,-240.7"/>
<polygon fill="#000000" stroke="#000000" points="246.5071,-66.0368 254.6516,-69.2968 250.5035,-65.8684 254.5,-65.7 254.5,-65.7 254.5,-65.7 250.5035,-65.8684 254.3484,-62.1032 246.5071,-66.0368 246.5071,-66.0368"/>
<ellipse fill="none" stroke="#000000" cx="243.3099" cy="-66.1715" rx="3.2" ry="3.2"/>
</g>
</g>
</svg>
