<?xml version="1.0" encoding="UTF-8" standalone="no"?>
<!DOCTYPE svg PUBLIC "-//W3C//DTD SVG 1.1//EN"
 "http://www.w3.org/Graphics/SVG/1.1/DTD/svg11.dtd">
<!-- Generated by graphviz version 2.40.1 (20161225.0304)
 -->
<!-- Title: oneDegreeRelationshipsDiagram Pages: 1 -->
<svg width="415pt" height="422pt"
 viewBox="0.00 0.00 415.00 421.70" xmlns="http://www.w3.org/2000/svg" xmlns:xlink="http://www.w3.org/1999/xlink">
<g id="graph0" class="graph" transform="scale(1 1) rotate(0) translate(4 417.7)">
<title>oneDegreeRelationshipsDiagram</title>
<polygon fill="#ffffff" stroke="transparent" points="-4,4 -4,-417.7 411,-417.7 411,4 -4,4"/>
<text text-anchor="middle" x="72.4936" y="-7.3" font-family="Helvetica,sans-Serif" font-size="11.00" fill="#000000">Generated by SchemaSpy</text>
<!-- leads -->
<g id="node1" class="node">
<title>leads</title>
<g id="a_node1"><a xlink:href="../../tables/leads.html" xlink:title="leads" target="_top">
<polygon fill="#ffffff" stroke="transparent" points="276,-238.7 276,-409.7 399,-409.7 399,-238.7 276,-238.7"/>
<polygon fill="#f5f5f5" stroke="transparent" points="276.5,-386.2 276.5,-409.2 399.5,-409.2 399.5,-386.2 276.5,-386.2"/>
<polygon fill="none" stroke="#000000" points="276.5,-386.2 276.5,-409.2 399.5,-409.2 399.5,-386.2 276.5,-386.2"/>
<text text-anchor="start" x="281.5" y="-395.3" font-family="Helvetica,sans-Serif" font-weight="bold" font-size="11.00" fill="#000000">leads</text>
<text text-anchor="start" x="364.5437" y="-394.3" font-family="Helvetica,sans-Serif" font-size="11.00" fill="#000000">[table]</text>
<polygon fill="none" stroke="#000000" points="276.5,-364.2 276.5,-386.2 399.5,-386.2 399.5,-364.2 276.5,-364.2"/>
<image xlink:href="../../images/primaryKeys.png" width="11px" height="12px" preserveAspectRatio="xMinYMin meet" x="281.5" y="-381.2"/>
<text text-anchor="start" x="296.5" y="-371.3" font-family="Helvetica,sans-Serif" font-size="11.00" fill="#000000">lead_id</text>
<polygon fill="none" stroke="#000000" points="276.5,-342.2 276.5,-364.2 399.5,-364.2 399.5,-342.2 276.5,-342.2"/>
<image xlink:href="../../images/foreignKeys.png" width="11px" height="12px" preserveAspectRatio="xMinYMin meet" x="281.5" y="-359.2"/>
<text text-anchor="start" x="296.5" y="-349.3" font-family="Helvetica,sans-Serif" font-size="11.00" fill="#000000">usu_asignado_id</text>
<polygon fill="none" stroke="#000000" points="276.5,-320.2 276.5,-342.2 399.5,-342.2 399.5,-320.2 276.5,-320.2"/>
<image xlink:href="../../images/foreignKeys.png" width="11px" height="12px" preserveAspectRatio="xMinYMin meet" x="281.5" y="-337.2"/>
<text text-anchor="start" x="296.5" y="-327.3" font-family="Helvetica,sans-Serif" font-size="11.00" fill="#000000">campana_id</text>
<polygon fill="none" stroke="#000000" points="276.5,-298.2 276.5,-320.2 399.5,-320.2 399.5,-298.2 276.5,-298.2"/>
<image xlink:href="../../images/foreignKeys.png" width="11px" height="12px" preserveAspectRatio="xMinYMin meet" x="281.5" y="-315.2"/>
<text text-anchor="start" x="296.5" y="-305.3" font-family="Helvetica,sans-Serif" font-size="11.00" fill="#000000">persona_id</text>
<polygon fill="none" stroke="#000000" points="276.5,-276.2 276.5,-298.2 399.5,-298.2 399.5,-276.2 276.5,-276.2"/>
<image xlink:href="../../images/foreignKeys.png" width="11px" height="12px" preserveAspectRatio="xMinYMin meet" x="281.5" y="-293.2"/>
<text text-anchor="start" x="296.5" y="-283.3" font-family="Helvetica,sans-Serif" font-size="11.00" fill="#000000">curso_id</text>
<polygon fill="none" stroke="#000000" points="276.5,-257.2 276.5,-276.2 399.5,-276.2 399.5,-257.2 276.5,-257.2"/>
<text text-anchor="start" x="279.5" y="-263.3" font-family="Helvetica,sans-Serif" font-size="11.00" fill="#000000">...</text>
<polygon fill="#ffffff" stroke="transparent" points="276.5,-238.2 276.5,-257.2 318.5,-257.2 318.5,-238.2 276.5,-238.2"/>
<polygon fill="none" stroke="#000000" points="276.5,-238.2 276.5,-257.2 318.5,-257.2 318.5,-238.2 276.5,-238.2"/>
<text text-anchor="start" x="279.5" y="-244.3" font-family="Helvetica,sans-Serif" font-size="11.00" fill="#000000">&lt; 4</text>
<polygon fill="#ffffff" stroke="transparent" points="318.5,-238.2 318.5,-257.2 367.5,-257.2 367.5,-238.2 318.5,-238.2"/>
<polygon fill="none" stroke="#000000" points="318.5,-238.2 318.5,-257.2 367.5,-257.2 367.5,-238.2 318.5,-238.2"/>
<text text-anchor="start" x="332.1105" y="-244.3" font-family="Helvetica,sans-Serif" font-size="11.00" fill="#000000">6 rows</text>
<polygon fill="#ffffff" stroke="transparent" points="367.5,-238.2 367.5,-257.2 399.5,-257.2 399.5,-238.2 367.5,-238.2"/>
<polygon fill="none" stroke="#000000" points="367.5,-238.2 367.5,-257.2 399.5,-257.2 399.5,-238.2 367.5,-238.2"/>
<text text-anchor="start" x="380.9053" y="-244.3" font-family="Helvetica,sans-Serif" font-size="11.00" fill="#000000">3 &gt;</text>
</a>
</g>
</g>
<!-- campanas -->
<g id="node2" class="node">
<title>campanas</title>
<g id="a_node2"><a xlink:href="../../tables/campanas.html" xlink:title="campanas" target="_top">
<polygon fill="#ffffff" stroke="transparent" points="8,-38.2 8,-282.2 227,-282.2 227,-38.2 8,-38.2"/>
<polygon fill="#f5f5f5" stroke="transparent" points="10.5,-257.2 10.5,-280.2 225.5,-280.2 225.5,-257.2 10.5,-257.2"/>
<polygon fill="none" stroke="#000000" points="10.5,-257.2 10.5,-280.2 225.5,-280.2 225.5,-257.2 10.5,-257.2"/>
<text text-anchor="start" x="15.5" y="-266.3" font-family="Helvetica,sans-Serif" font-weight="bold" font-size="11.00" fill="#000000">campanas</text>
<text text-anchor="start" x="190.5437" y="-265.3" font-family="Helvetica,sans-Serif" font-size="11.00" fill="#000000">[table]</text>
<polygon fill="none" stroke="#000000" points="10.5,-235.2 10.5,-257.2 133.5,-257.2 133.5,-235.2 10.5,-235.2"/>
<image xlink:href="../../images/primaryKeys.png" width="11px" height="12px" preserveAspectRatio="xMinYMin meet" x="15.5" y="-252.2"/>
<text text-anchor="start" x="30.5" y="-242.3" font-family="Helvetica,sans-Serif" font-size="11.00" fill="#000000">campana_id</text>
<polygon fill="none" stroke="#000000" points="133.5,-235.2 133.5,-257.2 225.5,-257.2 225.5,-235.2 133.5,-235.2"/>
<text text-anchor="start" x="136.5" y="-242.9" font-family="Helvetica,sans-Serif" font-size="11.00" fill="#000000">serial[10]</text>
<polygon fill="none" stroke="#000000" points="10.5,-213.2 10.5,-235.2 133.5,-235.2 133.5,-213.2 10.5,-213.2"/>
<text text-anchor="start" x="30.5" y="-220.3" font-family="Helvetica,sans-Serif" font-size="11.00" fill="#000000">nombre</text>
<polygon fill="none" stroke="#000000" points="133.5,-213.2 133.5,-235.2 225.5,-235.2 225.5,-213.2 133.5,-213.2"/>
<text text-anchor="start" x="136.5" y="-220.9" font-family="Helvetica,sans-Serif" font-size="11.00" fill="#000000">varchar[255]</text>
<polygon fill="none" stroke="#000000" points="10.5,-191.2 10.5,-213.2 133.5,-213.2 133.5,-191.2 10.5,-191.2"/>
<text text-anchor="start" x="30.5" y="-198.3" font-family="Helvetica,sans-Serif" font-size="11.00" fill="#000000">descripcion</text>
<polygon fill="none" stroke="#000000" points="133.5,-191.2 133.5,-213.2 225.5,-213.2 225.5,-191.2 133.5,-191.2"/>
<text text-anchor="start" x="136.5" y="-198.9" font-family="Helvetica,sans-Serif" font-size="11.00" fill="#000000">text[2147483647]</text>
<polygon fill="none" stroke="#000000" points="10.5,-169.2 10.5,-191.2 133.5,-191.2 133.5,-169.2 10.5,-169.2"/>
<text text-anchor="start" x="30.5" y="-176.3" font-family="Helvetica,sans-Serif" font-size="11.00" fill="#000000">fec_inicio</text>
<polygon fill="none" stroke="#000000" points="133.5,-169.2 133.5,-191.2 225.5,-191.2 225.5,-169.2 133.5,-169.2"/>
<text text-anchor="start" x="136.1023" y="-176.9" font-family="Helvetica,sans-Serif" font-size="11.00" fill="#000000">timestamptz[35,6]</text>
<polygon fill="none" stroke="#000000" points="10.5,-147.2 10.5,-169.2 133.5,-169.2 133.5,-147.2 10.5,-147.2"/>
<text text-anchor="start" x="30.5" y="-154.3" font-family="Helvetica,sans-Serif" font-size="11.00" fill="#000000">fec_fin</text>
<polygon fill="none" stroke="#000000" points="133.5,-147.2 133.5,-169.2 225.5,-169.2 225.5,-147.2 133.5,-147.2"/>
<text text-anchor="start" x="136.1023" y="-154.9" font-family="Helvetica,sans-Serif" font-size="11.00" fill="#000000">timestamptz[35,6]</text>
<polygon fill="none" stroke="#000000" points="10.5,-125.2 10.5,-147.2 133.5,-147.2 133.5,-125.2 10.5,-125.2"/>
<text text-anchor="start" x="30.5" y="-132.3" font-family="Helvetica,sans-Serif" font-size="11.00" fill="#000000">usu_insercion</text>
<polygon fill="none" stroke="#000000" points="133.5,-125.2 133.5,-147.2 225.5,-147.2 225.5,-125.2 133.5,-125.2"/>
<text text-anchor="start" x="136.5" y="-132.9" font-family="Helvetica,sans-Serif" font-size="11.00" fill="#000000">varchar[20]</text>
<polygon fill="none" stroke="#000000" points="10.5,-103.2 10.5,-125.2 133.5,-125.2 133.5,-103.2 10.5,-103.2"/>
<text text-anchor="start" x="30.5" y="-110.3" font-family="Helvetica,sans-Serif" font-size="11.00" fill="#000000">fec_insercion</text>
<polygon fill="none" stroke="#000000" points="133.5,-103.2 133.5,-125.2 225.5,-125.2 225.5,-103.2 133.5,-103.2"/>
<text text-anchor="start" x="136.1023" y="-110.9" font-family="Helvetica,sans-Serif" font-size="11.00" fill="#000000">timestamptz[35,6]</text>
<polygon fill="none" stroke="#000000" points="10.5,-81.2 10.5,-103.2 133.5,-103.2 133.5,-81.2 10.5,-81.2"/>
<text text-anchor="start" x="30.5" y="-88.3" font-family="Helvetica,sans-Serif" font-size="11.00" fill="#000000">fec_modificacion</text>
<polygon fill="none" stroke="#000000" points="133.5,-81.2 133.5,-103.2 225.5,-103.2 225.5,-81.2 133.5,-81.2"/>
<text text-anchor="start" x="136.1023" y="-88.9" font-family="Helvetica,sans-Serif" font-size="11.00" fill="#000000">timestamptz[35,6]</text>
<polygon fill="none" stroke="#000000" points="10.5,-59.2 10.5,-81.2 133.5,-81.2 133.5,-59.2 10.5,-59.2"/>
<text text-anchor="start" x="30.5" y="-66.3" font-family="Helvetica,sans-Serif" font-size="11.00" fill="#000000">usu_modificacion</text>
<polygon fill="none" stroke="#000000" points="133.5,-59.2 133.5,-81.2 225.5,-81.2 225.5,-59.2 133.5,-59.2"/>
<text text-anchor="start" x="136.5" y="-66.9" font-family="Helvetica,sans-Serif" font-size="11.00" fill="#000000">varchar[20]</text>
<polygon fill="#ffffff" stroke="transparent" points="10.5,-40.2 10.5,-59.2 63.5,-59.2 63.5,-40.2 10.5,-40.2"/>
<polygon fill="none" stroke="#000000" points="10.5,-40.2 10.5,-59.2 63.5,-59.2 63.5,-40.2 10.5,-40.2"/>
<text text-anchor="start" x="13.5" y="-46.3" font-family="Helvetica,sans-Serif" font-size="11.00" fill="#000000">&lt; 0</text>
<polygon fill="#ffffff" stroke="transparent" points="63.5,-40.2 63.5,-59.2 133.5,-59.2 133.5,-40.2 63.5,-40.2"/>
<polygon fill="none" stroke="#000000" points="63.5,-40.2 63.5,-59.2 133.5,-59.2 133.5,-40.2 63.5,-40.2"/>
<text text-anchor="start" x="98.1105" y="-46.3" font-family="Helvetica,sans-Serif" font-size="11.00" fill="#000000">2 rows</text>
<polygon fill="#ffffff" stroke="transparent" points="133.5,-40.2 133.5,-59.2 225.5,-59.2 225.5,-40.2 133.5,-40.2"/>
<polygon fill="none" stroke="#000000" points="133.5,-40.2 133.5,-59.2 225.5,-59.2 225.5,-40.2 133.5,-40.2"/>
<text text-anchor="start" x="206.9053" y="-46.3" font-family="Helvetica,sans-Serif" font-size="11.00" fill="#000000">2 &gt;</text>
<polygon fill="none" stroke="#000000" stroke-width="2" points="9,-39.2 9,-281.2 226,-281.2 226,-39.2 9,-39.2"/>
</a>
</g>
</g>
<!-- leads&#45;&gt;campanas -->
<g id="edge1" class="edge">
<title>leads:w&#45;&gt;campanas:e</title>
<path fill="none" stroke="#000000" d="M262.5669,-326.868C241.0746,-309.5466 263.5328,-246.2 225.5,-246.2"/>
<polygon fill="#000000" stroke="#000000" points="268.8607,-328.8248 275.4312,-334.6377 272.6804,-330.0124 276.5,-331.2 276.5,-331.2 276.5,-331.2 272.6804,-330.0124 277.5688,-327.7623 268.8607,-328.8248 268.8607,-328.8248"/>
<ellipse fill="none" stroke="#000000" cx="265.805" cy="-327.8747" rx="3.2" ry="3.2"/>
</g>
<!-- oportunidades -->
<g id="node3" class="node">
<title>oportunidades</title>
<g id="a_node3"><a xlink:href="../../tables/oportunidades.html" xlink:title="oportunidades" target="_top">
<polygon fill="#ffffff" stroke="transparent" points="276,-46.7 276,-217.7 399,-217.7 399,-46.7 276,-46.7"/>
<polygon fill="#f5f5f5" stroke="transparent" points="276.5,-194.2 276.5,-217.2 399.5,-217.2 399.5,-194.2 276.5,-194.2"/>
<polygon fill="none" stroke="#000000" points="276.5,-194.2 276.5,-217.2 399.5,-217.2 399.5,-194.2 276.5,-194.2"/>
<text text-anchor="start" x="281.5" y="-203.3" font-family="Helvetica,sans-Serif" font-weight="bold" font-size="11.00" fill="#000000">oportunidades</text>
<text text-anchor="start" x="364.5437" y="-202.3" font-family="Helvetica,sans-Serif" font-size="11.00" fill="#000000">[table]</text>
<polygon fill="none" stroke="#000000" points="276.5,-172.2 276.5,-194.2 399.5,-194.2 399.5,-172.2 276.5,-172.2"/>
<image xlink:href="../../images/primaryKeys.png" width="11px" height="12px" preserveAspectRatio="xMinYMin meet" x="281.5" y="-189.2"/>
<text text-anchor="start" x="296.5" y="-179.3" font-family="Helvetica,sans-Serif" font-size="11.00" fill="#000000">oportunidad_id</text>
<polygon fill="none" stroke="#000000" points="276.5,-150.2 276.5,-172.2 399.5,-172.2 399.5,-150.2 276.5,-150.2"/>
<image xlink:href="../../images/foreignKeys.png" width="11px" height="12px" preserveAspectRatio="xMinYMin meet" x="281.5" y="-167.2"/>
<text text-anchor="start" x="296.5" y="-157.3" font-family="Helvetica,sans-Serif" font-size="11.00" fill="#000000">campana_id</text>
<polygon fill="none" stroke="#000000" points="276.5,-128.2 276.5,-150.2 399.5,-150.2 399.5,-128.2 276.5,-128.2"/>
<image xlink:href="../../images/foreignKeys.png" width="11px" height="12px" preserveAspectRatio="xMinYMin meet" x="281.5" y="-145.2"/>
<text text-anchor="start" x="296.5" y="-135.3" font-family="Helvetica,sans-Serif" font-size="11.00" fill="#000000">contacto_id</text>
<polygon fill="none" stroke="#000000" points="276.5,-106.2 276.5,-128.2 399.5,-128.2 399.5,-106.2 276.5,-106.2"/>
<image xlink:href="../../images/foreignKeys.png" width="11px" height="12px" preserveAspectRatio="xMinYMin meet" x="281.5" y="-123.2"/>
<text text-anchor="start" x="296.5" y="-113.3" font-family="Helvetica,sans-Serif" font-size="11.00" fill="#000000">curso_id</text>
<polygon fill="none" stroke="#000000" points="276.5,-84.2 276.5,-106.2 399.5,-106.2 399.5,-84.2 276.5,-84.2"/>
<image xlink:href="../../images/foreignKeys.png" width="11px" height="12px" preserveAspectRatio="xMinYMin meet" x="281.5" y="-101.2"/>
<text text-anchor="start" x="296.5" y="-91.3" font-family="Helvetica,sans-Serif" font-size="11.00" fill="#000000">usu_asignado_id</text>
<polygon fill="none" stroke="#000000" points="276.5,-65.2 276.5,-84.2 399.5,-84.2 399.5,-65.2 276.5,-65.2"/>
<text text-anchor="start" x="279.5" y="-71.3" font-family="Helvetica,sans-Serif" font-size="11.00" fill="#000000">...</text>
<polygon fill="#ffffff" stroke="transparent" points="276.5,-46.2 276.5,-65.2 315.5,-65.2 315.5,-46.2 276.5,-46.2"/>
<polygon fill="none" stroke="#000000" points="276.5,-46.2 276.5,-65.2 315.5,-65.2 315.5,-46.2 276.5,-46.2"/>
<text text-anchor="start" x="279.5" y="-52.3" font-family="Helvetica,sans-Serif" font-size="11.00" fill="#000000">&lt; 4</text>
<polygon fill="#ffffff" stroke="transparent" points="315.5,-46.2 315.5,-65.2 368.5,-65.2 368.5,-46.2 315.5,-46.2"/>
<polygon fill="none" stroke="#000000" points="315.5,-46.2 315.5,-65.2 368.5,-65.2 368.5,-46.2 315.5,-46.2"/>
<text text-anchor="start" x="326.9956" y="-52.3" font-family="Helvetica,sans-Serif" font-size="11.00" fill="#000000">13 rows</text>
<polygon fill="#ffffff" stroke="transparent" points="368.5,-46.2 368.5,-65.2 399.5,-65.2 399.5,-46.2 368.5,-46.2"/>
<polygon fill="none" stroke="#000000" points="368.5,-46.2 368.5,-65.2 399.5,-65.2 399.5,-46.2 368.5,-46.2"/>
<text text-anchor="start" x="380.9053" y="-52.3" font-family="Helvetica,sans-Serif" font-size="11.00" fill="#000000">1 &gt;</text>
</a>
</g>
</g>
<!-- oportunidades&#45;&gt;campanas -->
<g id="edge2" class="edge">
<title>oportunidades:w&#45;&gt;campanas:e</title>
<path fill="none" stroke="#000000" d="M262.5669,-165.532C241.0746,-182.8534 263.5328,-246.2 225.5,-246.2"/>
<polygon fill="#000000" stroke="#000000" points="268.8607,-163.5752 277.5688,-164.6377 272.6804,-162.3876 276.5,-161.2 276.5,-161.2 276.5,-161.2 272.6804,-162.3876 275.4312,-157.7623 268.8607,-163.5752 268.8607,-163.5752"/>
<ellipse fill="none" stroke="#000000" cx="265.805" cy="-164.5253" rx="3.2" ry="3.2"/>
</g>
</g>
</svg>
