<?xml version="1.0" encoding="UTF-8" standalone="no"?>
<!DOCTYPE svg PUBLIC "-//W3C//DTD SVG 1.1//EN"
 "http://www.w3.org/Graphics/SVG/1.1/DTD/svg11.dtd">
<!-- Generated by graphviz version 2.40.1 (20161225.0304)
 -->
<!-- Title: twoDegreesRelationshipsDiagram Pages: 1 -->
<svg width="783pt" height="569pt"
 viewBox="0.00 0.00 783.00 569.25" xmlns="http://www.w3.org/2000/svg" xmlns:xlink="http://www.w3.org/1999/xlink">
<g id="graph0" class="graph" transform="scale(1 1) rotate(0) translate(4 565.2497)">
<title>twoDegreesRelationshipsDiagram</title>
<polygon fill="#ffffff" stroke="transparent" points="-4,4 -4,-565.2497 779,-565.2497 779,4 -4,4"/>
<text text-anchor="middle" x="72.4936" y="-7.3" font-family="Helvetica,sans-Serif" font-size="11.00" fill="#000000">Generated by SchemaSpy</text>
<!-- casos -->
<g id="node1" class="node">
<title>casos</title>
<g id="a_node1"><a xlink:href="../../tables/casos.html" xlink:title="casos" target="_top">
<polygon fill="#ffffff" stroke="transparent" points="474,-168.7497 474,-229.7497 545,-229.7497 545,-168.7497 474,-168.7497"/>
<polygon fill="#f5f5f5" stroke="transparent" points="474.5,-206.2497 474.5,-229.2497 545.5,-229.2497 545.5,-206.2497 474.5,-206.2497"/>
<polygon fill="none" stroke="#000000" points="474.5,-206.2497 474.5,-229.2497 545.5,-229.2497 545.5,-206.2497 474.5,-206.2497"/>
<text text-anchor="start" x="479.1351" y="-215.3497" font-family="Helvetica,sans-Serif" font-weight="bold" font-size="11.00" fill="#000000">casos</text>
<text text-anchor="start" x="511.0219" y="-214.3497" font-family="Helvetica,sans-Serif" font-size="11.00" fill="#000000">[table]</text>
<polygon fill="none" stroke="#000000" points="474.5,-187.2497 474.5,-206.2497 545.5,-206.2497 545.5,-187.2497 474.5,-187.2497"/>
<text text-anchor="start" x="477.5" y="-193.3497" font-family="Helvetica,sans-Serif" font-size="11.00" fill="#000000">...</text>
<polygon fill="#ffffff" stroke="transparent" points="474.5,-168.2497 474.5,-187.2497 495.5,-187.2497 495.5,-168.2497 474.5,-168.2497"/>
<polygon fill="none" stroke="#000000" points="474.5,-168.2497 474.5,-187.2497 495.5,-187.2497 495.5,-168.2497 474.5,-168.2497"/>
<text text-anchor="start" x="477.2027" y="-174.3497" font-family="Helvetica,sans-Serif" font-size="11.00" fill="#000000">&lt; 3</text>
<polygon fill="#ffffff" stroke="transparent" points="495.5,-168.2497 495.5,-187.2497 533.5,-187.2497 533.5,-168.2497 495.5,-168.2497"/>
<polygon fill="none" stroke="#000000" points="495.5,-168.2497 495.5,-187.2497 533.5,-187.2497 533.5,-168.2497 495.5,-168.2497"/>
<text text-anchor="start" x="498.3053" y="-174.3497" font-family="Helvetica,sans-Serif" font-size="11.00" fill="#000000">0 rows</text>
<polygon fill="#ffffff" stroke="transparent" points="533.5,-168.2497 533.5,-187.2497 545.5,-187.2497 545.5,-168.2497 533.5,-168.2497"/>
<polygon fill="none" stroke="#000000" points="533.5,-168.2497 533.5,-187.2497 545.5,-187.2497 545.5,-168.2497 533.5,-168.2497"/>
<text text-anchor="start" x="536.4431" y="-174.3497" font-family="Helvetica,sans-Serif" font-size="11.00" fill="#000000"> &#160;</text>
</a>
</g>
</g>
<!-- contactos -->
<g id="node2" class="node">
<title>contactos</title>
<g id="a_node2"><a xlink:href="../../tables/contactos.html" xlink:title="contactos" target="_top">
<polygon fill="#ffffff" stroke="transparent" points="292.5,-66.7497 292.5,-127.7497 382.5,-127.7497 382.5,-66.7497 292.5,-66.7497"/>
<polygon fill="#f5f5f5" stroke="transparent" points="292.5,-104.2497 292.5,-127.2497 382.5,-127.2497 382.5,-104.2497 292.5,-104.2497"/>
<polygon fill="none" stroke="#000000" points="292.5,-104.2497 292.5,-127.2497 382.5,-127.2497 382.5,-104.2497 292.5,-104.2497"/>
<text text-anchor="start" x="297.4633" y="-113.3497" font-family="Helvetica,sans-Serif" font-weight="bold" font-size="11.00" fill="#000000">contactos</text>
<text text-anchor="start" x="348.0219" y="-112.3497" font-family="Helvetica,sans-Serif" font-size="11.00" fill="#000000">[table]</text>
<polygon fill="none" stroke="#000000" points="292.5,-85.2497 292.5,-104.2497 382.5,-104.2497 382.5,-85.2497 292.5,-85.2497"/>
<text text-anchor="start" x="295.5" y="-91.3497" font-family="Helvetica,sans-Serif" font-size="11.00" fill="#000000">...</text>
<polygon fill="#ffffff" stroke="transparent" points="292.5,-66.2497 292.5,-85.2497 318.5,-85.2497 318.5,-66.2497 292.5,-66.2497"/>
<polygon fill="none" stroke="#000000" points="292.5,-66.2497 292.5,-85.2497 318.5,-85.2497 318.5,-66.2497 292.5,-66.2497"/>
<text text-anchor="start" x="295.5" y="-72.3497" font-family="Helvetica,sans-Serif" font-size="11.00" fill="#000000">&lt; 2</text>
<polygon fill="#ffffff" stroke="transparent" points="318.5,-66.2497 318.5,-85.2497 358.5,-85.2497 358.5,-66.2497 318.5,-66.2497"/>
<polygon fill="none" stroke="#000000" points="318.5,-66.2497 318.5,-85.2497 358.5,-85.2497 358.5,-66.2497 318.5,-66.2497"/>
<text text-anchor="start" x="323.1105" y="-72.3497" font-family="Helvetica,sans-Serif" font-size="11.00" fill="#000000">2 rows</text>
<polygon fill="#ffffff" stroke="transparent" points="358.5,-66.2497 358.5,-85.2497 382.5,-85.2497 382.5,-66.2497 358.5,-66.2497"/>
<polygon fill="none" stroke="#000000" points="358.5,-66.2497 358.5,-85.2497 382.5,-85.2497 382.5,-66.2497 358.5,-66.2497"/>
<text text-anchor="start" x="363.9053" y="-72.3497" font-family="Helvetica,sans-Serif" font-size="11.00" fill="#000000">5 &gt;</text>
</a>
</g>
</g>
<!-- casos&#45;&gt;contactos -->
<g id="edge1" class="edge">
<title>casos:w&#45;&gt;contactos:e</title>
<path fill="none" stroke="#000000" d="M460.1203,-193.9276C418.1233,-178.7449 438.0644,-94.2497 382.5,-94.2497"/>
<polygon fill="#000000" stroke="#000000" points="466.6023,-194.9743 473.9261,-199.8037 470.5512,-195.612 474.5,-196.2497 474.5,-196.2497 474.5,-196.2497 470.5512,-195.612 475.0739,-192.6957 466.6023,-194.9743 466.6023,-194.9743"/>
<ellipse fill="none" stroke="#000000" cx="463.4432" cy="-194.4642" rx="3.2" ry="3.2"/>
</g>
<!-- leads -->
<g id="node3" class="node">
<title>leads</title>
<g id="a_node3"><a xlink:href="../../tables/leads.html" xlink:title="leads" target="_top">
<polygon fill="#ffffff" stroke="transparent" points="276,-176.7497 276,-347.7497 399,-347.7497 399,-176.7497 276,-176.7497"/>
<polygon fill="#f5f5f5" stroke="transparent" points="276.5,-324.2497 276.5,-347.2497 399.5,-347.2497 399.5,-324.2497 276.5,-324.2497"/>
<polygon fill="none" stroke="#000000" points="276.5,-324.2497 276.5,-347.2497 399.5,-347.2497 399.5,-324.2497 276.5,-324.2497"/>
<text text-anchor="start" x="281.5" y="-333.3497" font-family="Helvetica,sans-Serif" font-weight="bold" font-size="11.00" fill="#000000">leads</text>
<text text-anchor="start" x="364.5437" y="-332.3497" font-family="Helvetica,sans-Serif" font-size="11.00" fill="#000000">[table]</text>
<polygon fill="none" stroke="#000000" points="276.5,-302.2497 276.5,-324.2497 399.5,-324.2497 399.5,-302.2497 276.5,-302.2497"/>
<image xlink:href="../../images/primaryKeys.png" width="11px" height="12px" preserveAspectRatio="xMinYMin meet" x="281.5" y="-319.25"/>
<text text-anchor="start" x="296.5" y="-309.3497" font-family="Helvetica,sans-Serif" font-size="11.00" fill="#000000">lead_id</text>
<polygon fill="none" stroke="#000000" points="276.5,-280.2497 276.5,-302.2497 399.5,-302.2497 399.5,-280.2497 276.5,-280.2497"/>
<image xlink:href="../../images/foreignKeys.png" width="11px" height="12px" preserveAspectRatio="xMinYMin meet" x="281.5" y="-297.25"/>
<text text-anchor="start" x="296.5" y="-287.3497" font-family="Helvetica,sans-Serif" font-size="11.00" fill="#000000">usu_asignado_id</text>
<polygon fill="none" stroke="#000000" points="276.5,-258.2497 276.5,-280.2497 399.5,-280.2497 399.5,-258.2497 276.5,-258.2497"/>
<image xlink:href="../../images/foreignKeys.png" width="11px" height="12px" preserveAspectRatio="xMinYMin meet" x="281.5" y="-275.25"/>
<text text-anchor="start" x="296.5" y="-265.3497" font-family="Helvetica,sans-Serif" font-size="11.00" fill="#000000">campana_id</text>
<polygon fill="none" stroke="#000000" points="276.5,-236.2497 276.5,-258.2497 399.5,-258.2497 399.5,-236.2497 276.5,-236.2497"/>
<image xlink:href="../../images/foreignKeys.png" width="11px" height="12px" preserveAspectRatio="xMinYMin meet" x="281.5" y="-253.25"/>
<text text-anchor="start" x="296.5" y="-243.3497" font-family="Helvetica,sans-Serif" font-size="11.00" fill="#000000">persona_id</text>
<polygon fill="none" stroke="#000000" points="276.5,-214.2497 276.5,-236.2497 399.5,-236.2497 399.5,-214.2497 276.5,-214.2497"/>
<image xlink:href="../../images/foreignKeys.png" width="11px" height="12px" preserveAspectRatio="xMinYMin meet" x="281.5" y="-231.25"/>
<text text-anchor="start" x="296.5" y="-221.3497" font-family="Helvetica,sans-Serif" font-size="11.00" fill="#000000">curso_id</text>
<polygon fill="none" stroke="#000000" points="276.5,-195.2497 276.5,-214.2497 399.5,-214.2497 399.5,-195.2497 276.5,-195.2497"/>
<text text-anchor="start" x="279.5" y="-201.3497" font-family="Helvetica,sans-Serif" font-size="11.00" fill="#000000">...</text>
<polygon fill="#ffffff" stroke="transparent" points="276.5,-176.2497 276.5,-195.2497 318.5,-195.2497 318.5,-176.2497 276.5,-176.2497"/>
<polygon fill="none" stroke="#000000" points="276.5,-176.2497 276.5,-195.2497 318.5,-195.2497 318.5,-176.2497 276.5,-176.2497"/>
<text text-anchor="start" x="279.5" y="-182.3497" font-family="Helvetica,sans-Serif" font-size="11.00" fill="#000000">&lt; 4</text>
<polygon fill="#ffffff" stroke="transparent" points="318.5,-176.2497 318.5,-195.2497 367.5,-195.2497 367.5,-176.2497 318.5,-176.2497"/>
<polygon fill="none" stroke="#000000" points="318.5,-176.2497 318.5,-195.2497 367.5,-195.2497 367.5,-176.2497 318.5,-176.2497"/>
<text text-anchor="start" x="332.1105" y="-182.3497" font-family="Helvetica,sans-Serif" font-size="11.00" fill="#000000">2 rows</text>
<polygon fill="#ffffff" stroke="transparent" points="367.5,-176.2497 367.5,-195.2497 399.5,-195.2497 399.5,-176.2497 367.5,-176.2497"/>
<polygon fill="none" stroke="#000000" points="367.5,-176.2497 367.5,-195.2497 399.5,-195.2497 399.5,-176.2497 367.5,-176.2497"/>
<text text-anchor="start" x="380.9053" y="-182.3497" font-family="Helvetica,sans-Serif" font-size="11.00" fill="#000000">3 &gt;</text>
</a>
</g>
</g>
<!-- casos&#45;&gt;leads -->
<g id="edge2" class="edge">
<title>casos:w&#45;&gt;leads:e</title>
<path fill="none" stroke="#000000" d="M460.1078,-199.0265C420.7143,-216.7443 455.5966,-313.2497 399.5,-313.2497"/>
<polygon fill="#000000" stroke="#000000" points="466.6449,-197.7653 475.182,-199.7845 470.5724,-197.0075 474.5,-196.2497 474.5,-196.2497 474.5,-196.2497 470.5724,-197.0075 473.818,-192.7149 466.6449,-197.7653 466.6449,-197.7653"/>
<ellipse fill="none" stroke="#000000" cx="463.5028" cy="-198.3715" rx="3.2" ry="3.2"/>
</g>
<!-- usuarios -->
<g id="node4" class="node">
<title>usuarios</title>
<g id="a_node4"><a xlink:href="../../tables/usuarios.html" xlink:title="usuarios" target="_top">
<polygon fill="#ffffff" stroke="transparent" points="75.5,-148.7497 75.5,-209.7497 159.5,-209.7497 159.5,-148.7497 75.5,-148.7497"/>
<polygon fill="#f5f5f5" stroke="transparent" points="75.5,-186.2497 75.5,-209.2497 159.5,-209.2497 159.5,-186.2497 75.5,-186.2497"/>
<polygon fill="none" stroke="#000000" points="75.5,-186.2497 75.5,-209.2497 159.5,-209.2497 159.5,-186.2497 75.5,-186.2497"/>
<text text-anchor="start" x="80.2188" y="-195.3497" font-family="Helvetica,sans-Serif" font-weight="bold" font-size="11.00" fill="#000000">usuarios</text>
<text text-anchor="start" x="125.0219" y="-194.3497" font-family="Helvetica,sans-Serif" font-size="11.00" fill="#000000">[table]</text>
<polygon fill="none" stroke="#000000" points="75.5,-167.2497 75.5,-186.2497 159.5,-186.2497 159.5,-167.2497 75.5,-167.2497"/>
<text text-anchor="start" x="78.5" y="-173.3497" font-family="Helvetica,sans-Serif" font-size="11.00" fill="#000000">...</text>
<polygon fill="#ffffff" stroke="transparent" points="75.5,-148.2497 75.5,-167.2497 96.5,-167.2497 96.5,-148.2497 75.5,-148.2497"/>
<polygon fill="none" stroke="#000000" points="75.5,-148.2497 75.5,-167.2497 96.5,-167.2497 96.5,-148.2497 75.5,-148.2497"/>
<text text-anchor="start" x="78.5" y="-154.3497" font-family="Helvetica,sans-Serif" font-size="11.00" fill="#000000"> &#160;</text>
<polygon fill="#ffffff" stroke="transparent" points="96.5,-148.2497 96.5,-167.2497 133.5,-167.2497 133.5,-148.2497 96.5,-148.2497"/>
<polygon fill="none" stroke="#000000" points="96.5,-148.2497 96.5,-167.2497 133.5,-167.2497 133.5,-148.2497 96.5,-148.2497"/>
<text text-anchor="start" x="103.6105" y="-154.3497" font-family="Helvetica,sans-Serif" font-size="11.00" fill="#000000">1 row</text>
<polygon fill="#ffffff" stroke="transparent" points="133.5,-148.2497 133.5,-167.2497 159.5,-167.2497 159.5,-148.2497 133.5,-148.2497"/>
<polygon fill="none" stroke="#000000" points="133.5,-148.2497 133.5,-167.2497 159.5,-167.2497 159.5,-148.2497 133.5,-148.2497"/>
<text text-anchor="start" x="140.9053" y="-154.3497" font-family="Helvetica,sans-Serif" font-size="11.00" fill="#000000">6 &gt;</text>
</a>
</g>
</g>
<!-- casos&#45;&gt;usuarios -->
<g id="edge3" class="edge">
<title>casos:w&#45;&gt;usuarios:e</title>
<path fill="none" stroke="#000000" d="M459.9514,-194.3958C439.9186,-188.7635 433.5947,-171.8935 407,-166.2497 299.3085,-143.396 269.5898,-176.2497 159.5,-176.2497"/>
<polygon fill="#000000" stroke="#000000" points="466.5642,-195.2384 474.0449,-199.8208 470.5321,-195.7441 474.5,-196.2497 474.5,-196.2497 474.5,-196.2497 470.5321,-195.7441 474.9551,-192.6786 466.5642,-195.2384 466.5642,-195.2384"/>
<ellipse fill="none" stroke="#000000" cx="463.3898" cy="-194.8339" rx="3.2" ry="3.2"/>
</g>
<!-- personas -->
<g id="node5" class="node">
<title>personas</title>
<g id="a_node5"><a xlink:href="../../tables/personas.html" xlink:title="personas" target="_top">
<polygon fill="#ffffff" stroke="transparent" points="73.5,-66.7497 73.5,-127.7497 161.5,-127.7497 161.5,-66.7497 73.5,-66.7497"/>
<polygon fill="#f5f5f5" stroke="transparent" points="73.5,-104.2497 73.5,-127.2497 161.5,-127.2497 161.5,-104.2497 73.5,-104.2497"/>
<polygon fill="none" stroke="#000000" points="73.5,-104.2497 73.5,-127.2497 161.5,-127.2497 161.5,-104.2497 73.5,-104.2497"/>
<text text-anchor="start" x="78.3818" y="-113.3497" font-family="Helvetica,sans-Serif" font-weight="bold" font-size="11.00" fill="#000000">personas</text>
<text text-anchor="start" x="127.0219" y="-112.3497" font-family="Helvetica,sans-Serif" font-size="11.00" fill="#000000">[table]</text>
<polygon fill="none" stroke="#000000" points="73.5,-85.2497 73.5,-104.2497 161.5,-104.2497 161.5,-85.2497 73.5,-85.2497"/>
<text text-anchor="start" x="76.5" y="-91.3497" font-family="Helvetica,sans-Serif" font-size="11.00" fill="#000000">...</text>
<polygon fill="#ffffff" stroke="transparent" points="73.5,-66.2497 73.5,-85.2497 93.5,-85.2497 93.5,-66.2497 73.5,-66.2497"/>
<polygon fill="none" stroke="#000000" points="73.5,-66.2497 73.5,-85.2497 93.5,-85.2497 93.5,-66.2497 73.5,-66.2497"/>
<text text-anchor="start" x="76.5" y="-72.3497" font-family="Helvetica,sans-Serif" font-size="11.00" fill="#000000"> &#160;</text>
<polygon fill="#ffffff" stroke="transparent" points="93.5,-66.2497 93.5,-85.2497 135.5,-85.2497 135.5,-66.2497 93.5,-66.2497"/>
<polygon fill="none" stroke="#000000" points="93.5,-66.2497 93.5,-85.2497 135.5,-85.2497 135.5,-66.2497 93.5,-66.2497"/>
<text text-anchor="start" x="100.1105" y="-72.3497" font-family="Helvetica,sans-Serif" font-size="11.00" fill="#000000">7 rows</text>
<polygon fill="#ffffff" stroke="transparent" points="135.5,-66.2497 135.5,-85.2497 161.5,-85.2497 161.5,-66.2497 135.5,-66.2497"/>
<polygon fill="none" stroke="#000000" points="135.5,-66.2497 135.5,-85.2497 161.5,-85.2497 161.5,-66.2497 135.5,-66.2497"/>
<text text-anchor="start" x="142.9053" y="-72.3497" font-family="Helvetica,sans-Serif" font-size="11.00" fill="#000000">7 &gt;</text>
</a>
</g>
</g>
<!-- contactos&#45;&gt;personas -->
<g id="edge4" class="edge">
<title>contactos:w&#45;&gt;personas:e</title>
<path fill="none" stroke="#000000" d="M277.8014,-94.2497C231.3099,-94.2497 214.4913,-94.2497 161.5,-94.2497"/>
<polygon fill="#000000" stroke="#000000" points="284.5,-94.2498 292.5,-97.8497 288.5,-94.2497 292.5,-94.2497 292.5,-94.2497 292.5,-94.2497 288.5,-94.2497 292.5,-90.6497 284.5,-94.2498 284.5,-94.2498"/>
<ellipse fill="none" stroke="#000000" cx="281.3" cy="-94.2498" rx="3.2" ry="3.2"/>
</g>
<!-- leads&#45;&gt;usuarios -->
<g id="edge10" class="edge">
<title>leads:w&#45;&gt;usuarios:e</title>
<path fill="none" stroke="#000000" d="M262.2169,-287.574C245.7563,-276.2934 256.4168,-241.639 235,-220.2497 207.5197,-192.8047 198.3381,-176.2497 159.5,-176.2497"/>
<polygon fill="#000000" stroke="#000000" points="268.7524,-289.2559 275.6028,-294.7361 272.6262,-290.2528 276.5,-291.2497 276.5,-291.2497 276.5,-291.2497 272.6262,-290.2528 277.3972,-287.7633 268.7524,-289.2559 268.7524,-289.2559"/>
<ellipse fill="none" stroke="#000000" cx="265.6534" cy="-288.4584" rx="3.2" ry="3.2"/>
</g>
<!-- leads&#45;&gt;personas -->
<g id="edge9" class="edge">
<title>leads:w&#45;&gt;personas:e</title>
<path fill="none" stroke="#000000" d="M262.3084,-244.7265C233.562,-231.9343 264.5262,-173.4769 235,-138.2497 210.5433,-109.0709 199.5727,-94.2497 161.5,-94.2497"/>
<polygon fill="#000000" stroke="#000000" points="268.6235,-245.8493 275.8698,-250.7941 272.5618,-246.5495 276.5,-247.2497 276.5,-247.2497 276.5,-247.2497 272.5618,-246.5495 277.1302,-243.7053 268.6235,-245.8493 268.6235,-245.8493"/>
<ellipse fill="none" stroke="#000000" cx="265.4729" cy="-245.2891" rx="3.2" ry="3.2"/>
</g>
<!-- campanas -->
<g id="node8" class="node">
<title>campanas</title>
<g id="a_node8"><a xlink:href="../../tables/campanas.html" xlink:title="campanas" target="_top">
<polygon fill="#ffffff" stroke="transparent" points="8,-313.2497 8,-557.2497 227,-557.2497 227,-313.2497 8,-313.2497"/>
<polygon fill="#f5f5f5" stroke="transparent" points="10.5,-532.2497 10.5,-555.2497 225.5,-555.2497 225.5,-532.2497 10.5,-532.2497"/>
<polygon fill="none" stroke="#000000" points="10.5,-532.2497 10.5,-555.2497 225.5,-555.2497 225.5,-532.2497 10.5,-532.2497"/>
<text text-anchor="start" x="15.5" y="-541.3497" font-family="Helvetica,sans-Serif" font-weight="bold" font-size="11.00" fill="#000000">campanas</text>
<text text-anchor="start" x="190.5437" y="-540.3497" font-family="Helvetica,sans-Serif" font-size="11.00" fill="#000000">[table]</text>
<polygon fill="none" stroke="#000000" points="10.5,-510.2497 10.5,-532.2497 133.5,-532.2497 133.5,-510.2497 10.5,-510.2497"/>
<image xlink:href="../../images/primaryKeys.png" width="11px" height="12px" preserveAspectRatio="xMinYMin meet" x="15.5" y="-527.25"/>
<text text-anchor="start" x="30.5" y="-517.3497" font-family="Helvetica,sans-Serif" font-size="11.00" fill="#000000">campana_id</text>
<polygon fill="none" stroke="#000000" points="133.5,-510.2497 133.5,-532.2497 225.5,-532.2497 225.5,-510.2497 133.5,-510.2497"/>
<text text-anchor="start" x="136.5" y="-517.9497" font-family="Helvetica,sans-Serif" font-size="11.00" fill="#000000">serial[10]</text>
<polygon fill="none" stroke="#000000" points="10.5,-488.2497 10.5,-510.2497 133.5,-510.2497 133.5,-488.2497 10.5,-488.2497"/>
<text text-anchor="start" x="30.5" y="-495.3497" font-family="Helvetica,sans-Serif" font-size="11.00" fill="#000000">nombre</text>
<polygon fill="none" stroke="#000000" points="133.5,-488.2497 133.5,-510.2497 225.5,-510.2497 225.5,-488.2497 133.5,-488.2497"/>
<text text-anchor="start" x="136.5" y="-495.9497" font-family="Helvetica,sans-Serif" font-size="11.00" fill="#000000">varchar[255]</text>
<polygon fill="none" stroke="#000000" points="10.5,-466.2497 10.5,-488.2497 133.5,-488.2497 133.5,-466.2497 10.5,-466.2497"/>
<text text-anchor="start" x="30.5" y="-473.3497" font-family="Helvetica,sans-Serif" font-size="11.00" fill="#000000">descripcion</text>
<polygon fill="none" stroke="#000000" points="133.5,-466.2497 133.5,-488.2497 225.5,-488.2497 225.5,-466.2497 133.5,-466.2497"/>
<text text-anchor="start" x="136.5" y="-473.9497" font-family="Helvetica,sans-Serif" font-size="11.00" fill="#000000">text[2147483647]</text>
<polygon fill="none" stroke="#000000" points="10.5,-444.2497 10.5,-466.2497 133.5,-466.2497 133.5,-444.2497 10.5,-444.2497"/>
<text text-anchor="start" x="30.5" y="-451.3497" font-family="Helvetica,sans-Serif" font-size="11.00" fill="#000000">fec_inicio</text>
<polygon fill="none" stroke="#000000" points="133.5,-444.2497 133.5,-466.2497 225.5,-466.2497 225.5,-444.2497 133.5,-444.2497"/>
<text text-anchor="start" x="136.1023" y="-451.9497" font-family="Helvetica,sans-Serif" font-size="11.00" fill="#000000">timestamptz[35,6]</text>
<polygon fill="none" stroke="#000000" points="10.5,-422.2497 10.5,-444.2497 133.5,-444.2497 133.5,-422.2497 10.5,-422.2497"/>
<text text-anchor="start" x="30.5" y="-429.3497" font-family="Helvetica,sans-Serif" font-size="11.00" fill="#000000">fec_fin</text>
<polygon fill="none" stroke="#000000" points="133.5,-422.2497 133.5,-444.2497 225.5,-444.2497 225.5,-422.2497 133.5,-422.2497"/>
<text text-anchor="start" x="136.1023" y="-429.9497" font-family="Helvetica,sans-Serif" font-size="11.00" fill="#000000">timestamptz[35,6]</text>
<polygon fill="none" stroke="#000000" points="10.5,-400.2497 10.5,-422.2497 133.5,-422.2497 133.5,-400.2497 10.5,-400.2497"/>
<text text-anchor="start" x="30.5" y="-407.3497" font-family="Helvetica,sans-Serif" font-size="11.00" fill="#000000">usu_insercion</text>
<polygon fill="none" stroke="#000000" points="133.5,-400.2497 133.5,-422.2497 225.5,-422.2497 225.5,-400.2497 133.5,-400.2497"/>
<text text-anchor="start" x="136.5" y="-407.9497" font-family="Helvetica,sans-Serif" font-size="11.00" fill="#000000">varchar[20]</text>
<polygon fill="none" stroke="#000000" points="10.5,-378.2497 10.5,-400.2497 133.5,-400.2497 133.5,-378.2497 10.5,-378.2497"/>
<text text-anchor="start" x="30.5" y="-385.3497" font-family="Helvetica,sans-Serif" font-size="11.00" fill="#000000">fec_insercion</text>
<polygon fill="none" stroke="#000000" points="133.5,-378.2497 133.5,-400.2497 225.5,-400.2497 225.5,-378.2497 133.5,-378.2497"/>
<text text-anchor="start" x="136.1023" y="-385.9497" font-family="Helvetica,sans-Serif" font-size="11.00" fill="#000000">timestamptz[35,6]</text>
<polygon fill="none" stroke="#000000" points="10.5,-356.2497 10.5,-378.2497 133.5,-378.2497 133.5,-356.2497 10.5,-356.2497"/>
<text text-anchor="start" x="30.5" y="-363.3497" font-family="Helvetica,sans-Serif" font-size="11.00" fill="#000000">fec_modificacion</text>
<polygon fill="none" stroke="#000000" points="133.5,-356.2497 133.5,-378.2497 225.5,-378.2497 225.5,-356.2497 133.5,-356.2497"/>
<text text-anchor="start" x="136.1023" y="-363.9497" font-family="Helvetica,sans-Serif" font-size="11.00" fill="#000000">timestamptz[35,6]</text>
<polygon fill="none" stroke="#000000" points="10.5,-334.2497 10.5,-356.2497 133.5,-356.2497 133.5,-334.2497 10.5,-334.2497"/>
<text text-anchor="start" x="30.5" y="-341.3497" font-family="Helvetica,sans-Serif" font-size="11.00" fill="#000000">usu_modificacion</text>
<polygon fill="none" stroke="#000000" points="133.5,-334.2497 133.5,-356.2497 225.5,-356.2497 225.5,-334.2497 133.5,-334.2497"/>
<text text-anchor="start" x="136.5" y="-341.9497" font-family="Helvetica,sans-Serif" font-size="11.00" fill="#000000">varchar[20]</text>
<polygon fill="#ffffff" stroke="transparent" points="10.5,-315.2497 10.5,-334.2497 63.5,-334.2497 63.5,-315.2497 10.5,-315.2497"/>
<polygon fill="none" stroke="#000000" points="10.5,-315.2497 10.5,-334.2497 63.5,-334.2497 63.5,-315.2497 10.5,-315.2497"/>
<text text-anchor="start" x="13.5" y="-321.3497" font-family="Helvetica,sans-Serif" font-size="11.00" fill="#000000">&lt; 0</text>
<polygon fill="#ffffff" stroke="transparent" points="63.5,-315.2497 63.5,-334.2497 133.5,-334.2497 133.5,-315.2497 63.5,-315.2497"/>
<polygon fill="none" stroke="#000000" points="63.5,-315.2497 63.5,-334.2497 133.5,-334.2497 133.5,-315.2497 63.5,-315.2497"/>
<text text-anchor="start" x="98.1105" y="-321.3497" font-family="Helvetica,sans-Serif" font-size="11.00" fill="#000000">2 rows</text>
<polygon fill="#ffffff" stroke="transparent" points="133.5,-315.2497 133.5,-334.2497 225.5,-334.2497 225.5,-315.2497 133.5,-315.2497"/>
<polygon fill="none" stroke="#000000" points="133.5,-315.2497 133.5,-334.2497 225.5,-334.2497 225.5,-315.2497 133.5,-315.2497"/>
<text text-anchor="start" x="206.9053" y="-321.3497" font-family="Helvetica,sans-Serif" font-size="11.00" fill="#000000">2 &gt;</text>
<polygon fill="none" stroke="#000000" stroke-width="2" points="9,-314.2497 9,-556.2497 226,-556.2497 226,-314.2497 9,-314.2497"/>
</a>
</g>
</g>
<!-- leads&#45;&gt;campanas -->
<g id="edge7" class="edge">
<title>leads:w&#45;&gt;campanas:e</title>
<path fill="none" stroke="#000000" d="M262.0365,-270.9256C178.5524,-292.7899 334.3026,-521.2497 225.5,-521.2497"/>
<polygon fill="#000000" stroke="#000000" points="268.5532,-270.1705 276.9144,-272.8258 272.5266,-269.7101 276.5,-269.2497 276.5,-269.2497 276.5,-269.2497 272.5266,-269.7101 276.0856,-265.6736 268.5532,-270.1705 268.5532,-270.1705"/>
<ellipse fill="none" stroke="#000000" cx="265.3744" cy="-270.5389" rx="3.2" ry="3.2"/>
</g>
<!-- cursos -->
<g id="node9" class="node">
<title>cursos</title>
<g id="a_node9"><a xlink:href="../../tables/cursos.html" xlink:title="cursos" target="_top">
<polygon fill="#ffffff" stroke="transparent" points="80,-230.7497 80,-291.7497 155,-291.7497 155,-230.7497 80,-230.7497"/>
<polygon fill="#f5f5f5" stroke="transparent" points="80.5,-268.2497 80.5,-291.2497 155.5,-291.2497 155.5,-268.2497 80.5,-268.2497"/>
<polygon fill="none" stroke="#000000" points="80.5,-268.2497 80.5,-291.2497 155.5,-291.2497 155.5,-268.2497 80.5,-268.2497"/>
<text text-anchor="start" x="85.3042" y="-277.3497" font-family="Helvetica,sans-Serif" font-weight="bold" font-size="11.00" fill="#000000">cursos</text>
<text text-anchor="start" x="121.0219" y="-276.3497" font-family="Helvetica,sans-Serif" font-size="11.00" fill="#000000">[table]</text>
<polygon fill="none" stroke="#000000" points="80.5,-249.2497 80.5,-268.2497 155.5,-268.2497 155.5,-249.2497 80.5,-249.2497"/>
<text text-anchor="start" x="83.5" y="-255.3497" font-family="Helvetica,sans-Serif" font-size="11.00" fill="#000000">...</text>
<polygon fill="#ffffff" stroke="transparent" points="80.5,-230.2497 80.5,-249.2497 97.5,-249.2497 97.5,-230.2497 80.5,-230.2497"/>
<polygon fill="none" stroke="#000000" points="80.5,-230.2497 80.5,-249.2497 97.5,-249.2497 97.5,-230.2497 80.5,-230.2497"/>
<text text-anchor="start" x="83.5" y="-236.3497" font-family="Helvetica,sans-Serif" font-size="11.00" fill="#000000"> &#160;</text>
<polygon fill="#ffffff" stroke="transparent" points="97.5,-230.2497 97.5,-249.2497 131.5,-249.2497 131.5,-230.2497 97.5,-230.2497"/>
<polygon fill="none" stroke="#000000" points="97.5,-230.2497 97.5,-249.2497 131.5,-249.2497 131.5,-230.2497 97.5,-230.2497"/>
<text text-anchor="start" x="101.6105" y="-236.3497" font-family="Helvetica,sans-Serif" font-size="11.00" fill="#000000">1 row</text>
<polygon fill="#ffffff" stroke="transparent" points="131.5,-230.2497 131.5,-249.2497 155.5,-249.2497 155.5,-230.2497 131.5,-230.2497"/>
<polygon fill="none" stroke="#000000" points="131.5,-230.2497 131.5,-249.2497 155.5,-249.2497 155.5,-230.2497 131.5,-230.2497"/>
<text text-anchor="start" x="136.9053" y="-236.3497" font-family="Helvetica,sans-Serif" font-size="11.00" fill="#000000">3 &gt;</text>
</a>
</g>
</g>
<!-- leads&#45;&gt;cursos -->
<g id="edge8" class="edge">
<title>leads:w&#45;&gt;cursos:e</title>
<path fill="none" stroke="#000000" d="M261.9653,-226.0654C218.5675,-231.1472 206.0161,-258.2497 155.5,-258.2497"/>
<polygon fill="#000000" stroke="#000000" points="268.5126,-225.698 276.7017,-228.8441 272.5063,-225.4739 276.5,-225.2497 276.5,-225.2497 276.5,-225.2497 272.5063,-225.4739 276.2983,-221.6554 268.5126,-225.698 268.5126,-225.698"/>
<ellipse fill="none" stroke="#000000" cx="265.3176" cy="-225.8774" rx="3.2" ry="3.2"/>
</g>
<!-- encuesta_respuestas -->
<g id="node6" class="node">
<title>encuesta_respuestas</title>
<g id="a_node6"><a xlink:href="../../tables/encuesta_respuestas.html" xlink:title="encuesta_respuestas" target="_top">
<polygon fill="#ffffff" stroke="transparent" points="620,-257.7497 620,-318.7497 767,-318.7497 767,-257.7497 620,-257.7497"/>
<polygon fill="#f5f5f5" stroke="transparent" points="620.5,-295.2497 620.5,-318.2497 767.5,-318.2497 767.5,-295.2497 620.5,-295.2497"/>
<polygon fill="none" stroke="#000000" points="620.5,-295.2497 620.5,-318.2497 767.5,-318.2497 767.5,-295.2497 620.5,-295.2497"/>
<text text-anchor="start" x="625.2302" y="-304.3497" font-family="Helvetica,sans-Serif" font-weight="bold" font-size="11.00" fill="#000000">encuesta_respuestas</text>
<text text-anchor="start" x="733.0219" y="-303.3497" font-family="Helvetica,sans-Serif" font-size="11.00" fill="#000000">[table]</text>
<polygon fill="none" stroke="#000000" points="620.5,-276.2497 620.5,-295.2497 767.5,-295.2497 767.5,-276.2497 620.5,-276.2497"/>
<text text-anchor="start" x="623.5" y="-282.3497" font-family="Helvetica,sans-Serif" font-size="11.00" fill="#000000">...</text>
<polygon fill="#ffffff" stroke="transparent" points="620.5,-257.2497 620.5,-276.2497 674.5,-276.2497 674.5,-257.2497 620.5,-257.2497"/>
<polygon fill="none" stroke="#000000" points="620.5,-257.2497 620.5,-276.2497 674.5,-276.2497 674.5,-257.2497 620.5,-257.2497"/>
<text text-anchor="start" x="623.5" y="-263.3497" font-family="Helvetica,sans-Serif" font-size="11.00" fill="#000000">&lt; 2</text>
<polygon fill="#ffffff" stroke="transparent" points="674.5,-257.2497 674.5,-276.2497 729.5,-276.2497 729.5,-257.2497 674.5,-257.2497"/>
<polygon fill="none" stroke="#000000" points="674.5,-257.2497 674.5,-276.2497 729.5,-276.2497 729.5,-257.2497 674.5,-257.2497"/>
<text text-anchor="start" x="694.1105" y="-263.3497" font-family="Helvetica,sans-Serif" font-size="11.00" fill="#000000">0 rows</text>
<polygon fill="#ffffff" stroke="transparent" points="729.5,-257.2497 729.5,-276.2497 767.5,-276.2497 767.5,-257.2497 729.5,-257.2497"/>
<polygon fill="none" stroke="#000000" points="729.5,-257.2497 729.5,-276.2497 767.5,-276.2497 767.5,-257.2497 729.5,-257.2497"/>
<text text-anchor="start" x="748.9053" y="-263.3497" font-family="Helvetica,sans-Serif" font-size="11.00" fill="#000000">1 &gt;</text>
</a>
</g>
</g>
<!-- encuesta_respuestas&#45;&gt;contactos -->
<g id="edge5" class="edge">
<title>encuesta_respuestas:w&#45;&gt;contactos:e</title>
<path fill="none" stroke="#000000" d="M606.0457,-283.7638C539.9247,-268.1043 647.9071,-132.8196 579,-76.2497 531.2517,-37.0503 501.0684,-66.9145 440,-76.2497 413.529,-80.2962 409.2785,-94.2497 382.5,-94.2497"/>
<polygon fill="#000000" stroke="#000000" points="612.5419,-284.4316 620.1318,-288.8308 616.521,-284.8406 620.5,-285.2497 620.5,-285.2497 620.5,-285.2497 616.521,-284.8406 620.8682,-281.6686 612.5419,-284.4316 612.5419,-284.4316"/>
<ellipse fill="none" stroke="#000000" cx="609.3587" cy="-284.1043" rx="3.2" ry="3.2"/>
</g>
<!-- oportunidades -->
<g id="node7" class="node">
<title>oportunidades</title>
<g id="a_node7"><a xlink:href="../../tables/oportunidades.html" xlink:title="oportunidades" target="_top">
<polygon fill="#ffffff" stroke="transparent" points="448,-352.7497 448,-523.7497 571,-523.7497 571,-352.7497 448,-352.7497"/>
<polygon fill="#f5f5f5" stroke="transparent" points="448.5,-500.2497 448.5,-523.2497 571.5,-523.2497 571.5,-500.2497 448.5,-500.2497"/>
<polygon fill="none" stroke="#000000" points="448.5,-500.2497 448.5,-523.2497 571.5,-523.2497 571.5,-500.2497 448.5,-500.2497"/>
<text text-anchor="start" x="453.5" y="-509.3497" font-family="Helvetica,sans-Serif" font-weight="bold" font-size="11.00" fill="#000000">oportunidades</text>
<text text-anchor="start" x="536.5437" y="-508.3497" font-family="Helvetica,sans-Serif" font-size="11.00" fill="#000000">[table]</text>
<polygon fill="none" stroke="#000000" points="448.5,-478.2497 448.5,-500.2497 571.5,-500.2497 571.5,-478.2497 448.5,-478.2497"/>
<image xlink:href="../../images/primaryKeys.png" width="11px" height="12px" preserveAspectRatio="xMinYMin meet" x="453.5" y="-495.25"/>
<text text-anchor="start" x="468.5" y="-485.3497" font-family="Helvetica,sans-Serif" font-size="11.00" fill="#000000">oportunidad_id</text>
<polygon fill="none" stroke="#000000" points="448.5,-456.2497 448.5,-478.2497 571.5,-478.2497 571.5,-456.2497 448.5,-456.2497"/>
<image xlink:href="../../images/foreignKeys.png" width="11px" height="12px" preserveAspectRatio="xMinYMin meet" x="453.5" y="-473.25"/>
<text text-anchor="start" x="468.5" y="-463.3497" font-family="Helvetica,sans-Serif" font-size="11.00" fill="#000000">campana_id</text>
<polygon fill="none" stroke="#000000" points="448.5,-434.2497 448.5,-456.2497 571.5,-456.2497 571.5,-434.2497 448.5,-434.2497"/>
<image xlink:href="../../images/foreignKeys.png" width="11px" height="12px" preserveAspectRatio="xMinYMin meet" x="453.5" y="-451.25"/>
<text text-anchor="start" x="468.5" y="-441.3497" font-family="Helvetica,sans-Serif" font-size="11.00" fill="#000000">contacto_id</text>
<polygon fill="none" stroke="#000000" points="448.5,-412.2497 448.5,-434.2497 571.5,-434.2497 571.5,-412.2497 448.5,-412.2497"/>
<image xlink:href="../../images/foreignKeys.png" width="11px" height="12px" preserveAspectRatio="xMinYMin meet" x="453.5" y="-429.25"/>
<text text-anchor="start" x="468.5" y="-419.3497" font-family="Helvetica,sans-Serif" font-size="11.00" fill="#000000">curso_id</text>
<polygon fill="none" stroke="#000000" points="448.5,-390.2497 448.5,-412.2497 571.5,-412.2497 571.5,-390.2497 448.5,-390.2497"/>
<image xlink:href="../../images/foreignKeys.png" width="11px" height="12px" preserveAspectRatio="xMinYMin meet" x="453.5" y="-407.25"/>
<text text-anchor="start" x="468.5" y="-397.3497" font-family="Helvetica,sans-Serif" font-size="11.00" fill="#000000">usu_asignado_id</text>
<polygon fill="none" stroke="#000000" points="448.5,-371.2497 448.5,-390.2497 571.5,-390.2497 571.5,-371.2497 448.5,-371.2497"/>
<text text-anchor="start" x="451.5" y="-377.3497" font-family="Helvetica,sans-Serif" font-size="11.00" fill="#000000">...</text>
<polygon fill="#ffffff" stroke="transparent" points="448.5,-352.2497 448.5,-371.2497 490.5,-371.2497 490.5,-352.2497 448.5,-352.2497"/>
<polygon fill="none" stroke="#000000" points="448.5,-352.2497 448.5,-371.2497 490.5,-371.2497 490.5,-352.2497 448.5,-352.2497"/>
<text text-anchor="start" x="451.5" y="-358.3497" font-family="Helvetica,sans-Serif" font-size="11.00" fill="#000000">&lt; 4</text>
<polygon fill="#ffffff" stroke="transparent" points="490.5,-352.2497 490.5,-371.2497 539.5,-371.2497 539.5,-352.2497 490.5,-352.2497"/>
<polygon fill="none" stroke="#000000" points="490.5,-352.2497 490.5,-371.2497 539.5,-371.2497 539.5,-352.2497 490.5,-352.2497"/>
<text text-anchor="start" x="504.1105" y="-358.3497" font-family="Helvetica,sans-Serif" font-size="11.00" fill="#000000">6 rows</text>
<polygon fill="#ffffff" stroke="transparent" points="539.5,-352.2497 539.5,-371.2497 571.5,-371.2497 571.5,-352.2497 539.5,-352.2497"/>
<polygon fill="none" stroke="#000000" points="539.5,-352.2497 539.5,-371.2497 571.5,-371.2497 571.5,-352.2497 539.5,-352.2497"/>
<text text-anchor="start" x="552.9053" y="-358.3497" font-family="Helvetica,sans-Serif" font-size="11.00" fill="#000000">1 &gt;</text>
</a>
</g>
</g>
<!-- encuesta_respuestas&#45;&gt;oportunidades -->
<g id="edge6" class="edge">
<title>encuesta_respuestas:w&#45;&gt;oportunidades:e</title>
<path fill="none" stroke="#000000" d="M605.998,-287.4027C543.058,-309.205 659.0997,-489.2497 571.5,-489.2497"/>
<polygon fill="#000000" stroke="#000000" points="612.5867,-286.4246 621.0287,-288.8107 616.5434,-285.8371 620.5,-285.2497 620.5,-285.2497 620.5,-285.2497 616.5434,-285.8371 619.9713,-281.6887 612.5867,-286.4246 612.5867,-286.4246"/>
<ellipse fill="none" stroke="#000000" cx="609.4214" cy="-286.8945" rx="3.2" ry="3.2"/>
</g>
<!-- oportunidades&#45;&gt;contactos -->
<g id="edge15" class="edge">
<title>oportunidades:w&#45;&gt;contactos:e</title>
<path fill="none" stroke="#000000" d="M434.5263,-440.5533C381.0073,-398.9016 456.4415,-94.2497 382.5,-94.2497"/>
<polygon fill="#000000" stroke="#000000" points="440.9168,-442.701 447.3531,-448.6621 444.7084,-443.9754 448.5,-445.2497 448.5,-445.2497 448.5,-445.2497 444.7084,-443.9754 449.6469,-441.8373 440.9168,-442.701 440.9168,-442.701"/>
<ellipse fill="none" stroke="#000000" cx="437.8836" cy="-441.6816" rx="3.2" ry="3.2"/>
</g>
<!-- oportunidades&#45;&gt;usuarios -->
<g id="edge17" class="edge">
<title>oportunidades:w&#45;&gt;usuarios:e</title>
<path fill="none" stroke="#000000" d="M433.8699,-401.3797C386.1092,-402.0083 294.66,-403.7752 268,-379.2497 214.8842,-330.3866 277.1629,-278.826 235,-220.2497 212.311,-188.7282 198.3381,-176.2497 159.5,-176.2497"/>
<polygon fill="#000000" stroke="#000000" points="440.5003,-401.3208 448.532,-404.8496 444.5002,-401.2853 448.5,-401.2497 448.5,-401.2497 448.5,-401.2497 444.5002,-401.2853 448.468,-397.6498 440.5003,-401.3208 440.5003,-401.3208"/>
<ellipse fill="none" stroke="#000000" cx="437.3004" cy="-401.3493" rx="3.2" ry="3.2"/>
</g>
<!-- oportunidades&#45;&gt;campanas -->
<g id="edge14" class="edge">
<title>oportunidades:w&#45;&gt;campanas:e</title>
<path fill="none" stroke="#000000" d="M433.86,-467.6382C344.4213,-472.4947 322.3967,-521.2497 225.5,-521.2497"/>
<polygon fill="#000000" stroke="#000000" points="440.5028,-467.462 448.5955,-470.8484 444.5014,-467.3558 448.5,-467.2497 448.5,-467.2497 448.5,-467.2497 444.5014,-467.3558 448.4045,-463.651 440.5028,-467.462 440.5028,-467.462"/>
<ellipse fill="none" stroke="#000000" cx="437.3039" cy="-467.5469" rx="3.2" ry="3.2"/>
</g>
<!-- oportunidades&#45;&gt;cursos -->
<g id="edge16" class="edge">
<title>oportunidades:w&#45;&gt;cursos:e</title>
<path fill="none" stroke="#000000" d="M433.9041,-423.6436C363.2951,-427.4334 326.9769,-456.2821 268,-409.2497 229.4233,-378.4859 265.9782,-341.6544 235,-303.2497 209.5093,-271.648 196.101,-258.2497 155.5,-258.2497"/>
<polygon fill="#000000" stroke="#000000" points="440.5029,-423.4656 448.5972,-426.8484 444.5015,-423.3577 448.5,-423.2497 448.5,-423.2497 448.5,-423.2497 444.5015,-423.3577 448.4028,-419.651 440.5029,-423.4656 440.5029,-423.4656"/>
<ellipse fill="none" stroke="#000000" cx="437.3041" cy="-423.552" rx="3.2" ry="3.2"/>
</g>
<!-- llamadas -->
<g id="node10" class="node">
<title>llamadas</title>
<g id="a_node10"><a xlink:href="../../tables/llamadas.html" xlink:title="llamadas" target="_top">
<polygon fill="#ffffff" stroke="transparent" points="466,-86.7497 466,-147.7497 553,-147.7497 553,-86.7497 466,-86.7497"/>
<polygon fill="#f5f5f5" stroke="transparent" points="466.5,-124.2497 466.5,-147.2497 553.5,-147.2497 553.5,-124.2497 466.5,-124.2497"/>
<polygon fill="none" stroke="#000000" points="466.5,-124.2497 466.5,-147.2497 553.5,-147.2497 553.5,-124.2497 466.5,-124.2497"/>
<text text-anchor="start" x="471.4984" y="-133.3497" font-family="Helvetica,sans-Serif" font-weight="bold" font-size="11.00" fill="#000000">llamadas</text>
<text text-anchor="start" x="519.0219" y="-132.3497" font-family="Helvetica,sans-Serif" font-size="11.00" fill="#000000">[table]</text>
<polygon fill="none" stroke="#000000" points="466.5,-105.2497 466.5,-124.2497 553.5,-124.2497 553.5,-105.2497 466.5,-105.2497"/>
<text text-anchor="start" x="469.5" y="-111.3497" font-family="Helvetica,sans-Serif" font-size="11.00" fill="#000000">...</text>
<polygon fill="#ffffff" stroke="transparent" points="466.5,-86.2497 466.5,-105.2497 495.5,-105.2497 495.5,-86.2497 466.5,-86.2497"/>
<polygon fill="none" stroke="#000000" points="466.5,-86.2497 466.5,-105.2497 495.5,-105.2497 495.5,-86.2497 466.5,-86.2497"/>
<text text-anchor="start" x="469.5" y="-92.3497" font-family="Helvetica,sans-Serif" font-size="11.00" fill="#000000">&lt; 3</text>
<polygon fill="#ffffff" stroke="transparent" points="495.5,-86.2497 495.5,-105.2497 537.5,-105.2497 537.5,-86.2497 495.5,-86.2497"/>
<polygon fill="none" stroke="#000000" points="495.5,-86.2497 495.5,-105.2497 537.5,-105.2497 537.5,-86.2497 495.5,-86.2497"/>
<text text-anchor="start" x="502.1105" y="-92.3497" font-family="Helvetica,sans-Serif" font-size="11.00" fill="#000000">0 rows</text>
<polygon fill="#ffffff" stroke="transparent" points="537.5,-86.2497 537.5,-105.2497 553.5,-105.2497 553.5,-86.2497 537.5,-86.2497"/>
<polygon fill="none" stroke="#000000" points="537.5,-86.2497 537.5,-105.2497 553.5,-105.2497 553.5,-86.2497 537.5,-86.2497"/>
<text text-anchor="start" x="544.3862" y="-92.3497" font-family="Helvetica,sans-Serif" font-size="11.00" fill="#000000"> &#160;</text>
</a>
</g>
</g>
<!-- llamadas&#45;&gt;contactos -->
<g id="edge11" class="edge">
<title>llamadas:w&#45;&gt;contactos:e</title>
<path fill="none" stroke="#000000" d="M451.9835,-113.1744C425.4695,-109.0202 415.4802,-94.2497 382.5,-94.2497"/>
<polygon fill="#000000" stroke="#000000" points="458.5219,-113.6587 466.234,-117.8399 462.5109,-113.9542 466.5,-114.2497 466.5,-114.2497 466.5,-114.2497 462.5109,-113.9542 466.766,-110.6595 458.5219,-113.6587 458.5219,-113.6587"/>
<ellipse fill="none" stroke="#000000" cx="455.3306" cy="-113.4223" rx="3.2" ry="3.2"/>
</g>
<!-- llamadas&#45;&gt;leads -->
<g id="edge12" class="edge">
<title>llamadas:w&#45;&gt;leads:e</title>
<path fill="none" stroke="#000000" d="M452.2034,-116.2193C386.467,-136.8868 487.3546,-313.2497 399.5,-313.2497"/>
<polygon fill="#000000" stroke="#000000" points="458.5749,-115.3416 466.9913,-117.816 462.5374,-114.7956 466.5,-114.2497 466.5,-114.2497 466.5,-114.2497 462.5374,-114.7956 466.0087,-110.6834 458.5749,-115.3416 458.5749,-115.3416"/>
<ellipse fill="none" stroke="#000000" cx="455.4048" cy="-115.7783" rx="3.2" ry="3.2"/>
</g>
<!-- llamadas&#45;&gt;usuarios -->
<g id="edge13" class="edge">
<title>llamadas:w&#45;&gt;usuarios:e</title>
<path fill="none" stroke="#000000" d="M452.3862,-111.304C432.0878,-101.2095 435.8631,-67.9899 407,-56.2497 349.775,-32.9731 319.1925,-21.6691 268,-56.2497 235.4463,-78.2398 261.5924,-109.3334 235,-138.2497 209.5712,-165.9008 197.0661,-176.2497 159.5,-176.2497"/>
<polygon fill="#000000" stroke="#000000" points="458.6687,-112.6152 465.7645,-117.7738 462.5844,-113.4325 466.5,-114.2497 466.5,-114.2497 466.5,-114.2497 462.5844,-113.4325 467.2355,-110.7256 458.6687,-112.6152 458.6687,-112.6152"/>
<ellipse fill="none" stroke="#000000" cx="455.5362" cy="-111.9614" rx="3.2" ry="3.2"/>
</g>
<!-- tareas -->
<g id="node11" class="node">
<title>tareas</title>
<g id="a_node11"><a xlink:href="../../tables/tareas.html" xlink:title="tareas" target="_top">
<polygon fill="#ffffff" stroke="transparent" points="473,-270.7497 473,-331.7497 546,-331.7497 546,-270.7497 473,-270.7497"/>
<polygon fill="#f5f5f5" stroke="transparent" points="473.5,-308.2497 473.5,-331.2497 546.5,-331.2497 546.5,-308.2497 473.5,-308.2497"/>
<polygon fill="none" stroke="#000000" points="473.5,-308.2497 473.5,-331.2497 546.5,-331.2497 546.5,-308.2497 473.5,-308.2497"/>
<text text-anchor="start" x="478.2183" y="-317.3497" font-family="Helvetica,sans-Serif" font-weight="bold" font-size="11.00" fill="#000000">tareas</text>
<text text-anchor="start" x="512.0219" y="-316.3497" font-family="Helvetica,sans-Serif" font-size="11.00" fill="#000000">[table]</text>
<polygon fill="none" stroke="#000000" points="473.5,-289.2497 473.5,-308.2497 546.5,-308.2497 546.5,-289.2497 473.5,-289.2497"/>
<text text-anchor="start" x="476.5" y="-295.3497" font-family="Helvetica,sans-Serif" font-size="11.00" fill="#000000">...</text>
<polygon fill="#ffffff" stroke="transparent" points="473.5,-270.2497 473.5,-289.2497 495.5,-289.2497 495.5,-270.2497 473.5,-270.2497"/>
<polygon fill="none" stroke="#000000" points="473.5,-270.2497 473.5,-289.2497 495.5,-289.2497 495.5,-270.2497 473.5,-270.2497"/>
<text text-anchor="start" x="476.5" y="-276.3497" font-family="Helvetica,sans-Serif" font-size="11.00" fill="#000000">&lt; 3</text>
<polygon fill="#ffffff" stroke="transparent" points="495.5,-270.2497 495.5,-289.2497 533.5,-289.2497 533.5,-270.2497 495.5,-270.2497"/>
<polygon fill="none" stroke="#000000" points="495.5,-270.2497 495.5,-289.2497 533.5,-289.2497 533.5,-270.2497 495.5,-270.2497"/>
<text text-anchor="start" x="498.3053" y="-276.3497" font-family="Helvetica,sans-Serif" font-size="11.00" fill="#000000">0 rows</text>
<polygon fill="#ffffff" stroke="transparent" points="533.5,-270.2497 533.5,-289.2497 546.5,-289.2497 546.5,-270.2497 533.5,-270.2497"/>
<polygon fill="none" stroke="#000000" points="533.5,-270.2497 533.5,-289.2497 546.5,-289.2497 546.5,-270.2497 533.5,-270.2497"/>
<text text-anchor="start" x="537.3862" y="-276.3497" font-family="Helvetica,sans-Serif" font-size="11.00" fill="#000000"> &#160;</text>
</a>
</g>
</g>
<!-- tareas&#45;&gt;contactos -->
<g id="edge18" class="edge">
<title>tareas:w&#45;&gt;contactos:e</title>
<path fill="none" stroke="#000000" d="M459.0002,-296.4861C385.3671,-276.5473 476.3491,-94.2497 382.5,-94.2497"/>
<polygon fill="#000000" stroke="#000000" points="465.5585,-297.2837 473.0653,-301.8234 469.5293,-297.7667 473.5,-298.2497 473.5,-298.2497 473.5,-298.2497 469.5293,-297.7667 473.9347,-294.676 465.5585,-297.2837 465.5585,-297.2837"/>
<ellipse fill="none" stroke="#000000" cx="462.3819" cy="-296.8974" rx="3.2" ry="3.2"/>
</g>
<!-- tareas&#45;&gt;leads -->
<g id="edge19" class="edge">
<title>tareas:w&#45;&gt;leads:e</title>
<path fill="none" stroke="#000000" d="M458.9016,-299.3285C436.9653,-302.7678 427.5522,-313.2497 399.5,-313.2497"/>
<polygon fill="#000000" stroke="#000000" points="465.5218,-298.8393 473.7653,-301.8399 469.5109,-298.5445 473.5,-298.2497 473.5,-298.2497 473.5,-298.2497 469.5109,-298.5445 473.2347,-294.6595 465.5218,-298.8393 465.5218,-298.8393"/>
<ellipse fill="none" stroke="#000000" cx="462.3305" cy="-299.0752" rx="3.2" ry="3.2"/>
</g>
<!-- tareas&#45;&gt;usuarios -->
<g id="edge20" class="edge">
<title>tareas:w&#45;&gt;usuarios:e</title>
<path fill="none" stroke="#000000" d="M459.0945,-300.8817C435.7224,-310.8077 438.786,-346.0296 407,-358.2497 349.3368,-380.4183 316.498,-396.5177 268,-358.2497 218.4934,-319.1858 272.6064,-270.8723 235,-220.2497 211.8395,-189.073 198.3381,-176.2497 159.5,-176.2497"/>
<polygon fill="#000000" stroke="#000000" points="465.6303,-299.6876 474.1471,-301.7911 469.5651,-298.9687 473.5,-298.2497 473.5,-298.2497 473.5,-298.2497 469.5651,-298.9687 472.8529,-294.7083 465.6303,-299.6876 465.6303,-299.6876"/>
<ellipse fill="none" stroke="#000000" cx="462.4824" cy="-300.2628" rx="3.2" ry="3.2"/>
</g>
</g>
</svg>
