<?xml version="1.0" encoding="UTF-8" standalone="no"?>
<!DOCTYPE svg PUBLIC "-//W3C//DTD SVG 1.1//EN"
 "http://www.w3.org/Graphics/SVG/1.1/DTD/svg11.dtd">
<!-- Generated by graphviz version 2.40.1 (20161225.0304)
 -->
<!-- Title: twoDegreesRelationshipsDiagramImplied Pages: 1 -->
<svg width="987pt" height="655pt"
 viewBox="0.00 0.00 987.00 655.20" xmlns="http://www.w3.org/2000/svg" xmlns:xlink="http://www.w3.org/1999/xlink">
<g id="graph0" class="graph" transform="scale(1 1) rotate(0) translate(4 651.2)">
<title>twoDegreesRelationshipsDiagramImplied</title>
<polygon fill="#ffffff" stroke="transparent" points="-4,4 -4,-651.2 983,-651.2 983,4 -4,4"/>
<text text-anchor="middle" x="72.4936" y="-7.3" font-family="Helvetica,sans-Serif" font-size="11.00" fill="#000000">Generated by SchemaSpy</text>
<!-- actividades -->
<g id="node1" class="node">
<title>actividades</title>
<g id="a_node1"><a xlink:href="../../tables/actividades.html" xlink:title="actividades" target="_top">
<polygon fill="#ffffff" stroke="transparent" points="402,-582.2 402,-643.2 500,-643.2 500,-582.2 402,-582.2"/>
<polygon fill="#f5f5f5" stroke="transparent" points="402,-619.7 402,-642.7 500,-642.7 500,-619.7 402,-619.7"/>
<polygon fill="none" stroke="#000000" points="402,-619.7 402,-642.7 500,-642.7 500,-619.7 402,-619.7"/>
<text text-anchor="start" x="406.9934" y="-628.8" font-family="Helvetica,sans-Serif" font-weight="bold" font-size="11.00" fill="#000000">actividades</text>
<text text-anchor="start" x="465.5219" y="-627.8" font-family="Helvetica,sans-Serif" font-size="11.00" fill="#000000">[table]</text>
<polygon fill="none" stroke="#000000" points="402,-600.7 402,-619.7 500,-619.7 500,-600.7 402,-600.7"/>
<text text-anchor="start" x="405" y="-606.8" font-family="Helvetica,sans-Serif" font-size="11.00" fill="#000000">...</text>
<polygon fill="#ffffff" stroke="transparent" points="402,-581.7 402,-600.7 432,-600.7 432,-581.7 402,-581.7"/>
<polygon fill="none" stroke="#000000" points="402,-581.7 402,-600.7 432,-600.7 432,-581.7 402,-581.7"/>
<text text-anchor="start" x="405" y="-587.8" font-family="Helvetica,sans-Serif" font-size="11.00" fill="#000000">&lt; 4</text>
<polygon fill="#ffffff" stroke="transparent" points="432,-581.7 432,-600.7 474,-600.7 474,-581.7 432,-581.7"/>
<polygon fill="none" stroke="#000000" points="432,-581.7 432,-600.7 474,-600.7 474,-581.7 432,-581.7"/>
<text text-anchor="start" x="438.6105" y="-587.8" font-family="Helvetica,sans-Serif" font-size="11.00" fill="#000000">0 rows</text>
<polygon fill="#ffffff" stroke="transparent" points="474,-581.7 474,-600.7 500,-600.7 500,-581.7 474,-581.7"/>
<polygon fill="none" stroke="#000000" points="474,-581.7 474,-600.7 500,-600.7 500,-581.7 474,-581.7"/>
<text text-anchor="start" x="481.4053" y="-587.8" font-family="Helvetica,sans-Serif" font-size="11.00" fill="#000000">2 &gt;</text>
</a>
</g>
</g>
<!-- usuarios -->
<g id="node2" class="node">
<title>usuarios</title>
<g id="a_node2"><a xlink:href="../../tables/usuarios.html" xlink:title="usuarios" target="_top">
<polygon fill="#ffffff" stroke="transparent" points="145,-96.2 145,-267.2 285,-267.2 285,-96.2 145,-96.2"/>
<polygon fill="#f5f5f5" stroke="transparent" points="145,-243.7 145,-266.7 285,-266.7 285,-243.7 145,-243.7"/>
<polygon fill="none" stroke="#000000" points="145,-243.7 145,-266.7 285,-266.7 285,-243.7 145,-243.7"/>
<text text-anchor="start" x="150" y="-252.8" font-family="Helvetica,sans-Serif" font-weight="bold" font-size="11.00" fill="#000000">usuarios</text>
<text text-anchor="start" x="250.0437" y="-251.8" font-family="Helvetica,sans-Serif" font-size="11.00" fill="#000000">[table]</text>
<polygon fill="none" stroke="#000000" points="145,-221.7 145,-243.7 285,-243.7 285,-221.7 145,-221.7"/>
<image xlink:href="../../images/primaryKeys.png" width="11px" height="12px" preserveAspectRatio="xMinYMin meet" x="150" y="-238.7"/>
<text text-anchor="start" x="165" y="-228.8" font-family="Helvetica,sans-Serif" font-size="11.00" fill="#000000">usuario_id</text>
<polygon fill="none" stroke="#000000" points="145,-199.7 145,-221.7 285,-221.7 285,-199.7 145,-199.7"/>
<image xlink:href="../../images/foreignKeys.png" width="11px" height="12px" preserveAspectRatio="xMinYMin meet" x="150" y="-216.7"/>
<text text-anchor="start" x="165" y="-206.8" font-family="Helvetica,sans-Serif" font-size="11.00" fill="#000000">persona_id</text>
<polygon fill="none" stroke="#000000" points="145,-177.7 145,-199.7 285,-199.7 285,-177.7 145,-177.7"/>
<image xlink:href="../../images/foreignKeys.png" width="11px" height="12px" preserveAspectRatio="xMinYMin meet" x="150" y="-194.7"/>
<text text-anchor="start" x="165" y="-184.8" font-family="Helvetica,sans-Serif" font-size="11.00" fill="#000000">usu_insercion_id</text>
<polygon fill="none" stroke="#000000" points="145,-155.7 145,-177.7 285,-177.7 285,-155.7 145,-155.7"/>
<image xlink:href="../../images/foreignKeys.png" width="11px" height="12px" preserveAspectRatio="xMinYMin meet" x="150" y="-172.7"/>
<text text-anchor="start" x="165" y="-162.8" font-family="Helvetica,sans-Serif" font-size="11.00" fill="#000000">usu_modificacion_id</text>
<polygon fill="none" stroke="#000000" points="145,-133.7 145,-155.7 285,-155.7 285,-133.7 145,-133.7"/>
<image xlink:href="../../images/foreignKeys.png" width="11px" height="12px" preserveAspectRatio="xMinYMin meet" x="150" y="-150.7"/>
<text text-anchor="start" x="165" y="-140.8" font-family="Helvetica,sans-Serif" font-size="11.00" fill="#000000">usu_eliminacion_id</text>
<polygon fill="none" stroke="#000000" points="145,-114.7 145,-133.7 285,-133.7 285,-114.7 145,-114.7"/>
<text text-anchor="start" x="148" y="-120.8" font-family="Helvetica,sans-Serif" font-size="11.00" fill="#000000">...</text>
<polygon fill="#ffffff" stroke="transparent" points="145,-95.7 145,-114.7 193,-114.7 193,-95.7 145,-95.7"/>
<polygon fill="none" stroke="#000000" points="145,-95.7 145,-114.7 193,-114.7 193,-95.7 145,-95.7"/>
<text text-anchor="start" x="148" y="-101.8" font-family="Helvetica,sans-Serif" font-size="11.00" fill="#000000">&lt; 4</text>
<polygon fill="#ffffff" stroke="transparent" points="193,-95.7 193,-114.7 244,-114.7 244,-95.7 193,-95.7"/>
<polygon fill="none" stroke="#000000" points="193,-95.7 193,-114.7 244,-114.7 244,-95.7 193,-95.7"/>
<text text-anchor="start" x="208.6105" y="-101.8" font-family="Helvetica,sans-Serif" font-size="11.00" fill="#000000">0 rows</text>
<polygon fill="#ffffff" stroke="transparent" points="244,-95.7 244,-114.7 285,-114.7 285,-95.7 244,-95.7"/>
<polygon fill="none" stroke="#000000" points="244,-95.7 244,-114.7 285,-114.7 285,-95.7 244,-95.7"/>
<text text-anchor="start" x="260.2904" y="-101.8" font-family="Helvetica,sans-Serif" font-size="11.00" fill="#000000">19 &gt;</text>
</a>
</g>
</g>
<!-- actividades&#45;&gt;usuarios -->
<g id="edge1" class="edge">
<title>actividades:w&#45;&gt;usuarios:e</title>
<path fill="none" stroke="#000000" d="M388.7839,-603.062C360.0318,-588.5471 345.0314,-579.7133 326,-552.7 282.2963,-490.6669 360.8823,-213.7 285,-232.7"/>
<polygon fill="#000000" stroke="#000000" points="394.8511,-606.1093 400.3842,-612.917 398.4255,-607.9046 402,-609.7 402,-609.7 402,-609.7 398.4255,-607.9046 403.6158,-606.483 394.8511,-606.1093 394.8511,-606.1093"/>
<ellipse fill="none" stroke="#000000" cx="391.9915" cy="-604.673" rx="3.2" ry="3.2"/>
</g>
<!-- actividades&#45;&gt;usuarios -->
<g id="edge2" class="edge">
<title>actividades:w&#45;&gt;usuarios:e</title>
<path fill="none" stroke="#000000" d="M387.636,-607.118C359.6292,-601.3072 344.7766,-592.3515 326,-565.7 282.2963,-503.6669 360.8823,-226.7 285,-232.7"/>
<polygon fill="#000000" stroke="#000000" points="394.1262,-608.2846 401.3631,-613.2432 398.0631,-608.9923 402,-609.7 402,-609.7 402,-609.7 398.0631,-608.9923 402.6369,-606.1568 394.1262,-608.2846 394.1262,-608.2846"/>
<ellipse fill="none" stroke="#000000" cx="390.9767" cy="-607.7185" rx="3.2" ry="3.2"/>
</g>
<!-- actividades&#45;&gt;usuarios -->
<g id="edge3" class="edge">
<title>actividades:w&#45;&gt;usuarios:e</title>
<path fill="none" stroke="#000000" d="M387.636,-611.7543C359.6292,-614.3072 344.7766,-605.3515 326,-578.7 282.2963,-516.6669 360.8823,-239.7 285,-232.7"/>
<polygon fill="#000000" stroke="#000000" points="394.0806,-610.8327 402.5097,-613.2637 398.0403,-610.2663 402,-609.7 402,-609.7 402,-609.7 398.0403,-610.2663 401.4903,-606.1363 394.0806,-610.8327 394.0806,-610.8327"/>
<ellipse fill="none" stroke="#000000" cx="390.9128" cy="-611.2857" rx="3.2" ry="3.2"/>
</g>
<!-- actividades&#45;&gt;usuarios -->
<g id="edge4" class="edge">
<title>actividades:w&#45;&gt;usuarios:e</title>
<path fill="none" stroke="#000000" d="M388.7839,-615.935C360.0318,-627.5471 345.0314,-618.7133 326,-591.7 282.2963,-529.6669 360.8823,-252.7 285,-232.7"/>
<polygon fill="#000000" stroke="#000000" points="394.7647,-613.1134 403.536,-612.9559 398.3824,-611.4067 402,-609.7 402,-609.7 402,-609.7 398.3824,-611.4067 400.464,-606.4441 394.7647,-613.1134 394.7647,-613.1134"/>
<ellipse fill="none" stroke="#000000" cx="391.8706" cy="-614.4788" rx="3.2" ry="3.2"/>
</g>
<!-- personas -->
<g id="node7" class="node">
<title>personas</title>
<g id="a_node7"><a xlink:href="../../tables/personas.html" xlink:title="personas" target="_top">
<polygon fill="#ffffff" stroke="transparent" points="8,-183.2 8,-244.2 96,-244.2 96,-183.2 8,-183.2"/>
<polygon fill="#f5f5f5" stroke="transparent" points="8,-220.7 8,-243.7 96,-243.7 96,-220.7 8,-220.7"/>
<polygon fill="none" stroke="#000000" points="8,-220.7 8,-243.7 96,-243.7 96,-220.7 8,-220.7"/>
<text text-anchor="start" x="12.8818" y="-229.8" font-family="Helvetica,sans-Serif" font-weight="bold" font-size="11.00" fill="#000000">personas</text>
<text text-anchor="start" x="61.5219" y="-228.8" font-family="Helvetica,sans-Serif" font-size="11.00" fill="#000000">[table]</text>
<polygon fill="none" stroke="#000000" points="8,-201.7 8,-220.7 96,-220.7 96,-201.7 8,-201.7"/>
<text text-anchor="start" x="11" y="-207.8" font-family="Helvetica,sans-Serif" font-size="11.00" fill="#000000">...</text>
<polygon fill="#ffffff" stroke="transparent" points="8,-182.7 8,-201.7 28,-201.7 28,-182.7 8,-182.7"/>
<polygon fill="none" stroke="#000000" points="8,-182.7 8,-201.7 28,-201.7 28,-182.7 8,-182.7"/>
<text text-anchor="start" x="11" y="-188.8" font-family="Helvetica,sans-Serif" font-size="11.00" fill="#000000"> &#160;</text>
<polygon fill="#ffffff" stroke="transparent" points="28,-182.7 28,-201.7 70,-201.7 70,-182.7 28,-182.7"/>
<polygon fill="none" stroke="#000000" points="28,-182.7 28,-201.7 70,-201.7 70,-182.7 28,-182.7"/>
<text text-anchor="start" x="34.6105" y="-188.8" font-family="Helvetica,sans-Serif" font-size="11.00" fill="#000000">0 rows</text>
<polygon fill="#ffffff" stroke="transparent" points="70,-182.7 70,-201.7 96,-201.7 96,-182.7 70,-182.7"/>
<polygon fill="none" stroke="#000000" points="70,-182.7 70,-201.7 96,-201.7 96,-182.7 70,-182.7"/>
<text text-anchor="start" x="77.4053" y="-188.8" font-family="Helvetica,sans-Serif" font-size="11.00" fill="#000000">4 &gt;</text>
</a>
</g>
</g>
<!-- usuarios&#45;&gt;personas -->
<g id="edge19" class="edge">
<title>usuarios:w&#45;&gt;personas:e</title>
<path fill="none" stroke="#000000" d="M130.4909,-210.7C119.1774,-210.7 111.9931,-210.7 96,-210.7"/>
<polygon fill="#000000" stroke="#000000" points="137,-210.7001 145,-214.3 141,-210.7 145,-210.7 145,-210.7 145,-210.7 141,-210.7 145,-207.1 137,-210.7001 137,-210.7001"/>
<ellipse fill="none" stroke="#000000" cx="133.8" cy="-210.7001" rx="3.2" ry="3.2"/>
</g>
<!-- campanas -->
<g id="node3" class="node">
<title>campanas</title>
<g id="a_node3"><a xlink:href="../../tables/campanas.html" xlink:title="campanas" target="_top">
<polygon fill="#ffffff" stroke="transparent" points="334,-228.7 334,-560.7 568,-560.7 568,-228.7 334,-228.7"/>
<polygon fill="#f5f5f5" stroke="transparent" points="336,-535.7 336,-558.7 566,-558.7 566,-535.7 336,-535.7"/>
<polygon fill="none" stroke="#000000" points="336,-535.7 336,-558.7 566,-558.7 566,-535.7 336,-535.7"/>
<text text-anchor="start" x="341" y="-544.8" font-family="Helvetica,sans-Serif" font-weight="bold" font-size="11.00" fill="#000000">campanas</text>
<text text-anchor="start" x="531.0437" y="-543.8" font-family="Helvetica,sans-Serif" font-size="11.00" fill="#000000">[table]</text>
<polygon fill="none" stroke="#000000" points="336,-513.7 336,-535.7 476,-535.7 476,-513.7 336,-513.7"/>
<image xlink:href="../../images/primaryKeys.png" width="11px" height="12px" preserveAspectRatio="xMinYMin meet" x="341" y="-530.7"/>
<text text-anchor="start" x="356" y="-520.8" font-family="Helvetica,sans-Serif" font-size="11.00" fill="#000000">campana_id</text>
<polygon fill="none" stroke="#000000" points="476,-513.7 476,-535.7 566,-535.7 566,-513.7 476,-513.7"/>
<text text-anchor="start" x="479" y="-521.4" font-family="Helvetica,sans-Serif" font-size="11.00" fill="#000000">int4[10]</text>
<polygon fill="none" stroke="#000000" points="336,-491.7 336,-513.7 476,-513.7 476,-491.7 336,-491.7"/>
<image xlink:href="../../images/foreignKeys.png" width="11px" height="12px" preserveAspectRatio="xMinYMin meet" x="341" y="-508.7"/>
<text text-anchor="start" x="356" y="-498.8" font-family="Helvetica,sans-Serif" font-size="11.00" fill="#000000">usu_asignado_id</text>
<polygon fill="none" stroke="#000000" points="476,-491.7 476,-513.7 566,-513.7 566,-491.7 476,-491.7"/>
<text text-anchor="start" x="479" y="-499.4" font-family="Helvetica,sans-Serif" font-size="11.00" fill="#000000">int4[10]</text>
<polygon fill="none" stroke="#000000" points="336,-469.7 336,-491.7 476,-491.7 476,-469.7 336,-469.7"/>
<text text-anchor="start" x="356" y="-476.8" font-family="Helvetica,sans-Serif" font-size="11.00" fill="#000000">nombre</text>
<polygon fill="none" stroke="#000000" points="476,-469.7 476,-491.7 566,-491.7 566,-469.7 476,-469.7"/>
<text text-anchor="start" x="479" y="-477.4" font-family="Helvetica,sans-Serif" font-size="11.00" fill="#000000">varchar[120]</text>
<polygon fill="none" stroke="#000000" points="336,-447.7 336,-469.7 476,-469.7 476,-447.7 336,-447.7"/>
<text text-anchor="start" x="356" y="-454.8" font-family="Helvetica,sans-Serif" font-size="11.00" fill="#000000">descripcion</text>
<polygon fill="none" stroke="#000000" points="476,-447.7 476,-469.7 566,-469.7 566,-447.7 476,-447.7"/>
<text text-anchor="start" x="478.5043" y="-455.4" font-family="Helvetica,sans-Serif" font-size="11.00" fill="#000000">text[2147483647]</text>
<polygon fill="none" stroke="#000000" points="336,-425.7 336,-447.7 476,-447.7 476,-425.7 336,-425.7"/>
<text text-anchor="start" x="356" y="-432.8" font-family="Helvetica,sans-Serif" font-size="11.00" fill="#000000">estado</text>
<polygon fill="none" stroke="#000000" points="476,-425.7 476,-447.7 566,-447.7 566,-425.7 476,-425.7"/>
<text text-anchor="start" x="479" y="-433.4" font-family="Helvetica,sans-Serif" font-size="11.00" fill="#000000">int4[10]</text>
<polygon fill="none" stroke="#000000" points="336,-403.7 336,-425.7 476,-425.7 476,-403.7 336,-403.7"/>
<text text-anchor="start" x="356" y="-410.8" font-family="Helvetica,sans-Serif" font-size="11.00" fill="#000000">fec_inicio</text>
<polygon fill="none" stroke="#000000" points="476,-403.7 476,-425.7 566,-425.7 566,-403.7 476,-403.7"/>
<text text-anchor="start" x="479" y="-411.4" font-family="Helvetica,sans-Serif" font-size="11.00" fill="#000000">date[13]</text>
<polygon fill="none" stroke="#000000" points="336,-381.7 336,-403.7 476,-403.7 476,-381.7 336,-381.7"/>
<text text-anchor="start" x="356" y="-388.8" font-family="Helvetica,sans-Serif" font-size="11.00" fill="#000000">fec_final</text>
<polygon fill="none" stroke="#000000" points="476,-381.7 476,-403.7 566,-403.7 566,-381.7 476,-381.7"/>
<text text-anchor="start" x="479" y="-389.4" font-family="Helvetica,sans-Serif" font-size="11.00" fill="#000000">date[13]</text>
<polygon fill="none" stroke="#000000" points="336,-359.7 336,-381.7 476,-381.7 476,-359.7 336,-359.7"/>
<text text-anchor="start" x="356" y="-366.8" font-family="Helvetica,sans-Serif" font-size="11.00" fill="#000000">fec_insercion</text>
<polygon fill="none" stroke="#000000" points="476,-359.7 476,-381.7 566,-381.7 566,-359.7 476,-359.7"/>
<text text-anchor="start" x="479" y="-367.4" font-family="Helvetica,sans-Serif" font-size="11.00" fill="#000000">timestamp[29,6]</text>
<polygon fill="none" stroke="#000000" points="336,-337.7 336,-359.7 476,-359.7 476,-337.7 336,-337.7"/>
<image xlink:href="../../images/foreignKeys.png" width="11px" height="12px" preserveAspectRatio="xMinYMin meet" x="341" y="-354.7"/>
<text text-anchor="start" x="356" y="-344.8" font-family="Helvetica,sans-Serif" font-size="11.00" fill="#000000">usu_insercion_id</text>
<polygon fill="none" stroke="#000000" points="476,-337.7 476,-359.7 566,-359.7 566,-337.7 476,-337.7"/>
<text text-anchor="start" x="479" y="-345.4" font-family="Helvetica,sans-Serif" font-size="11.00" fill="#000000">int4[10]</text>
<polygon fill="none" stroke="#000000" points="336,-315.7 336,-337.7 476,-337.7 476,-315.7 336,-315.7"/>
<text text-anchor="start" x="356" y="-322.8" font-family="Helvetica,sans-Serif" font-size="11.00" fill="#000000">fec_modificacion</text>
<polygon fill="none" stroke="#000000" points="476,-315.7 476,-337.7 566,-337.7 566,-315.7 476,-315.7"/>
<text text-anchor="start" x="479" y="-323.4" font-family="Helvetica,sans-Serif" font-size="11.00" fill="#000000">timestamp[29,6]</text>
<polygon fill="none" stroke="#000000" points="336,-293.7 336,-315.7 476,-315.7 476,-293.7 336,-293.7"/>
<image xlink:href="../../images/foreignKeys.png" width="11px" height="12px" preserveAspectRatio="xMinYMin meet" x="341" y="-310.7"/>
<text text-anchor="start" x="356" y="-300.8" font-family="Helvetica,sans-Serif" font-size="11.00" fill="#000000">usu_modificacion_id</text>
<polygon fill="none" stroke="#000000" points="476,-293.7 476,-315.7 566,-315.7 566,-293.7 476,-293.7"/>
<text text-anchor="start" x="479" y="-301.4" font-family="Helvetica,sans-Serif" font-size="11.00" fill="#000000">int4[10]</text>
<polygon fill="none" stroke="#000000" points="336,-271.7 336,-293.7 476,-293.7 476,-271.7 336,-271.7"/>
<text text-anchor="start" x="356" y="-278.8" font-family="Helvetica,sans-Serif" font-size="11.00" fill="#000000">fec_eliminacion</text>
<polygon fill="none" stroke="#000000" points="476,-271.7 476,-293.7 566,-293.7 566,-271.7 476,-271.7"/>
<text text-anchor="start" x="479" y="-279.4" font-family="Helvetica,sans-Serif" font-size="11.00" fill="#000000">timestamp[29,6]</text>
<polygon fill="none" stroke="#000000" points="336,-249.7 336,-271.7 476,-271.7 476,-249.7 336,-249.7"/>
<image xlink:href="../../images/foreignKeys.png" width="11px" height="12px" preserveAspectRatio="xMinYMin meet" x="341" y="-266.7"/>
<text text-anchor="start" x="356" y="-256.8" font-family="Helvetica,sans-Serif" font-size="11.00" fill="#000000">usu_eliminacion_id</text>
<polygon fill="none" stroke="#000000" points="476,-249.7 476,-271.7 566,-271.7 566,-249.7 476,-249.7"/>
<text text-anchor="start" x="479" y="-257.4" font-family="Helvetica,sans-Serif" font-size="11.00" fill="#000000">int4[10]</text>
<polygon fill="#ffffff" stroke="transparent" points="336,-230.7 336,-249.7 397,-249.7 397,-230.7 336,-230.7"/>
<polygon fill="none" stroke="#000000" points="336,-230.7 336,-249.7 397,-249.7 397,-230.7 336,-230.7"/>
<text text-anchor="start" x="339" y="-236.8" font-family="Helvetica,sans-Serif" font-size="11.00" fill="#000000">&lt; 4</text>
<polygon fill="#ffffff" stroke="transparent" points="397,-230.7 397,-249.7 476,-249.7 476,-230.7 397,-230.7"/>
<polygon fill="none" stroke="#000000" points="397,-230.7 397,-249.7 476,-249.7 476,-230.7 397,-230.7"/>
<text text-anchor="start" x="440.6105" y="-236.8" font-family="Helvetica,sans-Serif" font-size="11.00" fill="#000000">0 rows</text>
<polygon fill="#ffffff" stroke="transparent" points="476,-230.7 476,-249.7 566,-249.7 566,-230.7 476,-230.7"/>
<polygon fill="none" stroke="#000000" points="476,-230.7 476,-249.7 566,-249.7 566,-230.7 476,-230.7"/>
<text text-anchor="start" x="547.4053" y="-236.8" font-family="Helvetica,sans-Serif" font-size="11.00" fill="#000000">1 &gt;</text>
<polygon fill="none" stroke="#000000" stroke-width="2" points="335,-229.7 335,-559.7 567,-559.7 567,-229.7 335,-229.7"/>
</a>
</g>
</g>
<!-- campanas&#45;&gt;usuarios -->
<g id="edge5" class="edge">
<title>campanas:w&#45;&gt;usuarios:e</title>
<path fill="none" stroke="#000000" d="M321.6735,-501.1816C230.2533,-479.491 401.7553,-232.7 285,-232.7"/>
<polygon fill="#000000" stroke="#000000" points="328.0446,-501.8568 335.6205,-506.2799 332.0223,-502.2784 336,-502.7 336,-502.7 336,-502.7 332.0223,-502.2784 336.3795,-499.1201 328.0446,-501.8568 328.0446,-501.8568"/>
<ellipse fill="none" stroke="#000000" cx="324.8624" cy="-501.5195" rx="3.2" ry="3.2"/>
</g>
<!-- campanas&#45;&gt;usuarios -->
<g id="edge6" class="edge">
<title>campanas:w&#45;&gt;usuarios:e</title>
<path fill="none" stroke="#000000" d="M321.8987,-257.0395C309.1024,-249.4498 304.9996,-232.7 285,-232.7"/>
<polygon fill="#000000" stroke="#000000" points="328.2566,-258.6899 335.0954,-264.1845 332.1283,-259.6949 336,-260.7 336,-260.7 336,-260.7 332.1283,-259.6949 336.9046,-257.2155 328.2566,-258.6899 328.2566,-258.6899"/>
<ellipse fill="none" stroke="#000000" cx="325.1593" cy="-257.8858" rx="3.2" ry="3.2"/>
</g>
<!-- campanas&#45;&gt;usuarios -->
<g id="edge7" class="edge">
<title>campanas:w&#45;&gt;usuarios:e</title>
<path fill="none" stroke="#000000" d="M321.84,-345.1011C291.3711,-325.5216 335.3785,-232.7 285,-232.7"/>
<polygon fill="#000000" stroke="#000000" points="328.2465,-346.7294 335.1132,-352.1891 332.1233,-347.7147 336,-348.7 336,-348.7 336,-348.7 332.1233,-347.7147 336.8868,-345.2109 328.2465,-346.7294 328.2465,-346.7294"/>
<ellipse fill="none" stroke="#000000" cx="325.1451" cy="-345.9411" rx="3.2" ry="3.2"/>
</g>
<!-- campanas&#45;&gt;usuarios -->
<g id="edge8" class="edge">
<title>campanas:w&#45;&gt;usuarios:e</title>
<path fill="none" stroke="#000000" d="M322.2466,-300.1961C303.5961,-284.4335 318.2404,-232.7 285,-232.7"/>
<polygon fill="#000000" stroke="#000000" points="328.3973,-302.2102 334.8796,-308.1212 332.1986,-303.4551 336,-304.7 336,-304.7 336,-304.7 332.1986,-303.4551 337.1204,-301.2788 328.3973,-302.2102 328.3973,-302.2102"/>
<ellipse fill="none" stroke="#000000" cx="325.3562" cy="-301.2143" rx="3.2" ry="3.2"/>
</g>
<!-- casos -->
<g id="node4" class="node">
<title>casos</title>
<g id="a_node4"><a xlink:href="../../tables/casos.html" xlink:title="casos" target="_top">
<polygon fill="#ffffff" stroke="transparent" points="415.5,-38.2 415.5,-99.2 486.5,-99.2 486.5,-38.2 415.5,-38.2"/>
<polygon fill="#f5f5f5" stroke="transparent" points="416,-75.7 416,-98.7 487,-98.7 487,-75.7 416,-75.7"/>
<polygon fill="none" stroke="#000000" points="416,-75.7 416,-98.7 487,-98.7 487,-75.7 416,-75.7"/>
<text text-anchor="start" x="420.6351" y="-84.8" font-family="Helvetica,sans-Serif" font-weight="bold" font-size="11.00" fill="#000000">casos</text>
<text text-anchor="start" x="452.5219" y="-83.8" font-family="Helvetica,sans-Serif" font-size="11.00" fill="#000000">[table]</text>
<polygon fill="none" stroke="#000000" points="416,-56.7 416,-75.7 487,-75.7 487,-56.7 416,-56.7"/>
<text text-anchor="start" x="419" y="-62.8" font-family="Helvetica,sans-Serif" font-size="11.00" fill="#000000">...</text>
<polygon fill="#ffffff" stroke="transparent" points="416,-37.7 416,-56.7 437,-56.7 437,-37.7 416,-37.7"/>
<polygon fill="none" stroke="#000000" points="416,-37.7 416,-56.7 437,-56.7 437,-37.7 416,-37.7"/>
<text text-anchor="start" x="418.7027" y="-43.8" font-family="Helvetica,sans-Serif" font-size="11.00" fill="#000000">&lt; 5</text>
<polygon fill="#ffffff" stroke="transparent" points="437,-37.7 437,-56.7 475,-56.7 475,-37.7 437,-37.7"/>
<polygon fill="none" stroke="#000000" points="437,-37.7 437,-56.7 475,-56.7 475,-37.7 437,-37.7"/>
<text text-anchor="start" x="439.8053" y="-43.8" font-family="Helvetica,sans-Serif" font-size="11.00" fill="#000000">0 rows</text>
<polygon fill="#ffffff" stroke="transparent" points="475,-37.7 475,-56.7 487,-56.7 487,-37.7 475,-37.7"/>
<polygon fill="none" stroke="#000000" points="475,-37.7 475,-56.7 487,-56.7 487,-37.7 475,-37.7"/>
<text text-anchor="start" x="477.9431" y="-43.8" font-family="Helvetica,sans-Serif" font-size="11.00" fill="#000000"> &#160;</text>
</a>
</g>
</g>
<!-- casos&#45;&gt;usuarios -->
<g id="edge9" class="edge">
<title>casos:w&#45;&gt;usuarios:e</title>
<path fill="none" stroke="#000000" d="M402.147,-60.6174C367.1625,-49.9068 352.2049,-63.9845 326,-94.7 289.6928,-137.2567 340.94,-213.7 285,-232.7"/>
<polygon fill="#000000" stroke="#000000" points="408.4895,-62.9444 414.76,-69.0797 412.2448,-64.3222 416,-65.7 416,-65.7 416,-65.7 412.2448,-64.3222 417.24,-62.3203 408.4895,-62.9444 408.4895,-62.9444"/>
<ellipse fill="none" stroke="#000000" cx="405.4854" cy="-61.8422" rx="3.2" ry="3.2"/>
</g>
<!-- casos&#45;&gt;usuarios -->
<g id="edge10" class="edge">
<title>casos:w&#45;&gt;usuarios:e</title>
<path fill="none" stroke="#000000" d="M401.2309,-64.3969C366.8992,-63.155 351.9751,-77.2539 326,-107.7 289.6928,-150.2567 340.94,-226.7 285,-232.7"/>
<polygon fill="#000000" stroke="#000000" points="408.031,-64.9968 415.6836,-69.2861 412.0155,-65.3484 416,-65.7 416,-65.7 416,-65.7 412.0155,-65.3484 416.3164,-62.1139 408.031,-64.9968 408.031,-64.9968"/>
<ellipse fill="none" stroke="#000000" cx="404.8433" cy="-64.7155" rx="3.2" ry="3.2"/>
</g>
<!-- casos&#45;&gt;usuarios -->
<g id="edge11" class="edge">
<title>casos:w&#45;&gt;usuarios:e</title>
<path fill="none" stroke="#000000" d="M401.6878,-68.3506C367.0311,-76.0306 352.09,-90.1192 326,-120.7 289.6928,-163.2567 340.94,-239.7 285,-232.7"/>
<polygon fill="#000000" stroke="#000000" points="408.1338,-67.1569 416.6556,-69.2398 412.0669,-66.4284 416,-65.7 416,-65.7 416,-65.7 412.0669,-66.4284 415.3444,-62.1602 408.1338,-67.1569 408.1338,-67.1569"/>
<ellipse fill="none" stroke="#000000" cx="404.9873" cy="-67.7396" rx="3.2" ry="3.2"/>
</g>
<!-- casos&#45;&gt;usuarios -->
<g id="edge12" class="edge">
<title>casos:w&#45;&gt;usuarios:e</title>
<path fill="none" stroke="#000000" d="M402.6084,-71.8438C367.2935,-88.7836 352.3199,-102.8498 326,-133.7 289.6928,-176.2567 340.94,-252.7 285,-232.7"/>
<polygon fill="#000000" stroke="#000000" points="408.7287,-69.036 417.5012,-68.9721 412.3644,-67.368 416,-65.7 416,-65.7 416,-65.7 412.3644,-67.368 414.4988,-62.4279 408.7287,-69.036 408.7287,-69.036"/>
<ellipse fill="none" stroke="#000000" cx="405.8202" cy="-70.3704" rx="3.2" ry="3.2"/>
</g>
<!-- contactos_oportunidades -->
<g id="node5" class="node">
<title>contactos_oportunidades</title>
<g id="a_node5"><a xlink:href="../../tables/contactos_oportunidades.html" xlink:title="contactos_oportunidades" target="_top">
<polygon fill="#ffffff" stroke="transparent" points="806,-216.2 806,-277.2 971,-277.2 971,-216.2 806,-216.2"/>
<polygon fill="#f5f5f5" stroke="transparent" points="806.5,-253.7 806.5,-276.7 971.5,-276.7 971.5,-253.7 806.5,-253.7"/>
<polygon fill="none" stroke="#000000" points="806.5,-253.7 806.5,-276.7 971.5,-276.7 971.5,-253.7 806.5,-253.7"/>
<text text-anchor="start" x="811.059" y="-262.8" font-family="Helvetica,sans-Serif" font-weight="bold" font-size="11.00" fill="#000000">contactos_oportunidades</text>
<text text-anchor="start" x="937.0219" y="-261.8" font-family="Helvetica,sans-Serif" font-size="11.00" fill="#000000">[table]</text>
<polygon fill="none" stroke="#000000" points="806.5,-234.7 806.5,-253.7 971.5,-253.7 971.5,-234.7 806.5,-234.7"/>
<text text-anchor="start" x="809.5" y="-240.8" font-family="Helvetica,sans-Serif" font-size="11.00" fill="#000000">...</text>
<polygon fill="#ffffff" stroke="transparent" points="806.5,-215.7 806.5,-234.7 874.5,-234.7 874.5,-215.7 806.5,-215.7"/>
<polygon fill="none" stroke="#000000" points="806.5,-215.7 806.5,-234.7 874.5,-234.7 874.5,-215.7 806.5,-215.7"/>
<text text-anchor="start" x="809.5" y="-221.8" font-family="Helvetica,sans-Serif" font-size="11.00" fill="#000000">&lt; 2</text>
<polygon fill="#ffffff" stroke="transparent" points="874.5,-215.7 874.5,-234.7 935.5,-234.7 935.5,-215.7 874.5,-215.7"/>
<polygon fill="none" stroke="#000000" points="874.5,-215.7 874.5,-234.7 935.5,-234.7 935.5,-215.7 874.5,-215.7"/>
<text text-anchor="start" x="900.1105" y="-221.8" font-family="Helvetica,sans-Serif" font-size="11.00" fill="#000000">0 rows</text>
<polygon fill="#ffffff" stroke="transparent" points="935.5,-215.7 935.5,-234.7 971.5,-234.7 971.5,-215.7 935.5,-215.7"/>
<polygon fill="none" stroke="#000000" points="935.5,-215.7 935.5,-234.7 971.5,-234.7 971.5,-215.7 935.5,-215.7"/>
<text text-anchor="start" x="962.3862" y="-221.8" font-family="Helvetica,sans-Serif" font-size="11.00" fill="#000000"> &#160;</text>
</a>
</g>
</g>
<!-- oportunidades -->
<g id="node6" class="node">
<title>oportunidades</title>
<g id="a_node6"><a xlink:href="../../tables/oportunidades.html" xlink:title="oportunidades" target="_top">
<polygon fill="#ffffff" stroke="transparent" points="617,-85.2 617,-278.2 757,-278.2 757,-85.2 617,-85.2"/>
<polygon fill="#f5f5f5" stroke="transparent" points="617,-254.7 617,-277.7 757,-277.7 757,-254.7 617,-254.7"/>
<polygon fill="none" stroke="#000000" points="617,-254.7 617,-277.7 757,-277.7 757,-254.7 617,-254.7"/>
<text text-anchor="start" x="622" y="-263.8" font-family="Helvetica,sans-Serif" font-weight="bold" font-size="11.00" fill="#000000">oportunidades</text>
<text text-anchor="start" x="722.0437" y="-262.8" font-family="Helvetica,sans-Serif" font-size="11.00" fill="#000000">[table]</text>
<polygon fill="none" stroke="#000000" points="617,-232.7 617,-254.7 757,-254.7 757,-232.7 617,-232.7"/>
<image xlink:href="../../images/primaryKeys.png" width="11px" height="12px" preserveAspectRatio="xMinYMin meet" x="622" y="-249.7"/>
<text text-anchor="start" x="637" y="-239.8" font-family="Helvetica,sans-Serif" font-size="11.00" fill="#000000">oportunidad_id</text>
<polygon fill="none" stroke="#000000" points="617,-210.7 617,-232.7 757,-232.7 757,-210.7 617,-210.7"/>
<image xlink:href="../../images/foreignKeys.png" width="11px" height="12px" preserveAspectRatio="xMinYMin meet" x="622" y="-227.7"/>
<text text-anchor="start" x="637" y="-217.8" font-family="Helvetica,sans-Serif" font-size="11.00" fill="#000000">campana_id</text>
<polygon fill="none" stroke="#000000" points="617,-188.7 617,-210.7 757,-210.7 757,-188.7 617,-188.7"/>
<image xlink:href="../../images/foreignKeys.png" width="11px" height="12px" preserveAspectRatio="xMinYMin meet" x="622" y="-205.7"/>
<text text-anchor="start" x="637" y="-195.8" font-family="Helvetica,sans-Serif" font-size="11.00" fill="#000000">usu_asignado_id</text>
<polygon fill="none" stroke="#000000" points="617,-166.7 617,-188.7 757,-188.7 757,-166.7 617,-166.7"/>
<image xlink:href="../../images/foreignKeys.png" width="11px" height="12px" preserveAspectRatio="xMinYMin meet" x="622" y="-183.7"/>
<text text-anchor="start" x="637" y="-173.8" font-family="Helvetica,sans-Serif" font-size="11.00" fill="#000000">usu_insercion_id</text>
<polygon fill="none" stroke="#000000" points="617,-144.7 617,-166.7 757,-166.7 757,-144.7 617,-144.7"/>
<image xlink:href="../../images/foreignKeys.png" width="11px" height="12px" preserveAspectRatio="xMinYMin meet" x="622" y="-161.7"/>
<text text-anchor="start" x="637" y="-151.8" font-family="Helvetica,sans-Serif" font-size="11.00" fill="#000000">usu_modificacion_id</text>
<polygon fill="none" stroke="#000000" points="617,-122.7 617,-144.7 757,-144.7 757,-122.7 617,-122.7"/>
<image xlink:href="../../images/foreignKeys.png" width="11px" height="12px" preserveAspectRatio="xMinYMin meet" x="622" y="-139.7"/>
<text text-anchor="start" x="637" y="-129.8" font-family="Helvetica,sans-Serif" font-size="11.00" fill="#000000">usu_eliminacion_id</text>
<polygon fill="none" stroke="#000000" points="617,-103.7 617,-122.7 757,-122.7 757,-103.7 617,-103.7"/>
<text text-anchor="start" x="620" y="-109.8" font-family="Helvetica,sans-Serif" font-size="11.00" fill="#000000">...</text>
<polygon fill="#ffffff" stroke="transparent" points="617,-84.7 617,-103.7 668,-103.7 668,-84.7 617,-84.7"/>
<polygon fill="none" stroke="#000000" points="617,-84.7 617,-103.7 668,-103.7 668,-84.7 617,-84.7"/>
<text text-anchor="start" x="620" y="-90.8" font-family="Helvetica,sans-Serif" font-size="11.00" fill="#000000">&lt; 5</text>
<polygon fill="#ffffff" stroke="transparent" points="668,-84.7 668,-103.7 721,-103.7 721,-84.7 668,-84.7"/>
<polygon fill="none" stroke="#000000" points="668,-84.7 668,-103.7 721,-103.7 721,-84.7 668,-84.7"/>
<text text-anchor="start" x="685.6105" y="-90.8" font-family="Helvetica,sans-Serif" font-size="11.00" fill="#000000">0 rows</text>
<polygon fill="#ffffff" stroke="transparent" points="721,-84.7 721,-103.7 757,-103.7 757,-84.7 721,-84.7"/>
<polygon fill="none" stroke="#000000" points="721,-84.7 721,-103.7 757,-103.7 757,-84.7 721,-84.7"/>
<text text-anchor="start" x="738.4053" y="-90.8" font-family="Helvetica,sans-Serif" font-size="11.00" fill="#000000">1 &gt;</text>
</a>
</g>
</g>
<!-- contactos_oportunidades&#45;&gt;oportunidades -->
<g id="edge13" class="edge">
<title>contactos_oportunidades:w&#45;&gt;oportunidades:e</title>
<path fill="none" stroke="#000000" stroke-dasharray="5,2" d="M791.8428,-243.7C780.4139,-243.7 773.1563,-243.7 757,-243.7"/>
<polygon fill="#000000" stroke="#000000" points="798.5,-243.7001 806.5,-247.3 802.5,-243.7 806.5,-243.7 806.5,-243.7 806.5,-243.7 802.5,-243.7 806.5,-240.1 798.5,-243.7001 798.5,-243.7001"/>
<ellipse fill="none" stroke="#000000" cx="795.3" cy="-243.7001" rx="3.2" ry="3.2"/>
</g>
<!-- oportunidades&#45;&gt;usuarios -->
<g id="edge15" class="edge">
<title>oportunidades:w&#45;&gt;usuarios:e</title>
<path fill="none" stroke="#000000" d="M602.5956,-199.6743C484.6445,-199.2598 448.258,-194.2828 326,-218.7 307.1176,-222.4712 304.2553,-232.7 285,-232.7"/>
<polygon fill="#000000" stroke="#000000" points="609,-199.6857 616.9936,-203.3 613,-199.6928 617,-199.7 617,-199.7 617,-199.7 613,-199.6928 617.0064,-196.1 609,-199.6857 609,-199.6857"/>
<ellipse fill="none" stroke="#000000" cx="605.8" cy="-199.68" rx="3.2" ry="3.2"/>
</g>
<!-- oportunidades&#45;&gt;usuarios -->
<g id="edge16" class="edge">
<title>oportunidades:w&#45;&gt;usuarios:e</title>
<path fill="none" stroke="#000000" d="M602.2955,-133.3252C529.287,-130.0554 376.1488,-107.2816 326,-140.7 288.748,-165.5242 329.7655,-232.7 285,-232.7"/>
<polygon fill="#000000" stroke="#000000" points="609.0026,-133.4961 616.9082,-137.2988 613.0013,-133.598 617,-133.7 617,-133.7 617,-133.7 613.0013,-133.598 617.0918,-130.1012 609.0026,-133.4961 609.0026,-133.4961"/>
<ellipse fill="none" stroke="#000000" cx="605.8036" cy="-133.4145" rx="3.2" ry="3.2"/>
</g>
<!-- oportunidades&#45;&gt;usuarios -->
<g id="edge17" class="edge">
<title>oportunidades:w&#45;&gt;usuarios:e</title>
<path fill="none" stroke="#000000" d="M602.5666,-177.5661C484.1105,-175.3654 440.9043,-147.3941 326,-195.7 303.373,-205.2124 309.5452,-232.7 285,-232.7"/>
<polygon fill="#000000" stroke="#000000" points="609.0003,-177.6257 616.9666,-181.2998 613.0002,-177.6629 617,-177.7 617,-177.7 617,-177.7 613.0002,-177.6629 617.0334,-174.1002 609.0003,-177.6257 609.0003,-177.6257"/>
<ellipse fill="none" stroke="#000000" cx="605.8005" cy="-177.596" rx="3.2" ry="3.2"/>
</g>
<!-- oportunidades&#45;&gt;usuarios -->
<g id="edge18" class="edge">
<title>oportunidades:w&#45;&gt;usuarios:e</title>
<path fill="none" stroke="#000000" d="M602.3196,-155.3936C529.5321,-152.7255 378.0188,-134.2515 326,-164.7 295.5432,-182.5274 320.2907,-232.7 285,-232.7"/>
<polygon fill="#000000" stroke="#000000" points="609.0017,-155.533 616.9248,-159.2992 613.0009,-155.6165 617,-155.7 617,-155.7 617,-155.7 613.0009,-155.6165 617.0752,-152.1008 609.0017,-155.533 609.0017,-155.533"/>
<ellipse fill="none" stroke="#000000" cx="605.8024" cy="-155.4662" rx="3.2" ry="3.2"/>
</g>
<!-- oportunidades&#45;&gt;campanas -->
<g id="edge14" class="edge">
<title>oportunidades:w&#45;&gt;campanas:e</title>
<path fill="none" stroke="#000000" d="M602.5959,-223.0509C497.245,-244.9095 697.2265,-524.7 566,-524.7"/>
<polygon fill="#000000" stroke="#000000" points="609.035,-222.4471 617.3362,-225.2843 613.0175,-222.0735 617,-221.7 617,-221.7 617,-221.7 613.0175,-222.0735 616.6638,-218.1157 609.035,-222.4471 609.035,-222.4471"/>
<ellipse fill="none" stroke="#000000" cx="605.8489" cy="-222.7459" rx="3.2" ry="3.2"/>
</g>
</g>
</svg>
