<?xml version="1.0" encoding="UTF-8" standalone="no"?>
<!DOCTYPE svg PUBLIC "-//W3C//DTD SVG 1.1//EN"
 "http://www.w3.org/Graphics/SVG/1.1/DTD/svg11.dtd">
<!-- Generated by graphviz version 2.40.1 (20161225.0304)
 -->
<!-- Title: oneDegreeRelationshipsDiagram Pages: 1 -->
<svg width="415pt" height="457pt"
 viewBox="0.00 0.00 415.00 457.20" xmlns="http://www.w3.org/2000/svg" xmlns:xlink="http://www.w3.org/1999/xlink">
<g id="graph0" class="graph" transform="scale(1 1) rotate(0) translate(4 453.2)">
<title>oneDegreeRelationshipsDiagram</title>
<polygon fill="#ffffff" stroke="transparent" points="-4,4 -4,-453.2 411,-453.2 411,4 -4,4"/>
<text text-anchor="middle" x="72.4936" y="-7.3" font-family="Helvetica,sans-Serif" font-size="11.00" fill="#000000">Generated by SchemaSpy</text>
<!-- leads -->
<g id="node1" class="node">
<title>leads</title>
<g id="a_node1"><a xlink:href="../../tables/leads.html" xlink:title="leads" target="_top">
<polygon fill="#ffffff" stroke="transparent" points="276,-252.2 276,-445.2 399,-445.2 399,-252.2 276,-252.2"/>
<polygon fill="#f5f5f5" stroke="transparent" points="276.5,-421.7 276.5,-444.7 399.5,-444.7 399.5,-421.7 276.5,-421.7"/>
<polygon fill="none" stroke="#000000" points="276.5,-421.7 276.5,-444.7 399.5,-444.7 399.5,-421.7 276.5,-421.7"/>
<text text-anchor="start" x="281.5" y="-430.8" font-family="Helvetica,sans-Serif" font-weight="bold" font-size="11.00" fill="#000000">leads</text>
<text text-anchor="start" x="364.5437" y="-429.8" font-family="Helvetica,sans-Serif" font-size="11.00" fill="#000000">[table]</text>
<polygon fill="none" stroke="#000000" points="276.5,-399.7 276.5,-421.7 399.5,-421.7 399.5,-399.7 276.5,-399.7"/>
<image xlink:href="../../images/primaryKeys.png" width="11px" height="12px" preserveAspectRatio="xMinYMin meet" x="281.5" y="-416.7"/>
<text text-anchor="start" x="296.5" y="-406.8" font-family="Helvetica,sans-Serif" font-size="11.00" fill="#000000">lead_id</text>
<polygon fill="none" stroke="#000000" points="276.5,-377.7 276.5,-399.7 399.5,-399.7 399.5,-377.7 276.5,-377.7"/>
<image xlink:href="../../images/foreignKeys.png" width="11px" height="12px" preserveAspectRatio="xMinYMin meet" x="281.5" y="-394.7"/>
<text text-anchor="start" x="296.5" y="-384.8" font-family="Helvetica,sans-Serif" font-size="11.00" fill="#000000">usu_asignado_id</text>
<polygon fill="none" stroke="#000000" points="276.5,-355.7 276.5,-377.7 399.5,-377.7 399.5,-355.7 276.5,-355.7"/>
<image xlink:href="../../images/foreignKeys.png" width="11px" height="12px" preserveAspectRatio="xMinYMin meet" x="281.5" y="-372.7"/>
<text text-anchor="start" x="296.5" y="-362.8" font-family="Helvetica,sans-Serif" font-size="11.00" fill="#000000">campana_id</text>
<polygon fill="none" stroke="#000000" points="276.5,-333.7 276.5,-355.7 399.5,-355.7 399.5,-333.7 276.5,-333.7"/>
<image xlink:href="../../images/foreignKeys.png" width="11px" height="12px" preserveAspectRatio="xMinYMin meet" x="281.5" y="-350.7"/>
<text text-anchor="start" x="296.5" y="-340.8" font-family="Helvetica,sans-Serif" font-size="11.00" fill="#000000">persona_id</text>
<polygon fill="none" stroke="#000000" points="276.5,-311.7 276.5,-333.7 399.5,-333.7 399.5,-311.7 276.5,-311.7"/>
<image xlink:href="../../images/foreignKeys.png" width="11px" height="12px" preserveAspectRatio="xMinYMin meet" x="281.5" y="-328.7"/>
<text text-anchor="start" x="296.5" y="-318.8" font-family="Helvetica,sans-Serif" font-size="11.00" fill="#000000">curso_id</text>
<polygon fill="none" stroke="#000000" points="276.5,-289.7 276.5,-311.7 399.5,-311.7 399.5,-289.7 276.5,-289.7"/>
<image xlink:href="../../images/foreignKeys.png" width="11px" height="12px" preserveAspectRatio="xMinYMin meet" x="281.5" y="-306.7"/>
<text text-anchor="start" x="296.5" y="-296.8" font-family="Helvetica,sans-Serif" font-size="11.00" fill="#000000">ciclo_id</text>
<polygon fill="none" stroke="#000000" points="276.5,-270.7 276.5,-289.7 399.5,-289.7 399.5,-270.7 276.5,-270.7"/>
<text text-anchor="start" x="279.5" y="-276.8" font-family="Helvetica,sans-Serif" font-size="11.00" fill="#000000">...</text>
<polygon fill="#ffffff" stroke="transparent" points="276.5,-251.7 276.5,-270.7 318.5,-270.7 318.5,-251.7 276.5,-251.7"/>
<polygon fill="none" stroke="#000000" points="276.5,-251.7 276.5,-270.7 318.5,-270.7 318.5,-251.7 276.5,-251.7"/>
<text text-anchor="start" x="279.5" y="-257.8" font-family="Helvetica,sans-Serif" font-size="11.00" fill="#000000">&lt; 5</text>
<polygon fill="#ffffff" stroke="transparent" points="318.5,-251.7 318.5,-270.7 367.5,-270.7 367.5,-251.7 318.5,-251.7"/>
<polygon fill="none" stroke="#000000" points="318.5,-251.7 318.5,-270.7 367.5,-270.7 367.5,-251.7 318.5,-251.7"/>
<text text-anchor="start" x="332.1105" y="-257.8" font-family="Helvetica,sans-Serif" font-size="11.00" fill="#000000">4 rows</text>
<polygon fill="#ffffff" stroke="transparent" points="367.5,-251.7 367.5,-270.7 399.5,-270.7 399.5,-251.7 367.5,-251.7"/>
<polygon fill="none" stroke="#000000" points="367.5,-251.7 367.5,-270.7 399.5,-270.7 399.5,-251.7 367.5,-251.7"/>
<text text-anchor="start" x="380.9053" y="-257.8" font-family="Helvetica,sans-Serif" font-size="11.00" fill="#000000">3 &gt;</text>
</a>
</g>
</g>
<!-- campanas -->
<g id="node2" class="node">
<title>campanas</title>
<g id="a_node2"><a xlink:href="../../tables/campanas.html" xlink:title="campanas" target="_top">
<polygon fill="#ffffff" stroke="transparent" points="8,-62.7 8,-306.7 227,-306.7 227,-62.7 8,-62.7"/>
<polygon fill="#f5f5f5" stroke="transparent" points="10.5,-281.7 10.5,-304.7 225.5,-304.7 225.5,-281.7 10.5,-281.7"/>
<polygon fill="none" stroke="#000000" points="10.5,-281.7 10.5,-304.7 225.5,-304.7 225.5,-281.7 10.5,-281.7"/>
<text text-anchor="start" x="15.5" y="-290.8" font-family="Helvetica,sans-Serif" font-weight="bold" font-size="11.00" fill="#000000">campanas</text>
<text text-anchor="start" x="190.5437" y="-289.8" font-family="Helvetica,sans-Serif" font-size="11.00" fill="#000000">[table]</text>
<polygon fill="none" stroke="#000000" points="10.5,-259.7 10.5,-281.7 133.5,-281.7 133.5,-259.7 10.5,-259.7"/>
<image xlink:href="../../images/primaryKeys.png" width="11px" height="12px" preserveAspectRatio="xMinYMin meet" x="15.5" y="-276.7"/>
<text text-anchor="start" x="30.5" y="-266.8" font-family="Helvetica,sans-Serif" font-size="11.00" fill="#000000">campana_id</text>
<polygon fill="none" stroke="#000000" points="133.5,-259.7 133.5,-281.7 225.5,-281.7 225.5,-259.7 133.5,-259.7"/>
<text text-anchor="start" x="136.5" y="-267.4" font-family="Helvetica,sans-Serif" font-size="11.00" fill="#000000">serial[10]</text>
<polygon fill="none" stroke="#000000" points="10.5,-237.7 10.5,-259.7 133.5,-259.7 133.5,-237.7 10.5,-237.7"/>
<text text-anchor="start" x="30.5" y="-244.8" font-family="Helvetica,sans-Serif" font-size="11.00" fill="#000000">nombre</text>
<polygon fill="none" stroke="#000000" points="133.5,-237.7 133.5,-259.7 225.5,-259.7 225.5,-237.7 133.5,-237.7"/>
<text text-anchor="start" x="136.5" y="-245.4" font-family="Helvetica,sans-Serif" font-size="11.00" fill="#000000">varchar[255]</text>
<polygon fill="none" stroke="#000000" points="10.5,-215.7 10.5,-237.7 133.5,-237.7 133.5,-215.7 10.5,-215.7"/>
<text text-anchor="start" x="30.5" y="-222.8" font-family="Helvetica,sans-Serif" font-size="11.00" fill="#000000">descripcion</text>
<polygon fill="none" stroke="#000000" points="133.5,-215.7 133.5,-237.7 225.5,-237.7 225.5,-215.7 133.5,-215.7"/>
<text text-anchor="start" x="136.5" y="-223.4" font-family="Helvetica,sans-Serif" font-size="11.00" fill="#000000">text[2147483647]</text>
<polygon fill="none" stroke="#000000" points="10.5,-193.7 10.5,-215.7 133.5,-215.7 133.5,-193.7 10.5,-193.7"/>
<text text-anchor="start" x="30.5" y="-200.8" font-family="Helvetica,sans-Serif" font-size="11.00" fill="#000000">fec_inicio</text>
<polygon fill="none" stroke="#000000" points="133.5,-193.7 133.5,-215.7 225.5,-215.7 225.5,-193.7 133.5,-193.7"/>
<text text-anchor="start" x="136.1023" y="-201.4" font-family="Helvetica,sans-Serif" font-size="11.00" fill="#000000">timestamptz[35,6]</text>
<polygon fill="none" stroke="#000000" points="10.5,-171.7 10.5,-193.7 133.5,-193.7 133.5,-171.7 10.5,-171.7"/>
<text text-anchor="start" x="30.5" y="-178.8" font-family="Helvetica,sans-Serif" font-size="11.00" fill="#000000">fec_fin</text>
<polygon fill="none" stroke="#000000" points="133.5,-171.7 133.5,-193.7 225.5,-193.7 225.5,-171.7 133.5,-171.7"/>
<text text-anchor="start" x="136.1023" y="-179.4" font-family="Helvetica,sans-Serif" font-size="11.00" fill="#000000">timestamptz[35,6]</text>
<polygon fill="none" stroke="#000000" points="10.5,-149.7 10.5,-171.7 133.5,-171.7 133.5,-149.7 10.5,-149.7"/>
<text text-anchor="start" x="30.5" y="-156.8" font-family="Helvetica,sans-Serif" font-size="11.00" fill="#000000">usu_insercion</text>
<polygon fill="none" stroke="#000000" points="133.5,-149.7 133.5,-171.7 225.5,-171.7 225.5,-149.7 133.5,-149.7"/>
<text text-anchor="start" x="136.5" y="-157.4" font-family="Helvetica,sans-Serif" font-size="11.00" fill="#000000">varchar[20]</text>
<polygon fill="none" stroke="#000000" points="10.5,-127.7 10.5,-149.7 133.5,-149.7 133.5,-127.7 10.5,-127.7"/>
<text text-anchor="start" x="30.5" y="-134.8" font-family="Helvetica,sans-Serif" font-size="11.00" fill="#000000">fec_insercion</text>
<polygon fill="none" stroke="#000000" points="133.5,-127.7 133.5,-149.7 225.5,-149.7 225.5,-127.7 133.5,-127.7"/>
<text text-anchor="start" x="136.1023" y="-135.4" font-family="Helvetica,sans-Serif" font-size="11.00" fill="#000000">timestamptz[35,6]</text>
<polygon fill="none" stroke="#000000" points="10.5,-105.7 10.5,-127.7 133.5,-127.7 133.5,-105.7 10.5,-105.7"/>
<text text-anchor="start" x="30.5" y="-112.8" font-family="Helvetica,sans-Serif" font-size="11.00" fill="#000000">fec_modificacion</text>
<polygon fill="none" stroke="#000000" points="133.5,-105.7 133.5,-127.7 225.5,-127.7 225.5,-105.7 133.5,-105.7"/>
<text text-anchor="start" x="136.1023" y="-113.4" font-family="Helvetica,sans-Serif" font-size="11.00" fill="#000000">timestamptz[35,6]</text>
<polygon fill="none" stroke="#000000" points="10.5,-83.7 10.5,-105.7 133.5,-105.7 133.5,-83.7 10.5,-83.7"/>
<text text-anchor="start" x="30.5" y="-90.8" font-family="Helvetica,sans-Serif" font-size="11.00" fill="#000000">usu_modificacion</text>
<polygon fill="none" stroke="#000000" points="133.5,-83.7 133.5,-105.7 225.5,-105.7 225.5,-83.7 133.5,-83.7"/>
<text text-anchor="start" x="136.5" y="-91.4" font-family="Helvetica,sans-Serif" font-size="11.00" fill="#000000">varchar[20]</text>
<polygon fill="#ffffff" stroke="transparent" points="10.5,-64.7 10.5,-83.7 63.5,-83.7 63.5,-64.7 10.5,-64.7"/>
<polygon fill="none" stroke="#000000" points="10.5,-64.7 10.5,-83.7 63.5,-83.7 63.5,-64.7 10.5,-64.7"/>
<text text-anchor="start" x="13.5" y="-70.8" font-family="Helvetica,sans-Serif" font-size="11.00" fill="#000000">&lt; 0</text>
<polygon fill="#ffffff" stroke="transparent" points="63.5,-64.7 63.5,-83.7 133.5,-83.7 133.5,-64.7 63.5,-64.7"/>
<polygon fill="none" stroke="#000000" points="63.5,-64.7 63.5,-83.7 133.5,-83.7 133.5,-64.7 63.5,-64.7"/>
<text text-anchor="start" x="98.1105" y="-70.8" font-family="Helvetica,sans-Serif" font-size="11.00" fill="#000000">0 rows</text>
<polygon fill="#ffffff" stroke="transparent" points="133.5,-64.7 133.5,-83.7 225.5,-83.7 225.5,-64.7 133.5,-64.7"/>
<polygon fill="none" stroke="#000000" points="133.5,-64.7 133.5,-83.7 225.5,-83.7 225.5,-64.7 133.5,-64.7"/>
<text text-anchor="start" x="206.9053" y="-70.8" font-family="Helvetica,sans-Serif" font-size="11.00" fill="#000000">2 &gt;</text>
<polygon fill="none" stroke="#000000" stroke-width="2" points="9,-63.7 9,-305.7 226,-305.7 226,-63.7 9,-63.7"/>
</a>
</g>
</g>
<!-- leads&#45;&gt;campanas -->
<g id="edge1" class="edge">
<title>leads:w&#45;&gt;campanas:e</title>
<path fill="none" stroke="#000000" d="M262.4189,-362.575C238.1253,-344.2 267.7746,-270.7 225.5,-270.7"/>
<polygon fill="#000000" stroke="#000000" points="268.8226,-364.4509 275.4879,-370.1548 272.6613,-365.5755 276.5,-366.7 276.5,-366.7 276.5,-366.7 272.6613,-365.5755 277.5121,-363.2452 268.8226,-364.4509 268.8226,-364.4509"/>
<ellipse fill="none" stroke="#000000" cx="265.7517" cy="-363.5513" rx="3.2" ry="3.2"/>
</g>
<!-- oportunidades -->
<g id="node3" class="node">
<title>oportunidades</title>
<g id="a_node3"><a xlink:href="../../tables/oportunidades.html" xlink:title="oportunidades" target="_top">
<polygon fill="#ffffff" stroke="transparent" points="276,-38.2 276,-231.2 399,-231.2 399,-38.2 276,-38.2"/>
<polygon fill="#f5f5f5" stroke="transparent" points="276.5,-207.7 276.5,-230.7 399.5,-230.7 399.5,-207.7 276.5,-207.7"/>
<polygon fill="none" stroke="#000000" points="276.5,-207.7 276.5,-230.7 399.5,-230.7 399.5,-207.7 276.5,-207.7"/>
<text text-anchor="start" x="281.5" y="-216.8" font-family="Helvetica,sans-Serif" font-weight="bold" font-size="11.00" fill="#000000">oportunidades</text>
<text text-anchor="start" x="364.5437" y="-215.8" font-family="Helvetica,sans-Serif" font-size="11.00" fill="#000000">[table]</text>
<polygon fill="none" stroke="#000000" points="276.5,-185.7 276.5,-207.7 399.5,-207.7 399.5,-185.7 276.5,-185.7"/>
<image xlink:href="../../images/primaryKeys.png" width="11px" height="12px" preserveAspectRatio="xMinYMin meet" x="281.5" y="-202.7"/>
<text text-anchor="start" x="296.5" y="-192.8" font-family="Helvetica,sans-Serif" font-size="11.00" fill="#000000">oportunidad_id</text>
<polygon fill="none" stroke="#000000" points="276.5,-163.7 276.5,-185.7 399.5,-185.7 399.5,-163.7 276.5,-163.7"/>
<image xlink:href="../../images/foreignKeys.png" width="11px" height="12px" preserveAspectRatio="xMinYMin meet" x="281.5" y="-180.7"/>
<text text-anchor="start" x="296.5" y="-170.8" font-family="Helvetica,sans-Serif" font-size="11.00" fill="#000000">campana_id</text>
<polygon fill="none" stroke="#000000" points="276.5,-141.7 276.5,-163.7 399.5,-163.7 399.5,-141.7 276.5,-141.7"/>
<image xlink:href="../../images/foreignKeys.png" width="11px" height="12px" preserveAspectRatio="xMinYMin meet" x="281.5" y="-158.7"/>
<text text-anchor="start" x="296.5" y="-148.8" font-family="Helvetica,sans-Serif" font-size="11.00" fill="#000000">contacto_id</text>
<polygon fill="none" stroke="#000000" points="276.5,-119.7 276.5,-141.7 399.5,-141.7 399.5,-119.7 276.5,-119.7"/>
<image xlink:href="../../images/foreignKeys.png" width="11px" height="12px" preserveAspectRatio="xMinYMin meet" x="281.5" y="-136.7"/>
<text text-anchor="start" x="296.5" y="-126.8" font-family="Helvetica,sans-Serif" font-size="11.00" fill="#000000">curso_id</text>
<polygon fill="none" stroke="#000000" points="276.5,-97.7 276.5,-119.7 399.5,-119.7 399.5,-97.7 276.5,-97.7"/>
<image xlink:href="../../images/foreignKeys.png" width="11px" height="12px" preserveAspectRatio="xMinYMin meet" x="281.5" y="-114.7"/>
<text text-anchor="start" x="296.5" y="-104.8" font-family="Helvetica,sans-Serif" font-size="11.00" fill="#000000">usu_asignado_id</text>
<polygon fill="none" stroke="#000000" points="276.5,-75.7 276.5,-97.7 399.5,-97.7 399.5,-75.7 276.5,-75.7"/>
<image xlink:href="../../images/foreignKeys.png" width="11px" height="12px" preserveAspectRatio="xMinYMin meet" x="281.5" y="-92.7"/>
<text text-anchor="start" x="296.5" y="-82.8" font-family="Helvetica,sans-Serif" font-size="11.00" fill="#000000">ciclo_id</text>
<polygon fill="none" stroke="#000000" points="276.5,-56.7 276.5,-75.7 399.5,-75.7 399.5,-56.7 276.5,-56.7"/>
<text text-anchor="start" x="279.5" y="-62.8" font-family="Helvetica,sans-Serif" font-size="11.00" fill="#000000">...</text>
<polygon fill="#ffffff" stroke="transparent" points="276.5,-37.7 276.5,-56.7 315.5,-56.7 315.5,-37.7 276.5,-37.7"/>
<polygon fill="none" stroke="#000000" points="276.5,-37.7 276.5,-56.7 315.5,-56.7 315.5,-37.7 276.5,-37.7"/>
<text text-anchor="start" x="279.5" y="-43.8" font-family="Helvetica,sans-Serif" font-size="11.00" fill="#000000">&lt; 5</text>
<polygon fill="#ffffff" stroke="transparent" points="315.5,-37.7 315.5,-56.7 368.5,-56.7 368.5,-37.7 315.5,-37.7"/>
<polygon fill="none" stroke="#000000" points="315.5,-37.7 315.5,-56.7 368.5,-56.7 368.5,-37.7 315.5,-37.7"/>
<text text-anchor="start" x="326.9956" y="-43.8" font-family="Helvetica,sans-Serif" font-size="11.00" fill="#000000">14 rows</text>
<polygon fill="#ffffff" stroke="transparent" points="368.5,-37.7 368.5,-56.7 399.5,-56.7 399.5,-37.7 368.5,-37.7"/>
<polygon fill="none" stroke="#000000" points="368.5,-37.7 368.5,-56.7 399.5,-56.7 399.5,-37.7 368.5,-37.7"/>
<text text-anchor="start" x="380.9053" y="-43.8" font-family="Helvetica,sans-Serif" font-size="11.00" fill="#000000">1 &gt;</text>
</a>
</g>
</g>
<!-- oportunidades&#45;&gt;campanas -->
<g id="edge2" class="edge">
<title>oportunidades:w&#45;&gt;campanas:e</title>
<path fill="none" stroke="#000000" d="M262.4189,-178.825C238.1253,-197.2 267.7746,-270.7 225.5,-270.7"/>
<polygon fill="#000000" stroke="#000000" points="268.8226,-176.9491 277.5121,-178.1548 272.6613,-175.8245 276.5,-174.7 276.5,-174.7 276.5,-174.7 272.6613,-175.8245 275.4879,-171.2452 268.8226,-176.9491 268.8226,-176.9491"/>
<ellipse fill="none" stroke="#000000" cx="265.7517" cy="-177.8487" rx="3.2" ry="3.2"/>
</g>
</g>
</svg>
