<?xml version="1.0" encoding="UTF-8" standalone="no"?>
<!DOCTYPE svg PUBLIC "-//W3C//DTD SVG 1.1//EN"
 "http://www.w3.org/Graphics/SVG/1.1/DTD/svg11.dtd">
<!-- Generated by graphviz version 2.40.1 (20161225.0304)
 -->
<!-- Title: twoDegreesRelationshipsDiagram Pages: 1 -->
<svg width="748pt" height="637pt"
 viewBox="0.00 0.00 748.00 636.73" xmlns="http://www.w3.org/2000/svg" xmlns:xlink="http://www.w3.org/1999/xlink">
<g id="graph0" class="graph" transform="scale(1 1) rotate(0) translate(4 632.7308)">
<title>twoDegreesRelationshipsDiagram</title>
<polygon fill="#ffffff" stroke="transparent" points="-4,4 -4,-632.7308 744,-632.7308 744,4 -4,4"/>
<text text-anchor="middle" x="72.4936" y="-7.3" font-family="Helvetica,sans-Serif" font-size="11.00" fill="#000000">Generated by SchemaSpy</text>
<!-- casos -->
<g id="node1" class="node">
<title>casos</title>
<g id="a_node1"><a xlink:href="../../tables/casos.html" xlink:title="casos" target="_top">
<polygon fill="#ffffff" stroke="transparent" points="623,-331.3168 623,-392.3168 694,-392.3168 694,-331.3168 623,-331.3168"/>
<polygon fill="#f5f5f5" stroke="transparent" points="623.5,-368.8168 623.5,-391.8168 694.5,-391.8168 694.5,-368.8168 623.5,-368.8168"/>
<polygon fill="none" stroke="#000000" points="623.5,-368.8168 623.5,-391.8168 694.5,-391.8168 694.5,-368.8168 623.5,-368.8168"/>
<text text-anchor="start" x="628.1351" y="-377.9168" font-family="Helvetica,sans-Serif" font-weight="bold" font-size="11.00" fill="#000000">casos</text>
<text text-anchor="start" x="660.0219" y="-376.9168" font-family="Helvetica,sans-Serif" font-size="11.00" fill="#000000">[table]</text>
<polygon fill="none" stroke="#000000" points="623.5,-349.8168 623.5,-368.8168 694.5,-368.8168 694.5,-349.8168 623.5,-349.8168"/>
<text text-anchor="start" x="626.5" y="-355.9168" font-family="Helvetica,sans-Serif" font-size="11.00" fill="#000000">...</text>
<polygon fill="#ffffff" stroke="transparent" points="623.5,-330.8168 623.5,-349.8168 644.5,-349.8168 644.5,-330.8168 623.5,-330.8168"/>
<polygon fill="none" stroke="#000000" points="623.5,-330.8168 623.5,-349.8168 644.5,-349.8168 644.5,-330.8168 623.5,-330.8168"/>
<text text-anchor="start" x="626.2026" y="-336.9168" font-family="Helvetica,sans-Serif" font-size="11.00" fill="#000000">&lt; 3</text>
<polygon fill="#ffffff" stroke="transparent" points="644.5,-330.8168 644.5,-349.8168 682.5,-349.8168 682.5,-330.8168 644.5,-330.8168"/>
<polygon fill="none" stroke="#000000" points="644.5,-330.8168 644.5,-349.8168 682.5,-349.8168 682.5,-330.8168 644.5,-330.8168"/>
<text text-anchor="start" x="647.3053" y="-336.9168" font-family="Helvetica,sans-Serif" font-size="11.00" fill="#000000">0 rows</text>
<polygon fill="#ffffff" stroke="transparent" points="682.5,-330.8168 682.5,-349.8168 694.5,-349.8168 694.5,-330.8168 682.5,-330.8168"/>
<polygon fill="none" stroke="#000000" points="682.5,-330.8168 682.5,-349.8168 694.5,-349.8168 694.5,-330.8168 682.5,-330.8168"/>
<text text-anchor="start" x="685.4431" y="-336.9168" font-family="Helvetica,sans-Serif" font-size="11.00" fill="#000000"> &#160;</text>
</a>
</g>
</g>
<!-- contactos -->
<g id="node2" class="node">
<title>contactos</title>
<g id="a_node2"><a xlink:href="../../tables/contactos.html" xlink:title="contactos" target="_top">
<polygon fill="#ffffff" stroke="transparent" points="209.5,-551.3168 209.5,-612.3168 299.5,-612.3168 299.5,-551.3168 209.5,-551.3168"/>
<polygon fill="#f5f5f5" stroke="transparent" points="209.5,-588.8168 209.5,-611.8168 299.5,-611.8168 299.5,-588.8168 209.5,-588.8168"/>
<polygon fill="none" stroke="#000000" points="209.5,-588.8168 209.5,-611.8168 299.5,-611.8168 299.5,-588.8168 209.5,-588.8168"/>
<text text-anchor="start" x="214.4633" y="-597.9168" font-family="Helvetica,sans-Serif" font-weight="bold" font-size="11.00" fill="#000000">contactos</text>
<text text-anchor="start" x="265.0219" y="-596.9168" font-family="Helvetica,sans-Serif" font-size="11.00" fill="#000000">[table]</text>
<polygon fill="none" stroke="#000000" points="209.5,-569.8168 209.5,-588.8168 299.5,-588.8168 299.5,-569.8168 209.5,-569.8168"/>
<text text-anchor="start" x="212.5" y="-575.9168" font-family="Helvetica,sans-Serif" font-size="11.00" fill="#000000">...</text>
<polygon fill="#ffffff" stroke="transparent" points="209.5,-550.8168 209.5,-569.8168 235.5,-569.8168 235.5,-550.8168 209.5,-550.8168"/>
<polygon fill="none" stroke="#000000" points="209.5,-550.8168 209.5,-569.8168 235.5,-569.8168 235.5,-550.8168 209.5,-550.8168"/>
<text text-anchor="start" x="212.5" y="-556.9168" font-family="Helvetica,sans-Serif" font-size="11.00" fill="#000000">&lt; 2</text>
<polygon fill="#ffffff" stroke="transparent" points="235.5,-550.8168 235.5,-569.8168 275.5,-569.8168 275.5,-550.8168 235.5,-550.8168"/>
<polygon fill="none" stroke="#000000" points="235.5,-550.8168 235.5,-569.8168 275.5,-569.8168 275.5,-550.8168 235.5,-550.8168"/>
<text text-anchor="start" x="240.1105" y="-556.9168" font-family="Helvetica,sans-Serif" font-size="11.00" fill="#000000">5 rows</text>
<polygon fill="#ffffff" stroke="transparent" points="275.5,-550.8168 275.5,-569.8168 299.5,-569.8168 299.5,-550.8168 275.5,-550.8168"/>
<polygon fill="none" stroke="#000000" points="275.5,-550.8168 275.5,-569.8168 299.5,-569.8168 299.5,-550.8168 275.5,-550.8168"/>
<text text-anchor="start" x="280.9053" y="-556.9168" font-family="Helvetica,sans-Serif" font-size="11.00" fill="#000000">5 &gt;</text>
</a>
</g>
</g>
<!-- casos&#45;&gt;contactos -->
<g id="edge1" class="edge">
<title>casos:w&#45;&gt;contactos:e</title>
<path fill="none" stroke="#000000" d="M609.7031,-364.113C572.7504,-395.6971 583.4727,-558.7768 544,-586.8168 455.3628,-649.7813 408.2248,-578.8168 299.5,-578.8168"/>
<polygon fill="#000000" stroke="#000000" points="616.0314,-361.6838 624.7902,-362.1777 619.7657,-360.2503 623.5,-358.8168 623.5,-358.8168 623.5,-358.8168 619.7657,-360.2503 622.2098,-355.4559 616.0314,-361.6838 616.0314,-361.6838"/>
<ellipse fill="none" stroke="#000000" cx="613.0439" cy="-362.8306" rx="3.2" ry="3.2"/>
</g>
<!-- leads -->
<g id="node3" class="node">
<title>leads</title>
<g id="a_node3"><a xlink:href="../../tables/leads.html" xlink:title="leads" target="_top">
<polygon fill="#ffffff" stroke="transparent" points="413,-118.3168 413,-311.3168 536,-311.3168 536,-118.3168 413,-118.3168"/>
<polygon fill="#f5f5f5" stroke="transparent" points="413.5,-287.8168 413.5,-310.8168 536.5,-310.8168 536.5,-287.8168 413.5,-287.8168"/>
<polygon fill="none" stroke="#000000" points="413.5,-287.8168 413.5,-310.8168 536.5,-310.8168 536.5,-287.8168 413.5,-287.8168"/>
<text text-anchor="start" x="418.5" y="-296.9168" font-family="Helvetica,sans-Serif" font-weight="bold" font-size="11.00" fill="#000000">leads</text>
<text text-anchor="start" x="501.5437" y="-295.9168" font-family="Helvetica,sans-Serif" font-size="11.00" fill="#000000">[table]</text>
<polygon fill="none" stroke="#000000" points="413.5,-265.8168 413.5,-287.8168 536.5,-287.8168 536.5,-265.8168 413.5,-265.8168"/>
<image xlink:href="../../images/primaryKeys.png" width="11px" height="12px" preserveAspectRatio="xMinYMin meet" x="418.5" y="-282.817"/>
<text text-anchor="start" x="433.5" y="-272.9168" font-family="Helvetica,sans-Serif" font-size="11.00" fill="#000000">lead_id</text>
<polygon fill="none" stroke="#000000" points="413.5,-243.8168 413.5,-265.8168 536.5,-265.8168 536.5,-243.8168 413.5,-243.8168"/>
<image xlink:href="../../images/foreignKeys.png" width="11px" height="12px" preserveAspectRatio="xMinYMin meet" x="418.5" y="-260.817"/>
<text text-anchor="start" x="433.5" y="-250.9168" font-family="Helvetica,sans-Serif" font-size="11.00" fill="#000000">usu_asignado_id</text>
<polygon fill="none" stroke="#000000" points="413.5,-221.8168 413.5,-243.8168 536.5,-243.8168 536.5,-221.8168 413.5,-221.8168"/>
<image xlink:href="../../images/foreignKeys.png" width="11px" height="12px" preserveAspectRatio="xMinYMin meet" x="418.5" y="-238.817"/>
<text text-anchor="start" x="433.5" y="-228.9168" font-family="Helvetica,sans-Serif" font-size="11.00" fill="#000000">campana_id</text>
<polygon fill="none" stroke="#000000" points="413.5,-199.8168 413.5,-221.8168 536.5,-221.8168 536.5,-199.8168 413.5,-199.8168"/>
<image xlink:href="../../images/foreignKeys.png" width="11px" height="12px" preserveAspectRatio="xMinYMin meet" x="418.5" y="-216.817"/>
<text text-anchor="start" x="433.5" y="-206.9168" font-family="Helvetica,sans-Serif" font-size="11.00" fill="#000000">persona_id</text>
<polygon fill="none" stroke="#000000" points="413.5,-177.8168 413.5,-199.8168 536.5,-199.8168 536.5,-177.8168 413.5,-177.8168"/>
<image xlink:href="../../images/foreignKeys.png" width="11px" height="12px" preserveAspectRatio="xMinYMin meet" x="418.5" y="-194.817"/>
<text text-anchor="start" x="433.5" y="-184.9168" font-family="Helvetica,sans-Serif" font-size="11.00" fill="#000000">curso_id</text>
<polygon fill="none" stroke="#000000" points="413.5,-155.8168 413.5,-177.8168 536.5,-177.8168 536.5,-155.8168 413.5,-155.8168"/>
<image xlink:href="../../images/foreignKeys.png" width="11px" height="12px" preserveAspectRatio="xMinYMin meet" x="418.5" y="-172.817"/>
<text text-anchor="start" x="433.5" y="-162.9168" font-family="Helvetica,sans-Serif" font-size="11.00" fill="#000000">ciclo_id</text>
<polygon fill="none" stroke="#000000" points="413.5,-136.8168 413.5,-155.8168 536.5,-155.8168 536.5,-136.8168 413.5,-136.8168"/>
<text text-anchor="start" x="416.5" y="-142.9168" font-family="Helvetica,sans-Serif" font-size="11.00" fill="#000000">...</text>
<polygon fill="#ffffff" stroke="transparent" points="413.5,-117.8168 413.5,-136.8168 455.5,-136.8168 455.5,-117.8168 413.5,-117.8168"/>
<polygon fill="none" stroke="#000000" points="413.5,-117.8168 413.5,-136.8168 455.5,-136.8168 455.5,-117.8168 413.5,-117.8168"/>
<text text-anchor="start" x="416.5" y="-123.9168" font-family="Helvetica,sans-Serif" font-size="11.00" fill="#000000">&lt; 5</text>
<polygon fill="#ffffff" stroke="transparent" points="455.5,-117.8168 455.5,-136.8168 504.5,-136.8168 504.5,-117.8168 455.5,-117.8168"/>
<polygon fill="none" stroke="#000000" points="455.5,-117.8168 455.5,-136.8168 504.5,-136.8168 504.5,-117.8168 455.5,-117.8168"/>
<text text-anchor="start" x="469.1105" y="-123.9168" font-family="Helvetica,sans-Serif" font-size="11.00" fill="#000000">4 rows</text>
<polygon fill="#ffffff" stroke="transparent" points="504.5,-117.8168 504.5,-136.8168 536.5,-136.8168 536.5,-117.8168 504.5,-117.8168"/>
<polygon fill="none" stroke="#000000" points="504.5,-117.8168 504.5,-136.8168 536.5,-136.8168 536.5,-117.8168 504.5,-117.8168"/>
<text text-anchor="start" x="517.9053" y="-123.9168" font-family="Helvetica,sans-Serif" font-size="11.00" fill="#000000">3 &gt;</text>
</a>
</g>
</g>
<!-- casos&#45;&gt;leads -->
<g id="edge2" class="edge">
<title>casos:w&#45;&gt;leads:e</title>
<path fill="none" stroke="#000000" d="M609.2857,-356.2106C595.7288,-350.2681 592.1716,-335.1207 577,-320.8168 557.6613,-302.584 563.0786,-276.8168 536.5,-276.8168"/>
<polygon fill="#000000" stroke="#000000" points="615.6312,-357.374 622.8508,-362.3578 619.5656,-358.0954 623.5,-358.8168 623.5,-358.8168 623.5,-358.8168 619.5656,-358.0954 624.1492,-355.2758 615.6312,-357.374 615.6312,-357.374"/>
<ellipse fill="none" stroke="#000000" cx="612.4836" cy="-356.7969" rx="3.2" ry="3.2"/>
</g>
<!-- usuarios -->
<g id="node4" class="node">
<title>usuarios</title>
<g id="a_node4"><a xlink:href="../../tables/usuarios.html" xlink:title="usuarios" target="_top">
<polygon fill="#ffffff" stroke="transparent" points="212.5,-39.3168 212.5,-100.3168 296.5,-100.3168 296.5,-39.3168 212.5,-39.3168"/>
<polygon fill="#f5f5f5" stroke="transparent" points="212.5,-76.8168 212.5,-99.8168 296.5,-99.8168 296.5,-76.8168 212.5,-76.8168"/>
<polygon fill="none" stroke="#000000" points="212.5,-76.8168 212.5,-99.8168 296.5,-99.8168 296.5,-76.8168 212.5,-76.8168"/>
<text text-anchor="start" x="217.2188" y="-85.9168" font-family="Helvetica,sans-Serif" font-weight="bold" font-size="11.00" fill="#000000">usuarios</text>
<text text-anchor="start" x="262.0219" y="-84.9168" font-family="Helvetica,sans-Serif" font-size="11.00" fill="#000000">[table]</text>
<polygon fill="none" stroke="#000000" points="212.5,-57.8168 212.5,-76.8168 296.5,-76.8168 296.5,-57.8168 212.5,-57.8168"/>
<text text-anchor="start" x="215.5" y="-63.9168" font-family="Helvetica,sans-Serif" font-size="11.00" fill="#000000">...</text>
<polygon fill="#ffffff" stroke="transparent" points="212.5,-38.8168 212.5,-57.8168 233.5,-57.8168 233.5,-38.8168 212.5,-38.8168"/>
<polygon fill="none" stroke="#000000" points="212.5,-38.8168 212.5,-57.8168 233.5,-57.8168 233.5,-38.8168 212.5,-38.8168"/>
<text text-anchor="start" x="215.5" y="-44.9168" font-family="Helvetica,sans-Serif" font-size="11.00" fill="#000000"> &#160;</text>
<polygon fill="#ffffff" stroke="transparent" points="233.5,-38.8168 233.5,-57.8168 270.5,-57.8168 270.5,-38.8168 233.5,-38.8168"/>
<polygon fill="none" stroke="#000000" points="233.5,-38.8168 233.5,-57.8168 270.5,-57.8168 270.5,-38.8168 233.5,-38.8168"/>
<text text-anchor="start" x="240.6105" y="-44.9168" font-family="Helvetica,sans-Serif" font-size="11.00" fill="#000000">1 row</text>
<polygon fill="#ffffff" stroke="transparent" points="270.5,-38.8168 270.5,-57.8168 296.5,-57.8168 296.5,-38.8168 270.5,-38.8168"/>
<polygon fill="none" stroke="#000000" points="270.5,-38.8168 270.5,-57.8168 296.5,-57.8168 296.5,-38.8168 270.5,-38.8168"/>
<text text-anchor="start" x="277.9053" y="-44.9168" font-family="Helvetica,sans-Serif" font-size="11.00" fill="#000000">6 &gt;</text>
</a>
</g>
</g>
<!-- casos&#45;&gt;usuarios -->
<g id="edge3" class="edge">
<title>casos:w&#45;&gt;usuarios:e</title>
<path fill="none" stroke="#000000" d="M609.0461,-356.8977C593.7464,-352.188 587.4584,-339.0963 577,-320.8168 529.4274,-237.6679 611.3829,-175.9081 544,-107.8168 539.0982,-102.8635 303.4687,-66.8168 296.5,-66.8168"/>
<polygon fill="#000000" stroke="#000000" points="615.5696,-357.7638 623.0262,-362.3855 619.5348,-358.2903 623.5,-358.8168 623.5,-358.8168 623.5,-358.8168 619.5348,-358.2903 623.9738,-355.2481 615.5696,-357.7638 615.5696,-357.7638"/>
<ellipse fill="none" stroke="#000000" cx="612.3974" cy="-357.3426" rx="3.2" ry="3.2"/>
</g>
<!-- personas -->
<g id="node5" class="node">
<title>personas</title>
<g id="a_node5"><a xlink:href="../../tables/personas.html" xlink:title="personas" target="_top">
<polygon fill="#ffffff" stroke="transparent" points="8,-391.3168 8,-452.3168 96,-452.3168 96,-391.3168 8,-391.3168"/>
<polygon fill="#f5f5f5" stroke="transparent" points="8,-428.8168 8,-451.8168 96,-451.8168 96,-428.8168 8,-428.8168"/>
<polygon fill="none" stroke="#000000" points="8,-428.8168 8,-451.8168 96,-451.8168 96,-428.8168 8,-428.8168"/>
<text text-anchor="start" x="12.8818" y="-437.9168" font-family="Helvetica,sans-Serif" font-weight="bold" font-size="11.00" fill="#000000">personas</text>
<text text-anchor="start" x="61.5219" y="-436.9168" font-family="Helvetica,sans-Serif" font-size="11.00" fill="#000000">[table]</text>
<polygon fill="none" stroke="#000000" points="8,-409.8168 8,-428.8168 96,-428.8168 96,-409.8168 8,-409.8168"/>
<text text-anchor="start" x="11" y="-415.9168" font-family="Helvetica,sans-Serif" font-size="11.00" fill="#000000">...</text>
<polygon fill="#ffffff" stroke="transparent" points="8,-390.8168 8,-409.8168 28,-409.8168 28,-390.8168 8,-390.8168"/>
<polygon fill="none" stroke="#000000" points="8,-390.8168 8,-409.8168 28,-409.8168 28,-390.8168 8,-390.8168"/>
<text text-anchor="start" x="11" y="-396.9168" font-family="Helvetica,sans-Serif" font-size="11.00" fill="#000000"> &#160;</text>
<polygon fill="#ffffff" stroke="transparent" points="28,-390.8168 28,-409.8168 70,-409.8168 70,-390.8168 28,-390.8168"/>
<polygon fill="none" stroke="#000000" points="28,-390.8168 28,-409.8168 70,-409.8168 70,-390.8168 28,-390.8168"/>
<text text-anchor="start" x="34.6105" y="-396.9168" font-family="Helvetica,sans-Serif" font-size="11.00" fill="#000000">5 rows</text>
<polygon fill="#ffffff" stroke="transparent" points="70,-390.8168 70,-409.8168 96,-409.8168 96,-390.8168 70,-390.8168"/>
<polygon fill="none" stroke="#000000" points="70,-390.8168 70,-409.8168 96,-409.8168 96,-390.8168 70,-390.8168"/>
<text text-anchor="start" x="77.4053" y="-396.9168" font-family="Helvetica,sans-Serif" font-size="11.00" fill="#000000">6 &gt;</text>
</a>
</g>
</g>
<!-- contactos&#45;&gt;personas -->
<g id="edge4" class="edge">
<title>contactos:w&#45;&gt;personas:e</title>
<path fill="none" stroke="#000000" d="M194.8488,-577.9779C168.6673,-574.6551 157.2795,-561.3846 137,-536.8168 101.6565,-493.9996 151.52,-418.8168 96,-418.8168"/>
<polygon fill="#000000" stroke="#000000" points="201.5131,-578.3594 209.2942,-582.4109 205.5065,-578.5881 209.5,-578.8168 209.5,-578.8168 209.5,-578.8168 205.5065,-578.5881 209.7058,-575.2227 201.5131,-578.3594 201.5131,-578.3594"/>
<ellipse fill="none" stroke="#000000" cx="198.3183" cy="-578.1765" rx="3.2" ry="3.2"/>
</g>
<!-- leads&#45;&gt;usuarios -->
<g id="edge12" class="edge">
<title>leads:w&#45;&gt;usuarios:e</title>
<path fill="none" stroke="#000000" d="M399.1847,-252.8576C358.8006,-239.5954 407.6508,-162.0714 372,-114.8168 348.0522,-83.0742 336.2629,-66.8168 296.5,-66.8168"/>
<polygon fill="#000000" stroke="#000000" points="405.5739,-253.732 413.0118,-258.3835 409.5369,-254.2744 413.5,-254.8168 413.5,-254.8168 413.5,-254.8168 409.5369,-254.2744 413.9882,-251.25 405.5739,-253.732 405.5739,-253.732"/>
<ellipse fill="none" stroke="#000000" cx="402.4034" cy="-253.298" rx="3.2" ry="3.2"/>
</g>
<!-- leads&#45;&gt;personas -->
<g id="edge11" class="edge">
<title>leads:w&#45;&gt;personas:e</title>
<path fill="none" stroke="#000000" d="M398.9384,-212.5366C390.5384,-214.7382 384.6926,-218.5396 372,-220.8168 320.2349,-230.104 176.3172,-213.8877 137,-248.8168 78.8956,-300.4362 173.7219,-418.8168 96,-418.8168"/>
<polygon fill="#000000" stroke="#000000" points="405.5552,-211.7551 413.9223,-214.3919 409.5276,-211.286 413.5,-210.8168 413.5,-210.8168 413.5,-210.8168 409.5276,-211.286 413.0777,-207.2416 405.5552,-211.7551 405.5552,-211.7551"/>
<ellipse fill="none" stroke="#000000" cx="402.3773" cy="-212.1305" rx="3.2" ry="3.2"/>
</g>
<!-- curso_ciclos -->
<g id="node6" class="node">
<title>curso_ciclos</title>
<g id="a_node6"><a xlink:href="../../tables/curso_ciclos.html" xlink:title="curso_ciclos" target="_top">
<polygon fill="#ffffff" stroke="transparent" points="203,-149.3168 203,-210.3168 306,-210.3168 306,-149.3168 203,-149.3168"/>
<polygon fill="#f5f5f5" stroke="transparent" points="203.5,-186.8168 203.5,-209.8168 306.5,-209.8168 306.5,-186.8168 203.5,-186.8168"/>
<polygon fill="none" stroke="#000000" points="203.5,-186.8168 203.5,-209.8168 306.5,-209.8168 306.5,-186.8168 203.5,-186.8168"/>
<text text-anchor="start" x="208.2484" y="-195.9168" font-family="Helvetica,sans-Serif" font-weight="bold" font-size="11.00" fill="#000000">curso_ciclos</text>
<text text-anchor="start" x="272.0219" y="-194.9168" font-family="Helvetica,sans-Serif" font-size="11.00" fill="#000000">[table]</text>
<polygon fill="none" stroke="#000000" points="203.5,-167.8168 203.5,-186.8168 306.5,-186.8168 306.5,-167.8168 203.5,-167.8168"/>
<text text-anchor="start" x="206.5" y="-173.9168" font-family="Helvetica,sans-Serif" font-size="11.00" fill="#000000">...</text>
<polygon fill="#ffffff" stroke="transparent" points="203.5,-148.8168 203.5,-167.8168 238.5,-167.8168 238.5,-148.8168 203.5,-148.8168"/>
<polygon fill="none" stroke="#000000" points="203.5,-148.8168 203.5,-167.8168 238.5,-167.8168 238.5,-148.8168 203.5,-148.8168"/>
<text text-anchor="start" x="206.5" y="-154.9168" font-family="Helvetica,sans-Serif" font-size="11.00" fill="#000000">&lt; 1</text>
<polygon fill="#ffffff" stroke="transparent" points="238.5,-148.8168 238.5,-167.8168 277.5,-167.8168 277.5,-148.8168 238.5,-148.8168"/>
<polygon fill="none" stroke="#000000" points="238.5,-148.8168 238.5,-167.8168 277.5,-167.8168 277.5,-148.8168 238.5,-148.8168"/>
<text text-anchor="start" x="247.6105" y="-154.9168" font-family="Helvetica,sans-Serif" font-size="11.00" fill="#000000">1 row</text>
<polygon fill="#ffffff" stroke="transparent" points="277.5,-148.8168 277.5,-167.8168 306.5,-167.8168 306.5,-148.8168 277.5,-148.8168"/>
<polygon fill="none" stroke="#000000" points="277.5,-148.8168 277.5,-167.8168 306.5,-167.8168 306.5,-148.8168 277.5,-148.8168"/>
<text text-anchor="start" x="287.9053" y="-154.9168" font-family="Helvetica,sans-Serif" font-size="11.00" fill="#000000">2 &gt;</text>
</a>
</g>
</g>
<!-- leads&#45;&gt;curso_ciclos -->
<g id="edge9" class="edge">
<title>leads:w&#45;&gt;curso_ciclos:e</title>
<path fill="none" stroke="#000000" d="M399.0352,-167.1495C362.7931,-168.8846 349.0387,-176.8168 306.5,-176.8168"/>
<polygon fill="#000000" stroke="#000000" points="405.5021,-167.0008 413.5828,-170.4158 409.5011,-166.9088 413.5,-166.8168 413.5,-166.8168 413.5,-166.8168 409.5011,-166.9088 413.4172,-163.2177 405.5021,-167.0008 405.5021,-167.0008"/>
<ellipse fill="none" stroke="#000000" cx="402.303" cy="-167.0744" rx="3.2" ry="3.2"/>
</g>
<!-- cursos -->
<g id="node7" class="node">
<title>cursos</title>
<g id="a_node7"><a xlink:href="../../tables/cursos.html" xlink:title="cursos" target="_top">
<polygon fill="#ffffff" stroke="transparent" points="13.5,-149.3168 13.5,-210.3168 90.5,-210.3168 90.5,-149.3168 13.5,-149.3168"/>
<polygon fill="#f5f5f5" stroke="transparent" points="14,-186.8168 14,-209.8168 91,-209.8168 91,-186.8168 14,-186.8168"/>
<polygon fill="none" stroke="#000000" points="14,-186.8168 14,-209.8168 91,-209.8168 91,-186.8168 14,-186.8168"/>
<text text-anchor="start" x="19" y="-195.9168" font-family="Helvetica,sans-Serif" font-weight="bold" font-size="11.00" fill="#000000">cursos</text>
<text text-anchor="start" x="56.0437" y="-194.9168" font-family="Helvetica,sans-Serif" font-size="11.00" fill="#000000">[table]</text>
<polygon fill="none" stroke="#000000" points="14,-167.8168 14,-186.8168 91,-186.8168 91,-167.8168 14,-167.8168"/>
<text text-anchor="start" x="17" y="-173.9168" font-family="Helvetica,sans-Serif" font-size="11.00" fill="#000000">...</text>
<polygon fill="#ffffff" stroke="transparent" points="14,-148.8168 14,-167.8168 26,-167.8168 26,-148.8168 14,-148.8168"/>
<polygon fill="none" stroke="#000000" points="14,-148.8168 14,-167.8168 26,-167.8168 26,-148.8168 14,-148.8168"/>
<text text-anchor="start" x="16.9431" y="-154.9168" font-family="Helvetica,sans-Serif" font-size="11.00" fill="#000000"> &#160;</text>
<polygon fill="#ffffff" stroke="transparent" points="26,-148.8168 26,-167.8168 70,-167.8168 70,-148.8168 26,-148.8168"/>
<polygon fill="none" stroke="#000000" points="26,-148.8168 26,-167.8168 70,-167.8168 70,-148.8168 26,-148.8168"/>
<text text-anchor="start" x="28.7478" y="-154.9168" font-family="Helvetica,sans-Serif" font-size="11.00" fill="#000000">10 rows</text>
<polygon fill="#ffffff" stroke="transparent" points="70,-148.8168 70,-167.8168 91,-167.8168 91,-148.8168 70,-148.8168"/>
<polygon fill="none" stroke="#000000" points="70,-148.8168 70,-167.8168 91,-167.8168 91,-148.8168 70,-148.8168"/>
<text text-anchor="start" x="72.7027" y="-154.9168" font-family="Helvetica,sans-Serif" font-size="11.00" fill="#000000">3 &gt;</text>
</a>
</g>
</g>
<!-- leads&#45;&gt;cursos -->
<g id="edge10" class="edge">
<title>leads:w&#45;&gt;cursos:e</title>
<path fill="none" stroke="#000000" d="M399.7756,-184.0625C388.6378,-173.53 392.4226,-148.4067 372,-138.8168 324.73,-116.6199 186.1411,-121.1444 137,-138.8168 112.0465,-147.7907 117.5181,-176.8168 91,-176.8168"/>
<polygon fill="#000000" stroke="#000000" points="405.9407,-186.1981 412.3216,-192.2185 409.7204,-187.5074 413.5,-188.8168 413.5,-188.8168 413.5,-188.8168 409.7204,-187.5074 414.6784,-185.4151 405.9407,-186.1981 405.9407,-186.1981"/>
<ellipse fill="none" stroke="#000000" cx="402.917" cy="-185.1507" rx="3.2" ry="3.2"/>
</g>
<!-- campanas -->
<g id="node10" class="node">
<title>campanas</title>
<g id="a_node10"><a xlink:href="../../tables/campanas.html" xlink:title="campanas" target="_top">
<polygon fill="#ffffff" stroke="transparent" points="145,-258.8168 145,-502.8168 364,-502.8168 364,-258.8168 145,-258.8168"/>
<polygon fill="#f5f5f5" stroke="transparent" points="147.5,-477.8168 147.5,-500.8168 362.5,-500.8168 362.5,-477.8168 147.5,-477.8168"/>
<polygon fill="none" stroke="#000000" points="147.5,-477.8168 147.5,-500.8168 362.5,-500.8168 362.5,-477.8168 147.5,-477.8168"/>
<text text-anchor="start" x="152.5" y="-486.9168" font-family="Helvetica,sans-Serif" font-weight="bold" font-size="11.00" fill="#000000">campanas</text>
<text text-anchor="start" x="327.5437" y="-485.9168" font-family="Helvetica,sans-Serif" font-size="11.00" fill="#000000">[table]</text>
<polygon fill="none" stroke="#000000" points="147.5,-455.8168 147.5,-477.8168 270.5,-477.8168 270.5,-455.8168 147.5,-455.8168"/>
<image xlink:href="../../images/primaryKeys.png" width="11px" height="12px" preserveAspectRatio="xMinYMin meet" x="152.5" y="-472.817"/>
<text text-anchor="start" x="167.5" y="-462.9168" font-family="Helvetica,sans-Serif" font-size="11.00" fill="#000000">campana_id</text>
<polygon fill="none" stroke="#000000" points="270.5,-455.8168 270.5,-477.8168 362.5,-477.8168 362.5,-455.8168 270.5,-455.8168"/>
<text text-anchor="start" x="273.5" y="-463.5168" font-family="Helvetica,sans-Serif" font-size="11.00" fill="#000000">serial[10]</text>
<polygon fill="none" stroke="#000000" points="147.5,-433.8168 147.5,-455.8168 270.5,-455.8168 270.5,-433.8168 147.5,-433.8168"/>
<text text-anchor="start" x="167.5" y="-440.9168" font-family="Helvetica,sans-Serif" font-size="11.00" fill="#000000">nombre</text>
<polygon fill="none" stroke="#000000" points="270.5,-433.8168 270.5,-455.8168 362.5,-455.8168 362.5,-433.8168 270.5,-433.8168"/>
<text text-anchor="start" x="273.5" y="-441.5168" font-family="Helvetica,sans-Serif" font-size="11.00" fill="#000000">varchar[255]</text>
<polygon fill="none" stroke="#000000" points="147.5,-411.8168 147.5,-433.8168 270.5,-433.8168 270.5,-411.8168 147.5,-411.8168"/>
<text text-anchor="start" x="167.5" y="-418.9168" font-family="Helvetica,sans-Serif" font-size="11.00" fill="#000000">descripcion</text>
<polygon fill="none" stroke="#000000" points="270.5,-411.8168 270.5,-433.8168 362.5,-433.8168 362.5,-411.8168 270.5,-411.8168"/>
<text text-anchor="start" x="273.5" y="-419.5168" font-family="Helvetica,sans-Serif" font-size="11.00" fill="#000000">text[2147483647]</text>
<polygon fill="none" stroke="#000000" points="147.5,-389.8168 147.5,-411.8168 270.5,-411.8168 270.5,-389.8168 147.5,-389.8168"/>
<text text-anchor="start" x="167.5" y="-396.9168" font-family="Helvetica,sans-Serif" font-size="11.00" fill="#000000">fec_inicio</text>
<polygon fill="none" stroke="#000000" points="270.5,-389.8168 270.5,-411.8168 362.5,-411.8168 362.5,-389.8168 270.5,-389.8168"/>
<text text-anchor="start" x="273.1023" y="-397.5168" font-family="Helvetica,sans-Serif" font-size="11.00" fill="#000000">timestamptz[35,6]</text>
<polygon fill="none" stroke="#000000" points="147.5,-367.8168 147.5,-389.8168 270.5,-389.8168 270.5,-367.8168 147.5,-367.8168"/>
<text text-anchor="start" x="167.5" y="-374.9168" font-family="Helvetica,sans-Serif" font-size="11.00" fill="#000000">fec_fin</text>
<polygon fill="none" stroke="#000000" points="270.5,-367.8168 270.5,-389.8168 362.5,-389.8168 362.5,-367.8168 270.5,-367.8168"/>
<text text-anchor="start" x="273.1023" y="-375.5168" font-family="Helvetica,sans-Serif" font-size="11.00" fill="#000000">timestamptz[35,6]</text>
<polygon fill="none" stroke="#000000" points="147.5,-345.8168 147.5,-367.8168 270.5,-367.8168 270.5,-345.8168 147.5,-345.8168"/>
<text text-anchor="start" x="167.5" y="-352.9168" font-family="Helvetica,sans-Serif" font-size="11.00" fill="#000000">usu_insercion</text>
<polygon fill="none" stroke="#000000" points="270.5,-345.8168 270.5,-367.8168 362.5,-367.8168 362.5,-345.8168 270.5,-345.8168"/>
<text text-anchor="start" x="273.5" y="-353.5168" font-family="Helvetica,sans-Serif" font-size="11.00" fill="#000000">varchar[20]</text>
<polygon fill="none" stroke="#000000" points="147.5,-323.8168 147.5,-345.8168 270.5,-345.8168 270.5,-323.8168 147.5,-323.8168"/>
<text text-anchor="start" x="167.5" y="-330.9168" font-family="Helvetica,sans-Serif" font-size="11.00" fill="#000000">fec_insercion</text>
<polygon fill="none" stroke="#000000" points="270.5,-323.8168 270.5,-345.8168 362.5,-345.8168 362.5,-323.8168 270.5,-323.8168"/>
<text text-anchor="start" x="273.1023" y="-331.5168" font-family="Helvetica,sans-Serif" font-size="11.00" fill="#000000">timestamptz[35,6]</text>
<polygon fill="none" stroke="#000000" points="147.5,-301.8168 147.5,-323.8168 270.5,-323.8168 270.5,-301.8168 147.5,-301.8168"/>
<text text-anchor="start" x="167.5" y="-308.9168" font-family="Helvetica,sans-Serif" font-size="11.00" fill="#000000">fec_modificacion</text>
<polygon fill="none" stroke="#000000" points="270.5,-301.8168 270.5,-323.8168 362.5,-323.8168 362.5,-301.8168 270.5,-301.8168"/>
<text text-anchor="start" x="273.1023" y="-309.5168" font-family="Helvetica,sans-Serif" font-size="11.00" fill="#000000">timestamptz[35,6]</text>
<polygon fill="none" stroke="#000000" points="147.5,-279.8168 147.5,-301.8168 270.5,-301.8168 270.5,-279.8168 147.5,-279.8168"/>
<text text-anchor="start" x="167.5" y="-286.9168" font-family="Helvetica,sans-Serif" font-size="11.00" fill="#000000">usu_modificacion</text>
<polygon fill="none" stroke="#000000" points="270.5,-279.8168 270.5,-301.8168 362.5,-301.8168 362.5,-279.8168 270.5,-279.8168"/>
<text text-anchor="start" x="273.5" y="-287.5168" font-family="Helvetica,sans-Serif" font-size="11.00" fill="#000000">varchar[20]</text>
<polygon fill="#ffffff" stroke="transparent" points="147.5,-260.8168 147.5,-279.8168 200.5,-279.8168 200.5,-260.8168 147.5,-260.8168"/>
<polygon fill="none" stroke="#000000" points="147.5,-260.8168 147.5,-279.8168 200.5,-279.8168 200.5,-260.8168 147.5,-260.8168"/>
<text text-anchor="start" x="150.5" y="-266.9168" font-family="Helvetica,sans-Serif" font-size="11.00" fill="#000000">&lt; 0</text>
<polygon fill="#ffffff" stroke="transparent" points="200.5,-260.8168 200.5,-279.8168 270.5,-279.8168 270.5,-260.8168 200.5,-260.8168"/>
<polygon fill="none" stroke="#000000" points="200.5,-260.8168 200.5,-279.8168 270.5,-279.8168 270.5,-260.8168 200.5,-260.8168"/>
<text text-anchor="start" x="235.1105" y="-266.9168" font-family="Helvetica,sans-Serif" font-size="11.00" fill="#000000">0 rows</text>
<polygon fill="#ffffff" stroke="transparent" points="270.5,-260.8168 270.5,-279.8168 362.5,-279.8168 362.5,-260.8168 270.5,-260.8168"/>
<polygon fill="none" stroke="#000000" points="270.5,-260.8168 270.5,-279.8168 362.5,-279.8168 362.5,-260.8168 270.5,-260.8168"/>
<text text-anchor="start" x="343.9053" y="-266.9168" font-family="Helvetica,sans-Serif" font-size="11.00" fill="#000000">2 &gt;</text>
<polygon fill="none" stroke="#000000" stroke-width="2" points="146,-259.8168 146,-501.8168 363,-501.8168 363,-259.8168 146,-259.8168"/>
</a>
</g>
</g>
<!-- leads&#45;&gt;campanas -->
<g id="edge8" class="edge">
<title>leads:w&#45;&gt;campanas:e</title>
<path fill="none" stroke="#000000" d="M398.8205,-234.7003C323.386,-256.8457 463.3283,-466.8168 362.5,-466.8168"/>
<polygon fill="#000000" stroke="#000000" points="405.5651,-233.835 413.9582,-236.3875 409.5325,-233.3259 413.5,-232.8168 413.5,-232.8168 413.5,-232.8168 409.5325,-233.3259 413.0418,-229.2461 405.5651,-233.835 405.5651,-233.835"/>
<ellipse fill="none" stroke="#000000" cx="402.3911" cy="-234.2423" rx="3.2" ry="3.2"/>
</g>
<!-- curso_ciclos&#45;&gt;cursos -->
<g id="edge5" class="edge">
<title>curso_ciclos:w&#45;&gt;cursos:e</title>
<path fill="none" stroke="#000000" d="M189.095,-176.8168C150.5103,-176.8168 135.8242,-176.8168 91,-176.8168"/>
<polygon fill="#000000" stroke="#000000" points="195.5,-176.8168 203.5,-180.4168 199.5,-176.8168 203.5,-176.8168 203.5,-176.8168 203.5,-176.8168 199.5,-176.8168 203.5,-173.2168 195.5,-176.8168 195.5,-176.8168"/>
<ellipse fill="none" stroke="#000000" cx="192.3" cy="-176.8169" rx="3.2" ry="3.2"/>
</g>
<!-- encuesta_respuestas -->
<g id="node8" class="node">
<title>encuesta_respuestas</title>
<g id="a_node8"><a xlink:href="../../tables/encuesta_respuestas.html" xlink:title="encuesta_respuestas" target="_top">
<polygon fill="#ffffff" stroke="transparent" points="585,-533.3168 585,-594.3168 732,-594.3168 732,-533.3168 585,-533.3168"/>
<polygon fill="#f5f5f5" stroke="transparent" points="585.5,-570.8168 585.5,-593.8168 732.5,-593.8168 732.5,-570.8168 585.5,-570.8168"/>
<polygon fill="none" stroke="#000000" points="585.5,-570.8168 585.5,-593.8168 732.5,-593.8168 732.5,-570.8168 585.5,-570.8168"/>
<text text-anchor="start" x="590.2302" y="-579.9168" font-family="Helvetica,sans-Serif" font-weight="bold" font-size="11.00" fill="#000000">encuesta_respuestas</text>
<text text-anchor="start" x="698.0219" y="-578.9168" font-family="Helvetica,sans-Serif" font-size="11.00" fill="#000000">[table]</text>
<polygon fill="none" stroke="#000000" points="585.5,-551.8168 585.5,-570.8168 732.5,-570.8168 732.5,-551.8168 585.5,-551.8168"/>
<text text-anchor="start" x="588.5" y="-557.9168" font-family="Helvetica,sans-Serif" font-size="11.00" fill="#000000">...</text>
<polygon fill="#ffffff" stroke="transparent" points="585.5,-532.8168 585.5,-551.8168 642.5,-551.8168 642.5,-532.8168 585.5,-532.8168"/>
<polygon fill="none" stroke="#000000" points="585.5,-532.8168 585.5,-551.8168 642.5,-551.8168 642.5,-532.8168 585.5,-532.8168"/>
<text text-anchor="start" x="588.5" y="-538.9168" font-family="Helvetica,sans-Serif" font-size="11.00" fill="#000000">&lt; 2</text>
<polygon fill="#ffffff" stroke="transparent" points="642.5,-532.8168 642.5,-551.8168 692.5,-551.8168 692.5,-532.8168 642.5,-532.8168"/>
<polygon fill="none" stroke="#000000" points="642.5,-532.8168 642.5,-551.8168 692.5,-551.8168 692.5,-532.8168 642.5,-532.8168"/>
<text text-anchor="start" x="662.6105" y="-538.9168" font-family="Helvetica,sans-Serif" font-size="11.00" fill="#000000">1 row</text>
<polygon fill="#ffffff" stroke="transparent" points="692.5,-532.8168 692.5,-551.8168 732.5,-551.8168 732.5,-532.8168 692.5,-532.8168"/>
<polygon fill="none" stroke="#000000" points="692.5,-532.8168 692.5,-551.8168 732.5,-551.8168 732.5,-532.8168 692.5,-532.8168"/>
<text text-anchor="start" x="713.9053" y="-538.9168" font-family="Helvetica,sans-Serif" font-size="11.00" fill="#000000">1 &gt;</text>
</a>
</g>
</g>
<!-- encuesta_respuestas&#45;&gt;contactos -->
<g id="edge6" class="edge">
<title>encuesta_respuestas:w&#45;&gt;contactos:e</title>
<path fill="none" stroke="#000000" d="M571.7848,-565.5167C560.165,-576.457 565.2233,-603.4796 544,-613.8168 488.4599,-640.8685 465.9871,-623.6691 405,-613.8168 356.2304,-605.9382 348.9019,-578.8168 299.5,-578.8168"/>
<polygon fill="#000000" stroke="#000000" points="577.932,-563.4102 586.667,-564.2224 581.716,-562.1135 585.5,-560.8168 585.5,-560.8168 585.5,-560.8168 581.716,-562.1135 584.333,-557.4112 577.932,-563.4102 577.932,-563.4102"/>
<ellipse fill="none" stroke="#000000" cx="574.9048" cy="-564.4476" rx="3.2" ry="3.2"/>
</g>
<!-- oportunidades -->
<g id="node9" class="node">
<title>oportunidades</title>
<g id="a_node9"><a xlink:href="../../tables/oportunidades.html" xlink:title="oportunidades" target="_top">
<polygon fill="#ffffff" stroke="transparent" points="413,-332.3168 413,-525.3168 536,-525.3168 536,-332.3168 413,-332.3168"/>
<polygon fill="#f5f5f5" stroke="transparent" points="413.5,-501.8168 413.5,-524.8168 536.5,-524.8168 536.5,-501.8168 413.5,-501.8168"/>
<polygon fill="none" stroke="#000000" points="413.5,-501.8168 413.5,-524.8168 536.5,-524.8168 536.5,-501.8168 413.5,-501.8168"/>
<text text-anchor="start" x="418.5" y="-510.9168" font-family="Helvetica,sans-Serif" font-weight="bold" font-size="11.00" fill="#000000">oportunidades</text>
<text text-anchor="start" x="501.5437" y="-509.9168" font-family="Helvetica,sans-Serif" font-size="11.00" fill="#000000">[table]</text>
<polygon fill="none" stroke="#000000" points="413.5,-479.8168 413.5,-501.8168 536.5,-501.8168 536.5,-479.8168 413.5,-479.8168"/>
<image xlink:href="../../images/primaryKeys.png" width="11px" height="12px" preserveAspectRatio="xMinYMin meet" x="418.5" y="-496.817"/>
<text text-anchor="start" x="433.5" y="-486.9168" font-family="Helvetica,sans-Serif" font-size="11.00" fill="#000000">oportunidad_id</text>
<polygon fill="none" stroke="#000000" points="413.5,-457.8168 413.5,-479.8168 536.5,-479.8168 536.5,-457.8168 413.5,-457.8168"/>
<image xlink:href="../../images/foreignKeys.png" width="11px" height="12px" preserveAspectRatio="xMinYMin meet" x="418.5" y="-474.817"/>
<text text-anchor="start" x="433.5" y="-464.9168" font-family="Helvetica,sans-Serif" font-size="11.00" fill="#000000">campana_id</text>
<polygon fill="none" stroke="#000000" points="413.5,-435.8168 413.5,-457.8168 536.5,-457.8168 536.5,-435.8168 413.5,-435.8168"/>
<image xlink:href="../../images/foreignKeys.png" width="11px" height="12px" preserveAspectRatio="xMinYMin meet" x="418.5" y="-452.817"/>
<text text-anchor="start" x="433.5" y="-442.9168" font-family="Helvetica,sans-Serif" font-size="11.00" fill="#000000">contacto_id</text>
<polygon fill="none" stroke="#000000" points="413.5,-413.8168 413.5,-435.8168 536.5,-435.8168 536.5,-413.8168 413.5,-413.8168"/>
<image xlink:href="../../images/foreignKeys.png" width="11px" height="12px" preserveAspectRatio="xMinYMin meet" x="418.5" y="-430.817"/>
<text text-anchor="start" x="433.5" y="-420.9168" font-family="Helvetica,sans-Serif" font-size="11.00" fill="#000000">curso_id</text>
<polygon fill="none" stroke="#000000" points="413.5,-391.8168 413.5,-413.8168 536.5,-413.8168 536.5,-391.8168 413.5,-391.8168"/>
<image xlink:href="../../images/foreignKeys.png" width="11px" height="12px" preserveAspectRatio="xMinYMin meet" x="418.5" y="-408.817"/>
<text text-anchor="start" x="433.5" y="-398.9168" font-family="Helvetica,sans-Serif" font-size="11.00" fill="#000000">usu_asignado_id</text>
<polygon fill="none" stroke="#000000" points="413.5,-369.8168 413.5,-391.8168 536.5,-391.8168 536.5,-369.8168 413.5,-369.8168"/>
<image xlink:href="../../images/foreignKeys.png" width="11px" height="12px" preserveAspectRatio="xMinYMin meet" x="418.5" y="-386.817"/>
<text text-anchor="start" x="433.5" y="-376.9168" font-family="Helvetica,sans-Serif" font-size="11.00" fill="#000000">ciclo_id</text>
<polygon fill="none" stroke="#000000" points="413.5,-350.8168 413.5,-369.8168 536.5,-369.8168 536.5,-350.8168 413.5,-350.8168"/>
<text text-anchor="start" x="416.5" y="-356.9168" font-family="Helvetica,sans-Serif" font-size="11.00" fill="#000000">...</text>
<polygon fill="#ffffff" stroke="transparent" points="413.5,-331.8168 413.5,-350.8168 452.5,-350.8168 452.5,-331.8168 413.5,-331.8168"/>
<polygon fill="none" stroke="#000000" points="413.5,-331.8168 413.5,-350.8168 452.5,-350.8168 452.5,-331.8168 413.5,-331.8168"/>
<text text-anchor="start" x="416.5" y="-337.9168" font-family="Helvetica,sans-Serif" font-size="11.00" fill="#000000">&lt; 5</text>
<polygon fill="#ffffff" stroke="transparent" points="452.5,-331.8168 452.5,-350.8168 505.5,-350.8168 505.5,-331.8168 452.5,-331.8168"/>
<polygon fill="none" stroke="#000000" points="452.5,-331.8168 452.5,-350.8168 505.5,-350.8168 505.5,-331.8168 452.5,-331.8168"/>
<text text-anchor="start" x="463.9956" y="-337.9168" font-family="Helvetica,sans-Serif" font-size="11.00" fill="#000000">14 rows</text>
<polygon fill="#ffffff" stroke="transparent" points="505.5,-331.8168 505.5,-350.8168 536.5,-350.8168 536.5,-331.8168 505.5,-331.8168"/>
<polygon fill="none" stroke="#000000" points="505.5,-331.8168 505.5,-350.8168 536.5,-350.8168 536.5,-331.8168 505.5,-331.8168"/>
<text text-anchor="start" x="517.9053" y="-337.9168" font-family="Helvetica,sans-Serif" font-size="11.00" fill="#000000">1 &gt;</text>
</a>
</g>
</g>
<!-- encuesta_respuestas&#45;&gt;oportunidades -->
<g id="edge7" class="edge">
<title>encuesta_respuestas:w&#45;&gt;oportunidades:e</title>
<path fill="none" stroke="#000000" d="M571.4782,-555.7826C554.62,-539.7322 568.2455,-490.8168 536.5,-490.8168"/>
<polygon fill="#000000" stroke="#000000" points="577.9706,-558.1135 584.2835,-564.205 581.7353,-559.4651 585.5,-560.8168 585.5,-560.8168 585.5,-560.8168 581.7353,-559.4651 586.7165,-557.4285 577.9706,-558.1135 577.9706,-558.1135"/>
<ellipse fill="none" stroke="#000000" cx="574.9588" cy="-557.0321" rx="3.2" ry="3.2"/>
</g>
<!-- oportunidades&#45;&gt;contactos -->
<g id="edge18" class="edge">
<title>oportunidades:w&#45;&gt;contactos:e</title>
<path fill="none" stroke="#000000" d="M399.3569,-449.8274C377.1038,-462.0578 397.609,-508.7077 372,-536.8168 346.9209,-564.3441 336.7386,-578.8168 299.5,-578.8168"/>
<polygon fill="#000000" stroke="#000000" points="405.6753,-448.4824 414.2495,-450.3379 409.5877,-447.6496 413.5,-446.8168 413.5,-446.8168 413.5,-446.8168 409.5877,-447.6496 412.7505,-443.2957 405.6753,-448.4824 405.6753,-448.4824"/>
<ellipse fill="none" stroke="#000000" cx="402.5454" cy="-449.1487" rx="3.2" ry="3.2"/>
</g>
<!-- oportunidades&#45;&gt;usuarios -->
<g id="edge20" class="edge">
<title>oportunidades:w&#45;&gt;usuarios:e</title>
<path fill="none" stroke="#000000" d="M399.9029,-397.9662C361.6893,-366.1138 397.0807,-186.6971 372,-138.8168 350.4847,-97.7429 342.8678,-66.8168 296.5,-66.8168"/>
<polygon fill="#000000" stroke="#000000" points="405.9651,-400.1288 412.2904,-406.2075 409.7325,-401.4728 413.5,-402.8168 413.5,-402.8168 413.5,-402.8168 409.7325,-401.4728 414.7096,-399.4261 405.9651,-400.1288 405.9651,-400.1288"/>
<ellipse fill="none" stroke="#000000" cx="402.9511" cy="-399.0536" rx="3.2" ry="3.2"/>
</g>
<!-- oportunidades&#45;&gt;curso_ciclos -->
<g id="edge17" class="edge">
<title>oportunidades:w&#45;&gt;curso_ciclos:e</title>
<path fill="none" stroke="#000000" d="M399.0009,-378.8281C360.7809,-366.2883 399.7593,-297.144 372,-248.8168 350.4528,-211.3044 349.7603,-176.8168 306.5,-176.8168"/>
<polygon fill="#000000" stroke="#000000" points="405.5742,-379.7296 413.0108,-384.3834 409.5371,-380.2732 413.5,-380.8168 413.5,-380.8168 413.5,-380.8168 409.5371,-380.2732 413.9892,-377.2502 405.5742,-379.7296 405.5742,-379.7296"/>
<ellipse fill="none" stroke="#000000" cx="402.4039" cy="-379.2948" rx="3.2" ry="3.2"/>
</g>
<!-- oportunidades&#45;&gt;cursos -->
<g id="edge19" class="edge">
<title>oportunidades:w&#45;&gt;cursos:e</title>
<path fill="none" stroke="#000000" d="M399.5473,-428.4062C379.313,-442.4201 403.6329,-493.6641 372,-513.8168 327.9564,-541.876 176.3446,-548.1557 137,-513.8168 80.055,-464.1166 166.5833,-176.8168 91,-176.8168"/>
<polygon fill="#000000" stroke="#000000" points="405.7523,-426.81 414.3969,-428.3033 409.6261,-425.8134 413.5,-424.8168 413.5,-424.8168 413.5,-424.8168 409.6261,-425.8134 412.6031,-421.3303 405.7523,-426.81 405.7523,-426.81"/>
<ellipse fill="none" stroke="#000000" cx="402.6532" cy="-427.6073" rx="3.2" ry="3.2"/>
</g>
<!-- oportunidades&#45;&gt;campanas -->
<g id="edge16" class="edge">
<title>oportunidades:w&#45;&gt;campanas:e</title>
<path fill="none" stroke="#000000" d="M398.7711,-468.4865C386.7786,-467.9185 379.3358,-466.8168 362.5,-466.8168"/>
<polygon fill="#000000" stroke="#000000" points="405.502,-468.6374 413.4193,-472.4159 409.501,-468.7271 413.5,-468.8168 413.5,-468.8168 413.5,-468.8168 409.501,-468.7271 413.5807,-465.2177 405.502,-468.6374 405.502,-468.6374"/>
<ellipse fill="none" stroke="#000000" cx="402.3028" cy="-468.5656" rx="3.2" ry="3.2"/>
</g>
<!-- llamadas -->
<g id="node11" class="node">
<title>llamadas</title>
<g id="a_node11"><a xlink:href="../../tables/llamadas.html" xlink:title="llamadas" target="_top">
<polygon fill="#ffffff" stroke="transparent" points="615,-249.3168 615,-310.3168 702,-310.3168 702,-249.3168 615,-249.3168"/>
<polygon fill="#f5f5f5" stroke="transparent" points="615.5,-286.8168 615.5,-309.8168 702.5,-309.8168 702.5,-286.8168 615.5,-286.8168"/>
<polygon fill="none" stroke="#000000" points="615.5,-286.8168 615.5,-309.8168 702.5,-309.8168 702.5,-286.8168 615.5,-286.8168"/>
<text text-anchor="start" x="620.4984" y="-295.9168" font-family="Helvetica,sans-Serif" font-weight="bold" font-size="11.00" fill="#000000">llamadas</text>
<text text-anchor="start" x="668.0219" y="-294.9168" font-family="Helvetica,sans-Serif" font-size="11.00" fill="#000000">[table]</text>
<polygon fill="none" stroke="#000000" points="615.5,-267.8168 615.5,-286.8168 702.5,-286.8168 702.5,-267.8168 615.5,-267.8168"/>
<text text-anchor="start" x="618.5" y="-273.9168" font-family="Helvetica,sans-Serif" font-size="11.00" fill="#000000">...</text>
<polygon fill="#ffffff" stroke="transparent" points="615.5,-248.8168 615.5,-267.8168 644.5,-267.8168 644.5,-248.8168 615.5,-248.8168"/>
<polygon fill="none" stroke="#000000" points="615.5,-248.8168 615.5,-267.8168 644.5,-267.8168 644.5,-248.8168 615.5,-248.8168"/>
<text text-anchor="start" x="618.5" y="-254.9168" font-family="Helvetica,sans-Serif" font-size="11.00" fill="#000000">&lt; 3</text>
<polygon fill="#ffffff" stroke="transparent" points="644.5,-248.8168 644.5,-267.8168 686.5,-267.8168 686.5,-248.8168 644.5,-248.8168"/>
<polygon fill="none" stroke="#000000" points="644.5,-248.8168 644.5,-267.8168 686.5,-267.8168 686.5,-248.8168 644.5,-248.8168"/>
<text text-anchor="start" x="651.1105" y="-254.9168" font-family="Helvetica,sans-Serif" font-size="11.00" fill="#000000">0 rows</text>
<polygon fill="#ffffff" stroke="transparent" points="686.5,-248.8168 686.5,-267.8168 702.5,-267.8168 702.5,-248.8168 686.5,-248.8168"/>
<polygon fill="none" stroke="#000000" points="686.5,-248.8168 686.5,-267.8168 702.5,-267.8168 702.5,-248.8168 686.5,-248.8168"/>
<text text-anchor="start" x="693.3862" y="-254.9168" font-family="Helvetica,sans-Serif" font-size="11.00" fill="#000000"> &#160;</text>
</a>
</g>
</g>
<!-- llamadas&#45;&gt;contactos -->
<g id="edge13" class="edge">
<title>llamadas:w&#45;&gt;contactos:e</title>
<path fill="none" stroke="#000000" d="M601.1861,-279.7533C588.2666,-286.2105 585.3419,-302.5322 577,-320.8168 554.7461,-369.5952 583.0253,-523.0527 544,-559.8168 504.3326,-597.1857 353.9971,-578.8168 299.5,-578.8168"/>
<polygon fill="#000000" stroke="#000000" points="607.6632,-278.4246 616.2235,-280.3433 611.5816,-277.6207 615.5,-276.8168 615.5,-276.8168 615.5,-276.8168 611.5816,-277.6207 614.7765,-273.2902 607.6632,-278.4246 607.6632,-278.4246"/>
<ellipse fill="none" stroke="#000000" cx="604.5285" cy="-279.0677" rx="3.2" ry="3.2"/>
</g>
<!-- llamadas&#45;&gt;leads -->
<g id="edge14" class="edge">
<title>llamadas:w&#45;&gt;leads:e</title>
<path fill="none" stroke="#000000" d="M600.7695,-276.8168C577.0029,-276.8168 566.125,-276.8168 536.5,-276.8168"/>
<polygon fill="#000000" stroke="#000000" points="607.5,-276.8168 615.5,-280.4168 611.5,-276.8168 615.5,-276.8168 615.5,-276.8168 615.5,-276.8168 611.5,-276.8168 615.5,-273.2168 607.5,-276.8168 607.5,-276.8168"/>
<ellipse fill="none" stroke="#000000" cx="604.3" cy="-276.8169" rx="3.2" ry="3.2"/>
</g>
<!-- llamadas&#45;&gt;usuarios -->
<g id="edge15" class="edge">
<title>llamadas:w&#45;&gt;usuarios:e</title>
<path fill="none" stroke="#000000" d="M601.327,-274.0219C589.5404,-268.3805 585.7485,-254.7984 577,-238.8168 543.18,-177.0349 597.1925,-129.9833 544,-83.8168 502.3649,-47.6811 351.6296,-66.8168 296.5,-66.8168"/>
<polygon fill="#000000" stroke="#000000" points="607.6511,-275.269 614.8035,-280.3488 611.5756,-276.0429 615.5,-276.8168 615.5,-276.8168 615.5,-276.8168 611.5756,-276.0429 616.1965,-273.2848 607.6511,-275.269 607.6511,-275.269"/>
<ellipse fill="none" stroke="#000000" cx="604.5116" cy="-274.6499" rx="3.2" ry="3.2"/>
</g>
<!-- tareas -->
<g id="node12" class="node">
<title>tareas</title>
<g id="a_node12"><a xlink:href="../../tables/tareas.html" xlink:title="tareas" target="_top">
<polygon fill="#ffffff" stroke="transparent" points="622,-167.3168 622,-228.3168 695,-228.3168 695,-167.3168 622,-167.3168"/>
<polygon fill="#f5f5f5" stroke="transparent" points="622.5,-204.8168 622.5,-227.8168 695.5,-227.8168 695.5,-204.8168 622.5,-204.8168"/>
<polygon fill="none" stroke="#000000" points="622.5,-204.8168 622.5,-227.8168 695.5,-227.8168 695.5,-204.8168 622.5,-204.8168"/>
<text text-anchor="start" x="627.2183" y="-213.9168" font-family="Helvetica,sans-Serif" font-weight="bold" font-size="11.00" fill="#000000">tareas</text>
<text text-anchor="start" x="661.0219" y="-212.9168" font-family="Helvetica,sans-Serif" font-size="11.00" fill="#000000">[table]</text>
<polygon fill="none" stroke="#000000" points="622.5,-185.8168 622.5,-204.8168 695.5,-204.8168 695.5,-185.8168 622.5,-185.8168"/>
<text text-anchor="start" x="625.5" y="-191.9168" font-family="Helvetica,sans-Serif" font-size="11.00" fill="#000000">...</text>
<polygon fill="#ffffff" stroke="transparent" points="622.5,-166.8168 622.5,-185.8168 644.5,-185.8168 644.5,-166.8168 622.5,-166.8168"/>
<polygon fill="none" stroke="#000000" points="622.5,-166.8168 622.5,-185.8168 644.5,-185.8168 644.5,-166.8168 622.5,-166.8168"/>
<text text-anchor="start" x="625.5" y="-172.9168" font-family="Helvetica,sans-Serif" font-size="11.00" fill="#000000">&lt; 3</text>
<polygon fill="#ffffff" stroke="transparent" points="644.5,-166.8168 644.5,-185.8168 682.5,-185.8168 682.5,-166.8168 644.5,-166.8168"/>
<polygon fill="none" stroke="#000000" points="644.5,-166.8168 644.5,-185.8168 682.5,-185.8168 682.5,-166.8168 644.5,-166.8168"/>
<text text-anchor="start" x="647.3053" y="-172.9168" font-family="Helvetica,sans-Serif" font-size="11.00" fill="#000000">0 rows</text>
<polygon fill="#ffffff" stroke="transparent" points="682.5,-166.8168 682.5,-185.8168 695.5,-185.8168 695.5,-166.8168 682.5,-166.8168"/>
<polygon fill="none" stroke="#000000" points="682.5,-166.8168 682.5,-185.8168 695.5,-185.8168 695.5,-166.8168 682.5,-166.8168"/>
<text text-anchor="start" x="686.3862" y="-172.9168" font-family="Helvetica,sans-Serif" font-size="11.00" fill="#000000"> &#160;</text>
</a>
</g>
</g>
<!-- tareas&#45;&gt;contactos -->
<g id="edge21" class="edge">
<title>tareas:w&#45;&gt;contactos:e</title>
<path fill="none" stroke="#000000" d="M607.968,-197.0348C592.0431,-202.7016 586.8797,-218.6944 577,-238.8168 547.7331,-298.4257 589.4436,-487.3951 544,-535.8168 542.8202,-537.0739 301.224,-578.8168 299.5,-578.8168"/>
<polygon fill="#000000" stroke="#000000" points="614.5916,-196.0239 623.0432,-198.3756 618.5458,-195.4203 622.5,-194.8168 622.5,-194.8168 622.5,-194.8168 618.5458,-195.4203 621.9568,-191.258 614.5916,-196.0239 614.5916,-196.0239"/>
<ellipse fill="none" stroke="#000000" cx="611.4282" cy="-196.5067" rx="3.2" ry="3.2"/>
</g>
<!-- tareas&#45;&gt;leads -->
<g id="edge22" class="edge">
<title>tareas:w&#45;&gt;leads:e</title>
<path fill="none" stroke="#000000" d="M610.1461,-202.979C587.7877,-223.72 547.1243,-276.8168 536.5,-276.8168"/>
<polygon fill="#000000" stroke="#000000" points="615.8253,-199.2268 624.4845,-197.8204 619.1626,-197.0218 622.5,-194.8168 622.5,-194.8168 622.5,-194.8168 619.1626,-197.0218 620.5155,-191.8132 615.8253,-199.2268 615.8253,-199.2268"/>
<ellipse fill="none" stroke="#000000" cx="613.1554" cy="-200.9908" rx="3.2" ry="3.2"/>
</g>
<!-- tareas&#45;&gt;usuarios -->
<g id="edge23" class="edge">
<title>tareas:w&#45;&gt;usuarios:e</title>
<path fill="none" stroke="#000000" d="M608.1122,-193.0204C559.532,-179.2067 600.23,-89.5218 544,-56.8168 448.8363,-1.4668 406.5898,-66.8168 296.5,-66.8168"/>
<polygon fill="#000000" stroke="#000000" points="614.5616,-193.8256 622.054,-198.389 618.5308,-194.3212 622.5,-194.8168 622.5,-194.8168 622.5,-194.8168 618.5308,-194.3212 622.946,-191.2445 614.5616,-193.8256 614.5616,-193.8256"/>
<ellipse fill="none" stroke="#000000" cx="611.3863" cy="-193.4291" rx="3.2" ry="3.2"/>
</g>
</g>
</svg>
