<?xml version="1.0" encoding="UTF-8" standalone="no"?>
<!DOCTYPE svg PUBLIC "-//W3C//DTD SVG 1.1//EN"
 "http://www.w3.org/Graphics/SVG/1.1/DTD/svg11.dtd">
<!-- Generated by graphviz version 2.40.1 (20161225.0304)
 -->
<!-- Title: oneDegreeRelationshipsDiagramImplied Pages: 1 -->
<svg width="636pt" height="526pt"
 viewBox="0.00 0.00 636.00 525.70" xmlns="http://www.w3.org/2000/svg" xmlns:xlink="http://www.w3.org/1999/xlink">
<g id="graph0" class="graph" transform="scale(1 1) rotate(0) translate(4 521.7)">
<title>oneDegreeRelationshipsDiagramImplied</title>
<polygon fill="#ffffff" stroke="transparent" points="-4,4 -4,-521.7 632,-521.7 632,4 -4,4"/>
<text text-anchor="middle" x="72.4936" y="-7.3" font-family="Helvetica,sans-Serif" font-size="11.00" fill="#000000">Generated by SchemaSpy</text>
<!-- campanas -->
<g id="node1" class="node">
<title>campanas</title>
<g id="a_node1"><a xlink:href="../../tables/campanas.html" xlink:title="campanas" target="_top">
<polygon fill="#ffffff" stroke="transparent" points="197,-181.7 197,-513.7 431,-513.7 431,-181.7 197,-181.7"/>
<polygon fill="#f5f5f5" stroke="transparent" points="199,-488.7 199,-511.7 429,-511.7 429,-488.7 199,-488.7"/>
<polygon fill="none" stroke="#000000" points="199,-488.7 199,-511.7 429,-511.7 429,-488.7 199,-488.7"/>
<text text-anchor="start" x="204" y="-497.8" font-family="Helvetica,sans-Serif" font-weight="bold" font-size="11.00" fill="#000000">campanas</text>
<text text-anchor="start" x="394.0437" y="-496.8" font-family="Helvetica,sans-Serif" font-size="11.00" fill="#000000">[table]</text>
<polygon fill="none" stroke="#000000" points="199,-466.7 199,-488.7 339,-488.7 339,-466.7 199,-466.7"/>
<image xlink:href="../../images/primaryKeys.png" width="11px" height="12px" preserveAspectRatio="xMinYMin meet" x="204" y="-483.7"/>
<text text-anchor="start" x="219" y="-473.8" font-family="Helvetica,sans-Serif" font-size="11.00" fill="#000000">campana_id</text>
<polygon fill="none" stroke="#000000" points="339,-466.7 339,-488.7 429,-488.7 429,-466.7 339,-466.7"/>
<text text-anchor="start" x="342" y="-474.4" font-family="Helvetica,sans-Serif" font-size="11.00" fill="#000000">int4[10]</text>
<polygon fill="none" stroke="#000000" points="199,-444.7 199,-466.7 339,-466.7 339,-444.7 199,-444.7"/>
<image xlink:href="../../images/foreignKeys.png" width="11px" height="12px" preserveAspectRatio="xMinYMin meet" x="204" y="-461.7"/>
<text text-anchor="start" x="219" y="-451.8" font-family="Helvetica,sans-Serif" font-size="11.00" fill="#000000">usu_asignado_id</text>
<polygon fill="none" stroke="#000000" points="339,-444.7 339,-466.7 429,-466.7 429,-444.7 339,-444.7"/>
<text text-anchor="start" x="342" y="-452.4" font-family="Helvetica,sans-Serif" font-size="11.00" fill="#000000">int4[10]</text>
<polygon fill="none" stroke="#000000" points="199,-422.7 199,-444.7 339,-444.7 339,-422.7 199,-422.7"/>
<text text-anchor="start" x="219" y="-429.8" font-family="Helvetica,sans-Serif" font-size="11.00" fill="#000000">nombre</text>
<polygon fill="none" stroke="#000000" points="339,-422.7 339,-444.7 429,-444.7 429,-422.7 339,-422.7"/>
<text text-anchor="start" x="342" y="-430.4" font-family="Helvetica,sans-Serif" font-size="11.00" fill="#000000">varchar[120]</text>
<polygon fill="none" stroke="#000000" points="199,-400.7 199,-422.7 339,-422.7 339,-400.7 199,-400.7"/>
<text text-anchor="start" x="219" y="-407.8" font-family="Helvetica,sans-Serif" font-size="11.00" fill="#000000">descripcion</text>
<polygon fill="none" stroke="#000000" points="339,-400.7 339,-422.7 429,-422.7 429,-400.7 339,-400.7"/>
<text text-anchor="start" x="341.5043" y="-408.4" font-family="Helvetica,sans-Serif" font-size="11.00" fill="#000000">text[2147483647]</text>
<polygon fill="none" stroke="#000000" points="199,-378.7 199,-400.7 339,-400.7 339,-378.7 199,-378.7"/>
<text text-anchor="start" x="219" y="-385.8" font-family="Helvetica,sans-Serif" font-size="11.00" fill="#000000">estado</text>
<polygon fill="none" stroke="#000000" points="339,-378.7 339,-400.7 429,-400.7 429,-378.7 339,-378.7"/>
<text text-anchor="start" x="342" y="-386.4" font-family="Helvetica,sans-Serif" font-size="11.00" fill="#000000">int4[10]</text>
<polygon fill="none" stroke="#000000" points="199,-356.7 199,-378.7 339,-378.7 339,-356.7 199,-356.7"/>
<text text-anchor="start" x="219" y="-363.8" font-family="Helvetica,sans-Serif" font-size="11.00" fill="#000000">fec_inicio</text>
<polygon fill="none" stroke="#000000" points="339,-356.7 339,-378.7 429,-378.7 429,-356.7 339,-356.7"/>
<text text-anchor="start" x="342" y="-364.4" font-family="Helvetica,sans-Serif" font-size="11.00" fill="#000000">date[13]</text>
<polygon fill="none" stroke="#000000" points="199,-334.7 199,-356.7 339,-356.7 339,-334.7 199,-334.7"/>
<text text-anchor="start" x="219" y="-341.8" font-family="Helvetica,sans-Serif" font-size="11.00" fill="#000000">fec_final</text>
<polygon fill="none" stroke="#000000" points="339,-334.7 339,-356.7 429,-356.7 429,-334.7 339,-334.7"/>
<text text-anchor="start" x="342" y="-342.4" font-family="Helvetica,sans-Serif" font-size="11.00" fill="#000000">date[13]</text>
<polygon fill="none" stroke="#000000" points="199,-312.7 199,-334.7 339,-334.7 339,-312.7 199,-312.7"/>
<text text-anchor="start" x="219" y="-319.8" font-family="Helvetica,sans-Serif" font-size="11.00" fill="#000000">fec_insercion</text>
<polygon fill="none" stroke="#000000" points="339,-312.7 339,-334.7 429,-334.7 429,-312.7 339,-312.7"/>
<text text-anchor="start" x="342" y="-320.4" font-family="Helvetica,sans-Serif" font-size="11.00" fill="#000000">timestamp[29,6]</text>
<polygon fill="none" stroke="#000000" points="199,-290.7 199,-312.7 339,-312.7 339,-290.7 199,-290.7"/>
<image xlink:href="../../images/foreignKeys.png" width="11px" height="12px" preserveAspectRatio="xMinYMin meet" x="204" y="-307.7"/>
<text text-anchor="start" x="219" y="-297.8" font-family="Helvetica,sans-Serif" font-size="11.00" fill="#000000">usu_insercion_id</text>
<polygon fill="none" stroke="#000000" points="339,-290.7 339,-312.7 429,-312.7 429,-290.7 339,-290.7"/>
<text text-anchor="start" x="342" y="-298.4" font-family="Helvetica,sans-Serif" font-size="11.00" fill="#000000">int4[10]</text>
<polygon fill="none" stroke="#000000" points="199,-268.7 199,-290.7 339,-290.7 339,-268.7 199,-268.7"/>
<text text-anchor="start" x="219" y="-275.8" font-family="Helvetica,sans-Serif" font-size="11.00" fill="#000000">fec_modificacion</text>
<polygon fill="none" stroke="#000000" points="339,-268.7 339,-290.7 429,-290.7 429,-268.7 339,-268.7"/>
<text text-anchor="start" x="342" y="-276.4" font-family="Helvetica,sans-Serif" font-size="11.00" fill="#000000">timestamp[29,6]</text>
<polygon fill="none" stroke="#000000" points="199,-246.7 199,-268.7 339,-268.7 339,-246.7 199,-246.7"/>
<image xlink:href="../../images/foreignKeys.png" width="11px" height="12px" preserveAspectRatio="xMinYMin meet" x="204" y="-263.7"/>
<text text-anchor="start" x="219" y="-253.8" font-family="Helvetica,sans-Serif" font-size="11.00" fill="#000000">usu_modificacion_id</text>
<polygon fill="none" stroke="#000000" points="339,-246.7 339,-268.7 429,-268.7 429,-246.7 339,-246.7"/>
<text text-anchor="start" x="342" y="-254.4" font-family="Helvetica,sans-Serif" font-size="11.00" fill="#000000">int4[10]</text>
<polygon fill="none" stroke="#000000" points="199,-224.7 199,-246.7 339,-246.7 339,-224.7 199,-224.7"/>
<text text-anchor="start" x="219" y="-231.8" font-family="Helvetica,sans-Serif" font-size="11.00" fill="#000000">fec_eliminacion</text>
<polygon fill="none" stroke="#000000" points="339,-224.7 339,-246.7 429,-246.7 429,-224.7 339,-224.7"/>
<text text-anchor="start" x="342" y="-232.4" font-family="Helvetica,sans-Serif" font-size="11.00" fill="#000000">timestamp[29,6]</text>
<polygon fill="none" stroke="#000000" points="199,-202.7 199,-224.7 339,-224.7 339,-202.7 199,-202.7"/>
<image xlink:href="../../images/foreignKeys.png" width="11px" height="12px" preserveAspectRatio="xMinYMin meet" x="204" y="-219.7"/>
<text text-anchor="start" x="219" y="-209.8" font-family="Helvetica,sans-Serif" font-size="11.00" fill="#000000">usu_eliminacion_id</text>
<polygon fill="none" stroke="#000000" points="339,-202.7 339,-224.7 429,-224.7 429,-202.7 339,-202.7"/>
<text text-anchor="start" x="342" y="-210.4" font-family="Helvetica,sans-Serif" font-size="11.00" fill="#000000">int4[10]</text>
<polygon fill="#ffffff" stroke="transparent" points="199,-183.7 199,-202.7 260,-202.7 260,-183.7 199,-183.7"/>
<polygon fill="none" stroke="#000000" points="199,-183.7 199,-202.7 260,-202.7 260,-183.7 199,-183.7"/>
<text text-anchor="start" x="202" y="-189.8" font-family="Helvetica,sans-Serif" font-size="11.00" fill="#000000">&lt; 4</text>
<polygon fill="#ffffff" stroke="transparent" points="260,-183.7 260,-202.7 339,-202.7 339,-183.7 260,-183.7"/>
<polygon fill="none" stroke="#000000" points="260,-183.7 260,-202.7 339,-202.7 339,-183.7 260,-183.7"/>
<text text-anchor="start" x="303.6105" y="-189.8" font-family="Helvetica,sans-Serif" font-size="11.00" fill="#000000">0 rows</text>
<polygon fill="#ffffff" stroke="transparent" points="339,-183.7 339,-202.7 429,-202.7 429,-183.7 339,-183.7"/>
<polygon fill="none" stroke="#000000" points="339,-183.7 339,-202.7 429,-202.7 429,-183.7 339,-183.7"/>
<text text-anchor="start" x="410.4053" y="-189.8" font-family="Helvetica,sans-Serif" font-size="11.00" fill="#000000">1 &gt;</text>
<polygon fill="none" stroke="#000000" stroke-width="2" points="198,-182.7 198,-512.7 430,-512.7 430,-182.7 198,-182.7"/>
</a>
</g>
</g>
<!-- usuarios -->
<g id="node2" class="node">
<title>usuarios</title>
<g id="a_node2"><a xlink:href="../../tables/usuarios.html" xlink:title="usuarios" target="_top">
<polygon fill="#ffffff" stroke="transparent" points="8,-49.2 8,-220.2 148,-220.2 148,-49.2 8,-49.2"/>
<polygon fill="#f5f5f5" stroke="transparent" points="8,-196.7 8,-219.7 148,-219.7 148,-196.7 8,-196.7"/>
<polygon fill="none" stroke="#000000" points="8,-196.7 8,-219.7 148,-219.7 148,-196.7 8,-196.7"/>
<text text-anchor="start" x="13" y="-205.8" font-family="Helvetica,sans-Serif" font-weight="bold" font-size="11.00" fill="#000000">usuarios</text>
<text text-anchor="start" x="113.0437" y="-204.8" font-family="Helvetica,sans-Serif" font-size="11.00" fill="#000000">[table]</text>
<polygon fill="none" stroke="#000000" points="8,-174.7 8,-196.7 148,-196.7 148,-174.7 8,-174.7"/>
<image xlink:href="../../images/primaryKeys.png" width="11px" height="12px" preserveAspectRatio="xMinYMin meet" x="13" y="-191.7"/>
<text text-anchor="start" x="28" y="-181.8" font-family="Helvetica,sans-Serif" font-size="11.00" fill="#000000">usuario_id</text>
<polygon fill="none" stroke="#000000" points="8,-152.7 8,-174.7 148,-174.7 148,-152.7 8,-152.7"/>
<image xlink:href="../../images/foreignKeys.png" width="11px" height="12px" preserveAspectRatio="xMinYMin meet" x="13" y="-169.7"/>
<text text-anchor="start" x="28" y="-159.8" font-family="Helvetica,sans-Serif" font-size="11.00" fill="#000000">persona_id</text>
<polygon fill="none" stroke="#000000" points="8,-130.7 8,-152.7 148,-152.7 148,-130.7 8,-130.7"/>
<image xlink:href="../../images/foreignKeys.png" width="11px" height="12px" preserveAspectRatio="xMinYMin meet" x="13" y="-147.7"/>
<text text-anchor="start" x="28" y="-137.8" font-family="Helvetica,sans-Serif" font-size="11.00" fill="#000000">usu_insercion_id</text>
<polygon fill="none" stroke="#000000" points="8,-108.7 8,-130.7 148,-130.7 148,-108.7 8,-108.7"/>
<image xlink:href="../../images/foreignKeys.png" width="11px" height="12px" preserveAspectRatio="xMinYMin meet" x="13" y="-125.7"/>
<text text-anchor="start" x="28" y="-115.8" font-family="Helvetica,sans-Serif" font-size="11.00" fill="#000000">usu_modificacion_id</text>
<polygon fill="none" stroke="#000000" points="8,-86.7 8,-108.7 148,-108.7 148,-86.7 8,-86.7"/>
<image xlink:href="../../images/foreignKeys.png" width="11px" height="12px" preserveAspectRatio="xMinYMin meet" x="13" y="-103.7"/>
<text text-anchor="start" x="28" y="-93.8" font-family="Helvetica,sans-Serif" font-size="11.00" fill="#000000">usu_eliminacion_id</text>
<polygon fill="none" stroke="#000000" points="8,-67.7 8,-86.7 148,-86.7 148,-67.7 8,-67.7"/>
<text text-anchor="start" x="11" y="-73.8" font-family="Helvetica,sans-Serif" font-size="11.00" fill="#000000">...</text>
<polygon fill="#ffffff" stroke="transparent" points="8,-48.7 8,-67.7 56,-67.7 56,-48.7 8,-48.7"/>
<polygon fill="none" stroke="#000000" points="8,-48.7 8,-67.7 56,-67.7 56,-48.7 8,-48.7"/>
<text text-anchor="start" x="11" y="-54.8" font-family="Helvetica,sans-Serif" font-size="11.00" fill="#000000">&lt; 4</text>
<polygon fill="#ffffff" stroke="transparent" points="56,-48.7 56,-67.7 107,-67.7 107,-48.7 56,-48.7"/>
<polygon fill="none" stroke="#000000" points="56,-48.7 56,-67.7 107,-67.7 107,-48.7 56,-48.7"/>
<text text-anchor="start" x="71.6105" y="-54.8" font-family="Helvetica,sans-Serif" font-size="11.00" fill="#000000">0 rows</text>
<polygon fill="#ffffff" stroke="transparent" points="107,-48.7 107,-67.7 148,-67.7 148,-48.7 107,-48.7"/>
<polygon fill="none" stroke="#000000" points="107,-48.7 107,-67.7 148,-67.7 148,-48.7 107,-48.7"/>
<text text-anchor="start" x="123.2904" y="-54.8" font-family="Helvetica,sans-Serif" font-size="11.00" fill="#000000">19 &gt;</text>
</a>
</g>
</g>
<!-- campanas&#45;&gt;usuarios -->
<g id="edge1" class="edge">
<title>campanas:w&#45;&gt;usuarios:e</title>
<path fill="none" stroke="#000000" d="M184.6735,-454.1816C93.2533,-432.491 264.7553,-185.7 148,-185.7"/>
<polygon fill="#000000" stroke="#000000" points="191.0446,-454.8568 198.6205,-459.2799 195.0223,-455.2784 199,-455.7 199,-455.7 199,-455.7 195.0223,-455.2784 199.3795,-452.1201 191.0446,-454.8568 191.0446,-454.8568"/>
<ellipse fill="none" stroke="#000000" cx="187.8624" cy="-454.5195" rx="3.2" ry="3.2"/>
</g>
<!-- campanas&#45;&gt;usuarios -->
<g id="edge2" class="edge">
<title>campanas:w&#45;&gt;usuarios:e</title>
<path fill="none" stroke="#000000" d="M184.8987,-210.0395C172.1024,-202.4498 167.9996,-185.7 148,-185.7"/>
<polygon fill="#000000" stroke="#000000" points="191.2566,-211.6899 198.0954,-217.1845 195.1283,-212.6949 199,-213.7 199,-213.7 199,-213.7 195.1283,-212.6949 199.9046,-210.2155 191.2566,-211.6899 191.2566,-211.6899"/>
<ellipse fill="none" stroke="#000000" cx="188.1593" cy="-210.8858" rx="3.2" ry="3.2"/>
</g>
<!-- campanas&#45;&gt;usuarios -->
<g id="edge3" class="edge">
<title>campanas:w&#45;&gt;usuarios:e</title>
<path fill="none" stroke="#000000" d="M184.84,-298.1011C154.3711,-278.5216 198.3785,-185.7 148,-185.7"/>
<polygon fill="#000000" stroke="#000000" points="191.2465,-299.7294 198.1132,-305.1891 195.1233,-300.7147 199,-301.7 199,-301.7 199,-301.7 195.1233,-300.7147 199.8868,-298.2109 191.2465,-299.7294 191.2465,-299.7294"/>
<ellipse fill="none" stroke="#000000" cx="188.1451" cy="-298.9411" rx="3.2" ry="3.2"/>
</g>
<!-- campanas&#45;&gt;usuarios -->
<g id="edge4" class="edge">
<title>campanas:w&#45;&gt;usuarios:e</title>
<path fill="none" stroke="#000000" d="M185.2466,-253.1961C166.5961,-237.4335 181.2404,-185.7 148,-185.7"/>
<polygon fill="#000000" stroke="#000000" points="191.3973,-255.2102 197.8796,-261.1212 195.1986,-256.4551 199,-257.7 199,-257.7 199,-257.7 195.1986,-256.4551 200.1204,-254.2788 191.3973,-255.2102 191.3973,-255.2102"/>
<ellipse fill="none" stroke="#000000" cx="188.3562" cy="-254.2143" rx="3.2" ry="3.2"/>
</g>
<!-- oportunidades -->
<g id="node3" class="node">
<title>oportunidades</title>
<g id="a_node3"><a xlink:href="../../tables/oportunidades.html" xlink:title="oportunidades" target="_top">
<polygon fill="#ffffff" stroke="transparent" points="480,-38.2 480,-231.2 620,-231.2 620,-38.2 480,-38.2"/>
<polygon fill="#f5f5f5" stroke="transparent" points="480,-207.7 480,-230.7 620,-230.7 620,-207.7 480,-207.7"/>
<polygon fill="none" stroke="#000000" points="480,-207.7 480,-230.7 620,-230.7 620,-207.7 480,-207.7"/>
<text text-anchor="start" x="485" y="-216.8" font-family="Helvetica,sans-Serif" font-weight="bold" font-size="11.00" fill="#000000">oportunidades</text>
<text text-anchor="start" x="585.0437" y="-215.8" font-family="Helvetica,sans-Serif" font-size="11.00" fill="#000000">[table]</text>
<polygon fill="none" stroke="#000000" points="480,-185.7 480,-207.7 620,-207.7 620,-185.7 480,-185.7"/>
<image xlink:href="../../images/primaryKeys.png" width="11px" height="12px" preserveAspectRatio="xMinYMin meet" x="485" y="-202.7"/>
<text text-anchor="start" x="500" y="-192.8" font-family="Helvetica,sans-Serif" font-size="11.00" fill="#000000">oportunidad_id</text>
<polygon fill="none" stroke="#000000" points="480,-163.7 480,-185.7 620,-185.7 620,-163.7 480,-163.7"/>
<image xlink:href="../../images/foreignKeys.png" width="11px" height="12px" preserveAspectRatio="xMinYMin meet" x="485" y="-180.7"/>
<text text-anchor="start" x="500" y="-170.8" font-family="Helvetica,sans-Serif" font-size="11.00" fill="#000000">campana_id</text>
<polygon fill="none" stroke="#000000" points="480,-141.7 480,-163.7 620,-163.7 620,-141.7 480,-141.7"/>
<image xlink:href="../../images/foreignKeys.png" width="11px" height="12px" preserveAspectRatio="xMinYMin meet" x="485" y="-158.7"/>
<text text-anchor="start" x="500" y="-148.8" font-family="Helvetica,sans-Serif" font-size="11.00" fill="#000000">usu_asignado_id</text>
<polygon fill="none" stroke="#000000" points="480,-119.7 480,-141.7 620,-141.7 620,-119.7 480,-119.7"/>
<image xlink:href="../../images/foreignKeys.png" width="11px" height="12px" preserveAspectRatio="xMinYMin meet" x="485" y="-136.7"/>
<text text-anchor="start" x="500" y="-126.8" font-family="Helvetica,sans-Serif" font-size="11.00" fill="#000000">usu_insercion_id</text>
<polygon fill="none" stroke="#000000" points="480,-97.7 480,-119.7 620,-119.7 620,-97.7 480,-97.7"/>
<image xlink:href="../../images/foreignKeys.png" width="11px" height="12px" preserveAspectRatio="xMinYMin meet" x="485" y="-114.7"/>
<text text-anchor="start" x="500" y="-104.8" font-family="Helvetica,sans-Serif" font-size="11.00" fill="#000000">usu_modificacion_id</text>
<polygon fill="none" stroke="#000000" points="480,-75.7 480,-97.7 620,-97.7 620,-75.7 480,-75.7"/>
<image xlink:href="../../images/foreignKeys.png" width="11px" height="12px" preserveAspectRatio="xMinYMin meet" x="485" y="-92.7"/>
<text text-anchor="start" x="500" y="-82.8" font-family="Helvetica,sans-Serif" font-size="11.00" fill="#000000">usu_eliminacion_id</text>
<polygon fill="none" stroke="#000000" points="480,-56.7 480,-75.7 620,-75.7 620,-56.7 480,-56.7"/>
<text text-anchor="start" x="483" y="-62.8" font-family="Helvetica,sans-Serif" font-size="11.00" fill="#000000">...</text>
<polygon fill="#ffffff" stroke="transparent" points="480,-37.7 480,-56.7 535,-56.7 535,-37.7 480,-37.7"/>
<polygon fill="none" stroke="#000000" points="480,-37.7 480,-56.7 535,-56.7 535,-37.7 480,-37.7"/>
<text text-anchor="start" x="483" y="-43.8" font-family="Helvetica,sans-Serif" font-size="11.00" fill="#000000">&lt; 5</text>
<polygon fill="#ffffff" stroke="transparent" points="535,-37.7 535,-56.7 590,-56.7 590,-37.7 535,-37.7"/>
<polygon fill="none" stroke="#000000" points="535,-37.7 535,-56.7 590,-56.7 590,-37.7 535,-37.7"/>
<text text-anchor="start" x="554.6105" y="-43.8" font-family="Helvetica,sans-Serif" font-size="11.00" fill="#000000">0 rows</text>
<polygon fill="#ffffff" stroke="transparent" points="590,-37.7 590,-56.7 620,-56.7 620,-37.7 590,-37.7"/>
<polygon fill="none" stroke="#000000" points="590,-37.7 590,-56.7 620,-56.7 620,-37.7 590,-37.7"/>
<text text-anchor="start" x="610.8862" y="-43.8" font-family="Helvetica,sans-Serif" font-size="11.00" fill="#000000"> &#160;</text>
</a>
</g>
</g>
<!-- oportunidades&#45;&gt;campanas -->
<g id="edge5" class="edge">
<title>oportunidades:w&#45;&gt;campanas:e</title>
<path fill="none" stroke="#000000" d="M465.5959,-176.0509C360.245,-197.9095 560.2265,-477.7 429,-477.7"/>
<polygon fill="#000000" stroke="#000000" points="472.035,-175.4471 480.3362,-178.2843 476.0175,-175.0735 480,-174.7 480,-174.7 480,-174.7 476.0175,-175.0735 479.6638,-171.1157 472.035,-175.4471 472.035,-175.4471"/>
<ellipse fill="none" stroke="#000000" cx="468.8489" cy="-175.7459" rx="3.2" ry="3.2"/>
</g>
<!-- oportunidades&#45;&gt;usuarios -->
<g id="edge6" class="edge">
<title>oportunidades:w&#45;&gt;usuarios:e</title>
<path fill="none" stroke="#000000" d="M465.5956,-152.6743C347.6445,-152.2598 311.258,-147.2828 189,-171.7 170.1176,-175.4712 167.2553,-185.7 148,-185.7"/>
<polygon fill="#000000" stroke="#000000" points="472,-152.6857 479.9936,-156.3 476,-152.6928 480,-152.7 480,-152.7 480,-152.7 476,-152.6928 480.0064,-149.1 472,-152.6857 472,-152.6857"/>
<ellipse fill="none" stroke="#000000" cx="468.8" cy="-152.68" rx="3.2" ry="3.2"/>
</g>
<!-- oportunidades&#45;&gt;usuarios -->
<g id="edge7" class="edge">
<title>oportunidades:w&#45;&gt;usuarios:e</title>
<path fill="none" stroke="#000000" d="M465.5394,-86.4294C346.4402,-81.9665 292.5568,-24.6914 189,-93.7 151.748,-118.5242 192.7655,-185.7 148,-185.7"/>
<polygon fill="#000000" stroke="#000000" points="472.0014,-86.5503 479.9326,-90.2994 476.0007,-86.6251 480,-86.7 480,-86.7 480,-86.7 476.0007,-86.6251 480.0674,-83.1006 472.0014,-86.5503 472.0014,-86.5503"/>
<ellipse fill="none" stroke="#000000" cx="468.802" cy="-86.4904" rx="3.2" ry="3.2"/>
</g>
<!-- oportunidades&#45;&gt;usuarios -->
<g id="edge8" class="edge">
<title>oportunidades:w&#45;&gt;usuarios:e</title>
<path fill="none" stroke="#000000" d="M465.5666,-130.5661C347.1105,-128.3654 303.9043,-100.3941 189,-148.7 166.373,-158.2124 172.5452,-185.7 148,-185.7"/>
<polygon fill="#000000" stroke="#000000" points="472.0003,-130.6257 479.9666,-134.2998 476.0002,-130.6629 480,-130.7 480,-130.7 480,-130.7 476.0002,-130.6629 480.0334,-127.1002 472.0003,-130.6257 472.0003,-130.6257"/>
<ellipse fill="none" stroke="#000000" cx="468.8005" cy="-130.596" rx="3.2" ry="3.2"/>
</g>
<!-- oportunidades&#45;&gt;usuarios -->
<g id="edge9" class="edge">
<title>oportunidades:w&#45;&gt;usuarios:e</title>
<path fill="none" stroke="#000000" d="M465.32,-108.3791C392.5308,-105.5832 240.9678,-86.1766 189,-116.7 158.2412,-134.7662 183.672,-185.7 148,-185.7"/>
<polygon fill="#000000" stroke="#000000" points="472.0019,-108.5251 479.9213,-112.2991 476.001,-108.6126 480,-108.7 480,-108.7 480,-108.7 476.001,-108.6126 480.0787,-105.1009 472.0019,-108.5251 472.0019,-108.5251"/>
<ellipse fill="none" stroke="#000000" cx="468.8027" cy="-108.4552" rx="3.2" ry="3.2"/>
</g>
</g>
</svg>
