<?xml version="1.0" encoding="UTF-8" standalone="no"?>
<!DOCTYPE svg PUBLIC "-//W3C//DTD SVG 1.1//EN"
 "http://www.w3.org/Graphics/SVG/1.1/DTD/svg11.dtd">
<!-- Generated by graphviz version 2.40.1 (20161225.0304)
 -->
<!-- Title: twoDegreesRelationshipsDiagram Pages: 1 -->
<svg width="783pt" height="635pt"
 viewBox="0.00 0.00 783.00 634.61" xmlns="http://www.w3.org/2000/svg" xmlns:xlink="http://www.w3.org/1999/xlink">
<g id="graph0" class="graph" transform="scale(1 1) rotate(0) translate(4 630.6127)">
<title>twoDegreesRelationshipsDiagram</title>
<polygon fill="#ffffff" stroke="transparent" points="-4,4 -4,-630.6127 779,-630.6127 779,4 -4,4"/>
<text text-anchor="middle" x="72.4936" y="-7.3" font-family="Helvetica,sans-Serif" font-size="11.00" fill="#000000">Generated by SchemaSpy</text>
<!-- casos -->
<g id="node1" class="node">
<title>casos</title>
<g id="a_node1"><a xlink:href="../../tables/casos.html" xlink:title="casos" target="_top">
<polygon fill="#ffffff" stroke="transparent" points="474,-246.1127 474,-307.1127 545,-307.1127 545,-246.1127 474,-246.1127"/>
<polygon fill="#f5f5f5" stroke="transparent" points="474.5,-283.6127 474.5,-306.6127 545.5,-306.6127 545.5,-283.6127 474.5,-283.6127"/>
<polygon fill="none" stroke="#000000" points="474.5,-283.6127 474.5,-306.6127 545.5,-306.6127 545.5,-283.6127 474.5,-283.6127"/>
<text text-anchor="start" x="479.1351" y="-292.7127" font-family="Helvetica,sans-Serif" font-weight="bold" font-size="11.00" fill="#000000">casos</text>
<text text-anchor="start" x="511.0219" y="-291.7127" font-family="Helvetica,sans-Serif" font-size="11.00" fill="#000000">[table]</text>
<polygon fill="none" stroke="#000000" points="474.5,-264.6127 474.5,-283.6127 545.5,-283.6127 545.5,-264.6127 474.5,-264.6127"/>
<text text-anchor="start" x="477.5" y="-270.7127" font-family="Helvetica,sans-Serif" font-size="11.00" fill="#000000">...</text>
<polygon fill="#ffffff" stroke="transparent" points="474.5,-245.6127 474.5,-264.6127 495.5,-264.6127 495.5,-245.6127 474.5,-245.6127"/>
<polygon fill="none" stroke="#000000" points="474.5,-245.6127 474.5,-264.6127 495.5,-264.6127 495.5,-245.6127 474.5,-245.6127"/>
<text text-anchor="start" x="477.2027" y="-251.7127" font-family="Helvetica,sans-Serif" font-size="11.00" fill="#000000">&lt; 3</text>
<polygon fill="#ffffff" stroke="transparent" points="495.5,-245.6127 495.5,-264.6127 533.5,-264.6127 533.5,-245.6127 495.5,-245.6127"/>
<polygon fill="none" stroke="#000000" points="495.5,-245.6127 495.5,-264.6127 533.5,-264.6127 533.5,-245.6127 495.5,-245.6127"/>
<text text-anchor="start" x="498.3053" y="-251.7127" font-family="Helvetica,sans-Serif" font-size="11.00" fill="#000000">0 rows</text>
<polygon fill="#ffffff" stroke="transparent" points="533.5,-245.6127 533.5,-264.6127 545.5,-264.6127 545.5,-245.6127 533.5,-245.6127"/>
<polygon fill="none" stroke="#000000" points="533.5,-245.6127 533.5,-264.6127 545.5,-264.6127 545.5,-245.6127 533.5,-245.6127"/>
<text text-anchor="start" x="536.4431" y="-251.7127" font-family="Helvetica,sans-Serif" font-size="11.00" fill="#000000"> &#160;</text>
</a>
</g>
</g>
<!-- contactos -->
<g id="node2" class="node">
<title>contactos</title>
<g id="a_node2"><a xlink:href="../../tables/contactos.html" xlink:title="contactos" target="_top">
<polygon fill="#ffffff" stroke="transparent" points="292.5,-67.1127 292.5,-128.1127 382.5,-128.1127 382.5,-67.1127 292.5,-67.1127"/>
<polygon fill="#f5f5f5" stroke="transparent" points="292.5,-104.6127 292.5,-127.6127 382.5,-127.6127 382.5,-104.6127 292.5,-104.6127"/>
<polygon fill="none" stroke="#000000" points="292.5,-104.6127 292.5,-127.6127 382.5,-127.6127 382.5,-104.6127 292.5,-104.6127"/>
<text text-anchor="start" x="297.4633" y="-113.7127" font-family="Helvetica,sans-Serif" font-weight="bold" font-size="11.00" fill="#000000">contactos</text>
<text text-anchor="start" x="348.0219" y="-112.7127" font-family="Helvetica,sans-Serif" font-size="11.00" fill="#000000">[table]</text>
<polygon fill="none" stroke="#000000" points="292.5,-85.6127 292.5,-104.6127 382.5,-104.6127 382.5,-85.6127 292.5,-85.6127"/>
<text text-anchor="start" x="295.5" y="-91.7127" font-family="Helvetica,sans-Serif" font-size="11.00" fill="#000000">...</text>
<polygon fill="#ffffff" stroke="transparent" points="292.5,-66.6127 292.5,-85.6127 318.5,-85.6127 318.5,-66.6127 292.5,-66.6127"/>
<polygon fill="none" stroke="#000000" points="292.5,-66.6127 292.5,-85.6127 318.5,-85.6127 318.5,-66.6127 292.5,-66.6127"/>
<text text-anchor="start" x="295.5" y="-72.7127" font-family="Helvetica,sans-Serif" font-size="11.00" fill="#000000">&lt; 2</text>
<polygon fill="#ffffff" stroke="transparent" points="318.5,-66.6127 318.5,-85.6127 358.5,-85.6127 358.5,-66.6127 318.5,-66.6127"/>
<polygon fill="none" stroke="#000000" points="318.5,-66.6127 318.5,-85.6127 358.5,-85.6127 358.5,-66.6127 318.5,-66.6127"/>
<text text-anchor="start" x="323.1105" y="-72.7127" font-family="Helvetica,sans-Serif" font-size="11.00" fill="#000000">0 rows</text>
<polygon fill="#ffffff" stroke="transparent" points="358.5,-66.6127 358.5,-85.6127 382.5,-85.6127 382.5,-66.6127 358.5,-66.6127"/>
<polygon fill="none" stroke="#000000" points="358.5,-66.6127 358.5,-85.6127 382.5,-85.6127 382.5,-66.6127 358.5,-66.6127"/>
<text text-anchor="start" x="363.9053" y="-72.7127" font-family="Helvetica,sans-Serif" font-size="11.00" fill="#000000">5 &gt;</text>
</a>
</g>
</g>
<!-- casos&#45;&gt;contactos -->
<g id="edge1" class="edge">
<title>casos:w&#45;&gt;contactos:e</title>
<path fill="none" stroke="#000000" d="M460.1137,-271.7235C394.9279,-252.5931 466.5324,-94.6127 382.5,-94.6127"/>
<polygon fill="#000000" stroke="#000000" points="466.5681,-272.571 474.0313,-277.182 470.534,-273.0919 474.5,-273.6127 474.5,-273.6127 474.5,-273.6127 470.534,-273.0919 474.9687,-270.0433 466.5681,-272.571 466.5681,-272.571"/>
<ellipse fill="none" stroke="#000000" cx="463.3953" cy="-272.1544" rx="3.2" ry="3.2"/>
</g>
<!-- leads -->
<g id="node3" class="node">
<title>leads</title>
<g id="a_node3"><a xlink:href="../../tables/leads.html" xlink:title="leads" target="_top">
<polygon fill="#ffffff" stroke="transparent" points="276,-149.1127 276,-320.1127 399,-320.1127 399,-149.1127 276,-149.1127"/>
<polygon fill="#f5f5f5" stroke="transparent" points="276.5,-296.6127 276.5,-319.6127 399.5,-319.6127 399.5,-296.6127 276.5,-296.6127"/>
<polygon fill="none" stroke="#000000" points="276.5,-296.6127 276.5,-319.6127 399.5,-319.6127 399.5,-296.6127 276.5,-296.6127"/>
<text text-anchor="start" x="281.5" y="-305.7127" font-family="Helvetica,sans-Serif" font-weight="bold" font-size="11.00" fill="#000000">leads</text>
<text text-anchor="start" x="364.5437" y="-304.7127" font-family="Helvetica,sans-Serif" font-size="11.00" fill="#000000">[table]</text>
<polygon fill="none" stroke="#000000" points="276.5,-274.6127 276.5,-296.6127 399.5,-296.6127 399.5,-274.6127 276.5,-274.6127"/>
<image xlink:href="../../images/primaryKeys.png" width="11px" height="12px" preserveAspectRatio="xMinYMin meet" x="281.5" y="-291.613"/>
<text text-anchor="start" x="296.5" y="-281.7127" font-family="Helvetica,sans-Serif" font-size="11.00" fill="#000000">lead_id</text>
<polygon fill="none" stroke="#000000" points="276.5,-252.6127 276.5,-274.6127 399.5,-274.6127 399.5,-252.6127 276.5,-252.6127"/>
<image xlink:href="../../images/foreignKeys.png" width="11px" height="12px" preserveAspectRatio="xMinYMin meet" x="281.5" y="-269.613"/>
<text text-anchor="start" x="296.5" y="-259.7127" font-family="Helvetica,sans-Serif" font-size="11.00" fill="#000000">usu_asignado_id</text>
<polygon fill="none" stroke="#000000" points="276.5,-230.6127 276.5,-252.6127 399.5,-252.6127 399.5,-230.6127 276.5,-230.6127"/>
<image xlink:href="../../images/foreignKeys.png" width="11px" height="12px" preserveAspectRatio="xMinYMin meet" x="281.5" y="-247.613"/>
<text text-anchor="start" x="296.5" y="-237.7127" font-family="Helvetica,sans-Serif" font-size="11.00" fill="#000000">campana_id</text>
<polygon fill="none" stroke="#000000" points="276.5,-208.6127 276.5,-230.6127 399.5,-230.6127 399.5,-208.6127 276.5,-208.6127"/>
<image xlink:href="../../images/foreignKeys.png" width="11px" height="12px" preserveAspectRatio="xMinYMin meet" x="281.5" y="-225.613"/>
<text text-anchor="start" x="296.5" y="-215.7127" font-family="Helvetica,sans-Serif" font-size="11.00" fill="#000000">persona_id</text>
<polygon fill="none" stroke="#000000" points="276.5,-186.6127 276.5,-208.6127 399.5,-208.6127 399.5,-186.6127 276.5,-186.6127"/>
<image xlink:href="../../images/foreignKeys.png" width="11px" height="12px" preserveAspectRatio="xMinYMin meet" x="281.5" y="-203.613"/>
<text text-anchor="start" x="296.5" y="-193.7127" font-family="Helvetica,sans-Serif" font-size="11.00" fill="#000000">curso_id</text>
<polygon fill="none" stroke="#000000" points="276.5,-167.6127 276.5,-186.6127 399.5,-186.6127 399.5,-167.6127 276.5,-167.6127"/>
<text text-anchor="start" x="279.5" y="-173.7127" font-family="Helvetica,sans-Serif" font-size="11.00" fill="#000000">...</text>
<polygon fill="#ffffff" stroke="transparent" points="276.5,-148.6127 276.5,-167.6127 318.5,-167.6127 318.5,-148.6127 276.5,-148.6127"/>
<polygon fill="none" stroke="#000000" points="276.5,-148.6127 276.5,-167.6127 318.5,-167.6127 318.5,-148.6127 276.5,-148.6127"/>
<text text-anchor="start" x="279.5" y="-154.7127" font-family="Helvetica,sans-Serif" font-size="11.00" fill="#000000">&lt; 4</text>
<polygon fill="#ffffff" stroke="transparent" points="318.5,-148.6127 318.5,-167.6127 367.5,-167.6127 367.5,-148.6127 318.5,-148.6127"/>
<polygon fill="none" stroke="#000000" points="318.5,-148.6127 318.5,-167.6127 367.5,-167.6127 367.5,-148.6127 318.5,-148.6127"/>
<text text-anchor="start" x="332.1105" y="-154.7127" font-family="Helvetica,sans-Serif" font-size="11.00" fill="#000000">0 rows</text>
<polygon fill="#ffffff" stroke="transparent" points="367.5,-148.6127 367.5,-167.6127 399.5,-167.6127 399.5,-148.6127 367.5,-148.6127"/>
<polygon fill="none" stroke="#000000" points="367.5,-148.6127 367.5,-167.6127 399.5,-167.6127 399.5,-148.6127 367.5,-148.6127"/>
<text text-anchor="start" x="380.9053" y="-154.7127" font-family="Helvetica,sans-Serif" font-size="11.00" fill="#000000">3 &gt;</text>
</a>
</g>
</g>
<!-- casos&#45;&gt;leads -->
<g id="edge2" class="edge">
<title>casos:w&#45;&gt;leads:e</title>
<path fill="none" stroke="#000000" d="M460.0864,-274.4375C437.6712,-277.1486 427.8509,-285.6127 399.5,-285.6127"/>
<polygon fill="#000000" stroke="#000000" points="466.5131,-274.0698 474.7057,-277.2068 470.5065,-273.8412 474.5,-273.6127 474.5,-273.6127 474.5,-273.6127 470.5065,-273.8412 474.2943,-270.0185 466.5131,-274.0698 466.5131,-274.0698"/>
<ellipse fill="none" stroke="#000000" cx="463.3183" cy="-274.2526" rx="3.2" ry="3.2"/>
</g>
<!-- usuarios -->
<g id="node4" class="node">
<title>usuarios</title>
<g id="a_node4"><a xlink:href="../../tables/usuarios.html" xlink:title="usuarios" target="_top">
<polygon fill="#ffffff" stroke="transparent" points="75.5,-214.1127 75.5,-275.1127 159.5,-275.1127 159.5,-214.1127 75.5,-214.1127"/>
<polygon fill="#f5f5f5" stroke="transparent" points="75.5,-251.6127 75.5,-274.6127 159.5,-274.6127 159.5,-251.6127 75.5,-251.6127"/>
<polygon fill="none" stroke="#000000" points="75.5,-251.6127 75.5,-274.6127 159.5,-274.6127 159.5,-251.6127 75.5,-251.6127"/>
<text text-anchor="start" x="80.2188" y="-260.7127" font-family="Helvetica,sans-Serif" font-weight="bold" font-size="11.00" fill="#000000">usuarios</text>
<text text-anchor="start" x="125.0219" y="-259.7127" font-family="Helvetica,sans-Serif" font-size="11.00" fill="#000000">[table]</text>
<polygon fill="none" stroke="#000000" points="75.5,-232.6127 75.5,-251.6127 159.5,-251.6127 159.5,-232.6127 75.5,-232.6127"/>
<text text-anchor="start" x="78.5" y="-238.7127" font-family="Helvetica,sans-Serif" font-size="11.00" fill="#000000">...</text>
<polygon fill="#ffffff" stroke="transparent" points="75.5,-213.6127 75.5,-232.6127 96.5,-232.6127 96.5,-213.6127 75.5,-213.6127"/>
<polygon fill="none" stroke="#000000" points="75.5,-213.6127 75.5,-232.6127 96.5,-232.6127 96.5,-213.6127 75.5,-213.6127"/>
<text text-anchor="start" x="78.5" y="-219.7127" font-family="Helvetica,sans-Serif" font-size="11.00" fill="#000000"> &#160;</text>
<polygon fill="#ffffff" stroke="transparent" points="96.5,-213.6127 96.5,-232.6127 133.5,-232.6127 133.5,-213.6127 96.5,-213.6127"/>
<polygon fill="none" stroke="#000000" points="96.5,-213.6127 96.5,-232.6127 133.5,-232.6127 133.5,-213.6127 96.5,-213.6127"/>
<text text-anchor="start" x="103.6105" y="-219.7127" font-family="Helvetica,sans-Serif" font-size="11.00" fill="#000000">1 row</text>
<polygon fill="#ffffff" stroke="transparent" points="133.5,-213.6127 133.5,-232.6127 159.5,-232.6127 159.5,-213.6127 133.5,-213.6127"/>
<polygon fill="none" stroke="#000000" points="133.5,-213.6127 133.5,-232.6127 159.5,-232.6127 159.5,-213.6127 133.5,-213.6127"/>
<text text-anchor="start" x="140.9053" y="-219.7127" font-family="Helvetica,sans-Serif" font-size="11.00" fill="#000000">5 &gt;</text>
</a>
</g>
</g>
<!-- casos&#45;&gt;usuarios -->
<g id="edge3" class="edge">
<title>casos:w&#45;&gt;usuarios:e</title>
<path fill="none" stroke="#000000" d="M460.1949,-276.1175C436.7817,-285.5634 438.5466,-319.0747 407,-330.6127 348.981,-351.8327 323.1064,-358.5372 268,-330.6127 245.8769,-319.402 253.4341,-302.2047 235,-285.6127 206.1329,-259.6302 198.3381,-241.6127 159.5,-241.6127"/>
<polygon fill="#000000" stroke="#000000" points="466.6199,-274.9925 475.1209,-277.1587 470.5599,-274.3026 474.5,-273.6127 474.5,-273.6127 474.5,-273.6127 470.5599,-274.3026 473.8791,-270.0666 466.6199,-274.9925 466.6199,-274.9925"/>
<ellipse fill="none" stroke="#000000" cx="463.4678" cy="-275.5445" rx="3.2" ry="3.2"/>
</g>
<!-- personas -->
<g id="node5" class="node">
<title>personas</title>
<g id="a_node5"><a xlink:href="../../tables/personas.html" xlink:title="personas" target="_top">
<polygon fill="#ffffff" stroke="transparent" points="73.5,-110.1127 73.5,-171.1127 161.5,-171.1127 161.5,-110.1127 73.5,-110.1127"/>
<polygon fill="#f5f5f5" stroke="transparent" points="73.5,-147.6127 73.5,-170.6127 161.5,-170.6127 161.5,-147.6127 73.5,-147.6127"/>
<polygon fill="none" stroke="#000000" points="73.5,-147.6127 73.5,-170.6127 161.5,-170.6127 161.5,-147.6127 73.5,-147.6127"/>
<text text-anchor="start" x="78.3818" y="-156.7127" font-family="Helvetica,sans-Serif" font-weight="bold" font-size="11.00" fill="#000000">personas</text>
<text text-anchor="start" x="127.0219" y="-155.7127" font-family="Helvetica,sans-Serif" font-size="11.00" fill="#000000">[table]</text>
<polygon fill="none" stroke="#000000" points="73.5,-128.6127 73.5,-147.6127 161.5,-147.6127 161.5,-128.6127 73.5,-128.6127"/>
<text text-anchor="start" x="76.5" y="-134.7127" font-family="Helvetica,sans-Serif" font-size="11.00" fill="#000000">...</text>
<polygon fill="#ffffff" stroke="transparent" points="73.5,-109.6127 73.5,-128.6127 96.5,-128.6127 96.5,-109.6127 73.5,-109.6127"/>
<polygon fill="none" stroke="#000000" points="73.5,-109.6127 73.5,-128.6127 96.5,-128.6127 96.5,-109.6127 73.5,-109.6127"/>
<text text-anchor="start" x="76.5" y="-115.7127" font-family="Helvetica,sans-Serif" font-size="11.00" fill="#000000"> &#160;</text>
<polygon fill="#ffffff" stroke="transparent" points="96.5,-109.6127 96.5,-128.6127 134.5,-128.6127 134.5,-109.6127 96.5,-109.6127"/>
<polygon fill="none" stroke="#000000" points="96.5,-109.6127 96.5,-128.6127 134.5,-128.6127 134.5,-109.6127 96.5,-109.6127"/>
<text text-anchor="start" x="104.6105" y="-115.7127" font-family="Helvetica,sans-Serif" font-size="11.00" fill="#000000">1 row</text>
<polygon fill="#ffffff" stroke="transparent" points="134.5,-109.6127 134.5,-128.6127 161.5,-128.6127 161.5,-109.6127 134.5,-109.6127"/>
<polygon fill="none" stroke="#000000" points="134.5,-109.6127 134.5,-128.6127 161.5,-128.6127 161.5,-109.6127 134.5,-109.6127"/>
<text text-anchor="start" x="142.9053" y="-115.7127" font-family="Helvetica,sans-Serif" font-size="11.00" fill="#000000">7 &gt;</text>
</a>
</g>
</g>
<!-- contactos&#45;&gt;personas -->
<g id="edge4" class="edge">
<title>contactos:w&#45;&gt;personas:e</title>
<path fill="none" stroke="#000000" d="M278.1161,-95.4716C229.4306,-101.532 217.6321,-137.6127 161.5,-137.6127"/>
<polygon fill="#000000" stroke="#000000" points="284.5142,-95.0896 292.7146,-98.2063 288.5071,-94.8511 292.5,-94.6127 292.5,-94.6127 292.5,-94.6127 288.5071,-94.8511 292.2854,-91.0191 284.5142,-95.0896 284.5142,-95.0896"/>
<ellipse fill="none" stroke="#000000" cx="281.3199" cy="-95.2804" rx="3.2" ry="3.2"/>
</g>
<!-- leads&#45;&gt;usuarios -->
<g id="edge10" class="edge">
<title>leads:w&#45;&gt;usuarios:e</title>
<path fill="none" stroke="#000000" d="M261.8484,-263.0013C220.9479,-259.4481 207.1408,-241.6127 159.5,-241.6127"/>
<polygon fill="#000000" stroke="#000000" points="268.507,-263.2791 276.3499,-267.2095 272.5035,-263.4459 276.5,-263.6127 276.5,-263.6127 276.5,-263.6127 272.5035,-263.4459 276.6501,-260.0158 268.507,-263.2791 268.507,-263.2791"/>
<ellipse fill="none" stroke="#000000" cx="265.3097" cy="-263.1457" rx="3.2" ry="3.2"/>
</g>
<!-- leads&#45;&gt;personas -->
<g id="edge9" class="edge">
<title>leads:w&#45;&gt;personas:e</title>
<path fill="none" stroke="#000000" d="M262.1486,-217.9747C214.9807,-206.4176 219.0017,-137.6127 161.5,-137.6127"/>
<polygon fill="#000000" stroke="#000000" points="268.5516,-218.7054 276.0917,-223.1894 272.5258,-219.1591 276.5,-219.6127 276.5,-219.6127 276.5,-219.6127 272.5258,-219.1591 276.9083,-216.0359 268.5516,-218.7054 268.5516,-218.7054"/>
<ellipse fill="none" stroke="#000000" cx="265.3722" cy="-218.3425" rx="3.2" ry="3.2"/>
</g>
<!-- campanas -->
<g id="node8" class="node">
<title>campanas</title>
<g id="a_node8"><a xlink:href="../../tables/campanas.html" xlink:title="campanas" target="_top">
<polygon fill="#ffffff" stroke="transparent" points="8,-378.6127 8,-622.6127 227,-622.6127 227,-378.6127 8,-378.6127"/>
<polygon fill="#f5f5f5" stroke="transparent" points="10.5,-597.6127 10.5,-620.6127 225.5,-620.6127 225.5,-597.6127 10.5,-597.6127"/>
<polygon fill="none" stroke="#000000" points="10.5,-597.6127 10.5,-620.6127 225.5,-620.6127 225.5,-597.6127 10.5,-597.6127"/>
<text text-anchor="start" x="15.5" y="-606.7127" font-family="Helvetica,sans-Serif" font-weight="bold" font-size="11.00" fill="#000000">campanas</text>
<text text-anchor="start" x="190.5437" y="-605.7127" font-family="Helvetica,sans-Serif" font-size="11.00" fill="#000000">[table]</text>
<polygon fill="none" stroke="#000000" points="10.5,-575.6127 10.5,-597.6127 133.5,-597.6127 133.5,-575.6127 10.5,-575.6127"/>
<image xlink:href="../../images/primaryKeys.png" width="11px" height="12px" preserveAspectRatio="xMinYMin meet" x="15.5" y="-592.613"/>
<text text-anchor="start" x="30.5" y="-582.7127" font-family="Helvetica,sans-Serif" font-size="11.00" fill="#000000">campana_id</text>
<polygon fill="none" stroke="#000000" points="133.5,-575.6127 133.5,-597.6127 225.5,-597.6127 225.5,-575.6127 133.5,-575.6127"/>
<text text-anchor="start" x="136.5" y="-583.3127" font-family="Helvetica,sans-Serif" font-size="11.00" fill="#000000">serial[10]</text>
<polygon fill="none" stroke="#000000" points="10.5,-553.6127 10.5,-575.6127 133.5,-575.6127 133.5,-553.6127 10.5,-553.6127"/>
<text text-anchor="start" x="30.5" y="-560.7127" font-family="Helvetica,sans-Serif" font-size="11.00" fill="#000000">nombre</text>
<polygon fill="none" stroke="#000000" points="133.5,-553.6127 133.5,-575.6127 225.5,-575.6127 225.5,-553.6127 133.5,-553.6127"/>
<text text-anchor="start" x="136.5" y="-561.3127" font-family="Helvetica,sans-Serif" font-size="11.00" fill="#000000">varchar[255]</text>
<polygon fill="none" stroke="#000000" points="10.5,-531.6127 10.5,-553.6127 133.5,-553.6127 133.5,-531.6127 10.5,-531.6127"/>
<text text-anchor="start" x="30.5" y="-538.7127" font-family="Helvetica,sans-Serif" font-size="11.00" fill="#000000">descripcion</text>
<polygon fill="none" stroke="#000000" points="133.5,-531.6127 133.5,-553.6127 225.5,-553.6127 225.5,-531.6127 133.5,-531.6127"/>
<text text-anchor="start" x="136.5" y="-539.3127" font-family="Helvetica,sans-Serif" font-size="11.00" fill="#000000">text[2147483647]</text>
<polygon fill="none" stroke="#000000" points="10.5,-509.6127 10.5,-531.6127 133.5,-531.6127 133.5,-509.6127 10.5,-509.6127"/>
<text text-anchor="start" x="30.5" y="-516.7127" font-family="Helvetica,sans-Serif" font-size="11.00" fill="#000000">fec_inicio</text>
<polygon fill="none" stroke="#000000" points="133.5,-509.6127 133.5,-531.6127 225.5,-531.6127 225.5,-509.6127 133.5,-509.6127"/>
<text text-anchor="start" x="136.1023" y="-517.3127" font-family="Helvetica,sans-Serif" font-size="11.00" fill="#000000">timestamptz[35,6]</text>
<polygon fill="none" stroke="#000000" points="10.5,-487.6127 10.5,-509.6127 133.5,-509.6127 133.5,-487.6127 10.5,-487.6127"/>
<text text-anchor="start" x="30.5" y="-494.7127" font-family="Helvetica,sans-Serif" font-size="11.00" fill="#000000">fec_fin</text>
<polygon fill="none" stroke="#000000" points="133.5,-487.6127 133.5,-509.6127 225.5,-509.6127 225.5,-487.6127 133.5,-487.6127"/>
<text text-anchor="start" x="136.1023" y="-495.3127" font-family="Helvetica,sans-Serif" font-size="11.00" fill="#000000">timestamptz[35,6]</text>
<polygon fill="none" stroke="#000000" points="10.5,-465.6127 10.5,-487.6127 133.5,-487.6127 133.5,-465.6127 10.5,-465.6127"/>
<text text-anchor="start" x="30.5" y="-472.7127" font-family="Helvetica,sans-Serif" font-size="11.00" fill="#000000">usu_insercion</text>
<polygon fill="none" stroke="#000000" points="133.5,-465.6127 133.5,-487.6127 225.5,-487.6127 225.5,-465.6127 133.5,-465.6127"/>
<text text-anchor="start" x="136.5" y="-473.3127" font-family="Helvetica,sans-Serif" font-size="11.00" fill="#000000">varchar[20]</text>
<polygon fill="none" stroke="#000000" points="10.5,-443.6127 10.5,-465.6127 133.5,-465.6127 133.5,-443.6127 10.5,-443.6127"/>
<text text-anchor="start" x="30.5" y="-450.7127" font-family="Helvetica,sans-Serif" font-size="11.00" fill="#000000">fec_insercion</text>
<polygon fill="none" stroke="#000000" points="133.5,-443.6127 133.5,-465.6127 225.5,-465.6127 225.5,-443.6127 133.5,-443.6127"/>
<text text-anchor="start" x="136.1023" y="-451.3127" font-family="Helvetica,sans-Serif" font-size="11.00" fill="#000000">timestamptz[35,6]</text>
<polygon fill="none" stroke="#000000" points="10.5,-421.6127 10.5,-443.6127 133.5,-443.6127 133.5,-421.6127 10.5,-421.6127"/>
<text text-anchor="start" x="30.5" y="-428.7127" font-family="Helvetica,sans-Serif" font-size="11.00" fill="#000000">fec_modificacion</text>
<polygon fill="none" stroke="#000000" points="133.5,-421.6127 133.5,-443.6127 225.5,-443.6127 225.5,-421.6127 133.5,-421.6127"/>
<text text-anchor="start" x="136.1023" y="-429.3127" font-family="Helvetica,sans-Serif" font-size="11.00" fill="#000000">timestamptz[35,6]</text>
<polygon fill="none" stroke="#000000" points="10.5,-399.6127 10.5,-421.6127 133.5,-421.6127 133.5,-399.6127 10.5,-399.6127"/>
<text text-anchor="start" x="30.5" y="-406.7127" font-family="Helvetica,sans-Serif" font-size="11.00" fill="#000000">usu_modificacion</text>
<polygon fill="none" stroke="#000000" points="133.5,-399.6127 133.5,-421.6127 225.5,-421.6127 225.5,-399.6127 133.5,-399.6127"/>
<text text-anchor="start" x="136.5" y="-407.3127" font-family="Helvetica,sans-Serif" font-size="11.00" fill="#000000">varchar[20]</text>
<polygon fill="#ffffff" stroke="transparent" points="10.5,-380.6127 10.5,-399.6127 63.5,-399.6127 63.5,-380.6127 10.5,-380.6127"/>
<polygon fill="none" stroke="#000000" points="10.5,-380.6127 10.5,-399.6127 63.5,-399.6127 63.5,-380.6127 10.5,-380.6127"/>
<text text-anchor="start" x="13.5" y="-386.7127" font-family="Helvetica,sans-Serif" font-size="11.00" fill="#000000">&lt; 0</text>
<polygon fill="#ffffff" stroke="transparent" points="63.5,-380.6127 63.5,-399.6127 133.5,-399.6127 133.5,-380.6127 63.5,-380.6127"/>
<polygon fill="none" stroke="#000000" points="63.5,-380.6127 63.5,-399.6127 133.5,-399.6127 133.5,-380.6127 63.5,-380.6127"/>
<text text-anchor="start" x="98.1105" y="-386.7127" font-family="Helvetica,sans-Serif" font-size="11.00" fill="#000000">0 rows</text>
<polygon fill="#ffffff" stroke="transparent" points="133.5,-380.6127 133.5,-399.6127 225.5,-399.6127 225.5,-380.6127 133.5,-380.6127"/>
<polygon fill="none" stroke="#000000" points="133.5,-380.6127 133.5,-399.6127 225.5,-399.6127 225.5,-380.6127 133.5,-380.6127"/>
<text text-anchor="start" x="206.9053" y="-386.7127" font-family="Helvetica,sans-Serif" font-size="11.00" fill="#000000">2 &gt;</text>
<polygon fill="none" stroke="#000000" stroke-width="2" points="9,-379.6127 9,-621.6127 226,-621.6127 226,-379.6127 9,-379.6127"/>
</a>
</g>
</g>
<!-- leads&#45;&gt;campanas -->
<g id="edge7" class="edge">
<title>leads:w&#45;&gt;campanas:e</title>
<path fill="none" stroke="#000000" d="M262.7181,-246.4897C212.7278,-288.4227 297.5506,-586.6127 225.5,-586.6127"/>
<polygon fill="#000000" stroke="#000000" points="268.9583,-244.2815 277.701,-245.0064 272.7291,-242.9471 276.5,-241.6127 276.5,-241.6127 276.5,-241.6127 272.7291,-242.9471 275.299,-238.2189 268.9583,-244.2815 268.9583,-244.2815"/>
<ellipse fill="none" stroke="#000000" cx="265.9416" cy="-245.349" rx="3.2" ry="3.2"/>
</g>
<!-- cursos -->
<g id="node9" class="node">
<title>cursos</title>
<g id="a_node9"><a xlink:href="../../tables/cursos.html" xlink:title="cursos" target="_top">
<polygon fill="#ffffff" stroke="transparent" points="80,-296.1127 80,-357.1127 155,-357.1127 155,-296.1127 80,-296.1127"/>
<polygon fill="#f5f5f5" stroke="transparent" points="80.5,-333.6127 80.5,-356.6127 155.5,-356.6127 155.5,-333.6127 80.5,-333.6127"/>
<polygon fill="none" stroke="#000000" points="80.5,-333.6127 80.5,-356.6127 155.5,-356.6127 155.5,-333.6127 80.5,-333.6127"/>
<text text-anchor="start" x="85.3042" y="-342.7127" font-family="Helvetica,sans-Serif" font-weight="bold" font-size="11.00" fill="#000000">cursos</text>
<text text-anchor="start" x="121.0219" y="-341.7127" font-family="Helvetica,sans-Serif" font-size="11.00" fill="#000000">[table]</text>
<polygon fill="none" stroke="#000000" points="80.5,-314.6127 80.5,-333.6127 155.5,-333.6127 155.5,-314.6127 80.5,-314.6127"/>
<text text-anchor="start" x="83.5" y="-320.7127" font-family="Helvetica,sans-Serif" font-size="11.00" fill="#000000">...</text>
<polygon fill="#ffffff" stroke="transparent" points="80.5,-295.6127 80.5,-314.6127 94.5,-314.6127 94.5,-295.6127 80.5,-295.6127"/>
<polygon fill="none" stroke="#000000" points="80.5,-295.6127 80.5,-314.6127 94.5,-314.6127 94.5,-295.6127 80.5,-295.6127"/>
<text text-anchor="start" x="83.5" y="-301.7127" font-family="Helvetica,sans-Serif" font-size="11.00" fill="#000000"> &#160;</text>
<polygon fill="#ffffff" stroke="transparent" points="94.5,-295.6127 94.5,-314.6127 133.5,-314.6127 133.5,-295.6127 94.5,-295.6127"/>
<polygon fill="none" stroke="#000000" points="94.5,-295.6127 94.5,-314.6127 133.5,-314.6127 133.5,-295.6127 94.5,-295.6127"/>
<text text-anchor="start" x="98.1105" y="-301.7127" font-family="Helvetica,sans-Serif" font-size="11.00" fill="#000000">0 rows</text>
<polygon fill="#ffffff" stroke="transparent" points="133.5,-295.6127 133.5,-314.6127 155.5,-314.6127 155.5,-295.6127 133.5,-295.6127"/>
<polygon fill="none" stroke="#000000" points="133.5,-295.6127 133.5,-314.6127 155.5,-314.6127 155.5,-295.6127 133.5,-295.6127"/>
<text text-anchor="start" x="136.9053" y="-301.7127" font-family="Helvetica,sans-Serif" font-size="11.00" fill="#000000">3 &gt;</text>
</a>
</g>
</g>
<!-- leads&#45;&gt;cursos -->
<g id="edge8" class="edge">
<title>leads:w&#45;&gt;cursos:e</title>
<path fill="none" stroke="#000000" d="M262.3509,-200.781C241.0845,-213.2128 261.2082,-259.2673 235,-285.6127 207.3805,-313.3767 194.6622,-323.6127 155.5,-323.6127"/>
<polygon fill="#000000" stroke="#000000" points="268.6933,-199.3608 277.2867,-201.1257 272.5967,-198.4867 276.5,-197.6127 276.5,-197.6127 276.5,-197.6127 272.5967,-198.4867 275.7133,-194.0997 268.6933,-199.3608 268.6933,-199.3608"/>
<ellipse fill="none" stroke="#000000" cx="265.5707" cy="-200.06" rx="3.2" ry="3.2"/>
</g>
<!-- encuesta_respuestas -->
<g id="node6" class="node">
<title>encuesta_respuestas</title>
<g id="a_node6"><a xlink:href="../../tables/encuesta_respuestas.html" xlink:title="encuesta_respuestas" target="_top">
<polygon fill="#ffffff" stroke="transparent" points="620,-233.1127 620,-294.1127 767,-294.1127 767,-233.1127 620,-233.1127"/>
<polygon fill="#f5f5f5" stroke="transparent" points="620.5,-270.6127 620.5,-293.6127 767.5,-293.6127 767.5,-270.6127 620.5,-270.6127"/>
<polygon fill="none" stroke="#000000" points="620.5,-270.6127 620.5,-293.6127 767.5,-293.6127 767.5,-270.6127 620.5,-270.6127"/>
<text text-anchor="start" x="625.2302" y="-279.7127" font-family="Helvetica,sans-Serif" font-weight="bold" font-size="11.00" fill="#000000">encuesta_respuestas</text>
<text text-anchor="start" x="733.0219" y="-278.7127" font-family="Helvetica,sans-Serif" font-size="11.00" fill="#000000">[table]</text>
<polygon fill="none" stroke="#000000" points="620.5,-251.6127 620.5,-270.6127 767.5,-270.6127 767.5,-251.6127 620.5,-251.6127"/>
<text text-anchor="start" x="623.5" y="-257.7127" font-family="Helvetica,sans-Serif" font-size="11.00" fill="#000000">...</text>
<polygon fill="#ffffff" stroke="transparent" points="620.5,-232.6127 620.5,-251.6127 674.5,-251.6127 674.5,-232.6127 620.5,-232.6127"/>
<polygon fill="none" stroke="#000000" points="620.5,-232.6127 620.5,-251.6127 674.5,-251.6127 674.5,-232.6127 620.5,-232.6127"/>
<text text-anchor="start" x="623.5" y="-238.7127" font-family="Helvetica,sans-Serif" font-size="11.00" fill="#000000">&lt; 2</text>
<polygon fill="#ffffff" stroke="transparent" points="674.5,-232.6127 674.5,-251.6127 729.5,-251.6127 729.5,-232.6127 674.5,-232.6127"/>
<polygon fill="none" stroke="#000000" points="674.5,-232.6127 674.5,-251.6127 729.5,-251.6127 729.5,-232.6127 674.5,-232.6127"/>
<text text-anchor="start" x="694.1105" y="-238.7127" font-family="Helvetica,sans-Serif" font-size="11.00" fill="#000000">0 rows</text>
<polygon fill="#ffffff" stroke="transparent" points="729.5,-232.6127 729.5,-251.6127 767.5,-251.6127 767.5,-232.6127 729.5,-232.6127"/>
<polygon fill="none" stroke="#000000" points="729.5,-232.6127 729.5,-251.6127 767.5,-251.6127 767.5,-232.6127 729.5,-232.6127"/>
<text text-anchor="start" x="748.9053" y="-238.7127" font-family="Helvetica,sans-Serif" font-size="11.00" fill="#000000">1 &gt;</text>
</a>
</g>
</g>
<!-- encuesta_respuestas&#45;&gt;contactos -->
<g id="edge5" class="edge">
<title>encuesta_respuestas:w&#45;&gt;contactos:e</title>
<path fill="none" stroke="#000000" d="M605.8699,-258.8887C548.5225,-243.0275 641.5662,-121.9314 579,-71.6127 530.8595,-32.8959 500.6631,-59.93 440,-71.6127 412.9725,-76.8177 410.0242,-94.6127 382.5,-94.6127"/>
<polygon fill="#000000" stroke="#000000" points="612.555,-259.6764 620.0787,-264.1879 616.5275,-260.1445 620.5,-260.6127 620.5,-260.6127 620.5,-260.6127 616.5275,-260.1445 620.9213,-257.0374 612.555,-259.6764 612.555,-259.6764"/>
<ellipse fill="none" stroke="#000000" cx="609.377" cy="-259.3019" rx="3.2" ry="3.2"/>
</g>
<!-- oportunidades -->
<g id="node7" class="node">
<title>oportunidades</title>
<g id="a_node7"><a xlink:href="../../tables/oportunidades.html" xlink:title="oportunidades" target="_top">
<polygon fill="#ffffff" stroke="transparent" points="448,-328.1127 448,-499.1127 571,-499.1127 571,-328.1127 448,-328.1127"/>
<polygon fill="#f5f5f5" stroke="transparent" points="448.5,-475.6127 448.5,-498.6127 571.5,-498.6127 571.5,-475.6127 448.5,-475.6127"/>
<polygon fill="none" stroke="#000000" points="448.5,-475.6127 448.5,-498.6127 571.5,-498.6127 571.5,-475.6127 448.5,-475.6127"/>
<text text-anchor="start" x="453.5" y="-484.7127" font-family="Helvetica,sans-Serif" font-weight="bold" font-size="11.00" fill="#000000">oportunidades</text>
<text text-anchor="start" x="536.5437" y="-483.7127" font-family="Helvetica,sans-Serif" font-size="11.00" fill="#000000">[table]</text>
<polygon fill="none" stroke="#000000" points="448.5,-453.6127 448.5,-475.6127 571.5,-475.6127 571.5,-453.6127 448.5,-453.6127"/>
<image xlink:href="../../images/primaryKeys.png" width="11px" height="12px" preserveAspectRatio="xMinYMin meet" x="453.5" y="-470.613"/>
<text text-anchor="start" x="468.5" y="-460.7127" font-family="Helvetica,sans-Serif" font-size="11.00" fill="#000000">oportunidad_id</text>
<polygon fill="none" stroke="#000000" points="448.5,-431.6127 448.5,-453.6127 571.5,-453.6127 571.5,-431.6127 448.5,-431.6127"/>
<image xlink:href="../../images/foreignKeys.png" width="11px" height="12px" preserveAspectRatio="xMinYMin meet" x="453.5" y="-448.613"/>
<text text-anchor="start" x="468.5" y="-438.7127" font-family="Helvetica,sans-Serif" font-size="11.00" fill="#000000">campana_id</text>
<polygon fill="none" stroke="#000000" points="448.5,-409.6127 448.5,-431.6127 571.5,-431.6127 571.5,-409.6127 448.5,-409.6127"/>
<image xlink:href="../../images/foreignKeys.png" width="11px" height="12px" preserveAspectRatio="xMinYMin meet" x="453.5" y="-426.613"/>
<text text-anchor="start" x="468.5" y="-416.7127" font-family="Helvetica,sans-Serif" font-size="11.00" fill="#000000">contacto_id</text>
<polygon fill="none" stroke="#000000" points="448.5,-387.6127 448.5,-409.6127 571.5,-409.6127 571.5,-387.6127 448.5,-387.6127"/>
<image xlink:href="../../images/foreignKeys.png" width="11px" height="12px" preserveAspectRatio="xMinYMin meet" x="453.5" y="-404.613"/>
<text text-anchor="start" x="468.5" y="-394.7127" font-family="Helvetica,sans-Serif" font-size="11.00" fill="#000000">curso_id</text>
<polygon fill="none" stroke="#000000" points="448.5,-365.6127 448.5,-387.6127 571.5,-387.6127 571.5,-365.6127 448.5,-365.6127"/>
<image xlink:href="../../images/foreignKeys.png" width="11px" height="12px" preserveAspectRatio="xMinYMin meet" x="453.5" y="-382.613"/>
<text text-anchor="start" x="468.5" y="-372.7127" font-family="Helvetica,sans-Serif" font-size="11.00" fill="#000000">usu_asignado_id</text>
<polygon fill="none" stroke="#000000" points="448.5,-346.6127 448.5,-365.6127 571.5,-365.6127 571.5,-346.6127 448.5,-346.6127"/>
<text text-anchor="start" x="451.5" y="-352.7127" font-family="Helvetica,sans-Serif" font-size="11.00" fill="#000000">...</text>
<polygon fill="#ffffff" stroke="transparent" points="448.5,-327.6127 448.5,-346.6127 490.5,-346.6127 490.5,-327.6127 448.5,-327.6127"/>
<polygon fill="none" stroke="#000000" points="448.5,-327.6127 448.5,-346.6127 490.5,-346.6127 490.5,-327.6127 448.5,-327.6127"/>
<text text-anchor="start" x="451.5" y="-333.7127" font-family="Helvetica,sans-Serif" font-size="11.00" fill="#000000">&lt; 4</text>
<polygon fill="#ffffff" stroke="transparent" points="490.5,-327.6127 490.5,-346.6127 539.5,-346.6127 539.5,-327.6127 490.5,-327.6127"/>
<polygon fill="none" stroke="#000000" points="490.5,-327.6127 490.5,-346.6127 539.5,-346.6127 539.5,-327.6127 490.5,-327.6127"/>
<text text-anchor="start" x="504.1105" y="-333.7127" font-family="Helvetica,sans-Serif" font-size="11.00" fill="#000000">0 rows</text>
<polygon fill="#ffffff" stroke="transparent" points="539.5,-327.6127 539.5,-346.6127 571.5,-346.6127 571.5,-327.6127 539.5,-327.6127"/>
<polygon fill="none" stroke="#000000" points="539.5,-327.6127 539.5,-346.6127 571.5,-346.6127 571.5,-327.6127 539.5,-327.6127"/>
<text text-anchor="start" x="552.9053" y="-333.7127" font-family="Helvetica,sans-Serif" font-size="11.00" fill="#000000">1 &gt;</text>
</a>
</g>
</g>
<!-- encuesta_respuestas&#45;&gt;oportunidades -->
<g id="edge6" class="edge">
<title>encuesta_respuestas:w&#45;&gt;oportunidades:e</title>
<path fill="none" stroke="#000000" d="M605.998,-262.7657C543.058,-284.5679 659.0997,-464.6127 571.5,-464.6127"/>
<polygon fill="#000000" stroke="#000000" points="612.5867,-261.7875 621.0287,-264.1736 616.5434,-261.2001 620.5,-260.6127 620.5,-260.6127 620.5,-260.6127 616.5434,-261.2001 619.9713,-257.0517 612.5867,-261.7875 612.5867,-261.7875"/>
<ellipse fill="none" stroke="#000000" cx="609.4214" cy="-262.2575" rx="3.2" ry="3.2"/>
</g>
<!-- oportunidades&#45;&gt;contactos -->
<g id="edge14" class="edge">
<title>oportunidades:w&#45;&gt;contactos:e</title>
<path fill="none" stroke="#000000" d="M434.7981,-415.7513C385.5992,-375.198 451.0727,-94.6127 382.5,-94.6127"/>
<polygon fill="#000000" stroke="#000000" points="440.9605,-417.9376 447.2962,-424.0055 444.7302,-419.2752 448.5,-420.6127 448.5,-420.6127 448.5,-420.6127 444.7302,-419.2752 449.7038,-417.2199 440.9605,-417.9376 440.9605,-417.9376"/>
<ellipse fill="none" stroke="#000000" cx="437.9447" cy="-416.8676" rx="3.2" ry="3.2"/>
</g>
<!-- oportunidades&#45;&gt;usuarios -->
<g id="edge16" class="edge">
<title>oportunidades:w&#45;&gt;usuarios:e</title>
<path fill="none" stroke="#000000" d="M433.8301,-376.8284C363.0779,-378.8787 329.8205,-393.8968 268,-349.6127 241.9833,-330.976 257.0384,-308.8184 235,-285.6127 208.2548,-257.4508 198.3381,-241.6127 159.5,-241.6127"/>
<polygon fill="#000000" stroke="#000000" points="440.5009,-376.7304 448.553,-380.2123 444.5004,-376.6715 448.5,-376.6127 448.5,-376.6127 448.5,-376.6127 444.5004,-376.6715 448.447,-373.0131 440.5009,-376.7304 440.5009,-376.7304"/>
<ellipse fill="none" stroke="#000000" cx="437.3012" cy="-376.7774" rx="3.2" ry="3.2"/>
</g>
<!-- oportunidades&#45;&gt;campanas -->
<g id="edge13" class="edge">
<title>oportunidades:w&#45;&gt;campanas:e</title>
<path fill="none" stroke="#000000" d="M433.9963,-443.3874C331.3929,-454.7218 338.4095,-586.6127 225.5,-586.6127"/>
<polygon fill="#000000" stroke="#000000" points="440.5114,-443.0395 448.6921,-446.2075 444.5057,-442.8261 448.5,-442.6127 448.5,-442.6127 448.5,-442.6127 444.5057,-442.8261 448.3079,-439.0178 440.5114,-443.0395 440.5114,-443.0395"/>
<ellipse fill="none" stroke="#000000" cx="437.3159" cy="-443.2102" rx="3.2" ry="3.2"/>
</g>
<!-- oportunidades&#45;&gt;cursos -->
<g id="edge15" class="edge">
<title>oportunidades:w&#45;&gt;cursos:e</title>
<path fill="none" stroke="#000000" d="M434.0437,-398.6706C364.8846,-399.2086 340.4948,-402.8487 268,-381.6127 214.0147,-365.7986 211.7538,-323.6127 155.5,-323.6127"/>
<polygon fill="#000000" stroke="#000000" points="440.5001,-398.6448 448.5145,-402.2126 444.5,-398.6287 448.5,-398.6127 448.5,-398.6127 448.5,-398.6127 444.5,-398.6287 448.4855,-395.0127 440.5001,-398.6448 440.5001,-398.6448"/>
<ellipse fill="none" stroke="#000000" cx="437.3001" cy="-398.6576" rx="3.2" ry="3.2"/>
</g>
<!-- llamadas -->
<g id="node10" class="node">
<title>llamadas</title>
<g id="a_node10"><a xlink:href="../../tables/llamadas.html" xlink:title="llamadas" target="_top">
<polygon fill="#ffffff" stroke="transparent" points="466,-164.1127 466,-225.1127 553,-225.1127 553,-164.1127 466,-164.1127"/>
<polygon fill="#f5f5f5" stroke="transparent" points="466.5,-201.6127 466.5,-224.6127 553.5,-224.6127 553.5,-201.6127 466.5,-201.6127"/>
<polygon fill="none" stroke="#000000" points="466.5,-201.6127 466.5,-224.6127 553.5,-224.6127 553.5,-201.6127 466.5,-201.6127"/>
<text text-anchor="start" x="471.4984" y="-210.7127" font-family="Helvetica,sans-Serif" font-weight="bold" font-size="11.00" fill="#000000">llamadas</text>
<text text-anchor="start" x="519.0219" y="-209.7127" font-family="Helvetica,sans-Serif" font-size="11.00" fill="#000000">[table]</text>
<polygon fill="none" stroke="#000000" points="466.5,-182.6127 466.5,-201.6127 553.5,-201.6127 553.5,-182.6127 466.5,-182.6127"/>
<text text-anchor="start" x="469.5" y="-188.7127" font-family="Helvetica,sans-Serif" font-size="11.00" fill="#000000">...</text>
<polygon fill="#ffffff" stroke="transparent" points="466.5,-163.6127 466.5,-182.6127 495.5,-182.6127 495.5,-163.6127 466.5,-163.6127"/>
<polygon fill="none" stroke="#000000" points="466.5,-163.6127 466.5,-182.6127 495.5,-182.6127 495.5,-163.6127 466.5,-163.6127"/>
<text text-anchor="start" x="469.5" y="-169.7127" font-family="Helvetica,sans-Serif" font-size="11.00" fill="#000000">&lt; 2</text>
<polygon fill="#ffffff" stroke="transparent" points="495.5,-163.6127 495.5,-182.6127 537.5,-182.6127 537.5,-163.6127 495.5,-163.6127"/>
<polygon fill="none" stroke="#000000" points="495.5,-163.6127 495.5,-182.6127 537.5,-182.6127 537.5,-163.6127 495.5,-163.6127"/>
<text text-anchor="start" x="502.1105" y="-169.7127" font-family="Helvetica,sans-Serif" font-size="11.00" fill="#000000">0 rows</text>
<polygon fill="#ffffff" stroke="transparent" points="537.5,-163.6127 537.5,-182.6127 553.5,-182.6127 553.5,-163.6127 537.5,-163.6127"/>
<polygon fill="none" stroke="#000000" points="537.5,-163.6127 537.5,-182.6127 553.5,-182.6127 553.5,-163.6127 537.5,-163.6127"/>
<text text-anchor="start" x="544.3862" y="-169.7127" font-family="Helvetica,sans-Serif" font-size="11.00" fill="#000000"> &#160;</text>
</a>
</g>
</g>
<!-- llamadas&#45;&gt;contactos -->
<g id="edge11" class="edge">
<title>llamadas:w&#45;&gt;contactos:e</title>
<path fill="none" stroke="#000000" d="M452.1216,-189.0182C414.511,-173.5924 433.9601,-94.6127 382.5,-94.6127"/>
<polygon fill="#000000" stroke="#000000" points="458.6271,-190.192 465.8607,-195.1555 462.5636,-190.9023 466.5,-191.6127 466.5,-191.6127 466.5,-191.6127 462.5636,-190.9023 467.1393,-188.0699 458.6271,-190.192 458.6271,-190.192"/>
<ellipse fill="none" stroke="#000000" cx="455.478" cy="-189.6237" rx="3.2" ry="3.2"/>
</g>
<!-- llamadas&#45;&gt;leads -->
<g id="edge12" class="edge">
<title>llamadas:w&#45;&gt;leads:e</title>
<path fill="none" stroke="#000000" d="M452.1579,-194.9582C422.1481,-211.7033 444.9922,-285.6127 399.5,-285.6127"/>
<polygon fill="#000000" stroke="#000000" points="458.7092,-193.43 467.3178,-195.1186 462.6046,-192.5214 466.5,-191.6127 466.5,-191.6127 466.5,-191.6127 462.6046,-192.5214 465.6822,-188.1068 458.7092,-193.43 458.7092,-193.43"/>
<ellipse fill="none" stroke="#000000" cx="455.5928" cy="-194.157" rx="3.2" ry="3.2"/>
</g>
<!-- tareas -->
<g id="node11" class="node">
<title>tareas</title>
<g id="a_node11"><a xlink:href="../../tables/tareas.html" xlink:title="tareas" target="_top">
<polygon fill="#ffffff" stroke="transparent" points="473,-82.1127 473,-143.1127 546,-143.1127 546,-82.1127 473,-82.1127"/>
<polygon fill="#f5f5f5" stroke="transparent" points="473.5,-119.6127 473.5,-142.6127 546.5,-142.6127 546.5,-119.6127 473.5,-119.6127"/>
<polygon fill="none" stroke="#000000" points="473.5,-119.6127 473.5,-142.6127 546.5,-142.6127 546.5,-119.6127 473.5,-119.6127"/>
<text text-anchor="start" x="478.2183" y="-128.7127" font-family="Helvetica,sans-Serif" font-weight="bold" font-size="11.00" fill="#000000">tareas</text>
<text text-anchor="start" x="512.0219" y="-127.7127" font-family="Helvetica,sans-Serif" font-size="11.00" fill="#000000">[table]</text>
<polygon fill="none" stroke="#000000" points="473.5,-100.6127 473.5,-119.6127 546.5,-119.6127 546.5,-100.6127 473.5,-100.6127"/>
<text text-anchor="start" x="476.5" y="-106.7127" font-family="Helvetica,sans-Serif" font-size="11.00" fill="#000000">...</text>
<polygon fill="#ffffff" stroke="transparent" points="473.5,-81.6127 473.5,-100.6127 495.5,-100.6127 495.5,-81.6127 473.5,-81.6127"/>
<polygon fill="none" stroke="#000000" points="473.5,-81.6127 473.5,-100.6127 495.5,-100.6127 495.5,-81.6127 473.5,-81.6127"/>
<text text-anchor="start" x="476.5" y="-87.7127" font-family="Helvetica,sans-Serif" font-size="11.00" fill="#000000">&lt; 3</text>
<polygon fill="#ffffff" stroke="transparent" points="495.5,-81.6127 495.5,-100.6127 533.5,-100.6127 533.5,-81.6127 495.5,-81.6127"/>
<polygon fill="none" stroke="#000000" points="495.5,-81.6127 495.5,-100.6127 533.5,-100.6127 533.5,-81.6127 495.5,-81.6127"/>
<text text-anchor="start" x="498.3053" y="-87.7127" font-family="Helvetica,sans-Serif" font-size="11.00" fill="#000000">0 rows</text>
<polygon fill="#ffffff" stroke="transparent" points="533.5,-81.6127 533.5,-100.6127 546.5,-100.6127 546.5,-81.6127 533.5,-81.6127"/>
<polygon fill="none" stroke="#000000" points="533.5,-81.6127 533.5,-100.6127 546.5,-100.6127 546.5,-81.6127 533.5,-81.6127"/>
<text text-anchor="start" x="537.3862" y="-87.7127" font-family="Helvetica,sans-Serif" font-size="11.00" fill="#000000"> &#160;</text>
</a>
</g>
</g>
<!-- tareas&#45;&gt;contactos -->
<g id="edge17" class="edge">
<title>tareas:w&#45;&gt;contactos:e</title>
<path fill="none" stroke="#000000" d="M459.1051,-108.9292C429.6532,-105.9947 418.2063,-94.6127 382.5,-94.6127"/>
<polygon fill="#000000" stroke="#000000" points="465.509,-109.2332 473.3292,-113.2086 469.5045,-109.4229 473.5,-109.6127 473.5,-109.6127 473.5,-109.6127 469.5045,-109.4229 473.6708,-106.0167 465.509,-109.2332 465.509,-109.2332"/>
<ellipse fill="none" stroke="#000000" cx="462.3126" cy="-109.0814" rx="3.2" ry="3.2"/>
</g>
<!-- tareas&#45;&gt;leads -->
<g id="edge18" class="edge">
<title>tareas:w&#45;&gt;leads:e</title>
<path fill="none" stroke="#000000" d="M459.2461,-111.7118C400.2324,-131.569 478.886,-285.6127 399.5,-285.6127"/>
<polygon fill="#000000" stroke="#000000" points="465.5854,-110.7783 474.0245,-113.1743 469.5427,-110.1955 473.5,-109.6127 473.5,-109.6127 473.5,-109.6127 469.5427,-110.1955 472.9755,-106.0511 465.5854,-110.7783 465.5854,-110.7783"/>
<ellipse fill="none" stroke="#000000" cx="462.4195" cy="-111.2446" rx="3.2" ry="3.2"/>
</g>
<!-- tareas&#45;&gt;usuarios -->
<g id="edge19" class="edge">
<title>tareas:w&#45;&gt;usuarios:e</title>
<path fill="none" stroke="#000000" d="M459.0345,-107.0337C436.8396,-97.9168 437.2402,-67.1892 407,-56.6127 348.686,-36.2173 316.9422,-18.9144 268,-56.6127 222.4793,-91.6755 266.4265,-133.5096 235,-181.6127 211.5575,-217.4949 202.3612,-241.6127 159.5,-241.6127"/>
<polygon fill="#000000" stroke="#000000" points="465.6242,-108.2085 472.8681,-113.1568 469.5621,-108.9106 473.5,-109.6127 473.5,-109.6127 473.5,-109.6127 469.5621,-108.9106 474.1319,-106.0686 465.6242,-108.2085 465.6242,-108.2085"/>
<ellipse fill="none" stroke="#000000" cx="462.4739" cy="-107.6468" rx="3.2" ry="3.2"/>
</g>
</g>
</svg>
