<?xml version="1.0" encoding="UTF-8" standalone="no"?>
<!DOCTYPE svg PUBLIC "-//W3C//DTD SVG 1.1//EN"
 "http://www.w3.org/Graphics/SVG/1.1/DTD/svg11.dtd">
<!-- Generated by graphviz version 2.40.1 (20161225.0304)
 -->
<!-- Title: oneDegreeRelationshipsDiagram Pages: 1 -->
<svg width="679pt" height="487pt"
 viewBox="0.00 0.00 679.00 486.70" xmlns="http://www.w3.org/2000/svg" xmlns:xlink="http://www.w3.org/1999/xlink">
<g id="graph0" class="graph" transform="scale(1 1) rotate(0) translate(4 482.7)">
<title>oneDegreeRelationshipsDiagram</title>
<polygon fill="#ffffff" stroke="transparent" points="-4,4 -4,-482.7 675,-482.7 675,4 -4,4"/>
<text text-anchor="middle" x="72.4936" y="-7.3" font-family="Helvetica,sans-Serif" font-size="11.00" fill="#000000">Generated by SchemaSpy</text>
<!-- casos -->
<g id="node1" class="node">
<title>casos</title>
<g id="a_node1"><a xlink:href="../../tables/casos.html" xlink:title="casos" target="_top">
<polygon fill="#ffffff" stroke="transparent" points="352,-98.7 352,-474.7 663,-474.7 663,-98.7 352,-98.7"/>
<polygon fill="#f5f5f5" stroke="transparent" points="354.5,-449.7 354.5,-472.7 661.5,-472.7 661.5,-449.7 354.5,-449.7"/>
<polygon fill="none" stroke="#000000" points="354.5,-449.7 354.5,-472.7 661.5,-472.7 661.5,-449.7 354.5,-449.7"/>
<text text-anchor="start" x="359.5" y="-458.8" font-family="Helvetica,sans-Serif" font-weight="bold" font-size="11.00" fill="#000000">casos</text>
<text text-anchor="start" x="626.5437" y="-457.8" font-family="Helvetica,sans-Serif" font-size="11.00" fill="#000000">[table]</text>
<polygon fill="none" stroke="#000000" points="354.5,-427.7 354.5,-449.7 477.5,-449.7 477.5,-427.7 354.5,-427.7"/>
<image xlink:href="../../images/primaryKeys.png" width="11px" height="12px" preserveAspectRatio="xMinYMin meet" x="359.5" y="-444.7"/>
<text text-anchor="start" x="374.5" y="-434.8" font-family="Helvetica,sans-Serif" font-size="11.00" fill="#000000">caso_id</text>
<polygon fill="none" stroke="#000000" points="477.5,-427.7 477.5,-449.7 661.5,-449.7 661.5,-427.7 477.5,-427.7"/>
<text text-anchor="start" x="480.5" y="-435.4" font-family="Helvetica,sans-Serif" font-size="11.00" fill="#000000">serial[10]</text>
<polygon fill="none" stroke="#000000" points="354.5,-405.7 354.5,-427.7 477.5,-427.7 477.5,-405.7 354.5,-405.7"/>
<text text-anchor="start" x="374.5" y="-412.8" font-family="Helvetica,sans-Serif" font-size="11.00" fill="#000000">asunto</text>
<polygon fill="none" stroke="#000000" points="477.5,-405.7 477.5,-427.7 661.5,-427.7 661.5,-405.7 477.5,-405.7"/>
<text text-anchor="start" x="480.5" y="-413.4" font-family="Helvetica,sans-Serif" font-size="11.00" fill="#000000">varchar[255]</text>
<polygon fill="none" stroke="#000000" points="354.5,-383.7 354.5,-405.7 477.5,-405.7 477.5,-383.7 354.5,-383.7"/>
<text text-anchor="start" x="374.5" y="-390.8" font-family="Helvetica,sans-Serif" font-size="11.00" fill="#000000">descripcion</text>
<polygon fill="none" stroke="#000000" points="477.5,-383.7 477.5,-405.7 661.5,-405.7 661.5,-383.7 477.5,-383.7"/>
<text text-anchor="start" x="480.5" y="-391.4" font-family="Helvetica,sans-Serif" font-size="11.00" fill="#000000">text[2147483647]</text>
<polygon fill="none" stroke="#000000" points="354.5,-361.7 354.5,-383.7 477.5,-383.7 477.5,-361.7 354.5,-361.7"/>
<text text-anchor="start" x="374.5" y="-368.8" font-family="Helvetica,sans-Serif" font-size="11.00" fill="#000000">prioridad</text>
<polygon fill="none" stroke="#000000" points="477.5,-361.7 477.5,-383.7 661.5,-383.7 661.5,-361.7 477.5,-361.7"/>
<text text-anchor="start" x="480.2455" y="-369.4" font-family="Helvetica,sans-Serif" font-size="11.00" fill="#000000">enum_casos_prioridad[2147483647]</text>
<polygon fill="none" stroke="#000000" points="354.5,-339.7 354.5,-361.7 477.5,-361.7 477.5,-339.7 354.5,-339.7"/>
<text text-anchor="start" x="374.5" y="-346.8" font-family="Helvetica,sans-Serif" font-size="11.00" fill="#000000">estado</text>
<polygon fill="none" stroke="#000000" points="477.5,-339.7 477.5,-361.7 661.5,-361.7 661.5,-339.7 477.5,-339.7"/>
<text text-anchor="start" x="480.5" y="-347.4" font-family="Helvetica,sans-Serif" font-size="11.00" fill="#000000">enum_casos_estado[2147483647]</text>
<polygon fill="none" stroke="#000000" points="354.5,-317.7 354.5,-339.7 477.5,-339.7 477.5,-317.7 354.5,-317.7"/>
<text text-anchor="start" x="374.5" y="-324.8" font-family="Helvetica,sans-Serif" font-size="11.00" fill="#000000">tipo</text>
<polygon fill="none" stroke="#000000" points="477.5,-317.7 477.5,-339.7 661.5,-339.7 661.5,-317.7 477.5,-317.7"/>
<text text-anchor="start" x="480.5" y="-325.4" font-family="Helvetica,sans-Serif" font-size="11.00" fill="#000000">enum_casos_tipo[2147483647]</text>
<polygon fill="none" stroke="#000000" points="354.5,-295.7 354.5,-317.7 477.5,-317.7 477.5,-295.7 354.5,-295.7"/>
<text text-anchor="start" x="374.5" y="-302.8" font-family="Helvetica,sans-Serif" font-size="11.00" fill="#000000">origen</text>
<polygon fill="none" stroke="#000000" points="477.5,-295.7 477.5,-317.7 661.5,-317.7 661.5,-295.7 477.5,-295.7"/>
<text text-anchor="start" x="480.5" y="-303.4" font-family="Helvetica,sans-Serif" font-size="11.00" fill="#000000">enum_casos_origen[2147483647]</text>
<polygon fill="none" stroke="#000000" points="354.5,-273.7 354.5,-295.7 477.5,-295.7 477.5,-273.7 354.5,-273.7"/>
<text text-anchor="start" x="374.5" y="-280.8" font-family="Helvetica,sans-Serif" font-size="11.00" fill="#000000">solucion</text>
<polygon fill="none" stroke="#000000" points="477.5,-273.7 477.5,-295.7 661.5,-295.7 661.5,-273.7 477.5,-273.7"/>
<text text-anchor="start" x="480.5" y="-281.4" font-family="Helvetica,sans-Serif" font-size="11.00" fill="#000000">varchar[255]</text>
<polygon fill="none" stroke="#000000" points="354.5,-251.7 354.5,-273.7 477.5,-273.7 477.5,-251.7 354.5,-251.7"/>
<image xlink:href="../../images/foreignKeys.png" width="11px" height="12px" preserveAspectRatio="xMinYMin meet" x="359.5" y="-268.7"/>
<text text-anchor="start" x="374.5" y="-258.8" font-family="Helvetica,sans-Serif" font-size="11.00" fill="#000000">lead_id</text>
<polygon fill="none" stroke="#000000" points="477.5,-251.7 477.5,-273.7 661.5,-273.7 661.5,-251.7 477.5,-251.7"/>
<text text-anchor="start" x="480.5" y="-259.4" font-family="Helvetica,sans-Serif" font-size="11.00" fill="#000000">int4[10]</text>
<polygon fill="none" stroke="#000000" points="354.5,-229.7 354.5,-251.7 477.5,-251.7 477.5,-229.7 354.5,-229.7"/>
<image xlink:href="../../images/foreignKeys.png" width="11px" height="12px" preserveAspectRatio="xMinYMin meet" x="359.5" y="-246.7"/>
<text text-anchor="start" x="374.5" y="-236.8" font-family="Helvetica,sans-Serif" font-size="11.00" fill="#000000">usu_asignado_id</text>
<polygon fill="none" stroke="#000000" points="477.5,-229.7 477.5,-251.7 661.5,-251.7 661.5,-229.7 477.5,-229.7"/>
<text text-anchor="start" x="480.5" y="-237.4" font-family="Helvetica,sans-Serif" font-size="11.00" fill="#000000">int4[10]</text>
<polygon fill="none" stroke="#000000" points="354.5,-207.7 354.5,-229.7 477.5,-229.7 477.5,-207.7 354.5,-207.7"/>
<text text-anchor="start" x="374.5" y="-214.8" font-family="Helvetica,sans-Serif" font-size="11.00" fill="#000000">usu_insercion</text>
<polygon fill="none" stroke="#000000" points="477.5,-207.7 477.5,-229.7 661.5,-229.7 661.5,-207.7 477.5,-207.7"/>
<text text-anchor="start" x="480.5" y="-215.4" font-family="Helvetica,sans-Serif" font-size="11.00" fill="#000000">varchar[20]</text>
<polygon fill="none" stroke="#000000" points="354.5,-185.7 354.5,-207.7 477.5,-207.7 477.5,-185.7 354.5,-185.7"/>
<text text-anchor="start" x="374.5" y="-192.8" font-family="Helvetica,sans-Serif" font-size="11.00" fill="#000000">fec_insercion</text>
<polygon fill="none" stroke="#000000" points="477.5,-185.7 477.5,-207.7 661.5,-207.7 661.5,-185.7 477.5,-185.7"/>
<text text-anchor="start" x="480.5" y="-193.4" font-family="Helvetica,sans-Serif" font-size="11.00" fill="#000000">timestamptz[35,6]</text>
<polygon fill="none" stroke="#000000" points="354.5,-163.7 354.5,-185.7 477.5,-185.7 477.5,-163.7 354.5,-163.7"/>
<text text-anchor="start" x="374.5" y="-170.8" font-family="Helvetica,sans-Serif" font-size="11.00" fill="#000000">fec_modificacion</text>
<polygon fill="none" stroke="#000000" points="477.5,-163.7 477.5,-185.7 661.5,-185.7 661.5,-163.7 477.5,-163.7"/>
<text text-anchor="start" x="480.5" y="-171.4" font-family="Helvetica,sans-Serif" font-size="11.00" fill="#000000">timestamptz[35,6]</text>
<polygon fill="none" stroke="#000000" points="354.5,-141.7 354.5,-163.7 477.5,-163.7 477.5,-141.7 354.5,-141.7"/>
<text text-anchor="start" x="374.5" y="-148.8" font-family="Helvetica,sans-Serif" font-size="11.00" fill="#000000">usu_modificacion</text>
<polygon fill="none" stroke="#000000" points="477.5,-141.7 477.5,-163.7 661.5,-163.7 661.5,-141.7 477.5,-141.7"/>
<text text-anchor="start" x="480.5" y="-149.4" font-family="Helvetica,sans-Serif" font-size="11.00" fill="#000000">varchar[20]</text>
<polygon fill="none" stroke="#000000" points="354.5,-119.7 354.5,-141.7 477.5,-141.7 477.5,-119.7 354.5,-119.7"/>
<image xlink:href="../../images/foreignKeys.png" width="11px" height="12px" preserveAspectRatio="xMinYMin meet" x="359.5" y="-136.7"/>
<text text-anchor="start" x="374.5" y="-126.8" font-family="Helvetica,sans-Serif" font-size="11.00" fill="#000000">contacto_id</text>
<polygon fill="none" stroke="#000000" points="477.5,-119.7 477.5,-141.7 661.5,-141.7 661.5,-119.7 477.5,-119.7"/>
<text text-anchor="start" x="480.5" y="-127.4" font-family="Helvetica,sans-Serif" font-size="11.00" fill="#000000">int4[10]</text>
<polygon fill="#ffffff" stroke="transparent" points="354.5,-100.7 354.5,-119.7 407.5,-119.7 407.5,-100.7 354.5,-100.7"/>
<polygon fill="none" stroke="#000000" points="354.5,-100.7 354.5,-119.7 407.5,-119.7 407.5,-100.7 354.5,-100.7"/>
<text text-anchor="start" x="357.5" y="-106.8" font-family="Helvetica,sans-Serif" font-size="11.00" fill="#000000">&lt; 3</text>
<polygon fill="#ffffff" stroke="transparent" points="407.5,-100.7 407.5,-119.7 477.5,-119.7 477.5,-100.7 407.5,-100.7"/>
<polygon fill="none" stroke="#000000" points="407.5,-100.7 407.5,-119.7 477.5,-119.7 477.5,-100.7 407.5,-100.7"/>
<text text-anchor="start" x="442.1105" y="-106.8" font-family="Helvetica,sans-Serif" font-size="11.00" fill="#000000">0 rows</text>
<polygon fill="#ffffff" stroke="transparent" points="477.5,-100.7 477.5,-119.7 661.5,-119.7 661.5,-100.7 477.5,-100.7"/>
<polygon fill="none" stroke="#000000" points="477.5,-100.7 477.5,-119.7 661.5,-119.7 661.5,-100.7 477.5,-100.7"/>
<text text-anchor="start" x="642.9053" y="-106.8" font-family="Helvetica,sans-Serif" font-size="11.00" fill="#000000">0 &gt;</text>
<polygon fill="none" stroke="#000000" stroke-width="2" points="353,-99.7 353,-473.7 662,-473.7 662,-99.7 353,-99.7"/>
</a>
</g>
</g>
<!-- contactos -->
<g id="node2" class="node">
<title>contactos</title>
<g id="a_node2"><a xlink:href="../../tables/contactos.html" xlink:title="contactos" target="_top">
<polygon fill="#ffffff" stroke="transparent" points="180,-38.2 180,-165.2 303,-165.2 303,-38.2 180,-38.2"/>
<polygon fill="#f5f5f5" stroke="transparent" points="180.5,-141.7 180.5,-164.7 303.5,-164.7 303.5,-141.7 180.5,-141.7"/>
<polygon fill="none" stroke="#000000" points="180.5,-141.7 180.5,-164.7 303.5,-164.7 303.5,-141.7 180.5,-141.7"/>
<text text-anchor="start" x="185.5" y="-150.8" font-family="Helvetica,sans-Serif" font-weight="bold" font-size="11.00" fill="#000000">contactos</text>
<text text-anchor="start" x="268.5437" y="-149.8" font-family="Helvetica,sans-Serif" font-size="11.00" fill="#000000">[table]</text>
<polygon fill="none" stroke="#000000" points="180.5,-119.7 180.5,-141.7 303.5,-141.7 303.5,-119.7 180.5,-119.7"/>
<image xlink:href="../../images/primaryKeys.png" width="11px" height="12px" preserveAspectRatio="xMinYMin meet" x="185.5" y="-136.7"/>
<text text-anchor="start" x="200.5" y="-126.8" font-family="Helvetica,sans-Serif" font-size="11.00" fill="#000000">contacto_id</text>
<polygon fill="none" stroke="#000000" points="180.5,-97.7 180.5,-119.7 303.5,-119.7 303.5,-97.7 180.5,-97.7"/>
<image xlink:href="../../images/foreignKeys.png" width="11px" height="12px" preserveAspectRatio="xMinYMin meet" x="185.5" y="-114.7"/>
<text text-anchor="start" x="200.5" y="-104.8" font-family="Helvetica,sans-Serif" font-size="11.00" fill="#000000">persona_id</text>
<polygon fill="none" stroke="#000000" points="180.5,-75.7 180.5,-97.7 303.5,-97.7 303.5,-75.7 180.5,-75.7"/>
<image xlink:href="../../images/foreignKeys.png" width="11px" height="12px" preserveAspectRatio="xMinYMin meet" x="185.5" y="-92.7"/>
<text text-anchor="start" x="200.5" y="-82.8" font-family="Helvetica,sans-Serif" font-size="11.00" fill="#000000">organizacion_id</text>
<polygon fill="none" stroke="#000000" points="180.5,-56.7 180.5,-75.7 303.5,-75.7 303.5,-56.7 180.5,-56.7"/>
<text text-anchor="start" x="183.5" y="-62.8" font-family="Helvetica,sans-Serif" font-size="11.00" fill="#000000">...</text>
<polygon fill="#ffffff" stroke="transparent" points="180.5,-37.7 180.5,-56.7 222.5,-56.7 222.5,-37.7 180.5,-37.7"/>
<polygon fill="none" stroke="#000000" points="180.5,-37.7 180.5,-56.7 222.5,-56.7 222.5,-37.7 180.5,-37.7"/>
<text text-anchor="start" x="183.5" y="-43.8" font-family="Helvetica,sans-Serif" font-size="11.00" fill="#000000">&lt; 2</text>
<polygon fill="#ffffff" stroke="transparent" points="222.5,-37.7 222.5,-56.7 271.5,-56.7 271.5,-37.7 222.5,-37.7"/>
<polygon fill="none" stroke="#000000" points="222.5,-37.7 222.5,-56.7 271.5,-56.7 271.5,-37.7 222.5,-37.7"/>
<text text-anchor="start" x="236.1105" y="-43.8" font-family="Helvetica,sans-Serif" font-size="11.00" fill="#000000">5 rows</text>
<polygon fill="#ffffff" stroke="transparent" points="271.5,-37.7 271.5,-56.7 303.5,-56.7 303.5,-37.7 271.5,-37.7"/>
<polygon fill="none" stroke="#000000" points="271.5,-37.7 271.5,-56.7 303.5,-56.7 303.5,-37.7 271.5,-37.7"/>
<text text-anchor="start" x="284.9053" y="-43.8" font-family="Helvetica,sans-Serif" font-size="11.00" fill="#000000">5 &gt;</text>
</a>
</g>
</g>
<!-- casos&#45;&gt;contactos -->
<g id="edge1" class="edge">
<title>casos:w&#45;&gt;contactos:e</title>
<path fill="none" stroke="#000000" d="M339.776,-130.7C327.7815,-130.7 320.3229,-130.7 303.5,-130.7"/>
<polygon fill="#000000" stroke="#000000" points="346.5,-130.7001 354.5,-134.3 350.5,-130.7 354.5,-130.7 354.5,-130.7 354.5,-130.7 350.5,-130.7 354.5,-127.1 346.5,-130.7001 346.5,-130.7001"/>
<ellipse fill="none" stroke="#000000" cx="343.3" cy="-130.7001" rx="3.2" ry="3.2"/>
</g>
<!-- leads -->
<g id="node3" class="node">
<title>leads</title>
<g id="a_node3"><a xlink:href="../../tables/leads.html" xlink:title="leads" target="_top">
<polygon fill="#ffffff" stroke="transparent" points="180,-239.2 180,-432.2 303,-432.2 303,-239.2 180,-239.2"/>
<polygon fill="#f5f5f5" stroke="transparent" points="180.5,-408.7 180.5,-431.7 303.5,-431.7 303.5,-408.7 180.5,-408.7"/>
<polygon fill="none" stroke="#000000" points="180.5,-408.7 180.5,-431.7 303.5,-431.7 303.5,-408.7 180.5,-408.7"/>
<text text-anchor="start" x="185.5" y="-417.8" font-family="Helvetica,sans-Serif" font-weight="bold" font-size="11.00" fill="#000000">leads</text>
<text text-anchor="start" x="268.5437" y="-416.8" font-family="Helvetica,sans-Serif" font-size="11.00" fill="#000000">[table]</text>
<polygon fill="none" stroke="#000000" points="180.5,-386.7 180.5,-408.7 303.5,-408.7 303.5,-386.7 180.5,-386.7"/>
<image xlink:href="../../images/primaryKeys.png" width="11px" height="12px" preserveAspectRatio="xMinYMin meet" x="185.5" y="-403.7"/>
<text text-anchor="start" x="200.5" y="-393.8" font-family="Helvetica,sans-Serif" font-size="11.00" fill="#000000">lead_id</text>
<polygon fill="none" stroke="#000000" points="180.5,-364.7 180.5,-386.7 303.5,-386.7 303.5,-364.7 180.5,-364.7"/>
<image xlink:href="../../images/foreignKeys.png" width="11px" height="12px" preserveAspectRatio="xMinYMin meet" x="185.5" y="-381.7"/>
<text text-anchor="start" x="200.5" y="-371.8" font-family="Helvetica,sans-Serif" font-size="11.00" fill="#000000">usu_asignado_id</text>
<polygon fill="none" stroke="#000000" points="180.5,-342.7 180.5,-364.7 303.5,-364.7 303.5,-342.7 180.5,-342.7"/>
<image xlink:href="../../images/foreignKeys.png" width="11px" height="12px" preserveAspectRatio="xMinYMin meet" x="185.5" y="-359.7"/>
<text text-anchor="start" x="200.5" y="-349.8" font-family="Helvetica,sans-Serif" font-size="11.00" fill="#000000">campana_id</text>
<polygon fill="none" stroke="#000000" points="180.5,-320.7 180.5,-342.7 303.5,-342.7 303.5,-320.7 180.5,-320.7"/>
<image xlink:href="../../images/foreignKeys.png" width="11px" height="12px" preserveAspectRatio="xMinYMin meet" x="185.5" y="-337.7"/>
<text text-anchor="start" x="200.5" y="-327.8" font-family="Helvetica,sans-Serif" font-size="11.00" fill="#000000">persona_id</text>
<polygon fill="none" stroke="#000000" points="180.5,-298.7 180.5,-320.7 303.5,-320.7 303.5,-298.7 180.5,-298.7"/>
<image xlink:href="../../images/foreignKeys.png" width="11px" height="12px" preserveAspectRatio="xMinYMin meet" x="185.5" y="-315.7"/>
<text text-anchor="start" x="200.5" y="-305.8" font-family="Helvetica,sans-Serif" font-size="11.00" fill="#000000">curso_id</text>
<polygon fill="none" stroke="#000000" points="180.5,-276.7 180.5,-298.7 303.5,-298.7 303.5,-276.7 180.5,-276.7"/>
<image xlink:href="../../images/foreignKeys.png" width="11px" height="12px" preserveAspectRatio="xMinYMin meet" x="185.5" y="-293.7"/>
<text text-anchor="start" x="200.5" y="-283.8" font-family="Helvetica,sans-Serif" font-size="11.00" fill="#000000">ciclo_id</text>
<polygon fill="none" stroke="#000000" points="180.5,-257.7 180.5,-276.7 303.5,-276.7 303.5,-257.7 180.5,-257.7"/>
<text text-anchor="start" x="183.5" y="-263.8" font-family="Helvetica,sans-Serif" font-size="11.00" fill="#000000">...</text>
<polygon fill="#ffffff" stroke="transparent" points="180.5,-238.7 180.5,-257.7 222.5,-257.7 222.5,-238.7 180.5,-238.7"/>
<polygon fill="none" stroke="#000000" points="180.5,-238.7 180.5,-257.7 222.5,-257.7 222.5,-238.7 180.5,-238.7"/>
<text text-anchor="start" x="183.5" y="-244.8" font-family="Helvetica,sans-Serif" font-size="11.00" fill="#000000">&lt; 5</text>
<polygon fill="#ffffff" stroke="transparent" points="222.5,-238.7 222.5,-257.7 271.5,-257.7 271.5,-238.7 222.5,-238.7"/>
<polygon fill="none" stroke="#000000" points="222.5,-238.7 222.5,-257.7 271.5,-257.7 271.5,-238.7 222.5,-238.7"/>
<text text-anchor="start" x="236.1105" y="-244.8" font-family="Helvetica,sans-Serif" font-size="11.00" fill="#000000">4 rows</text>
<polygon fill="#ffffff" stroke="transparent" points="271.5,-238.7 271.5,-257.7 303.5,-257.7 303.5,-238.7 271.5,-238.7"/>
<polygon fill="none" stroke="#000000" points="271.5,-238.7 271.5,-257.7 303.5,-257.7 303.5,-238.7 271.5,-238.7"/>
<text text-anchor="start" x="284.9053" y="-244.8" font-family="Helvetica,sans-Serif" font-size="11.00" fill="#000000">3 &gt;</text>
</a>
</g>
</g>
<!-- casos&#45;&gt;leads -->
<g id="edge2" class="edge">
<title>casos:w&#45;&gt;leads:e</title>
<path fill="none" stroke="#000000" d="M339.9567,-266.0371C303.6079,-286.826 361.6257,-397.7 303.5,-397.7"/>
<polygon fill="#000000" stroke="#000000" points="346.7026,-264.4892 355.3051,-266.2088 350.6013,-263.5946 354.5,-262.7 354.5,-262.7 354.5,-262.7 350.6013,-263.5946 353.6949,-259.1912 346.7026,-264.4892 346.7026,-264.4892"/>
<ellipse fill="none" stroke="#000000" cx="343.5837" cy="-265.2049" rx="3.2" ry="3.2"/>
</g>
<!-- usuarios -->
<g id="node4" class="node">
<title>usuarios</title>
<g id="a_node4"><a xlink:href="../../tables/usuarios.html" xlink:title="usuarios" target="_top">
<polygon fill="#ffffff" stroke="transparent" points="8,-224.2 8,-329.2 131,-329.2 131,-224.2 8,-224.2"/>
<polygon fill="#f5f5f5" stroke="transparent" points="8.5,-305.7 8.5,-328.7 131.5,-328.7 131.5,-305.7 8.5,-305.7"/>
<polygon fill="none" stroke="#000000" points="8.5,-305.7 8.5,-328.7 131.5,-328.7 131.5,-305.7 8.5,-305.7"/>
<text text-anchor="start" x="13.5" y="-314.8" font-family="Helvetica,sans-Serif" font-weight="bold" font-size="11.00" fill="#000000">usuarios</text>
<text text-anchor="start" x="96.5437" y="-313.8" font-family="Helvetica,sans-Serif" font-size="11.00" fill="#000000">[table]</text>
<polygon fill="none" stroke="#000000" points="8.5,-283.7 8.5,-305.7 131.5,-305.7 131.5,-283.7 8.5,-283.7"/>
<image xlink:href="../../images/primaryKeys.png" width="11px" height="12px" preserveAspectRatio="xMinYMin meet" x="13.5" y="-300.7"/>
<text text-anchor="start" x="28.5" y="-290.8" font-family="Helvetica,sans-Serif" font-size="11.00" fill="#000000">usuario_id</text>
<polygon fill="#ffffff" stroke="transparent" points="8.5,-261.7 8.5,-283.7 131.5,-283.7 131.5,-261.7 8.5,-261.7"/>
<polygon fill="none" stroke="#000000" points="8.5,-261.7 8.5,-283.7 131.5,-283.7 131.5,-261.7 8.5,-261.7"/>
<text text-anchor="start" x="28.5" y="-268.8" font-family="Helvetica,sans-Serif" font-size="11.00" fill="#000000">nom_usuario</text>
<polygon fill="none" stroke="#000000" points="8.5,-242.7 8.5,-261.7 131.5,-261.7 131.5,-242.7 8.5,-242.7"/>
<text text-anchor="start" x="11.5" y="-248.8" font-family="Helvetica,sans-Serif" font-size="11.00" fill="#000000">...</text>
<polygon fill="#ffffff" stroke="transparent" points="8.5,-223.7 8.5,-242.7 49.5,-242.7 49.5,-223.7 8.5,-223.7"/>
<polygon fill="none" stroke="#000000" points="8.5,-223.7 8.5,-242.7 49.5,-242.7 49.5,-223.7 8.5,-223.7"/>
<text text-anchor="start" x="11.5" y="-229.8" font-family="Helvetica,sans-Serif" font-size="11.00" fill="#000000"> &#160;</text>
<polygon fill="#ffffff" stroke="transparent" points="49.5,-223.7 49.5,-242.7 95.5,-242.7 95.5,-223.7 49.5,-223.7"/>
<polygon fill="none" stroke="#000000" points="49.5,-223.7 49.5,-242.7 95.5,-242.7 95.5,-223.7 49.5,-223.7"/>
<text text-anchor="start" x="65.6105" y="-229.8" font-family="Helvetica,sans-Serif" font-size="11.00" fill="#000000">1 row</text>
<polygon fill="#ffffff" stroke="transparent" points="95.5,-223.7 95.5,-242.7 131.5,-242.7 131.5,-223.7 95.5,-223.7"/>
<polygon fill="none" stroke="#000000" points="95.5,-223.7 95.5,-242.7 131.5,-242.7 131.5,-223.7 95.5,-223.7"/>
<text text-anchor="start" x="112.9053" y="-229.8" font-family="Helvetica,sans-Serif" font-size="11.00" fill="#000000">6 &gt;</text>
</a>
</g>
</g>
<!-- casos&#45;&gt;usuarios -->
<g id="edge3" class="edge">
<title>casos:w&#45;&gt;usuarios:e</title>
<path fill="none" stroke="#000000" d="M340.1389,-238.6554C330.8877,-235.7561 324.974,-230.5921 311,-228.7 249.7809,-220.4108 225.91,-198.5304 172,-228.7 141.9673,-245.5072 165.9158,-294.7 131.5,-294.7"/>
<polygon fill="#000000" stroke="#000000" points="346.5799,-239.5724 353.9926,-244.2641 350.5399,-240.1362 354.5,-240.7 354.5,-240.7 354.5,-240.7 350.5399,-240.1362 355.0074,-237.1359 346.5799,-239.5724 346.5799,-239.5724"/>
<ellipse fill="none" stroke="#000000" cx="343.4118" cy="-239.1213" rx="3.2" ry="3.2"/>
</g>
<!-- leads&#45;&gt;usuarios -->
<g id="edge4" class="edge">
<title>leads:w&#45;&gt;usuarios:e</title>
<path fill="none" stroke="#000000" d="M166.6299,-371.113C146.9726,-353.978 167.4935,-294.7 131.5,-294.7"/>
<polygon fill="#000000" stroke="#000000" points="172.9046,-373.1881 179.3696,-379.1179 176.7023,-374.444 180.5,-375.7 180.5,-375.7 180.5,-375.7 176.7023,-374.444 181.6304,-372.2821 172.9046,-373.1881 172.9046,-373.1881"/>
<ellipse fill="none" stroke="#000000" cx="169.8664" cy="-372.1833" rx="3.2" ry="3.2"/>
</g>
</g>
</svg>
