<?xml version="1.0" encoding="UTF-8" standalone="no"?>
<!DOCTYPE svg PUBLIC "-//W3C//DTD SVG 1.1//EN"
 "http://www.w3.org/Graphics/SVG/1.1/DTD/svg11.dtd">
<!-- Generated by graphviz version 2.40.1 (20161225.0304)
 -->
<!-- Title: twoDegreesRelationshipsDiagram Pages: 1 -->
<svg width="1012pt" height="874pt"
 viewBox="0.00 0.00 1012.00 873.75" xmlns="http://www.w3.org/2000/svg" xmlns:xlink="http://www.w3.org/1999/xlink">
<g id="graph0" class="graph" transform="scale(1 1) rotate(0) translate(4 869.7502)">
<title>twoDegreesRelationshipsDiagram</title>
<polygon fill="#ffffff" stroke="transparent" points="-4,4 -4,-869.7502 1008,-869.7502 1008,4 -4,4"/>
<text text-anchor="middle" x="72.4936" y="-7.3" font-family="Helvetica,sans-Serif" font-size="11.00" fill="#000000">Generated by SchemaSpy</text>
<!-- casos -->
<g id="node1" class="node">
<title>casos</title>
<g id="a_node1"><a xlink:href="../../tables/casos.html" xlink:title="casos" target="_top">
<polygon fill="#ffffff" stroke="transparent" points="489,-408.4393 489,-784.4393 800,-784.4393 800,-408.4393 489,-408.4393"/>
<polygon fill="#f5f5f5" stroke="transparent" points="491.5,-759.4393 491.5,-782.4393 798.5,-782.4393 798.5,-759.4393 491.5,-759.4393"/>
<polygon fill="none" stroke="#000000" points="491.5,-759.4393 491.5,-782.4393 798.5,-782.4393 798.5,-759.4393 491.5,-759.4393"/>
<text text-anchor="start" x="496.5" y="-768.5393" font-family="Helvetica,sans-Serif" font-weight="bold" font-size="11.00" fill="#000000">casos</text>
<text text-anchor="start" x="763.5437" y="-767.5393" font-family="Helvetica,sans-Serif" font-size="11.00" fill="#000000">[table]</text>
<polygon fill="none" stroke="#000000" points="491.5,-737.4393 491.5,-759.4393 614.5,-759.4393 614.5,-737.4393 491.5,-737.4393"/>
<image xlink:href="../../images/primaryKeys.png" width="11px" height="12px" preserveAspectRatio="xMinYMin meet" x="496.5" y="-754.439"/>
<text text-anchor="start" x="511.5" y="-744.5393" font-family="Helvetica,sans-Serif" font-size="11.00" fill="#000000">caso_id</text>
<polygon fill="none" stroke="#000000" points="614.5,-737.4393 614.5,-759.4393 798.5,-759.4393 798.5,-737.4393 614.5,-737.4393"/>
<text text-anchor="start" x="617.5" y="-745.1393" font-family="Helvetica,sans-Serif" font-size="11.00" fill="#000000">serial[10]</text>
<polygon fill="none" stroke="#000000" points="491.5,-715.4393 491.5,-737.4393 614.5,-737.4393 614.5,-715.4393 491.5,-715.4393"/>
<text text-anchor="start" x="511.5" y="-722.5393" font-family="Helvetica,sans-Serif" font-size="11.00" fill="#000000">asunto</text>
<polygon fill="none" stroke="#000000" points="614.5,-715.4393 614.5,-737.4393 798.5,-737.4393 798.5,-715.4393 614.5,-715.4393"/>
<text text-anchor="start" x="617.5" y="-723.1393" font-family="Helvetica,sans-Serif" font-size="11.00" fill="#000000">varchar[255]</text>
<polygon fill="none" stroke="#000000" points="491.5,-693.4393 491.5,-715.4393 614.5,-715.4393 614.5,-693.4393 491.5,-693.4393"/>
<text text-anchor="start" x="511.5" y="-700.5393" font-family="Helvetica,sans-Serif" font-size="11.00" fill="#000000">descripcion</text>
<polygon fill="none" stroke="#000000" points="614.5,-693.4393 614.5,-715.4393 798.5,-715.4393 798.5,-693.4393 614.5,-693.4393"/>
<text text-anchor="start" x="617.5" y="-701.1393" font-family="Helvetica,sans-Serif" font-size="11.00" fill="#000000">text[2147483647]</text>
<polygon fill="none" stroke="#000000" points="491.5,-671.4393 491.5,-693.4393 614.5,-693.4393 614.5,-671.4393 491.5,-671.4393"/>
<text text-anchor="start" x="511.5" y="-678.5393" font-family="Helvetica,sans-Serif" font-size="11.00" fill="#000000">prioridad</text>
<polygon fill="none" stroke="#000000" points="614.5,-671.4393 614.5,-693.4393 798.5,-693.4393 798.5,-671.4393 614.5,-671.4393"/>
<text text-anchor="start" x="617.2455" y="-679.1393" font-family="Helvetica,sans-Serif" font-size="11.00" fill="#000000">enum_casos_prioridad[2147483647]</text>
<polygon fill="none" stroke="#000000" points="491.5,-649.4393 491.5,-671.4393 614.5,-671.4393 614.5,-649.4393 491.5,-649.4393"/>
<text text-anchor="start" x="511.5" y="-656.5393" font-family="Helvetica,sans-Serif" font-size="11.00" fill="#000000">estado</text>
<polygon fill="none" stroke="#000000" points="614.5,-649.4393 614.5,-671.4393 798.5,-671.4393 798.5,-649.4393 614.5,-649.4393"/>
<text text-anchor="start" x="617.5" y="-657.1393" font-family="Helvetica,sans-Serif" font-size="11.00" fill="#000000">enum_casos_estado[2147483647]</text>
<polygon fill="none" stroke="#000000" points="491.5,-627.4393 491.5,-649.4393 614.5,-649.4393 614.5,-627.4393 491.5,-627.4393"/>
<text text-anchor="start" x="511.5" y="-634.5393" font-family="Helvetica,sans-Serif" font-size="11.00" fill="#000000">tipo</text>
<polygon fill="none" stroke="#000000" points="614.5,-627.4393 614.5,-649.4393 798.5,-649.4393 798.5,-627.4393 614.5,-627.4393"/>
<text text-anchor="start" x="617.5" y="-635.1393" font-family="Helvetica,sans-Serif" font-size="11.00" fill="#000000">enum_casos_tipo[2147483647]</text>
<polygon fill="none" stroke="#000000" points="491.5,-605.4393 491.5,-627.4393 614.5,-627.4393 614.5,-605.4393 491.5,-605.4393"/>
<text text-anchor="start" x="511.5" y="-612.5393" font-family="Helvetica,sans-Serif" font-size="11.00" fill="#000000">origen</text>
<polygon fill="none" stroke="#000000" points="614.5,-605.4393 614.5,-627.4393 798.5,-627.4393 798.5,-605.4393 614.5,-605.4393"/>
<text text-anchor="start" x="617.5" y="-613.1393" font-family="Helvetica,sans-Serif" font-size="11.00" fill="#000000">enum_casos_origen[2147483647]</text>
<polygon fill="none" stroke="#000000" points="491.5,-583.4393 491.5,-605.4393 614.5,-605.4393 614.5,-583.4393 491.5,-583.4393"/>
<text text-anchor="start" x="511.5" y="-590.5393" font-family="Helvetica,sans-Serif" font-size="11.00" fill="#000000">solucion</text>
<polygon fill="none" stroke="#000000" points="614.5,-583.4393 614.5,-605.4393 798.5,-605.4393 798.5,-583.4393 614.5,-583.4393"/>
<text text-anchor="start" x="617.5" y="-591.1393" font-family="Helvetica,sans-Serif" font-size="11.00" fill="#000000">varchar[255]</text>
<polygon fill="none" stroke="#000000" points="491.5,-561.4393 491.5,-583.4393 614.5,-583.4393 614.5,-561.4393 491.5,-561.4393"/>
<image xlink:href="../../images/foreignKeys.png" width="11px" height="12px" preserveAspectRatio="xMinYMin meet" x="496.5" y="-578.439"/>
<text text-anchor="start" x="511.5" y="-568.5393" font-family="Helvetica,sans-Serif" font-size="11.00" fill="#000000">lead_id</text>
<polygon fill="none" stroke="#000000" points="614.5,-561.4393 614.5,-583.4393 798.5,-583.4393 798.5,-561.4393 614.5,-561.4393"/>
<text text-anchor="start" x="617.5" y="-569.1393" font-family="Helvetica,sans-Serif" font-size="11.00" fill="#000000">int4[10]</text>
<polygon fill="none" stroke="#000000" points="491.5,-539.4393 491.5,-561.4393 614.5,-561.4393 614.5,-539.4393 491.5,-539.4393"/>
<image xlink:href="../../images/foreignKeys.png" width="11px" height="12px" preserveAspectRatio="xMinYMin meet" x="496.5" y="-556.439"/>
<text text-anchor="start" x="511.5" y="-546.5393" font-family="Helvetica,sans-Serif" font-size="11.00" fill="#000000">usu_asignado_id</text>
<polygon fill="none" stroke="#000000" points="614.5,-539.4393 614.5,-561.4393 798.5,-561.4393 798.5,-539.4393 614.5,-539.4393"/>
<text text-anchor="start" x="617.5" y="-547.1393" font-family="Helvetica,sans-Serif" font-size="11.00" fill="#000000">int4[10]</text>
<polygon fill="none" stroke="#000000" points="491.5,-517.4393 491.5,-539.4393 614.5,-539.4393 614.5,-517.4393 491.5,-517.4393"/>
<text text-anchor="start" x="511.5" y="-524.5393" font-family="Helvetica,sans-Serif" font-size="11.00" fill="#000000">usu_insercion</text>
<polygon fill="none" stroke="#000000" points="614.5,-517.4393 614.5,-539.4393 798.5,-539.4393 798.5,-517.4393 614.5,-517.4393"/>
<text text-anchor="start" x="617.5" y="-525.1393" font-family="Helvetica,sans-Serif" font-size="11.00" fill="#000000">varchar[20]</text>
<polygon fill="none" stroke="#000000" points="491.5,-495.4393 491.5,-517.4393 614.5,-517.4393 614.5,-495.4393 491.5,-495.4393"/>
<text text-anchor="start" x="511.5" y="-502.5393" font-family="Helvetica,sans-Serif" font-size="11.00" fill="#000000">fec_insercion</text>
<polygon fill="none" stroke="#000000" points="614.5,-495.4393 614.5,-517.4393 798.5,-517.4393 798.5,-495.4393 614.5,-495.4393"/>
<text text-anchor="start" x="617.5" y="-503.1393" font-family="Helvetica,sans-Serif" font-size="11.00" fill="#000000">timestamptz[35,6]</text>
<polygon fill="none" stroke="#000000" points="491.5,-473.4393 491.5,-495.4393 614.5,-495.4393 614.5,-473.4393 491.5,-473.4393"/>
<text text-anchor="start" x="511.5" y="-480.5393" font-family="Helvetica,sans-Serif" font-size="11.00" fill="#000000">fec_modificacion</text>
<polygon fill="none" stroke="#000000" points="614.5,-473.4393 614.5,-495.4393 798.5,-495.4393 798.5,-473.4393 614.5,-473.4393"/>
<text text-anchor="start" x="617.5" y="-481.1393" font-family="Helvetica,sans-Serif" font-size="11.00" fill="#000000">timestamptz[35,6]</text>
<polygon fill="none" stroke="#000000" points="491.5,-451.4393 491.5,-473.4393 614.5,-473.4393 614.5,-451.4393 491.5,-451.4393"/>
<text text-anchor="start" x="511.5" y="-458.5393" font-family="Helvetica,sans-Serif" font-size="11.00" fill="#000000">usu_modificacion</text>
<polygon fill="none" stroke="#000000" points="614.5,-451.4393 614.5,-473.4393 798.5,-473.4393 798.5,-451.4393 614.5,-451.4393"/>
<text text-anchor="start" x="617.5" y="-459.1393" font-family="Helvetica,sans-Serif" font-size="11.00" fill="#000000">varchar[20]</text>
<polygon fill="none" stroke="#000000" points="491.5,-429.4393 491.5,-451.4393 614.5,-451.4393 614.5,-429.4393 491.5,-429.4393"/>
<image xlink:href="../../images/foreignKeys.png" width="11px" height="12px" preserveAspectRatio="xMinYMin meet" x="496.5" y="-446.439"/>
<text text-anchor="start" x="511.5" y="-436.5393" font-family="Helvetica,sans-Serif" font-size="11.00" fill="#000000">contacto_id</text>
<polygon fill="none" stroke="#000000" points="614.5,-429.4393 614.5,-451.4393 798.5,-451.4393 798.5,-429.4393 614.5,-429.4393"/>
<text text-anchor="start" x="617.5" y="-437.1393" font-family="Helvetica,sans-Serif" font-size="11.00" fill="#000000">int4[10]</text>
<polygon fill="#ffffff" stroke="transparent" points="491.5,-410.4393 491.5,-429.4393 544.5,-429.4393 544.5,-410.4393 491.5,-410.4393"/>
<polygon fill="none" stroke="#000000" points="491.5,-410.4393 491.5,-429.4393 544.5,-429.4393 544.5,-410.4393 491.5,-410.4393"/>
<text text-anchor="start" x="494.5" y="-416.5393" font-family="Helvetica,sans-Serif" font-size="11.00" fill="#000000">&lt; 3</text>
<polygon fill="#ffffff" stroke="transparent" points="544.5,-410.4393 544.5,-429.4393 614.5,-429.4393 614.5,-410.4393 544.5,-410.4393"/>
<polygon fill="none" stroke="#000000" points="544.5,-410.4393 544.5,-429.4393 614.5,-429.4393 614.5,-410.4393 544.5,-410.4393"/>
<text text-anchor="start" x="579.1105" y="-416.5393" font-family="Helvetica,sans-Serif" font-size="11.00" fill="#000000">0 rows</text>
<polygon fill="#ffffff" stroke="transparent" points="614.5,-410.4393 614.5,-429.4393 798.5,-429.4393 798.5,-410.4393 614.5,-410.4393"/>
<polygon fill="none" stroke="#000000" points="614.5,-410.4393 614.5,-429.4393 798.5,-429.4393 798.5,-410.4393 614.5,-410.4393"/>
<text text-anchor="start" x="779.9053" y="-416.5393" font-family="Helvetica,sans-Serif" font-size="11.00" fill="#000000">0 &gt;</text>
<polygon fill="none" stroke="#000000" stroke-width="2" points="490,-409.4393 490,-783.4393 799,-783.4393 799,-409.4393 490,-409.4393"/>
</a>
</g>
</g>
<!-- contactos -->
<g id="node2" class="node">
<title>contactos</title>
<g id="a_node2"><a xlink:href="../../tables/contactos.html" xlink:title="contactos" target="_top">
<polygon fill="#ffffff" stroke="transparent" points="317,-517.9393 317,-644.9393 440,-644.9393 440,-517.9393 317,-517.9393"/>
<polygon fill="#f5f5f5" stroke="transparent" points="317.5,-621.4393 317.5,-644.4393 440.5,-644.4393 440.5,-621.4393 317.5,-621.4393"/>
<polygon fill="none" stroke="#000000" points="317.5,-621.4393 317.5,-644.4393 440.5,-644.4393 440.5,-621.4393 317.5,-621.4393"/>
<text text-anchor="start" x="322.5" y="-630.5393" font-family="Helvetica,sans-Serif" font-weight="bold" font-size="11.00" fill="#000000">contactos</text>
<text text-anchor="start" x="405.5437" y="-629.5393" font-family="Helvetica,sans-Serif" font-size="11.00" fill="#000000">[table]</text>
<polygon fill="none" stroke="#000000" points="317.5,-599.4393 317.5,-621.4393 440.5,-621.4393 440.5,-599.4393 317.5,-599.4393"/>
<image xlink:href="../../images/primaryKeys.png" width="11px" height="12px" preserveAspectRatio="xMinYMin meet" x="322.5" y="-616.439"/>
<text text-anchor="start" x="337.5" y="-606.5393" font-family="Helvetica,sans-Serif" font-size="11.00" fill="#000000">contacto_id</text>
<polygon fill="none" stroke="#000000" points="317.5,-577.4393 317.5,-599.4393 440.5,-599.4393 440.5,-577.4393 317.5,-577.4393"/>
<image xlink:href="../../images/foreignKeys.png" width="11px" height="12px" preserveAspectRatio="xMinYMin meet" x="322.5" y="-594.439"/>
<text text-anchor="start" x="337.5" y="-584.5393" font-family="Helvetica,sans-Serif" font-size="11.00" fill="#000000">persona_id</text>
<polygon fill="none" stroke="#000000" points="317.5,-555.4393 317.5,-577.4393 440.5,-577.4393 440.5,-555.4393 317.5,-555.4393"/>
<image xlink:href="../../images/foreignKeys.png" width="11px" height="12px" preserveAspectRatio="xMinYMin meet" x="322.5" y="-572.439"/>
<text text-anchor="start" x="337.5" y="-562.5393" font-family="Helvetica,sans-Serif" font-size="11.00" fill="#000000">organizacion_id</text>
<polygon fill="none" stroke="#000000" points="317.5,-536.4393 317.5,-555.4393 440.5,-555.4393 440.5,-536.4393 317.5,-536.4393"/>
<text text-anchor="start" x="320.5" y="-542.5393" font-family="Helvetica,sans-Serif" font-size="11.00" fill="#000000">...</text>
<polygon fill="#ffffff" stroke="transparent" points="317.5,-517.4393 317.5,-536.4393 359.5,-536.4393 359.5,-517.4393 317.5,-517.4393"/>
<polygon fill="none" stroke="#000000" points="317.5,-517.4393 317.5,-536.4393 359.5,-536.4393 359.5,-517.4393 317.5,-517.4393"/>
<text text-anchor="start" x="320.5" y="-523.5393" font-family="Helvetica,sans-Serif" font-size="11.00" fill="#000000">&lt; 2</text>
<polygon fill="#ffffff" stroke="transparent" points="359.5,-517.4393 359.5,-536.4393 408.5,-536.4393 408.5,-517.4393 359.5,-517.4393"/>
<polygon fill="none" stroke="#000000" points="359.5,-517.4393 359.5,-536.4393 408.5,-536.4393 408.5,-517.4393 359.5,-517.4393"/>
<text text-anchor="start" x="373.1105" y="-523.5393" font-family="Helvetica,sans-Serif" font-size="11.00" fill="#000000">5 rows</text>
<polygon fill="#ffffff" stroke="transparent" points="408.5,-517.4393 408.5,-536.4393 440.5,-536.4393 440.5,-517.4393 408.5,-517.4393"/>
<polygon fill="none" stroke="#000000" points="408.5,-517.4393 408.5,-536.4393 440.5,-536.4393 440.5,-517.4393 408.5,-517.4393"/>
<text text-anchor="start" x="421.9053" y="-523.5393" font-family="Helvetica,sans-Serif" font-size="11.00" fill="#000000">5 &gt;</text>
</a>
</g>
</g>
<!-- casos&#45;&gt;contactos -->
<g id="edge1" class="edge">
<title>casos:w&#45;&gt;contactos:e</title>
<path fill="none" stroke="#000000" d="M477.167,-442.9744C427.079,-464.1218 513.6818,-610.4393 440.5,-610.4393"/>
<polygon fill="#000000" stroke="#000000" points="483.6223,-441.8327 492.127,-443.9843 487.5611,-441.136 491.5,-440.4393 491.5,-440.4393 491.5,-440.4393 487.5611,-441.136 490.873,-436.8943 483.6223,-441.8327 483.6223,-441.8327"/>
<ellipse fill="none" stroke="#000000" cx="480.4712" cy="-442.39" rx="3.2" ry="3.2"/>
</g>
<!-- leads -->
<g id="node3" class="node">
<title>leads</title>
<g id="a_node3"><a xlink:href="../../tables/leads.html" xlink:title="leads" target="_top">
<polygon fill="#ffffff" stroke="transparent" points="317,-112.9393 317,-305.9393 440,-305.9393 440,-112.9393 317,-112.9393"/>
<polygon fill="#f5f5f5" stroke="transparent" points="317.5,-282.4393 317.5,-305.4393 440.5,-305.4393 440.5,-282.4393 317.5,-282.4393"/>
<polygon fill="none" stroke="#000000" points="317.5,-282.4393 317.5,-305.4393 440.5,-305.4393 440.5,-282.4393 317.5,-282.4393"/>
<text text-anchor="start" x="322.5" y="-291.5393" font-family="Helvetica,sans-Serif" font-weight="bold" font-size="11.00" fill="#000000">leads</text>
<text text-anchor="start" x="405.5437" y="-290.5393" font-family="Helvetica,sans-Serif" font-size="11.00" fill="#000000">[table]</text>
<polygon fill="none" stroke="#000000" points="317.5,-260.4393 317.5,-282.4393 440.5,-282.4393 440.5,-260.4393 317.5,-260.4393"/>
<image xlink:href="../../images/primaryKeys.png" width="11px" height="12px" preserveAspectRatio="xMinYMin meet" x="322.5" y="-277.439"/>
<text text-anchor="start" x="337.5" y="-267.5393" font-family="Helvetica,sans-Serif" font-size="11.00" fill="#000000">lead_id</text>
<polygon fill="none" stroke="#000000" points="317.5,-238.4393 317.5,-260.4393 440.5,-260.4393 440.5,-238.4393 317.5,-238.4393"/>
<image xlink:href="../../images/foreignKeys.png" width="11px" height="12px" preserveAspectRatio="xMinYMin meet" x="322.5" y="-255.439"/>
<text text-anchor="start" x="337.5" y="-245.5393" font-family="Helvetica,sans-Serif" font-size="11.00" fill="#000000">usu_asignado_id</text>
<polygon fill="none" stroke="#000000" points="317.5,-216.4393 317.5,-238.4393 440.5,-238.4393 440.5,-216.4393 317.5,-216.4393"/>
<image xlink:href="../../images/foreignKeys.png" width="11px" height="12px" preserveAspectRatio="xMinYMin meet" x="322.5" y="-233.439"/>
<text text-anchor="start" x="337.5" y="-223.5393" font-family="Helvetica,sans-Serif" font-size="11.00" fill="#000000">campana_id</text>
<polygon fill="none" stroke="#000000" points="317.5,-194.4393 317.5,-216.4393 440.5,-216.4393 440.5,-194.4393 317.5,-194.4393"/>
<image xlink:href="../../images/foreignKeys.png" width="11px" height="12px" preserveAspectRatio="xMinYMin meet" x="322.5" y="-211.439"/>
<text text-anchor="start" x="337.5" y="-201.5393" font-family="Helvetica,sans-Serif" font-size="11.00" fill="#000000">persona_id</text>
<polygon fill="none" stroke="#000000" points="317.5,-172.4393 317.5,-194.4393 440.5,-194.4393 440.5,-172.4393 317.5,-172.4393"/>
<image xlink:href="../../images/foreignKeys.png" width="11px" height="12px" preserveAspectRatio="xMinYMin meet" x="322.5" y="-189.439"/>
<text text-anchor="start" x="337.5" y="-179.5393" font-family="Helvetica,sans-Serif" font-size="11.00" fill="#000000">curso_id</text>
<polygon fill="none" stroke="#000000" points="317.5,-150.4393 317.5,-172.4393 440.5,-172.4393 440.5,-150.4393 317.5,-150.4393"/>
<image xlink:href="../../images/foreignKeys.png" width="11px" height="12px" preserveAspectRatio="xMinYMin meet" x="322.5" y="-167.439"/>
<text text-anchor="start" x="337.5" y="-157.5393" font-family="Helvetica,sans-Serif" font-size="11.00" fill="#000000">ciclo_id</text>
<polygon fill="none" stroke="#000000" points="317.5,-131.4393 317.5,-150.4393 440.5,-150.4393 440.5,-131.4393 317.5,-131.4393"/>
<text text-anchor="start" x="320.5" y="-137.5393" font-family="Helvetica,sans-Serif" font-size="11.00" fill="#000000">...</text>
<polygon fill="#ffffff" stroke="transparent" points="317.5,-112.4393 317.5,-131.4393 359.5,-131.4393 359.5,-112.4393 317.5,-112.4393"/>
<polygon fill="none" stroke="#000000" points="317.5,-112.4393 317.5,-131.4393 359.5,-131.4393 359.5,-112.4393 317.5,-112.4393"/>
<text text-anchor="start" x="320.5" y="-118.5393" font-family="Helvetica,sans-Serif" font-size="11.00" fill="#000000">&lt; 5</text>
<polygon fill="#ffffff" stroke="transparent" points="359.5,-112.4393 359.5,-131.4393 408.5,-131.4393 408.5,-112.4393 359.5,-112.4393"/>
<polygon fill="none" stroke="#000000" points="359.5,-112.4393 359.5,-131.4393 408.5,-131.4393 408.5,-112.4393 359.5,-112.4393"/>
<text text-anchor="start" x="373.1105" y="-118.5393" font-family="Helvetica,sans-Serif" font-size="11.00" fill="#000000">4 rows</text>
<polygon fill="#ffffff" stroke="transparent" points="408.5,-112.4393 408.5,-131.4393 440.5,-131.4393 440.5,-112.4393 408.5,-112.4393"/>
<polygon fill="none" stroke="#000000" points="408.5,-112.4393 408.5,-131.4393 440.5,-131.4393 440.5,-112.4393 408.5,-112.4393"/>
<text text-anchor="start" x="421.9053" y="-118.5393" font-family="Helvetica,sans-Serif" font-size="11.00" fill="#000000">3 &gt;</text>
</a>
</g>
</g>
<!-- casos&#45;&gt;leads -->
<g id="edge2" class="edge">
<title>casos:w&#45;&gt;leads:e</title>
<path fill="none" stroke="#000000" d="M477.9796,-566.9579C436.2424,-526.1624 502.9095,-271.4393 440.5,-271.4393"/>
<polygon fill="#000000" stroke="#000000" points="484.0861,-569.4336 490.1474,-575.7755 487.7931,-570.9364 491.5,-572.4393 491.5,-572.4393 491.5,-572.4393 487.7931,-570.9364 492.8526,-569.103 484.0861,-569.4336 484.0861,-569.4336"/>
<ellipse fill="none" stroke="#000000" cx="481.1205" cy="-568.2313" rx="3.2" ry="3.2"/>
</g>
<!-- usuarios -->
<g id="node4" class="node">
<title>usuarios</title>
<g id="a_node4"><a xlink:href="../../tables/usuarios.html" xlink:title="usuarios" target="_top">
<polygon fill="#ffffff" stroke="transparent" points="145,-299.9393 145,-404.9393 268,-404.9393 268,-299.9393 145,-299.9393"/>
<polygon fill="#f5f5f5" stroke="transparent" points="145.5,-381.4393 145.5,-404.4393 268.5,-404.4393 268.5,-381.4393 145.5,-381.4393"/>
<polygon fill="none" stroke="#000000" points="145.5,-381.4393 145.5,-404.4393 268.5,-404.4393 268.5,-381.4393 145.5,-381.4393"/>
<text text-anchor="start" x="150.5" y="-390.5393" font-family="Helvetica,sans-Serif" font-weight="bold" font-size="11.00" fill="#000000">usuarios</text>
<text text-anchor="start" x="233.5437" y="-389.5393" font-family="Helvetica,sans-Serif" font-size="11.00" fill="#000000">[table]</text>
<polygon fill="none" stroke="#000000" points="145.5,-359.4393 145.5,-381.4393 268.5,-381.4393 268.5,-359.4393 145.5,-359.4393"/>
<image xlink:href="../../images/primaryKeys.png" width="11px" height="12px" preserveAspectRatio="xMinYMin meet" x="150.5" y="-376.439"/>
<text text-anchor="start" x="165.5" y="-366.5393" font-family="Helvetica,sans-Serif" font-size="11.00" fill="#000000">usuario_id</text>
<polygon fill="#ffffff" stroke="transparent" points="145.5,-337.4393 145.5,-359.4393 268.5,-359.4393 268.5,-337.4393 145.5,-337.4393"/>
<polygon fill="none" stroke="#000000" points="145.5,-337.4393 145.5,-359.4393 268.5,-359.4393 268.5,-337.4393 145.5,-337.4393"/>
<text text-anchor="start" x="165.5" y="-344.5393" font-family="Helvetica,sans-Serif" font-size="11.00" fill="#000000">nom_usuario</text>
<polygon fill="none" stroke="#000000" points="145.5,-318.4393 145.5,-337.4393 268.5,-337.4393 268.5,-318.4393 145.5,-318.4393"/>
<text text-anchor="start" x="148.5" y="-324.5393" font-family="Helvetica,sans-Serif" font-size="11.00" fill="#000000">...</text>
<polygon fill="#ffffff" stroke="transparent" points="145.5,-299.4393 145.5,-318.4393 186.5,-318.4393 186.5,-299.4393 145.5,-299.4393"/>
<polygon fill="none" stroke="#000000" points="145.5,-299.4393 145.5,-318.4393 186.5,-318.4393 186.5,-299.4393 145.5,-299.4393"/>
<text text-anchor="start" x="148.5" y="-305.5393" font-family="Helvetica,sans-Serif" font-size="11.00" fill="#000000"> &#160;</text>
<polygon fill="#ffffff" stroke="transparent" points="186.5,-299.4393 186.5,-318.4393 232.5,-318.4393 232.5,-299.4393 186.5,-299.4393"/>
<polygon fill="none" stroke="#000000" points="186.5,-299.4393 186.5,-318.4393 232.5,-318.4393 232.5,-299.4393 186.5,-299.4393"/>
<text text-anchor="start" x="202.6105" y="-305.5393" font-family="Helvetica,sans-Serif" font-size="11.00" fill="#000000">1 row</text>
<polygon fill="#ffffff" stroke="transparent" points="232.5,-299.4393 232.5,-318.4393 268.5,-318.4393 268.5,-299.4393 232.5,-299.4393"/>
<polygon fill="none" stroke="#000000" points="232.5,-299.4393 232.5,-318.4393 268.5,-318.4393 268.5,-299.4393 232.5,-299.4393"/>
<text text-anchor="start" x="249.9053" y="-305.5393" font-family="Helvetica,sans-Serif" font-size="11.00" fill="#000000">6 &gt;</text>
</a>
</g>
</g>
<!-- casos&#45;&gt;usuarios -->
<g id="edge3" class="edge">
<title>casos:w&#45;&gt;usuarios:e</title>
<path fill="none" stroke="#000000" d="M476.9559,-547.9676C443.3631,-533.7849 486.0653,-462.1008 448,-425.4393 440.4878,-418.2041 278.9298,-370.4393 268.5,-370.4393"/>
<polygon fill="#000000" stroke="#000000" points="483.6131,-549.0989 490.8968,-553.9884 487.5565,-549.7691 491.5,-550.4393 491.5,-550.4393 491.5,-550.4393 487.5565,-549.7691 492.1032,-546.8902 483.6131,-549.0989 483.6131,-549.0989"/>
<ellipse fill="none" stroke="#000000" cx="480.4583" cy="-548.5627" rx="3.2" ry="3.2"/>
</g>
<!-- organizaciones -->
<g id="node5" class="node">
<title>organizaciones</title>
<g id="a_node5"><a xlink:href="../../tables/organizaciones.html" xlink:title="organizaciones" target="_top">
<polygon fill="#ffffff" stroke="transparent" points="148.5,-496.9393 148.5,-557.9393 264.5,-557.9393 264.5,-496.9393 148.5,-496.9393"/>
<polygon fill="#f5f5f5" stroke="transparent" points="148.5,-534.4393 148.5,-557.4393 264.5,-557.4393 264.5,-534.4393 148.5,-534.4393"/>
<polygon fill="none" stroke="#000000" points="148.5,-534.4393 148.5,-557.4393 264.5,-557.4393 264.5,-534.4393 148.5,-534.4393"/>
<text text-anchor="start" x="153.0186" y="-543.5393" font-family="Helvetica,sans-Serif" font-weight="bold" font-size="11.00" fill="#000000">organizaciones</text>
<text text-anchor="start" x="230.0219" y="-542.5393" font-family="Helvetica,sans-Serif" font-size="11.00" fill="#000000">[table]</text>
<polygon fill="none" stroke="#000000" points="148.5,-515.4393 148.5,-534.4393 264.5,-534.4393 264.5,-515.4393 148.5,-515.4393"/>
<text text-anchor="start" x="151.5" y="-521.5393" font-family="Helvetica,sans-Serif" font-size="11.00" fill="#000000">...</text>
<polygon fill="#ffffff" stroke="transparent" points="148.5,-496.4393 148.5,-515.4393 187.5,-515.4393 187.5,-496.4393 148.5,-496.4393"/>
<polygon fill="none" stroke="#000000" points="148.5,-496.4393 148.5,-515.4393 187.5,-515.4393 187.5,-496.4393 148.5,-496.4393"/>
<text text-anchor="start" x="151.5" y="-502.5393" font-family="Helvetica,sans-Serif" font-size="11.00" fill="#000000">&lt; 1</text>
<polygon fill="#ffffff" stroke="transparent" points="187.5,-496.4393 187.5,-515.4393 234.5,-515.4393 234.5,-496.4393 187.5,-496.4393"/>
<polygon fill="none" stroke="#000000" points="187.5,-496.4393 187.5,-515.4393 234.5,-515.4393 234.5,-496.4393 187.5,-496.4393"/>
<text text-anchor="start" x="199.1105" y="-502.5393" font-family="Helvetica,sans-Serif" font-size="11.00" fill="#000000">0 rows</text>
<polygon fill="#ffffff" stroke="transparent" points="234.5,-496.4393 234.5,-515.4393 264.5,-515.4393 264.5,-496.4393 234.5,-496.4393"/>
<polygon fill="none" stroke="#000000" points="234.5,-496.4393 234.5,-515.4393 264.5,-515.4393 264.5,-496.4393 234.5,-496.4393"/>
<text text-anchor="start" x="245.9053" y="-502.5393" font-family="Helvetica,sans-Serif" font-size="11.00" fill="#000000">1 &gt;</text>
</a>
</g>
</g>
<!-- contactos&#45;&gt;organizaciones -->
<g id="edge4" class="edge">
<title>contactos:w&#45;&gt;organizaciones:e</title>
<path fill="none" stroke="#000000" d="M303.589,-562.2586C288.8046,-551.6352 288.685,-524.4393 264.5,-524.4393"/>
<polygon fill="#000000" stroke="#000000" points="309.8385,-564.1367 316.4639,-569.887 313.6693,-565.288 317.5,-566.4393 317.5,-566.4393 317.5,-566.4393 313.6693,-565.288 318.5361,-562.9916 309.8385,-564.1367 309.8385,-564.1367"/>
<ellipse fill="none" stroke="#000000" cx="306.7739" cy="-563.2157" rx="3.2" ry="3.2"/>
</g>
<!-- personas -->
<g id="node6" class="node">
<title>personas</title>
<g id="a_node6"><a xlink:href="../../tables/personas.html" xlink:title="personas" target="_top">
<polygon fill="#ffffff" stroke="transparent" points="8,-466.9393 8,-527.9393 96,-527.9393 96,-466.9393 8,-466.9393"/>
<polygon fill="#f5f5f5" stroke="transparent" points="8,-504.4393 8,-527.4393 96,-527.4393 96,-504.4393 8,-504.4393"/>
<polygon fill="none" stroke="#000000" points="8,-504.4393 8,-527.4393 96,-527.4393 96,-504.4393 8,-504.4393"/>
<text text-anchor="start" x="12.8818" y="-513.5393" font-family="Helvetica,sans-Serif" font-weight="bold" font-size="11.00" fill="#000000">personas</text>
<text text-anchor="start" x="61.5219" y="-512.5393" font-family="Helvetica,sans-Serif" font-size="11.00" fill="#000000">[table]</text>
<polygon fill="none" stroke="#000000" points="8,-485.4393 8,-504.4393 96,-504.4393 96,-485.4393 8,-485.4393"/>
<text text-anchor="start" x="11" y="-491.5393" font-family="Helvetica,sans-Serif" font-size="11.00" fill="#000000">...</text>
<polygon fill="#ffffff" stroke="transparent" points="8,-466.4393 8,-485.4393 28,-485.4393 28,-466.4393 8,-466.4393"/>
<polygon fill="none" stroke="#000000" points="8,-466.4393 8,-485.4393 28,-485.4393 28,-466.4393 8,-466.4393"/>
<text text-anchor="start" x="11" y="-472.5393" font-family="Helvetica,sans-Serif" font-size="11.00" fill="#000000"> &#160;</text>
<polygon fill="#ffffff" stroke="transparent" points="28,-466.4393 28,-485.4393 70,-485.4393 70,-466.4393 28,-466.4393"/>
<polygon fill="none" stroke="#000000" points="28,-466.4393 28,-485.4393 70,-485.4393 70,-466.4393 28,-466.4393"/>
<text text-anchor="start" x="34.6105" y="-472.5393" font-family="Helvetica,sans-Serif" font-size="11.00" fill="#000000">5 rows</text>
<polygon fill="#ffffff" stroke="transparent" points="70,-466.4393 70,-485.4393 96,-485.4393 96,-466.4393 70,-466.4393"/>
<polygon fill="none" stroke="#000000" points="70,-466.4393 70,-485.4393 96,-485.4393 96,-466.4393 70,-466.4393"/>
<text text-anchor="start" x="77.4053" y="-472.5393" font-family="Helvetica,sans-Serif" font-size="11.00" fill="#000000">6 &gt;</text>
</a>
</g>
</g>
<!-- contactos&#45;&gt;personas -->
<g id="edge5" class="edge">
<title>contactos:w&#45;&gt;personas:e</title>
<path fill="none" stroke="#000000" d="M302.9098,-588.7063C232.5754,-591.2609 199.977,-610.3873 137,-568.4393 105.7069,-547.5954 133.5996,-494.4393 96,-494.4393"/>
<polygon fill="#000000" stroke="#000000" points="309.5013,-588.5857 317.5659,-592.0387 313.5007,-588.5125 317.5,-588.4393 317.5,-588.4393 317.5,-588.4393 313.5007,-588.5125 317.4341,-584.8399 309.5013,-588.5857 309.5013,-588.5857"/>
<ellipse fill="none" stroke="#000000" cx="306.3019" cy="-588.6443" rx="3.2" ry="3.2"/>
</g>
<!-- leads&#45;&gt;usuarios -->
<g id="edge15" class="edge">
<title>leads:w&#45;&gt;usuarios:e</title>
<path fill="none" stroke="#000000" d="M303.43,-252.9301C271.8075,-272.7693 320.6273,-370.4393 268.5,-370.4393"/>
<polygon fill="#000000" stroke="#000000" points="309.7354,-251.3657 318.3669,-252.9334 313.6177,-250.4025 317.5,-249.4393 317.5,-249.4393 317.5,-249.4393 313.6177,-250.4025 316.6331,-245.9452 309.7354,-251.3657 309.7354,-251.3657"/>
<ellipse fill="none" stroke="#000000" cx="306.6296" cy="-252.1363" rx="3.2" ry="3.2"/>
</g>
<!-- leads&#45;&gt;personas -->
<g id="edge14" class="edge">
<title>leads:w&#45;&gt;personas:e</title>
<path fill="none" stroke="#000000" d="M302.9166,-204.8711C232.2173,-199.3793 193.6686,-156.9909 137,-206.4393 88.2913,-248.942 160.6453,-494.4393 96,-494.4393"/>
<polygon fill="#000000" stroke="#000000" points="309.5061,-205.1278 317.3598,-209.0366 313.503,-205.2835 317.5,-205.4393 317.5,-205.4393 317.5,-205.4393 313.503,-205.2835 317.6402,-201.842 309.5061,-205.1278 309.5061,-205.1278"/>
<ellipse fill="none" stroke="#000000" cx="306.3085" cy="-205.0031" rx="3.2" ry="3.2"/>
</g>
<!-- curso_ciclos -->
<g id="node7" class="node">
<title>curso_ciclos</title>
<g id="a_node7"><a xlink:href="../../tables/curso_ciclos.html" xlink:title="curso_ciclos" target="_top">
<polygon fill="#ffffff" stroke="transparent" points="155,-73.9393 155,-134.9393 258,-134.9393 258,-73.9393 155,-73.9393"/>
<polygon fill="#f5f5f5" stroke="transparent" points="155.5,-111.4393 155.5,-134.4393 258.5,-134.4393 258.5,-111.4393 155.5,-111.4393"/>
<polygon fill="none" stroke="#000000" points="155.5,-111.4393 155.5,-134.4393 258.5,-134.4393 258.5,-111.4393 155.5,-111.4393"/>
<text text-anchor="start" x="160.2484" y="-120.5393" font-family="Helvetica,sans-Serif" font-weight="bold" font-size="11.00" fill="#000000">curso_ciclos</text>
<text text-anchor="start" x="224.0219" y="-119.5393" font-family="Helvetica,sans-Serif" font-size="11.00" fill="#000000">[table]</text>
<polygon fill="none" stroke="#000000" points="155.5,-92.4393 155.5,-111.4393 258.5,-111.4393 258.5,-92.4393 155.5,-92.4393"/>
<text text-anchor="start" x="158.5" y="-98.5393" font-family="Helvetica,sans-Serif" font-size="11.00" fill="#000000">...</text>
<polygon fill="#ffffff" stroke="transparent" points="155.5,-73.4393 155.5,-92.4393 190.5,-92.4393 190.5,-73.4393 155.5,-73.4393"/>
<polygon fill="none" stroke="#000000" points="155.5,-73.4393 155.5,-92.4393 190.5,-92.4393 190.5,-73.4393 155.5,-73.4393"/>
<text text-anchor="start" x="158.5" y="-79.5393" font-family="Helvetica,sans-Serif" font-size="11.00" fill="#000000">&lt; 1</text>
<polygon fill="#ffffff" stroke="transparent" points="190.5,-73.4393 190.5,-92.4393 229.5,-92.4393 229.5,-73.4393 190.5,-73.4393"/>
<polygon fill="none" stroke="#000000" points="190.5,-73.4393 190.5,-92.4393 229.5,-92.4393 229.5,-73.4393 190.5,-73.4393"/>
<text text-anchor="start" x="199.6105" y="-79.5393" font-family="Helvetica,sans-Serif" font-size="11.00" fill="#000000">1 row</text>
<polygon fill="#ffffff" stroke="transparent" points="229.5,-73.4393 229.5,-92.4393 258.5,-92.4393 258.5,-73.4393 229.5,-73.4393"/>
<polygon fill="none" stroke="#000000" points="229.5,-73.4393 229.5,-92.4393 258.5,-92.4393 258.5,-73.4393 229.5,-73.4393"/>
<text text-anchor="start" x="239.9053" y="-79.5393" font-family="Helvetica,sans-Serif" font-size="11.00" fill="#000000">2 &gt;</text>
</a>
</g>
</g>
<!-- leads&#45;&gt;curso_ciclos -->
<g id="edge12" class="edge">
<title>leads:w&#45;&gt;curso_ciclos:e</title>
<path fill="none" stroke="#000000" d="M303.4595,-157.5025C283.7389,-144.1541 290.0558,-101.4393 258.5,-101.4393"/>
<polygon fill="#000000" stroke="#000000" points="309.7971,-159.2795 316.5281,-164.9056 313.6485,-160.3594 317.5,-161.4393 317.5,-161.4393 317.5,-161.4393 313.6485,-160.3594 318.4719,-157.973 309.7971,-159.2795 309.7971,-159.2795"/>
<ellipse fill="none" stroke="#000000" cx="306.7159" cy="-158.4155" rx="3.2" ry="3.2"/>
</g>
<!-- cursos -->
<g id="node8" class="node">
<title>cursos</title>
<g id="a_node8"><a xlink:href="../../tables/cursos.html" xlink:title="cursos" target="_top">
<polygon fill="#ffffff" stroke="transparent" points="13.5,-73.9393 13.5,-134.9393 90.5,-134.9393 90.5,-73.9393 13.5,-73.9393"/>
<polygon fill="#f5f5f5" stroke="transparent" points="14,-111.4393 14,-134.4393 91,-134.4393 91,-111.4393 14,-111.4393"/>
<polygon fill="none" stroke="#000000" points="14,-111.4393 14,-134.4393 91,-134.4393 91,-111.4393 14,-111.4393"/>
<text text-anchor="start" x="19" y="-120.5393" font-family="Helvetica,sans-Serif" font-weight="bold" font-size="11.00" fill="#000000">cursos</text>
<text text-anchor="start" x="56.0437" y="-119.5393" font-family="Helvetica,sans-Serif" font-size="11.00" fill="#000000">[table]</text>
<polygon fill="none" stroke="#000000" points="14,-92.4393 14,-111.4393 91,-111.4393 91,-92.4393 14,-92.4393"/>
<text text-anchor="start" x="17" y="-98.5393" font-family="Helvetica,sans-Serif" font-size="11.00" fill="#000000">...</text>
<polygon fill="#ffffff" stroke="transparent" points="14,-73.4393 14,-92.4393 26,-92.4393 26,-73.4393 14,-73.4393"/>
<polygon fill="none" stroke="#000000" points="14,-73.4393 14,-92.4393 26,-92.4393 26,-73.4393 14,-73.4393"/>
<text text-anchor="start" x="16.9431" y="-79.5393" font-family="Helvetica,sans-Serif" font-size="11.00" fill="#000000"> &#160;</text>
<polygon fill="#ffffff" stroke="transparent" points="26,-73.4393 26,-92.4393 70,-92.4393 70,-73.4393 26,-73.4393"/>
<polygon fill="none" stroke="#000000" points="26,-73.4393 26,-92.4393 70,-92.4393 70,-73.4393 26,-73.4393"/>
<text text-anchor="start" x="28.7478" y="-79.5393" font-family="Helvetica,sans-Serif" font-size="11.00" fill="#000000">10 rows</text>
<polygon fill="#ffffff" stroke="transparent" points="70,-73.4393 70,-92.4393 91,-92.4393 91,-73.4393 70,-73.4393"/>
<polygon fill="none" stroke="#000000" points="70,-73.4393 70,-92.4393 91,-92.4393 91,-73.4393 70,-73.4393"/>
<text text-anchor="start" x="72.7027" y="-79.5393" font-family="Helvetica,sans-Serif" font-size="11.00" fill="#000000">3 &gt;</text>
</a>
</g>
</g>
<!-- leads&#45;&gt;cursos -->
<g id="edge13" class="edge">
<title>leads:w&#45;&gt;cursos:e</title>
<path fill="none" stroke="#000000" d="M302.9124,-182.8531C255.8509,-179.5284 169.5036,-162.5821 137,-145.4393 111.9759,-132.2412 119.2913,-101.4393 91,-101.4393"/>
<polygon fill="#000000" stroke="#000000" points="309.5065,-183.118 317.3554,-187.0364 313.5032,-183.2787 317.5,-183.4393 317.5,-183.4393 317.5,-183.4393 313.5032,-183.2787 317.6446,-179.8422 309.5065,-183.118 309.5065,-183.118"/>
<ellipse fill="none" stroke="#000000" cx="306.309" cy="-182.9895" rx="3.2" ry="3.2"/>
</g>
<!-- campanas -->
<g id="node12" class="node">
<title>campanas</title>
<g id="a_node12"><a xlink:href="../../tables/campanas.html" xlink:title="campanas" target="_top">
<polygon fill="#ffffff" stroke="transparent" points="160,-216.9393 160,-277.9393 253,-277.9393 253,-216.9393 160,-216.9393"/>
<polygon fill="#f5f5f5" stroke="transparent" points="160.5,-254.4393 160.5,-277.4393 253.5,-277.4393 253.5,-254.4393 160.5,-254.4393"/>
<polygon fill="none" stroke="#000000" points="160.5,-254.4393 160.5,-277.4393 253.5,-277.4393 253.5,-254.4393 160.5,-254.4393"/>
<text text-anchor="start" x="165.1318" y="-263.5393" font-family="Helvetica,sans-Serif" font-weight="bold" font-size="11.00" fill="#000000">campanas</text>
<text text-anchor="start" x="219.0219" y="-262.5393" font-family="Helvetica,sans-Serif" font-size="11.00" fill="#000000">[table]</text>
<polygon fill="none" stroke="#000000" points="160.5,-235.4393 160.5,-254.4393 253.5,-254.4393 253.5,-235.4393 160.5,-235.4393"/>
<text text-anchor="start" x="163.5" y="-241.5393" font-family="Helvetica,sans-Serif" font-size="11.00" fill="#000000">...</text>
<polygon fill="#ffffff" stroke="transparent" points="160.5,-216.4393 160.5,-235.4393 183.5,-235.4393 183.5,-216.4393 160.5,-216.4393"/>
<polygon fill="none" stroke="#000000" points="160.5,-216.4393 160.5,-235.4393 183.5,-235.4393 183.5,-216.4393 160.5,-216.4393"/>
<text text-anchor="start" x="163.5" y="-222.5393" font-family="Helvetica,sans-Serif" font-size="11.00" fill="#000000"> &#160;</text>
<polygon fill="#ffffff" stroke="transparent" points="183.5,-216.4393 183.5,-235.4393 226.5,-235.4393 226.5,-216.4393 183.5,-216.4393"/>
<polygon fill="none" stroke="#000000" points="183.5,-216.4393 183.5,-235.4393 226.5,-235.4393 226.5,-216.4393 183.5,-216.4393"/>
<text text-anchor="start" x="191.1105" y="-222.5393" font-family="Helvetica,sans-Serif" font-size="11.00" fill="#000000">0 rows</text>
<polygon fill="#ffffff" stroke="transparent" points="226.5,-216.4393 226.5,-235.4393 253.5,-235.4393 253.5,-216.4393 226.5,-216.4393"/>
<polygon fill="none" stroke="#000000" points="226.5,-216.4393 226.5,-235.4393 253.5,-235.4393 253.5,-216.4393 226.5,-216.4393"/>
<text text-anchor="start" x="234.9053" y="-222.5393" font-family="Helvetica,sans-Serif" font-size="11.00" fill="#000000">2 &gt;</text>
</a>
</g>
</g>
<!-- leads&#45;&gt;campanas -->
<g id="edge11" class="edge">
<title>leads:w&#45;&gt;campanas:e</title>
<path fill="none" stroke="#000000" d="M302.9295,-229.0693C285.2122,-233.3243 277.2976,-244.4393 253.5,-244.4393"/>
<polygon fill="#000000" stroke="#000000" points="309.5496,-228.3288 317.9003,-231.017 313.5248,-227.884 317.5,-227.4393 317.5,-227.4393 317.5,-227.4393 313.5248,-227.884 317.0997,-223.8616 309.5496,-228.3288 309.5496,-228.3288"/>
<ellipse fill="none" stroke="#000000" cx="306.3694" cy="-228.6846" rx="3.2" ry="3.2"/>
</g>
<!-- organizaciones&#45;&gt;personas -->
<g id="edge24" class="edge">
<title>organizaciones:w&#45;&gt;personas:e</title>
<path fill="none" stroke="#000000" d="M134.3122,-520.7607C120.8263,-512.7498 116.9955,-494.4393 96,-494.4393"/>
<polygon fill="#000000" stroke="#000000" points="140.7561,-522.4314 147.5965,-527.9241 144.628,-523.4354 148.5,-524.4393 148.5,-524.4393 148.5,-524.4393 144.628,-523.4354 149.4035,-520.9545 140.7561,-522.4314 140.7561,-522.4314"/>
<ellipse fill="none" stroke="#000000" cx="137.6585" cy="-521.6283" rx="3.2" ry="3.2"/>
</g>
<!-- curso_ciclos&#45;&gt;cursos -->
<g id="edge6" class="edge">
<title>curso_ciclos:w&#45;&gt;cursos:e</title>
<path fill="none" stroke="#000000" d="M140.8432,-101.4393C123.2137,-101.4393 114.0677,-101.4393 91,-101.4393"/>
<polygon fill="#000000" stroke="#000000" points="147.5,-101.4394 155.5,-105.0393 151.5,-101.4393 155.5,-101.4393 155.5,-101.4393 155.5,-101.4393 151.5,-101.4393 155.5,-97.8393 147.5,-101.4394 147.5,-101.4394"/>
<ellipse fill="none" stroke="#000000" cx="144.3" cy="-101.4394" rx="3.2" ry="3.2"/>
</g>
<!-- empleados -->
<g id="node9" class="node">
<title>empleados</title>
<g id="a_node9"><a xlink:href="../../tables/empleados.html" xlink:title="empleados" target="_top">
<polygon fill="#ffffff" stroke="transparent" points="330.5,-435.9393 330.5,-496.9393 426.5,-496.9393 426.5,-435.9393 330.5,-435.9393"/>
<polygon fill="#f5f5f5" stroke="transparent" points="330.5,-473.4393 330.5,-496.4393 426.5,-496.4393 426.5,-473.4393 330.5,-473.4393"/>
<polygon fill="none" stroke="#000000" points="330.5,-473.4393 330.5,-496.4393 426.5,-496.4393 426.5,-473.4393 330.5,-473.4393"/>
<text text-anchor="start" x="335.1039" y="-482.5393" font-family="Helvetica,sans-Serif" font-weight="bold" font-size="11.00" fill="#000000">empleados</text>
<text text-anchor="start" x="392.0219" y="-481.5393" font-family="Helvetica,sans-Serif" font-size="11.00" fill="#000000">[table]</text>
<polygon fill="none" stroke="#000000" points="330.5,-454.4393 330.5,-473.4393 426.5,-473.4393 426.5,-454.4393 330.5,-454.4393"/>
<text text-anchor="start" x="333.5" y="-460.5393" font-family="Helvetica,sans-Serif" font-size="11.00" fill="#000000">...</text>
<polygon fill="#ffffff" stroke="transparent" points="330.5,-435.4393 330.5,-454.4393 366.5,-454.4393 366.5,-435.4393 330.5,-435.4393"/>
<polygon fill="none" stroke="#000000" points="330.5,-435.4393 330.5,-454.4393 366.5,-454.4393 366.5,-435.4393 330.5,-435.4393"/>
<text text-anchor="start" x="333.5" y="-441.5393" font-family="Helvetica,sans-Serif" font-size="11.00" fill="#000000">&lt; 2</text>
<polygon fill="#ffffff" stroke="transparent" points="366.5,-435.4393 366.5,-454.4393 406.5,-454.4393 406.5,-435.4393 366.5,-435.4393"/>
<polygon fill="none" stroke="#000000" points="366.5,-435.4393 366.5,-454.4393 406.5,-454.4393 406.5,-435.4393 366.5,-435.4393"/>
<text text-anchor="start" x="376.6105" y="-441.5393" font-family="Helvetica,sans-Serif" font-size="11.00" fill="#000000">1 row</text>
<polygon fill="#ffffff" stroke="transparent" points="406.5,-435.4393 406.5,-454.4393 426.5,-454.4393 426.5,-435.4393 406.5,-435.4393"/>
<polygon fill="none" stroke="#000000" points="406.5,-435.4393 406.5,-454.4393 426.5,-454.4393 426.5,-435.4393 406.5,-435.4393"/>
<text text-anchor="start" x="417.3862" y="-441.5393" font-family="Helvetica,sans-Serif" font-size="11.00" fill="#000000"> &#160;</text>
</a>
</g>
</g>
<!-- empleados&#45;&gt;usuarios -->
<g id="edge8" class="edge">
<title>empleados:w&#45;&gt;usuarios:e</title>
<path fill="none" stroke="#000000" d="M316.341,-459.9071C288.383,-442.9196 312.355,-370.4393 268.5,-370.4393"/>
<polygon fill="#000000" stroke="#000000" points="322.7379,-461.5029 329.6286,-466.9323 326.6189,-462.4711 330.5,-463.4393 330.5,-463.4393 330.5,-463.4393 326.6189,-462.4711 331.3714,-459.9463 322.7379,-461.5029 322.7379,-461.5029"/>
<ellipse fill="none" stroke="#000000" cx="319.633" cy="-460.7283" rx="3.2" ry="3.2"/>
</g>
<!-- empleados&#45;&gt;personas -->
<g id="edge7" class="edge">
<title>empleados:w&#45;&gt;personas:e</title>
<path fill="none" stroke="#000000" d="M315.9226,-463.5369C241.174,-464.5759 217.5471,-473.8119 137,-486.4393 118.6582,-489.3147 114.5659,-494.4393 96,-494.4393"/>
<polygon fill="#000000" stroke="#000000" points="322.5002,-463.4929 330.5241,-467.0392 326.5001,-463.4661 330.5,-463.4393 330.5,-463.4393 330.5,-463.4393 326.5001,-463.4661 330.4759,-459.8394 322.5002,-463.4929 322.5002,-463.4929"/>
<ellipse fill="none" stroke="#000000" cx="319.3003" cy="-463.5143" rx="3.2" ry="3.2"/>
</g>
<!-- encuesta_respuestas -->
<g id="node10" class="node">
<title>encuesta_respuestas</title>
<g id="a_node10"><a xlink:href="../../tables/encuesta_respuestas.html" xlink:title="encuesta_respuestas" target="_top">
<polygon fill="#ffffff" stroke="transparent" points="849,-445.9393 849,-506.9393 996,-506.9393 996,-445.9393 849,-445.9393"/>
<polygon fill="#f5f5f5" stroke="transparent" points="849.5,-483.4393 849.5,-506.4393 996.5,-506.4393 996.5,-483.4393 849.5,-483.4393"/>
<polygon fill="none" stroke="#000000" points="849.5,-483.4393 849.5,-506.4393 996.5,-506.4393 996.5,-483.4393 849.5,-483.4393"/>
<text text-anchor="start" x="854.2302" y="-492.5393" font-family="Helvetica,sans-Serif" font-weight="bold" font-size="11.00" fill="#000000">encuesta_respuestas</text>
<text text-anchor="start" x="962.0219" y="-491.5393" font-family="Helvetica,sans-Serif" font-size="11.00" fill="#000000">[table]</text>
<polygon fill="none" stroke="#000000" points="849.5,-464.4393 849.5,-483.4393 996.5,-483.4393 996.5,-464.4393 849.5,-464.4393"/>
<text text-anchor="start" x="852.5" y="-470.5393" font-family="Helvetica,sans-Serif" font-size="11.00" fill="#000000">...</text>
<polygon fill="#ffffff" stroke="transparent" points="849.5,-445.4393 849.5,-464.4393 906.5,-464.4393 906.5,-445.4393 849.5,-445.4393"/>
<polygon fill="none" stroke="#000000" points="849.5,-445.4393 849.5,-464.4393 906.5,-464.4393 906.5,-445.4393 849.5,-445.4393"/>
<text text-anchor="start" x="852.5" y="-451.5393" font-family="Helvetica,sans-Serif" font-size="11.00" fill="#000000">&lt; 2</text>
<polygon fill="#ffffff" stroke="transparent" points="906.5,-445.4393 906.5,-464.4393 956.5,-464.4393 956.5,-445.4393 906.5,-445.4393"/>
<polygon fill="none" stroke="#000000" points="906.5,-445.4393 906.5,-464.4393 956.5,-464.4393 956.5,-445.4393 906.5,-445.4393"/>
<text text-anchor="start" x="926.6105" y="-451.5393" font-family="Helvetica,sans-Serif" font-size="11.00" fill="#000000">1 row</text>
<polygon fill="#ffffff" stroke="transparent" points="956.5,-445.4393 956.5,-464.4393 996.5,-464.4393 996.5,-445.4393 956.5,-445.4393"/>
<polygon fill="none" stroke="#000000" points="956.5,-445.4393 956.5,-464.4393 996.5,-464.4393 996.5,-445.4393 956.5,-445.4393"/>
<text text-anchor="start" x="977.9053" y="-451.5393" font-family="Helvetica,sans-Serif" font-size="11.00" fill="#000000">1 &gt;</text>
</a>
</g>
</g>
<!-- encuesta_respuestas&#45;&gt;contactos -->
<g id="edge9" class="edge">
<title>encuesta_respuestas:w&#45;&gt;contactos:e</title>
<path fill="none" stroke="#000000" d="M835.6147,-477.9934C789.4688,-513.9203 858.0516,-751.4245 808,-795.4393 698.8632,-891.413 594.2227,-886.5568 481,-795.4393 415.4274,-742.6688 524.6694,-610.4393 440.5,-610.4393"/>
<polygon fill="#000000" stroke="#000000" points="841.8984,-475.9325 850.6219,-476.86 845.6992,-474.6859 849.5,-473.4393 849.5,-473.4393 849.5,-473.4393 845.6992,-474.6859 848.3781,-470.0186 841.8984,-475.9325 841.8984,-475.9325"/>
<ellipse fill="none" stroke="#000000" cx="838.8578" cy="-476.9298" rx="3.2" ry="3.2"/>
</g>
<!-- oportunidades -->
<g id="node11" class="node">
<title>oportunidades</title>
<g id="a_node11"><a xlink:href="../../tables/oportunidades.html" xlink:title="oportunidades" target="_top">
<polygon fill="#ffffff" stroke="transparent" points="588.5,-110.9393 588.5,-171.9393 700.5,-171.9393 700.5,-110.9393 588.5,-110.9393"/>
<polygon fill="#f5f5f5" stroke="transparent" points="588.5,-148.4393 588.5,-171.4393 700.5,-171.4393 700.5,-148.4393 588.5,-148.4393"/>
<polygon fill="none" stroke="#000000" points="588.5,-148.4393 588.5,-171.4393 700.5,-171.4393 700.5,-148.4393 588.5,-148.4393"/>
<text text-anchor="start" x="593.1531" y="-157.5393" font-family="Helvetica,sans-Serif" font-weight="bold" font-size="11.00" fill="#000000">oportunidades</text>
<text text-anchor="start" x="666.0219" y="-156.5393" font-family="Helvetica,sans-Serif" font-size="11.00" fill="#000000">[table]</text>
<polygon fill="none" stroke="#000000" points="588.5,-129.4393 588.5,-148.4393 700.5,-148.4393 700.5,-129.4393 588.5,-129.4393"/>
<text text-anchor="start" x="591.5" y="-135.5393" font-family="Helvetica,sans-Serif" font-size="11.00" fill="#000000">...</text>
<polygon fill="#ffffff" stroke="transparent" points="588.5,-110.4393 588.5,-129.4393 622.5,-129.4393 622.5,-110.4393 588.5,-110.4393"/>
<polygon fill="none" stroke="#000000" points="588.5,-110.4393 588.5,-129.4393 622.5,-129.4393 622.5,-110.4393 588.5,-110.4393"/>
<text text-anchor="start" x="591.5" y="-116.5393" font-family="Helvetica,sans-Serif" font-size="11.00" fill="#000000">&lt; 5</text>
<polygon fill="#ffffff" stroke="transparent" points="622.5,-110.4393 622.5,-129.4393 672.5,-129.4393 672.5,-110.4393 622.5,-110.4393"/>
<polygon fill="none" stroke="#000000" points="622.5,-110.4393 622.5,-129.4393 672.5,-129.4393 672.5,-110.4393 622.5,-110.4393"/>
<text text-anchor="start" x="630.9956" y="-116.5393" font-family="Helvetica,sans-Serif" font-size="11.00" fill="#000000">14 rows</text>
<polygon fill="#ffffff" stroke="transparent" points="672.5,-110.4393 672.5,-129.4393 700.5,-129.4393 700.5,-110.4393 672.5,-110.4393"/>
<polygon fill="none" stroke="#000000" points="672.5,-110.4393 672.5,-129.4393 700.5,-129.4393 700.5,-110.4393 672.5,-110.4393"/>
<text text-anchor="start" x="681.9053" y="-116.5393" font-family="Helvetica,sans-Serif" font-size="11.00" fill="#000000">1 &gt;</text>
</a>
</g>
</g>
<!-- encuesta_respuestas&#45;&gt;oportunidades -->
<g id="edge10" class="edge">
<title>encuesta_respuestas:w&#45;&gt;oportunidades:e</title>
<path fill="none" stroke="#000000" d="M835.7247,-467.8293C802.6239,-435.7896 831.7023,-275.8994 808,-233.4393 776.9216,-177.7656 764.2607,-138.4393 700.5,-138.4393"/>
<polygon fill="#000000" stroke="#000000" points="842.0908,-470.4219 848.1422,-476.7734 845.7954,-471.9306 849.5,-473.4393 849.5,-473.4393 849.5,-473.4393 845.7954,-471.9306 850.8578,-470.1052 842.0908,-470.4219 842.0908,-470.4219"/>
<ellipse fill="none" stroke="#000000" cx="839.1272" cy="-469.2149" rx="3.2" ry="3.2"/>
</g>
<!-- oportunidades&#45;&gt;contactos -->
<g id="edge21" class="edge">
<title>oportunidades:w&#45;&gt;contactos:e</title>
<path fill="none" stroke="#000000" d="M574.0979,-139.1669C522.3278,-144.6997 507.9311,-181.3325 481,-233.4393 442.3125,-308.2925 524.7598,-610.4393 440.5,-610.4393"/>
<polygon fill="#000000" stroke="#000000" points="580.5102,-138.843 588.6817,-142.0347 584.5051,-138.6411 588.5,-138.4393 588.5,-138.4393 588.5,-138.4393 584.5051,-138.6411 588.3183,-134.8439 580.5102,-138.843 580.5102,-138.843"/>
<ellipse fill="none" stroke="#000000" cx="577.3143" cy="-139.0045" rx="3.2" ry="3.2"/>
</g>
<!-- oportunidades&#45;&gt;usuarios -->
<g id="edge23" class="edge">
<title>oportunidades:w&#45;&gt;usuarios:e</title>
<path fill="none" stroke="#000000" d="M573.9057,-139.2856C523.3802,-145.5303 514.6614,-185.557 481,-233.4393 458.1695,-265.915 478.7385,-291.3187 448,-316.4393 399.3969,-356.1594 366.8218,-317.0141 309,-341.4393 288.6062,-350.0541 290.6387,-370.4393 268.5,-370.4393"/>
<polygon fill="#000000" stroke="#000000" points="580.5134,-138.9025 588.7084,-142.0333 584.5067,-138.6709 588.5,-138.4393 588.5,-138.4393 588.5,-138.4393 584.5067,-138.6709 588.2916,-134.8453 580.5134,-138.9025 580.5134,-138.9025"/>
<ellipse fill="none" stroke="#000000" cx="577.3188" cy="-139.0877" rx="3.2" ry="3.2"/>
</g>
<!-- oportunidades&#45;&gt;curso_ciclos -->
<g id="edge20" class="edge">
<title>oportunidades:w&#45;&gt;curso_ciclos:e</title>
<path fill="none" stroke="#000000" d="M574.0058,-137.6668C519.3233,-131.5622 509.4551,-91.0121 448,-78.4393 387.4759,-66.0569 369.3727,-65.3384 309,-78.4393 284.8983,-83.6694 283.1627,-101.4393 258.5,-101.4393"/>
<polygon fill="#000000" stroke="#000000" points="580.5113,-138.0135 588.3084,-142.0342 584.5057,-138.2264 588.5,-138.4393 588.5,-138.4393 588.5,-138.4393 584.5057,-138.2264 588.6916,-134.8444 580.5113,-138.0135 580.5113,-138.0135"/>
<ellipse fill="none" stroke="#000000" cx="577.3159" cy="-137.8431" rx="3.2" ry="3.2"/>
</g>
<!-- oportunidades&#45;&gt;cursos -->
<g id="edge22" class="edge">
<title>oportunidades:w&#45;&gt;cursos:e</title>
<path fill="none" stroke="#000000" d="M573.9444,-137.5692C517.6342,-130.4919 511.0109,-82.227 448,-66.4393 313.916,-32.8439 267.0732,-16.6618 137,-63.4393 112.0465,-72.4132 117.5181,-101.4393 91,-101.4393"/>
<polygon fill="#000000" stroke="#000000" points="580.5143,-137.9619 588.2852,-142.0329 584.5071,-138.2006 588.5,-138.4393 588.5,-138.4393 588.5,-138.4393 584.5071,-138.2006 588.7148,-134.8457 580.5143,-137.9619 580.5143,-137.9619"/>
<ellipse fill="none" stroke="#000000" cx="577.32" cy="-137.7709" rx="3.2" ry="3.2"/>
</g>
<!-- oportunidades&#45;&gt;campanas -->
<g id="edge19" class="edge">
<title>oportunidades:w&#45;&gt;campanas:e</title>
<path fill="none" stroke="#000000" d="M573.8053,-137.9447C459.098,-130.1849 408.2939,-34.6393 309,-102.4393 253.0407,-140.6495 321.2603,-244.4393 253.5,-244.4393"/>
<polygon fill="#000000" stroke="#000000" points="580.5045,-138.1701 588.3789,-142.0373 584.5023,-138.3047 588.5,-138.4393 588.5,-138.4393 588.5,-138.4393 584.5023,-138.3047 588.6211,-134.8413 580.5045,-138.1701 580.5045,-138.1701"/>
<ellipse fill="none" stroke="#000000" cx="577.3063" cy="-138.0625" rx="3.2" ry="3.2"/>
</g>
<!-- llamadas -->
<g id="node13" class="node">
<title>llamadas</title>
<g id="a_node13"><a xlink:href="../../tables/llamadas.html" xlink:title="llamadas" target="_top">
<polygon fill="#ffffff" stroke="transparent" points="601,-325.9393 601,-386.9393 688,-386.9393 688,-325.9393 601,-325.9393"/>
<polygon fill="#f5f5f5" stroke="transparent" points="601.5,-363.4393 601.5,-386.4393 688.5,-386.4393 688.5,-363.4393 601.5,-363.4393"/>
<polygon fill="none" stroke="#000000" points="601.5,-363.4393 601.5,-386.4393 688.5,-386.4393 688.5,-363.4393 601.5,-363.4393"/>
<text text-anchor="start" x="606.4984" y="-372.5393" font-family="Helvetica,sans-Serif" font-weight="bold" font-size="11.00" fill="#000000">llamadas</text>
<text text-anchor="start" x="654.0219" y="-371.5393" font-family="Helvetica,sans-Serif" font-size="11.00" fill="#000000">[table]</text>
<polygon fill="none" stroke="#000000" points="601.5,-344.4393 601.5,-363.4393 688.5,-363.4393 688.5,-344.4393 601.5,-344.4393"/>
<text text-anchor="start" x="604.5" y="-350.5393" font-family="Helvetica,sans-Serif" font-size="11.00" fill="#000000">...</text>
<polygon fill="#ffffff" stroke="transparent" points="601.5,-325.4393 601.5,-344.4393 630.5,-344.4393 630.5,-325.4393 601.5,-325.4393"/>
<polygon fill="none" stroke="#000000" points="601.5,-325.4393 601.5,-344.4393 630.5,-344.4393 630.5,-325.4393 601.5,-325.4393"/>
<text text-anchor="start" x="604.5" y="-331.5393" font-family="Helvetica,sans-Serif" font-size="11.00" fill="#000000">&lt; 3</text>
<polygon fill="#ffffff" stroke="transparent" points="630.5,-325.4393 630.5,-344.4393 672.5,-344.4393 672.5,-325.4393 630.5,-325.4393"/>
<polygon fill="none" stroke="#000000" points="630.5,-325.4393 630.5,-344.4393 672.5,-344.4393 672.5,-325.4393 630.5,-325.4393"/>
<text text-anchor="start" x="637.1105" y="-331.5393" font-family="Helvetica,sans-Serif" font-size="11.00" fill="#000000">0 rows</text>
<polygon fill="#ffffff" stroke="transparent" points="672.5,-325.4393 672.5,-344.4393 688.5,-344.4393 688.5,-325.4393 672.5,-325.4393"/>
<polygon fill="none" stroke="#000000" points="672.5,-325.4393 672.5,-344.4393 688.5,-344.4393 688.5,-325.4393 672.5,-325.4393"/>
<text text-anchor="start" x="679.3862" y="-331.5393" font-family="Helvetica,sans-Serif" font-size="11.00" fill="#000000"> &#160;</text>
</a>
</g>
</g>
<!-- llamadas&#45;&gt;contactos -->
<g id="edge16" class="edge">
<title>llamadas:w&#45;&gt;contactos:e</title>
<path fill="none" stroke="#000000" d="M586.8053,-353.5009C539.4939,-354.0176 514.5627,-358.6792 481,-398.4393 419.1237,-471.7411 536.4262,-610.4393 440.5,-610.4393"/>
<polygon fill="#000000" stroke="#000000" points="593.5001,-353.4729 601.5151,-357.0393 597.5,-353.4561 601.5,-353.4393 601.5,-353.4393 601.5,-353.4393 597.5,-353.4561 601.4849,-349.8393 593.5001,-353.4729 593.5001,-353.4729"/>
<ellipse fill="none" stroke="#000000" cx="590.3001" cy="-353.4863" rx="3.2" ry="3.2"/>
</g>
<!-- llamadas&#45;&gt;leads -->
<g id="edge17" class="edge">
<title>llamadas:w&#45;&gt;leads:e</title>
<path fill="none" stroke="#000000" d="M586.9725,-353.229C541.976,-351.8052 524.0434,-342.7948 481,-315.4393 458.5683,-301.1832 467.0786,-271.4393 440.5,-271.4393"/>
<polygon fill="#000000" stroke="#000000" points="593.5008,-353.3234 601.4479,-357.0389 597.5004,-353.3814 601.5,-353.4393 601.5,-353.4393 601.5,-353.4393 597.5004,-353.3814 601.5521,-349.8397 593.5008,-353.3234 593.5008,-353.3234"/>
<ellipse fill="none" stroke="#000000" cx="590.3012" cy="-353.2771" rx="3.2" ry="3.2"/>
</g>
<!-- llamadas&#45;&gt;usuarios -->
<g id="edge18" class="edge">
<title>llamadas:w&#45;&gt;usuarios:e</title>
<path fill="none" stroke="#000000" d="M587.0624,-353.6028C530.2468,-354.9338 511.3291,-364.0268 448,-367.4393 368.3267,-371.7325 348.2889,-370.4393 268.5,-370.4393"/>
<polygon fill="#000000" stroke="#000000" points="593.5005,-353.5299 601.5408,-357.0391 597.5003,-353.4846 601.5,-353.4393 601.5,-353.4393 601.5,-353.4393 597.5003,-353.4846 601.4592,-349.8395 593.5005,-353.5299 593.5005,-353.5299"/>
<ellipse fill="none" stroke="#000000" cx="590.3007" cy="-353.5662" rx="3.2" ry="3.2"/>
</g>
<!-- tareas -->
<g id="node14" class="node">
<title>tareas</title>
<g id="a_node14"><a xlink:href="../../tables/tareas.html" xlink:title="tareas" target="_top">
<polygon fill="#ffffff" stroke="transparent" points="608,-243.9393 608,-304.9393 681,-304.9393 681,-243.9393 608,-243.9393"/>
<polygon fill="#f5f5f5" stroke="transparent" points="608.5,-281.4393 608.5,-304.4393 681.5,-304.4393 681.5,-281.4393 608.5,-281.4393"/>
<polygon fill="none" stroke="#000000" points="608.5,-281.4393 608.5,-304.4393 681.5,-304.4393 681.5,-281.4393 608.5,-281.4393"/>
<text text-anchor="start" x="613.2183" y="-290.5393" font-family="Helvetica,sans-Serif" font-weight="bold" font-size="11.00" fill="#000000">tareas</text>
<text text-anchor="start" x="647.0219" y="-289.5393" font-family="Helvetica,sans-Serif" font-size="11.00" fill="#000000">[table]</text>
<polygon fill="none" stroke="#000000" points="608.5,-262.4393 608.5,-281.4393 681.5,-281.4393 681.5,-262.4393 608.5,-262.4393"/>
<text text-anchor="start" x="611.5" y="-268.5393" font-family="Helvetica,sans-Serif" font-size="11.00" fill="#000000">...</text>
<polygon fill="#ffffff" stroke="transparent" points="608.5,-243.4393 608.5,-262.4393 630.5,-262.4393 630.5,-243.4393 608.5,-243.4393"/>
<polygon fill="none" stroke="#000000" points="608.5,-243.4393 608.5,-262.4393 630.5,-262.4393 630.5,-243.4393 608.5,-243.4393"/>
<text text-anchor="start" x="611.5" y="-249.5393" font-family="Helvetica,sans-Serif" font-size="11.00" fill="#000000">&lt; 3</text>
<polygon fill="#ffffff" stroke="transparent" points="630.5,-243.4393 630.5,-262.4393 668.5,-262.4393 668.5,-243.4393 630.5,-243.4393"/>
<polygon fill="none" stroke="#000000" points="630.5,-243.4393 630.5,-262.4393 668.5,-262.4393 668.5,-243.4393 630.5,-243.4393"/>
<text text-anchor="start" x="633.3053" y="-249.5393" font-family="Helvetica,sans-Serif" font-size="11.00" fill="#000000">0 rows</text>
<polygon fill="#ffffff" stroke="transparent" points="668.5,-243.4393 668.5,-262.4393 681.5,-262.4393 681.5,-243.4393 668.5,-243.4393"/>
<polygon fill="none" stroke="#000000" points="668.5,-243.4393 668.5,-262.4393 681.5,-262.4393 681.5,-243.4393 668.5,-243.4393"/>
<text text-anchor="start" x="672.3862" y="-249.5393" font-family="Helvetica,sans-Serif" font-size="11.00" fill="#000000"> &#160;</text>
</a>
</g>
</g>
<!-- tareas&#45;&gt;contactos -->
<g id="edge25" class="edge">
<title>tareas:w&#45;&gt;contactos:e</title>
<path fill="none" stroke="#000000" d="M594.0173,-271.4202C543.5365,-271.3912 515.8458,-273.0005 481,-315.4393 439.0095,-366.5796 506.6705,-610.4393 440.5,-610.4393"/>
<polygon fill="#000000" stroke="#000000" points="600.5,-271.4287 608.4952,-275.0393 604.5,-271.434 608.5,-271.4393 608.5,-271.4393 608.5,-271.4393 604.5,-271.434 608.5048,-267.8393 600.5,-271.4287 600.5,-271.4287"/>
<ellipse fill="none" stroke="#000000" cx="597.3" cy="-271.4245" rx="3.2" ry="3.2"/>
</g>
<!-- tareas&#45;&gt;leads -->
<g id="edge26" class="edge">
<title>tareas:w&#45;&gt;leads:e</title>
<path fill="none" stroke="#000000" d="M593.9368,-271.4393C531.0196,-271.4393 510.0625,-271.4393 440.5,-271.4393"/>
<polygon fill="#000000" stroke="#000000" points="600.5,-271.4394 608.5,-275.0393 604.5,-271.4393 608.5,-271.4393 608.5,-271.4393 608.5,-271.4393 604.5,-271.4393 608.5,-267.8393 600.5,-271.4394 600.5,-271.4394"/>
<ellipse fill="none" stroke="#000000" cx="597.3" cy="-271.4394" rx="3.2" ry="3.2"/>
</g>
<!-- tareas&#45;&gt;usuarios -->
<g id="edge27" class="edge">
<title>tareas:w&#45;&gt;usuarios:e</title>
<path fill="none" stroke="#000000" d="M593.9953,-271.7866C545.7502,-274.242 529.3388,-289.6363 481,-315.4393 464.7676,-324.1041 464.8974,-333.156 448,-340.4393 410.8609,-356.4473 308.9422,-370.4393 268.5,-370.4393"/>
<polygon fill="#000000" stroke="#000000" points="600.5023,-271.6309 608.5862,-275.0383 604.5011,-271.5351 608.5,-271.4393 608.5,-271.4393 608.5,-271.4393 604.5011,-271.5351 608.4138,-267.8403 600.5023,-271.6309 600.5023,-271.6309"/>
<ellipse fill="none" stroke="#000000" cx="597.3032" cy="-271.7075" rx="3.2" ry="3.2"/>
</g>
</g>
</svg>
