<?xml version="1.0" encoding="UTF-8" standalone="no"?>
<!DOCTYPE svg PUBLIC "-//W3C//DTD SVG 1.1//EN"
 "http://www.w3.org/Graphics/SVG/1.1/DTD/svg11.dtd">
<!-- Generated by graphviz version 2.40.1 (20161225.0304)
 -->
<!-- Title: oneDegreeRelationshipsDiagramImplied Pages: 1 -->
<svg width="447pt" height="519pt"
 viewBox="0.00 0.00 447.00 518.70" xmlns="http://www.w3.org/2000/svg" xmlns:xlink="http://www.w3.org/1999/xlink">
<g id="graph0" class="graph" transform="scale(1 1) rotate(0) translate(4 514.7)">
<title>oneDegreeRelationshipsDiagramImplied</title>
<polygon fill="#ffffff" stroke="transparent" points="-4,4 -4,-514.7 443,-514.7 443,4 -4,4"/>
<text text-anchor="middle" x="72.4936" y="-7.3" font-family="Helvetica,sans-Serif" font-size="11.00" fill="#000000">Generated by SchemaSpy</text>
<!-- casos -->
<g id="node1" class="node">
<title>casos</title>
<g id="a_node1"><a xlink:href="../../tables/casos.html" xlink:title="casos" target="_top">
<polygon fill="#ffffff" stroke="transparent" points="197,-108.7 197,-506.7 431,-506.7 431,-108.7 197,-108.7"/>
<polygon fill="#f5f5f5" stroke="transparent" points="199,-481.7 199,-504.7 429,-504.7 429,-481.7 199,-481.7"/>
<polygon fill="none" stroke="#000000" points="199,-481.7 199,-504.7 429,-504.7 429,-481.7 199,-481.7"/>
<text text-anchor="start" x="204" y="-490.8" font-family="Helvetica,sans-Serif" font-weight="bold" font-size="11.00" fill="#000000">casos</text>
<text text-anchor="start" x="394.0437" y="-489.8" font-family="Helvetica,sans-Serif" font-size="11.00" fill="#000000">[table]</text>
<polygon fill="none" stroke="#000000" points="199,-459.7 199,-481.7 339,-481.7 339,-459.7 199,-459.7"/>
<image xlink:href="../../images/primaryKeys.png" width="11px" height="12px" preserveAspectRatio="xMinYMin meet" x="204" y="-476.7"/>
<text text-anchor="start" x="219" y="-466.8" font-family="Helvetica,sans-Serif" font-size="11.00" fill="#000000">caso_id</text>
<polygon fill="none" stroke="#000000" points="339,-459.7 339,-481.7 429,-481.7 429,-459.7 339,-459.7"/>
<text text-anchor="start" x="342" y="-467.4" font-family="Helvetica,sans-Serif" font-size="11.00" fill="#000000">int4[10]</text>
<polygon fill="none" stroke="#000000" points="199,-437.7 199,-459.7 339,-459.7 339,-437.7 199,-437.7"/>
<text text-anchor="start" x="219" y="-444.8" font-family="Helvetica,sans-Serif" font-size="11.00" fill="#000000">nombre</text>
<polygon fill="none" stroke="#000000" points="339,-437.7 339,-459.7 429,-459.7 429,-437.7 339,-437.7"/>
<text text-anchor="start" x="342" y="-445.4" font-family="Helvetica,sans-Serif" font-size="11.00" fill="#000000">varchar[120]</text>
<polygon fill="none" stroke="#000000" points="199,-415.7 199,-437.7 339,-437.7 339,-415.7 199,-415.7"/>
<text text-anchor="start" x="219" y="-422.8" font-family="Helvetica,sans-Serif" font-size="11.00" fill="#000000">descripcion</text>
<polygon fill="none" stroke="#000000" points="339,-415.7 339,-437.7 429,-437.7 429,-415.7 339,-415.7"/>
<text text-anchor="start" x="341.5043" y="-423.4" font-family="Helvetica,sans-Serif" font-size="11.00" fill="#000000">text[2147483647]</text>
<polygon fill="none" stroke="#000000" points="199,-393.7 199,-415.7 339,-415.7 339,-393.7 199,-393.7"/>
<text text-anchor="start" x="219" y="-400.8" font-family="Helvetica,sans-Serif" font-size="11.00" fill="#000000">prioridad</text>
<polygon fill="none" stroke="#000000" points="339,-393.7 339,-415.7 429,-415.7 429,-393.7 339,-393.7"/>
<text text-anchor="start" x="342" y="-401.4" font-family="Helvetica,sans-Serif" font-size="11.00" fill="#000000">int4[10]</text>
<polygon fill="none" stroke="#000000" points="199,-371.7 199,-393.7 339,-393.7 339,-371.7 199,-371.7"/>
<text text-anchor="start" x="219" y="-378.8" font-family="Helvetica,sans-Serif" font-size="11.00" fill="#000000">estado</text>
<polygon fill="none" stroke="#000000" points="339,-371.7 339,-393.7 429,-393.7 429,-371.7 339,-371.7"/>
<text text-anchor="start" x="342" y="-379.4" font-family="Helvetica,sans-Serif" font-size="11.00" fill="#000000">int4[10]</text>
<polygon fill="none" stroke="#000000" points="199,-349.7 199,-371.7 339,-371.7 339,-349.7 199,-349.7"/>
<text text-anchor="start" x="219" y="-356.8" font-family="Helvetica,sans-Serif" font-size="11.00" fill="#000000">tipo</text>
<polygon fill="none" stroke="#000000" points="339,-349.7 339,-371.7 429,-371.7 429,-349.7 339,-349.7"/>
<text text-anchor="start" x="342" y="-357.4" font-family="Helvetica,sans-Serif" font-size="11.00" fill="#000000">int4[10]</text>
<polygon fill="none" stroke="#000000" points="199,-327.7 199,-349.7 339,-349.7 339,-327.7 199,-327.7"/>
<text text-anchor="start" x="219" y="-334.8" font-family="Helvetica,sans-Serif" font-size="11.00" fill="#000000">origen</text>
<polygon fill="none" stroke="#000000" points="339,-327.7 339,-349.7 429,-349.7 429,-327.7 339,-327.7"/>
<text text-anchor="start" x="342" y="-335.4" font-family="Helvetica,sans-Serif" font-size="11.00" fill="#000000">int4[10]</text>
<polygon fill="none" stroke="#000000" points="199,-305.7 199,-327.7 339,-327.7 339,-305.7 199,-305.7"/>
<text text-anchor="start" x="219" y="-312.8" font-family="Helvetica,sans-Serif" font-size="11.00" fill="#000000">solucion</text>
<polygon fill="none" stroke="#000000" points="339,-305.7 339,-327.7 429,-327.7 429,-305.7 339,-305.7"/>
<text text-anchor="start" x="341.5043" y="-313.4" font-family="Helvetica,sans-Serif" font-size="11.00" fill="#000000">text[2147483647]</text>
<polygon fill="none" stroke="#000000" points="199,-283.7 199,-305.7 339,-305.7 339,-283.7 199,-283.7"/>
<image xlink:href="../../images/foreignKeys.png" width="11px" height="12px" preserveAspectRatio="xMinYMin meet" x="204" y="-300.7"/>
<text text-anchor="start" x="219" y="-290.8" font-family="Helvetica,sans-Serif" font-size="11.00" fill="#000000">contacto_id</text>
<polygon fill="none" stroke="#000000" points="339,-283.7 339,-305.7 429,-305.7 429,-283.7 339,-283.7"/>
<text text-anchor="start" x="342" y="-291.4" font-family="Helvetica,sans-Serif" font-size="11.00" fill="#000000">int4[10]</text>
<polygon fill="none" stroke="#000000" points="199,-261.7 199,-283.7 339,-283.7 339,-261.7 199,-261.7"/>
<text text-anchor="start" x="219" y="-268.8" font-family="Helvetica,sans-Serif" font-size="11.00" fill="#000000">fec_insercion</text>
<polygon fill="none" stroke="#000000" points="339,-261.7 339,-283.7 429,-283.7 429,-261.7 339,-261.7"/>
<text text-anchor="start" x="342" y="-269.4" font-family="Helvetica,sans-Serif" font-size="11.00" fill="#000000">timestamp[29,6]</text>
<polygon fill="none" stroke="#000000" points="199,-239.7 199,-261.7 339,-261.7 339,-239.7 199,-239.7"/>
<image xlink:href="../../images/foreignKeys.png" width="11px" height="12px" preserveAspectRatio="xMinYMin meet" x="204" y="-256.7"/>
<text text-anchor="start" x="219" y="-246.8" font-family="Helvetica,sans-Serif" font-size="11.00" fill="#000000">usu_insercion_id</text>
<polygon fill="none" stroke="#000000" points="339,-239.7 339,-261.7 429,-261.7 429,-239.7 339,-239.7"/>
<text text-anchor="start" x="342" y="-247.4" font-family="Helvetica,sans-Serif" font-size="11.00" fill="#000000">int4[10]</text>
<polygon fill="none" stroke="#000000" points="199,-217.7 199,-239.7 339,-239.7 339,-217.7 199,-217.7"/>
<text text-anchor="start" x="219" y="-224.8" font-family="Helvetica,sans-Serif" font-size="11.00" fill="#000000">fec_modificacion</text>
<polygon fill="none" stroke="#000000" points="339,-217.7 339,-239.7 429,-239.7 429,-217.7 339,-217.7"/>
<text text-anchor="start" x="342" y="-225.4" font-family="Helvetica,sans-Serif" font-size="11.00" fill="#000000">timestamp[29,6]</text>
<polygon fill="none" stroke="#000000" points="199,-195.7 199,-217.7 339,-217.7 339,-195.7 199,-195.7"/>
<image xlink:href="../../images/foreignKeys.png" width="11px" height="12px" preserveAspectRatio="xMinYMin meet" x="204" y="-212.7"/>
<text text-anchor="start" x="219" y="-202.8" font-family="Helvetica,sans-Serif" font-size="11.00" fill="#000000">usu_modificacion_id</text>
<polygon fill="none" stroke="#000000" points="339,-195.7 339,-217.7 429,-217.7 429,-195.7 339,-195.7"/>
<text text-anchor="start" x="342" y="-203.4" font-family="Helvetica,sans-Serif" font-size="11.00" fill="#000000">int4[10]</text>
<polygon fill="none" stroke="#000000" points="199,-173.7 199,-195.7 339,-195.7 339,-173.7 199,-173.7"/>
<text text-anchor="start" x="219" y="-180.8" font-family="Helvetica,sans-Serif" font-size="11.00" fill="#000000">fec_eliminacion</text>
<polygon fill="none" stroke="#000000" points="339,-173.7 339,-195.7 429,-195.7 429,-173.7 339,-173.7"/>
<text text-anchor="start" x="342" y="-181.4" font-family="Helvetica,sans-Serif" font-size="11.00" fill="#000000">timestamp[29,6]</text>
<polygon fill="none" stroke="#000000" points="199,-151.7 199,-173.7 339,-173.7 339,-151.7 199,-151.7"/>
<image xlink:href="../../images/foreignKeys.png" width="11px" height="12px" preserveAspectRatio="xMinYMin meet" x="204" y="-168.7"/>
<text text-anchor="start" x="219" y="-158.8" font-family="Helvetica,sans-Serif" font-size="11.00" fill="#000000">usu_eliminacion_id</text>
<polygon fill="none" stroke="#000000" points="339,-151.7 339,-173.7 429,-173.7 429,-151.7 339,-151.7"/>
<text text-anchor="start" x="342" y="-159.4" font-family="Helvetica,sans-Serif" font-size="11.00" fill="#000000">int4[10]</text>
<polygon fill="none" stroke="#000000" points="199,-129.7 199,-151.7 339,-151.7 339,-129.7 199,-129.7"/>
<image xlink:href="../../images/foreignKeys.png" width="11px" height="12px" preserveAspectRatio="xMinYMin meet" x="204" y="-146.7"/>
<text text-anchor="start" x="219" y="-136.8" font-family="Helvetica,sans-Serif" font-size="11.00" fill="#000000">usu_asignado_id</text>
<polygon fill="none" stroke="#000000" points="339,-129.7 339,-151.7 429,-151.7 429,-129.7 339,-129.7"/>
<text text-anchor="start" x="342" y="-137.4" font-family="Helvetica,sans-Serif" font-size="11.00" fill="#000000">int4[10]</text>
<polygon fill="#ffffff" stroke="transparent" points="199,-110.7 199,-129.7 260,-129.7 260,-110.7 199,-110.7"/>
<polygon fill="none" stroke="#000000" points="199,-110.7 199,-129.7 260,-129.7 260,-110.7 199,-110.7"/>
<text text-anchor="start" x="202" y="-116.8" font-family="Helvetica,sans-Serif" font-size="11.00" fill="#000000">&lt; 5</text>
<polygon fill="#ffffff" stroke="transparent" points="260,-110.7 260,-129.7 339,-129.7 339,-110.7 260,-110.7"/>
<polygon fill="none" stroke="#000000" points="260,-110.7 260,-129.7 339,-129.7 339,-110.7 260,-110.7"/>
<text text-anchor="start" x="303.6105" y="-116.8" font-family="Helvetica,sans-Serif" font-size="11.00" fill="#000000">0 rows</text>
<polygon fill="#ffffff" stroke="transparent" points="339,-110.7 339,-129.7 429,-129.7 429,-110.7 339,-110.7"/>
<polygon fill="none" stroke="#000000" points="339,-110.7 339,-129.7 429,-129.7 429,-110.7 339,-110.7"/>
<text text-anchor="start" x="410.4053" y="-116.8" font-family="Helvetica,sans-Serif" font-size="11.00" fill="#000000">0 &gt;</text>
<polygon fill="none" stroke="#000000" stroke-width="2" points="198,-109.7 198,-505.7 430,-505.7 430,-109.7 198,-109.7"/>
</a>
</g>
</g>
<!-- contactos -->
<g id="node2" class="node">
<title>contactos</title>
<g id="a_node2"><a xlink:href="../../tables/contactos.html" xlink:title="contactos" target="_top">
<polygon fill="#ffffff" stroke="transparent" points="33,-242.7 33,-328.7 123,-328.7 123,-242.7 33,-242.7"/>
<polygon fill="#f5f5f5" stroke="transparent" points="33,-305.7 33,-328.7 123,-328.7 123,-305.7 33,-305.7"/>
<polygon fill="none" stroke="#000000" points="33,-305.7 33,-328.7 123,-328.7 123,-305.7 33,-305.7"/>
<text text-anchor="start" x="37.9633" y="-314.8" font-family="Helvetica,sans-Serif" font-weight="bold" font-size="11.00" fill="#000000">contactos</text>
<text text-anchor="start" x="88.5219" y="-313.8" font-family="Helvetica,sans-Serif" font-size="11.00" fill="#000000">[table]</text>
<polygon fill="none" stroke="#000000" points="33,-283.7 33,-305.7 123,-305.7 123,-283.7 33,-283.7"/>
<image xlink:href="../../images/primaryKeys.png" width="11px" height="12px" preserveAspectRatio="xMinYMin meet" x="38" y="-300.7"/>
<text text-anchor="start" x="54" y="-290.8" font-family="Helvetica,sans-Serif" font-size="11.00" fill="#000000">contacto_id</text>
<polygon fill="none" stroke="#000000" points="33,-261.7 33,-283.7 123,-283.7 123,-261.7 33,-261.7"/>
<image xlink:href="../../images/foreignKeys.png" width="11px" height="12px" preserveAspectRatio="xMinYMin meet" x="38" y="-278.7"/>
<text text-anchor="start" x="54" y="-268.8" font-family="Helvetica,sans-Serif" font-size="11.00" fill="#000000">persona_id</text>
<polygon fill="#ffffff" stroke="transparent" points="33,-242.7 33,-261.7 59,-261.7 59,-242.7 33,-242.7"/>
<polygon fill="none" stroke="#000000" points="33,-242.7 33,-261.7 59,-261.7 59,-242.7 33,-242.7"/>
<text text-anchor="start" x="36" y="-248.8" font-family="Helvetica,sans-Serif" font-size="11.00" fill="#000000">&lt; 1</text>
<polygon fill="#ffffff" stroke="transparent" points="59,-242.7 59,-261.7 99,-261.7 99,-242.7 59,-242.7"/>
<polygon fill="none" stroke="#000000" points="59,-242.7 59,-261.7 99,-261.7 99,-242.7 59,-242.7"/>
<text text-anchor="start" x="63.6105" y="-248.8" font-family="Helvetica,sans-Serif" font-size="11.00" fill="#000000">0 rows</text>
<polygon fill="#ffffff" stroke="transparent" points="99,-242.7 99,-261.7 123,-261.7 123,-242.7 99,-242.7"/>
<polygon fill="none" stroke="#000000" points="99,-242.7 99,-261.7 123,-261.7 123,-242.7 99,-242.7"/>
<text text-anchor="start" x="104.4053" y="-248.8" font-family="Helvetica,sans-Serif" font-size="11.00" fill="#000000">2 &gt;</text>
</a>
</g>
</g>
<!-- casos&#45;&gt;contactos -->
<g id="edge1" class="edge">
<title>casos:w&#45;&gt;contactos:e</title>
<path fill="none" stroke="#000000" d="M184.5121,-294.7C161.8676,-294.7 151.3681,-294.7 123,-294.7"/>
<polygon fill="#000000" stroke="#000000" points="191,-294.7001 199,-298.3 195,-294.7 199,-294.7 199,-294.7 199,-294.7 195,-294.7 199,-291.1 191,-294.7001 191,-294.7001"/>
<ellipse fill="none" stroke="#000000" cx="187.8" cy="-294.7001" rx="3.2" ry="3.2"/>
</g>
<!-- usuarios -->
<g id="node3" class="node">
<title>usuarios</title>
<g id="a_node3"><a xlink:href="../../tables/usuarios.html" xlink:title="usuarios" target="_top">
<polygon fill="#ffffff" stroke="transparent" points="8,-38.2 8,-209.2 148,-209.2 148,-38.2 8,-38.2"/>
<polygon fill="#f5f5f5" stroke="transparent" points="8,-185.7 8,-208.7 148,-208.7 148,-185.7 8,-185.7"/>
<polygon fill="none" stroke="#000000" points="8,-185.7 8,-208.7 148,-208.7 148,-185.7 8,-185.7"/>
<text text-anchor="start" x="13" y="-194.8" font-family="Helvetica,sans-Serif" font-weight="bold" font-size="11.00" fill="#000000">usuarios</text>
<text text-anchor="start" x="113.0437" y="-193.8" font-family="Helvetica,sans-Serif" font-size="11.00" fill="#000000">[table]</text>
<polygon fill="none" stroke="#000000" points="8,-163.7 8,-185.7 148,-185.7 148,-163.7 8,-163.7"/>
<image xlink:href="../../images/primaryKeys.png" width="11px" height="12px" preserveAspectRatio="xMinYMin meet" x="13" y="-180.7"/>
<text text-anchor="start" x="28" y="-170.8" font-family="Helvetica,sans-Serif" font-size="11.00" fill="#000000">usuario_id</text>
<polygon fill="none" stroke="#000000" points="8,-141.7 8,-163.7 148,-163.7 148,-141.7 8,-141.7"/>
<image xlink:href="../../images/foreignKeys.png" width="11px" height="12px" preserveAspectRatio="xMinYMin meet" x="13" y="-158.7"/>
<text text-anchor="start" x="28" y="-148.8" font-family="Helvetica,sans-Serif" font-size="11.00" fill="#000000">persona_id</text>
<polygon fill="none" stroke="#000000" points="8,-119.7 8,-141.7 148,-141.7 148,-119.7 8,-119.7"/>
<image xlink:href="../../images/foreignKeys.png" width="11px" height="12px" preserveAspectRatio="xMinYMin meet" x="13" y="-136.7"/>
<text text-anchor="start" x="28" y="-126.8" font-family="Helvetica,sans-Serif" font-size="11.00" fill="#000000">usu_insercion_id</text>
<polygon fill="none" stroke="#000000" points="8,-97.7 8,-119.7 148,-119.7 148,-97.7 8,-97.7"/>
<image xlink:href="../../images/foreignKeys.png" width="11px" height="12px" preserveAspectRatio="xMinYMin meet" x="13" y="-114.7"/>
<text text-anchor="start" x="28" y="-104.8" font-family="Helvetica,sans-Serif" font-size="11.00" fill="#000000">usu_modificacion_id</text>
<polygon fill="none" stroke="#000000" points="8,-75.7 8,-97.7 148,-97.7 148,-75.7 8,-75.7"/>
<image xlink:href="../../images/foreignKeys.png" width="11px" height="12px" preserveAspectRatio="xMinYMin meet" x="13" y="-92.7"/>
<text text-anchor="start" x="28" y="-82.8" font-family="Helvetica,sans-Serif" font-size="11.00" fill="#000000">usu_eliminacion_id</text>
<polygon fill="none" stroke="#000000" points="8,-56.7 8,-75.7 148,-75.7 148,-56.7 8,-56.7"/>
<text text-anchor="start" x="11" y="-62.8" font-family="Helvetica,sans-Serif" font-size="11.00" fill="#000000">...</text>
<polygon fill="#ffffff" stroke="transparent" points="8,-37.7 8,-56.7 56,-56.7 56,-37.7 8,-37.7"/>
<polygon fill="none" stroke="#000000" points="8,-37.7 8,-56.7 56,-56.7 56,-37.7 8,-37.7"/>
<text text-anchor="start" x="11" y="-43.8" font-family="Helvetica,sans-Serif" font-size="11.00" fill="#000000">&lt; 4</text>
<polygon fill="#ffffff" stroke="transparent" points="56,-37.7 56,-56.7 107,-56.7 107,-37.7 56,-37.7"/>
<polygon fill="none" stroke="#000000" points="56,-37.7 56,-56.7 107,-56.7 107,-37.7 56,-37.7"/>
<text text-anchor="start" x="71.6105" y="-43.8" font-family="Helvetica,sans-Serif" font-size="11.00" fill="#000000">0 rows</text>
<polygon fill="#ffffff" stroke="transparent" points="107,-37.7 107,-56.7 148,-56.7 148,-37.7 107,-37.7"/>
<polygon fill="none" stroke="#000000" points="107,-37.7 107,-56.7 148,-56.7 148,-37.7 107,-37.7"/>
<text text-anchor="start" x="123.2904" y="-43.8" font-family="Helvetica,sans-Serif" font-size="11.00" fill="#000000">19 &gt;</text>
</a>
</g>
</g>
<!-- casos&#45;&gt;usuarios -->
<g id="edge2" class="edge">
<title>casos:w&#45;&gt;usuarios:e</title>
<path fill="none" stroke="#000000" d="M184.8901,-144.8691C171.812,-153.948 169.2828,-174.7 148,-174.7"/>
<polygon fill="#000000" stroke="#000000" points="191.3279,-142.9669 200.0201,-144.1524 195.1639,-141.8335 199,-140.7 199,-140.7 199,-140.7 195.1639,-141.8335 197.9799,-137.2476 191.3279,-142.9669 191.3279,-142.9669"/>
<ellipse fill="none" stroke="#000000" cx="188.259" cy="-143.8737" rx="3.2" ry="3.2"/>
</g>
<!-- casos&#45;&gt;usuarios -->
<g id="edge3" class="edge">
<title>casos:w&#45;&gt;usuarios:e</title>
<path fill="none" stroke="#000000" d="M184.4822,-164.575C172.3214,-167.95 165.4642,-174.7 148,-174.7"/>
<polygon fill="#000000" stroke="#000000" points="191.0659,-163.7247 199.4611,-166.2703 195.0329,-163.2124 199,-162.7 199,-162.7 199,-162.7 195.0329,-163.2124 198.5389,-159.1297 191.0659,-163.7247 191.0659,-163.7247"/>
<ellipse fill="none" stroke="#000000" cx="187.8923" cy="-164.1346" rx="3.2" ry="3.2"/>
</g>
<!-- casos&#45;&gt;usuarios -->
<g id="edge4" class="edge">
<title>casos:w&#45;&gt;usuarios:e</title>
<path fill="none" stroke="#000000" d="M185.1163,-246.1735C165.7687,-229.8121 182.64,-174.7 148,-174.7"/>
<polygon fill="#000000" stroke="#000000" points="191.394,-248.2202 197.8841,-254.1227 195.197,-249.4601 199,-250.7 199,-250.7 199,-250.7 195.197,-249.4601 200.1159,-247.2773 191.394,-248.2202 191.394,-248.2202"/>
<ellipse fill="none" stroke="#000000" cx="188.3517" cy="-247.2282" rx="3.2" ry="3.2"/>
</g>
<!-- casos&#45;&gt;usuarios -->
<g id="edge5" class="edge">
<title>casos:w&#45;&gt;usuarios:e</title>
<path fill="none" stroke="#000000" d="M185.0293,-202.7762C171.9416,-194.2313 168.9055,-174.7 148,-174.7"/>
<polygon fill="#000000" stroke="#000000" points="191.298,-204.5368 198.0265,-210.1659 195.149,-205.6184 199,-206.7 199,-206.7 199,-206.7 195.149,-205.6184 199.9735,-203.2341 191.298,-204.5368 191.298,-204.5368"/>
<ellipse fill="none" stroke="#000000" cx="188.2172" cy="-203.6715" rx="3.2" ry="3.2"/>
</g>
</g>
</svg>
