<?xml version="1.0" encoding="UTF-8" standalone="no"?>
<!DOCTYPE svg PUBLIC "-//W3C//DTD SVG 1.1//EN"
 "http://www.w3.org/Graphics/SVG/1.1/DTD/svg11.dtd">
<!-- Generated by graphviz version 2.40.1 (20161225.0304)
 -->
<!-- Title: twoDegreesRelationshipsDiagram Pages: 1 -->
<svg width="959pt" height="785pt"
 viewBox="0.00 0.00 959.00 785.20" xmlns="http://www.w3.org/2000/svg" xmlns:xlink="http://www.w3.org/1999/xlink">
<g id="graph0" class="graph" transform="scale(1 1) rotate(0) translate(4 781.2)">
<title>twoDegreesRelationshipsDiagram</title>
<polygon fill="#ffffff" stroke="transparent" points="-4,4 -4,-781.2 955,-781.2 955,4 -4,4"/>
<text text-anchor="middle" x="72.4936" y="-7.3" font-family="Helvetica,sans-Serif" font-size="11.00" fill="#000000">Generated by SchemaSpy</text>
<!-- actividades -->
<g id="node1" class="node">
<title>actividades</title>
<g id="a_node1"><a xlink:href="../../tables/actividades.html" xlink:title="actividades" target="_top">
<polygon fill="#ffffff" stroke="transparent" points="402,-712.2 402,-773.2 500,-773.2 500,-712.2 402,-712.2"/>
<polygon fill="#f5f5f5" stroke="transparent" points="402,-749.7 402,-772.7 500,-772.7 500,-749.7 402,-749.7"/>
<polygon fill="none" stroke="#000000" points="402,-749.7 402,-772.7 500,-772.7 500,-749.7 402,-749.7"/>
<text text-anchor="start" x="406.9934" y="-758.8" font-family="Helvetica,sans-Serif" font-weight="bold" font-size="11.00" fill="#000000">actividades</text>
<text text-anchor="start" x="465.5219" y="-757.8" font-family="Helvetica,sans-Serif" font-size="11.00" fill="#000000">[table]</text>
<polygon fill="none" stroke="#000000" points="402,-730.7 402,-749.7 500,-749.7 500,-730.7 402,-730.7"/>
<text text-anchor="start" x="405" y="-736.8" font-family="Helvetica,sans-Serif" font-size="11.00" fill="#000000">...</text>
<polygon fill="#ffffff" stroke="transparent" points="402,-711.7 402,-730.7 432,-730.7 432,-711.7 402,-711.7"/>
<polygon fill="none" stroke="#000000" points="402,-711.7 402,-730.7 432,-730.7 432,-711.7 402,-711.7"/>
<text text-anchor="start" x="405" y="-717.8" font-family="Helvetica,sans-Serif" font-size="11.00" fill="#000000">&lt; 4</text>
<polygon fill="#ffffff" stroke="transparent" points="432,-711.7 432,-730.7 474,-730.7 474,-711.7 432,-711.7"/>
<polygon fill="none" stroke="#000000" points="432,-711.7 432,-730.7 474,-730.7 474,-711.7 432,-711.7"/>
<text text-anchor="start" x="438.6105" y="-717.8" font-family="Helvetica,sans-Serif" font-size="11.00" fill="#000000">0 rows</text>
<polygon fill="#ffffff" stroke="transparent" points="474,-711.7 474,-730.7 500,-730.7 500,-711.7 474,-711.7"/>
<polygon fill="none" stroke="#000000" points="474,-711.7 474,-730.7 500,-730.7 500,-711.7 474,-711.7"/>
<text text-anchor="start" x="481.4053" y="-717.8" font-family="Helvetica,sans-Serif" font-size="11.00" fill="#000000">2 &gt;</text>
</a>
</g>
</g>
<!-- usuarios -->
<g id="node2" class="node">
<title>usuarios</title>
<g id="a_node2"><a xlink:href="../../tables/usuarios.html" xlink:title="usuarios" target="_top">
<polygon fill="#ffffff" stroke="transparent" points="145,-451.2 145,-622.2 285,-622.2 285,-451.2 145,-451.2"/>
<polygon fill="#f5f5f5" stroke="transparent" points="145,-598.7 145,-621.7 285,-621.7 285,-598.7 145,-598.7"/>
<polygon fill="none" stroke="#000000" points="145,-598.7 145,-621.7 285,-621.7 285,-598.7 145,-598.7"/>
<text text-anchor="start" x="150" y="-607.8" font-family="Helvetica,sans-Serif" font-weight="bold" font-size="11.00" fill="#000000">usuarios</text>
<text text-anchor="start" x="250.0437" y="-606.8" font-family="Helvetica,sans-Serif" font-size="11.00" fill="#000000">[table]</text>
<polygon fill="none" stroke="#000000" points="145,-576.7 145,-598.7 285,-598.7 285,-576.7 145,-576.7"/>
<image xlink:href="../../images/primaryKeys.png" width="11px" height="12px" preserveAspectRatio="xMinYMin meet" x="150" y="-593.7"/>
<text text-anchor="start" x="165" y="-583.8" font-family="Helvetica,sans-Serif" font-size="11.00" fill="#000000">usuario_id</text>
<polygon fill="none" stroke="#000000" points="145,-554.7 145,-576.7 285,-576.7 285,-554.7 145,-554.7"/>
<image xlink:href="../../images/foreignKeys.png" width="11px" height="12px" preserveAspectRatio="xMinYMin meet" x="150" y="-571.7"/>
<text text-anchor="start" x="165" y="-561.8" font-family="Helvetica,sans-Serif" font-size="11.00" fill="#000000">persona_id</text>
<polygon fill="none" stroke="#000000" points="145,-532.7 145,-554.7 285,-554.7 285,-532.7 145,-532.7"/>
<image xlink:href="../../images/foreignKeys.png" width="11px" height="12px" preserveAspectRatio="xMinYMin meet" x="150" y="-549.7"/>
<text text-anchor="start" x="165" y="-539.8" font-family="Helvetica,sans-Serif" font-size="11.00" fill="#000000">usu_insercion_id</text>
<polygon fill="none" stroke="#000000" points="145,-510.7 145,-532.7 285,-532.7 285,-510.7 145,-510.7"/>
<image xlink:href="../../images/foreignKeys.png" width="11px" height="12px" preserveAspectRatio="xMinYMin meet" x="150" y="-527.7"/>
<text text-anchor="start" x="165" y="-517.8" font-family="Helvetica,sans-Serif" font-size="11.00" fill="#000000">usu_modificacion_id</text>
<polygon fill="none" stroke="#000000" points="145,-488.7 145,-510.7 285,-510.7 285,-488.7 145,-488.7"/>
<image xlink:href="../../images/foreignKeys.png" width="11px" height="12px" preserveAspectRatio="xMinYMin meet" x="150" y="-505.7"/>
<text text-anchor="start" x="165" y="-495.8" font-family="Helvetica,sans-Serif" font-size="11.00" fill="#000000">usu_eliminacion_id</text>
<polygon fill="none" stroke="#000000" points="145,-469.7 145,-488.7 285,-488.7 285,-469.7 145,-469.7"/>
<text text-anchor="start" x="148" y="-475.8" font-family="Helvetica,sans-Serif" font-size="11.00" fill="#000000">...</text>
<polygon fill="#ffffff" stroke="transparent" points="145,-450.7 145,-469.7 193,-469.7 193,-450.7 145,-450.7"/>
<polygon fill="none" stroke="#000000" points="145,-450.7 145,-469.7 193,-469.7 193,-450.7 145,-450.7"/>
<text text-anchor="start" x="148" y="-456.8" font-family="Helvetica,sans-Serif" font-size="11.00" fill="#000000">&lt; 4</text>
<polygon fill="#ffffff" stroke="transparent" points="193,-450.7 193,-469.7 244,-469.7 244,-450.7 193,-450.7"/>
<polygon fill="none" stroke="#000000" points="193,-450.7 193,-469.7 244,-469.7 244,-450.7 193,-450.7"/>
<text text-anchor="start" x="208.6105" y="-456.8" font-family="Helvetica,sans-Serif" font-size="11.00" fill="#000000">0 rows</text>
<polygon fill="#ffffff" stroke="transparent" points="244,-450.7 244,-469.7 285,-469.7 285,-450.7 244,-450.7"/>
<polygon fill="none" stroke="#000000" points="244,-450.7 244,-469.7 285,-469.7 285,-450.7 244,-450.7"/>
<text text-anchor="start" x="260.2904" y="-456.8" font-family="Helvetica,sans-Serif" font-size="11.00" fill="#000000">19 &gt;</text>
</a>
</g>
</g>
<!-- actividades&#45;&gt;usuarios -->
<g id="edge1" class="edge">
<title>actividades:w&#45;&gt;usuarios:e</title>
<path fill="none" stroke="#000000" d="M388.9203,-732.9539C360.7595,-717.9706 347.9423,-707.4073 326,-682.7 290.246,-642.4407 338.8439,-568.7 285,-587.7"/>
<polygon fill="#000000" stroke="#000000" points="394.89,-736.0328 400.3498,-742.8995 398.445,-737.8664 402,-739.7 402,-739.7 402,-739.7 398.445,-737.8664 403.6502,-736.5005 394.89,-736.0328 394.89,-736.0328"/>
<ellipse fill="none" stroke="#000000" cx="392.046" cy="-734.566" rx="3.2" ry="3.2"/>
</g>
<!-- actividades&#45;&gt;usuarios -->
<g id="edge2" class="edge">
<title>actividades:w&#45;&gt;usuarios:e</title>
<path fill="none" stroke="#000000" d="M387.7971,-736.9904C360.4145,-730.6851 347.6484,-720.0764 326,-695.7 290.246,-655.4407 338.8439,-581.7 285,-587.7"/>
<polygon fill="#000000" stroke="#000000" points="394.1417,-738.2008 401.3254,-743.2362 398.0709,-738.9504 402,-739.7 402,-739.7 402,-739.7 398.0709,-738.9504 402.6746,-736.1638 394.1417,-738.2008 394.1417,-738.2008"/>
<ellipse fill="none" stroke="#000000" cx="390.9984" cy="-737.6011" rx="3.2" ry="3.2"/>
</g>
<!-- actividades&#45;&gt;usuarios -->
<g id="edge3" class="edge">
<title>actividades:w&#45;&gt;usuarios:e</title>
<path fill="none" stroke="#000000" d="M387.4262,-741.6539C360.2988,-743.5888 347.5505,-732.9661 326,-708.7 290.246,-668.4407 338.8439,-594.7 285,-587.7"/>
<polygon fill="#000000" stroke="#000000" points="394.0709,-740.7631 402.4784,-743.2681 398.0355,-740.2315 402,-739.7 402,-739.7 402,-739.7 398.0355,-740.2315 401.5216,-736.1319 394.0709,-740.7631 394.0709,-740.7631"/>
<ellipse fill="none" stroke="#000000" cx="390.8993" cy="-741.1883" rx="3.2" ry="3.2"/>
</g>
<!-- actividades&#45;&gt;usuarios -->
<g id="edge4" class="edge">
<title>actividades:w&#45;&gt;usuarios:e</title>
<path fill="none" stroke="#000000" d="M388.9203,-745.8269C360.7595,-756.9706 347.9423,-746.4073 326,-721.7 290.246,-681.4407 338.8439,-607.7 285,-587.7"/>
<polygon fill="#000000" stroke="#000000" points="394.7554,-743.0936 403.5271,-742.9601 398.3777,-741.3968 402,-739.7 402,-739.7 402,-739.7 398.3777,-741.3968 400.4729,-736.4399 394.7554,-743.0936 394.7554,-743.0936"/>
<ellipse fill="none" stroke="#000000" cx="391.8576" cy="-744.451" rx="3.2" ry="3.2"/>
</g>
<!-- personas -->
<g id="node6" class="node">
<title>personas</title>
<g id="a_node6"><a xlink:href="../../tables/personas.html" xlink:title="personas" target="_top">
<polygon fill="#ffffff" stroke="transparent" points="8,-358.2 8,-419.2 96,-419.2 96,-358.2 8,-358.2"/>
<polygon fill="#f5f5f5" stroke="transparent" points="8,-395.7 8,-418.7 96,-418.7 96,-395.7 8,-395.7"/>
<polygon fill="none" stroke="#000000" points="8,-395.7 8,-418.7 96,-418.7 96,-395.7 8,-395.7"/>
<text text-anchor="start" x="12.8818" y="-404.8" font-family="Helvetica,sans-Serif" font-weight="bold" font-size="11.00" fill="#000000">personas</text>
<text text-anchor="start" x="61.5219" y="-403.8" font-family="Helvetica,sans-Serif" font-size="11.00" fill="#000000">[table]</text>
<polygon fill="none" stroke="#000000" points="8,-376.7 8,-395.7 96,-395.7 96,-376.7 8,-376.7"/>
<text text-anchor="start" x="11" y="-382.8" font-family="Helvetica,sans-Serif" font-size="11.00" fill="#000000">...</text>
<polygon fill="#ffffff" stroke="transparent" points="8,-357.7 8,-376.7 28,-376.7 28,-357.7 8,-357.7"/>
<polygon fill="none" stroke="#000000" points="8,-357.7 8,-376.7 28,-376.7 28,-357.7 8,-357.7"/>
<text text-anchor="start" x="11" y="-363.8" font-family="Helvetica,sans-Serif" font-size="11.00" fill="#000000"> &#160;</text>
<polygon fill="#ffffff" stroke="transparent" points="28,-357.7 28,-376.7 70,-376.7 70,-357.7 28,-357.7"/>
<polygon fill="none" stroke="#000000" points="28,-357.7 28,-376.7 70,-376.7 70,-357.7 28,-357.7"/>
<text text-anchor="start" x="34.6105" y="-363.8" font-family="Helvetica,sans-Serif" font-size="11.00" fill="#000000">0 rows</text>
<polygon fill="#ffffff" stroke="transparent" points="70,-357.7 70,-376.7 96,-376.7 96,-357.7 70,-357.7"/>
<polygon fill="none" stroke="#000000" points="70,-357.7 70,-376.7 96,-376.7 96,-357.7 70,-357.7"/>
<text text-anchor="start" x="77.4053" y="-363.8" font-family="Helvetica,sans-Serif" font-size="11.00" fill="#000000">4 &gt;</text>
</a>
</g>
</g>
<!-- usuarios&#45;&gt;personas -->
<g id="edge23" class="edge">
<title>usuarios:w&#45;&gt;personas:e</title>
<path fill="none" stroke="#000000" d="M130.6692,-563.2916C77.1272,-541.9318 173.2435,-385.7 96,-385.7"/>
<polygon fill="#000000" stroke="#000000" points="137.1106,-564.3741 144.4033,-569.2502 141.0553,-565.037 145,-565.7 145,-565.7 145,-565.7 141.0553,-565.037 145.5967,-562.1498 137.1106,-564.3741 137.1106,-564.3741"/>
<ellipse fill="none" stroke="#000000" cx="133.9549" cy="-563.8437" rx="3.2" ry="3.2"/>
</g>
<!-- campanas -->
<g id="node3" class="node">
<title>campanas</title>
<g id="a_node3"><a xlink:href="../../tables/campanas.html" xlink:title="campanas" target="_top">
<polygon fill="#ffffff" stroke="transparent" points="404.5,-630.2 404.5,-691.2 497.5,-691.2 497.5,-630.2 404.5,-630.2"/>
<polygon fill="#f5f5f5" stroke="transparent" points="405,-667.7 405,-690.7 498,-690.7 498,-667.7 405,-667.7"/>
<polygon fill="none" stroke="#000000" points="405,-667.7 405,-690.7 498,-690.7 498,-667.7 405,-667.7"/>
<text text-anchor="start" x="409.6318" y="-676.8" font-family="Helvetica,sans-Serif" font-weight="bold" font-size="11.00" fill="#000000">campanas</text>
<text text-anchor="start" x="463.5219" y="-675.8" font-family="Helvetica,sans-Serif" font-size="11.00" fill="#000000">[table]</text>
<polygon fill="none" stroke="#000000" points="405,-648.7 405,-667.7 498,-667.7 498,-648.7 405,-648.7"/>
<text text-anchor="start" x="408" y="-654.8" font-family="Helvetica,sans-Serif" font-size="11.00" fill="#000000">...</text>
<polygon fill="#ffffff" stroke="transparent" points="405,-629.7 405,-648.7 432,-648.7 432,-629.7 405,-629.7"/>
<polygon fill="none" stroke="#000000" points="405,-629.7 405,-648.7 432,-648.7 432,-629.7 405,-629.7"/>
<text text-anchor="start" x="408" y="-635.8" font-family="Helvetica,sans-Serif" font-size="11.00" fill="#000000">&lt; 4</text>
<polygon fill="#ffffff" stroke="transparent" points="432,-629.7 432,-648.7 473,-648.7 473,-629.7 432,-629.7"/>
<polygon fill="none" stroke="#000000" points="432,-629.7 432,-648.7 473,-648.7 473,-629.7 432,-629.7"/>
<text text-anchor="start" x="437.6105" y="-635.8" font-family="Helvetica,sans-Serif" font-size="11.00" fill="#000000">0 rows</text>
<polygon fill="#ffffff" stroke="transparent" points="473,-629.7 473,-648.7 498,-648.7 498,-629.7 473,-629.7"/>
<polygon fill="none" stroke="#000000" points="473,-629.7 473,-648.7 498,-648.7 498,-629.7 473,-629.7"/>
<text text-anchor="start" x="479.4053" y="-635.8" font-family="Helvetica,sans-Serif" font-size="11.00" fill="#000000">1 &gt;</text>
</a>
</g>
</g>
<!-- campanas&#45;&gt;usuarios -->
<g id="edge5" class="edge">
<title>campanas:w&#45;&gt;usuarios:e</title>
<path fill="none" stroke="#000000" d="M391.9618,-650.6969C363.5512,-633.5242 355.906,-614.7858 326,-596.7 307.1182,-585.2811 307.0661,-568.7 285,-587.7"/>
<polygon fill="#000000" stroke="#000000" points="397.9523,-653.9145 403.2965,-660.8715 401.4761,-655.8072 405,-657.7 405,-657.7 405,-657.7 401.4761,-655.8072 406.7035,-654.5285 397.9523,-653.9145 397.9523,-653.9145"/>
<ellipse fill="none" stroke="#000000" cx="395.1332" cy="-652.4003" rx="3.2" ry="3.2"/>
</g>
<!-- campanas&#45;&gt;usuarios -->
<g id="edge6" class="edge">
<title>campanas:w&#45;&gt;usuarios:e</title>
<path fill="none" stroke="#000000" d="M390.8364,-654.5314C363.3433,-646.0246 355.5073,-627.5447 326,-609.7 307.1182,-598.2811 307.0661,-581.7 285,-587.7"/>
<polygon fill="#000000" stroke="#000000" points="397.193,-655.9534 404.214,-661.2132 401.0965,-656.8267 405,-657.7 405,-657.7 405,-657.7 401.0965,-656.8267 405.786,-654.1868 397.193,-655.9534 397.193,-655.9534"/>
<ellipse fill="none" stroke="#000000" cx="394.0702" cy="-655.2548" rx="3.2" ry="3.2"/>
</g>
<!-- campanas&#45;&gt;usuarios -->
<g id="edge7" class="edge">
<title>campanas:w&#45;&gt;usuarios:e</title>
<path fill="none" stroke="#000000" d="M390.466,-659.0521C363.2723,-658.8581 355.3743,-640.4643 326,-622.7 307.1182,-611.2811 307.0661,-594.7 285,-587.7"/>
<polygon fill="#000000" stroke="#000000" points="397.0344,-658.4411 405.3335,-661.2845 401.0172,-658.0705 405,-657.7 405,-657.7 405,-657.7 401.0172,-658.0705 404.6665,-654.1155 397.0344,-658.4411 397.0344,-658.4411"/>
<ellipse fill="none" stroke="#000000" cx="393.8482" cy="-658.7375" rx="3.2" ry="3.2"/>
</g>
<!-- campanas&#45;&gt;usuarios -->
<g id="edge8" class="edge">
<title>campanas:w&#45;&gt;usuarios:e</title>
<path fill="none" stroke="#000000" d="M391.5843,-663.3409C363.4828,-672.3576 355.7731,-653.7054 326,-635.7 307.1182,-624.2811 307.0661,-607.7 285,-587.7"/>
<polygon fill="#000000" stroke="#000000" points="397.6254,-660.8008 406.3954,-661.0186 401.3127,-659.2504 405,-657.7 405,-657.7 405,-657.7 401.3127,-659.2504 403.6046,-654.3814 397.6254,-660.8008 397.6254,-660.8008"/>
<ellipse fill="none" stroke="#000000" cx="394.6755" cy="-662.0411" rx="3.2" ry="3.2"/>
</g>
<!-- casos -->
<g id="node4" class="node">
<title>casos</title>
<g id="a_node4"><a xlink:href="../../tables/casos.html" xlink:title="casos" target="_top">
<polygon fill="#ffffff" stroke="transparent" points="334,-147.7 334,-545.7 568,-545.7 568,-147.7 334,-147.7"/>
<polygon fill="#f5f5f5" stroke="transparent" points="336,-520.7 336,-543.7 566,-543.7 566,-520.7 336,-520.7"/>
<polygon fill="none" stroke="#000000" points="336,-520.7 336,-543.7 566,-543.7 566,-520.7 336,-520.7"/>
<text text-anchor="start" x="341" y="-529.8" font-family="Helvetica,sans-Serif" font-weight="bold" font-size="11.00" fill="#000000">casos</text>
<text text-anchor="start" x="531.0437" y="-528.8" font-family="Helvetica,sans-Serif" font-size="11.00" fill="#000000">[table]</text>
<polygon fill="none" stroke="#000000" points="336,-498.7 336,-520.7 476,-520.7 476,-498.7 336,-498.7"/>
<image xlink:href="../../images/primaryKeys.png" width="11px" height="12px" preserveAspectRatio="xMinYMin meet" x="341" y="-515.7"/>
<text text-anchor="start" x="356" y="-505.8" font-family="Helvetica,sans-Serif" font-size="11.00" fill="#000000">caso_id</text>
<polygon fill="none" stroke="#000000" points="476,-498.7 476,-520.7 566,-520.7 566,-498.7 476,-498.7"/>
<text text-anchor="start" x="479" y="-506.4" font-family="Helvetica,sans-Serif" font-size="11.00" fill="#000000">int4[10]</text>
<polygon fill="none" stroke="#000000" points="336,-476.7 336,-498.7 476,-498.7 476,-476.7 336,-476.7"/>
<text text-anchor="start" x="356" y="-483.8" font-family="Helvetica,sans-Serif" font-size="11.00" fill="#000000">nombre</text>
<polygon fill="none" stroke="#000000" points="476,-476.7 476,-498.7 566,-498.7 566,-476.7 476,-476.7"/>
<text text-anchor="start" x="479" y="-484.4" font-family="Helvetica,sans-Serif" font-size="11.00" fill="#000000">varchar[120]</text>
<polygon fill="none" stroke="#000000" points="336,-454.7 336,-476.7 476,-476.7 476,-454.7 336,-454.7"/>
<text text-anchor="start" x="356" y="-461.8" font-family="Helvetica,sans-Serif" font-size="11.00" fill="#000000">descripcion</text>
<polygon fill="none" stroke="#000000" points="476,-454.7 476,-476.7 566,-476.7 566,-454.7 476,-454.7"/>
<text text-anchor="start" x="478.5043" y="-462.4" font-family="Helvetica,sans-Serif" font-size="11.00" fill="#000000">text[2147483647]</text>
<polygon fill="none" stroke="#000000" points="336,-432.7 336,-454.7 476,-454.7 476,-432.7 336,-432.7"/>
<text text-anchor="start" x="356" y="-439.8" font-family="Helvetica,sans-Serif" font-size="11.00" fill="#000000">prioridad</text>
<polygon fill="none" stroke="#000000" points="476,-432.7 476,-454.7 566,-454.7 566,-432.7 476,-432.7"/>
<text text-anchor="start" x="479" y="-440.4" font-family="Helvetica,sans-Serif" font-size="11.00" fill="#000000">int4[10]</text>
<polygon fill="none" stroke="#000000" points="336,-410.7 336,-432.7 476,-432.7 476,-410.7 336,-410.7"/>
<text text-anchor="start" x="356" y="-417.8" font-family="Helvetica,sans-Serif" font-size="11.00" fill="#000000">estado</text>
<polygon fill="none" stroke="#000000" points="476,-410.7 476,-432.7 566,-432.7 566,-410.7 476,-410.7"/>
<text text-anchor="start" x="479" y="-418.4" font-family="Helvetica,sans-Serif" font-size="11.00" fill="#000000">int4[10]</text>
<polygon fill="none" stroke="#000000" points="336,-388.7 336,-410.7 476,-410.7 476,-388.7 336,-388.7"/>
<text text-anchor="start" x="356" y="-395.8" font-family="Helvetica,sans-Serif" font-size="11.00" fill="#000000">tipo</text>
<polygon fill="none" stroke="#000000" points="476,-388.7 476,-410.7 566,-410.7 566,-388.7 476,-388.7"/>
<text text-anchor="start" x="479" y="-396.4" font-family="Helvetica,sans-Serif" font-size="11.00" fill="#000000">int4[10]</text>
<polygon fill="none" stroke="#000000" points="336,-366.7 336,-388.7 476,-388.7 476,-366.7 336,-366.7"/>
<text text-anchor="start" x="356" y="-373.8" font-family="Helvetica,sans-Serif" font-size="11.00" fill="#000000">origen</text>
<polygon fill="none" stroke="#000000" points="476,-366.7 476,-388.7 566,-388.7 566,-366.7 476,-366.7"/>
<text text-anchor="start" x="479" y="-374.4" font-family="Helvetica,sans-Serif" font-size="11.00" fill="#000000">int4[10]</text>
<polygon fill="none" stroke="#000000" points="336,-344.7 336,-366.7 476,-366.7 476,-344.7 336,-344.7"/>
<text text-anchor="start" x="356" y="-351.8" font-family="Helvetica,sans-Serif" font-size="11.00" fill="#000000">solucion</text>
<polygon fill="none" stroke="#000000" points="476,-344.7 476,-366.7 566,-366.7 566,-344.7 476,-344.7"/>
<text text-anchor="start" x="478.5043" y="-352.4" font-family="Helvetica,sans-Serif" font-size="11.00" fill="#000000">text[2147483647]</text>
<polygon fill="none" stroke="#000000" points="336,-322.7 336,-344.7 476,-344.7 476,-322.7 336,-322.7"/>
<image xlink:href="../../images/foreignKeys.png" width="11px" height="12px" preserveAspectRatio="xMinYMin meet" x="341" y="-339.7"/>
<text text-anchor="start" x="356" y="-329.8" font-family="Helvetica,sans-Serif" font-size="11.00" fill="#000000">contacto_id</text>
<polygon fill="none" stroke="#000000" points="476,-322.7 476,-344.7 566,-344.7 566,-322.7 476,-322.7"/>
<text text-anchor="start" x="479" y="-330.4" font-family="Helvetica,sans-Serif" font-size="11.00" fill="#000000">int4[10]</text>
<polygon fill="none" stroke="#000000" points="336,-300.7 336,-322.7 476,-322.7 476,-300.7 336,-300.7"/>
<text text-anchor="start" x="356" y="-307.8" font-family="Helvetica,sans-Serif" font-size="11.00" fill="#000000">fec_insercion</text>
<polygon fill="none" stroke="#000000" points="476,-300.7 476,-322.7 566,-322.7 566,-300.7 476,-300.7"/>
<text text-anchor="start" x="479" y="-308.4" font-family="Helvetica,sans-Serif" font-size="11.00" fill="#000000">timestamp[29,6]</text>
<polygon fill="none" stroke="#000000" points="336,-278.7 336,-300.7 476,-300.7 476,-278.7 336,-278.7"/>
<image xlink:href="../../images/foreignKeys.png" width="11px" height="12px" preserveAspectRatio="xMinYMin meet" x="341" y="-295.7"/>
<text text-anchor="start" x="356" y="-285.8" font-family="Helvetica,sans-Serif" font-size="11.00" fill="#000000">usu_insercion_id</text>
<polygon fill="none" stroke="#000000" points="476,-278.7 476,-300.7 566,-300.7 566,-278.7 476,-278.7"/>
<text text-anchor="start" x="479" y="-286.4" font-family="Helvetica,sans-Serif" font-size="11.00" fill="#000000">int4[10]</text>
<polygon fill="none" stroke="#000000" points="336,-256.7 336,-278.7 476,-278.7 476,-256.7 336,-256.7"/>
<text text-anchor="start" x="356" y="-263.8" font-family="Helvetica,sans-Serif" font-size="11.00" fill="#000000">fec_modificacion</text>
<polygon fill="none" stroke="#000000" points="476,-256.7 476,-278.7 566,-278.7 566,-256.7 476,-256.7"/>
<text text-anchor="start" x="479" y="-264.4" font-family="Helvetica,sans-Serif" font-size="11.00" fill="#000000">timestamp[29,6]</text>
<polygon fill="none" stroke="#000000" points="336,-234.7 336,-256.7 476,-256.7 476,-234.7 336,-234.7"/>
<image xlink:href="../../images/foreignKeys.png" width="11px" height="12px" preserveAspectRatio="xMinYMin meet" x="341" y="-251.7"/>
<text text-anchor="start" x="356" y="-241.8" font-family="Helvetica,sans-Serif" font-size="11.00" fill="#000000">usu_modificacion_id</text>
<polygon fill="none" stroke="#000000" points="476,-234.7 476,-256.7 566,-256.7 566,-234.7 476,-234.7"/>
<text text-anchor="start" x="479" y="-242.4" font-family="Helvetica,sans-Serif" font-size="11.00" fill="#000000">int4[10]</text>
<polygon fill="none" stroke="#000000" points="336,-212.7 336,-234.7 476,-234.7 476,-212.7 336,-212.7"/>
<text text-anchor="start" x="356" y="-219.8" font-family="Helvetica,sans-Serif" font-size="11.00" fill="#000000">fec_eliminacion</text>
<polygon fill="none" stroke="#000000" points="476,-212.7 476,-234.7 566,-234.7 566,-212.7 476,-212.7"/>
<text text-anchor="start" x="479" y="-220.4" font-family="Helvetica,sans-Serif" font-size="11.00" fill="#000000">timestamp[29,6]</text>
<polygon fill="none" stroke="#000000" points="336,-190.7 336,-212.7 476,-212.7 476,-190.7 336,-190.7"/>
<image xlink:href="../../images/foreignKeys.png" width="11px" height="12px" preserveAspectRatio="xMinYMin meet" x="341" y="-207.7"/>
<text text-anchor="start" x="356" y="-197.8" font-family="Helvetica,sans-Serif" font-size="11.00" fill="#000000">usu_eliminacion_id</text>
<polygon fill="none" stroke="#000000" points="476,-190.7 476,-212.7 566,-212.7 566,-190.7 476,-190.7"/>
<text text-anchor="start" x="479" y="-198.4" font-family="Helvetica,sans-Serif" font-size="11.00" fill="#000000">int4[10]</text>
<polygon fill="none" stroke="#000000" points="336,-168.7 336,-190.7 476,-190.7 476,-168.7 336,-168.7"/>
<image xlink:href="../../images/foreignKeys.png" width="11px" height="12px" preserveAspectRatio="xMinYMin meet" x="341" y="-185.7"/>
<text text-anchor="start" x="356" y="-175.8" font-family="Helvetica,sans-Serif" font-size="11.00" fill="#000000">usu_asignado_id</text>
<polygon fill="none" stroke="#000000" points="476,-168.7 476,-190.7 566,-190.7 566,-168.7 476,-168.7"/>
<text text-anchor="start" x="479" y="-176.4" font-family="Helvetica,sans-Serif" font-size="11.00" fill="#000000">int4[10]</text>
<polygon fill="#ffffff" stroke="transparent" points="336,-149.7 336,-168.7 397,-168.7 397,-149.7 336,-149.7"/>
<polygon fill="none" stroke="#000000" points="336,-149.7 336,-168.7 397,-168.7 397,-149.7 336,-149.7"/>
<text text-anchor="start" x="339" y="-155.8" font-family="Helvetica,sans-Serif" font-size="11.00" fill="#000000">&lt; 5</text>
<polygon fill="#ffffff" stroke="transparent" points="397,-149.7 397,-168.7 476,-168.7 476,-149.7 397,-149.7"/>
<polygon fill="none" stroke="#000000" points="397,-149.7 397,-168.7 476,-168.7 476,-149.7 397,-149.7"/>
<text text-anchor="start" x="440.6105" y="-155.8" font-family="Helvetica,sans-Serif" font-size="11.00" fill="#000000">0 rows</text>
<polygon fill="#ffffff" stroke="transparent" points="476,-149.7 476,-168.7 566,-168.7 566,-149.7 476,-149.7"/>
<polygon fill="none" stroke="#000000" points="476,-149.7 476,-168.7 566,-168.7 566,-149.7 476,-149.7"/>
<text text-anchor="start" x="547.4053" y="-155.8" font-family="Helvetica,sans-Serif" font-size="11.00" fill="#000000">0 &gt;</text>
<polygon fill="none" stroke="#000000" stroke-width="2" points="335,-148.7 335,-544.7 567,-544.7 567,-148.7 335,-148.7"/>
</a>
</g>
</g>
<!-- casos&#45;&gt;usuarios -->
<g id="edge10" class="edge">
<title>casos:w&#45;&gt;usuarios:e</title>
<path fill="none" stroke="#000000" d="M322.1467,-183.7381C259.3005,-226.1117 371.0184,-587.7 285,-587.7"/>
<polygon fill="#000000" stroke="#000000" points="328.3196,-181.9388 337.0075,-183.1562 332.1598,-180.8194 336,-179.7 336,-179.7 336,-179.7 332.1598,-180.8194 334.9925,-176.2438 328.3196,-181.9388 328.3196,-181.9388"/>
<ellipse fill="none" stroke="#000000" cx="325.2475" cy="-182.8343" rx="3.2" ry="3.2"/>
</g>
<!-- casos&#45;&gt;usuarios -->
<g id="edge11" class="edge">
<title>casos:w&#45;&gt;usuarios:e</title>
<path fill="none" stroke="#000000" d="M322.1192,-206.035C263.9178,-248.4422 366.1155,-587.7 285,-587.7"/>
<polygon fill="#000000" stroke="#000000" points="328.3637,-204.0848 337.0732,-205.1363 332.1819,-202.8924 336,-201.7 336,-201.7 336,-201.7 332.1819,-202.8924 334.9268,-198.2637 328.3637,-204.0848 328.3637,-204.0848"/>
<ellipse fill="none" stroke="#000000" cx="325.3092" cy="-205.0388" rx="3.2" ry="3.2"/>
</g>
<!-- casos&#45;&gt;usuarios -->
<g id="edge12" class="edge">
<title>casos:w&#45;&gt;usuarios:e</title>
<path fill="none" stroke="#000000" d="M322.6015,-295.1267C281.2018,-335.5156 346.805,-587.7 285,-587.7"/>
<polygon fill="#000000" stroke="#000000" points="328.5851,-292.7033 337.3515,-293.0367 332.2926,-291.2016 336,-289.7 336,-289.7 336,-289.7 332.2926,-291.2016 334.6485,-286.3633 328.5851,-292.7033 328.5851,-292.7033"/>
<ellipse fill="none" stroke="#000000" cx="325.6191" cy="-293.9046" rx="3.2" ry="3.2"/>
</g>
<!-- casos&#45;&gt;usuarios -->
<g id="edge13" class="edge">
<title>casos:w&#45;&gt;usuarios:e</title>
<path fill="none" stroke="#000000" d="M322.3292,-250.5346C272.7116,-292.103 356.4375,-587.7 285,-587.7"/>
<polygon fill="#000000" stroke="#000000" points="328.4577,-248.3673 337.2003,-249.094 332.2289,-247.0337 336,-245.7 336,-245.7 336,-245.7 332.2289,-247.0337 334.7997,-242.306 328.4577,-248.3673 328.4577,-248.3673"/>
<ellipse fill="none" stroke="#000000" cx="325.4408" cy="-249.4343" rx="3.2" ry="3.2"/>
</g>
<!-- contactos -->
<g id="node5" class="node">
<title>contactos</title>
<g id="a_node5"><a xlink:href="../../tables/contactos.html" xlink:title="contactos" target="_top">
<polygon fill="#ffffff" stroke="transparent" points="170,-176.7 170,-262.7 260,-262.7 260,-176.7 170,-176.7"/>
<polygon fill="#f5f5f5" stroke="transparent" points="170,-239.7 170,-262.7 260,-262.7 260,-239.7 170,-239.7"/>
<polygon fill="none" stroke="#000000" points="170,-239.7 170,-262.7 260,-262.7 260,-239.7 170,-239.7"/>
<text text-anchor="start" x="174.9633" y="-248.8" font-family="Helvetica,sans-Serif" font-weight="bold" font-size="11.00" fill="#000000">contactos</text>
<text text-anchor="start" x="225.5219" y="-247.8" font-family="Helvetica,sans-Serif" font-size="11.00" fill="#000000">[table]</text>
<polygon fill="none" stroke="#000000" points="170,-217.7 170,-239.7 260,-239.7 260,-217.7 170,-217.7"/>
<image xlink:href="../../images/primaryKeys.png" width="11px" height="12px" preserveAspectRatio="xMinYMin meet" x="175" y="-234.7"/>
<text text-anchor="start" x="191" y="-224.8" font-family="Helvetica,sans-Serif" font-size="11.00" fill="#000000">contacto_id</text>
<polygon fill="none" stroke="#000000" points="170,-195.7 170,-217.7 260,-217.7 260,-195.7 170,-195.7"/>
<image xlink:href="../../images/foreignKeys.png" width="11px" height="12px" preserveAspectRatio="xMinYMin meet" x="175" y="-212.7"/>
<text text-anchor="start" x="191" y="-202.8" font-family="Helvetica,sans-Serif" font-size="11.00" fill="#000000">persona_id</text>
<polygon fill="#ffffff" stroke="transparent" points="170,-176.7 170,-195.7 196,-195.7 196,-176.7 170,-176.7"/>
<polygon fill="none" stroke="#000000" points="170,-176.7 170,-195.7 196,-195.7 196,-176.7 170,-176.7"/>
<text text-anchor="start" x="173" y="-182.8" font-family="Helvetica,sans-Serif" font-size="11.00" fill="#000000">&lt; 1</text>
<polygon fill="#ffffff" stroke="transparent" points="196,-176.7 196,-195.7 236,-195.7 236,-176.7 196,-176.7"/>
<polygon fill="none" stroke="#000000" points="196,-176.7 196,-195.7 236,-195.7 236,-176.7 196,-176.7"/>
<text text-anchor="start" x="200.6105" y="-182.8" font-family="Helvetica,sans-Serif" font-size="11.00" fill="#000000">0 rows</text>
<polygon fill="#ffffff" stroke="transparent" points="236,-176.7 236,-195.7 260,-195.7 260,-176.7 236,-176.7"/>
<polygon fill="none" stroke="#000000" points="236,-176.7 236,-195.7 260,-195.7 260,-176.7 236,-176.7"/>
<text text-anchor="start" x="241.4053" y="-182.8" font-family="Helvetica,sans-Serif" font-size="11.00" fill="#000000">3 &gt;</text>
</a>
</g>
</g>
<!-- casos&#45;&gt;contactos -->
<g id="edge9" class="edge">
<title>casos:w&#45;&gt;contactos:e</title>
<path fill="none" stroke="#000000" d="M321.7124,-330.8915C285.1278,-314.1935 311.9825,-228.7 260,-228.7"/>
<polygon fill="#000000" stroke="#000000" points="328.1502,-332.1569 335.3056,-337.2324 332.0751,-332.9285 336,-333.7 336,-333.7 336,-333.7 332.0751,-332.9285 336.6944,-330.1676 328.1502,-332.1569 328.1502,-332.1569"/>
<ellipse fill="none" stroke="#000000" cx="325.0103" cy="-331.5397" rx="3.2" ry="3.2"/>
</g>
<!-- contactos&#45;&gt;personas -->
<g id="edge14" class="edge">
<title>contactos:w&#45;&gt;personas:e</title>
<path fill="none" stroke="#000000" d="M155.5522,-208.835C95.8037,-229.0306 176.5373,-385.7 96,-385.7"/>
<polygon fill="#000000" stroke="#000000" points="162.0859,-207.8695 170.5263,-210.2613 166.043,-207.2848 170,-206.7 170,-206.7 170,-206.7 166.043,-207.2848 169.4737,-203.1387 162.0859,-207.8695 162.0859,-207.8695"/>
<ellipse fill="none" stroke="#000000" cx="158.9203" cy="-208.3373" rx="3.2" ry="3.2"/>
</g>
<!-- contactos_oportunidades -->
<g id="node7" class="node">
<title>contactos_oportunidades</title>
<g id="a_node7"><a xlink:href="../../tables/contactos_oportunidades.html" xlink:title="contactos_oportunidades" target="_top">
<polygon fill="#ffffff" stroke="transparent" points="778,-328.2 778,-389.2 943,-389.2 943,-328.2 778,-328.2"/>
<polygon fill="#f5f5f5" stroke="transparent" points="778.5,-365.7 778.5,-388.7 943.5,-388.7 943.5,-365.7 778.5,-365.7"/>
<polygon fill="none" stroke="#000000" points="778.5,-365.7 778.5,-388.7 943.5,-388.7 943.5,-365.7 778.5,-365.7"/>
<text text-anchor="start" x="783.059" y="-374.8" font-family="Helvetica,sans-Serif" font-weight="bold" font-size="11.00" fill="#000000">contactos_oportunidades</text>
<text text-anchor="start" x="909.0219" y="-373.8" font-family="Helvetica,sans-Serif" font-size="11.00" fill="#000000">[table]</text>
<polygon fill="none" stroke="#000000" points="778.5,-346.7 778.5,-365.7 943.5,-365.7 943.5,-346.7 778.5,-346.7"/>
<text text-anchor="start" x="781.5" y="-352.8" font-family="Helvetica,sans-Serif" font-size="11.00" fill="#000000">...</text>
<polygon fill="#ffffff" stroke="transparent" points="778.5,-327.7 778.5,-346.7 846.5,-346.7 846.5,-327.7 778.5,-327.7"/>
<polygon fill="none" stroke="#000000" points="778.5,-327.7 778.5,-346.7 846.5,-346.7 846.5,-327.7 778.5,-327.7"/>
<text text-anchor="start" x="781.5" y="-333.8" font-family="Helvetica,sans-Serif" font-size="11.00" fill="#000000">&lt; 2</text>
<polygon fill="#ffffff" stroke="transparent" points="846.5,-327.7 846.5,-346.7 907.5,-346.7 907.5,-327.7 846.5,-327.7"/>
<polygon fill="none" stroke="#000000" points="846.5,-327.7 846.5,-346.7 907.5,-346.7 907.5,-327.7 846.5,-327.7"/>
<text text-anchor="start" x="872.1105" y="-333.8" font-family="Helvetica,sans-Serif" font-size="11.00" fill="#000000">0 rows</text>
<polygon fill="#ffffff" stroke="transparent" points="907.5,-327.7 907.5,-346.7 943.5,-346.7 943.5,-327.7 907.5,-327.7"/>
<polygon fill="none" stroke="#000000" points="907.5,-327.7 907.5,-346.7 943.5,-346.7 943.5,-327.7 907.5,-327.7"/>
<text text-anchor="start" x="934.3862" y="-333.8" font-family="Helvetica,sans-Serif" font-size="11.00" fill="#000000"> &#160;</text>
</a>
</g>
</g>
<!-- contactos_oportunidades&#45;&gt;contactos -->
<g id="edge15" class="edge">
<title>contactos_oportunidades:w&#45;&gt;contactos:e</title>
<path fill="none" stroke="#000000" d="M763.7863,-354.9573C649.6953,-342.9125 692.7148,-187.7421 576,-136.7 525.0991,-114.4398 375.4243,-111.3295 326,-136.7 281.2313,-159.6807 310.3224,-228.7 260,-228.7"/>
<polygon fill="#000000" stroke="#000000" points="770.5102,-355.2966 778.3185,-359.2954 774.5051,-355.4983 778.5,-355.7 778.5,-355.7 778.5,-355.7 774.5051,-355.4983 778.6815,-352.1046 770.5102,-355.2966 770.5102,-355.2966"/>
<ellipse fill="none" stroke="#000000" cx="767.3142" cy="-355.1353" rx="3.2" ry="3.2"/>
</g>
<!-- oportunidades -->
<g id="node8" class="node">
<title>oportunidades</title>
<g id="a_node8"><a xlink:href="../../tables/oportunidades.html" xlink:title="oportunidades" target="_top">
<polygon fill="#ffffff" stroke="transparent" points="617,-560.2 617,-621.2 729,-621.2 729,-560.2 617,-560.2"/>
<polygon fill="#f5f5f5" stroke="transparent" points="617,-597.7 617,-620.7 729,-620.7 729,-597.7 617,-597.7"/>
<polygon fill="none" stroke="#000000" points="617,-597.7 617,-620.7 729,-620.7 729,-597.7 617,-597.7"/>
<text text-anchor="start" x="621.6531" y="-606.8" font-family="Helvetica,sans-Serif" font-weight="bold" font-size="11.00" fill="#000000">oportunidades</text>
<text text-anchor="start" x="694.5219" y="-605.8" font-family="Helvetica,sans-Serif" font-size="11.00" fill="#000000">[table]</text>
<polygon fill="none" stroke="#000000" points="617,-578.7 617,-597.7 729,-597.7 729,-578.7 617,-578.7"/>
<text text-anchor="start" x="620" y="-584.8" font-family="Helvetica,sans-Serif" font-size="11.00" fill="#000000">...</text>
<polygon fill="#ffffff" stroke="transparent" points="617,-559.7 617,-578.7 654,-578.7 654,-559.7 617,-559.7"/>
<polygon fill="none" stroke="#000000" points="617,-559.7 617,-578.7 654,-578.7 654,-559.7 617,-559.7"/>
<text text-anchor="start" x="620" y="-565.8" font-family="Helvetica,sans-Serif" font-size="11.00" fill="#000000">&lt; 5</text>
<polygon fill="#ffffff" stroke="transparent" points="654,-559.7 654,-578.7 700,-578.7 700,-559.7 654,-559.7"/>
<polygon fill="none" stroke="#000000" points="654,-559.7 654,-578.7 700,-578.7 700,-559.7 654,-559.7"/>
<text text-anchor="start" x="664.6105" y="-565.8" font-family="Helvetica,sans-Serif" font-size="11.00" fill="#000000">0 rows</text>
<polygon fill="#ffffff" stroke="transparent" points="700,-559.7 700,-578.7 729,-578.7 729,-559.7 700,-559.7"/>
<polygon fill="none" stroke="#000000" points="700,-559.7 700,-578.7 729,-578.7 729,-559.7 700,-559.7"/>
<text text-anchor="start" x="710.4053" y="-565.8" font-family="Helvetica,sans-Serif" font-size="11.00" fill="#000000">1 &gt;</text>
</a>
</g>
</g>
<!-- contactos_oportunidades&#45;&gt;oportunidades -->
<g id="edge16" class="edge">
<title>contactos_oportunidades:w&#45;&gt;oportunidades:e</title>
<path fill="none" stroke="#000000" d="M763.9679,-357.5675C689.3449,-379.5236 828.8721,-587.7 729,-587.7"/>
<polygon fill="#000000" stroke="#000000" points="770.5652,-356.7197 778.9589,-359.2706 774.5326,-356.2099 778.5,-355.7 778.5,-355.7 778.5,-355.7 774.5326,-356.2099 778.0411,-352.1294 770.5652,-356.7197 770.5652,-356.7197"/>
<ellipse fill="none" stroke="#000000" cx="767.3913" cy="-357.1276" rx="3.2" ry="3.2"/>
</g>
<!-- oportunidades&#45;&gt;usuarios -->
<g id="edge19" class="edge">
<title>oportunidades:w&#45;&gt;usuarios:e</title>
<path fill="none" stroke="#000000" d="M602.2488,-587.7C466.7935,-587.7 427.5122,-587.7 285,-587.7"/>
<polygon fill="#000000" stroke="#000000" points="609,-587.7001 617,-591.3 613,-587.7 617,-587.7 617,-587.7 617,-587.7 613,-587.7 617,-584.1 609,-587.7001 609,-587.7001"/>
<ellipse fill="none" stroke="#000000" cx="605.8" cy="-587.7001" rx="3.2" ry="3.2"/>
</g>
<!-- oportunidades&#45;&gt;usuarios -->
<g id="edge20" class="edge">
<title>oportunidades:w&#45;&gt;usuarios:e</title>
<path fill="none" stroke="#000000" d="M602.2488,-586.4126C466.7935,-574.7152 427.5122,-575.1443 285,-587.7"/>
<polygon fill="#000000" stroke="#000000" points="609.0303,-587.0044 616.687,-591.2864 613.0151,-587.3522 617,-587.7 617,-587.7 617,-587.7 613.0151,-587.3522 617.313,-584.1136 609.0303,-587.0044 609.0303,-587.0044"/>
<ellipse fill="none" stroke="#000000" cx="605.8424" cy="-586.7261" rx="3.2" ry="3.2"/>
</g>
<!-- oportunidades&#45;&gt;usuarios -->
<g id="edge21" class="edge">
<title>oportunidades:w&#45;&gt;usuarios:e</title>
<path fill="none" stroke="#000000" d="M602.2488,-587.7C466.7935,-587.7 427.5122,-587.7 285,-587.7"/>
<polygon fill="#000000" stroke="#000000" points="609,-587.7001 617,-591.3 613,-587.7 617,-587.7 617,-587.7 617,-587.7 613,-587.7 617,-584.1 609,-587.7001 609,-587.7001"/>
<ellipse fill="none" stroke="#000000" cx="605.8" cy="-587.7001" rx="3.2" ry="3.2"/>
</g>
<!-- oportunidades&#45;&gt;usuarios -->
<g id="edge22" class="edge">
<title>oportunidades:w&#45;&gt;usuarios:e</title>
<path fill="none" stroke="#000000" d="M602.2488,-588.9874C466.7935,-600.6848 427.5122,-600.2557 285,-587.7"/>
<polygon fill="#000000" stroke="#000000" points="609.0303,-588.3956 617.313,-591.2864 613.0151,-588.0478 617,-587.7 617,-587.7 617,-587.7 613.0151,-588.0478 616.687,-584.1136 609.0303,-588.3956 609.0303,-588.3956"/>
<ellipse fill="none" stroke="#000000" cx="605.8424" cy="-588.6739" rx="3.2" ry="3.2"/>
</g>
<!-- oportunidades&#45;&gt;campanas -->
<g id="edge18" class="edge">
<title>oportunidades:w&#45;&gt;campanas:e</title>
<path fill="none" stroke="#000000" d="M602.6919,-591.1425C593.4029,-596.5983 589.5495,-607.4568 576,-615.7 542.363,-636.164 537.3729,-657.7 498,-657.7"/>
<polygon fill="#000000" stroke="#000000" points="609.222,-589.5714 617.8421,-591.2001 613.111,-588.6357 617,-587.7 617,-587.7 617,-587.7 613.111,-588.6357 616.1579,-584.1999 609.222,-589.5714 609.222,-589.5714"/>
<ellipse fill="none" stroke="#000000" cx="606.1107" cy="-590.32" rx="3.2" ry="3.2"/>
</g>
<!-- contactos_organizaciones -->
<g id="node9" class="node">
<title>contactos_organizaciones</title>
<g id="a_node9"><a xlink:href="../../tables/contactos_organizaciones.html" xlink:title="contactos_organizaciones" target="_top">
<polygon fill="#ffffff" stroke="transparent" points="366,-38.2 366,-99.2 536,-99.2 536,-38.2 366,-38.2"/>
<polygon fill="#f5f5f5" stroke="transparent" points="366,-75.7 366,-98.7 536,-98.7 536,-75.7 366,-75.7"/>
<polygon fill="none" stroke="#000000" points="366,-75.7 366,-98.7 536,-98.7 536,-75.7 366,-75.7"/>
<text text-anchor="start" x="370.9244" y="-84.8" font-family="Helvetica,sans-Serif" font-weight="bold" font-size="11.00" fill="#000000">contactos_organizaciones</text>
<text text-anchor="start" x="501.5219" y="-83.8" font-family="Helvetica,sans-Serif" font-size="11.00" fill="#000000">[table]</text>
<polygon fill="none" stroke="#000000" points="366,-56.7 366,-75.7 536,-75.7 536,-56.7 366,-56.7"/>
<text text-anchor="start" x="369" y="-62.8" font-family="Helvetica,sans-Serif" font-size="11.00" fill="#000000">...</text>
<polygon fill="#ffffff" stroke="transparent" points="366,-37.7 366,-56.7 436,-56.7 436,-37.7 366,-37.7"/>
<polygon fill="none" stroke="#000000" points="366,-37.7 366,-56.7 436,-56.7 436,-37.7 366,-37.7"/>
<text text-anchor="start" x="369" y="-43.8" font-family="Helvetica,sans-Serif" font-size="11.00" fill="#000000">&lt; 2</text>
<polygon fill="#ffffff" stroke="transparent" points="436,-37.7 436,-56.7 499,-56.7 499,-37.7 436,-37.7"/>
<polygon fill="none" stroke="#000000" points="436,-37.7 436,-56.7 499,-56.7 499,-37.7 436,-37.7"/>
<text text-anchor="start" x="463.6105" y="-43.8" font-family="Helvetica,sans-Serif" font-size="11.00" fill="#000000">0 rows</text>
<polygon fill="#ffffff" stroke="transparent" points="499,-37.7 499,-56.7 536,-56.7 536,-37.7 499,-37.7"/>
<polygon fill="none" stroke="#000000" points="499,-37.7 499,-56.7 536,-56.7 536,-37.7 499,-37.7"/>
<text text-anchor="start" x="526.8862" y="-43.8" font-family="Helvetica,sans-Serif" font-size="11.00" fill="#000000"> &#160;</text>
</a>
</g>
</g>
<!-- contactos_organizaciones&#45;&gt;contactos -->
<g id="edge17" class="edge">
<title>contactos_organizaciones:w&#45;&gt;contactos:e</title>
<path fill="none" stroke="#000000" d="M351.5181,-67.5306C287.3397,-85.4383 341.0146,-228.7 260,-228.7"/>
<polygon fill="#000000" stroke="#000000" points="358.0632,-66.7033 366.4515,-69.2716 362.0316,-66.2016 366,-65.7 366,-65.7 366,-65.7 362.0316,-66.2016 365.5485,-62.1284 358.0632,-66.7033 358.0632,-66.7033"/>
<ellipse fill="none" stroke="#000000" cx="354.8884" cy="-67.1046" rx="3.2" ry="3.2"/>
</g>
</g>
</svg>
