<?xml version="1.0" encoding="UTF-8" standalone="no"?>
<!DOCTYPE svg PUBLIC "-//W3C//DTD SVG 1.1//EN"
 "http://www.w3.org/Graphics/SVG/1.1/DTD/svg11.dtd">
<!-- Generated by graphviz version 2.40.1 (20161225.0304)
 -->
<!-- Title: twoDegreesRelationshipsDiagram Pages: 1 -->
<svg width="507pt" height="711pt"
 viewBox="0.00 0.00 507.00 710.70" xmlns="http://www.w3.org/2000/svg" xmlns:xlink="http://www.w3.org/1999/xlink">
<g id="graph0" class="graph" transform="scale(1 1) rotate(0) translate(4 706.7)">
<title>twoDegreesRelationshipsDiagram</title>
<polygon fill="#ffffff" stroke="transparent" points="-4,4 -4,-706.7 503,-706.7 503,4 -4,4"/>
<text text-anchor="middle" x="72.4936" y="-7.3" font-family="Helvetica,sans-Serif" font-size="11.00" fill="#000000">Generated by SchemaSpy</text>
<!-- casos -->
<g id="node1" class="node">
<title>casos</title>
<g id="a_node1"><a xlink:href="../../tables/casos.html" xlink:title="casos" target="_top">
<polygon fill="#ffffff" stroke="transparent" points="180,-366.7 180,-698.7 491,-698.7 491,-366.7 180,-366.7"/>
<polygon fill="#f5f5f5" stroke="transparent" points="182.5,-673.7 182.5,-696.7 489.5,-696.7 489.5,-673.7 182.5,-673.7"/>
<polygon fill="none" stroke="#000000" points="182.5,-673.7 182.5,-696.7 489.5,-696.7 489.5,-673.7 182.5,-673.7"/>
<text text-anchor="start" x="187.5" y="-682.8" font-family="Helvetica,sans-Serif" font-weight="bold" font-size="11.00" fill="#000000">casos</text>
<text text-anchor="start" x="454.5437" y="-681.8" font-family="Helvetica,sans-Serif" font-size="11.00" fill="#000000">[table]</text>
<polygon fill="none" stroke="#000000" points="182.5,-651.7 182.5,-673.7 305.5,-673.7 305.5,-651.7 182.5,-651.7"/>
<image xlink:href="../../images/primaryKeys.png" width="11px" height="12px" preserveAspectRatio="xMinYMin meet" x="187.5" y="-668.7"/>
<text text-anchor="start" x="202.5" y="-658.8" font-family="Helvetica,sans-Serif" font-size="11.00" fill="#000000">caso_id</text>
<polygon fill="none" stroke="#000000" points="305.5,-651.7 305.5,-673.7 489.5,-673.7 489.5,-651.7 305.5,-651.7"/>
<text text-anchor="start" x="308.5" y="-659.4" font-family="Helvetica,sans-Serif" font-size="11.00" fill="#000000">serial[10]</text>
<polygon fill="none" stroke="#000000" points="182.5,-629.7 182.5,-651.7 305.5,-651.7 305.5,-629.7 182.5,-629.7"/>
<text text-anchor="start" x="202.5" y="-636.8" font-family="Helvetica,sans-Serif" font-size="11.00" fill="#000000">asunto</text>
<polygon fill="none" stroke="#000000" points="305.5,-629.7 305.5,-651.7 489.5,-651.7 489.5,-629.7 305.5,-629.7"/>
<text text-anchor="start" x="308.5" y="-637.4" font-family="Helvetica,sans-Serif" font-size="11.00" fill="#000000">varchar[255]</text>
<polygon fill="none" stroke="#000000" points="182.5,-607.7 182.5,-629.7 305.5,-629.7 305.5,-607.7 182.5,-607.7"/>
<text text-anchor="start" x="202.5" y="-614.8" font-family="Helvetica,sans-Serif" font-size="11.00" fill="#000000">descripcion</text>
<polygon fill="none" stroke="#000000" points="305.5,-607.7 305.5,-629.7 489.5,-629.7 489.5,-607.7 305.5,-607.7"/>
<text text-anchor="start" x="308.5" y="-615.4" font-family="Helvetica,sans-Serif" font-size="11.00" fill="#000000">text[2147483647]</text>
<polygon fill="none" stroke="#000000" points="182.5,-585.7 182.5,-607.7 305.5,-607.7 305.5,-585.7 182.5,-585.7"/>
<text text-anchor="start" x="202.5" y="-592.8" font-family="Helvetica,sans-Serif" font-size="11.00" fill="#000000">prioridad</text>
<polygon fill="none" stroke="#000000" points="305.5,-585.7 305.5,-607.7 489.5,-607.7 489.5,-585.7 305.5,-585.7"/>
<text text-anchor="start" x="308.2455" y="-593.4" font-family="Helvetica,sans-Serif" font-size="11.00" fill="#000000">enum_casos_prioridad[2147483647]</text>
<polygon fill="none" stroke="#000000" points="182.5,-563.7 182.5,-585.7 305.5,-585.7 305.5,-563.7 182.5,-563.7"/>
<text text-anchor="start" x="202.5" y="-570.8" font-family="Helvetica,sans-Serif" font-size="11.00" fill="#000000">estado</text>
<polygon fill="none" stroke="#000000" points="305.5,-563.7 305.5,-585.7 489.5,-585.7 489.5,-563.7 305.5,-563.7"/>
<text text-anchor="start" x="308.5" y="-571.4" font-family="Helvetica,sans-Serif" font-size="11.00" fill="#000000">enum_casos_estado[2147483647]</text>
<polygon fill="none" stroke="#000000" points="182.5,-541.7 182.5,-563.7 305.5,-563.7 305.5,-541.7 182.5,-541.7"/>
<text text-anchor="start" x="202.5" y="-548.8" font-family="Helvetica,sans-Serif" font-size="11.00" fill="#000000">tipo</text>
<polygon fill="none" stroke="#000000" points="305.5,-541.7 305.5,-563.7 489.5,-563.7 489.5,-541.7 305.5,-541.7"/>
<text text-anchor="start" x="308.5" y="-549.4" font-family="Helvetica,sans-Serif" font-size="11.00" fill="#000000">enum_casos_tipo[2147483647]</text>
<polygon fill="none" stroke="#000000" points="182.5,-519.7 182.5,-541.7 305.5,-541.7 305.5,-519.7 182.5,-519.7"/>
<text text-anchor="start" x="202.5" y="-526.8" font-family="Helvetica,sans-Serif" font-size="11.00" fill="#000000">origen</text>
<polygon fill="none" stroke="#000000" points="305.5,-519.7 305.5,-541.7 489.5,-541.7 489.5,-519.7 305.5,-519.7"/>
<text text-anchor="start" x="308.5" y="-527.4" font-family="Helvetica,sans-Serif" font-size="11.00" fill="#000000">enum_casos_origen[2147483647]</text>
<polygon fill="none" stroke="#000000" points="182.5,-497.7 182.5,-519.7 305.5,-519.7 305.5,-497.7 182.5,-497.7"/>
<text text-anchor="start" x="202.5" y="-504.8" font-family="Helvetica,sans-Serif" font-size="11.00" fill="#000000">solucion</text>
<polygon fill="none" stroke="#000000" points="305.5,-497.7 305.5,-519.7 489.5,-519.7 489.5,-497.7 305.5,-497.7"/>
<text text-anchor="start" x="308.5" y="-505.4" font-family="Helvetica,sans-Serif" font-size="11.00" fill="#000000">varchar[255]</text>
<polygon fill="none" stroke="#000000" points="182.5,-475.7 182.5,-497.7 305.5,-497.7 305.5,-475.7 182.5,-475.7"/>
<image xlink:href="../../images/foreignKeys.png" width="11px" height="12px" preserveAspectRatio="xMinYMin meet" x="187.5" y="-492.7"/>
<text text-anchor="start" x="202.5" y="-482.8" font-family="Helvetica,sans-Serif" font-size="11.00" fill="#000000">usu_asignado_id</text>
<polygon fill="none" stroke="#000000" points="305.5,-475.7 305.5,-497.7 489.5,-497.7 489.5,-475.7 305.5,-475.7"/>
<text text-anchor="start" x="308.5" y="-483.4" font-family="Helvetica,sans-Serif" font-size="11.00" fill="#000000">int4[10]</text>
<polygon fill="none" stroke="#000000" points="182.5,-453.7 182.5,-475.7 305.5,-475.7 305.5,-453.7 182.5,-453.7"/>
<text text-anchor="start" x="202.5" y="-460.8" font-family="Helvetica,sans-Serif" font-size="11.00" fill="#000000">usu_insercion</text>
<polygon fill="none" stroke="#000000" points="305.5,-453.7 305.5,-475.7 489.5,-475.7 489.5,-453.7 305.5,-453.7"/>
<text text-anchor="start" x="308.5" y="-461.4" font-family="Helvetica,sans-Serif" font-size="11.00" fill="#000000">varchar[20]</text>
<polygon fill="none" stroke="#000000" points="182.5,-431.7 182.5,-453.7 305.5,-453.7 305.5,-431.7 182.5,-431.7"/>
<text text-anchor="start" x="202.5" y="-438.8" font-family="Helvetica,sans-Serif" font-size="11.00" fill="#000000">fec_insercion</text>
<polygon fill="none" stroke="#000000" points="305.5,-431.7 305.5,-453.7 489.5,-453.7 489.5,-431.7 305.5,-431.7"/>
<text text-anchor="start" x="308.5" y="-439.4" font-family="Helvetica,sans-Serif" font-size="11.00" fill="#000000">timestamptz[35,6]</text>
<polygon fill="none" stroke="#000000" points="182.5,-409.7 182.5,-431.7 305.5,-431.7 305.5,-409.7 182.5,-409.7"/>
<text text-anchor="start" x="202.5" y="-416.8" font-family="Helvetica,sans-Serif" font-size="11.00" fill="#000000">fec_modificacion</text>
<polygon fill="none" stroke="#000000" points="305.5,-409.7 305.5,-431.7 489.5,-431.7 489.5,-409.7 305.5,-409.7"/>
<text text-anchor="start" x="308.5" y="-417.4" font-family="Helvetica,sans-Serif" font-size="11.00" fill="#000000">timestamptz[35,6]</text>
<polygon fill="none" stroke="#000000" points="182.5,-387.7 182.5,-409.7 305.5,-409.7 305.5,-387.7 182.5,-387.7"/>
<text text-anchor="start" x="202.5" y="-394.8" font-family="Helvetica,sans-Serif" font-size="11.00" fill="#000000">usu_modificacion</text>
<polygon fill="none" stroke="#000000" points="305.5,-387.7 305.5,-409.7 489.5,-409.7 489.5,-387.7 305.5,-387.7"/>
<text text-anchor="start" x="308.5" y="-395.4" font-family="Helvetica,sans-Serif" font-size="11.00" fill="#000000">varchar[20]</text>
<polygon fill="#ffffff" stroke="transparent" points="182.5,-368.7 182.5,-387.7 238.5,-387.7 238.5,-368.7 182.5,-368.7"/>
<polygon fill="none" stroke="#000000" points="182.5,-368.7 182.5,-387.7 238.5,-387.7 238.5,-368.7 182.5,-368.7"/>
<text text-anchor="start" x="185.5" y="-374.8" font-family="Helvetica,sans-Serif" font-size="11.00" fill="#000000">&lt; 1</text>
<polygon fill="#ffffff" stroke="transparent" points="238.5,-368.7 238.5,-387.7 305.5,-387.7 305.5,-368.7 238.5,-368.7"/>
<polygon fill="none" stroke="#000000" points="238.5,-368.7 238.5,-387.7 305.5,-387.7 305.5,-368.7 238.5,-368.7"/>
<text text-anchor="start" x="275.6105" y="-374.8" font-family="Helvetica,sans-Serif" font-size="11.00" fill="#000000">1 row</text>
<polygon fill="#ffffff" stroke="transparent" points="305.5,-368.7 305.5,-387.7 489.5,-387.7 489.5,-368.7 305.5,-368.7"/>
<polygon fill="none" stroke="#000000" points="305.5,-368.7 305.5,-387.7 489.5,-387.7 489.5,-368.7 305.5,-368.7"/>
<text text-anchor="start" x="470.9053" y="-374.8" font-family="Helvetica,sans-Serif" font-size="11.00" fill="#000000">0 &gt;</text>
<polygon fill="none" stroke="#000000" stroke-width="2" points="181,-367.7 181,-697.7 490,-697.7 490,-367.7 181,-367.7"/>
</a>
</g>
</g>
<!-- usuarios -->
<g id="node2" class="node">
<title>usuarios</title>
<g id="a_node2"><a xlink:href="../../tables/usuarios.html" xlink:title="usuarios" target="_top">
<polygon fill="#ffffff" stroke="transparent" points="8,-159.2 8,-264.2 131,-264.2 131,-159.2 8,-159.2"/>
<polygon fill="#f5f5f5" stroke="transparent" points="8.5,-240.7 8.5,-263.7 131.5,-263.7 131.5,-240.7 8.5,-240.7"/>
<polygon fill="none" stroke="#000000" points="8.5,-240.7 8.5,-263.7 131.5,-263.7 131.5,-240.7 8.5,-240.7"/>
<text text-anchor="start" x="13.5" y="-249.8" font-family="Helvetica,sans-Serif" font-weight="bold" font-size="11.00" fill="#000000">usuarios</text>
<text text-anchor="start" x="96.5437" y="-248.8" font-family="Helvetica,sans-Serif" font-size="11.00" fill="#000000">[table]</text>
<polygon fill="none" stroke="#000000" points="8.5,-218.7 8.5,-240.7 131.5,-240.7 131.5,-218.7 8.5,-218.7"/>
<image xlink:href="../../images/primaryKeys.png" width="11px" height="12px" preserveAspectRatio="xMinYMin meet" x="13.5" y="-235.7"/>
<text text-anchor="start" x="28.5" y="-225.8" font-family="Helvetica,sans-Serif" font-size="11.00" fill="#000000">usuario_id</text>
<polygon fill="#ffffff" stroke="transparent" points="8.5,-196.7 8.5,-218.7 131.5,-218.7 131.5,-196.7 8.5,-196.7"/>
<polygon fill="none" stroke="#000000" points="8.5,-196.7 8.5,-218.7 131.5,-218.7 131.5,-196.7 8.5,-196.7"/>
<text text-anchor="start" x="28.5" y="-203.8" font-family="Helvetica,sans-Serif" font-size="11.00" fill="#000000">nom_usuario</text>
<polygon fill="none" stroke="#000000" points="8.5,-177.7 8.5,-196.7 131.5,-196.7 131.5,-177.7 8.5,-177.7"/>
<text text-anchor="start" x="11.5" y="-183.8" font-family="Helvetica,sans-Serif" font-size="11.00" fill="#000000">...</text>
<polygon fill="#ffffff" stroke="transparent" points="8.5,-158.7 8.5,-177.7 49.5,-177.7 49.5,-158.7 8.5,-158.7"/>
<polygon fill="none" stroke="#000000" points="8.5,-158.7 8.5,-177.7 49.5,-177.7 49.5,-158.7 8.5,-158.7"/>
<text text-anchor="start" x="11.5" y="-164.8" font-family="Helvetica,sans-Serif" font-size="11.00" fill="#000000"> &#160;</text>
<polygon fill="#ffffff" stroke="transparent" points="49.5,-158.7 49.5,-177.7 95.5,-177.7 95.5,-158.7 49.5,-158.7"/>
<polygon fill="none" stroke="#000000" points="49.5,-158.7 49.5,-177.7 95.5,-177.7 95.5,-158.7 49.5,-158.7"/>
<text text-anchor="start" x="65.6105" y="-164.8" font-family="Helvetica,sans-Serif" font-size="11.00" fill="#000000">1 row</text>
<polygon fill="#ffffff" stroke="transparent" points="95.5,-158.7 95.5,-177.7 131.5,-177.7 131.5,-158.7 95.5,-158.7"/>
<polygon fill="none" stroke="#000000" points="95.5,-158.7 95.5,-177.7 131.5,-177.7 131.5,-158.7 95.5,-158.7"/>
<text text-anchor="start" x="112.9053" y="-164.8" font-family="Helvetica,sans-Serif" font-size="11.00" fill="#000000">5 &gt;</text>
</a>
</g>
</g>
<!-- casos&#45;&gt;usuarios -->
<g id="edge1" class="edge">
<title>casos:w&#45;&gt;usuarios:e</title>
<path fill="none" stroke="#000000" d="M169.1814,-480.3472C135.46,-440.7713 184.2662,-229.7 131.5,-229.7"/>
<polygon fill="#000000" stroke="#000000" points="175.2794,-483.2558 180.9501,-489.9493 178.8897,-484.9779 182.5,-486.7 182.5,-486.7 182.5,-486.7 178.8897,-484.9779 184.0499,-483.4507 175.2794,-483.2558 175.2794,-483.2558"/>
<ellipse fill="none" stroke="#000000" cx="172.3911" cy="-481.8781" rx="3.2" ry="3.2"/>
</g>
<!-- empleados -->
<g id="node3" class="node">
<title>empleados</title>
<g id="a_node3"><a xlink:href="../../tables/empleados.html" xlink:title="empleados" target="_top">
<polygon fill="#ffffff" stroke="transparent" points="287.5,-284.2 287.5,-345.2 383.5,-345.2 383.5,-284.2 287.5,-284.2"/>
<polygon fill="#f5f5f5" stroke="transparent" points="287.5,-321.7 287.5,-344.7 383.5,-344.7 383.5,-321.7 287.5,-321.7"/>
<polygon fill="none" stroke="#000000" points="287.5,-321.7 287.5,-344.7 383.5,-344.7 383.5,-321.7 287.5,-321.7"/>
<text text-anchor="start" x="292.1039" y="-330.8" font-family="Helvetica,sans-Serif" font-weight="bold" font-size="11.00" fill="#000000">empleados</text>
<text text-anchor="start" x="349.0219" y="-329.8" font-family="Helvetica,sans-Serif" font-size="11.00" fill="#000000">[table]</text>
<polygon fill="none" stroke="#000000" points="287.5,-302.7 287.5,-321.7 383.5,-321.7 383.5,-302.7 287.5,-302.7"/>
<text text-anchor="start" x="290.5" y="-308.8" font-family="Helvetica,sans-Serif" font-size="11.00" fill="#000000">...</text>
<polygon fill="#ffffff" stroke="transparent" points="287.5,-283.7 287.5,-302.7 323.5,-302.7 323.5,-283.7 287.5,-283.7"/>
<polygon fill="none" stroke="#000000" points="287.5,-283.7 287.5,-302.7 323.5,-302.7 323.5,-283.7 287.5,-283.7"/>
<text text-anchor="start" x="290.5" y="-289.8" font-family="Helvetica,sans-Serif" font-size="11.00" fill="#000000">&lt; 2</text>
<polygon fill="#ffffff" stroke="transparent" points="323.5,-283.7 323.5,-302.7 363.5,-302.7 363.5,-283.7 323.5,-283.7"/>
<polygon fill="none" stroke="#000000" points="323.5,-283.7 323.5,-302.7 363.5,-302.7 363.5,-283.7 323.5,-283.7"/>
<text text-anchor="start" x="333.6105" y="-289.8" font-family="Helvetica,sans-Serif" font-size="11.00" fill="#000000">1 row</text>
<polygon fill="#ffffff" stroke="transparent" points="363.5,-283.7 363.5,-302.7 383.5,-302.7 383.5,-283.7 363.5,-283.7"/>
<polygon fill="none" stroke="#000000" points="363.5,-283.7 363.5,-302.7 383.5,-302.7 383.5,-283.7 363.5,-283.7"/>
<text text-anchor="start" x="374.3862" y="-289.8" font-family="Helvetica,sans-Serif" font-size="11.00" fill="#000000"> &#160;</text>
</a>
</g>
</g>
<!-- empleados&#45;&gt;usuarios -->
<g id="edge2" class="edge">
<title>empleados:w&#45;&gt;usuarios:e</title>
<path fill="none" stroke="#000000" d="M272.9698,-311.4497C230.1221,-309.8404 213.081,-300.1664 172,-273.7 149.6569,-259.3054 158.0786,-229.7 131.5,-229.7"/>
<polygon fill="#000000" stroke="#000000" points="279.5012,-311.5622 287.438,-315.2995 283.5006,-311.6311 287.5,-311.7 287.5,-311.7 287.5,-311.7 283.5006,-311.6311 287.562,-308.1005 279.5012,-311.5622 279.5012,-311.5622"/>
<ellipse fill="none" stroke="#000000" cx="276.3017" cy="-311.507" rx="3.2" ry="3.2"/>
</g>
<!-- leads -->
<g id="node4" class="node">
<title>leads</title>
<g id="a_node4"><a xlink:href="../../tables/leads.html" xlink:title="leads" target="_top">
<polygon fill="#ffffff" stroke="transparent" points="300,-202.2 300,-263.2 371,-263.2 371,-202.2 300,-202.2"/>
<polygon fill="#f5f5f5" stroke="transparent" points="300.5,-239.7 300.5,-262.7 371.5,-262.7 371.5,-239.7 300.5,-239.7"/>
<polygon fill="none" stroke="#000000" points="300.5,-239.7 300.5,-262.7 371.5,-262.7 371.5,-239.7 300.5,-239.7"/>
<text text-anchor="start" x="305.5" y="-248.8" font-family="Helvetica,sans-Serif" font-weight="bold" font-size="11.00" fill="#000000">leads</text>
<text text-anchor="start" x="336.5437" y="-247.8" font-family="Helvetica,sans-Serif" font-size="11.00" fill="#000000">[table]</text>
<polygon fill="none" stroke="#000000" points="300.5,-220.7 300.5,-239.7 371.5,-239.7 371.5,-220.7 300.5,-220.7"/>
<text text-anchor="start" x="303.5" y="-226.8" font-family="Helvetica,sans-Serif" font-size="11.00" fill="#000000">...</text>
<polygon fill="#ffffff" stroke="transparent" points="300.5,-201.7 300.5,-220.7 321.5,-220.7 321.5,-201.7 300.5,-201.7"/>
<polygon fill="none" stroke="#000000" points="300.5,-201.7 300.5,-220.7 321.5,-220.7 321.5,-201.7 300.5,-201.7"/>
<text text-anchor="start" x="303.2027" y="-207.8" font-family="Helvetica,sans-Serif" font-size="11.00" fill="#000000">&lt; 4</text>
<polygon fill="#ffffff" stroke="transparent" points="321.5,-201.7 321.5,-220.7 359.5,-220.7 359.5,-201.7 321.5,-201.7"/>
<polygon fill="none" stroke="#000000" points="321.5,-201.7 321.5,-220.7 359.5,-220.7 359.5,-201.7 321.5,-201.7"/>
<text text-anchor="start" x="324.3053" y="-207.8" font-family="Helvetica,sans-Serif" font-size="11.00" fill="#000000">0 rows</text>
<polygon fill="#ffffff" stroke="transparent" points="359.5,-201.7 359.5,-220.7 371.5,-220.7 371.5,-201.7 359.5,-201.7"/>
<polygon fill="none" stroke="#000000" points="359.5,-201.7 359.5,-220.7 371.5,-220.7 371.5,-201.7 359.5,-201.7"/>
<text text-anchor="start" x="362.4431" y="-207.8" font-family="Helvetica,sans-Serif" font-size="11.00" fill="#000000"> &#160;</text>
</a>
</g>
</g>
<!-- leads&#45;&gt;usuarios -->
<g id="edge3" class="edge">
<title>leads:w&#45;&gt;usuarios:e</title>
<path fill="none" stroke="#000000" d="M285.8501,-229.7C222.5584,-229.7 201.4766,-229.7 131.5,-229.7"/>
<polygon fill="#000000" stroke="#000000" points="292.5,-229.7001 300.5,-233.3 296.5,-229.7 300.5,-229.7 300.5,-229.7 300.5,-229.7 296.5,-229.7 300.5,-226.1 292.5,-229.7001 292.5,-229.7001"/>
<ellipse fill="none" stroke="#000000" cx="289.3" cy="-229.7001" rx="3.2" ry="3.2"/>
</g>
<!-- oportunidades -->
<g id="node5" class="node">
<title>oportunidades</title>
<g id="a_node5"><a xlink:href="../../tables/oportunidades.html" xlink:title="oportunidades" target="_top">
<polygon fill="#ffffff" stroke="transparent" points="279.5,-120.2 279.5,-181.2 391.5,-181.2 391.5,-120.2 279.5,-120.2"/>
<polygon fill="#f5f5f5" stroke="transparent" points="279.5,-157.7 279.5,-180.7 391.5,-180.7 391.5,-157.7 279.5,-157.7"/>
<polygon fill="none" stroke="#000000" points="279.5,-157.7 279.5,-180.7 391.5,-180.7 391.5,-157.7 279.5,-157.7"/>
<text text-anchor="start" x="284.1531" y="-166.8" font-family="Helvetica,sans-Serif" font-weight="bold" font-size="11.00" fill="#000000">oportunidades</text>
<text text-anchor="start" x="357.0219" y="-165.8" font-family="Helvetica,sans-Serif" font-size="11.00" fill="#000000">[table]</text>
<polygon fill="none" stroke="#000000" points="279.5,-138.7 279.5,-157.7 391.5,-157.7 391.5,-138.7 279.5,-138.7"/>
<text text-anchor="start" x="282.5" y="-144.8" font-family="Helvetica,sans-Serif" font-size="11.00" fill="#000000">...</text>
<polygon fill="#ffffff" stroke="transparent" points="279.5,-119.7 279.5,-138.7 319.5,-138.7 319.5,-119.7 279.5,-119.7"/>
<polygon fill="none" stroke="#000000" points="279.5,-119.7 279.5,-138.7 319.5,-138.7 319.5,-119.7 279.5,-119.7"/>
<text text-anchor="start" x="282.5" y="-125.8" font-family="Helvetica,sans-Serif" font-size="11.00" fill="#000000">&lt; 4</text>
<polygon fill="#ffffff" stroke="transparent" points="319.5,-119.7 319.5,-138.7 360.5,-138.7 360.5,-119.7 319.5,-119.7"/>
<polygon fill="none" stroke="#000000" points="319.5,-119.7 319.5,-138.7 360.5,-138.7 360.5,-119.7 319.5,-119.7"/>
<text text-anchor="start" x="330.6105" y="-125.8" font-family="Helvetica,sans-Serif" font-size="11.00" fill="#000000">1 row</text>
<polygon fill="#ffffff" stroke="transparent" points="360.5,-119.7 360.5,-138.7 391.5,-138.7 391.5,-119.7 360.5,-119.7"/>
<polygon fill="none" stroke="#000000" points="360.5,-119.7 360.5,-138.7 391.5,-138.7 391.5,-119.7 360.5,-119.7"/>
<text text-anchor="start" x="372.9053" y="-125.8" font-family="Helvetica,sans-Serif" font-size="11.00" fill="#000000">1 &gt;</text>
</a>
</g>
</g>
<!-- oportunidades&#45;&gt;usuarios -->
<g id="edge4" class="edge">
<title>oportunidades:w&#45;&gt;usuarios:e</title>
<path fill="none" stroke="#000000" d="M264.9096,-148.1936C225.0283,-151.0914 211.0231,-166.6307 172,-191.7 151.2334,-205.041 156.1827,-229.7 131.5,-229.7"/>
<polygon fill="#000000" stroke="#000000" points="271.5046,-147.9705 279.6217,-151.2979 275.5023,-147.8353 279.5,-147.7 279.5,-147.7 279.5,-147.7 275.5023,-147.8353 279.3783,-144.1021 271.5046,-147.9705 271.5046,-147.9705"/>
<ellipse fill="none" stroke="#000000" cx="268.3064" cy="-148.0788" rx="3.2" ry="3.2"/>
</g>
<!-- tareas -->
<g id="node6" class="node">
<title>tareas</title>
<g id="a_node6"><a xlink:href="../../tables/tareas.html" xlink:title="tareas" target="_top">
<polygon fill="#ffffff" stroke="transparent" points="299,-38.2 299,-99.2 372,-99.2 372,-38.2 299,-38.2"/>
<polygon fill="#f5f5f5" stroke="transparent" points="299.5,-75.7 299.5,-98.7 372.5,-98.7 372.5,-75.7 299.5,-75.7"/>
<polygon fill="none" stroke="#000000" points="299.5,-75.7 299.5,-98.7 372.5,-98.7 372.5,-75.7 299.5,-75.7"/>
<text text-anchor="start" x="304.2183" y="-84.8" font-family="Helvetica,sans-Serif" font-weight="bold" font-size="11.00" fill="#000000">tareas</text>
<text text-anchor="start" x="338.0219" y="-83.8" font-family="Helvetica,sans-Serif" font-size="11.00" fill="#000000">[table]</text>
<polygon fill="none" stroke="#000000" points="299.5,-56.7 299.5,-75.7 372.5,-75.7 372.5,-56.7 299.5,-56.7"/>
<text text-anchor="start" x="302.5" y="-62.8" font-family="Helvetica,sans-Serif" font-size="11.00" fill="#000000">...</text>
<polygon fill="#ffffff" stroke="transparent" points="299.5,-37.7 299.5,-56.7 321.5,-56.7 321.5,-37.7 299.5,-37.7"/>
<polygon fill="none" stroke="#000000" points="299.5,-37.7 299.5,-56.7 321.5,-56.7 321.5,-37.7 299.5,-37.7"/>
<text text-anchor="start" x="302.5" y="-43.8" font-family="Helvetica,sans-Serif" font-size="11.00" fill="#000000">&lt; 1</text>
<polygon fill="#ffffff" stroke="transparent" points="321.5,-37.7 321.5,-56.7 359.5,-56.7 359.5,-37.7 321.5,-37.7"/>
<polygon fill="none" stroke="#000000" points="321.5,-37.7 321.5,-56.7 359.5,-56.7 359.5,-37.7 321.5,-37.7"/>
<text text-anchor="start" x="324.3053" y="-43.8" font-family="Helvetica,sans-Serif" font-size="11.00" fill="#000000">0 rows</text>
<polygon fill="#ffffff" stroke="transparent" points="359.5,-37.7 359.5,-56.7 372.5,-56.7 372.5,-37.7 359.5,-37.7"/>
<polygon fill="none" stroke="#000000" points="359.5,-37.7 359.5,-56.7 372.5,-56.7 372.5,-37.7 359.5,-37.7"/>
<text text-anchor="start" x="363.3862" y="-43.8" font-family="Helvetica,sans-Serif" font-size="11.00" fill="#000000"> &#160;</text>
</a>
</g>
</g>
<!-- tareas&#45;&gt;usuarios -->
<g id="edge5" class="edge">
<title>tareas:w&#45;&gt;usuarios:e</title>
<path fill="none" stroke="#000000" d="M285.0988,-65.7545C235.1832,-66.2362 210.696,-70.7398 172,-109.7 132.3334,-149.6375 187.7889,-229.7 131.5,-229.7"/>
<polygon fill="#000000" stroke="#000000" points="291.5001,-65.7303 299.5137,-69.3 295.5,-65.7152 299.5,-65.7 299.5,-65.7 299.5,-65.7 295.5,-65.7152 299.4863,-62.1 291.5001,-65.7303 291.5001,-65.7303"/>
<ellipse fill="none" stroke="#000000" cx="288.3001" cy="-65.7425" rx="3.2" ry="3.2"/>
</g>
</g>
</svg>
