<?xml version="1.0" encoding="UTF-8" standalone="no"?>
<!DOCTYPE svg PUBLIC "-//W3C//DTD SVG 1.1//EN"
 "http://www.w3.org/Graphics/SVG/1.1/DTD/svg11.dtd">
<!-- Generated by graphviz version 2.40.1 (20161225.0304)
 -->
<!-- Title: twoDegreesRelationshipsDiagram Pages: 1 -->
<svg width="552pt" height="281pt"
 viewBox="0.00 0.00 552.00 281.20" xmlns="http://www.w3.org/2000/svg" xmlns:xlink="http://www.w3.org/1999/xlink">
<g id="graph0" class="graph" transform="scale(1 1) rotate(0) translate(4 277.2)">
<title>twoDegreesRelationshipsDiagram</title>
<polygon fill="#ffffff" stroke="transparent" points="-4,4 -4,-277.2 548,-277.2 548,4 -4,4"/>
<text text-anchor="middle" x="72.4936" y="-7.3" font-family="Helvetica,sans-Serif" font-size="11.00" fill="#000000">Generated by SchemaSpy</text>
<!-- ciclo_profesores -->
<g id="node1" class="node">
<title>ciclo_profesores</title>
<g id="a_node1"><a xlink:href="../../tables/ciclo_profesores.html" xlink:title="ciclo_profesores" target="_top">
<polygon fill="#ffffff" stroke="transparent" points="317,-84.7 317,-240.7 536,-240.7 536,-84.7 317,-84.7"/>
<polygon fill="#f5f5f5" stroke="transparent" points="319.5,-215.7 319.5,-238.7 534.5,-238.7 534.5,-215.7 319.5,-215.7"/>
<polygon fill="none" stroke="#000000" points="319.5,-215.7 319.5,-238.7 534.5,-238.7 534.5,-215.7 319.5,-215.7"/>
<text text-anchor="start" x="324.5" y="-224.8" font-family="Helvetica,sans-Serif" font-weight="bold" font-size="11.00" fill="#000000">ciclo_profesores</text>
<text text-anchor="start" x="499.5437" y="-223.8" font-family="Helvetica,sans-Serif" font-size="11.00" fill="#000000">[table]</text>
<polygon fill="none" stroke="#000000" points="319.5,-193.7 319.5,-215.7 442.5,-215.7 442.5,-193.7 319.5,-193.7"/>
<image xlink:href="../../images/primaryKeys.png" width="11px" height="12px" preserveAspectRatio="xMinYMin meet" x="324.5" y="-210.7"/>
<text text-anchor="start" x="339.5" y="-200.8" font-family="Helvetica,sans-Serif" font-size="11.00" fill="#000000">ciclo_profesor_id</text>
<polygon fill="none" stroke="#000000" points="442.5,-193.7 442.5,-215.7 534.5,-215.7 534.5,-193.7 442.5,-193.7"/>
<text text-anchor="start" x="445.5" y="-201.4" font-family="Helvetica,sans-Serif" font-size="11.00" fill="#000000">serial[10]</text>
<polygon fill="none" stroke="#000000" points="319.5,-171.7 319.5,-193.7 442.5,-193.7 442.5,-171.7 319.5,-171.7"/>
<image xlink:href="../../images/foreignKeys.png" width="11px" height="12px" preserveAspectRatio="xMinYMin meet" x="324.5" y="-188.7"/>
<text text-anchor="start" x="339.5" y="-178.8" font-family="Helvetica,sans-Serif" font-size="11.00" fill="#000000">profesor_id</text>
<polygon fill="none" stroke="#000000" points="442.5,-171.7 442.5,-193.7 534.5,-193.7 534.5,-171.7 442.5,-171.7"/>
<text text-anchor="start" x="445.5" y="-179.4" font-family="Helvetica,sans-Serif" font-size="11.00" fill="#000000">int4[10]</text>
<polygon fill="none" stroke="#000000" points="319.5,-149.7 319.5,-171.7 442.5,-171.7 442.5,-149.7 319.5,-149.7"/>
<image xlink:href="../../images/foreignKeys.png" width="11px" height="12px" preserveAspectRatio="xMinYMin meet" x="324.5" y="-166.7"/>
<text text-anchor="start" x="339.5" y="-156.8" font-family="Helvetica,sans-Serif" font-size="11.00" fill="#000000">ciclo_id</text>
<polygon fill="none" stroke="#000000" points="442.5,-149.7 442.5,-171.7 534.5,-171.7 534.5,-149.7 442.5,-149.7"/>
<text text-anchor="start" x="445.5" y="-157.4" font-family="Helvetica,sans-Serif" font-size="11.00" fill="#000000">int4[10]</text>
<polygon fill="none" stroke="#000000" points="319.5,-127.7 319.5,-149.7 442.5,-149.7 442.5,-127.7 319.5,-127.7"/>
<text text-anchor="start" x="339.5" y="-134.8" font-family="Helvetica,sans-Serif" font-size="11.00" fill="#000000">fec_modificacion</text>
<polygon fill="none" stroke="#000000" points="442.5,-127.7 442.5,-149.7 534.5,-149.7 534.5,-127.7 442.5,-127.7"/>
<text text-anchor="start" x="445.1023" y="-135.4" font-family="Helvetica,sans-Serif" font-size="11.00" fill="#000000">timestamptz[35,6]</text>
<polygon fill="none" stroke="#000000" points="319.5,-105.7 319.5,-127.7 442.5,-127.7 442.5,-105.7 319.5,-105.7"/>
<text text-anchor="start" x="339.5" y="-112.8" font-family="Helvetica,sans-Serif" font-size="11.00" fill="#000000">usu_modificacion</text>
<polygon fill="none" stroke="#000000" points="442.5,-105.7 442.5,-127.7 534.5,-127.7 534.5,-105.7 442.5,-105.7"/>
<text text-anchor="start" x="445.5" y="-113.4" font-family="Helvetica,sans-Serif" font-size="11.00" fill="#000000">varchar[20]</text>
<polygon fill="#ffffff" stroke="transparent" points="319.5,-86.7 319.5,-105.7 372.5,-105.7 372.5,-86.7 319.5,-86.7"/>
<polygon fill="none" stroke="#000000" points="319.5,-86.7 319.5,-105.7 372.5,-105.7 372.5,-86.7 319.5,-86.7"/>
<text text-anchor="start" x="322.5" y="-92.8" font-family="Helvetica,sans-Serif" font-size="11.00" fill="#000000">&lt; 2</text>
<polygon fill="#ffffff" stroke="transparent" points="372.5,-86.7 372.5,-105.7 442.5,-105.7 442.5,-86.7 372.5,-86.7"/>
<polygon fill="none" stroke="#000000" points="372.5,-86.7 372.5,-105.7 442.5,-105.7 442.5,-86.7 372.5,-86.7"/>
<text text-anchor="start" x="407.1105" y="-92.8" font-family="Helvetica,sans-Serif" font-size="11.00" fill="#000000">0 rows</text>
<polygon fill="#ffffff" stroke="transparent" points="442.5,-86.7 442.5,-105.7 534.5,-105.7 534.5,-86.7 442.5,-86.7"/>
<polygon fill="none" stroke="#000000" points="442.5,-86.7 442.5,-105.7 534.5,-105.7 534.5,-86.7 442.5,-86.7"/>
<text text-anchor="start" x="515.9053" y="-92.8" font-family="Helvetica,sans-Serif" font-size="11.00" fill="#000000">0 &gt;</text>
<polygon fill="none" stroke="#000000" stroke-width="2" points="318,-85.7 318,-239.7 535,-239.7 535,-85.7 318,-85.7"/>
</a>
</g>
</g>
<!-- curso_ciclos -->
<g id="node2" class="node">
<title>curso_ciclos</title>
<g id="a_node2"><a xlink:href="../../tables/curso_ciclos.html" xlink:title="curso_ciclos" target="_top">
<polygon fill="#ffffff" stroke="transparent" points="145,-38.2 145,-143.2 268,-143.2 268,-38.2 145,-38.2"/>
<polygon fill="#f5f5f5" stroke="transparent" points="145.5,-119.7 145.5,-142.7 268.5,-142.7 268.5,-119.7 145.5,-119.7"/>
<polygon fill="none" stroke="#000000" points="145.5,-119.7 145.5,-142.7 268.5,-142.7 268.5,-119.7 145.5,-119.7"/>
<text text-anchor="start" x="150.5" y="-128.8" font-family="Helvetica,sans-Serif" font-weight="bold" font-size="11.00" fill="#000000">curso_ciclos</text>
<text text-anchor="start" x="233.5437" y="-127.8" font-family="Helvetica,sans-Serif" font-size="11.00" fill="#000000">[table]</text>
<polygon fill="none" stroke="#000000" points="145.5,-97.7 145.5,-119.7 268.5,-119.7 268.5,-97.7 145.5,-97.7"/>
<image xlink:href="../../images/primaryKeys.png" width="11px" height="12px" preserveAspectRatio="xMinYMin meet" x="150.5" y="-114.7"/>
<text text-anchor="start" x="165.5" y="-104.8" font-family="Helvetica,sans-Serif" font-size="11.00" fill="#000000">ciclo_id</text>
<polygon fill="none" stroke="#000000" points="145.5,-75.7 145.5,-97.7 268.5,-97.7 268.5,-75.7 145.5,-75.7"/>
<image xlink:href="../../images/foreignKeys.png" width="11px" height="12px" preserveAspectRatio="xMinYMin meet" x="150.5" y="-92.7"/>
<text text-anchor="start" x="165.5" y="-82.8" font-family="Helvetica,sans-Serif" font-size="11.00" fill="#000000">curso_id</text>
<polygon fill="none" stroke="#000000" points="145.5,-56.7 145.5,-75.7 268.5,-75.7 268.5,-56.7 145.5,-56.7"/>
<text text-anchor="start" x="148.5" y="-62.8" font-family="Helvetica,sans-Serif" font-size="11.00" fill="#000000">...</text>
<polygon fill="#ffffff" stroke="transparent" points="145.5,-37.7 145.5,-56.7 187.5,-56.7 187.5,-37.7 145.5,-37.7"/>
<polygon fill="none" stroke="#000000" points="145.5,-37.7 145.5,-56.7 187.5,-56.7 187.5,-37.7 145.5,-37.7"/>
<text text-anchor="start" x="148.5" y="-43.8" font-family="Helvetica,sans-Serif" font-size="11.00" fill="#000000">&lt; 1</text>
<polygon fill="#ffffff" stroke="transparent" points="187.5,-37.7 187.5,-56.7 236.5,-56.7 236.5,-37.7 187.5,-37.7"/>
<polygon fill="none" stroke="#000000" points="187.5,-37.7 187.5,-56.7 236.5,-56.7 236.5,-37.7 187.5,-37.7"/>
<text text-anchor="start" x="201.1105" y="-43.8" font-family="Helvetica,sans-Serif" font-size="11.00" fill="#000000">0 rows</text>
<polygon fill="#ffffff" stroke="transparent" points="236.5,-37.7 236.5,-56.7 268.5,-56.7 268.5,-37.7 236.5,-37.7"/>
<polygon fill="none" stroke="#000000" points="236.5,-37.7 236.5,-56.7 268.5,-56.7 268.5,-37.7 236.5,-37.7"/>
<text text-anchor="start" x="249.9053" y="-43.8" font-family="Helvetica,sans-Serif" font-size="11.00" fill="#000000">1 &gt;</text>
</a>
</g>
</g>
<!-- ciclo_profesores&#45;&gt;curso_ciclos -->
<g id="edge1" class="edge">
<title>ciclo_profesores:w&#45;&gt;curso_ciclos:e</title>
<path fill="none" stroke="#000000" d="M305.5468,-155.9012C290.661,-143.0281 294.8017,-108.7 268.5,-108.7"/>
<polygon fill="#000000" stroke="#000000" points="311.9349,-158.0982 318.3292,-164.1043 315.7175,-159.3991 319.5,-160.7 319.5,-160.7 319.5,-160.7 315.7175,-159.3991 320.6708,-157.2957 311.9349,-158.0982 311.9349,-158.0982"/>
<ellipse fill="none" stroke="#000000" cx="308.9089" cy="-157.0574" rx="3.2" ry="3.2"/>
</g>
<!-- profesores -->
<g id="node3" class="node">
<title>profesores</title>
<g id="a_node3"><a xlink:href="../../tables/profesores.html" xlink:title="profesores" target="_top">
<polygon fill="#ffffff" stroke="transparent" points="145,-164.2 145,-269.2 268,-269.2 268,-164.2 145,-164.2"/>
<polygon fill="#f5f5f5" stroke="transparent" points="145.5,-245.7 145.5,-268.7 268.5,-268.7 268.5,-245.7 145.5,-245.7"/>
<polygon fill="none" stroke="#000000" points="145.5,-245.7 145.5,-268.7 268.5,-268.7 268.5,-245.7 145.5,-245.7"/>
<text text-anchor="start" x="150.5" y="-254.8" font-family="Helvetica,sans-Serif" font-weight="bold" font-size="11.00" fill="#000000">profesores</text>
<text text-anchor="start" x="233.5437" y="-253.8" font-family="Helvetica,sans-Serif" font-size="11.00" fill="#000000">[table]</text>
<polygon fill="none" stroke="#000000" points="145.5,-223.7 145.5,-245.7 268.5,-245.7 268.5,-223.7 145.5,-223.7"/>
<image xlink:href="../../images/primaryKeys.png" width="11px" height="12px" preserveAspectRatio="xMinYMin meet" x="150.5" y="-240.7"/>
<text text-anchor="start" x="165.5" y="-230.8" font-family="Helvetica,sans-Serif" font-size="11.00" fill="#000000">profesor_id</text>
<polygon fill="none" stroke="#000000" points="145.5,-201.7 145.5,-223.7 268.5,-223.7 268.5,-201.7 145.5,-201.7"/>
<image xlink:href="../../images/foreignKeys.png" width="11px" height="12px" preserveAspectRatio="xMinYMin meet" x="150.5" y="-218.7"/>
<text text-anchor="start" x="165.5" y="-208.8" font-family="Helvetica,sans-Serif" font-size="11.00" fill="#000000">persona_id</text>
<polygon fill="none" stroke="#000000" points="145.5,-182.7 145.5,-201.7 268.5,-201.7 268.5,-182.7 145.5,-182.7"/>
<text text-anchor="start" x="148.5" y="-188.8" font-family="Helvetica,sans-Serif" font-size="11.00" fill="#000000">...</text>
<polygon fill="#ffffff" stroke="transparent" points="145.5,-163.7 145.5,-182.7 190.5,-182.7 190.5,-163.7 145.5,-163.7"/>
<polygon fill="none" stroke="#000000" points="145.5,-163.7 145.5,-182.7 190.5,-182.7 190.5,-163.7 145.5,-163.7"/>
<text text-anchor="start" x="148.5" y="-169.8" font-family="Helvetica,sans-Serif" font-size="11.00" fill="#000000">&lt; 1</text>
<polygon fill="#ffffff" stroke="transparent" points="190.5,-163.7 190.5,-182.7 234.5,-182.7 234.5,-163.7 190.5,-163.7"/>
<polygon fill="none" stroke="#000000" points="190.5,-163.7 190.5,-182.7 234.5,-182.7 234.5,-163.7 190.5,-163.7"/>
<text text-anchor="start" x="204.6105" y="-169.8" font-family="Helvetica,sans-Serif" font-size="11.00" fill="#000000">1 row</text>
<polygon fill="#ffffff" stroke="transparent" points="234.5,-163.7 234.5,-182.7 268.5,-182.7 268.5,-163.7 234.5,-163.7"/>
<polygon fill="none" stroke="#000000" points="234.5,-163.7 234.5,-182.7 268.5,-182.7 268.5,-163.7 234.5,-163.7"/>
<text text-anchor="start" x="249.9053" y="-169.8" font-family="Helvetica,sans-Serif" font-size="11.00" fill="#000000">1 &gt;</text>
</a>
</g>
</g>
<!-- ciclo_profesores&#45;&gt;profesores -->
<g id="edge2" class="edge">
<title>ciclo_profesores:w&#45;&gt;profesores:e</title>
<path fill="none" stroke="#000000" d="M305.5468,-187.4988C290.661,-200.3719 294.8017,-234.7 268.5,-234.7"/>
<polygon fill="#000000" stroke="#000000" points="311.9349,-185.3018 320.6708,-186.1043 315.7175,-184.0009 319.5,-182.7 319.5,-182.7 319.5,-182.7 315.7175,-184.0009 318.3292,-179.2957 311.9349,-185.3018 311.9349,-185.3018"/>
<ellipse fill="none" stroke="#000000" cx="308.9089" cy="-186.3426" rx="3.2" ry="3.2"/>
</g>
<!-- cursos -->
<g id="node4" class="node">
<title>cursos</title>
<g id="a_node4"><a xlink:href="../../tables/cursos.html" xlink:title="cursos" target="_top">
<polygon fill="#ffffff" stroke="transparent" points="14.5,-59.2 14.5,-120.2 89.5,-120.2 89.5,-59.2 14.5,-59.2"/>
<polygon fill="#f5f5f5" stroke="transparent" points="15,-96.7 15,-119.7 90,-119.7 90,-96.7 15,-96.7"/>
<polygon fill="none" stroke="#000000" points="15,-96.7 15,-119.7 90,-119.7 90,-96.7 15,-96.7"/>
<text text-anchor="start" x="19.8042" y="-105.8" font-family="Helvetica,sans-Serif" font-weight="bold" font-size="11.00" fill="#000000">cursos</text>
<text text-anchor="start" x="55.5219" y="-104.8" font-family="Helvetica,sans-Serif" font-size="11.00" fill="#000000">[table]</text>
<polygon fill="none" stroke="#000000" points="15,-77.7 15,-96.7 90,-96.7 90,-77.7 15,-77.7"/>
<text text-anchor="start" x="18" y="-83.8" font-family="Helvetica,sans-Serif" font-size="11.00" fill="#000000">...</text>
<polygon fill="#ffffff" stroke="transparent" points="15,-58.7 15,-77.7 32,-77.7 32,-58.7 15,-58.7"/>
<polygon fill="none" stroke="#000000" points="15,-58.7 15,-77.7 32,-77.7 32,-58.7 15,-58.7"/>
<text text-anchor="start" x="18" y="-64.8" font-family="Helvetica,sans-Serif" font-size="11.00" fill="#000000"> &#160;</text>
<polygon fill="#ffffff" stroke="transparent" points="32,-58.7 32,-77.7 66,-77.7 66,-58.7 32,-58.7"/>
<polygon fill="none" stroke="#000000" points="32,-58.7 32,-77.7 66,-77.7 66,-58.7 32,-58.7"/>
<text text-anchor="start" x="36.1105" y="-64.8" font-family="Helvetica,sans-Serif" font-size="11.00" fill="#000000">1 row</text>
<polygon fill="#ffffff" stroke="transparent" points="66,-58.7 66,-77.7 90,-77.7 90,-58.7 66,-58.7"/>
<polygon fill="none" stroke="#000000" points="66,-58.7 66,-77.7 90,-77.7 90,-58.7 66,-58.7"/>
<text text-anchor="start" x="71.4053" y="-64.8" font-family="Helvetica,sans-Serif" font-size="11.00" fill="#000000">3 &gt;</text>
</a>
</g>
</g>
<!-- curso_ciclos&#45;&gt;cursos -->
<g id="edge3" class="edge">
<title>curso_ciclos:w&#45;&gt;cursos:e</title>
<path fill="none" stroke="#000000" d="M130.7286,-86.7C116.9265,-86.7 108.8854,-86.7 90,-86.7"/>
<polygon fill="#000000" stroke="#000000" points="137.5,-86.7001 145.5,-90.3 141.5,-86.7 145.5,-86.7 145.5,-86.7 145.5,-86.7 141.5,-86.7 145.5,-83.1 137.5,-86.7001 137.5,-86.7001"/>
<ellipse fill="none" stroke="#000000" cx="134.3" cy="-86.7001" rx="3.2" ry="3.2"/>
</g>
<!-- personas -->
<g id="node5" class="node">
<title>personas</title>
<g id="a_node5"><a xlink:href="../../tables/personas.html" xlink:title="personas" target="_top">
<polygon fill="#ffffff" stroke="transparent" points="8,-185.2 8,-246.2 96,-246.2 96,-185.2 8,-185.2"/>
<polygon fill="#f5f5f5" stroke="transparent" points="8,-222.7 8,-245.7 96,-245.7 96,-222.7 8,-222.7"/>
<polygon fill="none" stroke="#000000" points="8,-222.7 8,-245.7 96,-245.7 96,-222.7 8,-222.7"/>
<text text-anchor="start" x="12.8818" y="-231.8" font-family="Helvetica,sans-Serif" font-weight="bold" font-size="11.00" fill="#000000">personas</text>
<text text-anchor="start" x="61.5219" y="-230.8" font-family="Helvetica,sans-Serif" font-size="11.00" fill="#000000">[table]</text>
<polygon fill="none" stroke="#000000" points="8,-203.7 8,-222.7 96,-222.7 96,-203.7 8,-203.7"/>
<text text-anchor="start" x="11" y="-209.8" font-family="Helvetica,sans-Serif" font-size="11.00" fill="#000000">...</text>
<polygon fill="#ffffff" stroke="transparent" points="8,-184.7 8,-203.7 28,-203.7 28,-184.7 8,-184.7"/>
<polygon fill="none" stroke="#000000" points="8,-184.7 8,-203.7 28,-203.7 28,-184.7 8,-184.7"/>
<text text-anchor="start" x="11" y="-190.8" font-family="Helvetica,sans-Serif" font-size="11.00" fill="#000000"> &#160;</text>
<polygon fill="#ffffff" stroke="transparent" points="28,-184.7 28,-203.7 70,-203.7 70,-184.7 28,-184.7"/>
<polygon fill="none" stroke="#000000" points="28,-184.7 28,-203.7 70,-203.7 70,-184.7 28,-184.7"/>
<text text-anchor="start" x="34.6105" y="-190.8" font-family="Helvetica,sans-Serif" font-size="11.00" fill="#000000">7 rows</text>
<polygon fill="#ffffff" stroke="transparent" points="70,-184.7 70,-203.7 96,-203.7 96,-184.7 70,-184.7"/>
<polygon fill="none" stroke="#000000" points="70,-184.7 70,-203.7 96,-203.7 96,-184.7 70,-184.7"/>
<text text-anchor="start" x="77.4053" y="-190.8" font-family="Helvetica,sans-Serif" font-size="11.00" fill="#000000">7 &gt;</text>
</a>
</g>
</g>
<!-- profesores&#45;&gt;personas -->
<g id="edge4" class="edge">
<title>profesores:w&#45;&gt;personas:e</title>
<path fill="none" stroke="#000000" d="M130.8428,-212.7C119.4139,-212.7 112.1563,-212.7 96,-212.7"/>
<polygon fill="#000000" stroke="#000000" points="137.5,-212.7001 145.5,-216.3 141.5,-212.7 145.5,-212.7 145.5,-212.7 145.5,-212.7 141.5,-212.7 145.5,-209.1 137.5,-212.7001 137.5,-212.7001"/>
<ellipse fill="none" stroke="#000000" cx="134.3" cy="-212.7001" rx="3.2" ry="3.2"/>
</g>
</g>
</svg>
