<?xml version="1.0" encoding="UTF-8" standalone="no"?>
<!DOCTYPE svg PUBLIC "-//W3C//DTD SVG 1.1//EN"
 "http://www.w3.org/Graphics/SVG/1.1/DTD/svg11.dtd">
<!-- Generated by graphviz version 2.40.1 (20161225.0304)
 -->
<!-- Title: twoDegreesRelationshipsDiagram Pages: 1 -->
<svg width="764pt" height="590pt"
 viewBox="0.00 0.00 764.00 590.20" xmlns="http://www.w3.org/2000/svg" xmlns:xlink="http://www.w3.org/1999/xlink">
<g id="graph0" class="graph" transform="scale(1 1) rotate(0) translate(4 586.2)">
<title>twoDegreesRelationshipsDiagram</title>
<polygon fill="#ffffff" stroke="transparent" points="-4,4 -4,-586.2 760,-586.2 760,4 -4,4"/>
<text text-anchor="middle" x="72.4936" y="-7.3" font-family="Helvetica,sans-Serif" font-size="11.00" fill="#000000">Generated by SchemaSpy</text>
<!-- ciclo_aulas -->
<g id="node1" class="node">
<title>ciclo_aulas</title>
<g id="a_node1"><a xlink:href="../../tables/ciclo_aulas.html" xlink:title="ciclo_aulas" target="_top">
<polygon fill="#ffffff" stroke="transparent" points="352,-202.7 352,-468.7 576,-468.7 576,-202.7 352,-202.7"/>
<polygon fill="#f5f5f5" stroke="transparent" points="354,-443.7 354,-466.7 574,-466.7 574,-443.7 354,-443.7"/>
<polygon fill="none" stroke="#000000" points="354,-443.7 354,-466.7 574,-466.7 574,-443.7 354,-443.7"/>
<text text-anchor="start" x="359" y="-452.8" font-family="Helvetica,sans-Serif" font-weight="bold" font-size="11.00" fill="#000000">ciclo_aulas</text>
<text text-anchor="start" x="539.0437" y="-451.8" font-family="Helvetica,sans-Serif" font-size="11.00" fill="#000000">[table]</text>
<polygon fill="none" stroke="#000000" points="354,-421.7 354,-443.7 477,-443.7 477,-421.7 354,-421.7"/>
<image xlink:href="../../images/primaryKeys.png" width="11px" height="12px" preserveAspectRatio="xMinYMin meet" x="359" y="-438.7"/>
<text text-anchor="start" x="374" y="-428.8" font-family="Helvetica,sans-Serif" font-size="11.00" fill="#000000">aula_id</text>
<polygon fill="none" stroke="#000000" points="477,-421.7 477,-443.7 574,-443.7 574,-421.7 477,-421.7"/>
<text text-anchor="start" x="480" y="-429.4" font-family="Helvetica,sans-Serif" font-size="11.00" fill="#000000">serial[10]</text>
<polygon fill="none" stroke="#000000" points="354,-399.7 354,-421.7 477,-421.7 477,-399.7 354,-399.7"/>
<text text-anchor="start" x="374" y="-406.8" font-family="Helvetica,sans-Serif" font-size="11.00" fill="#000000">hor_inicio</text>
<polygon fill="none" stroke="#000000" points="477,-399.7 477,-421.7 574,-421.7 574,-399.7 477,-399.7"/>
<text text-anchor="start" x="480" y="-407.4" font-family="Helvetica,sans-Serif" font-size="11.00" fill="#000000">time[15,6]</text>
<polygon fill="none" stroke="#000000" points="354,-377.7 354,-399.7 477,-399.7 477,-377.7 354,-377.7"/>
<text text-anchor="start" x="374" y="-384.8" font-family="Helvetica,sans-Serif" font-size="11.00" fill="#000000">hor_fin</text>
<polygon fill="none" stroke="#000000" points="477,-377.7 477,-399.7 574,-399.7 574,-377.7 477,-377.7"/>
<text text-anchor="start" x="480" y="-385.4" font-family="Helvetica,sans-Serif" font-size="11.00" fill="#000000">time[15,6]</text>
<polygon fill="none" stroke="#000000" points="354,-355.7 354,-377.7 477,-377.7 477,-355.7 354,-355.7"/>
<text text-anchor="start" x="374" y="-362.8" font-family="Helvetica,sans-Serif" font-size="11.00" fill="#000000">dias</text>
<polygon fill="none" stroke="#000000" points="477,-355.7 477,-377.7 574,-377.7 574,-355.7 477,-355.7"/>
<text text-anchor="start" x="479.9468" y="-363.4" font-family="Helvetica,sans-Serif" font-size="11.00" fill="#000000">_text[2147483647]</text>
<polygon fill="none" stroke="#000000" points="354,-333.7 354,-355.7 477,-355.7 477,-333.7 354,-333.7"/>
<text text-anchor="start" x="374" y="-340.8" font-family="Helvetica,sans-Serif" font-size="11.00" fill="#000000">cupo_total</text>
<polygon fill="none" stroke="#000000" points="477,-333.7 477,-355.7 574,-355.7 574,-333.7 477,-333.7"/>
<text text-anchor="start" x="480" y="-341.4" font-family="Helvetica,sans-Serif" font-size="11.00" fill="#000000">int4[10]</text>
<polygon fill="none" stroke="#000000" points="354,-311.7 354,-333.7 477,-333.7 477,-311.7 354,-311.7"/>
<image xlink:href="../../images/foreignKeys.png" width="11px" height="12px" preserveAspectRatio="xMinYMin meet" x="359" y="-328.7"/>
<text text-anchor="start" x="374" y="-318.8" font-family="Helvetica,sans-Serif" font-size="11.00" fill="#000000">sede_id</text>
<polygon fill="none" stroke="#000000" points="477,-311.7 477,-333.7 574,-333.7 574,-311.7 477,-311.7"/>
<text text-anchor="start" x="480" y="-319.4" font-family="Helvetica,sans-Serif" font-size="11.00" fill="#000000">int4[10]</text>
<polygon fill="none" stroke="#000000" points="354,-289.7 354,-311.7 477,-311.7 477,-289.7 354,-289.7"/>
<image xlink:href="../../images/foreignKeys.png" width="11px" height="12px" preserveAspectRatio="xMinYMin meet" x="359" y="-306.7"/>
<text text-anchor="start" x="374" y="-296.8" font-family="Helvetica,sans-Serif" font-size="11.00" fill="#000000">ciclo_id</text>
<polygon fill="none" stroke="#000000" points="477,-289.7 477,-311.7 574,-311.7 574,-289.7 477,-289.7"/>
<text text-anchor="start" x="480" y="-297.4" font-family="Helvetica,sans-Serif" font-size="11.00" fill="#000000">int4[10]</text>
<polygon fill="none" stroke="#000000" points="354,-267.7 354,-289.7 477,-289.7 477,-267.7 354,-267.7"/>
<image xlink:href="../../images/foreignKeys.png" width="11px" height="12px" preserveAspectRatio="xMinYMin meet" x="359" y="-284.7"/>
<text text-anchor="start" x="374" y="-274.8" font-family="Helvetica,sans-Serif" font-size="11.00" fill="#000000">curso_id</text>
<polygon fill="none" stroke="#000000" points="477,-267.7 477,-289.7 574,-289.7 574,-267.7 477,-267.7"/>
<text text-anchor="start" x="480" y="-275.4" font-family="Helvetica,sans-Serif" font-size="11.00" fill="#000000">int4[10]</text>
<polygon fill="none" stroke="#000000" points="354,-245.7 354,-267.7 477,-267.7 477,-245.7 354,-245.7"/>
<text text-anchor="start" x="374" y="-252.8" font-family="Helvetica,sans-Serif" font-size="11.00" fill="#000000">fec_modificacion</text>
<polygon fill="none" stroke="#000000" points="477,-245.7 477,-267.7 574,-267.7 574,-245.7 477,-245.7"/>
<text text-anchor="start" x="480" y="-253.4" font-family="Helvetica,sans-Serif" font-size="11.00" fill="#000000">timestamptz[35,6]</text>
<polygon fill="none" stroke="#000000" points="354,-223.7 354,-245.7 477,-245.7 477,-223.7 354,-223.7"/>
<text text-anchor="start" x="374" y="-230.8" font-family="Helvetica,sans-Serif" font-size="11.00" fill="#000000">usu_modificacion</text>
<polygon fill="none" stroke="#000000" points="477,-223.7 477,-245.7 574,-245.7 574,-223.7 477,-223.7"/>
<text text-anchor="start" x="480" y="-231.4" font-family="Helvetica,sans-Serif" font-size="11.00" fill="#000000">varchar[20]</text>
<polygon fill="#ffffff" stroke="transparent" points="354,-204.7 354,-223.7 407,-223.7 407,-204.7 354,-204.7"/>
<polygon fill="none" stroke="#000000" points="354,-204.7 354,-223.7 407,-223.7 407,-204.7 354,-204.7"/>
<text text-anchor="start" x="357" y="-210.8" font-family="Helvetica,sans-Serif" font-size="11.00" fill="#000000">&lt; 3</text>
<polygon fill="#ffffff" stroke="transparent" points="407,-204.7 407,-223.7 477,-223.7 477,-204.7 407,-204.7"/>
<polygon fill="none" stroke="#000000" points="407,-204.7 407,-223.7 477,-223.7 477,-204.7 407,-204.7"/>
<text text-anchor="start" x="441.6105" y="-210.8" font-family="Helvetica,sans-Serif" font-size="11.00" fill="#000000">0 rows</text>
<polygon fill="#ffffff" stroke="transparent" points="477,-204.7 477,-223.7 574,-223.7 574,-204.7 477,-204.7"/>
<polygon fill="none" stroke="#000000" points="477,-204.7 477,-223.7 574,-223.7 574,-204.7 477,-204.7"/>
<text text-anchor="start" x="555.4053" y="-210.8" font-family="Helvetica,sans-Serif" font-size="11.00" fill="#000000">1 &gt;</text>
<polygon fill="none" stroke="#000000" stroke-width="2" points="353,-203.7 353,-467.7 575,-467.7 575,-203.7 353,-203.7"/>
</a>
</g>
</g>
<!-- curso_ciclos -->
<g id="node2" class="node">
<title>curso_ciclos</title>
<g id="a_node2"><a xlink:href="../../tables/curso_ciclos.html" xlink:title="curso_ciclos" target="_top">
<polygon fill="#ffffff" stroke="transparent" points="180,-422.2 180,-527.2 303,-527.2 303,-422.2 180,-422.2"/>
<polygon fill="#f5f5f5" stroke="transparent" points="180.5,-503.7 180.5,-526.7 303.5,-526.7 303.5,-503.7 180.5,-503.7"/>
<polygon fill="none" stroke="#000000" points="180.5,-503.7 180.5,-526.7 303.5,-526.7 303.5,-503.7 180.5,-503.7"/>
<text text-anchor="start" x="185.5" y="-512.8" font-family="Helvetica,sans-Serif" font-weight="bold" font-size="11.00" fill="#000000">curso_ciclos</text>
<text text-anchor="start" x="268.5437" y="-511.8" font-family="Helvetica,sans-Serif" font-size="11.00" fill="#000000">[table]</text>
<polygon fill="none" stroke="#000000" points="180.5,-481.7 180.5,-503.7 303.5,-503.7 303.5,-481.7 180.5,-481.7"/>
<image xlink:href="../../images/primaryKeys.png" width="11px" height="12px" preserveAspectRatio="xMinYMin meet" x="185.5" y="-498.7"/>
<text text-anchor="start" x="200.5" y="-488.8" font-family="Helvetica,sans-Serif" font-size="11.00" fill="#000000">ciclo_id</text>
<polygon fill="none" stroke="#000000" points="180.5,-459.7 180.5,-481.7 303.5,-481.7 303.5,-459.7 180.5,-459.7"/>
<image xlink:href="../../images/foreignKeys.png" width="11px" height="12px" preserveAspectRatio="xMinYMin meet" x="185.5" y="-476.7"/>
<text text-anchor="start" x="200.5" y="-466.8" font-family="Helvetica,sans-Serif" font-size="11.00" fill="#000000">curso_id</text>
<polygon fill="none" stroke="#000000" points="180.5,-440.7 180.5,-459.7 303.5,-459.7 303.5,-440.7 180.5,-440.7"/>
<text text-anchor="start" x="183.5" y="-446.8" font-family="Helvetica,sans-Serif" font-size="11.00" fill="#000000">...</text>
<polygon fill="#ffffff" stroke="transparent" points="180.5,-421.7 180.5,-440.7 222.5,-440.7 222.5,-421.7 180.5,-421.7"/>
<polygon fill="none" stroke="#000000" points="180.5,-421.7 180.5,-440.7 222.5,-440.7 222.5,-421.7 180.5,-421.7"/>
<text text-anchor="start" x="183.5" y="-427.8" font-family="Helvetica,sans-Serif" font-size="11.00" fill="#000000">&lt; 1</text>
<polygon fill="#ffffff" stroke="transparent" points="222.5,-421.7 222.5,-440.7 271.5,-440.7 271.5,-421.7 222.5,-421.7"/>
<polygon fill="none" stroke="#000000" points="222.5,-421.7 222.5,-440.7 271.5,-440.7 271.5,-421.7 222.5,-421.7"/>
<text text-anchor="start" x="236.1105" y="-427.8" font-family="Helvetica,sans-Serif" font-size="11.00" fill="#000000">0 rows</text>
<polygon fill="#ffffff" stroke="transparent" points="271.5,-421.7 271.5,-440.7 303.5,-440.7 303.5,-421.7 271.5,-421.7"/>
<polygon fill="none" stroke="#000000" points="271.5,-421.7 271.5,-440.7 303.5,-440.7 303.5,-421.7 271.5,-421.7"/>
<text text-anchor="start" x="284.9053" y="-427.8" font-family="Helvetica,sans-Serif" font-size="11.00" fill="#000000">2 &gt;</text>
</a>
</g>
</g>
<!-- ciclo_aulas&#45;&gt;curso_ciclos -->
<g id="edge1" class="edge">
<title>ciclo_aulas:w&#45;&gt;curso_ciclos:e</title>
<path fill="none" stroke="#000000" d="M339.4937,-302.99C281.113,-324.6524 386.0486,-492.7 303.5,-492.7"/>
<polygon fill="#000000" stroke="#000000" points="346.0979,-301.9475 354.5614,-304.256 350.0489,-301.3237 354,-300.7 354,-300.7 354,-300.7 350.0489,-301.3237 353.4386,-297.144 346.0979,-301.9475 346.0979,-301.9475"/>
<ellipse fill="none" stroke="#000000" cx="342.937" cy="-302.4465" rx="3.2" ry="3.2"/>
</g>
<!-- cursos -->
<g id="node3" class="node">
<title>cursos</title>
<g id="a_node3"><a xlink:href="../../tables/cursos.html" xlink:title="cursos" target="_top">
<polygon fill="#ffffff" stroke="transparent" points="8,-278.2 8,-361.2 131,-361.2 131,-278.2 8,-278.2"/>
<polygon fill="#f5f5f5" stroke="transparent" points="8.5,-337.7 8.5,-360.7 131.5,-360.7 131.5,-337.7 8.5,-337.7"/>
<polygon fill="none" stroke="#000000" points="8.5,-337.7 8.5,-360.7 131.5,-360.7 131.5,-337.7 8.5,-337.7"/>
<text text-anchor="start" x="13.5" y="-346.8" font-family="Helvetica,sans-Serif" font-weight="bold" font-size="11.00" fill="#000000">cursos</text>
<text text-anchor="start" x="96.5437" y="-345.8" font-family="Helvetica,sans-Serif" font-size="11.00" fill="#000000">[table]</text>
<polygon fill="none" stroke="#000000" points="8.5,-315.7 8.5,-337.7 131.5,-337.7 131.5,-315.7 8.5,-315.7"/>
<image xlink:href="../../images/primaryKeys.png" width="11px" height="12px" preserveAspectRatio="xMinYMin meet" x="13.5" y="-332.7"/>
<text text-anchor="start" x="28.5" y="-322.8" font-family="Helvetica,sans-Serif" font-size="11.00" fill="#000000">curso_id</text>
<polygon fill="none" stroke="#000000" points="8.5,-296.7 8.5,-315.7 131.5,-315.7 131.5,-296.7 8.5,-296.7"/>
<text text-anchor="start" x="11.5" y="-302.8" font-family="Helvetica,sans-Serif" font-size="11.00" fill="#000000">...</text>
<polygon fill="#ffffff" stroke="transparent" points="8.5,-277.7 8.5,-296.7 49.5,-296.7 49.5,-277.7 8.5,-277.7"/>
<polygon fill="none" stroke="#000000" points="8.5,-277.7 8.5,-296.7 49.5,-296.7 49.5,-277.7 8.5,-277.7"/>
<text text-anchor="start" x="11.5" y="-283.8" font-family="Helvetica,sans-Serif" font-size="11.00" fill="#000000"> &#160;</text>
<polygon fill="#ffffff" stroke="transparent" points="49.5,-277.7 49.5,-296.7 95.5,-296.7 95.5,-277.7 49.5,-277.7"/>
<polygon fill="none" stroke="#000000" points="49.5,-277.7 49.5,-296.7 95.5,-296.7 95.5,-277.7 49.5,-277.7"/>
<text text-anchor="start" x="65.6105" y="-283.8" font-family="Helvetica,sans-Serif" font-size="11.00" fill="#000000">1 row</text>
<polygon fill="#ffffff" stroke="transparent" points="95.5,-277.7 95.5,-296.7 131.5,-296.7 131.5,-277.7 95.5,-277.7"/>
<polygon fill="none" stroke="#000000" points="95.5,-277.7 95.5,-296.7 131.5,-296.7 131.5,-277.7 95.5,-277.7"/>
<text text-anchor="start" x="112.9053" y="-283.8" font-family="Helvetica,sans-Serif" font-size="11.00" fill="#000000">4 &gt;</text>
</a>
</g>
</g>
<!-- ciclo_aulas&#45;&gt;cursos -->
<g id="edge2" class="edge">
<title>ciclo_aulas:w&#45;&gt;cursos:e</title>
<path fill="none" stroke="#000000" d="M340.18,-274.6523C330.2884,-267.5464 327.6399,-253.0728 311,-247.7 252.2108,-228.7178 224.7143,-215.4866 172,-247.7 138.3325,-268.274 170.9562,-326.7 131.5,-326.7"/>
<polygon fill="#000000" stroke="#000000" points="346.3225,-276.4513 352.9881,-282.1549 350.1613,-277.5757 354,-278.7 354,-278.7 354,-278.7 350.1613,-277.5757 355.0119,-275.2451 346.3225,-276.4513 346.3225,-276.4513"/>
<ellipse fill="none" stroke="#000000" cx="343.2515" cy="-275.5519" rx="3.2" ry="3.2"/>
</g>
<!-- sedes -->
<g id="node4" class="node">
<title>sedes</title>
<g id="a_node4"><a xlink:href="../../tables/sedes.html" xlink:title="sedes" target="_top">
<polygon fill="#ffffff" stroke="transparent" points="180,-99.2 180,-182.2 303,-182.2 303,-99.2 180,-99.2"/>
<polygon fill="#f5f5f5" stroke="transparent" points="180.5,-158.7 180.5,-181.7 303.5,-181.7 303.5,-158.7 180.5,-158.7"/>
<polygon fill="none" stroke="#000000" points="180.5,-158.7 180.5,-181.7 303.5,-181.7 303.5,-158.7 180.5,-158.7"/>
<text text-anchor="start" x="185.5" y="-167.8" font-family="Helvetica,sans-Serif" font-weight="bold" font-size="11.00" fill="#000000">sedes</text>
<text text-anchor="start" x="268.5437" y="-166.8" font-family="Helvetica,sans-Serif" font-size="11.00" fill="#000000">[table]</text>
<polygon fill="none" stroke="#000000" points="180.5,-136.7 180.5,-158.7 303.5,-158.7 303.5,-136.7 180.5,-136.7"/>
<image xlink:href="../../images/primaryKeys.png" width="11px" height="12px" preserveAspectRatio="xMinYMin meet" x="185.5" y="-153.7"/>
<text text-anchor="start" x="200.5" y="-143.8" font-family="Helvetica,sans-Serif" font-size="11.00" fill="#000000">sede_id</text>
<polygon fill="none" stroke="#000000" points="180.5,-117.7 180.5,-136.7 303.5,-136.7 303.5,-117.7 180.5,-117.7"/>
<text text-anchor="start" x="183.5" y="-123.8" font-family="Helvetica,sans-Serif" font-size="11.00" fill="#000000">...</text>
<polygon fill="#ffffff" stroke="transparent" points="180.5,-98.7 180.5,-117.7 218.5,-117.7 218.5,-98.7 180.5,-98.7"/>
<polygon fill="none" stroke="#000000" points="180.5,-98.7 180.5,-117.7 218.5,-117.7 218.5,-98.7 180.5,-98.7"/>
<text text-anchor="start" x="183.5" y="-104.8" font-family="Helvetica,sans-Serif" font-size="11.00" fill="#000000"> &#160;</text>
<polygon fill="#ffffff" stroke="transparent" points="218.5,-98.7 218.5,-117.7 269.5,-117.7 269.5,-98.7 218.5,-98.7"/>
<polygon fill="none" stroke="#000000" points="218.5,-98.7 218.5,-117.7 269.5,-117.7 269.5,-98.7 218.5,-98.7"/>
<text text-anchor="start" x="234.1105" y="-104.8" font-family="Helvetica,sans-Serif" font-size="11.00" fill="#000000">0 rows</text>
<polygon fill="#ffffff" stroke="transparent" points="269.5,-98.7 269.5,-117.7 303.5,-117.7 303.5,-98.7 269.5,-98.7"/>
<polygon fill="none" stroke="#000000" points="269.5,-98.7 269.5,-117.7 303.5,-117.7 303.5,-98.7 269.5,-98.7"/>
<text text-anchor="start" x="284.9053" y="-104.8" font-family="Helvetica,sans-Serif" font-size="11.00" fill="#000000">3 &gt;</text>
</a>
</g>
</g>
<!-- ciclo_aulas&#45;&gt;sedes -->
<g id="edge3" class="edge">
<title>ciclo_aulas:w&#45;&gt;sedes:e</title>
<path fill="none" stroke="#000000" d="M339.6435,-320.2261C287.7636,-298.9558 378.7595,-147.7 303.5,-147.7"/>
<polygon fill="#000000" stroke="#000000" points="346.1162,-321.3414 353.3887,-326.2477 350.0581,-322.0207 354,-322.7 354,-322.7 354,-322.7 350.0581,-322.0207 354.6113,-319.1523 346.1162,-321.3414 346.1162,-321.3414"/>
<ellipse fill="none" stroke="#000000" cx="342.9627" cy="-320.798" rx="3.2" ry="3.2"/>
</g>
<!-- curso_ciclos&#45;&gt;cursos -->
<g id="edge7" class="edge">
<title>curso_ciclos:w&#45;&gt;cursos:e</title>
<path fill="none" stroke="#000000" d="M166.2835,-467.6924C126.5772,-447.0135 193.2941,-326.7 131.5,-326.7"/>
<polygon fill="#000000" stroke="#000000" points="172.6732,-469.0441 179.7549,-474.222 176.5866,-469.8721 180.5,-470.7 180.5,-470.7 180.5,-470.7 176.5866,-469.8721 181.2451,-467.178 172.6732,-469.0441 172.6732,-469.0441"/>
<ellipse fill="none" stroke="#000000" cx="169.5425" cy="-468.3818" rx="3.2" ry="3.2"/>
</g>
<!-- ciclo_profesores -->
<g id="node5" class="node">
<title>ciclo_profesores</title>
<g id="a_node5"><a xlink:href="../../tables/ciclo_profesores.html" xlink:title="ciclo_profesores" target="_top">
<polygon fill="#ffffff" stroke="transparent" points="625,-422.2 625,-571.2 748,-571.2 748,-422.2 625,-422.2"/>
<polygon fill="#f5f5f5" stroke="transparent" points="625.5,-547.7 625.5,-570.7 748.5,-570.7 748.5,-547.7 625.5,-547.7"/>
<polygon fill="none" stroke="#000000" points="625.5,-547.7 625.5,-570.7 748.5,-570.7 748.5,-547.7 625.5,-547.7"/>
<text text-anchor="start" x="630.4666" y="-556.8" font-family="Helvetica,sans-Serif" font-weight="bold" font-size="11.00" fill="#000000">ciclo_profesores</text>
<text text-anchor="start" x="714.0219" y="-555.8" font-family="Helvetica,sans-Serif" font-size="11.00" fill="#000000">[table]</text>
<polygon fill="none" stroke="#000000" points="625.5,-525.7 625.5,-547.7 748.5,-547.7 748.5,-525.7 625.5,-525.7"/>
<image xlink:href="../../images/primaryKeys.png" width="11px" height="12px" preserveAspectRatio="xMinYMin meet" x="630.5" y="-542.7"/>
<text text-anchor="start" x="645.5" y="-532.8" font-family="Helvetica,sans-Serif" font-size="11.00" fill="#000000">ciclo_profesor_id</text>
<polygon fill="none" stroke="#000000" points="625.5,-503.7 625.5,-525.7 748.5,-525.7 748.5,-503.7 625.5,-503.7"/>
<image xlink:href="../../images/foreignKeys.png" width="11px" height="12px" preserveAspectRatio="xMinYMin meet" x="630.5" y="-520.7"/>
<text text-anchor="start" x="645.5" y="-510.8" font-family="Helvetica,sans-Serif" font-size="11.00" fill="#000000">profesor_id</text>
<polygon fill="none" stroke="#000000" points="625.5,-481.7 625.5,-503.7 748.5,-503.7 748.5,-481.7 625.5,-481.7"/>
<image xlink:href="../../images/foreignKeys.png" width="11px" height="12px" preserveAspectRatio="xMinYMin meet" x="630.5" y="-498.7"/>
<text text-anchor="start" x="645.5" y="-488.8" font-family="Helvetica,sans-Serif" font-size="11.00" fill="#000000">ciclo_id</text>
<polygon fill="none" stroke="#000000" points="625.5,-459.7 625.5,-481.7 748.5,-481.7 748.5,-459.7 625.5,-459.7"/>
<image xlink:href="../../images/foreignKeys.png" width="11px" height="12px" preserveAspectRatio="xMinYMin meet" x="630.5" y="-476.7"/>
<text text-anchor="start" x="645.5" y="-466.8" font-family="Helvetica,sans-Serif" font-size="11.00" fill="#000000">aula_id</text>
<polygon fill="none" stroke="#000000" points="625.5,-440.7 625.5,-459.7 748.5,-459.7 748.5,-440.7 625.5,-440.7"/>
<text text-anchor="start" x="628.5" y="-446.8" font-family="Helvetica,sans-Serif" font-size="11.00" fill="#000000">...</text>
<polygon fill="#ffffff" stroke="transparent" points="625.5,-421.7 625.5,-440.7 672.5,-440.7 672.5,-421.7 625.5,-421.7"/>
<polygon fill="none" stroke="#000000" points="625.5,-421.7 625.5,-440.7 672.5,-440.7 672.5,-421.7 625.5,-421.7"/>
<text text-anchor="start" x="628.5" y="-427.8" font-family="Helvetica,sans-Serif" font-size="11.00" fill="#000000">&lt; 3</text>
<polygon fill="#ffffff" stroke="transparent" points="672.5,-421.7 672.5,-440.7 723.5,-440.7 723.5,-421.7 672.5,-421.7"/>
<polygon fill="none" stroke="#000000" points="672.5,-421.7 672.5,-440.7 723.5,-440.7 723.5,-421.7 672.5,-421.7"/>
<text text-anchor="start" x="688.1105" y="-427.8" font-family="Helvetica,sans-Serif" font-size="11.00" fill="#000000">0 rows</text>
<polygon fill="#ffffff" stroke="transparent" points="723.5,-421.7 723.5,-440.7 748.5,-440.7 748.5,-421.7 723.5,-421.7"/>
<polygon fill="none" stroke="#000000" points="723.5,-421.7 723.5,-440.7 748.5,-440.7 748.5,-421.7 723.5,-421.7"/>
<text text-anchor="start" x="739.3862" y="-427.8" font-family="Helvetica,sans-Serif" font-size="11.00" fill="#000000"> &#160;</text>
</a>
</g>
</g>
<!-- ciclo_profesores&#45;&gt;ciclo_aulas -->
<g id="edge4" class="edge">
<title>ciclo_profesores:w&#45;&gt;ciclo_aulas:e</title>
<path fill="none" stroke="#000000" d="M611.3809,-466.3409C597.8233,-456.3595 596.4451,-432.7 574,-432.7"/>
<polygon fill="#000000" stroke="#000000" points="617.856,-468.34 624.438,-474.1398 621.678,-469.52 625.5,-470.7 625.5,-470.7 625.5,-470.7 621.678,-469.52 626.562,-467.2602 617.856,-468.34 617.856,-468.34"/>
<ellipse fill="none" stroke="#000000" cx="614.7984" cy="-467.396" rx="3.2" ry="3.2"/>
</g>
<!-- ciclo_profesores&#45;&gt;curso_ciclos -->
<g id="edge5" class="edge">
<title>ciclo_profesores:w&#45;&gt;curso_ciclos:e</title>
<path fill="none" stroke="#000000" d="M610.7949,-492.7C479.7406,-492.7 441.5799,-492.7 303.5,-492.7"/>
<polygon fill="#000000" stroke="#000000" points="617.5,-492.7001 625.5,-496.3 621.5,-492.7 625.5,-492.7 625.5,-492.7 625.5,-492.7 621.5,-492.7 625.5,-489.1 617.5,-492.7001 617.5,-492.7001"/>
<ellipse fill="none" stroke="#000000" cx="614.3" cy="-492.7001" rx="3.2" ry="3.2"/>
</g>
<!-- profesores -->
<g id="node6" class="node">
<title>profesores</title>
<g id="a_node6"><a xlink:href="../../tables/profesores.html" xlink:title="profesores" target="_top">
<polygon fill="#ffffff" stroke="transparent" points="417,-517.2 417,-578.2 511,-578.2 511,-517.2 417,-517.2"/>
<polygon fill="#f5f5f5" stroke="transparent" points="417,-554.7 417,-577.7 511,-577.7 511,-554.7 417,-554.7"/>
<polygon fill="none" stroke="#000000" points="417,-554.7 417,-577.7 511,-577.7 511,-554.7 417,-554.7"/>
<text text-anchor="start" x="421.5224" y="-563.8" font-family="Helvetica,sans-Serif" font-weight="bold" font-size="11.00" fill="#000000">profesores</text>
<text text-anchor="start" x="476.5219" y="-562.8" font-family="Helvetica,sans-Serif" font-size="11.00" fill="#000000">[table]</text>
<polygon fill="none" stroke="#000000" points="417,-535.7 417,-554.7 511,-554.7 511,-535.7 417,-535.7"/>
<text text-anchor="start" x="420" y="-541.8" font-family="Helvetica,sans-Serif" font-size="11.00" fill="#000000">...</text>
<polygon fill="#ffffff" stroke="transparent" points="417,-516.7 417,-535.7 445,-535.7 445,-516.7 417,-516.7"/>
<polygon fill="none" stroke="#000000" points="417,-516.7 417,-535.7 445,-535.7 445,-516.7 417,-516.7"/>
<text text-anchor="start" x="420" y="-522.8" font-family="Helvetica,sans-Serif" font-size="11.00" fill="#000000">&lt; 1</text>
<polygon fill="#ffffff" stroke="transparent" points="445,-516.7 445,-535.7 486,-535.7 486,-516.7 445,-516.7"/>
<polygon fill="none" stroke="#000000" points="445,-516.7 445,-535.7 486,-535.7 486,-516.7 445,-516.7"/>
<text text-anchor="start" x="450.6105" y="-522.8" font-family="Helvetica,sans-Serif" font-size="11.00" fill="#000000">0 rows</text>
<polygon fill="#ffffff" stroke="transparent" points="486,-516.7 486,-535.7 511,-535.7 511,-516.7 486,-516.7"/>
<polygon fill="none" stroke="#000000" points="486,-516.7 486,-535.7 511,-535.7 511,-516.7 486,-516.7"/>
<text text-anchor="start" x="492.4053" y="-522.8" font-family="Helvetica,sans-Serif" font-size="11.00" fill="#000000">1 &gt;</text>
</a>
</g>
</g>
<!-- ciclo_profesores&#45;&gt;profesores -->
<g id="edge6" class="edge">
<title>ciclo_profesores:w&#45;&gt;profesores:e</title>
<path fill="none" stroke="#000000" d="M610.9835,-515.5337C570.6135,-520.3789 558.3665,-544.7 511,-544.7"/>
<polygon fill="#000000" stroke="#000000" points="617.5132,-515.1587 625.7064,-518.2941 621.5066,-514.9294 625.5,-514.7 625.5,-514.7 625.5,-514.7 621.5066,-514.9294 625.2936,-511.1059 617.5132,-515.1587 617.5132,-515.1587"/>
<ellipse fill="none" stroke="#000000" cx="614.3184" cy="-515.3422" rx="3.2" ry="3.2"/>
</g>
<!-- direcciones -->
<g id="node7" class="node">
<title>direcciones</title>
<g id="a_node7"><a xlink:href="../../tables/direcciones.html" xlink:title="direcciones" target="_top">
<polygon fill="#ffffff" stroke="transparent" points="415,-38.2 415,-99.2 513,-99.2 513,-38.2 415,-38.2"/>
<polygon fill="#f5f5f5" stroke="transparent" points="415,-75.7 415,-98.7 513,-98.7 513,-75.7 415,-75.7"/>
<polygon fill="none" stroke="#000000" points="415,-75.7 415,-98.7 513,-98.7 513,-75.7 415,-75.7"/>
<text text-anchor="start" x="419.6909" y="-84.8" font-family="Helvetica,sans-Serif" font-weight="bold" font-size="11.00" fill="#000000">direcciones</text>
<text text-anchor="start" x="478.5219" y="-83.8" font-family="Helvetica,sans-Serif" font-size="11.00" fill="#000000">[table]</text>
<polygon fill="none" stroke="#000000" points="415,-56.7 415,-75.7 513,-75.7 513,-56.7 415,-56.7"/>
<text text-anchor="start" x="418" y="-62.8" font-family="Helvetica,sans-Serif" font-size="11.00" fill="#000000">...</text>
<polygon fill="#ffffff" stroke="transparent" points="415,-37.7 415,-56.7 449,-56.7 449,-37.7 415,-37.7"/>
<polygon fill="none" stroke="#000000" points="415,-37.7 415,-56.7 449,-56.7 449,-37.7 415,-37.7"/>
<text text-anchor="start" x="418" y="-43.8" font-family="Helvetica,sans-Serif" font-size="11.00" fill="#000000">&lt; 3</text>
<polygon fill="#ffffff" stroke="transparent" points="449,-37.7 449,-56.7 494,-56.7 494,-37.7 449,-37.7"/>
<polygon fill="none" stroke="#000000" points="449,-37.7 449,-56.7 494,-56.7 494,-37.7 449,-37.7"/>
<text text-anchor="start" x="458.6105" y="-43.8" font-family="Helvetica,sans-Serif" font-size="11.00" fill="#000000">0 rows</text>
<polygon fill="#ffffff" stroke="transparent" points="494,-37.7 494,-56.7 513,-56.7 513,-37.7 494,-37.7"/>
<polygon fill="none" stroke="#000000" points="494,-37.7 494,-56.7 513,-56.7 513,-37.7 494,-37.7"/>
<text text-anchor="start" x="503.8862" y="-43.8" font-family="Helvetica,sans-Serif" font-size="11.00" fill="#000000"> &#160;</text>
</a>
</g>
</g>
<!-- direcciones&#45;&gt;sedes -->
<g id="edge8" class="edge">
<title>direcciones:w&#45;&gt;sedes:e</title>
<path fill="none" stroke="#000000" d="M400.4414,-67.0491C376.0132,-72.0821 369.0866,-90.4632 344,-109.7 324.4131,-124.7196 328.1827,-147.7 303.5,-147.7"/>
<polygon fill="#000000" stroke="#000000" points="407.0341,-66.4382 415.3322,-69.2846 411.0171,-66.0691 415,-65.7 415,-65.7 415,-65.7 411.0171,-66.0691 414.6678,-62.1154 407.0341,-66.4382 407.0341,-66.4382"/>
<ellipse fill="none" stroke="#000000" cx="403.8478" cy="-66.7335" rx="3.2" ry="3.2"/>
</g>
<!-- leads -->
<g id="node8" class="node">
<title>leads</title>
<g id="a_node8"><a xlink:href="../../tables/leads.html" xlink:title="leads" target="_top">
<polygon fill="#ffffff" stroke="transparent" points="206,-340.2 206,-401.2 277,-401.2 277,-340.2 206,-340.2"/>
<polygon fill="#f5f5f5" stroke="transparent" points="206.5,-377.7 206.5,-400.7 277.5,-400.7 277.5,-377.7 206.5,-377.7"/>
<polygon fill="none" stroke="#000000" points="206.5,-377.7 206.5,-400.7 277.5,-400.7 277.5,-377.7 206.5,-377.7"/>
<text text-anchor="start" x="211.5" y="-386.8" font-family="Helvetica,sans-Serif" font-weight="bold" font-size="11.00" fill="#000000">leads</text>
<text text-anchor="start" x="242.5437" y="-385.8" font-family="Helvetica,sans-Serif" font-size="11.00" fill="#000000">[table]</text>
<polygon fill="none" stroke="#000000" points="206.5,-358.7 206.5,-377.7 277.5,-377.7 277.5,-358.7 206.5,-358.7"/>
<text text-anchor="start" x="209.5" y="-364.8" font-family="Helvetica,sans-Serif" font-size="11.00" fill="#000000">...</text>
<polygon fill="#ffffff" stroke="transparent" points="206.5,-339.7 206.5,-358.7 227.5,-358.7 227.5,-339.7 206.5,-339.7"/>
<polygon fill="none" stroke="#000000" points="206.5,-339.7 206.5,-358.7 227.5,-358.7 227.5,-339.7 206.5,-339.7"/>
<text text-anchor="start" x="209.2027" y="-345.8" font-family="Helvetica,sans-Serif" font-size="11.00" fill="#000000">&lt; 4</text>
<polygon fill="#ffffff" stroke="transparent" points="227.5,-339.7 227.5,-358.7 265.5,-358.7 265.5,-339.7 227.5,-339.7"/>
<polygon fill="none" stroke="#000000" points="227.5,-339.7 227.5,-358.7 265.5,-358.7 265.5,-339.7 227.5,-339.7"/>
<text text-anchor="start" x="230.3053" y="-345.8" font-family="Helvetica,sans-Serif" font-size="11.00" fill="#000000">0 rows</text>
<polygon fill="#ffffff" stroke="transparent" points="265.5,-339.7 265.5,-358.7 277.5,-358.7 277.5,-339.7 265.5,-339.7"/>
<polygon fill="none" stroke="#000000" points="265.5,-339.7 265.5,-358.7 277.5,-358.7 277.5,-339.7 265.5,-339.7"/>
<text text-anchor="start" x="268.4431" y="-345.8" font-family="Helvetica,sans-Serif" font-size="11.00" fill="#000000"> &#160;</text>
</a>
</g>
</g>
<!-- leads&#45;&gt;cursos -->
<g id="edge9" class="edge">
<title>leads:w&#45;&gt;cursos:e</title>
<path fill="none" stroke="#000000" d="M192.2349,-365.3782C167.9797,-356.7049 163.9984,-326.7 131.5,-326.7"/>
<polygon fill="#000000" stroke="#000000" points="198.6039,-366.4148 205.9216,-371.2532 202.552,-367.0574 206.5,-367.7 206.5,-367.7 206.5,-367.7 202.552,-367.0574 207.0784,-364.1468 198.6039,-366.4148 198.6039,-366.4148"/>
<ellipse fill="none" stroke="#000000" cx="195.4455" cy="-365.9007" rx="3.2" ry="3.2"/>
</g>
<!-- oportunidades -->
<g id="node9" class="node">
<title>oportunidades</title>
<g id="a_node9"><a xlink:href="../../tables/oportunidades.html" xlink:title="oportunidades" target="_top">
<polygon fill="#ffffff" stroke="transparent" points="185.5,-258.2 185.5,-319.2 297.5,-319.2 297.5,-258.2 185.5,-258.2"/>
<polygon fill="#f5f5f5" stroke="transparent" points="185.5,-295.7 185.5,-318.7 297.5,-318.7 297.5,-295.7 185.5,-295.7"/>
<polygon fill="none" stroke="#000000" points="185.5,-295.7 185.5,-318.7 297.5,-318.7 297.5,-295.7 185.5,-295.7"/>
<text text-anchor="start" x="190.1531" y="-304.8" font-family="Helvetica,sans-Serif" font-weight="bold" font-size="11.00" fill="#000000">oportunidades</text>
<text text-anchor="start" x="263.0219" y="-303.8" font-family="Helvetica,sans-Serif" font-size="11.00" fill="#000000">[table]</text>
<polygon fill="none" stroke="#000000" points="185.5,-276.7 185.5,-295.7 297.5,-295.7 297.5,-276.7 185.5,-276.7"/>
<text text-anchor="start" x="188.5" y="-282.8" font-family="Helvetica,sans-Serif" font-size="11.00" fill="#000000">...</text>
<polygon fill="#ffffff" stroke="transparent" points="185.5,-257.7 185.5,-276.7 225.5,-276.7 225.5,-257.7 185.5,-257.7"/>
<polygon fill="none" stroke="#000000" points="185.5,-257.7 185.5,-276.7 225.5,-276.7 225.5,-257.7 185.5,-257.7"/>
<text text-anchor="start" x="188.5" y="-263.8" font-family="Helvetica,sans-Serif" font-size="11.00" fill="#000000">&lt; 4</text>
<polygon fill="#ffffff" stroke="transparent" points="225.5,-257.7 225.5,-276.7 266.5,-276.7 266.5,-257.7 225.5,-257.7"/>
<polygon fill="none" stroke="#000000" points="225.5,-257.7 225.5,-276.7 266.5,-276.7 266.5,-257.7 225.5,-257.7"/>
<text text-anchor="start" x="236.6105" y="-263.8" font-family="Helvetica,sans-Serif" font-size="11.00" fill="#000000">1 row</text>
<polygon fill="#ffffff" stroke="transparent" points="266.5,-257.7 266.5,-276.7 297.5,-276.7 297.5,-257.7 266.5,-257.7"/>
<polygon fill="none" stroke="#000000" points="266.5,-257.7 266.5,-276.7 297.5,-276.7 297.5,-257.7 266.5,-257.7"/>
<text text-anchor="start" x="278.9053" y="-263.8" font-family="Helvetica,sans-Serif" font-size="11.00" fill="#000000">1 &gt;</text>
</a>
</g>
</g>
<!-- oportunidades&#45;&gt;cursos -->
<g id="edge10" class="edge">
<title>oportunidades:w&#45;&gt;cursos:e</title>
<path fill="none" stroke="#000000" d="M171.4668,-289.7811C156.4259,-300.1516 155.7483,-326.7 131.5,-326.7"/>
<polygon fill="#000000" stroke="#000000" points="177.8183,-287.934 186.5053,-289.1568 181.6591,-286.817 185.5,-285.7 185.5,-285.7 185.5,-285.7 181.6591,-286.817 184.4947,-282.2432 177.8183,-287.934 177.8183,-287.934"/>
<ellipse fill="none" stroke="#000000" cx="174.7456" cy="-288.8277" rx="3.2" ry="3.2"/>
</g>
<!-- telefonos -->
<g id="node10" class="node">
<title>telefonos</title>
<g id="a_node10"><a xlink:href="../../tables/telefonos.html" xlink:title="telefonos" target="_top">
<polygon fill="#ffffff" stroke="transparent" points="420.5,-120.2 420.5,-181.2 507.5,-181.2 507.5,-120.2 420.5,-120.2"/>
<polygon fill="#f5f5f5" stroke="transparent" points="421,-157.7 421,-180.7 508,-180.7 508,-157.7 421,-157.7"/>
<polygon fill="none" stroke="#000000" points="421,-157.7 421,-180.7 508,-180.7 508,-157.7 421,-157.7"/>
<text text-anchor="start" x="425.6854" y="-166.8" font-family="Helvetica,sans-Serif" font-weight="bold" font-size="11.00" fill="#000000">telefonos</text>
<text text-anchor="start" x="473.5219" y="-165.8" font-family="Helvetica,sans-Serif" font-size="11.00" fill="#000000">[table]</text>
<polygon fill="none" stroke="#000000" points="421,-138.7 421,-157.7 508,-157.7 508,-138.7 421,-138.7"/>
<text text-anchor="start" x="424" y="-144.8" font-family="Helvetica,sans-Serif" font-size="11.00" fill="#000000">...</text>
<polygon fill="#ffffff" stroke="transparent" points="421,-119.7 421,-138.7 450,-138.7 450,-119.7 421,-119.7"/>
<polygon fill="none" stroke="#000000" points="421,-119.7 421,-138.7 450,-138.7 450,-119.7 421,-119.7"/>
<text text-anchor="start" x="424" y="-125.8" font-family="Helvetica,sans-Serif" font-size="11.00" fill="#000000">&lt; 2</text>
<polygon fill="#ffffff" stroke="transparent" points="450,-119.7 450,-138.7 492,-138.7 492,-119.7 450,-119.7"/>
<polygon fill="none" stroke="#000000" points="450,-119.7 450,-138.7 492,-138.7 492,-119.7 450,-119.7"/>
<text text-anchor="start" x="456.6105" y="-125.8" font-family="Helvetica,sans-Serif" font-size="11.00" fill="#000000">0 rows</text>
<polygon fill="#ffffff" stroke="transparent" points="492,-119.7 492,-138.7 508,-138.7 508,-119.7 492,-119.7"/>
<polygon fill="none" stroke="#000000" points="492,-119.7 492,-138.7 508,-138.7 508,-119.7 492,-119.7"/>
<text text-anchor="start" x="498.8862" y="-125.8" font-family="Helvetica,sans-Serif" font-size="11.00" fill="#000000"> &#160;</text>
</a>
</g>
</g>
<!-- telefonos&#45;&gt;sedes -->
<g id="edge11" class="edge">
<title>telefonos:w&#45;&gt;sedes:e</title>
<path fill="none" stroke="#000000" d="M406.483,-147.7C365.7883,-147.7 350.5204,-147.7 303.5,-147.7"/>
<polygon fill="#000000" stroke="#000000" points="413,-147.7001 421,-151.3 417,-147.7 421,-147.7 421,-147.7 421,-147.7 417,-147.7 421,-144.1 413,-147.7001 413,-147.7001"/>
<ellipse fill="none" stroke="#000000" cx="409.8" cy="-147.7001" rx="3.2" ry="3.2"/>
</g>
</g>
</svg>
