<?xml version="1.0" encoding="UTF-8" standalone="no"?>
<!DOCTYPE svg PUBLIC "-//W3C//DTD SVG 1.1//EN"
 "http://www.w3.org/Graphics/SVG/1.1/DTD/svg11.dtd">
<!-- Generated by graphviz version 2.40.1 (20161225.0304)
 -->
<!-- Title: oneDegreeRelationshipsDiagram Pages: 1 -->
<svg width="415pt" height="281pt"
 viewBox="0.00 0.00 415.00 281.20" xmlns="http://www.w3.org/2000/svg" xmlns:xlink="http://www.w3.org/1999/xlink">
<g id="graph0" class="graph" transform="scale(1 1) rotate(0) translate(4 277.2)">
<title>oneDegreeRelationshipsDiagram</title>
<polygon fill="#ffffff" stroke="transparent" points="-4,4 -4,-277.2 411,-277.2 411,4 -4,4"/>
<text text-anchor="middle" x="72.4936" y="-7.3" font-family="Helvetica,sans-Serif" font-size="11.00" fill="#000000">Generated by SchemaSpy</text>
<!-- ciclo_profesores -->
<g id="node1" class="node">
<title>ciclo_profesores</title>
<g id="a_node1"><a xlink:href="../../tables/ciclo_profesores.html" xlink:title="ciclo_profesores" target="_top">
<polygon fill="#ffffff" stroke="transparent" points="180,-84.7 180,-240.7 399,-240.7 399,-84.7 180,-84.7"/>
<polygon fill="#f5f5f5" stroke="transparent" points="182.5,-215.7 182.5,-238.7 397.5,-238.7 397.5,-215.7 182.5,-215.7"/>
<polygon fill="none" stroke="#000000" points="182.5,-215.7 182.5,-238.7 397.5,-238.7 397.5,-215.7 182.5,-215.7"/>
<text text-anchor="start" x="187.5" y="-224.8" font-family="Helvetica,sans-Serif" font-weight="bold" font-size="11.00" fill="#000000">ciclo_profesores</text>
<text text-anchor="start" x="362.5437" y="-223.8" font-family="Helvetica,sans-Serif" font-size="11.00" fill="#000000">[table]</text>
<polygon fill="none" stroke="#000000" points="182.5,-193.7 182.5,-215.7 305.5,-215.7 305.5,-193.7 182.5,-193.7"/>
<image xlink:href="../../images/primaryKeys.png" width="11px" height="12px" preserveAspectRatio="xMinYMin meet" x="187.5" y="-210.7"/>
<text text-anchor="start" x="202.5" y="-200.8" font-family="Helvetica,sans-Serif" font-size="11.00" fill="#000000">ciclo_profesor_id</text>
<polygon fill="none" stroke="#000000" points="305.5,-193.7 305.5,-215.7 397.5,-215.7 397.5,-193.7 305.5,-193.7"/>
<text text-anchor="start" x="308.5" y="-201.4" font-family="Helvetica,sans-Serif" font-size="11.00" fill="#000000">serial[10]</text>
<polygon fill="none" stroke="#000000" points="182.5,-171.7 182.5,-193.7 305.5,-193.7 305.5,-171.7 182.5,-171.7"/>
<image xlink:href="../../images/foreignKeys.png" width="11px" height="12px" preserveAspectRatio="xMinYMin meet" x="187.5" y="-188.7"/>
<text text-anchor="start" x="202.5" y="-178.8" font-family="Helvetica,sans-Serif" font-size="11.00" fill="#000000">profesor_id</text>
<polygon fill="none" stroke="#000000" points="305.5,-171.7 305.5,-193.7 397.5,-193.7 397.5,-171.7 305.5,-171.7"/>
<text text-anchor="start" x="308.5" y="-179.4" font-family="Helvetica,sans-Serif" font-size="11.00" fill="#000000">int4[10]</text>
<polygon fill="none" stroke="#000000" points="182.5,-149.7 182.5,-171.7 305.5,-171.7 305.5,-149.7 182.5,-149.7"/>
<image xlink:href="../../images/foreignKeys.png" width="11px" height="12px" preserveAspectRatio="xMinYMin meet" x="187.5" y="-166.7"/>
<text text-anchor="start" x="202.5" y="-156.8" font-family="Helvetica,sans-Serif" font-size="11.00" fill="#000000">ciclo_id</text>
<polygon fill="none" stroke="#000000" points="305.5,-149.7 305.5,-171.7 397.5,-171.7 397.5,-149.7 305.5,-149.7"/>
<text text-anchor="start" x="308.5" y="-157.4" font-family="Helvetica,sans-Serif" font-size="11.00" fill="#000000">int4[10]</text>
<polygon fill="none" stroke="#000000" points="182.5,-127.7 182.5,-149.7 305.5,-149.7 305.5,-127.7 182.5,-127.7"/>
<text text-anchor="start" x="202.5" y="-134.8" font-family="Helvetica,sans-Serif" font-size="11.00" fill="#000000">fec_modificacion</text>
<polygon fill="none" stroke="#000000" points="305.5,-127.7 305.5,-149.7 397.5,-149.7 397.5,-127.7 305.5,-127.7"/>
<text text-anchor="start" x="308.1023" y="-135.4" font-family="Helvetica,sans-Serif" font-size="11.00" fill="#000000">timestamptz[35,6]</text>
<polygon fill="none" stroke="#000000" points="182.5,-105.7 182.5,-127.7 305.5,-127.7 305.5,-105.7 182.5,-105.7"/>
<text text-anchor="start" x="202.5" y="-112.8" font-family="Helvetica,sans-Serif" font-size="11.00" fill="#000000">usu_modificacion</text>
<polygon fill="none" stroke="#000000" points="305.5,-105.7 305.5,-127.7 397.5,-127.7 397.5,-105.7 305.5,-105.7"/>
<text text-anchor="start" x="308.5" y="-113.4" font-family="Helvetica,sans-Serif" font-size="11.00" fill="#000000">varchar[20]</text>
<polygon fill="#ffffff" stroke="transparent" points="182.5,-86.7 182.5,-105.7 235.5,-105.7 235.5,-86.7 182.5,-86.7"/>
<polygon fill="none" stroke="#000000" points="182.5,-86.7 182.5,-105.7 235.5,-105.7 235.5,-86.7 182.5,-86.7"/>
<text text-anchor="start" x="185.5" y="-92.8" font-family="Helvetica,sans-Serif" font-size="11.00" fill="#000000">&lt; 2</text>
<polygon fill="#ffffff" stroke="transparent" points="235.5,-86.7 235.5,-105.7 305.5,-105.7 305.5,-86.7 235.5,-86.7"/>
<polygon fill="none" stroke="#000000" points="235.5,-86.7 235.5,-105.7 305.5,-105.7 305.5,-86.7 235.5,-86.7"/>
<text text-anchor="start" x="270.1105" y="-92.8" font-family="Helvetica,sans-Serif" font-size="11.00" fill="#000000">0 rows</text>
<polygon fill="#ffffff" stroke="transparent" points="305.5,-86.7 305.5,-105.7 397.5,-105.7 397.5,-86.7 305.5,-86.7"/>
<polygon fill="none" stroke="#000000" points="305.5,-86.7 305.5,-105.7 397.5,-105.7 397.5,-86.7 305.5,-86.7"/>
<text text-anchor="start" x="378.9053" y="-92.8" font-family="Helvetica,sans-Serif" font-size="11.00" fill="#000000">0 &gt;</text>
<polygon fill="none" stroke="#000000" stroke-width="2" points="181,-85.7 181,-239.7 398,-239.7 398,-85.7 181,-85.7"/>
</a>
</g>
</g>
<!-- curso_ciclos -->
<g id="node2" class="node">
<title>curso_ciclos</title>
<g id="a_node2"><a xlink:href="../../tables/curso_ciclos.html" xlink:title="curso_ciclos" target="_top">
<polygon fill="#ffffff" stroke="transparent" points="8,-38.2 8,-143.2 131,-143.2 131,-38.2 8,-38.2"/>
<polygon fill="#f5f5f5" stroke="transparent" points="8.5,-119.7 8.5,-142.7 131.5,-142.7 131.5,-119.7 8.5,-119.7"/>
<polygon fill="none" stroke="#000000" points="8.5,-119.7 8.5,-142.7 131.5,-142.7 131.5,-119.7 8.5,-119.7"/>
<text text-anchor="start" x="13.5" y="-128.8" font-family="Helvetica,sans-Serif" font-weight="bold" font-size="11.00" fill="#000000">curso_ciclos</text>
<text text-anchor="start" x="96.5437" y="-127.8" font-family="Helvetica,sans-Serif" font-size="11.00" fill="#000000">[table]</text>
<polygon fill="none" stroke="#000000" points="8.5,-97.7 8.5,-119.7 131.5,-119.7 131.5,-97.7 8.5,-97.7"/>
<image xlink:href="../../images/primaryKeys.png" width="11px" height="12px" preserveAspectRatio="xMinYMin meet" x="13.5" y="-114.7"/>
<text text-anchor="start" x="28.5" y="-104.8" font-family="Helvetica,sans-Serif" font-size="11.00" fill="#000000">ciclo_id</text>
<polygon fill="none" stroke="#000000" points="8.5,-75.7 8.5,-97.7 131.5,-97.7 131.5,-75.7 8.5,-75.7"/>
<image xlink:href="../../images/foreignKeys.png" width="11px" height="12px" preserveAspectRatio="xMinYMin meet" x="13.5" y="-92.7"/>
<text text-anchor="start" x="28.5" y="-82.8" font-family="Helvetica,sans-Serif" font-size="11.00" fill="#000000">curso_id</text>
<polygon fill="none" stroke="#000000" points="8.5,-56.7 8.5,-75.7 131.5,-75.7 131.5,-56.7 8.5,-56.7"/>
<text text-anchor="start" x="11.5" y="-62.8" font-family="Helvetica,sans-Serif" font-size="11.00" fill="#000000">...</text>
<polygon fill="#ffffff" stroke="transparent" points="8.5,-37.7 8.5,-56.7 50.5,-56.7 50.5,-37.7 8.5,-37.7"/>
<polygon fill="none" stroke="#000000" points="8.5,-37.7 8.5,-56.7 50.5,-56.7 50.5,-37.7 8.5,-37.7"/>
<text text-anchor="start" x="11.5" y="-43.8" font-family="Helvetica,sans-Serif" font-size="11.00" fill="#000000">&lt; 1</text>
<polygon fill="#ffffff" stroke="transparent" points="50.5,-37.7 50.5,-56.7 99.5,-56.7 99.5,-37.7 50.5,-37.7"/>
<polygon fill="none" stroke="#000000" points="50.5,-37.7 50.5,-56.7 99.5,-56.7 99.5,-37.7 50.5,-37.7"/>
<text text-anchor="start" x="64.1105" y="-43.8" font-family="Helvetica,sans-Serif" font-size="11.00" fill="#000000">0 rows</text>
<polygon fill="#ffffff" stroke="transparent" points="99.5,-37.7 99.5,-56.7 131.5,-56.7 131.5,-37.7 99.5,-37.7"/>
<polygon fill="none" stroke="#000000" points="99.5,-37.7 99.5,-56.7 131.5,-56.7 131.5,-37.7 99.5,-37.7"/>
<text text-anchor="start" x="112.9053" y="-43.8" font-family="Helvetica,sans-Serif" font-size="11.00" fill="#000000">1 &gt;</text>
</a>
</g>
</g>
<!-- ciclo_profesores&#45;&gt;curso_ciclos -->
<g id="edge1" class="edge">
<title>ciclo_profesores:w&#45;&gt;curso_ciclos:e</title>
<path fill="none" stroke="#000000" d="M168.5468,-155.9012C153.661,-143.0281 157.8017,-108.7 131.5,-108.7"/>
<polygon fill="#000000" stroke="#000000" points="174.9349,-158.0982 181.3292,-164.1043 178.7175,-159.3991 182.5,-160.7 182.5,-160.7 182.5,-160.7 178.7175,-159.3991 183.6708,-157.2957 174.9349,-158.0982 174.9349,-158.0982"/>
<ellipse fill="none" stroke="#000000" cx="171.9089" cy="-157.0574" rx="3.2" ry="3.2"/>
</g>
<!-- profesores -->
<g id="node3" class="node">
<title>profesores</title>
<g id="a_node3"><a xlink:href="../../tables/profesores.html" xlink:title="profesores" target="_top">
<polygon fill="#ffffff" stroke="transparent" points="8,-164.2 8,-269.2 131,-269.2 131,-164.2 8,-164.2"/>
<polygon fill="#f5f5f5" stroke="transparent" points="8.5,-245.7 8.5,-268.7 131.5,-268.7 131.5,-245.7 8.5,-245.7"/>
<polygon fill="none" stroke="#000000" points="8.5,-245.7 8.5,-268.7 131.5,-268.7 131.5,-245.7 8.5,-245.7"/>
<text text-anchor="start" x="13.5" y="-254.8" font-family="Helvetica,sans-Serif" font-weight="bold" font-size="11.00" fill="#000000">profesores</text>
<text text-anchor="start" x="96.5437" y="-253.8" font-family="Helvetica,sans-Serif" font-size="11.00" fill="#000000">[table]</text>
<polygon fill="none" stroke="#000000" points="8.5,-223.7 8.5,-245.7 131.5,-245.7 131.5,-223.7 8.5,-223.7"/>
<image xlink:href="../../images/primaryKeys.png" width="11px" height="12px" preserveAspectRatio="xMinYMin meet" x="13.5" y="-240.7"/>
<text text-anchor="start" x="28.5" y="-230.8" font-family="Helvetica,sans-Serif" font-size="11.00" fill="#000000">profesor_id</text>
<polygon fill="none" stroke="#000000" points="8.5,-201.7 8.5,-223.7 131.5,-223.7 131.5,-201.7 8.5,-201.7"/>
<image xlink:href="../../images/foreignKeys.png" width="11px" height="12px" preserveAspectRatio="xMinYMin meet" x="13.5" y="-218.7"/>
<text text-anchor="start" x="28.5" y="-208.8" font-family="Helvetica,sans-Serif" font-size="11.00" fill="#000000">persona_id</text>
<polygon fill="none" stroke="#000000" points="8.5,-182.7 8.5,-201.7 131.5,-201.7 131.5,-182.7 8.5,-182.7"/>
<text text-anchor="start" x="11.5" y="-188.8" font-family="Helvetica,sans-Serif" font-size="11.00" fill="#000000">...</text>
<polygon fill="#ffffff" stroke="transparent" points="8.5,-163.7 8.5,-182.7 50.5,-182.7 50.5,-163.7 8.5,-163.7"/>
<polygon fill="none" stroke="#000000" points="8.5,-163.7 8.5,-182.7 50.5,-182.7 50.5,-163.7 8.5,-163.7"/>
<text text-anchor="start" x="11.5" y="-169.8" font-family="Helvetica,sans-Serif" font-size="11.00" fill="#000000">&lt; 1</text>
<polygon fill="#ffffff" stroke="transparent" points="50.5,-163.7 50.5,-182.7 99.5,-182.7 99.5,-163.7 50.5,-163.7"/>
<polygon fill="none" stroke="#000000" points="50.5,-163.7 50.5,-182.7 99.5,-182.7 99.5,-163.7 50.5,-163.7"/>
<text text-anchor="start" x="64.1105" y="-169.8" font-family="Helvetica,sans-Serif" font-size="11.00" fill="#000000">0 rows</text>
<polygon fill="#ffffff" stroke="transparent" points="99.5,-163.7 99.5,-182.7 131.5,-182.7 131.5,-163.7 99.5,-163.7"/>
<polygon fill="none" stroke="#000000" points="99.5,-163.7 99.5,-182.7 131.5,-182.7 131.5,-163.7 99.5,-163.7"/>
<text text-anchor="start" x="112.9053" y="-169.8" font-family="Helvetica,sans-Serif" font-size="11.00" fill="#000000">1 &gt;</text>
</a>
</g>
</g>
<!-- ciclo_profesores&#45;&gt;profesores -->
<g id="edge2" class="edge">
<title>ciclo_profesores:w&#45;&gt;profesores:e</title>
<path fill="none" stroke="#000000" d="M168.5468,-187.4988C153.661,-200.3719 157.8017,-234.7 131.5,-234.7"/>
<polygon fill="#000000" stroke="#000000" points="174.9349,-185.3018 183.6708,-186.1043 178.7175,-184.0009 182.5,-182.7 182.5,-182.7 182.5,-182.7 178.7175,-184.0009 181.3292,-179.2957 174.9349,-185.3018 174.9349,-185.3018"/>
<ellipse fill="none" stroke="#000000" cx="171.9089" cy="-186.3426" rx="3.2" ry="3.2"/>
</g>
</g>
</svg>
