<?xml version="1.0" encoding="UTF-8" standalone="no"?>
<!DOCTYPE svg PUBLIC "-//W3C//DTD SVG 1.1//EN"
 "http://www.w3.org/Graphics/SVG/1.1/DTD/svg11.dtd">
<!-- Generated by graphviz version 2.40.1 (20161225.0304)
 -->
<!-- Title: oneDegreeRelationshipsDiagram Pages: 1 -->
<svg width="764pt" height="400pt"
 viewBox="0.00 0.00 764.00 399.70" xmlns="http://www.w3.org/2000/svg" xmlns:xlink="http://www.w3.org/1999/xlink">
<g id="graph0" class="graph" transform="scale(1 1) rotate(0) translate(4 395.7)">
<title>oneDegreeRelationshipsDiagram</title>
<polygon fill="#ffffff" stroke="transparent" points="-4,4 -4,-395.7 760,-395.7 760,4 -4,4"/>
<text text-anchor="middle" x="72.4936" y="-7.3" font-family="Helvetica,sans-Serif" font-size="11.00" fill="#000000">Generated by SchemaSpy</text>
<!-- ciclo_aulas -->
<g id="node1" class="node">
<title>ciclo_aulas</title>
<g id="a_node1"><a xlink:href="../../tables/ciclo_aulas.html" xlink:title="ciclo_aulas" target="_top">
<polygon fill="#ffffff" stroke="transparent" points="352,-38.2 352,-304.2 576,-304.2 576,-38.2 352,-38.2"/>
<polygon fill="#f5f5f5" stroke="transparent" points="354,-279.2 354,-302.2 574,-302.2 574,-279.2 354,-279.2"/>
<polygon fill="none" stroke="#000000" points="354,-279.2 354,-302.2 574,-302.2 574,-279.2 354,-279.2"/>
<text text-anchor="start" x="359" y="-288.3" font-family="Helvetica,sans-Serif" font-weight="bold" font-size="11.00" fill="#000000">ciclo_aulas</text>
<text text-anchor="start" x="539.0437" y="-287.3" font-family="Helvetica,sans-Serif" font-size="11.00" fill="#000000">[table]</text>
<polygon fill="none" stroke="#000000" points="354,-257.2 354,-279.2 477,-279.2 477,-257.2 354,-257.2"/>
<image xlink:href="../../images/primaryKeys.png" width="11px" height="12px" preserveAspectRatio="xMinYMin meet" x="359" y="-274.2"/>
<text text-anchor="start" x="374" y="-264.3" font-family="Helvetica,sans-Serif" font-size="11.00" fill="#000000">aula_id</text>
<polygon fill="none" stroke="#000000" points="477,-257.2 477,-279.2 574,-279.2 574,-257.2 477,-257.2"/>
<text text-anchor="start" x="480" y="-264.9" font-family="Helvetica,sans-Serif" font-size="11.00" fill="#000000">serial[10]</text>
<polygon fill="none" stroke="#000000" points="354,-235.2 354,-257.2 477,-257.2 477,-235.2 354,-235.2"/>
<text text-anchor="start" x="374" y="-242.3" font-family="Helvetica,sans-Serif" font-size="11.00" fill="#000000">hor_inicio</text>
<polygon fill="none" stroke="#000000" points="477,-235.2 477,-257.2 574,-257.2 574,-235.2 477,-235.2"/>
<text text-anchor="start" x="480" y="-242.9" font-family="Helvetica,sans-Serif" font-size="11.00" fill="#000000">time[15,6]</text>
<polygon fill="none" stroke="#000000" points="354,-213.2 354,-235.2 477,-235.2 477,-213.2 354,-213.2"/>
<text text-anchor="start" x="374" y="-220.3" font-family="Helvetica,sans-Serif" font-size="11.00" fill="#000000">hor_fin</text>
<polygon fill="none" stroke="#000000" points="477,-213.2 477,-235.2 574,-235.2 574,-213.2 477,-213.2"/>
<text text-anchor="start" x="480" y="-220.9" font-family="Helvetica,sans-Serif" font-size="11.00" fill="#000000">time[15,6]</text>
<polygon fill="none" stroke="#000000" points="354,-191.2 354,-213.2 477,-213.2 477,-191.2 354,-191.2"/>
<text text-anchor="start" x="374" y="-198.3" font-family="Helvetica,sans-Serif" font-size="11.00" fill="#000000">dias</text>
<polygon fill="none" stroke="#000000" points="477,-191.2 477,-213.2 574,-213.2 574,-191.2 477,-191.2"/>
<text text-anchor="start" x="479.9468" y="-198.9" font-family="Helvetica,sans-Serif" font-size="11.00" fill="#000000">_text[2147483647]</text>
<polygon fill="none" stroke="#000000" points="354,-169.2 354,-191.2 477,-191.2 477,-169.2 354,-169.2"/>
<text text-anchor="start" x="374" y="-176.3" font-family="Helvetica,sans-Serif" font-size="11.00" fill="#000000">cupo_total</text>
<polygon fill="none" stroke="#000000" points="477,-169.2 477,-191.2 574,-191.2 574,-169.2 477,-169.2"/>
<text text-anchor="start" x="480" y="-176.9" font-family="Helvetica,sans-Serif" font-size="11.00" fill="#000000">int4[10]</text>
<polygon fill="none" stroke="#000000" points="354,-147.2 354,-169.2 477,-169.2 477,-147.2 354,-147.2"/>
<image xlink:href="../../images/foreignKeys.png" width="11px" height="12px" preserveAspectRatio="xMinYMin meet" x="359" y="-164.2"/>
<text text-anchor="start" x="374" y="-154.3" font-family="Helvetica,sans-Serif" font-size="11.00" fill="#000000">sede_id</text>
<polygon fill="none" stroke="#000000" points="477,-147.2 477,-169.2 574,-169.2 574,-147.2 477,-147.2"/>
<text text-anchor="start" x="480" y="-154.9" font-family="Helvetica,sans-Serif" font-size="11.00" fill="#000000">int4[10]</text>
<polygon fill="none" stroke="#000000" points="354,-125.2 354,-147.2 477,-147.2 477,-125.2 354,-125.2"/>
<image xlink:href="../../images/foreignKeys.png" width="11px" height="12px" preserveAspectRatio="xMinYMin meet" x="359" y="-142.2"/>
<text text-anchor="start" x="374" y="-132.3" font-family="Helvetica,sans-Serif" font-size="11.00" fill="#000000">ciclo_id</text>
<polygon fill="none" stroke="#000000" points="477,-125.2 477,-147.2 574,-147.2 574,-125.2 477,-125.2"/>
<text text-anchor="start" x="480" y="-132.9" font-family="Helvetica,sans-Serif" font-size="11.00" fill="#000000">int4[10]</text>
<polygon fill="none" stroke="#000000" points="354,-103.2 354,-125.2 477,-125.2 477,-103.2 354,-103.2"/>
<image xlink:href="../../images/foreignKeys.png" width="11px" height="12px" preserveAspectRatio="xMinYMin meet" x="359" y="-120.2"/>
<text text-anchor="start" x="374" y="-110.3" font-family="Helvetica,sans-Serif" font-size="11.00" fill="#000000">curso_id</text>
<polygon fill="none" stroke="#000000" points="477,-103.2 477,-125.2 574,-125.2 574,-103.2 477,-103.2"/>
<text text-anchor="start" x="480" y="-110.9" font-family="Helvetica,sans-Serif" font-size="11.00" fill="#000000">int4[10]</text>
<polygon fill="none" stroke="#000000" points="354,-81.2 354,-103.2 477,-103.2 477,-81.2 354,-81.2"/>
<text text-anchor="start" x="374" y="-88.3" font-family="Helvetica,sans-Serif" font-size="11.00" fill="#000000">fec_modificacion</text>
<polygon fill="none" stroke="#000000" points="477,-81.2 477,-103.2 574,-103.2 574,-81.2 477,-81.2"/>
<text text-anchor="start" x="480" y="-88.9" font-family="Helvetica,sans-Serif" font-size="11.00" fill="#000000">timestamptz[35,6]</text>
<polygon fill="none" stroke="#000000" points="354,-59.2 354,-81.2 477,-81.2 477,-59.2 354,-59.2"/>
<text text-anchor="start" x="374" y="-66.3" font-family="Helvetica,sans-Serif" font-size="11.00" fill="#000000">usu_modificacion</text>
<polygon fill="none" stroke="#000000" points="477,-59.2 477,-81.2 574,-81.2 574,-59.2 477,-59.2"/>
<text text-anchor="start" x="480" y="-66.9" font-family="Helvetica,sans-Serif" font-size="11.00" fill="#000000">varchar[20]</text>
<polygon fill="#ffffff" stroke="transparent" points="354,-40.2 354,-59.2 407,-59.2 407,-40.2 354,-40.2"/>
<polygon fill="none" stroke="#000000" points="354,-40.2 354,-59.2 407,-59.2 407,-40.2 354,-40.2"/>
<text text-anchor="start" x="357" y="-46.3" font-family="Helvetica,sans-Serif" font-size="11.00" fill="#000000">&lt; 3</text>
<polygon fill="#ffffff" stroke="transparent" points="407,-40.2 407,-59.2 477,-59.2 477,-40.2 407,-40.2"/>
<polygon fill="none" stroke="#000000" points="407,-40.2 407,-59.2 477,-59.2 477,-40.2 407,-40.2"/>
<text text-anchor="start" x="441.6105" y="-46.3" font-family="Helvetica,sans-Serif" font-size="11.00" fill="#000000">0 rows</text>
<polygon fill="#ffffff" stroke="transparent" points="477,-40.2 477,-59.2 574,-59.2 574,-40.2 477,-40.2"/>
<polygon fill="none" stroke="#000000" points="477,-40.2 477,-59.2 574,-59.2 574,-40.2 477,-40.2"/>
<text text-anchor="start" x="555.4053" y="-46.3" font-family="Helvetica,sans-Serif" font-size="11.00" fill="#000000">1 &gt;</text>
<polygon fill="none" stroke="#000000" stroke-width="2" points="353,-39.2 353,-303.2 575,-303.2 575,-39.2 353,-39.2"/>
</a>
</g>
</g>
<!-- curso_ciclos -->
<g id="node2" class="node">
<title>curso_ciclos</title>
<g id="a_node2"><a xlink:href="../../tables/curso_ciclos.html" xlink:title="curso_ciclos" target="_top">
<polygon fill="#ffffff" stroke="transparent" points="180,-228.7 180,-333.7 303,-333.7 303,-228.7 180,-228.7"/>
<polygon fill="#f5f5f5" stroke="transparent" points="180.5,-310.2 180.5,-333.2 303.5,-333.2 303.5,-310.2 180.5,-310.2"/>
<polygon fill="none" stroke="#000000" points="180.5,-310.2 180.5,-333.2 303.5,-333.2 303.5,-310.2 180.5,-310.2"/>
<text text-anchor="start" x="185.5" y="-319.3" font-family="Helvetica,sans-Serif" font-weight="bold" font-size="11.00" fill="#000000">curso_ciclos</text>
<text text-anchor="start" x="268.5437" y="-318.3" font-family="Helvetica,sans-Serif" font-size="11.00" fill="#000000">[table]</text>
<polygon fill="none" stroke="#000000" points="180.5,-288.2 180.5,-310.2 303.5,-310.2 303.5,-288.2 180.5,-288.2"/>
<image xlink:href="../../images/primaryKeys.png" width="11px" height="12px" preserveAspectRatio="xMinYMin meet" x="185.5" y="-305.2"/>
<text text-anchor="start" x="200.5" y="-295.3" font-family="Helvetica,sans-Serif" font-size="11.00" fill="#000000">ciclo_id</text>
<polygon fill="none" stroke="#000000" points="180.5,-266.2 180.5,-288.2 303.5,-288.2 303.5,-266.2 180.5,-266.2"/>
<image xlink:href="../../images/foreignKeys.png" width="11px" height="12px" preserveAspectRatio="xMinYMin meet" x="185.5" y="-283.2"/>
<text text-anchor="start" x="200.5" y="-273.3" font-family="Helvetica,sans-Serif" font-size="11.00" fill="#000000">curso_id</text>
<polygon fill="none" stroke="#000000" points="180.5,-247.2 180.5,-266.2 303.5,-266.2 303.5,-247.2 180.5,-247.2"/>
<text text-anchor="start" x="183.5" y="-253.3" font-family="Helvetica,sans-Serif" font-size="11.00" fill="#000000">...</text>
<polygon fill="#ffffff" stroke="transparent" points="180.5,-228.2 180.5,-247.2 222.5,-247.2 222.5,-228.2 180.5,-228.2"/>
<polygon fill="none" stroke="#000000" points="180.5,-228.2 180.5,-247.2 222.5,-247.2 222.5,-228.2 180.5,-228.2"/>
<text text-anchor="start" x="183.5" y="-234.3" font-family="Helvetica,sans-Serif" font-size="11.00" fill="#000000">&lt; 1</text>
<polygon fill="#ffffff" stroke="transparent" points="222.5,-228.2 222.5,-247.2 271.5,-247.2 271.5,-228.2 222.5,-228.2"/>
<polygon fill="none" stroke="#000000" points="222.5,-228.2 222.5,-247.2 271.5,-247.2 271.5,-228.2 222.5,-228.2"/>
<text text-anchor="start" x="236.1105" y="-234.3" font-family="Helvetica,sans-Serif" font-size="11.00" fill="#000000">0 rows</text>
<polygon fill="#ffffff" stroke="transparent" points="271.5,-228.2 271.5,-247.2 303.5,-247.2 303.5,-228.2 271.5,-228.2"/>
<polygon fill="none" stroke="#000000" points="271.5,-228.2 271.5,-247.2 303.5,-247.2 303.5,-228.2 271.5,-228.2"/>
<text text-anchor="start" x="284.9053" y="-234.3" font-family="Helvetica,sans-Serif" font-size="11.00" fill="#000000">2 &gt;</text>
</a>
</g>
</g>
<!-- ciclo_aulas&#45;&gt;curso_ciclos -->
<g id="edge1" class="edge">
<title>ciclo_aulas:w&#45;&gt;curso_ciclos:e</title>
<path fill="none" stroke="#000000" d="M339.5939,-138.8932C292.5459,-160.0863 373.5646,-299.2 303.5,-299.2"/>
<polygon fill="#000000" stroke="#000000" points="346.1362,-137.6702 354.6616,-139.7387 350.0681,-136.9351 354,-136.2 354,-136.2 354,-136.2 350.0681,-136.9351 353.3384,-132.6613 346.1362,-137.6702 346.1362,-137.6702"/>
<ellipse fill="none" stroke="#000000" cx="342.9907" cy="-138.2582" rx="3.2" ry="3.2"/>
</g>
<!-- cursos -->
<g id="node3" class="node">
<title>cursos</title>
<g id="a_node3"><a xlink:href="../../tables/cursos.html" xlink:title="cursos" target="_top">
<polygon fill="#ffffff" stroke="transparent" points="8,-139.7 8,-222.7 131,-222.7 131,-139.7 8,-139.7"/>
<polygon fill="#f5f5f5" stroke="transparent" points="8.5,-199.2 8.5,-222.2 131.5,-222.2 131.5,-199.2 8.5,-199.2"/>
<polygon fill="none" stroke="#000000" points="8.5,-199.2 8.5,-222.2 131.5,-222.2 131.5,-199.2 8.5,-199.2"/>
<text text-anchor="start" x="13.5" y="-208.3" font-family="Helvetica,sans-Serif" font-weight="bold" font-size="11.00" fill="#000000">cursos</text>
<text text-anchor="start" x="96.5437" y="-207.3" font-family="Helvetica,sans-Serif" font-size="11.00" fill="#000000">[table]</text>
<polygon fill="none" stroke="#000000" points="8.5,-177.2 8.5,-199.2 131.5,-199.2 131.5,-177.2 8.5,-177.2"/>
<image xlink:href="../../images/primaryKeys.png" width="11px" height="12px" preserveAspectRatio="xMinYMin meet" x="13.5" y="-194.2"/>
<text text-anchor="start" x="28.5" y="-184.3" font-family="Helvetica,sans-Serif" font-size="11.00" fill="#000000">curso_id</text>
<polygon fill="none" stroke="#000000" points="8.5,-158.2 8.5,-177.2 131.5,-177.2 131.5,-158.2 8.5,-158.2"/>
<text text-anchor="start" x="11.5" y="-164.3" font-family="Helvetica,sans-Serif" font-size="11.00" fill="#000000">...</text>
<polygon fill="#ffffff" stroke="transparent" points="8.5,-139.2 8.5,-158.2 49.5,-158.2 49.5,-139.2 8.5,-139.2"/>
<polygon fill="none" stroke="#000000" points="8.5,-139.2 8.5,-158.2 49.5,-158.2 49.5,-139.2 8.5,-139.2"/>
<text text-anchor="start" x="11.5" y="-145.3" font-family="Helvetica,sans-Serif" font-size="11.00" fill="#000000"> &#160;</text>
<polygon fill="#ffffff" stroke="transparent" points="49.5,-139.2 49.5,-158.2 95.5,-158.2 95.5,-139.2 49.5,-139.2"/>
<polygon fill="none" stroke="#000000" points="49.5,-139.2 49.5,-158.2 95.5,-158.2 95.5,-139.2 49.5,-139.2"/>
<text text-anchor="start" x="65.6105" y="-145.3" font-family="Helvetica,sans-Serif" font-size="11.00" fill="#000000">1 row</text>
<polygon fill="#ffffff" stroke="transparent" points="95.5,-139.2 95.5,-158.2 131.5,-158.2 131.5,-139.2 95.5,-139.2"/>
<polygon fill="none" stroke="#000000" points="95.5,-139.2 95.5,-158.2 131.5,-158.2 131.5,-139.2 95.5,-139.2"/>
<text text-anchor="start" x="112.9053" y="-145.3" font-family="Helvetica,sans-Serif" font-size="11.00" fill="#000000">4 &gt;</text>
</a>
</g>
</g>
<!-- ciclo_aulas&#45;&gt;cursos -->
<g id="edge2" class="edge">
<title>ciclo_aulas:w&#45;&gt;cursos:e</title>
<path fill="none" stroke="#000000" d="M339.3905,-113.7469C269.0217,-109.367 237.2364,-75.5361 172,-114.2 139.7468,-133.3156 168.9924,-188.2 131.5,-188.2"/>
<polygon fill="#000000" stroke="#000000" points="346.0038,-113.952 353.8884,-117.7983 350.0019,-114.076 354,-114.2 354,-114.2 354,-114.2 350.0019,-114.076 354.1116,-110.6017 346.0038,-113.952 346.0038,-113.952"/>
<ellipse fill="none" stroke="#000000" cx="342.8054" cy="-113.8527" rx="3.2" ry="3.2"/>
</g>
<!-- sedes -->
<g id="node4" class="node">
<title>sedes</title>
<g id="a_node4"><a xlink:href="../../tables/sedes.html" xlink:title="sedes" target="_top">
<polygon fill="#ffffff" stroke="transparent" points="180,-124.7 180,-207.7 303,-207.7 303,-124.7 180,-124.7"/>
<polygon fill="#f5f5f5" stroke="transparent" points="180.5,-184.2 180.5,-207.2 303.5,-207.2 303.5,-184.2 180.5,-184.2"/>
<polygon fill="none" stroke="#000000" points="180.5,-184.2 180.5,-207.2 303.5,-207.2 303.5,-184.2 180.5,-184.2"/>
<text text-anchor="start" x="185.5" y="-193.3" font-family="Helvetica,sans-Serif" font-weight="bold" font-size="11.00" fill="#000000">sedes</text>
<text text-anchor="start" x="268.5437" y="-192.3" font-family="Helvetica,sans-Serif" font-size="11.00" fill="#000000">[table]</text>
<polygon fill="none" stroke="#000000" points="180.5,-162.2 180.5,-184.2 303.5,-184.2 303.5,-162.2 180.5,-162.2"/>
<image xlink:href="../../images/primaryKeys.png" width="11px" height="12px" preserveAspectRatio="xMinYMin meet" x="185.5" y="-179.2"/>
<text text-anchor="start" x="200.5" y="-169.3" font-family="Helvetica,sans-Serif" font-size="11.00" fill="#000000">sede_id</text>
<polygon fill="none" stroke="#000000" points="180.5,-143.2 180.5,-162.2 303.5,-162.2 303.5,-143.2 180.5,-143.2"/>
<text text-anchor="start" x="183.5" y="-149.3" font-family="Helvetica,sans-Serif" font-size="11.00" fill="#000000">...</text>
<polygon fill="#ffffff" stroke="transparent" points="180.5,-124.2 180.5,-143.2 218.5,-143.2 218.5,-124.2 180.5,-124.2"/>
<polygon fill="none" stroke="#000000" points="180.5,-124.2 180.5,-143.2 218.5,-143.2 218.5,-124.2 180.5,-124.2"/>
<text text-anchor="start" x="183.5" y="-130.3" font-family="Helvetica,sans-Serif" font-size="11.00" fill="#000000"> &#160;</text>
<polygon fill="#ffffff" stroke="transparent" points="218.5,-124.2 218.5,-143.2 269.5,-143.2 269.5,-124.2 218.5,-124.2"/>
<polygon fill="none" stroke="#000000" points="218.5,-124.2 218.5,-143.2 269.5,-143.2 269.5,-124.2 218.5,-124.2"/>
<text text-anchor="start" x="234.1105" y="-130.3" font-family="Helvetica,sans-Serif" font-size="11.00" fill="#000000">0 rows</text>
<polygon fill="#ffffff" stroke="transparent" points="269.5,-124.2 269.5,-143.2 303.5,-143.2 303.5,-124.2 269.5,-124.2"/>
<polygon fill="none" stroke="#000000" points="269.5,-124.2 269.5,-143.2 303.5,-143.2 303.5,-124.2 269.5,-124.2"/>
<text text-anchor="start" x="284.9053" y="-130.3" font-family="Helvetica,sans-Serif" font-size="11.00" fill="#000000">3 &gt;</text>
</a>
</g>
</g>
<!-- ciclo_aulas&#45;&gt;sedes -->
<g id="edge3" class="edge">
<title>ciclo_aulas:w&#45;&gt;sedes:e</title>
<path fill="none" stroke="#000000" d="M339.5243,-160.5438C327.5162,-164.7625 321.0602,-173.2 303.5,-173.2"/>
<polygon fill="#000000" stroke="#000000" points="346.1028,-159.4787 354.5754,-161.7537 350.0514,-158.8393 354,-158.2 354,-158.2 354,-158.2 350.0514,-158.8393 353.4246,-154.6463 346.1028,-159.4787 346.1028,-159.4787"/>
<ellipse fill="none" stroke="#000000" cx="342.944" cy="-159.9901" rx="3.2" ry="3.2"/>
</g>
<!-- curso_ciclos&#45;&gt;cursos -->
<g id="edge6" class="edge">
<title>curso_ciclos:w&#45;&gt;cursos:e</title>
<path fill="none" stroke="#000000" d="M166.6791,-272.9073C144.7931,-255.1293 170.6573,-188.2 131.5,-188.2"/>
<polygon fill="#000000" stroke="#000000" points="172.86,-274.827 179.4322,-280.638 176.68,-276.0135 180.5,-277.2 180.5,-277.2 180.5,-277.2 176.68,-276.0135 181.5678,-273.762 172.86,-274.827 172.86,-274.827"/>
<ellipse fill="none" stroke="#000000" cx="169.804" cy="-273.8779" rx="3.2" ry="3.2"/>
</g>
<!-- ciclo_profesores -->
<g id="node5" class="node">
<title>ciclo_profesores</title>
<g id="a_node5"><a xlink:href="../../tables/ciclo_profesores.html" xlink:title="ciclo_profesores" target="_top">
<polygon fill="#ffffff" stroke="transparent" points="625,-238.7 625,-387.7 748,-387.7 748,-238.7 625,-238.7"/>
<polygon fill="#f5f5f5" stroke="transparent" points="625.5,-364.2 625.5,-387.2 748.5,-387.2 748.5,-364.2 625.5,-364.2"/>
<polygon fill="none" stroke="#000000" points="625.5,-364.2 625.5,-387.2 748.5,-387.2 748.5,-364.2 625.5,-364.2"/>
<text text-anchor="start" x="630.4666" y="-373.3" font-family="Helvetica,sans-Serif" font-weight="bold" font-size="11.00" fill="#000000">ciclo_profesores</text>
<text text-anchor="start" x="714.0219" y="-372.3" font-family="Helvetica,sans-Serif" font-size="11.00" fill="#000000">[table]</text>
<polygon fill="none" stroke="#000000" points="625.5,-342.2 625.5,-364.2 748.5,-364.2 748.5,-342.2 625.5,-342.2"/>
<image xlink:href="../../images/primaryKeys.png" width="11px" height="12px" preserveAspectRatio="xMinYMin meet" x="630.5" y="-359.2"/>
<text text-anchor="start" x="645.5" y="-349.3" font-family="Helvetica,sans-Serif" font-size="11.00" fill="#000000">ciclo_profesor_id</text>
<polygon fill="none" stroke="#000000" points="625.5,-320.2 625.5,-342.2 748.5,-342.2 748.5,-320.2 625.5,-320.2"/>
<image xlink:href="../../images/foreignKeys.png" width="11px" height="12px" preserveAspectRatio="xMinYMin meet" x="630.5" y="-337.2"/>
<text text-anchor="start" x="645.5" y="-327.3" font-family="Helvetica,sans-Serif" font-size="11.00" fill="#000000">profesor_id</text>
<polygon fill="none" stroke="#000000" points="625.5,-298.2 625.5,-320.2 748.5,-320.2 748.5,-298.2 625.5,-298.2"/>
<image xlink:href="../../images/foreignKeys.png" width="11px" height="12px" preserveAspectRatio="xMinYMin meet" x="630.5" y="-315.2"/>
<text text-anchor="start" x="645.5" y="-305.3" font-family="Helvetica,sans-Serif" font-size="11.00" fill="#000000">ciclo_id</text>
<polygon fill="none" stroke="#000000" points="625.5,-276.2 625.5,-298.2 748.5,-298.2 748.5,-276.2 625.5,-276.2"/>
<image xlink:href="../../images/foreignKeys.png" width="11px" height="12px" preserveAspectRatio="xMinYMin meet" x="630.5" y="-293.2"/>
<text text-anchor="start" x="645.5" y="-283.3" font-family="Helvetica,sans-Serif" font-size="11.00" fill="#000000">aula_id</text>
<polygon fill="none" stroke="#000000" points="625.5,-257.2 625.5,-276.2 748.5,-276.2 748.5,-257.2 625.5,-257.2"/>
<text text-anchor="start" x="628.5" y="-263.3" font-family="Helvetica,sans-Serif" font-size="11.00" fill="#000000">...</text>
<polygon fill="#ffffff" stroke="transparent" points="625.5,-238.2 625.5,-257.2 672.5,-257.2 672.5,-238.2 625.5,-238.2"/>
<polygon fill="none" stroke="#000000" points="625.5,-238.2 625.5,-257.2 672.5,-257.2 672.5,-238.2 625.5,-238.2"/>
<text text-anchor="start" x="628.5" y="-244.3" font-family="Helvetica,sans-Serif" font-size="11.00" fill="#000000">&lt; 3</text>
<polygon fill="#ffffff" stroke="transparent" points="672.5,-238.2 672.5,-257.2 723.5,-257.2 723.5,-238.2 672.5,-238.2"/>
<polygon fill="none" stroke="#000000" points="672.5,-238.2 672.5,-257.2 723.5,-257.2 723.5,-238.2 672.5,-238.2"/>
<text text-anchor="start" x="688.1105" y="-244.3" font-family="Helvetica,sans-Serif" font-size="11.00" fill="#000000">0 rows</text>
<polygon fill="#ffffff" stroke="transparent" points="723.5,-238.2 723.5,-257.2 748.5,-257.2 748.5,-238.2 723.5,-238.2"/>
<polygon fill="none" stroke="#000000" points="723.5,-238.2 723.5,-257.2 748.5,-257.2 748.5,-238.2 723.5,-238.2"/>
<text text-anchor="start" x="739.3862" y="-244.3" font-family="Helvetica,sans-Serif" font-size="11.00" fill="#000000"> &#160;</text>
</a>
</g>
</g>
<!-- ciclo_profesores&#45;&gt;ciclo_aulas -->
<g id="edge4" class="edge">
<title>ciclo_profesores:w&#45;&gt;ciclo_aulas:e</title>
<path fill="none" stroke="#000000" d="M610.9747,-284.3965C598.52,-279.1113 592.4883,-268.2 574,-268.2"/>
<polygon fill="#000000" stroke="#000000" points="617.645,-285.6839 624.8177,-290.7348 621.5725,-286.4419 625.5,-287.2 625.5,-287.2 625.5,-287.2 621.5725,-286.4419 626.1823,-283.6652 617.645,-285.6839 617.645,-285.6839"/>
<ellipse fill="none" stroke="#000000" cx="614.503" cy="-285.0774" rx="3.2" ry="3.2"/>
</g>
<!-- ciclo_profesores&#45;&gt;curso_ciclos -->
<g id="edge5" class="edge">
<title>ciclo_profesores:w&#45;&gt;curso_ciclos:e</title>
<path fill="none" stroke="#000000" d="M611.0696,-310.3728C602.6563,-311.8461 596.6342,-314.2914 584,-315.2 477.6081,-322.8512 448.7848,-335.1481 344,-315.2 324.9877,-311.5806 322.8538,-299.2 303.5,-299.2"/>
<polygon fill="#000000" stroke="#000000" points="617.5263,-309.8481 625.7916,-312.7882 621.5131,-309.524 625.5,-309.2 625.5,-309.2 625.5,-309.2 621.5131,-309.524 625.2084,-305.6118 617.5263,-309.8481 617.5263,-309.8481"/>
<ellipse fill="none" stroke="#000000" cx="614.3368" cy="-310.1073" rx="3.2" ry="3.2"/>
</g>
</g>
</svg>
