<?xml version="1.0" encoding="UTF-8" standalone="no"?>
<!DOCTYPE svg PUBLIC "-//W3C//DTD SVG 1.1//EN"
 "http://www.w3.org/Graphics/SVG/1.1/DTD/svg11.dtd">
<!-- Generated by graphviz version 2.40.1 (20161225.0304)
 -->
<!-- Title: oneDegreeRelationshipsDiagram Pages: 1 -->
<svg width="587pt" height="353pt"
 viewBox="0.00 0.00 587.00 353.20" xmlns="http://www.w3.org/2000/svg" xmlns:xlink="http://www.w3.org/1999/xlink">
<g id="graph0" class="graph" transform="scale(1 1) rotate(0) translate(4 349.2)">
<title>oneDegreeRelationshipsDiagram</title>
<polygon fill="#ffffff" stroke="transparent" points="-4,4 -4,-349.2 583,-349.2 583,4 -4,4"/>
<text text-anchor="middle" x="72.4936" y="-7.3" font-family="Helvetica,sans-Serif" font-size="11.00" fill="#000000">Generated by SchemaSpy</text>
<!-- ciclo_aulas -->
<g id="node1" class="node">
<title>ciclo_aulas</title>
<g id="a_node1"><a xlink:href="../../tables/ciclo_aulas.html" xlink:title="ciclo_aulas" target="_top">
<polygon fill="#ffffff" stroke="transparent" points="180,-38.2 180,-187.2 303,-187.2 303,-38.2 180,-38.2"/>
<polygon fill="#f5f5f5" stroke="transparent" points="180.5,-163.7 180.5,-186.7 303.5,-186.7 303.5,-163.7 180.5,-163.7"/>
<polygon fill="none" stroke="#000000" points="180.5,-163.7 180.5,-186.7 303.5,-186.7 303.5,-163.7 180.5,-163.7"/>
<text text-anchor="start" x="185.5" y="-172.8" font-family="Helvetica,sans-Serif" font-weight="bold" font-size="11.00" fill="#000000">ciclo_aulas</text>
<text text-anchor="start" x="268.5437" y="-171.8" font-family="Helvetica,sans-Serif" font-size="11.00" fill="#000000">[table]</text>
<polygon fill="none" stroke="#000000" points="180.5,-141.7 180.5,-163.7 303.5,-163.7 303.5,-141.7 180.5,-141.7"/>
<image xlink:href="../../images/primaryKeys.png" width="11px" height="12px" preserveAspectRatio="xMinYMin meet" x="185.5" y="-158.7"/>
<text text-anchor="start" x="200.5" y="-148.8" font-family="Helvetica,sans-Serif" font-size="11.00" fill="#000000">aula_id</text>
<polygon fill="none" stroke="#000000" points="180.5,-119.7 180.5,-141.7 303.5,-141.7 303.5,-119.7 180.5,-119.7"/>
<image xlink:href="../../images/foreignKeys.png" width="11px" height="12px" preserveAspectRatio="xMinYMin meet" x="185.5" y="-136.7"/>
<text text-anchor="start" x="200.5" y="-126.8" font-family="Helvetica,sans-Serif" font-size="11.00" fill="#000000">sede_id</text>
<polygon fill="none" stroke="#000000" points="180.5,-97.7 180.5,-119.7 303.5,-119.7 303.5,-97.7 180.5,-97.7"/>
<image xlink:href="../../images/foreignKeys.png" width="11px" height="12px" preserveAspectRatio="xMinYMin meet" x="185.5" y="-114.7"/>
<text text-anchor="start" x="200.5" y="-104.8" font-family="Helvetica,sans-Serif" font-size="11.00" fill="#000000">ciclo_id</text>
<polygon fill="none" stroke="#000000" points="180.5,-75.7 180.5,-97.7 303.5,-97.7 303.5,-75.7 180.5,-75.7"/>
<image xlink:href="../../images/foreignKeys.png" width="11px" height="12px" preserveAspectRatio="xMinYMin meet" x="185.5" y="-92.7"/>
<text text-anchor="start" x="200.5" y="-82.8" font-family="Helvetica,sans-Serif" font-size="11.00" fill="#000000">curso_id</text>
<polygon fill="none" stroke="#000000" points="180.5,-56.7 180.5,-75.7 303.5,-75.7 303.5,-56.7 180.5,-56.7"/>
<text text-anchor="start" x="183.5" y="-62.8" font-family="Helvetica,sans-Serif" font-size="11.00" fill="#000000">...</text>
<polygon fill="#ffffff" stroke="transparent" points="180.5,-37.7 180.5,-56.7 222.5,-56.7 222.5,-37.7 180.5,-37.7"/>
<polygon fill="none" stroke="#000000" points="180.5,-37.7 180.5,-56.7 222.5,-56.7 222.5,-37.7 180.5,-37.7"/>
<text text-anchor="start" x="183.5" y="-43.8" font-family="Helvetica,sans-Serif" font-size="11.00" fill="#000000">&lt; 3</text>
<polygon fill="#ffffff" stroke="transparent" points="222.5,-37.7 222.5,-56.7 271.5,-56.7 271.5,-37.7 222.5,-37.7"/>
<polygon fill="none" stroke="#000000" points="222.5,-37.7 222.5,-56.7 271.5,-56.7 271.5,-37.7 222.5,-37.7"/>
<text text-anchor="start" x="236.1105" y="-43.8" font-family="Helvetica,sans-Serif" font-size="11.00" fill="#000000">0 rows</text>
<polygon fill="#ffffff" stroke="transparent" points="271.5,-37.7 271.5,-56.7 303.5,-56.7 303.5,-37.7 271.5,-37.7"/>
<polygon fill="none" stroke="#000000" points="271.5,-37.7 271.5,-56.7 303.5,-56.7 303.5,-37.7 271.5,-37.7"/>
<text text-anchor="start" x="284.9053" y="-43.8" font-family="Helvetica,sans-Serif" font-size="11.00" fill="#000000">1 &gt;</text>
</a>
</g>
</g>
<!-- curso_ciclos -->
<g id="node2" class="node">
<title>curso_ciclos</title>
<g id="a_node2"><a xlink:href="../../tables/curso_ciclos.html" xlink:title="curso_ciclos" target="_top">
<polygon fill="#ffffff" stroke="transparent" points="8,-89.2 8,-194.2 131,-194.2 131,-89.2 8,-89.2"/>
<polygon fill="#f5f5f5" stroke="transparent" points="8.5,-170.7 8.5,-193.7 131.5,-193.7 131.5,-170.7 8.5,-170.7"/>
<polygon fill="none" stroke="#000000" points="8.5,-170.7 8.5,-193.7 131.5,-193.7 131.5,-170.7 8.5,-170.7"/>
<text text-anchor="start" x="13.5" y="-179.8" font-family="Helvetica,sans-Serif" font-weight="bold" font-size="11.00" fill="#000000">curso_ciclos</text>
<text text-anchor="start" x="96.5437" y="-178.8" font-family="Helvetica,sans-Serif" font-size="11.00" fill="#000000">[table]</text>
<polygon fill="none" stroke="#000000" points="8.5,-148.7 8.5,-170.7 131.5,-170.7 131.5,-148.7 8.5,-148.7"/>
<image xlink:href="../../images/primaryKeys.png" width="11px" height="12px" preserveAspectRatio="xMinYMin meet" x="13.5" y="-165.7"/>
<text text-anchor="start" x="28.5" y="-155.8" font-family="Helvetica,sans-Serif" font-size="11.00" fill="#000000">ciclo_id</text>
<polygon fill="none" stroke="#000000" points="8.5,-126.7 8.5,-148.7 131.5,-148.7 131.5,-126.7 8.5,-126.7"/>
<image xlink:href="../../images/foreignKeys.png" width="11px" height="12px" preserveAspectRatio="xMinYMin meet" x="13.5" y="-143.7"/>
<text text-anchor="start" x="28.5" y="-133.8" font-family="Helvetica,sans-Serif" font-size="11.00" fill="#000000">curso_id</text>
<polygon fill="none" stroke="#000000" points="8.5,-107.7 8.5,-126.7 131.5,-126.7 131.5,-107.7 8.5,-107.7"/>
<text text-anchor="start" x="11.5" y="-113.8" font-family="Helvetica,sans-Serif" font-size="11.00" fill="#000000">...</text>
<polygon fill="#ffffff" stroke="transparent" points="8.5,-88.7 8.5,-107.7 50.5,-107.7 50.5,-88.7 8.5,-88.7"/>
<polygon fill="none" stroke="#000000" points="8.5,-88.7 8.5,-107.7 50.5,-107.7 50.5,-88.7 8.5,-88.7"/>
<text text-anchor="start" x="11.5" y="-94.8" font-family="Helvetica,sans-Serif" font-size="11.00" fill="#000000">&lt; 1</text>
<polygon fill="#ffffff" stroke="transparent" points="50.5,-88.7 50.5,-107.7 99.5,-107.7 99.5,-88.7 50.5,-88.7"/>
<polygon fill="none" stroke="#000000" points="50.5,-88.7 50.5,-107.7 99.5,-107.7 99.5,-88.7 50.5,-88.7"/>
<text text-anchor="start" x="64.1105" y="-94.8" font-family="Helvetica,sans-Serif" font-size="11.00" fill="#000000">0 rows</text>
<polygon fill="#ffffff" stroke="transparent" points="99.5,-88.7 99.5,-107.7 131.5,-107.7 131.5,-88.7 99.5,-88.7"/>
<polygon fill="none" stroke="#000000" points="99.5,-88.7 99.5,-107.7 131.5,-107.7 131.5,-88.7 99.5,-88.7"/>
<text text-anchor="start" x="112.9053" y="-94.8" font-family="Helvetica,sans-Serif" font-size="11.00" fill="#000000">2 &gt;</text>
</a>
</g>
</g>
<!-- ciclo_aulas&#45;&gt;curso_ciclos -->
<g id="edge1" class="edge">
<title>ciclo_aulas:w&#45;&gt;curso_ciclos:e</title>
<path fill="none" stroke="#000000" d="M166.5912,-113.7765C152.7553,-126.6764 156.7939,-159.7 131.5,-159.7"/>
<polygon fill="#000000" stroke="#000000" points="172.9849,-111.4429 181.7343,-112.0818 176.7425,-110.0715 180.5,-108.7 180.5,-108.7 180.5,-108.7 176.7425,-110.0715 179.2657,-105.3182 172.9849,-111.4429 172.9849,-111.4429"/>
<ellipse fill="none" stroke="#000000" cx="169.9789" cy="-112.5401" rx="3.2" ry="3.2"/>
</g>
<!-- ciclo_profesores -->
<g id="node3" class="node">
<title>ciclo_profesores</title>
<g id="a_node3"><a xlink:href="../../tables/ciclo_profesores.html" xlink:title="ciclo_profesores" target="_top">
<polygon fill="#ffffff" stroke="transparent" points="352,-113.7 352,-291.7 571,-291.7 571,-113.7 352,-113.7"/>
<polygon fill="#f5f5f5" stroke="transparent" points="354.5,-266.7 354.5,-289.7 569.5,-289.7 569.5,-266.7 354.5,-266.7"/>
<polygon fill="none" stroke="#000000" points="354.5,-266.7 354.5,-289.7 569.5,-289.7 569.5,-266.7 354.5,-266.7"/>
<text text-anchor="start" x="359.5" y="-275.8" font-family="Helvetica,sans-Serif" font-weight="bold" font-size="11.00" fill="#000000">ciclo_profesores</text>
<text text-anchor="start" x="534.5437" y="-274.8" font-family="Helvetica,sans-Serif" font-size="11.00" fill="#000000">[table]</text>
<polygon fill="none" stroke="#000000" points="354.5,-244.7 354.5,-266.7 477.5,-266.7 477.5,-244.7 354.5,-244.7"/>
<image xlink:href="../../images/primaryKeys.png" width="11px" height="12px" preserveAspectRatio="xMinYMin meet" x="359.5" y="-261.7"/>
<text text-anchor="start" x="374.5" y="-251.8" font-family="Helvetica,sans-Serif" font-size="11.00" fill="#000000">ciclo_profesor_id</text>
<polygon fill="none" stroke="#000000" points="477.5,-244.7 477.5,-266.7 569.5,-266.7 569.5,-244.7 477.5,-244.7"/>
<text text-anchor="start" x="480.5" y="-252.4" font-family="Helvetica,sans-Serif" font-size="11.00" fill="#000000">serial[10]</text>
<polygon fill="none" stroke="#000000" points="354.5,-222.7 354.5,-244.7 477.5,-244.7 477.5,-222.7 354.5,-222.7"/>
<image xlink:href="../../images/foreignKeys.png" width="11px" height="12px" preserveAspectRatio="xMinYMin meet" x="359.5" y="-239.7"/>
<text text-anchor="start" x="374.5" y="-229.8" font-family="Helvetica,sans-Serif" font-size="11.00" fill="#000000">profesor_id</text>
<polygon fill="none" stroke="#000000" points="477.5,-222.7 477.5,-244.7 569.5,-244.7 569.5,-222.7 477.5,-222.7"/>
<text text-anchor="start" x="480.5" y="-230.4" font-family="Helvetica,sans-Serif" font-size="11.00" fill="#000000">int4[10]</text>
<polygon fill="none" stroke="#000000" points="354.5,-200.7 354.5,-222.7 477.5,-222.7 477.5,-200.7 354.5,-200.7"/>
<image xlink:href="../../images/foreignKeys.png" width="11px" height="12px" preserveAspectRatio="xMinYMin meet" x="359.5" y="-217.7"/>
<text text-anchor="start" x="374.5" y="-207.8" font-family="Helvetica,sans-Serif" font-size="11.00" fill="#000000">ciclo_id</text>
<polygon fill="none" stroke="#000000" points="477.5,-200.7 477.5,-222.7 569.5,-222.7 569.5,-200.7 477.5,-200.7"/>
<text text-anchor="start" x="480.5" y="-208.4" font-family="Helvetica,sans-Serif" font-size="11.00" fill="#000000">int4[10]</text>
<polygon fill="none" stroke="#000000" points="354.5,-178.7 354.5,-200.7 477.5,-200.7 477.5,-178.7 354.5,-178.7"/>
<image xlink:href="../../images/foreignKeys.png" width="11px" height="12px" preserveAspectRatio="xMinYMin meet" x="359.5" y="-195.7"/>
<text text-anchor="start" x="374.5" y="-185.8" font-family="Helvetica,sans-Serif" font-size="11.00" fill="#000000">aula_id</text>
<polygon fill="none" stroke="#000000" points="477.5,-178.7 477.5,-200.7 569.5,-200.7 569.5,-178.7 477.5,-178.7"/>
<text text-anchor="start" x="480.5" y="-186.4" font-family="Helvetica,sans-Serif" font-size="11.00" fill="#000000">int4[10]</text>
<polygon fill="none" stroke="#000000" points="354.5,-156.7 354.5,-178.7 477.5,-178.7 477.5,-156.7 354.5,-156.7"/>
<text text-anchor="start" x="374.5" y="-163.8" font-family="Helvetica,sans-Serif" font-size="11.00" fill="#000000">fec_modificacion</text>
<polygon fill="none" stroke="#000000" points="477.5,-156.7 477.5,-178.7 569.5,-178.7 569.5,-156.7 477.5,-156.7"/>
<text text-anchor="start" x="480.1023" y="-164.4" font-family="Helvetica,sans-Serif" font-size="11.00" fill="#000000">timestamptz[35,6]</text>
<polygon fill="none" stroke="#000000" points="354.5,-134.7 354.5,-156.7 477.5,-156.7 477.5,-134.7 354.5,-134.7"/>
<text text-anchor="start" x="374.5" y="-141.8" font-family="Helvetica,sans-Serif" font-size="11.00" fill="#000000">usu_modificacion</text>
<polygon fill="none" stroke="#000000" points="477.5,-134.7 477.5,-156.7 569.5,-156.7 569.5,-134.7 477.5,-134.7"/>
<text text-anchor="start" x="480.5" y="-142.4" font-family="Helvetica,sans-Serif" font-size="11.00" fill="#000000">varchar[20]</text>
<polygon fill="#ffffff" stroke="transparent" points="354.5,-115.7 354.5,-134.7 407.5,-134.7 407.5,-115.7 354.5,-115.7"/>
<polygon fill="none" stroke="#000000" points="354.5,-115.7 354.5,-134.7 407.5,-134.7 407.5,-115.7 354.5,-115.7"/>
<text text-anchor="start" x="357.5" y="-121.8" font-family="Helvetica,sans-Serif" font-size="11.00" fill="#000000">&lt; 3</text>
<polygon fill="#ffffff" stroke="transparent" points="407.5,-115.7 407.5,-134.7 477.5,-134.7 477.5,-115.7 407.5,-115.7"/>
<polygon fill="none" stroke="#000000" points="407.5,-115.7 407.5,-134.7 477.5,-134.7 477.5,-115.7 407.5,-115.7"/>
<text text-anchor="start" x="442.1105" y="-121.8" font-family="Helvetica,sans-Serif" font-size="11.00" fill="#000000">0 rows</text>
<polygon fill="#ffffff" stroke="transparent" points="477.5,-115.7 477.5,-134.7 569.5,-134.7 569.5,-115.7 477.5,-115.7"/>
<polygon fill="none" stroke="#000000" points="477.5,-115.7 477.5,-134.7 569.5,-134.7 569.5,-115.7 477.5,-115.7"/>
<text text-anchor="start" x="550.9053" y="-121.8" font-family="Helvetica,sans-Serif" font-size="11.00" fill="#000000">0 &gt;</text>
<polygon fill="none" stroke="#000000" stroke-width="2" points="353,-114.7 353,-290.7 570,-290.7 570,-114.7 353,-114.7"/>
</a>
</g>
</g>
<!-- ciclo_profesores&#45;&gt;ciclo_aulas -->
<g id="edge2" class="edge">
<title>ciclo_profesores:w&#45;&gt;ciclo_aulas:e</title>
<path fill="none" stroke="#000000" d="M340.5658,-185.4556C327.14,-175.7369 325.5965,-152.7 303.5,-152.7"/>
<polygon fill="#000000" stroke="#000000" points="346.8471,-187.3689 353.451,-193.1438 350.6736,-188.5345 354.5,-189.7 354.5,-189.7 354.5,-189.7 350.6736,-188.5345 355.549,-186.2562 346.8471,-187.3689 346.8471,-187.3689"/>
<ellipse fill="none" stroke="#000000" cx="343.786" cy="-186.4365" rx="3.2" ry="3.2"/>
</g>
<!-- ciclo_profesores&#45;&gt;curso_ciclos -->
<g id="edge3" class="edge">
<title>ciclo_profesores:w&#45;&gt;curso_ciclos:e</title>
<path fill="none" stroke="#000000" d="M339.8623,-211.9032C269.6256,-213.8489 241.7895,-228.4536 172,-197.7 149.4131,-187.7468 156.1827,-159.7 131.5,-159.7"/>
<polygon fill="#000000" stroke="#000000" points="346.5008,-211.8111 354.55,-215.2997 350.5004,-211.7555 354.5,-211.7 354.5,-211.7 354.5,-211.7 350.5004,-211.7555 354.45,-208.1003 346.5008,-211.8111 346.5008,-211.8111"/>
<ellipse fill="none" stroke="#000000" cx="343.3011" cy="-211.8555" rx="3.2" ry="3.2"/>
</g>
<!-- profesores -->
<g id="node4" class="node">
<title>profesores</title>
<g id="a_node4"><a xlink:href="../../tables/profesores.html" xlink:title="profesores" target="_top">
<polygon fill="#ffffff" stroke="transparent" points="180,-236.2 180,-341.2 303,-341.2 303,-236.2 180,-236.2"/>
<polygon fill="#f5f5f5" stroke="transparent" points="180.5,-317.7 180.5,-340.7 303.5,-340.7 303.5,-317.7 180.5,-317.7"/>
<polygon fill="none" stroke="#000000" points="180.5,-317.7 180.5,-340.7 303.5,-340.7 303.5,-317.7 180.5,-317.7"/>
<text text-anchor="start" x="185.5" y="-326.8" font-family="Helvetica,sans-Serif" font-weight="bold" font-size="11.00" fill="#000000">profesores</text>
<text text-anchor="start" x="268.5437" y="-325.8" font-family="Helvetica,sans-Serif" font-size="11.00" fill="#000000">[table]</text>
<polygon fill="none" stroke="#000000" points="180.5,-295.7 180.5,-317.7 303.5,-317.7 303.5,-295.7 180.5,-295.7"/>
<image xlink:href="../../images/primaryKeys.png" width="11px" height="12px" preserveAspectRatio="xMinYMin meet" x="185.5" y="-312.7"/>
<text text-anchor="start" x="200.5" y="-302.8" font-family="Helvetica,sans-Serif" font-size="11.00" fill="#000000">profesor_id</text>
<polygon fill="none" stroke="#000000" points="180.5,-273.7 180.5,-295.7 303.5,-295.7 303.5,-273.7 180.5,-273.7"/>
<image xlink:href="../../images/foreignKeys.png" width="11px" height="12px" preserveAspectRatio="xMinYMin meet" x="185.5" y="-290.7"/>
<text text-anchor="start" x="200.5" y="-280.8" font-family="Helvetica,sans-Serif" font-size="11.00" fill="#000000">persona_id</text>
<polygon fill="none" stroke="#000000" points="180.5,-254.7 180.5,-273.7 303.5,-273.7 303.5,-254.7 180.5,-254.7"/>
<text text-anchor="start" x="183.5" y="-260.8" font-family="Helvetica,sans-Serif" font-size="11.00" fill="#000000">...</text>
<polygon fill="#ffffff" stroke="transparent" points="180.5,-235.7 180.5,-254.7 222.5,-254.7 222.5,-235.7 180.5,-235.7"/>
<polygon fill="none" stroke="#000000" points="180.5,-235.7 180.5,-254.7 222.5,-254.7 222.5,-235.7 180.5,-235.7"/>
<text text-anchor="start" x="183.5" y="-241.8" font-family="Helvetica,sans-Serif" font-size="11.00" fill="#000000">&lt; 1</text>
<polygon fill="#ffffff" stroke="transparent" points="222.5,-235.7 222.5,-254.7 271.5,-254.7 271.5,-235.7 222.5,-235.7"/>
<polygon fill="none" stroke="#000000" points="222.5,-235.7 222.5,-254.7 271.5,-254.7 271.5,-235.7 222.5,-235.7"/>
<text text-anchor="start" x="236.1105" y="-241.8" font-family="Helvetica,sans-Serif" font-size="11.00" fill="#000000">0 rows</text>
<polygon fill="#ffffff" stroke="transparent" points="271.5,-235.7 271.5,-254.7 303.5,-254.7 303.5,-235.7 271.5,-235.7"/>
<polygon fill="none" stroke="#000000" points="271.5,-235.7 271.5,-254.7 303.5,-254.7 303.5,-235.7 271.5,-235.7"/>
<text text-anchor="start" x="284.9053" y="-241.8" font-family="Helvetica,sans-Serif" font-size="11.00" fill="#000000">1 &gt;</text>
</a>
</g>
</g>
<!-- ciclo_profesores&#45;&gt;profesores -->
<g id="edge4" class="edge">
<title>ciclo_profesores:w&#45;&gt;profesores:e</title>
<path fill="none" stroke="#000000" d="M340.6487,-238.2665C321.9288,-254.248 337.0486,-306.7 303.5,-306.7"/>
<polygon fill="#000000" stroke="#000000" points="346.9022,-236.2049 355.6272,-237.119 350.7011,-234.9524 354.5,-233.7 354.5,-233.7 354.5,-233.7 350.7011,-234.9524 353.3728,-230.281 346.9022,-236.2049 346.9022,-236.2049"/>
<ellipse fill="none" stroke="#000000" cx="343.8631" cy="-237.2068" rx="3.2" ry="3.2"/>
</g>
</g>
</svg>
