<?xml version="1.0" encoding="UTF-8" standalone="no"?>
<!DOCTYPE svg PUBLIC "-//W3C//DTD SVG 1.1//EN"
 "http://www.w3.org/Graphics/SVG/1.1/DTD/svg11.dtd">
<!-- Generated by graphviz version 2.40.1 (20161225.0304)
 -->
<!-- Title: twoDegreesRelationshipsDiagram Pages: 1 -->
<svg width="711pt" height="380pt"
 viewBox="0.00 0.00 711.00 380.20" xmlns="http://www.w3.org/2000/svg" xmlns:xlink="http://www.w3.org/1999/xlink">
<g id="graph0" class="graph" transform="scale(1 1) rotate(0) translate(4 376.2)">
<title>twoDegreesRelationshipsDiagram</title>
<polygon fill="#ffffff" stroke="transparent" points="-4,4 -4,-376.2 707,-376.2 707,4 -4,4"/>
<text text-anchor="middle" x="72.4936" y="-7.3" font-family="Helvetica,sans-Serif" font-size="11.00" fill="#000000">Generated by SchemaSpy</text>
<!-- ciclo_aulas -->
<g id="node1" class="node">
<title>ciclo_aulas</title>
<g id="a_node1"><a xlink:href="../../tables/ciclo_aulas.html" xlink:title="ciclo_aulas" target="_top">
<polygon fill="#ffffff" stroke="transparent" points="304,-38.2 304,-187.2 427,-187.2 427,-38.2 304,-38.2"/>
<polygon fill="#f5f5f5" stroke="transparent" points="304.5,-163.7 304.5,-186.7 427.5,-186.7 427.5,-163.7 304.5,-163.7"/>
<polygon fill="none" stroke="#000000" points="304.5,-163.7 304.5,-186.7 427.5,-186.7 427.5,-163.7 304.5,-163.7"/>
<text text-anchor="start" x="309.5" y="-172.8" font-family="Helvetica,sans-Serif" font-weight="bold" font-size="11.00" fill="#000000">ciclo_aulas</text>
<text text-anchor="start" x="392.5437" y="-171.8" font-family="Helvetica,sans-Serif" font-size="11.00" fill="#000000">[table]</text>
<polygon fill="none" stroke="#000000" points="304.5,-141.7 304.5,-163.7 427.5,-163.7 427.5,-141.7 304.5,-141.7"/>
<image xlink:href="../../images/primaryKeys.png" width="11px" height="12px" preserveAspectRatio="xMinYMin meet" x="309.5" y="-158.7"/>
<text text-anchor="start" x="324.5" y="-148.8" font-family="Helvetica,sans-Serif" font-size="11.00" fill="#000000">aula_id</text>
<polygon fill="none" stroke="#000000" points="304.5,-119.7 304.5,-141.7 427.5,-141.7 427.5,-119.7 304.5,-119.7"/>
<image xlink:href="../../images/foreignKeys.png" width="11px" height="12px" preserveAspectRatio="xMinYMin meet" x="309.5" y="-136.7"/>
<text text-anchor="start" x="324.5" y="-126.8" font-family="Helvetica,sans-Serif" font-size="11.00" fill="#000000">sede_id</text>
<polygon fill="none" stroke="#000000" points="304.5,-97.7 304.5,-119.7 427.5,-119.7 427.5,-97.7 304.5,-97.7"/>
<image xlink:href="../../images/foreignKeys.png" width="11px" height="12px" preserveAspectRatio="xMinYMin meet" x="309.5" y="-114.7"/>
<text text-anchor="start" x="324.5" y="-104.8" font-family="Helvetica,sans-Serif" font-size="11.00" fill="#000000">ciclo_id</text>
<polygon fill="none" stroke="#000000" points="304.5,-75.7 304.5,-97.7 427.5,-97.7 427.5,-75.7 304.5,-75.7"/>
<image xlink:href="../../images/foreignKeys.png" width="11px" height="12px" preserveAspectRatio="xMinYMin meet" x="309.5" y="-92.7"/>
<text text-anchor="start" x="324.5" y="-82.8" font-family="Helvetica,sans-Serif" font-size="11.00" fill="#000000">curso_id</text>
<polygon fill="none" stroke="#000000" points="304.5,-56.7 304.5,-75.7 427.5,-75.7 427.5,-56.7 304.5,-56.7"/>
<text text-anchor="start" x="307.5" y="-62.8" font-family="Helvetica,sans-Serif" font-size="11.00" fill="#000000">...</text>
<polygon fill="#ffffff" stroke="transparent" points="304.5,-37.7 304.5,-56.7 346.5,-56.7 346.5,-37.7 304.5,-37.7"/>
<polygon fill="none" stroke="#000000" points="304.5,-37.7 304.5,-56.7 346.5,-56.7 346.5,-37.7 304.5,-37.7"/>
<text text-anchor="start" x="307.5" y="-43.8" font-family="Helvetica,sans-Serif" font-size="11.00" fill="#000000">&lt; 3</text>
<polygon fill="#ffffff" stroke="transparent" points="346.5,-37.7 346.5,-56.7 395.5,-56.7 395.5,-37.7 346.5,-37.7"/>
<polygon fill="none" stroke="#000000" points="346.5,-37.7 346.5,-56.7 395.5,-56.7 395.5,-37.7 346.5,-37.7"/>
<text text-anchor="start" x="360.1105" y="-43.8" font-family="Helvetica,sans-Serif" font-size="11.00" fill="#000000">0 rows</text>
<polygon fill="#ffffff" stroke="transparent" points="395.5,-37.7 395.5,-56.7 427.5,-56.7 427.5,-37.7 395.5,-37.7"/>
<polygon fill="none" stroke="#000000" points="395.5,-37.7 395.5,-56.7 427.5,-56.7 427.5,-37.7 395.5,-37.7"/>
<text text-anchor="start" x="408.9053" y="-43.8" font-family="Helvetica,sans-Serif" font-size="11.00" fill="#000000">1 &gt;</text>
</a>
</g>
</g>
<!-- curso_ciclos -->
<g id="node2" class="node">
<title>curso_ciclos</title>
<g id="a_node2"><a xlink:href="../../tables/curso_ciclos.html" xlink:title="curso_ciclos" target="_top">
<polygon fill="#ffffff" stroke="transparent" points="132,-163.2 132,-268.2 255,-268.2 255,-163.2 132,-163.2"/>
<polygon fill="#f5f5f5" stroke="transparent" points="132.5,-244.7 132.5,-267.7 255.5,-267.7 255.5,-244.7 132.5,-244.7"/>
<polygon fill="none" stroke="#000000" points="132.5,-244.7 132.5,-267.7 255.5,-267.7 255.5,-244.7 132.5,-244.7"/>
<text text-anchor="start" x="137.5" y="-253.8" font-family="Helvetica,sans-Serif" font-weight="bold" font-size="11.00" fill="#000000">curso_ciclos</text>
<text text-anchor="start" x="220.5437" y="-252.8" font-family="Helvetica,sans-Serif" font-size="11.00" fill="#000000">[table]</text>
<polygon fill="none" stroke="#000000" points="132.5,-222.7 132.5,-244.7 255.5,-244.7 255.5,-222.7 132.5,-222.7"/>
<image xlink:href="../../images/primaryKeys.png" width="11px" height="12px" preserveAspectRatio="xMinYMin meet" x="137.5" y="-239.7"/>
<text text-anchor="start" x="152.5" y="-229.8" font-family="Helvetica,sans-Serif" font-size="11.00" fill="#000000">ciclo_id</text>
<polygon fill="none" stroke="#000000" points="132.5,-200.7 132.5,-222.7 255.5,-222.7 255.5,-200.7 132.5,-200.7"/>
<image xlink:href="../../images/foreignKeys.png" width="11px" height="12px" preserveAspectRatio="xMinYMin meet" x="137.5" y="-217.7"/>
<text text-anchor="start" x="152.5" y="-207.8" font-family="Helvetica,sans-Serif" font-size="11.00" fill="#000000">curso_id</text>
<polygon fill="none" stroke="#000000" points="132.5,-181.7 132.5,-200.7 255.5,-200.7 255.5,-181.7 132.5,-181.7"/>
<text text-anchor="start" x="135.5" y="-187.8" font-family="Helvetica,sans-Serif" font-size="11.00" fill="#000000">...</text>
<polygon fill="#ffffff" stroke="transparent" points="132.5,-162.7 132.5,-181.7 174.5,-181.7 174.5,-162.7 132.5,-162.7"/>
<polygon fill="none" stroke="#000000" points="132.5,-162.7 132.5,-181.7 174.5,-181.7 174.5,-162.7 132.5,-162.7"/>
<text text-anchor="start" x="135.5" y="-168.8" font-family="Helvetica,sans-Serif" font-size="11.00" fill="#000000">&lt; 1</text>
<polygon fill="#ffffff" stroke="transparent" points="174.5,-162.7 174.5,-181.7 223.5,-181.7 223.5,-162.7 174.5,-162.7"/>
<polygon fill="none" stroke="#000000" points="174.5,-162.7 174.5,-181.7 223.5,-181.7 223.5,-162.7 174.5,-162.7"/>
<text text-anchor="start" x="188.1105" y="-168.8" font-family="Helvetica,sans-Serif" font-size="11.00" fill="#000000">0 rows</text>
<polygon fill="#ffffff" stroke="transparent" points="223.5,-162.7 223.5,-181.7 255.5,-181.7 255.5,-162.7 223.5,-162.7"/>
<polygon fill="none" stroke="#000000" points="223.5,-162.7 223.5,-181.7 255.5,-181.7 255.5,-162.7 223.5,-162.7"/>
<text text-anchor="start" x="236.9053" y="-168.8" font-family="Helvetica,sans-Serif" font-size="11.00" fill="#000000">2 &gt;</text>
</a>
</g>
</g>
<!-- ciclo_aulas&#45;&gt;curso_ciclos -->
<g id="edge1" class="edge">
<title>ciclo_aulas:w&#45;&gt;curso_ciclos:e</title>
<path fill="none" stroke="#000000" d="M290.0697,-112.3062C257.7758,-132.8013 309.1111,-233.7 255.5,-233.7"/>
<polygon fill="#000000" stroke="#000000" points="296.7387,-110.6396 305.3728,-112.1926 300.6193,-109.6698 304.5,-108.7 304.5,-108.7 304.5,-108.7 300.6193,-109.6698 303.6272,-105.2074 296.7387,-110.6396 296.7387,-110.6396"/>
<ellipse fill="none" stroke="#000000" cx="293.6342" cy="-111.4155" rx="3.2" ry="3.2"/>
</g>
<!-- cursos -->
<g id="node3" class="node">
<title>cursos</title>
<g id="a_node3"><a xlink:href="../../tables/cursos.html" xlink:title="cursos" target="_top">
<polygon fill="#ffffff" stroke="transparent" points="8,-106.2 8,-167.2 83,-167.2 83,-106.2 8,-106.2"/>
<polygon fill="#f5f5f5" stroke="transparent" points="8.5,-143.7 8.5,-166.7 83.5,-166.7 83.5,-143.7 8.5,-143.7"/>
<polygon fill="none" stroke="#000000" points="8.5,-143.7 8.5,-166.7 83.5,-166.7 83.5,-143.7 8.5,-143.7"/>
<text text-anchor="start" x="13.3042" y="-152.8" font-family="Helvetica,sans-Serif" font-weight="bold" font-size="11.00" fill="#000000">cursos</text>
<text text-anchor="start" x="49.0219" y="-151.8" font-family="Helvetica,sans-Serif" font-size="11.00" fill="#000000">[table]</text>
<polygon fill="none" stroke="#000000" points="8.5,-124.7 8.5,-143.7 83.5,-143.7 83.5,-124.7 8.5,-124.7"/>
<text text-anchor="start" x="11.5" y="-130.8" font-family="Helvetica,sans-Serif" font-size="11.00" fill="#000000">...</text>
<polygon fill="#ffffff" stroke="transparent" points="8.5,-105.7 8.5,-124.7 25.5,-124.7 25.5,-105.7 8.5,-105.7"/>
<polygon fill="none" stroke="#000000" points="8.5,-105.7 8.5,-124.7 25.5,-124.7 25.5,-105.7 8.5,-105.7"/>
<text text-anchor="start" x="11.5" y="-111.8" font-family="Helvetica,sans-Serif" font-size="11.00" fill="#000000"> &#160;</text>
<polygon fill="#ffffff" stroke="transparent" points="25.5,-105.7 25.5,-124.7 59.5,-124.7 59.5,-105.7 25.5,-105.7"/>
<polygon fill="none" stroke="#000000" points="25.5,-105.7 25.5,-124.7 59.5,-124.7 59.5,-105.7 25.5,-105.7"/>
<text text-anchor="start" x="29.6105" y="-111.8" font-family="Helvetica,sans-Serif" font-size="11.00" fill="#000000">1 row</text>
<polygon fill="#ffffff" stroke="transparent" points="59.5,-105.7 59.5,-124.7 83.5,-124.7 83.5,-105.7 59.5,-105.7"/>
<polygon fill="none" stroke="#000000" points="59.5,-105.7 59.5,-124.7 83.5,-124.7 83.5,-105.7 59.5,-105.7"/>
<text text-anchor="start" x="64.9053" y="-111.8" font-family="Helvetica,sans-Serif" font-size="11.00" fill="#000000">4 &gt;</text>
</a>
</g>
</g>
<!-- ciclo_aulas&#45;&gt;cursos -->
<g id="edge2" class="edge">
<title>ciclo_aulas:w&#45;&gt;cursos:e</title>
<path fill="none" stroke="#000000" d="M290.3175,-83.8494C281.741,-79.9677 276.5128,-73.2147 263,-70.7 202.2649,-59.3975 178.2231,-41.0968 124,-70.7 94.7839,-86.6506 116.7866,-133.7 83.5,-133.7"/>
<polygon fill="#000000" stroke="#000000" points="296.6569,-85.1235 303.7906,-90.2294 300.5784,-85.9118 304.5,-86.7 304.5,-86.7 304.5,-86.7 300.5784,-85.9118 305.2094,-83.1706 296.6569,-85.1235 296.6569,-85.1235"/>
<ellipse fill="none" stroke="#000000" cx="293.5196" cy="-84.493" rx="3.2" ry="3.2"/>
</g>
<!-- sedes -->
<g id="node4" class="node">
<title>sedes</title>
<g id="a_node4"><a xlink:href="../../tables/sedes.html" xlink:title="sedes" target="_top">
<polygon fill="#ffffff" stroke="transparent" points="157.5,-81.2 157.5,-142.2 229.5,-142.2 229.5,-81.2 157.5,-81.2"/>
<polygon fill="#f5f5f5" stroke="transparent" points="157.5,-118.7 157.5,-141.7 229.5,-141.7 229.5,-118.7 157.5,-118.7"/>
<polygon fill="none" stroke="#000000" points="157.5,-118.7 157.5,-141.7 229.5,-141.7 229.5,-118.7 157.5,-118.7"/>
<text text-anchor="start" x="162.3277" y="-127.8" font-family="Helvetica,sans-Serif" font-weight="bold" font-size="11.00" fill="#000000">sedes</text>
<text text-anchor="start" x="195.0219" y="-126.8" font-family="Helvetica,sans-Serif" font-size="11.00" fill="#000000">[table]</text>
<polygon fill="none" stroke="#000000" points="157.5,-99.7 157.5,-118.7 229.5,-118.7 229.5,-99.7 157.5,-99.7"/>
<text text-anchor="start" x="160.5" y="-105.8" font-family="Helvetica,sans-Serif" font-size="11.00" fill="#000000">...</text>
<polygon fill="#ffffff" stroke="transparent" points="157.5,-80.7 157.5,-99.7 169.5,-99.7 169.5,-80.7 157.5,-80.7"/>
<polygon fill="none" stroke="#000000" points="157.5,-80.7 157.5,-99.7 169.5,-99.7 169.5,-80.7 157.5,-80.7"/>
<text text-anchor="start" x="160.4431" y="-86.8" font-family="Helvetica,sans-Serif" font-size="11.00" fill="#000000"> &#160;</text>
<polygon fill="#ffffff" stroke="transparent" points="169.5,-80.7 169.5,-99.7 207.5,-99.7 207.5,-80.7 169.5,-80.7"/>
<polygon fill="none" stroke="#000000" points="169.5,-80.7 169.5,-99.7 207.5,-99.7 207.5,-80.7 169.5,-80.7"/>
<text text-anchor="start" x="172.3053" y="-86.8" font-family="Helvetica,sans-Serif" font-size="11.00" fill="#000000">0 rows</text>
<polygon fill="#ffffff" stroke="transparent" points="207.5,-80.7 207.5,-99.7 229.5,-99.7 229.5,-80.7 207.5,-80.7"/>
<polygon fill="none" stroke="#000000" points="207.5,-80.7 207.5,-99.7 229.5,-99.7 229.5,-80.7 207.5,-80.7"/>
<text text-anchor="start" x="210.9053" y="-86.8" font-family="Helvetica,sans-Serif" font-size="11.00" fill="#000000">3 &gt;</text>
</a>
</g>
</g>
<!-- ciclo_aulas&#45;&gt;sedes -->
<g id="edge3" class="edge">
<title>ciclo_aulas:w&#45;&gt;sedes:e</title>
<path fill="none" stroke="#000000" d="M290.1334,-129.2565C267.3226,-124.3621 258.81,-108.7 229.5,-108.7"/>
<polygon fill="#000000" stroke="#000000" points="296.5401,-129.9002 304.1401,-134.282 300.52,-130.3001 304.5,-130.7 304.5,-130.7 304.5,-130.7 300.52,-130.3001 304.8599,-127.118 296.5401,-129.9002 296.5401,-129.9002"/>
<ellipse fill="none" stroke="#000000" cx="293.3561" cy="-129.5802" rx="3.2" ry="3.2"/>
</g>
<!-- curso_ciclos&#45;&gt;cursos -->
<g id="edge7" class="edge">
<title>curso_ciclos:w&#45;&gt;cursos:e</title>
<path fill="none" stroke="#000000" d="M118.6657,-207.0543C99.6949,-190.2624 118.3626,-133.7 83.5,-133.7"/>
<polygon fill="#000000" stroke="#000000" points="124.9162,-209.1533 131.354,-215.1127 128.7081,-210.4266 132.5,-211.7 132.5,-211.7 132.5,-211.7 128.7081,-210.4266 133.646,-208.2873 124.9162,-209.1533 124.9162,-209.1533"/>
<ellipse fill="none" stroke="#000000" cx="121.8827" cy="-208.1346" rx="3.2" ry="3.2"/>
</g>
<!-- ciclo_profesores -->
<g id="node5" class="node">
<title>ciclo_profesores</title>
<g id="a_node5"><a xlink:href="../../tables/ciclo_profesores.html" xlink:title="ciclo_profesores" target="_top">
<polygon fill="#ffffff" stroke="transparent" points="476,-135.7 476,-313.7 695,-313.7 695,-135.7 476,-135.7"/>
<polygon fill="#f5f5f5" stroke="transparent" points="478.5,-288.7 478.5,-311.7 693.5,-311.7 693.5,-288.7 478.5,-288.7"/>
<polygon fill="none" stroke="#000000" points="478.5,-288.7 478.5,-311.7 693.5,-311.7 693.5,-288.7 478.5,-288.7"/>
<text text-anchor="start" x="483.5" y="-297.8" font-family="Helvetica,sans-Serif" font-weight="bold" font-size="11.00" fill="#000000">ciclo_profesores</text>
<text text-anchor="start" x="658.5437" y="-296.8" font-family="Helvetica,sans-Serif" font-size="11.00" fill="#000000">[table]</text>
<polygon fill="none" stroke="#000000" points="478.5,-266.7 478.5,-288.7 601.5,-288.7 601.5,-266.7 478.5,-266.7"/>
<image xlink:href="../../images/primaryKeys.png" width="11px" height="12px" preserveAspectRatio="xMinYMin meet" x="483.5" y="-283.7"/>
<text text-anchor="start" x="498.5" y="-273.8" font-family="Helvetica,sans-Serif" font-size="11.00" fill="#000000">ciclo_profesor_id</text>
<polygon fill="none" stroke="#000000" points="601.5,-266.7 601.5,-288.7 693.5,-288.7 693.5,-266.7 601.5,-266.7"/>
<text text-anchor="start" x="604.5" y="-274.4" font-family="Helvetica,sans-Serif" font-size="11.00" fill="#000000">serial[10]</text>
<polygon fill="none" stroke="#000000" points="478.5,-244.7 478.5,-266.7 601.5,-266.7 601.5,-244.7 478.5,-244.7"/>
<image xlink:href="../../images/foreignKeys.png" width="11px" height="12px" preserveAspectRatio="xMinYMin meet" x="483.5" y="-261.7"/>
<text text-anchor="start" x="498.5" y="-251.8" font-family="Helvetica,sans-Serif" font-size="11.00" fill="#000000">profesor_id</text>
<polygon fill="none" stroke="#000000" points="601.5,-244.7 601.5,-266.7 693.5,-266.7 693.5,-244.7 601.5,-244.7"/>
<text text-anchor="start" x="604.5" y="-252.4" font-family="Helvetica,sans-Serif" font-size="11.00" fill="#000000">int4[10]</text>
<polygon fill="none" stroke="#000000" points="478.5,-222.7 478.5,-244.7 601.5,-244.7 601.5,-222.7 478.5,-222.7"/>
<image xlink:href="../../images/foreignKeys.png" width="11px" height="12px" preserveAspectRatio="xMinYMin meet" x="483.5" y="-239.7"/>
<text text-anchor="start" x="498.5" y="-229.8" font-family="Helvetica,sans-Serif" font-size="11.00" fill="#000000">ciclo_id</text>
<polygon fill="none" stroke="#000000" points="601.5,-222.7 601.5,-244.7 693.5,-244.7 693.5,-222.7 601.5,-222.7"/>
<text text-anchor="start" x="604.5" y="-230.4" font-family="Helvetica,sans-Serif" font-size="11.00" fill="#000000">int4[10]</text>
<polygon fill="none" stroke="#000000" points="478.5,-200.7 478.5,-222.7 601.5,-222.7 601.5,-200.7 478.5,-200.7"/>
<image xlink:href="../../images/foreignKeys.png" width="11px" height="12px" preserveAspectRatio="xMinYMin meet" x="483.5" y="-217.7"/>
<text text-anchor="start" x="498.5" y="-207.8" font-family="Helvetica,sans-Serif" font-size="11.00" fill="#000000">aula_id</text>
<polygon fill="none" stroke="#000000" points="601.5,-200.7 601.5,-222.7 693.5,-222.7 693.5,-200.7 601.5,-200.7"/>
<text text-anchor="start" x="604.5" y="-208.4" font-family="Helvetica,sans-Serif" font-size="11.00" fill="#000000">int4[10]</text>
<polygon fill="none" stroke="#000000" points="478.5,-178.7 478.5,-200.7 601.5,-200.7 601.5,-178.7 478.5,-178.7"/>
<text text-anchor="start" x="498.5" y="-185.8" font-family="Helvetica,sans-Serif" font-size="11.00" fill="#000000">fec_modificacion</text>
<polygon fill="none" stroke="#000000" points="601.5,-178.7 601.5,-200.7 693.5,-200.7 693.5,-178.7 601.5,-178.7"/>
<text text-anchor="start" x="604.1023" y="-186.4" font-family="Helvetica,sans-Serif" font-size="11.00" fill="#000000">timestamptz[35,6]</text>
<polygon fill="none" stroke="#000000" points="478.5,-156.7 478.5,-178.7 601.5,-178.7 601.5,-156.7 478.5,-156.7"/>
<text text-anchor="start" x="498.5" y="-163.8" font-family="Helvetica,sans-Serif" font-size="11.00" fill="#000000">usu_modificacion</text>
<polygon fill="none" stroke="#000000" points="601.5,-156.7 601.5,-178.7 693.5,-178.7 693.5,-156.7 601.5,-156.7"/>
<text text-anchor="start" x="604.5" y="-164.4" font-family="Helvetica,sans-Serif" font-size="11.00" fill="#000000">varchar[20]</text>
<polygon fill="#ffffff" stroke="transparent" points="478.5,-137.7 478.5,-156.7 531.5,-156.7 531.5,-137.7 478.5,-137.7"/>
<polygon fill="none" stroke="#000000" points="478.5,-137.7 478.5,-156.7 531.5,-156.7 531.5,-137.7 478.5,-137.7"/>
<text text-anchor="start" x="481.5" y="-143.8" font-family="Helvetica,sans-Serif" font-size="11.00" fill="#000000">&lt; 3</text>
<polygon fill="#ffffff" stroke="transparent" points="531.5,-137.7 531.5,-156.7 601.5,-156.7 601.5,-137.7 531.5,-137.7"/>
<polygon fill="none" stroke="#000000" points="531.5,-137.7 531.5,-156.7 601.5,-156.7 601.5,-137.7 531.5,-137.7"/>
<text text-anchor="start" x="566.1105" y="-143.8" font-family="Helvetica,sans-Serif" font-size="11.00" fill="#000000">0 rows</text>
<polygon fill="#ffffff" stroke="transparent" points="601.5,-137.7 601.5,-156.7 693.5,-156.7 693.5,-137.7 601.5,-137.7"/>
<polygon fill="none" stroke="#000000" points="601.5,-137.7 601.5,-156.7 693.5,-156.7 693.5,-137.7 601.5,-137.7"/>
<text text-anchor="start" x="674.9053" y="-143.8" font-family="Helvetica,sans-Serif" font-size="11.00" fill="#000000">0 &gt;</text>
<polygon fill="none" stroke="#000000" stroke-width="2" points="477,-136.7 477,-312.7 694,-312.7 694,-136.7 477,-136.7"/>
</a>
</g>
</g>
<!-- ciclo_profesores&#45;&gt;ciclo_aulas -->
<g id="edge4" class="edge">
<title>ciclo_profesores:w&#45;&gt;ciclo_aulas:e</title>
<path fill="none" stroke="#000000" d="M464.7854,-207.0704C448.572,-193.1617 456.2036,-152.7 427.5,-152.7"/>
<polygon fill="#000000" stroke="#000000" points="470.9202,-209.1413 477.3486,-215.1109 474.7101,-210.4206 478.5,-211.7 478.5,-211.7 478.5,-211.7 474.7101,-210.4206 479.6514,-208.2891 470.9202,-209.1413 470.9202,-209.1413"/>
<ellipse fill="none" stroke="#000000" cx="467.8883" cy="-208.1178" rx="3.2" ry="3.2"/>
</g>
<!-- ciclo_profesores&#45;&gt;curso_ciclos -->
<g id="edge5" class="edge">
<title>ciclo_profesores:w&#45;&gt;curso_ciclos:e</title>
<path fill="none" stroke="#000000" d="M463.9566,-233.7C376.6807,-233.7 349.5781,-233.7 255.5,-233.7"/>
<polygon fill="#000000" stroke="#000000" points="470.5,-233.7001 478.5,-237.3 474.5,-233.7 478.5,-233.7 478.5,-233.7 478.5,-233.7 474.5,-233.7 478.5,-230.1 470.5,-233.7001 470.5,-233.7001"/>
<ellipse fill="none" stroke="#000000" cx="467.3" cy="-233.7001" rx="3.2" ry="3.2"/>
</g>
<!-- profesores -->
<g id="node6" class="node">
<title>profesores</title>
<g id="a_node6"><a xlink:href="../../tables/profesores.html" xlink:title="profesores" target="_top">
<polygon fill="#ffffff" stroke="transparent" points="304,-263.2 304,-368.2 427,-368.2 427,-263.2 304,-263.2"/>
<polygon fill="#f5f5f5" stroke="transparent" points="304.5,-344.7 304.5,-367.7 427.5,-367.7 427.5,-344.7 304.5,-344.7"/>
<polygon fill="none" stroke="#000000" points="304.5,-344.7 304.5,-367.7 427.5,-367.7 427.5,-344.7 304.5,-344.7"/>
<text text-anchor="start" x="309.5" y="-353.8" font-family="Helvetica,sans-Serif" font-weight="bold" font-size="11.00" fill="#000000">profesores</text>
<text text-anchor="start" x="392.5437" y="-352.8" font-family="Helvetica,sans-Serif" font-size="11.00" fill="#000000">[table]</text>
<polygon fill="none" stroke="#000000" points="304.5,-322.7 304.5,-344.7 427.5,-344.7 427.5,-322.7 304.5,-322.7"/>
<image xlink:href="../../images/primaryKeys.png" width="11px" height="12px" preserveAspectRatio="xMinYMin meet" x="309.5" y="-339.7"/>
<text text-anchor="start" x="324.5" y="-329.8" font-family="Helvetica,sans-Serif" font-size="11.00" fill="#000000">profesor_id</text>
<polygon fill="none" stroke="#000000" points="304.5,-300.7 304.5,-322.7 427.5,-322.7 427.5,-300.7 304.5,-300.7"/>
<image xlink:href="../../images/foreignKeys.png" width="11px" height="12px" preserveAspectRatio="xMinYMin meet" x="309.5" y="-317.7"/>
<text text-anchor="start" x="324.5" y="-307.8" font-family="Helvetica,sans-Serif" font-size="11.00" fill="#000000">persona_id</text>
<polygon fill="none" stroke="#000000" points="304.5,-281.7 304.5,-300.7 427.5,-300.7 427.5,-281.7 304.5,-281.7"/>
<text text-anchor="start" x="307.5" y="-287.8" font-family="Helvetica,sans-Serif" font-size="11.00" fill="#000000">...</text>
<polygon fill="#ffffff" stroke="transparent" points="304.5,-262.7 304.5,-281.7 346.5,-281.7 346.5,-262.7 304.5,-262.7"/>
<polygon fill="none" stroke="#000000" points="304.5,-262.7 304.5,-281.7 346.5,-281.7 346.5,-262.7 304.5,-262.7"/>
<text text-anchor="start" x="307.5" y="-268.8" font-family="Helvetica,sans-Serif" font-size="11.00" fill="#000000">&lt; 1</text>
<polygon fill="#ffffff" stroke="transparent" points="346.5,-262.7 346.5,-281.7 395.5,-281.7 395.5,-262.7 346.5,-262.7"/>
<polygon fill="none" stroke="#000000" points="346.5,-262.7 346.5,-281.7 395.5,-281.7 395.5,-262.7 346.5,-262.7"/>
<text text-anchor="start" x="360.1105" y="-268.8" font-family="Helvetica,sans-Serif" font-size="11.00" fill="#000000">0 rows</text>
<polygon fill="#ffffff" stroke="transparent" points="395.5,-262.7 395.5,-281.7 427.5,-281.7 427.5,-262.7 395.5,-262.7"/>
<polygon fill="none" stroke="#000000" points="395.5,-262.7 395.5,-281.7 427.5,-281.7 427.5,-262.7 395.5,-262.7"/>
<text text-anchor="start" x="408.9053" y="-268.8" font-family="Helvetica,sans-Serif" font-size="11.00" fill="#000000">1 &gt;</text>
</a>
</g>
</g>
<!-- ciclo_profesores&#45;&gt;profesores -->
<g id="edge6" class="edge">
<title>ciclo_profesores:w&#45;&gt;profesores:e</title>
<path fill="none" stroke="#000000" d="M464.6894,-260.1171C444.7538,-276.6175 462.9329,-333.7 427.5,-333.7"/>
<polygon fill="#000000" stroke="#000000" points="470.8802,-258.1371 479.5967,-259.1289 474.6901,-256.9186 478.5,-255.7 478.5,-255.7 478.5,-255.7 474.6901,-256.9186 477.4033,-252.2711 470.8802,-258.1371 470.8802,-258.1371"/>
<ellipse fill="none" stroke="#000000" cx="467.8323" cy="-259.1119" rx="3.2" ry="3.2"/>
</g>
<!-- personas -->
<g id="node7" class="node">
<title>personas</title>
<g id="a_node7"><a xlink:href="../../tables/personas.html" xlink:title="personas" target="_top">
<polygon fill="#ffffff" stroke="transparent" points="149.5,-289.2 149.5,-350.2 237.5,-350.2 237.5,-289.2 149.5,-289.2"/>
<polygon fill="#f5f5f5" stroke="transparent" points="149.5,-326.7 149.5,-349.7 237.5,-349.7 237.5,-326.7 149.5,-326.7"/>
<polygon fill="none" stroke="#000000" points="149.5,-326.7 149.5,-349.7 237.5,-349.7 237.5,-326.7 149.5,-326.7"/>
<text text-anchor="start" x="154.3818" y="-335.8" font-family="Helvetica,sans-Serif" font-weight="bold" font-size="11.00" fill="#000000">personas</text>
<text text-anchor="start" x="203.0219" y="-334.8" font-family="Helvetica,sans-Serif" font-size="11.00" fill="#000000">[table]</text>
<polygon fill="none" stroke="#000000" points="149.5,-307.7 149.5,-326.7 237.5,-326.7 237.5,-307.7 149.5,-307.7"/>
<text text-anchor="start" x="152.5" y="-313.8" font-family="Helvetica,sans-Serif" font-size="11.00" fill="#000000">...</text>
<polygon fill="#ffffff" stroke="transparent" points="149.5,-288.7 149.5,-307.7 169.5,-307.7 169.5,-288.7 149.5,-288.7"/>
<polygon fill="none" stroke="#000000" points="149.5,-288.7 149.5,-307.7 169.5,-307.7 169.5,-288.7 149.5,-288.7"/>
<text text-anchor="start" x="152.5" y="-294.8" font-family="Helvetica,sans-Serif" font-size="11.00" fill="#000000"> &#160;</text>
<polygon fill="#ffffff" stroke="transparent" points="169.5,-288.7 169.5,-307.7 211.5,-307.7 211.5,-288.7 169.5,-288.7"/>
<polygon fill="none" stroke="#000000" points="169.5,-288.7 169.5,-307.7 211.5,-307.7 211.5,-288.7 169.5,-288.7"/>
<text text-anchor="start" x="176.1105" y="-294.8" font-family="Helvetica,sans-Serif" font-size="11.00" fill="#000000">0 rows</text>
<polygon fill="#ffffff" stroke="transparent" points="211.5,-288.7 211.5,-307.7 237.5,-307.7 237.5,-288.7 211.5,-288.7"/>
<polygon fill="none" stroke="#000000" points="211.5,-288.7 211.5,-307.7 237.5,-307.7 237.5,-288.7 211.5,-288.7"/>
<text text-anchor="start" x="218.9053" y="-294.8" font-family="Helvetica,sans-Serif" font-size="11.00" fill="#000000">7 &gt;</text>
</a>
</g>
</g>
<!-- profesores&#45;&gt;personas -->
<g id="edge8" class="edge">
<title>profesores:w&#45;&gt;personas:e</title>
<path fill="none" stroke="#000000" d="M290.0573,-312.1437C271.2056,-313.3674 261.8784,-316.7 237.5,-316.7"/>
<polygon fill="#000000" stroke="#000000" points="296.5038,-311.9457 304.6106,-315.2983 300.5019,-311.8229 304.5,-311.7 304.5,-311.7 304.5,-311.7 300.5019,-311.8229 304.3894,-308.1017 296.5038,-311.9457 296.5038,-311.9457"/>
<ellipse fill="none" stroke="#000000" cx="293.3053" cy="-312.044" rx="3.2" ry="3.2"/>
</g>
</g>
</svg>
