<?xml version="1.0" encoding="UTF-8" standalone="no"?>
<!DOCTYPE svg PUBLIC "-//W3C//DTD SVG 1.1//EN"
 "http://www.w3.org/Graphics/SVG/1.1/DTD/svg11.dtd">
<!-- Generated by graphviz version 2.40.1 (20161225.0304)
 -->
<!-- Title: twoDegreesRelationshipsDiagram Pages: 1 -->
<svg width="587pt" height="415pt"
 viewBox="0.00 0.00 587.00 415.20" xmlns="http://www.w3.org/2000/svg" xmlns:xlink="http://www.w3.org/1999/xlink">
<g id="graph0" class="graph" transform="scale(1 1) rotate(0) translate(4 411.2)">
<title>twoDegreesRelationshipsDiagram</title>
<polygon fill="#ffffff" stroke="transparent" points="-4,4 -4,-411.2 583,-411.2 583,4 -4,4"/>
<text text-anchor="middle" x="72.4936" y="-7.3" font-family="Helvetica,sans-Serif" font-size="11.00" fill="#000000">Generated by SchemaSpy</text>
<!-- ciudades -->
<g id="node1" class="node">
<title>ciudades</title>
<g id="a_node1"><a xlink:href="../../tables/ciudades.html" xlink:title="ciudades" target="_top">
<polygon fill="#ffffff" stroke="transparent" points="180,-120.7 180,-320.7 399,-320.7 399,-120.7 180,-120.7"/>
<polygon fill="#f5f5f5" stroke="transparent" points="182.5,-295.7 182.5,-318.7 397.5,-318.7 397.5,-295.7 182.5,-295.7"/>
<polygon fill="none" stroke="#000000" points="182.5,-295.7 182.5,-318.7 397.5,-318.7 397.5,-295.7 182.5,-295.7"/>
<text text-anchor="start" x="187.5" y="-304.8" font-family="Helvetica,sans-Serif" font-weight="bold" font-size="11.00" fill="#000000">ciudades</text>
<text text-anchor="start" x="362.5437" y="-303.8" font-family="Helvetica,sans-Serif" font-size="11.00" fill="#000000">[table]</text>
<polygon fill="none" stroke="#000000" points="182.5,-273.7 182.5,-295.7 305.5,-295.7 305.5,-273.7 182.5,-273.7"/>
<image xlink:href="../../images/primaryKeys.png" width="11px" height="12px" preserveAspectRatio="xMinYMin meet" x="187.5" y="-290.7"/>
<text text-anchor="start" x="202.5" y="-280.8" font-family="Helvetica,sans-Serif" font-size="11.00" fill="#000000">ciudad_id</text>
<polygon fill="none" stroke="#000000" points="305.5,-273.7 305.5,-295.7 397.5,-295.7 397.5,-273.7 305.5,-273.7"/>
<text text-anchor="start" x="308.5" y="-281.4" font-family="Helvetica,sans-Serif" font-size="11.00" fill="#000000">serial[10]</text>
<polygon fill="none" stroke="#000000" points="182.5,-251.7 182.5,-273.7 305.5,-273.7 305.5,-251.7 182.5,-251.7"/>
<text text-anchor="start" x="202.5" y="-258.8" font-family="Helvetica,sans-Serif" font-size="11.00" fill="#000000">nombre</text>
<polygon fill="none" stroke="#000000" points="305.5,-251.7 305.5,-273.7 397.5,-273.7 397.5,-251.7 305.5,-251.7"/>
<text text-anchor="start" x="308.5" y="-259.4" font-family="Helvetica,sans-Serif" font-size="11.00" fill="#000000">varchar[255]</text>
<polygon fill="none" stroke="#000000" points="182.5,-229.7 182.5,-251.7 305.5,-251.7 305.5,-229.7 182.5,-229.7"/>
<image xlink:href="../../images/foreignKeys.png" width="11px" height="12px" preserveAspectRatio="xMinYMin meet" x="187.5" y="-246.7"/>
<text text-anchor="start" x="202.5" y="-236.8" font-family="Helvetica,sans-Serif" font-size="11.00" fill="#000000">pais_id</text>
<polygon fill="none" stroke="#000000" points="305.5,-229.7 305.5,-251.7 397.5,-251.7 397.5,-229.7 305.5,-229.7"/>
<text text-anchor="start" x="308.5" y="-237.4" font-family="Helvetica,sans-Serif" font-size="11.00" fill="#000000">int4[10]</text>
<polygon fill="none" stroke="#000000" points="182.5,-207.7 182.5,-229.7 305.5,-229.7 305.5,-207.7 182.5,-207.7"/>
<text text-anchor="start" x="202.5" y="-214.8" font-family="Helvetica,sans-Serif" font-size="11.00" fill="#000000">usu_insercion</text>
<polygon fill="none" stroke="#000000" points="305.5,-207.7 305.5,-229.7 397.5,-229.7 397.5,-207.7 305.5,-207.7"/>
<text text-anchor="start" x="308.5" y="-215.4" font-family="Helvetica,sans-Serif" font-size="11.00" fill="#000000">varchar[20]</text>
<polygon fill="none" stroke="#000000" points="182.5,-185.7 182.5,-207.7 305.5,-207.7 305.5,-185.7 182.5,-185.7"/>
<text text-anchor="start" x="202.5" y="-192.8" font-family="Helvetica,sans-Serif" font-size="11.00" fill="#000000">fec_insercion</text>
<polygon fill="none" stroke="#000000" points="305.5,-185.7 305.5,-207.7 397.5,-207.7 397.5,-185.7 305.5,-185.7"/>
<text text-anchor="start" x="308.1023" y="-193.4" font-family="Helvetica,sans-Serif" font-size="11.00" fill="#000000">timestamptz[35,6]</text>
<polygon fill="none" stroke="#000000" points="182.5,-163.7 182.5,-185.7 305.5,-185.7 305.5,-163.7 182.5,-163.7"/>
<text text-anchor="start" x="202.5" y="-170.8" font-family="Helvetica,sans-Serif" font-size="11.00" fill="#000000">fec_modificacion</text>
<polygon fill="none" stroke="#000000" points="305.5,-163.7 305.5,-185.7 397.5,-185.7 397.5,-163.7 305.5,-163.7"/>
<text text-anchor="start" x="308.1023" y="-171.4" font-family="Helvetica,sans-Serif" font-size="11.00" fill="#000000">timestamptz[35,6]</text>
<polygon fill="none" stroke="#000000" points="182.5,-141.7 182.5,-163.7 305.5,-163.7 305.5,-141.7 182.5,-141.7"/>
<text text-anchor="start" x="202.5" y="-148.8" font-family="Helvetica,sans-Serif" font-size="11.00" fill="#000000">usu_modificacion</text>
<polygon fill="none" stroke="#000000" points="305.5,-141.7 305.5,-163.7 397.5,-163.7 397.5,-141.7 305.5,-141.7"/>
<text text-anchor="start" x="308.5" y="-149.4" font-family="Helvetica,sans-Serif" font-size="11.00" fill="#000000">varchar[20]</text>
<polygon fill="#ffffff" stroke="transparent" points="182.5,-122.7 182.5,-141.7 235.5,-141.7 235.5,-122.7 182.5,-122.7"/>
<polygon fill="none" stroke="#000000" points="182.5,-122.7 182.5,-141.7 235.5,-141.7 235.5,-122.7 182.5,-122.7"/>
<text text-anchor="start" x="185.5" y="-128.8" font-family="Helvetica,sans-Serif" font-size="11.00" fill="#000000">&lt; 1</text>
<polygon fill="#ffffff" stroke="transparent" points="235.5,-122.7 235.5,-141.7 305.5,-141.7 305.5,-122.7 235.5,-122.7"/>
<polygon fill="none" stroke="#000000" points="235.5,-122.7 235.5,-141.7 305.5,-141.7 305.5,-122.7 235.5,-122.7"/>
<text text-anchor="start" x="270.1105" y="-128.8" font-family="Helvetica,sans-Serif" font-size="11.00" fill="#000000">0 rows</text>
<polygon fill="#ffffff" stroke="transparent" points="305.5,-122.7 305.5,-141.7 397.5,-141.7 397.5,-122.7 305.5,-122.7"/>
<polygon fill="none" stroke="#000000" points="305.5,-122.7 305.5,-141.7 397.5,-141.7 397.5,-122.7 305.5,-122.7"/>
<text text-anchor="start" x="378.9053" y="-128.8" font-family="Helvetica,sans-Serif" font-size="11.00" fill="#000000">1 &gt;</text>
<polygon fill="none" stroke="#000000" stroke-width="2" points="181,-121.7 181,-319.7 398,-319.7 398,-121.7 181,-121.7"/>
</a>
</g>
</g>
<!-- paises -->
<g id="node2" class="node">
<title>paises</title>
<g id="a_node2"><a xlink:href="../../tables/paises.html" xlink:title="paises" target="_top">
<polygon fill="#ffffff" stroke="transparent" points="8,-192.2 8,-275.2 131,-275.2 131,-192.2 8,-192.2"/>
<polygon fill="#f5f5f5" stroke="transparent" points="8.5,-251.7 8.5,-274.7 131.5,-274.7 131.5,-251.7 8.5,-251.7"/>
<polygon fill="none" stroke="#000000" points="8.5,-251.7 8.5,-274.7 131.5,-274.7 131.5,-251.7 8.5,-251.7"/>
<text text-anchor="start" x="13.5" y="-260.8" font-family="Helvetica,sans-Serif" font-weight="bold" font-size="11.00" fill="#000000">paises</text>
<text text-anchor="start" x="96.5437" y="-259.8" font-family="Helvetica,sans-Serif" font-size="11.00" fill="#000000">[table]</text>
<polygon fill="none" stroke="#000000" points="8.5,-229.7 8.5,-251.7 131.5,-251.7 131.5,-229.7 8.5,-229.7"/>
<image xlink:href="../../images/primaryKeys.png" width="11px" height="12px" preserveAspectRatio="xMinYMin meet" x="13.5" y="-246.7"/>
<text text-anchor="start" x="28.5" y="-236.8" font-family="Helvetica,sans-Serif" font-size="11.00" fill="#000000">pais_id</text>
<polygon fill="none" stroke="#000000" points="8.5,-210.7 8.5,-229.7 131.5,-229.7 131.5,-210.7 8.5,-210.7"/>
<text text-anchor="start" x="11.5" y="-216.8" font-family="Helvetica,sans-Serif" font-size="11.00" fill="#000000">...</text>
<polygon fill="#ffffff" stroke="transparent" points="8.5,-191.7 8.5,-210.7 46.5,-210.7 46.5,-191.7 8.5,-191.7"/>
<polygon fill="none" stroke="#000000" points="8.5,-191.7 8.5,-210.7 46.5,-210.7 46.5,-191.7 8.5,-191.7"/>
<text text-anchor="start" x="11.5" y="-197.8" font-family="Helvetica,sans-Serif" font-size="11.00" fill="#000000"> &#160;</text>
<polygon fill="#ffffff" stroke="transparent" points="46.5,-191.7 46.5,-210.7 97.5,-210.7 97.5,-191.7 46.5,-191.7"/>
<polygon fill="none" stroke="#000000" points="46.5,-191.7 46.5,-210.7 97.5,-210.7 97.5,-191.7 46.5,-191.7"/>
<text text-anchor="start" x="62.1105" y="-197.8" font-family="Helvetica,sans-Serif" font-size="11.00" fill="#000000">0 rows</text>
<polygon fill="#ffffff" stroke="transparent" points="97.5,-191.7 97.5,-210.7 131.5,-210.7 131.5,-191.7 97.5,-191.7"/>
<polygon fill="none" stroke="#000000" points="97.5,-191.7 97.5,-210.7 131.5,-210.7 131.5,-191.7 97.5,-191.7"/>
<text text-anchor="start" x="112.9053" y="-197.8" font-family="Helvetica,sans-Serif" font-size="11.00" fill="#000000">1 &gt;</text>
</a>
</g>
</g>
<!-- ciudades&#45;&gt;paises -->
<g id="edge1" class="edge">
<title>ciudades:w&#45;&gt;paises:e</title>
<path fill="none" stroke="#000000" d="M167.776,-240.7C155.7815,-240.7 148.3229,-240.7 131.5,-240.7"/>
<polygon fill="#000000" stroke="#000000" points="174.5,-240.7001 182.5,-244.3 178.5,-240.7 182.5,-240.7 182.5,-240.7 182.5,-240.7 178.5,-240.7 182.5,-237.1 174.5,-240.7001 174.5,-240.7001"/>
<ellipse fill="none" stroke="#000000" cx="171.3" cy="-240.7001" rx="3.2" ry="3.2"/>
</g>
<!-- direcciones -->
<g id="node3" class="node">
<title>direcciones</title>
<g id="a_node3"><a xlink:href="../../tables/direcciones.html" xlink:title="direcciones" target="_top">
<polygon fill="#ffffff" stroke="transparent" points="448,-214.2 448,-363.2 571,-363.2 571,-214.2 448,-214.2"/>
<polygon fill="#f5f5f5" stroke="transparent" points="448.5,-339.7 448.5,-362.7 571.5,-362.7 571.5,-339.7 448.5,-339.7"/>
<polygon fill="none" stroke="#000000" points="448.5,-339.7 448.5,-362.7 571.5,-362.7 571.5,-339.7 448.5,-339.7"/>
<text text-anchor="start" x="453.5" y="-348.8" font-family="Helvetica,sans-Serif" font-weight="bold" font-size="11.00" fill="#000000">direcciones</text>
<text text-anchor="start" x="536.5437" y="-347.8" font-family="Helvetica,sans-Serif" font-size="11.00" fill="#000000">[table]</text>
<polygon fill="none" stroke="#000000" points="448.5,-317.7 448.5,-339.7 571.5,-339.7 571.5,-317.7 448.5,-317.7"/>
<image xlink:href="../../images/primaryKeys.png" width="11px" height="12px" preserveAspectRatio="xMinYMin meet" x="453.5" y="-334.7"/>
<text text-anchor="start" x="468.5" y="-324.8" font-family="Helvetica,sans-Serif" font-size="11.00" fill="#000000">direccion_id</text>
<polygon fill="none" stroke="#000000" points="448.5,-295.7 448.5,-317.7 571.5,-317.7 571.5,-295.7 448.5,-295.7"/>
<image xlink:href="../../images/foreignKeys.png" width="11px" height="12px" preserveAspectRatio="xMinYMin meet" x="453.5" y="-312.7"/>
<text text-anchor="start" x="468.5" y="-302.8" font-family="Helvetica,sans-Serif" font-size="11.00" fill="#000000">persona_id</text>
<polygon fill="none" stroke="#000000" points="448.5,-273.7 448.5,-295.7 571.5,-295.7 571.5,-273.7 448.5,-273.7"/>
<image xlink:href="../../images/foreignKeys.png" width="11px" height="12px" preserveAspectRatio="xMinYMin meet" x="453.5" y="-290.7"/>
<text text-anchor="start" x="468.5" y="-280.8" font-family="Helvetica,sans-Serif" font-size="11.00" fill="#000000">ciudad_id</text>
<polygon fill="none" stroke="#000000" points="448.5,-251.7 448.5,-273.7 571.5,-273.7 571.5,-251.7 448.5,-251.7"/>
<image xlink:href="../../images/foreignKeys.png" width="11px" height="12px" preserveAspectRatio="xMinYMin meet" x="453.5" y="-268.7"/>
<text text-anchor="start" x="468.5" y="-258.8" font-family="Helvetica,sans-Serif" font-size="11.00" fill="#000000">sede_id</text>
<polygon fill="none" stroke="#000000" points="448.5,-232.7 448.5,-251.7 571.5,-251.7 571.5,-232.7 448.5,-232.7"/>
<text text-anchor="start" x="451.5" y="-238.8" font-family="Helvetica,sans-Serif" font-size="11.00" fill="#000000">...</text>
<polygon fill="#ffffff" stroke="transparent" points="448.5,-213.7 448.5,-232.7 495.5,-232.7 495.5,-213.7 448.5,-213.7"/>
<polygon fill="none" stroke="#000000" points="448.5,-213.7 448.5,-232.7 495.5,-232.7 495.5,-213.7 448.5,-213.7"/>
<text text-anchor="start" x="451.5" y="-219.8" font-family="Helvetica,sans-Serif" font-size="11.00" fill="#000000">&lt; 3</text>
<polygon fill="#ffffff" stroke="transparent" points="495.5,-213.7 495.5,-232.7 546.5,-232.7 546.5,-213.7 495.5,-213.7"/>
<polygon fill="none" stroke="#000000" points="495.5,-213.7 495.5,-232.7 546.5,-232.7 546.5,-213.7 495.5,-213.7"/>
<text text-anchor="start" x="511.1105" y="-219.8" font-family="Helvetica,sans-Serif" font-size="11.00" fill="#000000">0 rows</text>
<polygon fill="#ffffff" stroke="transparent" points="546.5,-213.7 546.5,-232.7 571.5,-232.7 571.5,-213.7 546.5,-213.7"/>
<polygon fill="none" stroke="#000000" points="546.5,-213.7 546.5,-232.7 571.5,-232.7 571.5,-213.7 546.5,-213.7"/>
<text text-anchor="start" x="562.3862" y="-219.8" font-family="Helvetica,sans-Serif" font-size="11.00" fill="#000000"> &#160;</text>
</a>
</g>
</g>
<!-- direcciones&#45;&gt;ciudades -->
<g id="edge2" class="edge">
<title>direcciones:w&#45;&gt;ciudades:e</title>
<path fill="none" stroke="#000000" d="M433.776,-284.7C421.7815,-284.7 414.3229,-284.7 397.5,-284.7"/>
<polygon fill="#000000" stroke="#000000" points="440.5,-284.7001 448.5,-288.3 444.5,-284.7 448.5,-284.7 448.5,-284.7 448.5,-284.7 444.5,-284.7 448.5,-281.1 440.5,-284.7001 440.5,-284.7001"/>
<ellipse fill="none" stroke="#000000" cx="437.3" cy="-284.7001" rx="3.2" ry="3.2"/>
</g>
<!-- personas -->
<g id="node4" class="node">
<title>personas</title>
<g id="a_node4"><a xlink:href="../../tables/personas.html" xlink:title="personas" target="_top">
<polygon fill="#ffffff" stroke="transparent" points="245.5,-342.2 245.5,-403.2 333.5,-403.2 333.5,-342.2 245.5,-342.2"/>
<polygon fill="#f5f5f5" stroke="transparent" points="245.5,-379.7 245.5,-402.7 333.5,-402.7 333.5,-379.7 245.5,-379.7"/>
<polygon fill="none" stroke="#000000" points="245.5,-379.7 245.5,-402.7 333.5,-402.7 333.5,-379.7 245.5,-379.7"/>
<text text-anchor="start" x="250.3818" y="-388.8" font-family="Helvetica,sans-Serif" font-weight="bold" font-size="11.00" fill="#000000">personas</text>
<text text-anchor="start" x="299.0219" y="-387.8" font-family="Helvetica,sans-Serif" font-size="11.00" fill="#000000">[table]</text>
<polygon fill="none" stroke="#000000" points="245.5,-360.7 245.5,-379.7 333.5,-379.7 333.5,-360.7 245.5,-360.7"/>
<text text-anchor="start" x="248.5" y="-366.8" font-family="Helvetica,sans-Serif" font-size="11.00" fill="#000000">...</text>
<polygon fill="#ffffff" stroke="transparent" points="245.5,-341.7 245.5,-360.7 265.5,-360.7 265.5,-341.7 245.5,-341.7"/>
<polygon fill="none" stroke="#000000" points="245.5,-341.7 245.5,-360.7 265.5,-360.7 265.5,-341.7 245.5,-341.7"/>
<text text-anchor="start" x="248.5" y="-347.8" font-family="Helvetica,sans-Serif" font-size="11.00" fill="#000000"> &#160;</text>
<polygon fill="#ffffff" stroke="transparent" points="265.5,-341.7 265.5,-360.7 307.5,-360.7 307.5,-341.7 265.5,-341.7"/>
<polygon fill="none" stroke="#000000" points="265.5,-341.7 265.5,-360.7 307.5,-360.7 307.5,-341.7 265.5,-341.7"/>
<text text-anchor="start" x="272.1105" y="-347.8" font-family="Helvetica,sans-Serif" font-size="11.00" fill="#000000">2 rows</text>
<polygon fill="#ffffff" stroke="transparent" points="307.5,-341.7 307.5,-360.7 333.5,-360.7 333.5,-341.7 307.5,-341.7"/>
<polygon fill="none" stroke="#000000" points="307.5,-341.7 307.5,-360.7 333.5,-360.7 333.5,-341.7 307.5,-341.7"/>
<text text-anchor="start" x="314.9053" y="-347.8" font-family="Helvetica,sans-Serif" font-size="11.00" fill="#000000">7 &gt;</text>
</a>
</g>
</g>
<!-- direcciones&#45;&gt;personas -->
<g id="edge3" class="edge">
<title>direcciones:w&#45;&gt;personas:e</title>
<path fill="none" stroke="#000000" d="M434.3186,-309.7284C424.9143,-314.5376 420.5096,-324.1491 407,-331.7 374.8996,-349.6419 370.2743,-369.7 333.5,-369.7"/>
<polygon fill="#000000" stroke="#000000" points="440.6764,-308.3707 449.2518,-310.2206 444.5882,-307.5354 448.5,-306.7 448.5,-306.7 448.5,-306.7 444.5882,-307.5354 447.7482,-303.1794 440.6764,-308.3707 440.6764,-308.3707"/>
<ellipse fill="none" stroke="#000000" cx="437.547" cy="-309.039" rx="3.2" ry="3.2"/>
</g>
<!-- sedes -->
<g id="node5" class="node">
<title>sedes</title>
<g id="a_node5"><a xlink:href="../../tables/sedes.html" xlink:title="sedes" target="_top">
<polygon fill="#ffffff" stroke="transparent" points="253.5,-38.2 253.5,-99.2 325.5,-99.2 325.5,-38.2 253.5,-38.2"/>
<polygon fill="#f5f5f5" stroke="transparent" points="253.5,-75.7 253.5,-98.7 325.5,-98.7 325.5,-75.7 253.5,-75.7"/>
<polygon fill="none" stroke="#000000" points="253.5,-75.7 253.5,-98.7 325.5,-98.7 325.5,-75.7 253.5,-75.7"/>
<text text-anchor="start" x="258.3277" y="-84.8" font-family="Helvetica,sans-Serif" font-weight="bold" font-size="11.00" fill="#000000">sedes</text>
<text text-anchor="start" x="291.0219" y="-83.8" font-family="Helvetica,sans-Serif" font-size="11.00" fill="#000000">[table]</text>
<polygon fill="none" stroke="#000000" points="253.5,-56.7 253.5,-75.7 325.5,-75.7 325.5,-56.7 253.5,-56.7"/>
<text text-anchor="start" x="256.5" y="-62.8" font-family="Helvetica,sans-Serif" font-size="11.00" fill="#000000">...</text>
<polygon fill="#ffffff" stroke="transparent" points="253.5,-37.7 253.5,-56.7 265.5,-56.7 265.5,-37.7 253.5,-37.7"/>
<polygon fill="none" stroke="#000000" points="253.5,-37.7 253.5,-56.7 265.5,-56.7 265.5,-37.7 253.5,-37.7"/>
<text text-anchor="start" x="256.4431" y="-43.8" font-family="Helvetica,sans-Serif" font-size="11.00" fill="#000000"> &#160;</text>
<polygon fill="#ffffff" stroke="transparent" points="265.5,-37.7 265.5,-56.7 303.5,-56.7 303.5,-37.7 265.5,-37.7"/>
<polygon fill="none" stroke="#000000" points="265.5,-37.7 265.5,-56.7 303.5,-56.7 303.5,-37.7 265.5,-37.7"/>
<text text-anchor="start" x="268.3053" y="-43.8" font-family="Helvetica,sans-Serif" font-size="11.00" fill="#000000">0 rows</text>
<polygon fill="#ffffff" stroke="transparent" points="303.5,-37.7 303.5,-56.7 325.5,-56.7 325.5,-37.7 303.5,-37.7"/>
<polygon fill="none" stroke="#000000" points="303.5,-37.7 303.5,-56.7 325.5,-56.7 325.5,-37.7 303.5,-37.7"/>
<text text-anchor="start" x="306.9053" y="-43.8" font-family="Helvetica,sans-Serif" font-size="11.00" fill="#000000">3 &gt;</text>
</a>
</g>
</g>
<!-- direcciones&#45;&gt;sedes -->
<g id="edge4" class="edge">
<title>direcciones:w&#45;&gt;sedes:e</title>
<path fill="none" stroke="#000000" d="M433.9882,-260.8194C389.4798,-247.0753 446.7386,-161.2296 407,-110.7 381.4218,-78.1761 366.8769,-65.7 325.5,-65.7"/>
<polygon fill="#000000" stroke="#000000" points="440.5663,-261.6718 448.0373,-266.2701 444.5332,-262.1859 448.5,-262.7 448.5,-262.7 448.5,-262.7 444.5332,-262.1859 448.9627,-259.1299 440.5663,-261.6718 440.5663,-261.6718"/>
<ellipse fill="none" stroke="#000000" cx="437.3929" cy="-261.2605" rx="3.2" ry="3.2"/>
</g>
</g>
</svg>
