<?xml version="1.0" encoding="UTF-8" standalone="no"?>
<!DOCTYPE svg PUBLIC "-//W3C//DTD SVG 1.1//EN"
 "http://www.w3.org/Graphics/SVG/1.1/DTD/svg11.dtd">
<!-- Generated by graphviz version 2.40.1 (20161225.0304)
 -->
<!-- Title: oneDegreeRelationshipsDiagram Pages: 1 -->
<svg width="1053pt" height="374pt"
 viewBox="0.00 0.00 1053.00 373.70" xmlns="http://www.w3.org/2000/svg" xmlns:xlink="http://www.w3.org/1999/xlink">
<g id="graph0" class="graph" transform="scale(1 1) rotate(0) translate(4 369.7)">
<title>oneDegreeRelationshipsDiagram</title>
<polygon fill="#ffffff" stroke="transparent" points="-4,4 -4,-369.7 1049,-369.7 1049,4 -4,4"/>
<text text-anchor="middle" x="72.4936" y="-7.3" font-family="Helvetica,sans-Serif" font-size="11.00" fill="#000000">Generated by SchemaSpy</text>
<!-- contactos -->
<g id="node1" class="node">
<title>contactos</title>
<g id="a_node1"><a xlink:href="../../tables/contactos.html" xlink:title="contactos" target="_top">
<polygon fill="#ffffff" stroke="transparent" points="352,-38.2 352,-260.2 669,-260.2 669,-38.2 352,-38.2"/>
<polygon fill="#f5f5f5" stroke="transparent" points="354.5,-235.2 354.5,-258.2 667.5,-258.2 667.5,-235.2 354.5,-235.2"/>
<polygon fill="none" stroke="#000000" points="354.5,-235.2 354.5,-258.2 667.5,-258.2 667.5,-235.2 354.5,-235.2"/>
<text text-anchor="start" x="359.5" y="-244.3" font-family="Helvetica,sans-Serif" font-weight="bold" font-size="11.00" fill="#000000">contactos</text>
<text text-anchor="start" x="632.5437" y="-243.3" font-family="Helvetica,sans-Serif" font-size="11.00" fill="#000000">[table]</text>
<polygon fill="none" stroke="#000000" points="354.5,-213.2 354.5,-235.2 477.5,-235.2 477.5,-213.2 354.5,-213.2"/>
<image xlink:href="../../images/primaryKeys.png" width="11px" height="12px" preserveAspectRatio="xMinYMin meet" x="359.5" y="-230.2"/>
<text text-anchor="start" x="374.5" y="-220.3" font-family="Helvetica,sans-Serif" font-size="11.00" fill="#000000">contacto_id</text>
<polygon fill="none" stroke="#000000" points="477.5,-213.2 477.5,-235.2 667.5,-235.2 667.5,-213.2 477.5,-213.2"/>
<text text-anchor="start" x="480.5" y="-220.9" font-family="Helvetica,sans-Serif" font-size="11.00" fill="#000000">serial[10]</text>
<polygon fill="none" stroke="#000000" points="354.5,-191.2 354.5,-213.2 477.5,-213.2 477.5,-191.2 354.5,-191.2"/>
<image xlink:href="../../images/foreignKeys.png" width="11px" height="12px" preserveAspectRatio="xMinYMin meet" x="359.5" y="-208.2"/>
<text text-anchor="start" x="374.5" y="-198.3" font-family="Helvetica,sans-Serif" font-size="11.00" fill="#000000">persona_id</text>
<polygon fill="none" stroke="#000000" points="477.5,-191.2 477.5,-213.2 667.5,-213.2 667.5,-191.2 477.5,-191.2"/>
<text text-anchor="start" x="480.5" y="-198.9" font-family="Helvetica,sans-Serif" font-size="11.00" fill="#000000">int4[10]</text>
<polygon fill="none" stroke="#000000" points="354.5,-169.2 354.5,-191.2 477.5,-191.2 477.5,-169.2 354.5,-169.2"/>
<image xlink:href="../../images/foreignKeys.png" width="11px" height="12px" preserveAspectRatio="xMinYMin meet" x="359.5" y="-186.2"/>
<text text-anchor="start" x="374.5" y="-176.3" font-family="Helvetica,sans-Serif" font-size="11.00" fill="#000000">organizacion_id</text>
<polygon fill="none" stroke="#000000" points="477.5,-169.2 477.5,-191.2 667.5,-191.2 667.5,-169.2 477.5,-169.2"/>
<text text-anchor="start" x="480.5" y="-176.9" font-family="Helvetica,sans-Serif" font-size="11.00" fill="#000000">int4[10]</text>
<polygon fill="none" stroke="#000000" points="354.5,-147.2 354.5,-169.2 477.5,-169.2 477.5,-147.2 354.5,-147.2"/>
<text text-anchor="start" x="374.5" y="-154.3" font-family="Helvetica,sans-Serif" font-size="11.00" fill="#000000">origen</text>
<polygon fill="none" stroke="#000000" points="477.5,-147.2 477.5,-169.2 667.5,-169.2 667.5,-147.2 477.5,-147.2"/>
<text text-anchor="start" x="480.1825" y="-154.9" font-family="Helvetica,sans-Serif" font-size="11.00" fill="#000000">enum_contactos_origen[2147483647]</text>
<polygon fill="none" stroke="#000000" points="354.5,-125.2 354.5,-147.2 477.5,-147.2 477.5,-125.2 354.5,-125.2"/>
<text text-anchor="start" x="374.5" y="-132.3" font-family="Helvetica,sans-Serif" font-size="11.00" fill="#000000">usu_insercion</text>
<polygon fill="none" stroke="#000000" points="477.5,-125.2 477.5,-147.2 667.5,-147.2 667.5,-125.2 477.5,-125.2"/>
<text text-anchor="start" x="480.5" y="-132.9" font-family="Helvetica,sans-Serif" font-size="11.00" fill="#000000">varchar[20]</text>
<polygon fill="none" stroke="#000000" points="354.5,-103.2 354.5,-125.2 477.5,-125.2 477.5,-103.2 354.5,-103.2"/>
<text text-anchor="start" x="374.5" y="-110.3" font-family="Helvetica,sans-Serif" font-size="11.00" fill="#000000">fec_insercion</text>
<polygon fill="none" stroke="#000000" points="477.5,-103.2 477.5,-125.2 667.5,-125.2 667.5,-103.2 477.5,-103.2"/>
<text text-anchor="start" x="480.5" y="-110.9" font-family="Helvetica,sans-Serif" font-size="11.00" fill="#000000">timestamptz[35,6]</text>
<polygon fill="none" stroke="#000000" points="354.5,-81.2 354.5,-103.2 477.5,-103.2 477.5,-81.2 354.5,-81.2"/>
<text text-anchor="start" x="374.5" y="-88.3" font-family="Helvetica,sans-Serif" font-size="11.00" fill="#000000">fec_modificacion</text>
<polygon fill="none" stroke="#000000" points="477.5,-81.2 477.5,-103.2 667.5,-103.2 667.5,-81.2 477.5,-81.2"/>
<text text-anchor="start" x="480.5" y="-88.9" font-family="Helvetica,sans-Serif" font-size="11.00" fill="#000000">timestamptz[35,6]</text>
<polygon fill="none" stroke="#000000" points="354.5,-59.2 354.5,-81.2 477.5,-81.2 477.5,-59.2 354.5,-59.2"/>
<text text-anchor="start" x="374.5" y="-66.3" font-family="Helvetica,sans-Serif" font-size="11.00" fill="#000000">usu_modificacion</text>
<polygon fill="none" stroke="#000000" points="477.5,-59.2 477.5,-81.2 667.5,-81.2 667.5,-59.2 477.5,-59.2"/>
<text text-anchor="start" x="480.5" y="-66.9" font-family="Helvetica,sans-Serif" font-size="11.00" fill="#000000">varchar[20]</text>
<polygon fill="#ffffff" stroke="transparent" points="354.5,-40.2 354.5,-59.2 407.5,-59.2 407.5,-40.2 354.5,-40.2"/>
<polygon fill="none" stroke="#000000" points="354.5,-40.2 354.5,-59.2 407.5,-59.2 407.5,-40.2 354.5,-40.2"/>
<text text-anchor="start" x="357.5" y="-46.3" font-family="Helvetica,sans-Serif" font-size="11.00" fill="#000000">&lt; 2</text>
<polygon fill="#ffffff" stroke="transparent" points="407.5,-40.2 407.5,-59.2 477.5,-59.2 477.5,-40.2 407.5,-40.2"/>
<polygon fill="none" stroke="#000000" points="407.5,-40.2 407.5,-59.2 477.5,-59.2 477.5,-40.2 407.5,-40.2"/>
<text text-anchor="start" x="442.1105" y="-46.3" font-family="Helvetica,sans-Serif" font-size="11.00" fill="#000000">0 rows</text>
<polygon fill="#ffffff" stroke="transparent" points="477.5,-40.2 477.5,-59.2 667.5,-59.2 667.5,-40.2 477.5,-40.2"/>
<polygon fill="none" stroke="#000000" points="477.5,-40.2 477.5,-59.2 667.5,-59.2 667.5,-40.2 477.5,-40.2"/>
<text text-anchor="start" x="648.9053" y="-46.3" font-family="Helvetica,sans-Serif" font-size="11.00" fill="#000000">2 &gt;</text>
<polygon fill="none" stroke="#000000" stroke-width="2" points="353,-39.2 353,-259.2 668,-259.2 668,-39.2 353,-39.2"/>
</a>
</g>
</g>
<!-- organizaciones -->
<g id="node2" class="node">
<title>organizaciones</title>
<g id="a_node2"><a xlink:href="../../tables/organizaciones.html" xlink:title="organizaciones" target="_top">
<polygon fill="#ffffff" stroke="transparent" points="180,-91.7 180,-196.7 303,-196.7 303,-91.7 180,-91.7"/>
<polygon fill="#f5f5f5" stroke="transparent" points="180.5,-173.2 180.5,-196.2 303.5,-196.2 303.5,-173.2 180.5,-173.2"/>
<polygon fill="none" stroke="#000000" points="180.5,-173.2 180.5,-196.2 303.5,-196.2 303.5,-173.2 180.5,-173.2"/>
<text text-anchor="start" x="185.5" y="-182.3" font-family="Helvetica,sans-Serif" font-weight="bold" font-size="11.00" fill="#000000">organizaciones</text>
<text text-anchor="start" x="268.5437" y="-181.3" font-family="Helvetica,sans-Serif" font-size="11.00" fill="#000000">[table]</text>
<polygon fill="none" stroke="#000000" points="180.5,-151.2 180.5,-173.2 303.5,-173.2 303.5,-151.2 180.5,-151.2"/>
<image xlink:href="../../images/primaryKeys.png" width="11px" height="12px" preserveAspectRatio="xMinYMin meet" x="185.5" y="-168.2"/>
<text text-anchor="start" x="200.5" y="-158.3" font-family="Helvetica,sans-Serif" font-size="11.00" fill="#000000">organizacion_id</text>
<polygon fill="none" stroke="#000000" points="180.5,-129.2 180.5,-151.2 303.5,-151.2 303.5,-129.2 180.5,-129.2"/>
<image xlink:href="../../images/foreignKeys.png" width="11px" height="12px" preserveAspectRatio="xMinYMin meet" x="185.5" y="-146.2"/>
<text text-anchor="start" x="200.5" y="-136.3" font-family="Helvetica,sans-Serif" font-size="11.00" fill="#000000">persona_id</text>
<polygon fill="none" stroke="#000000" points="180.5,-110.2 180.5,-129.2 303.5,-129.2 303.5,-110.2 180.5,-110.2"/>
<text text-anchor="start" x="183.5" y="-116.3" font-family="Helvetica,sans-Serif" font-size="11.00" fill="#000000">...</text>
<polygon fill="#ffffff" stroke="transparent" points="180.5,-91.2 180.5,-110.2 222.5,-110.2 222.5,-91.2 180.5,-91.2"/>
<polygon fill="none" stroke="#000000" points="180.5,-91.2 180.5,-110.2 222.5,-110.2 222.5,-91.2 180.5,-91.2"/>
<text text-anchor="start" x="183.5" y="-97.3" font-family="Helvetica,sans-Serif" font-size="11.00" fill="#000000">&lt; 1</text>
<polygon fill="#ffffff" stroke="transparent" points="222.5,-91.2 222.5,-110.2 271.5,-110.2 271.5,-91.2 222.5,-91.2"/>
<polygon fill="none" stroke="#000000" points="222.5,-91.2 222.5,-110.2 271.5,-110.2 271.5,-91.2 222.5,-91.2"/>
<text text-anchor="start" x="236.1105" y="-97.3" font-family="Helvetica,sans-Serif" font-size="11.00" fill="#000000">0 rows</text>
<polygon fill="#ffffff" stroke="transparent" points="271.5,-91.2 271.5,-110.2 303.5,-110.2 303.5,-91.2 271.5,-91.2"/>
<polygon fill="none" stroke="#000000" points="271.5,-91.2 271.5,-110.2 303.5,-110.2 303.5,-91.2 271.5,-91.2"/>
<text text-anchor="start" x="284.9053" y="-97.3" font-family="Helvetica,sans-Serif" font-size="11.00" fill="#000000">1 &gt;</text>
</a>
</g>
</g>
<!-- contactos&#45;&gt;organizaciones -->
<g id="edge1" class="edge">
<title>contactos:w&#45;&gt;organizaciones:e</title>
<path fill="none" stroke="#000000" d="M340.1506,-177.544C327.8075,-172.537 321.7155,-162.2 303.5,-162.2"/>
<polygon fill="#000000" stroke="#000000" points="346.6336,-178.7439 353.8448,-183.7399 350.5668,-179.472 354.5,-180.2 354.5,-180.2 354.5,-180.2 350.5668,-179.472 355.1552,-176.6601 346.6336,-178.7439 346.6336,-178.7439"/>
<ellipse fill="none" stroke="#000000" cx="343.4871" cy="-178.1615" rx="3.2" ry="3.2"/>
</g>
<!-- personas -->
<g id="node3" class="node">
<title>personas</title>
<g id="a_node3"><a xlink:href="../../tables/personas.html" xlink:title="personas" target="_top">
<polygon fill="#ffffff" stroke="transparent" points="8,-131.7 8,-214.7 131,-214.7 131,-131.7 8,-131.7"/>
<polygon fill="#f5f5f5" stroke="transparent" points="8.5,-191.2 8.5,-214.2 131.5,-214.2 131.5,-191.2 8.5,-191.2"/>
<polygon fill="none" stroke="#000000" points="8.5,-191.2 8.5,-214.2 131.5,-214.2 131.5,-191.2 8.5,-191.2"/>
<text text-anchor="start" x="13.5" y="-200.3" font-family="Helvetica,sans-Serif" font-weight="bold" font-size="11.00" fill="#000000">personas</text>
<text text-anchor="start" x="96.5437" y="-199.3" font-family="Helvetica,sans-Serif" font-size="11.00" fill="#000000">[table]</text>
<polygon fill="none" stroke="#000000" points="8.5,-169.2 8.5,-191.2 131.5,-191.2 131.5,-169.2 8.5,-169.2"/>
<image xlink:href="../../images/primaryKeys.png" width="11px" height="12px" preserveAspectRatio="xMinYMin meet" x="13.5" y="-186.2"/>
<text text-anchor="start" x="28.5" y="-176.3" font-family="Helvetica,sans-Serif" font-size="11.00" fill="#000000">persona_id</text>
<polygon fill="none" stroke="#000000" points="8.5,-150.2 8.5,-169.2 131.5,-169.2 131.5,-150.2 8.5,-150.2"/>
<text text-anchor="start" x="11.5" y="-156.3" font-family="Helvetica,sans-Serif" font-size="11.00" fill="#000000">...</text>
<polygon fill="#ffffff" stroke="transparent" points="8.5,-131.2 8.5,-150.2 46.5,-150.2 46.5,-131.2 8.5,-131.2"/>
<polygon fill="none" stroke="#000000" points="8.5,-131.2 8.5,-150.2 46.5,-150.2 46.5,-131.2 8.5,-131.2"/>
<text text-anchor="start" x="11.5" y="-137.3" font-family="Helvetica,sans-Serif" font-size="11.00" fill="#000000"> &#160;</text>
<polygon fill="#ffffff" stroke="transparent" points="46.5,-131.2 46.5,-150.2 97.5,-150.2 97.5,-131.2 46.5,-131.2"/>
<polygon fill="none" stroke="#000000" points="46.5,-131.2 46.5,-150.2 97.5,-150.2 97.5,-131.2 46.5,-131.2"/>
<text text-anchor="start" x="62.1105" y="-137.3" font-family="Helvetica,sans-Serif" font-size="11.00" fill="#000000">0 rows</text>
<polygon fill="#ffffff" stroke="transparent" points="97.5,-131.2 97.5,-150.2 131.5,-150.2 131.5,-131.2 97.5,-131.2"/>
<polygon fill="none" stroke="#000000" points="97.5,-131.2 97.5,-150.2 131.5,-150.2 131.5,-131.2 97.5,-131.2"/>
<text text-anchor="start" x="112.9053" y="-137.3" font-family="Helvetica,sans-Serif" font-size="11.00" fill="#000000">7 &gt;</text>
</a>
</g>
</g>
<!-- contactos&#45;&gt;personas -->
<g id="edge2" class="edge">
<title>contactos:w&#45;&gt;personas:e</title>
<path fill="none" stroke="#000000" d="M340.0084,-203.0941C330.8542,-204.3111 324.5091,-206.4262 311,-207.2 249.3233,-210.733 231.127,-225.1022 172,-207.2 151.2949,-200.931 153.1333,-180.2 131.5,-180.2"/>
<polygon fill="#000000" stroke="#000000" points="346.5152,-202.6927 354.7217,-205.7932 350.5076,-202.4464 354.5,-202.2 354.5,-202.2 354.5,-202.2 350.5076,-202.4464 354.2783,-198.6068 346.5152,-202.6927 346.5152,-202.6927"/>
<ellipse fill="none" stroke="#000000" cx="343.3213" cy="-202.8898" rx="3.2" ry="3.2"/>
</g>
<!-- organizaciones&#45;&gt;personas -->
<g id="edge6" class="edge">
<title>organizaciones:w&#45;&gt;personas:e</title>
<path fill="none" stroke="#000000" d="M166.7637,-144.7885C153.8632,-155.2952 153.6826,-180.2 131.5,-180.2"/>
<polygon fill="#000000" stroke="#000000" points="172.9121,-142.7347 181.6406,-143.6145 176.7061,-141.4673 180.5,-140.2 180.5,-140.2 180.5,-140.2 176.7061,-141.4673 179.3594,-136.7855 172.9121,-142.7347 172.9121,-142.7347"/>
<ellipse fill="none" stroke="#000000" cx="169.877" cy="-143.7486" rx="3.2" ry="3.2"/>
</g>
<!-- encuesta_respuestas -->
<g id="node4" class="node">
<title>encuesta_respuestas</title>
<g id="a_node4"><a xlink:href="../../tables/encuesta_respuestas.html" xlink:title="encuesta_respuestas" target="_top">
<polygon fill="#ffffff" stroke="transparent" points="890,-186.7 890,-313.7 1037,-313.7 1037,-186.7 890,-186.7"/>
<polygon fill="#f5f5f5" stroke="transparent" points="890.5,-290.2 890.5,-313.2 1037.5,-313.2 1037.5,-290.2 890.5,-290.2"/>
<polygon fill="none" stroke="#000000" points="890.5,-290.2 890.5,-313.2 1037.5,-313.2 1037.5,-290.2 890.5,-290.2"/>
<text text-anchor="start" x="895.2302" y="-299.3" font-family="Helvetica,sans-Serif" font-weight="bold" font-size="11.00" fill="#000000">encuesta_respuestas</text>
<text text-anchor="start" x="1003.0219" y="-298.3" font-family="Helvetica,sans-Serif" font-size="11.00" fill="#000000">[table]</text>
<polygon fill="none" stroke="#000000" points="890.5,-268.2 890.5,-290.2 1037.5,-290.2 1037.5,-268.2 890.5,-268.2"/>
<image xlink:href="../../images/primaryKeys.png" width="11px" height="12px" preserveAspectRatio="xMinYMin meet" x="895.5" y="-285.2"/>
<text text-anchor="start" x="912.5" y="-275.3" font-family="Helvetica,sans-Serif" font-size="11.00" fill="#000000">respuesta_id</text>
<polygon fill="none" stroke="#000000" points="890.5,-246.2 890.5,-268.2 1037.5,-268.2 1037.5,-246.2 890.5,-246.2"/>
<image xlink:href="../../images/foreignKeys.png" width="11px" height="12px" preserveAspectRatio="xMinYMin meet" x="895.5" y="-263.2"/>
<text text-anchor="start" x="912.5" y="-253.3" font-family="Helvetica,sans-Serif" font-size="11.00" fill="#000000">oportunidad_id</text>
<polygon fill="none" stroke="#000000" points="890.5,-224.2 890.5,-246.2 1037.5,-246.2 1037.5,-224.2 890.5,-224.2"/>
<image xlink:href="../../images/foreignKeys.png" width="11px" height="12px" preserveAspectRatio="xMinYMin meet" x="895.5" y="-241.2"/>
<text text-anchor="start" x="912.5" y="-231.3" font-family="Helvetica,sans-Serif" font-size="11.00" fill="#000000">contacto_id</text>
<polygon fill="none" stroke="#000000" points="890.5,-205.2 890.5,-224.2 1037.5,-224.2 1037.5,-205.2 890.5,-205.2"/>
<text text-anchor="start" x="893.5" y="-211.3" font-family="Helvetica,sans-Serif" font-size="11.00" fill="#000000">...</text>
<polygon fill="#ffffff" stroke="transparent" points="890.5,-186.2 890.5,-205.2 944.5,-205.2 944.5,-186.2 890.5,-186.2"/>
<polygon fill="none" stroke="#000000" points="890.5,-186.2 890.5,-205.2 944.5,-205.2 944.5,-186.2 890.5,-186.2"/>
<text text-anchor="start" x="893.5" y="-192.3" font-family="Helvetica,sans-Serif" font-size="11.00" fill="#000000">&lt; 2</text>
<polygon fill="#ffffff" stroke="transparent" points="944.5,-186.2 944.5,-205.2 999.5,-205.2 999.5,-186.2 944.5,-186.2"/>
<polygon fill="none" stroke="#000000" points="944.5,-186.2 944.5,-205.2 999.5,-205.2 999.5,-186.2 944.5,-186.2"/>
<text text-anchor="start" x="964.1105" y="-192.3" font-family="Helvetica,sans-Serif" font-size="11.00" fill="#000000">0 rows</text>
<polygon fill="#ffffff" stroke="transparent" points="999.5,-186.2 999.5,-205.2 1037.5,-205.2 1037.5,-186.2 999.5,-186.2"/>
<polygon fill="none" stroke="#000000" points="999.5,-186.2 999.5,-205.2 1037.5,-205.2 1037.5,-186.2 999.5,-186.2"/>
<text text-anchor="start" x="1018.9053" y="-192.3" font-family="Helvetica,sans-Serif" font-size="11.00" fill="#000000">1 &gt;</text>
</a>
</g>
</g>
<!-- encuesta_respuestas&#45;&gt;contactos -->
<g id="edge3" class="edge">
<title>encuesta_respuestas:w&#45;&gt;contactos:e</title>
<path fill="none" stroke="#000000" d="M876.5611,-230.329C864.8968,-218.9896 870.6277,-190.9746 849,-180.2 793.7042,-152.6524 766.8681,-156.0647 710,-180.2 684.9723,-190.8219 694.6884,-224.2 667.5,-224.2"/>
<polygon fill="#000000" stroke="#000000" points="882.9478,-232.5609 889.3124,-238.5985 886.7239,-233.8804 890.5,-235.2 890.5,-235.2 890.5,-235.2 886.7239,-233.8804 891.6876,-231.8015 882.9478,-232.5609 882.9478,-232.5609"/>
<ellipse fill="none" stroke="#000000" cx="879.927" cy="-231.5052" rx="3.2" ry="3.2"/>
</g>
<!-- oportunidades -->
<g id="node5" class="node">
<title>oportunidades</title>
<g id="a_node5"><a xlink:href="../../tables/oportunidades.html" xlink:title="oportunidades" target="_top">
<polygon fill="#ffffff" stroke="transparent" points="718,-190.7 718,-361.7 841,-361.7 841,-190.7 718,-190.7"/>
<polygon fill="#f5f5f5" stroke="transparent" points="718.5,-338.2 718.5,-361.2 841.5,-361.2 841.5,-338.2 718.5,-338.2"/>
<polygon fill="none" stroke="#000000" points="718.5,-338.2 718.5,-361.2 841.5,-361.2 841.5,-338.2 718.5,-338.2"/>
<text text-anchor="start" x="723.5" y="-347.3" font-family="Helvetica,sans-Serif" font-weight="bold" font-size="11.00" fill="#000000">oportunidades</text>
<text text-anchor="start" x="806.5437" y="-346.3" font-family="Helvetica,sans-Serif" font-size="11.00" fill="#000000">[table]</text>
<polygon fill="none" stroke="#000000" points="718.5,-316.2 718.5,-338.2 841.5,-338.2 841.5,-316.2 718.5,-316.2"/>
<image xlink:href="../../images/primaryKeys.png" width="11px" height="12px" preserveAspectRatio="xMinYMin meet" x="723.5" y="-333.2"/>
<text text-anchor="start" x="738.5" y="-323.3" font-family="Helvetica,sans-Serif" font-size="11.00" fill="#000000">oportunidad_id</text>
<polygon fill="none" stroke="#000000" points="718.5,-294.2 718.5,-316.2 841.5,-316.2 841.5,-294.2 718.5,-294.2"/>
<image xlink:href="../../images/foreignKeys.png" width="11px" height="12px" preserveAspectRatio="xMinYMin meet" x="723.5" y="-311.2"/>
<text text-anchor="start" x="738.5" y="-301.3" font-family="Helvetica,sans-Serif" font-size="11.00" fill="#000000">campana_id</text>
<polygon fill="none" stroke="#000000" points="718.5,-272.2 718.5,-294.2 841.5,-294.2 841.5,-272.2 718.5,-272.2"/>
<image xlink:href="../../images/foreignKeys.png" width="11px" height="12px" preserveAspectRatio="xMinYMin meet" x="723.5" y="-289.2"/>
<text text-anchor="start" x="738.5" y="-279.3" font-family="Helvetica,sans-Serif" font-size="11.00" fill="#000000">contacto_id</text>
<polygon fill="none" stroke="#000000" points="718.5,-250.2 718.5,-272.2 841.5,-272.2 841.5,-250.2 718.5,-250.2"/>
<image xlink:href="../../images/foreignKeys.png" width="11px" height="12px" preserveAspectRatio="xMinYMin meet" x="723.5" y="-267.2"/>
<text text-anchor="start" x="738.5" y="-257.3" font-family="Helvetica,sans-Serif" font-size="11.00" fill="#000000">curso_id</text>
<polygon fill="none" stroke="#000000" points="718.5,-228.2 718.5,-250.2 841.5,-250.2 841.5,-228.2 718.5,-228.2"/>
<image xlink:href="../../images/foreignKeys.png" width="11px" height="12px" preserveAspectRatio="xMinYMin meet" x="723.5" y="-245.2"/>
<text text-anchor="start" x="738.5" y="-235.3" font-family="Helvetica,sans-Serif" font-size="11.00" fill="#000000">usu_asignado_id</text>
<polygon fill="none" stroke="#000000" points="718.5,-209.2 718.5,-228.2 841.5,-228.2 841.5,-209.2 718.5,-209.2"/>
<text text-anchor="start" x="721.5" y="-215.3" font-family="Helvetica,sans-Serif" font-size="11.00" fill="#000000">...</text>
<polygon fill="#ffffff" stroke="transparent" points="718.5,-190.2 718.5,-209.2 760.5,-209.2 760.5,-190.2 718.5,-190.2"/>
<polygon fill="none" stroke="#000000" points="718.5,-190.2 718.5,-209.2 760.5,-209.2 760.5,-190.2 718.5,-190.2"/>
<text text-anchor="start" x="721.5" y="-196.3" font-family="Helvetica,sans-Serif" font-size="11.00" fill="#000000">&lt; 4</text>
<polygon fill="#ffffff" stroke="transparent" points="760.5,-190.2 760.5,-209.2 809.5,-209.2 809.5,-190.2 760.5,-190.2"/>
<polygon fill="none" stroke="#000000" points="760.5,-190.2 760.5,-209.2 809.5,-209.2 809.5,-190.2 760.5,-190.2"/>
<text text-anchor="start" x="774.1105" y="-196.3" font-family="Helvetica,sans-Serif" font-size="11.00" fill="#000000">0 rows</text>
<polygon fill="#ffffff" stroke="transparent" points="809.5,-190.2 809.5,-209.2 841.5,-209.2 841.5,-190.2 809.5,-190.2"/>
<polygon fill="none" stroke="#000000" points="809.5,-190.2 809.5,-209.2 841.5,-209.2 841.5,-190.2 809.5,-190.2"/>
<text text-anchor="start" x="822.9053" y="-196.3" font-family="Helvetica,sans-Serif" font-size="11.00" fill="#000000">1 &gt;</text>
</a>
</g>
</g>
<!-- encuesta_respuestas&#45;&gt;oportunidades -->
<g id="edge4" class="edge">
<title>encuesta_respuestas:w&#45;&gt;oportunidades:e</title>
<path fill="none" stroke="#000000" d="M876.4782,-262.2342C859.62,-278.2846 873.2455,-327.2 841.5,-327.2"/>
<polygon fill="#000000" stroke="#000000" points="882.9706,-259.9033 891.7165,-260.5882 886.7353,-258.5517 890.5,-257.2 890.5,-257.2 890.5,-257.2 886.7353,-258.5517 889.2835,-253.8118 882.9706,-259.9033 882.9706,-259.9033"/>
<ellipse fill="none" stroke="#000000" cx="879.9588" cy="-260.9846" rx="3.2" ry="3.2"/>
</g>
<!-- oportunidades&#45;&gt;contactos -->
<g id="edge5" class="edge">
<title>oportunidades:w&#45;&gt;contactos:e</title>
<path fill="none" stroke="#000000" d="M704.7854,-278.5704C688.572,-264.6617 696.2036,-224.2 667.5,-224.2"/>
<polygon fill="#000000" stroke="#000000" points="710.9202,-280.6413 717.3486,-286.6109 714.7101,-281.9206 718.5,-283.2 718.5,-283.2 718.5,-283.2 714.7101,-281.9206 719.6514,-279.7891 710.9202,-280.6413 710.9202,-280.6413"/>
<ellipse fill="none" stroke="#000000" cx="707.8883" cy="-279.6178" rx="3.2" ry="3.2"/>
</g>
</g>
</svg>
