<?xml version="1.0" encoding="UTF-8" standalone="no"?>
<!DOCTYPE svg PUBLIC "-//W3C//DTD SVG 1.1//EN"
 "http://www.w3.org/Graphics/SVG/1.1/DTD/svg11.dtd">
<!-- Generated by graphviz version 2.40.1 (20161225.0304)
 -->
<!-- Title: twoDegreesRelationshipsDiagramImplied Pages: 1 -->
<svg width="963pt" height="446pt"
 viewBox="0.00 0.00 963.00 446.31" xmlns="http://www.w3.org/2000/svg" xmlns:xlink="http://www.w3.org/1999/xlink">
<g id="graph0" class="graph" transform="scale(1 1) rotate(0) translate(4 442.3137)">
<title>twoDegreesRelationshipsDiagramImplied</title>
<polygon fill="#ffffff" stroke="transparent" points="-4,4 -4,-442.3137 959,-442.3137 959,4 -4,4"/>
<text text-anchor="middle" x="72.4936" y="-7.3" font-family="Helvetica,sans-Serif" font-size="11.00" fill="#000000">Generated by SchemaSpy</text>
<!-- campanas -->
<g id="node1" class="node">
<title>campanas</title>
<g id="a_node1"><a xlink:href="../../tables/campanas.html" xlink:title="campanas" target="_top">
<polygon fill="#ffffff" stroke="transparent" points="322.5,-180.2 322.5,-241.2 415.5,-241.2 415.5,-180.2 322.5,-180.2"/>
<polygon fill="#f5f5f5" stroke="transparent" points="323,-217.7 323,-240.7 416,-240.7 416,-217.7 323,-217.7"/>
<polygon fill="none" stroke="#000000" points="323,-217.7 323,-240.7 416,-240.7 416,-217.7 323,-217.7"/>
<text text-anchor="start" x="327.6318" y="-226.8" font-family="Helvetica,sans-Serif" font-weight="bold" font-size="11.00" fill="#000000">campanas</text>
<text text-anchor="start" x="381.5219" y="-225.8" font-family="Helvetica,sans-Serif" font-size="11.00" fill="#000000">[table]</text>
<polygon fill="none" stroke="#000000" points="323,-198.7 323,-217.7 416,-217.7 416,-198.7 323,-198.7"/>
<text text-anchor="start" x="326" y="-204.8" font-family="Helvetica,sans-Serif" font-size="11.00" fill="#000000">...</text>
<polygon fill="#ffffff" stroke="transparent" points="323,-179.7 323,-198.7 350,-198.7 350,-179.7 323,-179.7"/>
<polygon fill="none" stroke="#000000" points="323,-179.7 323,-198.7 350,-198.7 350,-179.7 323,-179.7"/>
<text text-anchor="start" x="326" y="-185.8" font-family="Helvetica,sans-Serif" font-size="11.00" fill="#000000">&lt; 4</text>
<polygon fill="#ffffff" stroke="transparent" points="350,-179.7 350,-198.7 391,-198.7 391,-179.7 350,-179.7"/>
<polygon fill="none" stroke="#000000" points="350,-179.7 350,-198.7 391,-198.7 391,-179.7 350,-179.7"/>
<text text-anchor="start" x="355.6105" y="-185.8" font-family="Helvetica,sans-Serif" font-size="11.00" fill="#000000">0 rows</text>
<polygon fill="#ffffff" stroke="transparent" points="391,-179.7 391,-198.7 416,-198.7 416,-179.7 391,-179.7"/>
<polygon fill="none" stroke="#000000" points="391,-179.7 391,-198.7 416,-198.7 416,-179.7 391,-179.7"/>
<text text-anchor="start" x="397.4053" y="-185.8" font-family="Helvetica,sans-Serif" font-size="11.00" fill="#000000">1 &gt;</text>
</a>
</g>
</g>
<!-- usuarios -->
<g id="node2" class="node">
<title>usuarios</title>
<g id="a_node2"><a xlink:href="../../tables/usuarios.html" xlink:title="usuarios" target="_top">
<polygon fill="#ffffff" stroke="transparent" points="147,-180.2 147,-241.2 233,-241.2 233,-180.2 147,-180.2"/>
<polygon fill="#f5f5f5" stroke="transparent" points="147,-217.7 147,-240.7 233,-240.7 233,-217.7 147,-217.7"/>
<polygon fill="none" stroke="#000000" points="147,-217.7 147,-240.7 233,-240.7 233,-217.7 147,-217.7"/>
<text text-anchor="start" x="152" y="-226.8" font-family="Helvetica,sans-Serif" font-weight="bold" font-size="11.00" fill="#000000">usuarios</text>
<text text-anchor="start" x="198.0437" y="-225.8" font-family="Helvetica,sans-Serif" font-size="11.00" fill="#000000">[table]</text>
<polygon fill="none" stroke="#000000" points="147,-198.7 147,-217.7 233,-217.7 233,-198.7 147,-198.7"/>
<text text-anchor="start" x="150" y="-204.8" font-family="Helvetica,sans-Serif" font-size="11.00" fill="#000000">...</text>
<polygon fill="#ffffff" stroke="transparent" points="147,-179.7 147,-198.7 168,-198.7 168,-179.7 147,-179.7"/>
<polygon fill="none" stroke="#000000" points="147,-179.7 147,-198.7 168,-198.7 168,-179.7 147,-179.7"/>
<text text-anchor="start" x="149.7027" y="-185.8" font-family="Helvetica,sans-Serif" font-size="11.00" fill="#000000">&lt; 4</text>
<polygon fill="#ffffff" stroke="transparent" points="168,-179.7 168,-198.7 206,-198.7 206,-179.7 168,-179.7"/>
<polygon fill="none" stroke="#000000" points="168,-179.7 168,-198.7 206,-198.7 206,-179.7 168,-179.7"/>
<text text-anchor="start" x="170.8053" y="-185.8" font-family="Helvetica,sans-Serif" font-size="11.00" fill="#000000">0 rows</text>
<polygon fill="#ffffff" stroke="transparent" points="206,-179.7 206,-198.7 233,-198.7 233,-179.7 206,-179.7"/>
<polygon fill="none" stroke="#000000" points="206,-179.7 206,-198.7 233,-198.7 233,-179.7 206,-179.7"/>
<text text-anchor="start" x="208.6452" y="-185.8" font-family="Helvetica,sans-Serif" font-size="11.00" fill="#000000">19 &gt;</text>
</a>
</g>
</g>
<!-- campanas&#45;&gt;usuarios -->
<g id="edge1" class="edge">
<title>campanas:w&#45;&gt;usuarios:e</title>
<path fill="none" stroke="#000000" d="M309.6819,-201.6335C280.1382,-188.9786 268.1563,-191.0008 233,-207.7"/>
<polygon fill="#000000" stroke="#000000" points="315.7197,-204.3837 321.5077,-210.9761 319.3599,-206.0419 323,-207.7 323,-207.7 323,-207.7 319.3599,-206.0419 324.4923,-204.4239 315.7197,-204.3837 315.7197,-204.3837"/>
<ellipse fill="none" stroke="#000000" cx="312.8076" cy="-203.0572" rx="3.2" ry="3.2"/>
</g>
<!-- campanas&#45;&gt;usuarios -->
<g id="edge2" class="edge">
<title>campanas:w&#45;&gt;usuarios:e</title>
<path fill="none" stroke="#000000" d="M308.5095,-205.6269C279.8146,-201.8058 267.6875,-202.4969 233,-207.7"/>
<polygon fill="#000000" stroke="#000000" points="315.0806,-206.567 322.4901,-211.2637 319.0403,-207.1335 323,-207.7 323,-207.7 323,-207.7 319.0403,-207.1335 323.5099,-204.1363 315.0806,-206.567 315.0806,-206.567"/>
<ellipse fill="none" stroke="#000000" cx="311.9129" cy="-206.1137" rx="3.2" ry="3.2"/>
</g>
<!-- campanas&#45;&gt;usuarios -->
<g id="edge3" class="edge">
<title>campanas:w&#45;&gt;usuarios:e</title>
<path fill="none" stroke="#000000" d="M308.5095,-210.1186C279.8146,-214.5765 267.6875,-213.7703 233,-207.7"/>
<polygon fill="#000000" stroke="#000000" points="315.1092,-209.0171 323.5927,-211.2509 319.0546,-208.3586 323,-207.7 323,-207.7 323,-207.7 319.0546,-208.3586 322.4073,-204.1491 315.1092,-209.0171 315.1092,-209.0171"/>
<ellipse fill="none" stroke="#000000" cx="311.9528" cy="-209.544" rx="3.2" ry="3.2"/>
</g>
<!-- campanas&#45;&gt;usuarios -->
<g id="edge4" class="edge">
<title>campanas:w&#45;&gt;usuarios:e</title>
<path fill="none" stroke="#000000" d="M309.6819,-214.0858C280.1382,-227.4067 268.1563,-225.2781 233,-207.7"/>
<polygon fill="#000000" stroke="#000000" points="315.7864,-211.1589 324.5565,-210.9461 319.3932,-209.4294 323,-207.7 323,-207.7 323,-207.7 319.3932,-209.4294 321.4435,-204.4539 315.7864,-211.1589 315.7864,-211.1589"/>
<ellipse fill="none" stroke="#000000" cx="312.9009" cy="-212.5424" rx="3.2" ry="3.2"/>
</g>
<!-- personas -->
<g id="node5" class="node">
<title>personas</title>
<g id="a_node5"><a xlink:href="../../tables/personas.html" xlink:title="personas" target="_top">
<polygon fill="#ffffff" stroke="transparent" points="8,-236.2 8,-297.2 96,-297.2 96,-236.2 8,-236.2"/>
<polygon fill="#f5f5f5" stroke="transparent" points="8,-273.7 8,-296.7 96,-296.7 96,-273.7 8,-273.7"/>
<polygon fill="none" stroke="#000000" points="8,-273.7 8,-296.7 96,-296.7 96,-273.7 8,-273.7"/>
<text text-anchor="start" x="12.8818" y="-282.8" font-family="Helvetica,sans-Serif" font-weight="bold" font-size="11.00" fill="#000000">personas</text>
<text text-anchor="start" x="61.5219" y="-281.8" font-family="Helvetica,sans-Serif" font-size="11.00" fill="#000000">[table]</text>
<polygon fill="none" stroke="#000000" points="8,-254.7 8,-273.7 96,-273.7 96,-254.7 8,-254.7"/>
<text text-anchor="start" x="11" y="-260.8" font-family="Helvetica,sans-Serif" font-size="11.00" fill="#000000">...</text>
<polygon fill="#ffffff" stroke="transparent" points="8,-235.7 8,-254.7 28,-254.7 28,-235.7 8,-235.7"/>
<polygon fill="none" stroke="#000000" points="8,-235.7 8,-254.7 28,-254.7 28,-235.7 8,-235.7"/>
<text text-anchor="start" x="11" y="-241.8" font-family="Helvetica,sans-Serif" font-size="11.00" fill="#000000"> &#160;</text>
<polygon fill="#ffffff" stroke="transparent" points="28,-235.7 28,-254.7 70,-254.7 70,-235.7 28,-235.7"/>
<polygon fill="none" stroke="#000000" points="28,-235.7 28,-254.7 70,-254.7 70,-235.7 28,-235.7"/>
<text text-anchor="start" x="34.6105" y="-241.8" font-family="Helvetica,sans-Serif" font-size="11.00" fill="#000000">0 rows</text>
<polygon fill="#ffffff" stroke="transparent" points="70,-235.7 70,-254.7 96,-254.7 96,-235.7 70,-235.7"/>
<polygon fill="none" stroke="#000000" points="70,-235.7 70,-254.7 96,-254.7 96,-235.7 70,-235.7"/>
<text text-anchor="start" x="77.4053" y="-241.8" font-family="Helvetica,sans-Serif" font-size="11.00" fill="#000000">4 &gt;</text>
</a>
</g>
</g>
<!-- usuarios&#45;&gt;personas -->
<g id="edge19" class="edge">
<title>usuarios:w&#45;&gt;personas:e</title>
<path fill="none" stroke="#000000" d="M133.1154,-212.4745C117.5899,-226.0169 123.6146,-263.7 96,-263.7"/>
<polygon fill="#000000" stroke="#000000" points="139.4348,-210.3015 148.1707,-211.1043 143.2174,-209.0008 147,-207.7 147,-207.7 147,-207.7 143.2174,-209.0008 145.8293,-204.2957 139.4348,-210.3015 139.4348,-210.3015"/>
<ellipse fill="none" stroke="#000000" cx="136.4087" cy="-211.3421" rx="3.2" ry="3.2"/>
</g>
<!-- casos -->
<g id="node3" class="node">
<title>casos</title>
<g id="a_node3"><a xlink:href="../../tables/casos.html" xlink:title="casos" target="_top">
<polygon fill="#ffffff" stroke="transparent" points="333.5,-262.2 333.5,-323.2 404.5,-323.2 404.5,-262.2 333.5,-262.2"/>
<polygon fill="#f5f5f5" stroke="transparent" points="334,-299.7 334,-322.7 405,-322.7 405,-299.7 334,-299.7"/>
<polygon fill="none" stroke="#000000" points="334,-299.7 334,-322.7 405,-322.7 405,-299.7 334,-299.7"/>
<text text-anchor="start" x="338.6351" y="-308.8" font-family="Helvetica,sans-Serif" font-weight="bold" font-size="11.00" fill="#000000">casos</text>
<text text-anchor="start" x="370.5219" y="-307.8" font-family="Helvetica,sans-Serif" font-size="11.00" fill="#000000">[table]</text>
<polygon fill="none" stroke="#000000" points="334,-280.7 334,-299.7 405,-299.7 405,-280.7 334,-280.7"/>
<text text-anchor="start" x="337" y="-286.8" font-family="Helvetica,sans-Serif" font-size="11.00" fill="#000000">...</text>
<polygon fill="#ffffff" stroke="transparent" points="334,-261.7 334,-280.7 355,-280.7 355,-261.7 334,-261.7"/>
<polygon fill="none" stroke="#000000" points="334,-261.7 334,-280.7 355,-280.7 355,-261.7 334,-261.7"/>
<text text-anchor="start" x="336.7027" y="-267.8" font-family="Helvetica,sans-Serif" font-size="11.00" fill="#000000">&lt; 5</text>
<polygon fill="#ffffff" stroke="transparent" points="355,-261.7 355,-280.7 393,-280.7 393,-261.7 355,-261.7"/>
<polygon fill="none" stroke="#000000" points="355,-261.7 355,-280.7 393,-280.7 393,-261.7 355,-261.7"/>
<text text-anchor="start" x="357.8053" y="-267.8" font-family="Helvetica,sans-Serif" font-size="11.00" fill="#000000">0 rows</text>
<polygon fill="#ffffff" stroke="transparent" points="393,-261.7 393,-280.7 405,-280.7 405,-261.7 393,-261.7"/>
<polygon fill="none" stroke="#000000" points="393,-261.7 393,-280.7 405,-280.7 405,-261.7 393,-261.7"/>
<text text-anchor="start" x="395.9431" y="-267.8" font-family="Helvetica,sans-Serif" font-size="11.00" fill="#000000"> &#160;</text>
</a>
</g>
</g>
<!-- casos&#45;&gt;usuarios -->
<g id="edge6" class="edge">
<title>casos:w&#45;&gt;usuarios:e</title>
<path fill="none" stroke="#000000" d="M321.9334,-281.2717C301.7279,-265.2059 296.2659,-249.3733 276,-232.7 254.8846,-215.3278 260.3433,-188.7 233,-207.7"/>
<polygon fill="#000000" stroke="#000000" points="327.4415,-285.119 331.9385,-292.6513 330.7207,-287.4095 334,-289.7 334,-289.7 334,-289.7 330.7207,-287.4095 336.0615,-286.7487 327.4415,-285.119 327.4415,-285.119"/>
<ellipse fill="none" stroke="#000000" cx="324.8181" cy="-283.2865" rx="3.2" ry="3.2"/>
</g>
<!-- casos&#45;&gt;usuarios -->
<g id="edge7" class="edge">
<title>casos:w&#45;&gt;usuarios:e</title>
<path fill="none" stroke="#000000" d="M320.0316,-285.4458C301.3619,-277.1883 295.6151,-261.8379 276,-245.7 254.8846,-228.3278 260.3433,-201.7 233,-207.7"/>
<polygon fill="#000000" stroke="#000000" points="326.3471,-287.3692 332.9511,-293.1438 330.1735,-288.5346 334,-289.7 334,-289.7 334,-289.7 330.1735,-288.5346 335.0489,-286.2562 326.3471,-287.3692 326.3471,-287.3692"/>
<ellipse fill="none" stroke="#000000" cx="323.2859" cy="-286.4368" rx="3.2" ry="3.2"/>
</g>
<!-- casos&#45;&gt;usuarios -->
<g id="edge8" class="edge">
<title>casos:w&#45;&gt;usuarios:e</title>
<path fill="none" stroke="#000000" d="M319.5042,-291.1351C301.2517,-289.8972 295.4292,-274.685 276,-258.7 254.8846,-241.3278 260.3433,-214.7 233,-207.7"/>
<polygon fill="#000000" stroke="#000000" points="326.0389,-290.4882 334.3547,-293.2825 330.0195,-290.0941 334,-289.7 334,-289.7 334,-289.7 330.0195,-290.0941 333.6453,-286.1175 326.0389,-290.4882 326.0389,-290.4882"/>
<ellipse fill="none" stroke="#000000" cx="322.8545" cy="-290.8035" rx="3.2" ry="3.2"/>
</g>
<!-- casos&#45;&gt;usuarios -->
<g id="edge9" class="edge">
<title>casos:w&#45;&gt;usuarios:e</title>
<path fill="none" stroke="#000000" d="M321.1075,-296.506C301.5748,-303.77 295.987,-288.1439 276,-271.7 254.8846,-254.3278 260.3433,-227.7 233,-207.7"/>
<polygon fill="#000000" stroke="#000000" points="326.9253,-293.4348 335.6807,-292.8836 330.4626,-291.5674 334,-289.7 334,-289.7 334,-289.7 330.4626,-291.5674 332.3193,-286.5164 326.9253,-293.4348 326.9253,-293.4348"/>
<ellipse fill="none" stroke="#000000" cx="324.0954" cy="-294.9287" rx="3.2" ry="3.2"/>
</g>
<!-- contactos -->
<g id="node4" class="node">
<title>contactos</title>
<g id="a_node4"><a xlink:href="../../tables/contactos.html" xlink:title="contactos" target="_top">
<polygon fill="#ffffff" stroke="transparent" points="145,-290.7 145,-376.7 235,-376.7 235,-290.7 145,-290.7"/>
<polygon fill="#f5f5f5" stroke="transparent" points="145,-353.7 145,-376.7 235,-376.7 235,-353.7 145,-353.7"/>
<polygon fill="none" stroke="#000000" points="145,-353.7 145,-376.7 235,-376.7 235,-353.7 145,-353.7"/>
<text text-anchor="start" x="149.9633" y="-362.8" font-family="Helvetica,sans-Serif" font-weight="bold" font-size="11.00" fill="#000000">contactos</text>
<text text-anchor="start" x="200.5219" y="-361.8" font-family="Helvetica,sans-Serif" font-size="11.00" fill="#000000">[table]</text>
<polygon fill="none" stroke="#000000" points="145,-331.7 145,-353.7 235,-353.7 235,-331.7 145,-331.7"/>
<image xlink:href="../../images/primaryKeys.png" width="11px" height="12px" preserveAspectRatio="xMinYMin meet" x="150" y="-348.7"/>
<text text-anchor="start" x="166" y="-338.8" font-family="Helvetica,sans-Serif" font-size="11.00" fill="#000000">contacto_id</text>
<polygon fill="none" stroke="#000000" points="145,-309.7 145,-331.7 235,-331.7 235,-309.7 145,-309.7"/>
<image xlink:href="../../images/foreignKeys.png" width="11px" height="12px" preserveAspectRatio="xMinYMin meet" x="150" y="-326.7"/>
<text text-anchor="start" x="166" y="-316.8" font-family="Helvetica,sans-Serif" font-size="11.00" fill="#000000">persona_id</text>
<polygon fill="#ffffff" stroke="transparent" points="145,-290.7 145,-309.7 171,-309.7 171,-290.7 145,-290.7"/>
<polygon fill="none" stroke="#000000" points="145,-290.7 145,-309.7 171,-309.7 171,-290.7 145,-290.7"/>
<text text-anchor="start" x="148" y="-296.8" font-family="Helvetica,sans-Serif" font-size="11.00" fill="#000000">&lt; 1</text>
<polygon fill="#ffffff" stroke="transparent" points="171,-290.7 171,-309.7 211,-309.7 211,-290.7 171,-290.7"/>
<polygon fill="none" stroke="#000000" points="171,-290.7 171,-309.7 211,-309.7 211,-290.7 171,-290.7"/>
<text text-anchor="start" x="175.6105" y="-296.8" font-family="Helvetica,sans-Serif" font-size="11.00" fill="#000000">0 rows</text>
<polygon fill="#ffffff" stroke="transparent" points="211,-290.7 211,-309.7 235,-309.7 235,-290.7 211,-290.7"/>
<polygon fill="none" stroke="#000000" points="211,-290.7 211,-309.7 235,-309.7 235,-290.7 211,-290.7"/>
<text text-anchor="start" x="216.4053" y="-296.8" font-family="Helvetica,sans-Serif" font-size="11.00" fill="#000000">3 &gt;</text>
</a>
</g>
</g>
<!-- casos&#45;&gt;contactos -->
<g id="edge5" class="edge">
<title>casos:w&#45;&gt;contactos:e</title>
<path fill="none" stroke="#000000" d="M319.3115,-291.4634C283.6634,-300.6597 279.4498,-342.7 235,-342.7"/>
<polygon fill="#000000" stroke="#000000" points="326.057,-290.6536 334.4291,-293.2743 330.0285,-290.1768 334,-289.7 334,-289.7 334,-289.7 330.0285,-290.1768 333.5709,-286.1257 326.057,-290.6536 326.057,-290.6536"/>
<ellipse fill="none" stroke="#000000" cx="322.8798" cy="-291.0351" rx="3.2" ry="3.2"/>
</g>
<!-- contactos&#45;&gt;personas -->
<g id="edge10" class="edge">
<title>contactos:w&#45;&gt;personas:e</title>
<path fill="none" stroke="#000000" d="M131.3585,-315.8402C116.341,-302.056 123.4044,-263.7 96,-263.7"/>
<polygon fill="#000000" stroke="#000000" points="137.4639,-318.0152 143.7919,-324.0912 141.232,-319.3576 145,-320.7 145,-320.7 145,-320.7 141.232,-319.3576 146.2081,-317.3088 137.4639,-318.0152 137.4639,-318.0152"/>
<ellipse fill="none" stroke="#000000" cx="134.4495" cy="-316.9413" rx="3.2" ry="3.2"/>
</g>
<!-- contactos_oportunidades -->
<g id="node6" class="node">
<title>contactos_oportunidades</title>
<g id="a_node6"><a xlink:href="../../tables/contactos_oportunidades.html" xlink:title="contactos_oportunidades" target="_top">
<polygon fill="#ffffff" stroke="transparent" points="692,-204.7 692,-360.7 947,-360.7 947,-204.7 692,-204.7"/>
<polygon fill="#f5f5f5" stroke="transparent" points="694.5,-335.7 694.5,-358.7 945.5,-358.7 945.5,-335.7 694.5,-335.7"/>
<polygon fill="none" stroke="#000000" points="694.5,-335.7 694.5,-358.7 945.5,-358.7 945.5,-335.7 694.5,-335.7"/>
<text text-anchor="start" x="699.5" y="-344.8" font-family="Helvetica,sans-Serif" font-weight="bold" font-size="11.00" fill="#000000">contactos_oportunidades</text>
<text text-anchor="start" x="910.5437" y="-343.8" font-family="Helvetica,sans-Serif" font-size="11.00" fill="#000000">[table]</text>
<polygon fill="none" stroke="#000000" points="694.5,-313.7 694.5,-335.7 861.5,-335.7 861.5,-313.7 694.5,-313.7"/>
<image xlink:href="../../images/foreignKeys.png" width="11px" height="12px" preserveAspectRatio="xMinYMin meet" x="699.5" y="-330.7"/>
<text text-anchor="start" x="714.5" y="-320.8" font-family="Helvetica,sans-Serif" font-size="11.00" fill="#000000">contacto_id</text>
<polygon fill="none" stroke="#000000" points="861.5,-313.7 861.5,-335.7 945.5,-335.7 945.5,-313.7 861.5,-313.7"/>
<text text-anchor="start" x="864.5" y="-321.4" font-family="Helvetica,sans-Serif" font-size="11.00" fill="#000000">int4[10]</text>
<polygon fill="none" stroke="#000000" points="694.5,-291.7 694.5,-313.7 861.5,-313.7 861.5,-291.7 694.5,-291.7"/>
<image xlink:href="../../images/foreignKeys.png" width="11px" height="12px" preserveAspectRatio="xMinYMin meet" x="699.5" y="-308.7"/>
<text text-anchor="start" x="714.5" y="-298.8" font-family="Helvetica,sans-Serif" font-size="11.00" fill="#000000">oportunidad_id</text>
<polygon fill="none" stroke="#000000" points="861.5,-291.7 861.5,-313.7 945.5,-313.7 945.5,-291.7 861.5,-291.7"/>
<text text-anchor="start" x="864.5" y="-299.4" font-family="Helvetica,sans-Serif" font-size="11.00" fill="#000000">int4[10]</text>
<polygon fill="none" stroke="#000000" points="694.5,-269.7 694.5,-291.7 861.5,-291.7 861.5,-269.7 694.5,-269.7"/>
<text text-anchor="start" x="714.5" y="-276.8" font-family="Helvetica,sans-Serif" font-size="11.00" fill="#000000">fec_insercion</text>
<polygon fill="none" stroke="#000000" points="861.5,-269.7 861.5,-291.7 945.5,-291.7 945.5,-269.7 861.5,-269.7"/>
<text text-anchor="start" x="864.3807" y="-277.4" font-family="Helvetica,sans-Serif" font-size="11.00" fill="#000000">timestamp[29,6]</text>
<polygon fill="none" stroke="#000000" points="694.5,-247.7 694.5,-269.7 861.5,-269.7 861.5,-247.7 694.5,-247.7"/>
<text text-anchor="start" x="714.5" y="-254.8" font-family="Helvetica,sans-Serif" font-size="11.00" fill="#000000">fec_modificacion</text>
<polygon fill="none" stroke="#000000" points="861.5,-247.7 861.5,-269.7 945.5,-269.7 945.5,-247.7 861.5,-247.7"/>
<text text-anchor="start" x="864.3807" y="-255.4" font-family="Helvetica,sans-Serif" font-size="11.00" fill="#000000">timestamp[29,6]</text>
<polygon fill="none" stroke="#000000" points="694.5,-225.7 694.5,-247.7 861.5,-247.7 861.5,-225.7 694.5,-225.7"/>
<text text-anchor="start" x="714.5" y="-232.8" font-family="Helvetica,sans-Serif" font-size="11.00" fill="#000000">fec_eliminacion</text>
<polygon fill="none" stroke="#000000" points="861.5,-225.7 861.5,-247.7 945.5,-247.7 945.5,-225.7 861.5,-225.7"/>
<text text-anchor="start" x="864.3807" y="-233.4" font-family="Helvetica,sans-Serif" font-size="11.00" fill="#000000">timestamp[29,6]</text>
<polygon fill="#ffffff" stroke="transparent" points="694.5,-206.7 694.5,-225.7 769.5,-225.7 769.5,-206.7 694.5,-206.7"/>
<polygon fill="none" stroke="#000000" points="694.5,-206.7 694.5,-225.7 769.5,-225.7 769.5,-206.7 694.5,-206.7"/>
<text text-anchor="start" x="697.5" y="-212.8" font-family="Helvetica,sans-Serif" font-size="11.00" fill="#000000">&lt; 2</text>
<polygon fill="#ffffff" stroke="transparent" points="769.5,-206.7 769.5,-225.7 861.5,-225.7 861.5,-206.7 769.5,-206.7"/>
<polygon fill="none" stroke="#000000" points="769.5,-206.7 769.5,-225.7 861.5,-225.7 861.5,-206.7 769.5,-206.7"/>
<text text-anchor="start" x="826.1105" y="-212.8" font-family="Helvetica,sans-Serif" font-size="11.00" fill="#000000">0 rows</text>
<polygon fill="#ffffff" stroke="transparent" points="861.5,-206.7 861.5,-225.7 945.5,-225.7 945.5,-206.7 861.5,-206.7"/>
<polygon fill="none" stroke="#000000" points="861.5,-206.7 861.5,-225.7 945.5,-225.7 945.5,-206.7 861.5,-206.7"/>
<text text-anchor="start" x="926.9053" y="-212.8" font-family="Helvetica,sans-Serif" font-size="11.00" fill="#000000">0 &gt;</text>
<polygon fill="none" stroke="#000000" stroke-width="2" points="693,-205.7 693,-359.7 946,-359.7 946,-205.7 693,-205.7"/>
</a>
</g>
</g>
<!-- contactos_oportunidades&#45;&gt;contactos -->
<g id="edge11" class="edge">
<title>contactos_oportunidades:w&#45;&gt;contactos:e</title>
<path fill="none" stroke="#000000" stroke-dasharray="5,2" d="M679.824,-325.1334C582.1835,-331.0594 566.0366,-396.0653 462,-415.7 380.7674,-431.0309 347.3451,-457.4571 276,-415.7 243.8848,-396.9035 272.2114,-342.7 235,-342.7"/>
<polygon fill="#000000" stroke="#000000" points="686.5035,-324.9362 694.6063,-328.2984 690.5017,-324.8181 694.5,-324.7 694.5,-324.7 694.5,-324.7 690.5017,-324.8181 694.3937,-321.1016 686.5035,-324.9362 686.5035,-324.9362"/>
<ellipse fill="none" stroke="#000000" cx="683.3049" cy="-325.0307" rx="3.2" ry="3.2"/>
</g>
<!-- oportunidades -->
<g id="node7" class="node">
<title>oportunidades</title>
<g id="a_node7"><a xlink:href="../../tables/oportunidades.html" xlink:title="oportunidades" target="_top">
<polygon fill="#ffffff" stroke="transparent" points="503,-38.2 503,-231.2 643,-231.2 643,-38.2 503,-38.2"/>
<polygon fill="#f5f5f5" stroke="transparent" points="503,-207.7 503,-230.7 643,-230.7 643,-207.7 503,-207.7"/>
<polygon fill="none" stroke="#000000" points="503,-207.7 503,-230.7 643,-230.7 643,-207.7 503,-207.7"/>
<text text-anchor="start" x="508" y="-216.8" font-family="Helvetica,sans-Serif" font-weight="bold" font-size="11.00" fill="#000000">oportunidades</text>
<text text-anchor="start" x="608.0437" y="-215.8" font-family="Helvetica,sans-Serif" font-size="11.00" fill="#000000">[table]</text>
<polygon fill="none" stroke="#000000" points="503,-185.7 503,-207.7 643,-207.7 643,-185.7 503,-185.7"/>
<image xlink:href="../../images/primaryKeys.png" width="11px" height="12px" preserveAspectRatio="xMinYMin meet" x="508" y="-202.7"/>
<text text-anchor="start" x="523" y="-192.8" font-family="Helvetica,sans-Serif" font-size="11.00" fill="#000000">oportunidad_id</text>
<polygon fill="none" stroke="#000000" points="503,-163.7 503,-185.7 643,-185.7 643,-163.7 503,-163.7"/>
<image xlink:href="../../images/foreignKeys.png" width="11px" height="12px" preserveAspectRatio="xMinYMin meet" x="508" y="-180.7"/>
<text text-anchor="start" x="523" y="-170.8" font-family="Helvetica,sans-Serif" font-size="11.00" fill="#000000">campana_id</text>
<polygon fill="none" stroke="#000000" points="503,-141.7 503,-163.7 643,-163.7 643,-141.7 503,-141.7"/>
<image xlink:href="../../images/foreignKeys.png" width="11px" height="12px" preserveAspectRatio="xMinYMin meet" x="508" y="-158.7"/>
<text text-anchor="start" x="523" y="-148.8" font-family="Helvetica,sans-Serif" font-size="11.00" fill="#000000">usu_asignado_id</text>
<polygon fill="none" stroke="#000000" points="503,-119.7 503,-141.7 643,-141.7 643,-119.7 503,-119.7"/>
<image xlink:href="../../images/foreignKeys.png" width="11px" height="12px" preserveAspectRatio="xMinYMin meet" x="508" y="-136.7"/>
<text text-anchor="start" x="523" y="-126.8" font-family="Helvetica,sans-Serif" font-size="11.00" fill="#000000">usu_insercion_id</text>
<polygon fill="none" stroke="#000000" points="503,-97.7 503,-119.7 643,-119.7 643,-97.7 503,-97.7"/>
<image xlink:href="../../images/foreignKeys.png" width="11px" height="12px" preserveAspectRatio="xMinYMin meet" x="508" y="-114.7"/>
<text text-anchor="start" x="523" y="-104.8" font-family="Helvetica,sans-Serif" font-size="11.00" fill="#000000">usu_modificacion_id</text>
<polygon fill="none" stroke="#000000" points="503,-75.7 503,-97.7 643,-97.7 643,-75.7 503,-75.7"/>
<image xlink:href="../../images/foreignKeys.png" width="11px" height="12px" preserveAspectRatio="xMinYMin meet" x="508" y="-92.7"/>
<text text-anchor="start" x="523" y="-82.8" font-family="Helvetica,sans-Serif" font-size="11.00" fill="#000000">usu_eliminacion_id</text>
<polygon fill="none" stroke="#000000" points="503,-56.7 503,-75.7 643,-75.7 643,-56.7 503,-56.7"/>
<text text-anchor="start" x="506" y="-62.8" font-family="Helvetica,sans-Serif" font-size="11.00" fill="#000000">...</text>
<polygon fill="#ffffff" stroke="transparent" points="503,-37.7 503,-56.7 554,-56.7 554,-37.7 503,-37.7"/>
<polygon fill="none" stroke="#000000" points="503,-37.7 503,-56.7 554,-56.7 554,-37.7 503,-37.7"/>
<text text-anchor="start" x="506" y="-43.8" font-family="Helvetica,sans-Serif" font-size="11.00" fill="#000000">&lt; 5</text>
<polygon fill="#ffffff" stroke="transparent" points="554,-37.7 554,-56.7 607,-56.7 607,-37.7 554,-37.7"/>
<polygon fill="none" stroke="#000000" points="554,-37.7 554,-56.7 607,-56.7 607,-37.7 554,-37.7"/>
<text text-anchor="start" x="571.6105" y="-43.8" font-family="Helvetica,sans-Serif" font-size="11.00" fill="#000000">0 rows</text>
<polygon fill="#ffffff" stroke="transparent" points="607,-37.7 607,-56.7 643,-56.7 643,-37.7 607,-37.7"/>
<polygon fill="none" stroke="#000000" points="607,-37.7 607,-56.7 643,-56.7 643,-37.7 607,-37.7"/>
<text text-anchor="start" x="624.4053" y="-43.8" font-family="Helvetica,sans-Serif" font-size="11.00" fill="#000000">1 &gt;</text>
</a>
</g>
</g>
<!-- contactos_oportunidades&#45;&gt;oportunidades -->
<g id="edge12" class="edge">
<title>contactos_oportunidades:w&#45;&gt;oportunidades:e</title>
<path fill="none" stroke="#000000" stroke-dasharray="5,2" d="M680.4594,-298.9274C652.8328,-280.0446 689.4437,-196.7 643,-196.7"/>
<polygon fill="#000000" stroke="#000000" points="686.774,-300.624 693.5658,-306.1767 690.637,-301.662 694.5,-302.7 694.5,-302.7 694.5,-302.7 690.637,-301.662 695.4342,-299.2233 686.774,-300.624 686.774,-300.624"/>
<ellipse fill="none" stroke="#000000" cx="683.6836" cy="-299.7937" rx="3.2" ry="3.2"/>
</g>
<!-- oportunidades&#45;&gt;campanas -->
<g id="edge14" class="edge">
<title>oportunidades:w&#45;&gt;campanas:e</title>
<path fill="none" stroke="#000000" d="M488.3104,-176.2917C459.8518,-182.8835 451.8624,-207.7 416,-207.7"/>
<polygon fill="#000000" stroke="#000000" points="495.0466,-175.5618 503.3878,-178.2791 499.0233,-175.1309 503,-174.7 503,-174.7 503,-174.7 499.0233,-175.1309 502.6122,-171.1209 495.0466,-175.5618 495.0466,-175.5618"/>
<ellipse fill="none" stroke="#000000" cx="491.8652" cy="-175.9066" rx="3.2" ry="3.2"/>
</g>
<!-- oportunidades&#45;&gt;usuarios -->
<g id="edge15" class="edge">
<title>oportunidades:w&#45;&gt;usuarios:e</title>
<path fill="none" stroke="#000000" d="M488.3778,-152.5442C398.4296,-150.6289 364.5721,-132.3307 276,-169.7 252.5015,-179.6142 258.5043,-207.7 233,-207.7"/>
<polygon fill="#000000" stroke="#000000" points="495.0005,-152.6147 502.9616,-156.2998 499.0002,-152.6574 503,-152.7 503,-152.7 503,-152.7 499.0002,-152.6574 503.0384,-149.1002 495.0005,-152.6147 495.0005,-152.6147"/>
<ellipse fill="none" stroke="#000000" cx="491.8006" cy="-152.5806" rx="3.2" ry="3.2"/>
</g>
<!-- oportunidades&#45;&gt;usuarios -->
<g id="edge16" class="edge">
<title>oportunidades:w&#45;&gt;usuarios:e</title>
<path fill="none" stroke="#000000" d="M488.3347,-86.322C397.6196,-81.6444 354.101,-36.0706 276,-91.7 231.2153,-123.599 287.9837,-207.7 233,-207.7"/>
<polygon fill="#000000" stroke="#000000" points="495.0027,-86.4938 502.9072,-90.2988 499.0013,-86.5969 503,-86.7 503,-86.7 503,-86.7 499.0013,-86.5969 503.0928,-83.1012 495.0027,-86.4938 495.0027,-86.4938"/>
<ellipse fill="none" stroke="#000000" cx="491.8037" cy="-86.4113" rx="3.2" ry="3.2"/>
</g>
<!-- oportunidades&#45;&gt;usuarios -->
<g id="edge17" class="edge">
<title>oportunidades:w&#45;&gt;usuarios:e</title>
<path fill="none" stroke="#000000" d="M488.3552,-130.4396C398.0217,-127.2251 359.4147,-96.1389 276,-143.7 246.2307,-160.6738 267.2684,-207.7 233,-207.7"/>
<polygon fill="#000000" stroke="#000000" points="495.0013,-130.5577 502.936,-134.2994 499.0006,-130.6289 503,-130.7 503,-130.7 503,-130.7 499.0006,-130.6289 503.064,-127.1006 495.0013,-130.5577 495.0013,-130.5577"/>
<ellipse fill="none" stroke="#000000" cx="491.8018" cy="-130.5008" rx="3.2" ry="3.2"/>
</g>
<!-- oportunidades&#45;&gt;usuarios -->
<g id="edge18" class="edge">
<title>oportunidades:w&#45;&gt;usuarios:e</title>
<path fill="none" stroke="#000000" d="M488.2427,-108.2635C430.1216,-105.3286 314.5299,-89.3425 276,-114.7 237.9611,-139.7344 278.5377,-207.7 233,-207.7"/>
<polygon fill="#000000" stroke="#000000" points="495.0035,-108.4634 502.8935,-112.2984 499.0017,-108.5817 503,-108.7 503,-108.7 503,-108.7 499.0017,-108.5817 503.1065,-105.1016 495.0035,-108.4634 495.0035,-108.4634"/>
<ellipse fill="none" stroke="#000000" cx="491.8049" cy="-108.3688" rx="3.2" ry="3.2"/>
</g>
<!-- contactos_organizaciones -->
<g id="node8" class="node">
<title>contactos_organizaciones</title>
<g id="a_node8"><a xlink:href="../../tables/contactos_organizaciones.html" xlink:title="contactos_organizaciones" target="_top">
<polygon fill="#ffffff" stroke="transparent" points="284,-344.2 284,-405.2 454,-405.2 454,-344.2 284,-344.2"/>
<polygon fill="#f5f5f5" stroke="transparent" points="284,-381.7 284,-404.7 454,-404.7 454,-381.7 284,-381.7"/>
<polygon fill="none" stroke="#000000" points="284,-381.7 284,-404.7 454,-404.7 454,-381.7 284,-381.7"/>
<text text-anchor="start" x="288.9244" y="-390.8" font-family="Helvetica,sans-Serif" font-weight="bold" font-size="11.00" fill="#000000">contactos_organizaciones</text>
<text text-anchor="start" x="419.5219" y="-389.8" font-family="Helvetica,sans-Serif" font-size="11.00" fill="#000000">[table]</text>
<polygon fill="none" stroke="#000000" points="284,-362.7 284,-381.7 454,-381.7 454,-362.7 284,-362.7"/>
<text text-anchor="start" x="287" y="-368.8" font-family="Helvetica,sans-Serif" font-size="11.00" fill="#000000">...</text>
<polygon fill="#ffffff" stroke="transparent" points="284,-343.7 284,-362.7 354,-362.7 354,-343.7 284,-343.7"/>
<polygon fill="none" stroke="#000000" points="284,-343.7 284,-362.7 354,-362.7 354,-343.7 284,-343.7"/>
<text text-anchor="start" x="287" y="-349.8" font-family="Helvetica,sans-Serif" font-size="11.00" fill="#000000">&lt; 2</text>
<polygon fill="#ffffff" stroke="transparent" points="354,-343.7 354,-362.7 417,-362.7 417,-343.7 354,-343.7"/>
<polygon fill="none" stroke="#000000" points="354,-343.7 354,-362.7 417,-362.7 417,-343.7 354,-343.7"/>
<text text-anchor="start" x="381.6105" y="-349.8" font-family="Helvetica,sans-Serif" font-size="11.00" fill="#000000">0 rows</text>
<polygon fill="#ffffff" stroke="transparent" points="417,-343.7 417,-362.7 454,-362.7 454,-343.7 417,-343.7"/>
<polygon fill="none" stroke="#000000" points="417,-343.7 417,-362.7 454,-362.7 454,-343.7 417,-343.7"/>
<text text-anchor="start" x="444.8862" y="-349.8" font-family="Helvetica,sans-Serif" font-size="11.00" fill="#000000"> &#160;</text>
</a>
</g>
</g>
<!-- contactos_organizaciones&#45;&gt;contactos -->
<g id="edge13" class="edge">
<title>contactos_organizaciones:w&#45;&gt;contactos:e</title>
<path fill="none" stroke="#000000" d="M269.9495,-367.6677C257.971,-359.6993 254.3749,-342.7 235,-342.7"/>
<polygon fill="#000000" stroke="#000000" points="276.3104,-369.4931 283.0069,-375.1603 280.1552,-370.5966 284,-371.7 284,-371.7 284,-371.7 280.1552,-370.5966 284.9931,-368.2397 276.3104,-369.4931 276.3104,-369.4931"/>
<ellipse fill="none" stroke="#000000" cx="273.2346" cy="-368.6104" rx="3.2" ry="3.2"/>
</g>
</g>
</svg>
