<?xml version="1.0" encoding="UTF-8" standalone="no"?>
<!DOCTYPE svg PUBLIC "-//W3C//DTD SVG 1.1//EN"
 "http://www.w3.org/Graphics/SVG/1.1/DTD/svg11.dtd">
<!-- Generated by graphviz version 2.40.1 (20161225.0304)
 -->
<!-- Title: oneDegreeRelationshipsDiagram Pages: 1 -->
<svg width="1053pt" height="781pt"
 viewBox="0.00 0.00 1053.00 781.20" xmlns="http://www.w3.org/2000/svg" xmlns:xlink="http://www.w3.org/1999/xlink">
<g id="graph0" class="graph" transform="scale(1 1) rotate(0) translate(4 777.2)">
<title>oneDegreeRelationshipsDiagram</title>
<polygon fill="#ffffff" stroke="transparent" points="-4,4 -4,-777.2 1049,-777.2 1049,4 -4,4"/>
<text text-anchor="middle" x="72.4936" y="-7.3" font-family="Helvetica,sans-Serif" font-size="11.00" fill="#000000">Generated by SchemaSpy</text>
<!-- casos -->
<g id="node1" class="node">
<title>casos</title>
<g id="a_node1"><a xlink:href="../../tables/casos.html" xlink:title="casos" target="_top">
<polygon fill="#ffffff" stroke="transparent" points="718,-620.2 718,-769.2 841,-769.2 841,-620.2 718,-620.2"/>
<polygon fill="#f5f5f5" stroke="transparent" points="718.5,-745.7 718.5,-768.7 841.5,-768.7 841.5,-745.7 718.5,-745.7"/>
<polygon fill="none" stroke="#000000" points="718.5,-745.7 718.5,-768.7 841.5,-768.7 841.5,-745.7 718.5,-745.7"/>
<text text-anchor="start" x="723.5" y="-754.8" font-family="Helvetica,sans-Serif" font-weight="bold" font-size="11.00" fill="#000000">casos</text>
<text text-anchor="start" x="806.5437" y="-753.8" font-family="Helvetica,sans-Serif" font-size="11.00" fill="#000000">[table]</text>
<polygon fill="none" stroke="#000000" points="718.5,-723.7 718.5,-745.7 841.5,-745.7 841.5,-723.7 718.5,-723.7"/>
<image xlink:href="../../images/primaryKeys.png" width="11px" height="12px" preserveAspectRatio="xMinYMin meet" x="723.5" y="-740.7"/>
<text text-anchor="start" x="738.5" y="-730.8" font-family="Helvetica,sans-Serif" font-size="11.00" fill="#000000">caso_id</text>
<polygon fill="none" stroke="#000000" points="718.5,-701.7 718.5,-723.7 841.5,-723.7 841.5,-701.7 718.5,-701.7"/>
<image xlink:href="../../images/foreignKeys.png" width="11px" height="12px" preserveAspectRatio="xMinYMin meet" x="723.5" y="-718.7"/>
<text text-anchor="start" x="738.5" y="-708.8" font-family="Helvetica,sans-Serif" font-size="11.00" fill="#000000">lead_id</text>
<polygon fill="none" stroke="#000000" points="718.5,-679.7 718.5,-701.7 841.5,-701.7 841.5,-679.7 718.5,-679.7"/>
<image xlink:href="../../images/foreignKeys.png" width="11px" height="12px" preserveAspectRatio="xMinYMin meet" x="723.5" y="-696.7"/>
<text text-anchor="start" x="738.5" y="-686.8" font-family="Helvetica,sans-Serif" font-size="11.00" fill="#000000">usu_asignado_id</text>
<polygon fill="none" stroke="#000000" points="718.5,-657.7 718.5,-679.7 841.5,-679.7 841.5,-657.7 718.5,-657.7"/>
<image xlink:href="../../images/foreignKeys.png" width="11px" height="12px" preserveAspectRatio="xMinYMin meet" x="723.5" y="-674.7"/>
<text text-anchor="start" x="738.5" y="-664.8" font-family="Helvetica,sans-Serif" font-size="11.00" fill="#000000">contacto_id</text>
<polygon fill="none" stroke="#000000" points="718.5,-638.7 718.5,-657.7 841.5,-657.7 841.5,-638.7 718.5,-638.7"/>
<text text-anchor="start" x="721.5" y="-644.8" font-family="Helvetica,sans-Serif" font-size="11.00" fill="#000000">...</text>
<polygon fill="#ffffff" stroke="transparent" points="718.5,-619.7 718.5,-638.7 765.5,-638.7 765.5,-619.7 718.5,-619.7"/>
<polygon fill="none" stroke="#000000" points="718.5,-619.7 718.5,-638.7 765.5,-638.7 765.5,-619.7 718.5,-619.7"/>
<text text-anchor="start" x="721.5" y="-625.8" font-family="Helvetica,sans-Serif" font-size="11.00" fill="#000000">&lt; 3</text>
<polygon fill="#ffffff" stroke="transparent" points="765.5,-619.7 765.5,-638.7 816.5,-638.7 816.5,-619.7 765.5,-619.7"/>
<polygon fill="none" stroke="#000000" points="765.5,-619.7 765.5,-638.7 816.5,-638.7 816.5,-619.7 765.5,-619.7"/>
<text text-anchor="start" x="781.1105" y="-625.8" font-family="Helvetica,sans-Serif" font-size="11.00" fill="#000000">0 rows</text>
<polygon fill="#ffffff" stroke="transparent" points="816.5,-619.7 816.5,-638.7 841.5,-638.7 841.5,-619.7 816.5,-619.7"/>
<polygon fill="none" stroke="#000000" points="816.5,-619.7 816.5,-638.7 841.5,-638.7 841.5,-619.7 816.5,-619.7"/>
<text text-anchor="start" x="832.3862" y="-625.8" font-family="Helvetica,sans-Serif" font-size="11.00" fill="#000000"> &#160;</text>
</a>
</g>
</g>
<!-- contactos -->
<g id="node2" class="node">
<title>contactos</title>
<g id="a_node2"><a xlink:href="../../tables/contactos.html" xlink:title="contactos" target="_top">
<polygon fill="#ffffff" stroke="transparent" points="352,-195.7 352,-417.7 669,-417.7 669,-195.7 352,-195.7"/>
<polygon fill="#f5f5f5" stroke="transparent" points="354.5,-392.7 354.5,-415.7 667.5,-415.7 667.5,-392.7 354.5,-392.7"/>
<polygon fill="none" stroke="#000000" points="354.5,-392.7 354.5,-415.7 667.5,-415.7 667.5,-392.7 354.5,-392.7"/>
<text text-anchor="start" x="359.5" y="-401.8" font-family="Helvetica,sans-Serif" font-weight="bold" font-size="11.00" fill="#000000">contactos</text>
<text text-anchor="start" x="632.5437" y="-400.8" font-family="Helvetica,sans-Serif" font-size="11.00" fill="#000000">[table]</text>
<polygon fill="none" stroke="#000000" points="354.5,-370.7 354.5,-392.7 477.5,-392.7 477.5,-370.7 354.5,-370.7"/>
<image xlink:href="../../images/primaryKeys.png" width="11px" height="12px" preserveAspectRatio="xMinYMin meet" x="359.5" y="-387.7"/>
<text text-anchor="start" x="374.5" y="-377.8" font-family="Helvetica,sans-Serif" font-size="11.00" fill="#000000">contacto_id</text>
<polygon fill="none" stroke="#000000" points="477.5,-370.7 477.5,-392.7 667.5,-392.7 667.5,-370.7 477.5,-370.7"/>
<text text-anchor="start" x="480.5" y="-378.4" font-family="Helvetica,sans-Serif" font-size="11.00" fill="#000000">serial[10]</text>
<polygon fill="none" stroke="#000000" points="354.5,-348.7 354.5,-370.7 477.5,-370.7 477.5,-348.7 354.5,-348.7"/>
<image xlink:href="../../images/foreignKeys.png" width="11px" height="12px" preserveAspectRatio="xMinYMin meet" x="359.5" y="-365.7"/>
<text text-anchor="start" x="374.5" y="-355.8" font-family="Helvetica,sans-Serif" font-size="11.00" fill="#000000">persona_id</text>
<polygon fill="none" stroke="#000000" points="477.5,-348.7 477.5,-370.7 667.5,-370.7 667.5,-348.7 477.5,-348.7"/>
<text text-anchor="start" x="480.5" y="-356.4" font-family="Helvetica,sans-Serif" font-size="11.00" fill="#000000">int4[10]</text>
<polygon fill="none" stroke="#000000" points="354.5,-326.7 354.5,-348.7 477.5,-348.7 477.5,-326.7 354.5,-326.7"/>
<image xlink:href="../../images/foreignKeys.png" width="11px" height="12px" preserveAspectRatio="xMinYMin meet" x="359.5" y="-343.7"/>
<text text-anchor="start" x="374.5" y="-333.8" font-family="Helvetica,sans-Serif" font-size="11.00" fill="#000000">organizacion_id</text>
<polygon fill="none" stroke="#000000" points="477.5,-326.7 477.5,-348.7 667.5,-348.7 667.5,-326.7 477.5,-326.7"/>
<text text-anchor="start" x="480.5" y="-334.4" font-family="Helvetica,sans-Serif" font-size="11.00" fill="#000000">int4[10]</text>
<polygon fill="none" stroke="#000000" points="354.5,-304.7 354.5,-326.7 477.5,-326.7 477.5,-304.7 354.5,-304.7"/>
<text text-anchor="start" x="374.5" y="-311.8" font-family="Helvetica,sans-Serif" font-size="11.00" fill="#000000">origen</text>
<polygon fill="none" stroke="#000000" points="477.5,-304.7 477.5,-326.7 667.5,-326.7 667.5,-304.7 477.5,-304.7"/>
<text text-anchor="start" x="480.1825" y="-312.4" font-family="Helvetica,sans-Serif" font-size="11.00" fill="#000000">enum_contactos_origen[2147483647]</text>
<polygon fill="none" stroke="#000000" points="354.5,-282.7 354.5,-304.7 477.5,-304.7 477.5,-282.7 354.5,-282.7"/>
<text text-anchor="start" x="374.5" y="-289.8" font-family="Helvetica,sans-Serif" font-size="11.00" fill="#000000">usu_insercion</text>
<polygon fill="none" stroke="#000000" points="477.5,-282.7 477.5,-304.7 667.5,-304.7 667.5,-282.7 477.5,-282.7"/>
<text text-anchor="start" x="480.5" y="-290.4" font-family="Helvetica,sans-Serif" font-size="11.00" fill="#000000">varchar[20]</text>
<polygon fill="none" stroke="#000000" points="354.5,-260.7 354.5,-282.7 477.5,-282.7 477.5,-260.7 354.5,-260.7"/>
<text text-anchor="start" x="374.5" y="-267.8" font-family="Helvetica,sans-Serif" font-size="11.00" fill="#000000">fec_insercion</text>
<polygon fill="none" stroke="#000000" points="477.5,-260.7 477.5,-282.7 667.5,-282.7 667.5,-260.7 477.5,-260.7"/>
<text text-anchor="start" x="480.5" y="-268.4" font-family="Helvetica,sans-Serif" font-size="11.00" fill="#000000">timestamptz[35,6]</text>
<polygon fill="none" stroke="#000000" points="354.5,-238.7 354.5,-260.7 477.5,-260.7 477.5,-238.7 354.5,-238.7"/>
<text text-anchor="start" x="374.5" y="-245.8" font-family="Helvetica,sans-Serif" font-size="11.00" fill="#000000">fec_modificacion</text>
<polygon fill="none" stroke="#000000" points="477.5,-238.7 477.5,-260.7 667.5,-260.7 667.5,-238.7 477.5,-238.7"/>
<text text-anchor="start" x="480.5" y="-246.4" font-family="Helvetica,sans-Serif" font-size="11.00" fill="#000000">timestamptz[35,6]</text>
<polygon fill="none" stroke="#000000" points="354.5,-216.7 354.5,-238.7 477.5,-238.7 477.5,-216.7 354.5,-216.7"/>
<text text-anchor="start" x="374.5" y="-223.8" font-family="Helvetica,sans-Serif" font-size="11.00" fill="#000000">usu_modificacion</text>
<polygon fill="none" stroke="#000000" points="477.5,-216.7 477.5,-238.7 667.5,-238.7 667.5,-216.7 477.5,-216.7"/>
<text text-anchor="start" x="480.5" y="-224.4" font-family="Helvetica,sans-Serif" font-size="11.00" fill="#000000">varchar[20]</text>
<polygon fill="#ffffff" stroke="transparent" points="354.5,-197.7 354.5,-216.7 407.5,-216.7 407.5,-197.7 354.5,-197.7"/>
<polygon fill="none" stroke="#000000" points="354.5,-197.7 354.5,-216.7 407.5,-216.7 407.5,-197.7 354.5,-197.7"/>
<text text-anchor="start" x="357.5" y="-203.8" font-family="Helvetica,sans-Serif" font-size="11.00" fill="#000000">&lt; 2</text>
<polygon fill="#ffffff" stroke="transparent" points="407.5,-197.7 407.5,-216.7 477.5,-216.7 477.5,-197.7 407.5,-197.7"/>
<polygon fill="none" stroke="#000000" points="407.5,-197.7 407.5,-216.7 477.5,-216.7 477.5,-197.7 407.5,-197.7"/>
<text text-anchor="start" x="442.1105" y="-203.8" font-family="Helvetica,sans-Serif" font-size="11.00" fill="#000000">5 rows</text>
<polygon fill="#ffffff" stroke="transparent" points="477.5,-197.7 477.5,-216.7 667.5,-216.7 667.5,-197.7 477.5,-197.7"/>
<polygon fill="none" stroke="#000000" points="477.5,-197.7 477.5,-216.7 667.5,-216.7 667.5,-197.7 477.5,-197.7"/>
<text text-anchor="start" x="648.9053" y="-203.8" font-family="Helvetica,sans-Serif" font-size="11.00" fill="#000000">5 &gt;</text>
<polygon fill="none" stroke="#000000" stroke-width="2" points="353,-196.7 353,-416.7 668,-416.7 668,-196.7 353,-196.7"/>
</a>
</g>
</g>
<!-- casos&#45;&gt;contactos -->
<g id="edge1" class="edge">
<title>casos:w&#45;&gt;contactos:e</title>
<path fill="none" stroke="#000000" d="M705.0423,-662.9671C665.9067,-622.5173 726.8367,-381.7 667.5,-381.7"/>
<polygon fill="#000000" stroke="#000000" points="711.14,-665.5646 717.0891,-672.012 714.82,-667.1323 718.5,-668.7 718.5,-668.7 718.5,-668.7 714.82,-667.1323 719.9109,-665.388 711.14,-665.5646 711.14,-665.5646"/>
<ellipse fill="none" stroke="#000000" cx="708.196" cy="-664.3105" rx="3.2" ry="3.2"/>
</g>
<!-- organizaciones -->
<g id="node3" class="node">
<title>organizaciones</title>
<g id="a_node3"><a xlink:href="../../tables/organizaciones.html" xlink:title="organizaciones" target="_top">
<polygon fill="#ffffff" stroke="transparent" points="180,-249.2 180,-354.2 303,-354.2 303,-249.2 180,-249.2"/>
<polygon fill="#f5f5f5" stroke="transparent" points="180.5,-330.7 180.5,-353.7 303.5,-353.7 303.5,-330.7 180.5,-330.7"/>
<polygon fill="none" stroke="#000000" points="180.5,-330.7 180.5,-353.7 303.5,-353.7 303.5,-330.7 180.5,-330.7"/>
<text text-anchor="start" x="185.5" y="-339.8" font-family="Helvetica,sans-Serif" font-weight="bold" font-size="11.00" fill="#000000">organizaciones</text>
<text text-anchor="start" x="268.5437" y="-338.8" font-family="Helvetica,sans-Serif" font-size="11.00" fill="#000000">[table]</text>
<polygon fill="none" stroke="#000000" points="180.5,-308.7 180.5,-330.7 303.5,-330.7 303.5,-308.7 180.5,-308.7"/>
<image xlink:href="../../images/primaryKeys.png" width="11px" height="12px" preserveAspectRatio="xMinYMin meet" x="185.5" y="-325.7"/>
<text text-anchor="start" x="200.5" y="-315.8" font-family="Helvetica,sans-Serif" font-size="11.00" fill="#000000">organizacion_id</text>
<polygon fill="none" stroke="#000000" points="180.5,-286.7 180.5,-308.7 303.5,-308.7 303.5,-286.7 180.5,-286.7"/>
<image xlink:href="../../images/foreignKeys.png" width="11px" height="12px" preserveAspectRatio="xMinYMin meet" x="185.5" y="-303.7"/>
<text text-anchor="start" x="200.5" y="-293.8" font-family="Helvetica,sans-Serif" font-size="11.00" fill="#000000">persona_id</text>
<polygon fill="none" stroke="#000000" points="180.5,-267.7 180.5,-286.7 303.5,-286.7 303.5,-267.7 180.5,-267.7"/>
<text text-anchor="start" x="183.5" y="-273.8" font-family="Helvetica,sans-Serif" font-size="11.00" fill="#000000">...</text>
<polygon fill="#ffffff" stroke="transparent" points="180.5,-248.7 180.5,-267.7 222.5,-267.7 222.5,-248.7 180.5,-248.7"/>
<polygon fill="none" stroke="#000000" points="180.5,-248.7 180.5,-267.7 222.5,-267.7 222.5,-248.7 180.5,-248.7"/>
<text text-anchor="start" x="183.5" y="-254.8" font-family="Helvetica,sans-Serif" font-size="11.00" fill="#000000">&lt; 1</text>
<polygon fill="#ffffff" stroke="transparent" points="222.5,-248.7 222.5,-267.7 271.5,-267.7 271.5,-248.7 222.5,-248.7"/>
<polygon fill="none" stroke="#000000" points="222.5,-248.7 222.5,-267.7 271.5,-267.7 271.5,-248.7 222.5,-248.7"/>
<text text-anchor="start" x="236.1105" y="-254.8" font-family="Helvetica,sans-Serif" font-size="11.00" fill="#000000">0 rows</text>
<polygon fill="#ffffff" stroke="transparent" points="271.5,-248.7 271.5,-267.7 303.5,-267.7 303.5,-248.7 271.5,-248.7"/>
<polygon fill="none" stroke="#000000" points="271.5,-248.7 271.5,-267.7 303.5,-267.7 303.5,-248.7 271.5,-248.7"/>
<text text-anchor="start" x="284.9053" y="-254.8" font-family="Helvetica,sans-Serif" font-size="11.00" fill="#000000">1 &gt;</text>
</a>
</g>
</g>
<!-- contactos&#45;&gt;organizaciones -->
<g id="edge2" class="edge">
<title>contactos:w&#45;&gt;organizaciones:e</title>
<path fill="none" stroke="#000000" d="M340.1506,-335.044C327.8075,-330.037 321.7155,-319.7 303.5,-319.7"/>
<polygon fill="#000000" stroke="#000000" points="346.6336,-336.2439 353.8448,-341.2399 350.5668,-336.972 354.5,-337.7 354.5,-337.7 354.5,-337.7 350.5668,-336.972 355.1552,-334.1601 346.6336,-336.2439 346.6336,-336.2439"/>
<ellipse fill="none" stroke="#000000" cx="343.4871" cy="-335.6615" rx="3.2" ry="3.2"/>
</g>
<!-- personas -->
<g id="node4" class="node">
<title>personas</title>
<g id="a_node4"><a xlink:href="../../tables/personas.html" xlink:title="personas" target="_top">
<polygon fill="#ffffff" stroke="transparent" points="8,-289.2 8,-372.2 131,-372.2 131,-289.2 8,-289.2"/>
<polygon fill="#f5f5f5" stroke="transparent" points="8.5,-348.7 8.5,-371.7 131.5,-371.7 131.5,-348.7 8.5,-348.7"/>
<polygon fill="none" stroke="#000000" points="8.5,-348.7 8.5,-371.7 131.5,-371.7 131.5,-348.7 8.5,-348.7"/>
<text text-anchor="start" x="13.5" y="-357.8" font-family="Helvetica,sans-Serif" font-weight="bold" font-size="11.00" fill="#000000">personas</text>
<text text-anchor="start" x="96.5437" y="-356.8" font-family="Helvetica,sans-Serif" font-size="11.00" fill="#000000">[table]</text>
<polygon fill="none" stroke="#000000" points="8.5,-326.7 8.5,-348.7 131.5,-348.7 131.5,-326.7 8.5,-326.7"/>
<image xlink:href="../../images/primaryKeys.png" width="11px" height="12px" preserveAspectRatio="xMinYMin meet" x="13.5" y="-343.7"/>
<text text-anchor="start" x="28.5" y="-333.8" font-family="Helvetica,sans-Serif" font-size="11.00" fill="#000000">persona_id</text>
<polygon fill="none" stroke="#000000" points="8.5,-307.7 8.5,-326.7 131.5,-326.7 131.5,-307.7 8.5,-307.7"/>
<text text-anchor="start" x="11.5" y="-313.8" font-family="Helvetica,sans-Serif" font-size="11.00" fill="#000000">...</text>
<polygon fill="#ffffff" stroke="transparent" points="8.5,-288.7 8.5,-307.7 46.5,-307.7 46.5,-288.7 8.5,-288.7"/>
<polygon fill="none" stroke="#000000" points="8.5,-288.7 8.5,-307.7 46.5,-307.7 46.5,-288.7 8.5,-288.7"/>
<text text-anchor="start" x="11.5" y="-294.8" font-family="Helvetica,sans-Serif" font-size="11.00" fill="#000000"> &#160;</text>
<polygon fill="#ffffff" stroke="transparent" points="46.5,-288.7 46.5,-307.7 97.5,-307.7 97.5,-288.7 46.5,-288.7"/>
<polygon fill="none" stroke="#000000" points="46.5,-288.7 46.5,-307.7 97.5,-307.7 97.5,-288.7 46.5,-288.7"/>
<text text-anchor="start" x="62.1105" y="-294.8" font-family="Helvetica,sans-Serif" font-size="11.00" fill="#000000">5 rows</text>
<polygon fill="#ffffff" stroke="transparent" points="97.5,-288.7 97.5,-307.7 131.5,-307.7 131.5,-288.7 97.5,-288.7"/>
<polygon fill="none" stroke="#000000" points="97.5,-288.7 97.5,-307.7 131.5,-307.7 131.5,-288.7 97.5,-288.7"/>
<text text-anchor="start" x="112.9053" y="-294.8" font-family="Helvetica,sans-Serif" font-size="11.00" fill="#000000">6 &gt;</text>
</a>
</g>
</g>
<!-- contactos&#45;&gt;personas -->
<g id="edge3" class="edge">
<title>contactos:w&#45;&gt;personas:e</title>
<path fill="none" stroke="#000000" d="M340.0084,-360.5941C330.8542,-361.8111 324.5091,-363.9262 311,-364.7 249.3233,-368.233 231.127,-382.6022 172,-364.7 151.2949,-358.431 153.1333,-337.7 131.5,-337.7"/>
<polygon fill="#000000" stroke="#000000" points="346.5152,-360.1927 354.7217,-363.2932 350.5076,-359.9464 354.5,-359.7 354.5,-359.7 354.5,-359.7 350.5076,-359.9464 354.2783,-356.1068 346.5152,-360.1927 346.5152,-360.1927"/>
<ellipse fill="none" stroke="#000000" cx="343.3213" cy="-360.3898" rx="3.2" ry="3.2"/>
</g>
<!-- organizaciones&#45;&gt;personas -->
<g id="edge8" class="edge">
<title>organizaciones:w&#45;&gt;personas:e</title>
<path fill="none" stroke="#000000" d="M166.7637,-302.2885C153.8632,-312.7952 153.6826,-337.7 131.5,-337.7"/>
<polygon fill="#000000" stroke="#000000" points="172.9121,-300.2347 181.6406,-301.1145 176.7061,-298.9673 180.5,-297.7 180.5,-297.7 180.5,-297.7 176.7061,-298.9673 179.3594,-294.2855 172.9121,-300.2347 172.9121,-300.2347"/>
<ellipse fill="none" stroke="#000000" cx="169.877" cy="-301.2486" rx="3.2" ry="3.2"/>
</g>
<!-- encuesta_respuestas -->
<g id="node5" class="node">
<title>encuesta_respuestas</title>
<g id="a_node5"><a xlink:href="../../tables/encuesta_respuestas.html" xlink:title="encuesta_respuestas" target="_top">
<polygon fill="#ffffff" stroke="transparent" points="890,-413.2 890,-540.2 1037,-540.2 1037,-413.2 890,-413.2"/>
<polygon fill="#f5f5f5" stroke="transparent" points="890.5,-516.7 890.5,-539.7 1037.5,-539.7 1037.5,-516.7 890.5,-516.7"/>
<polygon fill="none" stroke="#000000" points="890.5,-516.7 890.5,-539.7 1037.5,-539.7 1037.5,-516.7 890.5,-516.7"/>
<text text-anchor="start" x="895.2302" y="-525.8" font-family="Helvetica,sans-Serif" font-weight="bold" font-size="11.00" fill="#000000">encuesta_respuestas</text>
<text text-anchor="start" x="1003.0219" y="-524.8" font-family="Helvetica,sans-Serif" font-size="11.00" fill="#000000">[table]</text>
<polygon fill="none" stroke="#000000" points="890.5,-494.7 890.5,-516.7 1037.5,-516.7 1037.5,-494.7 890.5,-494.7"/>
<image xlink:href="../../images/primaryKeys.png" width="11px" height="12px" preserveAspectRatio="xMinYMin meet" x="895.5" y="-511.7"/>
<text text-anchor="start" x="912.5" y="-501.8" font-family="Helvetica,sans-Serif" font-size="11.00" fill="#000000">respuesta_id</text>
<polygon fill="none" stroke="#000000" points="890.5,-472.7 890.5,-494.7 1037.5,-494.7 1037.5,-472.7 890.5,-472.7"/>
<image xlink:href="../../images/foreignKeys.png" width="11px" height="12px" preserveAspectRatio="xMinYMin meet" x="895.5" y="-489.7"/>
<text text-anchor="start" x="912.5" y="-479.8" font-family="Helvetica,sans-Serif" font-size="11.00" fill="#000000">oportunidad_id</text>
<polygon fill="none" stroke="#000000" points="890.5,-450.7 890.5,-472.7 1037.5,-472.7 1037.5,-450.7 890.5,-450.7"/>
<image xlink:href="../../images/foreignKeys.png" width="11px" height="12px" preserveAspectRatio="xMinYMin meet" x="895.5" y="-467.7"/>
<text text-anchor="start" x="912.5" y="-457.8" font-family="Helvetica,sans-Serif" font-size="11.00" fill="#000000">contacto_id</text>
<polygon fill="none" stroke="#000000" points="890.5,-431.7 890.5,-450.7 1037.5,-450.7 1037.5,-431.7 890.5,-431.7"/>
<text text-anchor="start" x="893.5" y="-437.8" font-family="Helvetica,sans-Serif" font-size="11.00" fill="#000000">...</text>
<polygon fill="#ffffff" stroke="transparent" points="890.5,-412.7 890.5,-431.7 947.5,-431.7 947.5,-412.7 890.5,-412.7"/>
<polygon fill="none" stroke="#000000" points="890.5,-412.7 890.5,-431.7 947.5,-431.7 947.5,-412.7 890.5,-412.7"/>
<text text-anchor="start" x="893.5" y="-418.8" font-family="Helvetica,sans-Serif" font-size="11.00" fill="#000000">&lt; 2</text>
<polygon fill="#ffffff" stroke="transparent" points="947.5,-412.7 947.5,-431.7 997.5,-431.7 997.5,-412.7 947.5,-412.7"/>
<polygon fill="none" stroke="#000000" points="947.5,-412.7 947.5,-431.7 997.5,-431.7 997.5,-412.7 947.5,-412.7"/>
<text text-anchor="start" x="967.6105" y="-418.8" font-family="Helvetica,sans-Serif" font-size="11.00" fill="#000000">1 row</text>
<polygon fill="#ffffff" stroke="transparent" points="997.5,-412.7 997.5,-431.7 1037.5,-431.7 1037.5,-412.7 997.5,-412.7"/>
<polygon fill="none" stroke="#000000" points="997.5,-412.7 997.5,-431.7 1037.5,-431.7 1037.5,-412.7 997.5,-412.7"/>
<text text-anchor="start" x="1018.9053" y="-418.8" font-family="Helvetica,sans-Serif" font-size="11.00" fill="#000000">1 &gt;</text>
</a>
</g>
</g>
<!-- encuesta_respuestas&#45;&gt;contactos -->
<g id="edge4" class="edge">
<title>encuesta_respuestas:w&#45;&gt;contactos:e</title>
<path fill="none" stroke="#000000" d="M876.3451,-457.144C862.5596,-444.7275 873.1005,-410.2526 849,-395.7 779.7407,-353.8792 748.4063,-381.7 667.5,-381.7"/>
<polygon fill="#000000" stroke="#000000" points="882.8847,-459.2489 889.397,-465.1269 886.6924,-460.4744 890.5,-461.7 890.5,-461.7 890.5,-461.7 886.6924,-460.4744 891.603,-458.2731 882.8847,-459.2489 882.8847,-459.2489"/>
<ellipse fill="none" stroke="#000000" cx="879.8386" cy="-458.2684" rx="3.2" ry="3.2"/>
</g>
<!-- oportunidades -->
<g id="node6" class="node">
<title>oportunidades</title>
<g id="a_node6"><a xlink:href="../../tables/oportunidades.html" xlink:title="oportunidades" target="_top">
<polygon fill="#ffffff" stroke="transparent" points="718,-406.2 718,-599.2 841,-599.2 841,-406.2 718,-406.2"/>
<polygon fill="#f5f5f5" stroke="transparent" points="718.5,-575.7 718.5,-598.7 841.5,-598.7 841.5,-575.7 718.5,-575.7"/>
<polygon fill="none" stroke="#000000" points="718.5,-575.7 718.5,-598.7 841.5,-598.7 841.5,-575.7 718.5,-575.7"/>
<text text-anchor="start" x="723.5" y="-584.8" font-family="Helvetica,sans-Serif" font-weight="bold" font-size="11.00" fill="#000000">oportunidades</text>
<text text-anchor="start" x="806.5437" y="-583.8" font-family="Helvetica,sans-Serif" font-size="11.00" fill="#000000">[table]</text>
<polygon fill="none" stroke="#000000" points="718.5,-553.7 718.5,-575.7 841.5,-575.7 841.5,-553.7 718.5,-553.7"/>
<image xlink:href="../../images/primaryKeys.png" width="11px" height="12px" preserveAspectRatio="xMinYMin meet" x="723.5" y="-570.7"/>
<text text-anchor="start" x="738.5" y="-560.8" font-family="Helvetica,sans-Serif" font-size="11.00" fill="#000000">oportunidad_id</text>
<polygon fill="none" stroke="#000000" points="718.5,-531.7 718.5,-553.7 841.5,-553.7 841.5,-531.7 718.5,-531.7"/>
<image xlink:href="../../images/foreignKeys.png" width="11px" height="12px" preserveAspectRatio="xMinYMin meet" x="723.5" y="-548.7"/>
<text text-anchor="start" x="738.5" y="-538.8" font-family="Helvetica,sans-Serif" font-size="11.00" fill="#000000">campana_id</text>
<polygon fill="none" stroke="#000000" points="718.5,-509.7 718.5,-531.7 841.5,-531.7 841.5,-509.7 718.5,-509.7"/>
<image xlink:href="../../images/foreignKeys.png" width="11px" height="12px" preserveAspectRatio="xMinYMin meet" x="723.5" y="-526.7"/>
<text text-anchor="start" x="738.5" y="-516.8" font-family="Helvetica,sans-Serif" font-size="11.00" fill="#000000">contacto_id</text>
<polygon fill="none" stroke="#000000" points="718.5,-487.7 718.5,-509.7 841.5,-509.7 841.5,-487.7 718.5,-487.7"/>
<image xlink:href="../../images/foreignKeys.png" width="11px" height="12px" preserveAspectRatio="xMinYMin meet" x="723.5" y="-504.7"/>
<text text-anchor="start" x="738.5" y="-494.8" font-family="Helvetica,sans-Serif" font-size="11.00" fill="#000000">curso_id</text>
<polygon fill="none" stroke="#000000" points="718.5,-465.7 718.5,-487.7 841.5,-487.7 841.5,-465.7 718.5,-465.7"/>
<image xlink:href="../../images/foreignKeys.png" width="11px" height="12px" preserveAspectRatio="xMinYMin meet" x="723.5" y="-482.7"/>
<text text-anchor="start" x="738.5" y="-472.8" font-family="Helvetica,sans-Serif" font-size="11.00" fill="#000000">usu_asignado_id</text>
<polygon fill="none" stroke="#000000" points="718.5,-443.7 718.5,-465.7 841.5,-465.7 841.5,-443.7 718.5,-443.7"/>
<image xlink:href="../../images/foreignKeys.png" width="11px" height="12px" preserveAspectRatio="xMinYMin meet" x="723.5" y="-460.7"/>
<text text-anchor="start" x="738.5" y="-450.8" font-family="Helvetica,sans-Serif" font-size="11.00" fill="#000000">ciclo_id</text>
<polygon fill="none" stroke="#000000" points="718.5,-424.7 718.5,-443.7 841.5,-443.7 841.5,-424.7 718.5,-424.7"/>
<text text-anchor="start" x="721.5" y="-430.8" font-family="Helvetica,sans-Serif" font-size="11.00" fill="#000000">...</text>
<polygon fill="#ffffff" stroke="transparent" points="718.5,-405.7 718.5,-424.7 757.5,-424.7 757.5,-405.7 718.5,-405.7"/>
<polygon fill="none" stroke="#000000" points="718.5,-405.7 718.5,-424.7 757.5,-424.7 757.5,-405.7 718.5,-405.7"/>
<text text-anchor="start" x="721.5" y="-411.8" font-family="Helvetica,sans-Serif" font-size="11.00" fill="#000000">&lt; 5</text>
<polygon fill="#ffffff" stroke="transparent" points="757.5,-405.7 757.5,-424.7 810.5,-424.7 810.5,-405.7 757.5,-405.7"/>
<polygon fill="none" stroke="#000000" points="757.5,-405.7 757.5,-424.7 810.5,-424.7 810.5,-405.7 757.5,-405.7"/>
<text text-anchor="start" x="768.9956" y="-411.8" font-family="Helvetica,sans-Serif" font-size="11.00" fill="#000000">14 rows</text>
<polygon fill="#ffffff" stroke="transparent" points="810.5,-405.7 810.5,-424.7 841.5,-424.7 841.5,-405.7 810.5,-405.7"/>
<polygon fill="none" stroke="#000000" points="810.5,-405.7 810.5,-424.7 841.5,-424.7 841.5,-405.7 810.5,-405.7"/>
<text text-anchor="start" x="822.9053" y="-411.8" font-family="Helvetica,sans-Serif" font-size="11.00" fill="#000000">1 &gt;</text>
</a>
</g>
</g>
<!-- encuesta_respuestas&#45;&gt;oportunidades -->
<g id="edge5" class="edge">
<title>encuesta_respuestas:w&#45;&gt;oportunidades:e</title>
<path fill="none" stroke="#000000" d="M876.6299,-488.287C856.9726,-505.422 877.4935,-564.7 841.5,-564.7"/>
<polygon fill="#000000" stroke="#000000" points="882.9046,-486.2119 891.6304,-487.1179 886.7023,-484.956 890.5,-483.7 890.5,-483.7 890.5,-483.7 886.7023,-484.956 889.3696,-480.2821 882.9046,-486.2119 882.9046,-486.2119"/>
<ellipse fill="none" stroke="#000000" cx="879.8664" cy="-487.2167" rx="3.2" ry="3.2"/>
</g>
<!-- oportunidades&#45;&gt;contactos -->
<g id="edge7" class="edge">
<title>oportunidades:w&#45;&gt;contactos:e</title>
<path fill="none" stroke="#000000" d="M704.0967,-517.5356C665.9979,-496.8454 727.3926,-381.7 667.5,-381.7"/>
<polygon fill="#000000" stroke="#000000" points="710.6863,-518.9833 717.7275,-524.2161 714.5932,-519.8417 718.5,-520.7 718.5,-520.7 718.5,-520.7 714.5932,-519.8417 719.2725,-517.1839 710.6863,-518.9833 710.6863,-518.9833"/>
<ellipse fill="none" stroke="#000000" cx="707.5609" cy="-518.2966" rx="3.2" ry="3.2"/>
</g>
<!-- llamadas -->
<g id="node7" class="node">
<title>llamadas</title>
<g id="a_node7"><a xlink:href="../../tables/llamadas.html" xlink:title="llamadas" target="_top">
<polygon fill="#ffffff" stroke="transparent" points="718,-208.2 718,-357.2 841,-357.2 841,-208.2 718,-208.2"/>
<polygon fill="#f5f5f5" stroke="transparent" points="718.5,-333.7 718.5,-356.7 841.5,-356.7 841.5,-333.7 718.5,-333.7"/>
<polygon fill="none" stroke="#000000" points="718.5,-333.7 718.5,-356.7 841.5,-356.7 841.5,-333.7 718.5,-333.7"/>
<text text-anchor="start" x="723.5" y="-342.8" font-family="Helvetica,sans-Serif" font-weight="bold" font-size="11.00" fill="#000000">llamadas</text>
<text text-anchor="start" x="806.5437" y="-341.8" font-family="Helvetica,sans-Serif" font-size="11.00" fill="#000000">[table]</text>
<polygon fill="none" stroke="#000000" points="718.5,-311.7 718.5,-333.7 841.5,-333.7 841.5,-311.7 718.5,-311.7"/>
<image xlink:href="../../images/primaryKeys.png" width="11px" height="12px" preserveAspectRatio="xMinYMin meet" x="723.5" y="-328.7"/>
<text text-anchor="start" x="738.5" y="-318.8" font-family="Helvetica,sans-Serif" font-size="11.00" fill="#000000">llamada_id</text>
<polygon fill="none" stroke="#000000" points="718.5,-289.7 718.5,-311.7 841.5,-311.7 841.5,-289.7 718.5,-289.7"/>
<image xlink:href="../../images/foreignKeys.png" width="11px" height="12px" preserveAspectRatio="xMinYMin meet" x="723.5" y="-306.7"/>
<text text-anchor="start" x="738.5" y="-296.8" font-family="Helvetica,sans-Serif" font-size="11.00" fill="#000000">contacto_id</text>
<polygon fill="none" stroke="#000000" points="718.5,-267.7 718.5,-289.7 841.5,-289.7 841.5,-267.7 718.5,-267.7"/>
<image xlink:href="../../images/foreignKeys.png" width="11px" height="12px" preserveAspectRatio="xMinYMin meet" x="723.5" y="-284.7"/>
<text text-anchor="start" x="738.5" y="-274.8" font-family="Helvetica,sans-Serif" font-size="11.00" fill="#000000">lead_id</text>
<polygon fill="none" stroke="#000000" points="718.5,-245.7 718.5,-267.7 841.5,-267.7 841.5,-245.7 718.5,-245.7"/>
<image xlink:href="../../images/foreignKeys.png" width="11px" height="12px" preserveAspectRatio="xMinYMin meet" x="723.5" y="-262.7"/>
<text text-anchor="start" x="738.5" y="-252.8" font-family="Helvetica,sans-Serif" font-size="11.00" fill="#000000">usu_asignado_id</text>
<polygon fill="none" stroke="#000000" points="718.5,-226.7 718.5,-245.7 841.5,-245.7 841.5,-226.7 718.5,-226.7"/>
<text text-anchor="start" x="721.5" y="-232.8" font-family="Helvetica,sans-Serif" font-size="11.00" fill="#000000">...</text>
<polygon fill="#ffffff" stroke="transparent" points="718.5,-207.7 718.5,-226.7 765.5,-226.7 765.5,-207.7 718.5,-207.7"/>
<polygon fill="none" stroke="#000000" points="718.5,-207.7 718.5,-226.7 765.5,-226.7 765.5,-207.7 718.5,-207.7"/>
<text text-anchor="start" x="721.5" y="-213.8" font-family="Helvetica,sans-Serif" font-size="11.00" fill="#000000">&lt; 3</text>
<polygon fill="#ffffff" stroke="transparent" points="765.5,-207.7 765.5,-226.7 816.5,-226.7 816.5,-207.7 765.5,-207.7"/>
<polygon fill="none" stroke="#000000" points="765.5,-207.7 765.5,-226.7 816.5,-226.7 816.5,-207.7 765.5,-207.7"/>
<text text-anchor="start" x="781.1105" y="-213.8" font-family="Helvetica,sans-Serif" font-size="11.00" fill="#000000">0 rows</text>
<polygon fill="#ffffff" stroke="transparent" points="816.5,-207.7 816.5,-226.7 841.5,-226.7 841.5,-207.7 816.5,-207.7"/>
<polygon fill="none" stroke="#000000" points="816.5,-207.7 816.5,-226.7 841.5,-226.7 841.5,-207.7 816.5,-207.7"/>
<text text-anchor="start" x="832.3862" y="-213.8" font-family="Helvetica,sans-Serif" font-size="11.00" fill="#000000"> &#160;</text>
</a>
</g>
</g>
<!-- llamadas&#45;&gt;contactos -->
<g id="edge6" class="edge">
<title>llamadas:w&#45;&gt;contactos:e</title>
<path fill="none" stroke="#000000" d="M704.6725,-305.0549C684.0291,-321.8794 704.0591,-381.7 667.5,-381.7"/>
<polygon fill="#000000" stroke="#000000" points="710.8695,-303.1032 719.5815,-304.1337 714.6847,-301.9016 718.5,-300.7 718.5,-300.7 718.5,-300.7 714.6847,-301.9016 717.4185,-297.2663 710.8695,-303.1032 710.8695,-303.1032"/>
<ellipse fill="none" stroke="#000000" cx="707.8173" cy="-304.0645" rx="3.2" ry="3.2"/>
</g>
<!-- tareas -->
<g id="node8" class="node">
<title>tareas</title>
<g id="a_node8"><a xlink:href="../../tables/tareas.html" xlink:title="tareas" target="_top">
<polygon fill="#ffffff" stroke="transparent" points="718,-38.2 718,-187.2 841,-187.2 841,-38.2 718,-38.2"/>
<polygon fill="#f5f5f5" stroke="transparent" points="718.5,-163.7 718.5,-186.7 841.5,-186.7 841.5,-163.7 718.5,-163.7"/>
<polygon fill="none" stroke="#000000" points="718.5,-163.7 718.5,-186.7 841.5,-186.7 841.5,-163.7 718.5,-163.7"/>
<text text-anchor="start" x="723.5" y="-172.8" font-family="Helvetica,sans-Serif" font-weight="bold" font-size="11.00" fill="#000000">tareas</text>
<text text-anchor="start" x="806.5437" y="-171.8" font-family="Helvetica,sans-Serif" font-size="11.00" fill="#000000">[table]</text>
<polygon fill="none" stroke="#000000" points="718.5,-141.7 718.5,-163.7 841.5,-163.7 841.5,-141.7 718.5,-141.7"/>
<image xlink:href="../../images/primaryKeys.png" width="11px" height="12px" preserveAspectRatio="xMinYMin meet" x="723.5" y="-158.7"/>
<text text-anchor="start" x="738.5" y="-148.8" font-family="Helvetica,sans-Serif" font-size="11.00" fill="#000000">tarea_id</text>
<polygon fill="none" stroke="#000000" points="718.5,-119.7 718.5,-141.7 841.5,-141.7 841.5,-119.7 718.5,-119.7"/>
<image xlink:href="../../images/foreignKeys.png" width="11px" height="12px" preserveAspectRatio="xMinYMin meet" x="723.5" y="-136.7"/>
<text text-anchor="start" x="738.5" y="-126.8" font-family="Helvetica,sans-Serif" font-size="11.00" fill="#000000">contacto_id</text>
<polygon fill="none" stroke="#000000" points="718.5,-97.7 718.5,-119.7 841.5,-119.7 841.5,-97.7 718.5,-97.7"/>
<image xlink:href="../../images/foreignKeys.png" width="11px" height="12px" preserveAspectRatio="xMinYMin meet" x="723.5" y="-114.7"/>
<text text-anchor="start" x="738.5" y="-104.8" font-family="Helvetica,sans-Serif" font-size="11.00" fill="#000000">lead_id</text>
<polygon fill="none" stroke="#000000" points="718.5,-75.7 718.5,-97.7 841.5,-97.7 841.5,-75.7 718.5,-75.7"/>
<image xlink:href="../../images/foreignKeys.png" width="11px" height="12px" preserveAspectRatio="xMinYMin meet" x="723.5" y="-92.7"/>
<text text-anchor="start" x="738.5" y="-82.8" font-family="Helvetica,sans-Serif" font-size="11.00" fill="#000000">usu_asignado_id</text>
<polygon fill="none" stroke="#000000" points="718.5,-56.7 718.5,-75.7 841.5,-75.7 841.5,-56.7 718.5,-56.7"/>
<text text-anchor="start" x="721.5" y="-62.8" font-family="Helvetica,sans-Serif" font-size="11.00" fill="#000000">...</text>
<polygon fill="#ffffff" stroke="transparent" points="718.5,-37.7 718.5,-56.7 765.5,-56.7 765.5,-37.7 718.5,-37.7"/>
<polygon fill="none" stroke="#000000" points="718.5,-37.7 718.5,-56.7 765.5,-56.7 765.5,-37.7 718.5,-37.7"/>
<text text-anchor="start" x="721.5" y="-43.8" font-family="Helvetica,sans-Serif" font-size="11.00" fill="#000000">&lt; 3</text>
<polygon fill="#ffffff" stroke="transparent" points="765.5,-37.7 765.5,-56.7 816.5,-56.7 816.5,-37.7 765.5,-37.7"/>
<polygon fill="none" stroke="#000000" points="765.5,-37.7 765.5,-56.7 816.5,-56.7 816.5,-37.7 765.5,-37.7"/>
<text text-anchor="start" x="781.1105" y="-43.8" font-family="Helvetica,sans-Serif" font-size="11.00" fill="#000000">0 rows</text>
<polygon fill="#ffffff" stroke="transparent" points="816.5,-37.7 816.5,-56.7 841.5,-56.7 841.5,-37.7 816.5,-37.7"/>
<polygon fill="none" stroke="#000000" points="816.5,-37.7 816.5,-56.7 841.5,-56.7 841.5,-37.7 816.5,-37.7"/>
<text text-anchor="start" x="832.3862" y="-43.8" font-family="Helvetica,sans-Serif" font-size="11.00" fill="#000000"> &#160;</text>
</a>
</g>
</g>
<!-- tareas&#45;&gt;contactos -->
<g id="edge9" class="edge">
<title>tareas:w&#45;&gt;contactos:e</title>
<path fill="none" stroke="#000000" d="M704.0904,-132.3692C620.9076,-154.1468 775.8879,-381.7 667.5,-381.7"/>
<polygon fill="#000000" stroke="#000000" points="710.5531,-131.6206 718.9143,-134.2761 714.5266,-131.1603 718.5,-130.7 718.5,-130.7 718.5,-130.7 714.5266,-131.1603 718.0857,-127.1239 710.5531,-131.6206 710.5531,-131.6206"/>
<ellipse fill="none" stroke="#000000" cx="707.3744" cy="-131.9888" rx="3.2" ry="3.2"/>
</g>
</g>
</svg>
