<?xml version="1.0" encoding="UTF-8" standalone="no"?>
<!DOCTYPE svg PUBLIC "-//W3C//DTD SVG 1.1//EN"
 "http://www.w3.org/Graphics/SVG/1.1/DTD/svg11.dtd">
<!-- Generated by graphviz version 2.40.1 (20161225.0304)
 -->
<!-- Title: oneDegreeRelationshipsDiagram Pages: 1 -->
<svg width="1053pt" height="737pt"
 viewBox="0.00 0.00 1053.00 737.20" xmlns="http://www.w3.org/2000/svg" xmlns:xlink="http://www.w3.org/1999/xlink">
<g id="graph0" class="graph" transform="scale(1 1) rotate(0) translate(4 733.2)">
<title>oneDegreeRelationshipsDiagram</title>
<polygon fill="#ffffff" stroke="transparent" points="-4,4 -4,-733.2 1049,-733.2 1049,4 -4,4"/>
<text text-anchor="middle" x="72.4936" y="-7.3" font-family="Helvetica,sans-Serif" font-size="11.00" fill="#000000">Generated by SchemaSpy</text>
<!-- casos -->
<g id="node1" class="node">
<title>casos</title>
<g id="a_node1"><a xlink:href="../../tables/casos.html" xlink:title="casos" target="_top">
<polygon fill="#ffffff" stroke="transparent" points="718,-576.2 718,-725.2 841,-725.2 841,-576.2 718,-576.2"/>
<polygon fill="#f5f5f5" stroke="transparent" points="718.5,-701.7 718.5,-724.7 841.5,-724.7 841.5,-701.7 718.5,-701.7"/>
<polygon fill="none" stroke="#000000" points="718.5,-701.7 718.5,-724.7 841.5,-724.7 841.5,-701.7 718.5,-701.7"/>
<text text-anchor="start" x="723.5" y="-710.8" font-family="Helvetica,sans-Serif" font-weight="bold" font-size="11.00" fill="#000000">casos</text>
<text text-anchor="start" x="806.5437" y="-709.8" font-family="Helvetica,sans-Serif" font-size="11.00" fill="#000000">[table]</text>
<polygon fill="none" stroke="#000000" points="718.5,-679.7 718.5,-701.7 841.5,-701.7 841.5,-679.7 718.5,-679.7"/>
<image xlink:href="../../images/primaryKeys.png" width="11px" height="12px" preserveAspectRatio="xMinYMin meet" x="723.5" y="-696.7"/>
<text text-anchor="start" x="738.5" y="-686.8" font-family="Helvetica,sans-Serif" font-size="11.00" fill="#000000">caso_id</text>
<polygon fill="none" stroke="#000000" points="718.5,-657.7 718.5,-679.7 841.5,-679.7 841.5,-657.7 718.5,-657.7"/>
<image xlink:href="../../images/foreignKeys.png" width="11px" height="12px" preserveAspectRatio="xMinYMin meet" x="723.5" y="-674.7"/>
<text text-anchor="start" x="738.5" y="-664.8" font-family="Helvetica,sans-Serif" font-size="11.00" fill="#000000">lead_id</text>
<polygon fill="none" stroke="#000000" points="718.5,-635.7 718.5,-657.7 841.5,-657.7 841.5,-635.7 718.5,-635.7"/>
<image xlink:href="../../images/foreignKeys.png" width="11px" height="12px" preserveAspectRatio="xMinYMin meet" x="723.5" y="-652.7"/>
<text text-anchor="start" x="738.5" y="-642.8" font-family="Helvetica,sans-Serif" font-size="11.00" fill="#000000">usu_asignado_id</text>
<polygon fill="none" stroke="#000000" points="718.5,-613.7 718.5,-635.7 841.5,-635.7 841.5,-613.7 718.5,-613.7"/>
<image xlink:href="../../images/foreignKeys.png" width="11px" height="12px" preserveAspectRatio="xMinYMin meet" x="723.5" y="-630.7"/>
<text text-anchor="start" x="738.5" y="-620.8" font-family="Helvetica,sans-Serif" font-size="11.00" fill="#000000">contacto_id</text>
<polygon fill="none" stroke="#000000" points="718.5,-594.7 718.5,-613.7 841.5,-613.7 841.5,-594.7 718.5,-594.7"/>
<text text-anchor="start" x="721.5" y="-600.8" font-family="Helvetica,sans-Serif" font-size="11.00" fill="#000000">...</text>
<polygon fill="#ffffff" stroke="transparent" points="718.5,-575.7 718.5,-594.7 765.5,-594.7 765.5,-575.7 718.5,-575.7"/>
<polygon fill="none" stroke="#000000" points="718.5,-575.7 718.5,-594.7 765.5,-594.7 765.5,-575.7 718.5,-575.7"/>
<text text-anchor="start" x="721.5" y="-581.8" font-family="Helvetica,sans-Serif" font-size="11.00" fill="#000000">&lt; 3</text>
<polygon fill="#ffffff" stroke="transparent" points="765.5,-575.7 765.5,-594.7 816.5,-594.7 816.5,-575.7 765.5,-575.7"/>
<polygon fill="none" stroke="#000000" points="765.5,-575.7 765.5,-594.7 816.5,-594.7 816.5,-575.7 765.5,-575.7"/>
<text text-anchor="start" x="781.1105" y="-581.8" font-family="Helvetica,sans-Serif" font-size="11.00" fill="#000000">0 rows</text>
<polygon fill="#ffffff" stroke="transparent" points="816.5,-575.7 816.5,-594.7 841.5,-594.7 841.5,-575.7 816.5,-575.7"/>
<polygon fill="none" stroke="#000000" points="816.5,-575.7 816.5,-594.7 841.5,-594.7 841.5,-575.7 816.5,-575.7"/>
<text text-anchor="start" x="832.3862" y="-581.8" font-family="Helvetica,sans-Serif" font-size="11.00" fill="#000000"> &#160;</text>
</a>
</g>
</g>
<!-- contactos -->
<g id="node2" class="node">
<title>contactos</title>
<g id="a_node2"><a xlink:href="../../tables/contactos.html" xlink:title="contactos" target="_top">
<polygon fill="#ffffff" stroke="transparent" points="352,-173.7 352,-395.7 669,-395.7 669,-173.7 352,-173.7"/>
<polygon fill="#f5f5f5" stroke="transparent" points="354.5,-370.7 354.5,-393.7 667.5,-393.7 667.5,-370.7 354.5,-370.7"/>
<polygon fill="none" stroke="#000000" points="354.5,-370.7 354.5,-393.7 667.5,-393.7 667.5,-370.7 354.5,-370.7"/>
<text text-anchor="start" x="359.5" y="-379.8" font-family="Helvetica,sans-Serif" font-weight="bold" font-size="11.00" fill="#000000">contactos</text>
<text text-anchor="start" x="632.5437" y="-378.8" font-family="Helvetica,sans-Serif" font-size="11.00" fill="#000000">[table]</text>
<polygon fill="none" stroke="#000000" points="354.5,-348.7 354.5,-370.7 477.5,-370.7 477.5,-348.7 354.5,-348.7"/>
<image xlink:href="../../images/primaryKeys.png" width="11px" height="12px" preserveAspectRatio="xMinYMin meet" x="359.5" y="-365.7"/>
<text text-anchor="start" x="374.5" y="-355.8" font-family="Helvetica,sans-Serif" font-size="11.00" fill="#000000">contacto_id</text>
<polygon fill="none" stroke="#000000" points="477.5,-348.7 477.5,-370.7 667.5,-370.7 667.5,-348.7 477.5,-348.7"/>
<text text-anchor="start" x="480.5" y="-356.4" font-family="Helvetica,sans-Serif" font-size="11.00" fill="#000000">serial[10]</text>
<polygon fill="none" stroke="#000000" points="354.5,-326.7 354.5,-348.7 477.5,-348.7 477.5,-326.7 354.5,-326.7"/>
<image xlink:href="../../images/foreignKeys.png" width="11px" height="12px" preserveAspectRatio="xMinYMin meet" x="359.5" y="-343.7"/>
<text text-anchor="start" x="374.5" y="-333.8" font-family="Helvetica,sans-Serif" font-size="11.00" fill="#000000">persona_id</text>
<polygon fill="none" stroke="#000000" points="477.5,-326.7 477.5,-348.7 667.5,-348.7 667.5,-326.7 477.5,-326.7"/>
<text text-anchor="start" x="480.5" y="-334.4" font-family="Helvetica,sans-Serif" font-size="11.00" fill="#000000">int4[10]</text>
<polygon fill="none" stroke="#000000" points="354.5,-304.7 354.5,-326.7 477.5,-326.7 477.5,-304.7 354.5,-304.7"/>
<image xlink:href="../../images/foreignKeys.png" width="11px" height="12px" preserveAspectRatio="xMinYMin meet" x="359.5" y="-321.7"/>
<text text-anchor="start" x="374.5" y="-311.8" font-family="Helvetica,sans-Serif" font-size="11.00" fill="#000000">organizacion_id</text>
<polygon fill="none" stroke="#000000" points="477.5,-304.7 477.5,-326.7 667.5,-326.7 667.5,-304.7 477.5,-304.7"/>
<text text-anchor="start" x="480.5" y="-312.4" font-family="Helvetica,sans-Serif" font-size="11.00" fill="#000000">int4[10]</text>
<polygon fill="none" stroke="#000000" points="354.5,-282.7 354.5,-304.7 477.5,-304.7 477.5,-282.7 354.5,-282.7"/>
<text text-anchor="start" x="374.5" y="-289.8" font-family="Helvetica,sans-Serif" font-size="11.00" fill="#000000">origen</text>
<polygon fill="none" stroke="#000000" points="477.5,-282.7 477.5,-304.7 667.5,-304.7 667.5,-282.7 477.5,-282.7"/>
<text text-anchor="start" x="480.1825" y="-290.4" font-family="Helvetica,sans-Serif" font-size="11.00" fill="#000000">enum_contactos_origen[2147483647]</text>
<polygon fill="none" stroke="#000000" points="354.5,-260.7 354.5,-282.7 477.5,-282.7 477.5,-260.7 354.5,-260.7"/>
<text text-anchor="start" x="374.5" y="-267.8" font-family="Helvetica,sans-Serif" font-size="11.00" fill="#000000">usu_insercion</text>
<polygon fill="none" stroke="#000000" points="477.5,-260.7 477.5,-282.7 667.5,-282.7 667.5,-260.7 477.5,-260.7"/>
<text text-anchor="start" x="480.5" y="-268.4" font-family="Helvetica,sans-Serif" font-size="11.00" fill="#000000">varchar[20]</text>
<polygon fill="none" stroke="#000000" points="354.5,-238.7 354.5,-260.7 477.5,-260.7 477.5,-238.7 354.5,-238.7"/>
<text text-anchor="start" x="374.5" y="-245.8" font-family="Helvetica,sans-Serif" font-size="11.00" fill="#000000">fec_insercion</text>
<polygon fill="none" stroke="#000000" points="477.5,-238.7 477.5,-260.7 667.5,-260.7 667.5,-238.7 477.5,-238.7"/>
<text text-anchor="start" x="480.5" y="-246.4" font-family="Helvetica,sans-Serif" font-size="11.00" fill="#000000">timestamptz[35,6]</text>
<polygon fill="none" stroke="#000000" points="354.5,-216.7 354.5,-238.7 477.5,-238.7 477.5,-216.7 354.5,-216.7"/>
<text text-anchor="start" x="374.5" y="-223.8" font-family="Helvetica,sans-Serif" font-size="11.00" fill="#000000">fec_modificacion</text>
<polygon fill="none" stroke="#000000" points="477.5,-216.7 477.5,-238.7 667.5,-238.7 667.5,-216.7 477.5,-216.7"/>
<text text-anchor="start" x="480.5" y="-224.4" font-family="Helvetica,sans-Serif" font-size="11.00" fill="#000000">timestamptz[35,6]</text>
<polygon fill="none" stroke="#000000" points="354.5,-194.7 354.5,-216.7 477.5,-216.7 477.5,-194.7 354.5,-194.7"/>
<text text-anchor="start" x="374.5" y="-201.8" font-family="Helvetica,sans-Serif" font-size="11.00" fill="#000000">usu_modificacion</text>
<polygon fill="none" stroke="#000000" points="477.5,-194.7 477.5,-216.7 667.5,-216.7 667.5,-194.7 477.5,-194.7"/>
<text text-anchor="start" x="480.5" y="-202.4" font-family="Helvetica,sans-Serif" font-size="11.00" fill="#000000">varchar[20]</text>
<polygon fill="#ffffff" stroke="transparent" points="354.5,-175.7 354.5,-194.7 407.5,-194.7 407.5,-175.7 354.5,-175.7"/>
<polygon fill="none" stroke="#000000" points="354.5,-175.7 354.5,-194.7 407.5,-194.7 407.5,-175.7 354.5,-175.7"/>
<text text-anchor="start" x="357.5" y="-181.8" font-family="Helvetica,sans-Serif" font-size="11.00" fill="#000000">&lt; 2</text>
<polygon fill="#ffffff" stroke="transparent" points="407.5,-175.7 407.5,-194.7 477.5,-194.7 477.5,-175.7 407.5,-175.7"/>
<polygon fill="none" stroke="#000000" points="407.5,-175.7 407.5,-194.7 477.5,-194.7 477.5,-175.7 407.5,-175.7"/>
<text text-anchor="start" x="442.1105" y="-181.8" font-family="Helvetica,sans-Serif" font-size="11.00" fill="#000000">0 rows</text>
<polygon fill="#ffffff" stroke="transparent" points="477.5,-175.7 477.5,-194.7 667.5,-194.7 667.5,-175.7 477.5,-175.7"/>
<polygon fill="none" stroke="#000000" points="477.5,-175.7 477.5,-194.7 667.5,-194.7 667.5,-175.7 477.5,-175.7"/>
<text text-anchor="start" x="648.9053" y="-181.8" font-family="Helvetica,sans-Serif" font-size="11.00" fill="#000000">5 &gt;</text>
<polygon fill="none" stroke="#000000" stroke-width="2" points="353,-174.7 353,-394.7 668,-394.7 668,-174.7 353,-174.7"/>
</a>
</g>
</g>
<!-- casos&#45;&gt;contactos -->
<g id="edge1" class="edge">
<title>casos:w&#45;&gt;contactos:e</title>
<path fill="none" stroke="#000000" d="M704.1499,-623.1438C614.9073,-601.4262 782.0512,-359.7 667.5,-359.7"/>
<polygon fill="#000000" stroke="#000000" points="710.5466,-623.8374 718.1118,-628.279 714.5233,-624.2687 718.5,-624.7 718.5,-624.7 718.5,-624.7 714.5233,-624.2687 718.8882,-621.121 710.5466,-623.8374 710.5466,-623.8374"/>
<ellipse fill="none" stroke="#000000" cx="707.3653" cy="-623.4924" rx="3.2" ry="3.2"/>
</g>
<!-- organizaciones -->
<g id="node3" class="node">
<title>organizaciones</title>
<g id="a_node3"><a xlink:href="../../tables/organizaciones.html" xlink:title="organizaciones" target="_top">
<polygon fill="#ffffff" stroke="transparent" points="180,-227.2 180,-332.2 303,-332.2 303,-227.2 180,-227.2"/>
<polygon fill="#f5f5f5" stroke="transparent" points="180.5,-308.7 180.5,-331.7 303.5,-331.7 303.5,-308.7 180.5,-308.7"/>
<polygon fill="none" stroke="#000000" points="180.5,-308.7 180.5,-331.7 303.5,-331.7 303.5,-308.7 180.5,-308.7"/>
<text text-anchor="start" x="185.5" y="-317.8" font-family="Helvetica,sans-Serif" font-weight="bold" font-size="11.00" fill="#000000">organizaciones</text>
<text text-anchor="start" x="268.5437" y="-316.8" font-family="Helvetica,sans-Serif" font-size="11.00" fill="#000000">[table]</text>
<polygon fill="none" stroke="#000000" points="180.5,-286.7 180.5,-308.7 303.5,-308.7 303.5,-286.7 180.5,-286.7"/>
<image xlink:href="../../images/primaryKeys.png" width="11px" height="12px" preserveAspectRatio="xMinYMin meet" x="185.5" y="-303.7"/>
<text text-anchor="start" x="200.5" y="-293.8" font-family="Helvetica,sans-Serif" font-size="11.00" fill="#000000">organizacion_id</text>
<polygon fill="none" stroke="#000000" points="180.5,-264.7 180.5,-286.7 303.5,-286.7 303.5,-264.7 180.5,-264.7"/>
<image xlink:href="../../images/foreignKeys.png" width="11px" height="12px" preserveAspectRatio="xMinYMin meet" x="185.5" y="-281.7"/>
<text text-anchor="start" x="200.5" y="-271.8" font-family="Helvetica,sans-Serif" font-size="11.00" fill="#000000">persona_id</text>
<polygon fill="none" stroke="#000000" points="180.5,-245.7 180.5,-264.7 303.5,-264.7 303.5,-245.7 180.5,-245.7"/>
<text text-anchor="start" x="183.5" y="-251.8" font-family="Helvetica,sans-Serif" font-size="11.00" fill="#000000">...</text>
<polygon fill="#ffffff" stroke="transparent" points="180.5,-226.7 180.5,-245.7 222.5,-245.7 222.5,-226.7 180.5,-226.7"/>
<polygon fill="none" stroke="#000000" points="180.5,-226.7 180.5,-245.7 222.5,-245.7 222.5,-226.7 180.5,-226.7"/>
<text text-anchor="start" x="183.5" y="-232.8" font-family="Helvetica,sans-Serif" font-size="11.00" fill="#000000">&lt; 1</text>
<polygon fill="#ffffff" stroke="transparent" points="222.5,-226.7 222.5,-245.7 271.5,-245.7 271.5,-226.7 222.5,-226.7"/>
<polygon fill="none" stroke="#000000" points="222.5,-226.7 222.5,-245.7 271.5,-245.7 271.5,-226.7 222.5,-226.7"/>
<text text-anchor="start" x="236.1105" y="-232.8" font-family="Helvetica,sans-Serif" font-size="11.00" fill="#000000">0 rows</text>
<polygon fill="#ffffff" stroke="transparent" points="271.5,-226.7 271.5,-245.7 303.5,-245.7 303.5,-226.7 271.5,-226.7"/>
<polygon fill="none" stroke="#000000" points="271.5,-226.7 271.5,-245.7 303.5,-245.7 303.5,-226.7 271.5,-226.7"/>
<text text-anchor="start" x="284.9053" y="-232.8" font-family="Helvetica,sans-Serif" font-size="11.00" fill="#000000">1 &gt;</text>
</a>
</g>
</g>
<!-- contactos&#45;&gt;organizaciones -->
<g id="edge2" class="edge">
<title>contactos:w&#45;&gt;organizaciones:e</title>
<path fill="none" stroke="#000000" d="M340.1506,-313.044C327.8075,-308.037 321.7155,-297.7 303.5,-297.7"/>
<polygon fill="#000000" stroke="#000000" points="346.6336,-314.2439 353.8448,-319.2399 350.5668,-314.972 354.5,-315.7 354.5,-315.7 354.5,-315.7 350.5668,-314.972 355.1552,-312.1601 346.6336,-314.2439 346.6336,-314.2439"/>
<ellipse fill="none" stroke="#000000" cx="343.4871" cy="-313.6615" rx="3.2" ry="3.2"/>
</g>
<!-- personas -->
<g id="node4" class="node">
<title>personas</title>
<g id="a_node4"><a xlink:href="../../tables/personas.html" xlink:title="personas" target="_top">
<polygon fill="#ffffff" stroke="transparent" points="8,-267.2 8,-350.2 131,-350.2 131,-267.2 8,-267.2"/>
<polygon fill="#f5f5f5" stroke="transparent" points="8.5,-326.7 8.5,-349.7 131.5,-349.7 131.5,-326.7 8.5,-326.7"/>
<polygon fill="none" stroke="#000000" points="8.5,-326.7 8.5,-349.7 131.5,-349.7 131.5,-326.7 8.5,-326.7"/>
<text text-anchor="start" x="13.5" y="-335.8" font-family="Helvetica,sans-Serif" font-weight="bold" font-size="11.00" fill="#000000">personas</text>
<text text-anchor="start" x="96.5437" y="-334.8" font-family="Helvetica,sans-Serif" font-size="11.00" fill="#000000">[table]</text>
<polygon fill="none" stroke="#000000" points="8.5,-304.7 8.5,-326.7 131.5,-326.7 131.5,-304.7 8.5,-304.7"/>
<image xlink:href="../../images/primaryKeys.png" width="11px" height="12px" preserveAspectRatio="xMinYMin meet" x="13.5" y="-321.7"/>
<text text-anchor="start" x="28.5" y="-311.8" font-family="Helvetica,sans-Serif" font-size="11.00" fill="#000000">persona_id</text>
<polygon fill="none" stroke="#000000" points="8.5,-285.7 8.5,-304.7 131.5,-304.7 131.5,-285.7 8.5,-285.7"/>
<text text-anchor="start" x="11.5" y="-291.8" font-family="Helvetica,sans-Serif" font-size="11.00" fill="#000000">...</text>
<polygon fill="#ffffff" stroke="transparent" points="8.5,-266.7 8.5,-285.7 49.5,-285.7 49.5,-266.7 8.5,-266.7"/>
<polygon fill="none" stroke="#000000" points="8.5,-266.7 8.5,-285.7 49.5,-285.7 49.5,-266.7 8.5,-266.7"/>
<text text-anchor="start" x="11.5" y="-272.8" font-family="Helvetica,sans-Serif" font-size="11.00" fill="#000000"> &#160;</text>
<polygon fill="#ffffff" stroke="transparent" points="49.5,-266.7 49.5,-285.7 95.5,-285.7 95.5,-266.7 49.5,-266.7"/>
<polygon fill="none" stroke="#000000" points="49.5,-266.7 49.5,-285.7 95.5,-285.7 95.5,-266.7 49.5,-266.7"/>
<text text-anchor="start" x="65.6105" y="-272.8" font-family="Helvetica,sans-Serif" font-size="11.00" fill="#000000">1 row</text>
<polygon fill="#ffffff" stroke="transparent" points="95.5,-266.7 95.5,-285.7 131.5,-285.7 131.5,-266.7 95.5,-266.7"/>
<polygon fill="none" stroke="#000000" points="95.5,-266.7 95.5,-285.7 131.5,-285.7 131.5,-266.7 95.5,-266.7"/>
<text text-anchor="start" x="112.9053" y="-272.8" font-family="Helvetica,sans-Serif" font-size="11.00" fill="#000000">7 &gt;</text>
</a>
</g>
</g>
<!-- contactos&#45;&gt;personas -->
<g id="edge3" class="edge">
<title>contactos:w&#45;&gt;personas:e</title>
<path fill="none" stroke="#000000" d="M340.0084,-338.5941C330.8542,-339.8111 324.5091,-341.9262 311,-342.7 249.3233,-346.233 231.127,-360.6022 172,-342.7 151.2949,-336.431 153.1333,-315.7 131.5,-315.7"/>
<polygon fill="#000000" stroke="#000000" points="346.5152,-338.1927 354.7217,-341.2932 350.5076,-337.9464 354.5,-337.7 354.5,-337.7 354.5,-337.7 350.5076,-337.9464 354.2783,-334.1068 346.5152,-338.1927 346.5152,-338.1927"/>
<ellipse fill="none" stroke="#000000" cx="343.3213" cy="-338.3898" rx="3.2" ry="3.2"/>
</g>
<!-- organizaciones&#45;&gt;personas -->
<g id="edge8" class="edge">
<title>organizaciones:w&#45;&gt;personas:e</title>
<path fill="none" stroke="#000000" d="M166.7637,-280.2885C153.8632,-290.7952 153.6826,-315.7 131.5,-315.7"/>
<polygon fill="#000000" stroke="#000000" points="172.9121,-278.2347 181.6406,-279.1145 176.7061,-276.9673 180.5,-275.7 180.5,-275.7 180.5,-275.7 176.7061,-276.9673 179.3594,-272.2855 172.9121,-278.2347 172.9121,-278.2347"/>
<ellipse fill="none" stroke="#000000" cx="169.877" cy="-279.2486" rx="3.2" ry="3.2"/>
</g>
<!-- encuesta_respuestas -->
<g id="node5" class="node">
<title>encuesta_respuestas</title>
<g id="a_node5"><a xlink:href="../../tables/encuesta_respuestas.html" xlink:title="encuesta_respuestas" target="_top">
<polygon fill="#ffffff" stroke="transparent" points="890,-380.2 890,-507.2 1037,-507.2 1037,-380.2 890,-380.2"/>
<polygon fill="#f5f5f5" stroke="transparent" points="890.5,-483.7 890.5,-506.7 1037.5,-506.7 1037.5,-483.7 890.5,-483.7"/>
<polygon fill="none" stroke="#000000" points="890.5,-483.7 890.5,-506.7 1037.5,-506.7 1037.5,-483.7 890.5,-483.7"/>
<text text-anchor="start" x="895.2302" y="-492.8" font-family="Helvetica,sans-Serif" font-weight="bold" font-size="11.00" fill="#000000">encuesta_respuestas</text>
<text text-anchor="start" x="1003.0219" y="-491.8" font-family="Helvetica,sans-Serif" font-size="11.00" fill="#000000">[table]</text>
<polygon fill="none" stroke="#000000" points="890.5,-461.7 890.5,-483.7 1037.5,-483.7 1037.5,-461.7 890.5,-461.7"/>
<image xlink:href="../../images/primaryKeys.png" width="11px" height="12px" preserveAspectRatio="xMinYMin meet" x="895.5" y="-478.7"/>
<text text-anchor="start" x="912.5" y="-468.8" font-family="Helvetica,sans-Serif" font-size="11.00" fill="#000000">respuesta_id</text>
<polygon fill="none" stroke="#000000" points="890.5,-439.7 890.5,-461.7 1037.5,-461.7 1037.5,-439.7 890.5,-439.7"/>
<image xlink:href="../../images/foreignKeys.png" width="11px" height="12px" preserveAspectRatio="xMinYMin meet" x="895.5" y="-456.7"/>
<text text-anchor="start" x="912.5" y="-446.8" font-family="Helvetica,sans-Serif" font-size="11.00" fill="#000000">oportunidad_id</text>
<polygon fill="none" stroke="#000000" points="890.5,-417.7 890.5,-439.7 1037.5,-439.7 1037.5,-417.7 890.5,-417.7"/>
<image xlink:href="../../images/foreignKeys.png" width="11px" height="12px" preserveAspectRatio="xMinYMin meet" x="895.5" y="-434.7"/>
<text text-anchor="start" x="912.5" y="-424.8" font-family="Helvetica,sans-Serif" font-size="11.00" fill="#000000">contacto_id</text>
<polygon fill="none" stroke="#000000" points="890.5,-398.7 890.5,-417.7 1037.5,-417.7 1037.5,-398.7 890.5,-398.7"/>
<text text-anchor="start" x="893.5" y="-404.8" font-family="Helvetica,sans-Serif" font-size="11.00" fill="#000000">...</text>
<polygon fill="#ffffff" stroke="transparent" points="890.5,-379.7 890.5,-398.7 944.5,-398.7 944.5,-379.7 890.5,-379.7"/>
<polygon fill="none" stroke="#000000" points="890.5,-379.7 890.5,-398.7 944.5,-398.7 944.5,-379.7 890.5,-379.7"/>
<text text-anchor="start" x="893.5" y="-385.8" font-family="Helvetica,sans-Serif" font-size="11.00" fill="#000000">&lt; 2</text>
<polygon fill="#ffffff" stroke="transparent" points="944.5,-379.7 944.5,-398.7 999.5,-398.7 999.5,-379.7 944.5,-379.7"/>
<polygon fill="none" stroke="#000000" points="944.5,-379.7 944.5,-398.7 999.5,-398.7 999.5,-379.7 944.5,-379.7"/>
<text text-anchor="start" x="964.1105" y="-385.8" font-family="Helvetica,sans-Serif" font-size="11.00" fill="#000000">0 rows</text>
<polygon fill="#ffffff" stroke="transparent" points="999.5,-379.7 999.5,-398.7 1037.5,-398.7 1037.5,-379.7 999.5,-379.7"/>
<polygon fill="none" stroke="#000000" points="999.5,-379.7 999.5,-398.7 1037.5,-398.7 1037.5,-379.7 999.5,-379.7"/>
<text text-anchor="start" x="1018.9053" y="-385.8" font-family="Helvetica,sans-Serif" font-size="11.00" fill="#000000">1 &gt;</text>
</a>
</g>
</g>
<!-- encuesta_respuestas&#45;&gt;contactos -->
<g id="edge4" class="edge">
<title>encuesta_respuestas:w&#45;&gt;contactos:e</title>
<path fill="none" stroke="#000000" d="M876.5036,-423.9391C864.7151,-412.8374 870.197,-385.2989 849,-373.7 778.0247,-334.8627 748.4063,-359.7 667.5,-359.7"/>
<polygon fill="#000000" stroke="#000000" points="882.9262,-426.1237 889.3407,-432.1082 886.7131,-427.4118 890.5,-428.7 890.5,-428.7 890.5,-428.7 886.7131,-427.4118 891.6593,-425.2918 882.9262,-426.1237 882.9262,-426.1237"/>
<ellipse fill="none" stroke="#000000" cx="879.8966" cy="-425.0932" rx="3.2" ry="3.2"/>
</g>
<!-- oportunidades -->
<g id="node6" class="node">
<title>oportunidades</title>
<g id="a_node6"><a xlink:href="../../tables/oportunidades.html" xlink:title="oportunidades" target="_top">
<polygon fill="#ffffff" stroke="transparent" points="718,-384.2 718,-555.2 841,-555.2 841,-384.2 718,-384.2"/>
<polygon fill="#f5f5f5" stroke="transparent" points="718.5,-531.7 718.5,-554.7 841.5,-554.7 841.5,-531.7 718.5,-531.7"/>
<polygon fill="none" stroke="#000000" points="718.5,-531.7 718.5,-554.7 841.5,-554.7 841.5,-531.7 718.5,-531.7"/>
<text text-anchor="start" x="723.5" y="-540.8" font-family="Helvetica,sans-Serif" font-weight="bold" font-size="11.00" fill="#000000">oportunidades</text>
<text text-anchor="start" x="806.5437" y="-539.8" font-family="Helvetica,sans-Serif" font-size="11.00" fill="#000000">[table]</text>
<polygon fill="none" stroke="#000000" points="718.5,-509.7 718.5,-531.7 841.5,-531.7 841.5,-509.7 718.5,-509.7"/>
<image xlink:href="../../images/primaryKeys.png" width="11px" height="12px" preserveAspectRatio="xMinYMin meet" x="723.5" y="-526.7"/>
<text text-anchor="start" x="738.5" y="-516.8" font-family="Helvetica,sans-Serif" font-size="11.00" fill="#000000">oportunidad_id</text>
<polygon fill="none" stroke="#000000" points="718.5,-487.7 718.5,-509.7 841.5,-509.7 841.5,-487.7 718.5,-487.7"/>
<image xlink:href="../../images/foreignKeys.png" width="11px" height="12px" preserveAspectRatio="xMinYMin meet" x="723.5" y="-504.7"/>
<text text-anchor="start" x="738.5" y="-494.8" font-family="Helvetica,sans-Serif" font-size="11.00" fill="#000000">campana_id</text>
<polygon fill="none" stroke="#000000" points="718.5,-465.7 718.5,-487.7 841.5,-487.7 841.5,-465.7 718.5,-465.7"/>
<image xlink:href="../../images/foreignKeys.png" width="11px" height="12px" preserveAspectRatio="xMinYMin meet" x="723.5" y="-482.7"/>
<text text-anchor="start" x="738.5" y="-472.8" font-family="Helvetica,sans-Serif" font-size="11.00" fill="#000000">contacto_id</text>
<polygon fill="none" stroke="#000000" points="718.5,-443.7 718.5,-465.7 841.5,-465.7 841.5,-443.7 718.5,-443.7"/>
<image xlink:href="../../images/foreignKeys.png" width="11px" height="12px" preserveAspectRatio="xMinYMin meet" x="723.5" y="-460.7"/>
<text text-anchor="start" x="738.5" y="-450.8" font-family="Helvetica,sans-Serif" font-size="11.00" fill="#000000">curso_id</text>
<polygon fill="none" stroke="#000000" points="718.5,-421.7 718.5,-443.7 841.5,-443.7 841.5,-421.7 718.5,-421.7"/>
<image xlink:href="../../images/foreignKeys.png" width="11px" height="12px" preserveAspectRatio="xMinYMin meet" x="723.5" y="-438.7"/>
<text text-anchor="start" x="738.5" y="-428.8" font-family="Helvetica,sans-Serif" font-size="11.00" fill="#000000">usu_asignado_id</text>
<polygon fill="none" stroke="#000000" points="718.5,-402.7 718.5,-421.7 841.5,-421.7 841.5,-402.7 718.5,-402.7"/>
<text text-anchor="start" x="721.5" y="-408.8" font-family="Helvetica,sans-Serif" font-size="11.00" fill="#000000">...</text>
<polygon fill="#ffffff" stroke="transparent" points="718.5,-383.7 718.5,-402.7 760.5,-402.7 760.5,-383.7 718.5,-383.7"/>
<polygon fill="none" stroke="#000000" points="718.5,-383.7 718.5,-402.7 760.5,-402.7 760.5,-383.7 718.5,-383.7"/>
<text text-anchor="start" x="721.5" y="-389.8" font-family="Helvetica,sans-Serif" font-size="11.00" fill="#000000">&lt; 4</text>
<polygon fill="#ffffff" stroke="transparent" points="760.5,-383.7 760.5,-402.7 809.5,-402.7 809.5,-383.7 760.5,-383.7"/>
<polygon fill="none" stroke="#000000" points="760.5,-383.7 760.5,-402.7 809.5,-402.7 809.5,-383.7 760.5,-383.7"/>
<text text-anchor="start" x="774.1105" y="-389.8" font-family="Helvetica,sans-Serif" font-size="11.00" fill="#000000">0 rows</text>
<polygon fill="#ffffff" stroke="transparent" points="809.5,-383.7 809.5,-402.7 841.5,-402.7 841.5,-383.7 809.5,-383.7"/>
<polygon fill="none" stroke="#000000" points="809.5,-383.7 809.5,-402.7 841.5,-402.7 841.5,-383.7 809.5,-383.7"/>
<text text-anchor="start" x="822.9053" y="-389.8" font-family="Helvetica,sans-Serif" font-size="11.00" fill="#000000">1 &gt;</text>
</a>
</g>
</g>
<!-- encuesta_respuestas&#45;&gt;oportunidades -->
<g id="edge5" class="edge">
<title>encuesta_respuestas:w&#45;&gt;oportunidades:e</title>
<path fill="none" stroke="#000000" d="M876.4782,-455.7342C859.62,-471.7846 873.2455,-520.7 841.5,-520.7"/>
<polygon fill="#000000" stroke="#000000" points="882.9706,-453.4033 891.7165,-454.0882 886.7353,-452.0517 890.5,-450.7 890.5,-450.7 890.5,-450.7 886.7353,-452.0517 889.2835,-447.3118 882.9706,-453.4033 882.9706,-453.4033"/>
<ellipse fill="none" stroke="#000000" cx="879.9588" cy="-454.4846" rx="3.2" ry="3.2"/>
</g>
<!-- oportunidades&#45;&gt;contactos -->
<g id="edge7" class="edge">
<title>oportunidades:w&#45;&gt;contactos:e</title>
<path fill="none" stroke="#000000" d="M704.2491,-473.0701C673.6221,-453.3218 718.2427,-359.7 667.5,-359.7"/>
<polygon fill="#000000" stroke="#000000" points="710.7475,-474.7253 717.6114,-480.1886 714.6238,-475.7127 718.5,-476.7 718.5,-476.7 718.5,-476.7 714.6238,-475.7127 719.3886,-473.2114 710.7475,-474.7253 710.7475,-474.7253"/>
<ellipse fill="none" stroke="#000000" cx="707.6465" cy="-473.9354" rx="3.2" ry="3.2"/>
</g>
<!-- llamadas -->
<g id="node7" class="node">
<title>llamadas</title>
<g id="a_node7"><a xlink:href="../../tables/llamadas.html" xlink:title="llamadas" target="_top">
<polygon fill="#ffffff" stroke="transparent" points="718,-208.2 718,-335.2 841,-335.2 841,-208.2 718,-208.2"/>
<polygon fill="#f5f5f5" stroke="transparent" points="718.5,-311.7 718.5,-334.7 841.5,-334.7 841.5,-311.7 718.5,-311.7"/>
<polygon fill="none" stroke="#000000" points="718.5,-311.7 718.5,-334.7 841.5,-334.7 841.5,-311.7 718.5,-311.7"/>
<text text-anchor="start" x="723.5" y="-320.8" font-family="Helvetica,sans-Serif" font-weight="bold" font-size="11.00" fill="#000000">llamadas</text>
<text text-anchor="start" x="806.5437" y="-319.8" font-family="Helvetica,sans-Serif" font-size="11.00" fill="#000000">[table]</text>
<polygon fill="none" stroke="#000000" points="718.5,-289.7 718.5,-311.7 841.5,-311.7 841.5,-289.7 718.5,-289.7"/>
<image xlink:href="../../images/primaryKeys.png" width="11px" height="12px" preserveAspectRatio="xMinYMin meet" x="723.5" y="-306.7"/>
<text text-anchor="start" x="738.5" y="-296.8" font-family="Helvetica,sans-Serif" font-size="11.00" fill="#000000">llamada_id</text>
<polygon fill="none" stroke="#000000" points="718.5,-267.7 718.5,-289.7 841.5,-289.7 841.5,-267.7 718.5,-267.7"/>
<image xlink:href="../../images/foreignKeys.png" width="11px" height="12px" preserveAspectRatio="xMinYMin meet" x="723.5" y="-284.7"/>
<text text-anchor="start" x="738.5" y="-274.8" font-family="Helvetica,sans-Serif" font-size="11.00" fill="#000000">contacto_id</text>
<polygon fill="none" stroke="#000000" points="718.5,-245.7 718.5,-267.7 841.5,-267.7 841.5,-245.7 718.5,-245.7"/>
<image xlink:href="../../images/foreignKeys.png" width="11px" height="12px" preserveAspectRatio="xMinYMin meet" x="723.5" y="-262.7"/>
<text text-anchor="start" x="738.5" y="-252.8" font-family="Helvetica,sans-Serif" font-size="11.00" fill="#000000">lead_id</text>
<polygon fill="none" stroke="#000000" points="718.5,-226.7 718.5,-245.7 841.5,-245.7 841.5,-226.7 718.5,-226.7"/>
<text text-anchor="start" x="721.5" y="-232.8" font-family="Helvetica,sans-Serif" font-size="11.00" fill="#000000">...</text>
<polygon fill="#ffffff" stroke="transparent" points="718.5,-207.7 718.5,-226.7 765.5,-226.7 765.5,-207.7 718.5,-207.7"/>
<polygon fill="none" stroke="#000000" points="718.5,-207.7 718.5,-226.7 765.5,-226.7 765.5,-207.7 718.5,-207.7"/>
<text text-anchor="start" x="721.5" y="-213.8" font-family="Helvetica,sans-Serif" font-size="11.00" fill="#000000">&lt; 2</text>
<polygon fill="#ffffff" stroke="transparent" points="765.5,-207.7 765.5,-226.7 816.5,-226.7 816.5,-207.7 765.5,-207.7"/>
<polygon fill="none" stroke="#000000" points="765.5,-207.7 765.5,-226.7 816.5,-226.7 816.5,-207.7 765.5,-207.7"/>
<text text-anchor="start" x="781.1105" y="-213.8" font-family="Helvetica,sans-Serif" font-size="11.00" fill="#000000">0 rows</text>
<polygon fill="#ffffff" stroke="transparent" points="816.5,-207.7 816.5,-226.7 841.5,-226.7 841.5,-207.7 816.5,-207.7"/>
<polygon fill="none" stroke="#000000" points="816.5,-207.7 816.5,-226.7 841.5,-226.7 841.5,-207.7 816.5,-207.7"/>
<text text-anchor="start" x="832.3862" y="-213.8" font-family="Helvetica,sans-Serif" font-size="11.00" fill="#000000"> &#160;</text>
</a>
</g>
</g>
<!-- llamadas&#45;&gt;contactos -->
<g id="edge6" class="edge">
<title>llamadas:w&#45;&gt;contactos:e</title>
<path fill="none" stroke="#000000" d="M704.6725,-283.0549C684.0291,-299.8794 704.0591,-359.7 667.5,-359.7"/>
<polygon fill="#000000" stroke="#000000" points="710.8695,-281.1032 719.5815,-282.1337 714.6847,-279.9016 718.5,-278.7 718.5,-278.7 718.5,-278.7 714.6847,-279.9016 717.4185,-275.2663 710.8695,-281.1032 710.8695,-281.1032"/>
<ellipse fill="none" stroke="#000000" cx="707.8173" cy="-282.0645" rx="3.2" ry="3.2"/>
</g>
<!-- tareas -->
<g id="node8" class="node">
<title>tareas</title>
<g id="a_node8"><a xlink:href="../../tables/tareas.html" xlink:title="tareas" target="_top">
<polygon fill="#ffffff" stroke="transparent" points="718,-38.2 718,-187.2 841,-187.2 841,-38.2 718,-38.2"/>
<polygon fill="#f5f5f5" stroke="transparent" points="718.5,-163.7 718.5,-186.7 841.5,-186.7 841.5,-163.7 718.5,-163.7"/>
<polygon fill="none" stroke="#000000" points="718.5,-163.7 718.5,-186.7 841.5,-186.7 841.5,-163.7 718.5,-163.7"/>
<text text-anchor="start" x="723.5" y="-172.8" font-family="Helvetica,sans-Serif" font-weight="bold" font-size="11.00" fill="#000000">tareas</text>
<text text-anchor="start" x="806.5437" y="-171.8" font-family="Helvetica,sans-Serif" font-size="11.00" fill="#000000">[table]</text>
<polygon fill="none" stroke="#000000" points="718.5,-141.7 718.5,-163.7 841.5,-163.7 841.5,-141.7 718.5,-141.7"/>
<image xlink:href="../../images/primaryKeys.png" width="11px" height="12px" preserveAspectRatio="xMinYMin meet" x="723.5" y="-158.7"/>
<text text-anchor="start" x="738.5" y="-148.8" font-family="Helvetica,sans-Serif" font-size="11.00" fill="#000000">tarea_id</text>
<polygon fill="none" stroke="#000000" points="718.5,-119.7 718.5,-141.7 841.5,-141.7 841.5,-119.7 718.5,-119.7"/>
<image xlink:href="../../images/foreignKeys.png" width="11px" height="12px" preserveAspectRatio="xMinYMin meet" x="723.5" y="-136.7"/>
<text text-anchor="start" x="738.5" y="-126.8" font-family="Helvetica,sans-Serif" font-size="11.00" fill="#000000">contacto_id</text>
<polygon fill="none" stroke="#000000" points="718.5,-97.7 718.5,-119.7 841.5,-119.7 841.5,-97.7 718.5,-97.7"/>
<image xlink:href="../../images/foreignKeys.png" width="11px" height="12px" preserveAspectRatio="xMinYMin meet" x="723.5" y="-114.7"/>
<text text-anchor="start" x="738.5" y="-104.8" font-family="Helvetica,sans-Serif" font-size="11.00" fill="#000000">lead_id</text>
<polygon fill="none" stroke="#000000" points="718.5,-75.7 718.5,-97.7 841.5,-97.7 841.5,-75.7 718.5,-75.7"/>
<image xlink:href="../../images/foreignKeys.png" width="11px" height="12px" preserveAspectRatio="xMinYMin meet" x="723.5" y="-92.7"/>
<text text-anchor="start" x="738.5" y="-82.8" font-family="Helvetica,sans-Serif" font-size="11.00" fill="#000000">usu_asignado_id</text>
<polygon fill="none" stroke="#000000" points="718.5,-56.7 718.5,-75.7 841.5,-75.7 841.5,-56.7 718.5,-56.7"/>
<text text-anchor="start" x="721.5" y="-62.8" font-family="Helvetica,sans-Serif" font-size="11.00" fill="#000000">...</text>
<polygon fill="#ffffff" stroke="transparent" points="718.5,-37.7 718.5,-56.7 765.5,-56.7 765.5,-37.7 718.5,-37.7"/>
<polygon fill="none" stroke="#000000" points="718.5,-37.7 718.5,-56.7 765.5,-56.7 765.5,-37.7 718.5,-37.7"/>
<text text-anchor="start" x="721.5" y="-43.8" font-family="Helvetica,sans-Serif" font-size="11.00" fill="#000000">&lt; 3</text>
<polygon fill="#ffffff" stroke="transparent" points="765.5,-37.7 765.5,-56.7 816.5,-56.7 816.5,-37.7 765.5,-37.7"/>
<polygon fill="none" stroke="#000000" points="765.5,-37.7 765.5,-56.7 816.5,-56.7 816.5,-37.7 765.5,-37.7"/>
<text text-anchor="start" x="781.1105" y="-43.8" font-family="Helvetica,sans-Serif" font-size="11.00" fill="#000000">0 rows</text>
<polygon fill="#ffffff" stroke="transparent" points="816.5,-37.7 816.5,-56.7 841.5,-56.7 841.5,-37.7 816.5,-37.7"/>
<polygon fill="none" stroke="#000000" points="816.5,-37.7 816.5,-56.7 841.5,-56.7 841.5,-37.7 816.5,-37.7"/>
<text text-anchor="start" x="832.3862" y="-43.8" font-family="Helvetica,sans-Serif" font-size="11.00" fill="#000000"> &#160;</text>
</a>
</g>
</g>
<!-- tareas&#45;&gt;contactos -->
<g id="edge9" class="edge">
<title>tareas:w&#45;&gt;contactos:e</title>
<path fill="none" stroke="#000000" d="M704.1114,-132.5433C630.1165,-154.2155 766.2726,-359.7 667.5,-359.7"/>
<polygon fill="#000000" stroke="#000000" points="710.5649,-131.7166 718.9575,-134.2708 714.5324,-131.2083 718.5,-130.7 718.5,-130.7 718.5,-130.7 714.5324,-131.2083 718.0425,-127.1292 710.5649,-131.7166 710.5649,-131.7166"/>
<ellipse fill="none" stroke="#000000" cx="707.3908" cy="-132.1233" rx="3.2" ry="3.2"/>
</g>
</g>
</svg>
