<?xml version="1.0" encoding="UTF-8" standalone="no"?>
<!DOCTYPE svg PUBLIC "-//W3C//DTD SVG 1.1//EN"
 "http://www.w3.org/Graphics/SVG/1.1/DTD/svg11.dtd">
<!-- Generated by graphviz version 2.40.1 (20161225.0304)
 -->
<!-- Title: twoDegreesRelationshipsDiagram Pages: 1 -->
<svg width="592pt" height="371pt"
 viewBox="0.00 0.00 592.00 370.70" xmlns="http://www.w3.org/2000/svg" xmlns:xlink="http://www.w3.org/1999/xlink">
<g id="graph0" class="graph" transform="scale(1 1) rotate(0) translate(4 366.7)">
<title>twoDegreesRelationshipsDiagram</title>
<polygon fill="#ffffff" stroke="transparent" points="-4,4 -4,-366.7 588,-366.7 588,4 -4,4"/>
<text text-anchor="middle" x="72.4936" y="-7.3" font-family="Helvetica,sans-Serif" font-size="11.00" fill="#000000">Generated by SchemaSpy</text>
<!-- casos -->
<g id="node1" class="node">
<title>casos</title>
<g id="a_node1"><a xlink:href="../../tables/casos.html" xlink:title="casos" target="_top">
<polygon fill="#ffffff" stroke="transparent" points="411,-297.7 411,-358.7 482,-358.7 482,-297.7 411,-297.7"/>
<polygon fill="#f5f5f5" stroke="transparent" points="411.5,-335.2 411.5,-358.2 482.5,-358.2 482.5,-335.2 411.5,-335.2"/>
<polygon fill="none" stroke="#000000" points="411.5,-335.2 411.5,-358.2 482.5,-358.2 482.5,-335.2 411.5,-335.2"/>
<text text-anchor="start" x="416.1351" y="-344.3" font-family="Helvetica,sans-Serif" font-weight="bold" font-size="11.00" fill="#000000">casos</text>
<text text-anchor="start" x="448.0219" y="-343.3" font-family="Helvetica,sans-Serif" font-size="11.00" fill="#000000">[table]</text>
<polygon fill="none" stroke="#000000" points="411.5,-316.2 411.5,-335.2 482.5,-335.2 482.5,-316.2 411.5,-316.2"/>
<text text-anchor="start" x="414.5" y="-322.3" font-family="Helvetica,sans-Serif" font-size="11.00" fill="#000000">...</text>
<polygon fill="#ffffff" stroke="transparent" points="411.5,-297.2 411.5,-316.2 432.5,-316.2 432.5,-297.2 411.5,-297.2"/>
<polygon fill="none" stroke="#000000" points="411.5,-297.2 411.5,-316.2 432.5,-316.2 432.5,-297.2 411.5,-297.2"/>
<text text-anchor="start" x="414.2027" y="-303.3" font-family="Helvetica,sans-Serif" font-size="11.00" fill="#000000">&lt; 5</text>
<polygon fill="#ffffff" stroke="transparent" points="432.5,-297.2 432.5,-316.2 470.5,-316.2 470.5,-297.2 432.5,-297.2"/>
<polygon fill="none" stroke="#000000" points="432.5,-297.2 432.5,-316.2 470.5,-316.2 470.5,-297.2 432.5,-297.2"/>
<text text-anchor="start" x="435.3053" y="-303.3" font-family="Helvetica,sans-Serif" font-size="11.00" fill="#000000">0 rows</text>
<polygon fill="#ffffff" stroke="transparent" points="470.5,-297.2 470.5,-316.2 482.5,-316.2 482.5,-297.2 470.5,-297.2"/>
<polygon fill="none" stroke="#000000" points="470.5,-297.2 470.5,-316.2 482.5,-316.2 482.5,-297.2 470.5,-297.2"/>
<text text-anchor="start" x="473.4431" y="-303.3" font-family="Helvetica,sans-Serif" font-size="11.00" fill="#000000"> &#160;</text>
</a>
</g>
</g>
<!-- contactos -->
<g id="node2" class="node">
<title>contactos</title>
<g id="a_node2"><a xlink:href="../../tables/contactos.html" xlink:title="contactos" target="_top">
<polygon fill="#ffffff" stroke="transparent" points="161.5,-192.2 161.5,-278.2 251.5,-278.2 251.5,-192.2 161.5,-192.2"/>
<polygon fill="#f5f5f5" stroke="transparent" points="161.5,-255.2 161.5,-278.2 251.5,-278.2 251.5,-255.2 161.5,-255.2"/>
<polygon fill="none" stroke="#000000" points="161.5,-255.2 161.5,-278.2 251.5,-278.2 251.5,-255.2 161.5,-255.2"/>
<text text-anchor="start" x="166.4633" y="-264.3" font-family="Helvetica,sans-Serif" font-weight="bold" font-size="11.00" fill="#000000">contactos</text>
<text text-anchor="start" x="217.0219" y="-263.3" font-family="Helvetica,sans-Serif" font-size="11.00" fill="#000000">[table]</text>
<polygon fill="none" stroke="#000000" points="161.5,-233.2 161.5,-255.2 251.5,-255.2 251.5,-233.2 161.5,-233.2"/>
<image xlink:href="../../images/primaryKeys.png" width="11px" height="12px" preserveAspectRatio="xMinYMin meet" x="166.5" y="-250.2"/>
<text text-anchor="start" x="182.5" y="-240.3" font-family="Helvetica,sans-Serif" font-size="11.00" fill="#000000">contacto_id</text>
<polygon fill="none" stroke="#000000" points="161.5,-211.2 161.5,-233.2 251.5,-233.2 251.5,-211.2 161.5,-211.2"/>
<image xlink:href="../../images/foreignKeys.png" width="11px" height="12px" preserveAspectRatio="xMinYMin meet" x="166.5" y="-228.2"/>
<text text-anchor="start" x="182.5" y="-218.3" font-family="Helvetica,sans-Serif" font-size="11.00" fill="#000000">persona_id</text>
<polygon fill="#ffffff" stroke="transparent" points="161.5,-192.2 161.5,-211.2 187.5,-211.2 187.5,-192.2 161.5,-192.2"/>
<polygon fill="none" stroke="#000000" points="161.5,-192.2 161.5,-211.2 187.5,-211.2 187.5,-192.2 161.5,-192.2"/>
<text text-anchor="start" x="164.5" y="-198.3" font-family="Helvetica,sans-Serif" font-size="11.00" fill="#000000">&lt; 1</text>
<polygon fill="#ffffff" stroke="transparent" points="187.5,-192.2 187.5,-211.2 227.5,-211.2 227.5,-192.2 187.5,-192.2"/>
<polygon fill="none" stroke="#000000" points="187.5,-192.2 187.5,-211.2 227.5,-211.2 227.5,-192.2 187.5,-192.2"/>
<text text-anchor="start" x="192.1105" y="-198.3" font-family="Helvetica,sans-Serif" font-size="11.00" fill="#000000">0 rows</text>
<polygon fill="#ffffff" stroke="transparent" points="227.5,-192.2 227.5,-211.2 251.5,-211.2 251.5,-192.2 227.5,-192.2"/>
<polygon fill="none" stroke="#000000" points="227.5,-192.2 227.5,-211.2 251.5,-211.2 251.5,-192.2 227.5,-192.2"/>
<text text-anchor="start" x="232.9053" y="-198.3" font-family="Helvetica,sans-Serif" font-size="11.00" fill="#000000">3 &gt;</text>
</a>
</g>
</g>
<!-- casos&#45;&gt;contactos -->
<g id="edge1" class="edge">
<title>casos:w&#45;&gt;contactos:e</title>
<path fill="none" stroke="#000000" d="M396.8081,-324.6782C360.0791,-321.8682 347.0039,-307.8909 309,-287.2 280.9734,-271.9412 283.4111,-244.2 251.5,-244.2"/>
<polygon fill="#000000" stroke="#000000" points="403.505,-324.916 411.3722,-328.7977 407.5025,-325.058 411.5,-325.2 411.5,-325.2 411.5,-325.2 407.5025,-325.058 411.6278,-321.6023 403.505,-324.916 403.505,-324.916"/>
<ellipse fill="none" stroke="#000000" cx="400.3071" cy="-324.8024" rx="3.2" ry="3.2"/>
</g>
<!-- personas -->
<g id="node3" class="node">
<title>personas</title>
<g id="a_node3"><a xlink:href="../../tables/personas.html" xlink:title="personas" target="_top">
<polygon fill="#ffffff" stroke="transparent" points="8,-140.7 8,-201.7 96,-201.7 96,-140.7 8,-140.7"/>
<polygon fill="#f5f5f5" stroke="transparent" points="8,-178.2 8,-201.2 96,-201.2 96,-178.2 8,-178.2"/>
<polygon fill="none" stroke="#000000" points="8,-178.2 8,-201.2 96,-201.2 96,-178.2 8,-178.2"/>
<text text-anchor="start" x="12.8818" y="-187.3" font-family="Helvetica,sans-Serif" font-weight="bold" font-size="11.00" fill="#000000">personas</text>
<text text-anchor="start" x="61.5219" y="-186.3" font-family="Helvetica,sans-Serif" font-size="11.00" fill="#000000">[table]</text>
<polygon fill="none" stroke="#000000" points="8,-159.2 8,-178.2 96,-178.2 96,-159.2 8,-159.2"/>
<text text-anchor="start" x="11" y="-165.3" font-family="Helvetica,sans-Serif" font-size="11.00" fill="#000000">...</text>
<polygon fill="#ffffff" stroke="transparent" points="8,-140.2 8,-159.2 28,-159.2 28,-140.2 8,-140.2"/>
<polygon fill="none" stroke="#000000" points="8,-140.2 8,-159.2 28,-159.2 28,-140.2 8,-140.2"/>
<text text-anchor="start" x="11" y="-146.3" font-family="Helvetica,sans-Serif" font-size="11.00" fill="#000000"> &#160;</text>
<polygon fill="#ffffff" stroke="transparent" points="28,-140.2 28,-159.2 70,-159.2 70,-140.2 28,-140.2"/>
<polygon fill="none" stroke="#000000" points="28,-140.2 28,-159.2 70,-159.2 70,-140.2 28,-140.2"/>
<text text-anchor="start" x="34.6105" y="-146.3" font-family="Helvetica,sans-Serif" font-size="11.00" fill="#000000">0 rows</text>
<polygon fill="#ffffff" stroke="transparent" points="70,-140.2 70,-159.2 96,-159.2 96,-140.2 70,-140.2"/>
<polygon fill="none" stroke="#000000" points="70,-140.2 70,-159.2 96,-159.2 96,-140.2 70,-140.2"/>
<text text-anchor="start" x="77.4053" y="-146.3" font-family="Helvetica,sans-Serif" font-size="11.00" fill="#000000">4 &gt;</text>
</a>
</g>
</g>
<!-- contactos&#45;&gt;personas -->
<g id="edge2" class="edge">
<title>contactos:w&#45;&gt;personas:e</title>
<path fill="none" stroke="#000000" d="M147.2398,-218.8221C125.6985,-207.0001 127.981,-168.2 96,-168.2"/>
<polygon fill="#000000" stroke="#000000" points="153.7154,-220.356 160.6702,-225.7031 157.6077,-221.278 161.5,-222.2 161.5,-222.2 161.5,-222.2 157.6077,-221.278 162.3298,-218.6969 153.7154,-220.356 153.7154,-220.356"/>
<ellipse fill="none" stroke="#000000" cx="150.6016" cy="-219.6183" rx="3.2" ry="3.2"/>
</g>
<!-- contactos_oportunidades -->
<g id="node4" class="node">
<title>contactos_oportunidades</title>
<g id="a_node4"><a xlink:href="../../tables/contactos_oportunidades.html" xlink:title="contactos_oportunidades" target="_top">
<polygon fill="#ffffff" stroke="transparent" points="364,-215.7 364,-276.7 529,-276.7 529,-215.7 364,-215.7"/>
<polygon fill="#f5f5f5" stroke="transparent" points="364.5,-253.2 364.5,-276.2 529.5,-276.2 529.5,-253.2 364.5,-253.2"/>
<polygon fill="none" stroke="#000000" points="364.5,-253.2 364.5,-276.2 529.5,-276.2 529.5,-253.2 364.5,-253.2"/>
<text text-anchor="start" x="369.059" y="-262.3" font-family="Helvetica,sans-Serif" font-weight="bold" font-size="11.00" fill="#000000">contactos_oportunidades</text>
<text text-anchor="start" x="495.0219" y="-261.3" font-family="Helvetica,sans-Serif" font-size="11.00" fill="#000000">[table]</text>
<polygon fill="none" stroke="#000000" points="364.5,-234.2 364.5,-253.2 529.5,-253.2 529.5,-234.2 364.5,-234.2"/>
<text text-anchor="start" x="367.5" y="-240.3" font-family="Helvetica,sans-Serif" font-size="11.00" fill="#000000">...</text>
<polygon fill="#ffffff" stroke="transparent" points="364.5,-215.2 364.5,-234.2 432.5,-234.2 432.5,-215.2 364.5,-215.2"/>
<polygon fill="none" stroke="#000000" points="364.5,-215.2 364.5,-234.2 432.5,-234.2 432.5,-215.2 364.5,-215.2"/>
<text text-anchor="start" x="367.5" y="-221.3" font-family="Helvetica,sans-Serif" font-size="11.00" fill="#000000">&lt; 2</text>
<polygon fill="#ffffff" stroke="transparent" points="432.5,-215.2 432.5,-234.2 493.5,-234.2 493.5,-215.2 432.5,-215.2"/>
<polygon fill="none" stroke="#000000" points="432.5,-215.2 432.5,-234.2 493.5,-234.2 493.5,-215.2 432.5,-215.2"/>
<text text-anchor="start" x="458.1105" y="-221.3" font-family="Helvetica,sans-Serif" font-size="11.00" fill="#000000">0 rows</text>
<polygon fill="#ffffff" stroke="transparent" points="493.5,-215.2 493.5,-234.2 529.5,-234.2 529.5,-215.2 493.5,-215.2"/>
<polygon fill="none" stroke="#000000" points="493.5,-215.2 493.5,-234.2 529.5,-234.2 529.5,-215.2 493.5,-215.2"/>
<text text-anchor="start" x="520.3862" y="-221.3" font-family="Helvetica,sans-Serif" font-size="11.00" fill="#000000"> &#160;</text>
</a>
</g>
</g>
<!-- contactos_oportunidades&#45;&gt;contactos -->
<g id="edge3" class="edge">
<title>contactos_oportunidades:w&#45;&gt;contactos:e</title>
<path fill="none" stroke="#000000" d="M350.0305,-243.2299C311.2736,-243.3963 296.5252,-244.2 251.5,-244.2"/>
<polygon fill="#000000" stroke="#000000" points="356.5,-243.2166 364.5075,-246.8 360.5,-243.2083 364.5,-243.2 364.5,-243.2 364.5,-243.2 360.5,-243.2083 364.4925,-239.6 356.5,-243.2166 356.5,-243.2166"/>
<ellipse fill="none" stroke="#000000" cx="353.3" cy="-243.2232" rx="3.2" ry="3.2"/>
</g>
<!-- contactos_organizaciones -->
<g id="node5" class="node">
<title>contactos_organizaciones</title>
<g id="a_node5"><a xlink:href="../../tables/contactos_organizaciones.html" xlink:title="contactos_organizaciones" target="_top">
<polygon fill="#ffffff" stroke="transparent" points="317,-38.2 317,-194.2 576,-194.2 576,-38.2 317,-38.2"/>
<polygon fill="#f5f5f5" stroke="transparent" points="319.5,-169.2 319.5,-192.2 574.5,-192.2 574.5,-169.2 319.5,-169.2"/>
<polygon fill="none" stroke="#000000" points="319.5,-169.2 319.5,-192.2 574.5,-192.2 574.5,-169.2 319.5,-169.2"/>
<text text-anchor="start" x="324.5" y="-178.3" font-family="Helvetica,sans-Serif" font-weight="bold" font-size="11.00" fill="#000000">contactos_organizaciones</text>
<text text-anchor="start" x="539.5437" y="-177.3" font-family="Helvetica,sans-Serif" font-size="11.00" fill="#000000">[table]</text>
<polygon fill="none" stroke="#000000" points="319.5,-147.2 319.5,-169.2 490.5,-169.2 490.5,-147.2 319.5,-147.2"/>
<image xlink:href="../../images/foreignKeys.png" width="11px" height="12px" preserveAspectRatio="xMinYMin meet" x="324.5" y="-164.2"/>
<text text-anchor="start" x="339.5" y="-154.3" font-family="Helvetica,sans-Serif" font-size="11.00" fill="#000000">contacto_id</text>
<polygon fill="none" stroke="#000000" points="490.5,-147.2 490.5,-169.2 574.5,-169.2 574.5,-147.2 490.5,-147.2"/>
<text text-anchor="start" x="493.5" y="-154.9" font-family="Helvetica,sans-Serif" font-size="11.00" fill="#000000">int4[10]</text>
<polygon fill="none" stroke="#000000" points="319.5,-125.2 319.5,-147.2 490.5,-147.2 490.5,-125.2 319.5,-125.2"/>
<image xlink:href="../../images/foreignKeys.png" width="11px" height="12px" preserveAspectRatio="xMinYMin meet" x="324.5" y="-142.2"/>
<text text-anchor="start" x="339.5" y="-132.3" font-family="Helvetica,sans-Serif" font-size="11.00" fill="#000000">organizacion_id</text>
<polygon fill="none" stroke="#000000" points="490.5,-125.2 490.5,-147.2 574.5,-147.2 574.5,-125.2 490.5,-125.2"/>
<text text-anchor="start" x="493.5" y="-132.9" font-family="Helvetica,sans-Serif" font-size="11.00" fill="#000000">int4[10]</text>
<polygon fill="none" stroke="#000000" points="319.5,-103.2 319.5,-125.2 490.5,-125.2 490.5,-103.2 319.5,-103.2"/>
<text text-anchor="start" x="339.5" y="-110.3" font-family="Helvetica,sans-Serif" font-size="11.00" fill="#000000">fec_insercion</text>
<polygon fill="none" stroke="#000000" points="490.5,-103.2 490.5,-125.2 574.5,-125.2 574.5,-103.2 490.5,-103.2"/>
<text text-anchor="start" x="493.3807" y="-110.9" font-family="Helvetica,sans-Serif" font-size="11.00" fill="#000000">timestamp[29,6]</text>
<polygon fill="none" stroke="#000000" points="319.5,-81.2 319.5,-103.2 490.5,-103.2 490.5,-81.2 319.5,-81.2"/>
<text text-anchor="start" x="339.5" y="-88.3" font-family="Helvetica,sans-Serif" font-size="11.00" fill="#000000">fec_modificacion</text>
<polygon fill="none" stroke="#000000" points="490.5,-81.2 490.5,-103.2 574.5,-103.2 574.5,-81.2 490.5,-81.2"/>
<text text-anchor="start" x="493.3807" y="-88.9" font-family="Helvetica,sans-Serif" font-size="11.00" fill="#000000">timestamp[29,6]</text>
<polygon fill="none" stroke="#000000" points="319.5,-59.2 319.5,-81.2 490.5,-81.2 490.5,-59.2 319.5,-59.2"/>
<text text-anchor="start" x="339.5" y="-66.3" font-family="Helvetica,sans-Serif" font-size="11.00" fill="#000000">fec_eliminacion</text>
<polygon fill="none" stroke="#000000" points="490.5,-59.2 490.5,-81.2 574.5,-81.2 574.5,-59.2 490.5,-59.2"/>
<text text-anchor="start" x="493.3807" y="-66.9" font-family="Helvetica,sans-Serif" font-size="11.00" fill="#000000">timestamp[29,6]</text>
<polygon fill="#ffffff" stroke="transparent" points="319.5,-40.2 319.5,-59.2 396.5,-59.2 396.5,-40.2 319.5,-40.2"/>
<polygon fill="none" stroke="#000000" points="319.5,-40.2 319.5,-59.2 396.5,-59.2 396.5,-40.2 319.5,-40.2"/>
<text text-anchor="start" x="322.5" y="-46.3" font-family="Helvetica,sans-Serif" font-size="11.00" fill="#000000">&lt; 2</text>
<polygon fill="#ffffff" stroke="transparent" points="396.5,-40.2 396.5,-59.2 490.5,-59.2 490.5,-40.2 396.5,-40.2"/>
<polygon fill="none" stroke="#000000" points="396.5,-40.2 396.5,-59.2 490.5,-59.2 490.5,-40.2 396.5,-40.2"/>
<text text-anchor="start" x="455.1105" y="-46.3" font-family="Helvetica,sans-Serif" font-size="11.00" fill="#000000">0 rows</text>
<polygon fill="#ffffff" stroke="transparent" points="490.5,-40.2 490.5,-59.2 574.5,-59.2 574.5,-40.2 490.5,-40.2"/>
<polygon fill="none" stroke="#000000" points="490.5,-40.2 490.5,-59.2 574.5,-59.2 574.5,-40.2 490.5,-40.2"/>
<text text-anchor="start" x="555.9053" y="-46.3" font-family="Helvetica,sans-Serif" font-size="11.00" fill="#000000">0 &gt;</text>
<polygon fill="none" stroke="#000000" stroke-width="2" points="318,-39.2 318,-193.2 575,-193.2 575,-39.2 318,-39.2"/>
</a>
</g>
</g>
<!-- contactos_organizaciones&#45;&gt;contactos -->
<g id="edge4" class="edge">
<title>contactos_organizaciones:w&#45;&gt;contactos:e</title>
<path fill="none" stroke="#000000" d="M305.3387,-161.4663C276.6026,-177.1752 294.5168,-244.2 251.5,-244.2"/>
<polygon fill="#000000" stroke="#000000" points="311.7047,-159.998 320.3091,-161.7079 315.6023,-159.099 319.5,-158.2 319.5,-158.2 319.5,-158.2 315.6023,-159.099 318.6909,-154.6921 311.7047,-159.998 311.7047,-159.998"/>
<ellipse fill="none" stroke="#000000" cx="308.5865" cy="-160.7172" rx="3.2" ry="3.2"/>
</g>
<!-- organizaciones -->
<g id="node6" class="node">
<title>organizaciones</title>
<g id="a_node6"><a xlink:href="../../tables/organizaciones.html" xlink:title="organizaciones" target="_top">
<polygon fill="#ffffff" stroke="transparent" points="145,-65.7 145,-170.7 268,-170.7 268,-65.7 145,-65.7"/>
<polygon fill="#f5f5f5" stroke="transparent" points="145.5,-147.2 145.5,-170.2 268.5,-170.2 268.5,-147.2 145.5,-147.2"/>
<polygon fill="none" stroke="#000000" points="145.5,-147.2 145.5,-170.2 268.5,-170.2 268.5,-147.2 145.5,-147.2"/>
<text text-anchor="start" x="150.5" y="-156.3" font-family="Helvetica,sans-Serif" font-weight="bold" font-size="11.00" fill="#000000">organizaciones</text>
<text text-anchor="start" x="233.5437" y="-155.3" font-family="Helvetica,sans-Serif" font-size="11.00" fill="#000000">[table]</text>
<polygon fill="none" stroke="#000000" points="145.5,-125.2 145.5,-147.2 268.5,-147.2 268.5,-125.2 145.5,-125.2"/>
<image xlink:href="../../images/primaryKeys.png" width="11px" height="12px" preserveAspectRatio="xMinYMin meet" x="150.5" y="-142.2"/>
<text text-anchor="start" x="165.5" y="-132.3" font-family="Helvetica,sans-Serif" font-size="11.00" fill="#000000">organizacion_id</text>
<polygon fill="none" stroke="#000000" points="145.5,-103.2 145.5,-125.2 268.5,-125.2 268.5,-103.2 145.5,-103.2"/>
<image xlink:href="../../images/foreignKeys.png" width="11px" height="12px" preserveAspectRatio="xMinYMin meet" x="150.5" y="-120.2"/>
<text text-anchor="start" x="165.5" y="-110.3" font-family="Helvetica,sans-Serif" font-size="11.00" fill="#000000">persona_id</text>
<polygon fill="none" stroke="#000000" points="145.5,-84.2 145.5,-103.2 268.5,-103.2 268.5,-84.2 145.5,-84.2"/>
<text text-anchor="start" x="148.5" y="-90.3" font-family="Helvetica,sans-Serif" font-size="11.00" fill="#000000">...</text>
<polygon fill="#ffffff" stroke="transparent" points="145.5,-65.2 145.5,-84.2 187.5,-84.2 187.5,-65.2 145.5,-65.2"/>
<polygon fill="none" stroke="#000000" points="145.5,-65.2 145.5,-84.2 187.5,-84.2 187.5,-65.2 145.5,-65.2"/>
<text text-anchor="start" x="148.5" y="-71.3" font-family="Helvetica,sans-Serif" font-size="11.00" fill="#000000">&lt; 1</text>
<polygon fill="#ffffff" stroke="transparent" points="187.5,-65.2 187.5,-84.2 236.5,-84.2 236.5,-65.2 187.5,-65.2"/>
<polygon fill="none" stroke="#000000" points="187.5,-65.2 187.5,-84.2 236.5,-84.2 236.5,-65.2 187.5,-65.2"/>
<text text-anchor="start" x="201.1105" y="-71.3" font-family="Helvetica,sans-Serif" font-size="11.00" fill="#000000">0 rows</text>
<polygon fill="#ffffff" stroke="transparent" points="236.5,-65.2 236.5,-84.2 268.5,-84.2 268.5,-65.2 236.5,-65.2"/>
<polygon fill="none" stroke="#000000" points="236.5,-65.2 236.5,-84.2 268.5,-84.2 268.5,-65.2 236.5,-65.2"/>
<text text-anchor="start" x="249.9053" y="-71.3" font-family="Helvetica,sans-Serif" font-size="11.00" fill="#000000">1 &gt;</text>
</a>
</g>
</g>
<!-- contactos_organizaciones&#45;&gt;organizaciones -->
<g id="edge5" class="edge">
<title>contactos_organizaciones:w&#45;&gt;organizaciones:e</title>
<path fill="none" stroke="#000000" d="M304.776,-136.2C292.7815,-136.2 285.3229,-136.2 268.5,-136.2"/>
<polygon fill="#000000" stroke="#000000" points="311.5,-136.2001 319.5,-139.8 315.5,-136.2 319.5,-136.2 319.5,-136.2 319.5,-136.2 315.5,-136.2 319.5,-132.6 311.5,-136.2001 311.5,-136.2001"/>
<ellipse fill="none" stroke="#000000" cx="308.3" cy="-136.2001" rx="3.2" ry="3.2"/>
</g>
<!-- organizaciones&#45;&gt;personas -->
<g id="edge6" class="edge">
<title>organizaciones:w&#45;&gt;personas:e</title>
<path fill="none" stroke="#000000" d="M131.632,-119.1834C117.1045,-132.5516 122.4531,-168.2 96,-168.2"/>
<polygon fill="#000000" stroke="#000000" points="137.9713,-116.9054 146.7174,-117.5879 141.7357,-115.5527 145.5,-114.2 145.5,-114.2 145.5,-114.2 141.7357,-115.5527 144.2826,-110.8121 137.9713,-116.9054 137.9713,-116.9054"/>
<ellipse fill="none" stroke="#000000" cx="134.9599" cy="-117.9876" rx="3.2" ry="3.2"/>
</g>
</g>
</svg>
