<?xml version="1.0" encoding="UTF-8" standalone="no"?>
<!DOCTYPE svg PUBLIC "-//W3C//DTD SVG 1.1//EN"
 "http://www.w3.org/Graphics/SVG/1.1/DTD/svg11.dtd">
<!-- Generated by graphviz version 2.40.1 (20161225.0304)
 -->
<!-- Title: oneDegreeRelationshipsDiagramImplied Pages: 1 -->
<svg width="455pt" height="263pt"
 viewBox="0.00 0.00 455.00 262.70" xmlns="http://www.w3.org/2000/svg" xmlns:xlink="http://www.w3.org/1999/xlink">
<g id="graph0" class="graph" transform="scale(1 1) rotate(0) translate(4 258.7)">
<title>oneDegreeRelationshipsDiagramImplied</title>
<polygon fill="#ffffff" stroke="transparent" points="-4,4 -4,-258.7 451,-258.7 451,4 -4,4"/>
<text text-anchor="middle" x="72.4936" y="-7.3" font-family="Helvetica,sans-Serif" font-size="11.00" fill="#000000">Generated by SchemaSpy</text>
<!-- contactos_organizaciones -->
<g id="node1" class="node">
<title>contactos_organizaciones</title>
<g id="a_node1"><a xlink:href="../../tables/contactos_organizaciones.html" xlink:title="contactos_organizaciones" target="_top">
<polygon fill="#ffffff" stroke="transparent" points="180,-53.7 180,-209.7 439,-209.7 439,-53.7 180,-53.7"/>
<polygon fill="#f5f5f5" stroke="transparent" points="182.5,-184.7 182.5,-207.7 437.5,-207.7 437.5,-184.7 182.5,-184.7"/>
<polygon fill="none" stroke="#000000" points="182.5,-184.7 182.5,-207.7 437.5,-207.7 437.5,-184.7 182.5,-184.7"/>
<text text-anchor="start" x="187.5" y="-193.8" font-family="Helvetica,sans-Serif" font-weight="bold" font-size="11.00" fill="#000000">contactos_organizaciones</text>
<text text-anchor="start" x="402.5437" y="-192.8" font-family="Helvetica,sans-Serif" font-size="11.00" fill="#000000">[table]</text>
<polygon fill="none" stroke="#000000" points="182.5,-162.7 182.5,-184.7 353.5,-184.7 353.5,-162.7 182.5,-162.7"/>
<image xlink:href="../../images/foreignKeys.png" width="11px" height="12px" preserveAspectRatio="xMinYMin meet" x="187.5" y="-179.7"/>
<text text-anchor="start" x="202.5" y="-169.8" font-family="Helvetica,sans-Serif" font-size="11.00" fill="#000000">contacto_id</text>
<polygon fill="none" stroke="#000000" points="353.5,-162.7 353.5,-184.7 437.5,-184.7 437.5,-162.7 353.5,-162.7"/>
<text text-anchor="start" x="356.5" y="-170.4" font-family="Helvetica,sans-Serif" font-size="11.00" fill="#000000">int4[10]</text>
<polygon fill="none" stroke="#000000" points="182.5,-140.7 182.5,-162.7 353.5,-162.7 353.5,-140.7 182.5,-140.7"/>
<image xlink:href="../../images/foreignKeys.png" width="11px" height="12px" preserveAspectRatio="xMinYMin meet" x="187.5" y="-157.7"/>
<text text-anchor="start" x="202.5" y="-147.8" font-family="Helvetica,sans-Serif" font-size="11.00" fill="#000000">organizacion_id</text>
<polygon fill="none" stroke="#000000" points="353.5,-140.7 353.5,-162.7 437.5,-162.7 437.5,-140.7 353.5,-140.7"/>
<text text-anchor="start" x="356.5" y="-148.4" font-family="Helvetica,sans-Serif" font-size="11.00" fill="#000000">int4[10]</text>
<polygon fill="none" stroke="#000000" points="182.5,-118.7 182.5,-140.7 353.5,-140.7 353.5,-118.7 182.5,-118.7"/>
<text text-anchor="start" x="202.5" y="-125.8" font-family="Helvetica,sans-Serif" font-size="11.00" fill="#000000">fec_insercion</text>
<polygon fill="none" stroke="#000000" points="353.5,-118.7 353.5,-140.7 437.5,-140.7 437.5,-118.7 353.5,-118.7"/>
<text text-anchor="start" x="356.3807" y="-126.4" font-family="Helvetica,sans-Serif" font-size="11.00" fill="#000000">timestamp[29,6]</text>
<polygon fill="none" stroke="#000000" points="182.5,-96.7 182.5,-118.7 353.5,-118.7 353.5,-96.7 182.5,-96.7"/>
<text text-anchor="start" x="202.5" y="-103.8" font-family="Helvetica,sans-Serif" font-size="11.00" fill="#000000">fec_modificacion</text>
<polygon fill="none" stroke="#000000" points="353.5,-96.7 353.5,-118.7 437.5,-118.7 437.5,-96.7 353.5,-96.7"/>
<text text-anchor="start" x="356.3807" y="-104.4" font-family="Helvetica,sans-Serif" font-size="11.00" fill="#000000">timestamp[29,6]</text>
<polygon fill="none" stroke="#000000" points="182.5,-74.7 182.5,-96.7 353.5,-96.7 353.5,-74.7 182.5,-74.7"/>
<text text-anchor="start" x="202.5" y="-81.8" font-family="Helvetica,sans-Serif" font-size="11.00" fill="#000000">fec_eliminacion</text>
<polygon fill="none" stroke="#000000" points="353.5,-74.7 353.5,-96.7 437.5,-96.7 437.5,-74.7 353.5,-74.7"/>
<text text-anchor="start" x="356.3807" y="-82.4" font-family="Helvetica,sans-Serif" font-size="11.00" fill="#000000">timestamp[29,6]</text>
<polygon fill="#ffffff" stroke="transparent" points="182.5,-55.7 182.5,-74.7 259.5,-74.7 259.5,-55.7 182.5,-55.7"/>
<polygon fill="none" stroke="#000000" points="182.5,-55.7 182.5,-74.7 259.5,-74.7 259.5,-55.7 182.5,-55.7"/>
<text text-anchor="start" x="185.5" y="-61.8" font-family="Helvetica,sans-Serif" font-size="11.00" fill="#000000">&lt; 2</text>
<polygon fill="#ffffff" stroke="transparent" points="259.5,-55.7 259.5,-74.7 353.5,-74.7 353.5,-55.7 259.5,-55.7"/>
<polygon fill="none" stroke="#000000" points="259.5,-55.7 259.5,-74.7 353.5,-74.7 353.5,-55.7 259.5,-55.7"/>
<text text-anchor="start" x="318.1105" y="-61.8" font-family="Helvetica,sans-Serif" font-size="11.00" fill="#000000">0 rows</text>
<polygon fill="#ffffff" stroke="transparent" points="353.5,-55.7 353.5,-74.7 437.5,-74.7 437.5,-55.7 353.5,-55.7"/>
<polygon fill="none" stroke="#000000" points="353.5,-55.7 353.5,-74.7 437.5,-74.7 437.5,-55.7 353.5,-55.7"/>
<text text-anchor="start" x="418.9053" y="-61.8" font-family="Helvetica,sans-Serif" font-size="11.00" fill="#000000">0 &gt;</text>
<polygon fill="none" stroke="#000000" stroke-width="2" points="181,-54.7 181,-208.7 438,-208.7 438,-54.7 181,-54.7"/>
</a>
</g>
</g>
<!-- contactos -->
<g id="node2" class="node">
<title>contactos</title>
<g id="a_node2"><a xlink:href="../../tables/contactos.html" xlink:title="contactos" target="_top">
<polygon fill="#ffffff" stroke="transparent" points="24.5,-164.7 24.5,-250.7 114.5,-250.7 114.5,-164.7 24.5,-164.7"/>
<polygon fill="#f5f5f5" stroke="transparent" points="24.5,-227.7 24.5,-250.7 114.5,-250.7 114.5,-227.7 24.5,-227.7"/>
<polygon fill="none" stroke="#000000" points="24.5,-227.7 24.5,-250.7 114.5,-250.7 114.5,-227.7 24.5,-227.7"/>
<text text-anchor="start" x="29.4633" y="-236.8" font-family="Helvetica,sans-Serif" font-weight="bold" font-size="11.00" fill="#000000">contactos</text>
<text text-anchor="start" x="80.0219" y="-235.8" font-family="Helvetica,sans-Serif" font-size="11.00" fill="#000000">[table]</text>
<polygon fill="none" stroke="#000000" points="24.5,-205.7 24.5,-227.7 114.5,-227.7 114.5,-205.7 24.5,-205.7"/>
<image xlink:href="../../images/primaryKeys.png" width="11px" height="12px" preserveAspectRatio="xMinYMin meet" x="29.5" y="-222.7"/>
<text text-anchor="start" x="45.5" y="-212.8" font-family="Helvetica,sans-Serif" font-size="11.00" fill="#000000">contacto_id</text>
<polygon fill="none" stroke="#000000" points="24.5,-183.7 24.5,-205.7 114.5,-205.7 114.5,-183.7 24.5,-183.7"/>
<image xlink:href="../../images/foreignKeys.png" width="11px" height="12px" preserveAspectRatio="xMinYMin meet" x="29.5" y="-200.7"/>
<text text-anchor="start" x="45.5" y="-190.8" font-family="Helvetica,sans-Serif" font-size="11.00" fill="#000000">persona_id</text>
<polygon fill="#ffffff" stroke="transparent" points="24.5,-164.7 24.5,-183.7 50.5,-183.7 50.5,-164.7 24.5,-164.7"/>
<polygon fill="none" stroke="#000000" points="24.5,-164.7 24.5,-183.7 50.5,-183.7 50.5,-164.7 24.5,-164.7"/>
<text text-anchor="start" x="27.5" y="-170.8" font-family="Helvetica,sans-Serif" font-size="11.00" fill="#000000">&lt; 1</text>
<polygon fill="#ffffff" stroke="transparent" points="50.5,-164.7 50.5,-183.7 90.5,-183.7 90.5,-164.7 50.5,-164.7"/>
<polygon fill="none" stroke="#000000" points="50.5,-164.7 50.5,-183.7 90.5,-183.7 90.5,-164.7 50.5,-164.7"/>
<text text-anchor="start" x="55.1105" y="-170.8" font-family="Helvetica,sans-Serif" font-size="11.00" fill="#000000">0 rows</text>
<polygon fill="#ffffff" stroke="transparent" points="90.5,-164.7 90.5,-183.7 114.5,-183.7 114.5,-164.7 90.5,-164.7"/>
<polygon fill="none" stroke="#000000" points="90.5,-164.7 90.5,-183.7 114.5,-183.7 114.5,-164.7 90.5,-164.7"/>
<text text-anchor="start" x="95.9053" y="-170.8" font-family="Helvetica,sans-Serif" font-size="11.00" fill="#000000">2 &gt;</text>
</a>
</g>
</g>
<!-- contactos_organizaciones&#45;&gt;contactos -->
<g id="edge1" class="edge">
<title>contactos_organizaciones:w&#45;&gt;contactos:e</title>
<path fill="none" stroke="#000000" d="M168.3154,-176.5214C146.882,-186.0877 144.6706,-216.7 114.5,-216.7"/>
<polygon fill="#000000" stroke="#000000" points="174.6537,-175.2607 183.2023,-177.2308 178.5769,-174.4803 182.5,-173.7 182.5,-173.7 182.5,-173.7 178.5769,-174.4803 181.7977,-170.1692 174.6537,-175.2607 174.6537,-175.2607"/>
<ellipse fill="none" stroke="#000000" cx="171.5152" cy="-175.885" rx="3.2" ry="3.2"/>
</g>
<!-- organizaciones -->
<g id="node3" class="node">
<title>organizaciones</title>
<g id="a_node3"><a xlink:href="../../tables/organizaciones.html" xlink:title="organizaciones" target="_top">
<polygon fill="#ffffff" stroke="transparent" points="8,-38.2 8,-143.2 131,-143.2 131,-38.2 8,-38.2"/>
<polygon fill="#f5f5f5" stroke="transparent" points="8.5,-119.7 8.5,-142.7 131.5,-142.7 131.5,-119.7 8.5,-119.7"/>
<polygon fill="none" stroke="#000000" points="8.5,-119.7 8.5,-142.7 131.5,-142.7 131.5,-119.7 8.5,-119.7"/>
<text text-anchor="start" x="13.5" y="-128.8" font-family="Helvetica,sans-Serif" font-weight="bold" font-size="11.00" fill="#000000">organizaciones</text>
<text text-anchor="start" x="96.5437" y="-127.8" font-family="Helvetica,sans-Serif" font-size="11.00" fill="#000000">[table]</text>
<polygon fill="none" stroke="#000000" points="8.5,-97.7 8.5,-119.7 131.5,-119.7 131.5,-97.7 8.5,-97.7"/>
<image xlink:href="../../images/primaryKeys.png" width="11px" height="12px" preserveAspectRatio="xMinYMin meet" x="13.5" y="-114.7"/>
<text text-anchor="start" x="28.5" y="-104.8" font-family="Helvetica,sans-Serif" font-size="11.00" fill="#000000">organizacion_id</text>
<polygon fill="none" stroke="#000000" points="8.5,-75.7 8.5,-97.7 131.5,-97.7 131.5,-75.7 8.5,-75.7"/>
<image xlink:href="../../images/foreignKeys.png" width="11px" height="12px" preserveAspectRatio="xMinYMin meet" x="13.5" y="-92.7"/>
<text text-anchor="start" x="28.5" y="-82.8" font-family="Helvetica,sans-Serif" font-size="11.00" fill="#000000">persona_id</text>
<polygon fill="none" stroke="#000000" points="8.5,-56.7 8.5,-75.7 131.5,-75.7 131.5,-56.7 8.5,-56.7"/>
<text text-anchor="start" x="11.5" y="-62.8" font-family="Helvetica,sans-Serif" font-size="11.00" fill="#000000">...</text>
<polygon fill="#ffffff" stroke="transparent" points="8.5,-37.7 8.5,-56.7 50.5,-56.7 50.5,-37.7 8.5,-37.7"/>
<polygon fill="none" stroke="#000000" points="8.5,-37.7 8.5,-56.7 50.5,-56.7 50.5,-37.7 8.5,-37.7"/>
<text text-anchor="start" x="11.5" y="-43.8" font-family="Helvetica,sans-Serif" font-size="11.00" fill="#000000">&lt; 1</text>
<polygon fill="#ffffff" stroke="transparent" points="50.5,-37.7 50.5,-56.7 99.5,-56.7 99.5,-37.7 50.5,-37.7"/>
<polygon fill="none" stroke="#000000" points="50.5,-37.7 50.5,-56.7 99.5,-56.7 99.5,-37.7 50.5,-37.7"/>
<text text-anchor="start" x="64.1105" y="-43.8" font-family="Helvetica,sans-Serif" font-size="11.00" fill="#000000">0 rows</text>
<polygon fill="#ffffff" stroke="transparent" points="99.5,-37.7 99.5,-56.7 131.5,-56.7 131.5,-37.7 99.5,-37.7"/>
<polygon fill="none" stroke="#000000" points="99.5,-37.7 99.5,-56.7 131.5,-56.7 131.5,-37.7 99.5,-37.7"/>
<text text-anchor="start" x="112.9053" y="-43.8" font-family="Helvetica,sans-Serif" font-size="11.00" fill="#000000">1 &gt;</text>
</a>
</g>
</g>
<!-- contactos_organizaciones&#45;&gt;organizaciones -->
<g id="edge2" class="edge">
<title>contactos_organizaciones:w&#45;&gt;organizaciones:e</title>
<path fill="none" stroke="#000000" d="M168.4939,-147.0982C154.6566,-136.0054 155.1259,-108.7 131.5,-108.7"/>
<polygon fill="#000000" stroke="#000000" points="174.8997,-149.2029 181.3763,-155.1201 178.6999,-150.4514 182.5,-151.7 182.5,-151.7 182.5,-151.7 178.6999,-150.4514 183.6237,-148.2799 174.8997,-149.2029 174.8997,-149.2029"/>
<ellipse fill="none" stroke="#000000" cx="171.8596" cy="-148.204" rx="3.2" ry="3.2"/>
</g>
</g>
</svg>
