<?xml version="1.0" encoding="UTF-8" standalone="no"?>
<!DOCTYPE svg PUBLIC "-//W3C//DTD SVG 1.1//EN"
 "http://www.w3.org/Graphics/SVG/1.1/DTD/svg11.dtd">
<!-- Generated by graphviz version 2.40.1 (20161225.0304)
 -->
<!-- Title: twoDegreesRelationshipsDiagramImplied Pages: 1 -->
<svg width="766pt" height="491pt"
 viewBox="0.00 0.00 766.00 490.67" xmlns="http://www.w3.org/2000/svg" xmlns:xlink="http://www.w3.org/1999/xlink">
<g id="graph0" class="graph" transform="scale(1 1) rotate(0) translate(4 486.6661)">
<title>twoDegreesRelationshipsDiagramImplied</title>
<polygon fill="#ffffff" stroke="transparent" points="-4,4 -4,-486.6661 762,-486.6661 762,4 -4,4"/>
<text text-anchor="middle" x="72.4936" y="-7.3" font-family="Helvetica,sans-Serif" font-size="11.00" fill="#000000">Generated by SchemaSpy</text>
<!-- casos -->
<g id="node1" class="node">
<title>casos</title>
<g id="a_node1"><a xlink:href="../../tables/casos.html" xlink:title="casos" target="_top">
<polygon fill="#ffffff" stroke="transparent" points="378.5,-120.2 378.5,-313.2 518.5,-313.2 518.5,-120.2 378.5,-120.2"/>
<polygon fill="#f5f5f5" stroke="transparent" points="378.5,-289.7 378.5,-312.7 518.5,-312.7 518.5,-289.7 378.5,-289.7"/>
<polygon fill="none" stroke="#000000" points="378.5,-289.7 378.5,-312.7 518.5,-312.7 518.5,-289.7 378.5,-289.7"/>
<text text-anchor="start" x="383.5" y="-298.8" font-family="Helvetica,sans-Serif" font-weight="bold" font-size="11.00" fill="#000000">casos</text>
<text text-anchor="start" x="483.5437" y="-297.8" font-family="Helvetica,sans-Serif" font-size="11.00" fill="#000000">[table]</text>
<polygon fill="none" stroke="#000000" points="378.5,-267.7 378.5,-289.7 518.5,-289.7 518.5,-267.7 378.5,-267.7"/>
<image xlink:href="../../images/primaryKeys.png" width="11px" height="12px" preserveAspectRatio="xMinYMin meet" x="383.5" y="-284.7"/>
<text text-anchor="start" x="398.5" y="-274.8" font-family="Helvetica,sans-Serif" font-size="11.00" fill="#000000">caso_id</text>
<polygon fill="none" stroke="#000000" points="378.5,-245.7 378.5,-267.7 518.5,-267.7 518.5,-245.7 378.5,-245.7"/>
<image xlink:href="../../images/foreignKeys.png" width="11px" height="12px" preserveAspectRatio="xMinYMin meet" x="383.5" y="-262.7"/>
<text text-anchor="start" x="398.5" y="-252.8" font-family="Helvetica,sans-Serif" font-size="11.00" fill="#000000">contacto_id</text>
<polygon fill="none" stroke="#000000" points="378.5,-223.7 378.5,-245.7 518.5,-245.7 518.5,-223.7 378.5,-223.7"/>
<image xlink:href="../../images/foreignKeys.png" width="11px" height="12px" preserveAspectRatio="xMinYMin meet" x="383.5" y="-240.7"/>
<text text-anchor="start" x="398.5" y="-230.8" font-family="Helvetica,sans-Serif" font-size="11.00" fill="#000000">usu_insercion_id</text>
<polygon fill="none" stroke="#000000" points="378.5,-201.7 378.5,-223.7 518.5,-223.7 518.5,-201.7 378.5,-201.7"/>
<image xlink:href="../../images/foreignKeys.png" width="11px" height="12px" preserveAspectRatio="xMinYMin meet" x="383.5" y="-218.7"/>
<text text-anchor="start" x="398.5" y="-208.8" font-family="Helvetica,sans-Serif" font-size="11.00" fill="#000000">usu_modificacion_id</text>
<polygon fill="none" stroke="#000000" points="378.5,-179.7 378.5,-201.7 518.5,-201.7 518.5,-179.7 378.5,-179.7"/>
<image xlink:href="../../images/foreignKeys.png" width="11px" height="12px" preserveAspectRatio="xMinYMin meet" x="383.5" y="-196.7"/>
<text text-anchor="start" x="398.5" y="-186.8" font-family="Helvetica,sans-Serif" font-size="11.00" fill="#000000">usu_eliminacion_id</text>
<polygon fill="none" stroke="#000000" points="378.5,-157.7 378.5,-179.7 518.5,-179.7 518.5,-157.7 378.5,-157.7"/>
<image xlink:href="../../images/foreignKeys.png" width="11px" height="12px" preserveAspectRatio="xMinYMin meet" x="383.5" y="-174.7"/>
<text text-anchor="start" x="398.5" y="-164.8" font-family="Helvetica,sans-Serif" font-size="11.00" fill="#000000">usu_asignado_id</text>
<polygon fill="none" stroke="#000000" points="378.5,-138.7 378.5,-157.7 518.5,-157.7 518.5,-138.7 378.5,-138.7"/>
<text text-anchor="start" x="381.5" y="-144.8" font-family="Helvetica,sans-Serif" font-size="11.00" fill="#000000">...</text>
<polygon fill="#ffffff" stroke="transparent" points="378.5,-119.7 378.5,-138.7 433.5,-138.7 433.5,-119.7 378.5,-119.7"/>
<polygon fill="none" stroke="#000000" points="378.5,-119.7 378.5,-138.7 433.5,-138.7 433.5,-119.7 378.5,-119.7"/>
<text text-anchor="start" x="381.5" y="-125.8" font-family="Helvetica,sans-Serif" font-size="11.00" fill="#000000">&lt; 5</text>
<polygon fill="#ffffff" stroke="transparent" points="433.5,-119.7 433.5,-138.7 488.5,-138.7 488.5,-119.7 433.5,-119.7"/>
<polygon fill="none" stroke="#000000" points="433.5,-119.7 433.5,-138.7 488.5,-138.7 488.5,-119.7 433.5,-119.7"/>
<text text-anchor="start" x="453.1105" y="-125.8" font-family="Helvetica,sans-Serif" font-size="11.00" fill="#000000">0 rows</text>
<polygon fill="#ffffff" stroke="transparent" points="488.5,-119.7 488.5,-138.7 518.5,-138.7 518.5,-119.7 488.5,-119.7"/>
<polygon fill="none" stroke="#000000" points="488.5,-119.7 488.5,-138.7 518.5,-138.7 518.5,-119.7 488.5,-119.7"/>
<text text-anchor="start" x="509.3862" y="-125.8" font-family="Helvetica,sans-Serif" font-size="11.00" fill="#000000"> &#160;</text>
</a>
</g>
</g>
<!-- contactos -->
<g id="node2" class="node">
<title>contactos</title>
<g id="a_node2"><a xlink:href="../../tables/contactos.html" xlink:title="contactos" target="_top">
<polygon fill="#ffffff" stroke="transparent" points="180,-344.7 180,-434.7 314,-434.7 314,-344.7 180,-344.7"/>
<polygon fill="#f5f5f5" stroke="transparent" points="182,-409.7 182,-432.7 312,-432.7 312,-409.7 182,-409.7"/>
<polygon fill="none" stroke="#000000" points="182,-409.7 182,-432.7 312,-432.7 312,-409.7 182,-409.7"/>
<text text-anchor="start" x="187" y="-418.8" font-family="Helvetica,sans-Serif" font-weight="bold" font-size="11.00" fill="#000000">contactos</text>
<text text-anchor="start" x="277.0437" y="-417.8" font-family="Helvetica,sans-Serif" font-size="11.00" fill="#000000">[table]</text>
<polygon fill="none" stroke="#000000" points="182,-387.7 182,-409.7 270,-409.7 270,-387.7 182,-387.7"/>
<image xlink:href="../../images/primaryKeys.png" width="11px" height="12px" preserveAspectRatio="xMinYMin meet" x="187" y="-404.7"/>
<text text-anchor="start" x="202" y="-394.8" font-family="Helvetica,sans-Serif" font-size="11.00" fill="#000000">contacto_id</text>
<polygon fill="none" stroke="#000000" points="270,-387.7 270,-409.7 312,-409.7 312,-387.7 270,-387.7"/>
<text text-anchor="start" x="272.9644" y="-395.4" font-family="Helvetica,sans-Serif" font-size="11.00" fill="#000000">int4[10]</text>
<polygon fill="none" stroke="#000000" points="182,-365.7 182,-387.7 270,-387.7 270,-365.7 182,-365.7"/>
<image xlink:href="../../images/foreignKeys.png" width="11px" height="12px" preserveAspectRatio="xMinYMin meet" x="187" y="-382.7"/>
<text text-anchor="start" x="202" y="-372.8" font-family="Helvetica,sans-Serif" font-size="11.00" fill="#000000">persona_id</text>
<polygon fill="none" stroke="#000000" points="270,-365.7 270,-387.7 312,-387.7 312,-365.7 270,-365.7"/>
<text text-anchor="start" x="272.9644" y="-373.4" font-family="Helvetica,sans-Serif" font-size="11.00" fill="#000000">int4[10]</text>
<polygon fill="#ffffff" stroke="transparent" points="182,-346.7 182,-365.7 217,-365.7 217,-346.7 182,-346.7"/>
<polygon fill="none" stroke="#000000" points="182,-346.7 182,-365.7 217,-365.7 217,-346.7 182,-346.7"/>
<text text-anchor="start" x="185" y="-352.8" font-family="Helvetica,sans-Serif" font-size="11.00" fill="#000000">&lt; 1</text>
<polygon fill="#ffffff" stroke="transparent" points="217,-346.7 217,-365.7 270,-365.7 270,-346.7 217,-346.7"/>
<polygon fill="none" stroke="#000000" points="217,-346.7 217,-365.7 270,-365.7 270,-346.7 217,-346.7"/>
<text text-anchor="start" x="234.6105" y="-352.8" font-family="Helvetica,sans-Serif" font-size="11.00" fill="#000000">0 rows</text>
<polygon fill="#ffffff" stroke="transparent" points="270,-346.7 270,-365.7 312,-365.7 312,-346.7 270,-346.7"/>
<polygon fill="none" stroke="#000000" points="270,-346.7 270,-365.7 312,-365.7 312,-346.7 270,-346.7"/>
<text text-anchor="start" x="293.4053" y="-352.8" font-family="Helvetica,sans-Serif" font-size="11.00" fill="#000000">3 &gt;</text>
<polygon fill="none" stroke="#000000" stroke-width="2" points="181,-345.7 181,-433.7 313,-433.7 313,-345.7 181,-345.7"/>
</a>
</g>
</g>
<!-- casos&#45;&gt;contactos -->
<g id="edge1" class="edge">
<title>casos:w&#45;&gt;contactos:e</title>
<path fill="none" stroke="#000000" d="M364.0707,-259.4098C319.8083,-279.0413 375.9722,-398.7 312,-398.7"/>
<polygon fill="#000000" stroke="#000000" points="370.6374,-258.1766 379.1645,-260.2381 374.5687,-257.4383 378.5,-256.7 378.5,-256.7 378.5,-256.7 374.5687,-257.4383 377.8355,-253.1619 370.6374,-258.1766 370.6374,-258.1766"/>
<ellipse fill="none" stroke="#000000" cx="367.4924" cy="-258.7673" rx="3.2" ry="3.2"/>
</g>
<!-- usuarios -->
<g id="node3" class="node">
<title>usuarios</title>
<g id="a_node3"><a xlink:href="../../tables/usuarios.html" xlink:title="usuarios" target="_top">
<polygon fill="#ffffff" stroke="transparent" points="204,-147.2 204,-208.2 290,-208.2 290,-147.2 204,-147.2"/>
<polygon fill="#f5f5f5" stroke="transparent" points="204,-184.7 204,-207.7 290,-207.7 290,-184.7 204,-184.7"/>
<polygon fill="none" stroke="#000000" points="204,-184.7 204,-207.7 290,-207.7 290,-184.7 204,-184.7"/>
<text text-anchor="start" x="209" y="-193.8" font-family="Helvetica,sans-Serif" font-weight="bold" font-size="11.00" fill="#000000">usuarios</text>
<text text-anchor="start" x="255.0437" y="-192.8" font-family="Helvetica,sans-Serif" font-size="11.00" fill="#000000">[table]</text>
<polygon fill="none" stroke="#000000" points="204,-165.7 204,-184.7 290,-184.7 290,-165.7 204,-165.7"/>
<text text-anchor="start" x="207" y="-171.8" font-family="Helvetica,sans-Serif" font-size="11.00" fill="#000000">...</text>
<polygon fill="#ffffff" stroke="transparent" points="204,-146.7 204,-165.7 225,-165.7 225,-146.7 204,-146.7"/>
<polygon fill="none" stroke="#000000" points="204,-146.7 204,-165.7 225,-165.7 225,-146.7 204,-146.7"/>
<text text-anchor="start" x="206.7027" y="-152.8" font-family="Helvetica,sans-Serif" font-size="11.00" fill="#000000">&lt; 4</text>
<polygon fill="#ffffff" stroke="transparent" points="225,-146.7 225,-165.7 263,-165.7 263,-146.7 225,-146.7"/>
<polygon fill="none" stroke="#000000" points="225,-146.7 225,-165.7 263,-165.7 263,-146.7 225,-146.7"/>
<text text-anchor="start" x="227.8053" y="-152.8" font-family="Helvetica,sans-Serif" font-size="11.00" fill="#000000">0 rows</text>
<polygon fill="#ffffff" stroke="transparent" points="263,-146.7 263,-165.7 290,-165.7 290,-146.7 263,-146.7"/>
<polygon fill="none" stroke="#000000" points="263,-146.7 263,-165.7 290,-165.7 290,-146.7 263,-146.7"/>
<text text-anchor="start" x="265.6452" y="-152.8" font-family="Helvetica,sans-Serif" font-size="11.00" fill="#000000">19 &gt;</text>
</a>
</g>
</g>
<!-- casos&#45;&gt;usuarios -->
<g id="edge2" class="edge">
<title>casos:w&#45;&gt;usuarios:e</title>
<path fill="none" stroke="#000000" d="M363.8474,-169.0058C335.8805,-170.2285 324.0337,-174.7 290,-174.7"/>
<polygon fill="#000000" stroke="#000000" points="370.5017,-168.867 378.5751,-172.2992 374.5009,-168.7835 378.5,-168.7 378.5,-168.7 378.5,-168.7 374.5009,-168.7835 378.4249,-165.1008 370.5017,-168.867 370.5017,-168.867"/>
<ellipse fill="none" stroke="#000000" cx="367.3024" cy="-168.9338" rx="3.2" ry="3.2"/>
</g>
<!-- casos&#45;&gt;usuarios -->
<g id="edge3" class="edge">
<title>casos:w&#45;&gt;usuarios:e</title>
<path fill="none" stroke="#000000" d="M364.0892,-189.9283C335.7017,-186.7322 324.6623,-174.7 290,-174.7"/>
<polygon fill="#000000" stroke="#000000" points="370.5114,-190.2722 378.3075,-194.2948 374.5057,-190.4861 378.5,-190.7 378.5,-190.7 378.5,-190.7 374.5057,-190.4861 378.6925,-187.1052 370.5114,-190.2722 370.5114,-190.2722"/>
<ellipse fill="none" stroke="#000000" cx="367.316" cy="-190.101" rx="3.2" ry="3.2"/>
</g>
<!-- casos&#45;&gt;usuarios -->
<g id="edge4" class="edge">
<title>casos:w&#45;&gt;usuarios:e</title>
<path fill="none" stroke="#000000" d="M363.8468,-232.4212C331.77,-221.4615 331.9519,-174.7 290,-174.7"/>
<polygon fill="#000000" stroke="#000000" points="370.595,-233.4706 377.9468,-238.2572 374.5475,-234.0853 378.5,-234.7 378.5,-234.7 378.5,-234.7 374.5475,-234.0853 379.0532,-231.1428 370.595,-233.4706 370.595,-233.4706"/>
<ellipse fill="none" stroke="#000000" cx="367.433" cy="-232.9788" rx="3.2" ry="3.2"/>
</g>
<!-- casos&#45;&gt;usuarios -->
<g id="edge5" class="edge">
<title>casos:w&#45;&gt;usuarios:e</title>
<path fill="none" stroke="#000000" d="M364.163,-211.0672C334.3483,-203.7938 327.4552,-174.7 290,-174.7"/>
<polygon fill="#000000" stroke="#000000" points="370.5514,-211.7947 378.0926,-216.2769 374.5257,-212.2473 378.5,-212.7 378.5,-212.7 378.5,-212.7 374.5257,-212.2473 378.9074,-209.1231 370.5514,-211.7947 370.5514,-211.7947"/>
<ellipse fill="none" stroke="#000000" cx="367.3719" cy="-211.4326" rx="3.2" ry="3.2"/>
</g>
<!-- personas -->
<g id="node4" class="node">
<title>personas</title>
<g id="a_node4"><a xlink:href="../../tables/personas.html" xlink:title="personas" target="_top">
<polygon fill="#ffffff" stroke="transparent" points="8,-178.2 8,-261.2 131,-261.2 131,-178.2 8,-178.2"/>
<polygon fill="#f5f5f5" stroke="transparent" points="8.5,-237.7 8.5,-260.7 131.5,-260.7 131.5,-237.7 8.5,-237.7"/>
<polygon fill="none" stroke="#000000" points="8.5,-237.7 8.5,-260.7 131.5,-260.7 131.5,-237.7 8.5,-237.7"/>
<text text-anchor="start" x="13.5" y="-246.8" font-family="Helvetica,sans-Serif" font-weight="bold" font-size="11.00" fill="#000000">personas</text>
<text text-anchor="start" x="96.5437" y="-245.8" font-family="Helvetica,sans-Serif" font-size="11.00" fill="#000000">[table]</text>
<polygon fill="none" stroke="#000000" points="8.5,-215.7 8.5,-237.7 131.5,-237.7 131.5,-215.7 8.5,-215.7"/>
<image xlink:href="../../images/primaryKeys.png" width="11px" height="12px" preserveAspectRatio="xMinYMin meet" x="13.5" y="-232.7"/>
<text text-anchor="start" x="28.5" y="-222.8" font-family="Helvetica,sans-Serif" font-size="11.00" fill="#000000">persona_id</text>
<polygon fill="none" stroke="#000000" points="8.5,-196.7 8.5,-215.7 131.5,-215.7 131.5,-196.7 8.5,-196.7"/>
<text text-anchor="start" x="11.5" y="-202.8" font-family="Helvetica,sans-Serif" font-size="11.00" fill="#000000">...</text>
<polygon fill="#ffffff" stroke="transparent" points="8.5,-177.7 8.5,-196.7 46.5,-196.7 46.5,-177.7 8.5,-177.7"/>
<polygon fill="none" stroke="#000000" points="8.5,-177.7 8.5,-196.7 46.5,-196.7 46.5,-177.7 8.5,-177.7"/>
<text text-anchor="start" x="11.5" y="-183.8" font-family="Helvetica,sans-Serif" font-size="11.00" fill="#000000"> &#160;</text>
<polygon fill="#ffffff" stroke="transparent" points="46.5,-177.7 46.5,-196.7 97.5,-196.7 97.5,-177.7 46.5,-177.7"/>
<polygon fill="none" stroke="#000000" points="46.5,-177.7 46.5,-196.7 97.5,-196.7 97.5,-177.7 46.5,-177.7"/>
<text text-anchor="start" x="62.1105" y="-183.8" font-family="Helvetica,sans-Serif" font-size="11.00" fill="#000000">0 rows</text>
<polygon fill="#ffffff" stroke="transparent" points="97.5,-177.7 97.5,-196.7 131.5,-196.7 131.5,-177.7 97.5,-177.7"/>
<polygon fill="none" stroke="#000000" points="97.5,-177.7 97.5,-196.7 131.5,-196.7 131.5,-177.7 97.5,-177.7"/>
<text text-anchor="start" x="112.9053" y="-183.8" font-family="Helvetica,sans-Serif" font-size="11.00" fill="#000000">4 &gt;</text>
</a>
</g>
</g>
<!-- contactos&#45;&gt;personas -->
<g id="edge6" class="edge">
<title>contactos:w&#45;&gt;personas:e</title>
<path fill="none" stroke="#000000" d="M167.7524,-373.8375C125.3726,-353.1 196.0731,-226.7 131.5,-226.7"/>
<polygon fill="#000000" stroke="#000000" points="174.1567,-375.1242 181.2909,-380.2295 178.0784,-375.9121 182,-376.7 182,-376.7 182,-376.7 178.0784,-375.9121 182.7091,-373.1705 174.1567,-375.1242 174.1567,-375.1242"/>
<ellipse fill="none" stroke="#000000" cx="171.0194" cy="-374.4938" rx="3.2" ry="3.2"/>
</g>
<!-- usuarios&#45;&gt;personas -->
<g id="edge17" class="edge">
<title>usuarios:w&#45;&gt;personas:e</title>
<path fill="none" stroke="#000000" d="M189.7691,-177.4957C165.3422,-188.2967 165.5772,-226.7 131.5,-226.7"/>
<polygon fill="#000000" stroke="#000000" points="196.15,-176.2422 204.694,-178.2325 200.075,-175.4711 204,-174.7 204,-174.7 204,-174.7 200.075,-175.4711 203.306,-171.1675 196.15,-176.2422 196.15,-176.2422"/>
<ellipse fill="none" stroke="#000000" cx="193.0101" cy="-176.8591" rx="3.2" ry="3.2"/>
</g>
<!-- contactos_oportunidades -->
<g id="node5" class="node">
<title>contactos_oportunidades</title>
<g id="a_node5"><a xlink:href="../../tables/contactos_oportunidades.html" xlink:title="contactos_oportunidades" target="_top">
<polygon fill="#ffffff" stroke="transparent" points="583,-205.2 583,-310.2 750,-310.2 750,-205.2 583,-205.2"/>
<polygon fill="#f5f5f5" stroke="transparent" points="583.5,-286.7 583.5,-309.7 750.5,-309.7 750.5,-286.7 583.5,-286.7"/>
<polygon fill="none" stroke="#000000" points="583.5,-286.7 583.5,-309.7 750.5,-309.7 750.5,-286.7 583.5,-286.7"/>
<text text-anchor="start" x="588.5" y="-295.8" font-family="Helvetica,sans-Serif" font-weight="bold" font-size="11.00" fill="#000000">contactos_oportunidades</text>
<text text-anchor="start" x="715.5437" y="-294.8" font-family="Helvetica,sans-Serif" font-size="11.00" fill="#000000">[table]</text>
<polygon fill="none" stroke="#000000" points="583.5,-264.7 583.5,-286.7 750.5,-286.7 750.5,-264.7 583.5,-264.7"/>
<image xlink:href="../../images/foreignKeys.png" width="11px" height="12px" preserveAspectRatio="xMinYMin meet" x="588.5" y="-281.7"/>
<text text-anchor="start" x="603.5" y="-271.8" font-family="Helvetica,sans-Serif" font-size="11.00" fill="#000000">contacto_id</text>
<polygon fill="none" stroke="#000000" points="583.5,-242.7 583.5,-264.7 750.5,-264.7 750.5,-242.7 583.5,-242.7"/>
<image xlink:href="../../images/foreignKeys.png" width="11px" height="12px" preserveAspectRatio="xMinYMin meet" x="588.5" y="-259.7"/>
<text text-anchor="start" x="603.5" y="-249.8" font-family="Helvetica,sans-Serif" font-size="11.00" fill="#000000">oportunidad_id</text>
<polygon fill="none" stroke="#000000" points="583.5,-223.7 583.5,-242.7 750.5,-242.7 750.5,-223.7 583.5,-223.7"/>
<text text-anchor="start" x="586.5" y="-229.8" font-family="Helvetica,sans-Serif" font-size="11.00" fill="#000000">...</text>
<polygon fill="#ffffff" stroke="transparent" points="583.5,-204.7 583.5,-223.7 652.5,-223.7 652.5,-204.7 583.5,-204.7"/>
<polygon fill="none" stroke="#000000" points="583.5,-204.7 583.5,-223.7 652.5,-223.7 652.5,-204.7 583.5,-204.7"/>
<text text-anchor="start" x="586.5" y="-210.8" font-family="Helvetica,sans-Serif" font-size="11.00" fill="#000000">&lt; 2</text>
<polygon fill="#ffffff" stroke="transparent" points="652.5,-204.7 652.5,-223.7 714.5,-223.7 714.5,-204.7 652.5,-204.7"/>
<polygon fill="none" stroke="#000000" points="652.5,-204.7 652.5,-223.7 714.5,-223.7 714.5,-204.7 652.5,-204.7"/>
<text text-anchor="start" x="679.1105" y="-210.8" font-family="Helvetica,sans-Serif" font-size="11.00" fill="#000000">0 rows</text>
<polygon fill="#ffffff" stroke="transparent" points="714.5,-204.7 714.5,-223.7 750.5,-223.7 750.5,-204.7 714.5,-204.7"/>
<polygon fill="none" stroke="#000000" points="714.5,-204.7 714.5,-223.7 750.5,-223.7 750.5,-204.7 714.5,-204.7"/>
<text text-anchor="start" x="741.3862" y="-210.8" font-family="Helvetica,sans-Serif" font-size="11.00" fill="#000000"> &#160;</text>
</a>
</g>
</g>
<!-- contactos_oportunidades&#45;&gt;contactos -->
<g id="edge7" class="edge">
<title>contactos_oportunidades:w&#45;&gt;contactos:e</title>
<path fill="none" stroke="#000000" stroke-dasharray="5,2" d="M568.9533,-277.5786C517.6584,-293.3339 599.8888,-403.9943 542,-449.7 476.7697,-501.2021 430.3657,-484.7352 355,-449.7 328.1149,-437.2019 341.6481,-398.7 312,-398.7"/>
<polygon fill="#000000" stroke="#000000" points="575.5659,-276.7247 583.9611,-279.2703 579.5329,-276.2124 583.5,-275.7 583.5,-275.7 583.5,-275.7 579.5329,-276.2124 583.0389,-272.1297 575.5659,-276.7247 575.5659,-276.7247"/>
<ellipse fill="none" stroke="#000000" cx="572.3922" cy="-277.1346" rx="3.2" ry="3.2"/>
</g>
<!-- oportunidades -->
<g id="node6" class="node">
<title>oportunidades</title>
<g id="a_node6"><a xlink:href="../../tables/oportunidades.html" xlink:title="oportunidades" target="_top">
<polygon fill="#ffffff" stroke="transparent" points="392.5,-38.2 392.5,-99.2 504.5,-99.2 504.5,-38.2 392.5,-38.2"/>
<polygon fill="#f5f5f5" stroke="transparent" points="392.5,-75.7 392.5,-98.7 504.5,-98.7 504.5,-75.7 392.5,-75.7"/>
<polygon fill="none" stroke="#000000" points="392.5,-75.7 392.5,-98.7 504.5,-98.7 504.5,-75.7 392.5,-75.7"/>
<text text-anchor="start" x="397.1531" y="-84.8" font-family="Helvetica,sans-Serif" font-weight="bold" font-size="11.00" fill="#000000">oportunidades</text>
<text text-anchor="start" x="470.0219" y="-83.8" font-family="Helvetica,sans-Serif" font-size="11.00" fill="#000000">[table]</text>
<polygon fill="none" stroke="#000000" points="392.5,-56.7 392.5,-75.7 504.5,-75.7 504.5,-56.7 392.5,-56.7"/>
<text text-anchor="start" x="395.5" y="-62.8" font-family="Helvetica,sans-Serif" font-size="11.00" fill="#000000">...</text>
<polygon fill="#ffffff" stroke="transparent" points="392.5,-37.7 392.5,-56.7 429.5,-56.7 429.5,-37.7 392.5,-37.7"/>
<polygon fill="none" stroke="#000000" points="392.5,-37.7 392.5,-56.7 429.5,-56.7 429.5,-37.7 392.5,-37.7"/>
<text text-anchor="start" x="395.5" y="-43.8" font-family="Helvetica,sans-Serif" font-size="11.00" fill="#000000">&lt; 5</text>
<polygon fill="#ffffff" stroke="transparent" points="429.5,-37.7 429.5,-56.7 475.5,-56.7 475.5,-37.7 429.5,-37.7"/>
<polygon fill="none" stroke="#000000" points="429.5,-37.7 429.5,-56.7 475.5,-56.7 475.5,-37.7 429.5,-37.7"/>
<text text-anchor="start" x="440.1105" y="-43.8" font-family="Helvetica,sans-Serif" font-size="11.00" fill="#000000">0 rows</text>
<polygon fill="#ffffff" stroke="transparent" points="475.5,-37.7 475.5,-56.7 504.5,-56.7 504.5,-37.7 475.5,-37.7"/>
<polygon fill="none" stroke="#000000" points="475.5,-37.7 475.5,-56.7 504.5,-56.7 504.5,-37.7 475.5,-37.7"/>
<text text-anchor="start" x="485.9053" y="-43.8" font-family="Helvetica,sans-Serif" font-size="11.00" fill="#000000">1 &gt;</text>
</a>
</g>
</g>
<!-- contactos_oportunidades&#45;&gt;oportunidades -->
<g id="edge8" class="edge">
<title>contactos_oportunidades:w&#45;&gt;oportunidades:e</title>
<path fill="none" stroke="#000000" stroke-dasharray="5,2" d="M569.0732,-251.7159C504.5437,-231.6236 589.6454,-65.7 504.5,-65.7"/>
<polygon fill="#000000" stroke="#000000" points="575.5746,-252.61 583.0095,-257.2664 579.5373,-253.155 583.5,-253.7 583.5,-253.7 583.5,-253.7 579.5373,-253.155 583.9905,-250.1336 575.5746,-252.61 575.5746,-252.61"/>
<ellipse fill="none" stroke="#000000" cx="572.4044" cy="-252.174" rx="3.2" ry="3.2"/>
</g>
<!-- oportunidades&#45;&gt;usuarios -->
<g id="edge12" class="edge">
<title>oportunidades:w&#45;&gt;usuarios:e</title>
<path fill="none" stroke="#000000" d="M377.986,-63.4879C330.3516,-63.9772 351.0444,-157.2586 290,-174.7"/>
<polygon fill="#000000" stroke="#000000" points="384.5913,-64.4946 391.9576,-69.2589 388.5457,-65.0973 392.5,-65.7 392.5,-65.7 392.5,-65.7 388.5457,-65.0973 393.0424,-62.1411 384.5913,-64.4946 384.5913,-64.4946"/>
<ellipse fill="none" stroke="#000000" cx="381.4279" cy="-64.0124" rx="3.2" ry="3.2"/>
</g>
<!-- oportunidades&#45;&gt;usuarios -->
<g id="edge13" class="edge">
<title>oportunidades:w&#45;&gt;usuarios:e</title>
<path fill="none" stroke="#000000" d="M377.986,-66.4247C330.3516,-76.8897 351.0444,-169.1922 290,-174.7"/>
<polygon fill="#000000" stroke="#000000" points="384.51,-66.099 392.6795,-69.2955 388.505,-65.8995 392.5,-65.7 392.5,-65.7 392.5,-65.7 388.505,-65.8995 392.3205,-62.1045 384.51,-66.099 384.51,-66.099"/>
<ellipse fill="none" stroke="#000000" cx="381.3139" cy="-66.2586" rx="3.2" ry="3.2"/>
</g>
<!-- oportunidades&#45;&gt;usuarios -->
<g id="edge14" class="edge">
<title>oportunidades:w&#45;&gt;usuarios:e</title>
<path fill="none" stroke="#000000" d="M378.2909,-69.2319C330.2632,-89.4132 351.1743,-181.1395 290,-174.7"/>
<polygon fill="#000000" stroke="#000000" points="384.7363,-67.6299 393.3684,-69.1937 388.6181,-66.6649 392.5,-65.7 392.5,-65.7 392.5,-65.7 388.6181,-66.6649 391.6316,-62.2063 384.7363,-67.6299 384.7363,-67.6299"/>
<ellipse fill="none" stroke="#000000" cx="381.6308" cy="-68.4018" rx="3.2" ry="3.2"/>
</g>
<!-- oportunidades&#45;&gt;usuarios -->
<g id="edge15" class="edge">
<title>oportunidades:w&#45;&gt;usuarios:e</title>
<path fill="none" stroke="#000000" d="M379.2171,-71.5347C329.9934,-101.1691 351.5639,-193.2156 290,-174.7"/>
<polygon fill="#000000" stroke="#000000" points="385.1755,-68.9174 393.9479,-68.996 388.8377,-67.3087 392.5,-65.7 392.5,-65.7 392.5,-65.7 388.8377,-67.3087 391.0521,-62.404 385.1755,-68.9174 385.1755,-68.9174"/>
<ellipse fill="none" stroke="#000000" cx="382.2457" cy="-70.2044" rx="3.2" ry="3.2"/>
</g>
<!-- contactos_organizaciones -->
<g id="node7" class="node">
<title>contactos_organizaciones</title>
<g id="a_node7"><a xlink:href="../../tables/contactos_organizaciones.html" xlink:title="contactos_organizaciones" target="_top">
<polygon fill="#ffffff" stroke="transparent" points="363,-334.2 363,-439.2 534,-439.2 534,-334.2 363,-334.2"/>
<polygon fill="#f5f5f5" stroke="transparent" points="363.5,-415.7 363.5,-438.7 534.5,-438.7 534.5,-415.7 363.5,-415.7"/>
<polygon fill="none" stroke="#000000" points="363.5,-415.7 363.5,-438.7 534.5,-438.7 534.5,-415.7 363.5,-415.7"/>
<text text-anchor="start" x="368.5" y="-424.8" font-family="Helvetica,sans-Serif" font-weight="bold" font-size="11.00" fill="#000000">contactos_organizaciones</text>
<text text-anchor="start" x="500.0219" y="-423.8" font-family="Helvetica,sans-Serif" font-size="11.00" fill="#000000">[table]</text>
<polygon fill="none" stroke="#000000" points="363.5,-393.7 363.5,-415.7 534.5,-415.7 534.5,-393.7 363.5,-393.7"/>
<image xlink:href="../../images/foreignKeys.png" width="11px" height="12px" preserveAspectRatio="xMinYMin meet" x="368.5" y="-410.7"/>
<text text-anchor="start" x="383.5" y="-400.8" font-family="Helvetica,sans-Serif" font-size="11.00" fill="#000000">contacto_id</text>
<polygon fill="none" stroke="#000000" points="363.5,-371.7 363.5,-393.7 534.5,-393.7 534.5,-371.7 363.5,-371.7"/>
<image xlink:href="../../images/foreignKeys.png" width="11px" height="12px" preserveAspectRatio="xMinYMin meet" x="368.5" y="-388.7"/>
<text text-anchor="start" x="383.5" y="-378.8" font-family="Helvetica,sans-Serif" font-size="11.00" fill="#000000">organizacion_id</text>
<polygon fill="none" stroke="#000000" points="363.5,-352.7 363.5,-371.7 534.5,-371.7 534.5,-352.7 363.5,-352.7"/>
<text text-anchor="start" x="366.5" y="-358.8" font-family="Helvetica,sans-Serif" font-size="11.00" fill="#000000">...</text>
<polygon fill="#ffffff" stroke="transparent" points="363.5,-333.7 363.5,-352.7 434.5,-352.7 434.5,-333.7 363.5,-333.7"/>
<polygon fill="none" stroke="#000000" points="363.5,-333.7 363.5,-352.7 434.5,-352.7 434.5,-333.7 363.5,-333.7"/>
<text text-anchor="start" x="366.5" y="-339.8" font-family="Helvetica,sans-Serif" font-size="11.00" fill="#000000">&lt; 2</text>
<polygon fill="#ffffff" stroke="transparent" points="434.5,-333.7 434.5,-352.7 497.5,-352.7 497.5,-333.7 434.5,-333.7"/>
<polygon fill="none" stroke="#000000" points="434.5,-333.7 434.5,-352.7 497.5,-352.7 497.5,-333.7 434.5,-333.7"/>
<text text-anchor="start" x="462.1105" y="-339.8" font-family="Helvetica,sans-Serif" font-size="11.00" fill="#000000">0 rows</text>
<polygon fill="#ffffff" stroke="transparent" points="497.5,-333.7 497.5,-352.7 534.5,-352.7 534.5,-333.7 497.5,-333.7"/>
<polygon fill="none" stroke="#000000" points="497.5,-333.7 497.5,-352.7 534.5,-352.7 534.5,-333.7 497.5,-333.7"/>
<text text-anchor="start" x="525.3862" y="-339.8" font-family="Helvetica,sans-Serif" font-size="11.00" fill="#000000"> &#160;</text>
</a>
</g>
</g>
<!-- contactos_organizaciones&#45;&gt;contactos -->
<g id="edge9" class="edge">
<title>contactos_organizaciones:w&#45;&gt;contactos:e</title>
<path fill="none" stroke="#000000" d="M348.9721,-403.7625C336.6481,-402.075 329.2828,-398.7 312,-398.7"/>
<polygon fill="#000000" stroke="#000000" points="355.5166,-404.1848 363.2681,-408.2925 359.5083,-404.4424 363.5,-404.7 363.5,-404.7 363.5,-404.7 359.5083,-404.4424 363.7319,-401.1075 355.5166,-404.1848 355.5166,-404.1848"/>
<ellipse fill="none" stroke="#000000" cx="352.3232" cy="-403.9787" rx="3.2" ry="3.2"/>
</g>
<!-- organizaciones -->
<g id="node8" class="node">
<title>organizaciones</title>
<g id="a_node8"><a xlink:href="../../tables/organizaciones.html" xlink:title="organizaciones" target="_top">
<polygon fill="#ffffff" stroke="transparent" points="189,-251.2 189,-312.2 305,-312.2 305,-251.2 189,-251.2"/>
<polygon fill="#f5f5f5" stroke="transparent" points="189,-288.7 189,-311.7 305,-311.7 305,-288.7 189,-288.7"/>
<polygon fill="none" stroke="#000000" points="189,-288.7 189,-311.7 305,-311.7 305,-288.7 189,-288.7"/>
<text text-anchor="start" x="193.5186" y="-297.8" font-family="Helvetica,sans-Serif" font-weight="bold" font-size="11.00" fill="#000000">organizaciones</text>
<text text-anchor="start" x="270.5219" y="-296.8" font-family="Helvetica,sans-Serif" font-size="11.00" fill="#000000">[table]</text>
<polygon fill="none" stroke="#000000" points="189,-269.7 189,-288.7 305,-288.7 305,-269.7 189,-269.7"/>
<text text-anchor="start" x="192" y="-275.8" font-family="Helvetica,sans-Serif" font-size="11.00" fill="#000000">...</text>
<polygon fill="#ffffff" stroke="transparent" points="189,-250.7 189,-269.7 228,-269.7 228,-250.7 189,-250.7"/>
<polygon fill="none" stroke="#000000" points="189,-250.7 189,-269.7 228,-269.7 228,-250.7 189,-250.7"/>
<text text-anchor="start" x="192" y="-256.8" font-family="Helvetica,sans-Serif" font-size="11.00" fill="#000000">&lt; 1</text>
<polygon fill="#ffffff" stroke="transparent" points="228,-250.7 228,-269.7 275,-269.7 275,-250.7 228,-250.7"/>
<polygon fill="none" stroke="#000000" points="228,-250.7 228,-269.7 275,-269.7 275,-250.7 228,-250.7"/>
<text text-anchor="start" x="239.6105" y="-256.8" font-family="Helvetica,sans-Serif" font-size="11.00" fill="#000000">0 rows</text>
<polygon fill="#ffffff" stroke="transparent" points="275,-250.7 275,-269.7 305,-269.7 305,-250.7 275,-250.7"/>
<polygon fill="none" stroke="#000000" points="275,-250.7 275,-269.7 305,-269.7 305,-250.7 275,-250.7"/>
<text text-anchor="start" x="286.4053" y="-256.8" font-family="Helvetica,sans-Serif" font-size="11.00" fill="#000000">1 &gt;</text>
</a>
</g>
</g>
<!-- contactos_organizaciones&#45;&gt;organizaciones -->
<g id="edge10" class="edge">
<title>contactos_organizaciones:w&#45;&gt;organizaciones:e</title>
<path fill="none" stroke="#000000" d="M349.4457,-379.2397C319.6686,-361.1941 352.2325,-278.7 305,-278.7"/>
<polygon fill="#000000" stroke="#000000" points="355.732,-380.7874 362.6393,-386.1956 359.616,-381.7437 363.5,-382.7 363.5,-382.7 363.5,-382.7 359.616,-381.7437 364.3607,-379.2044 355.732,-380.7874 355.732,-380.7874"/>
<ellipse fill="none" stroke="#000000" cx="352.6248" cy="-380.0224" rx="3.2" ry="3.2"/>
</g>
<!-- organizaciones&#45;&gt;personas -->
<g id="edge16" class="edge">
<title>organizaciones:w&#45;&gt;personas:e</title>
<path fill="none" stroke="#000000" d="M175.085,-274.7915C157.0837,-262.6984 160.1684,-226.7 131.5,-226.7"/>
<polygon fill="#000000" stroke="#000000" points="181.298,-276.5366 188.0265,-282.1659 185.149,-277.6183 189,-278.7 189,-278.7 189,-278.7 185.149,-277.6183 189.9735,-275.2341 181.298,-276.5366 181.298,-276.5366"/>
<ellipse fill="none" stroke="#000000" cx="178.2173" cy="-275.6713" rx="3.2" ry="3.2"/>
</g>
<!-- leads -->
<g id="node9" class="node">
<title>leads</title>
<g id="a_node9"><a xlink:href="../../tables/leads.html" xlink:title="leads" target="_top">
<polygon fill="#ffffff" stroke="transparent" points="211.5,-65.2 211.5,-126.2 282.5,-126.2 282.5,-65.2 211.5,-65.2"/>
<polygon fill="#f5f5f5" stroke="transparent" points="212,-102.7 212,-125.7 283,-125.7 283,-102.7 212,-102.7"/>
<polygon fill="none" stroke="#000000" points="212,-102.7 212,-125.7 283,-125.7 283,-102.7 212,-102.7"/>
<text text-anchor="start" x="217" y="-111.8" font-family="Helvetica,sans-Serif" font-weight="bold" font-size="11.00" fill="#000000">leads</text>
<text text-anchor="start" x="248.0437" y="-110.8" font-family="Helvetica,sans-Serif" font-size="11.00" fill="#000000">[table]</text>
<polygon fill="none" stroke="#000000" points="212,-83.7 212,-102.7 283,-102.7 283,-83.7 212,-83.7"/>
<text text-anchor="start" x="215" y="-89.8" font-family="Helvetica,sans-Serif" font-size="11.00" fill="#000000">...</text>
<polygon fill="#ffffff" stroke="transparent" points="212,-64.7 212,-83.7 233,-83.7 233,-64.7 212,-64.7"/>
<polygon fill="none" stroke="#000000" points="212,-64.7 212,-83.7 233,-83.7 233,-64.7 212,-64.7"/>
<text text-anchor="start" x="214.7027" y="-70.8" font-family="Helvetica,sans-Serif" font-size="11.00" fill="#000000">&lt; 1</text>
<polygon fill="#ffffff" stroke="transparent" points="233,-64.7 233,-83.7 271,-83.7 271,-64.7 233,-64.7"/>
<polygon fill="none" stroke="#000000" points="233,-64.7 233,-83.7 271,-83.7 271,-64.7 233,-64.7"/>
<text text-anchor="start" x="235.8053" y="-70.8" font-family="Helvetica,sans-Serif" font-size="11.00" fill="#000000">0 rows</text>
<polygon fill="#ffffff" stroke="transparent" points="271,-64.7 271,-83.7 283,-83.7 283,-64.7 271,-64.7"/>
<polygon fill="none" stroke="#000000" points="271,-64.7 271,-83.7 283,-83.7 283,-64.7 271,-64.7"/>
<text text-anchor="start" x="273.9431" y="-70.8" font-family="Helvetica,sans-Serif" font-size="11.00" fill="#000000"> &#160;</text>
</a>
</g>
</g>
<!-- leads&#45;&gt;personas -->
<g id="edge11" class="edge">
<title>leads:w&#45;&gt;personas:e</title>
<path fill="none" stroke="#000000" d="M197.7509,-95.8199C185.197,-102.6331 183.2078,-119.6057 172,-136.7 147.9495,-173.3821 175.3634,-226.7 131.5,-226.7"/>
<polygon fill="#000000" stroke="#000000" points="204.1851,-94.4111 212.77,-96.2167 208.0926,-93.5556 212,-92.7 212,-92.7 212,-92.7 208.0926,-93.5556 211.23,-89.1833 204.1851,-94.4111 204.1851,-94.4111"/>
<ellipse fill="none" stroke="#000000" cx="201.0592" cy="-95.0956" rx="3.2" ry="3.2"/>
</g>
</g>
</svg>
