<?xml version="1.0" encoding="UTF-8" standalone="no"?>
<!DOCTYPE svg PUBLIC "-//W3C//DTD SVG 1.1//EN"
 "http://www.w3.org/Graphics/SVG/1.1/DTD/svg11.dtd">
<!-- Generated by graphviz version 2.40.1 (20161225.0304)
 -->
<!-- Title: oneDegreeRelationshipsDiagram Pages: 1 -->
<svg width="468pt" height="351pt"
 viewBox="0.00 0.00 468.00 350.70" xmlns="http://www.w3.org/2000/svg" xmlns:xlink="http://www.w3.org/1999/xlink">
<g id="graph0" class="graph" transform="scale(1 1) rotate(0) translate(4 346.7)">
<title>oneDegreeRelationshipsDiagram</title>
<polygon fill="#ffffff" stroke="transparent" points="-4,4 -4,-346.7 464,-346.7 464,4 -4,4"/>
<text text-anchor="middle" x="72.4936" y="-7.3" font-family="Helvetica,sans-Serif" font-size="11.00" fill="#000000">Generated by SchemaSpy</text>
<!-- contactos_oportunidades -->
<g id="node1" class="node">
<title>contactos_oportunidades</title>
<g id="a_node1"><a xlink:href="../../tables/contactos_oportunidades.html" xlink:title="contactos_oportunidades" target="_top">
<polygon fill="#ffffff" stroke="transparent" points="197,-141.7 197,-297.7 452,-297.7 452,-141.7 197,-141.7"/>
<polygon fill="#f5f5f5" stroke="transparent" points="199.5,-272.7 199.5,-295.7 450.5,-295.7 450.5,-272.7 199.5,-272.7"/>
<polygon fill="none" stroke="#000000" points="199.5,-272.7 199.5,-295.7 450.5,-295.7 450.5,-272.7 199.5,-272.7"/>
<text text-anchor="start" x="204.5" y="-281.8" font-family="Helvetica,sans-Serif" font-weight="bold" font-size="11.00" fill="#000000">contactos_oportunidades</text>
<text text-anchor="start" x="415.5437" y="-280.8" font-family="Helvetica,sans-Serif" font-size="11.00" fill="#000000">[table]</text>
<polygon fill="none" stroke="#000000" points="199.5,-250.7 199.5,-272.7 366.5,-272.7 366.5,-250.7 199.5,-250.7"/>
<image xlink:href="../../images/foreignKeys.png" width="11px" height="12px" preserveAspectRatio="xMinYMin meet" x="204.5" y="-267.7"/>
<text text-anchor="start" x="219.5" y="-257.8" font-family="Helvetica,sans-Serif" font-size="11.00" fill="#000000">contacto_id</text>
<polygon fill="none" stroke="#000000" points="366.5,-250.7 366.5,-272.7 450.5,-272.7 450.5,-250.7 366.5,-250.7"/>
<text text-anchor="start" x="369.5" y="-258.4" font-family="Helvetica,sans-Serif" font-size="11.00" fill="#000000">int4[10]</text>
<polygon fill="none" stroke="#000000" points="199.5,-228.7 199.5,-250.7 366.5,-250.7 366.5,-228.7 199.5,-228.7"/>
<image xlink:href="../../images/foreignKeys.png" width="11px" height="12px" preserveAspectRatio="xMinYMin meet" x="204.5" y="-245.7"/>
<text text-anchor="start" x="219.5" y="-235.8" font-family="Helvetica,sans-Serif" font-size="11.00" fill="#000000">oportunidad_id</text>
<polygon fill="none" stroke="#000000" points="366.5,-228.7 366.5,-250.7 450.5,-250.7 450.5,-228.7 366.5,-228.7"/>
<text text-anchor="start" x="369.5" y="-236.4" font-family="Helvetica,sans-Serif" font-size="11.00" fill="#000000">int4[10]</text>
<polygon fill="none" stroke="#000000" points="199.5,-206.7 199.5,-228.7 366.5,-228.7 366.5,-206.7 199.5,-206.7"/>
<text text-anchor="start" x="219.5" y="-213.8" font-family="Helvetica,sans-Serif" font-size="11.00" fill="#000000">fec_insercion</text>
<polygon fill="none" stroke="#000000" points="366.5,-206.7 366.5,-228.7 450.5,-228.7 450.5,-206.7 366.5,-206.7"/>
<text text-anchor="start" x="369.3807" y="-214.4" font-family="Helvetica,sans-Serif" font-size="11.00" fill="#000000">timestamp[29,6]</text>
<polygon fill="none" stroke="#000000" points="199.5,-184.7 199.5,-206.7 366.5,-206.7 366.5,-184.7 199.5,-184.7"/>
<text text-anchor="start" x="219.5" y="-191.8" font-family="Helvetica,sans-Serif" font-size="11.00" fill="#000000">fec_modificacion</text>
<polygon fill="none" stroke="#000000" points="366.5,-184.7 366.5,-206.7 450.5,-206.7 450.5,-184.7 366.5,-184.7"/>
<text text-anchor="start" x="369.3807" y="-192.4" font-family="Helvetica,sans-Serif" font-size="11.00" fill="#000000">timestamp[29,6]</text>
<polygon fill="none" stroke="#000000" points="199.5,-162.7 199.5,-184.7 366.5,-184.7 366.5,-162.7 199.5,-162.7"/>
<text text-anchor="start" x="219.5" y="-169.8" font-family="Helvetica,sans-Serif" font-size="11.00" fill="#000000">fec_eliminacion</text>
<polygon fill="none" stroke="#000000" points="366.5,-162.7 366.5,-184.7 450.5,-184.7 450.5,-162.7 366.5,-162.7"/>
<text text-anchor="start" x="369.3807" y="-170.4" font-family="Helvetica,sans-Serif" font-size="11.00" fill="#000000">timestamp[29,6]</text>
<polygon fill="#ffffff" stroke="transparent" points="199.5,-143.7 199.5,-162.7 274.5,-162.7 274.5,-143.7 199.5,-143.7"/>
<polygon fill="none" stroke="#000000" points="199.5,-143.7 199.5,-162.7 274.5,-162.7 274.5,-143.7 199.5,-143.7"/>
<text text-anchor="start" x="202.5" y="-149.8" font-family="Helvetica,sans-Serif" font-size="11.00" fill="#000000">&lt; 2</text>
<polygon fill="#ffffff" stroke="transparent" points="274.5,-143.7 274.5,-162.7 366.5,-162.7 366.5,-143.7 274.5,-143.7"/>
<polygon fill="none" stroke="#000000" points="274.5,-143.7 274.5,-162.7 366.5,-162.7 366.5,-143.7 274.5,-143.7"/>
<text text-anchor="start" x="331.1105" y="-149.8" font-family="Helvetica,sans-Serif" font-size="11.00" fill="#000000">0 rows</text>
<polygon fill="#ffffff" stroke="transparent" points="366.5,-143.7 366.5,-162.7 450.5,-162.7 450.5,-143.7 366.5,-143.7"/>
<polygon fill="none" stroke="#000000" points="366.5,-143.7 366.5,-162.7 450.5,-162.7 450.5,-143.7 366.5,-143.7"/>
<text text-anchor="start" x="431.9053" y="-149.8" font-family="Helvetica,sans-Serif" font-size="11.00" fill="#000000">0 &gt;</text>
<polygon fill="none" stroke="#000000" stroke-width="2" points="198,-142.7 198,-296.7 451,-296.7 451,-142.7 198,-142.7"/>
</a>
</g>
</g>
<!-- contactos -->
<g id="node2" class="node">
<title>contactos</title>
<g id="a_node2"><a xlink:href="../../tables/contactos.html" xlink:title="contactos" target="_top">
<polygon fill="#ffffff" stroke="transparent" points="33,-252.7 33,-338.7 123,-338.7 123,-252.7 33,-252.7"/>
<polygon fill="#f5f5f5" stroke="transparent" points="33,-315.7 33,-338.7 123,-338.7 123,-315.7 33,-315.7"/>
<polygon fill="none" stroke="#000000" points="33,-315.7 33,-338.7 123,-338.7 123,-315.7 33,-315.7"/>
<text text-anchor="start" x="37.9633" y="-324.8" font-family="Helvetica,sans-Serif" font-weight="bold" font-size="11.00" fill="#000000">contactos</text>
<text text-anchor="start" x="88.5219" y="-323.8" font-family="Helvetica,sans-Serif" font-size="11.00" fill="#000000">[table]</text>
<polygon fill="none" stroke="#000000" points="33,-293.7 33,-315.7 123,-315.7 123,-293.7 33,-293.7"/>
<image xlink:href="../../images/primaryKeys.png" width="11px" height="12px" preserveAspectRatio="xMinYMin meet" x="38" y="-310.7"/>
<text text-anchor="start" x="54" y="-300.8" font-family="Helvetica,sans-Serif" font-size="11.00" fill="#000000">contacto_id</text>
<polygon fill="none" stroke="#000000" points="33,-271.7 33,-293.7 123,-293.7 123,-271.7 33,-271.7"/>
<image xlink:href="../../images/foreignKeys.png" width="11px" height="12px" preserveAspectRatio="xMinYMin meet" x="38" y="-288.7"/>
<text text-anchor="start" x="54" y="-278.8" font-family="Helvetica,sans-Serif" font-size="11.00" fill="#000000">persona_id</text>
<polygon fill="#ffffff" stroke="transparent" points="33,-252.7 33,-271.7 59,-271.7 59,-252.7 33,-252.7"/>
<polygon fill="none" stroke="#000000" points="33,-252.7 33,-271.7 59,-271.7 59,-252.7 33,-252.7"/>
<text text-anchor="start" x="36" y="-258.8" font-family="Helvetica,sans-Serif" font-size="11.00" fill="#000000">&lt; 1</text>
<polygon fill="#ffffff" stroke="transparent" points="59,-252.7 59,-271.7 99,-271.7 99,-252.7 59,-252.7"/>
<polygon fill="none" stroke="#000000" points="59,-252.7 59,-271.7 99,-271.7 99,-252.7 59,-252.7"/>
<text text-anchor="start" x="63.6105" y="-258.8" font-family="Helvetica,sans-Serif" font-size="11.00" fill="#000000">0 rows</text>
<polygon fill="#ffffff" stroke="transparent" points="99,-252.7 99,-271.7 123,-271.7 123,-252.7 99,-252.7"/>
<polygon fill="none" stroke="#000000" points="99,-252.7 99,-271.7 123,-271.7 123,-252.7 99,-252.7"/>
<text text-anchor="start" x="104.4053" y="-258.8" font-family="Helvetica,sans-Serif" font-size="11.00" fill="#000000">3 &gt;</text>
</a>
</g>
</g>
<!-- contactos_oportunidades&#45;&gt;contactos -->
<g id="edge1" class="edge">
<title>contactos_oportunidades:w&#45;&gt;contactos:e</title>
<path fill="none" stroke="#000000" d="M185.2235,-264.0119C160.1195,-272.9434 156.5182,-304.7 123,-304.7"/>
<polygon fill="#000000" stroke="#000000" points="191.6029,-262.9789 200.0755,-265.2537 195.5514,-262.3394 199.5,-261.7 199.5,-261.7 199.5,-261.7 195.5514,-262.3394 198.9245,-258.1463 191.6029,-262.9789 191.6029,-262.9789"/>
<ellipse fill="none" stroke="#000000" cx="188.444" cy="-263.4904" rx="3.2" ry="3.2"/>
</g>
<!-- oportunidades -->
<g id="node3" class="node">
<title>oportunidades</title>
<g id="a_node3"><a xlink:href="../../tables/oportunidades.html" xlink:title="oportunidades" target="_top">
<polygon fill="#ffffff" stroke="transparent" points="8,-38.2 8,-231.2 148,-231.2 148,-38.2 8,-38.2"/>
<polygon fill="#f5f5f5" stroke="transparent" points="8,-207.7 8,-230.7 148,-230.7 148,-207.7 8,-207.7"/>
<polygon fill="none" stroke="#000000" points="8,-207.7 8,-230.7 148,-230.7 148,-207.7 8,-207.7"/>
<text text-anchor="start" x="13" y="-216.8" font-family="Helvetica,sans-Serif" font-weight="bold" font-size="11.00" fill="#000000">oportunidades</text>
<text text-anchor="start" x="113.0437" y="-215.8" font-family="Helvetica,sans-Serif" font-size="11.00" fill="#000000">[table]</text>
<polygon fill="none" stroke="#000000" points="8,-185.7 8,-207.7 148,-207.7 148,-185.7 8,-185.7"/>
<image xlink:href="../../images/primaryKeys.png" width="11px" height="12px" preserveAspectRatio="xMinYMin meet" x="13" y="-202.7"/>
<text text-anchor="start" x="28" y="-192.8" font-family="Helvetica,sans-Serif" font-size="11.00" fill="#000000">oportunidad_id</text>
<polygon fill="none" stroke="#000000" points="8,-163.7 8,-185.7 148,-185.7 148,-163.7 8,-163.7"/>
<image xlink:href="../../images/foreignKeys.png" width="11px" height="12px" preserveAspectRatio="xMinYMin meet" x="13" y="-180.7"/>
<text text-anchor="start" x="28" y="-170.8" font-family="Helvetica,sans-Serif" font-size="11.00" fill="#000000">campana_id</text>
<polygon fill="none" stroke="#000000" points="8,-141.7 8,-163.7 148,-163.7 148,-141.7 8,-141.7"/>
<image xlink:href="../../images/foreignKeys.png" width="11px" height="12px" preserveAspectRatio="xMinYMin meet" x="13" y="-158.7"/>
<text text-anchor="start" x="28" y="-148.8" font-family="Helvetica,sans-Serif" font-size="11.00" fill="#000000">usu_asignado_id</text>
<polygon fill="none" stroke="#000000" points="8,-119.7 8,-141.7 148,-141.7 148,-119.7 8,-119.7"/>
<image xlink:href="../../images/foreignKeys.png" width="11px" height="12px" preserveAspectRatio="xMinYMin meet" x="13" y="-136.7"/>
<text text-anchor="start" x="28" y="-126.8" font-family="Helvetica,sans-Serif" font-size="11.00" fill="#000000">usu_insercion_id</text>
<polygon fill="none" stroke="#000000" points="8,-97.7 8,-119.7 148,-119.7 148,-97.7 8,-97.7"/>
<image xlink:href="../../images/foreignKeys.png" width="11px" height="12px" preserveAspectRatio="xMinYMin meet" x="13" y="-114.7"/>
<text text-anchor="start" x="28" y="-104.8" font-family="Helvetica,sans-Serif" font-size="11.00" fill="#000000">usu_modificacion_id</text>
<polygon fill="none" stroke="#000000" points="8,-75.7 8,-97.7 148,-97.7 148,-75.7 8,-75.7"/>
<image xlink:href="../../images/foreignKeys.png" width="11px" height="12px" preserveAspectRatio="xMinYMin meet" x="13" y="-92.7"/>
<text text-anchor="start" x="28" y="-82.8" font-family="Helvetica,sans-Serif" font-size="11.00" fill="#000000">usu_eliminacion_id</text>
<polygon fill="none" stroke="#000000" points="8,-56.7 8,-75.7 148,-75.7 148,-56.7 8,-56.7"/>
<text text-anchor="start" x="11" y="-62.8" font-family="Helvetica,sans-Serif" font-size="11.00" fill="#000000">...</text>
<polygon fill="#ffffff" stroke="transparent" points="8,-37.7 8,-56.7 59,-56.7 59,-37.7 8,-37.7"/>
<polygon fill="none" stroke="#000000" points="8,-37.7 8,-56.7 59,-56.7 59,-37.7 8,-37.7"/>
<text text-anchor="start" x="11" y="-43.8" font-family="Helvetica,sans-Serif" font-size="11.00" fill="#000000">&lt; 5</text>
<polygon fill="#ffffff" stroke="transparent" points="59,-37.7 59,-56.7 112,-56.7 112,-37.7 59,-37.7"/>
<polygon fill="none" stroke="#000000" points="59,-37.7 59,-56.7 112,-56.7 112,-37.7 59,-37.7"/>
<text text-anchor="start" x="76.6105" y="-43.8" font-family="Helvetica,sans-Serif" font-size="11.00" fill="#000000">0 rows</text>
<polygon fill="#ffffff" stroke="transparent" points="112,-37.7 112,-56.7 148,-56.7 148,-37.7 112,-37.7"/>
<polygon fill="none" stroke="#000000" points="112,-37.7 112,-56.7 148,-56.7 148,-37.7 112,-37.7"/>
<text text-anchor="start" x="129.4053" y="-43.8" font-family="Helvetica,sans-Serif" font-size="11.00" fill="#000000">1 &gt;</text>
</a>
</g>
</g>
<!-- contactos_oportunidades&#45;&gt;oportunidades -->
<g id="edge2" class="edge">
<title>contactos_oportunidades:w&#45;&gt;oportunidades:e</title>
<path fill="none" stroke="#000000" d="M185.3913,-235.0982C171.4212,-224.0054 171.7615,-196.7 148,-196.7"/>
<polygon fill="#000000" stroke="#000000" points="191.8943,-237.2193 198.3837,-243.1226 195.6972,-238.4596 199.5,-239.7 199.5,-239.7 199.5,-239.7 195.6972,-238.4596 200.6163,-236.2774 191.8943,-237.2193 191.8943,-237.2193"/>
<ellipse fill="none" stroke="#000000" cx="188.8521" cy="-236.227" rx="3.2" ry="3.2"/>
</g>
</g>
</svg>
