<?xml version="1.0" encoding="UTF-8" standalone="no"?>
<!DOCTYPE svg PUBLIC "-//W3C//DTD SVG 1.1//EN"
 "http://www.w3.org/Graphics/SVG/1.1/DTD/svg11.dtd">
<!-- Generated by graphviz version 2.40.1 (20161225.0304)
 -->
<!-- Title: oneDegreeRelationshipsDiagram Pages: 1 -->
<svg width="415pt" height="539pt"
 viewBox="0.00 0.00 415.00 539.20" xmlns="http://www.w3.org/2000/svg" xmlns:xlink="http://www.w3.org/1999/xlink">
<g id="graph0" class="graph" transform="scale(1 1) rotate(0) translate(4 535.2)">
<title>oneDegreeRelationshipsDiagram</title>
<polygon fill="#ffffff" stroke="transparent" points="-4,4 -4,-535.2 411,-535.2 411,4 -4,4"/>
<text text-anchor="middle" x="72.4936" y="-7.3" font-family="Helvetica,sans-Serif" font-size="11.00" fill="#000000">Generated by SchemaSpy</text>
<!-- curso_ciclos -->
<g id="node1" class="node">
<title>curso_ciclos</title>
<g id="a_node1"><a xlink:href="../../tables/curso_ciclos.html" xlink:title="curso_ciclos" target="_top">
<polygon fill="#ffffff" stroke="transparent" points="276,-422.2 276,-527.2 399,-527.2 399,-422.2 276,-422.2"/>
<polygon fill="#f5f5f5" stroke="transparent" points="276.5,-503.7 276.5,-526.7 399.5,-526.7 399.5,-503.7 276.5,-503.7"/>
<polygon fill="none" stroke="#000000" points="276.5,-503.7 276.5,-526.7 399.5,-526.7 399.5,-503.7 276.5,-503.7"/>
<text text-anchor="start" x="281.5" y="-512.8" font-family="Helvetica,sans-Serif" font-weight="bold" font-size="11.00" fill="#000000">curso_ciclos</text>
<text text-anchor="start" x="364.5437" y="-511.8" font-family="Helvetica,sans-Serif" font-size="11.00" fill="#000000">[table]</text>
<polygon fill="none" stroke="#000000" points="276.5,-481.7 276.5,-503.7 399.5,-503.7 399.5,-481.7 276.5,-481.7"/>
<image xlink:href="../../images/primaryKeys.png" width="11px" height="12px" preserveAspectRatio="xMinYMin meet" x="281.5" y="-498.7"/>
<text text-anchor="start" x="296.5" y="-488.8" font-family="Helvetica,sans-Serif" font-size="11.00" fill="#000000">ciclo_id</text>
<polygon fill="none" stroke="#000000" points="276.5,-459.7 276.5,-481.7 399.5,-481.7 399.5,-459.7 276.5,-459.7"/>
<image xlink:href="../../images/foreignKeys.png" width="11px" height="12px" preserveAspectRatio="xMinYMin meet" x="281.5" y="-476.7"/>
<text text-anchor="start" x="296.5" y="-466.8" font-family="Helvetica,sans-Serif" font-size="11.00" fill="#000000">curso_id</text>
<polygon fill="none" stroke="#000000" points="276.5,-440.7 276.5,-459.7 399.5,-459.7 399.5,-440.7 276.5,-440.7"/>
<text text-anchor="start" x="279.5" y="-446.8" font-family="Helvetica,sans-Serif" font-size="11.00" fill="#000000">...</text>
<polygon fill="#ffffff" stroke="transparent" points="276.5,-421.7 276.5,-440.7 318.5,-440.7 318.5,-421.7 276.5,-421.7"/>
<polygon fill="none" stroke="#000000" points="276.5,-421.7 276.5,-440.7 318.5,-440.7 318.5,-421.7 276.5,-421.7"/>
<text text-anchor="start" x="279.5" y="-427.8" font-family="Helvetica,sans-Serif" font-size="11.00" fill="#000000">&lt; 1</text>
<polygon fill="#ffffff" stroke="transparent" points="318.5,-421.7 318.5,-440.7 367.5,-440.7 367.5,-421.7 318.5,-421.7"/>
<polygon fill="none" stroke="#000000" points="318.5,-421.7 318.5,-440.7 367.5,-440.7 367.5,-421.7 318.5,-421.7"/>
<text text-anchor="start" x="332.1105" y="-427.8" font-family="Helvetica,sans-Serif" font-size="11.00" fill="#000000">0 rows</text>
<polygon fill="#ffffff" stroke="transparent" points="367.5,-421.7 367.5,-440.7 399.5,-440.7 399.5,-421.7 367.5,-421.7"/>
<polygon fill="none" stroke="#000000" points="367.5,-421.7 367.5,-440.7 399.5,-440.7 399.5,-421.7 367.5,-421.7"/>
<text text-anchor="start" x="380.9053" y="-427.8" font-family="Helvetica,sans-Serif" font-size="11.00" fill="#000000">1 &gt;</text>
</a>
</g>
</g>
<!-- cursos -->
<g id="node2" class="node">
<title>cursos</title>
<g id="a_node2"><a xlink:href="../../tables/cursos.html" xlink:title="cursos" target="_top">
<polygon fill="#ffffff" stroke="transparent" points="8,-114.7 8,-314.7 227,-314.7 227,-114.7 8,-114.7"/>
<polygon fill="#f5f5f5" stroke="transparent" points="10.5,-289.7 10.5,-312.7 225.5,-312.7 225.5,-289.7 10.5,-289.7"/>
<polygon fill="none" stroke="#000000" points="10.5,-289.7 10.5,-312.7 225.5,-312.7 225.5,-289.7 10.5,-289.7"/>
<text text-anchor="start" x="15.5" y="-298.8" font-family="Helvetica,sans-Serif" font-weight="bold" font-size="11.00" fill="#000000">cursos</text>
<text text-anchor="start" x="190.5437" y="-297.8" font-family="Helvetica,sans-Serif" font-size="11.00" fill="#000000">[table]</text>
<polygon fill="none" stroke="#000000" points="10.5,-267.7 10.5,-289.7 133.5,-289.7 133.5,-267.7 10.5,-267.7"/>
<image xlink:href="../../images/primaryKeys.png" width="11px" height="12px" preserveAspectRatio="xMinYMin meet" x="15.5" y="-284.7"/>
<text text-anchor="start" x="30.5" y="-274.8" font-family="Helvetica,sans-Serif" font-size="11.00" fill="#000000">curso_id</text>
<polygon fill="none" stroke="#000000" points="133.5,-267.7 133.5,-289.7 225.5,-289.7 225.5,-267.7 133.5,-267.7"/>
<text text-anchor="start" x="136.5" y="-275.4" font-family="Helvetica,sans-Serif" font-size="11.00" fill="#000000">serial[10]</text>
<polygon fill="none" stroke="#000000" points="10.5,-245.7 10.5,-267.7 133.5,-267.7 133.5,-245.7 10.5,-245.7"/>
<text text-anchor="start" x="30.5" y="-252.8" font-family="Helvetica,sans-Serif" font-size="11.00" fill="#000000">nombre</text>
<polygon fill="none" stroke="#000000" points="133.5,-245.7 133.5,-267.7 225.5,-267.7 225.5,-245.7 133.5,-245.7"/>
<text text-anchor="start" x="136.5" y="-253.4" font-family="Helvetica,sans-Serif" font-size="11.00" fill="#000000">varchar[255]</text>
<polygon fill="none" stroke="#000000" points="10.5,-223.7 10.5,-245.7 133.5,-245.7 133.5,-223.7 10.5,-223.7"/>
<text text-anchor="start" x="30.5" y="-230.8" font-family="Helvetica,sans-Serif" font-size="11.00" fill="#000000">descripcion</text>
<polygon fill="none" stroke="#000000" points="133.5,-223.7 133.5,-245.7 225.5,-245.7 225.5,-223.7 133.5,-223.7"/>
<text text-anchor="start" x="136.5" y="-231.4" font-family="Helvetica,sans-Serif" font-size="11.00" fill="#000000">text[2147483647]</text>
<polygon fill="none" stroke="#000000" points="10.5,-201.7 10.5,-223.7 133.5,-223.7 133.5,-201.7 10.5,-201.7"/>
<text text-anchor="start" x="30.5" y="-208.8" font-family="Helvetica,sans-Serif" font-size="11.00" fill="#000000">usu_insercion</text>
<polygon fill="none" stroke="#000000" points="133.5,-201.7 133.5,-223.7 225.5,-223.7 225.5,-201.7 133.5,-201.7"/>
<text text-anchor="start" x="136.5" y="-209.4" font-family="Helvetica,sans-Serif" font-size="11.00" fill="#000000">varchar[20]</text>
<polygon fill="none" stroke="#000000" points="10.5,-179.7 10.5,-201.7 133.5,-201.7 133.5,-179.7 10.5,-179.7"/>
<text text-anchor="start" x="30.5" y="-186.8" font-family="Helvetica,sans-Serif" font-size="11.00" fill="#000000">fec_insercion</text>
<polygon fill="none" stroke="#000000" points="133.5,-179.7 133.5,-201.7 225.5,-201.7 225.5,-179.7 133.5,-179.7"/>
<text text-anchor="start" x="136.1023" y="-187.4" font-family="Helvetica,sans-Serif" font-size="11.00" fill="#000000">timestamptz[35,6]</text>
<polygon fill="none" stroke="#000000" points="10.5,-157.7 10.5,-179.7 133.5,-179.7 133.5,-157.7 10.5,-157.7"/>
<text text-anchor="start" x="30.5" y="-164.8" font-family="Helvetica,sans-Serif" font-size="11.00" fill="#000000">fec_modificacion</text>
<polygon fill="none" stroke="#000000" points="133.5,-157.7 133.5,-179.7 225.5,-179.7 225.5,-157.7 133.5,-157.7"/>
<text text-anchor="start" x="136.1023" y="-165.4" font-family="Helvetica,sans-Serif" font-size="11.00" fill="#000000">timestamptz[35,6]</text>
<polygon fill="none" stroke="#000000" points="10.5,-135.7 10.5,-157.7 133.5,-157.7 133.5,-135.7 10.5,-135.7"/>
<text text-anchor="start" x="30.5" y="-142.8" font-family="Helvetica,sans-Serif" font-size="11.00" fill="#000000">usu_modificacion</text>
<polygon fill="none" stroke="#000000" points="133.5,-135.7 133.5,-157.7 225.5,-157.7 225.5,-135.7 133.5,-135.7"/>
<text text-anchor="start" x="136.5" y="-143.4" font-family="Helvetica,sans-Serif" font-size="11.00" fill="#000000">varchar[20]</text>
<polygon fill="#ffffff" stroke="transparent" points="10.5,-116.7 10.5,-135.7 66.5,-135.7 66.5,-116.7 10.5,-116.7"/>
<polygon fill="none" stroke="#000000" points="10.5,-116.7 10.5,-135.7 66.5,-135.7 66.5,-116.7 10.5,-116.7"/>
<text text-anchor="start" x="13.5" y="-122.8" font-family="Helvetica,sans-Serif" font-size="11.00" fill="#000000">&lt; 0</text>
<polygon fill="#ffffff" stroke="transparent" points="66.5,-116.7 66.5,-135.7 133.5,-135.7 133.5,-116.7 66.5,-116.7"/>
<polygon fill="none" stroke="#000000" points="66.5,-116.7 66.5,-135.7 133.5,-135.7 133.5,-116.7 66.5,-116.7"/>
<text text-anchor="start" x="103.6105" y="-122.8" font-family="Helvetica,sans-Serif" font-size="11.00" fill="#000000">1 row</text>
<polygon fill="#ffffff" stroke="transparent" points="133.5,-116.7 133.5,-135.7 225.5,-135.7 225.5,-116.7 133.5,-116.7"/>
<polygon fill="none" stroke="#000000" points="133.5,-116.7 133.5,-135.7 225.5,-135.7 225.5,-116.7 133.5,-116.7"/>
<text text-anchor="start" x="206.9053" y="-122.8" font-family="Helvetica,sans-Serif" font-size="11.00" fill="#000000">3 &gt;</text>
<polygon fill="none" stroke="#000000" stroke-width="2" points="9,-115.7 9,-313.7 226,-313.7 226,-115.7 9,-115.7"/>
</a>
</g>
</g>
<!-- curso_ciclos&#45;&gt;cursos -->
<g id="edge1" class="edge">
<title>curso_ciclos:w&#45;&gt;cursos:e</title>
<path fill="none" stroke="#000000" d="M261.9788,-468.41C203.5077,-446.7476 308.1017,-278.7 225.5,-278.7"/>
<polygon fill="#000000" stroke="#000000" points="268.5977,-469.4538 275.9392,-474.2561 272.5488,-470.0769 276.5,-470.7 276.5,-470.7 276.5,-470.7 272.5488,-470.0769 277.0608,-467.1439 268.5977,-469.4538 268.5977,-469.4538"/>
<ellipse fill="none" stroke="#000000" cx="265.4367" cy="-468.9553" rx="3.2" ry="3.2"/>
</g>
<!-- leads -->
<g id="node3" class="node">
<title>leads</title>
<g id="a_node3"><a xlink:href="../../tables/leads.html" xlink:title="leads" target="_top">
<polygon fill="#ffffff" stroke="transparent" points="276,-230.2 276,-401.2 399,-401.2 399,-230.2 276,-230.2"/>
<polygon fill="#f5f5f5" stroke="transparent" points="276.5,-377.7 276.5,-400.7 399.5,-400.7 399.5,-377.7 276.5,-377.7"/>
<polygon fill="none" stroke="#000000" points="276.5,-377.7 276.5,-400.7 399.5,-400.7 399.5,-377.7 276.5,-377.7"/>
<text text-anchor="start" x="281.5" y="-386.8" font-family="Helvetica,sans-Serif" font-weight="bold" font-size="11.00" fill="#000000">leads</text>
<text text-anchor="start" x="364.5437" y="-385.8" font-family="Helvetica,sans-Serif" font-size="11.00" fill="#000000">[table]</text>
<polygon fill="none" stroke="#000000" points="276.5,-355.7 276.5,-377.7 399.5,-377.7 399.5,-355.7 276.5,-355.7"/>
<image xlink:href="../../images/primaryKeys.png" width="11px" height="12px" preserveAspectRatio="xMinYMin meet" x="281.5" y="-372.7"/>
<text text-anchor="start" x="296.5" y="-362.8" font-family="Helvetica,sans-Serif" font-size="11.00" fill="#000000">lead_id</text>
<polygon fill="none" stroke="#000000" points="276.5,-333.7 276.5,-355.7 399.5,-355.7 399.5,-333.7 276.5,-333.7"/>
<image xlink:href="../../images/foreignKeys.png" width="11px" height="12px" preserveAspectRatio="xMinYMin meet" x="281.5" y="-350.7"/>
<text text-anchor="start" x="296.5" y="-340.8" font-family="Helvetica,sans-Serif" font-size="11.00" fill="#000000">usu_asignado_id</text>
<polygon fill="none" stroke="#000000" points="276.5,-311.7 276.5,-333.7 399.5,-333.7 399.5,-311.7 276.5,-311.7"/>
<image xlink:href="../../images/foreignKeys.png" width="11px" height="12px" preserveAspectRatio="xMinYMin meet" x="281.5" y="-328.7"/>
<text text-anchor="start" x="296.5" y="-318.8" font-family="Helvetica,sans-Serif" font-size="11.00" fill="#000000">campana_id</text>
<polygon fill="none" stroke="#000000" points="276.5,-289.7 276.5,-311.7 399.5,-311.7 399.5,-289.7 276.5,-289.7"/>
<image xlink:href="../../images/foreignKeys.png" width="11px" height="12px" preserveAspectRatio="xMinYMin meet" x="281.5" y="-306.7"/>
<text text-anchor="start" x="296.5" y="-296.8" font-family="Helvetica,sans-Serif" font-size="11.00" fill="#000000">persona_id</text>
<polygon fill="none" stroke="#000000" points="276.5,-267.7 276.5,-289.7 399.5,-289.7 399.5,-267.7 276.5,-267.7"/>
<image xlink:href="../../images/foreignKeys.png" width="11px" height="12px" preserveAspectRatio="xMinYMin meet" x="281.5" y="-284.7"/>
<text text-anchor="start" x="296.5" y="-274.8" font-family="Helvetica,sans-Serif" font-size="11.00" fill="#000000">curso_id</text>
<polygon fill="none" stroke="#000000" points="276.5,-248.7 276.5,-267.7 399.5,-267.7 399.5,-248.7 276.5,-248.7"/>
<text text-anchor="start" x="279.5" y="-254.8" font-family="Helvetica,sans-Serif" font-size="11.00" fill="#000000">...</text>
<polygon fill="#ffffff" stroke="transparent" points="276.5,-229.7 276.5,-248.7 318.5,-248.7 318.5,-229.7 276.5,-229.7"/>
<polygon fill="none" stroke="#000000" points="276.5,-229.7 276.5,-248.7 318.5,-248.7 318.5,-229.7 276.5,-229.7"/>
<text text-anchor="start" x="279.5" y="-235.8" font-family="Helvetica,sans-Serif" font-size="11.00" fill="#000000">&lt; 4</text>
<polygon fill="#ffffff" stroke="transparent" points="318.5,-229.7 318.5,-248.7 367.5,-248.7 367.5,-229.7 318.5,-229.7"/>
<polygon fill="none" stroke="#000000" points="318.5,-229.7 318.5,-248.7 367.5,-248.7 367.5,-229.7 318.5,-229.7"/>
<text text-anchor="start" x="332.1105" y="-235.8" font-family="Helvetica,sans-Serif" font-size="11.00" fill="#000000">2 rows</text>
<polygon fill="#ffffff" stroke="transparent" points="367.5,-229.7 367.5,-248.7 399.5,-248.7 399.5,-229.7 367.5,-229.7"/>
<polygon fill="none" stroke="#000000" points="367.5,-229.7 367.5,-248.7 399.5,-248.7 399.5,-229.7 367.5,-229.7"/>
<text text-anchor="start" x="380.9053" y="-235.8" font-family="Helvetica,sans-Serif" font-size="11.00" fill="#000000">3 &gt;</text>
</a>
</g>
</g>
<!-- leads&#45;&gt;cursos -->
<g id="edge2" class="edge">
<title>leads:w&#45;&gt;cursos:e</title>
<path fill="none" stroke="#000000" d="M261.776,-278.7C249.7815,-278.7 242.3229,-278.7 225.5,-278.7"/>
<polygon fill="#000000" stroke="#000000" points="268.5,-278.7001 276.5,-282.3 272.5,-278.7 276.5,-278.7 276.5,-278.7 276.5,-278.7 272.5,-278.7 276.5,-275.1 268.5,-278.7001 268.5,-278.7001"/>
<ellipse fill="none" stroke="#000000" cx="265.3" cy="-278.7001" rx="3.2" ry="3.2"/>
</g>
<!-- oportunidades -->
<g id="node4" class="node">
<title>oportunidades</title>
<g id="a_node4"><a xlink:href="../../tables/oportunidades.html" xlink:title="oportunidades" target="_top">
<polygon fill="#ffffff" stroke="transparent" points="276,-38.2 276,-209.2 399,-209.2 399,-38.2 276,-38.2"/>
<polygon fill="#f5f5f5" stroke="transparent" points="276.5,-185.7 276.5,-208.7 399.5,-208.7 399.5,-185.7 276.5,-185.7"/>
<polygon fill="none" stroke="#000000" points="276.5,-185.7 276.5,-208.7 399.5,-208.7 399.5,-185.7 276.5,-185.7"/>
<text text-anchor="start" x="281.5" y="-194.8" font-family="Helvetica,sans-Serif" font-weight="bold" font-size="11.00" fill="#000000">oportunidades</text>
<text text-anchor="start" x="364.5437" y="-193.8" font-family="Helvetica,sans-Serif" font-size="11.00" fill="#000000">[table]</text>
<polygon fill="none" stroke="#000000" points="276.5,-163.7 276.5,-185.7 399.5,-185.7 399.5,-163.7 276.5,-163.7"/>
<image xlink:href="../../images/primaryKeys.png" width="11px" height="12px" preserveAspectRatio="xMinYMin meet" x="281.5" y="-180.7"/>
<text text-anchor="start" x="296.5" y="-170.8" font-family="Helvetica,sans-Serif" font-size="11.00" fill="#000000">oportunidad_id</text>
<polygon fill="none" stroke="#000000" points="276.5,-141.7 276.5,-163.7 399.5,-163.7 399.5,-141.7 276.5,-141.7"/>
<image xlink:href="../../images/foreignKeys.png" width="11px" height="12px" preserveAspectRatio="xMinYMin meet" x="281.5" y="-158.7"/>
<text text-anchor="start" x="296.5" y="-148.8" font-family="Helvetica,sans-Serif" font-size="11.00" fill="#000000">campana_id</text>
<polygon fill="none" stroke="#000000" points="276.5,-119.7 276.5,-141.7 399.5,-141.7 399.5,-119.7 276.5,-119.7"/>
<image xlink:href="../../images/foreignKeys.png" width="11px" height="12px" preserveAspectRatio="xMinYMin meet" x="281.5" y="-136.7"/>
<text text-anchor="start" x="296.5" y="-126.8" font-family="Helvetica,sans-Serif" font-size="11.00" fill="#000000">contacto_id</text>
<polygon fill="none" stroke="#000000" points="276.5,-97.7 276.5,-119.7 399.5,-119.7 399.5,-97.7 276.5,-97.7"/>
<image xlink:href="../../images/foreignKeys.png" width="11px" height="12px" preserveAspectRatio="xMinYMin meet" x="281.5" y="-114.7"/>
<text text-anchor="start" x="296.5" y="-104.8" font-family="Helvetica,sans-Serif" font-size="11.00" fill="#000000">curso_id</text>
<polygon fill="none" stroke="#000000" points="276.5,-75.7 276.5,-97.7 399.5,-97.7 399.5,-75.7 276.5,-75.7"/>
<image xlink:href="../../images/foreignKeys.png" width="11px" height="12px" preserveAspectRatio="xMinYMin meet" x="281.5" y="-92.7"/>
<text text-anchor="start" x="296.5" y="-82.8" font-family="Helvetica,sans-Serif" font-size="11.00" fill="#000000">usu_asignado_id</text>
<polygon fill="none" stroke="#000000" points="276.5,-56.7 276.5,-75.7 399.5,-75.7 399.5,-56.7 276.5,-56.7"/>
<text text-anchor="start" x="279.5" y="-62.8" font-family="Helvetica,sans-Serif" font-size="11.00" fill="#000000">...</text>
<polygon fill="#ffffff" stroke="transparent" points="276.5,-37.7 276.5,-56.7 318.5,-56.7 318.5,-37.7 276.5,-37.7"/>
<polygon fill="none" stroke="#000000" points="276.5,-37.7 276.5,-56.7 318.5,-56.7 318.5,-37.7 276.5,-37.7"/>
<text text-anchor="start" x="279.5" y="-43.8" font-family="Helvetica,sans-Serif" font-size="11.00" fill="#000000">&lt; 4</text>
<polygon fill="#ffffff" stroke="transparent" points="318.5,-37.7 318.5,-56.7 367.5,-56.7 367.5,-37.7 318.5,-37.7"/>
<polygon fill="none" stroke="#000000" points="318.5,-37.7 318.5,-56.7 367.5,-56.7 367.5,-37.7 318.5,-37.7"/>
<text text-anchor="start" x="332.1105" y="-43.8" font-family="Helvetica,sans-Serif" font-size="11.00" fill="#000000">6 rows</text>
<polygon fill="#ffffff" stroke="transparent" points="367.5,-37.7 367.5,-56.7 399.5,-56.7 399.5,-37.7 367.5,-37.7"/>
<polygon fill="none" stroke="#000000" points="367.5,-37.7 367.5,-56.7 399.5,-56.7 399.5,-37.7 367.5,-37.7"/>
<text text-anchor="start" x="380.9053" y="-43.8" font-family="Helvetica,sans-Serif" font-size="11.00" fill="#000000">1 &gt;</text>
</a>
</g>
</g>
<!-- oportunidades&#45;&gt;cursos -->
<g id="edge3" class="edge">
<title>oportunidades:w&#45;&gt;cursos:e</title>
<path fill="none" stroke="#000000" d="M262.167,-111.2351C212.079,-132.3825 298.6818,-278.7 225.5,-278.7"/>
<polygon fill="#000000" stroke="#000000" points="268.6223,-110.0934 277.127,-112.245 272.5611,-109.3967 276.5,-108.7 276.5,-108.7 276.5,-108.7 272.5611,-109.3967 275.873,-105.155 268.6223,-110.0934 268.6223,-110.0934"/>
<ellipse fill="none" stroke="#000000" cx="265.4712" cy="-110.6507" rx="3.2" ry="3.2"/>
</g>
</g>
</svg>
