<?xml version="1.0" encoding="UTF-8" standalone="no"?>
<!DOCTYPE svg PUBLIC "-//W3C//DTD SVG 1.1//EN"
 "http://www.w3.org/Graphics/SVG/1.1/DTD/svg11.dtd">
<!-- Generated by graphviz version 2.40.1 (20161225.0304)
 -->
<!-- Title: twoDegreesRelationshipsDiagram Pages: 1 -->
<svg width="592pt" height="519pt"
 viewBox="0.00 0.00 592.00 519.20" xmlns="http://www.w3.org/2000/svg" xmlns:xlink="http://www.w3.org/1999/xlink">
<g id="graph0" class="graph" transform="scale(1 1) rotate(0) translate(4 515.2)">
<title>twoDegreesRelationshipsDiagram</title>
<polygon fill="#ffffff" stroke="transparent" points="-4,4 -4,-515.2 588,-515.2 588,4 -4,4"/>
<text text-anchor="middle" x="72.4936" y="-7.3" font-family="Helvetica,sans-Serif" font-size="11.00" fill="#000000">Generated by SchemaSpy</text>
<!-- ciclo_profesores -->
<g id="node1" class="node">
<title>ciclo_profesores</title>
<g id="a_node1"><a xlink:href="../../tables/ciclo_profesores.html" xlink:title="ciclo_profesores" target="_top">
<polygon fill="#ffffff" stroke="transparent" points="453,-371.2 453,-498.2 576,-498.2 576,-371.2 453,-371.2"/>
<polygon fill="#f5f5f5" stroke="transparent" points="453.5,-474.7 453.5,-497.7 576.5,-497.7 576.5,-474.7 453.5,-474.7"/>
<polygon fill="none" stroke="#000000" points="453.5,-474.7 453.5,-497.7 576.5,-497.7 576.5,-474.7 453.5,-474.7"/>
<text text-anchor="start" x="458.4666" y="-483.8" font-family="Helvetica,sans-Serif" font-weight="bold" font-size="11.00" fill="#000000">ciclo_profesores</text>
<text text-anchor="start" x="542.0219" y="-482.8" font-family="Helvetica,sans-Serif" font-size="11.00" fill="#000000">[table]</text>
<polygon fill="none" stroke="#000000" points="453.5,-452.7 453.5,-474.7 576.5,-474.7 576.5,-452.7 453.5,-452.7"/>
<image xlink:href="../../images/primaryKeys.png" width="11px" height="12px" preserveAspectRatio="xMinYMin meet" x="458.5" y="-469.7"/>
<text text-anchor="start" x="473.5" y="-459.8" font-family="Helvetica,sans-Serif" font-size="11.00" fill="#000000">ciclo_profesor_id</text>
<polygon fill="none" stroke="#000000" points="453.5,-430.7 453.5,-452.7 576.5,-452.7 576.5,-430.7 453.5,-430.7"/>
<image xlink:href="../../images/foreignKeys.png" width="11px" height="12px" preserveAspectRatio="xMinYMin meet" x="458.5" y="-447.7"/>
<text text-anchor="start" x="473.5" y="-437.8" font-family="Helvetica,sans-Serif" font-size="11.00" fill="#000000">profesor_id</text>
<polygon fill="none" stroke="#000000" points="453.5,-408.7 453.5,-430.7 576.5,-430.7 576.5,-408.7 453.5,-408.7"/>
<image xlink:href="../../images/foreignKeys.png" width="11px" height="12px" preserveAspectRatio="xMinYMin meet" x="458.5" y="-425.7"/>
<text text-anchor="start" x="473.5" y="-415.8" font-family="Helvetica,sans-Serif" font-size="11.00" fill="#000000">ciclo_id</text>
<polygon fill="none" stroke="#000000" points="453.5,-389.7 453.5,-408.7 576.5,-408.7 576.5,-389.7 453.5,-389.7"/>
<text text-anchor="start" x="456.5" y="-395.8" font-family="Helvetica,sans-Serif" font-size="11.00" fill="#000000">...</text>
<polygon fill="#ffffff" stroke="transparent" points="453.5,-370.7 453.5,-389.7 500.5,-389.7 500.5,-370.7 453.5,-370.7"/>
<polygon fill="none" stroke="#000000" points="453.5,-370.7 453.5,-389.7 500.5,-389.7 500.5,-370.7 453.5,-370.7"/>
<text text-anchor="start" x="456.5" y="-376.8" font-family="Helvetica,sans-Serif" font-size="11.00" fill="#000000">&lt; 2</text>
<polygon fill="#ffffff" stroke="transparent" points="500.5,-370.7 500.5,-389.7 551.5,-389.7 551.5,-370.7 500.5,-370.7"/>
<polygon fill="none" stroke="#000000" points="500.5,-370.7 500.5,-389.7 551.5,-389.7 551.5,-370.7 500.5,-370.7"/>
<text text-anchor="start" x="516.1105" y="-376.8" font-family="Helvetica,sans-Serif" font-size="11.00" fill="#000000">0 rows</text>
<polygon fill="#ffffff" stroke="transparent" points="551.5,-370.7 551.5,-389.7 576.5,-389.7 576.5,-370.7 551.5,-370.7"/>
<polygon fill="none" stroke="#000000" points="551.5,-370.7 551.5,-389.7 576.5,-389.7 576.5,-370.7 551.5,-370.7"/>
<text text-anchor="start" x="567.3862" y="-376.8" font-family="Helvetica,sans-Serif" font-size="11.00" fill="#000000"> &#160;</text>
</a>
</g>
</g>
<!-- curso_ciclos -->
<g id="node2" class="node">
<title>curso_ciclos</title>
<g id="a_node2"><a xlink:href="../../tables/curso_ciclos.html" xlink:title="curso_ciclos" target="_top">
<polygon fill="#ffffff" stroke="transparent" points="180,-202.7 180,-424.7 404,-424.7 404,-202.7 180,-202.7"/>
<polygon fill="#f5f5f5" stroke="transparent" points="182,-399.7 182,-422.7 402,-422.7 402,-399.7 182,-399.7"/>
<polygon fill="none" stroke="#000000" points="182,-399.7 182,-422.7 402,-422.7 402,-399.7 182,-399.7"/>
<text text-anchor="start" x="187" y="-408.8" font-family="Helvetica,sans-Serif" font-weight="bold" font-size="11.00" fill="#000000">curso_ciclos</text>
<text text-anchor="start" x="367.0437" y="-407.8" font-family="Helvetica,sans-Serif" font-size="11.00" fill="#000000">[table]</text>
<polygon fill="none" stroke="#000000" points="182,-377.7 182,-399.7 305,-399.7 305,-377.7 182,-377.7"/>
<image xlink:href="../../images/primaryKeys.png" width="11px" height="12px" preserveAspectRatio="xMinYMin meet" x="187" y="-394.7"/>
<text text-anchor="start" x="202" y="-384.8" font-family="Helvetica,sans-Serif" font-size="11.00" fill="#000000">ciclo_id</text>
<polygon fill="none" stroke="#000000" points="305,-377.7 305,-399.7 402,-399.7 402,-377.7 305,-377.7"/>
<text text-anchor="start" x="308" y="-385.4" font-family="Helvetica,sans-Serif" font-size="11.00" fill="#000000">serial[10]</text>
<polygon fill="none" stroke="#000000" points="182,-355.7 182,-377.7 305,-377.7 305,-355.7 182,-355.7"/>
<image xlink:href="../../images/foreignKeys.png" width="11px" height="12px" preserveAspectRatio="xMinYMin meet" x="187" y="-372.7"/>
<text text-anchor="start" x="202" y="-362.8" font-family="Helvetica,sans-Serif" font-size="11.00" fill="#000000">curso_id</text>
<polygon fill="none" stroke="#000000" points="305,-355.7 305,-377.7 402,-377.7 402,-355.7 305,-355.7"/>
<text text-anchor="start" x="308" y="-363.4" font-family="Helvetica,sans-Serif" font-size="11.00" fill="#000000">int4[10]</text>
<polygon fill="none" stroke="#000000" points="182,-333.7 182,-355.7 305,-355.7 305,-333.7 182,-333.7"/>
<text text-anchor="start" x="202" y="-340.8" font-family="Helvetica,sans-Serif" font-size="11.00" fill="#000000">nivel</text>
<polygon fill="none" stroke="#000000" points="305,-333.7 305,-355.7 402,-355.7 402,-333.7 305,-333.7"/>
<text text-anchor="start" x="308" y="-341.4" font-family="Helvetica,sans-Serif" font-size="11.00" fill="#000000">varchar[50]</text>
<polygon fill="none" stroke="#000000" points="182,-311.7 182,-333.7 305,-333.7 305,-311.7 182,-311.7"/>
<text text-anchor="start" x="202" y="-318.8" font-family="Helvetica,sans-Serif" font-size="11.00" fill="#000000">fec_inicio</text>
<polygon fill="none" stroke="#000000" points="305,-311.7 305,-333.7 402,-333.7 402,-311.7 305,-311.7"/>
<text text-anchor="start" x="308" y="-319.4" font-family="Helvetica,sans-Serif" font-size="11.00" fill="#000000">timestamptz[35,6]</text>
<polygon fill="none" stroke="#000000" points="182,-289.7 182,-311.7 305,-311.7 305,-289.7 182,-289.7"/>
<text text-anchor="start" x="202" y="-296.8" font-family="Helvetica,sans-Serif" font-size="11.00" fill="#000000">fec_fin</text>
<polygon fill="none" stroke="#000000" points="305,-289.7 305,-311.7 402,-311.7 402,-289.7 305,-289.7"/>
<text text-anchor="start" x="308" y="-297.4" font-family="Helvetica,sans-Serif" font-size="11.00" fill="#000000">timestamptz[35,6]</text>
<polygon fill="none" stroke="#000000" points="182,-267.7 182,-289.7 305,-289.7 305,-267.7 182,-267.7"/>
<text text-anchor="start" x="202" y="-274.8" font-family="Helvetica,sans-Serif" font-size="11.00" fill="#000000">meses</text>
<polygon fill="none" stroke="#000000" points="305,-267.7 305,-289.7 402,-289.7 402,-267.7 305,-267.7"/>
<text text-anchor="start" x="307.9468" y="-275.4" font-family="Helvetica,sans-Serif" font-size="11.00" fill="#000000">_text[2147483647]</text>
<polygon fill="none" stroke="#000000" points="182,-245.7 182,-267.7 305,-267.7 305,-245.7 182,-245.7"/>
<text text-anchor="start" x="202" y="-252.8" font-family="Helvetica,sans-Serif" font-size="11.00" fill="#000000">fec_modificacion</text>
<polygon fill="none" stroke="#000000" points="305,-245.7 305,-267.7 402,-267.7 402,-245.7 305,-245.7"/>
<text text-anchor="start" x="308" y="-253.4" font-family="Helvetica,sans-Serif" font-size="11.00" fill="#000000">timestamptz[35,6]</text>
<polygon fill="none" stroke="#000000" points="182,-223.7 182,-245.7 305,-245.7 305,-223.7 182,-223.7"/>
<text text-anchor="start" x="202" y="-230.8" font-family="Helvetica,sans-Serif" font-size="11.00" fill="#000000">usu_modificacion</text>
<polygon fill="none" stroke="#000000" points="305,-223.7 305,-245.7 402,-245.7 402,-223.7 305,-223.7"/>
<text text-anchor="start" x="308" y="-231.4" font-family="Helvetica,sans-Serif" font-size="11.00" fill="#000000">varchar[20]</text>
<polygon fill="#ffffff" stroke="transparent" points="182,-204.7 182,-223.7 235,-223.7 235,-204.7 182,-204.7"/>
<polygon fill="none" stroke="#000000" points="182,-204.7 182,-223.7 235,-223.7 235,-204.7 182,-204.7"/>
<text text-anchor="start" x="185" y="-210.8" font-family="Helvetica,sans-Serif" font-size="11.00" fill="#000000">&lt; 1</text>
<polygon fill="#ffffff" stroke="transparent" points="235,-204.7 235,-223.7 305,-223.7 305,-204.7 235,-204.7"/>
<polygon fill="none" stroke="#000000" points="235,-204.7 235,-223.7 305,-223.7 305,-204.7 235,-204.7"/>
<text text-anchor="start" x="269.6105" y="-210.8" font-family="Helvetica,sans-Serif" font-size="11.00" fill="#000000">0 rows</text>
<polygon fill="#ffffff" stroke="transparent" points="305,-204.7 305,-223.7 402,-223.7 402,-204.7 305,-204.7"/>
<polygon fill="none" stroke="#000000" points="305,-204.7 305,-223.7 402,-223.7 402,-204.7 305,-204.7"/>
<text text-anchor="start" x="383.4053" y="-210.8" font-family="Helvetica,sans-Serif" font-size="11.00" fill="#000000">1 &gt;</text>
<polygon fill="none" stroke="#000000" stroke-width="2" points="181,-203.7 181,-423.7 403,-423.7 403,-203.7 181,-203.7"/>
</a>
</g>
</g>
<!-- ciclo_profesores&#45;&gt;curso_ciclos -->
<g id="edge1" class="edge">
<title>ciclo_profesores:w&#45;&gt;curso_ciclos:e</title>
<path fill="none" stroke="#000000" d="M439.4805,-415.8988C426.2585,-407.6209 422.8716,-388.7 402,-388.7"/>
<polygon fill="#000000" stroke="#000000" points="445.7788,-417.6064 452.5579,-423.1745 449.6394,-418.6532 453.5,-419.7 453.5,-419.7 453.5,-419.7 449.6394,-418.6532 454.4421,-416.2255 445.7788,-417.6064 445.7788,-417.6064"/>
<ellipse fill="none" stroke="#000000" cx="442.6903" cy="-416.769" rx="3.2" ry="3.2"/>
</g>
<!-- profesores -->
<g id="node3" class="node">
<title>profesores</title>
<g id="a_node3"><a xlink:href="../../tables/profesores.html" xlink:title="profesores" target="_top">
<polygon fill="#ffffff" stroke="transparent" points="245,-446.2 245,-507.2 339,-507.2 339,-446.2 245,-446.2"/>
<polygon fill="#f5f5f5" stroke="transparent" points="245,-483.7 245,-506.7 339,-506.7 339,-483.7 245,-483.7"/>
<polygon fill="none" stroke="#000000" points="245,-483.7 245,-506.7 339,-506.7 339,-483.7 245,-483.7"/>
<text text-anchor="start" x="249.5224" y="-492.8" font-family="Helvetica,sans-Serif" font-weight="bold" font-size="11.00" fill="#000000">profesores</text>
<text text-anchor="start" x="304.5219" y="-491.8" font-family="Helvetica,sans-Serif" font-size="11.00" fill="#000000">[table]</text>
<polygon fill="none" stroke="#000000" points="245,-464.7 245,-483.7 339,-483.7 339,-464.7 245,-464.7"/>
<text text-anchor="start" x="248" y="-470.8" font-family="Helvetica,sans-Serif" font-size="11.00" fill="#000000">...</text>
<polygon fill="#ffffff" stroke="transparent" points="245,-445.7 245,-464.7 276,-464.7 276,-445.7 245,-445.7"/>
<polygon fill="none" stroke="#000000" points="245,-445.7 245,-464.7 276,-464.7 276,-445.7 245,-445.7"/>
<text text-anchor="start" x="248" y="-451.8" font-family="Helvetica,sans-Serif" font-size="11.00" fill="#000000">&lt; 1</text>
<polygon fill="#ffffff" stroke="transparent" points="276,-445.7 276,-464.7 313,-464.7 313,-445.7 276,-445.7"/>
<polygon fill="none" stroke="#000000" points="276,-445.7 276,-464.7 313,-464.7 313,-445.7 276,-445.7"/>
<text text-anchor="start" x="283.1105" y="-451.8" font-family="Helvetica,sans-Serif" font-size="11.00" fill="#000000">1 row</text>
<polygon fill="#ffffff" stroke="transparent" points="313,-445.7 313,-464.7 339,-464.7 339,-445.7 313,-445.7"/>
<polygon fill="none" stroke="#000000" points="313,-445.7 313,-464.7 339,-464.7 339,-445.7 313,-445.7"/>
<text text-anchor="start" x="320.4053" y="-451.8" font-family="Helvetica,sans-Serif" font-size="11.00" fill="#000000">1 &gt;</text>
</a>
</g>
</g>
<!-- ciclo_profesores&#45;&gt;profesores -->
<g id="edge2" class="edge">
<title>ciclo_profesores:w&#45;&gt;profesores:e</title>
<path fill="none" stroke="#000000" d="M438.9334,-442.5893C398.4668,-447.7575 386.5757,-473.7 339,-473.7"/>
<polygon fill="#000000" stroke="#000000" points="445.5149,-442.1875 453.7194,-445.2933 449.5074,-441.9438 453.5,-441.7 453.5,-441.7 453.5,-441.7 449.5074,-441.9438 453.2806,-438.1067 445.5149,-442.1875 445.5149,-442.1875"/>
<ellipse fill="none" stroke="#000000" cx="442.3208" cy="-442.3825" rx="3.2" ry="3.2"/>
</g>
<!-- cursos -->
<g id="node4" class="node">
<title>cursos</title>
<g id="a_node4"><a xlink:href="../../tables/cursos.html" xlink:title="cursos" target="_top">
<polygon fill="#ffffff" stroke="transparent" points="8,-99.2 8,-182.2 131,-182.2 131,-99.2 8,-99.2"/>
<polygon fill="#f5f5f5" stroke="transparent" points="8.5,-158.7 8.5,-181.7 131.5,-181.7 131.5,-158.7 8.5,-158.7"/>
<polygon fill="none" stroke="#000000" points="8.5,-158.7 8.5,-181.7 131.5,-181.7 131.5,-158.7 8.5,-158.7"/>
<text text-anchor="start" x="13.5" y="-167.8" font-family="Helvetica,sans-Serif" font-weight="bold" font-size="11.00" fill="#000000">cursos</text>
<text text-anchor="start" x="96.5437" y="-166.8" font-family="Helvetica,sans-Serif" font-size="11.00" fill="#000000">[table]</text>
<polygon fill="none" stroke="#000000" points="8.5,-136.7 8.5,-158.7 131.5,-158.7 131.5,-136.7 8.5,-136.7"/>
<image xlink:href="../../images/primaryKeys.png" width="11px" height="12px" preserveAspectRatio="xMinYMin meet" x="13.5" y="-153.7"/>
<text text-anchor="start" x="28.5" y="-143.8" font-family="Helvetica,sans-Serif" font-size="11.00" fill="#000000">curso_id</text>
<polygon fill="none" stroke="#000000" points="8.5,-117.7 8.5,-136.7 131.5,-136.7 131.5,-117.7 8.5,-117.7"/>
<text text-anchor="start" x="11.5" y="-123.8" font-family="Helvetica,sans-Serif" font-size="11.00" fill="#000000">...</text>
<polygon fill="#ffffff" stroke="transparent" points="8.5,-98.7 8.5,-117.7 49.5,-117.7 49.5,-98.7 8.5,-98.7"/>
<polygon fill="none" stroke="#000000" points="8.5,-98.7 8.5,-117.7 49.5,-117.7 49.5,-98.7 8.5,-98.7"/>
<text text-anchor="start" x="11.5" y="-104.8" font-family="Helvetica,sans-Serif" font-size="11.00" fill="#000000"> &#160;</text>
<polygon fill="#ffffff" stroke="transparent" points="49.5,-98.7 49.5,-117.7 95.5,-117.7 95.5,-98.7 49.5,-98.7"/>
<polygon fill="none" stroke="#000000" points="49.5,-98.7 49.5,-117.7 95.5,-117.7 95.5,-98.7 49.5,-98.7"/>
<text text-anchor="start" x="65.6105" y="-104.8" font-family="Helvetica,sans-Serif" font-size="11.00" fill="#000000">1 row</text>
<polygon fill="#ffffff" stroke="transparent" points="95.5,-98.7 95.5,-117.7 131.5,-117.7 131.5,-98.7 95.5,-98.7"/>
<polygon fill="none" stroke="#000000" points="95.5,-98.7 95.5,-117.7 131.5,-117.7 131.5,-98.7 95.5,-98.7"/>
<text text-anchor="start" x="112.9053" y="-104.8" font-family="Helvetica,sans-Serif" font-size="11.00" fill="#000000">3 &gt;</text>
</a>
</g>
</g>
<!-- curso_ciclos&#45;&gt;cursos -->
<g id="edge3" class="edge">
<title>curso_ciclos:w&#45;&gt;cursos:e</title>
<path fill="none" stroke="#000000" d="M167.3344,-364.6718C98.2231,-342.594 225.7299,-147.7 131.5,-147.7"/>
<polygon fill="#000000" stroke="#000000" points="174.0754,-365.604 181.5068,-370.2661 178.0377,-366.152 182,-366.7 182,-366.7 182,-366.7 178.0377,-366.152 182.4932,-363.1339 174.0754,-365.604 174.0754,-365.604"/>
<ellipse fill="none" stroke="#000000" cx="170.9056" cy="-365.1656" rx="3.2" ry="3.2"/>
</g>
<!-- leads -->
<g id="node5" class="node">
<title>leads</title>
<g id="a_node5"><a xlink:href="../../tables/leads.html" xlink:title="leads" target="_top">
<polygon fill="#ffffff" stroke="transparent" points="252,-120.2 252,-181.2 332,-181.2 332,-120.2 252,-120.2"/>
<polygon fill="#f5f5f5" stroke="transparent" points="252,-157.7 252,-180.7 332,-180.7 332,-157.7 252,-157.7"/>
<polygon fill="none" stroke="#000000" points="252,-157.7 252,-180.7 332,-180.7 332,-157.7 252,-157.7"/>
<text text-anchor="start" x="257" y="-166.8" font-family="Helvetica,sans-Serif" font-weight="bold" font-size="11.00" fill="#000000">leads</text>
<text text-anchor="start" x="297.0437" y="-165.8" font-family="Helvetica,sans-Serif" font-size="11.00" fill="#000000">[table]</text>
<polygon fill="none" stroke="#000000" points="252,-138.7 252,-157.7 332,-157.7 332,-138.7 252,-138.7"/>
<text text-anchor="start" x="255" y="-144.8" font-family="Helvetica,sans-Serif" font-size="11.00" fill="#000000">...</text>
<polygon fill="#ffffff" stroke="transparent" points="252,-119.7 252,-138.7 273,-138.7 273,-119.7 252,-119.7"/>
<polygon fill="none" stroke="#000000" points="252,-119.7 252,-138.7 273,-138.7 273,-119.7 252,-119.7"/>
<text text-anchor="start" x="254.7027" y="-125.8" font-family="Helvetica,sans-Serif" font-size="11.00" fill="#000000">&lt; 4</text>
<polygon fill="#ffffff" stroke="transparent" points="273,-119.7 273,-138.7 311,-138.7 311,-119.7 273,-119.7"/>
<polygon fill="none" stroke="#000000" points="273,-119.7 273,-138.7 311,-138.7 311,-119.7 273,-119.7"/>
<text text-anchor="start" x="275.8053" y="-125.8" font-family="Helvetica,sans-Serif" font-size="11.00" fill="#000000">2 rows</text>
<polygon fill="#ffffff" stroke="transparent" points="311,-119.7 311,-138.7 332,-138.7 332,-119.7 311,-119.7"/>
<polygon fill="none" stroke="#000000" points="311,-119.7 311,-138.7 332,-138.7 332,-119.7 311,-119.7"/>
<text text-anchor="start" x="313.7027" y="-125.8" font-family="Helvetica,sans-Serif" font-size="11.00" fill="#000000">3 &gt;</text>
</a>
</g>
</g>
<!-- leads&#45;&gt;cursos -->
<g id="edge4" class="edge">
<title>leads:w&#45;&gt;cursos:e</title>
<path fill="none" stroke="#000000" d="M237.3843,-147.7C195.4464,-147.7 179.8255,-147.7 131.5,-147.7"/>
<polygon fill="#000000" stroke="#000000" points="244,-147.7001 252,-151.3 248,-147.7 252,-147.7 252,-147.7 252,-147.7 248,-147.7 252,-144.1 244,-147.7001 244,-147.7001"/>
<ellipse fill="none" stroke="#000000" cx="240.8" cy="-147.7001" rx="3.2" ry="3.2"/>
</g>
<!-- oportunidades -->
<g id="node6" class="node">
<title>oportunidades</title>
<g id="a_node6"><a xlink:href="../../tables/oportunidades.html" xlink:title="oportunidades" target="_top">
<polygon fill="#ffffff" stroke="transparent" points="236,-38.2 236,-99.2 348,-99.2 348,-38.2 236,-38.2"/>
<polygon fill="#f5f5f5" stroke="transparent" points="236,-75.7 236,-98.7 348,-98.7 348,-75.7 236,-75.7"/>
<polygon fill="none" stroke="#000000" points="236,-75.7 236,-98.7 348,-98.7 348,-75.7 236,-75.7"/>
<text text-anchor="start" x="240.6531" y="-84.8" font-family="Helvetica,sans-Serif" font-weight="bold" font-size="11.00" fill="#000000">oportunidades</text>
<text text-anchor="start" x="313.5219" y="-83.8" font-family="Helvetica,sans-Serif" font-size="11.00" fill="#000000">[table]</text>
<polygon fill="none" stroke="#000000" points="236,-56.7 236,-75.7 348,-75.7 348,-56.7 236,-56.7"/>
<text text-anchor="start" x="239" y="-62.8" font-family="Helvetica,sans-Serif" font-size="11.00" fill="#000000">...</text>
<polygon fill="#ffffff" stroke="transparent" points="236,-37.7 236,-56.7 273,-56.7 273,-37.7 236,-37.7"/>
<polygon fill="none" stroke="#000000" points="236,-37.7 236,-56.7 273,-56.7 273,-37.7 236,-37.7"/>
<text text-anchor="start" x="239" y="-43.8" font-family="Helvetica,sans-Serif" font-size="11.00" fill="#000000">&lt; 4</text>
<polygon fill="#ffffff" stroke="transparent" points="273,-37.7 273,-56.7 319,-56.7 319,-37.7 273,-37.7"/>
<polygon fill="none" stroke="#000000" points="273,-37.7 273,-56.7 319,-56.7 319,-37.7 273,-37.7"/>
<text text-anchor="start" x="283.6105" y="-43.8" font-family="Helvetica,sans-Serif" font-size="11.00" fill="#000000">6 rows</text>
<polygon fill="#ffffff" stroke="transparent" points="319,-37.7 319,-56.7 348,-56.7 348,-37.7 319,-37.7"/>
<polygon fill="none" stroke="#000000" points="319,-37.7 319,-56.7 348,-56.7 348,-37.7 319,-37.7"/>
<text text-anchor="start" x="329.4053" y="-43.8" font-family="Helvetica,sans-Serif" font-size="11.00" fill="#000000">1 &gt;</text>
</a>
</g>
</g>
<!-- oportunidades&#45;&gt;cursos -->
<g id="edge5" class="edge">
<title>oportunidades:w&#45;&gt;cursos:e</title>
<path fill="none" stroke="#000000" d="M221.6406,-67.3252C200.0271,-72.8413 194.5795,-91.5182 172,-109.7 152.7753,-125.1804 156.1827,-147.7 131.5,-147.7"/>
<polygon fill="#000000" stroke="#000000" points="228.0508,-66.5997 236.4049,-69.2772 232.0254,-66.1499 236,-65.7 236,-65.7 236,-65.7 232.0254,-66.1499 235.5951,-62.1228 228.0508,-66.5997 228.0508,-66.5997"/>
<ellipse fill="none" stroke="#000000" cx="224.8711" cy="-66.9596" rx="3.2" ry="3.2"/>
</g>
</g>
</svg>
