<?xml version="1.0" encoding="UTF-8" standalone="no"?>
<!DOCTYPE svg PUBLIC "-//W3C//DTD SVG 1.1//EN"
 "http://www.w3.org/Graphics/SVG/1.1/DTD/svg11.dtd">
<!-- Generated by graphviz version 2.40.1 (20161225.0304)
 -->
<!-- Title: oneDegreeRelationshipsDiagram Pages: 1 -->
<svg width="592pt" height="315pt"
 viewBox="0.00 0.00 592.00 314.70" xmlns="http://www.w3.org/2000/svg" xmlns:xlink="http://www.w3.org/1999/xlink">
<g id="graph0" class="graph" transform="scale(1 1) rotate(0) translate(4 310.7)">
<title>oneDegreeRelationshipsDiagram</title>
<polygon fill="#ffffff" stroke="transparent" points="-4,4 -4,-310.7 588,-310.7 588,4 -4,4"/>
<text text-anchor="middle" x="72.4936" y="-7.3" font-family="Helvetica,sans-Serif" font-size="11.00" fill="#000000">Generated by SchemaSpy</text>
<!-- ciclo_profesores -->
<g id="node1" class="node">
<title>ciclo_profesores</title>
<g id="a_node1"><a xlink:href="../../tables/ciclo_profesores.html" xlink:title="ciclo_profesores" target="_top">
<polygon fill="#ffffff" stroke="transparent" points="453,-175.7 453,-302.7 576,-302.7 576,-175.7 453,-175.7"/>
<polygon fill="#f5f5f5" stroke="transparent" points="453.5,-279.2 453.5,-302.2 576.5,-302.2 576.5,-279.2 453.5,-279.2"/>
<polygon fill="none" stroke="#000000" points="453.5,-279.2 453.5,-302.2 576.5,-302.2 576.5,-279.2 453.5,-279.2"/>
<text text-anchor="start" x="458.4666" y="-288.3" font-family="Helvetica,sans-Serif" font-weight="bold" font-size="11.00" fill="#000000">ciclo_profesores</text>
<text text-anchor="start" x="542.0219" y="-287.3" font-family="Helvetica,sans-Serif" font-size="11.00" fill="#000000">[table]</text>
<polygon fill="none" stroke="#000000" points="453.5,-257.2 453.5,-279.2 576.5,-279.2 576.5,-257.2 453.5,-257.2"/>
<image xlink:href="../../images/primaryKeys.png" width="11px" height="12px" preserveAspectRatio="xMinYMin meet" x="458.5" y="-274.2"/>
<text text-anchor="start" x="473.5" y="-264.3" font-family="Helvetica,sans-Serif" font-size="11.00" fill="#000000">ciclo_profesor_id</text>
<polygon fill="none" stroke="#000000" points="453.5,-235.2 453.5,-257.2 576.5,-257.2 576.5,-235.2 453.5,-235.2"/>
<image xlink:href="../../images/foreignKeys.png" width="11px" height="12px" preserveAspectRatio="xMinYMin meet" x="458.5" y="-252.2"/>
<text text-anchor="start" x="473.5" y="-242.3" font-family="Helvetica,sans-Serif" font-size="11.00" fill="#000000">profesor_id</text>
<polygon fill="none" stroke="#000000" points="453.5,-213.2 453.5,-235.2 576.5,-235.2 576.5,-213.2 453.5,-213.2"/>
<image xlink:href="../../images/foreignKeys.png" width="11px" height="12px" preserveAspectRatio="xMinYMin meet" x="458.5" y="-230.2"/>
<text text-anchor="start" x="473.5" y="-220.3" font-family="Helvetica,sans-Serif" font-size="11.00" fill="#000000">ciclo_id</text>
<polygon fill="none" stroke="#000000" points="453.5,-194.2 453.5,-213.2 576.5,-213.2 576.5,-194.2 453.5,-194.2"/>
<text text-anchor="start" x="456.5" y="-200.3" font-family="Helvetica,sans-Serif" font-size="11.00" fill="#000000">...</text>
<polygon fill="#ffffff" stroke="transparent" points="453.5,-175.2 453.5,-194.2 500.5,-194.2 500.5,-175.2 453.5,-175.2"/>
<polygon fill="none" stroke="#000000" points="453.5,-175.2 453.5,-194.2 500.5,-194.2 500.5,-175.2 453.5,-175.2"/>
<text text-anchor="start" x="456.5" y="-181.3" font-family="Helvetica,sans-Serif" font-size="11.00" fill="#000000">&lt; 2</text>
<polygon fill="#ffffff" stroke="transparent" points="500.5,-175.2 500.5,-194.2 551.5,-194.2 551.5,-175.2 500.5,-175.2"/>
<polygon fill="none" stroke="#000000" points="500.5,-175.2 500.5,-194.2 551.5,-194.2 551.5,-175.2 500.5,-175.2"/>
<text text-anchor="start" x="516.1105" y="-181.3" font-family="Helvetica,sans-Serif" font-size="11.00" fill="#000000">0 rows</text>
<polygon fill="#ffffff" stroke="transparent" points="551.5,-175.2 551.5,-194.2 576.5,-194.2 576.5,-175.2 551.5,-175.2"/>
<polygon fill="none" stroke="#000000" points="551.5,-175.2 551.5,-194.2 576.5,-194.2 576.5,-175.2 551.5,-175.2"/>
<text text-anchor="start" x="567.3862" y="-181.3" font-family="Helvetica,sans-Serif" font-size="11.00" fill="#000000"> &#160;</text>
</a>
</g>
</g>
<!-- curso_ciclos -->
<g id="node2" class="node">
<title>curso_ciclos</title>
<g id="a_node2"><a xlink:href="../../tables/curso_ciclos.html" xlink:title="curso_ciclos" target="_top">
<polygon fill="#ffffff" stroke="transparent" points="180,-38.2 180,-260.2 404,-260.2 404,-38.2 180,-38.2"/>
<polygon fill="#f5f5f5" stroke="transparent" points="182,-235.2 182,-258.2 402,-258.2 402,-235.2 182,-235.2"/>
<polygon fill="none" stroke="#000000" points="182,-235.2 182,-258.2 402,-258.2 402,-235.2 182,-235.2"/>
<text text-anchor="start" x="187" y="-244.3" font-family="Helvetica,sans-Serif" font-weight="bold" font-size="11.00" fill="#000000">curso_ciclos</text>
<text text-anchor="start" x="367.0437" y="-243.3" font-family="Helvetica,sans-Serif" font-size="11.00" fill="#000000">[table]</text>
<polygon fill="none" stroke="#000000" points="182,-213.2 182,-235.2 305,-235.2 305,-213.2 182,-213.2"/>
<image xlink:href="../../images/primaryKeys.png" width="11px" height="12px" preserveAspectRatio="xMinYMin meet" x="187" y="-230.2"/>
<text text-anchor="start" x="202" y="-220.3" font-family="Helvetica,sans-Serif" font-size="11.00" fill="#000000">ciclo_id</text>
<polygon fill="none" stroke="#000000" points="305,-213.2 305,-235.2 402,-235.2 402,-213.2 305,-213.2"/>
<text text-anchor="start" x="308" y="-220.9" font-family="Helvetica,sans-Serif" font-size="11.00" fill="#000000">serial[10]</text>
<polygon fill="none" stroke="#000000" points="182,-191.2 182,-213.2 305,-213.2 305,-191.2 182,-191.2"/>
<image xlink:href="../../images/foreignKeys.png" width="11px" height="12px" preserveAspectRatio="xMinYMin meet" x="187" y="-208.2"/>
<text text-anchor="start" x="202" y="-198.3" font-family="Helvetica,sans-Serif" font-size="11.00" fill="#000000">curso_id</text>
<polygon fill="none" stroke="#000000" points="305,-191.2 305,-213.2 402,-213.2 402,-191.2 305,-191.2"/>
<text text-anchor="start" x="308" y="-198.9" font-family="Helvetica,sans-Serif" font-size="11.00" fill="#000000">int4[10]</text>
<polygon fill="none" stroke="#000000" points="182,-169.2 182,-191.2 305,-191.2 305,-169.2 182,-169.2"/>
<text text-anchor="start" x="202" y="-176.3" font-family="Helvetica,sans-Serif" font-size="11.00" fill="#000000">nivel</text>
<polygon fill="none" stroke="#000000" points="305,-169.2 305,-191.2 402,-191.2 402,-169.2 305,-169.2"/>
<text text-anchor="start" x="308" y="-176.9" font-family="Helvetica,sans-Serif" font-size="11.00" fill="#000000">varchar[50]</text>
<polygon fill="none" stroke="#000000" points="182,-147.2 182,-169.2 305,-169.2 305,-147.2 182,-147.2"/>
<text text-anchor="start" x="202" y="-154.3" font-family="Helvetica,sans-Serif" font-size="11.00" fill="#000000">fec_inicio</text>
<polygon fill="none" stroke="#000000" points="305,-147.2 305,-169.2 402,-169.2 402,-147.2 305,-147.2"/>
<text text-anchor="start" x="308" y="-154.9" font-family="Helvetica,sans-Serif" font-size="11.00" fill="#000000">timestamptz[35,6]</text>
<polygon fill="none" stroke="#000000" points="182,-125.2 182,-147.2 305,-147.2 305,-125.2 182,-125.2"/>
<text text-anchor="start" x="202" y="-132.3" font-family="Helvetica,sans-Serif" font-size="11.00" fill="#000000">fec_fin</text>
<polygon fill="none" stroke="#000000" points="305,-125.2 305,-147.2 402,-147.2 402,-125.2 305,-125.2"/>
<text text-anchor="start" x="308" y="-132.9" font-family="Helvetica,sans-Serif" font-size="11.00" fill="#000000">timestamptz[35,6]</text>
<polygon fill="none" stroke="#000000" points="182,-103.2 182,-125.2 305,-125.2 305,-103.2 182,-103.2"/>
<text text-anchor="start" x="202" y="-110.3" font-family="Helvetica,sans-Serif" font-size="11.00" fill="#000000">meses</text>
<polygon fill="none" stroke="#000000" points="305,-103.2 305,-125.2 402,-125.2 402,-103.2 305,-103.2"/>
<text text-anchor="start" x="307.9468" y="-110.9" font-family="Helvetica,sans-Serif" font-size="11.00" fill="#000000">_text[2147483647]</text>
<polygon fill="none" stroke="#000000" points="182,-81.2 182,-103.2 305,-103.2 305,-81.2 182,-81.2"/>
<text text-anchor="start" x="202" y="-88.3" font-family="Helvetica,sans-Serif" font-size="11.00" fill="#000000">fec_modificacion</text>
<polygon fill="none" stroke="#000000" points="305,-81.2 305,-103.2 402,-103.2 402,-81.2 305,-81.2"/>
<text text-anchor="start" x="308" y="-88.9" font-family="Helvetica,sans-Serif" font-size="11.00" fill="#000000">timestamptz[35,6]</text>
<polygon fill="none" stroke="#000000" points="182,-59.2 182,-81.2 305,-81.2 305,-59.2 182,-59.2"/>
<text text-anchor="start" x="202" y="-66.3" font-family="Helvetica,sans-Serif" font-size="11.00" fill="#000000">usu_modificacion</text>
<polygon fill="none" stroke="#000000" points="305,-59.2 305,-81.2 402,-81.2 402,-59.2 305,-59.2"/>
<text text-anchor="start" x="308" y="-66.9" font-family="Helvetica,sans-Serif" font-size="11.00" fill="#000000">varchar[20]</text>
<polygon fill="#ffffff" stroke="transparent" points="182,-40.2 182,-59.2 235,-59.2 235,-40.2 182,-40.2"/>
<polygon fill="none" stroke="#000000" points="182,-40.2 182,-59.2 235,-59.2 235,-40.2 182,-40.2"/>
<text text-anchor="start" x="185" y="-46.3" font-family="Helvetica,sans-Serif" font-size="11.00" fill="#000000">&lt; 1</text>
<polygon fill="#ffffff" stroke="transparent" points="235,-40.2 235,-59.2 305,-59.2 305,-40.2 235,-40.2"/>
<polygon fill="none" stroke="#000000" points="235,-40.2 235,-59.2 305,-59.2 305,-40.2 235,-40.2"/>
<text text-anchor="start" x="269.6105" y="-46.3" font-family="Helvetica,sans-Serif" font-size="11.00" fill="#000000">0 rows</text>
<polygon fill="#ffffff" stroke="transparent" points="305,-40.2 305,-59.2 402,-59.2 402,-40.2 305,-40.2"/>
<polygon fill="none" stroke="#000000" points="305,-40.2 305,-59.2 402,-59.2 402,-40.2 305,-40.2"/>
<text text-anchor="start" x="383.4053" y="-46.3" font-family="Helvetica,sans-Serif" font-size="11.00" fill="#000000">1 &gt;</text>
<polygon fill="none" stroke="#000000" stroke-width="2" points="181,-39.2 181,-259.2 403,-259.2 403,-39.2 181,-39.2"/>
</a>
</g>
</g>
<!-- ciclo_profesores&#45;&gt;curso_ciclos -->
<g id="edge1" class="edge">
<title>ciclo_profesores:w&#45;&gt;curso_ciclos:e</title>
<path fill="none" stroke="#000000" d="M439.0156,-224.2C426.6771,-224.2 419.1667,-224.2 402,-224.2"/>
<polygon fill="#000000" stroke="#000000" points="445.5,-224.2001 453.5,-227.8 449.5,-224.2 453.5,-224.2 453.5,-224.2 453.5,-224.2 449.5,-224.2 453.5,-220.6 445.5,-224.2001 445.5,-224.2001"/>
<ellipse fill="none" stroke="#000000" cx="442.3" cy="-224.2001" rx="3.2" ry="3.2"/>
</g>
<!-- cursos -->
<g id="node3" class="node">
<title>cursos</title>
<g id="a_node3"><a xlink:href="../../tables/cursos.html" xlink:title="cursos" target="_top">
<polygon fill="#ffffff" stroke="transparent" points="8,-153.7 8,-236.7 131,-236.7 131,-153.7 8,-153.7"/>
<polygon fill="#f5f5f5" stroke="transparent" points="8.5,-213.2 8.5,-236.2 131.5,-236.2 131.5,-213.2 8.5,-213.2"/>
<polygon fill="none" stroke="#000000" points="8.5,-213.2 8.5,-236.2 131.5,-236.2 131.5,-213.2 8.5,-213.2"/>
<text text-anchor="start" x="13.5" y="-222.3" font-family="Helvetica,sans-Serif" font-weight="bold" font-size="11.00" fill="#000000">cursos</text>
<text text-anchor="start" x="96.5437" y="-221.3" font-family="Helvetica,sans-Serif" font-size="11.00" fill="#000000">[table]</text>
<polygon fill="none" stroke="#000000" points="8.5,-191.2 8.5,-213.2 131.5,-213.2 131.5,-191.2 8.5,-191.2"/>
<image xlink:href="../../images/primaryKeys.png" width="11px" height="12px" preserveAspectRatio="xMinYMin meet" x="13.5" y="-208.2"/>
<text text-anchor="start" x="28.5" y="-198.3" font-family="Helvetica,sans-Serif" font-size="11.00" fill="#000000">curso_id</text>
<polygon fill="none" stroke="#000000" points="8.5,-172.2 8.5,-191.2 131.5,-191.2 131.5,-172.2 8.5,-172.2"/>
<text text-anchor="start" x="11.5" y="-178.3" font-family="Helvetica,sans-Serif" font-size="11.00" fill="#000000">...</text>
<polygon fill="#ffffff" stroke="transparent" points="8.5,-153.2 8.5,-172.2 46.5,-172.2 46.5,-153.2 8.5,-153.2"/>
<polygon fill="none" stroke="#000000" points="8.5,-153.2 8.5,-172.2 46.5,-172.2 46.5,-153.2 8.5,-153.2"/>
<text text-anchor="start" x="11.5" y="-159.3" font-family="Helvetica,sans-Serif" font-size="11.00" fill="#000000"> &#160;</text>
<polygon fill="#ffffff" stroke="transparent" points="46.5,-153.2 46.5,-172.2 97.5,-172.2 97.5,-153.2 46.5,-153.2"/>
<polygon fill="none" stroke="#000000" points="46.5,-153.2 46.5,-172.2 97.5,-172.2 97.5,-153.2 46.5,-153.2"/>
<text text-anchor="start" x="62.1105" y="-159.3" font-family="Helvetica,sans-Serif" font-size="11.00" fill="#000000">0 rows</text>
<polygon fill="#ffffff" stroke="transparent" points="97.5,-153.2 97.5,-172.2 131.5,-172.2 131.5,-153.2 97.5,-153.2"/>
<polygon fill="none" stroke="#000000" points="97.5,-153.2 97.5,-172.2 131.5,-172.2 131.5,-153.2 97.5,-153.2"/>
<text text-anchor="start" x="112.9053" y="-159.3" font-family="Helvetica,sans-Serif" font-size="11.00" fill="#000000">3 &gt;</text>
</a>
</g>
</g>
<!-- curso_ciclos&#45;&gt;cursos -->
<g id="edge2" class="edge">
<title>curso_ciclos:w&#45;&gt;cursos:e</title>
<path fill="none" stroke="#000000" d="M167.4203,-202.2C155.5435,-202.2 148.158,-202.2 131.5,-202.2"/>
<polygon fill="#000000" stroke="#000000" points="174,-202.2001 182,-205.8 178,-202.2 182,-202.2 182,-202.2 182,-202.2 178,-202.2 182,-198.6 174,-202.2001 174,-202.2001"/>
<ellipse fill="none" stroke="#000000" cx="170.8" cy="-202.2001" rx="3.2" ry="3.2"/>
</g>
</g>
</svg>
