<?xml version="1.0" encoding="UTF-8" standalone="no"?>
<!DOCTYPE svg PUBLIC "-//W3C//DTD SVG 1.1//EN"
 "http://www.w3.org/Graphics/SVG/1.1/DTD/svg11.dtd">
<!-- Generated by graphviz version 2.40.1 (20161225.0304)
 -->
<!-- Title: twoDegreesRelationshipsDiagram Pages: 1 -->
<svg width="764pt" height="567pt"
 viewBox="0.00 0.00 764.00 566.87" xmlns="http://www.w3.org/2000/svg" xmlns:xlink="http://www.w3.org/1999/xlink">
<g id="graph0" class="graph" transform="scale(1 1) rotate(0) translate(4 562.8732)">
<title>twoDegreesRelationshipsDiagram</title>
<polygon fill="#ffffff" stroke="transparent" points="-4,4 -4,-562.8732 760,-562.8732 760,4 -4,4"/>
<text text-anchor="middle" x="72.4936" y="-7.3" font-family="Helvetica,sans-Serif" font-size="11.00" fill="#000000">Generated by SchemaSpy</text>
<!-- ciclo_aulas -->
<g id="node1" class="node">
<title>ciclo_aulas</title>
<g id="a_node1"><a xlink:href="../../tables/ciclo_aulas.html" xlink:title="ciclo_aulas" target="_top">
<polygon fill="#ffffff" stroke="transparent" points="453,-60.8732 453,-209.8732 576,-209.8732 576,-60.8732 453,-60.8732"/>
<polygon fill="#f5f5f5" stroke="transparent" points="453.5,-186.3732 453.5,-209.3732 576.5,-209.3732 576.5,-186.3732 453.5,-186.3732"/>
<polygon fill="none" stroke="#000000" points="453.5,-186.3732 453.5,-209.3732 576.5,-209.3732 576.5,-186.3732 453.5,-186.3732"/>
<text text-anchor="start" x="458.5" y="-195.4732" font-family="Helvetica,sans-Serif" font-weight="bold" font-size="11.00" fill="#000000">ciclo_aulas</text>
<text text-anchor="start" x="541.5437" y="-194.4732" font-family="Helvetica,sans-Serif" font-size="11.00" fill="#000000">[table]</text>
<polygon fill="none" stroke="#000000" points="453.5,-164.3732 453.5,-186.3732 576.5,-186.3732 576.5,-164.3732 453.5,-164.3732"/>
<image xlink:href="../../images/primaryKeys.png" width="11px" height="12px" preserveAspectRatio="xMinYMin meet" x="458.5" y="-181.373"/>
<text text-anchor="start" x="473.5" y="-171.4732" font-family="Helvetica,sans-Serif" font-size="11.00" fill="#000000">aula_id</text>
<polygon fill="none" stroke="#000000" points="453.5,-142.3732 453.5,-164.3732 576.5,-164.3732 576.5,-142.3732 453.5,-142.3732"/>
<image xlink:href="../../images/foreignKeys.png" width="11px" height="12px" preserveAspectRatio="xMinYMin meet" x="458.5" y="-159.373"/>
<text text-anchor="start" x="473.5" y="-149.4732" font-family="Helvetica,sans-Serif" font-size="11.00" fill="#000000">sede_id</text>
<polygon fill="none" stroke="#000000" points="453.5,-120.3732 453.5,-142.3732 576.5,-142.3732 576.5,-120.3732 453.5,-120.3732"/>
<image xlink:href="../../images/foreignKeys.png" width="11px" height="12px" preserveAspectRatio="xMinYMin meet" x="458.5" y="-137.373"/>
<text text-anchor="start" x="473.5" y="-127.4732" font-family="Helvetica,sans-Serif" font-size="11.00" fill="#000000">ciclo_id</text>
<polygon fill="none" stroke="#000000" points="453.5,-98.3732 453.5,-120.3732 576.5,-120.3732 576.5,-98.3732 453.5,-98.3732"/>
<image xlink:href="../../images/foreignKeys.png" width="11px" height="12px" preserveAspectRatio="xMinYMin meet" x="458.5" y="-115.373"/>
<text text-anchor="start" x="473.5" y="-105.4732" font-family="Helvetica,sans-Serif" font-size="11.00" fill="#000000">curso_id</text>
<polygon fill="none" stroke="#000000" points="453.5,-79.3732 453.5,-98.3732 576.5,-98.3732 576.5,-79.3732 453.5,-79.3732"/>
<text text-anchor="start" x="456.5" y="-85.4732" font-family="Helvetica,sans-Serif" font-size="11.00" fill="#000000">...</text>
<polygon fill="#ffffff" stroke="transparent" points="453.5,-60.3732 453.5,-79.3732 495.5,-79.3732 495.5,-60.3732 453.5,-60.3732"/>
<polygon fill="none" stroke="#000000" points="453.5,-60.3732 453.5,-79.3732 495.5,-79.3732 495.5,-60.3732 453.5,-60.3732"/>
<text text-anchor="start" x="456.5" y="-66.4732" font-family="Helvetica,sans-Serif" font-size="11.00" fill="#000000">&lt; 3</text>
<polygon fill="#ffffff" stroke="transparent" points="495.5,-60.3732 495.5,-79.3732 544.5,-79.3732 544.5,-60.3732 495.5,-60.3732"/>
<polygon fill="none" stroke="#000000" points="495.5,-60.3732 495.5,-79.3732 544.5,-79.3732 544.5,-60.3732 495.5,-60.3732"/>
<text text-anchor="start" x="509.1105" y="-66.4732" font-family="Helvetica,sans-Serif" font-size="11.00" fill="#000000">0 rows</text>
<polygon fill="#ffffff" stroke="transparent" points="544.5,-60.3732 544.5,-79.3732 576.5,-79.3732 576.5,-60.3732 544.5,-60.3732"/>
<polygon fill="none" stroke="#000000" points="544.5,-60.3732 544.5,-79.3732 576.5,-79.3732 576.5,-60.3732 544.5,-60.3732"/>
<text text-anchor="start" x="557.9053" y="-66.4732" font-family="Helvetica,sans-Serif" font-size="11.00" fill="#000000">1 &gt;</text>
</a>
</g>
</g>
<!-- curso_ciclos -->
<g id="node2" class="node">
<title>curso_ciclos</title>
<g id="a_node2"><a xlink:href="../../tables/curso_ciclos.html" xlink:title="curso_ciclos" target="_top">
<polygon fill="#ffffff" stroke="transparent" points="180,-168.3732 180,-390.3732 404,-390.3732 404,-168.3732 180,-168.3732"/>
<polygon fill="#f5f5f5" stroke="transparent" points="182,-365.3732 182,-388.3732 402,-388.3732 402,-365.3732 182,-365.3732"/>
<polygon fill="none" stroke="#000000" points="182,-365.3732 182,-388.3732 402,-388.3732 402,-365.3732 182,-365.3732"/>
<text text-anchor="start" x="187" y="-374.4732" font-family="Helvetica,sans-Serif" font-weight="bold" font-size="11.00" fill="#000000">curso_ciclos</text>
<text text-anchor="start" x="367.0437" y="-373.4732" font-family="Helvetica,sans-Serif" font-size="11.00" fill="#000000">[table]</text>
<polygon fill="none" stroke="#000000" points="182,-343.3732 182,-365.3732 305,-365.3732 305,-343.3732 182,-343.3732"/>
<image xlink:href="../../images/primaryKeys.png" width="11px" height="12px" preserveAspectRatio="xMinYMin meet" x="187" y="-360.373"/>
<text text-anchor="start" x="202" y="-350.4732" font-family="Helvetica,sans-Serif" font-size="11.00" fill="#000000">ciclo_id</text>
<polygon fill="none" stroke="#000000" points="305,-343.3732 305,-365.3732 402,-365.3732 402,-343.3732 305,-343.3732"/>
<text text-anchor="start" x="308" y="-351.0732" font-family="Helvetica,sans-Serif" font-size="11.00" fill="#000000">serial[10]</text>
<polygon fill="none" stroke="#000000" points="182,-321.3732 182,-343.3732 305,-343.3732 305,-321.3732 182,-321.3732"/>
<image xlink:href="../../images/foreignKeys.png" width="11px" height="12px" preserveAspectRatio="xMinYMin meet" x="187" y="-338.373"/>
<text text-anchor="start" x="202" y="-328.4732" font-family="Helvetica,sans-Serif" font-size="11.00" fill="#000000">curso_id</text>
<polygon fill="none" stroke="#000000" points="305,-321.3732 305,-343.3732 402,-343.3732 402,-321.3732 305,-321.3732"/>
<text text-anchor="start" x="308" y="-329.0732" font-family="Helvetica,sans-Serif" font-size="11.00" fill="#000000">int4[10]</text>
<polygon fill="none" stroke="#000000" points="182,-299.3732 182,-321.3732 305,-321.3732 305,-299.3732 182,-299.3732"/>
<text text-anchor="start" x="202" y="-306.4732" font-family="Helvetica,sans-Serif" font-size="11.00" fill="#000000">nivel</text>
<polygon fill="none" stroke="#000000" points="305,-299.3732 305,-321.3732 402,-321.3732 402,-299.3732 305,-299.3732"/>
<text text-anchor="start" x="308" y="-307.0732" font-family="Helvetica,sans-Serif" font-size="11.00" fill="#000000">varchar[50]</text>
<polygon fill="none" stroke="#000000" points="182,-277.3732 182,-299.3732 305,-299.3732 305,-277.3732 182,-277.3732"/>
<text text-anchor="start" x="202" y="-284.4732" font-family="Helvetica,sans-Serif" font-size="11.00" fill="#000000">fec_inicio</text>
<polygon fill="none" stroke="#000000" points="305,-277.3732 305,-299.3732 402,-299.3732 402,-277.3732 305,-277.3732"/>
<text text-anchor="start" x="308" y="-285.0732" font-family="Helvetica,sans-Serif" font-size="11.00" fill="#000000">timestamptz[35,6]</text>
<polygon fill="none" stroke="#000000" points="182,-255.3732 182,-277.3732 305,-277.3732 305,-255.3732 182,-255.3732"/>
<text text-anchor="start" x="202" y="-262.4732" font-family="Helvetica,sans-Serif" font-size="11.00" fill="#000000">fec_fin</text>
<polygon fill="none" stroke="#000000" points="305,-255.3732 305,-277.3732 402,-277.3732 402,-255.3732 305,-255.3732"/>
<text text-anchor="start" x="308" y="-263.0732" font-family="Helvetica,sans-Serif" font-size="11.00" fill="#000000">timestamptz[35,6]</text>
<polygon fill="none" stroke="#000000" points="182,-233.3732 182,-255.3732 305,-255.3732 305,-233.3732 182,-233.3732"/>
<text text-anchor="start" x="202" y="-240.4732" font-family="Helvetica,sans-Serif" font-size="11.00" fill="#000000">meses</text>
<polygon fill="none" stroke="#000000" points="305,-233.3732 305,-255.3732 402,-255.3732 402,-233.3732 305,-233.3732"/>
<text text-anchor="start" x="307.9468" y="-241.0732" font-family="Helvetica,sans-Serif" font-size="11.00" fill="#000000">_text[2147483647]</text>
<polygon fill="none" stroke="#000000" points="182,-211.3732 182,-233.3732 305,-233.3732 305,-211.3732 182,-211.3732"/>
<text text-anchor="start" x="202" y="-218.4732" font-family="Helvetica,sans-Serif" font-size="11.00" fill="#000000">fec_modificacion</text>
<polygon fill="none" stroke="#000000" points="305,-211.3732 305,-233.3732 402,-233.3732 402,-211.3732 305,-211.3732"/>
<text text-anchor="start" x="308" y="-219.0732" font-family="Helvetica,sans-Serif" font-size="11.00" fill="#000000">timestamptz[35,6]</text>
<polygon fill="none" stroke="#000000" points="182,-189.3732 182,-211.3732 305,-211.3732 305,-189.3732 182,-189.3732"/>
<text text-anchor="start" x="202" y="-196.4732" font-family="Helvetica,sans-Serif" font-size="11.00" fill="#000000">usu_modificacion</text>
<polygon fill="none" stroke="#000000" points="305,-189.3732 305,-211.3732 402,-211.3732 402,-189.3732 305,-189.3732"/>
<text text-anchor="start" x="308" y="-197.0732" font-family="Helvetica,sans-Serif" font-size="11.00" fill="#000000">varchar[20]</text>
<polygon fill="#ffffff" stroke="transparent" points="182,-170.3732 182,-189.3732 235,-189.3732 235,-170.3732 182,-170.3732"/>
<polygon fill="none" stroke="#000000" points="182,-170.3732 182,-189.3732 235,-189.3732 235,-170.3732 182,-170.3732"/>
<text text-anchor="start" x="185" y="-176.4732" font-family="Helvetica,sans-Serif" font-size="11.00" fill="#000000">&lt; 1</text>
<polygon fill="#ffffff" stroke="transparent" points="235,-170.3732 235,-189.3732 305,-189.3732 305,-170.3732 235,-170.3732"/>
<polygon fill="none" stroke="#000000" points="235,-170.3732 235,-189.3732 305,-189.3732 305,-170.3732 235,-170.3732"/>
<text text-anchor="start" x="269.6105" y="-176.4732" font-family="Helvetica,sans-Serif" font-size="11.00" fill="#000000">0 rows</text>
<polygon fill="#ffffff" stroke="transparent" points="305,-170.3732 305,-189.3732 402,-189.3732 402,-170.3732 305,-170.3732"/>
<polygon fill="none" stroke="#000000" points="305,-170.3732 305,-189.3732 402,-189.3732 402,-170.3732 305,-170.3732"/>
<text text-anchor="start" x="383.4053" y="-176.4732" font-family="Helvetica,sans-Serif" font-size="11.00" fill="#000000">2 &gt;</text>
<polygon fill="none" stroke="#000000" stroke-width="2" points="181,-169.3732 181,-389.3732 403,-389.3732 403,-169.3732 181,-169.3732"/>
</a>
</g>
</g>
<!-- ciclo_aulas&#45;&gt;curso_ciclos -->
<g id="edge1" class="edge">
<title>ciclo_aulas:w&#45;&gt;curso_ciclos:e</title>
<path fill="none" stroke="#000000" d="M439.0045,-133.301C367.64,-155.0969 498.157,-354.3732 402,-354.3732"/>
<polygon fill="#000000" stroke="#000000" points="445.5698,-132.4279 453.9746,-134.9417 449.5349,-131.9005 453.5,-131.3732 453.5,-131.3732 453.5,-131.3732 449.5349,-131.9005 453.0254,-127.8046 445.5698,-132.4279 445.5698,-132.4279"/>
<ellipse fill="none" stroke="#000000" cx="442.3978" cy="-132.8498" rx="3.2" ry="3.2"/>
</g>
<!-- cursos -->
<g id="node3" class="node">
<title>cursos</title>
<g id="a_node3"><a xlink:href="../../tables/cursos.html" xlink:title="cursos" target="_top">
<polygon fill="#ffffff" stroke="transparent" points="8,-336.8732 8,-419.8732 131,-419.8732 131,-336.8732 8,-336.8732"/>
<polygon fill="#f5f5f5" stroke="transparent" points="8.5,-396.3732 8.5,-419.3732 131.5,-419.3732 131.5,-396.3732 8.5,-396.3732"/>
<polygon fill="none" stroke="#000000" points="8.5,-396.3732 8.5,-419.3732 131.5,-419.3732 131.5,-396.3732 8.5,-396.3732"/>
<text text-anchor="start" x="13.5" y="-405.4732" font-family="Helvetica,sans-Serif" font-weight="bold" font-size="11.00" fill="#000000">cursos</text>
<text text-anchor="start" x="96.5437" y="-404.4732" font-family="Helvetica,sans-Serif" font-size="11.00" fill="#000000">[table]</text>
<polygon fill="none" stroke="#000000" points="8.5,-374.3732 8.5,-396.3732 131.5,-396.3732 131.5,-374.3732 8.5,-374.3732"/>
<image xlink:href="../../images/primaryKeys.png" width="11px" height="12px" preserveAspectRatio="xMinYMin meet" x="13.5" y="-391.373"/>
<text text-anchor="start" x="28.5" y="-381.4732" font-family="Helvetica,sans-Serif" font-size="11.00" fill="#000000">curso_id</text>
<polygon fill="none" stroke="#000000" points="8.5,-355.3732 8.5,-374.3732 131.5,-374.3732 131.5,-355.3732 8.5,-355.3732"/>
<text text-anchor="start" x="11.5" y="-361.4732" font-family="Helvetica,sans-Serif" font-size="11.00" fill="#000000">...</text>
<polygon fill="#ffffff" stroke="transparent" points="8.5,-336.3732 8.5,-355.3732 49.5,-355.3732 49.5,-336.3732 8.5,-336.3732"/>
<polygon fill="none" stroke="#000000" points="8.5,-336.3732 8.5,-355.3732 49.5,-355.3732 49.5,-336.3732 8.5,-336.3732"/>
<text text-anchor="start" x="11.5" y="-342.4732" font-family="Helvetica,sans-Serif" font-size="11.00" fill="#000000"> &#160;</text>
<polygon fill="#ffffff" stroke="transparent" points="49.5,-336.3732 49.5,-355.3732 95.5,-355.3732 95.5,-336.3732 49.5,-336.3732"/>
<polygon fill="none" stroke="#000000" points="49.5,-336.3732 49.5,-355.3732 95.5,-355.3732 95.5,-336.3732 49.5,-336.3732"/>
<text text-anchor="start" x="65.6105" y="-342.4732" font-family="Helvetica,sans-Serif" font-size="11.00" fill="#000000">1 row</text>
<polygon fill="#ffffff" stroke="transparent" points="95.5,-336.3732 95.5,-355.3732 131.5,-355.3732 131.5,-336.3732 95.5,-336.3732"/>
<polygon fill="none" stroke="#000000" points="95.5,-336.3732 95.5,-355.3732 131.5,-355.3732 131.5,-336.3732 95.5,-336.3732"/>
<text text-anchor="start" x="112.9053" y="-342.4732" font-family="Helvetica,sans-Serif" font-size="11.00" fill="#000000">4 &gt;</text>
</a>
</g>
</g>
<!-- ciclo_aulas&#45;&gt;cursos -->
<g id="edge2" class="edge">
<title>ciclo_aulas:w&#45;&gt;cursos:e</title>
<path fill="none" stroke="#000000" d="M439.5143,-104.698C430.2819,-96.8398 428.4894,-81.2654 412,-75.3732 311.5536,-39.4803 252.1614,-5.0033 172,-75.3732 119.7891,-121.2066 200.9743,-385.3732 131.5,-385.3732"/>
<polygon fill="#000000" stroke="#000000" points="445.9127,-106.8368 452.3587,-112.7875 449.7063,-108.105 453.5,-109.3732 453.5,-109.3732 453.5,-109.3732 449.7063,-108.105 454.6413,-105.9589 445.9127,-106.8368 445.9127,-106.8368"/>
<ellipse fill="none" stroke="#000000" cx="442.8778" cy="-105.8223" rx="3.2" ry="3.2"/>
</g>
<!-- sedes -->
<g id="node4" class="node">
<title>sedes</title>
<g id="a_node4"><a xlink:href="../../tables/sedes.html" xlink:title="sedes" target="_top">
<polygon fill="#ffffff" stroke="transparent" points="256,-85.8732 256,-146.8732 328,-146.8732 328,-85.8732 256,-85.8732"/>
<polygon fill="#f5f5f5" stroke="transparent" points="256,-123.3732 256,-146.3732 328,-146.3732 328,-123.3732 256,-123.3732"/>
<polygon fill="none" stroke="#000000" points="256,-123.3732 256,-146.3732 328,-146.3732 328,-123.3732 256,-123.3732"/>
<text text-anchor="start" x="260.8277" y="-132.4732" font-family="Helvetica,sans-Serif" font-weight="bold" font-size="11.00" fill="#000000">sedes</text>
<text text-anchor="start" x="293.5219" y="-131.4732" font-family="Helvetica,sans-Serif" font-size="11.00" fill="#000000">[table]</text>
<polygon fill="none" stroke="#000000" points="256,-104.3732 256,-123.3732 328,-123.3732 328,-104.3732 256,-104.3732"/>
<text text-anchor="start" x="259" y="-110.4732" font-family="Helvetica,sans-Serif" font-size="11.00" fill="#000000">...</text>
<polygon fill="#ffffff" stroke="transparent" points="256,-85.3732 256,-104.3732 268,-104.3732 268,-85.3732 256,-85.3732"/>
<polygon fill="none" stroke="#000000" points="256,-85.3732 256,-104.3732 268,-104.3732 268,-85.3732 256,-85.3732"/>
<text text-anchor="start" x="258.9431" y="-91.4732" font-family="Helvetica,sans-Serif" font-size="11.00" fill="#000000"> &#160;</text>
<polygon fill="#ffffff" stroke="transparent" points="268,-85.3732 268,-104.3732 306,-104.3732 306,-85.3732 268,-85.3732"/>
<polygon fill="none" stroke="#000000" points="268,-85.3732 268,-104.3732 306,-104.3732 306,-85.3732 268,-85.3732"/>
<text text-anchor="start" x="270.8053" y="-91.4732" font-family="Helvetica,sans-Serif" font-size="11.00" fill="#000000">0 rows</text>
<polygon fill="#ffffff" stroke="transparent" points="306,-85.3732 306,-104.3732 328,-104.3732 328,-85.3732 306,-85.3732"/>
<polygon fill="none" stroke="#000000" points="306,-85.3732 306,-104.3732 328,-104.3732 328,-85.3732 306,-85.3732"/>
<text text-anchor="start" x="309.4053" y="-91.4732" font-family="Helvetica,sans-Serif" font-size="11.00" fill="#000000">3 &gt;</text>
</a>
</g>
</g>
<!-- ciclo_aulas&#45;&gt;sedes -->
<g id="edge3" class="edge">
<title>ciclo_aulas:w&#45;&gt;sedes:e</title>
<path fill="none" stroke="#000000" d="M438.8622,-152.4626C393.0409,-146.5085 381.2827,-113.3732 328,-113.3732"/>
<polygon fill="#000000" stroke="#000000" points="445.5154,-152.8764 453.2765,-156.9662 449.5077,-153.1248 453.5,-153.3732 453.5,-153.3732 453.5,-153.3732 449.5077,-153.1248 453.7235,-149.7801 445.5154,-152.8764 445.5154,-152.8764"/>
<ellipse fill="none" stroke="#000000" cx="442.3216" cy="-152.6777" rx="3.2" ry="3.2"/>
</g>
<!-- curso_ciclos&#45;&gt;cursos -->
<g id="edge7" class="edge">
<title>curso_ciclos:w&#45;&gt;cursos:e</title>
<path fill="none" stroke="#000000" d="M168.0458,-337.2643C153.2722,-350.3849 157.9358,-385.3732 131.5,-385.3732"/>
<polygon fill="#000000" stroke="#000000" points="174.4503,-335.0194 183.1908,-335.7705 178.2252,-333.6963 182,-332.3732 182,-332.3732 182,-332.3732 178.2252,-333.6963 180.8092,-328.9758 174.4503,-335.0194 174.4503,-335.0194"/>
<ellipse fill="none" stroke="#000000" cx="171.4305" cy="-336.078" rx="3.2" ry="3.2"/>
</g>
<!-- ciclo_profesores -->
<g id="node5" class="node">
<title>ciclo_profesores</title>
<g id="a_node5"><a xlink:href="../../tables/ciclo_profesores.html" xlink:title="ciclo_profesores" target="_top">
<polygon fill="#ffffff" stroke="transparent" points="625,-243.8732 625,-392.8732 748,-392.8732 748,-243.8732 625,-243.8732"/>
<polygon fill="#f5f5f5" stroke="transparent" points="625.5,-369.3732 625.5,-392.3732 748.5,-392.3732 748.5,-369.3732 625.5,-369.3732"/>
<polygon fill="none" stroke="#000000" points="625.5,-369.3732 625.5,-392.3732 748.5,-392.3732 748.5,-369.3732 625.5,-369.3732"/>
<text text-anchor="start" x="630.4666" y="-378.4732" font-family="Helvetica,sans-Serif" font-weight="bold" font-size="11.00" fill="#000000">ciclo_profesores</text>
<text text-anchor="start" x="714.0219" y="-377.4732" font-family="Helvetica,sans-Serif" font-size="11.00" fill="#000000">[table]</text>
<polygon fill="none" stroke="#000000" points="625.5,-347.3732 625.5,-369.3732 748.5,-369.3732 748.5,-347.3732 625.5,-347.3732"/>
<image xlink:href="../../images/primaryKeys.png" width="11px" height="12px" preserveAspectRatio="xMinYMin meet" x="630.5" y="-364.373"/>
<text text-anchor="start" x="645.5" y="-354.4732" font-family="Helvetica,sans-Serif" font-size="11.00" fill="#000000">ciclo_profesor_id</text>
<polygon fill="none" stroke="#000000" points="625.5,-325.3732 625.5,-347.3732 748.5,-347.3732 748.5,-325.3732 625.5,-325.3732"/>
<image xlink:href="../../images/foreignKeys.png" width="11px" height="12px" preserveAspectRatio="xMinYMin meet" x="630.5" y="-342.373"/>
<text text-anchor="start" x="645.5" y="-332.4732" font-family="Helvetica,sans-Serif" font-size="11.00" fill="#000000">profesor_id</text>
<polygon fill="none" stroke="#000000" points="625.5,-303.3732 625.5,-325.3732 748.5,-325.3732 748.5,-303.3732 625.5,-303.3732"/>
<image xlink:href="../../images/foreignKeys.png" width="11px" height="12px" preserveAspectRatio="xMinYMin meet" x="630.5" y="-320.373"/>
<text text-anchor="start" x="645.5" y="-310.4732" font-family="Helvetica,sans-Serif" font-size="11.00" fill="#000000">ciclo_id</text>
<polygon fill="none" stroke="#000000" points="625.5,-281.3732 625.5,-303.3732 748.5,-303.3732 748.5,-281.3732 625.5,-281.3732"/>
<image xlink:href="../../images/foreignKeys.png" width="11px" height="12px" preserveAspectRatio="xMinYMin meet" x="630.5" y="-298.373"/>
<text text-anchor="start" x="645.5" y="-288.4732" font-family="Helvetica,sans-Serif" font-size="11.00" fill="#000000">aula_id</text>
<polygon fill="none" stroke="#000000" points="625.5,-262.3732 625.5,-281.3732 748.5,-281.3732 748.5,-262.3732 625.5,-262.3732"/>
<text text-anchor="start" x="628.5" y="-268.4732" font-family="Helvetica,sans-Serif" font-size="11.00" fill="#000000">...</text>
<polygon fill="#ffffff" stroke="transparent" points="625.5,-243.3732 625.5,-262.3732 672.5,-262.3732 672.5,-243.3732 625.5,-243.3732"/>
<polygon fill="none" stroke="#000000" points="625.5,-243.3732 625.5,-262.3732 672.5,-262.3732 672.5,-243.3732 625.5,-243.3732"/>
<text text-anchor="start" x="628.5" y="-249.4732" font-family="Helvetica,sans-Serif" font-size="11.00" fill="#000000">&lt; 3</text>
<polygon fill="#ffffff" stroke="transparent" points="672.5,-243.3732 672.5,-262.3732 723.5,-262.3732 723.5,-243.3732 672.5,-243.3732"/>
<polygon fill="none" stroke="#000000" points="672.5,-243.3732 672.5,-262.3732 723.5,-262.3732 723.5,-243.3732 672.5,-243.3732"/>
<text text-anchor="start" x="688.1105" y="-249.4732" font-family="Helvetica,sans-Serif" font-size="11.00" fill="#000000">0 rows</text>
<polygon fill="#ffffff" stroke="transparent" points="723.5,-243.3732 723.5,-262.3732 748.5,-262.3732 748.5,-243.3732 723.5,-243.3732"/>
<polygon fill="none" stroke="#000000" points="723.5,-243.3732 723.5,-262.3732 748.5,-262.3732 748.5,-243.3732 723.5,-243.3732"/>
<text text-anchor="start" x="739.3862" y="-249.4732" font-family="Helvetica,sans-Serif" font-size="11.00" fill="#000000"> &#160;</text>
</a>
</g>
</g>
<!-- ciclo_profesores&#45;&gt;ciclo_aulas -->
<g id="edge4" class="edge">
<title>ciclo_profesores:w&#45;&gt;ciclo_aulas:e</title>
<path fill="none" stroke="#000000" d="M611.3892,-288.7433C581.2353,-268.995 626.9302,-175.3732 576.5,-175.3732"/>
<polygon fill="#000000" stroke="#000000" points="617.7522,-290.3801 624.6031,-295.8597 621.6261,-291.3766 625.5,-292.3732 625.5,-292.3732 625.5,-292.3732 621.6261,-291.3766 626.3969,-288.8867 617.7522,-290.3801 617.7522,-290.3801"/>
<ellipse fill="none" stroke="#000000" cx="614.6531" cy="-289.5829" rx="3.2" ry="3.2"/>
</g>
<!-- ciclo_profesores&#45;&gt;curso_ciclos -->
<g id="edge5" class="edge">
<title>ciclo_profesores:w&#45;&gt;curso_ciclos:e</title>
<path fill="none" stroke="#000000" d="M611.0547,-314.2602C541.901,-313.1864 516.8243,-305.3168 445,-328.3732 423.7357,-335.1992 424.3331,-354.3732 402,-354.3732"/>
<polygon fill="#000000" stroke="#000000" points="617.5002,-314.3106 625.4718,-317.9731 621.5001,-314.3419 625.5,-314.3732 625.5,-314.3732 625.5,-314.3732 621.5001,-314.3419 625.5282,-310.7733 617.5002,-314.3106 617.5002,-314.3106"/>
<ellipse fill="none" stroke="#000000" cx="614.3003" cy="-314.2855" rx="3.2" ry="3.2"/>
</g>
<!-- profesores -->
<g id="node6" class="node">
<title>profesores</title>
<g id="a_node6"><a xlink:href="../../tables/profesores.html" xlink:title="profesores" target="_top">
<polygon fill="#ffffff" stroke="transparent" points="467.5,-338.8732 467.5,-399.8732 561.5,-399.8732 561.5,-338.8732 467.5,-338.8732"/>
<polygon fill="#f5f5f5" stroke="transparent" points="467.5,-376.3732 467.5,-399.3732 561.5,-399.3732 561.5,-376.3732 467.5,-376.3732"/>
<polygon fill="none" stroke="#000000" points="467.5,-376.3732 467.5,-399.3732 561.5,-399.3732 561.5,-376.3732 467.5,-376.3732"/>
<text text-anchor="start" x="472.0224" y="-385.4732" font-family="Helvetica,sans-Serif" font-weight="bold" font-size="11.00" fill="#000000">profesores</text>
<text text-anchor="start" x="527.0219" y="-384.4732" font-family="Helvetica,sans-Serif" font-size="11.00" fill="#000000">[table]</text>
<polygon fill="none" stroke="#000000" points="467.5,-357.3732 467.5,-376.3732 561.5,-376.3732 561.5,-357.3732 467.5,-357.3732"/>
<text text-anchor="start" x="470.5" y="-363.4732" font-family="Helvetica,sans-Serif" font-size="11.00" fill="#000000">...</text>
<polygon fill="#ffffff" stroke="transparent" points="467.5,-338.3732 467.5,-357.3732 495.5,-357.3732 495.5,-338.3732 467.5,-338.3732"/>
<polygon fill="none" stroke="#000000" points="467.5,-338.3732 467.5,-357.3732 495.5,-357.3732 495.5,-338.3732 467.5,-338.3732"/>
<text text-anchor="start" x="470.5" y="-344.4732" font-family="Helvetica,sans-Serif" font-size="11.00" fill="#000000">&lt; 1</text>
<polygon fill="#ffffff" stroke="transparent" points="495.5,-338.3732 495.5,-357.3732 536.5,-357.3732 536.5,-338.3732 495.5,-338.3732"/>
<polygon fill="none" stroke="#000000" points="495.5,-338.3732 495.5,-357.3732 536.5,-357.3732 536.5,-338.3732 495.5,-338.3732"/>
<text text-anchor="start" x="501.1105" y="-344.4732" font-family="Helvetica,sans-Serif" font-size="11.00" fill="#000000">0 rows</text>
<polygon fill="#ffffff" stroke="transparent" points="536.5,-338.3732 536.5,-357.3732 561.5,-357.3732 561.5,-338.3732 536.5,-338.3732"/>
<polygon fill="none" stroke="#000000" points="536.5,-338.3732 536.5,-357.3732 561.5,-357.3732 561.5,-338.3732 536.5,-338.3732"/>
<text text-anchor="start" x="542.9053" y="-344.4732" font-family="Helvetica,sans-Serif" font-size="11.00" fill="#000000">1 &gt;</text>
</a>
</g>
</g>
<!-- ciclo_profesores&#45;&gt;profesores -->
<g id="edge6" class="edge">
<title>ciclo_profesores:w&#45;&gt;profesores:e</title>
<path fill="none" stroke="#000000" d="M611.1442,-338.931C592.6882,-346.1858 587.2696,-366.3732 561.5,-366.3732"/>
<polygon fill="#000000" stroke="#000000" points="617.624,-337.7765 626.1315,-339.9174 621.562,-337.0748 625.5,-336.3732 625.5,-336.3732 625.5,-336.3732 621.562,-337.0748 624.8685,-332.829 617.624,-337.7765 617.624,-337.7765"/>
<ellipse fill="none" stroke="#000000" cx="614.4736" cy="-338.3378" rx="3.2" ry="3.2"/>
</g>
<!-- leads -->
<g id="node7" class="node">
<title>leads</title>
<g id="a_node7"><a xlink:href="../../tables/leads.html" xlink:title="leads" target="_top">
<polygon fill="#ffffff" stroke="transparent" points="256.5,-493.8732 256.5,-554.8732 327.5,-554.8732 327.5,-493.8732 256.5,-493.8732"/>
<polygon fill="#f5f5f5" stroke="transparent" points="257,-531.3732 257,-554.3732 328,-554.3732 328,-531.3732 257,-531.3732"/>
<polygon fill="none" stroke="#000000" points="257,-531.3732 257,-554.3732 328,-554.3732 328,-531.3732 257,-531.3732"/>
<text text-anchor="start" x="262" y="-540.4732" font-family="Helvetica,sans-Serif" font-weight="bold" font-size="11.00" fill="#000000">leads</text>
<text text-anchor="start" x="293.0437" y="-539.4732" font-family="Helvetica,sans-Serif" font-size="11.00" fill="#000000">[table]</text>
<polygon fill="none" stroke="#000000" points="257,-512.3732 257,-531.3732 328,-531.3732 328,-512.3732 257,-512.3732"/>
<text text-anchor="start" x="260" y="-518.4732" font-family="Helvetica,sans-Serif" font-size="11.00" fill="#000000">...</text>
<polygon fill="#ffffff" stroke="transparent" points="257,-493.3732 257,-512.3732 278,-512.3732 278,-493.3732 257,-493.3732"/>
<polygon fill="none" stroke="#000000" points="257,-493.3732 257,-512.3732 278,-512.3732 278,-493.3732 257,-493.3732"/>
<text text-anchor="start" x="259.7027" y="-499.4732" font-family="Helvetica,sans-Serif" font-size="11.00" fill="#000000">&lt; 4</text>
<polygon fill="#ffffff" stroke="transparent" points="278,-493.3732 278,-512.3732 316,-512.3732 316,-493.3732 278,-493.3732"/>
<polygon fill="none" stroke="#000000" points="278,-493.3732 278,-512.3732 316,-512.3732 316,-493.3732 278,-493.3732"/>
<text text-anchor="start" x="280.8053" y="-499.4732" font-family="Helvetica,sans-Serif" font-size="11.00" fill="#000000">0 rows</text>
<polygon fill="#ffffff" stroke="transparent" points="316,-493.3732 316,-512.3732 328,-512.3732 328,-493.3732 316,-493.3732"/>
<polygon fill="none" stroke="#000000" points="316,-493.3732 316,-512.3732 328,-512.3732 328,-493.3732 316,-493.3732"/>
<text text-anchor="start" x="318.9431" y="-499.4732" font-family="Helvetica,sans-Serif" font-size="11.00" fill="#000000"> &#160;</text>
</a>
</g>
</g>
<!-- leads&#45;&gt;cursos -->
<g id="edge8" class="edge">
<title>leads:w&#45;&gt;cursos:e</title>
<path fill="none" stroke="#000000" d="M242.2362,-520.9303C211.5752,-518.8721 197.1229,-509.2229 172,-483.3732 139.1537,-449.5766 178.6284,-385.3732 131.5,-385.3732"/>
<polygon fill="#000000" stroke="#000000" points="249.0036,-521.1332 256.892,-524.9716 253.0018,-521.2532 257,-521.3732 257,-521.3732 257,-521.3732 253.0018,-521.2532 257.108,-517.7748 249.0036,-521.1332 249.0036,-521.1332"/>
<ellipse fill="none" stroke="#000000" cx="245.805" cy="-521.0373" rx="3.2" ry="3.2"/>
</g>
<!-- oportunidades -->
<g id="node8" class="node">
<title>oportunidades</title>
<g id="a_node8"><a xlink:href="../../tables/oportunidades.html" xlink:title="oportunidades" target="_top">
<polygon fill="#ffffff" stroke="transparent" points="236,-411.8732 236,-472.8732 348,-472.8732 348,-411.8732 236,-411.8732"/>
<polygon fill="#f5f5f5" stroke="transparent" points="236,-449.3732 236,-472.3732 348,-472.3732 348,-449.3732 236,-449.3732"/>
<polygon fill="none" stroke="#000000" points="236,-449.3732 236,-472.3732 348,-472.3732 348,-449.3732 236,-449.3732"/>
<text text-anchor="start" x="240.6531" y="-458.4732" font-family="Helvetica,sans-Serif" font-weight="bold" font-size="11.00" fill="#000000">oportunidades</text>
<text text-anchor="start" x="313.5219" y="-457.4732" font-family="Helvetica,sans-Serif" font-size="11.00" fill="#000000">[table]</text>
<polygon fill="none" stroke="#000000" points="236,-430.3732 236,-449.3732 348,-449.3732 348,-430.3732 236,-430.3732"/>
<text text-anchor="start" x="239" y="-436.4732" font-family="Helvetica,sans-Serif" font-size="11.00" fill="#000000">...</text>
<polygon fill="#ffffff" stroke="transparent" points="236,-411.3732 236,-430.3732 273,-430.3732 273,-411.3732 236,-411.3732"/>
<polygon fill="none" stroke="#000000" points="236,-411.3732 236,-430.3732 273,-430.3732 273,-411.3732 236,-411.3732"/>
<text text-anchor="start" x="239" y="-417.4732" font-family="Helvetica,sans-Serif" font-size="11.00" fill="#000000">&lt; 4</text>
<polygon fill="#ffffff" stroke="transparent" points="273,-411.3732 273,-430.3732 319,-430.3732 319,-411.3732 273,-411.3732"/>
<polygon fill="none" stroke="#000000" points="273,-411.3732 273,-430.3732 319,-430.3732 319,-411.3732 273,-411.3732"/>
<text text-anchor="start" x="283.6105" y="-417.4732" font-family="Helvetica,sans-Serif" font-size="11.00" fill="#000000">0 rows</text>
<polygon fill="#ffffff" stroke="transparent" points="319,-411.3732 319,-430.3732 348,-430.3732 348,-411.3732 319,-411.3732"/>
<polygon fill="none" stroke="#000000" points="319,-411.3732 319,-430.3732 348,-430.3732 348,-411.3732 319,-411.3732"/>
<text text-anchor="start" x="329.4053" y="-417.4732" font-family="Helvetica,sans-Serif" font-size="11.00" fill="#000000">1 &gt;</text>
</a>
</g>
</g>
<!-- oportunidades&#45;&gt;cursos -->
<g id="edge9" class="edge">
<title>oportunidades:w&#45;&gt;cursos:e</title>
<path fill="none" stroke="#000000" d="M222.0358,-435.8301C194.1782,-423.8165 153.5552,-385.3732 131.5,-385.3732"/>
<polygon fill="#000000" stroke="#000000" points="228.2457,-437.4057 235.1146,-442.8626 232.1229,-438.3894 236,-439.3732 236,-439.3732 236,-439.3732 232.1229,-438.3894 236.8854,-435.8837 228.2457,-437.4057 228.2457,-437.4057"/>
<ellipse fill="none" stroke="#000000" cx="225.144" cy="-436.6186" rx="3.2" ry="3.2"/>
</g>
</g>
</svg>
