<?xml version="1.0" encoding="UTF-8" standalone="no"?>
<!DOCTYPE svg PUBLIC "-//W3C//DTD SVG 1.1//EN"
 "http://www.w3.org/Graphics/SVG/1.1/DTD/svg11.dtd">
<!-- Generated by graphviz version 2.40.1 (20161225.0304)
 -->
<!-- Title: twoDegreesRelationshipsDiagram Pages: 1 -->
<svg width="783pt" height="653pt"
 viewBox="0.00 0.00 783.00 652.70" xmlns="http://www.w3.org/2000/svg" xmlns:xlink="http://www.w3.org/1999/xlink">
<g id="graph0" class="graph" transform="scale(1 1) rotate(0) translate(4 648.7)">
<title>twoDegreesRelationshipsDiagram</title>
<polygon fill="#ffffff" stroke="transparent" points="-4,4 -4,-648.7 779,-648.7 779,4 -4,4"/>
<text text-anchor="middle" x="72.4936" y="-7.3" font-family="Helvetica,sans-Serif" font-size="11.00" fill="#000000">Generated by SchemaSpy</text>
<!-- casos -->
<g id="node1" class="node">
<title>casos</title>
<g id="a_node1"><a xlink:href="../../tables/casos.html" xlink:title="casos" target="_top">
<polygon fill="#ffffff" stroke="transparent" points="474,-579.7 474,-640.7 545,-640.7 545,-579.7 474,-579.7"/>
<polygon fill="#f5f5f5" stroke="transparent" points="474.5,-617.2 474.5,-640.2 545.5,-640.2 545.5,-617.2 474.5,-617.2"/>
<polygon fill="none" stroke="#000000" points="474.5,-617.2 474.5,-640.2 545.5,-640.2 545.5,-617.2 474.5,-617.2"/>
<text text-anchor="start" x="479.1351" y="-626.3" font-family="Helvetica,sans-Serif" font-weight="bold" font-size="11.00" fill="#000000">casos</text>
<text text-anchor="start" x="511.0219" y="-625.3" font-family="Helvetica,sans-Serif" font-size="11.00" fill="#000000">[table]</text>
<polygon fill="none" stroke="#000000" points="474.5,-598.2 474.5,-617.2 545.5,-617.2 545.5,-598.2 474.5,-598.2"/>
<text text-anchor="start" x="477.5" y="-604.3" font-family="Helvetica,sans-Serif" font-size="11.00" fill="#000000">...</text>
<polygon fill="#ffffff" stroke="transparent" points="474.5,-579.2 474.5,-598.2 495.5,-598.2 495.5,-579.2 474.5,-579.2"/>
<polygon fill="none" stroke="#000000" points="474.5,-579.2 474.5,-598.2 495.5,-598.2 495.5,-579.2 474.5,-579.2"/>
<text text-anchor="start" x="477.2027" y="-585.3" font-family="Helvetica,sans-Serif" font-size="11.00" fill="#000000">&lt; 3</text>
<polygon fill="#ffffff" stroke="transparent" points="495.5,-579.2 495.5,-598.2 533.5,-598.2 533.5,-579.2 495.5,-579.2"/>
<polygon fill="none" stroke="#000000" points="495.5,-579.2 495.5,-598.2 533.5,-598.2 533.5,-579.2 495.5,-579.2"/>
<text text-anchor="start" x="498.3053" y="-585.3" font-family="Helvetica,sans-Serif" font-size="11.00" fill="#000000">0 rows</text>
<polygon fill="#ffffff" stroke="transparent" points="533.5,-579.2 533.5,-598.2 545.5,-598.2 545.5,-579.2 533.5,-579.2"/>
<polygon fill="none" stroke="#000000" points="533.5,-579.2 533.5,-598.2 545.5,-598.2 545.5,-579.2 533.5,-579.2"/>
<text text-anchor="start" x="536.4431" y="-585.3" font-family="Helvetica,sans-Serif" font-size="11.00" fill="#000000"> &#160;</text>
</a>
</g>
</g>
<!-- contactos -->
<g id="node2" class="node">
<title>contactos</title>
<g id="a_node2"><a xlink:href="../../tables/contactos.html" xlink:title="contactos" target="_top">
<polygon fill="#ffffff" stroke="transparent" points="292.5,-527.7 292.5,-588.7 382.5,-588.7 382.5,-527.7 292.5,-527.7"/>
<polygon fill="#f5f5f5" stroke="transparent" points="292.5,-565.2 292.5,-588.2 382.5,-588.2 382.5,-565.2 292.5,-565.2"/>
<polygon fill="none" stroke="#000000" points="292.5,-565.2 292.5,-588.2 382.5,-588.2 382.5,-565.2 292.5,-565.2"/>
<text text-anchor="start" x="297.4633" y="-574.3" font-family="Helvetica,sans-Serif" font-weight="bold" font-size="11.00" fill="#000000">contactos</text>
<text text-anchor="start" x="348.0219" y="-573.3" font-family="Helvetica,sans-Serif" font-size="11.00" fill="#000000">[table]</text>
<polygon fill="none" stroke="#000000" points="292.5,-546.2 292.5,-565.2 382.5,-565.2 382.5,-546.2 292.5,-546.2"/>
<text text-anchor="start" x="295.5" y="-552.3" font-family="Helvetica,sans-Serif" font-size="11.00" fill="#000000">...</text>
<polygon fill="#ffffff" stroke="transparent" points="292.5,-527.2 292.5,-546.2 318.5,-546.2 318.5,-527.2 292.5,-527.2"/>
<polygon fill="none" stroke="#000000" points="292.5,-527.2 292.5,-546.2 318.5,-546.2 318.5,-527.2 292.5,-527.2"/>
<text text-anchor="start" x="295.5" y="-533.3" font-family="Helvetica,sans-Serif" font-size="11.00" fill="#000000">&lt; 2</text>
<polygon fill="#ffffff" stroke="transparent" points="318.5,-527.2 318.5,-546.2 358.5,-546.2 358.5,-527.2 318.5,-527.2"/>
<polygon fill="none" stroke="#000000" points="318.5,-527.2 318.5,-546.2 358.5,-546.2 358.5,-527.2 318.5,-527.2"/>
<text text-anchor="start" x="323.1105" y="-533.3" font-family="Helvetica,sans-Serif" font-size="11.00" fill="#000000">2 rows</text>
<polygon fill="#ffffff" stroke="transparent" points="358.5,-527.2 358.5,-546.2 382.5,-546.2 382.5,-527.2 358.5,-527.2"/>
<polygon fill="none" stroke="#000000" points="358.5,-527.2 358.5,-546.2 382.5,-546.2 382.5,-527.2 358.5,-527.2"/>
<text text-anchor="start" x="363.9053" y="-533.3" font-family="Helvetica,sans-Serif" font-size="11.00" fill="#000000">5 &gt;</text>
</a>
</g>
</g>
<!-- casos&#45;&gt;contactos -->
<g id="edge1" class="edge">
<title>casos:w&#45;&gt;contactos:e</title>
<path fill="none" stroke="#000000" d="M459.8451,-605.225C427.314,-595.7266 423.9642,-555.2 382.5,-555.2"/>
<polygon fill="#000000" stroke="#000000" points="466.5717,-606.1315 474.0192,-610.7677 470.5358,-606.6657 474.5,-607.2 474.5,-607.2 474.5,-607.2 470.5358,-606.6657 474.9808,-603.6323 466.5717,-606.1315 466.5717,-606.1315"/>
<ellipse fill="none" stroke="#000000" cx="463.4003" cy="-605.7041" rx="3.2" ry="3.2"/>
</g>
<!-- leads -->
<g id="node3" class="node">
<title>leads</title>
<g id="a_node3"><a xlink:href="../../tables/leads.html" xlink:title="leads" target="_top">
<polygon fill="#ffffff" stroke="transparent" points="276,-307.7 276,-478.7 399,-478.7 399,-307.7 276,-307.7"/>
<polygon fill="#f5f5f5" stroke="transparent" points="276.5,-455.2 276.5,-478.2 399.5,-478.2 399.5,-455.2 276.5,-455.2"/>
<polygon fill="none" stroke="#000000" points="276.5,-455.2 276.5,-478.2 399.5,-478.2 399.5,-455.2 276.5,-455.2"/>
<text text-anchor="start" x="281.5" y="-464.3" font-family="Helvetica,sans-Serif" font-weight="bold" font-size="11.00" fill="#000000">leads</text>
<text text-anchor="start" x="364.5437" y="-463.3" font-family="Helvetica,sans-Serif" font-size="11.00" fill="#000000">[table]</text>
<polygon fill="none" stroke="#000000" points="276.5,-433.2 276.5,-455.2 399.5,-455.2 399.5,-433.2 276.5,-433.2"/>
<image xlink:href="../../images/primaryKeys.png" width="11px" height="12px" preserveAspectRatio="xMinYMin meet" x="281.5" y="-450.2"/>
<text text-anchor="start" x="296.5" y="-440.3" font-family="Helvetica,sans-Serif" font-size="11.00" fill="#000000">lead_id</text>
<polygon fill="none" stroke="#000000" points="276.5,-411.2 276.5,-433.2 399.5,-433.2 399.5,-411.2 276.5,-411.2"/>
<image xlink:href="../../images/foreignKeys.png" width="11px" height="12px" preserveAspectRatio="xMinYMin meet" x="281.5" y="-428.2"/>
<text text-anchor="start" x="296.5" y="-418.3" font-family="Helvetica,sans-Serif" font-size="11.00" fill="#000000">usu_asignado_id</text>
<polygon fill="none" stroke="#000000" points="276.5,-389.2 276.5,-411.2 399.5,-411.2 399.5,-389.2 276.5,-389.2"/>
<image xlink:href="../../images/foreignKeys.png" width="11px" height="12px" preserveAspectRatio="xMinYMin meet" x="281.5" y="-406.2"/>
<text text-anchor="start" x="296.5" y="-396.3" font-family="Helvetica,sans-Serif" font-size="11.00" fill="#000000">campana_id</text>
<polygon fill="none" stroke="#000000" points="276.5,-367.2 276.5,-389.2 399.5,-389.2 399.5,-367.2 276.5,-367.2"/>
<image xlink:href="../../images/foreignKeys.png" width="11px" height="12px" preserveAspectRatio="xMinYMin meet" x="281.5" y="-384.2"/>
<text text-anchor="start" x="296.5" y="-374.3" font-family="Helvetica,sans-Serif" font-size="11.00" fill="#000000">persona_id</text>
<polygon fill="none" stroke="#000000" points="276.5,-345.2 276.5,-367.2 399.5,-367.2 399.5,-345.2 276.5,-345.2"/>
<image xlink:href="../../images/foreignKeys.png" width="11px" height="12px" preserveAspectRatio="xMinYMin meet" x="281.5" y="-362.2"/>
<text text-anchor="start" x="296.5" y="-352.3" font-family="Helvetica,sans-Serif" font-size="11.00" fill="#000000">curso_id</text>
<polygon fill="none" stroke="#000000" points="276.5,-326.2 276.5,-345.2 399.5,-345.2 399.5,-326.2 276.5,-326.2"/>
<text text-anchor="start" x="279.5" y="-332.3" font-family="Helvetica,sans-Serif" font-size="11.00" fill="#000000">...</text>
<polygon fill="#ffffff" stroke="transparent" points="276.5,-307.2 276.5,-326.2 318.5,-326.2 318.5,-307.2 276.5,-307.2"/>
<polygon fill="none" stroke="#000000" points="276.5,-307.2 276.5,-326.2 318.5,-326.2 318.5,-307.2 276.5,-307.2"/>
<text text-anchor="start" x="279.5" y="-313.3" font-family="Helvetica,sans-Serif" font-size="11.00" fill="#000000">&lt; 4</text>
<polygon fill="#ffffff" stroke="transparent" points="318.5,-307.2 318.5,-326.2 367.5,-326.2 367.5,-307.2 318.5,-307.2"/>
<polygon fill="none" stroke="#000000" points="318.5,-307.2 318.5,-326.2 367.5,-326.2 367.5,-307.2 318.5,-307.2"/>
<text text-anchor="start" x="332.1105" y="-313.3" font-family="Helvetica,sans-Serif" font-size="11.00" fill="#000000">2 rows</text>
<polygon fill="#ffffff" stroke="transparent" points="367.5,-307.2 367.5,-326.2 399.5,-326.2 399.5,-307.2 367.5,-307.2"/>
<polygon fill="none" stroke="#000000" points="367.5,-307.2 367.5,-326.2 399.5,-326.2 399.5,-307.2 367.5,-307.2"/>
<text text-anchor="start" x="380.9053" y="-313.3" font-family="Helvetica,sans-Serif" font-size="11.00" fill="#000000">3 &gt;</text>
</a>
</g>
</g>
<!-- casos&#45;&gt;leads -->
<g id="edge2" class="edge">
<title>casos:w&#45;&gt;leads:e</title>
<path fill="none" stroke="#000000" d="M460.0004,-604.8958C405.8243,-585.084 473.6382,-444.2 399.5,-444.2"/>
<polygon fill="#000000" stroke="#000000" points="466.5991,-605.9444 473.935,-610.7554 470.5496,-606.5722 474.5,-607.2 474.5,-607.2 474.5,-607.2 470.5496,-606.5722 475.065,-603.6446 466.5991,-605.9444 466.5991,-605.9444"/>
<ellipse fill="none" stroke="#000000" cx="463.4388" cy="-605.4421" rx="3.2" ry="3.2"/>
</g>
<!-- usuarios -->
<g id="node4" class="node">
<title>usuarios</title>
<g id="a_node4"><a xlink:href="../../tables/usuarios.html" xlink:title="usuarios" target="_top">
<polygon fill="#ffffff" stroke="transparent" points="75.5,-394.7 75.5,-455.7 159.5,-455.7 159.5,-394.7 75.5,-394.7"/>
<polygon fill="#f5f5f5" stroke="transparent" points="75.5,-432.2 75.5,-455.2 159.5,-455.2 159.5,-432.2 75.5,-432.2"/>
<polygon fill="none" stroke="#000000" points="75.5,-432.2 75.5,-455.2 159.5,-455.2 159.5,-432.2 75.5,-432.2"/>
<text text-anchor="start" x="80.2188" y="-441.3" font-family="Helvetica,sans-Serif" font-weight="bold" font-size="11.00" fill="#000000">usuarios</text>
<text text-anchor="start" x="125.0219" y="-440.3" font-family="Helvetica,sans-Serif" font-size="11.00" fill="#000000">[table]</text>
<polygon fill="none" stroke="#000000" points="75.5,-413.2 75.5,-432.2 159.5,-432.2 159.5,-413.2 75.5,-413.2"/>
<text text-anchor="start" x="78.5" y="-419.3" font-family="Helvetica,sans-Serif" font-size="11.00" fill="#000000">...</text>
<polygon fill="#ffffff" stroke="transparent" points="75.5,-394.2 75.5,-413.2 96.5,-413.2 96.5,-394.2 75.5,-394.2"/>
<polygon fill="none" stroke="#000000" points="75.5,-394.2 75.5,-413.2 96.5,-413.2 96.5,-394.2 75.5,-394.2"/>
<text text-anchor="start" x="78.5" y="-400.3" font-family="Helvetica,sans-Serif" font-size="11.00" fill="#000000"> &#160;</text>
<polygon fill="#ffffff" stroke="transparent" points="96.5,-394.2 96.5,-413.2 133.5,-413.2 133.5,-394.2 96.5,-394.2"/>
<polygon fill="none" stroke="#000000" points="96.5,-394.2 96.5,-413.2 133.5,-413.2 133.5,-394.2 96.5,-394.2"/>
<text text-anchor="start" x="103.6105" y="-400.3" font-family="Helvetica,sans-Serif" font-size="11.00" fill="#000000">1 row</text>
<polygon fill="#ffffff" stroke="transparent" points="133.5,-394.2 133.5,-413.2 159.5,-413.2 159.5,-394.2 133.5,-394.2"/>
<polygon fill="none" stroke="#000000" points="133.5,-394.2 133.5,-413.2 159.5,-413.2 159.5,-394.2 133.5,-394.2"/>
<text text-anchor="start" x="140.9053" y="-400.3" font-family="Helvetica,sans-Serif" font-size="11.00" fill="#000000">6 &gt;</text>
</a>
</g>
</g>
<!-- casos&#45;&gt;usuarios -->
<g id="edge3" class="edge">
<title>casos:w&#45;&gt;usuarios:e</title>
<path fill="none" stroke="#000000" d="M459.8663,-607.6063C377.9785,-612.1449 336.7767,-652.1918 268,-599.2 228.2418,-568.5667 261.8071,-533.6322 235,-491.2 210.7207,-452.7691 204.9579,-422.2 159.5,-422.2"/>
<polygon fill="#000000" stroke="#000000" points="466.5031,-607.4221 474.5999,-610.7986 470.5015,-607.311 474.5,-607.2 474.5,-607.2 474.5,-607.2 470.5015,-607.311 474.4001,-603.6014 466.5031,-607.4221 466.5031,-607.4221"/>
<ellipse fill="none" stroke="#000000" cx="463.3043" cy="-607.5109" rx="3.2" ry="3.2"/>
</g>
<!-- personas -->
<g id="node7" class="node">
<title>personas</title>
<g id="a_node7"><a xlink:href="../../tables/personas.html" xlink:title="personas" target="_top">
<polygon fill="#ffffff" stroke="transparent" points="73.5,-501.7 73.5,-562.7 161.5,-562.7 161.5,-501.7 73.5,-501.7"/>
<polygon fill="#f5f5f5" stroke="transparent" points="73.5,-539.2 73.5,-562.2 161.5,-562.2 161.5,-539.2 73.5,-539.2"/>
<polygon fill="none" stroke="#000000" points="73.5,-539.2 73.5,-562.2 161.5,-562.2 161.5,-539.2 73.5,-539.2"/>
<text text-anchor="start" x="78.3818" y="-548.3" font-family="Helvetica,sans-Serif" font-weight="bold" font-size="11.00" fill="#000000">personas</text>
<text text-anchor="start" x="127.0219" y="-547.3" font-family="Helvetica,sans-Serif" font-size="11.00" fill="#000000">[table]</text>
<polygon fill="none" stroke="#000000" points="73.5,-520.2 73.5,-539.2 161.5,-539.2 161.5,-520.2 73.5,-520.2"/>
<text text-anchor="start" x="76.5" y="-526.3" font-family="Helvetica,sans-Serif" font-size="11.00" fill="#000000">...</text>
<polygon fill="#ffffff" stroke="transparent" points="73.5,-501.2 73.5,-520.2 93.5,-520.2 93.5,-501.2 73.5,-501.2"/>
<polygon fill="none" stroke="#000000" points="73.5,-501.2 73.5,-520.2 93.5,-520.2 93.5,-501.2 73.5,-501.2"/>
<text text-anchor="start" x="76.5" y="-507.3" font-family="Helvetica,sans-Serif" font-size="11.00" fill="#000000"> &#160;</text>
<polygon fill="#ffffff" stroke="transparent" points="93.5,-501.2 93.5,-520.2 135.5,-520.2 135.5,-501.2 93.5,-501.2"/>
<polygon fill="none" stroke="#000000" points="93.5,-501.2 93.5,-520.2 135.5,-520.2 135.5,-501.2 93.5,-501.2"/>
<text text-anchor="start" x="100.1105" y="-507.3" font-family="Helvetica,sans-Serif" font-size="11.00" fill="#000000">7 rows</text>
<polygon fill="#ffffff" stroke="transparent" points="135.5,-501.2 135.5,-520.2 161.5,-520.2 161.5,-501.2 135.5,-501.2"/>
<polygon fill="none" stroke="#000000" points="135.5,-501.2 135.5,-520.2 161.5,-520.2 161.5,-501.2 135.5,-501.2"/>
<text text-anchor="start" x="142.9053" y="-507.3" font-family="Helvetica,sans-Serif" font-size="11.00" fill="#000000">7 &gt;</text>
</a>
</g>
</g>
<!-- contactos&#45;&gt;personas -->
<g id="edge5" class="edge">
<title>contactos:w&#45;&gt;personas:e</title>
<path fill="none" stroke="#000000" d="M277.876,-554.6328C230.6191,-550.8305 215.6409,-529.2 161.5,-529.2"/>
<polygon fill="#000000" stroke="#000000" points="284.506,-554.8899 292.3604,-558.7973 288.503,-555.0449 292.5,-555.2 292.5,-555.2 292.5,-555.2 288.503,-555.0449 292.6396,-551.6027 284.506,-554.8899 284.506,-554.8899"/>
<ellipse fill="none" stroke="#000000" cx="281.3084" cy="-554.7658" rx="3.2" ry="3.2"/>
</g>
<!-- leads&#45;&gt;usuarios -->
<g id="edge12" class="edge">
<title>leads:w&#45;&gt;usuarios:e</title>
<path fill="none" stroke="#000000" d="M262.0447,-422.2C221.5232,-422.2 206.3203,-422.2 159.5,-422.2"/>
<polygon fill="#000000" stroke="#000000" points="268.5,-422.2001 276.5,-425.8 272.5,-422.2 276.5,-422.2 276.5,-422.2 276.5,-422.2 272.5,-422.2 276.5,-418.6 268.5,-422.2001 268.5,-422.2001"/>
<ellipse fill="none" stroke="#000000" cx="265.3" cy="-422.2001" rx="3.2" ry="3.2"/>
</g>
<!-- leads&#45;&gt;personas -->
<g id="edge11" class="edge">
<title>leads:w&#45;&gt;personas:e</title>
<path fill="none" stroke="#000000" d="M262.1327,-381.1781C240.0504,-392.8984 257.5313,-436.6485 235,-466.2 208.9136,-500.4142 204.5245,-529.2 161.5,-529.2"/>
<polygon fill="#000000" stroke="#000000" points="268.6665,-379.8238 277.2307,-381.7251 272.5833,-379.0119 276.5,-378.2 276.5,-378.2 276.5,-378.2 272.5833,-379.0119 275.7693,-374.6749 268.6665,-379.8238 268.6665,-379.8238"/>
<ellipse fill="none" stroke="#000000" cx="265.5331" cy="-380.4733" rx="3.2" ry="3.2"/>
</g>
<!-- cursos -->
<g id="node8" class="node">
<title>cursos</title>
<g id="a_node8"><a xlink:href="../../tables/cursos.html" xlink:title="cursos" target="_top">
<polygon fill="#ffffff" stroke="transparent" points="8,-38.2 8,-238.2 227,-238.2 227,-38.2 8,-38.2"/>
<polygon fill="#f5f5f5" stroke="transparent" points="10.5,-213.2 10.5,-236.2 225.5,-236.2 225.5,-213.2 10.5,-213.2"/>
<polygon fill="none" stroke="#000000" points="10.5,-213.2 10.5,-236.2 225.5,-236.2 225.5,-213.2 10.5,-213.2"/>
<text text-anchor="start" x="15.5" y="-222.3" font-family="Helvetica,sans-Serif" font-weight="bold" font-size="11.00" fill="#000000">cursos</text>
<text text-anchor="start" x="190.5437" y="-221.3" font-family="Helvetica,sans-Serif" font-size="11.00" fill="#000000">[table]</text>
<polygon fill="none" stroke="#000000" points="10.5,-191.2 10.5,-213.2 133.5,-213.2 133.5,-191.2 10.5,-191.2"/>
<image xlink:href="../../images/primaryKeys.png" width="11px" height="12px" preserveAspectRatio="xMinYMin meet" x="15.5" y="-208.2"/>
<text text-anchor="start" x="30.5" y="-198.3" font-family="Helvetica,sans-Serif" font-size="11.00" fill="#000000">curso_id</text>
<polygon fill="none" stroke="#000000" points="133.5,-191.2 133.5,-213.2 225.5,-213.2 225.5,-191.2 133.5,-191.2"/>
<text text-anchor="start" x="136.5" y="-198.9" font-family="Helvetica,sans-Serif" font-size="11.00" fill="#000000">serial[10]</text>
<polygon fill="none" stroke="#000000" points="10.5,-169.2 10.5,-191.2 133.5,-191.2 133.5,-169.2 10.5,-169.2"/>
<text text-anchor="start" x="30.5" y="-176.3" font-family="Helvetica,sans-Serif" font-size="11.00" fill="#000000">nombre</text>
<polygon fill="none" stroke="#000000" points="133.5,-169.2 133.5,-191.2 225.5,-191.2 225.5,-169.2 133.5,-169.2"/>
<text text-anchor="start" x="136.5" y="-176.9" font-family="Helvetica,sans-Serif" font-size="11.00" fill="#000000">varchar[255]</text>
<polygon fill="none" stroke="#000000" points="10.5,-147.2 10.5,-169.2 133.5,-169.2 133.5,-147.2 10.5,-147.2"/>
<text text-anchor="start" x="30.5" y="-154.3" font-family="Helvetica,sans-Serif" font-size="11.00" fill="#000000">descripcion</text>
<polygon fill="none" stroke="#000000" points="133.5,-147.2 133.5,-169.2 225.5,-169.2 225.5,-147.2 133.5,-147.2"/>
<text text-anchor="start" x="136.5" y="-154.9" font-family="Helvetica,sans-Serif" font-size="11.00" fill="#000000">text[2147483647]</text>
<polygon fill="none" stroke="#000000" points="10.5,-125.2 10.5,-147.2 133.5,-147.2 133.5,-125.2 10.5,-125.2"/>
<text text-anchor="start" x="30.5" y="-132.3" font-family="Helvetica,sans-Serif" font-size="11.00" fill="#000000">usu_insercion</text>
<polygon fill="none" stroke="#000000" points="133.5,-125.2 133.5,-147.2 225.5,-147.2 225.5,-125.2 133.5,-125.2"/>
<text text-anchor="start" x="136.5" y="-132.9" font-family="Helvetica,sans-Serif" font-size="11.00" fill="#000000">varchar[20]</text>
<polygon fill="none" stroke="#000000" points="10.5,-103.2 10.5,-125.2 133.5,-125.2 133.5,-103.2 10.5,-103.2"/>
<text text-anchor="start" x="30.5" y="-110.3" font-family="Helvetica,sans-Serif" font-size="11.00" fill="#000000">fec_insercion</text>
<polygon fill="none" stroke="#000000" points="133.5,-103.2 133.5,-125.2 225.5,-125.2 225.5,-103.2 133.5,-103.2"/>
<text text-anchor="start" x="136.1023" y="-110.9" font-family="Helvetica,sans-Serif" font-size="11.00" fill="#000000">timestamptz[35,6]</text>
<polygon fill="none" stroke="#000000" points="10.5,-81.2 10.5,-103.2 133.5,-103.2 133.5,-81.2 10.5,-81.2"/>
<text text-anchor="start" x="30.5" y="-88.3" font-family="Helvetica,sans-Serif" font-size="11.00" fill="#000000">fec_modificacion</text>
<polygon fill="none" stroke="#000000" points="133.5,-81.2 133.5,-103.2 225.5,-103.2 225.5,-81.2 133.5,-81.2"/>
<text text-anchor="start" x="136.1023" y="-88.9" font-family="Helvetica,sans-Serif" font-size="11.00" fill="#000000">timestamptz[35,6]</text>
<polygon fill="none" stroke="#000000" points="10.5,-59.2 10.5,-81.2 133.5,-81.2 133.5,-59.2 10.5,-59.2"/>
<text text-anchor="start" x="30.5" y="-66.3" font-family="Helvetica,sans-Serif" font-size="11.00" fill="#000000">usu_modificacion</text>
<polygon fill="none" stroke="#000000" points="133.5,-59.2 133.5,-81.2 225.5,-81.2 225.5,-59.2 133.5,-59.2"/>
<text text-anchor="start" x="136.5" y="-66.9" font-family="Helvetica,sans-Serif" font-size="11.00" fill="#000000">varchar[20]</text>
<polygon fill="#ffffff" stroke="transparent" points="10.5,-40.2 10.5,-59.2 66.5,-59.2 66.5,-40.2 10.5,-40.2"/>
<polygon fill="none" stroke="#000000" points="10.5,-40.2 10.5,-59.2 66.5,-59.2 66.5,-40.2 10.5,-40.2"/>
<text text-anchor="start" x="13.5" y="-46.3" font-family="Helvetica,sans-Serif" font-size="11.00" fill="#000000">&lt; 0</text>
<polygon fill="#ffffff" stroke="transparent" points="66.5,-40.2 66.5,-59.2 133.5,-59.2 133.5,-40.2 66.5,-40.2"/>
<polygon fill="none" stroke="#000000" points="66.5,-40.2 66.5,-59.2 133.5,-59.2 133.5,-40.2 66.5,-40.2"/>
<text text-anchor="start" x="103.6105" y="-46.3" font-family="Helvetica,sans-Serif" font-size="11.00" fill="#000000">1 row</text>
<polygon fill="#ffffff" stroke="transparent" points="133.5,-40.2 133.5,-59.2 225.5,-59.2 225.5,-40.2 133.5,-40.2"/>
<polygon fill="none" stroke="#000000" points="133.5,-40.2 133.5,-59.2 225.5,-59.2 225.5,-40.2 133.5,-40.2"/>
<text text-anchor="start" x="206.9053" y="-46.3" font-family="Helvetica,sans-Serif" font-size="11.00" fill="#000000">3 &gt;</text>
<polygon fill="none" stroke="#000000" stroke-width="2" points="9,-39.2 9,-237.2 226,-237.2 226,-39.2 9,-39.2"/>
</a>
</g>
</g>
<!-- leads&#45;&gt;cursos -->
<g id="edge10" class="edge">
<title>leads:w&#45;&gt;cursos:e</title>
<path fill="none" stroke="#000000" d="M262.1893,-353.3956C218.2665,-332.5235 291.8264,-202.2 225.5,-202.2"/>
<polygon fill="#000000" stroke="#000000" points="268.6493,-354.6615 275.8077,-359.7328 272.5747,-355.4307 276.5,-356.2 276.5,-356.2 276.5,-356.2 272.5747,-355.4307 277.1923,-352.6672 268.6493,-354.6615 268.6493,-354.6615"/>
<ellipse fill="none" stroke="#000000" cx="265.5091" cy="-354.0461" rx="3.2" ry="3.2"/>
</g>
<!-- campanas -->
<g id="node11" class="node">
<title>campanas</title>
<g id="a_node11"><a xlink:href="../../tables/campanas.html" xlink:title="campanas" target="_top">
<polygon fill="#ffffff" stroke="transparent" points="71,-286.7 71,-347.7 164,-347.7 164,-286.7 71,-286.7"/>
<polygon fill="#f5f5f5" stroke="transparent" points="71.5,-324.2 71.5,-347.2 164.5,-347.2 164.5,-324.2 71.5,-324.2"/>
<polygon fill="none" stroke="#000000" points="71.5,-324.2 71.5,-347.2 164.5,-347.2 164.5,-324.2 71.5,-324.2"/>
<text text-anchor="start" x="76.1318" y="-333.3" font-family="Helvetica,sans-Serif" font-weight="bold" font-size="11.00" fill="#000000">campanas</text>
<text text-anchor="start" x="130.0219" y="-332.3" font-family="Helvetica,sans-Serif" font-size="11.00" fill="#000000">[table]</text>
<polygon fill="none" stroke="#000000" points="71.5,-305.2 71.5,-324.2 164.5,-324.2 164.5,-305.2 71.5,-305.2"/>
<text text-anchor="start" x="74.5" y="-311.3" font-family="Helvetica,sans-Serif" font-size="11.00" fill="#000000">...</text>
<polygon fill="#ffffff" stroke="transparent" points="71.5,-286.2 71.5,-305.2 94.5,-305.2 94.5,-286.2 71.5,-286.2"/>
<polygon fill="none" stroke="#000000" points="71.5,-286.2 71.5,-305.2 94.5,-305.2 94.5,-286.2 71.5,-286.2"/>
<text text-anchor="start" x="74.5" y="-292.3" font-family="Helvetica,sans-Serif" font-size="11.00" fill="#000000"> &#160;</text>
<polygon fill="#ffffff" stroke="transparent" points="94.5,-286.2 94.5,-305.2 137.5,-305.2 137.5,-286.2 94.5,-286.2"/>
<polygon fill="none" stroke="#000000" points="94.5,-286.2 94.5,-305.2 137.5,-305.2 137.5,-286.2 94.5,-286.2"/>
<text text-anchor="start" x="102.1105" y="-292.3" font-family="Helvetica,sans-Serif" font-size="11.00" fill="#000000">2 rows</text>
<polygon fill="#ffffff" stroke="transparent" points="137.5,-286.2 137.5,-305.2 164.5,-305.2 164.5,-286.2 137.5,-286.2"/>
<polygon fill="none" stroke="#000000" points="137.5,-286.2 137.5,-305.2 164.5,-305.2 164.5,-286.2 137.5,-286.2"/>
<text text-anchor="start" x="145.9053" y="-292.3" font-family="Helvetica,sans-Serif" font-size="11.00" fill="#000000">2 &gt;</text>
</a>
</g>
</g>
<!-- leads&#45;&gt;campanas -->
<g id="edge9" class="edge">
<title>leads:w&#45;&gt;campanas:e</title>
<path fill="none" stroke="#000000" d="M261.913,-398.4038C215.5007,-386.0539 221.8662,-314.2 164.5,-314.2"/>
<polygon fill="#000000" stroke="#000000" points="268.56,-399.2222 276.06,-403.773 272.53,-399.7111 276.5,-400.2 276.5,-400.2 276.5,-400.2 272.53,-399.7111 276.94,-396.627 268.56,-399.2222 268.56,-399.2222"/>
<ellipse fill="none" stroke="#000000" cx="265.384" cy="-398.8311" rx="3.2" ry="3.2"/>
</g>
<!-- ciclo_profesores -->
<g id="node5" class="node">
<title>ciclo_profesores</title>
<g id="a_node5"><a xlink:href="../../tables/ciclo_profesores.html" xlink:title="ciclo_profesores" target="_top">
<polygon fill="#ffffff" stroke="transparent" points="448,-102.7 448,-163.7 571,-163.7 571,-102.7 448,-102.7"/>
<polygon fill="#f5f5f5" stroke="transparent" points="448.5,-140.2 448.5,-163.2 571.5,-163.2 571.5,-140.2 448.5,-140.2"/>
<polygon fill="none" stroke="#000000" points="448.5,-140.2 448.5,-163.2 571.5,-163.2 571.5,-140.2 448.5,-140.2"/>
<text text-anchor="start" x="453.4666" y="-149.3" font-family="Helvetica,sans-Serif" font-weight="bold" font-size="11.00" fill="#000000">ciclo_profesores</text>
<text text-anchor="start" x="537.0219" y="-148.3" font-family="Helvetica,sans-Serif" font-size="11.00" fill="#000000">[table]</text>
<polygon fill="none" stroke="#000000" points="448.5,-121.2 448.5,-140.2 571.5,-140.2 571.5,-121.2 448.5,-121.2"/>
<text text-anchor="start" x="451.5" y="-127.3" font-family="Helvetica,sans-Serif" font-size="11.00" fill="#000000">...</text>
<polygon fill="#ffffff" stroke="transparent" points="448.5,-102.2 448.5,-121.2 495.5,-121.2 495.5,-102.2 448.5,-102.2"/>
<polygon fill="none" stroke="#000000" points="448.5,-102.2 448.5,-121.2 495.5,-121.2 495.5,-102.2 448.5,-102.2"/>
<text text-anchor="start" x="451.5" y="-108.3" font-family="Helvetica,sans-Serif" font-size="11.00" fill="#000000">&lt; 2</text>
<polygon fill="#ffffff" stroke="transparent" points="495.5,-102.2 495.5,-121.2 546.5,-121.2 546.5,-102.2 495.5,-102.2"/>
<polygon fill="none" stroke="#000000" points="495.5,-102.2 495.5,-121.2 546.5,-121.2 546.5,-102.2 495.5,-102.2"/>
<text text-anchor="start" x="511.1105" y="-108.3" font-family="Helvetica,sans-Serif" font-size="11.00" fill="#000000">0 rows</text>
<polygon fill="#ffffff" stroke="transparent" points="546.5,-102.2 546.5,-121.2 571.5,-121.2 571.5,-102.2 546.5,-102.2"/>
<polygon fill="none" stroke="#000000" points="546.5,-102.2 546.5,-121.2 571.5,-121.2 571.5,-102.2 546.5,-102.2"/>
<text text-anchor="start" x="562.3862" y="-108.3" font-family="Helvetica,sans-Serif" font-size="11.00" fill="#000000"> &#160;</text>
</a>
</g>
</g>
<!-- curso_ciclos -->
<g id="node6" class="node">
<title>curso_ciclos</title>
<g id="a_node6"><a xlink:href="../../tables/curso_ciclos.html" xlink:title="curso_ciclos" target="_top">
<polygon fill="#ffffff" stroke="transparent" points="276,-64.7 276,-169.7 399,-169.7 399,-64.7 276,-64.7"/>
<polygon fill="#f5f5f5" stroke="transparent" points="276.5,-146.2 276.5,-169.2 399.5,-169.2 399.5,-146.2 276.5,-146.2"/>
<polygon fill="none" stroke="#000000" points="276.5,-146.2 276.5,-169.2 399.5,-169.2 399.5,-146.2 276.5,-146.2"/>
<text text-anchor="start" x="281.5" y="-155.3" font-family="Helvetica,sans-Serif" font-weight="bold" font-size="11.00" fill="#000000">curso_ciclos</text>
<text text-anchor="start" x="364.5437" y="-154.3" font-family="Helvetica,sans-Serif" font-size="11.00" fill="#000000">[table]</text>
<polygon fill="none" stroke="#000000" points="276.5,-124.2 276.5,-146.2 399.5,-146.2 399.5,-124.2 276.5,-124.2"/>
<image xlink:href="../../images/primaryKeys.png" width="11px" height="12px" preserveAspectRatio="xMinYMin meet" x="281.5" y="-141.2"/>
<text text-anchor="start" x="296.5" y="-131.3" font-family="Helvetica,sans-Serif" font-size="11.00" fill="#000000">ciclo_id</text>
<polygon fill="none" stroke="#000000" points="276.5,-102.2 276.5,-124.2 399.5,-124.2 399.5,-102.2 276.5,-102.2"/>
<image xlink:href="../../images/foreignKeys.png" width="11px" height="12px" preserveAspectRatio="xMinYMin meet" x="281.5" y="-119.2"/>
<text text-anchor="start" x="296.5" y="-109.3" font-family="Helvetica,sans-Serif" font-size="11.00" fill="#000000">curso_id</text>
<polygon fill="none" stroke="#000000" points="276.5,-83.2 276.5,-102.2 399.5,-102.2 399.5,-83.2 276.5,-83.2"/>
<text text-anchor="start" x="279.5" y="-89.3" font-family="Helvetica,sans-Serif" font-size="11.00" fill="#000000">...</text>
<polygon fill="#ffffff" stroke="transparent" points="276.5,-64.2 276.5,-83.2 318.5,-83.2 318.5,-64.2 276.5,-64.2"/>
<polygon fill="none" stroke="#000000" points="276.5,-64.2 276.5,-83.2 318.5,-83.2 318.5,-64.2 276.5,-64.2"/>
<text text-anchor="start" x="279.5" y="-70.3" font-family="Helvetica,sans-Serif" font-size="11.00" fill="#000000">&lt; 1</text>
<polygon fill="#ffffff" stroke="transparent" points="318.5,-64.2 318.5,-83.2 367.5,-83.2 367.5,-64.2 318.5,-64.2"/>
<polygon fill="none" stroke="#000000" points="318.5,-64.2 318.5,-83.2 367.5,-83.2 367.5,-64.2 318.5,-64.2"/>
<text text-anchor="start" x="332.1105" y="-70.3" font-family="Helvetica,sans-Serif" font-size="11.00" fill="#000000">0 rows</text>
<polygon fill="#ffffff" stroke="transparent" points="367.5,-64.2 367.5,-83.2 399.5,-83.2 399.5,-64.2 367.5,-64.2"/>
<polygon fill="none" stroke="#000000" points="367.5,-64.2 367.5,-83.2 399.5,-83.2 399.5,-64.2 367.5,-64.2"/>
<text text-anchor="start" x="380.9053" y="-70.3" font-family="Helvetica,sans-Serif" font-size="11.00" fill="#000000">1 &gt;</text>
</a>
</g>
</g>
<!-- ciclo_profesores&#45;&gt;curso_ciclos -->
<g id="edge4" class="edge">
<title>ciclo_profesores:w&#45;&gt;curso_ciclos:e</title>
<path fill="none" stroke="#000000" d="M433.9599,-131.0709C422.6606,-132.5035 415.5761,-135.2 399.5,-135.2"/>
<polygon fill="#000000" stroke="#000000" points="440.5143,-130.6784 448.7153,-133.7936 444.5072,-130.4392 448.5,-130.2 448.5,-130.2 448.5,-130.2 444.5072,-130.4392 448.2847,-126.6064 440.5143,-130.6784 440.5143,-130.6784"/>
<ellipse fill="none" stroke="#000000" cx="437.32" cy="-130.8697" rx="3.2" ry="3.2"/>
</g>
<!-- curso_ciclos&#45;&gt;cursos -->
<g id="edge6" class="edge">
<title>curso_ciclos:w&#45;&gt;cursos:e</title>
<path fill="none" stroke="#000000" d="M262.4722,-117.4927C240.0701,-135.2707 265.0348,-202.2 225.5,-202.2"/>
<polygon fill="#000000" stroke="#000000" points="268.8502,-115.541 277.5534,-116.6424 272.6751,-114.3705 276.5,-113.2 276.5,-113.2 276.5,-113.2 272.6751,-114.3705 275.4466,-109.7576 268.8502,-115.541 268.8502,-115.541"/>
<ellipse fill="none" stroke="#000000" cx="265.7902" cy="-116.4774" rx="3.2" ry="3.2"/>
</g>
<!-- encuesta_respuestas -->
<g id="node9" class="node">
<title>encuesta_respuestas</title>
<g id="a_node9"><a xlink:href="../../tables/encuesta_respuestas.html" xlink:title="encuesta_respuestas" target="_top">
<polygon fill="#ffffff" stroke="transparent" points="620,-412.7 620,-473.7 767,-473.7 767,-412.7 620,-412.7"/>
<polygon fill="#f5f5f5" stroke="transparent" points="620.5,-450.2 620.5,-473.2 767.5,-473.2 767.5,-450.2 620.5,-450.2"/>
<polygon fill="none" stroke="#000000" points="620.5,-450.2 620.5,-473.2 767.5,-473.2 767.5,-450.2 620.5,-450.2"/>
<text text-anchor="start" x="625.2302" y="-459.3" font-family="Helvetica,sans-Serif" font-weight="bold" font-size="11.00" fill="#000000">encuesta_respuestas</text>
<text text-anchor="start" x="733.0219" y="-458.3" font-family="Helvetica,sans-Serif" font-size="11.00" fill="#000000">[table]</text>
<polygon fill="none" stroke="#000000" points="620.5,-431.2 620.5,-450.2 767.5,-450.2 767.5,-431.2 620.5,-431.2"/>
<text text-anchor="start" x="623.5" y="-437.3" font-family="Helvetica,sans-Serif" font-size="11.00" fill="#000000">...</text>
<polygon fill="#ffffff" stroke="transparent" points="620.5,-412.2 620.5,-431.2 674.5,-431.2 674.5,-412.2 620.5,-412.2"/>
<polygon fill="none" stroke="#000000" points="620.5,-412.2 620.5,-431.2 674.5,-431.2 674.5,-412.2 620.5,-412.2"/>
<text text-anchor="start" x="623.5" y="-418.3" font-family="Helvetica,sans-Serif" font-size="11.00" fill="#000000">&lt; 2</text>
<polygon fill="#ffffff" stroke="transparent" points="674.5,-412.2 674.5,-431.2 729.5,-431.2 729.5,-412.2 674.5,-412.2"/>
<polygon fill="none" stroke="#000000" points="674.5,-412.2 674.5,-431.2 729.5,-431.2 729.5,-412.2 674.5,-412.2"/>
<text text-anchor="start" x="694.1105" y="-418.3" font-family="Helvetica,sans-Serif" font-size="11.00" fill="#000000">0 rows</text>
<polygon fill="#ffffff" stroke="transparent" points="729.5,-412.2 729.5,-431.2 767.5,-431.2 767.5,-412.2 729.5,-412.2"/>
<polygon fill="none" stroke="#000000" points="729.5,-412.2 729.5,-431.2 767.5,-431.2 767.5,-412.2 729.5,-412.2"/>
<text text-anchor="start" x="748.9053" y="-418.3" font-family="Helvetica,sans-Serif" font-size="11.00" fill="#000000">1 &gt;</text>
</a>
</g>
</g>
<!-- encuesta_respuestas&#45;&gt;contactos -->
<g id="edge7" class="edge">
<title>encuesta_respuestas:w&#45;&gt;contactos:e</title>
<path fill="none" stroke="#000000" d="M606.3963,-443.3735C582.2201,-457.6516 613.4112,-516.3188 579,-541.2 508.0492,-592.5012 470.0547,-555.2 382.5,-555.2"/>
<polygon fill="#000000" stroke="#000000" points="612.6951,-441.9562 621.2903,-443.7122 616.5976,-441.0781 620.5,-440.2 620.5,-440.2 620.5,-440.2 616.5976,-441.0781 619.7097,-436.6878 612.6951,-441.9562 612.6951,-441.9562"/>
<ellipse fill="none" stroke="#000000" cx="609.5732" cy="-442.6587" rx="3.2" ry="3.2"/>
</g>
<!-- oportunidades -->
<g id="node10" class="node">
<title>oportunidades</title>
<g id="a_node10"><a xlink:href="../../tables/oportunidades.html" xlink:title="oportunidades" target="_top">
<polygon fill="#ffffff" stroke="transparent" points="448,-184.7 448,-355.7 571,-355.7 571,-184.7 448,-184.7"/>
<polygon fill="#f5f5f5" stroke="transparent" points="448.5,-332.2 448.5,-355.2 571.5,-355.2 571.5,-332.2 448.5,-332.2"/>
<polygon fill="none" stroke="#000000" points="448.5,-332.2 448.5,-355.2 571.5,-355.2 571.5,-332.2 448.5,-332.2"/>
<text text-anchor="start" x="453.5" y="-341.3" font-family="Helvetica,sans-Serif" font-weight="bold" font-size="11.00" fill="#000000">oportunidades</text>
<text text-anchor="start" x="536.5437" y="-340.3" font-family="Helvetica,sans-Serif" font-size="11.00" fill="#000000">[table]</text>
<polygon fill="none" stroke="#000000" points="448.5,-310.2 448.5,-332.2 571.5,-332.2 571.5,-310.2 448.5,-310.2"/>
<image xlink:href="../../images/primaryKeys.png" width="11px" height="12px" preserveAspectRatio="xMinYMin meet" x="453.5" y="-327.2"/>
<text text-anchor="start" x="468.5" y="-317.3" font-family="Helvetica,sans-Serif" font-size="11.00" fill="#000000">oportunidad_id</text>
<polygon fill="none" stroke="#000000" points="448.5,-288.2 448.5,-310.2 571.5,-310.2 571.5,-288.2 448.5,-288.2"/>
<image xlink:href="../../images/foreignKeys.png" width="11px" height="12px" preserveAspectRatio="xMinYMin meet" x="453.5" y="-305.2"/>
<text text-anchor="start" x="468.5" y="-295.3" font-family="Helvetica,sans-Serif" font-size="11.00" fill="#000000">campana_id</text>
<polygon fill="none" stroke="#000000" points="448.5,-266.2 448.5,-288.2 571.5,-288.2 571.5,-266.2 448.5,-266.2"/>
<image xlink:href="../../images/foreignKeys.png" width="11px" height="12px" preserveAspectRatio="xMinYMin meet" x="453.5" y="-283.2"/>
<text text-anchor="start" x="468.5" y="-273.3" font-family="Helvetica,sans-Serif" font-size="11.00" fill="#000000">contacto_id</text>
<polygon fill="none" stroke="#000000" points="448.5,-244.2 448.5,-266.2 571.5,-266.2 571.5,-244.2 448.5,-244.2"/>
<image xlink:href="../../images/foreignKeys.png" width="11px" height="12px" preserveAspectRatio="xMinYMin meet" x="453.5" y="-261.2"/>
<text text-anchor="start" x="468.5" y="-251.3" font-family="Helvetica,sans-Serif" font-size="11.00" fill="#000000">curso_id</text>
<polygon fill="none" stroke="#000000" points="448.5,-222.2 448.5,-244.2 571.5,-244.2 571.5,-222.2 448.5,-222.2"/>
<image xlink:href="../../images/foreignKeys.png" width="11px" height="12px" preserveAspectRatio="xMinYMin meet" x="453.5" y="-239.2"/>
<text text-anchor="start" x="468.5" y="-229.3" font-family="Helvetica,sans-Serif" font-size="11.00" fill="#000000">usu_asignado_id</text>
<polygon fill="none" stroke="#000000" points="448.5,-203.2 448.5,-222.2 571.5,-222.2 571.5,-203.2 448.5,-203.2"/>
<text text-anchor="start" x="451.5" y="-209.3" font-family="Helvetica,sans-Serif" font-size="11.00" fill="#000000">...</text>
<polygon fill="#ffffff" stroke="transparent" points="448.5,-184.2 448.5,-203.2 490.5,-203.2 490.5,-184.2 448.5,-184.2"/>
<polygon fill="none" stroke="#000000" points="448.5,-184.2 448.5,-203.2 490.5,-203.2 490.5,-184.2 448.5,-184.2"/>
<text text-anchor="start" x="451.5" y="-190.3" font-family="Helvetica,sans-Serif" font-size="11.00" fill="#000000">&lt; 4</text>
<polygon fill="#ffffff" stroke="transparent" points="490.5,-184.2 490.5,-203.2 539.5,-203.2 539.5,-184.2 490.5,-184.2"/>
<polygon fill="none" stroke="#000000" points="490.5,-184.2 490.5,-203.2 539.5,-203.2 539.5,-184.2 490.5,-184.2"/>
<text text-anchor="start" x="504.1105" y="-190.3" font-family="Helvetica,sans-Serif" font-size="11.00" fill="#000000">6 rows</text>
<polygon fill="#ffffff" stroke="transparent" points="539.5,-184.2 539.5,-203.2 571.5,-203.2 571.5,-184.2 539.5,-184.2"/>
<polygon fill="none" stroke="#000000" points="539.5,-184.2 539.5,-203.2 571.5,-203.2 571.5,-184.2 539.5,-184.2"/>
<text text-anchor="start" x="552.9053" y="-190.3" font-family="Helvetica,sans-Serif" font-size="11.00" fill="#000000">1 &gt;</text>
</a>
</g>
</g>
<!-- encuesta_respuestas&#45;&gt;oportunidades -->
<g id="edge8" class="edge">
<title>encuesta_respuestas:w&#45;&gt;oportunidades:e</title>
<path fill="none" stroke="#000000" d="M606.2058,-436.5081C575.7333,-416.4222 622.6646,-321.2 571.5,-321.2"/>
<polygon fill="#000000" stroke="#000000" points="612.7542,-438.1994 619.5997,-443.6856 616.6271,-439.1997 620.5,-440.2 620.5,-440.2 620.5,-440.2 616.6271,-439.1997 621.4003,-436.7144 612.7542,-438.1994 612.7542,-438.1994"/>
<ellipse fill="none" stroke="#000000" cx="609.6559" cy="-437.3991" rx="3.2" ry="3.2"/>
</g>
<!-- oportunidades&#45;&gt;contactos -->
<g id="edge17" class="edge">
<title>oportunidades:w&#45;&gt;contactos:e</title>
<path fill="none" stroke="#000000" d="M434.9889,-282.7532C394.3714,-321.9345 440.6623,-555.2 382.5,-555.2"/>
<polygon fill="#000000" stroke="#000000" points="441.1006,-280.2412 449.8686,-280.5297 444.8003,-278.7206 448.5,-277.2 448.5,-277.2 448.5,-277.2 444.8003,-278.7206 447.1314,-273.8703 441.1006,-280.2412 441.1006,-280.2412"/>
<ellipse fill="none" stroke="#000000" cx="438.1408" cy="-281.4577" rx="3.2" ry="3.2"/>
</g>
<!-- oportunidades&#45;&gt;usuarios -->
<g id="edge19" class="edge">
<title>oportunidades:w&#45;&gt;usuarios:e</title>
<path fill="none" stroke="#000000" d="M433.6618,-233.0311C361.9644,-231.4462 326.3657,-220.326 268,-270.2 236.244,-297.3357 259.0388,-324.0397 235,-358.2 209.6843,-394.1747 203.4893,-422.2 159.5,-422.2"/>
<polygon fill="#000000" stroke="#000000" points="440.5005,-233.1089 448.459,-236.7998 444.5003,-233.1544 448.5,-233.2 448.5,-233.2 448.5,-233.2 444.5003,-233.1544 448.541,-229.6002 440.5005,-233.1089 440.5005,-233.1089"/>
<ellipse fill="none" stroke="#000000" cx="437.3007" cy="-233.0724" rx="3.2" ry="3.2"/>
</g>
<!-- oportunidades&#45;&gt;cursos -->
<g id="edge18" class="edge">
<title>oportunidades:w&#45;&gt;cursos:e</title>
<path fill="none" stroke="#000000" d="M434.5671,-250.6757C425.002,-242.7033 423.6634,-226.3233 407,-219.2 332.5017,-187.3534 306.5197,-202.2 225.5,-202.2"/>
<polygon fill="#000000" stroke="#000000" points="440.8911,-252.7292 447.3881,-258.624 444.6955,-253.9646 448.5,-255.2 448.5,-255.2 448.5,-255.2 444.6955,-253.9646 449.6119,-251.776 440.8911,-252.7292 440.8911,-252.7292"/>
<ellipse fill="none" stroke="#000000" cx="437.8475" cy="-251.7409" rx="3.2" ry="3.2"/>
</g>
<!-- oportunidades&#45;&gt;campanas -->
<g id="edge16" class="edge">
<title>oportunidades:w&#45;&gt;campanas:e</title>
<path fill="none" stroke="#000000" d="M434.6421,-294.982C425.5574,-288.1934 422.5945,-275.1088 407,-270.2 348.0727,-251.651 328.5342,-257.8669 268,-270.2 219.022,-280.1786 214.4842,-314.2 164.5,-314.2"/>
<polygon fill="#000000" stroke="#000000" points="440.8467,-296.8705 447.4517,-302.644 444.6733,-298.0352 448.5,-299.2 448.5,-299.2 448.5,-299.2 444.6733,-298.0352 449.5483,-295.756 440.8467,-296.8705 440.8467,-296.8705"/>
<ellipse fill="none" stroke="#000000" cx="437.7853" cy="-295.9387" rx="3.2" ry="3.2"/>
</g>
<!-- llamadas -->
<g id="node12" class="node">
<title>llamadas</title>
<g id="a_node12"><a xlink:href="../../tables/llamadas.html" xlink:title="llamadas" target="_top">
<polygon fill="#ffffff" stroke="transparent" points="466,-469.7 466,-530.7 553,-530.7 553,-469.7 466,-469.7"/>
<polygon fill="#f5f5f5" stroke="transparent" points="466.5,-507.2 466.5,-530.2 553.5,-530.2 553.5,-507.2 466.5,-507.2"/>
<polygon fill="none" stroke="#000000" points="466.5,-507.2 466.5,-530.2 553.5,-530.2 553.5,-507.2 466.5,-507.2"/>
<text text-anchor="start" x="471.4984" y="-516.3" font-family="Helvetica,sans-Serif" font-weight="bold" font-size="11.00" fill="#000000">llamadas</text>
<text text-anchor="start" x="519.0219" y="-515.3" font-family="Helvetica,sans-Serif" font-size="11.00" fill="#000000">[table]</text>
<polygon fill="none" stroke="#000000" points="466.5,-488.2 466.5,-507.2 553.5,-507.2 553.5,-488.2 466.5,-488.2"/>
<text text-anchor="start" x="469.5" y="-494.3" font-family="Helvetica,sans-Serif" font-size="11.00" fill="#000000">...</text>
<polygon fill="#ffffff" stroke="transparent" points="466.5,-469.2 466.5,-488.2 495.5,-488.2 495.5,-469.2 466.5,-469.2"/>
<polygon fill="none" stroke="#000000" points="466.5,-469.2 466.5,-488.2 495.5,-488.2 495.5,-469.2 466.5,-469.2"/>
<text text-anchor="start" x="469.5" y="-475.3" font-family="Helvetica,sans-Serif" font-size="11.00" fill="#000000">&lt; 3</text>
<polygon fill="#ffffff" stroke="transparent" points="495.5,-469.2 495.5,-488.2 537.5,-488.2 537.5,-469.2 495.5,-469.2"/>
<polygon fill="none" stroke="#000000" points="495.5,-469.2 495.5,-488.2 537.5,-488.2 537.5,-469.2 495.5,-469.2"/>
<text text-anchor="start" x="502.1105" y="-475.3" font-family="Helvetica,sans-Serif" font-size="11.00" fill="#000000">0 rows</text>
<polygon fill="#ffffff" stroke="transparent" points="537.5,-469.2 537.5,-488.2 553.5,-488.2 553.5,-469.2 537.5,-469.2"/>
<polygon fill="none" stroke="#000000" points="537.5,-469.2 537.5,-488.2 553.5,-488.2 553.5,-469.2 537.5,-469.2"/>
<text text-anchor="start" x="544.3862" y="-475.3" font-family="Helvetica,sans-Serif" font-size="11.00" fill="#000000"> &#160;</text>
</a>
</g>
</g>
<!-- llamadas&#45;&gt;contactos -->
<g id="edge13" class="edge">
<title>llamadas:w&#45;&gt;contactos:e</title>
<path fill="none" stroke="#000000" d="M452.1257,-499.5455C421.9992,-510.3964 422.3744,-555.2 382.5,-555.2"/>
<polygon fill="#000000" stroke="#000000" points="458.6044,-498.4884 467.0798,-500.753 462.5522,-497.8442 466.5,-497.2 466.5,-497.2 466.5,-497.2 462.5522,-497.8442 465.9202,-493.647 458.6044,-498.4884 458.6044,-498.4884"/>
<ellipse fill="none" stroke="#000000" cx="455.4462" cy="-499.0038" rx="3.2" ry="3.2"/>
</g>
<!-- llamadas&#45;&gt;leads -->
<g id="edge14" class="edge">
<title>llamadas:w&#45;&gt;leads:e</title>
<path fill="none" stroke="#000000" d="M452.3859,-494.0433C430.1513,-482.6334 431.8323,-444.2 399.5,-444.2"/>
<polygon fill="#000000" stroke="#000000" points="458.6929,-495.4539 465.7142,-500.7132 462.5964,-496.3269 466.5,-497.2 466.5,-497.2 466.5,-497.2 462.5964,-496.3269 467.2858,-493.6868 458.6929,-495.4539 458.6929,-495.4539"/>
<ellipse fill="none" stroke="#000000" cx="455.57" cy="-494.7554" rx="3.2" ry="3.2"/>
</g>
<!-- llamadas&#45;&gt;usuarios -->
<g id="edge15" class="edge">
<title>llamadas:w&#45;&gt;usuarios:e</title>
<path fill="none" stroke="#000000" d="M452.0767,-497.3603C375.0986,-499.0784 347.6525,-513.555 268,-489.2 213.8016,-472.628 216.1754,-422.2 159.5,-422.2"/>
<polygon fill="#000000" stroke="#000000" points="458.5005,-497.289 466.54,-500.7998 462.5002,-497.2445 466.5,-497.2 466.5,-497.2 466.5,-497.2 462.5002,-497.2445 466.46,-493.6002 458.5005,-497.289 458.5005,-497.289"/>
<ellipse fill="none" stroke="#000000" cx="455.3007" cy="-497.3246" rx="3.2" ry="3.2"/>
</g>
<!-- tareas -->
<g id="node13" class="node">
<title>tareas</title>
<g id="a_node13"><a xlink:href="../../tables/tareas.html" xlink:title="tareas" target="_top">
<polygon fill="#ffffff" stroke="transparent" points="473,-387.7 473,-448.7 546,-448.7 546,-387.7 473,-387.7"/>
<polygon fill="#f5f5f5" stroke="transparent" points="473.5,-425.2 473.5,-448.2 546.5,-448.2 546.5,-425.2 473.5,-425.2"/>
<polygon fill="none" stroke="#000000" points="473.5,-425.2 473.5,-448.2 546.5,-448.2 546.5,-425.2 473.5,-425.2"/>
<text text-anchor="start" x="478.2183" y="-434.3" font-family="Helvetica,sans-Serif" font-weight="bold" font-size="11.00" fill="#000000">tareas</text>
<text text-anchor="start" x="512.0219" y="-433.3" font-family="Helvetica,sans-Serif" font-size="11.00" fill="#000000">[table]</text>
<polygon fill="none" stroke="#000000" points="473.5,-406.2 473.5,-425.2 546.5,-425.2 546.5,-406.2 473.5,-406.2"/>
<text text-anchor="start" x="476.5" y="-412.3" font-family="Helvetica,sans-Serif" font-size="11.00" fill="#000000">...</text>
<polygon fill="#ffffff" stroke="transparent" points="473.5,-387.2 473.5,-406.2 495.5,-406.2 495.5,-387.2 473.5,-387.2"/>
<polygon fill="none" stroke="#000000" points="473.5,-387.2 473.5,-406.2 495.5,-406.2 495.5,-387.2 473.5,-387.2"/>
<text text-anchor="start" x="476.5" y="-393.3" font-family="Helvetica,sans-Serif" font-size="11.00" fill="#000000">&lt; 3</text>
<polygon fill="#ffffff" stroke="transparent" points="495.5,-387.2 495.5,-406.2 533.5,-406.2 533.5,-387.2 495.5,-387.2"/>
<polygon fill="none" stroke="#000000" points="495.5,-387.2 495.5,-406.2 533.5,-406.2 533.5,-387.2 495.5,-387.2"/>
<text text-anchor="start" x="498.3053" y="-393.3" font-family="Helvetica,sans-Serif" font-size="11.00" fill="#000000">0 rows</text>
<polygon fill="#ffffff" stroke="transparent" points="533.5,-387.2 533.5,-406.2 546.5,-406.2 546.5,-387.2 533.5,-387.2"/>
<polygon fill="none" stroke="#000000" points="533.5,-387.2 533.5,-406.2 546.5,-406.2 546.5,-387.2 533.5,-387.2"/>
<text text-anchor="start" x="537.3862" y="-393.3" font-family="Helvetica,sans-Serif" font-size="11.00" fill="#000000"> &#160;</text>
</a>
</g>
</g>
<!-- tareas&#45;&gt;contactos -->
<g id="edge20" class="edge">
<title>tareas:w&#45;&gt;contactos:e</title>
<path fill="none" stroke="#000000" d="M459.044,-417.3991C407.0871,-435.2101 451.2037,-555.2 382.5,-555.2"/>
<polygon fill="#000000" stroke="#000000" points="465.591,-416.4032 474.0414,-418.7591 469.5455,-415.8016 473.5,-415.2 473.5,-415.2 473.5,-415.2 469.5455,-415.8016 472.9586,-411.6409 465.591,-416.4032 465.591,-416.4032"/>
<ellipse fill="none" stroke="#000000" cx="462.4274" cy="-416.8844" rx="3.2" ry="3.2"/>
</g>
<!-- tareas&#45;&gt;leads -->
<g id="edge21" class="edge">
<title>tareas:w&#45;&gt;leads:e</title>
<path fill="none" stroke="#000000" d="M459.0396,-417.1028C436.3478,-423.5545 429.3048,-444.2 399.5,-444.2"/>
<polygon fill="#000000" stroke="#000000" points="465.5684,-416.2437 473.9697,-418.7692 469.5342,-415.7219 473.5,-415.2 473.5,-415.2 473.5,-415.2 469.5342,-415.7219 473.0303,-411.6308 465.5684,-416.2437 465.5684,-416.2437"/>
<ellipse fill="none" stroke="#000000" cx="462.3957" cy="-416.6612" rx="3.2" ry="3.2"/>
</g>
<!-- tareas&#45;&gt;usuarios -->
<g id="edge22" class="edge">
<title>tareas:w&#45;&gt;usuarios:e</title>
<path fill="none" stroke="#000000" d="M459.6311,-411.2705C448.9012,-403.1255 450.0866,-383.699 440,-366.2 423.024,-336.7488 435.7587,-315.3244 407,-297.2 354.7356,-264.2618 321.0681,-265.573 268,-297.2 241.5216,-312.9803 254.4244,-334.2664 235,-358.2 207.2792,-392.3558 203.4893,-422.2 159.5,-422.2"/>
<polygon fill="#000000" stroke="#000000" points="465.803,-413.0192 472.5186,-418.6637 469.6515,-414.1096 473.5,-415.2 473.5,-415.2 473.5,-415.2 469.6515,-414.1096 474.4814,-411.7363 465.803,-413.0192 465.803,-413.0192"/>
<ellipse fill="none" stroke="#000000" cx="462.7242" cy="-412.1468" rx="3.2" ry="3.2"/>
</g>
</g>
</svg>
