<?xml version="1.0" encoding="UTF-8" standalone="no"?>
<!DOCTYPE svg PUBLIC "-//W3C//DTD SVG 1.1//EN"
 "http://www.w3.org/Graphics/SVG/1.1/DTD/svg11.dtd">
<!-- Generated by graphviz version 2.40.1 (20161225.0304)
 -->
<!-- Title: twoDegreesRelationshipsDiagram Pages: 1 -->
<svg width="783pt" height="637pt"
 viewBox="0.00 0.00 783.00 636.71" xmlns="http://www.w3.org/2000/svg" xmlns:xlink="http://www.w3.org/1999/xlink">
<g id="graph0" class="graph" transform="scale(1 1) rotate(0) translate(4 632.707)">
<title>twoDegreesRelationshipsDiagram</title>
<polygon fill="#ffffff" stroke="transparent" points="-4,4 -4,-632.707 779,-632.707 779,4 -4,4"/>
<text text-anchor="middle" x="72.4936" y="-7.3" font-family="Helvetica,sans-Serif" font-size="11.00" fill="#000000">Generated by SchemaSpy</text>
<!-- casos -->
<g id="node1" class="node">
<title>casos</title>
<g id="a_node1"><a xlink:href="../../tables/casos.html" xlink:title="casos" target="_top">
<polygon fill="#ffffff" stroke="transparent" points="658,-327.5208 658,-388.5208 729,-388.5208 729,-327.5208 658,-327.5208"/>
<polygon fill="#f5f5f5" stroke="transparent" points="658.5,-365.0208 658.5,-388.0208 729.5,-388.0208 729.5,-365.0208 658.5,-365.0208"/>
<polygon fill="none" stroke="#000000" points="658.5,-365.0208 658.5,-388.0208 729.5,-388.0208 729.5,-365.0208 658.5,-365.0208"/>
<text text-anchor="start" x="663.1351" y="-374.1208" font-family="Helvetica,sans-Serif" font-weight="bold" font-size="11.00" fill="#000000">casos</text>
<text text-anchor="start" x="695.0219" y="-373.1208" font-family="Helvetica,sans-Serif" font-size="11.00" fill="#000000">[table]</text>
<polygon fill="none" stroke="#000000" points="658.5,-346.0208 658.5,-365.0208 729.5,-365.0208 729.5,-346.0208 658.5,-346.0208"/>
<text text-anchor="start" x="661.5" y="-352.1208" font-family="Helvetica,sans-Serif" font-size="11.00" fill="#000000">...</text>
<polygon fill="#ffffff" stroke="transparent" points="658.5,-327.0208 658.5,-346.0208 679.5,-346.0208 679.5,-327.0208 658.5,-327.0208"/>
<polygon fill="none" stroke="#000000" points="658.5,-327.0208 658.5,-346.0208 679.5,-346.0208 679.5,-327.0208 658.5,-327.0208"/>
<text text-anchor="start" x="661.2026" y="-333.1208" font-family="Helvetica,sans-Serif" font-size="11.00" fill="#000000">&lt; 3</text>
<polygon fill="#ffffff" stroke="transparent" points="679.5,-327.0208 679.5,-346.0208 717.5,-346.0208 717.5,-327.0208 679.5,-327.0208"/>
<polygon fill="none" stroke="#000000" points="679.5,-327.0208 679.5,-346.0208 717.5,-346.0208 717.5,-327.0208 679.5,-327.0208"/>
<text text-anchor="start" x="682.3053" y="-333.1208" font-family="Helvetica,sans-Serif" font-size="11.00" fill="#000000">0 rows</text>
<polygon fill="#ffffff" stroke="transparent" points="717.5,-327.0208 717.5,-346.0208 729.5,-346.0208 729.5,-327.0208 717.5,-327.0208"/>
<polygon fill="none" stroke="#000000" points="717.5,-327.0208 717.5,-346.0208 729.5,-346.0208 729.5,-327.0208 717.5,-327.0208"/>
<text text-anchor="start" x="720.4431" y="-333.1208" font-family="Helvetica,sans-Serif" font-size="11.00" fill="#000000"> &#160;</text>
</a>
</g>
</g>
<!-- contactos -->
<g id="node2" class="node">
<title>contactos</title>
<g id="a_node2"><a xlink:href="../../tables/contactos.html" xlink:title="contactos" target="_top">
<polygon fill="#ffffff" stroke="transparent" points="292.5,-531.5208 292.5,-592.5208 382.5,-592.5208 382.5,-531.5208 292.5,-531.5208"/>
<polygon fill="#f5f5f5" stroke="transparent" points="292.5,-569.0208 292.5,-592.0208 382.5,-592.0208 382.5,-569.0208 292.5,-569.0208"/>
<polygon fill="none" stroke="#000000" points="292.5,-569.0208 292.5,-592.0208 382.5,-592.0208 382.5,-569.0208 292.5,-569.0208"/>
<text text-anchor="start" x="297.4633" y="-578.1208" font-family="Helvetica,sans-Serif" font-weight="bold" font-size="11.00" fill="#000000">contactos</text>
<text text-anchor="start" x="348.0219" y="-577.1208" font-family="Helvetica,sans-Serif" font-size="11.00" fill="#000000">[table]</text>
<polygon fill="none" stroke="#000000" points="292.5,-550.0208 292.5,-569.0208 382.5,-569.0208 382.5,-550.0208 292.5,-550.0208"/>
<text text-anchor="start" x="295.5" y="-556.1208" font-family="Helvetica,sans-Serif" font-size="11.00" fill="#000000">...</text>
<polygon fill="#ffffff" stroke="transparent" points="292.5,-531.0208 292.5,-550.0208 318.5,-550.0208 318.5,-531.0208 292.5,-531.0208"/>
<polygon fill="none" stroke="#000000" points="292.5,-531.0208 292.5,-550.0208 318.5,-550.0208 318.5,-531.0208 292.5,-531.0208"/>
<text text-anchor="start" x="295.5" y="-537.1208" font-family="Helvetica,sans-Serif" font-size="11.00" fill="#000000">&lt; 2</text>
<polygon fill="#ffffff" stroke="transparent" points="318.5,-531.0208 318.5,-550.0208 358.5,-550.0208 358.5,-531.0208 318.5,-531.0208"/>
<polygon fill="none" stroke="#000000" points="318.5,-531.0208 318.5,-550.0208 358.5,-550.0208 358.5,-531.0208 318.5,-531.0208"/>
<text text-anchor="start" x="323.1105" y="-537.1208" font-family="Helvetica,sans-Serif" font-size="11.00" fill="#000000">5 rows</text>
<polygon fill="#ffffff" stroke="transparent" points="358.5,-531.0208 358.5,-550.0208 382.5,-550.0208 382.5,-531.0208 358.5,-531.0208"/>
<polygon fill="none" stroke="#000000" points="358.5,-531.0208 358.5,-550.0208 382.5,-550.0208 382.5,-531.0208 358.5,-531.0208"/>
<text text-anchor="start" x="363.9053" y="-537.1208" font-family="Helvetica,sans-Serif" font-size="11.00" fill="#000000">5 &gt;</text>
</a>
</g>
</g>
<!-- casos&#45;&gt;contactos -->
<g id="edge1" class="edge">
<title>casos:w&#45;&gt;contactos:e</title>
<path fill="none" stroke="#000000" d="M644.7031,-360.317C607.7504,-391.9011 618.4727,-554.9808 579,-583.0208 528.6361,-618.7974 500.5744,-595.1551 440,-583.0208 412.8471,-577.5815 410.1923,-559.0208 382.5,-559.0208"/>
<polygon fill="#000000" stroke="#000000" points="651.0314,-357.8878 659.7902,-358.3817 654.7657,-356.4543 658.5,-355.0208 658.5,-355.0208 658.5,-355.0208 654.7657,-356.4543 657.2098,-351.6599 651.0314,-357.8878 651.0314,-357.8878"/>
<ellipse fill="none" stroke="#000000" cx="648.0439" cy="-359.0346" rx="3.2" ry="3.2"/>
</g>
<!-- leads -->
<g id="node3" class="node">
<title>leads</title>
<g id="a_node3"><a xlink:href="../../tables/leads.html" xlink:title="leads" target="_top">
<polygon fill="#ffffff" stroke="transparent" points="448,-114.5208 448,-307.5208 571,-307.5208 571,-114.5208 448,-114.5208"/>
<polygon fill="#f5f5f5" stroke="transparent" points="448.5,-284.0208 448.5,-307.0208 571.5,-307.0208 571.5,-284.0208 448.5,-284.0208"/>
<polygon fill="none" stroke="#000000" points="448.5,-284.0208 448.5,-307.0208 571.5,-307.0208 571.5,-284.0208 448.5,-284.0208"/>
<text text-anchor="start" x="453.5" y="-293.1208" font-family="Helvetica,sans-Serif" font-weight="bold" font-size="11.00" fill="#000000">leads</text>
<text text-anchor="start" x="536.5437" y="-292.1208" font-family="Helvetica,sans-Serif" font-size="11.00" fill="#000000">[table]</text>
<polygon fill="none" stroke="#000000" points="448.5,-262.0208 448.5,-284.0208 571.5,-284.0208 571.5,-262.0208 448.5,-262.0208"/>
<image xlink:href="../../images/primaryKeys.png" width="11px" height="12px" preserveAspectRatio="xMinYMin meet" x="453.5" y="-279.021"/>
<text text-anchor="start" x="468.5" y="-269.1208" font-family="Helvetica,sans-Serif" font-size="11.00" fill="#000000">lead_id</text>
<polygon fill="none" stroke="#000000" points="448.5,-240.0208 448.5,-262.0208 571.5,-262.0208 571.5,-240.0208 448.5,-240.0208"/>
<image xlink:href="../../images/foreignKeys.png" width="11px" height="12px" preserveAspectRatio="xMinYMin meet" x="453.5" y="-257.021"/>
<text text-anchor="start" x="468.5" y="-247.1208" font-family="Helvetica,sans-Serif" font-size="11.00" fill="#000000">usu_asignado_id</text>
<polygon fill="none" stroke="#000000" points="448.5,-218.0208 448.5,-240.0208 571.5,-240.0208 571.5,-218.0208 448.5,-218.0208"/>
<image xlink:href="../../images/foreignKeys.png" width="11px" height="12px" preserveAspectRatio="xMinYMin meet" x="453.5" y="-235.021"/>
<text text-anchor="start" x="468.5" y="-225.1208" font-family="Helvetica,sans-Serif" font-size="11.00" fill="#000000">campana_id</text>
<polygon fill="none" stroke="#000000" points="448.5,-196.0208 448.5,-218.0208 571.5,-218.0208 571.5,-196.0208 448.5,-196.0208"/>
<image xlink:href="../../images/foreignKeys.png" width="11px" height="12px" preserveAspectRatio="xMinYMin meet" x="453.5" y="-213.021"/>
<text text-anchor="start" x="468.5" y="-203.1208" font-family="Helvetica,sans-Serif" font-size="11.00" fill="#000000">persona_id</text>
<polygon fill="none" stroke="#000000" points="448.5,-174.0208 448.5,-196.0208 571.5,-196.0208 571.5,-174.0208 448.5,-174.0208"/>
<image xlink:href="../../images/foreignKeys.png" width="11px" height="12px" preserveAspectRatio="xMinYMin meet" x="453.5" y="-191.021"/>
<text text-anchor="start" x="468.5" y="-181.1208" font-family="Helvetica,sans-Serif" font-size="11.00" fill="#000000">curso_id</text>
<polygon fill="none" stroke="#000000" points="448.5,-152.0208 448.5,-174.0208 571.5,-174.0208 571.5,-152.0208 448.5,-152.0208"/>
<image xlink:href="../../images/foreignKeys.png" width="11px" height="12px" preserveAspectRatio="xMinYMin meet" x="453.5" y="-169.021"/>
<text text-anchor="start" x="468.5" y="-159.1208" font-family="Helvetica,sans-Serif" font-size="11.00" fill="#000000">ciclo_id</text>
<polygon fill="none" stroke="#000000" points="448.5,-133.0208 448.5,-152.0208 571.5,-152.0208 571.5,-133.0208 448.5,-133.0208"/>
<text text-anchor="start" x="451.5" y="-139.1208" font-family="Helvetica,sans-Serif" font-size="11.00" fill="#000000">...</text>
<polygon fill="#ffffff" stroke="transparent" points="448.5,-114.0208 448.5,-133.0208 490.5,-133.0208 490.5,-114.0208 448.5,-114.0208"/>
<polygon fill="none" stroke="#000000" points="448.5,-114.0208 448.5,-133.0208 490.5,-133.0208 490.5,-114.0208 448.5,-114.0208"/>
<text text-anchor="start" x="451.5" y="-120.1208" font-family="Helvetica,sans-Serif" font-size="11.00" fill="#000000">&lt; 5</text>
<polygon fill="#ffffff" stroke="transparent" points="490.5,-114.0208 490.5,-133.0208 539.5,-133.0208 539.5,-114.0208 490.5,-114.0208"/>
<polygon fill="none" stroke="#000000" points="490.5,-114.0208 490.5,-133.0208 539.5,-133.0208 539.5,-114.0208 490.5,-114.0208"/>
<text text-anchor="start" x="504.1105" y="-120.1208" font-family="Helvetica,sans-Serif" font-size="11.00" fill="#000000">4 rows</text>
<polygon fill="#ffffff" stroke="transparent" points="539.5,-114.0208 539.5,-133.0208 571.5,-133.0208 571.5,-114.0208 539.5,-114.0208"/>
<polygon fill="none" stroke="#000000" points="539.5,-114.0208 539.5,-133.0208 571.5,-133.0208 571.5,-114.0208 539.5,-114.0208"/>
<text text-anchor="start" x="552.9053" y="-120.1208" font-family="Helvetica,sans-Serif" font-size="11.00" fill="#000000">3 &gt;</text>
</a>
</g>
</g>
<!-- casos&#45;&gt;leads -->
<g id="edge2" class="edge">
<title>casos:w&#45;&gt;leads:e</title>
<path fill="none" stroke="#000000" d="M644.2857,-352.4146C630.7288,-346.4721 627.1716,-331.3247 612,-317.0208 592.6613,-298.788 598.0786,-273.0208 571.5,-273.0208"/>
<polygon fill="#000000" stroke="#000000" points="650.6312,-353.578 657.8508,-358.5618 654.5656,-354.2994 658.5,-355.0208 658.5,-355.0208 658.5,-355.0208 654.5656,-354.2994 659.1492,-351.4798 650.6312,-353.578 650.6312,-353.578"/>
<ellipse fill="none" stroke="#000000" cx="647.4836" cy="-353.0009" rx="3.2" ry="3.2"/>
</g>
<!-- usuarios -->
<g id="node4" class="node">
<title>usuarios</title>
<g id="a_node4"><a xlink:href="../../tables/usuarios.html" xlink:title="usuarios" target="_top">
<polygon fill="#ffffff" stroke="transparent" points="295.5,-62.5208 295.5,-123.5208 379.5,-123.5208 379.5,-62.5208 295.5,-62.5208"/>
<polygon fill="#f5f5f5" stroke="transparent" points="295.5,-100.0208 295.5,-123.0208 379.5,-123.0208 379.5,-100.0208 295.5,-100.0208"/>
<polygon fill="none" stroke="#000000" points="295.5,-100.0208 295.5,-123.0208 379.5,-123.0208 379.5,-100.0208 295.5,-100.0208"/>
<text text-anchor="start" x="300.2188" y="-109.1208" font-family="Helvetica,sans-Serif" font-weight="bold" font-size="11.00" fill="#000000">usuarios</text>
<text text-anchor="start" x="345.0219" y="-108.1208" font-family="Helvetica,sans-Serif" font-size="11.00" fill="#000000">[table]</text>
<polygon fill="none" stroke="#000000" points="295.5,-81.0208 295.5,-100.0208 379.5,-100.0208 379.5,-81.0208 295.5,-81.0208"/>
<text text-anchor="start" x="298.5" y="-87.1208" font-family="Helvetica,sans-Serif" font-size="11.00" fill="#000000">...</text>
<polygon fill="#ffffff" stroke="transparent" points="295.5,-62.0208 295.5,-81.0208 316.5,-81.0208 316.5,-62.0208 295.5,-62.0208"/>
<polygon fill="none" stroke="#000000" points="295.5,-62.0208 295.5,-81.0208 316.5,-81.0208 316.5,-62.0208 295.5,-62.0208"/>
<text text-anchor="start" x="298.5" y="-68.1208" font-family="Helvetica,sans-Serif" font-size="11.00" fill="#000000"> &#160;</text>
<polygon fill="#ffffff" stroke="transparent" points="316.5,-62.0208 316.5,-81.0208 353.5,-81.0208 353.5,-62.0208 316.5,-62.0208"/>
<polygon fill="none" stroke="#000000" points="316.5,-62.0208 316.5,-81.0208 353.5,-81.0208 353.5,-62.0208 316.5,-62.0208"/>
<text text-anchor="start" x="323.6105" y="-68.1208" font-family="Helvetica,sans-Serif" font-size="11.00" fill="#000000">1 row</text>
<polygon fill="#ffffff" stroke="transparent" points="353.5,-62.0208 353.5,-81.0208 379.5,-81.0208 379.5,-62.0208 353.5,-62.0208"/>
<polygon fill="none" stroke="#000000" points="353.5,-62.0208 353.5,-81.0208 379.5,-81.0208 379.5,-62.0208 353.5,-62.0208"/>
<text text-anchor="start" x="360.9053" y="-68.1208" font-family="Helvetica,sans-Serif" font-size="11.00" fill="#000000">6 &gt;</text>
</a>
</g>
</g>
<!-- casos&#45;&gt;usuarios -->
<g id="edge3" class="edge">
<title>casos:w&#45;&gt;usuarios:e</title>
<path fill="none" stroke="#000000" d="M644.0461,-353.1017C628.7464,-348.392 622.4584,-335.3003 612,-317.0208 564.4274,-233.8719 649.511,-168.8674 579,-104.0208 546.288,-73.9367 423.9424,-90.0208 379.5,-90.0208"/>
<polygon fill="#000000" stroke="#000000" points="650.5696,-353.9678 658.0262,-358.5895 654.5348,-354.4943 658.5,-355.0208 658.5,-355.0208 658.5,-355.0208 654.5348,-354.4943 658.9738,-351.4521 650.5696,-353.9678 650.5696,-353.9678"/>
<ellipse fill="none" stroke="#000000" cx="647.3974" cy="-353.5466" rx="3.2" ry="3.2"/>
</g>
<!-- personas -->
<g id="node5" class="node">
<title>personas</title>
<g id="a_node5"><a xlink:href="../../tables/personas.html" xlink:title="personas" target="_top">
<polygon fill="#ffffff" stroke="transparent" points="73.5,-416.5208 73.5,-477.5208 161.5,-477.5208 161.5,-416.5208 73.5,-416.5208"/>
<polygon fill="#f5f5f5" stroke="transparent" points="73.5,-454.0208 73.5,-477.0208 161.5,-477.0208 161.5,-454.0208 73.5,-454.0208"/>
<polygon fill="none" stroke="#000000" points="73.5,-454.0208 73.5,-477.0208 161.5,-477.0208 161.5,-454.0208 73.5,-454.0208"/>
<text text-anchor="start" x="78.3818" y="-463.1208" font-family="Helvetica,sans-Serif" font-weight="bold" font-size="11.00" fill="#000000">personas</text>
<text text-anchor="start" x="127.0219" y="-462.1208" font-family="Helvetica,sans-Serif" font-size="11.00" fill="#000000">[table]</text>
<polygon fill="none" stroke="#000000" points="73.5,-435.0208 73.5,-454.0208 161.5,-454.0208 161.5,-435.0208 73.5,-435.0208"/>
<text text-anchor="start" x="76.5" y="-441.1208" font-family="Helvetica,sans-Serif" font-size="11.00" fill="#000000">...</text>
<polygon fill="#ffffff" stroke="transparent" points="73.5,-416.0208 73.5,-435.0208 93.5,-435.0208 93.5,-416.0208 73.5,-416.0208"/>
<polygon fill="none" stroke="#000000" points="73.5,-416.0208 73.5,-435.0208 93.5,-435.0208 93.5,-416.0208 73.5,-416.0208"/>
<text text-anchor="start" x="76.5" y="-422.1208" font-family="Helvetica,sans-Serif" font-size="11.00" fill="#000000"> &#160;</text>
<polygon fill="#ffffff" stroke="transparent" points="93.5,-416.0208 93.5,-435.0208 135.5,-435.0208 135.5,-416.0208 93.5,-416.0208"/>
<polygon fill="none" stroke="#000000" points="93.5,-416.0208 93.5,-435.0208 135.5,-435.0208 135.5,-416.0208 93.5,-416.0208"/>
<text text-anchor="start" x="100.1105" y="-422.1208" font-family="Helvetica,sans-Serif" font-size="11.00" fill="#000000">5 rows</text>
<polygon fill="#ffffff" stroke="transparent" points="135.5,-416.0208 135.5,-435.0208 161.5,-435.0208 161.5,-416.0208 135.5,-416.0208"/>
<polygon fill="none" stroke="#000000" points="135.5,-416.0208 135.5,-435.0208 161.5,-435.0208 161.5,-416.0208 135.5,-416.0208"/>
<text text-anchor="start" x="142.9053" y="-422.1208" font-family="Helvetica,sans-Serif" font-size="11.00" fill="#000000">6 &gt;</text>
</a>
</g>
</g>
<!-- contactos&#45;&gt;personas -->
<g id="edge4" class="edge">
<title>contactos:w&#45;&gt;personas:e</title>
<path fill="none" stroke="#000000" d="M277.9689,-557.4821C217.8264,-543.8355 233.6776,-444.0208 161.5,-444.0208"/>
<polygon fill="#000000" stroke="#000000" points="284.5445,-558.1783 292.1209,-562.6008 288.5222,-558.5995 292.5,-559.0208 292.5,-559.0208 292.5,-559.0208 288.5222,-558.5995 292.8791,-555.4408 284.5445,-558.1783 284.5445,-558.1783"/>
<ellipse fill="none" stroke="#000000" cx="281.3623" cy="-557.8413" rx="3.2" ry="3.2"/>
</g>
<!-- leads&#45;&gt;usuarios -->
<g id="edge12" class="edge">
<title>leads:w&#45;&gt;usuarios:e</title>
<path fill="none" stroke="#000000" d="M434.0761,-248.6199C382.3214,-228.592 451.7242,-90.0208 379.5,-90.0208"/>
<polygon fill="#000000" stroke="#000000" points="440.6086,-249.7072 447.9089,-254.5719 444.5543,-250.364 448.5,-251.0208 448.5,-251.0208 448.5,-251.0208 444.5543,-250.364 449.0911,-247.4696 440.6086,-249.7072 440.6086,-249.7072"/>
<ellipse fill="none" stroke="#000000" cx="437.452" cy="-249.1818" rx="3.2" ry="3.2"/>
</g>
<!-- leads&#45;&gt;personas -->
<g id="edge11" class="edge">
<title>leads:w&#45;&gt;personas:e</title>
<path fill="none" stroke="#000000" d="M434.3339,-209.9944C408.751,-223.8999 440.5961,-283.0121 407,-311.0208 358.5962,-351.3746 323.6467,-309.4436 268,-339.0208 209.3061,-370.2176 227.9697,-444.0208 161.5,-444.0208"/>
<polygon fill="#000000" stroke="#000000" points="440.6706,-208.6643 449.2396,-210.544 444.5853,-207.8425 448.5,-207.0208 448.5,-207.0208 448.5,-207.0208 444.5853,-207.8425 447.7604,-203.4976 440.6706,-208.6643 440.6706,-208.6643"/>
<ellipse fill="none" stroke="#000000" cx="437.5389" cy="-209.3217" rx="3.2" ry="3.2"/>
</g>
<!-- curso_ciclos -->
<g id="node6" class="node">
<title>curso_ciclos</title>
<g id="a_node6"><a xlink:href="../../tables/curso_ciclos.html" xlink:title="curso_ciclos" target="_top">
<polygon fill="#ffffff" stroke="transparent" points="276,-195.5208 276,-300.5208 399,-300.5208 399,-195.5208 276,-195.5208"/>
<polygon fill="#f5f5f5" stroke="transparent" points="276.5,-277.0208 276.5,-300.0208 399.5,-300.0208 399.5,-277.0208 276.5,-277.0208"/>
<polygon fill="none" stroke="#000000" points="276.5,-277.0208 276.5,-300.0208 399.5,-300.0208 399.5,-277.0208 276.5,-277.0208"/>
<text text-anchor="start" x="281.5" y="-286.1208" font-family="Helvetica,sans-Serif" font-weight="bold" font-size="11.00" fill="#000000">curso_ciclos</text>
<text text-anchor="start" x="364.5437" y="-285.1208" font-family="Helvetica,sans-Serif" font-size="11.00" fill="#000000">[table]</text>
<polygon fill="none" stroke="#000000" points="276.5,-255.0208 276.5,-277.0208 399.5,-277.0208 399.5,-255.0208 276.5,-255.0208"/>
<image xlink:href="../../images/primaryKeys.png" width="11px" height="12px" preserveAspectRatio="xMinYMin meet" x="281.5" y="-272.021"/>
<text text-anchor="start" x="296.5" y="-262.1208" font-family="Helvetica,sans-Serif" font-size="11.00" fill="#000000">ciclo_id</text>
<polygon fill="none" stroke="#000000" points="276.5,-233.0208 276.5,-255.0208 399.5,-255.0208 399.5,-233.0208 276.5,-233.0208"/>
<image xlink:href="../../images/foreignKeys.png" width="11px" height="12px" preserveAspectRatio="xMinYMin meet" x="281.5" y="-250.021"/>
<text text-anchor="start" x="296.5" y="-240.1208" font-family="Helvetica,sans-Serif" font-size="11.00" fill="#000000">curso_id</text>
<polygon fill="none" stroke="#000000" points="276.5,-214.0208 276.5,-233.0208 399.5,-233.0208 399.5,-214.0208 276.5,-214.0208"/>
<text text-anchor="start" x="279.5" y="-220.1208" font-family="Helvetica,sans-Serif" font-size="11.00" fill="#000000">...</text>
<polygon fill="#ffffff" stroke="transparent" points="276.5,-195.0208 276.5,-214.0208 321.5,-214.0208 321.5,-195.0208 276.5,-195.0208"/>
<polygon fill="none" stroke="#000000" points="276.5,-195.0208 276.5,-214.0208 321.5,-214.0208 321.5,-195.0208 276.5,-195.0208"/>
<text text-anchor="start" x="279.5" y="-201.1208" font-family="Helvetica,sans-Serif" font-size="11.00" fill="#000000">&lt; 1</text>
<polygon fill="#ffffff" stroke="transparent" points="321.5,-195.0208 321.5,-214.0208 365.5,-214.0208 365.5,-195.0208 321.5,-195.0208"/>
<polygon fill="none" stroke="#000000" points="321.5,-195.0208 321.5,-214.0208 365.5,-214.0208 365.5,-195.0208 321.5,-195.0208"/>
<text text-anchor="start" x="335.6105" y="-201.1208" font-family="Helvetica,sans-Serif" font-size="11.00" fill="#000000">1 row</text>
<polygon fill="#ffffff" stroke="transparent" points="365.5,-195.0208 365.5,-214.0208 399.5,-214.0208 399.5,-195.0208 365.5,-195.0208"/>
<polygon fill="none" stroke="#000000" points="365.5,-195.0208 365.5,-214.0208 399.5,-214.0208 399.5,-195.0208 365.5,-195.0208"/>
<text text-anchor="start" x="380.9053" y="-201.1208" font-family="Helvetica,sans-Serif" font-size="11.00" fill="#000000">2 &gt;</text>
</a>
</g>
</g>
<!-- leads&#45;&gt;curso_ciclos -->
<g id="edge9" class="edge">
<title>leads:w&#45;&gt;curso_ciclos:e</title>
<path fill="none" stroke="#000000" d="M434.593,-166.9327C408.6689,-185.7469 444.2533,-266.0208 399.5,-266.0208"/>
<polygon fill="#000000" stroke="#000000" points="440.7989,-165.1871 449.4748,-166.4863 444.6494,-164.1039 448.5,-163.0208 448.5,-163.0208 448.5,-163.0208 444.6494,-164.1039 447.5252,-159.5553 440.7989,-165.1871 440.7989,-165.1871"/>
<ellipse fill="none" stroke="#000000" cx="437.7184" cy="-166.0536" rx="3.2" ry="3.2"/>
</g>
<!-- cursos -->
<g id="node7" class="node">
<title>cursos</title>
<g id="a_node7"><a xlink:href="../../tables/cursos.html" xlink:title="cursos" target="_top">
<polygon fill="#ffffff" stroke="transparent" points="8,-80.0208 8,-280.0208 227,-280.0208 227,-80.0208 8,-80.0208"/>
<polygon fill="#f5f5f5" stroke="transparent" points="10.5,-255.0208 10.5,-278.0208 225.5,-278.0208 225.5,-255.0208 10.5,-255.0208"/>
<polygon fill="none" stroke="#000000" points="10.5,-255.0208 10.5,-278.0208 225.5,-278.0208 225.5,-255.0208 10.5,-255.0208"/>
<text text-anchor="start" x="15.5" y="-264.1208" font-family="Helvetica,sans-Serif" font-weight="bold" font-size="11.00" fill="#000000">cursos</text>
<text text-anchor="start" x="190.5437" y="-263.1208" font-family="Helvetica,sans-Serif" font-size="11.00" fill="#000000">[table]</text>
<polygon fill="none" stroke="#000000" points="10.5,-233.0208 10.5,-255.0208 133.5,-255.0208 133.5,-233.0208 10.5,-233.0208"/>
<image xlink:href="../../images/primaryKeys.png" width="11px" height="12px" preserveAspectRatio="xMinYMin meet" x="15.5" y="-250.021"/>
<text text-anchor="start" x="30.5" y="-240.1208" font-family="Helvetica,sans-Serif" font-size="11.00" fill="#000000">curso_id</text>
<polygon fill="none" stroke="#000000" points="133.5,-233.0208 133.5,-255.0208 225.5,-255.0208 225.5,-233.0208 133.5,-233.0208"/>
<text text-anchor="start" x="136.5" y="-240.7208" font-family="Helvetica,sans-Serif" font-size="11.00" fill="#000000">serial[10]</text>
<polygon fill="none" stroke="#000000" points="10.5,-211.0208 10.5,-233.0208 133.5,-233.0208 133.5,-211.0208 10.5,-211.0208"/>
<text text-anchor="start" x="30.5" y="-218.1208" font-family="Helvetica,sans-Serif" font-size="11.00" fill="#000000">nombre</text>
<polygon fill="none" stroke="#000000" points="133.5,-211.0208 133.5,-233.0208 225.5,-233.0208 225.5,-211.0208 133.5,-211.0208"/>
<text text-anchor="start" x="136.5" y="-218.7208" font-family="Helvetica,sans-Serif" font-size="11.00" fill="#000000">varchar[255]</text>
<polygon fill="none" stroke="#000000" points="10.5,-189.0208 10.5,-211.0208 133.5,-211.0208 133.5,-189.0208 10.5,-189.0208"/>
<text text-anchor="start" x="30.5" y="-196.1208" font-family="Helvetica,sans-Serif" font-size="11.00" fill="#000000">descripcion</text>
<polygon fill="none" stroke="#000000" points="133.5,-189.0208 133.5,-211.0208 225.5,-211.0208 225.5,-189.0208 133.5,-189.0208"/>
<text text-anchor="start" x="136.5" y="-196.7208" font-family="Helvetica,sans-Serif" font-size="11.00" fill="#000000">text[2147483647]</text>
<polygon fill="none" stroke="#000000" points="10.5,-167.0208 10.5,-189.0208 133.5,-189.0208 133.5,-167.0208 10.5,-167.0208"/>
<text text-anchor="start" x="30.5" y="-174.1208" font-family="Helvetica,sans-Serif" font-size="11.00" fill="#000000">usu_insercion</text>
<polygon fill="none" stroke="#000000" points="133.5,-167.0208 133.5,-189.0208 225.5,-189.0208 225.5,-167.0208 133.5,-167.0208"/>
<text text-anchor="start" x="136.5" y="-174.7208" font-family="Helvetica,sans-Serif" font-size="11.00" fill="#000000">varchar[20]</text>
<polygon fill="none" stroke="#000000" points="10.5,-145.0208 10.5,-167.0208 133.5,-167.0208 133.5,-145.0208 10.5,-145.0208"/>
<text text-anchor="start" x="30.5" y="-152.1208" font-family="Helvetica,sans-Serif" font-size="11.00" fill="#000000">fec_insercion</text>
<polygon fill="none" stroke="#000000" points="133.5,-145.0208 133.5,-167.0208 225.5,-167.0208 225.5,-145.0208 133.5,-145.0208"/>
<text text-anchor="start" x="136.1023" y="-152.7208" font-family="Helvetica,sans-Serif" font-size="11.00" fill="#000000">timestamptz[35,6]</text>
<polygon fill="none" stroke="#000000" points="10.5,-123.0208 10.5,-145.0208 133.5,-145.0208 133.5,-123.0208 10.5,-123.0208"/>
<text text-anchor="start" x="30.5" y="-130.1208" font-family="Helvetica,sans-Serif" font-size="11.00" fill="#000000">fec_modificacion</text>
<polygon fill="none" stroke="#000000" points="133.5,-123.0208 133.5,-145.0208 225.5,-145.0208 225.5,-123.0208 133.5,-123.0208"/>
<text text-anchor="start" x="136.1023" y="-130.7208" font-family="Helvetica,sans-Serif" font-size="11.00" fill="#000000">timestamptz[35,6]</text>
<polygon fill="none" stroke="#000000" points="10.5,-101.0208 10.5,-123.0208 133.5,-123.0208 133.5,-101.0208 10.5,-101.0208"/>
<text text-anchor="start" x="30.5" y="-108.1208" font-family="Helvetica,sans-Serif" font-size="11.00" fill="#000000">usu_modificacion</text>
<polygon fill="none" stroke="#000000" points="133.5,-101.0208 133.5,-123.0208 225.5,-123.0208 225.5,-101.0208 133.5,-101.0208"/>
<text text-anchor="start" x="136.5" y="-108.7208" font-family="Helvetica,sans-Serif" font-size="11.00" fill="#000000">varchar[20]</text>
<polygon fill="#ffffff" stroke="transparent" points="10.5,-82.0208 10.5,-101.0208 60.5,-101.0208 60.5,-82.0208 10.5,-82.0208"/>
<polygon fill="none" stroke="#000000" points="10.5,-82.0208 10.5,-101.0208 60.5,-101.0208 60.5,-82.0208 10.5,-82.0208"/>
<text text-anchor="start" x="13.5" y="-88.1208" font-family="Helvetica,sans-Serif" font-size="11.00" fill="#000000">&lt; 0</text>
<polygon fill="#ffffff" stroke="transparent" points="60.5,-82.0208 60.5,-101.0208 133.5,-101.0208 133.5,-82.0208 60.5,-82.0208"/>
<polygon fill="none" stroke="#000000" points="60.5,-82.0208 60.5,-101.0208 133.5,-101.0208 133.5,-82.0208 60.5,-82.0208"/>
<text text-anchor="start" x="91.9956" y="-88.1208" font-family="Helvetica,sans-Serif" font-size="11.00" fill="#000000">10 rows</text>
<polygon fill="#ffffff" stroke="transparent" points="133.5,-82.0208 133.5,-101.0208 225.5,-101.0208 225.5,-82.0208 133.5,-82.0208"/>
<polygon fill="none" stroke="#000000" points="133.5,-82.0208 133.5,-101.0208 225.5,-101.0208 225.5,-82.0208 133.5,-82.0208"/>
<text text-anchor="start" x="206.9053" y="-88.1208" font-family="Helvetica,sans-Serif" font-size="11.00" fill="#000000">3 &gt;</text>
<polygon fill="none" stroke="#000000" stroke-width="2" points="9,-81.0208 9,-279.0208 226,-279.0208 226,-81.0208 9,-81.0208"/>
</a>
</g>
</g>
<!-- leads&#45;&gt;cursos -->
<g id="edge10" class="edge">
<title>leads:w&#45;&gt;cursos:e</title>
<path fill="none" stroke="#000000" d="M434.0372,-184.6191C364.5024,-180.7358 334.9415,-150.7405 268,-185.0208 239.2352,-199.751 257.8171,-244.0208 225.5,-244.0208"/>
<polygon fill="#000000" stroke="#000000" points="440.5031,-184.7986 448.4,-188.6194 444.5015,-184.9097 448.5,-185.0208 448.5,-185.0208 448.5,-185.0208 444.5015,-184.9097 448.6,-181.4222 440.5031,-184.7986 440.5031,-184.7986"/>
<ellipse fill="none" stroke="#000000" cx="437.3043" cy="-184.7097" rx="3.2" ry="3.2"/>
</g>
<!-- campanas -->
<g id="node10" class="node">
<title>campanas</title>
<g id="a_node10"><a xlink:href="../../tables/campanas.html" xlink:title="campanas" target="_top">
<polygon fill="#ffffff" stroke="transparent" points="291,-349.5208 291,-410.5208 384,-410.5208 384,-349.5208 291,-349.5208"/>
<polygon fill="#f5f5f5" stroke="transparent" points="291.5,-387.0208 291.5,-410.0208 384.5,-410.0208 384.5,-387.0208 291.5,-387.0208"/>
<polygon fill="none" stroke="#000000" points="291.5,-387.0208 291.5,-410.0208 384.5,-410.0208 384.5,-387.0208 291.5,-387.0208"/>
<text text-anchor="start" x="296.1318" y="-396.1208" font-family="Helvetica,sans-Serif" font-weight="bold" font-size="11.00" fill="#000000">campanas</text>
<text text-anchor="start" x="350.0219" y="-395.1208" font-family="Helvetica,sans-Serif" font-size="11.00" fill="#000000">[table]</text>
<polygon fill="none" stroke="#000000" points="291.5,-368.0208 291.5,-387.0208 384.5,-387.0208 384.5,-368.0208 291.5,-368.0208"/>
<text text-anchor="start" x="294.5" y="-374.1208" font-family="Helvetica,sans-Serif" font-size="11.00" fill="#000000">...</text>
<polygon fill="#ffffff" stroke="transparent" points="291.5,-349.0208 291.5,-368.0208 314.5,-368.0208 314.5,-349.0208 291.5,-349.0208"/>
<polygon fill="none" stroke="#000000" points="291.5,-349.0208 291.5,-368.0208 314.5,-368.0208 314.5,-349.0208 291.5,-349.0208"/>
<text text-anchor="start" x="294.5" y="-355.1208" font-family="Helvetica,sans-Serif" font-size="11.00" fill="#000000"> &#160;</text>
<polygon fill="#ffffff" stroke="transparent" points="314.5,-349.0208 314.5,-368.0208 357.5,-368.0208 357.5,-349.0208 314.5,-349.0208"/>
<polygon fill="none" stroke="#000000" points="314.5,-349.0208 314.5,-368.0208 357.5,-368.0208 357.5,-349.0208 314.5,-349.0208"/>
<text text-anchor="start" x="322.1105" y="-355.1208" font-family="Helvetica,sans-Serif" font-size="11.00" fill="#000000">0 rows</text>
<polygon fill="#ffffff" stroke="transparent" points="357.5,-349.0208 357.5,-368.0208 384.5,-368.0208 384.5,-349.0208 357.5,-349.0208"/>
<polygon fill="none" stroke="#000000" points="357.5,-349.0208 357.5,-368.0208 384.5,-368.0208 384.5,-349.0208 357.5,-349.0208"/>
<text text-anchor="start" x="365.9053" y="-355.1208" font-family="Helvetica,sans-Serif" font-size="11.00" fill="#000000">2 &gt;</text>
</a>
</g>
</g>
<!-- leads&#45;&gt;campanas -->
<g id="edge8" class="edge">
<title>leads:w&#45;&gt;campanas:e</title>
<path fill="none" stroke="#000000" d="M434.3244,-231.5896C388.3091,-251.2425 450.5657,-377.0208 384.5,-377.0208"/>
<polygon fill="#000000" stroke="#000000" points="440.6282,-230.4473 449.1419,-232.5631 444.5641,-229.734 448.5,-229.0208 448.5,-229.0208 448.5,-229.0208 444.5641,-229.734 447.8581,-225.4785 440.6282,-230.4473 440.6282,-230.4473"/>
<ellipse fill="none" stroke="#000000" cx="437.4795" cy="-231.0179" rx="3.2" ry="3.2"/>
</g>
<!-- curso_ciclos&#45;&gt;cursos -->
<g id="edge5" class="edge">
<title>curso_ciclos:w&#45;&gt;cursos:e</title>
<path fill="none" stroke="#000000" d="M261.776,-244.0208C249.7815,-244.0208 242.3229,-244.0208 225.5,-244.0208"/>
<polygon fill="#000000" stroke="#000000" points="268.5,-244.0208 276.5,-247.6208 272.5,-244.0208 276.5,-244.0208 276.5,-244.0208 276.5,-244.0208 272.5,-244.0208 276.5,-240.4208 268.5,-244.0208 268.5,-244.0208"/>
<ellipse fill="none" stroke="#000000" cx="265.3" cy="-244.0209" rx="3.2" ry="3.2"/>
</g>
<!-- encuesta_respuestas -->
<g id="node8" class="node">
<title>encuesta_respuestas</title>
<g id="a_node8"><a xlink:href="../../tables/encuesta_respuestas.html" xlink:title="encuesta_respuestas" target="_top">
<polygon fill="#ffffff" stroke="transparent" points="620,-529.5208 620,-590.5208 767,-590.5208 767,-529.5208 620,-529.5208"/>
<polygon fill="#f5f5f5" stroke="transparent" points="620.5,-567.0208 620.5,-590.0208 767.5,-590.0208 767.5,-567.0208 620.5,-567.0208"/>
<polygon fill="none" stroke="#000000" points="620.5,-567.0208 620.5,-590.0208 767.5,-590.0208 767.5,-567.0208 620.5,-567.0208"/>
<text text-anchor="start" x="625.2302" y="-576.1208" font-family="Helvetica,sans-Serif" font-weight="bold" font-size="11.00" fill="#000000">encuesta_respuestas</text>
<text text-anchor="start" x="733.0219" y="-575.1208" font-family="Helvetica,sans-Serif" font-size="11.00" fill="#000000">[table]</text>
<polygon fill="none" stroke="#000000" points="620.5,-548.0208 620.5,-567.0208 767.5,-567.0208 767.5,-548.0208 620.5,-548.0208"/>
<text text-anchor="start" x="623.5" y="-554.1208" font-family="Helvetica,sans-Serif" font-size="11.00" fill="#000000">...</text>
<polygon fill="#ffffff" stroke="transparent" points="620.5,-529.0208 620.5,-548.0208 677.5,-548.0208 677.5,-529.0208 620.5,-529.0208"/>
<polygon fill="none" stroke="#000000" points="620.5,-529.0208 620.5,-548.0208 677.5,-548.0208 677.5,-529.0208 620.5,-529.0208"/>
<text text-anchor="start" x="623.5" y="-535.1208" font-family="Helvetica,sans-Serif" font-size="11.00" fill="#000000">&lt; 2</text>
<polygon fill="#ffffff" stroke="transparent" points="677.5,-529.0208 677.5,-548.0208 727.5,-548.0208 727.5,-529.0208 677.5,-529.0208"/>
<polygon fill="none" stroke="#000000" points="677.5,-529.0208 677.5,-548.0208 727.5,-548.0208 727.5,-529.0208 677.5,-529.0208"/>
<text text-anchor="start" x="697.6105" y="-535.1208" font-family="Helvetica,sans-Serif" font-size="11.00" fill="#000000">1 row</text>
<polygon fill="#ffffff" stroke="transparent" points="727.5,-529.0208 727.5,-548.0208 767.5,-548.0208 767.5,-529.0208 727.5,-529.0208"/>
<polygon fill="none" stroke="#000000" points="727.5,-529.0208 727.5,-548.0208 767.5,-548.0208 767.5,-529.0208 727.5,-529.0208"/>
<text text-anchor="start" x="748.9053" y="-535.1208" font-family="Helvetica,sans-Serif" font-size="11.00" fill="#000000">1 &gt;</text>
</a>
</g>
</g>
<!-- encuesta_respuestas&#45;&gt;contactos -->
<g id="edge6" class="edge">
<title>encuesta_respuestas:w&#45;&gt;contactos:e</title>
<path fill="none" stroke="#000000" d="M606.7848,-561.7207C595.165,-572.661 600.2233,-599.6836 579,-610.0208 523.4599,-637.0725 497.7569,-631.9442 440,-610.0208 408.0639,-597.8984 416.6594,-559.0208 382.5,-559.0208"/>
<polygon fill="#000000" stroke="#000000" points="612.932,-559.6142 621.667,-560.4264 616.716,-558.3175 620.5,-557.0208 620.5,-557.0208 620.5,-557.0208 616.716,-558.3175 619.333,-553.6152 612.932,-559.6142 612.932,-559.6142"/>
<ellipse fill="none" stroke="#000000" cx="609.9048" cy="-560.6516" rx="3.2" ry="3.2"/>
</g>
<!-- oportunidades -->
<g id="node9" class="node">
<title>oportunidades</title>
<g id="a_node9"><a xlink:href="../../tables/oportunidades.html" xlink:title="oportunidades" target="_top">
<polygon fill="#ffffff" stroke="transparent" points="448,-328.5208 448,-521.5208 571,-521.5208 571,-328.5208 448,-328.5208"/>
<polygon fill="#f5f5f5" stroke="transparent" points="448.5,-498.0208 448.5,-521.0208 571.5,-521.0208 571.5,-498.0208 448.5,-498.0208"/>
<polygon fill="none" stroke="#000000" points="448.5,-498.0208 448.5,-521.0208 571.5,-521.0208 571.5,-498.0208 448.5,-498.0208"/>
<text text-anchor="start" x="453.5" y="-507.1208" font-family="Helvetica,sans-Serif" font-weight="bold" font-size="11.00" fill="#000000">oportunidades</text>
<text text-anchor="start" x="536.5437" y="-506.1208" font-family="Helvetica,sans-Serif" font-size="11.00" fill="#000000">[table]</text>
<polygon fill="none" stroke="#000000" points="448.5,-476.0208 448.5,-498.0208 571.5,-498.0208 571.5,-476.0208 448.5,-476.0208"/>
<image xlink:href="../../images/primaryKeys.png" width="11px" height="12px" preserveAspectRatio="xMinYMin meet" x="453.5" y="-493.021"/>
<text text-anchor="start" x="468.5" y="-483.1208" font-family="Helvetica,sans-Serif" font-size="11.00" fill="#000000">oportunidad_id</text>
<polygon fill="none" stroke="#000000" points="448.5,-454.0208 448.5,-476.0208 571.5,-476.0208 571.5,-454.0208 448.5,-454.0208"/>
<image xlink:href="../../images/foreignKeys.png" width="11px" height="12px" preserveAspectRatio="xMinYMin meet" x="453.5" y="-471.021"/>
<text text-anchor="start" x="468.5" y="-461.1208" font-family="Helvetica,sans-Serif" font-size="11.00" fill="#000000">campana_id</text>
<polygon fill="none" stroke="#000000" points="448.5,-432.0208 448.5,-454.0208 571.5,-454.0208 571.5,-432.0208 448.5,-432.0208"/>
<image xlink:href="../../images/foreignKeys.png" width="11px" height="12px" preserveAspectRatio="xMinYMin meet" x="453.5" y="-449.021"/>
<text text-anchor="start" x="468.5" y="-439.1208" font-family="Helvetica,sans-Serif" font-size="11.00" fill="#000000">contacto_id</text>
<polygon fill="none" stroke="#000000" points="448.5,-410.0208 448.5,-432.0208 571.5,-432.0208 571.5,-410.0208 448.5,-410.0208"/>
<image xlink:href="../../images/foreignKeys.png" width="11px" height="12px" preserveAspectRatio="xMinYMin meet" x="453.5" y="-427.021"/>
<text text-anchor="start" x="468.5" y="-417.1208" font-family="Helvetica,sans-Serif" font-size="11.00" fill="#000000">curso_id</text>
<polygon fill="none" stroke="#000000" points="448.5,-388.0208 448.5,-410.0208 571.5,-410.0208 571.5,-388.0208 448.5,-388.0208"/>
<image xlink:href="../../images/foreignKeys.png" width="11px" height="12px" preserveAspectRatio="xMinYMin meet" x="453.5" y="-405.021"/>
<text text-anchor="start" x="468.5" y="-395.1208" font-family="Helvetica,sans-Serif" font-size="11.00" fill="#000000">usu_asignado_id</text>
<polygon fill="none" stroke="#000000" points="448.5,-366.0208 448.5,-388.0208 571.5,-388.0208 571.5,-366.0208 448.5,-366.0208"/>
<image xlink:href="../../images/foreignKeys.png" width="11px" height="12px" preserveAspectRatio="xMinYMin meet" x="453.5" y="-383.021"/>
<text text-anchor="start" x="468.5" y="-373.1208" font-family="Helvetica,sans-Serif" font-size="11.00" fill="#000000">ciclo_id</text>
<polygon fill="none" stroke="#000000" points="448.5,-347.0208 448.5,-366.0208 571.5,-366.0208 571.5,-347.0208 448.5,-347.0208"/>
<text text-anchor="start" x="451.5" y="-353.1208" font-family="Helvetica,sans-Serif" font-size="11.00" fill="#000000">...</text>
<polygon fill="#ffffff" stroke="transparent" points="448.5,-328.0208 448.5,-347.0208 487.5,-347.0208 487.5,-328.0208 448.5,-328.0208"/>
<polygon fill="none" stroke="#000000" points="448.5,-328.0208 448.5,-347.0208 487.5,-347.0208 487.5,-328.0208 448.5,-328.0208"/>
<text text-anchor="start" x="451.5" y="-334.1208" font-family="Helvetica,sans-Serif" font-size="11.00" fill="#000000">&lt; 5</text>
<polygon fill="#ffffff" stroke="transparent" points="487.5,-328.0208 487.5,-347.0208 540.5,-347.0208 540.5,-328.0208 487.5,-328.0208"/>
<polygon fill="none" stroke="#000000" points="487.5,-328.0208 487.5,-347.0208 540.5,-347.0208 540.5,-328.0208 487.5,-328.0208"/>
<text text-anchor="start" x="498.9956" y="-334.1208" font-family="Helvetica,sans-Serif" font-size="11.00" fill="#000000">14 rows</text>
<polygon fill="#ffffff" stroke="transparent" points="540.5,-328.0208 540.5,-347.0208 571.5,-347.0208 571.5,-328.0208 540.5,-328.0208"/>
<polygon fill="none" stroke="#000000" points="540.5,-328.0208 540.5,-347.0208 571.5,-347.0208 571.5,-328.0208 540.5,-328.0208"/>
<text text-anchor="start" x="552.9053" y="-334.1208" font-family="Helvetica,sans-Serif" font-size="11.00" fill="#000000">1 &gt;</text>
</a>
</g>
</g>
<!-- encuesta_respuestas&#45;&gt;oportunidades -->
<g id="edge7" class="edge">
<title>encuesta_respuestas:w&#45;&gt;oportunidades:e</title>
<path fill="none" stroke="#000000" d="M606.4782,-551.9866C589.62,-535.9362 603.2455,-487.0208 571.5,-487.0208"/>
<polygon fill="#000000" stroke="#000000" points="612.9706,-554.3175 619.2835,-560.409 616.7353,-555.6691 620.5,-557.0208 620.5,-557.0208 620.5,-557.0208 616.7353,-555.6691 621.7165,-553.6325 612.9706,-554.3175 612.9706,-554.3175"/>
<ellipse fill="none" stroke="#000000" cx="609.9588" cy="-553.2361" rx="3.2" ry="3.2"/>
</g>
<!-- oportunidades&#45;&gt;contactos -->
<g id="edge18" class="edge">
<title>oportunidades:w&#45;&gt;contactos:e</title>
<path fill="none" stroke="#000000" d="M434.1165,-446.1235C398.3959,-464.5708 436.0237,-559.0208 382.5,-559.0208"/>
<polygon fill="#000000" stroke="#000000" points="440.6799,-444.7077 449.2591,-446.5398 444.5899,-443.8643 448.5,-443.0208 448.5,-443.0208 448.5,-443.0208 444.5899,-443.8643 447.7409,-439.5017 440.6799,-444.7077 440.6799,-444.7077"/>
<ellipse fill="none" stroke="#000000" cx="437.5518" cy="-445.3825" rx="3.2" ry="3.2"/>
</g>
<!-- oportunidades&#45;&gt;usuarios -->
<g id="edge20" class="edge">
<title>oportunidades:w&#45;&gt;usuarios:e</title>
<path fill="none" stroke="#000000" d="M434.7696,-393.9153C388.2433,-353.7394 444.4985,-90.0208 379.5,-90.0208"/>
<polygon fill="#000000" stroke="#000000" points="441.0016,-396.2326 447.2453,-402.3951 444.7508,-397.6267 448.5,-399.0208 448.5,-399.0208 448.5,-399.0208 444.7508,-397.6267 449.7547,-395.6465 441.0016,-396.2326 441.0016,-396.2326"/>
<ellipse fill="none" stroke="#000000" cx="438.0022" cy="-395.1173" rx="3.2" ry="3.2"/>
</g>
<!-- oportunidades&#45;&gt;curso_ciclos -->
<g id="edge17" class="edge">
<title>oportunidades:w&#45;&gt;curso_ciclos:e</title>
<path fill="none" stroke="#000000" d="M434.5578,-373.3276C406.0985,-354.0674 447.5281,-266.0208 399.5,-266.0208"/>
<polygon fill="#000000" stroke="#000000" points="440.7667,-374.9723 447.5782,-380.5008 444.6334,-375.9965 448.5,-377.0208 448.5,-377.0208 448.5,-377.0208 444.6334,-375.9965 449.4218,-373.5408 440.7667,-374.9723 440.7667,-374.9723"/>
<ellipse fill="none" stroke="#000000" cx="437.6734" cy="-374.1529" rx="3.2" ry="3.2"/>
</g>
<!-- oportunidades&#45;&gt;cursos -->
<g id="edge19" class="edge">
<title>oportunidades:w&#45;&gt;cursos:e</title>
<path fill="none" stroke="#000000" d="M433.9448,-421.5664C363.5177,-426.8408 327.0631,-467.5808 268,-421.0208 204.465,-370.9355 306.4026,-244.0208 225.5,-244.0208"/>
<polygon fill="#000000" stroke="#000000" points="440.5056,-421.3205 448.6349,-424.6183 444.5028,-421.1706 448.5,-421.0208 448.5,-421.0208 448.5,-421.0208 444.5028,-421.1706 448.3651,-417.4233 440.5056,-421.3205 440.5056,-421.3205"/>
<ellipse fill="none" stroke="#000000" cx="437.3079" cy="-421.4404" rx="3.2" ry="3.2"/>
</g>
<!-- oportunidades&#45;&gt;campanas -->
<g id="edge16" class="edge">
<title>oportunidades:w&#45;&gt;campanas:e</title>
<path fill="none" stroke="#000000" d="M434.2104,-461.4621C406.875,-444.9987 427.0046,-377.0208 384.5,-377.0208"/>
<polygon fill="#000000" stroke="#000000" points="440.7371,-463.0875 447.63,-468.5141 444.6186,-464.0541 448.5,-465.0208 448.5,-465.0208 448.5,-465.0208 444.6186,-464.0541 449.37,-461.5275 440.7371,-463.0875 440.7371,-463.0875"/>
<ellipse fill="none" stroke="#000000" cx="437.632" cy="-462.3141" rx="3.2" ry="3.2"/>
</g>
<!-- llamadas -->
<g id="node11" class="node">
<title>llamadas</title>
<g id="a_node11"><a xlink:href="../../tables/llamadas.html" xlink:title="llamadas" target="_top">
<polygon fill="#ffffff" stroke="transparent" points="650,-245.5208 650,-306.5208 737,-306.5208 737,-245.5208 650,-245.5208"/>
<polygon fill="#f5f5f5" stroke="transparent" points="650.5,-283.0208 650.5,-306.0208 737.5,-306.0208 737.5,-283.0208 650.5,-283.0208"/>
<polygon fill="none" stroke="#000000" points="650.5,-283.0208 650.5,-306.0208 737.5,-306.0208 737.5,-283.0208 650.5,-283.0208"/>
<text text-anchor="start" x="655.4984" y="-292.1208" font-family="Helvetica,sans-Serif" font-weight="bold" font-size="11.00" fill="#000000">llamadas</text>
<text text-anchor="start" x="703.0219" y="-291.1208" font-family="Helvetica,sans-Serif" font-size="11.00" fill="#000000">[table]</text>
<polygon fill="none" stroke="#000000" points="650.5,-264.0208 650.5,-283.0208 737.5,-283.0208 737.5,-264.0208 650.5,-264.0208"/>
<text text-anchor="start" x="653.5" y="-270.1208" font-family="Helvetica,sans-Serif" font-size="11.00" fill="#000000">...</text>
<polygon fill="#ffffff" stroke="transparent" points="650.5,-245.0208 650.5,-264.0208 679.5,-264.0208 679.5,-245.0208 650.5,-245.0208"/>
<polygon fill="none" stroke="#000000" points="650.5,-245.0208 650.5,-264.0208 679.5,-264.0208 679.5,-245.0208 650.5,-245.0208"/>
<text text-anchor="start" x="653.5" y="-251.1208" font-family="Helvetica,sans-Serif" font-size="11.00" fill="#000000">&lt; 3</text>
<polygon fill="#ffffff" stroke="transparent" points="679.5,-245.0208 679.5,-264.0208 721.5,-264.0208 721.5,-245.0208 679.5,-245.0208"/>
<polygon fill="none" stroke="#000000" points="679.5,-245.0208 679.5,-264.0208 721.5,-264.0208 721.5,-245.0208 679.5,-245.0208"/>
<text text-anchor="start" x="686.1105" y="-251.1208" font-family="Helvetica,sans-Serif" font-size="11.00" fill="#000000">0 rows</text>
<polygon fill="#ffffff" stroke="transparent" points="721.5,-245.0208 721.5,-264.0208 737.5,-264.0208 737.5,-245.0208 721.5,-245.0208"/>
<polygon fill="none" stroke="#000000" points="721.5,-245.0208 721.5,-264.0208 737.5,-264.0208 737.5,-245.0208 721.5,-245.0208"/>
<text text-anchor="start" x="728.3862" y="-251.1208" font-family="Helvetica,sans-Serif" font-size="11.00" fill="#000000"> &#160;</text>
</a>
</g>
</g>
<!-- llamadas&#45;&gt;contactos -->
<g id="edge13" class="edge">
<title>llamadas:w&#45;&gt;contactos:e</title>
<path fill="none" stroke="#000000" d="M636.1861,-275.9573C623.2666,-282.4145 620.3419,-298.7362 612,-317.0208 589.7461,-365.7992 619.1512,-520.4898 579,-556.0208 513.5903,-613.9039 469.8435,-559.0208 382.5,-559.0208"/>
<polygon fill="#000000" stroke="#000000" points="642.6632,-274.6286 651.2235,-276.5473 646.5816,-273.8247 650.5,-273.0208 650.5,-273.0208 650.5,-273.0208 646.5816,-273.8247 649.7765,-269.4942 642.6632,-274.6286 642.6632,-274.6286"/>
<ellipse fill="none" stroke="#000000" cx="639.5285" cy="-275.2717" rx="3.2" ry="3.2"/>
</g>
<!-- llamadas&#45;&gt;leads -->
<g id="edge14" class="edge">
<title>llamadas:w&#45;&gt;leads:e</title>
<path fill="none" stroke="#000000" d="M635.7695,-273.0208C612.0029,-273.0208 601.125,-273.0208 571.5,-273.0208"/>
<polygon fill="#000000" stroke="#000000" points="642.5,-273.0208 650.5,-276.6208 646.5,-273.0208 650.5,-273.0208 650.5,-273.0208 650.5,-273.0208 646.5,-273.0208 650.5,-269.4208 642.5,-273.0208 642.5,-273.0208"/>
<ellipse fill="none" stroke="#000000" cx="639.3" cy="-273.0209" rx="3.2" ry="3.2"/>
</g>
<!-- llamadas&#45;&gt;usuarios -->
<g id="edge15" class="edge">
<title>llamadas:w&#45;&gt;usuarios:e</title>
<path fill="none" stroke="#000000" d="M636.327,-270.2259C624.5404,-264.5845 620.7485,-251.0024 612,-235.0208 578.18,-173.2389 633.744,-124.3365 579,-80.0208 530.9832,-41.1507 501.5707,-74.9666 440,-80.0208 412.8376,-82.2505 406.7537,-90.0208 379.5,-90.0208"/>
<polygon fill="#000000" stroke="#000000" points="642.6511,-271.473 649.8035,-276.5528 646.5756,-272.2469 650.5,-273.0208 650.5,-273.0208 650.5,-273.0208 646.5756,-272.2469 651.1965,-269.4888 642.6511,-271.473 642.6511,-271.473"/>
<ellipse fill="none" stroke="#000000" cx="639.5116" cy="-270.8539" rx="3.2" ry="3.2"/>
</g>
<!-- tareas -->
<g id="node12" class="node">
<title>tareas</title>
<g id="a_node12"><a xlink:href="../../tables/tareas.html" xlink:title="tareas" target="_top">
<polygon fill="#ffffff" stroke="transparent" points="657,-163.5208 657,-224.5208 730,-224.5208 730,-163.5208 657,-163.5208"/>
<polygon fill="#f5f5f5" stroke="transparent" points="657.5,-201.0208 657.5,-224.0208 730.5,-224.0208 730.5,-201.0208 657.5,-201.0208"/>
<polygon fill="none" stroke="#000000" points="657.5,-201.0208 657.5,-224.0208 730.5,-224.0208 730.5,-201.0208 657.5,-201.0208"/>
<text text-anchor="start" x="662.2183" y="-210.1208" font-family="Helvetica,sans-Serif" font-weight="bold" font-size="11.00" fill="#000000">tareas</text>
<text text-anchor="start" x="696.0219" y="-209.1208" font-family="Helvetica,sans-Serif" font-size="11.00" fill="#000000">[table]</text>
<polygon fill="none" stroke="#000000" points="657.5,-182.0208 657.5,-201.0208 730.5,-201.0208 730.5,-182.0208 657.5,-182.0208"/>
<text text-anchor="start" x="660.5" y="-188.1208" font-family="Helvetica,sans-Serif" font-size="11.00" fill="#000000">...</text>
<polygon fill="#ffffff" stroke="transparent" points="657.5,-163.0208 657.5,-182.0208 679.5,-182.0208 679.5,-163.0208 657.5,-163.0208"/>
<polygon fill="none" stroke="#000000" points="657.5,-163.0208 657.5,-182.0208 679.5,-182.0208 679.5,-163.0208 657.5,-163.0208"/>
<text text-anchor="start" x="660.5" y="-169.1208" font-family="Helvetica,sans-Serif" font-size="11.00" fill="#000000">&lt; 3</text>
<polygon fill="#ffffff" stroke="transparent" points="679.5,-163.0208 679.5,-182.0208 717.5,-182.0208 717.5,-163.0208 679.5,-163.0208"/>
<polygon fill="none" stroke="#000000" points="679.5,-163.0208 679.5,-182.0208 717.5,-182.0208 717.5,-163.0208 679.5,-163.0208"/>
<text text-anchor="start" x="682.3053" y="-169.1208" font-family="Helvetica,sans-Serif" font-size="11.00" fill="#000000">0 rows</text>
<polygon fill="#ffffff" stroke="transparent" points="717.5,-163.0208 717.5,-182.0208 730.5,-182.0208 730.5,-163.0208 717.5,-163.0208"/>
<polygon fill="none" stroke="#000000" points="717.5,-163.0208 717.5,-182.0208 730.5,-182.0208 730.5,-163.0208 717.5,-163.0208"/>
<text text-anchor="start" x="721.3862" y="-169.1208" font-family="Helvetica,sans-Serif" font-size="11.00" fill="#000000"> &#160;</text>
</a>
</g>
</g>
<!-- tareas&#45;&gt;contactos -->
<g id="edge21" class="edge">
<title>tareas:w&#45;&gt;contactos:e</title>
<path fill="none" stroke="#000000" d="M642.968,-193.2388C627.0431,-198.9056 621.8797,-214.8984 612,-235.0208 582.7331,-294.6297 625.3444,-484.4606 579,-532.0208 563.6195,-547.8048 404.5385,-559.0208 382.5,-559.0208"/>
<polygon fill="#000000" stroke="#000000" points="649.5916,-192.2279 658.0432,-194.5796 653.5458,-191.6243 657.5,-191.0208 657.5,-191.0208 657.5,-191.0208 653.5458,-191.6243 656.9568,-187.462 649.5916,-192.2279 649.5916,-192.2279"/>
<ellipse fill="none" stroke="#000000" cx="646.4282" cy="-192.7107" rx="3.2" ry="3.2"/>
</g>
<!-- tareas&#45;&gt;leads -->
<g id="edge22" class="edge">
<title>tareas:w&#45;&gt;leads:e</title>
<path fill="none" stroke="#000000" d="M645.1461,-199.183C622.7877,-219.924 582.1243,-273.0208 571.5,-273.0208"/>
<polygon fill="#000000" stroke="#000000" points="650.8253,-195.4308 659.4845,-194.0244 654.1626,-193.2258 657.5,-191.0208 657.5,-191.0208 657.5,-191.0208 654.1626,-193.2258 655.5155,-188.0172 650.8253,-195.4308 650.8253,-195.4308"/>
<ellipse fill="none" stroke="#000000" cx="648.1554" cy="-197.1948" rx="3.2" ry="3.2"/>
</g>
<!-- tareas&#45;&gt;usuarios -->
<g id="edge23" class="edge">
<title>tareas:w&#45;&gt;usuarios:e</title>
<path fill="none" stroke="#000000" d="M643.1122,-189.2244C594.532,-175.4107 635.23,-85.7258 579,-53.0208 525.5981,-21.9607 499.4658,-36.2784 440,-53.0208 409.6608,-61.5627 411.0188,-90.0208 379.5,-90.0208"/>
<polygon fill="#000000" stroke="#000000" points="649.5616,-190.0296 657.054,-194.593 653.5308,-190.5252 657.5,-191.0208 657.5,-191.0208 657.5,-191.0208 653.5308,-190.5252 657.946,-187.4485 649.5616,-190.0296 649.5616,-190.0296"/>
<ellipse fill="none" stroke="#000000" cx="646.3863" cy="-189.6331" rx="3.2" ry="3.2"/>
</g>
</g>
</svg>
