<?xml version="1.0" encoding="UTF-8" standalone="no"?>
<!DOCTYPE svg PUBLIC "-//W3C//DTD SVG 1.1//EN"
 "http://www.w3.org/Graphics/SVG/1.1/DTD/svg11.dtd">
<!-- Generated by graphviz version 2.40.1 (20161225.0304)
 -->
<!-- Title: twoDegreesRelationshipsDiagram Pages: 1 -->
<svg width="783pt" height="628pt"
 viewBox="0.00 0.00 783.00 627.70" xmlns="http://www.w3.org/2000/svg" xmlns:xlink="http://www.w3.org/1999/xlink">
<g id="graph0" class="graph" transform="scale(1 1) rotate(0) translate(4 623.7)">
<title>twoDegreesRelationshipsDiagram</title>
<polygon fill="#ffffff" stroke="transparent" points="-4,4 -4,-623.7 779,-623.7 779,4 -4,4"/>
<text text-anchor="middle" x="72.4936" y="-7.3" font-family="Helvetica,sans-Serif" font-size="11.00" fill="#000000">Generated by SchemaSpy</text>
<!-- casos -->
<g id="node1" class="node">
<title>casos</title>
<g id="a_node1"><a xlink:href="../../tables/casos.html" xlink:title="casos" target="_top">
<polygon fill="#ffffff" stroke="transparent" points="474,-362.7 474,-423.7 545,-423.7 545,-362.7 474,-362.7"/>
<polygon fill="#f5f5f5" stroke="transparent" points="474.5,-400.2 474.5,-423.2 545.5,-423.2 545.5,-400.2 474.5,-400.2"/>
<polygon fill="none" stroke="#000000" points="474.5,-400.2 474.5,-423.2 545.5,-423.2 545.5,-400.2 474.5,-400.2"/>
<text text-anchor="start" x="479.1351" y="-409.3" font-family="Helvetica,sans-Serif" font-weight="bold" font-size="11.00" fill="#000000">casos</text>
<text text-anchor="start" x="511.0219" y="-408.3" font-family="Helvetica,sans-Serif" font-size="11.00" fill="#000000">[table]</text>
<polygon fill="none" stroke="#000000" points="474.5,-381.2 474.5,-400.2 545.5,-400.2 545.5,-381.2 474.5,-381.2"/>
<text text-anchor="start" x="477.5" y="-387.3" font-family="Helvetica,sans-Serif" font-size="11.00" fill="#000000">...</text>
<polygon fill="#ffffff" stroke="transparent" points="474.5,-362.2 474.5,-381.2 495.5,-381.2 495.5,-362.2 474.5,-362.2"/>
<polygon fill="none" stroke="#000000" points="474.5,-362.2 474.5,-381.2 495.5,-381.2 495.5,-362.2 474.5,-362.2"/>
<text text-anchor="start" x="477.2027" y="-368.3" font-family="Helvetica,sans-Serif" font-size="11.00" fill="#000000">&lt; 3</text>
<polygon fill="#ffffff" stroke="transparent" points="495.5,-362.2 495.5,-381.2 533.5,-381.2 533.5,-362.2 495.5,-362.2"/>
<polygon fill="none" stroke="#000000" points="495.5,-362.2 495.5,-381.2 533.5,-381.2 533.5,-362.2 495.5,-362.2"/>
<text text-anchor="start" x="498.3053" y="-368.3" font-family="Helvetica,sans-Serif" font-size="11.00" fill="#000000">0 rows</text>
<polygon fill="#ffffff" stroke="transparent" points="533.5,-362.2 533.5,-381.2 545.5,-381.2 545.5,-362.2 533.5,-362.2"/>
<polygon fill="none" stroke="#000000" points="533.5,-362.2 533.5,-381.2 545.5,-381.2 545.5,-362.2 533.5,-362.2"/>
<text text-anchor="start" x="536.4431" y="-368.3" font-family="Helvetica,sans-Serif" font-size="11.00" fill="#000000"> &#160;</text>
</a>
</g>
</g>
<!-- contactos -->
<g id="node2" class="node">
<title>contactos</title>
<g id="a_node2"><a xlink:href="../../tables/contactos.html" xlink:title="contactos" target="_top">
<polygon fill="#ffffff" stroke="transparent" points="292.5,-499.7 292.5,-560.7 382.5,-560.7 382.5,-499.7 292.5,-499.7"/>
<polygon fill="#f5f5f5" stroke="transparent" points="292.5,-537.2 292.5,-560.2 382.5,-560.2 382.5,-537.2 292.5,-537.2"/>
<polygon fill="none" stroke="#000000" points="292.5,-537.2 292.5,-560.2 382.5,-560.2 382.5,-537.2 292.5,-537.2"/>
<text text-anchor="start" x="297.4633" y="-546.3" font-family="Helvetica,sans-Serif" font-weight="bold" font-size="11.00" fill="#000000">contactos</text>
<text text-anchor="start" x="348.0219" y="-545.3" font-family="Helvetica,sans-Serif" font-size="11.00" fill="#000000">[table]</text>
<polygon fill="none" stroke="#000000" points="292.5,-518.2 292.5,-537.2 382.5,-537.2 382.5,-518.2 292.5,-518.2"/>
<text text-anchor="start" x="295.5" y="-524.3" font-family="Helvetica,sans-Serif" font-size="11.00" fill="#000000">...</text>
<polygon fill="#ffffff" stroke="transparent" points="292.5,-499.2 292.5,-518.2 318.5,-518.2 318.5,-499.2 292.5,-499.2"/>
<polygon fill="none" stroke="#000000" points="292.5,-499.2 292.5,-518.2 318.5,-518.2 318.5,-499.2 292.5,-499.2"/>
<text text-anchor="start" x="295.5" y="-505.3" font-family="Helvetica,sans-Serif" font-size="11.00" fill="#000000">&lt; 2</text>
<polygon fill="#ffffff" stroke="transparent" points="318.5,-499.2 318.5,-518.2 358.5,-518.2 358.5,-499.2 318.5,-499.2"/>
<polygon fill="none" stroke="#000000" points="318.5,-499.2 318.5,-518.2 358.5,-518.2 358.5,-499.2 318.5,-499.2"/>
<text text-anchor="start" x="323.1105" y="-505.3" font-family="Helvetica,sans-Serif" font-size="11.00" fill="#000000">0 rows</text>
<polygon fill="#ffffff" stroke="transparent" points="358.5,-499.2 358.5,-518.2 382.5,-518.2 382.5,-499.2 358.5,-499.2"/>
<polygon fill="none" stroke="#000000" points="358.5,-499.2 358.5,-518.2 382.5,-518.2 382.5,-499.2 358.5,-499.2"/>
<text text-anchor="start" x="363.9053" y="-505.3" font-family="Helvetica,sans-Serif" font-size="11.00" fill="#000000">5 &gt;</text>
</a>
</g>
</g>
<!-- casos&#45;&gt;contactos -->
<g id="edge1" class="edge">
<title>casos:w&#45;&gt;contactos:e</title>
<path fill="none" stroke="#000000" d="M460.1806,-392.3519C408.5684,-409.7813 450.4006,-527.2 382.5,-527.2"/>
<polygon fill="#000000" stroke="#000000" points="466.5888,-391.3889 475.035,-393.76 470.5444,-390.7945 474.5,-390.2 474.5,-390.2 474.5,-390.2 470.5444,-390.7945 473.965,-386.64 466.5888,-391.3889 466.5888,-391.3889"/>
<ellipse fill="none" stroke="#000000" cx="463.4244" cy="-391.8645" rx="3.2" ry="3.2"/>
</g>
<!-- leads -->
<g id="node3" class="node">
<title>leads</title>
<g id="a_node3"><a xlink:href="../../tables/leads.html" xlink:title="leads" target="_top">
<polygon fill="#ffffff" stroke="transparent" points="276,-307.7 276,-478.7 399,-478.7 399,-307.7 276,-307.7"/>
<polygon fill="#f5f5f5" stroke="transparent" points="276.5,-455.2 276.5,-478.2 399.5,-478.2 399.5,-455.2 276.5,-455.2"/>
<polygon fill="none" stroke="#000000" points="276.5,-455.2 276.5,-478.2 399.5,-478.2 399.5,-455.2 276.5,-455.2"/>
<text text-anchor="start" x="281.5" y="-464.3" font-family="Helvetica,sans-Serif" font-weight="bold" font-size="11.00" fill="#000000">leads</text>
<text text-anchor="start" x="364.5437" y="-463.3" font-family="Helvetica,sans-Serif" font-size="11.00" fill="#000000">[table]</text>
<polygon fill="none" stroke="#000000" points="276.5,-433.2 276.5,-455.2 399.5,-455.2 399.5,-433.2 276.5,-433.2"/>
<image xlink:href="../../images/primaryKeys.png" width="11px" height="12px" preserveAspectRatio="xMinYMin meet" x="281.5" y="-450.2"/>
<text text-anchor="start" x="296.5" y="-440.3" font-family="Helvetica,sans-Serif" font-size="11.00" fill="#000000">lead_id</text>
<polygon fill="none" stroke="#000000" points="276.5,-411.2 276.5,-433.2 399.5,-433.2 399.5,-411.2 276.5,-411.2"/>
<image xlink:href="../../images/foreignKeys.png" width="11px" height="12px" preserveAspectRatio="xMinYMin meet" x="281.5" y="-428.2"/>
<text text-anchor="start" x="296.5" y="-418.3" font-family="Helvetica,sans-Serif" font-size="11.00" fill="#000000">usu_asignado_id</text>
<polygon fill="none" stroke="#000000" points="276.5,-389.2 276.5,-411.2 399.5,-411.2 399.5,-389.2 276.5,-389.2"/>
<image xlink:href="../../images/foreignKeys.png" width="11px" height="12px" preserveAspectRatio="xMinYMin meet" x="281.5" y="-406.2"/>
<text text-anchor="start" x="296.5" y="-396.3" font-family="Helvetica,sans-Serif" font-size="11.00" fill="#000000">campana_id</text>
<polygon fill="none" stroke="#000000" points="276.5,-367.2 276.5,-389.2 399.5,-389.2 399.5,-367.2 276.5,-367.2"/>
<image xlink:href="../../images/foreignKeys.png" width="11px" height="12px" preserveAspectRatio="xMinYMin meet" x="281.5" y="-384.2"/>
<text text-anchor="start" x="296.5" y="-374.3" font-family="Helvetica,sans-Serif" font-size="11.00" fill="#000000">persona_id</text>
<polygon fill="none" stroke="#000000" points="276.5,-345.2 276.5,-367.2 399.5,-367.2 399.5,-345.2 276.5,-345.2"/>
<image xlink:href="../../images/foreignKeys.png" width="11px" height="12px" preserveAspectRatio="xMinYMin meet" x="281.5" y="-362.2"/>
<text text-anchor="start" x="296.5" y="-352.3" font-family="Helvetica,sans-Serif" font-size="11.00" fill="#000000">curso_id</text>
<polygon fill="none" stroke="#000000" points="276.5,-326.2 276.5,-345.2 399.5,-345.2 399.5,-326.2 276.5,-326.2"/>
<text text-anchor="start" x="279.5" y="-332.3" font-family="Helvetica,sans-Serif" font-size="11.00" fill="#000000">...</text>
<polygon fill="#ffffff" stroke="transparent" points="276.5,-307.2 276.5,-326.2 318.5,-326.2 318.5,-307.2 276.5,-307.2"/>
<polygon fill="none" stroke="#000000" points="276.5,-307.2 276.5,-326.2 318.5,-326.2 318.5,-307.2 276.5,-307.2"/>
<text text-anchor="start" x="279.5" y="-313.3" font-family="Helvetica,sans-Serif" font-size="11.00" fill="#000000">&lt; 4</text>
<polygon fill="#ffffff" stroke="transparent" points="318.5,-307.2 318.5,-326.2 367.5,-326.2 367.5,-307.2 318.5,-307.2"/>
<polygon fill="none" stroke="#000000" points="318.5,-307.2 318.5,-326.2 367.5,-326.2 367.5,-307.2 318.5,-307.2"/>
<text text-anchor="start" x="332.1105" y="-313.3" font-family="Helvetica,sans-Serif" font-size="11.00" fill="#000000">0 rows</text>
<polygon fill="#ffffff" stroke="transparent" points="367.5,-307.2 367.5,-326.2 399.5,-326.2 399.5,-307.2 367.5,-307.2"/>
<polygon fill="none" stroke="#000000" points="367.5,-307.2 367.5,-326.2 399.5,-326.2 399.5,-307.2 367.5,-307.2"/>
<text text-anchor="start" x="380.9053" y="-313.3" font-family="Helvetica,sans-Serif" font-size="11.00" fill="#000000">3 &gt;</text>
</a>
</g>
</g>
<!-- casos&#45;&gt;leads -->
<g id="edge2" class="edge">
<title>casos:w&#45;&gt;leads:e</title>
<path fill="none" stroke="#000000" d="M460.1108,-392.9521C434.4789,-403.9563 434.9588,-444.2 399.5,-444.2"/>
<polygon fill="#000000" stroke="#000000" points="466.6424,-391.7029 475.1763,-393.7359 470.5712,-390.9514 474.5,-390.2 474.5,-390.2 474.5,-390.2 470.5712,-390.9514 473.8237,-386.6641 466.6424,-391.7029 466.6424,-391.7029"/>
<ellipse fill="none" stroke="#000000" cx="463.4994" cy="-392.3041" rx="3.2" ry="3.2"/>
</g>
<!-- usuarios -->
<g id="node4" class="node">
<title>usuarios</title>
<g id="a_node4"><a xlink:href="../../tables/usuarios.html" xlink:title="usuarios" target="_top">
<polygon fill="#ffffff" stroke="transparent" points="75.5,-380.7 75.5,-441.7 159.5,-441.7 159.5,-380.7 75.5,-380.7"/>
<polygon fill="#f5f5f5" stroke="transparent" points="75.5,-418.2 75.5,-441.2 159.5,-441.2 159.5,-418.2 75.5,-418.2"/>
<polygon fill="none" stroke="#000000" points="75.5,-418.2 75.5,-441.2 159.5,-441.2 159.5,-418.2 75.5,-418.2"/>
<text text-anchor="start" x="80.2188" y="-427.3" font-family="Helvetica,sans-Serif" font-weight="bold" font-size="11.00" fill="#000000">usuarios</text>
<text text-anchor="start" x="125.0219" y="-426.3" font-family="Helvetica,sans-Serif" font-size="11.00" fill="#000000">[table]</text>
<polygon fill="none" stroke="#000000" points="75.5,-399.2 75.5,-418.2 159.5,-418.2 159.5,-399.2 75.5,-399.2"/>
<text text-anchor="start" x="78.5" y="-405.3" font-family="Helvetica,sans-Serif" font-size="11.00" fill="#000000">...</text>
<polygon fill="#ffffff" stroke="transparent" points="75.5,-380.2 75.5,-399.2 96.5,-399.2 96.5,-380.2 75.5,-380.2"/>
<polygon fill="none" stroke="#000000" points="75.5,-380.2 75.5,-399.2 96.5,-399.2 96.5,-380.2 75.5,-380.2"/>
<text text-anchor="start" x="78.5" y="-386.3" font-family="Helvetica,sans-Serif" font-size="11.00" fill="#000000"> &#160;</text>
<polygon fill="#ffffff" stroke="transparent" points="96.5,-380.2 96.5,-399.2 133.5,-399.2 133.5,-380.2 96.5,-380.2"/>
<polygon fill="none" stroke="#000000" points="96.5,-380.2 96.5,-399.2 133.5,-399.2 133.5,-380.2 96.5,-380.2"/>
<text text-anchor="start" x="103.6105" y="-386.3" font-family="Helvetica,sans-Serif" font-size="11.00" fill="#000000">1 row</text>
<polygon fill="#ffffff" stroke="transparent" points="133.5,-380.2 133.5,-399.2 159.5,-399.2 159.5,-380.2 133.5,-380.2"/>
<polygon fill="none" stroke="#000000" points="133.5,-380.2 133.5,-399.2 159.5,-399.2 159.5,-380.2 133.5,-380.2"/>
<text text-anchor="start" x="140.9053" y="-386.3" font-family="Helvetica,sans-Serif" font-size="11.00" fill="#000000">5 &gt;</text>
</a>
</g>
</g>
<!-- casos&#45;&gt;usuarios -->
<g id="edge3" class="edge">
<title>casos:w&#45;&gt;usuarios:e</title>
<path fill="none" stroke="#000000" d="M459.9677,-387.7491C428.8447,-375.3784 446.409,-319.513 407,-297.2 353.241,-266.7622 321.1777,-265.7576 268,-297.2 241.8028,-312.6896 255.5161,-334.7209 235,-357.2 207.7022,-387.1096 199.9939,-408.2 159.5,-408.2"/>
<polygon fill="#000000" stroke="#000000" points="466.6114,-388.8695 473.9013,-393.7499 470.5557,-389.5348 474.5,-390.2 474.5,-390.2 474.5,-390.2 470.5557,-389.5348 475.0987,-386.6501 466.6114,-388.8695 466.6114,-388.8695"/>
<ellipse fill="none" stroke="#000000" cx="463.456" cy="-388.3373" rx="3.2" ry="3.2"/>
</g>
<!-- personas -->
<g id="node7" class="node">
<title>personas</title>
<g id="a_node7"><a xlink:href="../../tables/personas.html" xlink:title="personas" target="_top">
<polygon fill="#ffffff" stroke="transparent" points="73.5,-480.7 73.5,-541.7 161.5,-541.7 161.5,-480.7 73.5,-480.7"/>
<polygon fill="#f5f5f5" stroke="transparent" points="73.5,-518.2 73.5,-541.2 161.5,-541.2 161.5,-518.2 73.5,-518.2"/>
<polygon fill="none" stroke="#000000" points="73.5,-518.2 73.5,-541.2 161.5,-541.2 161.5,-518.2 73.5,-518.2"/>
<text text-anchor="start" x="78.3818" y="-527.3" font-family="Helvetica,sans-Serif" font-weight="bold" font-size="11.00" fill="#000000">personas</text>
<text text-anchor="start" x="127.0219" y="-526.3" font-family="Helvetica,sans-Serif" font-size="11.00" fill="#000000">[table]</text>
<polygon fill="none" stroke="#000000" points="73.5,-499.2 73.5,-518.2 161.5,-518.2 161.5,-499.2 73.5,-499.2"/>
<text text-anchor="start" x="76.5" y="-505.3" font-family="Helvetica,sans-Serif" font-size="11.00" fill="#000000">...</text>
<polygon fill="#ffffff" stroke="transparent" points="73.5,-480.2 73.5,-499.2 96.5,-499.2 96.5,-480.2 73.5,-480.2"/>
<polygon fill="none" stroke="#000000" points="73.5,-480.2 73.5,-499.2 96.5,-499.2 96.5,-480.2 73.5,-480.2"/>
<text text-anchor="start" x="76.5" y="-486.3" font-family="Helvetica,sans-Serif" font-size="11.00" fill="#000000"> &#160;</text>
<polygon fill="#ffffff" stroke="transparent" points="96.5,-480.2 96.5,-499.2 134.5,-499.2 134.5,-480.2 96.5,-480.2"/>
<polygon fill="none" stroke="#000000" points="96.5,-480.2 96.5,-499.2 134.5,-499.2 134.5,-480.2 96.5,-480.2"/>
<text text-anchor="start" x="104.6105" y="-486.3" font-family="Helvetica,sans-Serif" font-size="11.00" fill="#000000">1 row</text>
<polygon fill="#ffffff" stroke="transparent" points="134.5,-480.2 134.5,-499.2 161.5,-499.2 161.5,-480.2 134.5,-480.2"/>
<polygon fill="none" stroke="#000000" points="134.5,-480.2 134.5,-499.2 161.5,-499.2 161.5,-480.2 134.5,-480.2"/>
<text text-anchor="start" x="142.9053" y="-486.3" font-family="Helvetica,sans-Serif" font-size="11.00" fill="#000000">7 &gt;</text>
</a>
</g>
</g>
<!-- contactos&#45;&gt;personas -->
<g id="edge5" class="edge">
<title>contactos:w&#45;&gt;personas:e</title>
<path fill="none" stroke="#000000" d="M277.9803,-526.7855C230.9727,-524.0069 215.1607,-508.2 161.5,-508.2"/>
<polygon fill="#000000" stroke="#000000" points="284.5033,-526.9717 292.3972,-530.7985 288.5016,-527.0858 292.5,-527.2 292.5,-527.2 292.5,-527.2 288.5016,-527.0858 292.6028,-523.6015 284.5033,-526.9717 284.5033,-526.9717"/>
<ellipse fill="none" stroke="#000000" cx="281.3046" cy="-526.8803" rx="3.2" ry="3.2"/>
</g>
<!-- leads&#45;&gt;usuarios -->
<g id="edge12" class="edge">
<title>leads:w&#45;&gt;usuarios:e</title>
<path fill="none" stroke="#000000" d="M261.9648,-421.8109C221.289,-419.5498 206.6543,-408.2 159.5,-408.2"/>
<polygon fill="#000000" stroke="#000000" points="268.5029,-421.9859 276.4037,-425.7987 272.5014,-422.0929 276.5,-422.2 276.5,-422.2 276.5,-422.2 272.5014,-422.0929 276.5963,-418.6013 268.5029,-421.9859 268.5029,-421.9859"/>
<ellipse fill="none" stroke="#000000" cx="265.304" cy="-421.9003" rx="3.2" ry="3.2"/>
</g>
<!-- leads&#45;&gt;personas -->
<g id="edge11" class="edge">
<title>leads:w&#45;&gt;personas:e</title>
<path fill="none" stroke="#000000" d="M262.2159,-381.6006C244.4342,-392.6823 255.6758,-428.407 235,-452.2 208.0624,-483.1989 202.5678,-508.2 161.5,-508.2"/>
<polygon fill="#000000" stroke="#000000" points="268.7175,-380.0528 277.3338,-381.7021 272.6088,-379.1264 276.5,-378.2 276.5,-378.2 276.5,-378.2 272.6088,-379.1264 275.6662,-374.6979 268.7175,-380.0528 268.7175,-380.0528"/>
<ellipse fill="none" stroke="#000000" cx="265.6045" cy="-380.794" rx="3.2" ry="3.2"/>
</g>
<!-- cursos -->
<g id="node8" class="node">
<title>cursos</title>
<g id="a_node8"><a xlink:href="../../tables/cursos.html" xlink:title="cursos" target="_top">
<polygon fill="#ffffff" stroke="transparent" points="8,-38.2 8,-238.2 227,-238.2 227,-38.2 8,-38.2"/>
<polygon fill="#f5f5f5" stroke="transparent" points="10.5,-213.2 10.5,-236.2 225.5,-236.2 225.5,-213.2 10.5,-213.2"/>
<polygon fill="none" stroke="#000000" points="10.5,-213.2 10.5,-236.2 225.5,-236.2 225.5,-213.2 10.5,-213.2"/>
<text text-anchor="start" x="15.5" y="-222.3" font-family="Helvetica,sans-Serif" font-weight="bold" font-size="11.00" fill="#000000">cursos</text>
<text text-anchor="start" x="190.5437" y="-221.3" font-family="Helvetica,sans-Serif" font-size="11.00" fill="#000000">[table]</text>
<polygon fill="none" stroke="#000000" points="10.5,-191.2 10.5,-213.2 133.5,-213.2 133.5,-191.2 10.5,-191.2"/>
<image xlink:href="../../images/primaryKeys.png" width="11px" height="12px" preserveAspectRatio="xMinYMin meet" x="15.5" y="-208.2"/>
<text text-anchor="start" x="30.5" y="-198.3" font-family="Helvetica,sans-Serif" font-size="11.00" fill="#000000">curso_id</text>
<polygon fill="none" stroke="#000000" points="133.5,-191.2 133.5,-213.2 225.5,-213.2 225.5,-191.2 133.5,-191.2"/>
<text text-anchor="start" x="136.5" y="-198.9" font-family="Helvetica,sans-Serif" font-size="11.00" fill="#000000">serial[10]</text>
<polygon fill="none" stroke="#000000" points="10.5,-169.2 10.5,-191.2 133.5,-191.2 133.5,-169.2 10.5,-169.2"/>
<text text-anchor="start" x="30.5" y="-176.3" font-family="Helvetica,sans-Serif" font-size="11.00" fill="#000000">nombre</text>
<polygon fill="none" stroke="#000000" points="133.5,-169.2 133.5,-191.2 225.5,-191.2 225.5,-169.2 133.5,-169.2"/>
<text text-anchor="start" x="136.5" y="-176.9" font-family="Helvetica,sans-Serif" font-size="11.00" fill="#000000">varchar[255]</text>
<polygon fill="none" stroke="#000000" points="10.5,-147.2 10.5,-169.2 133.5,-169.2 133.5,-147.2 10.5,-147.2"/>
<text text-anchor="start" x="30.5" y="-154.3" font-family="Helvetica,sans-Serif" font-size="11.00" fill="#000000">descripcion</text>
<polygon fill="none" stroke="#000000" points="133.5,-147.2 133.5,-169.2 225.5,-169.2 225.5,-147.2 133.5,-147.2"/>
<text text-anchor="start" x="136.5" y="-154.9" font-family="Helvetica,sans-Serif" font-size="11.00" fill="#000000">text[2147483647]</text>
<polygon fill="none" stroke="#000000" points="10.5,-125.2 10.5,-147.2 133.5,-147.2 133.5,-125.2 10.5,-125.2"/>
<text text-anchor="start" x="30.5" y="-132.3" font-family="Helvetica,sans-Serif" font-size="11.00" fill="#000000">usu_insercion</text>
<polygon fill="none" stroke="#000000" points="133.5,-125.2 133.5,-147.2 225.5,-147.2 225.5,-125.2 133.5,-125.2"/>
<text text-anchor="start" x="136.5" y="-132.9" font-family="Helvetica,sans-Serif" font-size="11.00" fill="#000000">varchar[20]</text>
<polygon fill="none" stroke="#000000" points="10.5,-103.2 10.5,-125.2 133.5,-125.2 133.5,-103.2 10.5,-103.2"/>
<text text-anchor="start" x="30.5" y="-110.3" font-family="Helvetica,sans-Serif" font-size="11.00" fill="#000000">fec_insercion</text>
<polygon fill="none" stroke="#000000" points="133.5,-103.2 133.5,-125.2 225.5,-125.2 225.5,-103.2 133.5,-103.2"/>
<text text-anchor="start" x="136.1023" y="-110.9" font-family="Helvetica,sans-Serif" font-size="11.00" fill="#000000">timestamptz[35,6]</text>
<polygon fill="none" stroke="#000000" points="10.5,-81.2 10.5,-103.2 133.5,-103.2 133.5,-81.2 10.5,-81.2"/>
<text text-anchor="start" x="30.5" y="-88.3" font-family="Helvetica,sans-Serif" font-size="11.00" fill="#000000">fec_modificacion</text>
<polygon fill="none" stroke="#000000" points="133.5,-81.2 133.5,-103.2 225.5,-103.2 225.5,-81.2 133.5,-81.2"/>
<text text-anchor="start" x="136.1023" y="-88.9" font-family="Helvetica,sans-Serif" font-size="11.00" fill="#000000">timestamptz[35,6]</text>
<polygon fill="none" stroke="#000000" points="10.5,-59.2 10.5,-81.2 133.5,-81.2 133.5,-59.2 10.5,-59.2"/>
<text text-anchor="start" x="30.5" y="-66.3" font-family="Helvetica,sans-Serif" font-size="11.00" fill="#000000">usu_modificacion</text>
<polygon fill="none" stroke="#000000" points="133.5,-59.2 133.5,-81.2 225.5,-81.2 225.5,-59.2 133.5,-59.2"/>
<text text-anchor="start" x="136.5" y="-66.9" font-family="Helvetica,sans-Serif" font-size="11.00" fill="#000000">varchar[20]</text>
<polygon fill="#ffffff" stroke="transparent" points="10.5,-40.2 10.5,-59.2 63.5,-59.2 63.5,-40.2 10.5,-40.2"/>
<polygon fill="none" stroke="#000000" points="10.5,-40.2 10.5,-59.2 63.5,-59.2 63.5,-40.2 10.5,-40.2"/>
<text text-anchor="start" x="13.5" y="-46.3" font-family="Helvetica,sans-Serif" font-size="11.00" fill="#000000">&lt; 0</text>
<polygon fill="#ffffff" stroke="transparent" points="63.5,-40.2 63.5,-59.2 133.5,-59.2 133.5,-40.2 63.5,-40.2"/>
<polygon fill="none" stroke="#000000" points="63.5,-40.2 63.5,-59.2 133.5,-59.2 133.5,-40.2 63.5,-40.2"/>
<text text-anchor="start" x="98.1105" y="-46.3" font-family="Helvetica,sans-Serif" font-size="11.00" fill="#000000">0 rows</text>
<polygon fill="#ffffff" stroke="transparent" points="133.5,-40.2 133.5,-59.2 225.5,-59.2 225.5,-40.2 133.5,-40.2"/>
<polygon fill="none" stroke="#000000" points="133.5,-40.2 133.5,-59.2 225.5,-59.2 225.5,-40.2 133.5,-40.2"/>
<text text-anchor="start" x="206.9053" y="-46.3" font-family="Helvetica,sans-Serif" font-size="11.00" fill="#000000">3 &gt;</text>
<polygon fill="none" stroke="#000000" stroke-width="2" points="9,-39.2 9,-237.2 226,-237.2 226,-39.2 9,-39.2"/>
</a>
</g>
</g>
<!-- leads&#45;&gt;cursos -->
<g id="edge10" class="edge">
<title>leads:w&#45;&gt;cursos:e</title>
<path fill="none" stroke="#000000" d="M262.1893,-353.3956C218.2665,-332.5235 291.8264,-202.2 225.5,-202.2"/>
<polygon fill="#000000" stroke="#000000" points="268.6493,-354.6615 275.8077,-359.7328 272.5747,-355.4307 276.5,-356.2 276.5,-356.2 276.5,-356.2 272.5747,-355.4307 277.1923,-352.6672 268.6493,-354.6615 268.6493,-354.6615"/>
<ellipse fill="none" stroke="#000000" cx="265.5091" cy="-354.0461" rx="3.2" ry="3.2"/>
</g>
<!-- campanas -->
<g id="node11" class="node">
<title>campanas</title>
<g id="a_node11"><a xlink:href="../../tables/campanas.html" xlink:title="campanas" target="_top">
<polygon fill="#ffffff" stroke="transparent" points="71,-285.7 71,-346.7 164,-346.7 164,-285.7 71,-285.7"/>
<polygon fill="#f5f5f5" stroke="transparent" points="71.5,-323.2 71.5,-346.2 164.5,-346.2 164.5,-323.2 71.5,-323.2"/>
<polygon fill="none" stroke="#000000" points="71.5,-323.2 71.5,-346.2 164.5,-346.2 164.5,-323.2 71.5,-323.2"/>
<text text-anchor="start" x="76.1318" y="-332.3" font-family="Helvetica,sans-Serif" font-weight="bold" font-size="11.00" fill="#000000">campanas</text>
<text text-anchor="start" x="130.0219" y="-331.3" font-family="Helvetica,sans-Serif" font-size="11.00" fill="#000000">[table]</text>
<polygon fill="none" stroke="#000000" points="71.5,-304.2 71.5,-323.2 164.5,-323.2 164.5,-304.2 71.5,-304.2"/>
<text text-anchor="start" x="74.5" y="-310.3" font-family="Helvetica,sans-Serif" font-size="11.00" fill="#000000">...</text>
<polygon fill="#ffffff" stroke="transparent" points="71.5,-285.2 71.5,-304.2 94.5,-304.2 94.5,-285.2 71.5,-285.2"/>
<polygon fill="none" stroke="#000000" points="71.5,-285.2 71.5,-304.2 94.5,-304.2 94.5,-285.2 71.5,-285.2"/>
<text text-anchor="start" x="74.5" y="-291.3" font-family="Helvetica,sans-Serif" font-size="11.00" fill="#000000"> &#160;</text>
<polygon fill="#ffffff" stroke="transparent" points="94.5,-285.2 94.5,-304.2 137.5,-304.2 137.5,-285.2 94.5,-285.2"/>
<polygon fill="none" stroke="#000000" points="94.5,-285.2 94.5,-304.2 137.5,-304.2 137.5,-285.2 94.5,-285.2"/>
<text text-anchor="start" x="102.1105" y="-291.3" font-family="Helvetica,sans-Serif" font-size="11.00" fill="#000000">0 rows</text>
<polygon fill="#ffffff" stroke="transparent" points="137.5,-285.2 137.5,-304.2 164.5,-304.2 164.5,-285.2 137.5,-285.2"/>
<polygon fill="none" stroke="#000000" points="137.5,-285.2 137.5,-304.2 164.5,-304.2 164.5,-285.2 137.5,-285.2"/>
<text text-anchor="start" x="145.9053" y="-291.3" font-family="Helvetica,sans-Serif" font-size="11.00" fill="#000000">2 &gt;</text>
</a>
</g>
</g>
<!-- leads&#45;&gt;campanas -->
<g id="edge9" class="edge">
<title>leads:w&#45;&gt;campanas:e</title>
<path fill="none" stroke="#000000" d="M263.2959,-393.3733C234.9878,-372.8638 177.5494,-313.2 164.5,-313.2"/>
<polygon fill="#000000" stroke="#000000" points="269.3936,-396.5258 274.8466,-403.3979 272.9468,-398.3629 276.5,-400.2 276.5,-400.2 276.5,-400.2 272.9468,-398.3629 278.1534,-397.0021 269.3936,-396.5258 269.3936,-396.5258"/>
<ellipse fill="none" stroke="#000000" cx="266.551" cy="-395.0562" rx="3.2" ry="3.2"/>
</g>
<!-- ciclo_profesores -->
<g id="node5" class="node">
<title>ciclo_profesores</title>
<g id="a_node5"><a xlink:href="../../tables/ciclo_profesores.html" xlink:title="ciclo_profesores" target="_top">
<polygon fill="#ffffff" stroke="transparent" points="448,-88.7 448,-149.7 571,-149.7 571,-88.7 448,-88.7"/>
<polygon fill="#f5f5f5" stroke="transparent" points="448.5,-126.2 448.5,-149.2 571.5,-149.2 571.5,-126.2 448.5,-126.2"/>
<polygon fill="none" stroke="#000000" points="448.5,-126.2 448.5,-149.2 571.5,-149.2 571.5,-126.2 448.5,-126.2"/>
<text text-anchor="start" x="453.4666" y="-135.3" font-family="Helvetica,sans-Serif" font-weight="bold" font-size="11.00" fill="#000000">ciclo_profesores</text>
<text text-anchor="start" x="537.0219" y="-134.3" font-family="Helvetica,sans-Serif" font-size="11.00" fill="#000000">[table]</text>
<polygon fill="none" stroke="#000000" points="448.5,-107.2 448.5,-126.2 571.5,-126.2 571.5,-107.2 448.5,-107.2"/>
<text text-anchor="start" x="451.5" y="-113.3" font-family="Helvetica,sans-Serif" font-size="11.00" fill="#000000">...</text>
<polygon fill="#ffffff" stroke="transparent" points="448.5,-88.2 448.5,-107.2 495.5,-107.2 495.5,-88.2 448.5,-88.2"/>
<polygon fill="none" stroke="#000000" points="448.5,-88.2 448.5,-107.2 495.5,-107.2 495.5,-88.2 448.5,-88.2"/>
<text text-anchor="start" x="451.5" y="-94.3" font-family="Helvetica,sans-Serif" font-size="11.00" fill="#000000">&lt; 2</text>
<polygon fill="#ffffff" stroke="transparent" points="495.5,-88.2 495.5,-107.2 546.5,-107.2 546.5,-88.2 495.5,-88.2"/>
<polygon fill="none" stroke="#000000" points="495.5,-88.2 495.5,-107.2 546.5,-107.2 546.5,-88.2 495.5,-88.2"/>
<text text-anchor="start" x="511.1105" y="-94.3" font-family="Helvetica,sans-Serif" font-size="11.00" fill="#000000">0 rows</text>
<polygon fill="#ffffff" stroke="transparent" points="546.5,-88.2 546.5,-107.2 571.5,-107.2 571.5,-88.2 546.5,-88.2"/>
<polygon fill="none" stroke="#000000" points="546.5,-88.2 546.5,-107.2 571.5,-107.2 571.5,-88.2 546.5,-88.2"/>
<text text-anchor="start" x="562.3862" y="-94.3" font-family="Helvetica,sans-Serif" font-size="11.00" fill="#000000"> &#160;</text>
</a>
</g>
</g>
<!-- curso_ciclos -->
<g id="node6" class="node">
<title>curso_ciclos</title>
<g id="a_node6"><a xlink:href="../../tables/curso_ciclos.html" xlink:title="curso_ciclos" target="_top">
<polygon fill="#ffffff" stroke="transparent" points="276,-57.7 276,-162.7 399,-162.7 399,-57.7 276,-57.7"/>
<polygon fill="#f5f5f5" stroke="transparent" points="276.5,-139.2 276.5,-162.2 399.5,-162.2 399.5,-139.2 276.5,-139.2"/>
<polygon fill="none" stroke="#000000" points="276.5,-139.2 276.5,-162.2 399.5,-162.2 399.5,-139.2 276.5,-139.2"/>
<text text-anchor="start" x="281.5" y="-148.3" font-family="Helvetica,sans-Serif" font-weight="bold" font-size="11.00" fill="#000000">curso_ciclos</text>
<text text-anchor="start" x="364.5437" y="-147.3" font-family="Helvetica,sans-Serif" font-size="11.00" fill="#000000">[table]</text>
<polygon fill="none" stroke="#000000" points="276.5,-117.2 276.5,-139.2 399.5,-139.2 399.5,-117.2 276.5,-117.2"/>
<image xlink:href="../../images/primaryKeys.png" width="11px" height="12px" preserveAspectRatio="xMinYMin meet" x="281.5" y="-134.2"/>
<text text-anchor="start" x="296.5" y="-124.3" font-family="Helvetica,sans-Serif" font-size="11.00" fill="#000000">ciclo_id</text>
<polygon fill="none" stroke="#000000" points="276.5,-95.2 276.5,-117.2 399.5,-117.2 399.5,-95.2 276.5,-95.2"/>
<image xlink:href="../../images/foreignKeys.png" width="11px" height="12px" preserveAspectRatio="xMinYMin meet" x="281.5" y="-112.2"/>
<text text-anchor="start" x="296.5" y="-102.3" font-family="Helvetica,sans-Serif" font-size="11.00" fill="#000000">curso_id</text>
<polygon fill="none" stroke="#000000" points="276.5,-76.2 276.5,-95.2 399.5,-95.2 399.5,-76.2 276.5,-76.2"/>
<text text-anchor="start" x="279.5" y="-82.3" font-family="Helvetica,sans-Serif" font-size="11.00" fill="#000000">...</text>
<polygon fill="#ffffff" stroke="transparent" points="276.5,-57.2 276.5,-76.2 318.5,-76.2 318.5,-57.2 276.5,-57.2"/>
<polygon fill="none" stroke="#000000" points="276.5,-57.2 276.5,-76.2 318.5,-76.2 318.5,-57.2 276.5,-57.2"/>
<text text-anchor="start" x="279.5" y="-63.3" font-family="Helvetica,sans-Serif" font-size="11.00" fill="#000000">&lt; 1</text>
<polygon fill="#ffffff" stroke="transparent" points="318.5,-57.2 318.5,-76.2 367.5,-76.2 367.5,-57.2 318.5,-57.2"/>
<polygon fill="none" stroke="#000000" points="318.5,-57.2 318.5,-76.2 367.5,-76.2 367.5,-57.2 318.5,-57.2"/>
<text text-anchor="start" x="332.1105" y="-63.3" font-family="Helvetica,sans-Serif" font-size="11.00" fill="#000000">0 rows</text>
<polygon fill="#ffffff" stroke="transparent" points="367.5,-57.2 367.5,-76.2 399.5,-76.2 399.5,-57.2 367.5,-57.2"/>
<polygon fill="none" stroke="#000000" points="367.5,-57.2 367.5,-76.2 399.5,-76.2 399.5,-57.2 367.5,-57.2"/>
<text text-anchor="start" x="380.9053" y="-63.3" font-family="Helvetica,sans-Serif" font-size="11.00" fill="#000000">1 &gt;</text>
</a>
</g>
</g>
<!-- ciclo_profesores&#45;&gt;curso_ciclos -->
<g id="edge4" class="edge">
<title>ciclo_profesores:w&#45;&gt;curso_ciclos:e</title>
<path fill="none" stroke="#000000" d="M434.1744,-118.1816C422.7211,-121.5899 416.1408,-128.2 399.5,-128.2"/>
<polygon fill="#000000" stroke="#000000" points="440.5755,-117.2962 448.9933,-119.766 444.5377,-116.7481 448.5,-116.2 448.5,-116.2 448.5,-116.2 444.5377,-116.7481 448.0067,-112.634 440.5755,-117.2962 440.5755,-117.2962"/>
<ellipse fill="none" stroke="#000000" cx="437.4056" cy="-117.7347" rx="3.2" ry="3.2"/>
</g>
<!-- curso_ciclos&#45;&gt;cursos -->
<g id="edge6" class="edge">
<title>curso_ciclos:w&#45;&gt;cursos:e</title>
<path fill="none" stroke="#000000" d="M262.4189,-110.325C238.1253,-128.7 267.7746,-202.2 225.5,-202.2"/>
<polygon fill="#000000" stroke="#000000" points="268.8226,-108.4491 277.5121,-109.6548 272.6613,-107.3245 276.5,-106.2 276.5,-106.2 276.5,-106.2 272.6613,-107.3245 275.4879,-102.7452 268.8226,-108.4491 268.8226,-108.4491"/>
<ellipse fill="none" stroke="#000000" cx="265.7517" cy="-109.3487" rx="3.2" ry="3.2"/>
</g>
<!-- encuesta_respuestas -->
<g id="node9" class="node">
<title>encuesta_respuestas</title>
<g id="a_node9"><a xlink:href="../../tables/encuesta_respuestas.html" xlink:title="encuesta_respuestas" target="_top">
<polygon fill="#ffffff" stroke="transparent" points="620,-390.7 620,-451.7 767,-451.7 767,-390.7 620,-390.7"/>
<polygon fill="#f5f5f5" stroke="transparent" points="620.5,-428.2 620.5,-451.2 767.5,-451.2 767.5,-428.2 620.5,-428.2"/>
<polygon fill="none" stroke="#000000" points="620.5,-428.2 620.5,-451.2 767.5,-451.2 767.5,-428.2 620.5,-428.2"/>
<text text-anchor="start" x="625.2302" y="-437.3" font-family="Helvetica,sans-Serif" font-weight="bold" font-size="11.00" fill="#000000">encuesta_respuestas</text>
<text text-anchor="start" x="733.0219" y="-436.3" font-family="Helvetica,sans-Serif" font-size="11.00" fill="#000000">[table]</text>
<polygon fill="none" stroke="#000000" points="620.5,-409.2 620.5,-428.2 767.5,-428.2 767.5,-409.2 620.5,-409.2"/>
<text text-anchor="start" x="623.5" y="-415.3" font-family="Helvetica,sans-Serif" font-size="11.00" fill="#000000">...</text>
<polygon fill="#ffffff" stroke="transparent" points="620.5,-390.2 620.5,-409.2 674.5,-409.2 674.5,-390.2 620.5,-390.2"/>
<polygon fill="none" stroke="#000000" points="620.5,-390.2 620.5,-409.2 674.5,-409.2 674.5,-390.2 620.5,-390.2"/>
<text text-anchor="start" x="623.5" y="-396.3" font-family="Helvetica,sans-Serif" font-size="11.00" fill="#000000">&lt; 2</text>
<polygon fill="#ffffff" stroke="transparent" points="674.5,-390.2 674.5,-409.2 729.5,-409.2 729.5,-390.2 674.5,-390.2"/>
<polygon fill="none" stroke="#000000" points="674.5,-390.2 674.5,-409.2 729.5,-409.2 729.5,-390.2 674.5,-390.2"/>
<text text-anchor="start" x="694.1105" y="-396.3" font-family="Helvetica,sans-Serif" font-size="11.00" fill="#000000">0 rows</text>
<polygon fill="#ffffff" stroke="transparent" points="729.5,-390.2 729.5,-409.2 767.5,-409.2 767.5,-390.2 729.5,-390.2"/>
<polygon fill="none" stroke="#000000" points="729.5,-390.2 729.5,-409.2 767.5,-409.2 767.5,-390.2 729.5,-390.2"/>
<text text-anchor="start" x="748.9053" y="-396.3" font-family="Helvetica,sans-Serif" font-size="11.00" fill="#000000">1 &gt;</text>
</a>
</g>
</g>
<!-- encuesta_respuestas&#45;&gt;contactos -->
<g id="edge7" class="edge">
<title>encuesta_respuestas:w&#45;&gt;contactos:e</title>
<path fill="none" stroke="#000000" d="M606.409,-421.4837C583.287,-435.7251 612.699,-492.4927 579,-516.2 507.4596,-566.5288 469.9701,-527.2 382.5,-527.2"/>
<polygon fill="#000000" stroke="#000000" points="612.7088,-420.0157 621.3171,-421.7061 616.6044,-419.1078 620.5,-418.2 620.5,-418.2 620.5,-418.2 616.6044,-419.1078 619.6829,-414.6939 612.7088,-420.0157 612.7088,-420.0157"/>
<ellipse fill="none" stroke="#000000" cx="609.5923" cy="-420.7419" rx="3.2" ry="3.2"/>
</g>
<!-- oportunidades -->
<g id="node10" class="node">
<title>oportunidades</title>
<g id="a_node10"><a xlink:href="../../tables/oportunidades.html" xlink:title="oportunidades" target="_top">
<polygon fill="#ffffff" stroke="transparent" points="448,-170.7 448,-341.7 571,-341.7 571,-170.7 448,-170.7"/>
<polygon fill="#f5f5f5" stroke="transparent" points="448.5,-318.2 448.5,-341.2 571.5,-341.2 571.5,-318.2 448.5,-318.2"/>
<polygon fill="none" stroke="#000000" points="448.5,-318.2 448.5,-341.2 571.5,-341.2 571.5,-318.2 448.5,-318.2"/>
<text text-anchor="start" x="453.5" y="-327.3" font-family="Helvetica,sans-Serif" font-weight="bold" font-size="11.00" fill="#000000">oportunidades</text>
<text text-anchor="start" x="536.5437" y="-326.3" font-family="Helvetica,sans-Serif" font-size="11.00" fill="#000000">[table]</text>
<polygon fill="none" stroke="#000000" points="448.5,-296.2 448.5,-318.2 571.5,-318.2 571.5,-296.2 448.5,-296.2"/>
<image xlink:href="../../images/primaryKeys.png" width="11px" height="12px" preserveAspectRatio="xMinYMin meet" x="453.5" y="-313.2"/>
<text text-anchor="start" x="468.5" y="-303.3" font-family="Helvetica,sans-Serif" font-size="11.00" fill="#000000">oportunidad_id</text>
<polygon fill="none" stroke="#000000" points="448.5,-274.2 448.5,-296.2 571.5,-296.2 571.5,-274.2 448.5,-274.2"/>
<image xlink:href="../../images/foreignKeys.png" width="11px" height="12px" preserveAspectRatio="xMinYMin meet" x="453.5" y="-291.2"/>
<text text-anchor="start" x="468.5" y="-281.3" font-family="Helvetica,sans-Serif" font-size="11.00" fill="#000000">campana_id</text>
<polygon fill="none" stroke="#000000" points="448.5,-252.2 448.5,-274.2 571.5,-274.2 571.5,-252.2 448.5,-252.2"/>
<image xlink:href="../../images/foreignKeys.png" width="11px" height="12px" preserveAspectRatio="xMinYMin meet" x="453.5" y="-269.2"/>
<text text-anchor="start" x="468.5" y="-259.3" font-family="Helvetica,sans-Serif" font-size="11.00" fill="#000000">contacto_id</text>
<polygon fill="none" stroke="#000000" points="448.5,-230.2 448.5,-252.2 571.5,-252.2 571.5,-230.2 448.5,-230.2"/>
<image xlink:href="../../images/foreignKeys.png" width="11px" height="12px" preserveAspectRatio="xMinYMin meet" x="453.5" y="-247.2"/>
<text text-anchor="start" x="468.5" y="-237.3" font-family="Helvetica,sans-Serif" font-size="11.00" fill="#000000">curso_id</text>
<polygon fill="none" stroke="#000000" points="448.5,-208.2 448.5,-230.2 571.5,-230.2 571.5,-208.2 448.5,-208.2"/>
<image xlink:href="../../images/foreignKeys.png" width="11px" height="12px" preserveAspectRatio="xMinYMin meet" x="453.5" y="-225.2"/>
<text text-anchor="start" x="468.5" y="-215.3" font-family="Helvetica,sans-Serif" font-size="11.00" fill="#000000">usu_asignado_id</text>
<polygon fill="none" stroke="#000000" points="448.5,-189.2 448.5,-208.2 571.5,-208.2 571.5,-189.2 448.5,-189.2"/>
<text text-anchor="start" x="451.5" y="-195.3" font-family="Helvetica,sans-Serif" font-size="11.00" fill="#000000">...</text>
<polygon fill="#ffffff" stroke="transparent" points="448.5,-170.2 448.5,-189.2 490.5,-189.2 490.5,-170.2 448.5,-170.2"/>
<polygon fill="none" stroke="#000000" points="448.5,-170.2 448.5,-189.2 490.5,-189.2 490.5,-170.2 448.5,-170.2"/>
<text text-anchor="start" x="451.5" y="-176.3" font-family="Helvetica,sans-Serif" font-size="11.00" fill="#000000">&lt; 4</text>
<polygon fill="#ffffff" stroke="transparent" points="490.5,-170.2 490.5,-189.2 539.5,-189.2 539.5,-170.2 490.5,-170.2"/>
<polygon fill="none" stroke="#000000" points="490.5,-170.2 490.5,-189.2 539.5,-189.2 539.5,-170.2 490.5,-170.2"/>
<text text-anchor="start" x="504.1105" y="-176.3" font-family="Helvetica,sans-Serif" font-size="11.00" fill="#000000">0 rows</text>
<polygon fill="#ffffff" stroke="transparent" points="539.5,-170.2 539.5,-189.2 571.5,-189.2 571.5,-170.2 539.5,-170.2"/>
<polygon fill="none" stroke="#000000" points="539.5,-170.2 539.5,-189.2 571.5,-189.2 571.5,-170.2 539.5,-170.2"/>
<text text-anchor="start" x="552.9053" y="-176.3" font-family="Helvetica,sans-Serif" font-size="11.00" fill="#000000">1 &gt;</text>
</a>
</g>
</g>
<!-- encuesta_respuestas&#45;&gt;oportunidades -->
<g id="edge8" class="edge">
<title>encuesta_respuestas:w&#45;&gt;oportunidades:e</title>
<path fill="none" stroke="#000000" d="M606.5578,-414.5068C578.0985,-395.2466 619.5281,-307.2 571.5,-307.2"/>
<polygon fill="#000000" stroke="#000000" points="612.7667,-416.1515 619.5782,-421.68 616.6334,-417.1757 620.5,-418.2 620.5,-418.2 620.5,-418.2 616.6334,-417.1757 621.4218,-414.72 612.7667,-416.1515 612.7667,-416.1515"/>
<ellipse fill="none" stroke="#000000" cx="609.6734" cy="-415.3321" rx="3.2" ry="3.2"/>
</g>
<!-- oportunidades&#45;&gt;contactos -->
<g id="edge16" class="edge">
<title>oportunidades:w&#45;&gt;contactos:e</title>
<path fill="none" stroke="#000000" d="M434.8283,-269.21C396.969,-308.5065 437.5392,-527.2 382.5,-527.2"/>
<polygon fill="#000000" stroke="#000000" points="441.1764,-266.4195 449.9488,-266.4956 444.8382,-264.8097 448.5,-263.2 448.5,-263.2 448.5,-263.2 444.8382,-264.8097 447.0512,-259.9044 441.1764,-266.4195 441.1764,-266.4195"/>
<ellipse fill="none" stroke="#000000" cx="438.2469" cy="-267.7073" rx="3.2" ry="3.2"/>
</g>
<!-- oportunidades&#45;&gt;usuarios -->
<g id="edge18" class="edge">
<title>oportunidades:w&#45;&gt;usuarios:e</title>
<path fill="none" stroke="#000000" d="M434.4693,-222.8627C425.3918,-228.5674 421.5721,-239.5095 407,-245.2 348.4563,-268.0618 316.2854,-230.9688 268,-271.2 236.5472,-297.4063 260.4726,-325.1501 235,-357.2 209.8047,-388.901 199.9939,-408.2 159.5,-408.2"/>
<polygon fill="#000000" stroke="#000000" points="440.7594,-221.2207 449.4093,-222.6833 444.6297,-220.2104 448.5,-219.2 448.5,-219.2 448.5,-219.2 444.6297,-220.2104 447.5907,-215.7167 440.7594,-221.2207 440.7594,-221.2207"/>
<ellipse fill="none" stroke="#000000" cx="437.6632" cy="-222.029" rx="3.2" ry="3.2"/>
</g>
<!-- oportunidades&#45;&gt;cursos -->
<g id="edge17" class="edge">
<title>oportunidades:w&#45;&gt;cursos:e</title>
<path fill="none" stroke="#000000" d="M434.1068,-239.0455C425.5792,-236.1807 419.9593,-231.1378 407,-228.2 327.5264,-210.1838 306.9901,-202.2 225.5,-202.2"/>
<polygon fill="#000000" stroke="#000000" points="440.5881,-240.0157 447.967,-244.7603 444.5441,-240.6078 448.5,-241.2 448.5,-241.2 448.5,-241.2 444.5441,-240.6078 449.033,-237.6397 440.5881,-240.0157 440.5881,-240.0157"/>
<ellipse fill="none" stroke="#000000" cx="437.4234" cy="-239.5419" rx="3.2" ry="3.2"/>
</g>
<!-- oportunidades&#45;&gt;campanas -->
<g id="edge15" class="edge">
<title>oportunidades:w&#45;&gt;campanas:e</title>
<path fill="none" stroke="#000000" d="M434.6467,-280.4171C424.9308,-271.6332 424.6488,-253.1914 407,-246.2 349.5647,-223.4475 327.2465,-228.6972 268,-246.2 215.4482,-261.725 219.297,-313.2 164.5,-313.2"/>
<polygon fill="#000000" stroke="#000000" points="440.938,-282.5892 447.3251,-288.6029 444.719,-283.8946 448.5,-285.2 448.5,-285.2 448.5,-285.2 444.719,-283.8946 449.6749,-281.7971 440.938,-282.5892 440.938,-282.5892"/>
<ellipse fill="none" stroke="#000000" cx="437.9132" cy="-281.5448" rx="3.2" ry="3.2"/>
</g>
<!-- llamadas -->
<g id="node12" class="node">
<title>llamadas</title>
<g id="a_node12"><a xlink:href="../../tables/llamadas.html" xlink:title="llamadas" target="_top">
<polygon fill="#ffffff" stroke="transparent" points="466,-444.7 466,-505.7 553,-505.7 553,-444.7 466,-444.7"/>
<polygon fill="#f5f5f5" stroke="transparent" points="466.5,-482.2 466.5,-505.2 553.5,-505.2 553.5,-482.2 466.5,-482.2"/>
<polygon fill="none" stroke="#000000" points="466.5,-482.2 466.5,-505.2 553.5,-505.2 553.5,-482.2 466.5,-482.2"/>
<text text-anchor="start" x="471.4984" y="-491.3" font-family="Helvetica,sans-Serif" font-weight="bold" font-size="11.00" fill="#000000">llamadas</text>
<text text-anchor="start" x="519.0219" y="-490.3" font-family="Helvetica,sans-Serif" font-size="11.00" fill="#000000">[table]</text>
<polygon fill="none" stroke="#000000" points="466.5,-463.2 466.5,-482.2 553.5,-482.2 553.5,-463.2 466.5,-463.2"/>
<text text-anchor="start" x="469.5" y="-469.3" font-family="Helvetica,sans-Serif" font-size="11.00" fill="#000000">...</text>
<polygon fill="#ffffff" stroke="transparent" points="466.5,-444.2 466.5,-463.2 495.5,-463.2 495.5,-444.2 466.5,-444.2"/>
<polygon fill="none" stroke="#000000" points="466.5,-444.2 466.5,-463.2 495.5,-463.2 495.5,-444.2 466.5,-444.2"/>
<text text-anchor="start" x="469.5" y="-450.3" font-family="Helvetica,sans-Serif" font-size="11.00" fill="#000000">&lt; 2</text>
<polygon fill="#ffffff" stroke="transparent" points="495.5,-444.2 495.5,-463.2 537.5,-463.2 537.5,-444.2 495.5,-444.2"/>
<polygon fill="none" stroke="#000000" points="495.5,-444.2 495.5,-463.2 537.5,-463.2 537.5,-444.2 495.5,-444.2"/>
<text text-anchor="start" x="502.1105" y="-450.3" font-family="Helvetica,sans-Serif" font-size="11.00" fill="#000000">0 rows</text>
<polygon fill="#ffffff" stroke="transparent" points="537.5,-444.2 537.5,-463.2 553.5,-463.2 553.5,-444.2 537.5,-444.2"/>
<polygon fill="none" stroke="#000000" points="537.5,-444.2 537.5,-463.2 553.5,-463.2 553.5,-444.2 537.5,-444.2"/>
<text text-anchor="start" x="544.3862" y="-450.3" font-family="Helvetica,sans-Serif" font-size="11.00" fill="#000000"> &#160;</text>
</a>
</g>
</g>
<!-- llamadas&#45;&gt;contactos -->
<g id="edge13" class="edge">
<title>llamadas:w&#45;&gt;contactos:e</title>
<path fill="none" stroke="#000000" d="M451.9089,-474.5633C422.4087,-485.0906 421.5461,-527.2 382.5,-527.2"/>
<polygon fill="#000000" stroke="#000000" points="458.6029,-473.4791 467.0756,-475.7537 462.5515,-472.8396 466.5,-472.2 466.5,-472.2 466.5,-472.2 462.5515,-472.8396 465.9244,-468.6463 458.6029,-473.4791 458.6029,-473.4791"/>
<ellipse fill="none" stroke="#000000" cx="455.4441" cy="-473.9908" rx="3.2" ry="3.2"/>
</g>
<!-- llamadas&#45;&gt;leads -->
<g id="edge14" class="edge">
<title>llamadas:w&#45;&gt;leads:e</title>
<path fill="none" stroke="#000000" d="M452.1989,-470.0029C432.5023,-463.4021 426.2265,-444.2 399.5,-444.2"/>
<polygon fill="#000000" stroke="#000000" points="458.5928,-470.9851 465.9533,-475.7583 462.5464,-471.5926 466.5,-472.2 466.5,-472.2 466.5,-472.2 462.5464,-471.5926 467.0467,-468.6417 458.5928,-470.9851 458.5928,-470.9851"/>
<ellipse fill="none" stroke="#000000" cx="455.4299" cy="-470.4992" rx="3.2" ry="3.2"/>
</g>
<!-- tareas -->
<g id="node13" class="node">
<title>tareas</title>
<g id="a_node13"><a xlink:href="../../tables/tareas.html" xlink:title="tareas" target="_top">
<polygon fill="#ffffff" stroke="transparent" points="473,-554.7 473,-615.7 546,-615.7 546,-554.7 473,-554.7"/>
<polygon fill="#f5f5f5" stroke="transparent" points="473.5,-592.2 473.5,-615.2 546.5,-615.2 546.5,-592.2 473.5,-592.2"/>
<polygon fill="none" stroke="#000000" points="473.5,-592.2 473.5,-615.2 546.5,-615.2 546.5,-592.2 473.5,-592.2"/>
<text text-anchor="start" x="478.2183" y="-601.3" font-family="Helvetica,sans-Serif" font-weight="bold" font-size="11.00" fill="#000000">tareas</text>
<text text-anchor="start" x="512.0219" y="-600.3" font-family="Helvetica,sans-Serif" font-size="11.00" fill="#000000">[table]</text>
<polygon fill="none" stroke="#000000" points="473.5,-573.2 473.5,-592.2 546.5,-592.2 546.5,-573.2 473.5,-573.2"/>
<text text-anchor="start" x="476.5" y="-579.3" font-family="Helvetica,sans-Serif" font-size="11.00" fill="#000000">...</text>
<polygon fill="#ffffff" stroke="transparent" points="473.5,-554.2 473.5,-573.2 495.5,-573.2 495.5,-554.2 473.5,-554.2"/>
<polygon fill="none" stroke="#000000" points="473.5,-554.2 473.5,-573.2 495.5,-573.2 495.5,-554.2 473.5,-554.2"/>
<text text-anchor="start" x="476.5" y="-560.3" font-family="Helvetica,sans-Serif" font-size="11.00" fill="#000000">&lt; 3</text>
<polygon fill="#ffffff" stroke="transparent" points="495.5,-554.2 495.5,-573.2 533.5,-573.2 533.5,-554.2 495.5,-554.2"/>
<polygon fill="none" stroke="#000000" points="495.5,-554.2 495.5,-573.2 533.5,-573.2 533.5,-554.2 495.5,-554.2"/>
<text text-anchor="start" x="498.3053" y="-560.3" font-family="Helvetica,sans-Serif" font-size="11.00" fill="#000000">0 rows</text>
<polygon fill="#ffffff" stroke="transparent" points="533.5,-554.2 533.5,-573.2 546.5,-573.2 546.5,-554.2 533.5,-554.2"/>
<polygon fill="none" stroke="#000000" points="533.5,-554.2 533.5,-573.2 546.5,-573.2 546.5,-554.2 533.5,-554.2"/>
<text text-anchor="start" x="537.3862" y="-560.3" font-family="Helvetica,sans-Serif" font-size="11.00" fill="#000000"> &#160;</text>
</a>
</g>
</g>
<!-- tareas&#45;&gt;contactos -->
<g id="edge19" class="edge">
<title>tareas:w&#45;&gt;contactos:e</title>
<path fill="none" stroke="#000000" d="M458.8143,-580.1111C426.369,-570.0647 424.2196,-527.2 382.5,-527.2"/>
<polygon fill="#000000" stroke="#000000" points="465.5797,-581.0734 472.993,-585.7641 469.5399,-581.6367 473.5,-582.2 473.5,-582.2 473.5,-582.2 469.5399,-581.6367 474.007,-578.6359 465.5797,-581.0734 465.5797,-581.0734"/>
<ellipse fill="none" stroke="#000000" cx="462.4116" cy="-580.6227" rx="3.2" ry="3.2"/>
</g>
<!-- tareas&#45;&gt;leads -->
<g id="edge20" class="edge">
<title>tareas:w&#45;&gt;leads:e</title>
<path fill="none" stroke="#000000" d="M459.2354,-579.6869C413.4813,-560.9834 463.5219,-444.2 399.5,-444.2"/>
<polygon fill="#000000" stroke="#000000" points="465.6213,-580.8119 472.8754,-585.7454 469.5607,-581.506 473.5,-582.2 473.5,-582.2 473.5,-582.2 469.5607,-581.506 474.1246,-578.6546 465.6213,-580.8119 465.6213,-580.8119"/>
<ellipse fill="none" stroke="#000000" cx="462.4699" cy="-580.2567" rx="3.2" ry="3.2"/>
</g>
<!-- tareas&#45;&gt;usuarios -->
<g id="edge21" class="edge">
<title>tareas:w&#45;&gt;usuarios:e</title>
<path fill="none" stroke="#000000" d="M458.9296,-582.577C377.4084,-586.7847 336.6088,-623.8169 268,-571.2 230.527,-542.4615 261.6465,-509.1883 235,-470.2 210.5001,-434.3526 202.9199,-408.2 159.5,-408.2"/>
<polygon fill="#000000" stroke="#000000" points="465.5027,-582.407 473.5931,-585.7988 469.5013,-582.3035 473.5,-582.2 473.5,-582.2 473.5,-582.2 469.5013,-582.3035 473.4069,-578.6012 465.5027,-582.407 465.5027,-582.407"/>
<ellipse fill="none" stroke="#000000" cx="462.3037" cy="-582.4898" rx="3.2" ry="3.2"/>
</g>
</g>
</svg>
