<?xml version="1.0" encoding="UTF-8" standalone="no"?>
<!DOCTYPE svg PUBLIC "-//W3C//DTD SVG 1.1//EN"
 "http://www.w3.org/Graphics/SVG/1.1/DTD/svg11.dtd">
<!-- Generated by graphviz version 2.40.1 (20161225.0304)
 -->
<!-- Title: oneDegreeRelationshipsDiagram Pages: 1 -->
<svg width="587pt" height="457pt"
 viewBox="0.00 0.00 587.00 457.20" xmlns="http://www.w3.org/2000/svg" xmlns:xlink="http://www.w3.org/1999/xlink">
<g id="graph0" class="graph" transform="scale(1 1) rotate(0) translate(4 453.2)">
<title>oneDegreeRelationshipsDiagram</title>
<polygon fill="#ffffff" stroke="transparent" points="-4,4 -4,-453.2 583,-453.2 583,4 -4,4"/>
<text text-anchor="middle" x="72.4936" y="-7.3" font-family="Helvetica,sans-Serif" font-size="11.00" fill="#000000">Generated by SchemaSpy</text>
<!-- curso_ciclos -->
<g id="node1" class="node">
<title>curso_ciclos</title>
<g id="a_node1"><a xlink:href="../../tables/curso_ciclos.html" xlink:title="curso_ciclos" target="_top">
<polygon fill="#ffffff" stroke="transparent" points="276,-179.2 276,-284.2 399,-284.2 399,-179.2 276,-179.2"/>
<polygon fill="#f5f5f5" stroke="transparent" points="276.5,-260.7 276.5,-283.7 399.5,-283.7 399.5,-260.7 276.5,-260.7"/>
<polygon fill="none" stroke="#000000" points="276.5,-260.7 276.5,-283.7 399.5,-283.7 399.5,-260.7 276.5,-260.7"/>
<text text-anchor="start" x="281.5" y="-269.8" font-family="Helvetica,sans-Serif" font-weight="bold" font-size="11.00" fill="#000000">curso_ciclos</text>
<text text-anchor="start" x="364.5437" y="-268.8" font-family="Helvetica,sans-Serif" font-size="11.00" fill="#000000">[table]</text>
<polygon fill="none" stroke="#000000" points="276.5,-238.7 276.5,-260.7 399.5,-260.7 399.5,-238.7 276.5,-238.7"/>
<image xlink:href="../../images/primaryKeys.png" width="11px" height="12px" preserveAspectRatio="xMinYMin meet" x="281.5" y="-255.7"/>
<text text-anchor="start" x="296.5" y="-245.8" font-family="Helvetica,sans-Serif" font-size="11.00" fill="#000000">ciclo_id</text>
<polygon fill="none" stroke="#000000" points="276.5,-216.7 276.5,-238.7 399.5,-238.7 399.5,-216.7 276.5,-216.7"/>
<image xlink:href="../../images/foreignKeys.png" width="11px" height="12px" preserveAspectRatio="xMinYMin meet" x="281.5" y="-233.7"/>
<text text-anchor="start" x="296.5" y="-223.8" font-family="Helvetica,sans-Serif" font-size="11.00" fill="#000000">curso_id</text>
<polygon fill="none" stroke="#000000" points="276.5,-197.7 276.5,-216.7 399.5,-216.7 399.5,-197.7 276.5,-197.7"/>
<text text-anchor="start" x="279.5" y="-203.8" font-family="Helvetica,sans-Serif" font-size="11.00" fill="#000000">...</text>
<polygon fill="#ffffff" stroke="transparent" points="276.5,-178.7 276.5,-197.7 321.5,-197.7 321.5,-178.7 276.5,-178.7"/>
<polygon fill="none" stroke="#000000" points="276.5,-178.7 276.5,-197.7 321.5,-197.7 321.5,-178.7 276.5,-178.7"/>
<text text-anchor="start" x="279.5" y="-184.8" font-family="Helvetica,sans-Serif" font-size="11.00" fill="#000000">&lt; 1</text>
<polygon fill="#ffffff" stroke="transparent" points="321.5,-178.7 321.5,-197.7 365.5,-197.7 365.5,-178.7 321.5,-178.7"/>
<polygon fill="none" stroke="#000000" points="321.5,-178.7 321.5,-197.7 365.5,-197.7 365.5,-178.7 321.5,-178.7"/>
<text text-anchor="start" x="335.6105" y="-184.8" font-family="Helvetica,sans-Serif" font-size="11.00" fill="#000000">1 row</text>
<polygon fill="#ffffff" stroke="transparent" points="365.5,-178.7 365.5,-197.7 399.5,-197.7 399.5,-178.7 365.5,-178.7"/>
<polygon fill="none" stroke="#000000" points="365.5,-178.7 365.5,-197.7 399.5,-197.7 399.5,-178.7 365.5,-178.7"/>
<text text-anchor="start" x="380.9053" y="-184.8" font-family="Helvetica,sans-Serif" font-size="11.00" fill="#000000">2 &gt;</text>
</a>
</g>
</g>
<!-- cursos -->
<g id="node2" class="node">
<title>cursos</title>
<g id="a_node2"><a xlink:href="../../tables/cursos.html" xlink:title="cursos" target="_top">
<polygon fill="#ffffff" stroke="transparent" points="8,-63.7 8,-263.7 227,-263.7 227,-63.7 8,-63.7"/>
<polygon fill="#f5f5f5" stroke="transparent" points="10.5,-238.7 10.5,-261.7 225.5,-261.7 225.5,-238.7 10.5,-238.7"/>
<polygon fill="none" stroke="#000000" points="10.5,-238.7 10.5,-261.7 225.5,-261.7 225.5,-238.7 10.5,-238.7"/>
<text text-anchor="start" x="15.5" y="-247.8" font-family="Helvetica,sans-Serif" font-weight="bold" font-size="11.00" fill="#000000">cursos</text>
<text text-anchor="start" x="190.5437" y="-246.8" font-family="Helvetica,sans-Serif" font-size="11.00" fill="#000000">[table]</text>
<polygon fill="none" stroke="#000000" points="10.5,-216.7 10.5,-238.7 133.5,-238.7 133.5,-216.7 10.5,-216.7"/>
<image xlink:href="../../images/primaryKeys.png" width="11px" height="12px" preserveAspectRatio="xMinYMin meet" x="15.5" y="-233.7"/>
<text text-anchor="start" x="30.5" y="-223.8" font-family="Helvetica,sans-Serif" font-size="11.00" fill="#000000">curso_id</text>
<polygon fill="none" stroke="#000000" points="133.5,-216.7 133.5,-238.7 225.5,-238.7 225.5,-216.7 133.5,-216.7"/>
<text text-anchor="start" x="136.5" y="-224.4" font-family="Helvetica,sans-Serif" font-size="11.00" fill="#000000">serial[10]</text>
<polygon fill="none" stroke="#000000" points="10.5,-194.7 10.5,-216.7 133.5,-216.7 133.5,-194.7 10.5,-194.7"/>
<text text-anchor="start" x="30.5" y="-201.8" font-family="Helvetica,sans-Serif" font-size="11.00" fill="#000000">nombre</text>
<polygon fill="none" stroke="#000000" points="133.5,-194.7 133.5,-216.7 225.5,-216.7 225.5,-194.7 133.5,-194.7"/>
<text text-anchor="start" x="136.5" y="-202.4" font-family="Helvetica,sans-Serif" font-size="11.00" fill="#000000">varchar[255]</text>
<polygon fill="none" stroke="#000000" points="10.5,-172.7 10.5,-194.7 133.5,-194.7 133.5,-172.7 10.5,-172.7"/>
<text text-anchor="start" x="30.5" y="-179.8" font-family="Helvetica,sans-Serif" font-size="11.00" fill="#000000">descripcion</text>
<polygon fill="none" stroke="#000000" points="133.5,-172.7 133.5,-194.7 225.5,-194.7 225.5,-172.7 133.5,-172.7"/>
<text text-anchor="start" x="136.5" y="-180.4" font-family="Helvetica,sans-Serif" font-size="11.00" fill="#000000">text[2147483647]</text>
<polygon fill="none" stroke="#000000" points="10.5,-150.7 10.5,-172.7 133.5,-172.7 133.5,-150.7 10.5,-150.7"/>
<text text-anchor="start" x="30.5" y="-157.8" font-family="Helvetica,sans-Serif" font-size="11.00" fill="#000000">usu_insercion</text>
<polygon fill="none" stroke="#000000" points="133.5,-150.7 133.5,-172.7 225.5,-172.7 225.5,-150.7 133.5,-150.7"/>
<text text-anchor="start" x="136.5" y="-158.4" font-family="Helvetica,sans-Serif" font-size="11.00" fill="#000000">varchar[20]</text>
<polygon fill="none" stroke="#000000" points="10.5,-128.7 10.5,-150.7 133.5,-150.7 133.5,-128.7 10.5,-128.7"/>
<text text-anchor="start" x="30.5" y="-135.8" font-family="Helvetica,sans-Serif" font-size="11.00" fill="#000000">fec_insercion</text>
<polygon fill="none" stroke="#000000" points="133.5,-128.7 133.5,-150.7 225.5,-150.7 225.5,-128.7 133.5,-128.7"/>
<text text-anchor="start" x="136.1023" y="-136.4" font-family="Helvetica,sans-Serif" font-size="11.00" fill="#000000">timestamptz[35,6]</text>
<polygon fill="none" stroke="#000000" points="10.5,-106.7 10.5,-128.7 133.5,-128.7 133.5,-106.7 10.5,-106.7"/>
<text text-anchor="start" x="30.5" y="-113.8" font-family="Helvetica,sans-Serif" font-size="11.00" fill="#000000">fec_modificacion</text>
<polygon fill="none" stroke="#000000" points="133.5,-106.7 133.5,-128.7 225.5,-128.7 225.5,-106.7 133.5,-106.7"/>
<text text-anchor="start" x="136.1023" y="-114.4" font-family="Helvetica,sans-Serif" font-size="11.00" fill="#000000">timestamptz[35,6]</text>
<polygon fill="none" stroke="#000000" points="10.5,-84.7 10.5,-106.7 133.5,-106.7 133.5,-84.7 10.5,-84.7"/>
<text text-anchor="start" x="30.5" y="-91.8" font-family="Helvetica,sans-Serif" font-size="11.00" fill="#000000">usu_modificacion</text>
<polygon fill="none" stroke="#000000" points="133.5,-84.7 133.5,-106.7 225.5,-106.7 225.5,-84.7 133.5,-84.7"/>
<text text-anchor="start" x="136.5" y="-92.4" font-family="Helvetica,sans-Serif" font-size="11.00" fill="#000000">varchar[20]</text>
<polygon fill="#ffffff" stroke="transparent" points="10.5,-65.7 10.5,-84.7 60.5,-84.7 60.5,-65.7 10.5,-65.7"/>
<polygon fill="none" stroke="#000000" points="10.5,-65.7 10.5,-84.7 60.5,-84.7 60.5,-65.7 10.5,-65.7"/>
<text text-anchor="start" x="13.5" y="-71.8" font-family="Helvetica,sans-Serif" font-size="11.00" fill="#000000">&lt; 0</text>
<polygon fill="#ffffff" stroke="transparent" points="60.5,-65.7 60.5,-84.7 133.5,-84.7 133.5,-65.7 60.5,-65.7"/>
<polygon fill="none" stroke="#000000" points="60.5,-65.7 60.5,-84.7 133.5,-84.7 133.5,-65.7 60.5,-65.7"/>
<text text-anchor="start" x="91.9956" y="-71.8" font-family="Helvetica,sans-Serif" font-size="11.00" fill="#000000">10 rows</text>
<polygon fill="#ffffff" stroke="transparent" points="133.5,-65.7 133.5,-84.7 225.5,-84.7 225.5,-65.7 133.5,-65.7"/>
<polygon fill="none" stroke="#000000" points="133.5,-65.7 133.5,-84.7 225.5,-84.7 225.5,-65.7 133.5,-65.7"/>
<text text-anchor="start" x="206.9053" y="-71.8" font-family="Helvetica,sans-Serif" font-size="11.00" fill="#000000">3 &gt;</text>
<polygon fill="none" stroke="#000000" stroke-width="2" points="9,-64.7 9,-262.7 226,-262.7 226,-64.7 9,-64.7"/>
</a>
</g>
</g>
<!-- curso_ciclos&#45;&gt;cursos -->
<g id="edge1" class="edge">
<title>curso_ciclos:w&#45;&gt;cursos:e</title>
<path fill="none" stroke="#000000" d="M261.776,-227.7C249.7815,-227.7 242.3229,-227.7 225.5,-227.7"/>
<polygon fill="#000000" stroke="#000000" points="268.5,-227.7001 276.5,-231.3 272.5,-227.7 276.5,-227.7 276.5,-227.7 276.5,-227.7 272.5,-227.7 276.5,-224.1 268.5,-227.7001 268.5,-227.7001"/>
<ellipse fill="none" stroke="#000000" cx="265.3" cy="-227.7001" rx="3.2" ry="3.2"/>
</g>
<!-- leads -->
<g id="node3" class="node">
<title>leads</title>
<g id="a_node3"><a xlink:href="../../tables/leads.html" xlink:title="leads" target="_top">
<polygon fill="#ffffff" stroke="transparent" points="448,-252.2 448,-445.2 571,-445.2 571,-252.2 448,-252.2"/>
<polygon fill="#f5f5f5" stroke="transparent" points="448.5,-421.7 448.5,-444.7 571.5,-444.7 571.5,-421.7 448.5,-421.7"/>
<polygon fill="none" stroke="#000000" points="448.5,-421.7 448.5,-444.7 571.5,-444.7 571.5,-421.7 448.5,-421.7"/>
<text text-anchor="start" x="453.5" y="-430.8" font-family="Helvetica,sans-Serif" font-weight="bold" font-size="11.00" fill="#000000">leads</text>
<text text-anchor="start" x="536.5437" y="-429.8" font-family="Helvetica,sans-Serif" font-size="11.00" fill="#000000">[table]</text>
<polygon fill="none" stroke="#000000" points="448.5,-399.7 448.5,-421.7 571.5,-421.7 571.5,-399.7 448.5,-399.7"/>
<image xlink:href="../../images/primaryKeys.png" width="11px" height="12px" preserveAspectRatio="xMinYMin meet" x="453.5" y="-416.7"/>
<text text-anchor="start" x="468.5" y="-406.8" font-family="Helvetica,sans-Serif" font-size="11.00" fill="#000000">lead_id</text>
<polygon fill="none" stroke="#000000" points="448.5,-377.7 448.5,-399.7 571.5,-399.7 571.5,-377.7 448.5,-377.7"/>
<image xlink:href="../../images/foreignKeys.png" width="11px" height="12px" preserveAspectRatio="xMinYMin meet" x="453.5" y="-394.7"/>
<text text-anchor="start" x="468.5" y="-384.8" font-family="Helvetica,sans-Serif" font-size="11.00" fill="#000000">usu_asignado_id</text>
<polygon fill="none" stroke="#000000" points="448.5,-355.7 448.5,-377.7 571.5,-377.7 571.5,-355.7 448.5,-355.7"/>
<image xlink:href="../../images/foreignKeys.png" width="11px" height="12px" preserveAspectRatio="xMinYMin meet" x="453.5" y="-372.7"/>
<text text-anchor="start" x="468.5" y="-362.8" font-family="Helvetica,sans-Serif" font-size="11.00" fill="#000000">campana_id</text>
<polygon fill="none" stroke="#000000" points="448.5,-333.7 448.5,-355.7 571.5,-355.7 571.5,-333.7 448.5,-333.7"/>
<image xlink:href="../../images/foreignKeys.png" width="11px" height="12px" preserveAspectRatio="xMinYMin meet" x="453.5" y="-350.7"/>
<text text-anchor="start" x="468.5" y="-340.8" font-family="Helvetica,sans-Serif" font-size="11.00" fill="#000000">persona_id</text>
<polygon fill="none" stroke="#000000" points="448.5,-311.7 448.5,-333.7 571.5,-333.7 571.5,-311.7 448.5,-311.7"/>
<image xlink:href="../../images/foreignKeys.png" width="11px" height="12px" preserveAspectRatio="xMinYMin meet" x="453.5" y="-328.7"/>
<text text-anchor="start" x="468.5" y="-318.8" font-family="Helvetica,sans-Serif" font-size="11.00" fill="#000000">curso_id</text>
<polygon fill="none" stroke="#000000" points="448.5,-289.7 448.5,-311.7 571.5,-311.7 571.5,-289.7 448.5,-289.7"/>
<image xlink:href="../../images/foreignKeys.png" width="11px" height="12px" preserveAspectRatio="xMinYMin meet" x="453.5" y="-306.7"/>
<text text-anchor="start" x="468.5" y="-296.8" font-family="Helvetica,sans-Serif" font-size="11.00" fill="#000000">ciclo_id</text>
<polygon fill="none" stroke="#000000" points="448.5,-270.7 448.5,-289.7 571.5,-289.7 571.5,-270.7 448.5,-270.7"/>
<text text-anchor="start" x="451.5" y="-276.8" font-family="Helvetica,sans-Serif" font-size="11.00" fill="#000000">...</text>
<polygon fill="#ffffff" stroke="transparent" points="448.5,-251.7 448.5,-270.7 490.5,-270.7 490.5,-251.7 448.5,-251.7"/>
<polygon fill="none" stroke="#000000" points="448.5,-251.7 448.5,-270.7 490.5,-270.7 490.5,-251.7 448.5,-251.7"/>
<text text-anchor="start" x="451.5" y="-257.8" font-family="Helvetica,sans-Serif" font-size="11.00" fill="#000000">&lt; 5</text>
<polygon fill="#ffffff" stroke="transparent" points="490.5,-251.7 490.5,-270.7 539.5,-270.7 539.5,-251.7 490.5,-251.7"/>
<polygon fill="none" stroke="#000000" points="490.5,-251.7 490.5,-270.7 539.5,-270.7 539.5,-251.7 490.5,-251.7"/>
<text text-anchor="start" x="504.1105" y="-257.8" font-family="Helvetica,sans-Serif" font-size="11.00" fill="#000000">4 rows</text>
<polygon fill="#ffffff" stroke="transparent" points="539.5,-251.7 539.5,-270.7 571.5,-270.7 571.5,-251.7 539.5,-251.7"/>
<polygon fill="none" stroke="#000000" points="539.5,-251.7 539.5,-270.7 571.5,-270.7 571.5,-251.7 539.5,-251.7"/>
<text text-anchor="start" x="552.9053" y="-257.8" font-family="Helvetica,sans-Serif" font-size="11.00" fill="#000000">3 &gt;</text>
</a>
</g>
</g>
<!-- leads&#45;&gt;curso_ciclos -->
<g id="edge2" class="edge">
<title>leads:w&#45;&gt;curso_ciclos:e</title>
<path fill="none" stroke="#000000" d="M434.5912,-295.6235C420.7553,-282.7236 424.7939,-249.7 399.5,-249.7"/>
<polygon fill="#000000" stroke="#000000" points="440.9849,-297.9571 447.2657,-304.0818 444.7425,-299.3285 448.5,-300.7 448.5,-300.7 448.5,-300.7 444.7425,-299.3285 449.7343,-297.3182 440.9849,-297.9571 440.9849,-297.9571"/>
<ellipse fill="none" stroke="#000000" cx="437.9789" cy="-296.8599" rx="3.2" ry="3.2"/>
</g>
<!-- leads&#45;&gt;cursos -->
<g id="edge3" class="edge">
<title>leads:w&#45;&gt;cursos:e</title>
<path fill="none" stroke="#000000" d="M433.8407,-322.8741C363.2507,-324.5207 331.6736,-336.3903 268,-294.7 238.4978,-275.3834 260.7634,-227.7 225.5,-227.7"/>
<polygon fill="#000000" stroke="#000000" points="440.5006,-322.7951 448.5428,-326.2997 444.5003,-322.7475 448.5,-322.7 448.5,-322.7 448.5,-322.7 444.5003,-322.7475 448.4572,-319.1003 440.5006,-322.7951 440.5006,-322.7951"/>
<ellipse fill="none" stroke="#000000" cx="437.3008" cy="-322.8331" rx="3.2" ry="3.2"/>
</g>
<!-- oportunidades -->
<g id="node4" class="node">
<title>oportunidades</title>
<g id="a_node4"><a xlink:href="../../tables/oportunidades.html" xlink:title="oportunidades" target="_top">
<polygon fill="#ffffff" stroke="transparent" points="448,-38.2 448,-231.2 571,-231.2 571,-38.2 448,-38.2"/>
<polygon fill="#f5f5f5" stroke="transparent" points="448.5,-207.7 448.5,-230.7 571.5,-230.7 571.5,-207.7 448.5,-207.7"/>
<polygon fill="none" stroke="#000000" points="448.5,-207.7 448.5,-230.7 571.5,-230.7 571.5,-207.7 448.5,-207.7"/>
<text text-anchor="start" x="453.5" y="-216.8" font-family="Helvetica,sans-Serif" font-weight="bold" font-size="11.00" fill="#000000">oportunidades</text>
<text text-anchor="start" x="536.5437" y="-215.8" font-family="Helvetica,sans-Serif" font-size="11.00" fill="#000000">[table]</text>
<polygon fill="none" stroke="#000000" points="448.5,-185.7 448.5,-207.7 571.5,-207.7 571.5,-185.7 448.5,-185.7"/>
<image xlink:href="../../images/primaryKeys.png" width="11px" height="12px" preserveAspectRatio="xMinYMin meet" x="453.5" y="-202.7"/>
<text text-anchor="start" x="468.5" y="-192.8" font-family="Helvetica,sans-Serif" font-size="11.00" fill="#000000">oportunidad_id</text>
<polygon fill="none" stroke="#000000" points="448.5,-163.7 448.5,-185.7 571.5,-185.7 571.5,-163.7 448.5,-163.7"/>
<image xlink:href="../../images/foreignKeys.png" width="11px" height="12px" preserveAspectRatio="xMinYMin meet" x="453.5" y="-180.7"/>
<text text-anchor="start" x="468.5" y="-170.8" font-family="Helvetica,sans-Serif" font-size="11.00" fill="#000000">campana_id</text>
<polygon fill="none" stroke="#000000" points="448.5,-141.7 448.5,-163.7 571.5,-163.7 571.5,-141.7 448.5,-141.7"/>
<image xlink:href="../../images/foreignKeys.png" width="11px" height="12px" preserveAspectRatio="xMinYMin meet" x="453.5" y="-158.7"/>
<text text-anchor="start" x="468.5" y="-148.8" font-family="Helvetica,sans-Serif" font-size="11.00" fill="#000000">contacto_id</text>
<polygon fill="none" stroke="#000000" points="448.5,-119.7 448.5,-141.7 571.5,-141.7 571.5,-119.7 448.5,-119.7"/>
<image xlink:href="../../images/foreignKeys.png" width="11px" height="12px" preserveAspectRatio="xMinYMin meet" x="453.5" y="-136.7"/>
<text text-anchor="start" x="468.5" y="-126.8" font-family="Helvetica,sans-Serif" font-size="11.00" fill="#000000">curso_id</text>
<polygon fill="none" stroke="#000000" points="448.5,-97.7 448.5,-119.7 571.5,-119.7 571.5,-97.7 448.5,-97.7"/>
<image xlink:href="../../images/foreignKeys.png" width="11px" height="12px" preserveAspectRatio="xMinYMin meet" x="453.5" y="-114.7"/>
<text text-anchor="start" x="468.5" y="-104.8" font-family="Helvetica,sans-Serif" font-size="11.00" fill="#000000">usu_asignado_id</text>
<polygon fill="none" stroke="#000000" points="448.5,-75.7 448.5,-97.7 571.5,-97.7 571.5,-75.7 448.5,-75.7"/>
<image xlink:href="../../images/foreignKeys.png" width="11px" height="12px" preserveAspectRatio="xMinYMin meet" x="453.5" y="-92.7"/>
<text text-anchor="start" x="468.5" y="-82.8" font-family="Helvetica,sans-Serif" font-size="11.00" fill="#000000">ciclo_id</text>
<polygon fill="none" stroke="#000000" points="448.5,-56.7 448.5,-75.7 571.5,-75.7 571.5,-56.7 448.5,-56.7"/>
<text text-anchor="start" x="451.5" y="-62.8" font-family="Helvetica,sans-Serif" font-size="11.00" fill="#000000">...</text>
<polygon fill="#ffffff" stroke="transparent" points="448.5,-37.7 448.5,-56.7 487.5,-56.7 487.5,-37.7 448.5,-37.7"/>
<polygon fill="none" stroke="#000000" points="448.5,-37.7 448.5,-56.7 487.5,-56.7 487.5,-37.7 448.5,-37.7"/>
<text text-anchor="start" x="451.5" y="-43.8" font-family="Helvetica,sans-Serif" font-size="11.00" fill="#000000">&lt; 5</text>
<polygon fill="#ffffff" stroke="transparent" points="487.5,-37.7 487.5,-56.7 540.5,-56.7 540.5,-37.7 487.5,-37.7"/>
<polygon fill="none" stroke="#000000" points="487.5,-37.7 487.5,-56.7 540.5,-56.7 540.5,-37.7 487.5,-37.7"/>
<text text-anchor="start" x="498.9956" y="-43.8" font-family="Helvetica,sans-Serif" font-size="11.00" fill="#000000">14 rows</text>
<polygon fill="#ffffff" stroke="transparent" points="540.5,-37.7 540.5,-56.7 571.5,-56.7 571.5,-37.7 540.5,-37.7"/>
<polygon fill="none" stroke="#000000" points="540.5,-37.7 540.5,-56.7 571.5,-56.7 571.5,-37.7 540.5,-37.7"/>
<text text-anchor="start" x="552.9053" y="-43.8" font-family="Helvetica,sans-Serif" font-size="11.00" fill="#000000">1 &gt;</text>
</a>
</g>
</g>
<!-- oportunidades&#45;&gt;curso_ciclos -->
<g id="edge4" class="edge">
<title>oportunidades:w&#45;&gt;curso_ciclos:e</title>
<path fill="none" stroke="#000000" d="M434.1535,-89.3932C387.4044,-110.5863 469.3848,-249.7 399.5,-249.7"/>
<polygon fill="#000000" stroke="#000000" points="440.6373,-88.1761 449.1642,-90.2382 444.5687,-87.438 448.5,-86.7 448.5,-86.7 448.5,-86.7 444.5687,-87.438 447.8358,-83.1618 440.6373,-88.1761 440.6373,-88.1761"/>
<ellipse fill="none" stroke="#000000" cx="437.4923" cy="-88.7665" rx="3.2" ry="3.2"/>
</g>
<!-- oportunidades&#45;&gt;cursos -->
<g id="edge5" class="edge">
<title>oportunidades:w&#45;&gt;cursos:e</title>
<path fill="none" stroke="#000000" d="M433.7177,-130.6354C362.6408,-130.0606 332.4131,-126.7721 268,-168.7 240.9153,-186.33 257.8171,-227.7 225.5,-227.7"/>
<polygon fill="#000000" stroke="#000000" points="440.5001,-130.665 448.4842,-134.3 444.5,-130.6825 448.5,-130.7 448.5,-130.7 448.5,-130.7 444.5,-130.6825 448.5158,-127.1 440.5001,-130.665 440.5001,-130.665"/>
<ellipse fill="none" stroke="#000000" cx="437.3001" cy="-130.651" rx="3.2" ry="3.2"/>
</g>
</g>
</svg>
