<?xml version="1.0" encoding="UTF-8" standalone="no"?>
<!DOCTYPE svg PUBLIC "-//W3C//DTD SVG 1.1//EN"
 "http://www.w3.org/Graphics/SVG/1.1/DTD/svg11.dtd">
<!-- Generated by graphviz version 2.40.1 (20161225.0304)
 -->
<!-- Title: twoDegreesRelationshipsDiagramImplied Pages: 1 -->
<svg width="415pt" height="475pt"
 viewBox="0.00 0.00 415.00 474.70" xmlns="http://www.w3.org/2000/svg" xmlns:xlink="http://www.w3.org/1999/xlink">
<g id="graph0" class="graph" transform="scale(1 1) rotate(0) translate(4 470.7)">
<title>twoDegreesRelationshipsDiagramImplied</title>
<polygon fill="#ffffff" stroke="transparent" points="-4,4 -4,-470.7 411,-470.7 411,4 -4,4"/>
<text text-anchor="middle" x="72.4936" y="-7.3" font-family="Helvetica,sans-Serif" font-size="11.00" fill="#000000">Generated by SchemaSpy</text>
<!-- leads -->
<g id="node1" class="node">
<title>leads</title>
<g id="a_node1"><a xlink:href="../../tables/leads.html" xlink:title="leads" target="_top">
<polygon fill="#ffffff" stroke="transparent" points="276,-224.7 276,-395.7 399,-395.7 399,-224.7 276,-224.7"/>
<polygon fill="#f5f5f5" stroke="transparent" points="276.5,-372.2 276.5,-395.2 399.5,-395.2 399.5,-372.2 276.5,-372.2"/>
<polygon fill="none" stroke="#000000" points="276.5,-372.2 276.5,-395.2 399.5,-395.2 399.5,-372.2 276.5,-372.2"/>
<text text-anchor="start" x="281.5" y="-381.3" font-family="Helvetica,sans-Serif" font-weight="bold" font-size="11.00" fill="#000000">leads</text>
<text text-anchor="start" x="364.5437" y="-380.3" font-family="Helvetica,sans-Serif" font-size="11.00" fill="#000000">[table]</text>
<polygon fill="none" stroke="#000000" points="276.5,-350.2 276.5,-372.2 399.5,-372.2 399.5,-350.2 276.5,-350.2"/>
<image xlink:href="../../images/primaryKeys.png" width="11px" height="12px" preserveAspectRatio="xMinYMin meet" x="281.5" y="-367.2"/>
<text text-anchor="start" x="296.5" y="-357.3" font-family="Helvetica,sans-Serif" font-size="11.00" fill="#000000">lead_id</text>
<polygon fill="none" stroke="#000000" points="276.5,-328.2 276.5,-350.2 399.5,-350.2 399.5,-328.2 276.5,-328.2"/>
<image xlink:href="../../images/foreignKeys.png" width="11px" height="12px" preserveAspectRatio="xMinYMin meet" x="281.5" y="-345.2"/>
<text text-anchor="start" x="296.5" y="-335.3" font-family="Helvetica,sans-Serif" font-size="11.00" fill="#000000">usu_asignado_id</text>
<polygon fill="none" stroke="#000000" points="276.5,-306.2 276.5,-328.2 399.5,-328.2 399.5,-306.2 276.5,-306.2"/>
<image xlink:href="../../images/foreignKeys.png" width="11px" height="12px" preserveAspectRatio="xMinYMin meet" x="281.5" y="-323.2"/>
<text text-anchor="start" x="296.5" y="-313.3" font-family="Helvetica,sans-Serif" font-size="11.00" fill="#000000">campana_id</text>
<polygon fill="none" stroke="#000000" points="276.5,-284.2 276.5,-306.2 399.5,-306.2 399.5,-284.2 276.5,-284.2"/>
<image xlink:href="../../images/foreignKeys.png" width="11px" height="12px" preserveAspectRatio="xMinYMin meet" x="281.5" y="-301.2"/>
<text text-anchor="start" x="296.5" y="-291.3" font-family="Helvetica,sans-Serif" font-size="11.00" fill="#000000">persona_id</text>
<polygon fill="none" stroke="#000000" points="276.5,-262.2 276.5,-284.2 399.5,-284.2 399.5,-262.2 276.5,-262.2"/>
<image xlink:href="../../images/foreignKeys.png" width="11px" height="12px" preserveAspectRatio="xMinYMin meet" x="281.5" y="-279.2"/>
<text text-anchor="start" x="296.5" y="-269.3" font-family="Helvetica,sans-Serif" font-size="11.00" fill="#000000">curso_id</text>
<polygon fill="none" stroke="#000000" points="276.5,-243.2 276.5,-262.2 399.5,-262.2 399.5,-243.2 276.5,-243.2"/>
<text text-anchor="start" x="279.5" y="-249.3" font-family="Helvetica,sans-Serif" font-size="11.00" fill="#000000">...</text>
<polygon fill="#ffffff" stroke="transparent" points="276.5,-224.2 276.5,-243.2 323.5,-243.2 323.5,-224.2 276.5,-224.2"/>
<polygon fill="none" stroke="#000000" points="276.5,-224.2 276.5,-243.2 323.5,-243.2 323.5,-224.2 276.5,-224.2"/>
<text text-anchor="start" x="279.5" y="-230.3" font-family="Helvetica,sans-Serif" font-size="11.00" fill="#000000">&lt; 4</text>
<polygon fill="#ffffff" stroke="transparent" points="323.5,-224.2 323.5,-243.2 374.5,-243.2 374.5,-224.2 323.5,-224.2"/>
<polygon fill="none" stroke="#000000" points="323.5,-224.2 323.5,-243.2 374.5,-243.2 374.5,-224.2 323.5,-224.2"/>
<text text-anchor="start" x="339.1105" y="-230.3" font-family="Helvetica,sans-Serif" font-size="11.00" fill="#000000">0 rows</text>
<polygon fill="#ffffff" stroke="transparent" points="374.5,-224.2 374.5,-243.2 399.5,-243.2 399.5,-224.2 374.5,-224.2"/>
<polygon fill="none" stroke="#000000" points="374.5,-224.2 374.5,-243.2 399.5,-243.2 399.5,-224.2 374.5,-224.2"/>
<text text-anchor="start" x="390.3862" y="-230.3" font-family="Helvetica,sans-Serif" font-size="11.00" fill="#000000"> &#160;</text>
</a>
</g>
</g>
<!-- campanas -->
<g id="node2" class="node">
<title>campanas</title>
<g id="a_node2"><a xlink:href="../../tables/campanas.html" xlink:title="campanas" target="_top">
<polygon fill="#ffffff" stroke="transparent" points="71,-319.7 71,-380.7 164,-380.7 164,-319.7 71,-319.7"/>
<polygon fill="#f5f5f5" stroke="transparent" points="71.5,-357.2 71.5,-380.2 164.5,-380.2 164.5,-357.2 71.5,-357.2"/>
<polygon fill="none" stroke="#000000" points="71.5,-357.2 71.5,-380.2 164.5,-380.2 164.5,-357.2 71.5,-357.2"/>
<text text-anchor="start" x="76.1318" y="-366.3" font-family="Helvetica,sans-Serif" font-weight="bold" font-size="11.00" fill="#000000">campanas</text>
<text text-anchor="start" x="130.0219" y="-365.3" font-family="Helvetica,sans-Serif" font-size="11.00" fill="#000000">[table]</text>
<polygon fill="none" stroke="#000000" points="71.5,-338.2 71.5,-357.2 164.5,-357.2 164.5,-338.2 71.5,-338.2"/>
<text text-anchor="start" x="74.5" y="-344.3" font-family="Helvetica,sans-Serif" font-size="11.00" fill="#000000">...</text>
<polygon fill="#ffffff" stroke="transparent" points="71.5,-319.2 71.5,-338.2 94.5,-338.2 94.5,-319.2 71.5,-319.2"/>
<polygon fill="none" stroke="#000000" points="71.5,-319.2 71.5,-338.2 94.5,-338.2 94.5,-319.2 71.5,-319.2"/>
<text text-anchor="start" x="74.5" y="-325.3" font-family="Helvetica,sans-Serif" font-size="11.00" fill="#000000"> &#160;</text>
<polygon fill="#ffffff" stroke="transparent" points="94.5,-319.2 94.5,-338.2 137.5,-338.2 137.5,-319.2 94.5,-319.2"/>
<polygon fill="none" stroke="#000000" points="94.5,-319.2 94.5,-338.2 137.5,-338.2 137.5,-319.2 94.5,-319.2"/>
<text text-anchor="start" x="102.1105" y="-325.3" font-family="Helvetica,sans-Serif" font-size="11.00" fill="#000000">4 rows</text>
<polygon fill="#ffffff" stroke="transparent" points="137.5,-319.2 137.5,-338.2 164.5,-338.2 164.5,-319.2 137.5,-319.2"/>
<polygon fill="none" stroke="#000000" points="137.5,-319.2 137.5,-338.2 164.5,-338.2 164.5,-319.2 137.5,-319.2"/>
<text text-anchor="start" x="145.9053" y="-325.3" font-family="Helvetica,sans-Serif" font-size="11.00" fill="#000000">3 &gt;</text>
</a>
</g>
</g>
<!-- leads&#45;&gt;campanas -->
<g id="edge1" class="edge">
<title>leads:w&#45;&gt;campanas:e</title>
<path fill="none" stroke="#000000" stroke-dasharray="5,2" d="M262.0276,-318.0655C222.7131,-322.9843 210.7988,-347.2 164.5,-347.2"/>
<polygon fill="#000000" stroke="#000000" points="268.5143,-317.6776 276.7149,-320.7936 272.5071,-317.4388 276.5,-317.2 276.5,-317.2 276.5,-317.2 272.5071,-317.4388 276.2851,-313.6064 268.5143,-317.6776 268.5143,-317.6776"/>
<ellipse fill="none" stroke="#000000" cx="265.32" cy="-317.8687" rx="3.2" ry="3.2"/>
</g>
<!-- cursos -->
<g id="node3" class="node">
<title>cursos</title>
<g id="a_node3"><a xlink:href="../../tables/cursos.html" xlink:title="cursos" target="_top">
<polygon fill="#ffffff" stroke="transparent" points="8,-38.2 8,-216.2 227,-216.2 227,-38.2 8,-38.2"/>
<polygon fill="#f5f5f5" stroke="transparent" points="10.5,-191.2 10.5,-214.2 225.5,-214.2 225.5,-191.2 10.5,-191.2"/>
<polygon fill="none" stroke="#000000" points="10.5,-191.2 10.5,-214.2 225.5,-214.2 225.5,-191.2 10.5,-191.2"/>
<text text-anchor="start" x="15.5" y="-200.3" font-family="Helvetica,sans-Serif" font-weight="bold" font-size="11.00" fill="#000000">cursos</text>
<text text-anchor="start" x="190.5437" y="-199.3" font-family="Helvetica,sans-Serif" font-size="11.00" fill="#000000">[table]</text>
<polygon fill="none" stroke="#000000" points="10.5,-169.2 10.5,-191.2 133.5,-191.2 133.5,-169.2 10.5,-169.2"/>
<image xlink:href="../../images/primaryKeys.png" width="11px" height="12px" preserveAspectRatio="xMinYMin meet" x="15.5" y="-186.2"/>
<text text-anchor="start" x="30.5" y="-176.3" font-family="Helvetica,sans-Serif" font-size="11.00" fill="#000000">curso_id</text>
<polygon fill="none" stroke="#000000" points="133.5,-169.2 133.5,-191.2 225.5,-191.2 225.5,-169.2 133.5,-169.2"/>
<text text-anchor="start" x="136.5" y="-176.9" font-family="Helvetica,sans-Serif" font-size="11.00" fill="#000000">serial[10]</text>
<polygon fill="none" stroke="#000000" points="10.5,-147.2 10.5,-169.2 133.5,-169.2 133.5,-147.2 10.5,-147.2"/>
<text text-anchor="start" x="30.5" y="-154.3" font-family="Helvetica,sans-Serif" font-size="11.00" fill="#000000">nombre</text>
<polygon fill="none" stroke="#000000" points="133.5,-147.2 133.5,-169.2 225.5,-169.2 225.5,-147.2 133.5,-147.2"/>
<text text-anchor="start" x="136.5" y="-154.9" font-family="Helvetica,sans-Serif" font-size="11.00" fill="#000000">varchar[255]</text>
<polygon fill="none" stroke="#000000" points="10.5,-125.2 10.5,-147.2 133.5,-147.2 133.5,-125.2 10.5,-125.2"/>
<text text-anchor="start" x="30.5" y="-132.3" font-family="Helvetica,sans-Serif" font-size="11.00" fill="#000000">usu_insercion</text>
<polygon fill="none" stroke="#000000" points="133.5,-125.2 133.5,-147.2 225.5,-147.2 225.5,-125.2 133.5,-125.2"/>
<text text-anchor="start" x="136.5" y="-132.9" font-family="Helvetica,sans-Serif" font-size="11.00" fill="#000000">varchar[20]</text>
<polygon fill="none" stroke="#000000" points="10.5,-103.2 10.5,-125.2 133.5,-125.2 133.5,-103.2 10.5,-103.2"/>
<text text-anchor="start" x="30.5" y="-110.3" font-family="Helvetica,sans-Serif" font-size="11.00" fill="#000000">fec_insercion</text>
<polygon fill="none" stroke="#000000" points="133.5,-103.2 133.5,-125.2 225.5,-125.2 225.5,-103.2 133.5,-103.2"/>
<text text-anchor="start" x="136.1023" y="-110.9" font-family="Helvetica,sans-Serif" font-size="11.00" fill="#000000">timestamptz[35,6]</text>
<polygon fill="none" stroke="#000000" points="10.5,-81.2 10.5,-103.2 133.5,-103.2 133.5,-81.2 10.5,-81.2"/>
<text text-anchor="start" x="30.5" y="-88.3" font-family="Helvetica,sans-Serif" font-size="11.00" fill="#000000">fec_modificacion</text>
<polygon fill="none" stroke="#000000" points="133.5,-81.2 133.5,-103.2 225.5,-103.2 225.5,-81.2 133.5,-81.2"/>
<text text-anchor="start" x="136.1023" y="-88.9" font-family="Helvetica,sans-Serif" font-size="11.00" fill="#000000">timestamptz[35,6]</text>
<polygon fill="none" stroke="#000000" points="10.5,-59.2 10.5,-81.2 133.5,-81.2 133.5,-59.2 10.5,-59.2"/>
<text text-anchor="start" x="30.5" y="-66.3" font-family="Helvetica,sans-Serif" font-size="11.00" fill="#000000">usu_modificacion</text>
<polygon fill="none" stroke="#000000" points="133.5,-59.2 133.5,-81.2 225.5,-81.2 225.5,-59.2 133.5,-59.2"/>
<text text-anchor="start" x="136.5" y="-66.9" font-family="Helvetica,sans-Serif" font-size="11.00" fill="#000000">varchar[20]</text>
<polygon fill="#ffffff" stroke="transparent" points="10.5,-40.2 10.5,-59.2 63.5,-59.2 63.5,-40.2 10.5,-40.2"/>
<polygon fill="none" stroke="#000000" points="10.5,-40.2 10.5,-59.2 63.5,-59.2 63.5,-40.2 10.5,-40.2"/>
<text text-anchor="start" x="13.5" y="-46.3" font-family="Helvetica,sans-Serif" font-size="11.00" fill="#000000">&lt; 0</text>
<polygon fill="#ffffff" stroke="transparent" points="63.5,-40.2 63.5,-59.2 133.5,-59.2 133.5,-40.2 63.5,-40.2"/>
<polygon fill="none" stroke="#000000" points="63.5,-40.2 63.5,-59.2 133.5,-59.2 133.5,-40.2 63.5,-40.2"/>
<text text-anchor="start" x="98.1105" y="-46.3" font-family="Helvetica,sans-Serif" font-size="11.00" fill="#000000">0 rows</text>
<polygon fill="#ffffff" stroke="transparent" points="133.5,-40.2 133.5,-59.2 225.5,-59.2 225.5,-40.2 133.5,-40.2"/>
<polygon fill="none" stroke="#000000" points="133.5,-40.2 133.5,-59.2 225.5,-59.2 225.5,-40.2 133.5,-40.2"/>
<text text-anchor="start" x="206.9053" y="-46.3" font-family="Helvetica,sans-Serif" font-size="11.00" fill="#000000">1 &gt;</text>
<polygon fill="none" stroke="#000000" stroke-width="2" points="9,-39.2 9,-215.2 226,-215.2 226,-39.2 9,-39.2"/>
</a>
</g>
</g>
<!-- leads&#45;&gt;cursos -->
<g id="edge2" class="edge">
<title>leads:w&#45;&gt;cursos:e</title>
<path fill="none" stroke="#000000" stroke-dasharray="5,2" d="M262.3901,-268.9623C239.0154,-250.7688 266.5638,-180.2 225.5,-180.2"/>
<polygon fill="#000000" stroke="#000000" points="268.8381,-270.8988 275.4645,-276.6479 272.669,-272.0494 276.5,-273.2 276.5,-273.2 276.5,-273.2 272.669,-272.0494 277.5355,-269.7521 268.8381,-270.8988 268.8381,-270.8988"/>
<ellipse fill="none" stroke="#000000" cx="265.7733" cy="-269.9784" rx="3.2" ry="3.2"/>
</g>
<!-- personas -->
<g id="node4" class="node">
<title>personas</title>
<g id="a_node4"><a xlink:href="../../tables/personas.html" xlink:title="personas" target="_top">
<polygon fill="#ffffff" stroke="transparent" points="73.5,-237.7 73.5,-298.7 161.5,-298.7 161.5,-237.7 73.5,-237.7"/>
<polygon fill="#f5f5f5" stroke="transparent" points="73.5,-275.2 73.5,-298.2 161.5,-298.2 161.5,-275.2 73.5,-275.2"/>
<polygon fill="none" stroke="#000000" points="73.5,-275.2 73.5,-298.2 161.5,-298.2 161.5,-275.2 73.5,-275.2"/>
<text text-anchor="start" x="78.3818" y="-284.3" font-family="Helvetica,sans-Serif" font-weight="bold" font-size="11.00" fill="#000000">personas</text>
<text text-anchor="start" x="127.0219" y="-283.3" font-family="Helvetica,sans-Serif" font-size="11.00" fill="#000000">[table]</text>
<polygon fill="none" stroke="#000000" points="73.5,-256.2 73.5,-275.2 161.5,-275.2 161.5,-256.2 73.5,-256.2"/>
<text text-anchor="start" x="76.5" y="-262.3" font-family="Helvetica,sans-Serif" font-size="11.00" fill="#000000">...</text>
<polygon fill="#ffffff" stroke="transparent" points="73.5,-237.2 73.5,-256.2 90.5,-256.2 90.5,-237.2 73.5,-237.2"/>
<polygon fill="none" stroke="#000000" points="73.5,-237.2 73.5,-256.2 90.5,-256.2 90.5,-237.2 73.5,-237.2"/>
<text text-anchor="start" x="76.5" y="-243.3" font-family="Helvetica,sans-Serif" font-size="11.00" fill="#000000"> &#160;</text>
<polygon fill="#ffffff" stroke="transparent" points="90.5,-237.2 90.5,-256.2 137.5,-256.2 137.5,-237.2 90.5,-237.2"/>
<polygon fill="none" stroke="#000000" points="90.5,-237.2 90.5,-256.2 137.5,-256.2 137.5,-237.2 90.5,-237.2"/>
<text text-anchor="start" x="95.9956" y="-243.3" font-family="Helvetica,sans-Serif" font-size="11.00" fill="#000000">22 rows</text>
<polygon fill="#ffffff" stroke="transparent" points="137.5,-237.2 137.5,-256.2 161.5,-256.2 161.5,-237.2 137.5,-237.2"/>
<polygon fill="none" stroke="#000000" points="137.5,-237.2 137.5,-256.2 161.5,-256.2 161.5,-237.2 137.5,-237.2"/>
<text text-anchor="start" x="142.9053" y="-243.3" font-family="Helvetica,sans-Serif" font-size="11.00" fill="#000000">2 &gt;</text>
</a>
</g>
</g>
<!-- leads&#45;&gt;personas -->
<g id="edge3" class="edge">
<title>leads:w&#45;&gt;personas:e</title>
<path fill="none" stroke="#000000" d="M261.9233,-294.3663C221.3831,-289.5211 209.0601,-265.2 161.5,-265.2"/>
<polygon fill="#000000" stroke="#000000" points="268.5131,-294.7432 276.2944,-298.7941 272.5065,-294.9716 276.5,-295.2 276.5,-295.2 276.5,-295.2 272.5065,-294.9716 276.7056,-291.6059 268.5131,-294.7432 268.5131,-294.7432"/>
<ellipse fill="none" stroke="#000000" cx="265.3183" cy="-294.5604" rx="3.2" ry="3.2"/>
</g>
<!-- usuarios -->
<g id="node5" class="node">
<title>usuarios</title>
<g id="a_node5"><a xlink:href="../../tables/usuarios.html" xlink:title="usuarios" target="_top">
<polygon fill="#ffffff" stroke="transparent" points="75.5,-401.7 75.5,-462.7 159.5,-462.7 159.5,-401.7 75.5,-401.7"/>
<polygon fill="#f5f5f5" stroke="transparent" points="75.5,-439.2 75.5,-462.2 159.5,-462.2 159.5,-439.2 75.5,-439.2"/>
<polygon fill="none" stroke="#000000" points="75.5,-439.2 75.5,-462.2 159.5,-462.2 159.5,-439.2 75.5,-439.2"/>
<text text-anchor="start" x="80.2188" y="-448.3" font-family="Helvetica,sans-Serif" font-weight="bold" font-size="11.00" fill="#000000">usuarios</text>
<text text-anchor="start" x="125.0219" y="-447.3" font-family="Helvetica,sans-Serif" font-size="11.00" fill="#000000">[table]</text>
<polygon fill="none" stroke="#000000" points="75.5,-420.2 75.5,-439.2 159.5,-439.2 159.5,-420.2 75.5,-420.2"/>
<text text-anchor="start" x="78.5" y="-426.3" font-family="Helvetica,sans-Serif" font-size="11.00" fill="#000000">...</text>
<polygon fill="#ffffff" stroke="transparent" points="75.5,-401.2 75.5,-420.2 93.5,-420.2 93.5,-401.2 75.5,-401.2"/>
<polygon fill="none" stroke="#000000" points="75.5,-401.2 75.5,-420.2 93.5,-420.2 93.5,-401.2 75.5,-401.2"/>
<text text-anchor="start" x="78.5" y="-407.3" font-family="Helvetica,sans-Serif" font-size="11.00" fill="#000000"> &#160;</text>
<polygon fill="#ffffff" stroke="transparent" points="93.5,-401.2 93.5,-420.2 134.5,-420.2 134.5,-401.2 93.5,-401.2"/>
<polygon fill="none" stroke="#000000" points="93.5,-401.2 93.5,-420.2 134.5,-420.2 134.5,-401.2 93.5,-401.2"/>
<text text-anchor="start" x="99.1105" y="-407.3" font-family="Helvetica,sans-Serif" font-size="11.00" fill="#000000">2 rows</text>
<polygon fill="#ffffff" stroke="transparent" points="134.5,-401.2 134.5,-420.2 159.5,-420.2 159.5,-401.2 134.5,-401.2"/>
<polygon fill="none" stroke="#000000" points="134.5,-401.2 134.5,-420.2 159.5,-420.2 159.5,-401.2 134.5,-401.2"/>
<text text-anchor="start" x="140.9053" y="-407.3" font-family="Helvetica,sans-Serif" font-size="11.00" fill="#000000">2 &gt;</text>
</a>
</g>
</g>
<!-- leads&#45;&gt;usuarios -->
<g id="edge4" class="edge">
<title>leads:w&#45;&gt;usuarios:e</title>
<path fill="none" stroke="#000000" d="M262.5075,-343.2025C250.0713,-352.6211 253.1162,-376.4972 235,-391.2 205.8313,-414.8727 197.0661,-429.2 159.5,-429.2"/>
<polygon fill="#000000" stroke="#000000" points="268.8085,-341.4002 277.4901,-342.6612 272.6542,-340.3001 276.5,-339.2 276.5,-339.2 276.5,-339.2 272.6542,-340.3001 275.5099,-335.7388 268.8085,-341.4002 268.8085,-341.4002"/>
<ellipse fill="none" stroke="#000000" cx="265.7319" cy="-342.2802" rx="3.2" ry="3.2"/>
</g>
</g>
</svg>
