<?xml version="1.0" encoding="UTF-8" standalone="no"?>
<!DOCTYPE svg PUBLIC "-//W3C//DTD SVG 1.1//EN"
 "http://www.w3.org/Graphics/SVG/1.1/DTD/svg11.dtd">
<!-- Generated by graphviz version 2.40.1 (20161225.0304)
 -->
<!-- Title: oneDegreeRelationshipsDiagram Pages: 1 -->
<svg width="587pt" height="574pt"
 viewBox="0.00 0.00 587.00 574.20" xmlns="http://www.w3.org/2000/svg" xmlns:xlink="http://www.w3.org/1999/xlink">
<g id="graph0" class="graph" transform="scale(1 1) rotate(0) translate(4 570.2)">
<title>oneDegreeRelationshipsDiagram</title>
<polygon fill="#ffffff" stroke="transparent" points="-4,4 -4,-570.2 583,-570.2 583,4 -4,4"/>
<text text-anchor="middle" x="72.4936" y="-7.3" font-family="Helvetica,sans-Serif" font-size="11.00" fill="#000000">Generated by SchemaSpy</text>
<!-- ciclo_aulas -->
<g id="node1" class="node">
<title>ciclo_aulas</title>
<g id="a_node1"><a xlink:href="../../tables/ciclo_aulas.html" xlink:title="ciclo_aulas" target="_top">
<polygon fill="#ffffff" stroke="transparent" points="448,-413.2 448,-562.2 571,-562.2 571,-413.2 448,-413.2"/>
<polygon fill="#f5f5f5" stroke="transparent" points="448.5,-538.7 448.5,-561.7 571.5,-561.7 571.5,-538.7 448.5,-538.7"/>
<polygon fill="none" stroke="#000000" points="448.5,-538.7 448.5,-561.7 571.5,-561.7 571.5,-538.7 448.5,-538.7"/>
<text text-anchor="start" x="453.5" y="-547.8" font-family="Helvetica,sans-Serif" font-weight="bold" font-size="11.00" fill="#000000">ciclo_aulas</text>
<text text-anchor="start" x="536.5437" y="-546.8" font-family="Helvetica,sans-Serif" font-size="11.00" fill="#000000">[table]</text>
<polygon fill="none" stroke="#000000" points="448.5,-516.7 448.5,-538.7 571.5,-538.7 571.5,-516.7 448.5,-516.7"/>
<image xlink:href="../../images/primaryKeys.png" width="11px" height="12px" preserveAspectRatio="xMinYMin meet" x="453.5" y="-533.7"/>
<text text-anchor="start" x="468.5" y="-523.8" font-family="Helvetica,sans-Serif" font-size="11.00" fill="#000000">aula_id</text>
<polygon fill="none" stroke="#000000" points="448.5,-494.7 448.5,-516.7 571.5,-516.7 571.5,-494.7 448.5,-494.7"/>
<image xlink:href="../../images/foreignKeys.png" width="11px" height="12px" preserveAspectRatio="xMinYMin meet" x="453.5" y="-511.7"/>
<text text-anchor="start" x="468.5" y="-501.8" font-family="Helvetica,sans-Serif" font-size="11.00" fill="#000000">sede_id</text>
<polygon fill="none" stroke="#000000" points="448.5,-472.7 448.5,-494.7 571.5,-494.7 571.5,-472.7 448.5,-472.7"/>
<image xlink:href="../../images/foreignKeys.png" width="11px" height="12px" preserveAspectRatio="xMinYMin meet" x="453.5" y="-489.7"/>
<text text-anchor="start" x="468.5" y="-479.8" font-family="Helvetica,sans-Serif" font-size="11.00" fill="#000000">ciclo_id</text>
<polygon fill="none" stroke="#000000" points="448.5,-450.7 448.5,-472.7 571.5,-472.7 571.5,-450.7 448.5,-450.7"/>
<image xlink:href="../../images/foreignKeys.png" width="11px" height="12px" preserveAspectRatio="xMinYMin meet" x="453.5" y="-467.7"/>
<text text-anchor="start" x="468.5" y="-457.8" font-family="Helvetica,sans-Serif" font-size="11.00" fill="#000000">curso_id</text>
<polygon fill="none" stroke="#000000" points="448.5,-431.7 448.5,-450.7 571.5,-450.7 571.5,-431.7 448.5,-431.7"/>
<text text-anchor="start" x="451.5" y="-437.8" font-family="Helvetica,sans-Serif" font-size="11.00" fill="#000000">...</text>
<polygon fill="#ffffff" stroke="transparent" points="448.5,-412.7 448.5,-431.7 490.5,-431.7 490.5,-412.7 448.5,-412.7"/>
<polygon fill="none" stroke="#000000" points="448.5,-412.7 448.5,-431.7 490.5,-431.7 490.5,-412.7 448.5,-412.7"/>
<text text-anchor="start" x="451.5" y="-418.8" font-family="Helvetica,sans-Serif" font-size="11.00" fill="#000000">&lt; 3</text>
<polygon fill="#ffffff" stroke="transparent" points="490.5,-412.7 490.5,-431.7 539.5,-431.7 539.5,-412.7 490.5,-412.7"/>
<polygon fill="none" stroke="#000000" points="490.5,-412.7 490.5,-431.7 539.5,-431.7 539.5,-412.7 490.5,-412.7"/>
<text text-anchor="start" x="504.1105" y="-418.8" font-family="Helvetica,sans-Serif" font-size="11.00" fill="#000000">0 rows</text>
<polygon fill="#ffffff" stroke="transparent" points="539.5,-412.7 539.5,-431.7 571.5,-431.7 571.5,-412.7 539.5,-412.7"/>
<polygon fill="none" stroke="#000000" points="539.5,-412.7 539.5,-431.7 571.5,-431.7 571.5,-412.7 539.5,-412.7"/>
<text text-anchor="start" x="552.9053" y="-418.8" font-family="Helvetica,sans-Serif" font-size="11.00" fill="#000000">1 &gt;</text>
</a>
</g>
</g>
<!-- curso_ciclos -->
<g id="node2" class="node">
<title>curso_ciclos</title>
<g id="a_node2"><a xlink:href="../../tables/curso_ciclos.html" xlink:title="curso_ciclos" target="_top">
<polygon fill="#ffffff" stroke="transparent" points="276,-450.2 276,-555.2 399,-555.2 399,-450.2 276,-450.2"/>
<polygon fill="#f5f5f5" stroke="transparent" points="276.5,-531.7 276.5,-554.7 399.5,-554.7 399.5,-531.7 276.5,-531.7"/>
<polygon fill="none" stroke="#000000" points="276.5,-531.7 276.5,-554.7 399.5,-554.7 399.5,-531.7 276.5,-531.7"/>
<text text-anchor="start" x="281.5" y="-540.8" font-family="Helvetica,sans-Serif" font-weight="bold" font-size="11.00" fill="#000000">curso_ciclos</text>
<text text-anchor="start" x="364.5437" y="-539.8" font-family="Helvetica,sans-Serif" font-size="11.00" fill="#000000">[table]</text>
<polygon fill="none" stroke="#000000" points="276.5,-509.7 276.5,-531.7 399.5,-531.7 399.5,-509.7 276.5,-509.7"/>
<image xlink:href="../../images/primaryKeys.png" width="11px" height="12px" preserveAspectRatio="xMinYMin meet" x="281.5" y="-526.7"/>
<text text-anchor="start" x="296.5" y="-516.8" font-family="Helvetica,sans-Serif" font-size="11.00" fill="#000000">ciclo_id</text>
<polygon fill="none" stroke="#000000" points="276.5,-487.7 276.5,-509.7 399.5,-509.7 399.5,-487.7 276.5,-487.7"/>
<image xlink:href="../../images/foreignKeys.png" width="11px" height="12px" preserveAspectRatio="xMinYMin meet" x="281.5" y="-504.7"/>
<text text-anchor="start" x="296.5" y="-494.8" font-family="Helvetica,sans-Serif" font-size="11.00" fill="#000000">curso_id</text>
<polygon fill="none" stroke="#000000" points="276.5,-468.7 276.5,-487.7 399.5,-487.7 399.5,-468.7 276.5,-468.7"/>
<text text-anchor="start" x="279.5" y="-474.8" font-family="Helvetica,sans-Serif" font-size="11.00" fill="#000000">...</text>
<polygon fill="#ffffff" stroke="transparent" points="276.5,-449.7 276.5,-468.7 318.5,-468.7 318.5,-449.7 276.5,-449.7"/>
<polygon fill="none" stroke="#000000" points="276.5,-449.7 276.5,-468.7 318.5,-468.7 318.5,-449.7 276.5,-449.7"/>
<text text-anchor="start" x="279.5" y="-455.8" font-family="Helvetica,sans-Serif" font-size="11.00" fill="#000000">&lt; 1</text>
<polygon fill="#ffffff" stroke="transparent" points="318.5,-449.7 318.5,-468.7 367.5,-468.7 367.5,-449.7 318.5,-449.7"/>
<polygon fill="none" stroke="#000000" points="318.5,-449.7 318.5,-468.7 367.5,-468.7 367.5,-449.7 318.5,-449.7"/>
<text text-anchor="start" x="332.1105" y="-455.8" font-family="Helvetica,sans-Serif" font-size="11.00" fill="#000000">0 rows</text>
<polygon fill="#ffffff" stroke="transparent" points="367.5,-449.7 367.5,-468.7 399.5,-468.7 399.5,-449.7 367.5,-449.7"/>
<polygon fill="none" stroke="#000000" points="367.5,-449.7 367.5,-468.7 399.5,-468.7 399.5,-449.7 367.5,-449.7"/>
<text text-anchor="start" x="380.9053" y="-455.8" font-family="Helvetica,sans-Serif" font-size="11.00" fill="#000000">2 &gt;</text>
</a>
</g>
</g>
<!-- ciclo_aulas&#45;&gt;curso_ciclos -->
<g id="edge1" class="edge">
<title>ciclo_aulas:w&#45;&gt;curso_ciclos:e</title>
<path fill="none" stroke="#000000" d="M434.6217,-488.2369C422.0786,-498.117 420.8196,-520.7 399.5,-520.7"/>
<polygon fill="#000000" stroke="#000000" points="440.896,-486.1858 449.6186,-487.1218 444.698,-484.9429 448.5,-483.7 448.5,-483.7 448.5,-483.7 444.698,-484.9429 447.3814,-480.2782 440.896,-486.1858 440.896,-486.1858"/>
<ellipse fill="none" stroke="#000000" cx="437.8544" cy="-487.1802" rx="3.2" ry="3.2"/>
</g>
<!-- cursos -->
<g id="node3" class="node">
<title>cursos</title>
<g id="a_node3"><a xlink:href="../../tables/cursos.html" xlink:title="cursos" target="_top">
<polygon fill="#ffffff" stroke="transparent" points="8,-187.7 8,-387.7 227,-387.7 227,-187.7 8,-187.7"/>
<polygon fill="#f5f5f5" stroke="transparent" points="10.5,-362.7 10.5,-385.7 225.5,-385.7 225.5,-362.7 10.5,-362.7"/>
<polygon fill="none" stroke="#000000" points="10.5,-362.7 10.5,-385.7 225.5,-385.7 225.5,-362.7 10.5,-362.7"/>
<text text-anchor="start" x="15.5" y="-371.8" font-family="Helvetica,sans-Serif" font-weight="bold" font-size="11.00" fill="#000000">cursos</text>
<text text-anchor="start" x="190.5437" y="-370.8" font-family="Helvetica,sans-Serif" font-size="11.00" fill="#000000">[table]</text>
<polygon fill="none" stroke="#000000" points="10.5,-340.7 10.5,-362.7 133.5,-362.7 133.5,-340.7 10.5,-340.7"/>
<image xlink:href="../../images/primaryKeys.png" width="11px" height="12px" preserveAspectRatio="xMinYMin meet" x="15.5" y="-357.7"/>
<text text-anchor="start" x="30.5" y="-347.8" font-family="Helvetica,sans-Serif" font-size="11.00" fill="#000000">curso_id</text>
<polygon fill="none" stroke="#000000" points="133.5,-340.7 133.5,-362.7 225.5,-362.7 225.5,-340.7 133.5,-340.7"/>
<text text-anchor="start" x="136.5" y="-348.4" font-family="Helvetica,sans-Serif" font-size="11.00" fill="#000000">serial[10]</text>
<polygon fill="none" stroke="#000000" points="10.5,-318.7 10.5,-340.7 133.5,-340.7 133.5,-318.7 10.5,-318.7"/>
<text text-anchor="start" x="30.5" y="-325.8" font-family="Helvetica,sans-Serif" font-size="11.00" fill="#000000">nombre</text>
<polygon fill="none" stroke="#000000" points="133.5,-318.7 133.5,-340.7 225.5,-340.7 225.5,-318.7 133.5,-318.7"/>
<text text-anchor="start" x="136.5" y="-326.4" font-family="Helvetica,sans-Serif" font-size="11.00" fill="#000000">varchar[255]</text>
<polygon fill="none" stroke="#000000" points="10.5,-296.7 10.5,-318.7 133.5,-318.7 133.5,-296.7 10.5,-296.7"/>
<text text-anchor="start" x="30.5" y="-303.8" font-family="Helvetica,sans-Serif" font-size="11.00" fill="#000000">descripcion</text>
<polygon fill="none" stroke="#000000" points="133.5,-296.7 133.5,-318.7 225.5,-318.7 225.5,-296.7 133.5,-296.7"/>
<text text-anchor="start" x="136.5" y="-304.4" font-family="Helvetica,sans-Serif" font-size="11.00" fill="#000000">text[2147483647]</text>
<polygon fill="none" stroke="#000000" points="10.5,-274.7 10.5,-296.7 133.5,-296.7 133.5,-274.7 10.5,-274.7"/>
<text text-anchor="start" x="30.5" y="-281.8" font-family="Helvetica,sans-Serif" font-size="11.00" fill="#000000">usu_insercion</text>
<polygon fill="none" stroke="#000000" points="133.5,-274.7 133.5,-296.7 225.5,-296.7 225.5,-274.7 133.5,-274.7"/>
<text text-anchor="start" x="136.5" y="-282.4" font-family="Helvetica,sans-Serif" font-size="11.00" fill="#000000">varchar[20]</text>
<polygon fill="none" stroke="#000000" points="10.5,-252.7 10.5,-274.7 133.5,-274.7 133.5,-252.7 10.5,-252.7"/>
<text text-anchor="start" x="30.5" y="-259.8" font-family="Helvetica,sans-Serif" font-size="11.00" fill="#000000">fec_insercion</text>
<polygon fill="none" stroke="#000000" points="133.5,-252.7 133.5,-274.7 225.5,-274.7 225.5,-252.7 133.5,-252.7"/>
<text text-anchor="start" x="136.1023" y="-260.4" font-family="Helvetica,sans-Serif" font-size="11.00" fill="#000000">timestamptz[35,6]</text>
<polygon fill="none" stroke="#000000" points="10.5,-230.7 10.5,-252.7 133.5,-252.7 133.5,-230.7 10.5,-230.7"/>
<text text-anchor="start" x="30.5" y="-237.8" font-family="Helvetica,sans-Serif" font-size="11.00" fill="#000000">fec_modificacion</text>
<polygon fill="none" stroke="#000000" points="133.5,-230.7 133.5,-252.7 225.5,-252.7 225.5,-230.7 133.5,-230.7"/>
<text text-anchor="start" x="136.1023" y="-238.4" font-family="Helvetica,sans-Serif" font-size="11.00" fill="#000000">timestamptz[35,6]</text>
<polygon fill="none" stroke="#000000" points="10.5,-208.7 10.5,-230.7 133.5,-230.7 133.5,-208.7 10.5,-208.7"/>
<text text-anchor="start" x="30.5" y="-215.8" font-family="Helvetica,sans-Serif" font-size="11.00" fill="#000000">usu_modificacion</text>
<polygon fill="none" stroke="#000000" points="133.5,-208.7 133.5,-230.7 225.5,-230.7 225.5,-208.7 133.5,-208.7"/>
<text text-anchor="start" x="136.5" y="-216.4" font-family="Helvetica,sans-Serif" font-size="11.00" fill="#000000">varchar[20]</text>
<polygon fill="#ffffff" stroke="transparent" points="10.5,-189.7 10.5,-208.7 66.5,-208.7 66.5,-189.7 10.5,-189.7"/>
<polygon fill="none" stroke="#000000" points="10.5,-189.7 10.5,-208.7 66.5,-208.7 66.5,-189.7 10.5,-189.7"/>
<text text-anchor="start" x="13.5" y="-195.8" font-family="Helvetica,sans-Serif" font-size="11.00" fill="#000000">&lt; 0</text>
<polygon fill="#ffffff" stroke="transparent" points="66.5,-189.7 66.5,-208.7 133.5,-208.7 133.5,-189.7 66.5,-189.7"/>
<polygon fill="none" stroke="#000000" points="66.5,-189.7 66.5,-208.7 133.5,-208.7 133.5,-189.7 66.5,-189.7"/>
<text text-anchor="start" x="103.6105" y="-195.8" font-family="Helvetica,sans-Serif" font-size="11.00" fill="#000000">1 row</text>
<polygon fill="#ffffff" stroke="transparent" points="133.5,-189.7 133.5,-208.7 225.5,-208.7 225.5,-189.7 133.5,-189.7"/>
<polygon fill="none" stroke="#000000" points="133.5,-189.7 133.5,-208.7 225.5,-208.7 225.5,-189.7 133.5,-189.7"/>
<text text-anchor="start" x="206.9053" y="-195.8" font-family="Helvetica,sans-Serif" font-size="11.00" fill="#000000">4 &gt;</text>
<polygon fill="none" stroke="#000000" stroke-width="2" points="9,-188.7 9,-386.7 226,-386.7 226,-188.7 9,-188.7"/>
</a>
</g>
</g>
<!-- ciclo_aulas&#45;&gt;cursos -->
<g id="edge2" class="edge">
<title>ciclo_aulas:w&#45;&gt;cursos:e</title>
<path fill="none" stroke="#000000" d="M434.4553,-458.4996C425.5042,-453.7061 420.9764,-444.693 407,-439.7 347.6546,-418.4991 320.8286,-446.0584 268,-411.7 240.6054,-393.8832 258.1788,-351.7 225.5,-351.7"/>
<polygon fill="#000000" stroke="#000000" points="440.7,-459.9225 447.7001,-465.21 444.6,-460.8113 448.5,-461.7 448.5,-461.7 448.5,-461.7 444.6,-460.8113 449.2999,-458.19 440.7,-459.9225 440.7,-459.9225"/>
<ellipse fill="none" stroke="#000000" cx="437.5799" cy="-459.2115" rx="3.2" ry="3.2"/>
</g>
<!-- curso_ciclos&#45;&gt;cursos -->
<g id="edge3" class="edge">
<title>curso_ciclos:w&#45;&gt;cursos:e</title>
<path fill="none" stroke="#000000" d="M262.2019,-495.7636C220.9077,-475.0454 288.8458,-351.7 225.5,-351.7"/>
<polygon fill="#000000" stroke="#000000" points="268.6635,-497.0906 275.7758,-502.2264 272.5818,-497.8953 276.5,-498.7 276.5,-498.7 276.5,-498.7 272.5818,-497.8953 277.2242,-495.1736 268.6635,-497.0906 268.6635,-497.0906"/>
<ellipse fill="none" stroke="#000000" cx="265.529" cy="-496.4468" rx="3.2" ry="3.2"/>
</g>
<!-- leads -->
<g id="node4" class="node">
<title>leads</title>
<g id="a_node4"><a xlink:href="../../tables/leads.html" xlink:title="leads" target="_top">
<polygon fill="#ffffff" stroke="transparent" points="276,-230.2 276,-401.2 399,-401.2 399,-230.2 276,-230.2"/>
<polygon fill="#f5f5f5" stroke="transparent" points="276.5,-377.7 276.5,-400.7 399.5,-400.7 399.5,-377.7 276.5,-377.7"/>
<polygon fill="none" stroke="#000000" points="276.5,-377.7 276.5,-400.7 399.5,-400.7 399.5,-377.7 276.5,-377.7"/>
<text text-anchor="start" x="281.5" y="-386.8" font-family="Helvetica,sans-Serif" font-weight="bold" font-size="11.00" fill="#000000">leads</text>
<text text-anchor="start" x="364.5437" y="-385.8" font-family="Helvetica,sans-Serif" font-size="11.00" fill="#000000">[table]</text>
<polygon fill="none" stroke="#000000" points="276.5,-355.7 276.5,-377.7 399.5,-377.7 399.5,-355.7 276.5,-355.7"/>
<image xlink:href="../../images/primaryKeys.png" width="11px" height="12px" preserveAspectRatio="xMinYMin meet" x="281.5" y="-372.7"/>
<text text-anchor="start" x="296.5" y="-362.8" font-family="Helvetica,sans-Serif" font-size="11.00" fill="#000000">lead_id</text>
<polygon fill="none" stroke="#000000" points="276.5,-333.7 276.5,-355.7 399.5,-355.7 399.5,-333.7 276.5,-333.7"/>
<image xlink:href="../../images/foreignKeys.png" width="11px" height="12px" preserveAspectRatio="xMinYMin meet" x="281.5" y="-350.7"/>
<text text-anchor="start" x="296.5" y="-340.8" font-family="Helvetica,sans-Serif" font-size="11.00" fill="#000000">usu_asignado_id</text>
<polygon fill="none" stroke="#000000" points="276.5,-311.7 276.5,-333.7 399.5,-333.7 399.5,-311.7 276.5,-311.7"/>
<image xlink:href="../../images/foreignKeys.png" width="11px" height="12px" preserveAspectRatio="xMinYMin meet" x="281.5" y="-328.7"/>
<text text-anchor="start" x="296.5" y="-318.8" font-family="Helvetica,sans-Serif" font-size="11.00" fill="#000000">campana_id</text>
<polygon fill="none" stroke="#000000" points="276.5,-289.7 276.5,-311.7 399.5,-311.7 399.5,-289.7 276.5,-289.7"/>
<image xlink:href="../../images/foreignKeys.png" width="11px" height="12px" preserveAspectRatio="xMinYMin meet" x="281.5" y="-306.7"/>
<text text-anchor="start" x="296.5" y="-296.8" font-family="Helvetica,sans-Serif" font-size="11.00" fill="#000000">persona_id</text>
<polygon fill="none" stroke="#000000" points="276.5,-267.7 276.5,-289.7 399.5,-289.7 399.5,-267.7 276.5,-267.7"/>
<image xlink:href="../../images/foreignKeys.png" width="11px" height="12px" preserveAspectRatio="xMinYMin meet" x="281.5" y="-284.7"/>
<text text-anchor="start" x="296.5" y="-274.8" font-family="Helvetica,sans-Serif" font-size="11.00" fill="#000000">curso_id</text>
<polygon fill="none" stroke="#000000" points="276.5,-248.7 276.5,-267.7 399.5,-267.7 399.5,-248.7 276.5,-248.7"/>
<text text-anchor="start" x="279.5" y="-254.8" font-family="Helvetica,sans-Serif" font-size="11.00" fill="#000000">...</text>
<polygon fill="#ffffff" stroke="transparent" points="276.5,-229.7 276.5,-248.7 323.5,-248.7 323.5,-229.7 276.5,-229.7"/>
<polygon fill="none" stroke="#000000" points="276.5,-229.7 276.5,-248.7 323.5,-248.7 323.5,-229.7 276.5,-229.7"/>
<text text-anchor="start" x="279.5" y="-235.8" font-family="Helvetica,sans-Serif" font-size="11.00" fill="#000000">&lt; 4</text>
<polygon fill="#ffffff" stroke="transparent" points="323.5,-229.7 323.5,-248.7 374.5,-248.7 374.5,-229.7 323.5,-229.7"/>
<polygon fill="none" stroke="#000000" points="323.5,-229.7 323.5,-248.7 374.5,-248.7 374.5,-229.7 323.5,-229.7"/>
<text text-anchor="start" x="339.1105" y="-235.8" font-family="Helvetica,sans-Serif" font-size="11.00" fill="#000000">0 rows</text>
<polygon fill="#ffffff" stroke="transparent" points="374.5,-229.7 374.5,-248.7 399.5,-248.7 399.5,-229.7 374.5,-229.7"/>
<polygon fill="none" stroke="#000000" points="374.5,-229.7 374.5,-248.7 399.5,-248.7 399.5,-229.7 374.5,-229.7"/>
<text text-anchor="start" x="390.3862" y="-235.8" font-family="Helvetica,sans-Serif" font-size="11.00" fill="#000000"> &#160;</text>
</a>
</g>
</g>
<!-- leads&#45;&gt;cursos -->
<g id="edge4" class="edge">
<title>leads:w&#45;&gt;cursos:e</title>
<path fill="none" stroke="#000000" d="M262.6487,-283.2665C243.9288,-299.248 259.0486,-351.7 225.5,-351.7"/>
<polygon fill="#000000" stroke="#000000" points="268.9022,-281.2049 277.6272,-282.119 272.7011,-279.9524 276.5,-278.7 276.5,-278.7 276.5,-278.7 272.7011,-279.9524 275.3728,-275.281 268.9022,-281.2049 268.9022,-281.2049"/>
<ellipse fill="none" stroke="#000000" cx="265.8631" cy="-282.2068" rx="3.2" ry="3.2"/>
</g>
<!-- oportunidades -->
<g id="node5" class="node">
<title>oportunidades</title>
<g id="a_node5"><a xlink:href="../../tables/oportunidades.html" xlink:title="oportunidades" target="_top">
<polygon fill="#ffffff" stroke="transparent" points="276,-38.2 276,-209.2 399,-209.2 399,-38.2 276,-38.2"/>
<polygon fill="#f5f5f5" stroke="transparent" points="276.5,-185.7 276.5,-208.7 399.5,-208.7 399.5,-185.7 276.5,-185.7"/>
<polygon fill="none" stroke="#000000" points="276.5,-185.7 276.5,-208.7 399.5,-208.7 399.5,-185.7 276.5,-185.7"/>
<text text-anchor="start" x="281.5" y="-194.8" font-family="Helvetica,sans-Serif" font-weight="bold" font-size="11.00" fill="#000000">oportunidades</text>
<text text-anchor="start" x="364.5437" y="-193.8" font-family="Helvetica,sans-Serif" font-size="11.00" fill="#000000">[table]</text>
<polygon fill="none" stroke="#000000" points="276.5,-163.7 276.5,-185.7 399.5,-185.7 399.5,-163.7 276.5,-163.7"/>
<image xlink:href="../../images/primaryKeys.png" width="11px" height="12px" preserveAspectRatio="xMinYMin meet" x="281.5" y="-180.7"/>
<text text-anchor="start" x="296.5" y="-170.8" font-family="Helvetica,sans-Serif" font-size="11.00" fill="#000000">oportunidad_id</text>
<polygon fill="none" stroke="#000000" points="276.5,-141.7 276.5,-163.7 399.5,-163.7 399.5,-141.7 276.5,-141.7"/>
<image xlink:href="../../images/foreignKeys.png" width="11px" height="12px" preserveAspectRatio="xMinYMin meet" x="281.5" y="-158.7"/>
<text text-anchor="start" x="296.5" y="-148.8" font-family="Helvetica,sans-Serif" font-size="11.00" fill="#000000">campana_id</text>
<polygon fill="none" stroke="#000000" points="276.5,-119.7 276.5,-141.7 399.5,-141.7 399.5,-119.7 276.5,-119.7"/>
<image xlink:href="../../images/foreignKeys.png" width="11px" height="12px" preserveAspectRatio="xMinYMin meet" x="281.5" y="-136.7"/>
<text text-anchor="start" x="296.5" y="-126.8" font-family="Helvetica,sans-Serif" font-size="11.00" fill="#000000">contacto_id</text>
<polygon fill="none" stroke="#000000" points="276.5,-97.7 276.5,-119.7 399.5,-119.7 399.5,-97.7 276.5,-97.7"/>
<image xlink:href="../../images/foreignKeys.png" width="11px" height="12px" preserveAspectRatio="xMinYMin meet" x="281.5" y="-114.7"/>
<text text-anchor="start" x="296.5" y="-104.8" font-family="Helvetica,sans-Serif" font-size="11.00" fill="#000000">curso_id</text>
<polygon fill="none" stroke="#000000" points="276.5,-75.7 276.5,-97.7 399.5,-97.7 399.5,-75.7 276.5,-75.7"/>
<image xlink:href="../../images/foreignKeys.png" width="11px" height="12px" preserveAspectRatio="xMinYMin meet" x="281.5" y="-92.7"/>
<text text-anchor="start" x="296.5" y="-82.8" font-family="Helvetica,sans-Serif" font-size="11.00" fill="#000000">usu_asignado_id</text>
<polygon fill="none" stroke="#000000" points="276.5,-56.7 276.5,-75.7 399.5,-75.7 399.5,-56.7 276.5,-56.7"/>
<text text-anchor="start" x="279.5" y="-62.8" font-family="Helvetica,sans-Serif" font-size="11.00" fill="#000000">...</text>
<polygon fill="#ffffff" stroke="transparent" points="276.5,-37.7 276.5,-56.7 321.5,-56.7 321.5,-37.7 276.5,-37.7"/>
<polygon fill="none" stroke="#000000" points="276.5,-37.7 276.5,-56.7 321.5,-56.7 321.5,-37.7 276.5,-37.7"/>
<text text-anchor="start" x="279.5" y="-43.8" font-family="Helvetica,sans-Serif" font-size="11.00" fill="#000000">&lt; 4</text>
<polygon fill="#ffffff" stroke="transparent" points="321.5,-37.7 321.5,-56.7 365.5,-56.7 365.5,-37.7 321.5,-37.7"/>
<polygon fill="none" stroke="#000000" points="321.5,-37.7 321.5,-56.7 365.5,-56.7 365.5,-37.7 321.5,-37.7"/>
<text text-anchor="start" x="335.6105" y="-43.8" font-family="Helvetica,sans-Serif" font-size="11.00" fill="#000000">1 row</text>
<polygon fill="#ffffff" stroke="transparent" points="365.5,-37.7 365.5,-56.7 399.5,-56.7 399.5,-37.7 365.5,-37.7"/>
<polygon fill="none" stroke="#000000" points="365.5,-37.7 365.5,-56.7 399.5,-56.7 399.5,-37.7 365.5,-37.7"/>
<text text-anchor="start" x="380.9053" y="-43.8" font-family="Helvetica,sans-Serif" font-size="11.00" fill="#000000">1 &gt;</text>
</a>
</g>
</g>
<!-- oportunidades&#45;&gt;cursos -->
<g id="edge5" class="edge">
<title>oportunidades:w&#45;&gt;cursos:e</title>
<path fill="none" stroke="#000000" d="M261.7817,-110.5163C182.6606,-132.7531 330.2491,-351.7 225.5,-351.7"/>
<polygon fill="#000000" stroke="#000000" points="268.5602,-109.6798 276.9409,-112.2729 272.5301,-109.1899 276.5,-108.7 276.5,-108.7 276.5,-108.7 272.5301,-109.1899 276.0591,-105.1271 268.5602,-109.6798 268.5602,-109.6798"/>
<ellipse fill="none" stroke="#000000" cx="265.3843" cy="-110.0718" rx="3.2" ry="3.2"/>
</g>
</g>
</svg>
