<?xml version="1.0" encoding="UTF-8" standalone="no"?>
<!DOCTYPE svg PUBLIC "-//W3C//DTD SVG 1.1//EN"
 "http://www.w3.org/Graphics/SVG/1.1/DTD/svg11.dtd">
<!-- Generated by graphviz version 2.40.1 (20161225.0304)
 -->
<!-- Title: oneDegreeRelationshipsDiagram Pages: 1 -->
<svg width="589pt" height="516pt"
 viewBox="0.00 0.00 589.00 515.88" xmlns="http://www.w3.org/2000/svg" xmlns:xlink="http://www.w3.org/1999/xlink">
<g id="graph0" class="graph" transform="scale(1 1) rotate(0) translate(4 511.8815)">
<title>oneDegreeRelationshipsDiagram</title>
<polygon fill="#ffffff" stroke="transparent" points="-4,4 -4,-511.8815 585,-511.8815 585,4 -4,4"/>
<text text-anchor="middle" x="72.4936" y="-7.3" font-family="Helvetica,sans-Serif" font-size="11.00" fill="#000000">Generated by SchemaSpy</text>
<!-- curso_ciclos -->
<g id="node1" class="node">
<title>curso_ciclos</title>
<g id="a_node1"><a xlink:href="../../tables/curso_ciclos.html" xlink:title="curso_ciclos" target="_top">
<polygon fill="#ffffff" stroke="transparent" points="180,-88.3815 180,-376.3815 401,-376.3815 401,-88.3815 180,-88.3815"/>
<polygon fill="#f5f5f5" stroke="transparent" points="182.5,-351.3815 182.5,-374.3815 399.5,-374.3815 399.5,-351.3815 182.5,-351.3815"/>
<polygon fill="none" stroke="#000000" points="182.5,-351.3815 182.5,-374.3815 399.5,-374.3815 399.5,-351.3815 182.5,-351.3815"/>
<text text-anchor="start" x="187.5" y="-360.4815" font-family="Helvetica,sans-Serif" font-weight="bold" font-size="11.00" fill="#000000">curso_ciclos</text>
<text text-anchor="start" x="364.5437" y="-359.4815" font-family="Helvetica,sans-Serif" font-size="11.00" fill="#000000">[table]</text>
<polygon fill="none" stroke="#000000" points="182.5,-329.3815 182.5,-351.3815 305.5,-351.3815 305.5,-329.3815 182.5,-329.3815"/>
<image xlink:href="../../images/primaryKeys.png" width="11px" height="12px" preserveAspectRatio="xMinYMin meet" x="187.5" y="-346.382"/>
<text text-anchor="start" x="202.5" y="-336.4815" font-family="Helvetica,sans-Serif" font-size="11.00" fill="#000000">ciclo_id</text>
<polygon fill="none" stroke="#000000" points="305.5,-329.3815 305.5,-351.3815 399.5,-351.3815 399.5,-329.3815 305.5,-329.3815"/>
<text text-anchor="start" x="308.5" y="-337.0815" font-family="Helvetica,sans-Serif" font-size="11.00" fill="#000000">serial[10]</text>
<polygon fill="none" stroke="#000000" points="182.5,-307.3815 182.5,-329.3815 305.5,-329.3815 305.5,-307.3815 182.5,-307.3815"/>
<image xlink:href="../../images/foreignKeys.png" width="11px" height="12px" preserveAspectRatio="xMinYMin meet" x="187.5" y="-324.382"/>
<text text-anchor="start" x="202.5" y="-314.4815" font-family="Helvetica,sans-Serif" font-size="11.00" fill="#000000">curso_id</text>
<polygon fill="none" stroke="#000000" points="305.5,-307.3815 305.5,-329.3815 399.5,-329.3815 399.5,-307.3815 305.5,-307.3815"/>
<text text-anchor="start" x="308.5" y="-315.0815" font-family="Helvetica,sans-Serif" font-size="11.00" fill="#000000">int4[10]</text>
<polygon fill="none" stroke="#000000" points="182.5,-285.3815 182.5,-307.3815 305.5,-307.3815 305.5,-285.3815 182.5,-285.3815"/>
<text text-anchor="start" x="202.5" y="-292.4815" font-family="Helvetica,sans-Serif" font-size="11.00" fill="#000000">nivel</text>
<polygon fill="none" stroke="#000000" points="305.5,-285.3815 305.5,-307.3815 399.5,-307.3815 399.5,-285.3815 305.5,-285.3815"/>
<text text-anchor="start" x="308.5" y="-293.0815" font-family="Helvetica,sans-Serif" font-size="11.00" fill="#000000">varchar[50]</text>
<polygon fill="none" stroke="#000000" points="182.5,-263.3815 182.5,-285.3815 305.5,-285.3815 305.5,-263.3815 182.5,-263.3815"/>
<text text-anchor="start" x="202.5" y="-270.4815" font-family="Helvetica,sans-Serif" font-size="11.00" fill="#000000">fec_inicio</text>
<polygon fill="none" stroke="#000000" points="305.5,-263.3815 305.5,-285.3815 399.5,-285.3815 399.5,-263.3815 305.5,-263.3815"/>
<text text-anchor="start" x="308.5" y="-271.0815" font-family="Helvetica,sans-Serif" font-size="11.00" fill="#000000">timestamptz[35,6]</text>
<polygon fill="none" stroke="#000000" points="182.5,-241.3815 182.5,-263.3815 305.5,-263.3815 305.5,-241.3815 182.5,-241.3815"/>
<text text-anchor="start" x="202.5" y="-248.4815" font-family="Helvetica,sans-Serif" font-size="11.00" fill="#000000">fec_fin</text>
<polygon fill="none" stroke="#000000" points="305.5,-241.3815 305.5,-263.3815 399.5,-263.3815 399.5,-241.3815 305.5,-241.3815"/>
<text text-anchor="start" x="308.5" y="-249.0815" font-family="Helvetica,sans-Serif" font-size="11.00" fill="#000000">timestamptz[35,6]</text>
<polygon fill="none" stroke="#000000" points="182.5,-219.3815 182.5,-241.3815 305.5,-241.3815 305.5,-219.3815 182.5,-219.3815"/>
<text text-anchor="start" x="202.5" y="-226.4815" font-family="Helvetica,sans-Serif" font-size="11.00" fill="#000000">usu_insercion</text>
<polygon fill="none" stroke="#000000" points="305.5,-219.3815 305.5,-241.3815 399.5,-241.3815 399.5,-219.3815 305.5,-219.3815"/>
<text text-anchor="start" x="308.5" y="-227.0815" font-family="Helvetica,sans-Serif" font-size="11.00" fill="#000000">varchar[20]</text>
<polygon fill="none" stroke="#000000" points="182.5,-197.3815 182.5,-219.3815 305.5,-219.3815 305.5,-197.3815 182.5,-197.3815"/>
<text text-anchor="start" x="202.5" y="-204.4815" font-family="Helvetica,sans-Serif" font-size="11.00" fill="#000000">fec_insercion</text>
<polygon fill="none" stroke="#000000" points="305.5,-197.3815 305.5,-219.3815 399.5,-219.3815 399.5,-197.3815 305.5,-197.3815"/>
<text text-anchor="start" x="308.5" y="-205.0815" font-family="Helvetica,sans-Serif" font-size="11.00" fill="#000000">timestamptz[35,6]</text>
<polygon fill="none" stroke="#000000" points="182.5,-175.3815 182.5,-197.3815 305.5,-197.3815 305.5,-175.3815 182.5,-175.3815"/>
<text text-anchor="start" x="202.5" y="-182.4815" font-family="Helvetica,sans-Serif" font-size="11.00" fill="#000000">fec_modificacion</text>
<polygon fill="none" stroke="#000000" points="305.5,-175.3815 305.5,-197.3815 399.5,-197.3815 399.5,-175.3815 305.5,-175.3815"/>
<text text-anchor="start" x="308.5" y="-183.0815" font-family="Helvetica,sans-Serif" font-size="11.00" fill="#000000">timestamptz[35,6]</text>
<polygon fill="none" stroke="#000000" points="182.5,-153.3815 182.5,-175.3815 305.5,-175.3815 305.5,-153.3815 182.5,-153.3815"/>
<text text-anchor="start" x="202.5" y="-160.4815" font-family="Helvetica,sans-Serif" font-size="11.00" fill="#000000">usu_modificacion</text>
<polygon fill="none" stroke="#000000" points="305.5,-153.3815 305.5,-175.3815 399.5,-175.3815 399.5,-153.3815 305.5,-153.3815"/>
<text text-anchor="start" x="308.5" y="-161.0815" font-family="Helvetica,sans-Serif" font-size="11.00" fill="#000000">varchar[20]</text>
<polygon fill="none" stroke="#000000" points="182.5,-131.3815 182.5,-153.3815 305.5,-153.3815 305.5,-131.3815 182.5,-131.3815"/>
<text text-anchor="start" x="202.5" y="-138.4815" font-family="Helvetica,sans-Serif" font-size="11.00" fill="#000000">codigo</text>
<polygon fill="none" stroke="#000000" points="305.5,-131.3815 305.5,-153.3815 399.5,-153.3815 399.5,-131.3815 305.5,-131.3815"/>
<text text-anchor="start" x="308.4758" y="-139.0815" font-family="Helvetica,sans-Serif" font-size="11.00" fill="#000000">uuid[2147483647]</text>
<polygon fill="none" stroke="#000000" points="182.5,-109.3815 182.5,-131.3815 305.5,-131.3815 305.5,-109.3815 182.5,-109.3815"/>
<text text-anchor="start" x="202.5" y="-116.4815" font-family="Helvetica,sans-Serif" font-size="11.00" fill="#000000">detalles</text>
<polygon fill="none" stroke="#000000" points="305.5,-109.3815 305.5,-131.3815 399.5,-131.3815 399.5,-109.3815 305.5,-109.3815"/>
<text text-anchor="start" x="308.5" y="-117.0815" font-family="Helvetica,sans-Serif" font-size="11.00" fill="#000000">text[2147483647]</text>
<polygon fill="#ffffff" stroke="transparent" points="182.5,-90.3815 182.5,-109.3815 238.5,-109.3815 238.5,-90.3815 182.5,-90.3815"/>
<polygon fill="none" stroke="#000000" points="182.5,-90.3815 182.5,-109.3815 238.5,-109.3815 238.5,-90.3815 182.5,-90.3815"/>
<text text-anchor="start" x="185.5" y="-96.4815" font-family="Helvetica,sans-Serif" font-size="11.00" fill="#000000">&lt; 1</text>
<polygon fill="#ffffff" stroke="transparent" points="238.5,-90.3815 238.5,-109.3815 305.5,-109.3815 305.5,-90.3815 238.5,-90.3815"/>
<polygon fill="none" stroke="#000000" points="238.5,-90.3815 238.5,-109.3815 305.5,-109.3815 305.5,-90.3815 238.5,-90.3815"/>
<text text-anchor="start" x="275.6105" y="-96.4815" font-family="Helvetica,sans-Serif" font-size="11.00" fill="#000000">1 row</text>
<polygon fill="#ffffff" stroke="transparent" points="305.5,-90.3815 305.5,-109.3815 399.5,-109.3815 399.5,-90.3815 305.5,-90.3815"/>
<polygon fill="none" stroke="#000000" points="305.5,-90.3815 305.5,-109.3815 399.5,-109.3815 399.5,-90.3815 305.5,-90.3815"/>
<text text-anchor="start" x="380.9053" y="-96.4815" font-family="Helvetica,sans-Serif" font-size="11.00" fill="#000000">2 &gt;</text>
<polygon fill="none" stroke="#000000" stroke-width="2" points="181,-89.3815 181,-375.3815 400,-375.3815 400,-89.3815 181,-89.3815"/>
</a>
</g>
</g>
<!-- cursos -->
<g id="node2" class="node">
<title>cursos</title>
<g id="a_node2"><a xlink:href="../../tables/cursos.html" xlink:title="cursos" target="_top">
<polygon fill="#ffffff" stroke="transparent" points="8,-269.8815 8,-352.8815 131,-352.8815 131,-269.8815 8,-269.8815"/>
<polygon fill="#f5f5f5" stroke="transparent" points="8.5,-329.3815 8.5,-352.3815 131.5,-352.3815 131.5,-329.3815 8.5,-329.3815"/>
<polygon fill="none" stroke="#000000" points="8.5,-329.3815 8.5,-352.3815 131.5,-352.3815 131.5,-329.3815 8.5,-329.3815"/>
<text text-anchor="start" x="13.5" y="-338.4815" font-family="Helvetica,sans-Serif" font-weight="bold" font-size="11.00" fill="#000000">cursos</text>
<text text-anchor="start" x="96.5437" y="-337.4815" font-family="Helvetica,sans-Serif" font-size="11.00" fill="#000000">[table]</text>
<polygon fill="none" stroke="#000000" points="8.5,-307.3815 8.5,-329.3815 131.5,-329.3815 131.5,-307.3815 8.5,-307.3815"/>
<image xlink:href="../../images/primaryKeys.png" width="11px" height="12px" preserveAspectRatio="xMinYMin meet" x="13.5" y="-324.382"/>
<text text-anchor="start" x="28.5" y="-314.4815" font-family="Helvetica,sans-Serif" font-size="11.00" fill="#000000">curso_id</text>
<polygon fill="none" stroke="#000000" points="8.5,-288.3815 8.5,-307.3815 131.5,-307.3815 131.5,-288.3815 8.5,-288.3815"/>
<text text-anchor="start" x="11.5" y="-294.4815" font-family="Helvetica,sans-Serif" font-size="11.00" fill="#000000">...</text>
<polygon fill="#ffffff" stroke="transparent" points="8.5,-269.3815 8.5,-288.3815 43.5,-288.3815 43.5,-269.3815 8.5,-269.3815"/>
<polygon fill="none" stroke="#000000" points="8.5,-269.3815 8.5,-288.3815 43.5,-288.3815 43.5,-269.3815 8.5,-269.3815"/>
<text text-anchor="start" x="11.5" y="-275.4815" font-family="Helvetica,sans-Serif" font-size="11.00" fill="#000000"> &#160;</text>
<polygon fill="#ffffff" stroke="transparent" points="43.5,-269.3815 43.5,-288.3815 98.5,-288.3815 98.5,-269.3815 43.5,-269.3815"/>
<polygon fill="none" stroke="#000000" points="43.5,-269.3815 43.5,-288.3815 98.5,-288.3815 98.5,-269.3815 43.5,-269.3815"/>
<text text-anchor="start" x="56.9956" y="-275.4815" font-family="Helvetica,sans-Serif" font-size="11.00" fill="#000000">10 rows</text>
<polygon fill="#ffffff" stroke="transparent" points="98.5,-269.3815 98.5,-288.3815 131.5,-288.3815 131.5,-269.3815 98.5,-269.3815"/>
<polygon fill="none" stroke="#000000" points="98.5,-269.3815 98.5,-288.3815 131.5,-288.3815 131.5,-269.3815 98.5,-269.3815"/>
<text text-anchor="start" x="112.9053" y="-275.4815" font-family="Helvetica,sans-Serif" font-size="11.00" fill="#000000">3 &gt;</text>
</a>
</g>
</g>
<!-- curso_ciclos&#45;&gt;cursos -->
<g id="edge1" class="edge">
<title>curso_ciclos:w&#45;&gt;cursos:e</title>
<path fill="none" stroke="#000000" d="M167.776,-318.3815C155.7815,-318.3815 148.3229,-318.3815 131.5,-318.3815"/>
<polygon fill="#000000" stroke="#000000" points="174.5,-318.3816 182.5,-321.9815 178.5,-318.3815 182.5,-318.3815 182.5,-318.3815 182.5,-318.3815 178.5,-318.3815 182.5,-314.7815 174.5,-318.3816 174.5,-318.3816"/>
<ellipse fill="none" stroke="#000000" cx="171.3" cy="-318.3816" rx="3.2" ry="3.2"/>
</g>
<!-- leads -->
<g id="node3" class="node">
<title>leads</title>
<g id="a_node3"><a xlink:href="../../tables/leads.html" xlink:title="leads" target="_top">
<polygon fill="#ffffff" stroke="transparent" points="450,-310.8815 450,-503.8815 573,-503.8815 573,-310.8815 450,-310.8815"/>
<polygon fill="#f5f5f5" stroke="transparent" points="450.5,-480.3815 450.5,-503.3815 573.5,-503.3815 573.5,-480.3815 450.5,-480.3815"/>
<polygon fill="none" stroke="#000000" points="450.5,-480.3815 450.5,-503.3815 573.5,-503.3815 573.5,-480.3815 450.5,-480.3815"/>
<text text-anchor="start" x="455.5" y="-489.4815" font-family="Helvetica,sans-Serif" font-weight="bold" font-size="11.00" fill="#000000">leads</text>
<text text-anchor="start" x="538.5437" y="-488.4815" font-family="Helvetica,sans-Serif" font-size="11.00" fill="#000000">[table]</text>
<polygon fill="none" stroke="#000000" points="450.5,-458.3815 450.5,-480.3815 573.5,-480.3815 573.5,-458.3815 450.5,-458.3815"/>
<image xlink:href="../../images/primaryKeys.png" width="11px" height="12px" preserveAspectRatio="xMinYMin meet" x="455.5" y="-475.382"/>
<text text-anchor="start" x="470.5" y="-465.4815" font-family="Helvetica,sans-Serif" font-size="11.00" fill="#000000">lead_id</text>
<polygon fill="none" stroke="#000000" points="450.5,-436.3815 450.5,-458.3815 573.5,-458.3815 573.5,-436.3815 450.5,-436.3815"/>
<image xlink:href="../../images/foreignKeys.png" width="11px" height="12px" preserveAspectRatio="xMinYMin meet" x="455.5" y="-453.382"/>
<text text-anchor="start" x="470.5" y="-443.4815" font-family="Helvetica,sans-Serif" font-size="11.00" fill="#000000">usu_asignado_id</text>
<polygon fill="none" stroke="#000000" points="450.5,-414.3815 450.5,-436.3815 573.5,-436.3815 573.5,-414.3815 450.5,-414.3815"/>
<image xlink:href="../../images/foreignKeys.png" width="11px" height="12px" preserveAspectRatio="xMinYMin meet" x="455.5" y="-431.382"/>
<text text-anchor="start" x="470.5" y="-421.4815" font-family="Helvetica,sans-Serif" font-size="11.00" fill="#000000">campana_id</text>
<polygon fill="none" stroke="#000000" points="450.5,-392.3815 450.5,-414.3815 573.5,-414.3815 573.5,-392.3815 450.5,-392.3815"/>
<image xlink:href="../../images/foreignKeys.png" width="11px" height="12px" preserveAspectRatio="xMinYMin meet" x="455.5" y="-409.382"/>
<text text-anchor="start" x="470.5" y="-399.4815" font-family="Helvetica,sans-Serif" font-size="11.00" fill="#000000">persona_id</text>
<polygon fill="none" stroke="#000000" points="450.5,-370.3815 450.5,-392.3815 573.5,-392.3815 573.5,-370.3815 450.5,-370.3815"/>
<image xlink:href="../../images/foreignKeys.png" width="11px" height="12px" preserveAspectRatio="xMinYMin meet" x="455.5" y="-387.382"/>
<text text-anchor="start" x="470.5" y="-377.4815" font-family="Helvetica,sans-Serif" font-size="11.00" fill="#000000">curso_id</text>
<polygon fill="none" stroke="#000000" points="450.5,-348.3815 450.5,-370.3815 573.5,-370.3815 573.5,-348.3815 450.5,-348.3815"/>
<image xlink:href="../../images/foreignKeys.png" width="11px" height="12px" preserveAspectRatio="xMinYMin meet" x="455.5" y="-365.382"/>
<text text-anchor="start" x="470.5" y="-355.4815" font-family="Helvetica,sans-Serif" font-size="11.00" fill="#000000">ciclo_id</text>
<polygon fill="none" stroke="#000000" points="450.5,-329.3815 450.5,-348.3815 573.5,-348.3815 573.5,-329.3815 450.5,-329.3815"/>
<text text-anchor="start" x="453.5" y="-335.4815" font-family="Helvetica,sans-Serif" font-size="11.00" fill="#000000">...</text>
<polygon fill="#ffffff" stroke="transparent" points="450.5,-310.3815 450.5,-329.3815 492.5,-329.3815 492.5,-310.3815 450.5,-310.3815"/>
<polygon fill="none" stroke="#000000" points="450.5,-310.3815 450.5,-329.3815 492.5,-329.3815 492.5,-310.3815 450.5,-310.3815"/>
<text text-anchor="start" x="453.5" y="-316.4815" font-family="Helvetica,sans-Serif" font-size="11.00" fill="#000000">&lt; 5</text>
<polygon fill="#ffffff" stroke="transparent" points="492.5,-310.3815 492.5,-329.3815 541.5,-329.3815 541.5,-310.3815 492.5,-310.3815"/>
<polygon fill="none" stroke="#000000" points="492.5,-310.3815 492.5,-329.3815 541.5,-329.3815 541.5,-310.3815 492.5,-310.3815"/>
<text text-anchor="start" x="506.1105" y="-316.4815" font-family="Helvetica,sans-Serif" font-size="11.00" fill="#000000">4 rows</text>
<polygon fill="#ffffff" stroke="transparent" points="541.5,-310.3815 541.5,-329.3815 573.5,-329.3815 573.5,-310.3815 541.5,-310.3815"/>
<polygon fill="none" stroke="#000000" points="541.5,-310.3815 541.5,-329.3815 573.5,-329.3815 573.5,-310.3815 541.5,-310.3815"/>
<text text-anchor="start" x="554.9053" y="-316.4815" font-family="Helvetica,sans-Serif" font-size="11.00" fill="#000000">3 &gt;</text>
</a>
</g>
</g>
<!-- leads&#45;&gt;curso_ciclos -->
<g id="edge2" class="edge">
<title>leads:w&#45;&gt;curso_ciclos:e</title>
<path fill="none" stroke="#000000" d="M436.1076,-356.578C423.7761,-351.2928 417.8304,-340.3815 399.5,-340.3815"/>
<polygon fill="#000000" stroke="#000000" points="442.6476,-357.8519 449.8117,-362.9151 446.5738,-358.6167 450.5,-359.3815 450.5,-359.3815 450.5,-359.3815 446.5738,-358.6167 451.1883,-355.8479 442.6476,-357.8519 442.6476,-357.8519"/>
<ellipse fill="none" stroke="#000000" cx="439.5066" cy="-357.24" rx="3.2" ry="3.2"/>
</g>
<!-- leads&#45;&gt;cursos -->
<g id="edge3" class="edge">
<title>leads:w&#45;&gt;cursos:e</title>
<path fill="none" stroke="#000000" d="M436.0696,-382.5543C427.6563,-384.0276 421.6342,-386.4729 409,-387.3815 303.938,-394.9371 263.4097,-439.7206 172,-387.3815 141.1414,-369.7126 167.059,-318.3815 131.5,-318.3815"/>
<polygon fill="#000000" stroke="#000000" points="442.5263,-382.0296 450.7916,-384.9697 446.5131,-381.7056 450.5,-381.3815 450.5,-381.3815 450.5,-381.3815 446.5131,-381.7056 450.2084,-377.7933 442.5263,-382.0296 442.5263,-382.0296"/>
<ellipse fill="none" stroke="#000000" cx="439.3368" cy="-382.2888" rx="3.2" ry="3.2"/>
</g>
<!-- oportunidades -->
<g id="node4" class="node">
<title>oportunidades</title>
<g id="a_node4"><a xlink:href="../../tables/oportunidades.html" xlink:title="oportunidades" target="_top">
<polygon fill="#ffffff" stroke="transparent" points="450,-43.8815 450,-236.8815 573,-236.8815 573,-43.8815 450,-43.8815"/>
<polygon fill="#f5f5f5" stroke="transparent" points="450.5,-213.3815 450.5,-236.3815 573.5,-236.3815 573.5,-213.3815 450.5,-213.3815"/>
<polygon fill="none" stroke="#000000" points="450.5,-213.3815 450.5,-236.3815 573.5,-236.3815 573.5,-213.3815 450.5,-213.3815"/>
<text text-anchor="start" x="455.5" y="-222.4815" font-family="Helvetica,sans-Serif" font-weight="bold" font-size="11.00" fill="#000000">oportunidades</text>
<text text-anchor="start" x="538.5437" y="-221.4815" font-family="Helvetica,sans-Serif" font-size="11.00" fill="#000000">[table]</text>
<polygon fill="none" stroke="#000000" points="450.5,-191.3815 450.5,-213.3815 573.5,-213.3815 573.5,-191.3815 450.5,-191.3815"/>
<image xlink:href="../../images/primaryKeys.png" width="11px" height="12px" preserveAspectRatio="xMinYMin meet" x="455.5" y="-208.382"/>
<text text-anchor="start" x="470.5" y="-198.4815" font-family="Helvetica,sans-Serif" font-size="11.00" fill="#000000">oportunidad_id</text>
<polygon fill="none" stroke="#000000" points="450.5,-169.3815 450.5,-191.3815 573.5,-191.3815 573.5,-169.3815 450.5,-169.3815"/>
<image xlink:href="../../images/foreignKeys.png" width="11px" height="12px" preserveAspectRatio="xMinYMin meet" x="455.5" y="-186.382"/>
<text text-anchor="start" x="470.5" y="-176.4815" font-family="Helvetica,sans-Serif" font-size="11.00" fill="#000000">campana_id</text>
<polygon fill="none" stroke="#000000" points="450.5,-147.3815 450.5,-169.3815 573.5,-169.3815 573.5,-147.3815 450.5,-147.3815"/>
<image xlink:href="../../images/foreignKeys.png" width="11px" height="12px" preserveAspectRatio="xMinYMin meet" x="455.5" y="-164.382"/>
<text text-anchor="start" x="470.5" y="-154.4815" font-family="Helvetica,sans-Serif" font-size="11.00" fill="#000000">contacto_id</text>
<polygon fill="none" stroke="#000000" points="450.5,-125.3815 450.5,-147.3815 573.5,-147.3815 573.5,-125.3815 450.5,-125.3815"/>
<image xlink:href="../../images/foreignKeys.png" width="11px" height="12px" preserveAspectRatio="xMinYMin meet" x="455.5" y="-142.382"/>
<text text-anchor="start" x="470.5" y="-132.4815" font-family="Helvetica,sans-Serif" font-size="11.00" fill="#000000">curso_id</text>
<polygon fill="none" stroke="#000000" points="450.5,-103.3815 450.5,-125.3815 573.5,-125.3815 573.5,-103.3815 450.5,-103.3815"/>
<image xlink:href="../../images/foreignKeys.png" width="11px" height="12px" preserveAspectRatio="xMinYMin meet" x="455.5" y="-120.382"/>
<text text-anchor="start" x="470.5" y="-110.4815" font-family="Helvetica,sans-Serif" font-size="11.00" fill="#000000">usu_asignado_id</text>
<polygon fill="none" stroke="#000000" points="450.5,-81.3815 450.5,-103.3815 573.5,-103.3815 573.5,-81.3815 450.5,-81.3815"/>
<image xlink:href="../../images/foreignKeys.png" width="11px" height="12px" preserveAspectRatio="xMinYMin meet" x="455.5" y="-98.3815"/>
<text text-anchor="start" x="470.5" y="-88.4815" font-family="Helvetica,sans-Serif" font-size="11.00" fill="#000000">ciclo_id</text>
<polygon fill="none" stroke="#000000" points="450.5,-62.3815 450.5,-81.3815 573.5,-81.3815 573.5,-62.3815 450.5,-62.3815"/>
<text text-anchor="start" x="453.5" y="-68.4815" font-family="Helvetica,sans-Serif" font-size="11.00" fill="#000000">...</text>
<polygon fill="#ffffff" stroke="transparent" points="450.5,-43.3815 450.5,-62.3815 489.5,-62.3815 489.5,-43.3815 450.5,-43.3815"/>
<polygon fill="none" stroke="#000000" points="450.5,-43.3815 450.5,-62.3815 489.5,-62.3815 489.5,-43.3815 450.5,-43.3815"/>
<text text-anchor="start" x="453.5" y="-49.4815" font-family="Helvetica,sans-Serif" font-size="11.00" fill="#000000">&lt; 5</text>
<polygon fill="#ffffff" stroke="transparent" points="489.5,-43.3815 489.5,-62.3815 542.5,-62.3815 542.5,-43.3815 489.5,-43.3815"/>
<polygon fill="none" stroke="#000000" points="489.5,-43.3815 489.5,-62.3815 542.5,-62.3815 542.5,-43.3815 489.5,-43.3815"/>
<text text-anchor="start" x="500.9956" y="-49.4815" font-family="Helvetica,sans-Serif" font-size="11.00" fill="#000000">14 rows</text>
<polygon fill="#ffffff" stroke="transparent" points="542.5,-43.3815 542.5,-62.3815 573.5,-62.3815 573.5,-43.3815 542.5,-43.3815"/>
<polygon fill="none" stroke="#000000" points="542.5,-43.3815 542.5,-62.3815 573.5,-62.3815 573.5,-43.3815 542.5,-43.3815"/>
<text text-anchor="start" x="554.9053" y="-49.4815" font-family="Helvetica,sans-Serif" font-size="11.00" fill="#000000">1 &gt;</text>
</a>
</g>
</g>
<!-- oportunidades&#45;&gt;curso_ciclos -->
<g id="edge4" class="edge">
<title>oportunidades:w&#45;&gt;curso_ciclos:e</title>
<path fill="none" stroke="#000000" d="M435.9994,-94.0976C354.2858,-116.009 506.5342,-340.3815 399.5,-340.3815"/>
<polygon fill="#000000" stroke="#000000" points="442.5554,-93.3218 450.9231,-95.9566 446.5277,-92.8516 450.5,-92.3815 450.5,-92.3815 450.5,-92.3815 446.5277,-92.8516 450.0769,-88.8065 442.5554,-93.3218 442.5554,-93.3218"/>
<ellipse fill="none" stroke="#000000" cx="439.3776" cy="-93.6979" rx="3.2" ry="3.2"/>
</g>
<!-- oportunidades&#45;&gt;cursos -->
<g id="edge5" class="edge">
<title>oportunidades:w&#45;&gt;cursos:e</title>
<path fill="none" stroke="#000000" d="M436.5739,-131.604C424.351,-119.9037 431.4637,-89.9302 409,-78.3815 315.3214,-30.2211 252.4404,-10.3782 172,-78.3815 130.6948,-113.3004 185.5874,-318.3815 131.5,-318.3815"/>
<polygon fill="#000000" stroke="#000000" points="442.9329,-133.7855 449.3318,-139.7867 446.7165,-135.0835 450.5,-136.3815 450.5,-136.3815 450.5,-136.3815 446.7165,-135.0835 451.6682,-132.9763 442.9329,-133.7855 442.9329,-133.7855"/>
<ellipse fill="none" stroke="#000000" cx="439.9061" cy="-132.7471" rx="3.2" ry="3.2"/>
</g>
</g>
</svg>
