<?xml version="1.0" encoding="UTF-8" standalone="no"?>
<!DOCTYPE svg PUBLIC "-//W3C//DTD SVG 1.1//EN"
 "http://www.w3.org/Graphics/SVG/1.1/DTD/svg11.dtd">
<!-- Generated by graphviz version 2.40.1 (20161225.0304)
 -->
<!-- Title: oneDegreeRelationshipsDiagram Pages: 1 -->
<svg width="764pt" height="343pt"
 viewBox="0.00 0.00 764.00 342.64" xmlns="http://www.w3.org/2000/svg" xmlns:xlink="http://www.w3.org/1999/xlink">
<g id="graph0" class="graph" transform="scale(1 1) rotate(0) translate(4 338.638)">
<title>oneDegreeRelationshipsDiagram</title>
<polygon fill="#ffffff" stroke="transparent" points="-4,4 -4,-338.638 760,-338.638 760,4 -4,4"/>
<text text-anchor="middle" x="72.4936" y="-7.3" font-family="Helvetica,sans-Serif" font-size="11.00" fill="#000000">Generated by SchemaSpy</text>
<!-- ciclo_aulas -->
<g id="node1" class="node">
<title>ciclo_aulas</title>
<g id="a_node1"><a xlink:href="../../tables/ciclo_aulas.html" xlink:title="ciclo_aulas" target="_top">
<polygon fill="#ffffff" stroke="transparent" points="453,-97.638 453,-246.638 576,-246.638 576,-97.638 453,-97.638"/>
<polygon fill="#f5f5f5" stroke="transparent" points="453.5,-223.138 453.5,-246.138 576.5,-246.138 576.5,-223.138 453.5,-223.138"/>
<polygon fill="none" stroke="#000000" points="453.5,-223.138 453.5,-246.138 576.5,-246.138 576.5,-223.138 453.5,-223.138"/>
<text text-anchor="start" x="458.5" y="-232.238" font-family="Helvetica,sans-Serif" font-weight="bold" font-size="11.00" fill="#000000">ciclo_aulas</text>
<text text-anchor="start" x="541.5437" y="-231.238" font-family="Helvetica,sans-Serif" font-size="11.00" fill="#000000">[table]</text>
<polygon fill="none" stroke="#000000" points="453.5,-201.138 453.5,-223.138 576.5,-223.138 576.5,-201.138 453.5,-201.138"/>
<image xlink:href="../../images/primaryKeys.png" width="11px" height="12px" preserveAspectRatio="xMinYMin meet" x="458.5" y="-218.138"/>
<text text-anchor="start" x="473.5" y="-208.238" font-family="Helvetica,sans-Serif" font-size="11.00" fill="#000000">aula_id</text>
<polygon fill="none" stroke="#000000" points="453.5,-179.138 453.5,-201.138 576.5,-201.138 576.5,-179.138 453.5,-179.138"/>
<image xlink:href="../../images/foreignKeys.png" width="11px" height="12px" preserveAspectRatio="xMinYMin meet" x="458.5" y="-196.138"/>
<text text-anchor="start" x="473.5" y="-186.238" font-family="Helvetica,sans-Serif" font-size="11.00" fill="#000000">sede_id</text>
<polygon fill="none" stroke="#000000" points="453.5,-157.138 453.5,-179.138 576.5,-179.138 576.5,-157.138 453.5,-157.138"/>
<image xlink:href="../../images/foreignKeys.png" width="11px" height="12px" preserveAspectRatio="xMinYMin meet" x="458.5" y="-174.138"/>
<text text-anchor="start" x="473.5" y="-164.238" font-family="Helvetica,sans-Serif" font-size="11.00" fill="#000000">ciclo_id</text>
<polygon fill="none" stroke="#000000" points="453.5,-135.138 453.5,-157.138 576.5,-157.138 576.5,-135.138 453.5,-135.138"/>
<image xlink:href="../../images/foreignKeys.png" width="11px" height="12px" preserveAspectRatio="xMinYMin meet" x="458.5" y="-152.138"/>
<text text-anchor="start" x="473.5" y="-142.238" font-family="Helvetica,sans-Serif" font-size="11.00" fill="#000000">curso_id</text>
<polygon fill="none" stroke="#000000" points="453.5,-116.138 453.5,-135.138 576.5,-135.138 576.5,-116.138 453.5,-116.138"/>
<text text-anchor="start" x="456.5" y="-122.238" font-family="Helvetica,sans-Serif" font-size="11.00" fill="#000000">...</text>
<polygon fill="#ffffff" stroke="transparent" points="453.5,-97.138 453.5,-116.138 495.5,-116.138 495.5,-97.138 453.5,-97.138"/>
<polygon fill="none" stroke="#000000" points="453.5,-97.138 453.5,-116.138 495.5,-116.138 495.5,-97.138 453.5,-97.138"/>
<text text-anchor="start" x="456.5" y="-103.238" font-family="Helvetica,sans-Serif" font-size="11.00" fill="#000000">&lt; 3</text>
<polygon fill="#ffffff" stroke="transparent" points="495.5,-97.138 495.5,-116.138 544.5,-116.138 544.5,-97.138 495.5,-97.138"/>
<polygon fill="none" stroke="#000000" points="495.5,-97.138 495.5,-116.138 544.5,-116.138 544.5,-97.138 495.5,-97.138"/>
<text text-anchor="start" x="509.1105" y="-103.238" font-family="Helvetica,sans-Serif" font-size="11.00" fill="#000000">0 rows</text>
<polygon fill="#ffffff" stroke="transparent" points="544.5,-97.138 544.5,-116.138 576.5,-116.138 576.5,-97.138 544.5,-97.138"/>
<polygon fill="none" stroke="#000000" points="544.5,-97.138 544.5,-116.138 576.5,-116.138 576.5,-97.138 544.5,-97.138"/>
<text text-anchor="start" x="557.9053" y="-103.238" font-family="Helvetica,sans-Serif" font-size="11.00" fill="#000000">1 &gt;</text>
</a>
</g>
</g>
<!-- curso_ciclos -->
<g id="node2" class="node">
<title>curso_ciclos</title>
<g id="a_node2"><a xlink:href="../../tables/curso_ciclos.html" xlink:title="curso_ciclos" target="_top">
<polygon fill="#ffffff" stroke="transparent" points="180,-85.138 180,-307.138 404,-307.138 404,-85.138 180,-85.138"/>
<polygon fill="#f5f5f5" stroke="transparent" points="182,-282.138 182,-305.138 402,-305.138 402,-282.138 182,-282.138"/>
<polygon fill="none" stroke="#000000" points="182,-282.138 182,-305.138 402,-305.138 402,-282.138 182,-282.138"/>
<text text-anchor="start" x="187" y="-291.238" font-family="Helvetica,sans-Serif" font-weight="bold" font-size="11.00" fill="#000000">curso_ciclos</text>
<text text-anchor="start" x="367.0437" y="-290.238" font-family="Helvetica,sans-Serif" font-size="11.00" fill="#000000">[table]</text>
<polygon fill="none" stroke="#000000" points="182,-260.138 182,-282.138 305,-282.138 305,-260.138 182,-260.138"/>
<image xlink:href="../../images/primaryKeys.png" width="11px" height="12px" preserveAspectRatio="xMinYMin meet" x="187" y="-277.138"/>
<text text-anchor="start" x="202" y="-267.238" font-family="Helvetica,sans-Serif" font-size="11.00" fill="#000000">ciclo_id</text>
<polygon fill="none" stroke="#000000" points="305,-260.138 305,-282.138 402,-282.138 402,-260.138 305,-260.138"/>
<text text-anchor="start" x="308" y="-267.838" font-family="Helvetica,sans-Serif" font-size="11.00" fill="#000000">serial[10]</text>
<polygon fill="none" stroke="#000000" points="182,-238.138 182,-260.138 305,-260.138 305,-238.138 182,-238.138"/>
<image xlink:href="../../images/foreignKeys.png" width="11px" height="12px" preserveAspectRatio="xMinYMin meet" x="187" y="-255.138"/>
<text text-anchor="start" x="202" y="-245.238" font-family="Helvetica,sans-Serif" font-size="11.00" fill="#000000">curso_id</text>
<polygon fill="none" stroke="#000000" points="305,-238.138 305,-260.138 402,-260.138 402,-238.138 305,-238.138"/>
<text text-anchor="start" x="308" y="-245.838" font-family="Helvetica,sans-Serif" font-size="11.00" fill="#000000">int4[10]</text>
<polygon fill="none" stroke="#000000" points="182,-216.138 182,-238.138 305,-238.138 305,-216.138 182,-216.138"/>
<text text-anchor="start" x="202" y="-223.238" font-family="Helvetica,sans-Serif" font-size="11.00" fill="#000000">nivel</text>
<polygon fill="none" stroke="#000000" points="305,-216.138 305,-238.138 402,-238.138 402,-216.138 305,-216.138"/>
<text text-anchor="start" x="308" y="-223.838" font-family="Helvetica,sans-Serif" font-size="11.00" fill="#000000">varchar[50]</text>
<polygon fill="none" stroke="#000000" points="182,-194.138 182,-216.138 305,-216.138 305,-194.138 182,-194.138"/>
<text text-anchor="start" x="202" y="-201.238" font-family="Helvetica,sans-Serif" font-size="11.00" fill="#000000">fec_inicio</text>
<polygon fill="none" stroke="#000000" points="305,-194.138 305,-216.138 402,-216.138 402,-194.138 305,-194.138"/>
<text text-anchor="start" x="308" y="-201.838" font-family="Helvetica,sans-Serif" font-size="11.00" fill="#000000">timestamptz[35,6]</text>
<polygon fill="none" stroke="#000000" points="182,-172.138 182,-194.138 305,-194.138 305,-172.138 182,-172.138"/>
<text text-anchor="start" x="202" y="-179.238" font-family="Helvetica,sans-Serif" font-size="11.00" fill="#000000">fec_fin</text>
<polygon fill="none" stroke="#000000" points="305,-172.138 305,-194.138 402,-194.138 402,-172.138 305,-172.138"/>
<text text-anchor="start" x="308" y="-179.838" font-family="Helvetica,sans-Serif" font-size="11.00" fill="#000000">timestamptz[35,6]</text>
<polygon fill="none" stroke="#000000" points="182,-150.138 182,-172.138 305,-172.138 305,-150.138 182,-150.138"/>
<text text-anchor="start" x="202" y="-157.238" font-family="Helvetica,sans-Serif" font-size="11.00" fill="#000000">meses</text>
<polygon fill="none" stroke="#000000" points="305,-150.138 305,-172.138 402,-172.138 402,-150.138 305,-150.138"/>
<text text-anchor="start" x="307.9468" y="-157.838" font-family="Helvetica,sans-Serif" font-size="11.00" fill="#000000">_text[2147483647]</text>
<polygon fill="none" stroke="#000000" points="182,-128.138 182,-150.138 305,-150.138 305,-128.138 182,-128.138"/>
<text text-anchor="start" x="202" y="-135.238" font-family="Helvetica,sans-Serif" font-size="11.00" fill="#000000">fec_modificacion</text>
<polygon fill="none" stroke="#000000" points="305,-128.138 305,-150.138 402,-150.138 402,-128.138 305,-128.138"/>
<text text-anchor="start" x="308" y="-135.838" font-family="Helvetica,sans-Serif" font-size="11.00" fill="#000000">timestamptz[35,6]</text>
<polygon fill="none" stroke="#000000" points="182,-106.138 182,-128.138 305,-128.138 305,-106.138 182,-106.138"/>
<text text-anchor="start" x="202" y="-113.238" font-family="Helvetica,sans-Serif" font-size="11.00" fill="#000000">usu_modificacion</text>
<polygon fill="none" stroke="#000000" points="305,-106.138 305,-128.138 402,-128.138 402,-106.138 305,-106.138"/>
<text text-anchor="start" x="308" y="-113.838" font-family="Helvetica,sans-Serif" font-size="11.00" fill="#000000">varchar[20]</text>
<polygon fill="#ffffff" stroke="transparent" points="182,-87.138 182,-106.138 235,-106.138 235,-87.138 182,-87.138"/>
<polygon fill="none" stroke="#000000" points="182,-87.138 182,-106.138 235,-106.138 235,-87.138 182,-87.138"/>
<text text-anchor="start" x="185" y="-93.238" font-family="Helvetica,sans-Serif" font-size="11.00" fill="#000000">&lt; 1</text>
<polygon fill="#ffffff" stroke="transparent" points="235,-87.138 235,-106.138 305,-106.138 305,-87.138 235,-87.138"/>
<polygon fill="none" stroke="#000000" points="235,-87.138 235,-106.138 305,-106.138 305,-87.138 235,-87.138"/>
<text text-anchor="start" x="269.6105" y="-93.238" font-family="Helvetica,sans-Serif" font-size="11.00" fill="#000000">0 rows</text>
<polygon fill="#ffffff" stroke="transparent" points="305,-87.138 305,-106.138 402,-106.138 402,-87.138 305,-87.138"/>
<polygon fill="none" stroke="#000000" points="305,-87.138 305,-106.138 402,-106.138 402,-87.138 305,-87.138"/>
<text text-anchor="start" x="383.4053" y="-93.238" font-family="Helvetica,sans-Serif" font-size="11.00" fill="#000000">2 &gt;</text>
<polygon fill="none" stroke="#000000" stroke-width="2" points="181,-86.138 181,-306.138 403,-306.138 403,-86.138 181,-86.138"/>
</a>
</g>
</g>
<!-- ciclo_aulas&#45;&gt;curso_ciclos -->
<g id="edge1" class="edge">
<title>ciclo_aulas:w&#45;&gt;curso_ciclos:e</title>
<path fill="none" stroke="#000000" d="M439.3823,-172.0499C412.8384,-190.8641 447.1833,-271.138 402,-271.138"/>
<polygon fill="#000000" stroke="#000000" points="445.7905,-170.2743 454.4613,-171.6073 449.6452,-169.2061 453.5,-168.138 453.5,-168.138 453.5,-168.138 449.6452,-169.2061 452.5387,-164.6687 445.7905,-170.2743 445.7905,-170.2743"/>
<ellipse fill="none" stroke="#000000" cx="442.7067" cy="-171.1288" rx="3.2" ry="3.2"/>
</g>
<!-- cursos -->
<g id="node3" class="node">
<title>cursos</title>
<g id="a_node3"><a xlink:href="../../tables/cursos.html" xlink:title="cursos" target="_top">
<polygon fill="#ffffff" stroke="transparent" points="8,-106.638 8,-189.638 131,-189.638 131,-106.638 8,-106.638"/>
<polygon fill="#f5f5f5" stroke="transparent" points="8.5,-166.138 8.5,-189.138 131.5,-189.138 131.5,-166.138 8.5,-166.138"/>
<polygon fill="none" stroke="#000000" points="8.5,-166.138 8.5,-189.138 131.5,-189.138 131.5,-166.138 8.5,-166.138"/>
<text text-anchor="start" x="13.5" y="-175.238" font-family="Helvetica,sans-Serif" font-weight="bold" font-size="11.00" fill="#000000">cursos</text>
<text text-anchor="start" x="96.5437" y="-174.238" font-family="Helvetica,sans-Serif" font-size="11.00" fill="#000000">[table]</text>
<polygon fill="none" stroke="#000000" points="8.5,-144.138 8.5,-166.138 131.5,-166.138 131.5,-144.138 8.5,-144.138"/>
<image xlink:href="../../images/primaryKeys.png" width="11px" height="12px" preserveAspectRatio="xMinYMin meet" x="13.5" y="-161.138"/>
<text text-anchor="start" x="28.5" y="-151.238" font-family="Helvetica,sans-Serif" font-size="11.00" fill="#000000">curso_id</text>
<polygon fill="none" stroke="#000000" points="8.5,-125.138 8.5,-144.138 131.5,-144.138 131.5,-125.138 8.5,-125.138"/>
<text text-anchor="start" x="11.5" y="-131.238" font-family="Helvetica,sans-Serif" font-size="11.00" fill="#000000">...</text>
<polygon fill="#ffffff" stroke="transparent" points="8.5,-106.138 8.5,-125.138 49.5,-125.138 49.5,-106.138 8.5,-106.138"/>
<polygon fill="none" stroke="#000000" points="8.5,-106.138 8.5,-125.138 49.5,-125.138 49.5,-106.138 8.5,-106.138"/>
<text text-anchor="start" x="11.5" y="-112.238" font-family="Helvetica,sans-Serif" font-size="11.00" fill="#000000"> &#160;</text>
<polygon fill="#ffffff" stroke="transparent" points="49.5,-106.138 49.5,-125.138 95.5,-125.138 95.5,-106.138 49.5,-106.138"/>
<polygon fill="none" stroke="#000000" points="49.5,-106.138 49.5,-125.138 95.5,-125.138 95.5,-106.138 49.5,-106.138"/>
<text text-anchor="start" x="65.6105" y="-112.238" font-family="Helvetica,sans-Serif" font-size="11.00" fill="#000000">1 row</text>
<polygon fill="#ffffff" stroke="transparent" points="95.5,-106.138 95.5,-125.138 131.5,-125.138 131.5,-106.138 95.5,-106.138"/>
<polygon fill="none" stroke="#000000" points="95.5,-106.138 95.5,-125.138 131.5,-125.138 131.5,-106.138 95.5,-106.138"/>
<text text-anchor="start" x="112.9053" y="-112.238" font-family="Helvetica,sans-Serif" font-size="11.00" fill="#000000">4 &gt;</text>
</a>
</g>
</g>
<!-- ciclo_aulas&#45;&gt;cursos -->
<g id="edge2" class="edge">
<title>ciclo_aulas:w&#45;&gt;cursos:e</title>
<path fill="none" stroke="#000000" d="M439.6455,-141.9018C424.4189,-129.0074 438.2537,-90.2021 412,-75.138 319.4816,-22.052 262.8756,-19.2865 172,-75.138 138.0476,-96.0049 171.3522,-155.138 131.5,-155.138"/>
<polygon fill="#000000" stroke="#000000" points="445.8496,-143.7987 452.4473,-149.5807 449.6748,-144.9684 453.5,-146.138 453.5,-146.138 453.5,-146.138 449.6748,-144.9684 454.5527,-142.6953 445.8496,-143.7987 445.8496,-143.7987"/>
<ellipse fill="none" stroke="#000000" cx="442.7895" cy="-142.863" rx="3.2" ry="3.2"/>
</g>
<!-- curso_ciclos&#45;&gt;cursos -->
<g id="edge5" class="edge">
<title>curso_ciclos:w&#45;&gt;cursos:e</title>
<path fill="none" stroke="#000000" d="M168.1591,-245.0989C144.2285,-227.1067 172.9969,-155.138 131.5,-155.138"/>
<polygon fill="#000000" stroke="#000000" points="174.3203,-246.8969 180.9915,-252.5939 178.1602,-248.0174 182,-249.138 182,-249.138 182,-249.138 178.1602,-248.0174 183.0085,-245.6821 174.3203,-246.8969 174.3203,-246.8969"/>
<ellipse fill="none" stroke="#000000" cx="171.2484" cy="-246.0004" rx="3.2" ry="3.2"/>
</g>
<!-- ciclo_profesores -->
<g id="node4" class="node">
<title>ciclo_profesores</title>
<g id="a_node4"><a xlink:href="../../tables/ciclo_profesores.html" xlink:title="ciclo_profesores" target="_top">
<polygon fill="#ffffff" stroke="transparent" points="625,-181.638 625,-330.638 748,-330.638 748,-181.638 625,-181.638"/>
<polygon fill="#f5f5f5" stroke="transparent" points="625.5,-307.138 625.5,-330.138 748.5,-330.138 748.5,-307.138 625.5,-307.138"/>
<polygon fill="none" stroke="#000000" points="625.5,-307.138 625.5,-330.138 748.5,-330.138 748.5,-307.138 625.5,-307.138"/>
<text text-anchor="start" x="630.4666" y="-316.238" font-family="Helvetica,sans-Serif" font-weight="bold" font-size="11.00" fill="#000000">ciclo_profesores</text>
<text text-anchor="start" x="714.0219" y="-315.238" font-family="Helvetica,sans-Serif" font-size="11.00" fill="#000000">[table]</text>
<polygon fill="none" stroke="#000000" points="625.5,-285.138 625.5,-307.138 748.5,-307.138 748.5,-285.138 625.5,-285.138"/>
<image xlink:href="../../images/primaryKeys.png" width="11px" height="12px" preserveAspectRatio="xMinYMin meet" x="630.5" y="-302.138"/>
<text text-anchor="start" x="645.5" y="-292.238" font-family="Helvetica,sans-Serif" font-size="11.00" fill="#000000">ciclo_profesor_id</text>
<polygon fill="none" stroke="#000000" points="625.5,-263.138 625.5,-285.138 748.5,-285.138 748.5,-263.138 625.5,-263.138"/>
<image xlink:href="../../images/foreignKeys.png" width="11px" height="12px" preserveAspectRatio="xMinYMin meet" x="630.5" y="-280.138"/>
<text text-anchor="start" x="645.5" y="-270.238" font-family="Helvetica,sans-Serif" font-size="11.00" fill="#000000">profesor_id</text>
<polygon fill="none" stroke="#000000" points="625.5,-241.138 625.5,-263.138 748.5,-263.138 748.5,-241.138 625.5,-241.138"/>
<image xlink:href="../../images/foreignKeys.png" width="11px" height="12px" preserveAspectRatio="xMinYMin meet" x="630.5" y="-258.138"/>
<text text-anchor="start" x="645.5" y="-248.238" font-family="Helvetica,sans-Serif" font-size="11.00" fill="#000000">ciclo_id</text>
<polygon fill="none" stroke="#000000" points="625.5,-219.138 625.5,-241.138 748.5,-241.138 748.5,-219.138 625.5,-219.138"/>
<image xlink:href="../../images/foreignKeys.png" width="11px" height="12px" preserveAspectRatio="xMinYMin meet" x="630.5" y="-236.138"/>
<text text-anchor="start" x="645.5" y="-226.238" font-family="Helvetica,sans-Serif" font-size="11.00" fill="#000000">aula_id</text>
<polygon fill="none" stroke="#000000" points="625.5,-200.138 625.5,-219.138 748.5,-219.138 748.5,-200.138 625.5,-200.138"/>
<text text-anchor="start" x="628.5" y="-206.238" font-family="Helvetica,sans-Serif" font-size="11.00" fill="#000000">...</text>
<polygon fill="#ffffff" stroke="transparent" points="625.5,-181.138 625.5,-200.138 672.5,-200.138 672.5,-181.138 625.5,-181.138"/>
<polygon fill="none" stroke="#000000" points="625.5,-181.138 625.5,-200.138 672.5,-200.138 672.5,-181.138 625.5,-181.138"/>
<text text-anchor="start" x="628.5" y="-187.238" font-family="Helvetica,sans-Serif" font-size="11.00" fill="#000000">&lt; 3</text>
<polygon fill="#ffffff" stroke="transparent" points="672.5,-181.138 672.5,-200.138 723.5,-200.138 723.5,-181.138 672.5,-181.138"/>
<polygon fill="none" stroke="#000000" points="672.5,-181.138 672.5,-200.138 723.5,-200.138 723.5,-181.138 672.5,-181.138"/>
<text text-anchor="start" x="688.1105" y="-187.238" font-family="Helvetica,sans-Serif" font-size="11.00" fill="#000000">0 rows</text>
<polygon fill="#ffffff" stroke="transparent" points="723.5,-181.138 723.5,-200.138 748.5,-200.138 748.5,-181.138 723.5,-181.138"/>
<polygon fill="none" stroke="#000000" points="723.5,-181.138 723.5,-200.138 748.5,-200.138 748.5,-181.138 723.5,-181.138"/>
<text text-anchor="start" x="739.3862" y="-187.238" font-family="Helvetica,sans-Serif" font-size="11.00" fill="#000000"> &#160;</text>
</a>
</g>
</g>
<!-- ciclo_profesores&#45;&gt;ciclo_aulas -->
<g id="edge3" class="edge">
<title>ciclo_profesores:w&#45;&gt;ciclo_aulas:e</title>
<path fill="none" stroke="#000000" d="M611.3186,-227.3255C599.7124,-222.263 593.9005,-212.138 576.5,-212.138"/>
<polygon fill="#000000" stroke="#000000" points="617.6528,-228.5817 624.7997,-233.6692 621.5764,-229.3598 625.5,-230.138 625.5,-230.138 625.5,-230.138 621.5764,-229.3598 626.2003,-226.6068 617.6528,-228.5817 617.6528,-228.5817"/>
<ellipse fill="none" stroke="#000000" cx="614.514" cy="-227.9592" rx="3.2" ry="3.2"/>
</g>
<!-- ciclo_profesores&#45;&gt;curso_ciclos -->
<g id="edge4" class="edge">
<title>ciclo_profesores:w&#45;&gt;curso_ciclos:e</title>
<path fill="none" stroke="#000000" d="M611.0746,-252.9668C602.6396,-254.0339 596.5661,-255.8983 584,-257.138 503.2641,-265.1031 483.1279,-271.138 402,-271.138"/>
<polygon fill="#000000" stroke="#000000" points="617.5132,-252.5969 625.7065,-255.7321 621.5066,-252.3675 625.5,-252.138 625.5,-252.138 625.5,-252.138 621.5066,-252.3675 625.2935,-248.5439 617.5132,-252.5969 617.5132,-252.5969"/>
<ellipse fill="none" stroke="#000000" cx="614.3184" cy="-252.7805" rx="3.2" ry="3.2"/>
</g>
</g>
</svg>
