<?xml version="1.0" encoding="UTF-8" standalone="no"?>
<!DOCTYPE svg PUBLIC "-//W3C//DTD SVG 1.1//EN"
 "http://www.w3.org/Graphics/SVG/1.1/DTD/svg11.dtd">
<!-- Generated by graphviz version 2.40.1 (20161225.0304)
 -->
<!-- Title: twoDegreesRelationshipsDiagram Pages: 1 -->
<svg width="648pt" height="799pt"
 viewBox="0.00 0.00 648.00 798.70" xmlns="http://www.w3.org/2000/svg" xmlns:xlink="http://www.w3.org/1999/xlink">
<g id="graph0" class="graph" transform="scale(1 1) rotate(0) translate(4 794.7)">
<title>twoDegreesRelationshipsDiagram</title>
<polygon fill="#ffffff" stroke="transparent" points="-4,4 -4,-794.7 644,-794.7 644,4 -4,4"/>
<text text-anchor="middle" x="72.4936" y="-7.3" font-family="Helvetica,sans-Serif" font-size="11.00" fill="#000000">Generated by SchemaSpy</text>
<!-- contactos -->
<g id="node1" class="node">
<title>contactos</title>
<g id="a_node1"><a xlink:href="../../tables/contactos.html" xlink:title="contactos" target="_top">
<polygon fill="#ffffff" stroke="transparent" points="542,-617.7 542,-678.7 632,-678.7 632,-617.7 542,-617.7"/>
<polygon fill="#f5f5f5" stroke="transparent" points="542,-655.2 542,-678.2 632,-678.2 632,-655.2 542,-655.2"/>
<polygon fill="none" stroke="#000000" points="542,-655.2 542,-678.2 632,-678.2 632,-655.2 542,-655.2"/>
<text text-anchor="start" x="546.9633" y="-664.3" font-family="Helvetica,sans-Serif" font-weight="bold" font-size="11.00" fill="#000000">contactos</text>
<text text-anchor="start" x="597.5219" y="-663.3" font-family="Helvetica,sans-Serif" font-size="11.00" fill="#000000">[table]</text>
<polygon fill="none" stroke="#000000" points="542,-636.2 542,-655.2 632,-655.2 632,-636.2 542,-636.2"/>
<text text-anchor="start" x="545" y="-642.3" font-family="Helvetica,sans-Serif" font-size="11.00" fill="#000000">...</text>
<polygon fill="#ffffff" stroke="transparent" points="542,-617.2 542,-636.2 568,-636.2 568,-617.2 542,-617.2"/>
<polygon fill="none" stroke="#000000" points="542,-617.2 542,-636.2 568,-636.2 568,-617.2 542,-617.2"/>
<text text-anchor="start" x="545" y="-623.3" font-family="Helvetica,sans-Serif" font-size="11.00" fill="#000000">&lt; 2</text>
<polygon fill="#ffffff" stroke="transparent" points="568,-617.2 568,-636.2 608,-636.2 608,-617.2 568,-617.2"/>
<polygon fill="none" stroke="#000000" points="568,-617.2 568,-636.2 608,-636.2 608,-617.2 568,-617.2"/>
<text text-anchor="start" x="572.6105" y="-623.3" font-family="Helvetica,sans-Serif" font-size="11.00" fill="#000000">0 rows</text>
<polygon fill="#ffffff" stroke="transparent" points="608,-617.2 608,-636.2 632,-636.2 632,-617.2 608,-617.2"/>
<polygon fill="none" stroke="#000000" points="608,-617.2 608,-636.2 632,-636.2 632,-617.2 608,-617.2"/>
<text text-anchor="start" x="613.4053" y="-623.3" font-family="Helvetica,sans-Serif" font-size="11.00" fill="#000000">5 &gt;</text>
</a>
</g>
</g>
<!-- organizaciones -->
<g id="node2" class="node">
<title>organizaciones</title>
<g id="a_node2"><a xlink:href="../../tables/organizaciones.html" xlink:title="organizaciones" target="_top">
<polygon fill="#ffffff" stroke="transparent" points="278.5,-643.7 278.5,-704.7 394.5,-704.7 394.5,-643.7 278.5,-643.7"/>
<polygon fill="#f5f5f5" stroke="transparent" points="278.5,-681.2 278.5,-704.2 394.5,-704.2 394.5,-681.2 278.5,-681.2"/>
<polygon fill="none" stroke="#000000" points="278.5,-681.2 278.5,-704.2 394.5,-704.2 394.5,-681.2 278.5,-681.2"/>
<text text-anchor="start" x="283.0186" y="-690.3" font-family="Helvetica,sans-Serif" font-weight="bold" font-size="11.00" fill="#000000">organizaciones</text>
<text text-anchor="start" x="360.0219" y="-689.3" font-family="Helvetica,sans-Serif" font-size="11.00" fill="#000000">[table]</text>
<polygon fill="none" stroke="#000000" points="278.5,-662.2 278.5,-681.2 394.5,-681.2 394.5,-662.2 278.5,-662.2"/>
<text text-anchor="start" x="281.5" y="-668.3" font-family="Helvetica,sans-Serif" font-size="11.00" fill="#000000">...</text>
<polygon fill="#ffffff" stroke="transparent" points="278.5,-643.2 278.5,-662.2 317.5,-662.2 317.5,-643.2 278.5,-643.2"/>
<polygon fill="none" stroke="#000000" points="278.5,-643.2 278.5,-662.2 317.5,-662.2 317.5,-643.2 278.5,-643.2"/>
<text text-anchor="start" x="281.5" y="-649.3" font-family="Helvetica,sans-Serif" font-size="11.00" fill="#000000">&lt; 1</text>
<polygon fill="#ffffff" stroke="transparent" points="317.5,-643.2 317.5,-662.2 364.5,-662.2 364.5,-643.2 317.5,-643.2"/>
<polygon fill="none" stroke="#000000" points="317.5,-643.2 317.5,-662.2 364.5,-662.2 364.5,-643.2 317.5,-643.2"/>
<text text-anchor="start" x="329.1105" y="-649.3" font-family="Helvetica,sans-Serif" font-size="11.00" fill="#000000">0 rows</text>
<polygon fill="#ffffff" stroke="transparent" points="364.5,-643.2 364.5,-662.2 394.5,-662.2 394.5,-643.2 364.5,-643.2"/>
<polygon fill="none" stroke="#000000" points="364.5,-643.2 364.5,-662.2 394.5,-662.2 394.5,-643.2 364.5,-643.2"/>
<text text-anchor="start" x="375.9053" y="-649.3" font-family="Helvetica,sans-Serif" font-size="11.00" fill="#000000">1 &gt;</text>
</a>
</g>
</g>
<!-- contactos&#45;&gt;organizaciones -->
<g id="edge1" class="edge">
<title>contactos:w&#45;&gt;organizaciones:e</title>
<path fill="none" stroke="#000000" d="M527.3045,-645.6513C472.8703,-649.1038 455.8657,-671.2 394.5,-671.2"/>
<polygon fill="#000000" stroke="#000000" points="534.0038,-645.4456 542.1105,-648.7983 538.0019,-645.3228 542,-645.2 542,-645.2 542,-645.2 538.0019,-645.3228 541.8895,-641.6017 534.0038,-645.4456 534.0038,-645.4456"/>
<ellipse fill="none" stroke="#000000" cx="530.8053" cy="-645.5438" rx="3.2" ry="3.2"/>
</g>
<!-- personas -->
<g id="node3" class="node">
<title>personas</title>
<g id="a_node3"><a xlink:href="../../tables/personas.html" xlink:title="personas" target="_top">
<polygon fill="#ffffff" stroke="transparent" points="8,-512.7 8,-595.7 131,-595.7 131,-512.7 8,-512.7"/>
<polygon fill="#f5f5f5" stroke="transparent" points="8.5,-572.2 8.5,-595.2 131.5,-595.2 131.5,-572.2 8.5,-572.2"/>
<polygon fill="none" stroke="#000000" points="8.5,-572.2 8.5,-595.2 131.5,-595.2 131.5,-572.2 8.5,-572.2"/>
<text text-anchor="start" x="13.5" y="-581.3" font-family="Helvetica,sans-Serif" font-weight="bold" font-size="11.00" fill="#000000">personas</text>
<text text-anchor="start" x="96.5437" y="-580.3" font-family="Helvetica,sans-Serif" font-size="11.00" fill="#000000">[table]</text>
<polygon fill="none" stroke="#000000" points="8.5,-550.2 8.5,-572.2 131.5,-572.2 131.5,-550.2 8.5,-550.2"/>
<image xlink:href="../../images/primaryKeys.png" width="11px" height="12px" preserveAspectRatio="xMinYMin meet" x="13.5" y="-567.2"/>
<text text-anchor="start" x="28.5" y="-557.3" font-family="Helvetica,sans-Serif" font-size="11.00" fill="#000000">persona_id</text>
<polygon fill="none" stroke="#000000" points="8.5,-531.2 8.5,-550.2 131.5,-550.2 131.5,-531.2 8.5,-531.2"/>
<text text-anchor="start" x="11.5" y="-537.3" font-family="Helvetica,sans-Serif" font-size="11.00" fill="#000000">...</text>
<polygon fill="#ffffff" stroke="transparent" points="8.5,-512.2 8.5,-531.2 49.5,-531.2 49.5,-512.2 8.5,-512.2"/>
<polygon fill="none" stroke="#000000" points="8.5,-512.2 8.5,-531.2 49.5,-531.2 49.5,-512.2 8.5,-512.2"/>
<text text-anchor="start" x="11.5" y="-518.3" font-family="Helvetica,sans-Serif" font-size="11.00" fill="#000000"> &#160;</text>
<polygon fill="#ffffff" stroke="transparent" points="49.5,-512.2 49.5,-531.2 95.5,-531.2 95.5,-512.2 49.5,-512.2"/>
<polygon fill="none" stroke="#000000" points="49.5,-512.2 49.5,-531.2 95.5,-531.2 95.5,-512.2 49.5,-512.2"/>
<text text-anchor="start" x="65.6105" y="-518.3" font-family="Helvetica,sans-Serif" font-size="11.00" fill="#000000">1 row</text>
<polygon fill="#ffffff" stroke="transparent" points="95.5,-512.2 95.5,-531.2 131.5,-531.2 131.5,-512.2 95.5,-512.2"/>
<polygon fill="none" stroke="#000000" points="95.5,-512.2 95.5,-531.2 131.5,-531.2 131.5,-512.2 95.5,-512.2"/>
<text text-anchor="start" x="112.9053" y="-518.3" font-family="Helvetica,sans-Serif" font-size="11.00" fill="#000000">7 &gt;</text>
</a>
</g>
</g>
<!-- contactos&#45;&gt;personas -->
<g id="edge2" class="edge">
<title>contactos:w&#45;&gt;personas:e</title>
<path fill="none" stroke="#000000" d="M527.5508,-643.0251C519.2961,-640.2629 513.6852,-635.5715 501,-633.2 428.8742,-619.7161 237.8829,-637.5016 172,-605.2 148.1354,-593.4995 158.0786,-561.2 131.5,-561.2"/>
<polygon fill="#000000" stroke="#000000" points="534.0891,-644.0092 541.4641,-648.7599 538.0446,-644.6046 542,-645.2 542,-645.2 542,-645.2 538.0446,-644.6046 542.5359,-641.6401 534.0891,-644.0092 534.0891,-644.0092"/>
<ellipse fill="none" stroke="#000000" cx="530.9248" cy="-643.5329" rx="3.2" ry="3.2"/>
</g>
<!-- organizaciones&#45;&gt;personas -->
<g id="edge7" class="edge">
<title>organizaciones:w&#45;&gt;personas:e</title>
<path fill="none" stroke="#000000" d="M263.9915,-670.9046C223.9692,-669.1167 206.8268,-658.8111 172,-629.2 145.2009,-606.4143 166.6765,-561.2 131.5,-561.2"/>
<polygon fill="#000000" stroke="#000000" points="270.5017,-671.0371 278.4267,-674.7993 274.5008,-671.1186 278.5,-671.2 278.5,-671.2 278.5,-671.2 274.5008,-671.1186 278.5733,-667.6007 270.5017,-671.0371 270.5017,-671.0371"/>
<ellipse fill="none" stroke="#000000" cx="267.3023" cy="-670.972" rx="3.2" ry="3.2"/>
</g>
<!-- direcciones -->
<g id="node4" class="node">
<title>direcciones</title>
<g id="a_node4"><a xlink:href="../../tables/direcciones.html" xlink:title="direcciones" target="_top">
<polygon fill="#ffffff" stroke="transparent" points="180,-38.2 180,-348.2 493,-348.2 493,-38.2 180,-38.2"/>
<polygon fill="#f5f5f5" stroke="transparent" points="182.5,-323.2 182.5,-346.2 491.5,-346.2 491.5,-323.2 182.5,-323.2"/>
<polygon fill="none" stroke="#000000" points="182.5,-323.2 182.5,-346.2 491.5,-346.2 491.5,-323.2 182.5,-323.2"/>
<text text-anchor="start" x="187.5" y="-332.3" font-family="Helvetica,sans-Serif" font-weight="bold" font-size="11.00" fill="#000000">direcciones</text>
<text text-anchor="start" x="456.5437" y="-331.3" font-family="Helvetica,sans-Serif" font-size="11.00" fill="#000000">[table]</text>
<polygon fill="none" stroke="#000000" points="182.5,-301.2 182.5,-323.2 305.5,-323.2 305.5,-301.2 182.5,-301.2"/>
<image xlink:href="../../images/primaryKeys.png" width="11px" height="12px" preserveAspectRatio="xMinYMin meet" x="187.5" y="-318.2"/>
<text text-anchor="start" x="202.5" y="-308.3" font-family="Helvetica,sans-Serif" font-size="11.00" fill="#000000">direccion_id</text>
<polygon fill="none" stroke="#000000" points="305.5,-301.2 305.5,-323.2 491.5,-323.2 491.5,-301.2 305.5,-301.2"/>
<text text-anchor="start" x="308.5" y="-308.9" font-family="Helvetica,sans-Serif" font-size="11.00" fill="#000000">serial[10]</text>
<polygon fill="none" stroke="#000000" points="182.5,-279.2 182.5,-301.2 305.5,-301.2 305.5,-279.2 182.5,-279.2"/>
<text text-anchor="start" x="202.5" y="-286.3" font-family="Helvetica,sans-Serif" font-size="11.00" fill="#000000">calle_1</text>
<polygon fill="none" stroke="#000000" points="305.5,-279.2 305.5,-301.2 491.5,-301.2 491.5,-279.2 305.5,-279.2"/>
<text text-anchor="start" x="308.5" y="-286.9" font-family="Helvetica,sans-Serif" font-size="11.00" fill="#000000">varchar[255]</text>
<polygon fill="none" stroke="#000000" points="182.5,-257.2 182.5,-279.2 305.5,-279.2 305.5,-257.2 182.5,-257.2"/>
<text text-anchor="start" x="202.5" y="-264.3" font-family="Helvetica,sans-Serif" font-size="11.00" fill="#000000">calle_2</text>
<polygon fill="none" stroke="#000000" points="305.5,-257.2 305.5,-279.2 491.5,-279.2 491.5,-257.2 305.5,-257.2"/>
<text text-anchor="start" x="308.5" y="-264.9" font-family="Helvetica,sans-Serif" font-size="11.00" fill="#000000">varchar[255]</text>
<polygon fill="none" stroke="#000000" points="182.5,-235.2 182.5,-257.2 305.5,-257.2 305.5,-235.2 182.5,-235.2"/>
<image xlink:href="../../images/foreignKeys.png" width="11px" height="12px" preserveAspectRatio="xMinYMin meet" x="187.5" y="-252.2"/>
<text text-anchor="start" x="202.5" y="-242.3" font-family="Helvetica,sans-Serif" font-size="11.00" fill="#000000">persona_id</text>
<polygon fill="none" stroke="#000000" points="305.5,-235.2 305.5,-257.2 491.5,-257.2 491.5,-235.2 305.5,-235.2"/>
<text text-anchor="start" x="308.5" y="-242.9" font-family="Helvetica,sans-Serif" font-size="11.00" fill="#000000">int4[10]</text>
<polygon fill="none" stroke="#000000" points="182.5,-213.2 182.5,-235.2 305.5,-235.2 305.5,-213.2 182.5,-213.2"/>
<text text-anchor="start" x="202.5" y="-220.3" font-family="Helvetica,sans-Serif" font-size="11.00" fill="#000000">cod_postal</text>
<polygon fill="none" stroke="#000000" points="305.5,-213.2 305.5,-235.2 491.5,-235.2 491.5,-213.2 305.5,-213.2"/>
<text text-anchor="start" x="308.5" y="-220.9" font-family="Helvetica,sans-Serif" font-size="11.00" fill="#000000">varchar[30]</text>
<polygon fill="none" stroke="#000000" points="182.5,-191.2 182.5,-213.2 305.5,-213.2 305.5,-191.2 182.5,-191.2"/>
<text text-anchor="start" x="202.5" y="-198.3" font-family="Helvetica,sans-Serif" font-size="11.00" fill="#000000">tipo</text>
<polygon fill="none" stroke="#000000" points="305.5,-191.2 305.5,-213.2 491.5,-213.2 491.5,-191.2 305.5,-191.2"/>
<text text-anchor="start" x="308.3275" y="-198.9" font-family="Helvetica,sans-Serif" font-size="11.00" fill="#000000">enum_direcciones_tipo[2147483647]</text>
<polygon fill="none" stroke="#000000" points="182.5,-169.2 182.5,-191.2 305.5,-191.2 305.5,-169.2 182.5,-169.2"/>
<text text-anchor="start" x="202.5" y="-176.3" font-family="Helvetica,sans-Serif" font-size="11.00" fill="#000000">principal</text>
<polygon fill="none" stroke="#000000" points="305.5,-169.2 305.5,-191.2 491.5,-191.2 491.5,-169.2 305.5,-169.2"/>
<text text-anchor="start" x="308.5" y="-176.9" font-family="Helvetica,sans-Serif" font-size="11.00" fill="#000000">bool[1]</text>
<polygon fill="none" stroke="#000000" points="182.5,-147.2 182.5,-169.2 305.5,-169.2 305.5,-147.2 182.5,-147.2"/>
<text text-anchor="start" x="202.5" y="-154.3" font-family="Helvetica,sans-Serif" font-size="11.00" fill="#000000">usu_insercion</text>
<polygon fill="none" stroke="#000000" points="305.5,-147.2 305.5,-169.2 491.5,-169.2 491.5,-147.2 305.5,-147.2"/>
<text text-anchor="start" x="308.5" y="-154.9" font-family="Helvetica,sans-Serif" font-size="11.00" fill="#000000">varchar[20]</text>
<polygon fill="none" stroke="#000000" points="182.5,-125.2 182.5,-147.2 305.5,-147.2 305.5,-125.2 182.5,-125.2"/>
<text text-anchor="start" x="202.5" y="-132.3" font-family="Helvetica,sans-Serif" font-size="11.00" fill="#000000">fec_insercion</text>
<polygon fill="none" stroke="#000000" points="305.5,-125.2 305.5,-147.2 491.5,-147.2 491.5,-125.2 305.5,-125.2"/>
<text text-anchor="start" x="308.5" y="-132.9" font-family="Helvetica,sans-Serif" font-size="11.00" fill="#000000">timestamptz[35,6]</text>
<polygon fill="none" stroke="#000000" points="182.5,-103.2 182.5,-125.2 305.5,-125.2 305.5,-103.2 182.5,-103.2"/>
<text text-anchor="start" x="202.5" y="-110.3" font-family="Helvetica,sans-Serif" font-size="11.00" fill="#000000">fec_modificacion</text>
<polygon fill="none" stroke="#000000" points="305.5,-103.2 305.5,-125.2 491.5,-125.2 491.5,-103.2 305.5,-103.2"/>
<text text-anchor="start" x="308.5" y="-110.9" font-family="Helvetica,sans-Serif" font-size="11.00" fill="#000000">timestamptz[35,6]</text>
<polygon fill="none" stroke="#000000" points="182.5,-81.2 182.5,-103.2 305.5,-103.2 305.5,-81.2 182.5,-81.2"/>
<text text-anchor="start" x="202.5" y="-88.3" font-family="Helvetica,sans-Serif" font-size="11.00" fill="#000000">usu_modificacion</text>
<polygon fill="none" stroke="#000000" points="305.5,-81.2 305.5,-103.2 491.5,-103.2 491.5,-81.2 305.5,-81.2"/>
<text text-anchor="start" x="308.5" y="-88.9" font-family="Helvetica,sans-Serif" font-size="11.00" fill="#000000">varchar[20]</text>
<polygon fill="none" stroke="#000000" points="182.5,-59.2 182.5,-81.2 305.5,-81.2 305.5,-59.2 182.5,-59.2"/>
<image xlink:href="../../images/foreignKeys.png" width="11px" height="12px" preserveAspectRatio="xMinYMin meet" x="187.5" y="-76.2"/>
<text text-anchor="start" x="202.5" y="-66.3" font-family="Helvetica,sans-Serif" font-size="11.00" fill="#000000">sede_id</text>
<polygon fill="none" stroke="#000000" points="305.5,-59.2 305.5,-81.2 491.5,-81.2 491.5,-59.2 305.5,-59.2"/>
<text text-anchor="start" x="308.5" y="-66.9" font-family="Helvetica,sans-Serif" font-size="11.00" fill="#000000">int4[10]</text>
<polygon fill="#ffffff" stroke="transparent" points="182.5,-40.2 182.5,-59.2 235.5,-59.2 235.5,-40.2 182.5,-40.2"/>
<polygon fill="none" stroke="#000000" points="182.5,-40.2 182.5,-59.2 235.5,-59.2 235.5,-40.2 182.5,-40.2"/>
<text text-anchor="start" x="185.5" y="-46.3" font-family="Helvetica,sans-Serif" font-size="11.00" fill="#000000">&lt; 2</text>
<polygon fill="#ffffff" stroke="transparent" points="235.5,-40.2 235.5,-59.2 305.5,-59.2 305.5,-40.2 235.5,-40.2"/>
<polygon fill="none" stroke="#000000" points="235.5,-40.2 235.5,-59.2 305.5,-59.2 305.5,-40.2 235.5,-40.2"/>
<text text-anchor="start" x="270.1105" y="-46.3" font-family="Helvetica,sans-Serif" font-size="11.00" fill="#000000">0 rows</text>
<polygon fill="#ffffff" stroke="transparent" points="305.5,-40.2 305.5,-59.2 491.5,-59.2 491.5,-40.2 305.5,-40.2"/>
<polygon fill="none" stroke="#000000" points="305.5,-40.2 305.5,-59.2 491.5,-59.2 491.5,-40.2 305.5,-40.2"/>
<text text-anchor="start" x="472.9053" y="-46.3" font-family="Helvetica,sans-Serif" font-size="11.00" fill="#000000">0 &gt;</text>
<polygon fill="none" stroke="#000000" stroke-width="2" points="181,-39.2 181,-347.2 492,-347.2 492,-39.2 181,-39.2"/>
</a>
</g>
</g>
<!-- direcciones&#45;&gt;personas -->
<g id="edge3" class="edge">
<title>direcciones:w&#45;&gt;personas:e</title>
<path fill="none" stroke="#000000" d="M168.9679,-251.4046C124.4864,-292.3606 197.0101,-561.2 131.5,-561.2"/>
<polygon fill="#000000" stroke="#000000" points="175.0332,-249.0718 183.7923,-249.5601 178.7666,-247.6359 182.5,-246.2 182.5,-246.2 182.5,-246.2 178.7666,-247.6359 181.2077,-242.8399 175.0332,-249.0718 175.0332,-249.0718"/>
<ellipse fill="none" stroke="#000000" cx="172.0465" cy="-250.2206" rx="3.2" ry="3.2"/>
</g>
<!-- sedes -->
<g id="node5" class="node">
<title>sedes</title>
<g id="a_node5"><a xlink:href="../../tables/sedes.html" xlink:title="sedes" target="_top">
<polygon fill="#ffffff" stroke="transparent" points="8,-185.7 8,-268.7 131,-268.7 131,-185.7 8,-185.7"/>
<polygon fill="#f5f5f5" stroke="transparent" points="8.5,-245.2 8.5,-268.2 131.5,-268.2 131.5,-245.2 8.5,-245.2"/>
<polygon fill="none" stroke="#000000" points="8.5,-245.2 8.5,-268.2 131.5,-268.2 131.5,-245.2 8.5,-245.2"/>
<text text-anchor="start" x="13.5" y="-254.3" font-family="Helvetica,sans-Serif" font-weight="bold" font-size="11.00" fill="#000000">sedes</text>
<text text-anchor="start" x="96.5437" y="-253.3" font-family="Helvetica,sans-Serif" font-size="11.00" fill="#000000">[table]</text>
<polygon fill="none" stroke="#000000" points="8.5,-223.2 8.5,-245.2 131.5,-245.2 131.5,-223.2 8.5,-223.2"/>
<image xlink:href="../../images/primaryKeys.png" width="11px" height="12px" preserveAspectRatio="xMinYMin meet" x="13.5" y="-240.2"/>
<text text-anchor="start" x="28.5" y="-230.3" font-family="Helvetica,sans-Serif" font-size="11.00" fill="#000000">sede_id</text>
<polygon fill="none" stroke="#000000" points="8.5,-204.2 8.5,-223.2 131.5,-223.2 131.5,-204.2 8.5,-204.2"/>
<text text-anchor="start" x="11.5" y="-210.3" font-family="Helvetica,sans-Serif" font-size="11.00" fill="#000000">...</text>
<polygon fill="#ffffff" stroke="transparent" points="8.5,-185.2 8.5,-204.2 46.5,-204.2 46.5,-185.2 8.5,-185.2"/>
<polygon fill="none" stroke="#000000" points="8.5,-185.2 8.5,-204.2 46.5,-204.2 46.5,-185.2 8.5,-185.2"/>
<text text-anchor="start" x="11.5" y="-191.3" font-family="Helvetica,sans-Serif" font-size="11.00" fill="#000000"> &#160;</text>
<polygon fill="#ffffff" stroke="transparent" points="46.5,-185.2 46.5,-204.2 97.5,-204.2 97.5,-185.2 46.5,-185.2"/>
<polygon fill="none" stroke="#000000" points="46.5,-185.2 46.5,-204.2 97.5,-204.2 97.5,-185.2 46.5,-185.2"/>
<text text-anchor="start" x="62.1105" y="-191.3" font-family="Helvetica,sans-Serif" font-size="11.00" fill="#000000">0 rows</text>
<polygon fill="#ffffff" stroke="transparent" points="97.5,-185.2 97.5,-204.2 131.5,-204.2 131.5,-185.2 97.5,-185.2"/>
<polygon fill="none" stroke="#000000" points="97.5,-185.2 97.5,-204.2 131.5,-204.2 131.5,-185.2 97.5,-185.2"/>
<text text-anchor="start" x="112.9053" y="-191.3" font-family="Helvetica,sans-Serif" font-size="11.00" fill="#000000">2 &gt;</text>
</a>
</g>
</g>
<!-- direcciones&#45;&gt;sedes -->
<g id="edge4" class="edge">
<title>direcciones:w&#45;&gt;sedes:e</title>
<path fill="none" stroke="#000000" d="M168.3001,-72.776C120.2783,-93.6404 202.1667,-234.2 131.5,-234.2"/>
<polygon fill="#000000" stroke="#000000" points="174.6285,-71.628 183.1426,-73.7422 178.5642,-70.914 182.5,-70.2 182.5,-70.2 182.5,-70.2 178.5642,-70.914 181.8574,-66.6578 174.6285,-71.628 174.6285,-71.628"/>
<ellipse fill="none" stroke="#000000" cx="171.4799" cy="-72.1993" rx="3.2" ry="3.2"/>
</g>
<!-- empleados -->
<g id="node6" class="node">
<title>empleados</title>
<g id="a_node6"><a xlink:href="../../tables/empleados.html" xlink:title="empleados" target="_top">
<polygon fill="#ffffff" stroke="transparent" points="288.5,-533.7 288.5,-594.7 384.5,-594.7 384.5,-533.7 288.5,-533.7"/>
<polygon fill="#f5f5f5" stroke="transparent" points="288.5,-571.2 288.5,-594.2 384.5,-594.2 384.5,-571.2 288.5,-571.2"/>
<polygon fill="none" stroke="#000000" points="288.5,-571.2 288.5,-594.2 384.5,-594.2 384.5,-571.2 288.5,-571.2"/>
<text text-anchor="start" x="293.1039" y="-580.3" font-family="Helvetica,sans-Serif" font-weight="bold" font-size="11.00" fill="#000000">empleados</text>
<text text-anchor="start" x="350.0219" y="-579.3" font-family="Helvetica,sans-Serif" font-size="11.00" fill="#000000">[table]</text>
<polygon fill="none" stroke="#000000" points="288.5,-552.2 288.5,-571.2 384.5,-571.2 384.5,-552.2 288.5,-552.2"/>
<text text-anchor="start" x="291.5" y="-558.3" font-family="Helvetica,sans-Serif" font-size="11.00" fill="#000000">...</text>
<polygon fill="#ffffff" stroke="transparent" points="288.5,-533.2 288.5,-552.2 324.5,-552.2 324.5,-533.2 288.5,-533.2"/>
<polygon fill="none" stroke="#000000" points="288.5,-533.2 288.5,-552.2 324.5,-552.2 324.5,-533.2 288.5,-533.2"/>
<text text-anchor="start" x="291.5" y="-539.3" font-family="Helvetica,sans-Serif" font-size="11.00" fill="#000000">&lt; 2</text>
<polygon fill="#ffffff" stroke="transparent" points="324.5,-533.2 324.5,-552.2 364.5,-552.2 364.5,-533.2 324.5,-533.2"/>
<polygon fill="none" stroke="#000000" points="324.5,-533.2 324.5,-552.2 364.5,-552.2 364.5,-533.2 324.5,-533.2"/>
<text text-anchor="start" x="334.6105" y="-539.3" font-family="Helvetica,sans-Serif" font-size="11.00" fill="#000000">1 row</text>
<polygon fill="#ffffff" stroke="transparent" points="364.5,-533.2 364.5,-552.2 384.5,-552.2 384.5,-533.2 364.5,-533.2"/>
<polygon fill="none" stroke="#000000" points="364.5,-533.2 364.5,-552.2 384.5,-552.2 384.5,-533.2 364.5,-533.2"/>
<text text-anchor="start" x="375.3862" y="-539.3" font-family="Helvetica,sans-Serif" font-size="11.00" fill="#000000"> &#160;</text>
</a>
</g>
</g>
<!-- empleados&#45;&gt;personas -->
<g id="edge5" class="edge">
<title>empleados:w&#45;&gt;personas:e</title>
<path fill="none" stroke="#000000" d="M273.7856,-561.2C215.8445,-561.2 196.099,-561.2 131.5,-561.2"/>
<polygon fill="#000000" stroke="#000000" points="280.5,-561.2001 288.5,-564.8 284.5,-561.2 288.5,-561.2 288.5,-561.2 288.5,-561.2 284.5,-561.2 288.5,-557.6 280.5,-561.2001 280.5,-561.2001"/>
<ellipse fill="none" stroke="#000000" cx="277.3" cy="-561.2001" rx="3.2" ry="3.2"/>
</g>
<!-- leads -->
<g id="node7" class="node">
<title>leads</title>
<g id="a_node7"><a xlink:href="../../tables/leads.html" xlink:title="leads" target="_top">
<polygon fill="#ffffff" stroke="transparent" points="296.5,-451.7 296.5,-512.7 376.5,-512.7 376.5,-451.7 296.5,-451.7"/>
<polygon fill="#f5f5f5" stroke="transparent" points="296.5,-489.2 296.5,-512.2 376.5,-512.2 376.5,-489.2 296.5,-489.2"/>
<polygon fill="none" stroke="#000000" points="296.5,-489.2 296.5,-512.2 376.5,-512.2 376.5,-489.2 296.5,-489.2"/>
<text text-anchor="start" x="301.5" y="-498.3" font-family="Helvetica,sans-Serif" font-weight="bold" font-size="11.00" fill="#000000">leads</text>
<text text-anchor="start" x="341.5437" y="-497.3" font-family="Helvetica,sans-Serif" font-size="11.00" fill="#000000">[table]</text>
<polygon fill="none" stroke="#000000" points="296.5,-470.2 296.5,-489.2 376.5,-489.2 376.5,-470.2 296.5,-470.2"/>
<text text-anchor="start" x="299.5" y="-476.3" font-family="Helvetica,sans-Serif" font-size="11.00" fill="#000000">...</text>
<polygon fill="#ffffff" stroke="transparent" points="296.5,-451.2 296.5,-470.2 317.5,-470.2 317.5,-451.2 296.5,-451.2"/>
<polygon fill="none" stroke="#000000" points="296.5,-451.2 296.5,-470.2 317.5,-470.2 317.5,-451.2 296.5,-451.2"/>
<text text-anchor="start" x="299.2027" y="-457.3" font-family="Helvetica,sans-Serif" font-size="11.00" fill="#000000">&lt; 4</text>
<polygon fill="#ffffff" stroke="transparent" points="317.5,-451.2 317.5,-470.2 355.5,-470.2 355.5,-451.2 317.5,-451.2"/>
<polygon fill="none" stroke="#000000" points="317.5,-451.2 317.5,-470.2 355.5,-470.2 355.5,-451.2 317.5,-451.2"/>
<text text-anchor="start" x="320.3053" y="-457.3" font-family="Helvetica,sans-Serif" font-size="11.00" fill="#000000">0 rows</text>
<polygon fill="#ffffff" stroke="transparent" points="355.5,-451.2 355.5,-470.2 376.5,-470.2 376.5,-451.2 355.5,-451.2"/>
<polygon fill="none" stroke="#000000" points="355.5,-451.2 355.5,-470.2 376.5,-470.2 376.5,-451.2 355.5,-451.2"/>
<text text-anchor="start" x="358.2027" y="-457.3" font-family="Helvetica,sans-Serif" font-size="11.00" fill="#000000">3 &gt;</text>
</a>
</g>
</g>
<!-- leads&#45;&gt;personas -->
<g id="edge6" class="edge">
<title>leads:w&#45;&gt;personas:e</title>
<path fill="none" stroke="#000000" d="M281.9699,-479.5151C234.7907,-481.7033 217.7288,-495.3746 172,-523.2 150.9141,-536.0305 156.1827,-561.2 131.5,-561.2"/>
<polygon fill="#000000" stroke="#000000" points="288.5019,-479.3735 296.5781,-482.7992 292.5009,-479.2867 296.5,-479.2 296.5,-479.2 296.5,-479.2 292.5009,-479.2867 296.4219,-475.6008 288.5019,-479.3735 288.5019,-479.3735"/>
<ellipse fill="none" stroke="#000000" cx="285.3026" cy="-479.4429" rx="3.2" ry="3.2"/>
</g>
<!-- profesores -->
<g id="node8" class="node">
<title>profesores</title>
<g id="a_node8"><a xlink:href="../../tables/profesores.html" xlink:title="profesores" target="_top">
<polygon fill="#ffffff" stroke="transparent" points="289.5,-725.7 289.5,-786.7 383.5,-786.7 383.5,-725.7 289.5,-725.7"/>
<polygon fill="#f5f5f5" stroke="transparent" points="289.5,-763.2 289.5,-786.2 383.5,-786.2 383.5,-763.2 289.5,-763.2"/>
<polygon fill="none" stroke="#000000" points="289.5,-763.2 289.5,-786.2 383.5,-786.2 383.5,-763.2 289.5,-763.2"/>
<text text-anchor="start" x="294.0224" y="-772.3" font-family="Helvetica,sans-Serif" font-weight="bold" font-size="11.00" fill="#000000">profesores</text>
<text text-anchor="start" x="349.0219" y="-771.3" font-family="Helvetica,sans-Serif" font-size="11.00" fill="#000000">[table]</text>
<polygon fill="none" stroke="#000000" points="289.5,-744.2 289.5,-763.2 383.5,-763.2 383.5,-744.2 289.5,-744.2"/>
<text text-anchor="start" x="292.5" y="-750.3" font-family="Helvetica,sans-Serif" font-size="11.00" fill="#000000">...</text>
<polygon fill="#ffffff" stroke="transparent" points="289.5,-725.2 289.5,-744.2 317.5,-744.2 317.5,-725.2 289.5,-725.2"/>
<polygon fill="none" stroke="#000000" points="289.5,-725.2 289.5,-744.2 317.5,-744.2 317.5,-725.2 289.5,-725.2"/>
<text text-anchor="start" x="292.5" y="-731.3" font-family="Helvetica,sans-Serif" font-size="11.00" fill="#000000">&lt; 1</text>
<polygon fill="#ffffff" stroke="transparent" points="317.5,-725.2 317.5,-744.2 358.5,-744.2 358.5,-725.2 317.5,-725.2"/>
<polygon fill="none" stroke="#000000" points="317.5,-725.2 317.5,-744.2 358.5,-744.2 358.5,-725.2 317.5,-725.2"/>
<text text-anchor="start" x="323.1105" y="-731.3" font-family="Helvetica,sans-Serif" font-size="11.00" fill="#000000">0 rows</text>
<polygon fill="#ffffff" stroke="transparent" points="358.5,-725.2 358.5,-744.2 383.5,-744.2 383.5,-725.2 358.5,-725.2"/>
<polygon fill="none" stroke="#000000" points="358.5,-725.2 358.5,-744.2 383.5,-744.2 383.5,-725.2 358.5,-725.2"/>
<text text-anchor="start" x="364.9053" y="-731.3" font-family="Helvetica,sans-Serif" font-size="11.00" fill="#000000">1 &gt;</text>
</a>
</g>
</g>
<!-- profesores&#45;&gt;personas -->
<g id="edge8" class="edge">
<title>profesores:w&#45;&gt;personas:e</title>
<path fill="none" stroke="#000000" d="M274.8189,-753.2135C229.8335,-753.1844 206.1797,-751.3358 172,-715.2 123.3678,-663.7845 202.2718,-561.2 131.5,-561.2"/>
<polygon fill="#000000" stroke="#000000" points="281.5,-753.2074 289.5033,-756.8 285.5,-753.2037 289.5,-753.2 289.5,-753.2 289.5,-753.2 285.5,-753.2037 289.4967,-749.6 281.5,-753.2074 281.5,-753.2074"/>
<ellipse fill="none" stroke="#000000" cx="278.3" cy="-753.2104" rx="3.2" ry="3.2"/>
</g>
<!-- telefonos -->
<g id="node9" class="node">
<title>telefonos</title>
<g id="a_node9"><a xlink:href="../../tables/telefonos.html" xlink:title="telefonos" target="_top">
<polygon fill="#ffffff" stroke="transparent" points="293,-369.7 293,-430.7 380,-430.7 380,-369.7 293,-369.7"/>
<polygon fill="#f5f5f5" stroke="transparent" points="293.5,-407.2 293.5,-430.2 380.5,-430.2 380.5,-407.2 293.5,-407.2"/>
<polygon fill="none" stroke="#000000" points="293.5,-407.2 293.5,-430.2 380.5,-430.2 380.5,-407.2 293.5,-407.2"/>
<text text-anchor="start" x="298.1854" y="-416.3" font-family="Helvetica,sans-Serif" font-weight="bold" font-size="11.00" fill="#000000">telefonos</text>
<text text-anchor="start" x="346.0219" y="-415.3" font-family="Helvetica,sans-Serif" font-size="11.00" fill="#000000">[table]</text>
<polygon fill="none" stroke="#000000" points="293.5,-388.2 293.5,-407.2 380.5,-407.2 380.5,-388.2 293.5,-388.2"/>
<text text-anchor="start" x="296.5" y="-394.3" font-family="Helvetica,sans-Serif" font-size="11.00" fill="#000000">...</text>
<polygon fill="#ffffff" stroke="transparent" points="293.5,-369.2 293.5,-388.2 322.5,-388.2 322.5,-369.2 293.5,-369.2"/>
<polygon fill="none" stroke="#000000" points="293.5,-369.2 293.5,-388.2 322.5,-388.2 322.5,-369.2 293.5,-369.2"/>
<text text-anchor="start" x="296.5" y="-375.3" font-family="Helvetica,sans-Serif" font-size="11.00" fill="#000000">&lt; 2</text>
<polygon fill="#ffffff" stroke="transparent" points="322.5,-369.2 322.5,-388.2 364.5,-388.2 364.5,-369.2 322.5,-369.2"/>
<polygon fill="none" stroke="#000000" points="322.5,-369.2 322.5,-388.2 364.5,-388.2 364.5,-369.2 322.5,-369.2"/>
<text text-anchor="start" x="329.1105" y="-375.3" font-family="Helvetica,sans-Serif" font-size="11.00" fill="#000000">0 rows</text>
<polygon fill="#ffffff" stroke="transparent" points="364.5,-369.2 364.5,-388.2 380.5,-388.2 380.5,-369.2 364.5,-369.2"/>
<polygon fill="none" stroke="#000000" points="364.5,-369.2 364.5,-388.2 380.5,-388.2 380.5,-369.2 364.5,-369.2"/>
<text text-anchor="start" x="371.3862" y="-375.3" font-family="Helvetica,sans-Serif" font-size="11.00" fill="#000000"> &#160;</text>
</a>
</g>
</g>
<!-- telefonos&#45;&gt;personas -->
<g id="edge9" class="edge">
<title>telefonos:w&#45;&gt;personas:e</title>
<path fill="none" stroke="#000000" d="M279.1,-397.2921C231.7404,-398.0123 208.6324,-403.7545 172,-441.2 132.637,-481.4368 187.7889,-561.2 131.5,-561.2"/>
<polygon fill="#000000" stroke="#000000" points="285.5002,-397.2512 293.5231,-400.7999 289.5001,-397.2256 293.5,-397.2 293.5,-397.2 293.5,-397.2 289.5001,-397.2256 293.4769,-393.6001 285.5002,-397.2512 285.5002,-397.2512"/>
<ellipse fill="none" stroke="#000000" cx="282.3002" cy="-397.2717" rx="3.2" ry="3.2"/>
</g>
<!-- telefonos&#45;&gt;sedes -->
<g id="edge10" class="edge">
<title>telefonos:w&#45;&gt;sedes:e</title>
<path fill="none" stroke="#000000" d="M278.9574,-397.1938C232.2432,-397.0488 208.5925,-394.6066 172,-358.2 130.9004,-317.3092 189.4762,-234.2 131.5,-234.2"/>
<polygon fill="#000000" stroke="#000000" points="285.5,-397.1965 293.4984,-400.8 289.5,-397.1983 293.5,-397.2 293.5,-397.2 293.5,-397.2 289.5,-397.1983 293.5016,-393.6 285.5,-397.1965 285.5,-397.1965"/>
<ellipse fill="none" stroke="#000000" cx="282.3" cy="-397.1951" rx="3.2" ry="3.2"/>
</g>
</g>
</svg>
