<?xml version="1.0" encoding="UTF-8" standalone="no"?>
<!DOCTYPE svg PUBLIC "-//W3C//DTD SVG 1.1//EN"
 "http://www.w3.org/Graphics/SVG/1.1/DTD/svg11.dtd">
<!-- Generated by graphviz version 2.40.1 (20161225.0304)
 -->
<!-- Title: twoDegreesRelationshipsDiagram Pages: 1 -->
<svg width="648pt" height="776pt"
 viewBox="0.00 0.00 648.00 776.20" xmlns="http://www.w3.org/2000/svg" xmlns:xlink="http://www.w3.org/1999/xlink">
<g id="graph0" class="graph" transform="scale(1 1) rotate(0) translate(4 772.2)">
<title>twoDegreesRelationshipsDiagram</title>
<polygon fill="#ffffff" stroke="transparent" points="-4,4 -4,-772.2 644,-772.2 644,4 -4,4"/>
<text text-anchor="middle" x="72.4936" y="-7.3" font-family="Helvetica,sans-Serif" font-size="11.00" fill="#000000">Generated by SchemaSpy</text>
<!-- contactos -->
<g id="node1" class="node">
<title>contactos</title>
<g id="a_node1"><a xlink:href="../../tables/contactos.html" xlink:title="contactos" target="_top">
<polygon fill="#ffffff" stroke="transparent" points="542,-677.2 542,-738.2 632,-738.2 632,-677.2 542,-677.2"/>
<polygon fill="#f5f5f5" stroke="transparent" points="542,-714.7 542,-737.7 632,-737.7 632,-714.7 542,-714.7"/>
<polygon fill="none" stroke="#000000" points="542,-714.7 542,-737.7 632,-737.7 632,-714.7 542,-714.7"/>
<text text-anchor="start" x="546.9633" y="-723.8" font-family="Helvetica,sans-Serif" font-weight="bold" font-size="11.00" fill="#000000">contactos</text>
<text text-anchor="start" x="597.5219" y="-722.8" font-family="Helvetica,sans-Serif" font-size="11.00" fill="#000000">[table]</text>
<polygon fill="none" stroke="#000000" points="542,-695.7 542,-714.7 632,-714.7 632,-695.7 542,-695.7"/>
<text text-anchor="start" x="545" y="-701.8" font-family="Helvetica,sans-Serif" font-size="11.00" fill="#000000">...</text>
<polygon fill="#ffffff" stroke="transparent" points="542,-676.7 542,-695.7 568,-695.7 568,-676.7 542,-676.7"/>
<polygon fill="none" stroke="#000000" points="542,-676.7 542,-695.7 568,-695.7 568,-676.7 542,-676.7"/>
<text text-anchor="start" x="545" y="-682.8" font-family="Helvetica,sans-Serif" font-size="11.00" fill="#000000">&lt; 2</text>
<polygon fill="#ffffff" stroke="transparent" points="568,-676.7 568,-695.7 608,-695.7 608,-676.7 568,-676.7"/>
<polygon fill="none" stroke="#000000" points="568,-676.7 568,-695.7 608,-695.7 608,-676.7 568,-676.7"/>
<text text-anchor="start" x="572.6105" y="-682.8" font-family="Helvetica,sans-Serif" font-size="11.00" fill="#000000">2 rows</text>
<polygon fill="#ffffff" stroke="transparent" points="608,-676.7 608,-695.7 632,-695.7 632,-676.7 608,-676.7"/>
<polygon fill="none" stroke="#000000" points="608,-676.7 608,-695.7 632,-695.7 632,-676.7 608,-676.7"/>
<text text-anchor="start" x="613.4053" y="-682.8" font-family="Helvetica,sans-Serif" font-size="11.00" fill="#000000">5 &gt;</text>
</a>
</g>
</g>
<!-- organizaciones -->
<g id="node2" class="node">
<title>organizaciones</title>
<g id="a_node2"><a xlink:href="../../tables/organizaciones.html" xlink:title="organizaciones" target="_top">
<polygon fill="#ffffff" stroke="transparent" points="278.5,-703.2 278.5,-764.2 394.5,-764.2 394.5,-703.2 278.5,-703.2"/>
<polygon fill="#f5f5f5" stroke="transparent" points="278.5,-740.7 278.5,-763.7 394.5,-763.7 394.5,-740.7 278.5,-740.7"/>
<polygon fill="none" stroke="#000000" points="278.5,-740.7 278.5,-763.7 394.5,-763.7 394.5,-740.7 278.5,-740.7"/>
<text text-anchor="start" x="283.0186" y="-749.8" font-family="Helvetica,sans-Serif" font-weight="bold" font-size="11.00" fill="#000000">organizaciones</text>
<text text-anchor="start" x="360.0219" y="-748.8" font-family="Helvetica,sans-Serif" font-size="11.00" fill="#000000">[table]</text>
<polygon fill="none" stroke="#000000" points="278.5,-721.7 278.5,-740.7 394.5,-740.7 394.5,-721.7 278.5,-721.7"/>
<text text-anchor="start" x="281.5" y="-727.8" font-family="Helvetica,sans-Serif" font-size="11.00" fill="#000000">...</text>
<polygon fill="#ffffff" stroke="transparent" points="278.5,-702.7 278.5,-721.7 317.5,-721.7 317.5,-702.7 278.5,-702.7"/>
<polygon fill="none" stroke="#000000" points="278.5,-702.7 278.5,-721.7 317.5,-721.7 317.5,-702.7 278.5,-702.7"/>
<text text-anchor="start" x="281.5" y="-708.8" font-family="Helvetica,sans-Serif" font-size="11.00" fill="#000000">&lt; 1</text>
<polygon fill="#ffffff" stroke="transparent" points="317.5,-702.7 317.5,-721.7 364.5,-721.7 364.5,-702.7 317.5,-702.7"/>
<polygon fill="none" stroke="#000000" points="317.5,-702.7 317.5,-721.7 364.5,-721.7 364.5,-702.7 317.5,-702.7"/>
<text text-anchor="start" x="329.1105" y="-708.8" font-family="Helvetica,sans-Serif" font-size="11.00" fill="#000000">2 rows</text>
<polygon fill="#ffffff" stroke="transparent" points="364.5,-702.7 364.5,-721.7 394.5,-721.7 394.5,-702.7 364.5,-702.7"/>
<polygon fill="none" stroke="#000000" points="364.5,-702.7 364.5,-721.7 394.5,-721.7 394.5,-702.7 364.5,-702.7"/>
<text text-anchor="start" x="375.9053" y="-708.8" font-family="Helvetica,sans-Serif" font-size="11.00" fill="#000000">1 &gt;</text>
</a>
</g>
</g>
<!-- contactos&#45;&gt;organizaciones -->
<g id="edge1" class="edge">
<title>contactos:w&#45;&gt;organizaciones:e</title>
<path fill="none" stroke="#000000" d="M527.3045,-705.1513C472.8703,-708.6038 455.8657,-730.7 394.5,-730.7"/>
<polygon fill="#000000" stroke="#000000" points="534.0038,-704.9456 542.1105,-708.2983 538.0019,-704.8228 542,-704.7 542,-704.7 542,-704.7 538.0019,-704.8228 541.8895,-701.1017 534.0038,-704.9456 534.0038,-704.9456"/>
<ellipse fill="none" stroke="#000000" cx="530.8053" cy="-705.0438" rx="3.2" ry="3.2"/>
</g>
<!-- personas -->
<g id="node3" class="node">
<title>personas</title>
<g id="a_node3"><a xlink:href="../../tables/personas.html" xlink:title="personas" target="_top">
<polygon fill="#ffffff" stroke="transparent" points="8,-263.2 8,-346.2 131,-346.2 131,-263.2 8,-263.2"/>
<polygon fill="#f5f5f5" stroke="transparent" points="8.5,-322.7 8.5,-345.7 131.5,-345.7 131.5,-322.7 8.5,-322.7"/>
<polygon fill="none" stroke="#000000" points="8.5,-322.7 8.5,-345.7 131.5,-345.7 131.5,-322.7 8.5,-322.7"/>
<text text-anchor="start" x="13.5" y="-331.8" font-family="Helvetica,sans-Serif" font-weight="bold" font-size="11.00" fill="#000000">personas</text>
<text text-anchor="start" x="96.5437" y="-330.8" font-family="Helvetica,sans-Serif" font-size="11.00" fill="#000000">[table]</text>
<polygon fill="none" stroke="#000000" points="8.5,-300.7 8.5,-322.7 131.5,-322.7 131.5,-300.7 8.5,-300.7"/>
<image xlink:href="../../images/primaryKeys.png" width="11px" height="12px" preserveAspectRatio="xMinYMin meet" x="13.5" y="-317.7"/>
<text text-anchor="start" x="28.5" y="-307.8" font-family="Helvetica,sans-Serif" font-size="11.00" fill="#000000">persona_id</text>
<polygon fill="none" stroke="#000000" points="8.5,-281.7 8.5,-300.7 131.5,-300.7 131.5,-281.7 8.5,-281.7"/>
<text text-anchor="start" x="11.5" y="-287.8" font-family="Helvetica,sans-Serif" font-size="11.00" fill="#000000">...</text>
<polygon fill="#ffffff" stroke="transparent" points="8.5,-262.7 8.5,-281.7 43.5,-281.7 43.5,-262.7 8.5,-262.7"/>
<polygon fill="none" stroke="#000000" points="8.5,-262.7 8.5,-281.7 43.5,-281.7 43.5,-262.7 8.5,-262.7"/>
<text text-anchor="start" x="11.5" y="-268.8" font-family="Helvetica,sans-Serif" font-size="11.00" fill="#000000"> &#160;</text>
<polygon fill="#ffffff" stroke="transparent" points="43.5,-262.7 43.5,-281.7 98.5,-281.7 98.5,-262.7 43.5,-262.7"/>
<polygon fill="none" stroke="#000000" points="43.5,-262.7 43.5,-281.7 98.5,-281.7 98.5,-262.7 43.5,-262.7"/>
<text text-anchor="start" x="56.9956" y="-268.8" font-family="Helvetica,sans-Serif" font-size="11.00" fill="#000000">14 rows</text>
<polygon fill="#ffffff" stroke="transparent" points="98.5,-262.7 98.5,-281.7 131.5,-281.7 131.5,-262.7 98.5,-262.7"/>
<polygon fill="none" stroke="#000000" points="98.5,-262.7 98.5,-281.7 131.5,-281.7 131.5,-262.7 98.5,-262.7"/>
<text text-anchor="start" x="112.9053" y="-268.8" font-family="Helvetica,sans-Serif" font-size="11.00" fill="#000000">7 &gt;</text>
</a>
</g>
</g>
<!-- contactos&#45;&gt;personas -->
<g id="edge2" class="edge">
<title>contactos:w&#45;&gt;personas:e</title>
<path fill="none" stroke="#000000" d="M527.5519,-702.5192C519.2984,-699.7507 513.6888,-695.0524 501,-692.7 464.9361,-686.0142 198.3476,-691.2169 172,-665.7 115.122,-610.6152 210.6798,-311.7 131.5,-311.7"/>
<polygon fill="#000000" stroke="#000000" points="534.0896,-703.5059 541.4627,-708.2597 538.0448,-704.103 542,-704.7 542,-704.7 542,-704.7 538.0448,-704.103 542.5373,-701.1403 534.0896,-703.5059 534.0896,-703.5059"/>
<ellipse fill="none" stroke="#000000" cx="530.9254" cy="-703.0283" rx="3.2" ry="3.2"/>
</g>
<!-- organizaciones&#45;&gt;personas -->
<g id="edge6" class="edge">
<title>organizaciones:w&#45;&gt;personas:e</title>
<path fill="none" stroke="#000000" d="M264.0404,-730.6175C222.6217,-730.0092 199.7649,-725.1408 172,-688.7 120.9343,-621.6776 215.7598,-311.7 131.5,-311.7"/>
<polygon fill="#000000" stroke="#000000" points="270.5001,-730.6543 278.4794,-734.2999 274.5001,-730.6772 278.5,-730.7 278.5,-730.7 278.5,-730.7 274.5001,-730.6772 278.5206,-727.1001 270.5001,-730.6543 270.5001,-730.6543"/>
<ellipse fill="none" stroke="#000000" cx="267.3002" cy="-730.6361" rx="3.2" ry="3.2"/>
</g>
<!-- direcciones -->
<g id="node4" class="node">
<title>direcciones</title>
<g id="a_node4"><a xlink:href="../../tables/direcciones.html" xlink:title="direcciones" target="_top">
<polygon fill="#ffffff" stroke="transparent" points="180,-366.7 180,-654.7 493,-654.7 493,-366.7 180,-366.7"/>
<polygon fill="#f5f5f5" stroke="transparent" points="182.5,-629.7 182.5,-652.7 491.5,-652.7 491.5,-629.7 182.5,-629.7"/>
<polygon fill="none" stroke="#000000" points="182.5,-629.7 182.5,-652.7 491.5,-652.7 491.5,-629.7 182.5,-629.7"/>
<text text-anchor="start" x="187.5" y="-638.8" font-family="Helvetica,sans-Serif" font-weight="bold" font-size="11.00" fill="#000000">direcciones</text>
<text text-anchor="start" x="456.5437" y="-637.8" font-family="Helvetica,sans-Serif" font-size="11.00" fill="#000000">[table]</text>
<polygon fill="none" stroke="#000000" points="182.5,-607.7 182.5,-629.7 305.5,-629.7 305.5,-607.7 182.5,-607.7"/>
<image xlink:href="../../images/primaryKeys.png" width="11px" height="12px" preserveAspectRatio="xMinYMin meet" x="187.5" y="-624.7"/>
<text text-anchor="start" x="202.5" y="-614.8" font-family="Helvetica,sans-Serif" font-size="11.00" fill="#000000">direccion_id</text>
<polygon fill="none" stroke="#000000" points="305.5,-607.7 305.5,-629.7 491.5,-629.7 491.5,-607.7 305.5,-607.7"/>
<text text-anchor="start" x="308.5" y="-615.4" font-family="Helvetica,sans-Serif" font-size="11.00" fill="#000000">serial[10]</text>
<polygon fill="none" stroke="#000000" points="182.5,-585.7 182.5,-607.7 305.5,-607.7 305.5,-585.7 182.5,-585.7"/>
<text text-anchor="start" x="202.5" y="-592.8" font-family="Helvetica,sans-Serif" font-size="11.00" fill="#000000">calle_1</text>
<polygon fill="none" stroke="#000000" points="305.5,-585.7 305.5,-607.7 491.5,-607.7 491.5,-585.7 305.5,-585.7"/>
<text text-anchor="start" x="308.5" y="-593.4" font-family="Helvetica,sans-Serif" font-size="11.00" fill="#000000">varchar[255]</text>
<polygon fill="none" stroke="#000000" points="182.5,-563.7 182.5,-585.7 305.5,-585.7 305.5,-563.7 182.5,-563.7"/>
<text text-anchor="start" x="202.5" y="-570.8" font-family="Helvetica,sans-Serif" font-size="11.00" fill="#000000">calle_2</text>
<polygon fill="none" stroke="#000000" points="305.5,-563.7 305.5,-585.7 491.5,-585.7 491.5,-563.7 305.5,-563.7"/>
<text text-anchor="start" x="308.5" y="-571.4" font-family="Helvetica,sans-Serif" font-size="11.00" fill="#000000">varchar[255]</text>
<polygon fill="none" stroke="#000000" points="182.5,-541.7 182.5,-563.7 305.5,-563.7 305.5,-541.7 182.5,-541.7"/>
<text text-anchor="start" x="202.5" y="-548.8" font-family="Helvetica,sans-Serif" font-size="11.00" fill="#000000">referencia</text>
<polygon fill="none" stroke="#000000" points="305.5,-541.7 305.5,-563.7 491.5,-563.7 491.5,-541.7 305.5,-541.7"/>
<text text-anchor="start" x="308.5" y="-549.4" font-family="Helvetica,sans-Serif" font-size="11.00" fill="#000000">text[2147483647]</text>
<polygon fill="none" stroke="#000000" points="182.5,-519.7 182.5,-541.7 305.5,-541.7 305.5,-519.7 182.5,-519.7"/>
<image xlink:href="../../images/foreignKeys.png" width="11px" height="12px" preserveAspectRatio="xMinYMin meet" x="187.5" y="-536.7"/>
<text text-anchor="start" x="202.5" y="-526.8" font-family="Helvetica,sans-Serif" font-size="11.00" fill="#000000">persona_id</text>
<polygon fill="none" stroke="#000000" points="305.5,-519.7 305.5,-541.7 491.5,-541.7 491.5,-519.7 305.5,-519.7"/>
<text text-anchor="start" x="308.5" y="-527.4" font-family="Helvetica,sans-Serif" font-size="11.00" fill="#000000">int4[10]</text>
<polygon fill="none" stroke="#000000" points="182.5,-497.7 182.5,-519.7 305.5,-519.7 305.5,-497.7 182.5,-497.7"/>
<text text-anchor="start" x="202.5" y="-504.8" font-family="Helvetica,sans-Serif" font-size="11.00" fill="#000000">cod_postal</text>
<polygon fill="none" stroke="#000000" points="305.5,-497.7 305.5,-519.7 491.5,-519.7 491.5,-497.7 305.5,-497.7"/>
<text text-anchor="start" x="308.5" y="-505.4" font-family="Helvetica,sans-Serif" font-size="11.00" fill="#000000">varchar[30]</text>
<polygon fill="none" stroke="#000000" points="182.5,-475.7 182.5,-497.7 305.5,-497.7 305.5,-475.7 182.5,-475.7"/>
<text text-anchor="start" x="202.5" y="-482.8" font-family="Helvetica,sans-Serif" font-size="11.00" fill="#000000">tipo</text>
<polygon fill="none" stroke="#000000" points="305.5,-475.7 305.5,-497.7 491.5,-497.7 491.5,-475.7 305.5,-475.7"/>
<text text-anchor="start" x="308.3275" y="-483.4" font-family="Helvetica,sans-Serif" font-size="11.00" fill="#000000">enum_direcciones_tipo[2147483647]</text>
<polygon fill="none" stroke="#000000" points="182.5,-453.7 182.5,-475.7 305.5,-475.7 305.5,-453.7 182.5,-453.7"/>
<text text-anchor="start" x="202.5" y="-460.8" font-family="Helvetica,sans-Serif" font-size="11.00" fill="#000000">usu_insercion</text>
<polygon fill="none" stroke="#000000" points="305.5,-453.7 305.5,-475.7 491.5,-475.7 491.5,-453.7 305.5,-453.7"/>
<text text-anchor="start" x="308.5" y="-461.4" font-family="Helvetica,sans-Serif" font-size="11.00" fill="#000000">varchar[20]</text>
<polygon fill="none" stroke="#000000" points="182.5,-431.7 182.5,-453.7 305.5,-453.7 305.5,-431.7 182.5,-431.7"/>
<text text-anchor="start" x="202.5" y="-438.8" font-family="Helvetica,sans-Serif" font-size="11.00" fill="#000000">fec_insercion</text>
<polygon fill="none" stroke="#000000" points="305.5,-431.7 305.5,-453.7 491.5,-453.7 491.5,-431.7 305.5,-431.7"/>
<text text-anchor="start" x="308.5" y="-439.4" font-family="Helvetica,sans-Serif" font-size="11.00" fill="#000000">timestamptz[35,6]</text>
<polygon fill="none" stroke="#000000" points="182.5,-409.7 182.5,-431.7 305.5,-431.7 305.5,-409.7 182.5,-409.7"/>
<text text-anchor="start" x="202.5" y="-416.8" font-family="Helvetica,sans-Serif" font-size="11.00" fill="#000000">fec_modificacion</text>
<polygon fill="none" stroke="#000000" points="305.5,-409.7 305.5,-431.7 491.5,-431.7 491.5,-409.7 305.5,-409.7"/>
<text text-anchor="start" x="308.5" y="-417.4" font-family="Helvetica,sans-Serif" font-size="11.00" fill="#000000">timestamptz[35,6]</text>
<polygon fill="none" stroke="#000000" points="182.5,-387.7 182.5,-409.7 305.5,-409.7 305.5,-387.7 182.5,-387.7"/>
<text text-anchor="start" x="202.5" y="-394.8" font-family="Helvetica,sans-Serif" font-size="11.00" fill="#000000">usu_modificacion</text>
<polygon fill="none" stroke="#000000" points="305.5,-387.7 305.5,-409.7 491.5,-409.7 491.5,-387.7 305.5,-387.7"/>
<text text-anchor="start" x="308.5" y="-395.4" font-family="Helvetica,sans-Serif" font-size="11.00" fill="#000000">varchar[20]</text>
<polygon fill="#ffffff" stroke="transparent" points="182.5,-368.7 182.5,-387.7 235.5,-387.7 235.5,-368.7 182.5,-368.7"/>
<polygon fill="none" stroke="#000000" points="182.5,-368.7 182.5,-387.7 235.5,-387.7 235.5,-368.7 182.5,-368.7"/>
<text text-anchor="start" x="185.5" y="-374.8" font-family="Helvetica,sans-Serif" font-size="11.00" fill="#000000">&lt; 1</text>
<polygon fill="#ffffff" stroke="transparent" points="235.5,-368.7 235.5,-387.7 305.5,-387.7 305.5,-368.7 235.5,-368.7"/>
<polygon fill="none" stroke="#000000" points="235.5,-368.7 235.5,-387.7 305.5,-387.7 305.5,-368.7 235.5,-368.7"/>
<text text-anchor="start" x="270.1105" y="-374.8" font-family="Helvetica,sans-Serif" font-size="11.00" fill="#000000">8 rows</text>
<polygon fill="#ffffff" stroke="transparent" points="305.5,-368.7 305.5,-387.7 491.5,-387.7 491.5,-368.7 305.5,-368.7"/>
<polygon fill="none" stroke="#000000" points="305.5,-368.7 305.5,-387.7 491.5,-387.7 491.5,-368.7 305.5,-368.7"/>
<text text-anchor="start" x="472.9053" y="-374.8" font-family="Helvetica,sans-Serif" font-size="11.00" fill="#000000">0 &gt;</text>
<polygon fill="none" stroke="#000000" stroke-width="2" points="181,-367.7 181,-653.7 492,-653.7 492,-367.7 181,-367.7"/>
</a>
</g>
</g>
<!-- direcciones&#45;&gt;personas -->
<g id="edge3" class="edge">
<title>direcciones:w&#45;&gt;personas:e</title>
<path fill="none" stroke="#000000" d="M167.8227,-528.6718C98.6288,-506.594 225.7772,-311.7 131.5,-311.7"/>
<polygon fill="#000000" stroke="#000000" points="174.5753,-529.6049 182.0072,-534.2661 178.5377,-530.1524 182.5,-530.7 182.5,-530.7 182.5,-530.7 178.5377,-530.1524 182.9928,-527.1339 174.5753,-529.6049 174.5753,-529.6049"/>
<ellipse fill="none" stroke="#000000" cx="171.4054" cy="-529.1668" rx="3.2" ry="3.2"/>
</g>
<!-- empleados -->
<g id="node5" class="node">
<title>empleados</title>
<g id="a_node5"><a xlink:href="../../tables/empleados.html" xlink:title="empleados" target="_top">
<polygon fill="#ffffff" stroke="transparent" points="288.5,-284.2 288.5,-345.2 384.5,-345.2 384.5,-284.2 288.5,-284.2"/>
<polygon fill="#f5f5f5" stroke="transparent" points="288.5,-321.7 288.5,-344.7 384.5,-344.7 384.5,-321.7 288.5,-321.7"/>
<polygon fill="none" stroke="#000000" points="288.5,-321.7 288.5,-344.7 384.5,-344.7 384.5,-321.7 288.5,-321.7"/>
<text text-anchor="start" x="293.1039" y="-330.8" font-family="Helvetica,sans-Serif" font-weight="bold" font-size="11.00" fill="#000000">empleados</text>
<text text-anchor="start" x="350.0219" y="-329.8" font-family="Helvetica,sans-Serif" font-size="11.00" fill="#000000">[table]</text>
<polygon fill="none" stroke="#000000" points="288.5,-302.7 288.5,-321.7 384.5,-321.7 384.5,-302.7 288.5,-302.7"/>
<text text-anchor="start" x="291.5" y="-308.8" font-family="Helvetica,sans-Serif" font-size="11.00" fill="#000000">...</text>
<polygon fill="#ffffff" stroke="transparent" points="288.5,-283.7 288.5,-302.7 321.5,-302.7 321.5,-283.7 288.5,-283.7"/>
<polygon fill="none" stroke="#000000" points="288.5,-283.7 288.5,-302.7 321.5,-302.7 321.5,-283.7 288.5,-283.7"/>
<text text-anchor="start" x="291.5" y="-289.8" font-family="Helvetica,sans-Serif" font-size="11.00" fill="#000000">&lt; 2</text>
<polygon fill="#ffffff" stroke="transparent" points="321.5,-283.7 321.5,-302.7 365.5,-302.7 365.5,-283.7 321.5,-283.7"/>
<polygon fill="none" stroke="#000000" points="321.5,-283.7 321.5,-302.7 365.5,-302.7 365.5,-283.7 321.5,-283.7"/>
<text text-anchor="start" x="330.1105" y="-289.8" font-family="Helvetica,sans-Serif" font-size="11.00" fill="#000000">2 rows</text>
<polygon fill="#ffffff" stroke="transparent" points="365.5,-283.7 365.5,-302.7 384.5,-302.7 384.5,-283.7 365.5,-283.7"/>
<polygon fill="none" stroke="#000000" points="365.5,-283.7 365.5,-302.7 384.5,-302.7 384.5,-283.7 365.5,-283.7"/>
<text text-anchor="start" x="375.3862" y="-289.8" font-family="Helvetica,sans-Serif" font-size="11.00" fill="#000000"> &#160;</text>
</a>
</g>
</g>
<!-- empleados&#45;&gt;personas -->
<g id="edge4" class="edge">
<title>empleados:w&#45;&gt;personas:e</title>
<path fill="none" stroke="#000000" d="M273.7856,-311.7C215.8445,-311.7 196.099,-311.7 131.5,-311.7"/>
<polygon fill="#000000" stroke="#000000" points="280.5,-311.7001 288.5,-315.3 284.5,-311.7 288.5,-311.7 288.5,-311.7 288.5,-311.7 284.5,-311.7 288.5,-308.1 280.5,-311.7001 280.5,-311.7001"/>
<ellipse fill="none" stroke="#000000" cx="277.3" cy="-311.7001" rx="3.2" ry="3.2"/>
</g>
<!-- leads -->
<g id="node6" class="node">
<title>leads</title>
<g id="a_node6"><a xlink:href="../../tables/leads.html" xlink:title="leads" target="_top">
<polygon fill="#ffffff" stroke="transparent" points="296.5,-202.2 296.5,-263.2 376.5,-263.2 376.5,-202.2 296.5,-202.2"/>
<polygon fill="#f5f5f5" stroke="transparent" points="296.5,-239.7 296.5,-262.7 376.5,-262.7 376.5,-239.7 296.5,-239.7"/>
<polygon fill="none" stroke="#000000" points="296.5,-239.7 296.5,-262.7 376.5,-262.7 376.5,-239.7 296.5,-239.7"/>
<text text-anchor="start" x="301.5" y="-248.8" font-family="Helvetica,sans-Serif" font-weight="bold" font-size="11.00" fill="#000000">leads</text>
<text text-anchor="start" x="341.5437" y="-247.8" font-family="Helvetica,sans-Serif" font-size="11.00" fill="#000000">[table]</text>
<polygon fill="none" stroke="#000000" points="296.5,-220.7 296.5,-239.7 376.5,-239.7 376.5,-220.7 296.5,-220.7"/>
<text text-anchor="start" x="299.5" y="-226.8" font-family="Helvetica,sans-Serif" font-size="11.00" fill="#000000">...</text>
<polygon fill="#ffffff" stroke="transparent" points="296.5,-201.7 296.5,-220.7 317.5,-220.7 317.5,-201.7 296.5,-201.7"/>
<polygon fill="none" stroke="#000000" points="296.5,-201.7 296.5,-220.7 317.5,-220.7 317.5,-201.7 296.5,-201.7"/>
<text text-anchor="start" x="299.2027" y="-207.8" font-family="Helvetica,sans-Serif" font-size="11.00" fill="#000000">&lt; 4</text>
<polygon fill="#ffffff" stroke="transparent" points="317.5,-201.7 317.5,-220.7 355.5,-220.7 355.5,-201.7 317.5,-201.7"/>
<polygon fill="none" stroke="#000000" points="317.5,-201.7 317.5,-220.7 355.5,-220.7 355.5,-201.7 317.5,-201.7"/>
<text text-anchor="start" x="320.3053" y="-207.8" font-family="Helvetica,sans-Serif" font-size="11.00" fill="#000000">6 rows</text>
<polygon fill="#ffffff" stroke="transparent" points="355.5,-201.7 355.5,-220.7 376.5,-220.7 376.5,-201.7 355.5,-201.7"/>
<polygon fill="none" stroke="#000000" points="355.5,-201.7 355.5,-220.7 376.5,-220.7 376.5,-201.7 355.5,-201.7"/>
<text text-anchor="start" x="358.2027" y="-207.8" font-family="Helvetica,sans-Serif" font-size="11.00" fill="#000000">3 &gt;</text>
</a>
</g>
</g>
<!-- leads&#45;&gt;personas -->
<g id="edge5" class="edge">
<title>leads:w&#45;&gt;personas:e</title>
<path fill="none" stroke="#000000" d="M281.9699,-230.0151C234.7907,-232.2033 217.7288,-245.8746 172,-273.7 150.9141,-286.5305 156.1827,-311.7 131.5,-311.7"/>
<polygon fill="#000000" stroke="#000000" points="288.5019,-229.8735 296.5781,-233.2992 292.5009,-229.7867 296.5,-229.7 296.5,-229.7 296.5,-229.7 292.5009,-229.7867 296.4219,-226.1008 288.5019,-229.8735 288.5019,-229.8735"/>
<ellipse fill="none" stroke="#000000" cx="285.3026" cy="-229.9429" rx="3.2" ry="3.2"/>
</g>
<!-- profesores -->
<g id="node7" class="node">
<title>profesores</title>
<g id="a_node7"><a xlink:href="../../tables/profesores.html" xlink:title="profesores" target="_top">
<polygon fill="#ffffff" stroke="transparent" points="289.5,-120.2 289.5,-181.2 383.5,-181.2 383.5,-120.2 289.5,-120.2"/>
<polygon fill="#f5f5f5" stroke="transparent" points="289.5,-157.7 289.5,-180.7 383.5,-180.7 383.5,-157.7 289.5,-157.7"/>
<polygon fill="none" stroke="#000000" points="289.5,-157.7 289.5,-180.7 383.5,-180.7 383.5,-157.7 289.5,-157.7"/>
<text text-anchor="start" x="294.0224" y="-166.8" font-family="Helvetica,sans-Serif" font-weight="bold" font-size="11.00" fill="#000000">profesores</text>
<text text-anchor="start" x="349.0219" y="-165.8" font-family="Helvetica,sans-Serif" font-size="11.00" fill="#000000">[table]</text>
<polygon fill="none" stroke="#000000" points="289.5,-138.7 289.5,-157.7 383.5,-157.7 383.5,-138.7 289.5,-138.7"/>
<text text-anchor="start" x="292.5" y="-144.8" font-family="Helvetica,sans-Serif" font-size="11.00" fill="#000000">...</text>
<polygon fill="#ffffff" stroke="transparent" points="289.5,-119.7 289.5,-138.7 320.5,-138.7 320.5,-119.7 289.5,-119.7"/>
<polygon fill="none" stroke="#000000" points="289.5,-119.7 289.5,-138.7 320.5,-138.7 320.5,-119.7 289.5,-119.7"/>
<text text-anchor="start" x="292.5" y="-125.8" font-family="Helvetica,sans-Serif" font-size="11.00" fill="#000000">&lt; 1</text>
<polygon fill="#ffffff" stroke="transparent" points="320.5,-119.7 320.5,-138.7 357.5,-138.7 357.5,-119.7 320.5,-119.7"/>
<polygon fill="none" stroke="#000000" points="320.5,-119.7 320.5,-138.7 357.5,-138.7 357.5,-119.7 320.5,-119.7"/>
<text text-anchor="start" x="327.6105" y="-125.8" font-family="Helvetica,sans-Serif" font-size="11.00" fill="#000000">1 row</text>
<polygon fill="#ffffff" stroke="transparent" points="357.5,-119.7 357.5,-138.7 383.5,-138.7 383.5,-119.7 357.5,-119.7"/>
<polygon fill="none" stroke="#000000" points="357.5,-119.7 357.5,-138.7 383.5,-138.7 383.5,-119.7 357.5,-119.7"/>
<text text-anchor="start" x="364.9053" y="-125.8" font-family="Helvetica,sans-Serif" font-size="11.00" fill="#000000">1 &gt;</text>
</a>
</g>
</g>
<!-- profesores&#45;&gt;personas -->
<g id="edge7" class="edge">
<title>profesores:w&#45;&gt;personas:e</title>
<path fill="none" stroke="#000000" d="M274.9349,-147.8242C229.3882,-148.7257 207.219,-155.3062 172,-191.7 132.856,-232.1498 187.7889,-311.7 131.5,-311.7"/>
<polygon fill="#000000" stroke="#000000" points="281.5003,-147.7683 289.5307,-151.2999 285.5001,-147.7341 289.5,-147.7 289.5,-147.7 289.5,-147.7 285.5001,-147.7341 289.4693,-144.1001 281.5003,-147.7683 281.5003,-147.7683"/>
<ellipse fill="none" stroke="#000000" cx="278.3004" cy="-147.7956" rx="3.2" ry="3.2"/>
</g>
<!-- telefonos -->
<g id="node8" class="node">
<title>telefonos</title>
<g id="a_node8"><a xlink:href="../../tables/telefonos.html" xlink:title="telefonos" target="_top">
<polygon fill="#ffffff" stroke="transparent" points="293,-38.2 293,-99.2 380,-99.2 380,-38.2 293,-38.2"/>
<polygon fill="#f5f5f5" stroke="transparent" points="293.5,-75.7 293.5,-98.7 380.5,-98.7 380.5,-75.7 293.5,-75.7"/>
<polygon fill="none" stroke="#000000" points="293.5,-75.7 293.5,-98.7 380.5,-98.7 380.5,-75.7 293.5,-75.7"/>
<text text-anchor="start" x="298.1854" y="-84.8" font-family="Helvetica,sans-Serif" font-weight="bold" font-size="11.00" fill="#000000">telefonos</text>
<text text-anchor="start" x="346.0219" y="-83.8" font-family="Helvetica,sans-Serif" font-size="11.00" fill="#000000">[table]</text>
<polygon fill="none" stroke="#000000" points="293.5,-56.7 293.5,-75.7 380.5,-75.7 380.5,-56.7 293.5,-56.7"/>
<text text-anchor="start" x="296.5" y="-62.8" font-family="Helvetica,sans-Serif" font-size="11.00" fill="#000000">...</text>
<polygon fill="#ffffff" stroke="transparent" points="293.5,-37.7 293.5,-56.7 322.5,-56.7 322.5,-37.7 293.5,-37.7"/>
<polygon fill="none" stroke="#000000" points="293.5,-37.7 293.5,-56.7 322.5,-56.7 322.5,-37.7 293.5,-37.7"/>
<text text-anchor="start" x="296.5" y="-43.8" font-family="Helvetica,sans-Serif" font-size="11.00" fill="#000000">&lt; 1</text>
<polygon fill="#ffffff" stroke="transparent" points="322.5,-37.7 322.5,-56.7 364.5,-56.7 364.5,-37.7 322.5,-37.7"/>
<polygon fill="none" stroke="#000000" points="322.5,-37.7 322.5,-56.7 364.5,-56.7 364.5,-37.7 322.5,-37.7"/>
<text text-anchor="start" x="329.1105" y="-43.8" font-family="Helvetica,sans-Serif" font-size="11.00" fill="#000000">5 rows</text>
<polygon fill="#ffffff" stroke="transparent" points="364.5,-37.7 364.5,-56.7 380.5,-56.7 380.5,-37.7 364.5,-37.7"/>
<polygon fill="none" stroke="#000000" points="364.5,-37.7 364.5,-56.7 380.5,-56.7 380.5,-37.7 364.5,-37.7"/>
<text text-anchor="start" x="371.3862" y="-43.8" font-family="Helvetica,sans-Serif" font-size="11.00" fill="#000000"> &#160;</text>
</a>
</g>
</g>
<!-- telefonos&#45;&gt;personas -->
<g id="edge8" class="edge">
<title>telefonos:w&#45;&gt;personas:e</title>
<path fill="none" stroke="#000000" d="M279.0429,-65.7398C231.3075,-66.115 206.17,-69.9947 172,-109.7 112.2729,-179.1026 223.0645,-311.7 131.5,-311.7"/>
<polygon fill="#000000" stroke="#000000" points="285.5,-65.7221 293.5099,-69.3 289.5,-65.711 293.5,-65.7 293.5,-65.7 293.5,-65.7 289.5,-65.711 293.4901,-62.1 285.5,-65.7221 285.5,-65.7221"/>
<ellipse fill="none" stroke="#000000" cx="282.3" cy="-65.7309" rx="3.2" ry="3.2"/>
</g>
</g>
</svg>
