<?xml version="1.0" encoding="UTF-8" standalone="no"?>
<!DOCTYPE svg PUBLIC "-//W3C//DTD SVG 1.1//EN"
 "http://www.w3.org/Graphics/SVG/1.1/DTD/svg11.dtd">
<!-- Generated by graphviz version 2.40.1 (20161225.0304)
 -->
<!-- Title: twoDegreesRelationshipsDiagram Pages: 1 -->
<svg width="771pt" height="971pt"
 viewBox="0.00 0.00 771.00 971.29" xmlns="http://www.w3.org/2000/svg" xmlns:xlink="http://www.w3.org/1999/xlink">
<g id="graph0" class="graph" transform="scale(1 1) rotate(0) translate(4 967.2853)">
<title>twoDegreesRelationshipsDiagram</title>
<polygon fill="#ffffff" stroke="transparent" points="-4,4 -4,-967.2853 767,-967.2853 767,4 -4,4"/>
<text text-anchor="middle" x="72.4936" y="-7.3" font-family="Helvetica,sans-Serif" font-size="11.00" fill="#000000">Generated by SchemaSpy</text>
<!-- ciclo_aulas -->
<g id="node1" class="node">
<title>ciclo_aulas</title>
<g id="a_node1"><a xlink:href="../../tables/ciclo_aulas.html" xlink:title="ciclo_aulas" target="_top">
<polygon fill="#ffffff" stroke="transparent" points="411,-898.2853 411,-959.2853 508,-959.2853 508,-898.2853 411,-898.2853"/>
<polygon fill="#f5f5f5" stroke="transparent" points="411.5,-935.7853 411.5,-958.7853 508.5,-958.7853 508.5,-935.7853 411.5,-935.7853"/>
<polygon fill="none" stroke="#000000" points="411.5,-935.7853 411.5,-958.7853 508.5,-958.7853 508.5,-935.7853 411.5,-935.7853"/>
<text text-anchor="start" x="416.3014" y="-944.8853" font-family="Helvetica,sans-Serif" font-weight="bold" font-size="11.00" fill="#000000">ciclo_aulas</text>
<text text-anchor="start" x="474.0219" y="-943.8853" font-family="Helvetica,sans-Serif" font-size="11.00" fill="#000000">[table]</text>
<polygon fill="none" stroke="#000000" points="411.5,-916.7853 411.5,-935.7853 508.5,-935.7853 508.5,-916.7853 411.5,-916.7853"/>
<text text-anchor="start" x="414.5" y="-922.8853" font-family="Helvetica,sans-Serif" font-size="11.00" fill="#000000">...</text>
<polygon fill="#ffffff" stroke="transparent" points="411.5,-897.7853 411.5,-916.7853 440.5,-916.7853 440.5,-897.7853 411.5,-897.7853"/>
<polygon fill="none" stroke="#000000" points="411.5,-897.7853 411.5,-916.7853 440.5,-916.7853 440.5,-897.7853 411.5,-897.7853"/>
<text text-anchor="start" x="414.5" y="-903.8853" font-family="Helvetica,sans-Serif" font-size="11.00" fill="#000000">&lt; 3</text>
<polygon fill="#ffffff" stroke="transparent" points="440.5,-897.7853 440.5,-916.7853 482.5,-916.7853 482.5,-897.7853 440.5,-897.7853"/>
<polygon fill="none" stroke="#000000" points="440.5,-897.7853 440.5,-916.7853 482.5,-916.7853 482.5,-897.7853 440.5,-897.7853"/>
<text text-anchor="start" x="447.1105" y="-903.8853" font-family="Helvetica,sans-Serif" font-size="11.00" fill="#000000">0 rows</text>
<polygon fill="#ffffff" stroke="transparent" points="482.5,-897.7853 482.5,-916.7853 508.5,-916.7853 508.5,-897.7853 482.5,-897.7853"/>
<polygon fill="none" stroke="#000000" points="482.5,-897.7853 482.5,-916.7853 508.5,-916.7853 508.5,-897.7853 482.5,-897.7853"/>
<text text-anchor="start" x="489.9053" y="-903.8853" font-family="Helvetica,sans-Serif" font-size="11.00" fill="#000000">1 &gt;</text>
</a>
</g>
</g>
<!-- sedes -->
<g id="node2" class="node">
<title>sedes</title>
<g id="a_node2"><a xlink:href="../../tables/sedes.html" xlink:title="sedes" target="_top">
<polygon fill="#ffffff" stroke="transparent" points="131,-506.2853 131,-589.2853 254,-589.2853 254,-506.2853 131,-506.2853"/>
<polygon fill="#f5f5f5" stroke="transparent" points="131.5,-565.7853 131.5,-588.7853 254.5,-588.7853 254.5,-565.7853 131.5,-565.7853"/>
<polygon fill="none" stroke="#000000" points="131.5,-565.7853 131.5,-588.7853 254.5,-588.7853 254.5,-565.7853 131.5,-565.7853"/>
<text text-anchor="start" x="136.5" y="-574.8853" font-family="Helvetica,sans-Serif" font-weight="bold" font-size="11.00" fill="#000000">sedes</text>
<text text-anchor="start" x="219.5437" y="-573.8853" font-family="Helvetica,sans-Serif" font-size="11.00" fill="#000000">[table]</text>
<polygon fill="none" stroke="#000000" points="131.5,-543.7853 131.5,-565.7853 254.5,-565.7853 254.5,-543.7853 131.5,-543.7853"/>
<image xlink:href="../../images/primaryKeys.png" width="11px" height="12px" preserveAspectRatio="xMinYMin meet" x="136.5" y="-560.785"/>
<text text-anchor="start" x="151.5" y="-550.8853" font-family="Helvetica,sans-Serif" font-size="11.00" fill="#000000">sede_id</text>
<polygon fill="none" stroke="#000000" points="131.5,-524.7853 131.5,-543.7853 254.5,-543.7853 254.5,-524.7853 131.5,-524.7853"/>
<text text-anchor="start" x="134.5" y="-530.8853" font-family="Helvetica,sans-Serif" font-size="11.00" fill="#000000">...</text>
<polygon fill="#ffffff" stroke="transparent" points="131.5,-505.7853 131.5,-524.7853 169.5,-524.7853 169.5,-505.7853 131.5,-505.7853"/>
<polygon fill="none" stroke="#000000" points="131.5,-505.7853 131.5,-524.7853 169.5,-524.7853 169.5,-505.7853 131.5,-505.7853"/>
<text text-anchor="start" x="134.5" y="-511.8853" font-family="Helvetica,sans-Serif" font-size="11.00" fill="#000000"> &#160;</text>
<polygon fill="#ffffff" stroke="transparent" points="169.5,-505.7853 169.5,-524.7853 220.5,-524.7853 220.5,-505.7853 169.5,-505.7853"/>
<polygon fill="none" stroke="#000000" points="169.5,-505.7853 169.5,-524.7853 220.5,-524.7853 220.5,-505.7853 169.5,-505.7853"/>
<text text-anchor="start" x="185.1105" y="-511.8853" font-family="Helvetica,sans-Serif" font-size="11.00" fill="#000000">0 rows</text>
<polygon fill="#ffffff" stroke="transparent" points="220.5,-505.7853 220.5,-524.7853 254.5,-524.7853 254.5,-505.7853 220.5,-505.7853"/>
<polygon fill="none" stroke="#000000" points="220.5,-505.7853 220.5,-524.7853 254.5,-524.7853 254.5,-505.7853 220.5,-505.7853"/>
<text text-anchor="start" x="235.9053" y="-511.8853" font-family="Helvetica,sans-Serif" font-size="11.00" fill="#000000">3 &gt;</text>
</a>
</g>
</g>
<!-- ciclo_aulas&#45;&gt;sedes -->
<g id="edge1" class="edge">
<title>ciclo_aulas:w&#45;&gt;sedes:e</title>
<path fill="none" stroke="#000000" d="M396.8644,-925.853C351.8128,-926.1553 326.2647,-925.977 295,-887.7853 247.7798,-830.103 329.0453,-554.7853 254.5,-554.7853"/>
<polygon fill="#000000" stroke="#000000" points="403.5001,-925.8224 411.5167,-929.3853 407.5,-925.8039 411.5,-925.7853 411.5,-925.7853 411.5,-925.7853 407.5,-925.8039 411.4833,-922.1854 403.5001,-925.8224 403.5001,-925.8224"/>
<ellipse fill="none" stroke="#000000" cx="400.3001" cy="-925.8372" rx="3.2" ry="3.2"/>
</g>
<!-- ciudades -->
<g id="node3" class="node">
<title>ciudades</title>
<g id="a_node3"><a xlink:href="../../tables/ciudades.html" xlink:title="ciudades" target="_top">
<polygon fill="#ffffff" stroke="transparent" points="131,-616.2853 131,-721.2853 254,-721.2853 254,-616.2853 131,-616.2853"/>
<polygon fill="#f5f5f5" stroke="transparent" points="131.5,-697.7853 131.5,-720.7853 254.5,-720.7853 254.5,-697.7853 131.5,-697.7853"/>
<polygon fill="none" stroke="#000000" points="131.5,-697.7853 131.5,-720.7853 254.5,-720.7853 254.5,-697.7853 131.5,-697.7853"/>
<text text-anchor="start" x="136.5" y="-706.8853" font-family="Helvetica,sans-Serif" font-weight="bold" font-size="11.00" fill="#000000">ciudades</text>
<text text-anchor="start" x="219.5437" y="-705.8853" font-family="Helvetica,sans-Serif" font-size="11.00" fill="#000000">[table]</text>
<polygon fill="none" stroke="#000000" points="131.5,-675.7853 131.5,-697.7853 254.5,-697.7853 254.5,-675.7853 131.5,-675.7853"/>
<image xlink:href="../../images/primaryKeys.png" width="11px" height="12px" preserveAspectRatio="xMinYMin meet" x="136.5" y="-692.785"/>
<text text-anchor="start" x="151.5" y="-682.8853" font-family="Helvetica,sans-Serif" font-size="11.00" fill="#000000">ciudad_id</text>
<polygon fill="none" stroke="#000000" points="131.5,-653.7853 131.5,-675.7853 254.5,-675.7853 254.5,-653.7853 131.5,-653.7853"/>
<image xlink:href="../../images/foreignKeys.png" width="11px" height="12px" preserveAspectRatio="xMinYMin meet" x="136.5" y="-670.785"/>
<text text-anchor="start" x="151.5" y="-660.8853" font-family="Helvetica,sans-Serif" font-size="11.00" fill="#000000">pais_id</text>
<polygon fill="none" stroke="#000000" points="131.5,-634.7853 131.5,-653.7853 254.5,-653.7853 254.5,-634.7853 131.5,-634.7853"/>
<text text-anchor="start" x="134.5" y="-640.8853" font-family="Helvetica,sans-Serif" font-size="11.00" fill="#000000">...</text>
<polygon fill="#ffffff" stroke="transparent" points="131.5,-615.7853 131.5,-634.7853 173.5,-634.7853 173.5,-615.7853 131.5,-615.7853"/>
<polygon fill="none" stroke="#000000" points="131.5,-615.7853 131.5,-634.7853 173.5,-634.7853 173.5,-615.7853 131.5,-615.7853"/>
<text text-anchor="start" x="134.5" y="-621.8853" font-family="Helvetica,sans-Serif" font-size="11.00" fill="#000000">&lt; 1</text>
<polygon fill="#ffffff" stroke="transparent" points="173.5,-615.7853 173.5,-634.7853 222.5,-634.7853 222.5,-615.7853 173.5,-615.7853"/>
<polygon fill="none" stroke="#000000" points="173.5,-615.7853 173.5,-634.7853 222.5,-634.7853 222.5,-615.7853 173.5,-615.7853"/>
<text text-anchor="start" x="187.1105" y="-621.8853" font-family="Helvetica,sans-Serif" font-size="11.00" fill="#000000">0 rows</text>
<polygon fill="#ffffff" stroke="transparent" points="222.5,-615.7853 222.5,-634.7853 254.5,-634.7853 254.5,-615.7853 222.5,-615.7853"/>
<polygon fill="none" stroke="#000000" points="222.5,-615.7853 222.5,-634.7853 254.5,-634.7853 254.5,-615.7853 222.5,-615.7853"/>
<text text-anchor="start" x="235.9053" y="-621.8853" font-family="Helvetica,sans-Serif" font-size="11.00" fill="#000000">1 &gt;</text>
</a>
</g>
</g>
<!-- paises -->
<g id="node4" class="node">
<title>paises</title>
<g id="a_node4"><a xlink:href="../../tables/paises.html" xlink:title="paises" target="_top">
<polygon fill="#ffffff" stroke="transparent" points="8,-637.2853 8,-698.2853 82,-698.2853 82,-637.2853 8,-637.2853"/>
<polygon fill="#f5f5f5" stroke="transparent" points="8,-674.7853 8,-697.7853 82,-697.7853 82,-674.7853 8,-674.7853"/>
<polygon fill="none" stroke="#000000" points="8,-674.7853 8,-697.7853 82,-697.7853 82,-674.7853 8,-674.7853"/>
<text text-anchor="start" x="12.6072" y="-683.8853" font-family="Helvetica,sans-Serif" font-weight="bold" font-size="11.00" fill="#000000">paises</text>
<text text-anchor="start" x="47.5219" y="-682.8853" font-family="Helvetica,sans-Serif" font-size="11.00" fill="#000000">[table]</text>
<polygon fill="none" stroke="#000000" points="8,-655.7853 8,-674.7853 82,-674.7853 82,-655.7853 8,-655.7853"/>
<text text-anchor="start" x="11" y="-661.8853" font-family="Helvetica,sans-Serif" font-size="11.00" fill="#000000">...</text>
<polygon fill="#ffffff" stroke="transparent" points="8,-636.7853 8,-655.7853 21,-655.7853 21,-636.7853 8,-636.7853"/>
<polygon fill="none" stroke="#000000" points="8,-636.7853 8,-655.7853 21,-655.7853 21,-636.7853 8,-636.7853"/>
<text text-anchor="start" x="11" y="-642.8853" font-family="Helvetica,sans-Serif" font-size="11.00" fill="#000000"> &#160;</text>
<polygon fill="#ffffff" stroke="transparent" points="21,-636.7853 21,-655.7853 60,-655.7853 60,-636.7853 21,-636.7853"/>
<polygon fill="none" stroke="#000000" points="21,-636.7853 21,-655.7853 60,-655.7853 60,-636.7853 21,-636.7853"/>
<text text-anchor="start" x="24.6105" y="-642.8853" font-family="Helvetica,sans-Serif" font-size="11.00" fill="#000000">0 rows</text>
<polygon fill="#ffffff" stroke="transparent" points="60,-636.7853 60,-655.7853 82,-655.7853 82,-636.7853 60,-636.7853"/>
<polygon fill="none" stroke="#000000" points="60,-636.7853 60,-655.7853 82,-655.7853 82,-636.7853 60,-636.7853"/>
<text text-anchor="start" x="63.4053" y="-642.8853" font-family="Helvetica,sans-Serif" font-size="11.00" fill="#000000">1 &gt;</text>
</a>
</g>
</g>
<!-- ciudades&#45;&gt;paises -->
<g id="edge2" class="edge">
<title>ciudades:w&#45;&gt;paises:e</title>
<path fill="none" stroke="#000000" d="M116.8428,-664.7853C105.4139,-664.7853 98.1563,-664.7853 82,-664.7853"/>
<polygon fill="#000000" stroke="#000000" points="123.5,-664.7854 131.5,-668.3853 127.5,-664.7854 131.5,-664.7853 131.5,-664.7853 131.5,-664.7853 127.5,-664.7854 131.5,-661.1853 123.5,-664.7854 123.5,-664.7854"/>
<ellipse fill="none" stroke="#000000" cx="120.3" cy="-664.7854" rx="3.2" ry="3.2"/>
</g>
<!-- contactos -->
<g id="node5" class="node">
<title>contactos</title>
<g id="a_node5"><a xlink:href="../../tables/contactos.html" xlink:title="contactos" target="_top">
<polygon fill="#ffffff" stroke="transparent" points="665,-209.2853 665,-270.2853 755,-270.2853 755,-209.2853 665,-209.2853"/>
<polygon fill="#f5f5f5" stroke="transparent" points="665,-246.7853 665,-269.7853 755,-269.7853 755,-246.7853 665,-246.7853"/>
<polygon fill="none" stroke="#000000" points="665,-246.7853 665,-269.7853 755,-269.7853 755,-246.7853 665,-246.7853"/>
<text text-anchor="start" x="669.9633" y="-255.8853" font-family="Helvetica,sans-Serif" font-weight="bold" font-size="11.00" fill="#000000">contactos</text>
<text text-anchor="start" x="720.5219" y="-254.8853" font-family="Helvetica,sans-Serif" font-size="11.00" fill="#000000">[table]</text>
<polygon fill="none" stroke="#000000" points="665,-227.7853 665,-246.7853 755,-246.7853 755,-227.7853 665,-227.7853"/>
<text text-anchor="start" x="668" y="-233.8853" font-family="Helvetica,sans-Serif" font-size="11.00" fill="#000000">...</text>
<polygon fill="#ffffff" stroke="transparent" points="665,-208.7853 665,-227.7853 694,-227.7853 694,-208.7853 665,-208.7853"/>
<polygon fill="none" stroke="#000000" points="665,-208.7853 665,-227.7853 694,-227.7853 694,-208.7853 665,-208.7853"/>
<text text-anchor="start" x="668" y="-214.8853" font-family="Helvetica,sans-Serif" font-size="11.00" fill="#000000">&lt; 2</text>
<polygon fill="#ffffff" stroke="transparent" points="694,-208.7853 694,-227.7853 730,-227.7853 730,-208.7853 694,-208.7853"/>
<polygon fill="none" stroke="#000000" points="694,-208.7853 694,-227.7853 730,-227.7853 730,-208.7853 694,-208.7853"/>
<text text-anchor="start" x="700.1105" y="-214.8853" font-family="Helvetica,sans-Serif" font-size="11.00" fill="#000000">1 row</text>
<polygon fill="#ffffff" stroke="transparent" points="730,-208.7853 730,-227.7853 755,-227.7853 755,-208.7853 730,-208.7853"/>
<polygon fill="none" stroke="#000000" points="730,-208.7853 730,-227.7853 755,-227.7853 755,-208.7853 730,-208.7853"/>
<text text-anchor="start" x="736.4053" y="-214.8853" font-family="Helvetica,sans-Serif" font-size="11.00" fill="#000000">2 &gt;</text>
</a>
</g>
</g>
<!-- organizaciones -->
<g id="node6" class="node">
<title>organizaciones</title>
<g id="a_node6"><a xlink:href="../../tables/organizaciones.html" xlink:title="organizaciones" target="_top">
<polygon fill="#ffffff" stroke="transparent" points="401.5,-358.2853 401.5,-419.2853 517.5,-419.2853 517.5,-358.2853 401.5,-358.2853"/>
<polygon fill="#f5f5f5" stroke="transparent" points="401.5,-395.7853 401.5,-418.7853 517.5,-418.7853 517.5,-395.7853 401.5,-395.7853"/>
<polygon fill="none" stroke="#000000" points="401.5,-395.7853 401.5,-418.7853 517.5,-418.7853 517.5,-395.7853 401.5,-395.7853"/>
<text text-anchor="start" x="406.0186" y="-404.8853" font-family="Helvetica,sans-Serif" font-weight="bold" font-size="11.00" fill="#000000">organizaciones</text>
<text text-anchor="start" x="483.0219" y="-403.8853" font-family="Helvetica,sans-Serif" font-size="11.00" fill="#000000">[table]</text>
<polygon fill="none" stroke="#000000" points="401.5,-376.7853 401.5,-395.7853 517.5,-395.7853 517.5,-376.7853 401.5,-376.7853"/>
<text text-anchor="start" x="404.5" y="-382.8853" font-family="Helvetica,sans-Serif" font-size="11.00" fill="#000000">...</text>
<polygon fill="#ffffff" stroke="transparent" points="401.5,-357.7853 401.5,-376.7853 440.5,-376.7853 440.5,-357.7853 401.5,-357.7853"/>
<polygon fill="none" stroke="#000000" points="401.5,-357.7853 401.5,-376.7853 440.5,-376.7853 440.5,-357.7853 401.5,-357.7853"/>
<text text-anchor="start" x="404.5" y="-363.8853" font-family="Helvetica,sans-Serif" font-size="11.00" fill="#000000">&lt; 1</text>
<polygon fill="#ffffff" stroke="transparent" points="440.5,-357.7853 440.5,-376.7853 487.5,-376.7853 487.5,-357.7853 440.5,-357.7853"/>
<polygon fill="none" stroke="#000000" points="440.5,-357.7853 440.5,-376.7853 487.5,-376.7853 487.5,-357.7853 440.5,-357.7853"/>
<text text-anchor="start" x="452.1105" y="-363.8853" font-family="Helvetica,sans-Serif" font-size="11.00" fill="#000000">0 rows</text>
<polygon fill="#ffffff" stroke="transparent" points="487.5,-357.7853 487.5,-376.7853 517.5,-376.7853 517.5,-357.7853 487.5,-357.7853"/>
<polygon fill="none" stroke="#000000" points="487.5,-357.7853 487.5,-376.7853 517.5,-376.7853 517.5,-357.7853 487.5,-357.7853"/>
<text text-anchor="start" x="498.9053" y="-363.8853" font-family="Helvetica,sans-Serif" font-size="11.00" fill="#000000">1 &gt;</text>
</a>
</g>
</g>
<!-- contactos&#45;&gt;organizaciones -->
<g id="edge3" class="edge">
<title>contactos:w&#45;&gt;organizaciones:e</title>
<path fill="none" stroke="#000000" d="M650.7645,-239.4735C622.3985,-253.08 657.1574,-314.9939 624,-347.7853 588.2669,-383.124 567.7561,-385.7853 517.5,-385.7853"/>
<polygon fill="#000000" stroke="#000000" points="657.1389,-238.2698 665.668,-240.3228 661.0695,-237.5276 665,-236.7853 665,-236.7853 665,-236.7853 661.0695,-237.5276 664.332,-233.2478 657.1389,-238.2698 657.1389,-238.2698"/>
<ellipse fill="none" stroke="#000000" cx="653.9945" cy="-238.8636" rx="3.2" ry="3.2"/>
</g>
<!-- personas -->
<g id="node7" class="node">
<title>personas</title>
<g id="a_node7"><a xlink:href="../../tables/personas.html" xlink:title="personas" target="_top">
<polygon fill="#ffffff" stroke="transparent" points="131,-255.2853 131,-338.2853 254,-338.2853 254,-255.2853 131,-255.2853"/>
<polygon fill="#f5f5f5" stroke="transparent" points="131.5,-314.7853 131.5,-337.7853 254.5,-337.7853 254.5,-314.7853 131.5,-314.7853"/>
<polygon fill="none" stroke="#000000" points="131.5,-314.7853 131.5,-337.7853 254.5,-337.7853 254.5,-314.7853 131.5,-314.7853"/>
<text text-anchor="start" x="136.5" y="-323.8853" font-family="Helvetica,sans-Serif" font-weight="bold" font-size="11.00" fill="#000000">personas</text>
<text text-anchor="start" x="219.5437" y="-322.8853" font-family="Helvetica,sans-Serif" font-size="11.00" fill="#000000">[table]</text>
<polygon fill="none" stroke="#000000" points="131.5,-292.7853 131.5,-314.7853 254.5,-314.7853 254.5,-292.7853 131.5,-292.7853"/>
<image xlink:href="../../images/primaryKeys.png" width="11px" height="12px" preserveAspectRatio="xMinYMin meet" x="136.5" y="-309.785"/>
<text text-anchor="start" x="151.5" y="-299.8853" font-family="Helvetica,sans-Serif" font-size="11.00" fill="#000000">persona_id</text>
<polygon fill="none" stroke="#000000" points="131.5,-273.7853 131.5,-292.7853 254.5,-292.7853 254.5,-273.7853 131.5,-273.7853"/>
<text text-anchor="start" x="134.5" y="-279.8853" font-family="Helvetica,sans-Serif" font-size="11.00" fill="#000000">...</text>
<polygon fill="#ffffff" stroke="transparent" points="131.5,-254.7853 131.5,-273.7853 169.5,-273.7853 169.5,-254.7853 131.5,-254.7853"/>
<polygon fill="none" stroke="#000000" points="131.5,-254.7853 131.5,-273.7853 169.5,-273.7853 169.5,-254.7853 131.5,-254.7853"/>
<text text-anchor="start" x="134.5" y="-260.8853" font-family="Helvetica,sans-Serif" font-size="11.00" fill="#000000"> &#160;</text>
<polygon fill="#ffffff" stroke="transparent" points="169.5,-254.7853 169.5,-273.7853 220.5,-273.7853 220.5,-254.7853 169.5,-254.7853"/>
<polygon fill="none" stroke="#000000" points="169.5,-254.7853 169.5,-273.7853 220.5,-273.7853 220.5,-254.7853 169.5,-254.7853"/>
<text text-anchor="start" x="185.1105" y="-260.8853" font-family="Helvetica,sans-Serif" font-size="11.00" fill="#000000">2 rows</text>
<polygon fill="#ffffff" stroke="transparent" points="220.5,-254.7853 220.5,-273.7853 254.5,-273.7853 254.5,-254.7853 220.5,-254.7853"/>
<polygon fill="none" stroke="#000000" points="220.5,-254.7853 220.5,-273.7853 254.5,-273.7853 254.5,-254.7853 220.5,-254.7853"/>
<text text-anchor="start" x="235.9053" y="-260.8853" font-family="Helvetica,sans-Serif" font-size="11.00" fill="#000000">7 &gt;</text>
</a>
</g>
</g>
<!-- contactos&#45;&gt;personas -->
<g id="edge4" class="edge">
<title>contactos:w&#45;&gt;personas:e</title>
<path fill="none" stroke="#000000" d="M650.7058,-234.3406C614.7324,-219.0052 669.6497,-135.6299 624,-101.7853 506.539,-14.7001 408.1019,-9.109 295,-101.7853 224.1755,-159.8193 346.0645,-303.7853 254.5,-303.7853"/>
<polygon fill="#000000" stroke="#000000" points="657.1145,-235.4366 664.3931,-240.3338 661.0572,-236.111 665,-236.7853 665,-236.7853 665,-236.7853 661.0572,-236.111 665.6069,-233.2369 657.1145,-235.4366 657.1145,-235.4366"/>
<ellipse fill="none" stroke="#000000" cx="653.9603" cy="-234.8972" rx="3.2" ry="3.2"/>
</g>
<!-- organizaciones&#45;&gt;personas -->
<g id="edge10" class="edge">
<title>organizaciones:w&#45;&gt;personas:e</title>
<path fill="none" stroke="#000000" d="M386.9773,-385.4475C347.98,-383.4741 332.5679,-372.655 295,-347.7853 272.8376,-333.114 281.0786,-303.7853 254.5,-303.7853"/>
<polygon fill="#000000" stroke="#000000" points="393.5022,-385.5993 401.4163,-389.3844 397.5011,-385.6923 401.5,-385.7853 401.5,-385.7853 401.5,-385.7853 397.5011,-385.6923 401.5837,-382.1863 393.5022,-385.5993 393.5022,-385.5993"/>
<ellipse fill="none" stroke="#000000" cx="390.303" cy="-385.5248" rx="3.2" ry="3.2"/>
</g>
<!-- direcciones -->
<g id="node8" class="node">
<title>direcciones</title>
<g id="a_node8"><a xlink:href="../../tables/direcciones.html" xlink:title="direcciones" target="_top">
<polygon fill="#ffffff" stroke="transparent" points="303,-522.7853 303,-876.7853 616,-876.7853 616,-522.7853 303,-522.7853"/>
<polygon fill="#f5f5f5" stroke="transparent" points="305.5,-851.7853 305.5,-874.7853 614.5,-874.7853 614.5,-851.7853 305.5,-851.7853"/>
<polygon fill="none" stroke="#000000" points="305.5,-851.7853 305.5,-874.7853 614.5,-874.7853 614.5,-851.7853 305.5,-851.7853"/>
<text text-anchor="start" x="310.5" y="-860.8853" font-family="Helvetica,sans-Serif" font-weight="bold" font-size="11.00" fill="#000000">direcciones</text>
<text text-anchor="start" x="579.5437" y="-859.8853" font-family="Helvetica,sans-Serif" font-size="11.00" fill="#000000">[table]</text>
<polygon fill="none" stroke="#000000" points="305.5,-829.7853 305.5,-851.7853 428.5,-851.7853 428.5,-829.7853 305.5,-829.7853"/>
<image xlink:href="../../images/primaryKeys.png" width="11px" height="12px" preserveAspectRatio="xMinYMin meet" x="310.5" y="-846.785"/>
<text text-anchor="start" x="325.5" y="-836.8853" font-family="Helvetica,sans-Serif" font-size="11.00" fill="#000000">direccion_id</text>
<polygon fill="none" stroke="#000000" points="428.5,-829.7853 428.5,-851.7853 614.5,-851.7853 614.5,-829.7853 428.5,-829.7853"/>
<text text-anchor="start" x="431.5" y="-837.4853" font-family="Helvetica,sans-Serif" font-size="11.00" fill="#000000">serial[10]</text>
<polygon fill="none" stroke="#000000" points="305.5,-807.7853 305.5,-829.7853 428.5,-829.7853 428.5,-807.7853 305.5,-807.7853"/>
<text text-anchor="start" x="325.5" y="-814.8853" font-family="Helvetica,sans-Serif" font-size="11.00" fill="#000000">calle_1</text>
<polygon fill="none" stroke="#000000" points="428.5,-807.7853 428.5,-829.7853 614.5,-829.7853 614.5,-807.7853 428.5,-807.7853"/>
<text text-anchor="start" x="431.5" y="-815.4853" font-family="Helvetica,sans-Serif" font-size="11.00" fill="#000000">varchar[255]</text>
<polygon fill="none" stroke="#000000" points="305.5,-785.7853 305.5,-807.7853 428.5,-807.7853 428.5,-785.7853 305.5,-785.7853"/>
<text text-anchor="start" x="325.5" y="-792.8853" font-family="Helvetica,sans-Serif" font-size="11.00" fill="#000000">calle_2</text>
<polygon fill="none" stroke="#000000" points="428.5,-785.7853 428.5,-807.7853 614.5,-807.7853 614.5,-785.7853 428.5,-785.7853"/>
<text text-anchor="start" x="431.5" y="-793.4853" font-family="Helvetica,sans-Serif" font-size="11.00" fill="#000000">varchar[255]</text>
<polygon fill="none" stroke="#000000" points="305.5,-763.7853 305.5,-785.7853 428.5,-785.7853 428.5,-763.7853 305.5,-763.7853"/>
<image xlink:href="../../images/foreignKeys.png" width="11px" height="12px" preserveAspectRatio="xMinYMin meet" x="310.5" y="-780.785"/>
<text text-anchor="start" x="325.5" y="-770.8853" font-family="Helvetica,sans-Serif" font-size="11.00" fill="#000000">persona_id</text>
<polygon fill="none" stroke="#000000" points="428.5,-763.7853 428.5,-785.7853 614.5,-785.7853 614.5,-763.7853 428.5,-763.7853"/>
<text text-anchor="start" x="431.5" y="-771.4853" font-family="Helvetica,sans-Serif" font-size="11.00" fill="#000000">int4[10]</text>
<polygon fill="none" stroke="#000000" points="305.5,-741.7853 305.5,-763.7853 428.5,-763.7853 428.5,-741.7853 305.5,-741.7853"/>
<text text-anchor="start" x="325.5" y="-748.8853" font-family="Helvetica,sans-Serif" font-size="11.00" fill="#000000">cod_postal</text>
<polygon fill="none" stroke="#000000" points="428.5,-741.7853 428.5,-763.7853 614.5,-763.7853 614.5,-741.7853 428.5,-741.7853"/>
<text text-anchor="start" x="431.5" y="-749.4853" font-family="Helvetica,sans-Serif" font-size="11.00" fill="#000000">varchar[30]</text>
<polygon fill="none" stroke="#000000" points="305.5,-719.7853 305.5,-741.7853 428.5,-741.7853 428.5,-719.7853 305.5,-719.7853"/>
<text text-anchor="start" x="325.5" y="-726.8853" font-family="Helvetica,sans-Serif" font-size="11.00" fill="#000000">tipo</text>
<polygon fill="none" stroke="#000000" points="428.5,-719.7853 428.5,-741.7853 614.5,-741.7853 614.5,-719.7853 428.5,-719.7853"/>
<text text-anchor="start" x="431.3275" y="-727.4853" font-family="Helvetica,sans-Serif" font-size="11.00" fill="#000000">enum_direcciones_tipo[2147483647]</text>
<polygon fill="none" stroke="#000000" points="305.5,-697.7853 305.5,-719.7853 428.5,-719.7853 428.5,-697.7853 305.5,-697.7853"/>
<text text-anchor="start" x="325.5" y="-704.8853" font-family="Helvetica,sans-Serif" font-size="11.00" fill="#000000">referencia</text>
<polygon fill="none" stroke="#000000" points="428.5,-697.7853 428.5,-719.7853 614.5,-719.7853 614.5,-697.7853 428.5,-697.7853"/>
<text text-anchor="start" x="431.5" y="-705.4853" font-family="Helvetica,sans-Serif" font-size="11.00" fill="#000000">text[2147483647]</text>
<polygon fill="none" stroke="#000000" points="305.5,-675.7853 305.5,-697.7853 428.5,-697.7853 428.5,-675.7853 305.5,-675.7853"/>
<image xlink:href="../../images/foreignKeys.png" width="11px" height="12px" preserveAspectRatio="xMinYMin meet" x="310.5" y="-692.785"/>
<text text-anchor="start" x="325.5" y="-682.8853" font-family="Helvetica,sans-Serif" font-size="11.00" fill="#000000">ciudad_id</text>
<polygon fill="none" stroke="#000000" points="428.5,-675.7853 428.5,-697.7853 614.5,-697.7853 614.5,-675.7853 428.5,-675.7853"/>
<text text-anchor="start" x="431.5" y="-683.4853" font-family="Helvetica,sans-Serif" font-size="11.00" fill="#000000">int4[10]</text>
<polygon fill="none" stroke="#000000" points="305.5,-653.7853 305.5,-675.7853 428.5,-675.7853 428.5,-653.7853 305.5,-653.7853"/>
<text text-anchor="start" x="325.5" y="-660.8853" font-family="Helvetica,sans-Serif" font-size="11.00" fill="#000000">principal</text>
<polygon fill="none" stroke="#000000" points="428.5,-653.7853 428.5,-675.7853 614.5,-675.7853 614.5,-653.7853 428.5,-653.7853"/>
<text text-anchor="start" x="431.5" y="-661.4853" font-family="Helvetica,sans-Serif" font-size="11.00" fill="#000000">bool[1]</text>
<polygon fill="none" stroke="#000000" points="305.5,-631.7853 305.5,-653.7853 428.5,-653.7853 428.5,-631.7853 305.5,-631.7853"/>
<text text-anchor="start" x="325.5" y="-638.8853" font-family="Helvetica,sans-Serif" font-size="11.00" fill="#000000">usu_insercion</text>
<polygon fill="none" stroke="#000000" points="428.5,-631.7853 428.5,-653.7853 614.5,-653.7853 614.5,-631.7853 428.5,-631.7853"/>
<text text-anchor="start" x="431.5" y="-639.4853" font-family="Helvetica,sans-Serif" font-size="11.00" fill="#000000">varchar[20]</text>
<polygon fill="none" stroke="#000000" points="305.5,-609.7853 305.5,-631.7853 428.5,-631.7853 428.5,-609.7853 305.5,-609.7853"/>
<text text-anchor="start" x="325.5" y="-616.8853" font-family="Helvetica,sans-Serif" font-size="11.00" fill="#000000">fec_insercion</text>
<polygon fill="none" stroke="#000000" points="428.5,-609.7853 428.5,-631.7853 614.5,-631.7853 614.5,-609.7853 428.5,-609.7853"/>
<text text-anchor="start" x="431.5" y="-617.4853" font-family="Helvetica,sans-Serif" font-size="11.00" fill="#000000">timestamptz[35,6]</text>
<polygon fill="none" stroke="#000000" points="305.5,-587.7853 305.5,-609.7853 428.5,-609.7853 428.5,-587.7853 305.5,-587.7853"/>
<text text-anchor="start" x="325.5" y="-594.8853" font-family="Helvetica,sans-Serif" font-size="11.00" fill="#000000">fec_modificacion</text>
<polygon fill="none" stroke="#000000" points="428.5,-587.7853 428.5,-609.7853 614.5,-609.7853 614.5,-587.7853 428.5,-587.7853"/>
<text text-anchor="start" x="431.5" y="-595.4853" font-family="Helvetica,sans-Serif" font-size="11.00" fill="#000000">timestamptz[35,6]</text>
<polygon fill="none" stroke="#000000" points="305.5,-565.7853 305.5,-587.7853 428.5,-587.7853 428.5,-565.7853 305.5,-565.7853"/>
<text text-anchor="start" x="325.5" y="-572.8853" font-family="Helvetica,sans-Serif" font-size="11.00" fill="#000000">usu_modificacion</text>
<polygon fill="none" stroke="#000000" points="428.5,-565.7853 428.5,-587.7853 614.5,-587.7853 614.5,-565.7853 428.5,-565.7853"/>
<text text-anchor="start" x="431.5" y="-573.4853" font-family="Helvetica,sans-Serif" font-size="11.00" fill="#000000">varchar[20]</text>
<polygon fill="none" stroke="#000000" points="305.5,-543.7853 305.5,-565.7853 428.5,-565.7853 428.5,-543.7853 305.5,-543.7853"/>
<image xlink:href="../../images/foreignKeys.png" width="11px" height="12px" preserveAspectRatio="xMinYMin meet" x="310.5" y="-560.785"/>
<text text-anchor="start" x="325.5" y="-550.8853" font-family="Helvetica,sans-Serif" font-size="11.00" fill="#000000">sede_id</text>
<polygon fill="none" stroke="#000000" points="428.5,-543.7853 428.5,-565.7853 614.5,-565.7853 614.5,-543.7853 428.5,-543.7853"/>
<text text-anchor="start" x="431.5" y="-551.4853" font-family="Helvetica,sans-Serif" font-size="11.00" fill="#000000">int4[10]</text>
<polygon fill="#ffffff" stroke="transparent" points="305.5,-524.7853 305.5,-543.7853 358.5,-543.7853 358.5,-524.7853 305.5,-524.7853"/>
<polygon fill="none" stroke="#000000" points="305.5,-524.7853 305.5,-543.7853 358.5,-543.7853 358.5,-524.7853 305.5,-524.7853"/>
<text text-anchor="start" x="308.5" y="-530.8853" font-family="Helvetica,sans-Serif" font-size="11.00" fill="#000000">&lt; 3</text>
<polygon fill="#ffffff" stroke="transparent" points="358.5,-524.7853 358.5,-543.7853 428.5,-543.7853 428.5,-524.7853 358.5,-524.7853"/>
<polygon fill="none" stroke="#000000" points="358.5,-524.7853 358.5,-543.7853 428.5,-543.7853 428.5,-524.7853 358.5,-524.7853"/>
<text text-anchor="start" x="393.1105" y="-530.8853" font-family="Helvetica,sans-Serif" font-size="11.00" fill="#000000">0 rows</text>
<polygon fill="#ffffff" stroke="transparent" points="428.5,-524.7853 428.5,-543.7853 614.5,-543.7853 614.5,-524.7853 428.5,-524.7853"/>
<polygon fill="none" stroke="#000000" points="428.5,-524.7853 428.5,-543.7853 614.5,-543.7853 614.5,-524.7853 428.5,-524.7853"/>
<text text-anchor="start" x="595.9053" y="-530.8853" font-family="Helvetica,sans-Serif" font-size="11.00" fill="#000000">0 &gt;</text>
<polygon fill="none" stroke="#000000" stroke-width="2" points="304,-523.7853 304,-875.7853 615,-875.7853 615,-523.7853 304,-523.7853"/>
</a>
</g>
</g>
<!-- direcciones&#45;&gt;sedes -->
<g id="edge7" class="edge">
<title>direcciones:w&#45;&gt;sedes:e</title>
<path fill="none" stroke="#000000" d="M290.776,-554.7853C278.7815,-554.7853 271.3229,-554.7853 254.5,-554.7853"/>
<polygon fill="#000000" stroke="#000000" points="297.5,-554.7854 305.5,-558.3853 301.5,-554.7854 305.5,-554.7853 305.5,-554.7853 305.5,-554.7853 301.5,-554.7854 305.5,-551.1853 297.5,-554.7854 297.5,-554.7854"/>
<ellipse fill="none" stroke="#000000" cx="294.3" cy="-554.7854" rx="3.2" ry="3.2"/>
</g>
<!-- direcciones&#45;&gt;ciudades -->
<g id="edge5" class="edge">
<title>direcciones:w&#45;&gt;ciudades:e</title>
<path fill="none" stroke="#000000" d="M290.776,-686.7853C278.7815,-686.7853 271.3229,-686.7853 254.5,-686.7853"/>
<polygon fill="#000000" stroke="#000000" points="297.5,-686.7854 305.5,-690.3853 301.5,-686.7854 305.5,-686.7853 305.5,-686.7853 305.5,-686.7853 301.5,-686.7854 305.5,-683.1853 297.5,-686.7854 297.5,-686.7854"/>
<ellipse fill="none" stroke="#000000" cx="294.3" cy="-686.7854" rx="3.2" ry="3.2"/>
</g>
<!-- direcciones&#45;&gt;personas -->
<g id="edge6" class="edge">
<title>direcciones:w&#45;&gt;personas:e</title>
<path fill="none" stroke="#000000" d="M291.4409,-771.2649C215.7436,-728.164 354.4323,-303.7853 254.5,-303.7853"/>
<polygon fill="#000000" stroke="#000000" points="297.7396,-772.8421 304.6255,-778.2775 301.6198,-773.8137 305.5,-774.7853 305.5,-774.7853 305.5,-774.7853 301.6198,-773.8137 306.3745,-771.2931 297.7396,-772.8421 297.7396,-772.8421"/>
<ellipse fill="none" stroke="#000000" cx="294.6354" cy="-772.0648" rx="3.2" ry="3.2"/>
</g>
<!-- empleados -->
<g id="node9" class="node">
<title>empleados</title>
<g id="a_node9"><a xlink:href="../../tables/empleados.html" xlink:title="empleados" target="_top">
<polygon fill="#ffffff" stroke="transparent" points="411.5,-276.2853 411.5,-337.2853 507.5,-337.2853 507.5,-276.2853 411.5,-276.2853"/>
<polygon fill="#f5f5f5" stroke="transparent" points="411.5,-313.7853 411.5,-336.7853 507.5,-336.7853 507.5,-313.7853 411.5,-313.7853"/>
<polygon fill="none" stroke="#000000" points="411.5,-313.7853 411.5,-336.7853 507.5,-336.7853 507.5,-313.7853 411.5,-313.7853"/>
<text text-anchor="start" x="416.1039" y="-322.8853" font-family="Helvetica,sans-Serif" font-weight="bold" font-size="11.00" fill="#000000">empleados</text>
<text text-anchor="start" x="473.0219" y="-321.8853" font-family="Helvetica,sans-Serif" font-size="11.00" fill="#000000">[table]</text>
<polygon fill="none" stroke="#000000" points="411.5,-294.7853 411.5,-313.7853 507.5,-313.7853 507.5,-294.7853 411.5,-294.7853"/>
<text text-anchor="start" x="414.5" y="-300.8853" font-family="Helvetica,sans-Serif" font-size="11.00" fill="#000000">...</text>
<polygon fill="#ffffff" stroke="transparent" points="411.5,-275.7853 411.5,-294.7853 447.5,-294.7853 447.5,-275.7853 411.5,-275.7853"/>
<polygon fill="none" stroke="#000000" points="411.5,-275.7853 411.5,-294.7853 447.5,-294.7853 447.5,-275.7853 411.5,-275.7853"/>
<text text-anchor="start" x="414.5" y="-281.8853" font-family="Helvetica,sans-Serif" font-size="11.00" fill="#000000">&lt; 2</text>
<polygon fill="#ffffff" stroke="transparent" points="447.5,-275.7853 447.5,-294.7853 487.5,-294.7853 487.5,-275.7853 447.5,-275.7853"/>
<polygon fill="none" stroke="#000000" points="447.5,-275.7853 447.5,-294.7853 487.5,-294.7853 487.5,-275.7853 447.5,-275.7853"/>
<text text-anchor="start" x="457.6105" y="-281.8853" font-family="Helvetica,sans-Serif" font-size="11.00" fill="#000000">1 row</text>
<polygon fill="#ffffff" stroke="transparent" points="487.5,-275.7853 487.5,-294.7853 507.5,-294.7853 507.5,-275.7853 487.5,-275.7853"/>
<polygon fill="none" stroke="#000000" points="487.5,-275.7853 487.5,-294.7853 507.5,-294.7853 507.5,-275.7853 487.5,-275.7853"/>
<text text-anchor="start" x="498.3862" y="-281.8853" font-family="Helvetica,sans-Serif" font-size="11.00" fill="#000000"> &#160;</text>
</a>
</g>
</g>
<!-- empleados&#45;&gt;personas -->
<g id="edge8" class="edge">
<title>empleados:w&#45;&gt;personas:e</title>
<path fill="none" stroke="#000000" d="M396.7856,-303.7853C338.8445,-303.7853 319.099,-303.7853 254.5,-303.7853"/>
<polygon fill="#000000" stroke="#000000" points="403.5,-303.7854 411.5,-307.3853 407.5,-303.7854 411.5,-303.7853 411.5,-303.7853 411.5,-303.7853 407.5,-303.7854 411.5,-300.1853 403.5,-303.7854 403.5,-303.7854"/>
<ellipse fill="none" stroke="#000000" cx="400.3" cy="-303.7854" rx="3.2" ry="3.2"/>
</g>
<!-- leads -->
<g id="node10" class="node">
<title>leads</title>
<g id="a_node10"><a xlink:href="../../tables/leads.html" xlink:title="leads" target="_top">
<polygon fill="#ffffff" stroke="transparent" points="424,-194.2853 424,-255.2853 495,-255.2853 495,-194.2853 424,-194.2853"/>
<polygon fill="#f5f5f5" stroke="transparent" points="424.5,-231.7853 424.5,-254.7853 495.5,-254.7853 495.5,-231.7853 424.5,-231.7853"/>
<polygon fill="none" stroke="#000000" points="424.5,-231.7853 424.5,-254.7853 495.5,-254.7853 495.5,-231.7853 424.5,-231.7853"/>
<text text-anchor="start" x="429.5" y="-240.8853" font-family="Helvetica,sans-Serif" font-weight="bold" font-size="11.00" fill="#000000">leads</text>
<text text-anchor="start" x="460.5437" y="-239.8853" font-family="Helvetica,sans-Serif" font-size="11.00" fill="#000000">[table]</text>
<polygon fill="none" stroke="#000000" points="424.5,-212.7853 424.5,-231.7853 495.5,-231.7853 495.5,-212.7853 424.5,-212.7853"/>
<text text-anchor="start" x="427.5" y="-218.8853" font-family="Helvetica,sans-Serif" font-size="11.00" fill="#000000">...</text>
<polygon fill="#ffffff" stroke="transparent" points="424.5,-193.7853 424.5,-212.7853 445.5,-212.7853 445.5,-193.7853 424.5,-193.7853"/>
<polygon fill="none" stroke="#000000" points="424.5,-193.7853 424.5,-212.7853 445.5,-212.7853 445.5,-193.7853 424.5,-193.7853"/>
<text text-anchor="start" x="427.2027" y="-199.8853" font-family="Helvetica,sans-Serif" font-size="11.00" fill="#000000">&lt; 4</text>
<polygon fill="#ffffff" stroke="transparent" points="445.5,-193.7853 445.5,-212.7853 483.5,-212.7853 483.5,-193.7853 445.5,-193.7853"/>
<polygon fill="none" stroke="#000000" points="445.5,-193.7853 445.5,-212.7853 483.5,-212.7853 483.5,-193.7853 445.5,-193.7853"/>
<text text-anchor="start" x="448.3053" y="-199.8853" font-family="Helvetica,sans-Serif" font-size="11.00" fill="#000000">0 rows</text>
<polygon fill="#ffffff" stroke="transparent" points="483.5,-193.7853 483.5,-212.7853 495.5,-212.7853 495.5,-193.7853 483.5,-193.7853"/>
<polygon fill="none" stroke="#000000" points="483.5,-193.7853 483.5,-212.7853 495.5,-212.7853 495.5,-193.7853 483.5,-193.7853"/>
<text text-anchor="start" x="486.4431" y="-199.8853" font-family="Helvetica,sans-Serif" font-size="11.00" fill="#000000"> &#160;</text>
</a>
</g>
</g>
<!-- leads&#45;&gt;personas -->
<g id="edge9" class="edge">
<title>leads:w&#45;&gt;personas:e</title>
<path fill="none" stroke="#000000" d="M410.0725,-222.0579C360.6754,-224.0526 342.7432,-237.1312 295,-265.7853 273.8364,-278.4871 279.1827,-303.7853 254.5,-303.7853"/>
<polygon fill="#000000" stroke="#000000" points="416.5014,-221.9365 424.568,-225.3847 420.5007,-221.8609 424.5,-221.7853 424.5,-221.7853 424.5,-221.7853 420.5007,-221.8609 424.432,-218.186 416.5014,-221.9365 416.5014,-221.9365"/>
<ellipse fill="none" stroke="#000000" cx="413.302" cy="-221.997" rx="3.2" ry="3.2"/>
</g>
<!-- profesores -->
<g id="node11" class="node">
<title>profesores</title>
<g id="a_node11"><a xlink:href="../../tables/profesores.html" xlink:title="profesores" target="_top">
<polygon fill="#ffffff" stroke="transparent" points="412.5,-112.2853 412.5,-173.2853 506.5,-173.2853 506.5,-112.2853 412.5,-112.2853"/>
<polygon fill="#f5f5f5" stroke="transparent" points="412.5,-149.7853 412.5,-172.7853 506.5,-172.7853 506.5,-149.7853 412.5,-149.7853"/>
<polygon fill="none" stroke="#000000" points="412.5,-149.7853 412.5,-172.7853 506.5,-172.7853 506.5,-149.7853 412.5,-149.7853"/>
<text text-anchor="start" x="417.0224" y="-158.8853" font-family="Helvetica,sans-Serif" font-weight="bold" font-size="11.00" fill="#000000">profesores</text>
<text text-anchor="start" x="472.0219" y="-157.8853" font-family="Helvetica,sans-Serif" font-size="11.00" fill="#000000">[table]</text>
<polygon fill="none" stroke="#000000" points="412.5,-130.7853 412.5,-149.7853 506.5,-149.7853 506.5,-130.7853 412.5,-130.7853"/>
<text text-anchor="start" x="415.5" y="-136.8853" font-family="Helvetica,sans-Serif" font-size="11.00" fill="#000000">...</text>
<polygon fill="#ffffff" stroke="transparent" points="412.5,-111.7853 412.5,-130.7853 440.5,-130.7853 440.5,-111.7853 412.5,-111.7853"/>
<polygon fill="none" stroke="#000000" points="412.5,-111.7853 412.5,-130.7853 440.5,-130.7853 440.5,-111.7853 412.5,-111.7853"/>
<text text-anchor="start" x="415.5" y="-117.8853" font-family="Helvetica,sans-Serif" font-size="11.00" fill="#000000">&lt; 1</text>
<polygon fill="#ffffff" stroke="transparent" points="440.5,-111.7853 440.5,-130.7853 481.5,-130.7853 481.5,-111.7853 440.5,-111.7853"/>
<polygon fill="none" stroke="#000000" points="440.5,-111.7853 440.5,-130.7853 481.5,-130.7853 481.5,-111.7853 440.5,-111.7853"/>
<text text-anchor="start" x="446.1105" y="-117.8853" font-family="Helvetica,sans-Serif" font-size="11.00" fill="#000000">0 rows</text>
<polygon fill="#ffffff" stroke="transparent" points="481.5,-111.7853 481.5,-130.7853 506.5,-130.7853 506.5,-111.7853 481.5,-111.7853"/>
<polygon fill="none" stroke="#000000" points="481.5,-111.7853 481.5,-130.7853 506.5,-130.7853 506.5,-111.7853 481.5,-111.7853"/>
<text text-anchor="start" x="487.9053" y="-117.8853" font-family="Helvetica,sans-Serif" font-size="11.00" fill="#000000">1 &gt;</text>
</a>
</g>
</g>
<!-- profesores&#45;&gt;personas -->
<g id="edge11" class="edge">
<title>profesores:w&#45;&gt;personas:e</title>
<path fill="none" stroke="#000000" d="M397.9349,-139.9095C352.3882,-140.811 330.219,-147.3915 295,-183.7853 255.856,-224.2352 310.7889,-303.7853 254.5,-303.7853"/>
<polygon fill="#000000" stroke="#000000" points="404.5003,-139.8536 412.5307,-143.3852 408.5001,-139.8195 412.5,-139.7853 412.5,-139.7853 412.5,-139.7853 408.5001,-139.8195 412.4693,-136.1855 404.5003,-139.8536 404.5003,-139.8536"/>
<ellipse fill="none" stroke="#000000" cx="401.3004" cy="-139.8809" rx="3.2" ry="3.2"/>
</g>
<!-- telefonos -->
<g id="node12" class="node">
<title>telefonos</title>
<g id="a_node12"><a xlink:href="../../tables/telefonos.html" xlink:title="telefonos" target="_top">
<polygon fill="#ffffff" stroke="transparent" points="416,-440.2853 416,-501.2853 503,-501.2853 503,-440.2853 416,-440.2853"/>
<polygon fill="#f5f5f5" stroke="transparent" points="416.5,-477.7853 416.5,-500.7853 503.5,-500.7853 503.5,-477.7853 416.5,-477.7853"/>
<polygon fill="none" stroke="#000000" points="416.5,-477.7853 416.5,-500.7853 503.5,-500.7853 503.5,-477.7853 416.5,-477.7853"/>
<text text-anchor="start" x="421.1854" y="-486.8853" font-family="Helvetica,sans-Serif" font-weight="bold" font-size="11.00" fill="#000000">telefonos</text>
<text text-anchor="start" x="469.0219" y="-485.8853" font-family="Helvetica,sans-Serif" font-size="11.00" fill="#000000">[table]</text>
<polygon fill="none" stroke="#000000" points="416.5,-458.7853 416.5,-477.7853 503.5,-477.7853 503.5,-458.7853 416.5,-458.7853"/>
<text text-anchor="start" x="419.5" y="-464.8853" font-family="Helvetica,sans-Serif" font-size="11.00" fill="#000000">...</text>
<polygon fill="#ffffff" stroke="transparent" points="416.5,-439.7853 416.5,-458.7853 445.5,-458.7853 445.5,-439.7853 416.5,-439.7853"/>
<polygon fill="none" stroke="#000000" points="416.5,-439.7853 416.5,-458.7853 445.5,-458.7853 445.5,-439.7853 416.5,-439.7853"/>
<text text-anchor="start" x="419.5" y="-445.8853" font-family="Helvetica,sans-Serif" font-size="11.00" fill="#000000">&lt; 2</text>
<polygon fill="#ffffff" stroke="transparent" points="445.5,-439.7853 445.5,-458.7853 487.5,-458.7853 487.5,-439.7853 445.5,-439.7853"/>
<polygon fill="none" stroke="#000000" points="445.5,-439.7853 445.5,-458.7853 487.5,-458.7853 487.5,-439.7853 445.5,-439.7853"/>
<text text-anchor="start" x="452.1105" y="-445.8853" font-family="Helvetica,sans-Serif" font-size="11.00" fill="#000000">0 rows</text>
<polygon fill="#ffffff" stroke="transparent" points="487.5,-439.7853 487.5,-458.7853 503.5,-458.7853 503.5,-439.7853 487.5,-439.7853"/>
<polygon fill="none" stroke="#000000" points="487.5,-439.7853 487.5,-458.7853 503.5,-458.7853 503.5,-439.7853 487.5,-439.7853"/>
<text text-anchor="start" x="494.3862" y="-445.8853" font-family="Helvetica,sans-Serif" font-size="11.00" fill="#000000"> &#160;</text>
</a>
</g>
</g>
<!-- telefonos&#45;&gt;sedes -->
<g id="edge13" class="edge">
<title>telefonos:w&#45;&gt;sedes:e</title>
<path fill="none" stroke="#000000" d="M401.939,-468.1151C355.8283,-470.3537 338.8646,-484.1004 295,-512.7853 273.2971,-526.9778 280.4315,-554.7853 254.5,-554.7853"/>
<polygon fill="#000000" stroke="#000000" points="408.5021,-467.9665 416.5815,-471.3844 412.501,-467.8759 416.5,-467.7853 416.5,-467.7853 416.5,-467.7853 412.501,-467.8759 416.4185,-464.1863 408.5021,-467.9665 408.5021,-467.9665"/>
<ellipse fill="none" stroke="#000000" cx="405.3029" cy="-468.039" rx="3.2" ry="3.2"/>
</g>
<!-- telefonos&#45;&gt;personas -->
<g id="edge12" class="edge">
<title>telefonos:w&#45;&gt;personas:e</title>
<path fill="none" stroke="#000000" d="M401.9865,-467.7985C355.3479,-467.7811 331.5564,-466.0549 295,-429.7853 253.2432,-388.3562 313.3218,-303.7853 254.5,-303.7853"/>
<polygon fill="#000000" stroke="#000000" points="408.5,-467.7927 416.5033,-471.3853 412.5,-467.789 416.5,-467.7853 416.5,-467.7853 416.5,-467.7853 412.5,-467.789 416.4967,-464.1853 408.5,-467.7927 408.5,-467.7927"/>
<ellipse fill="none" stroke="#000000" cx="405.3" cy="-467.7956" rx="3.2" ry="3.2"/>
</g>
</g>
</svg>
