<?xml version="1.0" encoding="UTF-8" standalone="no"?>
<!DOCTYPE svg PUBLIC "-//W3C//DTD SVG 1.1//EN"
 "http://www.w3.org/Graphics/SVG/1.1/DTD/svg11.dtd">
<!-- Generated by graphviz version 2.40.1 (20161225.0304)
 -->
<!-- Title: twoDegreesRelationshipsDiagram Pages: 1 -->
<svg width="648pt" height="694pt"
 viewBox="0.00 0.00 648.00 694.20" xmlns="http://www.w3.org/2000/svg" xmlns:xlink="http://www.w3.org/1999/xlink">
<g id="graph0" class="graph" transform="scale(1 1) rotate(0) translate(4 690.2)">
<title>twoDegreesRelationshipsDiagram</title>
<polygon fill="#ffffff" stroke="transparent" points="-4,4 -4,-690.2 644,-690.2 644,4 -4,4"/>
<text text-anchor="middle" x="72.4936" y="-7.3" font-family="Helvetica,sans-Serif" font-size="11.00" fill="#000000">Generated by SchemaSpy</text>
<!-- contactos -->
<g id="node1" class="node">
<title>contactos</title>
<g id="a_node1"><a xlink:href="../../tables/contactos.html" xlink:title="contactos" target="_top">
<polygon fill="#ffffff" stroke="transparent" points="542,-595.2 542,-656.2 632,-656.2 632,-595.2 542,-595.2"/>
<polygon fill="#f5f5f5" stroke="transparent" points="542,-632.7 542,-655.7 632,-655.7 632,-632.7 542,-632.7"/>
<polygon fill="none" stroke="#000000" points="542,-632.7 542,-655.7 632,-655.7 632,-632.7 542,-632.7"/>
<text text-anchor="start" x="546.9633" y="-641.8" font-family="Helvetica,sans-Serif" font-weight="bold" font-size="11.00" fill="#000000">contactos</text>
<text text-anchor="start" x="597.5219" y="-640.8" font-family="Helvetica,sans-Serif" font-size="11.00" fill="#000000">[table]</text>
<polygon fill="none" stroke="#000000" points="542,-613.7 542,-632.7 632,-632.7 632,-613.7 542,-613.7"/>
<text text-anchor="start" x="545" y="-619.8" font-family="Helvetica,sans-Serif" font-size="11.00" fill="#000000">...</text>
<polygon fill="#ffffff" stroke="transparent" points="542,-594.7 542,-613.7 568,-613.7 568,-594.7 542,-594.7"/>
<polygon fill="none" stroke="#000000" points="542,-594.7 542,-613.7 568,-613.7 568,-594.7 542,-594.7"/>
<text text-anchor="start" x="545" y="-600.8" font-family="Helvetica,sans-Serif" font-size="11.00" fill="#000000">&lt; 2</text>
<polygon fill="#ffffff" stroke="transparent" points="568,-594.7 568,-613.7 608,-613.7 608,-594.7 568,-594.7"/>
<polygon fill="none" stroke="#000000" points="568,-594.7 568,-613.7 608,-613.7 608,-594.7 568,-594.7"/>
<text text-anchor="start" x="572.6105" y="-600.8" font-family="Helvetica,sans-Serif" font-size="11.00" fill="#000000">5 rows</text>
<polygon fill="#ffffff" stroke="transparent" points="608,-594.7 608,-613.7 632,-613.7 632,-594.7 608,-594.7"/>
<polygon fill="none" stroke="#000000" points="608,-594.7 608,-613.7 632,-613.7 632,-594.7 608,-594.7"/>
<text text-anchor="start" x="613.4053" y="-600.8" font-family="Helvetica,sans-Serif" font-size="11.00" fill="#000000">5 &gt;</text>
</a>
</g>
</g>
<!-- organizaciones -->
<g id="node2" class="node">
<title>organizaciones</title>
<g id="a_node2"><a xlink:href="../../tables/organizaciones.html" xlink:title="organizaciones" target="_top">
<polygon fill="#ffffff" stroke="transparent" points="278.5,-621.2 278.5,-682.2 394.5,-682.2 394.5,-621.2 278.5,-621.2"/>
<polygon fill="#f5f5f5" stroke="transparent" points="278.5,-658.7 278.5,-681.7 394.5,-681.7 394.5,-658.7 278.5,-658.7"/>
<polygon fill="none" stroke="#000000" points="278.5,-658.7 278.5,-681.7 394.5,-681.7 394.5,-658.7 278.5,-658.7"/>
<text text-anchor="start" x="283.0186" y="-667.8" font-family="Helvetica,sans-Serif" font-weight="bold" font-size="11.00" fill="#000000">organizaciones</text>
<text text-anchor="start" x="360.0219" y="-666.8" font-family="Helvetica,sans-Serif" font-size="11.00" fill="#000000">[table]</text>
<polygon fill="none" stroke="#000000" points="278.5,-639.7 278.5,-658.7 394.5,-658.7 394.5,-639.7 278.5,-639.7"/>
<text text-anchor="start" x="281.5" y="-645.8" font-family="Helvetica,sans-Serif" font-size="11.00" fill="#000000">...</text>
<polygon fill="#ffffff" stroke="transparent" points="278.5,-620.7 278.5,-639.7 317.5,-639.7 317.5,-620.7 278.5,-620.7"/>
<polygon fill="none" stroke="#000000" points="278.5,-620.7 278.5,-639.7 317.5,-639.7 317.5,-620.7 278.5,-620.7"/>
<text text-anchor="start" x="281.5" y="-626.8" font-family="Helvetica,sans-Serif" font-size="11.00" fill="#000000">&lt; 1</text>
<polygon fill="#ffffff" stroke="transparent" points="317.5,-620.7 317.5,-639.7 364.5,-639.7 364.5,-620.7 317.5,-620.7"/>
<polygon fill="none" stroke="#000000" points="317.5,-620.7 317.5,-639.7 364.5,-639.7 364.5,-620.7 317.5,-620.7"/>
<text text-anchor="start" x="329.1105" y="-626.8" font-family="Helvetica,sans-Serif" font-size="11.00" fill="#000000">0 rows</text>
<polygon fill="#ffffff" stroke="transparent" points="364.5,-620.7 364.5,-639.7 394.5,-639.7 394.5,-620.7 364.5,-620.7"/>
<polygon fill="none" stroke="#000000" points="364.5,-620.7 364.5,-639.7 394.5,-639.7 394.5,-620.7 364.5,-620.7"/>
<text text-anchor="start" x="375.9053" y="-626.8" font-family="Helvetica,sans-Serif" font-size="11.00" fill="#000000">1 &gt;</text>
</a>
</g>
</g>
<!-- contactos&#45;&gt;organizaciones -->
<g id="edge1" class="edge">
<title>contactos:w&#45;&gt;organizaciones:e</title>
<path fill="none" stroke="#000000" d="M527.3045,-623.1513C472.8703,-626.6038 455.8657,-648.7 394.5,-648.7"/>
<polygon fill="#000000" stroke="#000000" points="534.0038,-622.9456 542.1105,-626.2983 538.0019,-622.8228 542,-622.7 542,-622.7 542,-622.7 538.0019,-622.8228 541.8895,-619.1017 534.0038,-622.9456 534.0038,-622.9456"/>
<ellipse fill="none" stroke="#000000" cx="530.8053" cy="-623.0438" rx="3.2" ry="3.2"/>
</g>
<!-- personas -->
<g id="node3" class="node">
<title>personas</title>
<g id="a_node3"><a xlink:href="../../tables/personas.html" xlink:title="personas" target="_top">
<polygon fill="#ffffff" stroke="transparent" points="8,-290.2 8,-373.2 131,-373.2 131,-290.2 8,-290.2"/>
<polygon fill="#f5f5f5" stroke="transparent" points="8.5,-349.7 8.5,-372.7 131.5,-372.7 131.5,-349.7 8.5,-349.7"/>
<polygon fill="none" stroke="#000000" points="8.5,-349.7 8.5,-372.7 131.5,-372.7 131.5,-349.7 8.5,-349.7"/>
<text text-anchor="start" x="13.5" y="-358.8" font-family="Helvetica,sans-Serif" font-weight="bold" font-size="11.00" fill="#000000">personas</text>
<text text-anchor="start" x="96.5437" y="-357.8" font-family="Helvetica,sans-Serif" font-size="11.00" fill="#000000">[table]</text>
<polygon fill="none" stroke="#000000" points="8.5,-327.7 8.5,-349.7 131.5,-349.7 131.5,-327.7 8.5,-327.7"/>
<image xlink:href="../../images/primaryKeys.png" width="11px" height="12px" preserveAspectRatio="xMinYMin meet" x="13.5" y="-344.7"/>
<text text-anchor="start" x="28.5" y="-334.8" font-family="Helvetica,sans-Serif" font-size="11.00" fill="#000000">persona_id</text>
<polygon fill="none" stroke="#000000" points="8.5,-308.7 8.5,-327.7 131.5,-327.7 131.5,-308.7 8.5,-308.7"/>
<text text-anchor="start" x="11.5" y="-314.8" font-family="Helvetica,sans-Serif" font-size="11.00" fill="#000000">...</text>
<polygon fill="#ffffff" stroke="transparent" points="8.5,-289.7 8.5,-308.7 46.5,-308.7 46.5,-289.7 8.5,-289.7"/>
<polygon fill="none" stroke="#000000" points="8.5,-289.7 8.5,-308.7 46.5,-308.7 46.5,-289.7 8.5,-289.7"/>
<text text-anchor="start" x="11.5" y="-295.8" font-family="Helvetica,sans-Serif" font-size="11.00" fill="#000000"> &#160;</text>
<polygon fill="#ffffff" stroke="transparent" points="46.5,-289.7 46.5,-308.7 97.5,-308.7 97.5,-289.7 46.5,-289.7"/>
<polygon fill="none" stroke="#000000" points="46.5,-289.7 46.5,-308.7 97.5,-308.7 97.5,-289.7 46.5,-289.7"/>
<text text-anchor="start" x="62.1105" y="-295.8" font-family="Helvetica,sans-Serif" font-size="11.00" fill="#000000">5 rows</text>
<polygon fill="#ffffff" stroke="transparent" points="97.5,-289.7 97.5,-308.7 131.5,-308.7 131.5,-289.7 97.5,-289.7"/>
<polygon fill="none" stroke="#000000" points="97.5,-289.7 97.5,-308.7 131.5,-308.7 131.5,-289.7 97.5,-289.7"/>
<text text-anchor="start" x="112.9053" y="-295.8" font-family="Helvetica,sans-Serif" font-size="11.00" fill="#000000">6 &gt;</text>
</a>
</g>
</g>
<!-- contactos&#45;&gt;personas -->
<g id="edge2" class="edge">
<title>contactos:w&#45;&gt;personas:e</title>
<path fill="none" stroke="#000000" d="M527.5519,-620.5192C519.2984,-617.7507 513.6888,-613.0524 501,-610.7 464.9361,-604.0142 198.9761,-608.5515 172,-583.7 131.414,-546.3105 186.6833,-338.7 131.5,-338.7"/>
<polygon fill="#000000" stroke="#000000" points="534.0896,-621.5059 541.4627,-626.2597 538.0448,-622.103 542,-622.7 542,-622.7 542,-622.7 538.0448,-622.103 542.5373,-619.1403 534.0896,-621.5059 534.0896,-621.5059"/>
<ellipse fill="none" stroke="#000000" cx="530.9254" cy="-621.0283" rx="3.2" ry="3.2"/>
</g>
<!-- organizaciones&#45;&gt;personas -->
<g id="edge6" class="edge">
<title>organizaciones:w&#45;&gt;personas:e</title>
<path fill="none" stroke="#000000" d="M264.0635,-648.5995C222.7764,-647.8887 200.5414,-642.5359 172,-606.7 134.4757,-559.5853 191.7318,-338.7 131.5,-338.7"/>
<polygon fill="#000000" stroke="#000000" points="270.5002,-648.6443 278.4749,-652.2999 274.5001,-648.6721 278.5,-648.7 278.5,-648.7 278.5,-648.7 274.5001,-648.6721 278.5251,-645.1001 270.5002,-648.6443 270.5002,-648.6443"/>
<ellipse fill="none" stroke="#000000" cx="267.3003" cy="-648.622" rx="3.2" ry="3.2"/>
</g>
<!-- direcciones -->
<g id="node4" class="node">
<title>direcciones</title>
<g id="a_node4"><a xlink:href="../../tables/direcciones.html" xlink:title="direcciones" target="_top">
<polygon fill="#ffffff" stroke="transparent" points="180,-284.7 180,-572.7 493,-572.7 493,-284.7 180,-284.7"/>
<polygon fill="#f5f5f5" stroke="transparent" points="182.5,-547.7 182.5,-570.7 491.5,-570.7 491.5,-547.7 182.5,-547.7"/>
<polygon fill="none" stroke="#000000" points="182.5,-547.7 182.5,-570.7 491.5,-570.7 491.5,-547.7 182.5,-547.7"/>
<text text-anchor="start" x="187.5" y="-556.8" font-family="Helvetica,sans-Serif" font-weight="bold" font-size="11.00" fill="#000000">direcciones</text>
<text text-anchor="start" x="456.5437" y="-555.8" font-family="Helvetica,sans-Serif" font-size="11.00" fill="#000000">[table]</text>
<polygon fill="none" stroke="#000000" points="182.5,-525.7 182.5,-547.7 305.5,-547.7 305.5,-525.7 182.5,-525.7"/>
<image xlink:href="../../images/primaryKeys.png" width="11px" height="12px" preserveAspectRatio="xMinYMin meet" x="187.5" y="-542.7"/>
<text text-anchor="start" x="202.5" y="-532.8" font-family="Helvetica,sans-Serif" font-size="11.00" fill="#000000">direccion_id</text>
<polygon fill="none" stroke="#000000" points="305.5,-525.7 305.5,-547.7 491.5,-547.7 491.5,-525.7 305.5,-525.7"/>
<text text-anchor="start" x="308.5" y="-533.4" font-family="Helvetica,sans-Serif" font-size="11.00" fill="#000000">serial[10]</text>
<polygon fill="none" stroke="#000000" points="182.5,-503.7 182.5,-525.7 305.5,-525.7 305.5,-503.7 182.5,-503.7"/>
<text text-anchor="start" x="202.5" y="-510.8" font-family="Helvetica,sans-Serif" font-size="11.00" fill="#000000">calle_1</text>
<polygon fill="none" stroke="#000000" points="305.5,-503.7 305.5,-525.7 491.5,-525.7 491.5,-503.7 305.5,-503.7"/>
<text text-anchor="start" x="308.5" y="-511.4" font-family="Helvetica,sans-Serif" font-size="11.00" fill="#000000">varchar[255]</text>
<polygon fill="none" stroke="#000000" points="182.5,-481.7 182.5,-503.7 305.5,-503.7 305.5,-481.7 182.5,-481.7"/>
<text text-anchor="start" x="202.5" y="-488.8" font-family="Helvetica,sans-Serif" font-size="11.00" fill="#000000">calle_2</text>
<polygon fill="none" stroke="#000000" points="305.5,-481.7 305.5,-503.7 491.5,-503.7 491.5,-481.7 305.5,-481.7"/>
<text text-anchor="start" x="308.5" y="-489.4" font-family="Helvetica,sans-Serif" font-size="11.00" fill="#000000">varchar[255]</text>
<polygon fill="none" stroke="#000000" points="182.5,-459.7 182.5,-481.7 305.5,-481.7 305.5,-459.7 182.5,-459.7"/>
<text text-anchor="start" x="202.5" y="-466.8" font-family="Helvetica,sans-Serif" font-size="11.00" fill="#000000">referencia</text>
<polygon fill="none" stroke="#000000" points="305.5,-459.7 305.5,-481.7 491.5,-481.7 491.5,-459.7 305.5,-459.7"/>
<text text-anchor="start" x="308.5" y="-467.4" font-family="Helvetica,sans-Serif" font-size="11.00" fill="#000000">text[2147483647]</text>
<polygon fill="none" stroke="#000000" points="182.5,-437.7 182.5,-459.7 305.5,-459.7 305.5,-437.7 182.5,-437.7"/>
<image xlink:href="../../images/foreignKeys.png" width="11px" height="12px" preserveAspectRatio="xMinYMin meet" x="187.5" y="-454.7"/>
<text text-anchor="start" x="202.5" y="-444.8" font-family="Helvetica,sans-Serif" font-size="11.00" fill="#000000">persona_id</text>
<polygon fill="none" stroke="#000000" points="305.5,-437.7 305.5,-459.7 491.5,-459.7 491.5,-437.7 305.5,-437.7"/>
<text text-anchor="start" x="308.5" y="-445.4" font-family="Helvetica,sans-Serif" font-size="11.00" fill="#000000">int4[10]</text>
<polygon fill="none" stroke="#000000" points="182.5,-415.7 182.5,-437.7 305.5,-437.7 305.5,-415.7 182.5,-415.7"/>
<text text-anchor="start" x="202.5" y="-422.8" font-family="Helvetica,sans-Serif" font-size="11.00" fill="#000000">cod_postal</text>
<polygon fill="none" stroke="#000000" points="305.5,-415.7 305.5,-437.7 491.5,-437.7 491.5,-415.7 305.5,-415.7"/>
<text text-anchor="start" x="308.5" y="-423.4" font-family="Helvetica,sans-Serif" font-size="11.00" fill="#000000">varchar[30]</text>
<polygon fill="none" stroke="#000000" points="182.5,-393.7 182.5,-415.7 305.5,-415.7 305.5,-393.7 182.5,-393.7"/>
<text text-anchor="start" x="202.5" y="-400.8" font-family="Helvetica,sans-Serif" font-size="11.00" fill="#000000">tipo</text>
<polygon fill="none" stroke="#000000" points="305.5,-393.7 305.5,-415.7 491.5,-415.7 491.5,-393.7 305.5,-393.7"/>
<text text-anchor="start" x="308.3275" y="-401.4" font-family="Helvetica,sans-Serif" font-size="11.00" fill="#000000">enum_direcciones_tipo[2147483647]</text>
<polygon fill="none" stroke="#000000" points="182.5,-371.7 182.5,-393.7 305.5,-393.7 305.5,-371.7 182.5,-371.7"/>
<text text-anchor="start" x="202.5" y="-378.8" font-family="Helvetica,sans-Serif" font-size="11.00" fill="#000000">usu_insercion</text>
<polygon fill="none" stroke="#000000" points="305.5,-371.7 305.5,-393.7 491.5,-393.7 491.5,-371.7 305.5,-371.7"/>
<text text-anchor="start" x="308.5" y="-379.4" font-family="Helvetica,sans-Serif" font-size="11.00" fill="#000000">varchar[20]</text>
<polygon fill="none" stroke="#000000" points="182.5,-349.7 182.5,-371.7 305.5,-371.7 305.5,-349.7 182.5,-349.7"/>
<text text-anchor="start" x="202.5" y="-356.8" font-family="Helvetica,sans-Serif" font-size="11.00" fill="#000000">fec_insercion</text>
<polygon fill="none" stroke="#000000" points="305.5,-349.7 305.5,-371.7 491.5,-371.7 491.5,-349.7 305.5,-349.7"/>
<text text-anchor="start" x="308.5" y="-357.4" font-family="Helvetica,sans-Serif" font-size="11.00" fill="#000000">timestamptz[35,6]</text>
<polygon fill="none" stroke="#000000" points="182.5,-327.7 182.5,-349.7 305.5,-349.7 305.5,-327.7 182.5,-327.7"/>
<text text-anchor="start" x="202.5" y="-334.8" font-family="Helvetica,sans-Serif" font-size="11.00" fill="#000000">fec_modificacion</text>
<polygon fill="none" stroke="#000000" points="305.5,-327.7 305.5,-349.7 491.5,-349.7 491.5,-327.7 305.5,-327.7"/>
<text text-anchor="start" x="308.5" y="-335.4" font-family="Helvetica,sans-Serif" font-size="11.00" fill="#000000">timestamptz[35,6]</text>
<polygon fill="none" stroke="#000000" points="182.5,-305.7 182.5,-327.7 305.5,-327.7 305.5,-305.7 182.5,-305.7"/>
<text text-anchor="start" x="202.5" y="-312.8" font-family="Helvetica,sans-Serif" font-size="11.00" fill="#000000">usu_modificacion</text>
<polygon fill="none" stroke="#000000" points="305.5,-305.7 305.5,-327.7 491.5,-327.7 491.5,-305.7 305.5,-305.7"/>
<text text-anchor="start" x="308.5" y="-313.4" font-family="Helvetica,sans-Serif" font-size="11.00" fill="#000000">varchar[20]</text>
<polygon fill="#ffffff" stroke="transparent" points="182.5,-286.7 182.5,-305.7 238.5,-305.7 238.5,-286.7 182.5,-286.7"/>
<polygon fill="none" stroke="#000000" points="182.5,-286.7 182.5,-305.7 238.5,-305.7 238.5,-286.7 182.5,-286.7"/>
<text text-anchor="start" x="185.5" y="-292.8" font-family="Helvetica,sans-Serif" font-size="11.00" fill="#000000">&lt; 1</text>
<polygon fill="#ffffff" stroke="transparent" points="238.5,-286.7 238.5,-305.7 305.5,-305.7 305.5,-286.7 238.5,-286.7"/>
<polygon fill="none" stroke="#000000" points="238.5,-286.7 238.5,-305.7 305.5,-305.7 305.5,-286.7 238.5,-286.7"/>
<text text-anchor="start" x="275.6105" y="-292.8" font-family="Helvetica,sans-Serif" font-size="11.00" fill="#000000">1 row</text>
<polygon fill="#ffffff" stroke="transparent" points="305.5,-286.7 305.5,-305.7 491.5,-305.7 491.5,-286.7 305.5,-286.7"/>
<polygon fill="none" stroke="#000000" points="305.5,-286.7 305.5,-305.7 491.5,-305.7 491.5,-286.7 305.5,-286.7"/>
<text text-anchor="start" x="472.9053" y="-292.8" font-family="Helvetica,sans-Serif" font-size="11.00" fill="#000000">0 &gt;</text>
<polygon fill="none" stroke="#000000" stroke-width="2" points="181,-285.7 181,-571.7 492,-571.7 492,-285.7 181,-285.7"/>
</a>
</g>
</g>
<!-- direcciones&#45;&gt;personas -->
<g id="edge3" class="edge">
<title>direcciones:w&#45;&gt;personas:e</title>
<path fill="none" stroke="#000000" d="M168.5,-445.0401C139.708,-425.9534 179.4939,-338.7 131.5,-338.7"/>
<polygon fill="#000000" stroke="#000000" points="174.7601,-446.6766 181.5895,-452.183 178.6301,-447.6883 182.5,-448.7 182.5,-448.7 182.5,-448.7 178.6301,-447.6883 183.4105,-445.217 174.7601,-446.6766 174.7601,-446.6766"/>
<ellipse fill="none" stroke="#000000" cx="171.6641" cy="-445.8672" rx="3.2" ry="3.2"/>
</g>
<!-- empleados -->
<g id="node5" class="node">
<title>empleados</title>
<g id="a_node5"><a xlink:href="../../tables/empleados.html" xlink:title="empleados" target="_top">
<polygon fill="#ffffff" stroke="transparent" points="288.5,-202.2 288.5,-263.2 384.5,-263.2 384.5,-202.2 288.5,-202.2"/>
<polygon fill="#f5f5f5" stroke="transparent" points="288.5,-239.7 288.5,-262.7 384.5,-262.7 384.5,-239.7 288.5,-239.7"/>
<polygon fill="none" stroke="#000000" points="288.5,-239.7 288.5,-262.7 384.5,-262.7 384.5,-239.7 288.5,-239.7"/>
<text text-anchor="start" x="293.1039" y="-248.8" font-family="Helvetica,sans-Serif" font-weight="bold" font-size="11.00" fill="#000000">empleados</text>
<text text-anchor="start" x="350.0219" y="-247.8" font-family="Helvetica,sans-Serif" font-size="11.00" fill="#000000">[table]</text>
<polygon fill="none" stroke="#000000" points="288.5,-220.7 288.5,-239.7 384.5,-239.7 384.5,-220.7 288.5,-220.7"/>
<text text-anchor="start" x="291.5" y="-226.8" font-family="Helvetica,sans-Serif" font-size="11.00" fill="#000000">...</text>
<polygon fill="#ffffff" stroke="transparent" points="288.5,-201.7 288.5,-220.7 324.5,-220.7 324.5,-201.7 288.5,-201.7"/>
<polygon fill="none" stroke="#000000" points="288.5,-201.7 288.5,-220.7 324.5,-220.7 324.5,-201.7 288.5,-201.7"/>
<text text-anchor="start" x="291.5" y="-207.8" font-family="Helvetica,sans-Serif" font-size="11.00" fill="#000000">&lt; 2</text>
<polygon fill="#ffffff" stroke="transparent" points="324.5,-201.7 324.5,-220.7 364.5,-220.7 364.5,-201.7 324.5,-201.7"/>
<polygon fill="none" stroke="#000000" points="324.5,-201.7 324.5,-220.7 364.5,-220.7 364.5,-201.7 324.5,-201.7"/>
<text text-anchor="start" x="334.6105" y="-207.8" font-family="Helvetica,sans-Serif" font-size="11.00" fill="#000000">1 row</text>
<polygon fill="#ffffff" stroke="transparent" points="364.5,-201.7 364.5,-220.7 384.5,-220.7 384.5,-201.7 364.5,-201.7"/>
<polygon fill="none" stroke="#000000" points="364.5,-201.7 364.5,-220.7 384.5,-220.7 384.5,-201.7 364.5,-201.7"/>
<text text-anchor="start" x="375.3862" y="-207.8" font-family="Helvetica,sans-Serif" font-size="11.00" fill="#000000"> &#160;</text>
</a>
</g>
</g>
<!-- empleados&#45;&gt;personas -->
<g id="edge4" class="edge">
<title>empleados:w&#45;&gt;personas:e</title>
<path fill="none" stroke="#000000" d="M273.8239,-229.9706C229.3821,-231.7558 210.8722,-242.7736 172,-274.7 145.9876,-296.0645 165.1613,-338.7 131.5,-338.7"/>
<polygon fill="#000000" stroke="#000000" points="280.5014,-229.8475 288.5664,-233.2994 284.5007,-229.7738 288.5,-229.7 288.5,-229.7 288.5,-229.7 284.5007,-229.7738 288.4336,-226.1006 280.5014,-229.8475 280.5014,-229.8475"/>
<ellipse fill="none" stroke="#000000" cx="277.3019" cy="-229.9065" rx="3.2" ry="3.2"/>
</g>
<!-- leads -->
<g id="node6" class="node">
<title>leads</title>
<g id="a_node6"><a xlink:href="../../tables/leads.html" xlink:title="leads" target="_top">
<polygon fill="#ffffff" stroke="transparent" points="296.5,-120.2 296.5,-181.2 376.5,-181.2 376.5,-120.2 296.5,-120.2"/>
<polygon fill="#f5f5f5" stroke="transparent" points="296.5,-157.7 296.5,-180.7 376.5,-180.7 376.5,-157.7 296.5,-157.7"/>
<polygon fill="none" stroke="#000000" points="296.5,-157.7 296.5,-180.7 376.5,-180.7 376.5,-157.7 296.5,-157.7"/>
<text text-anchor="start" x="301.5" y="-166.8" font-family="Helvetica,sans-Serif" font-weight="bold" font-size="11.00" fill="#000000">leads</text>
<text text-anchor="start" x="341.5437" y="-165.8" font-family="Helvetica,sans-Serif" font-size="11.00" fill="#000000">[table]</text>
<polygon fill="none" stroke="#000000" points="296.5,-138.7 296.5,-157.7 376.5,-157.7 376.5,-138.7 296.5,-138.7"/>
<text text-anchor="start" x="299.5" y="-144.8" font-family="Helvetica,sans-Serif" font-size="11.00" fill="#000000">...</text>
<polygon fill="#ffffff" stroke="transparent" points="296.5,-119.7 296.5,-138.7 317.5,-138.7 317.5,-119.7 296.5,-119.7"/>
<polygon fill="none" stroke="#000000" points="296.5,-119.7 296.5,-138.7 317.5,-138.7 317.5,-119.7 296.5,-119.7"/>
<text text-anchor="start" x="299.2027" y="-125.8" font-family="Helvetica,sans-Serif" font-size="11.00" fill="#000000">&lt; 5</text>
<polygon fill="#ffffff" stroke="transparent" points="317.5,-119.7 317.5,-138.7 355.5,-138.7 355.5,-119.7 317.5,-119.7"/>
<polygon fill="none" stroke="#000000" points="317.5,-119.7 317.5,-138.7 355.5,-138.7 355.5,-119.7 317.5,-119.7"/>
<text text-anchor="start" x="320.3053" y="-125.8" font-family="Helvetica,sans-Serif" font-size="11.00" fill="#000000">4 rows</text>
<polygon fill="#ffffff" stroke="transparent" points="355.5,-119.7 355.5,-138.7 376.5,-138.7 376.5,-119.7 355.5,-119.7"/>
<polygon fill="none" stroke="#000000" points="355.5,-119.7 355.5,-138.7 376.5,-138.7 376.5,-119.7 355.5,-119.7"/>
<text text-anchor="start" x="358.2027" y="-125.8" font-family="Helvetica,sans-Serif" font-size="11.00" fill="#000000">3 &gt;</text>
</a>
</g>
</g>
<!-- leads&#45;&gt;personas -->
<g id="edge5" class="edge">
<title>leads:w&#45;&gt;personas:e</title>
<path fill="none" stroke="#000000" d="M282.0682,-147.7493C233.2717,-148.1911 208.5642,-152.448 172,-191.7 125.8089,-241.2865 199.2676,-338.7 131.5,-338.7"/>
<polygon fill="#000000" stroke="#000000" points="288.5,-147.7274 296.5123,-151.3 292.5,-147.7137 296.5,-147.7 296.5,-147.7 296.5,-147.7 292.5,-147.7137 296.4877,-144.1 288.5,-147.7274 288.5,-147.7274"/>
<ellipse fill="none" stroke="#000000" cx="285.3001" cy="-147.7384" rx="3.2" ry="3.2"/>
</g>
<!-- telefonos -->
<g id="node7" class="node">
<title>telefonos</title>
<g id="a_node7"><a xlink:href="../../tables/telefonos.html" xlink:title="telefonos" target="_top">
<polygon fill="#ffffff" stroke="transparent" points="293,-38.2 293,-99.2 380,-99.2 380,-38.2 293,-38.2"/>
<polygon fill="#f5f5f5" stroke="transparent" points="293.5,-75.7 293.5,-98.7 380.5,-98.7 380.5,-75.7 293.5,-75.7"/>
<polygon fill="none" stroke="#000000" points="293.5,-75.7 293.5,-98.7 380.5,-98.7 380.5,-75.7 293.5,-75.7"/>
<text text-anchor="start" x="298.1854" y="-84.8" font-family="Helvetica,sans-Serif" font-weight="bold" font-size="11.00" fill="#000000">telefonos</text>
<text text-anchor="start" x="346.0219" y="-83.8" font-family="Helvetica,sans-Serif" font-size="11.00" fill="#000000">[table]</text>
<polygon fill="none" stroke="#000000" points="293.5,-56.7 293.5,-75.7 380.5,-75.7 380.5,-56.7 293.5,-56.7"/>
<text text-anchor="start" x="296.5" y="-62.8" font-family="Helvetica,sans-Serif" font-size="11.00" fill="#000000">...</text>
<polygon fill="#ffffff" stroke="transparent" points="293.5,-37.7 293.5,-56.7 325.5,-56.7 325.5,-37.7 293.5,-37.7"/>
<polygon fill="none" stroke="#000000" points="293.5,-37.7 293.5,-56.7 325.5,-56.7 325.5,-37.7 293.5,-37.7"/>
<text text-anchor="start" x="296.5" y="-43.8" font-family="Helvetica,sans-Serif" font-size="11.00" fill="#000000">&lt; 1</text>
<polygon fill="#ffffff" stroke="transparent" points="325.5,-37.7 325.5,-56.7 362.5,-56.7 362.5,-37.7 325.5,-37.7"/>
<polygon fill="none" stroke="#000000" points="325.5,-37.7 325.5,-56.7 362.5,-56.7 362.5,-37.7 325.5,-37.7"/>
<text text-anchor="start" x="332.6105" y="-43.8" font-family="Helvetica,sans-Serif" font-size="11.00" fill="#000000">1 row</text>
<polygon fill="#ffffff" stroke="transparent" points="362.5,-37.7 362.5,-56.7 380.5,-56.7 380.5,-37.7 362.5,-37.7"/>
<polygon fill="none" stroke="#000000" points="362.5,-37.7 362.5,-56.7 380.5,-56.7 380.5,-37.7 362.5,-37.7"/>
<text text-anchor="start" x="371.3862" y="-43.8" font-family="Helvetica,sans-Serif" font-size="11.00" fill="#000000"> &#160;</text>
</a>
</g>
</g>
<!-- telefonos&#45;&gt;personas -->
<g id="edge7" class="edge">
<title>telefonos:w&#45;&gt;personas:e</title>
<path fill="none" stroke="#000000" d="M279.0324,-65.7308C231.2275,-66.0469 205.7146,-69.6073 172,-109.7 138.7395,-149.2527 183.1786,-338.7 131.5,-338.7"/>
<polygon fill="#000000" stroke="#000000" points="285.5,-65.7171 293.5077,-69.3 289.5,-65.7085 293.5,-65.7 293.5,-65.7 293.5,-65.7 289.5,-65.7085 293.4923,-62.1 285.5,-65.7171 285.5,-65.7171"/>
<ellipse fill="none" stroke="#000000" cx="282.3" cy="-65.7239" rx="3.2" ry="3.2"/>
</g>
</g>
</svg>
