<?xml version="1.0" encoding="UTF-8" standalone="no"?>
<!DOCTYPE svg PUBLIC "-//W3C//DTD SVG 1.1//EN"
 "http://www.w3.org/Graphics/SVG/1.1/DTD/svg11.dtd">
<!-- Generated by graphviz version 2.40.1 (20161225.0304)
 -->
<!-- Title: oneDegreeRelationshipsDiagram Pages: 1 -->
<svg width="509pt" height="377pt"
 viewBox="0.00 0.00 509.00 376.70" xmlns="http://www.w3.org/2000/svg" xmlns:xlink="http://www.w3.org/1999/xlink">
<g id="graph0" class="graph" transform="scale(1 1) rotate(0) translate(4 372.7)">
<title>oneDegreeRelationshipsDiagram</title>
<polygon fill="#ffffff" stroke="transparent" points="-4,4 -4,-372.7 505,-372.7 505,4 -4,4"/>
<text text-anchor="middle" x="72.4936" y="-7.3" font-family="Helvetica,sans-Serif" font-size="11.00" fill="#000000">Generated by SchemaSpy</text>
<!-- direcciones -->
<g id="node1" class="node">
<title>direcciones</title>
<g id="a_node1"><a xlink:href="../../tables/direcciones.html" xlink:title="direcciones" target="_top">
<polygon fill="#ffffff" stroke="transparent" points="180,-54.7 180,-364.7 493,-364.7 493,-54.7 180,-54.7"/>
<polygon fill="#f5f5f5" stroke="transparent" points="182.5,-339.7 182.5,-362.7 491.5,-362.7 491.5,-339.7 182.5,-339.7"/>
<polygon fill="none" stroke="#000000" points="182.5,-339.7 182.5,-362.7 491.5,-362.7 491.5,-339.7 182.5,-339.7"/>
<text text-anchor="start" x="187.5" y="-348.8" font-family="Helvetica,sans-Serif" font-weight="bold" font-size="11.00" fill="#000000">direcciones</text>
<text text-anchor="start" x="456.5437" y="-347.8" font-family="Helvetica,sans-Serif" font-size="11.00" fill="#000000">[table]</text>
<polygon fill="none" stroke="#000000" points="182.5,-317.7 182.5,-339.7 305.5,-339.7 305.5,-317.7 182.5,-317.7"/>
<image xlink:href="../../images/primaryKeys.png" width="11px" height="12px" preserveAspectRatio="xMinYMin meet" x="187.5" y="-334.7"/>
<text text-anchor="start" x="202.5" y="-324.8" font-family="Helvetica,sans-Serif" font-size="11.00" fill="#000000">direccion_id</text>
<polygon fill="none" stroke="#000000" points="305.5,-317.7 305.5,-339.7 491.5,-339.7 491.5,-317.7 305.5,-317.7"/>
<text text-anchor="start" x="308.5" y="-325.4" font-family="Helvetica,sans-Serif" font-size="11.00" fill="#000000">serial[10]</text>
<polygon fill="none" stroke="#000000" points="182.5,-295.7 182.5,-317.7 305.5,-317.7 305.5,-295.7 182.5,-295.7"/>
<text text-anchor="start" x="202.5" y="-302.8" font-family="Helvetica,sans-Serif" font-size="11.00" fill="#000000">calle_1</text>
<polygon fill="none" stroke="#000000" points="305.5,-295.7 305.5,-317.7 491.5,-317.7 491.5,-295.7 305.5,-295.7"/>
<text text-anchor="start" x="308.5" y="-303.4" font-family="Helvetica,sans-Serif" font-size="11.00" fill="#000000">varchar[255]</text>
<polygon fill="none" stroke="#000000" points="182.5,-273.7 182.5,-295.7 305.5,-295.7 305.5,-273.7 182.5,-273.7"/>
<text text-anchor="start" x="202.5" y="-280.8" font-family="Helvetica,sans-Serif" font-size="11.00" fill="#000000">calle_2</text>
<polygon fill="none" stroke="#000000" points="305.5,-273.7 305.5,-295.7 491.5,-295.7 491.5,-273.7 305.5,-273.7"/>
<text text-anchor="start" x="308.5" y="-281.4" font-family="Helvetica,sans-Serif" font-size="11.00" fill="#000000">varchar[255]</text>
<polygon fill="none" stroke="#000000" points="182.5,-251.7 182.5,-273.7 305.5,-273.7 305.5,-251.7 182.5,-251.7"/>
<text text-anchor="start" x="202.5" y="-258.8" font-family="Helvetica,sans-Serif" font-size="11.00" fill="#000000">referencia</text>
<polygon fill="none" stroke="#000000" points="305.5,-251.7 305.5,-273.7 491.5,-273.7 491.5,-251.7 305.5,-251.7"/>
<text text-anchor="start" x="308.5" y="-259.4" font-family="Helvetica,sans-Serif" font-size="11.00" fill="#000000">text[2147483647]</text>
<polygon fill="none" stroke="#000000" points="182.5,-229.7 182.5,-251.7 305.5,-251.7 305.5,-229.7 182.5,-229.7"/>
<image xlink:href="../../images/foreignKeys.png" width="11px" height="12px" preserveAspectRatio="xMinYMin meet" x="187.5" y="-246.7"/>
<text text-anchor="start" x="202.5" y="-236.8" font-family="Helvetica,sans-Serif" font-size="11.00" fill="#000000">persona_id</text>
<polygon fill="none" stroke="#000000" points="305.5,-229.7 305.5,-251.7 491.5,-251.7 491.5,-229.7 305.5,-229.7"/>
<text text-anchor="start" x="308.5" y="-237.4" font-family="Helvetica,sans-Serif" font-size="11.00" fill="#000000">int4[10]</text>
<polygon fill="none" stroke="#000000" points="182.5,-207.7 182.5,-229.7 305.5,-229.7 305.5,-207.7 182.5,-207.7"/>
<text text-anchor="start" x="202.5" y="-214.8" font-family="Helvetica,sans-Serif" font-size="11.00" fill="#000000">cod_postal</text>
<polygon fill="none" stroke="#000000" points="305.5,-207.7 305.5,-229.7 491.5,-229.7 491.5,-207.7 305.5,-207.7"/>
<text text-anchor="start" x="308.5" y="-215.4" font-family="Helvetica,sans-Serif" font-size="11.00" fill="#000000">varchar[30]</text>
<polygon fill="none" stroke="#000000" points="182.5,-185.7 182.5,-207.7 305.5,-207.7 305.5,-185.7 182.5,-185.7"/>
<text text-anchor="start" x="202.5" y="-192.8" font-family="Helvetica,sans-Serif" font-size="11.00" fill="#000000">tipo</text>
<polygon fill="none" stroke="#000000" points="305.5,-185.7 305.5,-207.7 491.5,-207.7 491.5,-185.7 305.5,-185.7"/>
<text text-anchor="start" x="308.3275" y="-193.4" font-family="Helvetica,sans-Serif" font-size="11.00" fill="#000000">enum_direcciones_tipo[2147483647]</text>
<polygon fill="none" stroke="#000000" points="182.5,-163.7 182.5,-185.7 305.5,-185.7 305.5,-163.7 182.5,-163.7"/>
<text text-anchor="start" x="202.5" y="-170.8" font-family="Helvetica,sans-Serif" font-size="11.00" fill="#000000">usu_insercion</text>
<polygon fill="none" stroke="#000000" points="305.5,-163.7 305.5,-185.7 491.5,-185.7 491.5,-163.7 305.5,-163.7"/>
<text text-anchor="start" x="308.5" y="-171.4" font-family="Helvetica,sans-Serif" font-size="11.00" fill="#000000">varchar[20]</text>
<polygon fill="none" stroke="#000000" points="182.5,-141.7 182.5,-163.7 305.5,-163.7 305.5,-141.7 182.5,-141.7"/>
<text text-anchor="start" x="202.5" y="-148.8" font-family="Helvetica,sans-Serif" font-size="11.00" fill="#000000">fec_insercion</text>
<polygon fill="none" stroke="#000000" points="305.5,-141.7 305.5,-163.7 491.5,-163.7 491.5,-141.7 305.5,-141.7"/>
<text text-anchor="start" x="308.5" y="-149.4" font-family="Helvetica,sans-Serif" font-size="11.00" fill="#000000">timestamptz[35,6]</text>
<polygon fill="none" stroke="#000000" points="182.5,-119.7 182.5,-141.7 305.5,-141.7 305.5,-119.7 182.5,-119.7"/>
<text text-anchor="start" x="202.5" y="-126.8" font-family="Helvetica,sans-Serif" font-size="11.00" fill="#000000">fec_modificacion</text>
<polygon fill="none" stroke="#000000" points="305.5,-119.7 305.5,-141.7 491.5,-141.7 491.5,-119.7 305.5,-119.7"/>
<text text-anchor="start" x="308.5" y="-127.4" font-family="Helvetica,sans-Serif" font-size="11.00" fill="#000000">timestamptz[35,6]</text>
<polygon fill="none" stroke="#000000" points="182.5,-97.7 182.5,-119.7 305.5,-119.7 305.5,-97.7 182.5,-97.7"/>
<text text-anchor="start" x="202.5" y="-104.8" font-family="Helvetica,sans-Serif" font-size="11.00" fill="#000000">usu_modificacion</text>
<polygon fill="none" stroke="#000000" points="305.5,-97.7 305.5,-119.7 491.5,-119.7 491.5,-97.7 305.5,-97.7"/>
<text text-anchor="start" x="308.5" y="-105.4" font-family="Helvetica,sans-Serif" font-size="11.00" fill="#000000">varchar[20]</text>
<polygon fill="none" stroke="#000000" points="182.5,-75.7 182.5,-97.7 305.5,-97.7 305.5,-75.7 182.5,-75.7"/>
<image xlink:href="../../images/foreignKeys.png" width="11px" height="12px" preserveAspectRatio="xMinYMin meet" x="187.5" y="-92.7"/>
<text text-anchor="start" x="202.5" y="-82.8" font-family="Helvetica,sans-Serif" font-size="11.00" fill="#000000">sede_id</text>
<polygon fill="none" stroke="#000000" points="305.5,-75.7 305.5,-97.7 491.5,-97.7 491.5,-75.7 305.5,-75.7"/>
<text text-anchor="start" x="308.5" y="-83.4" font-family="Helvetica,sans-Serif" font-size="11.00" fill="#000000">int4[10]</text>
<polygon fill="#ffffff" stroke="transparent" points="182.5,-56.7 182.5,-75.7 235.5,-75.7 235.5,-56.7 182.5,-56.7"/>
<polygon fill="none" stroke="#000000" points="182.5,-56.7 182.5,-75.7 235.5,-75.7 235.5,-56.7 182.5,-56.7"/>
<text text-anchor="start" x="185.5" y="-62.8" font-family="Helvetica,sans-Serif" font-size="11.00" fill="#000000">&lt; 2</text>
<polygon fill="#ffffff" stroke="transparent" points="235.5,-56.7 235.5,-75.7 305.5,-75.7 305.5,-56.7 235.5,-56.7"/>
<polygon fill="none" stroke="#000000" points="235.5,-56.7 235.5,-75.7 305.5,-75.7 305.5,-56.7 235.5,-56.7"/>
<text text-anchor="start" x="270.1105" y="-62.8" font-family="Helvetica,sans-Serif" font-size="11.00" fill="#000000">4 rows</text>
<polygon fill="#ffffff" stroke="transparent" points="305.5,-56.7 305.5,-75.7 491.5,-75.7 491.5,-56.7 305.5,-56.7"/>
<polygon fill="none" stroke="#000000" points="305.5,-56.7 305.5,-75.7 491.5,-75.7 491.5,-56.7 305.5,-56.7"/>
<text text-anchor="start" x="472.9053" y="-62.8" font-family="Helvetica,sans-Serif" font-size="11.00" fill="#000000">0 &gt;</text>
<polygon fill="none" stroke="#000000" stroke-width="2" points="181,-55.7 181,-363.7 492,-363.7 492,-55.7 181,-55.7"/>
</a>
</g>
</g>
<!-- personas -->
<g id="node2" class="node">
<title>personas</title>
<g id="a_node2"><a xlink:href="../../tables/personas.html" xlink:title="personas" target="_top">
<polygon fill="#ffffff" stroke="transparent" points="8,-192.2 8,-275.2 131,-275.2 131,-192.2 8,-192.2"/>
<polygon fill="#f5f5f5" stroke="transparent" points="8.5,-251.7 8.5,-274.7 131.5,-274.7 131.5,-251.7 8.5,-251.7"/>
<polygon fill="none" stroke="#000000" points="8.5,-251.7 8.5,-274.7 131.5,-274.7 131.5,-251.7 8.5,-251.7"/>
<text text-anchor="start" x="13.5" y="-260.8" font-family="Helvetica,sans-Serif" font-weight="bold" font-size="11.00" fill="#000000">personas</text>
<text text-anchor="start" x="96.5437" y="-259.8" font-family="Helvetica,sans-Serif" font-size="11.00" fill="#000000">[table]</text>
<polygon fill="none" stroke="#000000" points="8.5,-229.7 8.5,-251.7 131.5,-251.7 131.5,-229.7 8.5,-229.7"/>
<image xlink:href="../../images/primaryKeys.png" width="11px" height="12px" preserveAspectRatio="xMinYMin meet" x="13.5" y="-246.7"/>
<text text-anchor="start" x="28.5" y="-236.8" font-family="Helvetica,sans-Serif" font-size="11.00" fill="#000000">persona_id</text>
<polygon fill="none" stroke="#000000" points="8.5,-210.7 8.5,-229.7 131.5,-229.7 131.5,-210.7 8.5,-210.7"/>
<text text-anchor="start" x="11.5" y="-216.8" font-family="Helvetica,sans-Serif" font-size="11.00" fill="#000000">...</text>
<polygon fill="#ffffff" stroke="transparent" points="8.5,-191.7 8.5,-210.7 46.5,-210.7 46.5,-191.7 8.5,-191.7"/>
<polygon fill="none" stroke="#000000" points="8.5,-191.7 8.5,-210.7 46.5,-210.7 46.5,-191.7 8.5,-191.7"/>
<text text-anchor="start" x="11.5" y="-197.8" font-family="Helvetica,sans-Serif" font-size="11.00" fill="#000000"> &#160;</text>
<polygon fill="#ffffff" stroke="transparent" points="46.5,-191.7 46.5,-210.7 97.5,-210.7 97.5,-191.7 46.5,-191.7"/>
<polygon fill="none" stroke="#000000" points="46.5,-191.7 46.5,-210.7 97.5,-210.7 97.5,-191.7 46.5,-191.7"/>
<text text-anchor="start" x="62.1105" y="-197.8" font-family="Helvetica,sans-Serif" font-size="11.00" fill="#000000">7 rows</text>
<polygon fill="#ffffff" stroke="transparent" points="97.5,-191.7 97.5,-210.7 131.5,-210.7 131.5,-191.7 97.5,-191.7"/>
<polygon fill="none" stroke="#000000" points="97.5,-191.7 97.5,-210.7 131.5,-210.7 131.5,-191.7 97.5,-191.7"/>
<text text-anchor="start" x="112.9053" y="-197.8" font-family="Helvetica,sans-Serif" font-size="11.00" fill="#000000">7 &gt;</text>
</a>
</g>
</g>
<!-- direcciones&#45;&gt;personas -->
<g id="edge1" class="edge">
<title>direcciones:w&#45;&gt;personas:e</title>
<path fill="none" stroke="#000000" d="M167.776,-240.7C155.7815,-240.7 148.3229,-240.7 131.5,-240.7"/>
<polygon fill="#000000" stroke="#000000" points="174.5,-240.7001 182.5,-244.3 178.5,-240.7 182.5,-240.7 182.5,-240.7 182.5,-240.7 178.5,-240.7 182.5,-237.1 174.5,-240.7001 174.5,-240.7001"/>
<ellipse fill="none" stroke="#000000" cx="171.3" cy="-240.7001" rx="3.2" ry="3.2"/>
</g>
<!-- sedes -->
<g id="node3" class="node">
<title>sedes</title>
<g id="a_node3"><a xlink:href="../../tables/sedes.html" xlink:title="sedes" target="_top">
<polygon fill="#ffffff" stroke="transparent" points="8,-38.2 8,-121.2 131,-121.2 131,-38.2 8,-38.2"/>
<polygon fill="#f5f5f5" stroke="transparent" points="8.5,-97.7 8.5,-120.7 131.5,-120.7 131.5,-97.7 8.5,-97.7"/>
<polygon fill="none" stroke="#000000" points="8.5,-97.7 8.5,-120.7 131.5,-120.7 131.5,-97.7 8.5,-97.7"/>
<text text-anchor="start" x="13.5" y="-106.8" font-family="Helvetica,sans-Serif" font-weight="bold" font-size="11.00" fill="#000000">sedes</text>
<text text-anchor="start" x="96.5437" y="-105.8" font-family="Helvetica,sans-Serif" font-size="11.00" fill="#000000">[table]</text>
<polygon fill="none" stroke="#000000" points="8.5,-75.7 8.5,-97.7 131.5,-97.7 131.5,-75.7 8.5,-75.7"/>
<image xlink:href="../../images/primaryKeys.png" width="11px" height="12px" preserveAspectRatio="xMinYMin meet" x="13.5" y="-92.7"/>
<text text-anchor="start" x="28.5" y="-82.8" font-family="Helvetica,sans-Serif" font-size="11.00" fill="#000000">sede_id</text>
<polygon fill="none" stroke="#000000" points="8.5,-56.7 8.5,-75.7 131.5,-75.7 131.5,-56.7 8.5,-56.7"/>
<text text-anchor="start" x="11.5" y="-62.8" font-family="Helvetica,sans-Serif" font-size="11.00" fill="#000000">...</text>
<polygon fill="#ffffff" stroke="transparent" points="8.5,-37.7 8.5,-56.7 49.5,-56.7 49.5,-37.7 8.5,-37.7"/>
<polygon fill="none" stroke="#000000" points="8.5,-37.7 8.5,-56.7 49.5,-56.7 49.5,-37.7 8.5,-37.7"/>
<text text-anchor="start" x="11.5" y="-43.8" font-family="Helvetica,sans-Serif" font-size="11.00" fill="#000000"> &#160;</text>
<polygon fill="#ffffff" stroke="transparent" points="49.5,-37.7 49.5,-56.7 95.5,-56.7 95.5,-37.7 49.5,-37.7"/>
<polygon fill="none" stroke="#000000" points="49.5,-37.7 49.5,-56.7 95.5,-56.7 95.5,-37.7 49.5,-37.7"/>
<text text-anchor="start" x="65.6105" y="-43.8" font-family="Helvetica,sans-Serif" font-size="11.00" fill="#000000">1 row</text>
<polygon fill="#ffffff" stroke="transparent" points="95.5,-37.7 95.5,-56.7 131.5,-56.7 131.5,-37.7 95.5,-37.7"/>
<polygon fill="none" stroke="#000000" points="95.5,-37.7 95.5,-56.7 131.5,-56.7 131.5,-37.7 95.5,-37.7"/>
<text text-anchor="start" x="112.9053" y="-43.8" font-family="Helvetica,sans-Serif" font-size="11.00" fill="#000000">2 &gt;</text>
</a>
</g>
</g>
<!-- direcciones&#45;&gt;sedes -->
<g id="edge2" class="edge">
<title>direcciones:w&#45;&gt;sedes:e</title>
<path fill="none" stroke="#000000" d="M167.776,-86.7C155.7815,-86.7 148.3229,-86.7 131.5,-86.7"/>
<polygon fill="#000000" stroke="#000000" points="174.5,-86.7001 182.5,-90.3 178.5,-86.7 182.5,-86.7 182.5,-86.7 182.5,-86.7 178.5,-86.7 182.5,-83.1 174.5,-86.7001 174.5,-86.7001"/>
<ellipse fill="none" stroke="#000000" cx="171.3" cy="-86.7001" rx="3.2" ry="3.2"/>
</g>
</g>
</svg>
