<?xml version="1.0" encoding="UTF-8" standalone="no"?>
<!DOCTYPE svg PUBLIC "-//W3C//DTD SVG 1.1//EN"
 "http://www.w3.org/Graphics/SVG/1.1/DTD/svg11.dtd">
<!-- Generated by graphviz version 2.40.1 (20161225.0304)
 -->
<!-- Title: twoDegreesRelationshipsDiagram Pages: 1 -->
<svg width="681pt" height="404pt"
 viewBox="0.00 0.00 681.00 404.20" xmlns="http://www.w3.org/2000/svg" xmlns:xlink="http://www.w3.org/1999/xlink">
<g id="graph0" class="graph" transform="scale(1 1) rotate(0) translate(4 400.2)">
<title>twoDegreesRelationshipsDiagram</title>
<polygon fill="#ffffff" stroke="transparent" points="-4,4 -4,-400.2 677,-400.2 677,4 -4,4"/>
<text text-anchor="middle" x="72.4936" y="-7.3" font-family="Helvetica,sans-Serif" font-size="11.00" fill="#000000">Generated by SchemaSpy</text>
<!-- ciudades -->
<g id="node1" class="node">
<title>ciudades</title>
<g id="a_node1"><a xlink:href="../../tables/ciudades.html" xlink:title="ciudades" target="_top">
<polygon fill="#ffffff" stroke="transparent" points="131,-109.7 131,-214.7 254,-214.7 254,-109.7 131,-109.7"/>
<polygon fill="#f5f5f5" stroke="transparent" points="131.5,-191.2 131.5,-214.2 254.5,-214.2 254.5,-191.2 131.5,-191.2"/>
<polygon fill="none" stroke="#000000" points="131.5,-191.2 131.5,-214.2 254.5,-214.2 254.5,-191.2 131.5,-191.2"/>
<text text-anchor="start" x="136.5" y="-200.3" font-family="Helvetica,sans-Serif" font-weight="bold" font-size="11.00" fill="#000000">ciudades</text>
<text text-anchor="start" x="219.5437" y="-199.3" font-family="Helvetica,sans-Serif" font-size="11.00" fill="#000000">[table]</text>
<polygon fill="none" stroke="#000000" points="131.5,-169.2 131.5,-191.2 254.5,-191.2 254.5,-169.2 131.5,-169.2"/>
<image xlink:href="../../images/primaryKeys.png" width="11px" height="12px" preserveAspectRatio="xMinYMin meet" x="136.5" y="-186.2"/>
<text text-anchor="start" x="151.5" y="-176.3" font-family="Helvetica,sans-Serif" font-size="11.00" fill="#000000">ciudad_id</text>
<polygon fill="none" stroke="#000000" points="131.5,-147.2 131.5,-169.2 254.5,-169.2 254.5,-147.2 131.5,-147.2"/>
<image xlink:href="../../images/foreignKeys.png" width="11px" height="12px" preserveAspectRatio="xMinYMin meet" x="136.5" y="-164.2"/>
<text text-anchor="start" x="151.5" y="-154.3" font-family="Helvetica,sans-Serif" font-size="11.00" fill="#000000">pais_id</text>
<polygon fill="none" stroke="#000000" points="131.5,-128.2 131.5,-147.2 254.5,-147.2 254.5,-128.2 131.5,-128.2"/>
<text text-anchor="start" x="134.5" y="-134.3" font-family="Helvetica,sans-Serif" font-size="11.00" fill="#000000">...</text>
<polygon fill="#ffffff" stroke="transparent" points="131.5,-109.2 131.5,-128.2 173.5,-128.2 173.5,-109.2 131.5,-109.2"/>
<polygon fill="none" stroke="#000000" points="131.5,-109.2 131.5,-128.2 173.5,-128.2 173.5,-109.2 131.5,-109.2"/>
<text text-anchor="start" x="134.5" y="-115.3" font-family="Helvetica,sans-Serif" font-size="11.00" fill="#000000">&lt; 1</text>
<polygon fill="#ffffff" stroke="transparent" points="173.5,-109.2 173.5,-128.2 222.5,-128.2 222.5,-109.2 173.5,-109.2"/>
<polygon fill="none" stroke="#000000" points="173.5,-109.2 173.5,-128.2 222.5,-128.2 222.5,-109.2 173.5,-109.2"/>
<text text-anchor="start" x="187.1105" y="-115.3" font-family="Helvetica,sans-Serif" font-size="11.00" fill="#000000">0 rows</text>
<polygon fill="#ffffff" stroke="transparent" points="222.5,-109.2 222.5,-128.2 254.5,-128.2 254.5,-109.2 222.5,-109.2"/>
<polygon fill="none" stroke="#000000" points="222.5,-109.2 222.5,-128.2 254.5,-128.2 254.5,-109.2 222.5,-109.2"/>
<text text-anchor="start" x="235.9053" y="-115.3" font-family="Helvetica,sans-Serif" font-size="11.00" fill="#000000">1 &gt;</text>
</a>
</g>
</g>
<!-- paises -->
<g id="node2" class="node">
<title>paises</title>
<g id="a_node2"><a xlink:href="../../tables/paises.html" xlink:title="paises" target="_top">
<polygon fill="#ffffff" stroke="transparent" points="8,-130.7 8,-191.7 82,-191.7 82,-130.7 8,-130.7"/>
<polygon fill="#f5f5f5" stroke="transparent" points="8,-168.2 8,-191.2 82,-191.2 82,-168.2 8,-168.2"/>
<polygon fill="none" stroke="#000000" points="8,-168.2 8,-191.2 82,-191.2 82,-168.2 8,-168.2"/>
<text text-anchor="start" x="12.6072" y="-177.3" font-family="Helvetica,sans-Serif" font-weight="bold" font-size="11.00" fill="#000000">paises</text>
<text text-anchor="start" x="47.5219" y="-176.3" font-family="Helvetica,sans-Serif" font-size="11.00" fill="#000000">[table]</text>
<polygon fill="none" stroke="#000000" points="8,-149.2 8,-168.2 82,-168.2 82,-149.2 8,-149.2"/>
<text text-anchor="start" x="11" y="-155.3" font-family="Helvetica,sans-Serif" font-size="11.00" fill="#000000">...</text>
<polygon fill="#ffffff" stroke="transparent" points="8,-130.2 8,-149.2 21,-149.2 21,-130.2 8,-130.2"/>
<polygon fill="none" stroke="#000000" points="8,-130.2 8,-149.2 21,-149.2 21,-130.2 8,-130.2"/>
<text text-anchor="start" x="11" y="-136.3" font-family="Helvetica,sans-Serif" font-size="11.00" fill="#000000"> &#160;</text>
<polygon fill="#ffffff" stroke="transparent" points="21,-130.2 21,-149.2 60,-149.2 60,-130.2 21,-130.2"/>
<polygon fill="none" stroke="#000000" points="21,-130.2 21,-149.2 60,-149.2 60,-130.2 21,-130.2"/>
<text text-anchor="start" x="24.6105" y="-136.3" font-family="Helvetica,sans-Serif" font-size="11.00" fill="#000000">0 rows</text>
<polygon fill="#ffffff" stroke="transparent" points="60,-130.2 60,-149.2 82,-149.2 82,-130.2 60,-130.2"/>
<polygon fill="none" stroke="#000000" points="60,-130.2 60,-149.2 82,-149.2 82,-130.2 60,-130.2"/>
<text text-anchor="start" x="63.4053" y="-136.3" font-family="Helvetica,sans-Serif" font-size="11.00" fill="#000000">1 &gt;</text>
</a>
</g>
</g>
<!-- ciudades&#45;&gt;paises -->
<g id="edge1" class="edge">
<title>ciudades:w&#45;&gt;paises:e</title>
<path fill="none" stroke="#000000" d="M116.8428,-158.2C105.4139,-158.2 98.1563,-158.2 82,-158.2"/>
<polygon fill="#000000" stroke="#000000" points="123.5,-158.2001 131.5,-161.8 127.5,-158.2 131.5,-158.2 131.5,-158.2 131.5,-158.2 127.5,-158.2 131.5,-154.6 123.5,-158.2001 123.5,-158.2001"/>
<ellipse fill="none" stroke="#000000" cx="120.3" cy="-158.2001" rx="3.2" ry="3.2"/>
</g>
<!-- direcciones -->
<g id="node3" class="node">
<title>direcciones</title>
<g id="a_node3"><a xlink:href="../../tables/direcciones.html" xlink:title="direcciones" target="_top">
<polygon fill="#ffffff" stroke="transparent" points="303,-38.2 303,-392.2 665,-392.2 665,-38.2 303,-38.2"/>
<polygon fill="#f5f5f5" stroke="transparent" points="305,-367.2 305,-390.2 663,-390.2 663,-367.2 305,-367.2"/>
<polygon fill="none" stroke="#000000" points="305,-367.2 305,-390.2 663,-390.2 663,-367.2 305,-367.2"/>
<text text-anchor="start" x="310" y="-376.3" font-family="Helvetica,sans-Serif" font-weight="bold" font-size="11.00" fill="#000000">direcciones</text>
<text text-anchor="start" x="628.0437" y="-375.3" font-family="Helvetica,sans-Serif" font-size="11.00" fill="#000000">[table]</text>
<polygon fill="none" stroke="#000000" points="305,-345.2 305,-367.2 428,-367.2 428,-345.2 305,-345.2"/>
<image xlink:href="../../images/primaryKeys.png" width="11px" height="12px" preserveAspectRatio="xMinYMin meet" x="310" y="-362.2"/>
<text text-anchor="start" x="325" y="-352.3" font-family="Helvetica,sans-Serif" font-size="11.00" fill="#000000">direccion_id</text>
<polygon fill="none" stroke="#000000" points="428,-345.2 428,-367.2 663,-367.2 663,-345.2 428,-345.2"/>
<text text-anchor="start" x="431" y="-352.9" font-family="Helvetica,sans-Serif" font-size="11.00" fill="#000000">serial[10]</text>
<polygon fill="none" stroke="#000000" points="305,-323.2 305,-345.2 428,-345.2 428,-323.2 305,-323.2"/>
<text text-anchor="start" x="325" y="-330.3" font-family="Helvetica,sans-Serif" font-size="11.00" fill="#000000">calle_1</text>
<polygon fill="none" stroke="#000000" points="428,-323.2 428,-345.2 663,-345.2 663,-323.2 428,-323.2"/>
<text text-anchor="start" x="431" y="-330.9" font-family="Helvetica,sans-Serif" font-size="11.00" fill="#000000">varchar[1000]</text>
<polygon fill="none" stroke="#000000" points="305,-301.2 305,-323.2 428,-323.2 428,-301.2 305,-301.2"/>
<text text-anchor="start" x="325" y="-308.3" font-family="Helvetica,sans-Serif" font-size="11.00" fill="#000000">calle_2</text>
<polygon fill="none" stroke="#000000" points="428,-301.2 428,-323.2 663,-323.2 663,-301.2 428,-301.2"/>
<text text-anchor="start" x="431" y="-308.9" font-family="Helvetica,sans-Serif" font-size="11.00" fill="#000000">varchar[1000]</text>
<polygon fill="none" stroke="#000000" points="305,-279.2 305,-301.2 428,-301.2 428,-279.2 305,-279.2"/>
<text text-anchor="start" x="325" y="-286.3" font-family="Helvetica,sans-Serif" font-size="11.00" fill="#000000">referencia_id</text>
<polygon fill="none" stroke="#000000" points="428,-279.2 428,-301.2 663,-301.2 663,-279.2 428,-279.2"/>
<text text-anchor="start" x="431" y="-286.9" font-family="Helvetica,sans-Serif" font-size="11.00" fill="#000000">int4[10]</text>
<polygon fill="none" stroke="#000000" points="305,-257.2 305,-279.2 428,-279.2 428,-257.2 305,-257.2"/>
<text text-anchor="start" x="325" y="-264.3" font-family="Helvetica,sans-Serif" font-size="11.00" fill="#000000">cod_postal</text>
<polygon fill="none" stroke="#000000" points="428,-257.2 428,-279.2 663,-279.2 663,-257.2 428,-257.2"/>
<text text-anchor="start" x="431" y="-264.9" font-family="Helvetica,sans-Serif" font-size="11.00" fill="#000000">varchar[30]</text>
<polygon fill="none" stroke="#000000" points="305,-235.2 305,-257.2 428,-257.2 428,-235.2 305,-235.2"/>
<text text-anchor="start" x="325" y="-242.3" font-family="Helvetica,sans-Serif" font-size="11.00" fill="#000000">tip_referencia</text>
<polygon fill="none" stroke="#000000" points="428,-235.2 428,-257.2 663,-257.2 663,-235.2 428,-235.2"/>
<text text-anchor="start" x="430.8795" y="-242.9" font-family="Helvetica,sans-Serif" font-size="11.00" fill="#000000">enum_direcciones_tip_referencia[2147483647]</text>
<polygon fill="none" stroke="#000000" points="305,-213.2 305,-235.2 428,-235.2 428,-213.2 305,-213.2"/>
<text text-anchor="start" x="325" y="-220.3" font-family="Helvetica,sans-Serif" font-size="11.00" fill="#000000">tipo</text>
<polygon fill="none" stroke="#000000" points="428,-213.2 428,-235.2 663,-235.2 663,-213.2 428,-213.2"/>
<text text-anchor="start" x="431" y="-220.9" font-family="Helvetica,sans-Serif" font-size="11.00" fill="#000000">enum_direcciones_tipo[2147483647]</text>
<polygon fill="none" stroke="#000000" points="305,-191.2 305,-213.2 428,-213.2 428,-191.2 305,-191.2"/>
<text text-anchor="start" x="325" y="-198.3" font-family="Helvetica,sans-Serif" font-size="11.00" fill="#000000">referencia</text>
<polygon fill="none" stroke="#000000" points="428,-191.2 428,-213.2 663,-213.2 663,-191.2 428,-191.2"/>
<text text-anchor="start" x="431" y="-198.9" font-family="Helvetica,sans-Serif" font-size="11.00" fill="#000000">text[2147483647]</text>
<polygon fill="none" stroke="#000000" points="305,-169.2 305,-191.2 428,-191.2 428,-169.2 305,-169.2"/>
<image xlink:href="../../images/foreignKeys.png" width="11px" height="12px" preserveAspectRatio="xMinYMin meet" x="310" y="-186.2"/>
<text text-anchor="start" x="325" y="-176.3" font-family="Helvetica,sans-Serif" font-size="11.00" fill="#000000">ciudad_id</text>
<polygon fill="none" stroke="#000000" points="428,-169.2 428,-191.2 663,-191.2 663,-169.2 428,-169.2"/>
<text text-anchor="start" x="431" y="-176.9" font-family="Helvetica,sans-Serif" font-size="11.00" fill="#000000">int4[10]</text>
<polygon fill="none" stroke="#000000" points="305,-147.2 305,-169.2 428,-169.2 428,-147.2 305,-147.2"/>
<text text-anchor="start" x="325" y="-154.3" font-family="Helvetica,sans-Serif" font-size="11.00" fill="#000000">principal</text>
<polygon fill="none" stroke="#000000" points="428,-147.2 428,-169.2 663,-169.2 663,-147.2 428,-147.2"/>
<text text-anchor="start" x="431" y="-154.9" font-family="Helvetica,sans-Serif" font-size="11.00" fill="#000000">bool[1]</text>
<polygon fill="none" stroke="#000000" points="305,-125.2 305,-147.2 428,-147.2 428,-125.2 305,-125.2"/>
<text text-anchor="start" x="325" y="-132.3" font-family="Helvetica,sans-Serif" font-size="11.00" fill="#000000">usu_insercion</text>
<polygon fill="none" stroke="#000000" points="428,-125.2 428,-147.2 663,-147.2 663,-125.2 428,-125.2"/>
<text text-anchor="start" x="431" y="-132.9" font-family="Helvetica,sans-Serif" font-size="11.00" fill="#000000">varchar[20]</text>
<polygon fill="none" stroke="#000000" points="305,-103.2 305,-125.2 428,-125.2 428,-103.2 305,-103.2"/>
<text text-anchor="start" x="325" y="-110.3" font-family="Helvetica,sans-Serif" font-size="11.00" fill="#000000">fec_insercion</text>
<polygon fill="none" stroke="#000000" points="428,-103.2 428,-125.2 663,-125.2 663,-103.2 428,-103.2"/>
<text text-anchor="start" x="431" y="-110.9" font-family="Helvetica,sans-Serif" font-size="11.00" fill="#000000">timestamptz[35,6]</text>
<polygon fill="none" stroke="#000000" points="305,-81.2 305,-103.2 428,-103.2 428,-81.2 305,-81.2"/>
<text text-anchor="start" x="325" y="-88.3" font-family="Helvetica,sans-Serif" font-size="11.00" fill="#000000">fec_modificacion</text>
<polygon fill="none" stroke="#000000" points="428,-81.2 428,-103.2 663,-103.2 663,-81.2 428,-81.2"/>
<text text-anchor="start" x="431" y="-88.9" font-family="Helvetica,sans-Serif" font-size="11.00" fill="#000000">timestamptz[35,6]</text>
<polygon fill="none" stroke="#000000" points="305,-59.2 305,-81.2 428,-81.2 428,-59.2 305,-59.2"/>
<text text-anchor="start" x="325" y="-66.3" font-family="Helvetica,sans-Serif" font-size="11.00" fill="#000000">usu_modificacion</text>
<polygon fill="none" stroke="#000000" points="428,-59.2 428,-81.2 663,-81.2 663,-59.2 428,-59.2"/>
<text text-anchor="start" x="431" y="-66.9" font-family="Helvetica,sans-Serif" font-size="11.00" fill="#000000">varchar[20]</text>
<polygon fill="#ffffff" stroke="transparent" points="305,-40.2 305,-59.2 358,-59.2 358,-40.2 305,-40.2"/>
<polygon fill="none" stroke="#000000" points="305,-40.2 305,-59.2 358,-59.2 358,-40.2 305,-40.2"/>
<text text-anchor="start" x="308" y="-46.3" font-family="Helvetica,sans-Serif" font-size="11.00" fill="#000000">&lt; 1</text>
<polygon fill="#ffffff" stroke="transparent" points="358,-40.2 358,-59.2 428,-59.2 428,-40.2 358,-40.2"/>
<polygon fill="none" stroke="#000000" points="358,-40.2 358,-59.2 428,-59.2 428,-40.2 358,-40.2"/>
<text text-anchor="start" x="392.6105" y="-46.3" font-family="Helvetica,sans-Serif" font-size="11.00" fill="#000000">0 rows</text>
<polygon fill="#ffffff" stroke="transparent" points="428,-40.2 428,-59.2 663,-59.2 663,-40.2 428,-40.2"/>
<polygon fill="none" stroke="#000000" points="428,-40.2 428,-59.2 663,-59.2 663,-40.2 428,-40.2"/>
<text text-anchor="start" x="644.4053" y="-46.3" font-family="Helvetica,sans-Serif" font-size="11.00" fill="#000000">0 &gt;</text>
<polygon fill="none" stroke="#000000" stroke-width="2" points="304,-39.2 304,-391.2 664,-391.2 664,-39.2 304,-39.2"/>
</a>
</g>
</g>
<!-- direcciones&#45;&gt;ciudades -->
<g id="edge2" class="edge">
<title>direcciones:w&#45;&gt;ciudades:e</title>
<path fill="none" stroke="#000000" d="M290.4203,-180.2C278.5435,-180.2 271.158,-180.2 254.5,-180.2"/>
<polygon fill="#000000" stroke="#000000" points="297,-180.2001 305,-183.8 301,-180.2 305,-180.2 305,-180.2 305,-180.2 301,-180.2 305,-176.6 297,-180.2001 297,-180.2001"/>
<ellipse fill="none" stroke="#000000" cx="293.8" cy="-180.2001" rx="3.2" ry="3.2"/>
</g>
</g>
</svg>
