<?xml version="1.0" encoding="UTF-8" standalone="no"?>
<!DOCTYPE svg PUBLIC "-//W3C//DTD SVG 1.1//EN"
 "http://www.w3.org/Graphics/SVG/1.1/DTD/svg11.dtd">
<!-- Generated by graphviz version 2.40.1 (20161225.0304)
 -->
<!-- Title: oneDegreeRelationshipsDiagram Pages: 1 -->
<svg width="415pt" height="312pt"
 viewBox="0.00 0.00 415.00 311.70" xmlns="http://www.w3.org/2000/svg" xmlns:xlink="http://www.w3.org/1999/xlink">
<g id="graph0" class="graph" transform="scale(1 1) rotate(0) translate(4 307.7)">
<title>oneDegreeRelationshipsDiagram</title>
<polygon fill="#ffffff" stroke="transparent" points="-4,4 -4,-307.7 411,-307.7 411,4 -4,4"/>
<text text-anchor="middle" x="72.4936" y="-7.3" font-family="Helvetica,sans-Serif" font-size="11.00" fill="#000000">Generated by SchemaSpy</text>
<!-- empleados -->
<g id="node1" class="node">
<title>empleados</title>
<g id="a_node1"><a xlink:href="../../tables/empleados.html" xlink:title="empleados" target="_top">
<polygon fill="#ffffff" stroke="transparent" points="180,-38.2 180,-282.2 399,-282.2 399,-38.2 180,-38.2"/>
<polygon fill="#f5f5f5" stroke="transparent" points="182.5,-257.2 182.5,-280.2 397.5,-280.2 397.5,-257.2 182.5,-257.2"/>
<polygon fill="none" stroke="#000000" points="182.5,-257.2 182.5,-280.2 397.5,-280.2 397.5,-257.2 182.5,-257.2"/>
<text text-anchor="start" x="187.5" y="-266.3" font-family="Helvetica,sans-Serif" font-weight="bold" font-size="11.00" fill="#000000">empleados</text>
<text text-anchor="start" x="362.5437" y="-265.3" font-family="Helvetica,sans-Serif" font-size="11.00" fill="#000000">[table]</text>
<polygon fill="none" stroke="#000000" points="182.5,-235.2 182.5,-257.2 305.5,-257.2 305.5,-235.2 182.5,-235.2"/>
<image xlink:href="../../images/primaryKeys.png" width="11px" height="12px" preserveAspectRatio="xMinYMin meet" x="187.5" y="-252.2"/>
<text text-anchor="start" x="202.5" y="-242.3" font-family="Helvetica,sans-Serif" font-size="11.00" fill="#000000">empleado_id</text>
<polygon fill="none" stroke="#000000" points="305.5,-235.2 305.5,-257.2 397.5,-257.2 397.5,-235.2 305.5,-235.2"/>
<text text-anchor="start" x="308.5" y="-242.9" font-family="Helvetica,sans-Serif" font-size="11.00" fill="#000000">serial[10]</text>
<polygon fill="none" stroke="#000000" points="182.5,-213.2 182.5,-235.2 305.5,-235.2 305.5,-213.2 182.5,-213.2"/>
<image xlink:href="../../images/foreignKeys.png" width="11px" height="12px" preserveAspectRatio="xMinYMin meet" x="187.5" y="-230.2"/>
<text text-anchor="start" x="202.5" y="-220.3" font-family="Helvetica,sans-Serif" font-size="11.00" fill="#000000">persona_id</text>
<polygon fill="none" stroke="#000000" points="305.5,-213.2 305.5,-235.2 397.5,-235.2 397.5,-213.2 305.5,-213.2"/>
<text text-anchor="start" x="308.5" y="-220.9" font-family="Helvetica,sans-Serif" font-size="11.00" fill="#000000">int4[10]</text>
<polygon fill="none" stroke="#000000" points="182.5,-191.2 182.5,-213.2 305.5,-213.2 305.5,-191.2 182.5,-191.2"/>
<image xlink:href="../../images/foreignKeys.png" width="11px" height="12px" preserveAspectRatio="xMinYMin meet" x="187.5" y="-208.2"/>
<text text-anchor="start" x="202.5" y="-198.3" font-family="Helvetica,sans-Serif" font-size="11.00" fill="#000000">usuario_id</text>
<polygon fill="none" stroke="#000000" points="305.5,-191.2 305.5,-213.2 397.5,-213.2 397.5,-191.2 305.5,-191.2"/>
<text text-anchor="start" x="308.5" y="-198.9" font-family="Helvetica,sans-Serif" font-size="11.00" fill="#000000">int4[10]</text>
<polygon fill="none" stroke="#000000" points="182.5,-169.2 182.5,-191.2 305.5,-191.2 305.5,-169.2 182.5,-169.2"/>
<text text-anchor="start" x="202.5" y="-176.3" font-family="Helvetica,sans-Serif" font-size="11.00" fill="#000000">activo</text>
<polygon fill="none" stroke="#000000" points="305.5,-169.2 305.5,-191.2 397.5,-191.2 397.5,-169.2 305.5,-169.2"/>
<text text-anchor="start" x="308.5" y="-176.9" font-family="Helvetica,sans-Serif" font-size="11.00" fill="#000000">bool[1]</text>
<polygon fill="none" stroke="#000000" points="182.5,-147.2 182.5,-169.2 305.5,-169.2 305.5,-147.2 182.5,-147.2"/>
<text text-anchor="start" x="202.5" y="-154.3" font-family="Helvetica,sans-Serif" font-size="11.00" fill="#000000">cargo</text>
<polygon fill="none" stroke="#000000" points="305.5,-147.2 305.5,-169.2 397.5,-169.2 397.5,-147.2 305.5,-147.2"/>
<text text-anchor="start" x="308.5" y="-154.9" font-family="Helvetica,sans-Serif" font-size="11.00" fill="#000000">varchar[255]</text>
<polygon fill="none" stroke="#000000" points="182.5,-125.2 182.5,-147.2 305.5,-147.2 305.5,-125.2 182.5,-125.2"/>
<text text-anchor="start" x="202.5" y="-132.3" font-family="Helvetica,sans-Serif" font-size="11.00" fill="#000000">usu_insercion</text>
<polygon fill="none" stroke="#000000" points="305.5,-125.2 305.5,-147.2 397.5,-147.2 397.5,-125.2 305.5,-125.2"/>
<text text-anchor="start" x="308.5" y="-132.9" font-family="Helvetica,sans-Serif" font-size="11.00" fill="#000000">varchar[20]</text>
<polygon fill="none" stroke="#000000" points="182.5,-103.2 182.5,-125.2 305.5,-125.2 305.5,-103.2 182.5,-103.2"/>
<text text-anchor="start" x="202.5" y="-110.3" font-family="Helvetica,sans-Serif" font-size="11.00" fill="#000000">fec_insercion</text>
<polygon fill="none" stroke="#000000" points="305.5,-103.2 305.5,-125.2 397.5,-125.2 397.5,-103.2 305.5,-103.2"/>
<text text-anchor="start" x="308.1023" y="-110.9" font-family="Helvetica,sans-Serif" font-size="11.00" fill="#000000">timestamptz[35,6]</text>
<polygon fill="none" stroke="#000000" points="182.5,-81.2 182.5,-103.2 305.5,-103.2 305.5,-81.2 182.5,-81.2"/>
<text text-anchor="start" x="202.5" y="-88.3" font-family="Helvetica,sans-Serif" font-size="11.00" fill="#000000">fec_modificacion</text>
<polygon fill="none" stroke="#000000" points="305.5,-81.2 305.5,-103.2 397.5,-103.2 397.5,-81.2 305.5,-81.2"/>
<text text-anchor="start" x="308.1023" y="-88.9" font-family="Helvetica,sans-Serif" font-size="11.00" fill="#000000">timestamptz[35,6]</text>
<polygon fill="none" stroke="#000000" points="182.5,-59.2 182.5,-81.2 305.5,-81.2 305.5,-59.2 182.5,-59.2"/>
<text text-anchor="start" x="202.5" y="-66.3" font-family="Helvetica,sans-Serif" font-size="11.00" fill="#000000">usu_modificacion</text>
<polygon fill="none" stroke="#000000" points="305.5,-59.2 305.5,-81.2 397.5,-81.2 397.5,-59.2 305.5,-59.2"/>
<text text-anchor="start" x="308.5" y="-66.9" font-family="Helvetica,sans-Serif" font-size="11.00" fill="#000000">varchar[20]</text>
<polygon fill="#ffffff" stroke="transparent" points="182.5,-40.2 182.5,-59.2 235.5,-59.2 235.5,-40.2 182.5,-40.2"/>
<polygon fill="none" stroke="#000000" points="182.5,-40.2 182.5,-59.2 235.5,-59.2 235.5,-40.2 182.5,-40.2"/>
<text text-anchor="start" x="185.5" y="-46.3" font-family="Helvetica,sans-Serif" font-size="11.00" fill="#000000">&lt; 2</text>
<polygon fill="#ffffff" stroke="transparent" points="235.5,-40.2 235.5,-59.2 305.5,-59.2 305.5,-40.2 235.5,-40.2"/>
<polygon fill="none" stroke="#000000" points="235.5,-40.2 235.5,-59.2 305.5,-59.2 305.5,-40.2 235.5,-40.2"/>
<text text-anchor="start" x="270.1105" y="-46.3" font-family="Helvetica,sans-Serif" font-size="11.00" fill="#000000">2 rows</text>
<polygon fill="#ffffff" stroke="transparent" points="305.5,-40.2 305.5,-59.2 397.5,-59.2 397.5,-40.2 305.5,-40.2"/>
<polygon fill="none" stroke="#000000" points="305.5,-40.2 305.5,-59.2 397.5,-59.2 397.5,-40.2 305.5,-40.2"/>
<text text-anchor="start" x="378.9053" y="-46.3" font-family="Helvetica,sans-Serif" font-size="11.00" fill="#000000">0 &gt;</text>
<polygon fill="none" stroke="#000000" stroke-width="2" points="181,-39.2 181,-281.2 398,-281.2 398,-39.2 181,-39.2"/>
</a>
</g>
</g>
<!-- personas -->
<g id="node2" class="node">
<title>personas</title>
<g id="a_node2"><a xlink:href="../../tables/personas.html" xlink:title="personas" target="_top">
<polygon fill="#ffffff" stroke="transparent" points="8,-216.7 8,-299.7 131,-299.7 131,-216.7 8,-216.7"/>
<polygon fill="#f5f5f5" stroke="transparent" points="8.5,-276.2 8.5,-299.2 131.5,-299.2 131.5,-276.2 8.5,-276.2"/>
<polygon fill="none" stroke="#000000" points="8.5,-276.2 8.5,-299.2 131.5,-299.2 131.5,-276.2 8.5,-276.2"/>
<text text-anchor="start" x="13.5" y="-285.3" font-family="Helvetica,sans-Serif" font-weight="bold" font-size="11.00" fill="#000000">personas</text>
<text text-anchor="start" x="96.5437" y="-284.3" font-family="Helvetica,sans-Serif" font-size="11.00" fill="#000000">[table]</text>
<polygon fill="none" stroke="#000000" points="8.5,-254.2 8.5,-276.2 131.5,-276.2 131.5,-254.2 8.5,-254.2"/>
<image xlink:href="../../images/primaryKeys.png" width="11px" height="12px" preserveAspectRatio="xMinYMin meet" x="13.5" y="-271.2"/>
<text text-anchor="start" x="28.5" y="-261.3" font-family="Helvetica,sans-Serif" font-size="11.00" fill="#000000">persona_id</text>
<polygon fill="none" stroke="#000000" points="8.5,-235.2 8.5,-254.2 131.5,-254.2 131.5,-235.2 8.5,-235.2"/>
<text text-anchor="start" x="11.5" y="-241.3" font-family="Helvetica,sans-Serif" font-size="11.00" fill="#000000">...</text>
<polygon fill="#ffffff" stroke="transparent" points="8.5,-216.2 8.5,-235.2 43.5,-235.2 43.5,-216.2 8.5,-216.2"/>
<polygon fill="none" stroke="#000000" points="8.5,-216.2 8.5,-235.2 43.5,-235.2 43.5,-216.2 8.5,-216.2"/>
<text text-anchor="start" x="11.5" y="-222.3" font-family="Helvetica,sans-Serif" font-size="11.00" fill="#000000"> &#160;</text>
<polygon fill="#ffffff" stroke="transparent" points="43.5,-216.2 43.5,-235.2 98.5,-235.2 98.5,-216.2 43.5,-216.2"/>
<polygon fill="none" stroke="#000000" points="43.5,-216.2 43.5,-235.2 98.5,-235.2 98.5,-216.2 43.5,-216.2"/>
<text text-anchor="start" x="56.9956" y="-222.3" font-family="Helvetica,sans-Serif" font-size="11.00" fill="#000000">14 rows</text>
<polygon fill="#ffffff" stroke="transparent" points="98.5,-216.2 98.5,-235.2 131.5,-235.2 131.5,-216.2 98.5,-216.2"/>
<polygon fill="none" stroke="#000000" points="98.5,-216.2 98.5,-235.2 131.5,-235.2 131.5,-216.2 98.5,-216.2"/>
<text text-anchor="start" x="112.9053" y="-222.3" font-family="Helvetica,sans-Serif" font-size="11.00" fill="#000000">7 &gt;</text>
</a>
</g>
</g>
<!-- empleados&#45;&gt;personas -->
<g id="edge1" class="edge">
<title>empleados:w&#45;&gt;personas:e</title>
<path fill="none" stroke="#000000" d="M168.6568,-228.5877C154.8325,-239.1646 154.6756,-265.2 131.5,-265.2"/>
<polygon fill="#000000" stroke="#000000" points="174.8739,-226.6172 183.5877,-227.6317 178.6869,-225.4086 182.5,-224.2 182.5,-224.2 182.5,-224.2 178.6869,-225.4086 181.4123,-220.7683 174.8739,-226.6172 174.8739,-226.6172"/>
<ellipse fill="none" stroke="#000000" cx="171.8235" cy="-227.5841" rx="3.2" ry="3.2"/>
</g>
<!-- usuarios -->
<g id="node3" class="node">
<title>usuarios</title>
<g id="a_node3"><a xlink:href="../../tables/usuarios.html" xlink:title="usuarios" target="_top">
<polygon fill="#ffffff" stroke="transparent" points="8,-90.7 8,-195.7 131,-195.7 131,-90.7 8,-90.7"/>
<polygon fill="#f5f5f5" stroke="transparent" points="8.5,-172.2 8.5,-195.2 131.5,-195.2 131.5,-172.2 8.5,-172.2"/>
<polygon fill="none" stroke="#000000" points="8.5,-172.2 8.5,-195.2 131.5,-195.2 131.5,-172.2 8.5,-172.2"/>
<text text-anchor="start" x="13.5" y="-181.3" font-family="Helvetica,sans-Serif" font-weight="bold" font-size="11.00" fill="#000000">usuarios</text>
<text text-anchor="start" x="96.5437" y="-180.3" font-family="Helvetica,sans-Serif" font-size="11.00" fill="#000000">[table]</text>
<polygon fill="none" stroke="#000000" points="8.5,-150.2 8.5,-172.2 131.5,-172.2 131.5,-150.2 8.5,-150.2"/>
<image xlink:href="../../images/primaryKeys.png" width="11px" height="12px" preserveAspectRatio="xMinYMin meet" x="13.5" y="-167.2"/>
<text text-anchor="start" x="28.5" y="-157.3" font-family="Helvetica,sans-Serif" font-size="11.00" fill="#000000">usuario_id</text>
<polygon fill="#ffffff" stroke="transparent" points="8.5,-128.2 8.5,-150.2 131.5,-150.2 131.5,-128.2 8.5,-128.2"/>
<polygon fill="none" stroke="#000000" points="8.5,-128.2 8.5,-150.2 131.5,-150.2 131.5,-128.2 8.5,-128.2"/>
<text text-anchor="start" x="28.5" y="-135.3" font-family="Helvetica,sans-Serif" font-size="11.00" fill="#000000">nom_usuario</text>
<polygon fill="none" stroke="#000000" points="8.5,-109.2 8.5,-128.2 131.5,-128.2 131.5,-109.2 8.5,-109.2"/>
<text text-anchor="start" x="11.5" y="-115.3" font-family="Helvetica,sans-Serif" font-size="11.00" fill="#000000">...</text>
<polygon fill="#ffffff" stroke="transparent" points="8.5,-90.2 8.5,-109.2 46.5,-109.2 46.5,-90.2 8.5,-90.2"/>
<polygon fill="none" stroke="#000000" points="8.5,-90.2 8.5,-109.2 46.5,-109.2 46.5,-90.2 8.5,-90.2"/>
<text text-anchor="start" x="11.5" y="-96.3" font-family="Helvetica,sans-Serif" font-size="11.00" fill="#000000"> &#160;</text>
<polygon fill="#ffffff" stroke="transparent" points="46.5,-90.2 46.5,-109.2 97.5,-109.2 97.5,-90.2 46.5,-90.2"/>
<polygon fill="none" stroke="#000000" points="46.5,-90.2 46.5,-109.2 97.5,-109.2 97.5,-90.2 46.5,-90.2"/>
<text text-anchor="start" x="62.1105" y="-96.3" font-family="Helvetica,sans-Serif" font-size="11.00" fill="#000000">2 rows</text>
<polygon fill="#ffffff" stroke="transparent" points="97.5,-90.2 97.5,-109.2 131.5,-109.2 131.5,-90.2 97.5,-90.2"/>
<polygon fill="none" stroke="#000000" points="97.5,-90.2 97.5,-109.2 131.5,-109.2 131.5,-90.2 97.5,-90.2"/>
<text text-anchor="start" x="112.9053" y="-96.3" font-family="Helvetica,sans-Serif" font-size="11.00" fill="#000000">6 &gt;</text>
</a>
</g>
</g>
<!-- empleados&#45;&gt;usuarios -->
<g id="edge2" class="edge">
<title>empleados:w&#45;&gt;usuarios:e</title>
<path fill="none" stroke="#000000" d="M168.6568,-197.8123C154.8325,-187.2354 154.6756,-161.2 131.5,-161.2"/>
<polygon fill="#000000" stroke="#000000" points="174.8739,-199.7828 181.4123,-205.6317 178.6869,-200.9914 182.5,-202.2 182.5,-202.2 182.5,-202.2 178.6869,-200.9914 183.5877,-198.7683 174.8739,-199.7828 174.8739,-199.7828"/>
<ellipse fill="none" stroke="#000000" cx="171.8235" cy="-198.8159" rx="3.2" ry="3.2"/>
</g>
</g>
</svg>
