<?xml version="1.0" encoding="UTF-8" standalone="no"?>
<!DOCTYPE svg PUBLIC "-//W3C//DTD SVG 1.1//EN"
 "http://www.w3.org/Graphics/SVG/1.1/DTD/svg11.dtd">
<!-- Generated by graphviz version 2.40.1 (20161225.0304)
 -->
<!-- Title: twoDegreesRelationshipsDiagram Pages: 1 -->
<svg width="415pt" height="369pt"
 viewBox="0.00 0.00 415.00 368.70" xmlns="http://www.w3.org/2000/svg" xmlns:xlink="http://www.w3.org/1999/xlink">
<g id="graph0" class="graph" transform="scale(1 1) rotate(0) translate(4 364.7)">
<title>twoDegreesRelationshipsDiagram</title>
<polygon fill="#ffffff" stroke="transparent" points="-4,4 -4,-364.7 411,-364.7 411,4 -4,4"/>
<text text-anchor="middle" x="72.4936" y="-7.3" font-family="Helvetica,sans-Serif" font-size="11.00" fill="#000000">Generated by SchemaSpy</text>
<!-- empleados -->
<g id="node1" class="node">
<title>empleados</title>
<g id="a_node1"><a xlink:href="../../tables/empleados.html" xlink:title="empleados" target="_top">
<polygon fill="#ffffff" stroke="transparent" points="180,-134.7 180,-356.7 399,-356.7 399,-134.7 180,-134.7"/>
<polygon fill="#f5f5f5" stroke="transparent" points="182.5,-331.7 182.5,-354.7 397.5,-354.7 397.5,-331.7 182.5,-331.7"/>
<polygon fill="none" stroke="#000000" points="182.5,-331.7 182.5,-354.7 397.5,-354.7 397.5,-331.7 182.5,-331.7"/>
<text text-anchor="start" x="187.5" y="-340.8" font-family="Helvetica,sans-Serif" font-weight="bold" font-size="11.00" fill="#000000">empleados</text>
<text text-anchor="start" x="362.5437" y="-339.8" font-family="Helvetica,sans-Serif" font-size="11.00" fill="#000000">[table]</text>
<polygon fill="none" stroke="#000000" points="182.5,-309.7 182.5,-331.7 305.5,-331.7 305.5,-309.7 182.5,-309.7"/>
<image xlink:href="../../images/primaryKeys.png" width="11px" height="12px" preserveAspectRatio="xMinYMin meet" x="187.5" y="-326.7"/>
<text text-anchor="start" x="202.5" y="-316.8" font-family="Helvetica,sans-Serif" font-size="11.00" fill="#000000">empleado_id</text>
<polygon fill="none" stroke="#000000" points="305.5,-309.7 305.5,-331.7 397.5,-331.7 397.5,-309.7 305.5,-309.7"/>
<text text-anchor="start" x="308.5" y="-317.4" font-family="Helvetica,sans-Serif" font-size="11.00" fill="#000000">serial[10]</text>
<polygon fill="none" stroke="#000000" points="182.5,-287.7 182.5,-309.7 305.5,-309.7 305.5,-287.7 182.5,-287.7"/>
<image xlink:href="../../images/foreignKeys.png" width="11px" height="12px" preserveAspectRatio="xMinYMin meet" x="187.5" y="-304.7"/>
<text text-anchor="start" x="202.5" y="-294.8" font-family="Helvetica,sans-Serif" font-size="11.00" fill="#000000">persona_id</text>
<polygon fill="none" stroke="#000000" points="305.5,-287.7 305.5,-309.7 397.5,-309.7 397.5,-287.7 305.5,-287.7"/>
<text text-anchor="start" x="308.5" y="-295.4" font-family="Helvetica,sans-Serif" font-size="11.00" fill="#000000">int4[10]</text>
<polygon fill="none" stroke="#000000" points="182.5,-265.7 182.5,-287.7 305.5,-287.7 305.5,-265.7 182.5,-265.7"/>
<image xlink:href="../../images/foreignKeys.png" width="11px" height="12px" preserveAspectRatio="xMinYMin meet" x="187.5" y="-282.7"/>
<text text-anchor="start" x="202.5" y="-272.8" font-family="Helvetica,sans-Serif" font-size="11.00" fill="#000000">usuario_id</text>
<polygon fill="none" stroke="#000000" points="305.5,-265.7 305.5,-287.7 397.5,-287.7 397.5,-265.7 305.5,-265.7"/>
<text text-anchor="start" x="308.5" y="-273.4" font-family="Helvetica,sans-Serif" font-size="11.00" fill="#000000">int4[10]</text>
<polygon fill="none" stroke="#000000" points="182.5,-243.7 182.5,-265.7 305.5,-265.7 305.5,-243.7 182.5,-243.7"/>
<text text-anchor="start" x="202.5" y="-250.8" font-family="Helvetica,sans-Serif" font-size="11.00" fill="#000000">activo</text>
<polygon fill="none" stroke="#000000" points="305.5,-243.7 305.5,-265.7 397.5,-265.7 397.5,-243.7 305.5,-243.7"/>
<text text-anchor="start" x="308.5" y="-251.4" font-family="Helvetica,sans-Serif" font-size="11.00" fill="#000000">bool[1]</text>
<polygon fill="none" stroke="#000000" points="182.5,-221.7 182.5,-243.7 305.5,-243.7 305.5,-221.7 182.5,-221.7"/>
<text text-anchor="start" x="202.5" y="-228.8" font-family="Helvetica,sans-Serif" font-size="11.00" fill="#000000">usu_insercion</text>
<polygon fill="none" stroke="#000000" points="305.5,-221.7 305.5,-243.7 397.5,-243.7 397.5,-221.7 305.5,-221.7"/>
<text text-anchor="start" x="308.5" y="-229.4" font-family="Helvetica,sans-Serif" font-size="11.00" fill="#000000">varchar[20]</text>
<polygon fill="none" stroke="#000000" points="182.5,-199.7 182.5,-221.7 305.5,-221.7 305.5,-199.7 182.5,-199.7"/>
<text text-anchor="start" x="202.5" y="-206.8" font-family="Helvetica,sans-Serif" font-size="11.00" fill="#000000">fec_insercion</text>
<polygon fill="none" stroke="#000000" points="305.5,-199.7 305.5,-221.7 397.5,-221.7 397.5,-199.7 305.5,-199.7"/>
<text text-anchor="start" x="308.1023" y="-207.4" font-family="Helvetica,sans-Serif" font-size="11.00" fill="#000000">timestamptz[35,6]</text>
<polygon fill="none" stroke="#000000" points="182.5,-177.7 182.5,-199.7 305.5,-199.7 305.5,-177.7 182.5,-177.7"/>
<text text-anchor="start" x="202.5" y="-184.8" font-family="Helvetica,sans-Serif" font-size="11.00" fill="#000000">fec_modificacion</text>
<polygon fill="none" stroke="#000000" points="305.5,-177.7 305.5,-199.7 397.5,-199.7 397.5,-177.7 305.5,-177.7"/>
<text text-anchor="start" x="308.1023" y="-185.4" font-family="Helvetica,sans-Serif" font-size="11.00" fill="#000000">timestamptz[35,6]</text>
<polygon fill="none" stroke="#000000" points="182.5,-155.7 182.5,-177.7 305.5,-177.7 305.5,-155.7 182.5,-155.7"/>
<text text-anchor="start" x="202.5" y="-162.8" font-family="Helvetica,sans-Serif" font-size="11.00" fill="#000000">usu_modificacion</text>
<polygon fill="none" stroke="#000000" points="305.5,-155.7 305.5,-177.7 397.5,-177.7 397.5,-155.7 305.5,-155.7"/>
<text text-anchor="start" x="308.5" y="-163.4" font-family="Helvetica,sans-Serif" font-size="11.00" fill="#000000">varchar[20]</text>
<polygon fill="#ffffff" stroke="transparent" points="182.5,-136.7 182.5,-155.7 235.5,-155.7 235.5,-136.7 182.5,-136.7"/>
<polygon fill="none" stroke="#000000" points="182.5,-136.7 182.5,-155.7 235.5,-155.7 235.5,-136.7 182.5,-136.7"/>
<text text-anchor="start" x="185.5" y="-142.8" font-family="Helvetica,sans-Serif" font-size="11.00" fill="#000000">&lt; 2</text>
<polygon fill="#ffffff" stroke="transparent" points="235.5,-136.7 235.5,-155.7 305.5,-155.7 305.5,-136.7 235.5,-136.7"/>
<polygon fill="none" stroke="#000000" points="235.5,-136.7 235.5,-155.7 305.5,-155.7 305.5,-136.7 235.5,-136.7"/>
<text text-anchor="start" x="270.1105" y="-142.8" font-family="Helvetica,sans-Serif" font-size="11.00" fill="#000000">0 rows</text>
<polygon fill="#ffffff" stroke="transparent" points="305.5,-136.7 305.5,-155.7 397.5,-155.7 397.5,-136.7 305.5,-136.7"/>
<polygon fill="none" stroke="#000000" points="305.5,-136.7 305.5,-155.7 397.5,-155.7 397.5,-136.7 305.5,-136.7"/>
<text text-anchor="start" x="378.9053" y="-142.8" font-family="Helvetica,sans-Serif" font-size="11.00" fill="#000000">0 &gt;</text>
<polygon fill="none" stroke="#000000" stroke-width="2" points="181,-135.7 181,-355.7 398,-355.7 398,-135.7 181,-135.7"/>
</a>
</g>
</g>
<!-- personas -->
<g id="node2" class="node">
<title>personas</title>
<g id="a_node2"><a xlink:href="../../tables/personas.html" xlink:title="personas" target="_top">
<polygon fill="#ffffff" stroke="transparent" points="8,-221.2 8,-304.2 131,-304.2 131,-221.2 8,-221.2"/>
<polygon fill="#f5f5f5" stroke="transparent" points="8.5,-280.7 8.5,-303.7 131.5,-303.7 131.5,-280.7 8.5,-280.7"/>
<polygon fill="none" stroke="#000000" points="8.5,-280.7 8.5,-303.7 131.5,-303.7 131.5,-280.7 8.5,-280.7"/>
<text text-anchor="start" x="13.5" y="-289.8" font-family="Helvetica,sans-Serif" font-weight="bold" font-size="11.00" fill="#000000">personas</text>
<text text-anchor="start" x="96.5437" y="-288.8" font-family="Helvetica,sans-Serif" font-size="11.00" fill="#000000">[table]</text>
<polygon fill="none" stroke="#000000" points="8.5,-258.7 8.5,-280.7 131.5,-280.7 131.5,-258.7 8.5,-258.7"/>
<image xlink:href="../../images/primaryKeys.png" width="11px" height="12px" preserveAspectRatio="xMinYMin meet" x="13.5" y="-275.7"/>
<text text-anchor="start" x="28.5" y="-265.8" font-family="Helvetica,sans-Serif" font-size="11.00" fill="#000000">persona_id</text>
<polygon fill="none" stroke="#000000" points="8.5,-239.7 8.5,-258.7 131.5,-258.7 131.5,-239.7 8.5,-239.7"/>
<text text-anchor="start" x="11.5" y="-245.8" font-family="Helvetica,sans-Serif" font-size="11.00" fill="#000000">...</text>
<polygon fill="#ffffff" stroke="transparent" points="8.5,-220.7 8.5,-239.7 43.5,-239.7 43.5,-220.7 8.5,-220.7"/>
<polygon fill="none" stroke="#000000" points="8.5,-220.7 8.5,-239.7 43.5,-239.7 43.5,-220.7 8.5,-220.7"/>
<text text-anchor="start" x="11.5" y="-226.8" font-family="Helvetica,sans-Serif" font-size="11.00" fill="#000000"> &#160;</text>
<polygon fill="#ffffff" stroke="transparent" points="43.5,-220.7 43.5,-239.7 98.5,-239.7 98.5,-220.7 43.5,-220.7"/>
<polygon fill="none" stroke="#000000" points="43.5,-220.7 43.5,-239.7 98.5,-239.7 98.5,-220.7 43.5,-220.7"/>
<text text-anchor="start" x="56.9956" y="-226.8" font-family="Helvetica,sans-Serif" font-size="11.00" fill="#000000">22 rows</text>
<polygon fill="#ffffff" stroke="transparent" points="98.5,-220.7 98.5,-239.7 131.5,-239.7 131.5,-220.7 98.5,-220.7"/>
<polygon fill="none" stroke="#000000" points="98.5,-220.7 98.5,-239.7 131.5,-239.7 131.5,-220.7 98.5,-220.7"/>
<text text-anchor="start" x="112.9053" y="-226.8" font-family="Helvetica,sans-Serif" font-size="11.00" fill="#000000">2 &gt;</text>
</a>
</g>
</g>
<!-- empleados&#45;&gt;personas -->
<g id="edge1" class="edge">
<title>empleados:w&#45;&gt;personas:e</title>
<path fill="none" stroke="#000000" d="M168.3364,-294.9088C155.5486,-287.048 151.6673,-269.7 131.5,-269.7"/>
<polygon fill="#000000" stroke="#000000" points="174.7721,-296.6314 181.5691,-302.1776 178.636,-297.6657 182.5,-298.7 182.5,-298.7 182.5,-298.7 178.636,-297.6657 183.4309,-295.2224 174.7721,-296.6314 174.7721,-296.6314"/>
<ellipse fill="none" stroke="#000000" cx="171.6809" cy="-295.8039" rx="3.2" ry="3.2"/>
</g>
<!-- usuarios -->
<g id="node3" class="node">
<title>usuarios</title>
<g id="a_node3"><a xlink:href="../../tables/usuarios.html" xlink:title="usuarios" target="_top">
<polygon fill="#ffffff" stroke="transparent" points="8,-38.2 8,-143.2 131,-143.2 131,-38.2 8,-38.2"/>
<polygon fill="#f5f5f5" stroke="transparent" points="8.5,-119.7 8.5,-142.7 131.5,-142.7 131.5,-119.7 8.5,-119.7"/>
<polygon fill="none" stroke="#000000" points="8.5,-119.7 8.5,-142.7 131.5,-142.7 131.5,-119.7 8.5,-119.7"/>
<text text-anchor="start" x="13.5" y="-128.8" font-family="Helvetica,sans-Serif" font-weight="bold" font-size="11.00" fill="#000000">usuarios</text>
<text text-anchor="start" x="96.5437" y="-127.8" font-family="Helvetica,sans-Serif" font-size="11.00" fill="#000000">[table]</text>
<polygon fill="none" stroke="#000000" points="8.5,-97.7 8.5,-119.7 131.5,-119.7 131.5,-97.7 8.5,-97.7"/>
<image xlink:href="../../images/primaryKeys.png" width="11px" height="12px" preserveAspectRatio="xMinYMin meet" x="13.5" y="-114.7"/>
<text text-anchor="start" x="28.5" y="-104.8" font-family="Helvetica,sans-Serif" font-size="11.00" fill="#000000">usuario_id</text>
<polygon fill="#ffffff" stroke="transparent" points="8.5,-75.7 8.5,-97.7 131.5,-97.7 131.5,-75.7 8.5,-75.7"/>
<polygon fill="none" stroke="#000000" points="8.5,-75.7 8.5,-97.7 131.5,-97.7 131.5,-75.7 8.5,-75.7"/>
<text text-anchor="start" x="28.5" y="-82.8" font-family="Helvetica,sans-Serif" font-size="11.00" fill="#000000">nom_usuario</text>
<polygon fill="none" stroke="#000000" points="8.5,-56.7 8.5,-75.7 131.5,-75.7 131.5,-56.7 8.5,-56.7"/>
<text text-anchor="start" x="11.5" y="-62.8" font-family="Helvetica,sans-Serif" font-size="11.00" fill="#000000">...</text>
<polygon fill="#ffffff" stroke="transparent" points="8.5,-37.7 8.5,-56.7 46.5,-56.7 46.5,-37.7 8.5,-37.7"/>
<polygon fill="none" stroke="#000000" points="8.5,-37.7 8.5,-56.7 46.5,-56.7 46.5,-37.7 8.5,-37.7"/>
<text text-anchor="start" x="11.5" y="-43.8" font-family="Helvetica,sans-Serif" font-size="11.00" fill="#000000"> &#160;</text>
<polygon fill="#ffffff" stroke="transparent" points="46.5,-37.7 46.5,-56.7 97.5,-56.7 97.5,-37.7 46.5,-37.7"/>
<polygon fill="none" stroke="#000000" points="46.5,-37.7 46.5,-56.7 97.5,-56.7 97.5,-37.7 46.5,-37.7"/>
<text text-anchor="start" x="62.1105" y="-43.8" font-family="Helvetica,sans-Serif" font-size="11.00" fill="#000000">2 rows</text>
<polygon fill="#ffffff" stroke="transparent" points="97.5,-37.7 97.5,-56.7 131.5,-56.7 131.5,-37.7 97.5,-37.7"/>
<polygon fill="none" stroke="#000000" points="97.5,-37.7 97.5,-56.7 131.5,-56.7 131.5,-37.7 97.5,-37.7"/>
<text text-anchor="start" x="112.9053" y="-43.8" font-family="Helvetica,sans-Serif" font-size="11.00" fill="#000000">2 &gt;</text>
</a>
</g>
</g>
<!-- empleados&#45;&gt;usuarios -->
<g id="edge2" class="edge">
<title>empleados:w&#45;&gt;usuarios:e</title>
<path fill="none" stroke="#000000" d="M168.3134,-274.1948C118.6973,-253.2961 203.8923,-108.7 131.5,-108.7"/>
<polygon fill="#000000" stroke="#000000" points="174.6219,-275.3087 181.8739,-280.2451 178.5609,-276.0044 182.5,-276.7 182.5,-276.7 182.5,-276.7 178.5609,-276.0044 183.1261,-273.1549 174.6219,-275.3087 174.6219,-275.3087"/>
<ellipse fill="none" stroke="#000000" cx="171.4707" cy="-274.7522" rx="3.2" ry="3.2"/>
</g>
<!-- leads -->
<g id="node4" class="node">
<title>leads</title>
<g id="a_node4"><a xlink:href="../../tables/leads.html" xlink:title="leads" target="_top">
<polygon fill="#ffffff" stroke="transparent" points="254,-52.2 254,-113.2 325,-113.2 325,-52.2 254,-52.2"/>
<polygon fill="#f5f5f5" stroke="transparent" points="254.5,-89.7 254.5,-112.7 325.5,-112.7 325.5,-89.7 254.5,-89.7"/>
<polygon fill="none" stroke="#000000" points="254.5,-89.7 254.5,-112.7 325.5,-112.7 325.5,-89.7 254.5,-89.7"/>
<text text-anchor="start" x="259.5" y="-98.8" font-family="Helvetica,sans-Serif" font-weight="bold" font-size="11.00" fill="#000000">leads</text>
<text text-anchor="start" x="290.5437" y="-97.8" font-family="Helvetica,sans-Serif" font-size="11.00" fill="#000000">[table]</text>
<polygon fill="none" stroke="#000000" points="254.5,-70.7 254.5,-89.7 325.5,-89.7 325.5,-70.7 254.5,-70.7"/>
<text text-anchor="start" x="257.5" y="-76.8" font-family="Helvetica,sans-Serif" font-size="11.00" fill="#000000">...</text>
<polygon fill="#ffffff" stroke="transparent" points="254.5,-51.7 254.5,-70.7 275.5,-70.7 275.5,-51.7 254.5,-51.7"/>
<polygon fill="none" stroke="#000000" points="254.5,-51.7 254.5,-70.7 275.5,-70.7 275.5,-51.7 254.5,-51.7"/>
<text text-anchor="start" x="257.2027" y="-57.8" font-family="Helvetica,sans-Serif" font-size="11.00" fill="#000000">&lt; 2</text>
<polygon fill="#ffffff" stroke="transparent" points="275.5,-51.7 275.5,-70.7 313.5,-70.7 313.5,-51.7 275.5,-51.7"/>
<polygon fill="none" stroke="#000000" points="275.5,-51.7 275.5,-70.7 313.5,-70.7 313.5,-51.7 275.5,-51.7"/>
<text text-anchor="start" x="278.3053" y="-57.8" font-family="Helvetica,sans-Serif" font-size="11.00" fill="#000000">0 rows</text>
<polygon fill="#ffffff" stroke="transparent" points="313.5,-51.7 313.5,-70.7 325.5,-70.7 325.5,-51.7 313.5,-51.7"/>
<polygon fill="none" stroke="#000000" points="313.5,-51.7 313.5,-70.7 325.5,-70.7 325.5,-51.7 313.5,-51.7"/>
<text text-anchor="start" x="316.4431" y="-57.8" font-family="Helvetica,sans-Serif" font-size="11.00" fill="#000000"> &#160;</text>
</a>
</g>
</g>
<!-- leads&#45;&gt;personas -->
<g id="edge3" class="edge">
<title>leads:w&#45;&gt;personas:e</title>
<path fill="none" stroke="#000000" d="M240.0299,-80.2929C208.8738,-83.0964 194.749,-96.098 172,-124.7 130.3491,-177.0669 198.411,-269.7 131.5,-269.7"/>
<polygon fill="#000000" stroke="#000000" points="246.5067,-80.0276 254.6474,-83.297 250.5034,-79.8638 254.5,-79.7 254.5,-79.7 254.5,-79.7 250.5034,-79.8638 254.3526,-76.103 246.5067,-80.0276 246.5067,-80.0276"/>
<ellipse fill="none" stroke="#000000" cx="243.3094" cy="-80.1586" rx="3.2" ry="3.2"/>
</g>
<!-- leads&#45;&gt;usuarios -->
<g id="edge4" class="edge">
<title>leads:w&#45;&gt;usuarios:e</title>
<path fill="none" stroke="#000000" d="M240.1123,-80.3883C195.9923,-84.7798 182.5097,-108.7 131.5,-108.7"/>
<polygon fill="#000000" stroke="#000000" points="246.5091,-80.0823 254.672,-83.2959 250.5046,-79.8912 254.5,-79.7 254.5,-79.7 254.5,-79.7 250.5046,-79.8912 254.328,-76.1041 246.5091,-80.0823 246.5091,-80.0823"/>
<ellipse fill="none" stroke="#000000" cx="243.3128" cy="-80.2352" rx="3.2" ry="3.2"/>
</g>
</g>
</svg>
