<?xml version="1.0" encoding="UTF-8" standalone="no"?>
<!DOCTYPE svg PUBLIC "-//W3C//DTD SVG 1.1//EN"
 "http://www.w3.org/Graphics/SVG/1.1/DTD/svg11.dtd">
<!-- Generated by graphviz version 2.40.1 (20161225.0304)
 -->
<!-- Title: twoDegreesRelationshipsDiagram Pages: 1 -->
<svg width="748pt" height="704pt"
 viewBox="0.00 0.00 748.00 703.91" xmlns="http://www.w3.org/2000/svg" xmlns:xlink="http://www.w3.org/1999/xlink">
<g id="graph0" class="graph" transform="scale(1 1) rotate(0) translate(4 699.9063)">
<title>twoDegreesRelationshipsDiagram</title>
<polygon fill="#ffffff" stroke="transparent" points="-4,4 -4,-699.9063 744,-699.9063 744,4 -4,4"/>
<text text-anchor="middle" x="72.4936" y="-7.3" font-family="Helvetica,sans-Serif" font-size="11.00" fill="#000000">Generated by SchemaSpy</text>
<!-- casos -->
<g id="node1" class="node">
<title>casos</title>
<g id="a_node1"><a xlink:href="../../tables/casos.html" xlink:title="casos" target="_top">
<polygon fill="#ffffff" stroke="transparent" points="640.5,-460.2 640.5,-521.2 711.5,-521.2 711.5,-460.2 640.5,-460.2"/>
<polygon fill="#f5f5f5" stroke="transparent" points="641,-497.7 641,-520.7 712,-520.7 712,-497.7 641,-497.7"/>
<polygon fill="none" stroke="#000000" points="641,-497.7 641,-520.7 712,-520.7 712,-497.7 641,-497.7"/>
<text text-anchor="start" x="645.6351" y="-506.8" font-family="Helvetica,sans-Serif" font-weight="bold" font-size="11.00" fill="#000000">casos</text>
<text text-anchor="start" x="677.5219" y="-505.8" font-family="Helvetica,sans-Serif" font-size="11.00" fill="#000000">[table]</text>
<polygon fill="none" stroke="#000000" points="641,-478.7 641,-497.7 712,-497.7 712,-478.7 641,-478.7"/>
<text text-anchor="start" x="644" y="-484.8" font-family="Helvetica,sans-Serif" font-size="11.00" fill="#000000">...</text>
<polygon fill="#ffffff" stroke="transparent" points="641,-459.7 641,-478.7 662,-478.7 662,-459.7 641,-459.7"/>
<polygon fill="none" stroke="#000000" points="641,-459.7 641,-478.7 662,-478.7 662,-459.7 641,-459.7"/>
<text text-anchor="start" x="643.7026" y="-465.8" font-family="Helvetica,sans-Serif" font-size="11.00" fill="#000000">&lt; 3</text>
<polygon fill="#ffffff" stroke="transparent" points="662,-459.7 662,-478.7 700,-478.7 700,-459.7 662,-459.7"/>
<polygon fill="none" stroke="#000000" points="662,-459.7 662,-478.7 700,-478.7 700,-459.7 662,-459.7"/>
<text text-anchor="start" x="664.8053" y="-465.8" font-family="Helvetica,sans-Serif" font-size="11.00" fill="#000000">3 rows</text>
<polygon fill="#ffffff" stroke="transparent" points="700,-459.7 700,-478.7 712,-478.7 712,-459.7 700,-459.7"/>
<polygon fill="none" stroke="#000000" points="700,-459.7 700,-478.7 712,-478.7 712,-459.7 700,-459.7"/>
<text text-anchor="start" x="702.9431" y="-465.8" font-family="Helvetica,sans-Serif" font-size="11.00" fill="#000000"> &#160;</text>
</a>
</g>
</g>
<!-- contactos -->
<g id="node2" class="node">
<title>contactos</title>
<g id="a_node2"><a xlink:href="../../tables/contactos.html" xlink:title="contactos" target="_top">
<polygon fill="#ffffff" stroke="transparent" points="416.5,-165.2 416.5,-226.2 506.5,-226.2 506.5,-165.2 416.5,-165.2"/>
<polygon fill="#f5f5f5" stroke="transparent" points="416.5,-202.7 416.5,-225.7 506.5,-225.7 506.5,-202.7 416.5,-202.7"/>
<polygon fill="none" stroke="#000000" points="416.5,-202.7 416.5,-225.7 506.5,-225.7 506.5,-202.7 416.5,-202.7"/>
<text text-anchor="start" x="421.4633" y="-211.8" font-family="Helvetica,sans-Serif" font-weight="bold" font-size="11.00" fill="#000000">contactos</text>
<text text-anchor="start" x="472.0219" y="-210.8" font-family="Helvetica,sans-Serif" font-size="11.00" fill="#000000">[table]</text>
<polygon fill="none" stroke="#000000" points="416.5,-183.7 416.5,-202.7 506.5,-202.7 506.5,-183.7 416.5,-183.7"/>
<text text-anchor="start" x="419.5" y="-189.8" font-family="Helvetica,sans-Serif" font-size="11.00" fill="#000000">...</text>
<polygon fill="#ffffff" stroke="transparent" points="416.5,-164.7 416.5,-183.7 442.5,-183.7 442.5,-164.7 416.5,-164.7"/>
<polygon fill="none" stroke="#000000" points="416.5,-164.7 416.5,-183.7 442.5,-183.7 442.5,-164.7 416.5,-164.7"/>
<text text-anchor="start" x="419.5" y="-170.8" font-family="Helvetica,sans-Serif" font-size="11.00" fill="#000000">&lt; 2</text>
<polygon fill="#ffffff" stroke="transparent" points="442.5,-164.7 442.5,-183.7 482.5,-183.7 482.5,-164.7 442.5,-164.7"/>
<polygon fill="none" stroke="#000000" points="442.5,-164.7 442.5,-183.7 482.5,-183.7 482.5,-164.7 442.5,-164.7"/>
<text text-anchor="start" x="447.1105" y="-170.8" font-family="Helvetica,sans-Serif" font-size="11.00" fill="#000000">2 rows</text>
<polygon fill="#ffffff" stroke="transparent" points="482.5,-164.7 482.5,-183.7 506.5,-183.7 506.5,-164.7 482.5,-164.7"/>
<polygon fill="none" stroke="#000000" points="482.5,-164.7 482.5,-183.7 506.5,-183.7 506.5,-164.7 482.5,-164.7"/>
<text text-anchor="start" x="487.9053" y="-170.8" font-family="Helvetica,sans-Serif" font-size="11.00" fill="#000000">5 &gt;</text>
</a>
</g>
</g>
<!-- casos&#45;&gt;contactos -->
<g id="edge1" class="edge">
<title>casos:w&#45;&gt;contactos:e</title>
<path fill="none" stroke="#000000" d="M626.6272,-486.7206C536.7965,-473.2976 643.9216,-325.0452 579,-236.7 556.6801,-206.3271 544.1921,-192.7 506.5,-192.7"/>
<polygon fill="#000000" stroke="#000000" points="633.0185,-487.156 640.7552,-491.2917 637.0093,-487.428 641,-487.7 641,-487.7 641,-487.7 637.0093,-487.428 641.2448,-484.1083 633.0185,-487.156 633.0185,-487.156"/>
<ellipse fill="none" stroke="#000000" cx="629.8259" cy="-486.9385" rx="3.2" ry="3.2"/>
</g>
<!-- leads -->
<g id="node3" class="node">
<title>leads</title>
<g id="a_node3"><a xlink:href="../../tables/leads.html" xlink:title="leads" target="_top">
<polygon fill="#ffffff" stroke="transparent" points="421.5,-594.2 421.5,-655.2 501.5,-655.2 501.5,-594.2 421.5,-594.2"/>
<polygon fill="#f5f5f5" stroke="transparent" points="421.5,-631.7 421.5,-654.7 501.5,-654.7 501.5,-631.7 421.5,-631.7"/>
<polygon fill="none" stroke="#000000" points="421.5,-631.7 421.5,-654.7 501.5,-654.7 501.5,-631.7 421.5,-631.7"/>
<text text-anchor="start" x="426.5" y="-640.8" font-family="Helvetica,sans-Serif" font-weight="bold" font-size="11.00" fill="#000000">leads</text>
<text text-anchor="start" x="466.5437" y="-639.8" font-family="Helvetica,sans-Serif" font-size="11.00" fill="#000000">[table]</text>
<polygon fill="none" stroke="#000000" points="421.5,-612.7 421.5,-631.7 501.5,-631.7 501.5,-612.7 421.5,-612.7"/>
<text text-anchor="start" x="424.5" y="-618.8" font-family="Helvetica,sans-Serif" font-size="11.00" fill="#000000">...</text>
<polygon fill="#ffffff" stroke="transparent" points="421.5,-593.7 421.5,-612.7 442.5,-612.7 442.5,-593.7 421.5,-593.7"/>
<polygon fill="none" stroke="#000000" points="421.5,-593.7 421.5,-612.7 442.5,-612.7 442.5,-593.7 421.5,-593.7"/>
<text text-anchor="start" x="424.2027" y="-599.8" font-family="Helvetica,sans-Serif" font-size="11.00" fill="#000000">&lt; 4</text>
<polygon fill="#ffffff" stroke="transparent" points="442.5,-593.7 442.5,-612.7 480.5,-612.7 480.5,-593.7 442.5,-593.7"/>
<polygon fill="none" stroke="#000000" points="442.5,-593.7 442.5,-612.7 480.5,-612.7 480.5,-593.7 442.5,-593.7"/>
<text text-anchor="start" x="445.3053" y="-599.8" font-family="Helvetica,sans-Serif" font-size="11.00" fill="#000000">6 rows</text>
<polygon fill="#ffffff" stroke="transparent" points="480.5,-593.7 480.5,-612.7 501.5,-612.7 501.5,-593.7 480.5,-593.7"/>
<polygon fill="none" stroke="#000000" points="480.5,-593.7 480.5,-612.7 501.5,-612.7 501.5,-593.7 480.5,-593.7"/>
<text text-anchor="start" x="483.2027" y="-599.8" font-family="Helvetica,sans-Serif" font-size="11.00" fill="#000000">3 &gt;</text>
</a>
</g>
</g>
<!-- casos&#45;&gt;leads -->
<g id="edge2" class="edge">
<title>casos:w&#45;&gt;leads:e</title>
<path fill="none" stroke="#000000" d="M626.6916,-489.7803C602.2435,-497.9908 603.6732,-528.8598 579,-552.7 545.8346,-584.7456 547.6179,-621.7 501.5,-621.7"/>
<polygon fill="#000000" stroke="#000000" points="633.0832,-488.8511 641.518,-491.2625 637.0416,-488.2755 641,-487.7 641,-487.7 641,-487.7 637.0416,-488.2755 640.482,-484.1375 633.0832,-488.8511 633.0832,-488.8511"/>
<ellipse fill="none" stroke="#000000" cx="629.9165" cy="-489.3115" rx="3.2" ry="3.2"/>
</g>
<!-- usuarios -->
<g id="node4" class="node">
<title>usuarios</title>
<g id="a_node4"><a xlink:href="../../tables/usuarios.html" xlink:title="usuarios" target="_top">
<polygon fill="#ffffff" stroke="transparent" points="180,-477.2 180,-582.2 303,-582.2 303,-477.2 180,-477.2"/>
<polygon fill="#f5f5f5" stroke="transparent" points="180.5,-558.7 180.5,-581.7 303.5,-581.7 303.5,-558.7 180.5,-558.7"/>
<polygon fill="none" stroke="#000000" points="180.5,-558.7 180.5,-581.7 303.5,-581.7 303.5,-558.7 180.5,-558.7"/>
<text text-anchor="start" x="185.5" y="-567.8" font-family="Helvetica,sans-Serif" font-weight="bold" font-size="11.00" fill="#000000">usuarios</text>
<text text-anchor="start" x="268.5437" y="-566.8" font-family="Helvetica,sans-Serif" font-size="11.00" fill="#000000">[table]</text>
<polygon fill="none" stroke="#000000" points="180.5,-536.7 180.5,-558.7 303.5,-558.7 303.5,-536.7 180.5,-536.7"/>
<image xlink:href="../../images/primaryKeys.png" width="11px" height="12px" preserveAspectRatio="xMinYMin meet" x="185.5" y="-553.7"/>
<text text-anchor="start" x="200.5" y="-543.8" font-family="Helvetica,sans-Serif" font-size="11.00" fill="#000000">usuario_id</text>
<polygon fill="#ffffff" stroke="transparent" points="180.5,-514.7 180.5,-536.7 303.5,-536.7 303.5,-514.7 180.5,-514.7"/>
<polygon fill="none" stroke="#000000" points="180.5,-514.7 180.5,-536.7 303.5,-536.7 303.5,-514.7 180.5,-514.7"/>
<text text-anchor="start" x="200.5" y="-521.8" font-family="Helvetica,sans-Serif" font-size="11.00" fill="#000000">nom_usuario</text>
<polygon fill="none" stroke="#000000" points="180.5,-495.7 180.5,-514.7 303.5,-514.7 303.5,-495.7 180.5,-495.7"/>
<text text-anchor="start" x="183.5" y="-501.8" font-family="Helvetica,sans-Serif" font-size="11.00" fill="#000000">...</text>
<polygon fill="#ffffff" stroke="transparent" points="180.5,-476.7 180.5,-495.7 218.5,-495.7 218.5,-476.7 180.5,-476.7"/>
<polygon fill="none" stroke="#000000" points="180.5,-476.7 180.5,-495.7 218.5,-495.7 218.5,-476.7 180.5,-476.7"/>
<text text-anchor="start" x="183.5" y="-482.8" font-family="Helvetica,sans-Serif" font-size="11.00" fill="#000000"> &#160;</text>
<polygon fill="#ffffff" stroke="transparent" points="218.5,-476.7 218.5,-495.7 269.5,-495.7 269.5,-476.7 218.5,-476.7"/>
<polygon fill="none" stroke="#000000" points="218.5,-476.7 218.5,-495.7 269.5,-495.7 269.5,-476.7 218.5,-476.7"/>
<text text-anchor="start" x="234.1105" y="-482.8" font-family="Helvetica,sans-Serif" font-size="11.00" fill="#000000">2 rows</text>
<polygon fill="#ffffff" stroke="transparent" points="269.5,-476.7 269.5,-495.7 303.5,-495.7 303.5,-476.7 269.5,-476.7"/>
<polygon fill="none" stroke="#000000" points="269.5,-476.7 269.5,-495.7 303.5,-495.7 303.5,-476.7 269.5,-476.7"/>
<text text-anchor="start" x="284.9053" y="-482.8" font-family="Helvetica,sans-Serif" font-size="11.00" fill="#000000">6 &gt;</text>
</a>
</g>
</g>
<!-- casos&#45;&gt;usuarios -->
<g id="edge3" class="edge">
<title>casos:w&#45;&gt;usuarios:e</title>
<path fill="none" stroke="#000000" d="M626.696,-490.0452C608.068,-496.9858 604.3295,-517.4529 579,-525.7 462.2009,-563.7291 426.3342,-547.7 303.5,-547.7"/>
<polygon fill="#000000" stroke="#000000" points="633.1054,-488.9944 641.5825,-491.2526 637.0527,-488.3472 641,-487.7 641,-487.7 641,-487.7 637.0527,-488.3472 640.4175,-484.1474 633.1054,-488.9944 633.1054,-488.9944"/>
<ellipse fill="none" stroke="#000000" cx="629.9476" cy="-489.5122" rx="3.2" ry="3.2"/>
</g>
<!-- organizaciones -->
<g id="node5" class="node">
<title>organizaciones</title>
<g id="a_node5"><a xlink:href="../../tables/organizaciones.html" xlink:title="organizaciones" target="_top">
<polygon fill="#ffffff" stroke="transparent" points="183.5,-202.2 183.5,-263.2 299.5,-263.2 299.5,-202.2 183.5,-202.2"/>
<polygon fill="#f5f5f5" stroke="transparent" points="183.5,-239.7 183.5,-262.7 299.5,-262.7 299.5,-239.7 183.5,-239.7"/>
<polygon fill="none" stroke="#000000" points="183.5,-239.7 183.5,-262.7 299.5,-262.7 299.5,-239.7 183.5,-239.7"/>
<text text-anchor="start" x="188.0186" y="-248.8" font-family="Helvetica,sans-Serif" font-weight="bold" font-size="11.00" fill="#000000">organizaciones</text>
<text text-anchor="start" x="265.0219" y="-247.8" font-family="Helvetica,sans-Serif" font-size="11.00" fill="#000000">[table]</text>
<polygon fill="none" stroke="#000000" points="183.5,-220.7 183.5,-239.7 299.5,-239.7 299.5,-220.7 183.5,-220.7"/>
<text text-anchor="start" x="186.5" y="-226.8" font-family="Helvetica,sans-Serif" font-size="11.00" fill="#000000">...</text>
<polygon fill="#ffffff" stroke="transparent" points="183.5,-201.7 183.5,-220.7 222.5,-220.7 222.5,-201.7 183.5,-201.7"/>
<polygon fill="none" stroke="#000000" points="183.5,-201.7 183.5,-220.7 222.5,-220.7 222.5,-201.7 183.5,-201.7"/>
<text text-anchor="start" x="186.5" y="-207.8" font-family="Helvetica,sans-Serif" font-size="11.00" fill="#000000">&lt; 1</text>
<polygon fill="#ffffff" stroke="transparent" points="222.5,-201.7 222.5,-220.7 269.5,-220.7 269.5,-201.7 222.5,-201.7"/>
<polygon fill="none" stroke="#000000" points="222.5,-201.7 222.5,-220.7 269.5,-220.7 269.5,-201.7 222.5,-201.7"/>
<text text-anchor="start" x="234.1105" y="-207.8" font-family="Helvetica,sans-Serif" font-size="11.00" fill="#000000">2 rows</text>
<polygon fill="#ffffff" stroke="transparent" points="269.5,-201.7 269.5,-220.7 299.5,-220.7 299.5,-201.7 269.5,-201.7"/>
<polygon fill="none" stroke="#000000" points="269.5,-201.7 269.5,-220.7 299.5,-220.7 299.5,-201.7 269.5,-201.7"/>
<text text-anchor="start" x="280.9053" y="-207.8" font-family="Helvetica,sans-Serif" font-size="11.00" fill="#000000">1 &gt;</text>
</a>
</g>
</g>
<!-- contactos&#45;&gt;organizaciones -->
<g id="edge4" class="edge">
<title>contactos:w&#45;&gt;organizaciones:e</title>
<path fill="none" stroke="#000000" d="M402.0407,-193.6518C360.0182,-199.4431 348.8188,-229.7 299.5,-229.7"/>
<polygon fill="#000000" stroke="#000000" points="408.5173,-193.2255 416.7365,-196.2922 412.5086,-192.9628 416.5,-192.7 416.5,-192.7 416.5,-192.7 412.5086,-192.9628 416.2635,-189.1078 408.5173,-193.2255 408.5173,-193.2255"/>
<ellipse fill="none" stroke="#000000" cx="405.3242" cy="-193.4357" rx="3.2" ry="3.2"/>
</g>
<!-- personas -->
<g id="node6" class="node">
<title>personas</title>
<g id="a_node6"><a xlink:href="../../tables/personas.html" xlink:title="personas" target="_top">
<polygon fill="#ffffff" stroke="transparent" points="8,-263.2 8,-346.2 131,-346.2 131,-263.2 8,-263.2"/>
<polygon fill="#f5f5f5" stroke="transparent" points="8.5,-322.7 8.5,-345.7 131.5,-345.7 131.5,-322.7 8.5,-322.7"/>
<polygon fill="none" stroke="#000000" points="8.5,-322.7 8.5,-345.7 131.5,-345.7 131.5,-322.7 8.5,-322.7"/>
<text text-anchor="start" x="13.5" y="-331.8" font-family="Helvetica,sans-Serif" font-weight="bold" font-size="11.00" fill="#000000">personas</text>
<text text-anchor="start" x="96.5437" y="-330.8" font-family="Helvetica,sans-Serif" font-size="11.00" fill="#000000">[table]</text>
<polygon fill="none" stroke="#000000" points="8.5,-300.7 8.5,-322.7 131.5,-322.7 131.5,-300.7 8.5,-300.7"/>
<image xlink:href="../../images/primaryKeys.png" width="11px" height="12px" preserveAspectRatio="xMinYMin meet" x="13.5" y="-317.7"/>
<text text-anchor="start" x="28.5" y="-307.8" font-family="Helvetica,sans-Serif" font-size="11.00" fill="#000000">persona_id</text>
<polygon fill="none" stroke="#000000" points="8.5,-281.7 8.5,-300.7 131.5,-300.7 131.5,-281.7 8.5,-281.7"/>
<text text-anchor="start" x="11.5" y="-287.8" font-family="Helvetica,sans-Serif" font-size="11.00" fill="#000000">...</text>
<polygon fill="#ffffff" stroke="transparent" points="8.5,-262.7 8.5,-281.7 43.5,-281.7 43.5,-262.7 8.5,-262.7"/>
<polygon fill="none" stroke="#000000" points="8.5,-262.7 8.5,-281.7 43.5,-281.7 43.5,-262.7 8.5,-262.7"/>
<text text-anchor="start" x="11.5" y="-268.8" font-family="Helvetica,sans-Serif" font-size="11.00" fill="#000000"> &#160;</text>
<polygon fill="#ffffff" stroke="transparent" points="43.5,-262.7 43.5,-281.7 98.5,-281.7 98.5,-262.7 43.5,-262.7"/>
<polygon fill="none" stroke="#000000" points="43.5,-262.7 43.5,-281.7 98.5,-281.7 98.5,-262.7 43.5,-262.7"/>
<text text-anchor="start" x="56.9956" y="-268.8" font-family="Helvetica,sans-Serif" font-size="11.00" fill="#000000">14 rows</text>
<polygon fill="#ffffff" stroke="transparent" points="98.5,-262.7 98.5,-281.7 131.5,-281.7 131.5,-262.7 98.5,-262.7"/>
<polygon fill="none" stroke="#000000" points="98.5,-262.7 98.5,-281.7 131.5,-281.7 131.5,-262.7 98.5,-262.7"/>
<text text-anchor="start" x="112.9053" y="-268.8" font-family="Helvetica,sans-Serif" font-size="11.00" fill="#000000">7 &gt;</text>
</a>
</g>
</g>
<!-- contactos&#45;&gt;personas -->
<g id="edge5" class="edge">
<title>contactos:w&#45;&gt;personas:e</title>
<path fill="none" stroke="#000000" d="M402.0183,-193.5334C375.2048,-196.941 363.5492,-210.8728 344,-236.7 310.8755,-280.462 354.6882,-322.4783 311,-355.7 261.825,-393.094 228.5737,-380.5175 172,-355.7 147.6604,-345.0228 158.0786,-311.7 131.5,-311.7"/>
<polygon fill="#000000" stroke="#000000" points="408.5132,-193.1597 416.7069,-196.2941 412.5066,-192.9298 416.5,-192.7 416.5,-192.7 416.5,-192.7 412.5066,-192.9298 416.2931,-189.1059 408.5132,-193.1597 408.5132,-193.1597"/>
<ellipse fill="none" stroke="#000000" cx="405.3185" cy="-193.3436" rx="3.2" ry="3.2"/>
</g>
<!-- leads&#45;&gt;usuarios -->
<g id="edge10" class="edge">
<title>leads:w&#45;&gt;usuarios:e</title>
<path fill="none" stroke="#000000" d="M406.7948,-620.541C380.209,-615.9284 372.1129,-598.2257 344,-579.7 324.8445,-567.077 326.4406,-547.7 303.5,-547.7"/>
<polygon fill="#000000" stroke="#000000" points="413.5247,-621.0714 421.2171,-625.2889 417.5124,-621.3857 421.5,-621.7 421.5,-621.7 421.5,-621.7 417.5124,-621.3857 421.7829,-618.1111 413.5247,-621.0714 413.5247,-621.0714"/>
<ellipse fill="none" stroke="#000000" cx="410.3346" cy="-620.8199" rx="3.2" ry="3.2"/>
</g>
<!-- leads&#45;&gt;personas -->
<g id="edge9" class="edge">
<title>leads:w&#45;&gt;personas:e</title>
<path fill="none" stroke="#000000" d="M407.0876,-621.9681C304.7372,-625.7486 248.4971,-667.1271 172,-592.7 126.7812,-548.7049 194.5897,-311.7 131.5,-311.7"/>
<polygon fill="#000000" stroke="#000000" points="413.5014,-621.8488 421.567,-625.2994 417.5007,-621.7744 421.5,-621.7 421.5,-621.7 421.5,-621.7 417.5007,-621.7744 421.433,-618.1006 413.5014,-621.8488 413.5014,-621.8488"/>
<ellipse fill="none" stroke="#000000" cx="410.3019" cy="-621.9084" rx="3.2" ry="3.2"/>
</g>
<!-- organizaciones&#45;&gt;personas -->
<g id="edge16" class="edge">
<title>organizaciones:w&#45;&gt;personas:e</title>
<path fill="none" stroke="#000000" d="M169.4589,-234.1087C148.463,-251.1409 168.586,-311.7 131.5,-311.7"/>
<polygon fill="#000000" stroke="#000000" points="175.8674,-232.0966 184.5785,-233.1347 179.6837,-230.8983 183.5,-229.7 183.5,-229.7 183.5,-229.7 179.6837,-230.8983 182.4215,-226.2653 175.8674,-232.0966 175.8674,-232.0966"/>
<ellipse fill="none" stroke="#000000" cx="172.8143" cy="-233.0552" rx="3.2" ry="3.2"/>
</g>
<!-- direcciones -->
<g id="node7" class="node">
<title>direcciones</title>
<g id="a_node7"><a xlink:href="../../tables/direcciones.html" xlink:title="direcciones" target="_top">
<polygon fill="#ffffff" stroke="transparent" points="192.5,-284.2 192.5,-345.2 290.5,-345.2 290.5,-284.2 192.5,-284.2"/>
<polygon fill="#f5f5f5" stroke="transparent" points="192.5,-321.7 192.5,-344.7 290.5,-344.7 290.5,-321.7 192.5,-321.7"/>
<polygon fill="none" stroke="#000000" points="192.5,-321.7 192.5,-344.7 290.5,-344.7 290.5,-321.7 192.5,-321.7"/>
<text text-anchor="start" x="197.1909" y="-330.8" font-family="Helvetica,sans-Serif" font-weight="bold" font-size="11.00" fill="#000000">direcciones</text>
<text text-anchor="start" x="256.0219" y="-329.8" font-family="Helvetica,sans-Serif" font-size="11.00" fill="#000000">[table]</text>
<polygon fill="none" stroke="#000000" points="192.5,-302.7 192.5,-321.7 290.5,-321.7 290.5,-302.7 192.5,-302.7"/>
<text text-anchor="start" x="195.5" y="-308.8" font-family="Helvetica,sans-Serif" font-size="11.00" fill="#000000">...</text>
<polygon fill="#ffffff" stroke="transparent" points="192.5,-283.7 192.5,-302.7 226.5,-302.7 226.5,-283.7 192.5,-283.7"/>
<polygon fill="none" stroke="#000000" points="192.5,-283.7 192.5,-302.7 226.5,-302.7 226.5,-283.7 192.5,-283.7"/>
<text text-anchor="start" x="195.5" y="-289.8" font-family="Helvetica,sans-Serif" font-size="11.00" fill="#000000">&lt; 1</text>
<polygon fill="#ffffff" stroke="transparent" points="226.5,-283.7 226.5,-302.7 271.5,-302.7 271.5,-283.7 226.5,-283.7"/>
<polygon fill="none" stroke="#000000" points="226.5,-283.7 226.5,-302.7 271.5,-302.7 271.5,-283.7 226.5,-283.7"/>
<text text-anchor="start" x="236.1105" y="-289.8" font-family="Helvetica,sans-Serif" font-size="11.00" fill="#000000">8 rows</text>
<polygon fill="#ffffff" stroke="transparent" points="271.5,-283.7 271.5,-302.7 290.5,-302.7 290.5,-283.7 271.5,-283.7"/>
<polygon fill="none" stroke="#000000" points="271.5,-283.7 271.5,-302.7 290.5,-302.7 290.5,-283.7 271.5,-283.7"/>
<text text-anchor="start" x="281.3862" y="-289.8" font-family="Helvetica,sans-Serif" font-size="11.00" fill="#000000"> &#160;</text>
</a>
</g>
</g>
<!-- direcciones&#45;&gt;personas -->
<g id="edge6" class="edge">
<title>direcciones:w&#45;&gt;personas:e</title>
<path fill="none" stroke="#000000" d="M177.6762,-311.7C161.6248,-311.7 152.8924,-311.7 131.5,-311.7"/>
<polygon fill="#000000" stroke="#000000" points="184.5,-311.7001 192.5,-315.3 188.5,-311.7 192.5,-311.7 192.5,-311.7 192.5,-311.7 188.5,-311.7 192.5,-308.1 184.5,-311.7001 184.5,-311.7001"/>
<ellipse fill="none" stroke="#000000" cx="181.3" cy="-311.7001" rx="3.2" ry="3.2"/>
</g>
<!-- empleados -->
<g id="node8" class="node">
<title>empleados</title>
<g id="a_node8"><a xlink:href="../../tables/empleados.html" xlink:title="empleados" target="_top">
<polygon fill="#ffffff" stroke="transparent" points="352,-247.7 352,-491.7 571,-491.7 571,-247.7 352,-247.7"/>
<polygon fill="#f5f5f5" stroke="transparent" points="354.5,-466.7 354.5,-489.7 569.5,-489.7 569.5,-466.7 354.5,-466.7"/>
<polygon fill="none" stroke="#000000" points="354.5,-466.7 354.5,-489.7 569.5,-489.7 569.5,-466.7 354.5,-466.7"/>
<text text-anchor="start" x="359.5" y="-475.8" font-family="Helvetica,sans-Serif" font-weight="bold" font-size="11.00" fill="#000000">empleados</text>
<text text-anchor="start" x="534.5437" y="-474.8" font-family="Helvetica,sans-Serif" font-size="11.00" fill="#000000">[table]</text>
<polygon fill="none" stroke="#000000" points="354.5,-444.7 354.5,-466.7 477.5,-466.7 477.5,-444.7 354.5,-444.7"/>
<image xlink:href="../../images/primaryKeys.png" width="11px" height="12px" preserveAspectRatio="xMinYMin meet" x="359.5" y="-461.7"/>
<text text-anchor="start" x="374.5" y="-451.8" font-family="Helvetica,sans-Serif" font-size="11.00" fill="#000000">empleado_id</text>
<polygon fill="none" stroke="#000000" points="477.5,-444.7 477.5,-466.7 569.5,-466.7 569.5,-444.7 477.5,-444.7"/>
<text text-anchor="start" x="480.5" y="-452.4" font-family="Helvetica,sans-Serif" font-size="11.00" fill="#000000">serial[10]</text>
<polygon fill="none" stroke="#000000" points="354.5,-422.7 354.5,-444.7 477.5,-444.7 477.5,-422.7 354.5,-422.7"/>
<image xlink:href="../../images/foreignKeys.png" width="11px" height="12px" preserveAspectRatio="xMinYMin meet" x="359.5" y="-439.7"/>
<text text-anchor="start" x="374.5" y="-429.8" font-family="Helvetica,sans-Serif" font-size="11.00" fill="#000000">persona_id</text>
<polygon fill="none" stroke="#000000" points="477.5,-422.7 477.5,-444.7 569.5,-444.7 569.5,-422.7 477.5,-422.7"/>
<text text-anchor="start" x="480.5" y="-430.4" font-family="Helvetica,sans-Serif" font-size="11.00" fill="#000000">int4[10]</text>
<polygon fill="none" stroke="#000000" points="354.5,-400.7 354.5,-422.7 477.5,-422.7 477.5,-400.7 354.5,-400.7"/>
<image xlink:href="../../images/foreignKeys.png" width="11px" height="12px" preserveAspectRatio="xMinYMin meet" x="359.5" y="-417.7"/>
<text text-anchor="start" x="374.5" y="-407.8" font-family="Helvetica,sans-Serif" font-size="11.00" fill="#000000">usuario_id</text>
<polygon fill="none" stroke="#000000" points="477.5,-400.7 477.5,-422.7 569.5,-422.7 569.5,-400.7 477.5,-400.7"/>
<text text-anchor="start" x="480.5" y="-408.4" font-family="Helvetica,sans-Serif" font-size="11.00" fill="#000000">int4[10]</text>
<polygon fill="none" stroke="#000000" points="354.5,-378.7 354.5,-400.7 477.5,-400.7 477.5,-378.7 354.5,-378.7"/>
<text text-anchor="start" x="374.5" y="-385.8" font-family="Helvetica,sans-Serif" font-size="11.00" fill="#000000">activo</text>
<polygon fill="none" stroke="#000000" points="477.5,-378.7 477.5,-400.7 569.5,-400.7 569.5,-378.7 477.5,-378.7"/>
<text text-anchor="start" x="480.5" y="-386.4" font-family="Helvetica,sans-Serif" font-size="11.00" fill="#000000">bool[1]</text>
<polygon fill="none" stroke="#000000" points="354.5,-356.7 354.5,-378.7 477.5,-378.7 477.5,-356.7 354.5,-356.7"/>
<text text-anchor="start" x="374.5" y="-363.8" font-family="Helvetica,sans-Serif" font-size="11.00" fill="#000000">cargo</text>
<polygon fill="none" stroke="#000000" points="477.5,-356.7 477.5,-378.7 569.5,-378.7 569.5,-356.7 477.5,-356.7"/>
<text text-anchor="start" x="480.5" y="-364.4" font-family="Helvetica,sans-Serif" font-size="11.00" fill="#000000">varchar[255]</text>
<polygon fill="none" stroke="#000000" points="354.5,-334.7 354.5,-356.7 477.5,-356.7 477.5,-334.7 354.5,-334.7"/>
<text text-anchor="start" x="374.5" y="-341.8" font-family="Helvetica,sans-Serif" font-size="11.00" fill="#000000">usu_insercion</text>
<polygon fill="none" stroke="#000000" points="477.5,-334.7 477.5,-356.7 569.5,-356.7 569.5,-334.7 477.5,-334.7"/>
<text text-anchor="start" x="480.5" y="-342.4" font-family="Helvetica,sans-Serif" font-size="11.00" fill="#000000">varchar[20]</text>
<polygon fill="none" stroke="#000000" points="354.5,-312.7 354.5,-334.7 477.5,-334.7 477.5,-312.7 354.5,-312.7"/>
<text text-anchor="start" x="374.5" y="-319.8" font-family="Helvetica,sans-Serif" font-size="11.00" fill="#000000">fec_insercion</text>
<polygon fill="none" stroke="#000000" points="477.5,-312.7 477.5,-334.7 569.5,-334.7 569.5,-312.7 477.5,-312.7"/>
<text text-anchor="start" x="480.1023" y="-320.4" font-family="Helvetica,sans-Serif" font-size="11.00" fill="#000000">timestamptz[35,6]</text>
<polygon fill="none" stroke="#000000" points="354.5,-290.7 354.5,-312.7 477.5,-312.7 477.5,-290.7 354.5,-290.7"/>
<text text-anchor="start" x="374.5" y="-297.8" font-family="Helvetica,sans-Serif" font-size="11.00" fill="#000000">fec_modificacion</text>
<polygon fill="none" stroke="#000000" points="477.5,-290.7 477.5,-312.7 569.5,-312.7 569.5,-290.7 477.5,-290.7"/>
<text text-anchor="start" x="480.1023" y="-298.4" font-family="Helvetica,sans-Serif" font-size="11.00" fill="#000000">timestamptz[35,6]</text>
<polygon fill="none" stroke="#000000" points="354.5,-268.7 354.5,-290.7 477.5,-290.7 477.5,-268.7 354.5,-268.7"/>
<text text-anchor="start" x="374.5" y="-275.8" font-family="Helvetica,sans-Serif" font-size="11.00" fill="#000000">usu_modificacion</text>
<polygon fill="none" stroke="#000000" points="477.5,-268.7 477.5,-290.7 569.5,-290.7 569.5,-268.7 477.5,-268.7"/>
<text text-anchor="start" x="480.5" y="-276.4" font-family="Helvetica,sans-Serif" font-size="11.00" fill="#000000">varchar[20]</text>
<polygon fill="#ffffff" stroke="transparent" points="354.5,-249.7 354.5,-268.7 407.5,-268.7 407.5,-249.7 354.5,-249.7"/>
<polygon fill="none" stroke="#000000" points="354.5,-249.7 354.5,-268.7 407.5,-268.7 407.5,-249.7 354.5,-249.7"/>
<text text-anchor="start" x="357.5" y="-255.8" font-family="Helvetica,sans-Serif" font-size="11.00" fill="#000000">&lt; 2</text>
<polygon fill="#ffffff" stroke="transparent" points="407.5,-249.7 407.5,-268.7 477.5,-268.7 477.5,-249.7 407.5,-249.7"/>
<polygon fill="none" stroke="#000000" points="407.5,-249.7 407.5,-268.7 477.5,-268.7 477.5,-249.7 407.5,-249.7"/>
<text text-anchor="start" x="442.1105" y="-255.8" font-family="Helvetica,sans-Serif" font-size="11.00" fill="#000000">2 rows</text>
<polygon fill="#ffffff" stroke="transparent" points="477.5,-249.7 477.5,-268.7 569.5,-268.7 569.5,-249.7 477.5,-249.7"/>
<polygon fill="none" stroke="#000000" points="477.5,-249.7 477.5,-268.7 569.5,-268.7 569.5,-249.7 477.5,-249.7"/>
<text text-anchor="start" x="550.9053" y="-255.8" font-family="Helvetica,sans-Serif" font-size="11.00" fill="#000000">0 &gt;</text>
<polygon fill="none" stroke="#000000" stroke-width="2" points="353,-248.7 353,-490.7 570,-490.7 570,-248.7 353,-248.7"/>
</a>
</g>
</g>
<!-- empleados&#45;&gt;usuarios -->
<g id="edge8" class="edge">
<title>empleados:w&#45;&gt;usuarios:e</title>
<path fill="none" stroke="#000000" d="M340.3483,-414.7961C302.829,-435.0397 362.2549,-547.7 303.5,-547.7"/>
<polygon fill="#000000" stroke="#000000" points="346.6848,-413.4098 355.2694,-415.2168 350.5924,-412.5549 354.5,-411.7 354.5,-411.7 354.5,-411.7 350.5924,-412.5549 353.7306,-408.1832 346.6848,-413.4098 346.6848,-413.4098"/>
<ellipse fill="none" stroke="#000000" cx="343.5588" cy="-414.0938" rx="3.2" ry="3.2"/>
</g>
<!-- empleados&#45;&gt;personas -->
<g id="edge7" class="edge">
<title>empleados:w&#45;&gt;personas:e</title>
<path fill="none" stroke="#000000" d="M339.7037,-433.6664C266.0131,-433.2638 234.7455,-428.4629 172,-379.7 144.225,-358.1145 166.6765,-311.7 131.5,-311.7"/>
<polygon fill="#000000" stroke="#000000" points="346.5,-433.6818 354.4918,-437.3 350.5,-433.6909 354.5,-433.7 354.5,-433.7 354.5,-433.7 350.5,-433.6909 354.5082,-430.1 346.5,-433.6818 346.5,-433.6818"/>
<ellipse fill="none" stroke="#000000" cx="343.3" cy="-433.6745" rx="3.2" ry="3.2"/>
</g>
<!-- llamadas -->
<g id="node9" class="node">
<title>llamadas</title>
<g id="a_node9"><a xlink:href="../../tables/llamadas.html" xlink:title="llamadas" target="_top">
<polygon fill="#ffffff" stroke="transparent" points="632.5,-624.2 632.5,-685.2 719.5,-685.2 719.5,-624.2 632.5,-624.2"/>
<polygon fill="#f5f5f5" stroke="transparent" points="633,-661.7 633,-684.7 720,-684.7 720,-661.7 633,-661.7"/>
<polygon fill="none" stroke="#000000" points="633,-661.7 633,-684.7 720,-684.7 720,-661.7 633,-661.7"/>
<text text-anchor="start" x="637.9984" y="-670.8" font-family="Helvetica,sans-Serif" font-weight="bold" font-size="11.00" fill="#000000">llamadas</text>
<text text-anchor="start" x="685.5219" y="-669.8" font-family="Helvetica,sans-Serif" font-size="11.00" fill="#000000">[table]</text>
<polygon fill="none" stroke="#000000" points="633,-642.7 633,-661.7 720,-661.7 720,-642.7 633,-642.7"/>
<text text-anchor="start" x="636" y="-648.8" font-family="Helvetica,sans-Serif" font-size="11.00" fill="#000000">...</text>
<polygon fill="#ffffff" stroke="transparent" points="633,-623.7 633,-642.7 665,-642.7 665,-623.7 633,-623.7"/>
<polygon fill="none" stroke="#000000" points="633,-623.7 633,-642.7 665,-642.7 665,-623.7 633,-623.7"/>
<text text-anchor="start" x="636" y="-629.8" font-family="Helvetica,sans-Serif" font-size="11.00" fill="#000000">&lt; 3</text>
<polygon fill="#ffffff" stroke="transparent" points="665,-623.7 665,-642.7 702,-642.7 702,-623.7 665,-623.7"/>
<polygon fill="none" stroke="#000000" points="665,-623.7 665,-642.7 702,-642.7 702,-623.7 665,-623.7"/>
<text text-anchor="start" x="672.1105" y="-629.8" font-family="Helvetica,sans-Serif" font-size="11.00" fill="#000000">1 row</text>
<polygon fill="#ffffff" stroke="transparent" points="702,-623.7 702,-642.7 720,-642.7 720,-623.7 702,-623.7"/>
<polygon fill="none" stroke="#000000" points="702,-623.7 702,-642.7 720,-642.7 720,-623.7 702,-623.7"/>
<text text-anchor="start" x="710.8862" y="-629.8" font-family="Helvetica,sans-Serif" font-size="11.00" fill="#000000"> &#160;</text>
</a>
</g>
</g>
<!-- llamadas&#45;&gt;contactos -->
<g id="edge11" class="edge">
<title>llamadas:w&#45;&gt;contactos:e</title>
<path fill="none" stroke="#000000" d="M619.8349,-645.3499C615.2834,-638.0929 615.6509,-625.668 612,-613.7 587.462,-533.2613 623.409,-308.1167 579,-236.7 559.0963,-204.6917 544.1921,-192.7 506.5,-192.7"/>
<polygon fill="#000000" stroke="#000000" points="625.7944,-648.2244 631.436,-654.9425 629.3972,-649.9622 633,-651.7 633,-651.7 633,-651.7 629.3972,-649.9622 634.564,-648.4575 625.7944,-648.2244 625.7944,-648.2244"/>
<ellipse fill="none" stroke="#000000" cx="622.9122" cy="-646.8342" rx="3.2" ry="3.2"/>
</g>
<!-- llamadas&#45;&gt;leads -->
<g id="edge12" class="edge">
<title>llamadas:w&#45;&gt;leads:e</title>
<path fill="none" stroke="#000000" d="M618.5548,-651.0734C570.7018,-646.7653 556.2945,-621.7 501.5,-621.7"/>
<polygon fill="#000000" stroke="#000000" points="625.0075,-651.3533 632.844,-655.2966 629.0038,-651.5266 633,-651.7 633,-651.7 633,-651.7 629.0038,-651.5266 633.156,-648.1034 625.0075,-651.3533 625.0075,-651.3533"/>
<ellipse fill="none" stroke="#000000" cx="621.8105" cy="-651.2146" rx="3.2" ry="3.2"/>
</g>
<!-- llamadas&#45;&gt;usuarios -->
<g id="edge13" class="edge">
<title>llamadas:w&#45;&gt;usuarios:e</title>
<path fill="none" stroke="#000000" d="M618.3758,-653.2509C604.9469,-656.3679 597.83,-663.2988 579,-665.7 475.3946,-678.9119 428.9998,-726.3933 344,-665.7 298.8753,-633.4792 358.9475,-547.7 303.5,-547.7"/>
<polygon fill="#000000" stroke="#000000" points="625.0446,-652.5437 633.3797,-655.2799 629.0223,-652.1219 633,-651.7 633,-651.7 633,-651.7 629.0223,-652.1219 632.6203,-648.1201 625.0446,-652.5437 625.0446,-652.5437"/>
<ellipse fill="none" stroke="#000000" cx="621.8625" cy="-652.8812" rx="3.2" ry="3.2"/>
</g>
<!-- oportunidades -->
<g id="node10" class="node">
<title>oportunidades</title>
<g id="a_node10"><a xlink:href="../../tables/oportunidades.html" xlink:title="oportunidades" target="_top">
<polygon fill="#ffffff" stroke="transparent" points="620,-271.2 620,-332.2 732,-332.2 732,-271.2 620,-271.2"/>
<polygon fill="#f5f5f5" stroke="transparent" points="620,-308.7 620,-331.7 732,-331.7 732,-308.7 620,-308.7"/>
<polygon fill="none" stroke="#000000" points="620,-308.7 620,-331.7 732,-331.7 732,-308.7 620,-308.7"/>
<text text-anchor="start" x="624.6531" y="-317.8" font-family="Helvetica,sans-Serif" font-weight="bold" font-size="11.00" fill="#000000">oportunidades</text>
<text text-anchor="start" x="697.5219" y="-316.8" font-family="Helvetica,sans-Serif" font-size="11.00" fill="#000000">[table]</text>
<polygon fill="none" stroke="#000000" points="620,-289.7 620,-308.7 732,-308.7 732,-289.7 620,-289.7"/>
<text text-anchor="start" x="623" y="-295.8" font-family="Helvetica,sans-Serif" font-size="11.00" fill="#000000">...</text>
<polygon fill="#ffffff" stroke="transparent" points="620,-270.7 620,-289.7 654,-289.7 654,-270.7 620,-270.7"/>
<polygon fill="none" stroke="#000000" points="620,-270.7 620,-289.7 654,-289.7 654,-270.7 620,-270.7"/>
<text text-anchor="start" x="623" y="-276.8" font-family="Helvetica,sans-Serif" font-size="11.00" fill="#000000">&lt; 4</text>
<polygon fill="#ffffff" stroke="transparent" points="654,-270.7 654,-289.7 704,-289.7 704,-270.7 654,-270.7"/>
<polygon fill="none" stroke="#000000" points="654,-270.7 654,-289.7 704,-289.7 704,-270.7 654,-270.7"/>
<text text-anchor="start" x="662.4956" y="-276.8" font-family="Helvetica,sans-Serif" font-size="11.00" fill="#000000">13 rows</text>
<polygon fill="#ffffff" stroke="transparent" points="704,-270.7 704,-289.7 732,-289.7 732,-270.7 704,-270.7"/>
<polygon fill="none" stroke="#000000" points="704,-270.7 704,-289.7 732,-289.7 732,-270.7 704,-270.7"/>
<text text-anchor="start" x="713.4053" y="-276.8" font-family="Helvetica,sans-Serif" font-size="11.00" fill="#000000">1 &gt;</text>
</a>
</g>
</g>
<!-- oportunidades&#45;&gt;contactos -->
<g id="edge14" class="edge">
<title>oportunidades:w&#45;&gt;contactos:e</title>
<path fill="none" stroke="#000000" d="M605.9891,-294.9409C591.5118,-284.6077 598.3444,-255.3081 579,-236.7 551.8357,-210.5697 544.1921,-192.7 506.5,-192.7"/>
<polygon fill="#000000" stroke="#000000" points="612.2733,-296.6269 619.0671,-302.177 616.1366,-297.6634 620,-298.7 620,-298.7 620,-298.7 616.1366,-297.6634 620.9329,-295.223 612.2733,-296.6269 612.2733,-296.6269"/>
<ellipse fill="none" stroke="#000000" cx="609.1826" cy="-295.7976" rx="3.2" ry="3.2"/>
</g>
<!-- oportunidades&#45;&gt;usuarios -->
<g id="edge15" class="edge">
<title>oportunidades:w&#45;&gt;usuarios:e</title>
<path fill="none" stroke="#000000" d="M605.4492,-300.2107C541.3551,-315.5838 643.3271,-444.3029 579,-502.7 540.133,-537.984 394.301,-511.6861 344,-526.7 324.5711,-532.4992 323.7759,-547.7 303.5,-547.7"/>
<polygon fill="#000000" stroke="#000000" points="612.0428,-299.5262 620.3718,-302.2808 616.0214,-299.1131 620,-298.7 620,-298.7 620,-298.7 616.0214,-299.1131 619.6282,-295.1192 612.0428,-299.5262 612.0428,-299.5262"/>
<ellipse fill="none" stroke="#000000" cx="608.8599" cy="-299.8567" rx="3.2" ry="3.2"/>
</g>
<!-- profesores -->
<g id="node11" class="node">
<title>profesores</title>
<g id="a_node11"><a xlink:href="../../tables/profesores.html" xlink:title="profesores" target="_top">
<polygon fill="#ffffff" stroke="transparent" points="194.5,-120.2 194.5,-181.2 288.5,-181.2 288.5,-120.2 194.5,-120.2"/>
<polygon fill="#f5f5f5" stroke="transparent" points="194.5,-157.7 194.5,-180.7 288.5,-180.7 288.5,-157.7 194.5,-157.7"/>
<polygon fill="none" stroke="#000000" points="194.5,-157.7 194.5,-180.7 288.5,-180.7 288.5,-157.7 194.5,-157.7"/>
<text text-anchor="start" x="199.0224" y="-166.8" font-family="Helvetica,sans-Serif" font-weight="bold" font-size="11.00" fill="#000000">profesores</text>
<text text-anchor="start" x="254.0219" y="-165.8" font-family="Helvetica,sans-Serif" font-size="11.00" fill="#000000">[table]</text>
<polygon fill="none" stroke="#000000" points="194.5,-138.7 194.5,-157.7 288.5,-157.7 288.5,-138.7 194.5,-138.7"/>
<text text-anchor="start" x="197.5" y="-144.8" font-family="Helvetica,sans-Serif" font-size="11.00" fill="#000000">...</text>
<polygon fill="#ffffff" stroke="transparent" points="194.5,-119.7 194.5,-138.7 225.5,-138.7 225.5,-119.7 194.5,-119.7"/>
<polygon fill="none" stroke="#000000" points="194.5,-119.7 194.5,-138.7 225.5,-138.7 225.5,-119.7 194.5,-119.7"/>
<text text-anchor="start" x="197.5" y="-125.8" font-family="Helvetica,sans-Serif" font-size="11.00" fill="#000000">&lt; 1</text>
<polygon fill="#ffffff" stroke="transparent" points="225.5,-119.7 225.5,-138.7 262.5,-138.7 262.5,-119.7 225.5,-119.7"/>
<polygon fill="none" stroke="#000000" points="225.5,-119.7 225.5,-138.7 262.5,-138.7 262.5,-119.7 225.5,-119.7"/>
<text text-anchor="start" x="232.6105" y="-125.8" font-family="Helvetica,sans-Serif" font-size="11.00" fill="#000000">1 row</text>
<polygon fill="#ffffff" stroke="transparent" points="262.5,-119.7 262.5,-138.7 288.5,-138.7 288.5,-119.7 262.5,-119.7"/>
<polygon fill="none" stroke="#000000" points="262.5,-119.7 262.5,-138.7 288.5,-138.7 288.5,-119.7 262.5,-119.7"/>
<text text-anchor="start" x="269.9053" y="-125.8" font-family="Helvetica,sans-Serif" font-size="11.00" fill="#000000">1 &gt;</text>
</a>
</g>
</g>
<!-- profesores&#45;&gt;personas -->
<g id="edge17" class="edge">
<title>profesores:w&#45;&gt;personas:e</title>
<path fill="none" stroke="#000000" d="M180.1257,-150.1456C128.9888,-170.5467 203.9393,-311.7 131.5,-311.7"/>
<polygon fill="#000000" stroke="#000000" points="186.6133,-149.0419 195.1038,-151.249 190.5567,-148.3709 194.5,-147.7 194.5,-147.7 194.5,-147.7 190.5567,-148.3709 193.8962,-144.151 186.6133,-149.0419 186.6133,-149.0419"/>
<ellipse fill="none" stroke="#000000" cx="183.4587" cy="-149.5786" rx="3.2" ry="3.2"/>
</g>
<!-- tareas -->
<g id="node12" class="node">
<title>tareas</title>
<g id="a_node12"><a xlink:href="../../tables/tareas.html" xlink:title="tareas" target="_top">
<polygon fill="#ffffff" stroke="transparent" points="639.5,-542.2 639.5,-603.2 712.5,-603.2 712.5,-542.2 639.5,-542.2"/>
<polygon fill="#f5f5f5" stroke="transparent" points="640,-579.7 640,-602.7 713,-602.7 713,-579.7 640,-579.7"/>
<polygon fill="none" stroke="#000000" points="640,-579.7 640,-602.7 713,-602.7 713,-579.7 640,-579.7"/>
<text text-anchor="start" x="644.7183" y="-588.8" font-family="Helvetica,sans-Serif" font-weight="bold" font-size="11.00" fill="#000000">tareas</text>
<text text-anchor="start" x="678.5219" y="-587.8" font-family="Helvetica,sans-Serif" font-size="11.00" fill="#000000">[table]</text>
<polygon fill="none" stroke="#000000" points="640,-560.7 640,-579.7 713,-579.7 713,-560.7 640,-560.7"/>
<text text-anchor="start" x="643" y="-566.8" font-family="Helvetica,sans-Serif" font-size="11.00" fill="#000000">...</text>
<polygon fill="#ffffff" stroke="transparent" points="640,-541.7 640,-560.7 662,-560.7 662,-541.7 640,-541.7"/>
<polygon fill="none" stroke="#000000" points="640,-541.7 640,-560.7 662,-560.7 662,-541.7 640,-541.7"/>
<text text-anchor="start" x="643" y="-547.8" font-family="Helvetica,sans-Serif" font-size="11.00" fill="#000000">&lt; 3</text>
<polygon fill="#ffffff" stroke="transparent" points="662,-541.7 662,-560.7 700,-560.7 700,-541.7 662,-541.7"/>
<polygon fill="none" stroke="#000000" points="662,-541.7 662,-560.7 700,-560.7 700,-541.7 662,-541.7"/>
<text text-anchor="start" x="664.8053" y="-547.8" font-family="Helvetica,sans-Serif" font-size="11.00" fill="#000000">3 rows</text>
<polygon fill="#ffffff" stroke="transparent" points="700,-541.7 700,-560.7 713,-560.7 713,-541.7 700,-541.7"/>
<polygon fill="none" stroke="#000000" points="700,-541.7 700,-560.7 713,-560.7 713,-541.7 700,-541.7"/>
<text text-anchor="start" x="703.8862" y="-547.8" font-family="Helvetica,sans-Serif" font-size="11.00" fill="#000000"> &#160;</text>
</a>
</g>
</g>
<!-- tareas&#45;&gt;contactos -->
<g id="edge18" class="edge">
<title>tareas:w&#45;&gt;contactos:e</title>
<path fill="none" stroke="#000000" d="M626.2469,-565.2728C618.6646,-558.6418 617.3782,-545.4351 612,-531.7 563.8974,-408.853 650.011,-347.8876 579,-236.7 558.7122,-204.9337 544.1921,-192.7 506.5,-192.7"/>
<polygon fill="#000000" stroke="#000000" points="632.3848,-567.2486 638.8969,-573.1268 636.1924,-568.4743 640,-569.7 640,-569.7 640,-569.7 636.1924,-568.4743 641.1031,-566.2732 632.3848,-567.2486 632.3848,-567.2486"/>
<ellipse fill="none" stroke="#000000" cx="629.3388" cy="-566.268" rx="3.2" ry="3.2"/>
</g>
<!-- tareas&#45;&gt;leads -->
<g id="edge19" class="edge">
<title>tareas:w&#45;&gt;leads:e</title>
<path fill="none" stroke="#000000" d="M625.6094,-570.6026C572.7969,-577.5076 562.1143,-621.7 501.5,-621.7"/>
<polygon fill="#000000" stroke="#000000" points="632.0157,-570.2008 640.2254,-573.2929 636.0078,-569.9504 640,-569.7 640,-569.7 640,-569.7 636.0078,-569.9504 639.7746,-566.1071 632.0157,-570.2008 632.0157,-570.2008"/>
<ellipse fill="none" stroke="#000000" cx="628.822" cy="-570.4011" rx="3.2" ry="3.2"/>
</g>
<!-- tareas&#45;&gt;usuarios -->
<g id="edge20" class="edge">
<title>tareas:w&#45;&gt;usuarios:e</title>
<path fill="none" stroke="#000000" d="M625.4369,-569.6288C487.56,-568.2633 448.3985,-547.7 303.5,-547.7"/>
<polygon fill="#000000" stroke="#000000" points="632.0001,-569.6609 639.9824,-573.3 636,-569.6804 640,-569.7 640,-569.7 640,-569.7 636,-569.6804 640.0176,-566.1 632.0001,-569.6609 632.0001,-569.6609"/>
<ellipse fill="none" stroke="#000000" cx="628.8001" cy="-569.6452" rx="3.2" ry="3.2"/>
</g>
<!-- telefonos -->
<g id="node13" class="node">
<title>telefonos</title>
<g id="a_node13"><a xlink:href="../../tables/telefonos.html" xlink:title="telefonos" target="_top">
<polygon fill="#ffffff" stroke="transparent" points="198,-38.2 198,-99.2 285,-99.2 285,-38.2 198,-38.2"/>
<polygon fill="#f5f5f5" stroke="transparent" points="198.5,-75.7 198.5,-98.7 285.5,-98.7 285.5,-75.7 198.5,-75.7"/>
<polygon fill="none" stroke="#000000" points="198.5,-75.7 198.5,-98.7 285.5,-98.7 285.5,-75.7 198.5,-75.7"/>
<text text-anchor="start" x="203.1854" y="-84.8" font-family="Helvetica,sans-Serif" font-weight="bold" font-size="11.00" fill="#000000">telefonos</text>
<text text-anchor="start" x="251.0219" y="-83.8" font-family="Helvetica,sans-Serif" font-size="11.00" fill="#000000">[table]</text>
<polygon fill="none" stroke="#000000" points="198.5,-56.7 198.5,-75.7 285.5,-75.7 285.5,-56.7 198.5,-56.7"/>
<text text-anchor="start" x="201.5" y="-62.8" font-family="Helvetica,sans-Serif" font-size="11.00" fill="#000000">...</text>
<polygon fill="#ffffff" stroke="transparent" points="198.5,-37.7 198.5,-56.7 227.5,-56.7 227.5,-37.7 198.5,-37.7"/>
<polygon fill="none" stroke="#000000" points="198.5,-37.7 198.5,-56.7 227.5,-56.7 227.5,-37.7 198.5,-37.7"/>
<text text-anchor="start" x="201.5" y="-43.8" font-family="Helvetica,sans-Serif" font-size="11.00" fill="#000000">&lt; 1</text>
<polygon fill="#ffffff" stroke="transparent" points="227.5,-37.7 227.5,-56.7 269.5,-56.7 269.5,-37.7 227.5,-37.7"/>
<polygon fill="none" stroke="#000000" points="227.5,-37.7 227.5,-56.7 269.5,-56.7 269.5,-37.7 227.5,-37.7"/>
<text text-anchor="start" x="234.1105" y="-43.8" font-family="Helvetica,sans-Serif" font-size="11.00" fill="#000000">5 rows</text>
<polygon fill="#ffffff" stroke="transparent" points="269.5,-37.7 269.5,-56.7 285.5,-56.7 285.5,-37.7 269.5,-37.7"/>
<polygon fill="none" stroke="#000000" points="269.5,-37.7 269.5,-56.7 285.5,-56.7 285.5,-37.7 269.5,-37.7"/>
<text text-anchor="start" x="276.3862" y="-43.8" font-family="Helvetica,sans-Serif" font-size="11.00" fill="#000000"> &#160;</text>
</a>
</g>
</g>
<!-- telefonos&#45;&gt;personas -->
<g id="edge21" class="edge">
<title>telefonos:w&#45;&gt;personas:e</title>
<path fill="none" stroke="#000000" d="M185.1104,-71.7809C149.6212,-109.6629 182.8463,-311.7 131.5,-311.7"/>
<polygon fill="#000000" stroke="#000000" points="191.216,-69.0081 199.9886,-68.9778 194.858,-67.354 198.5,-65.7 198.5,-65.7 198.5,-65.7 194.858,-67.354 197.0114,-62.4222 191.216,-69.0081 191.216,-69.0081"/>
<ellipse fill="none" stroke="#000000" cx="188.3024" cy="-70.3313" rx="3.2" ry="3.2"/>
</g>
</g>
</svg>
