<?xml version="1.0" encoding="UTF-8" standalone="no"?>
<!DOCTYPE svg PUBLIC "-//W3C//DTD SVG 1.1//EN"
 "http://www.w3.org/Graphics/SVG/1.1/DTD/svg11.dtd">
<!-- Generated by graphviz version 2.40.1 (20161225.0304)
 -->
<!-- Title: twoDegreesRelationshipsDiagram Pages: 1 -->
<svg width="748pt" height="667pt"
 viewBox="0.00 0.00 748.00 667.20" xmlns="http://www.w3.org/2000/svg" xmlns:xlink="http://www.w3.org/1999/xlink">
<g id="graph0" class="graph" transform="scale(1 1) rotate(0) translate(4 663.2)">
<title>twoDegreesRelationshipsDiagram</title>
<polygon fill="#ffffff" stroke="transparent" points="-4,4 -4,-663.2 744,-663.2 744,4 -4,4"/>
<text text-anchor="middle" x="72.4936" y="-7.3" font-family="Helvetica,sans-Serif" font-size="11.00" fill="#000000">Generated by SchemaSpy</text>
<!-- casos -->
<g id="node1" class="node">
<title>casos</title>
<g id="a_node1"><a xlink:href="../../tables/casos.html" xlink:title="casos" target="_top">
<polygon fill="#ffffff" stroke="transparent" points="640.5,-568.2 640.5,-629.2 711.5,-629.2 711.5,-568.2 640.5,-568.2"/>
<polygon fill="#f5f5f5" stroke="transparent" points="641,-605.7 641,-628.7 712,-628.7 712,-605.7 641,-605.7"/>
<polygon fill="none" stroke="#000000" points="641,-605.7 641,-628.7 712,-628.7 712,-605.7 641,-605.7"/>
<text text-anchor="start" x="645.6351" y="-614.8" font-family="Helvetica,sans-Serif" font-weight="bold" font-size="11.00" fill="#000000">casos</text>
<text text-anchor="start" x="677.5219" y="-613.8" font-family="Helvetica,sans-Serif" font-size="11.00" fill="#000000">[table]</text>
<polygon fill="none" stroke="#000000" points="641,-586.7 641,-605.7 712,-605.7 712,-586.7 641,-586.7"/>
<text text-anchor="start" x="644" y="-592.8" font-family="Helvetica,sans-Serif" font-size="11.00" fill="#000000">...</text>
<polygon fill="#ffffff" stroke="transparent" points="641,-567.7 641,-586.7 662,-586.7 662,-567.7 641,-567.7"/>
<polygon fill="none" stroke="#000000" points="641,-567.7 641,-586.7 662,-586.7 662,-567.7 641,-567.7"/>
<text text-anchor="start" x="643.7026" y="-573.8" font-family="Helvetica,sans-Serif" font-size="11.00" fill="#000000">&lt; 3</text>
<polygon fill="#ffffff" stroke="transparent" points="662,-567.7 662,-586.7 700,-586.7 700,-567.7 662,-567.7"/>
<polygon fill="none" stroke="#000000" points="662,-567.7 662,-586.7 700,-586.7 700,-567.7 662,-567.7"/>
<text text-anchor="start" x="664.8053" y="-573.8" font-family="Helvetica,sans-Serif" font-size="11.00" fill="#000000">0 rows</text>
<polygon fill="#ffffff" stroke="transparent" points="700,-567.7 700,-586.7 712,-586.7 712,-567.7 700,-567.7"/>
<polygon fill="none" stroke="#000000" points="700,-567.7 700,-586.7 712,-586.7 712,-567.7 700,-567.7"/>
<text text-anchor="start" x="702.9431" y="-573.8" font-family="Helvetica,sans-Serif" font-size="11.00" fill="#000000"> &#160;</text>
</a>
</g>
</g>
<!-- contactos -->
<g id="node2" class="node">
<title>contactos</title>
<g id="a_node2"><a xlink:href="../../tables/contactos.html" xlink:title="contactos" target="_top">
<polygon fill="#ffffff" stroke="transparent" points="416.5,-165.2 416.5,-226.2 506.5,-226.2 506.5,-165.2 416.5,-165.2"/>
<polygon fill="#f5f5f5" stroke="transparent" points="416.5,-202.7 416.5,-225.7 506.5,-225.7 506.5,-202.7 416.5,-202.7"/>
<polygon fill="none" stroke="#000000" points="416.5,-202.7 416.5,-225.7 506.5,-225.7 506.5,-202.7 416.5,-202.7"/>
<text text-anchor="start" x="421.4633" y="-211.8" font-family="Helvetica,sans-Serif" font-weight="bold" font-size="11.00" fill="#000000">contactos</text>
<text text-anchor="start" x="472.0219" y="-210.8" font-family="Helvetica,sans-Serif" font-size="11.00" fill="#000000">[table]</text>
<polygon fill="none" stroke="#000000" points="416.5,-183.7 416.5,-202.7 506.5,-202.7 506.5,-183.7 416.5,-183.7"/>
<text text-anchor="start" x="419.5" y="-189.8" font-family="Helvetica,sans-Serif" font-size="11.00" fill="#000000">...</text>
<polygon fill="#ffffff" stroke="transparent" points="416.5,-164.7 416.5,-183.7 442.5,-183.7 442.5,-164.7 416.5,-164.7"/>
<polygon fill="none" stroke="#000000" points="416.5,-164.7 416.5,-183.7 442.5,-183.7 442.5,-164.7 416.5,-164.7"/>
<text text-anchor="start" x="419.5" y="-170.8" font-family="Helvetica,sans-Serif" font-size="11.00" fill="#000000">&lt; 2</text>
<polygon fill="#ffffff" stroke="transparent" points="442.5,-164.7 442.5,-183.7 482.5,-183.7 482.5,-164.7 442.5,-164.7"/>
<polygon fill="none" stroke="#000000" points="442.5,-164.7 442.5,-183.7 482.5,-183.7 482.5,-164.7 442.5,-164.7"/>
<text text-anchor="start" x="447.1105" y="-170.8" font-family="Helvetica,sans-Serif" font-size="11.00" fill="#000000">0 rows</text>
<polygon fill="#ffffff" stroke="transparent" points="482.5,-164.7 482.5,-183.7 506.5,-183.7 506.5,-164.7 482.5,-164.7"/>
<polygon fill="none" stroke="#000000" points="482.5,-164.7 482.5,-183.7 506.5,-183.7 506.5,-164.7 482.5,-164.7"/>
<text text-anchor="start" x="487.9053" y="-170.8" font-family="Helvetica,sans-Serif" font-size="11.00" fill="#000000">5 &gt;</text>
</a>
</g>
</g>
<!-- casos&#45;&gt;contactos -->
<g id="edge1" class="edge">
<title>casos:w&#45;&gt;contactos:e</title>
<path fill="none" stroke="#000000" d="M627.2139,-591.5302C619.1353,-585.0247 617.5625,-571.7424 612,-557.7 559.182,-424.3615 655.6532,-357.9154 579,-236.7 558.8547,-204.8432 544.1921,-192.7 506.5,-192.7"/>
<polygon fill="#000000" stroke="#000000" points="633.3426,-593.3839 639.9577,-599.1458 637.1713,-594.5419 641,-595.7 641,-595.7 641,-595.7 637.1713,-594.5419 642.0423,-592.2542 633.3426,-593.3839 633.3426,-593.3839"/>
<ellipse fill="none" stroke="#000000" cx="630.2796" cy="-592.4574" rx="3.2" ry="3.2"/>
</g>
<!-- leads -->
<g id="node3" class="node">
<title>leads</title>
<g id="a_node3"><a xlink:href="../../tables/leads.html" xlink:title="leads" target="_top">
<polygon fill="#ffffff" stroke="transparent" points="421.5,-594.2 421.5,-655.2 501.5,-655.2 501.5,-594.2 421.5,-594.2"/>
<polygon fill="#f5f5f5" stroke="transparent" points="421.5,-631.7 421.5,-654.7 501.5,-654.7 501.5,-631.7 421.5,-631.7"/>
<polygon fill="none" stroke="#000000" points="421.5,-631.7 421.5,-654.7 501.5,-654.7 501.5,-631.7 421.5,-631.7"/>
<text text-anchor="start" x="426.5" y="-640.8" font-family="Helvetica,sans-Serif" font-weight="bold" font-size="11.00" fill="#000000">leads</text>
<text text-anchor="start" x="466.5437" y="-639.8" font-family="Helvetica,sans-Serif" font-size="11.00" fill="#000000">[table]</text>
<polygon fill="none" stroke="#000000" points="421.5,-612.7 421.5,-631.7 501.5,-631.7 501.5,-612.7 421.5,-612.7"/>
<text text-anchor="start" x="424.5" y="-618.8" font-family="Helvetica,sans-Serif" font-size="11.00" fill="#000000">...</text>
<polygon fill="#ffffff" stroke="transparent" points="421.5,-593.7 421.5,-612.7 442.5,-612.7 442.5,-593.7 421.5,-593.7"/>
<polygon fill="none" stroke="#000000" points="421.5,-593.7 421.5,-612.7 442.5,-612.7 442.5,-593.7 421.5,-593.7"/>
<text text-anchor="start" x="424.2027" y="-599.8" font-family="Helvetica,sans-Serif" font-size="11.00" fill="#000000">&lt; 4</text>
<polygon fill="#ffffff" stroke="transparent" points="442.5,-593.7 442.5,-612.7 480.5,-612.7 480.5,-593.7 442.5,-593.7"/>
<polygon fill="none" stroke="#000000" points="442.5,-593.7 442.5,-612.7 480.5,-612.7 480.5,-593.7 442.5,-593.7"/>
<text text-anchor="start" x="445.3053" y="-599.8" font-family="Helvetica,sans-Serif" font-size="11.00" fill="#000000">0 rows</text>
<polygon fill="#ffffff" stroke="transparent" points="480.5,-593.7 480.5,-612.7 501.5,-612.7 501.5,-593.7 480.5,-593.7"/>
<polygon fill="none" stroke="#000000" points="480.5,-593.7 480.5,-612.7 501.5,-612.7 501.5,-593.7 480.5,-593.7"/>
<text text-anchor="start" x="483.2027" y="-599.8" font-family="Helvetica,sans-Serif" font-size="11.00" fill="#000000">3 &gt;</text>
</a>
</g>
</g>
<!-- casos&#45;&gt;leads -->
<g id="edge2" class="edge">
<title>casos:w&#45;&gt;leads:e</title>
<path fill="none" stroke="#000000" d="M626.4279,-596.1962C575.4052,-599.7907 559.3941,-621.7 501.5,-621.7"/>
<polygon fill="#000000" stroke="#000000" points="633.0046,-595.9723 641.1225,-599.2979 637.0023,-595.8361 641,-595.7 641,-595.7 641,-595.7 637.0023,-595.8361 640.8775,-592.1021 633.0046,-595.9723 633.0046,-595.9723"/>
<ellipse fill="none" stroke="#000000" cx="629.8065" cy="-596.0812" rx="3.2" ry="3.2"/>
</g>
<!-- usuarios -->
<g id="node4" class="node">
<title>usuarios</title>
<g id="a_node4"><a xlink:href="../../tables/usuarios.html" xlink:title="usuarios" target="_top">
<polygon fill="#ffffff" stroke="transparent" points="180,-472.2 180,-577.2 303,-577.2 303,-472.2 180,-472.2"/>
<polygon fill="#f5f5f5" stroke="transparent" points="180.5,-553.7 180.5,-576.7 303.5,-576.7 303.5,-553.7 180.5,-553.7"/>
<polygon fill="none" stroke="#000000" points="180.5,-553.7 180.5,-576.7 303.5,-576.7 303.5,-553.7 180.5,-553.7"/>
<text text-anchor="start" x="185.5" y="-562.8" font-family="Helvetica,sans-Serif" font-weight="bold" font-size="11.00" fill="#000000">usuarios</text>
<text text-anchor="start" x="268.5437" y="-561.8" font-family="Helvetica,sans-Serif" font-size="11.00" fill="#000000">[table]</text>
<polygon fill="none" stroke="#000000" points="180.5,-531.7 180.5,-553.7 303.5,-553.7 303.5,-531.7 180.5,-531.7"/>
<image xlink:href="../../images/primaryKeys.png" width="11px" height="12px" preserveAspectRatio="xMinYMin meet" x="185.5" y="-548.7"/>
<text text-anchor="start" x="200.5" y="-538.8" font-family="Helvetica,sans-Serif" font-size="11.00" fill="#000000">usuario_id</text>
<polygon fill="#ffffff" stroke="transparent" points="180.5,-509.7 180.5,-531.7 303.5,-531.7 303.5,-509.7 180.5,-509.7"/>
<polygon fill="none" stroke="#000000" points="180.5,-509.7 180.5,-531.7 303.5,-531.7 303.5,-509.7 180.5,-509.7"/>
<text text-anchor="start" x="200.5" y="-516.8" font-family="Helvetica,sans-Serif" font-size="11.00" fill="#000000">nom_usuario</text>
<polygon fill="none" stroke="#000000" points="180.5,-490.7 180.5,-509.7 303.5,-509.7 303.5,-490.7 180.5,-490.7"/>
<text text-anchor="start" x="183.5" y="-496.8" font-family="Helvetica,sans-Serif" font-size="11.00" fill="#000000">...</text>
<polygon fill="#ffffff" stroke="transparent" points="180.5,-471.7 180.5,-490.7 221.5,-490.7 221.5,-471.7 180.5,-471.7"/>
<polygon fill="none" stroke="#000000" points="180.5,-471.7 180.5,-490.7 221.5,-490.7 221.5,-471.7 180.5,-471.7"/>
<text text-anchor="start" x="183.5" y="-477.8" font-family="Helvetica,sans-Serif" font-size="11.00" fill="#000000"> &#160;</text>
<polygon fill="#ffffff" stroke="transparent" points="221.5,-471.7 221.5,-490.7 267.5,-490.7 267.5,-471.7 221.5,-471.7"/>
<polygon fill="none" stroke="#000000" points="221.5,-471.7 221.5,-490.7 267.5,-490.7 267.5,-471.7 221.5,-471.7"/>
<text text-anchor="start" x="237.6105" y="-477.8" font-family="Helvetica,sans-Serif" font-size="11.00" fill="#000000">1 row</text>
<polygon fill="#ffffff" stroke="transparent" points="267.5,-471.7 267.5,-490.7 303.5,-490.7 303.5,-471.7 267.5,-471.7"/>
<polygon fill="none" stroke="#000000" points="267.5,-471.7 267.5,-490.7 303.5,-490.7 303.5,-471.7 267.5,-471.7"/>
<text text-anchor="start" x="284.9053" y="-477.8" font-family="Helvetica,sans-Serif" font-size="11.00" fill="#000000">5 &gt;</text>
</a>
</g>
</g>
<!-- casos&#45;&gt;usuarios -->
<g id="edge3" class="edge">
<title>casos:w&#45;&gt;usuarios:e</title>
<path fill="none" stroke="#000000" d="M626.2329,-594.8827C609.5038,-592.8525 601.0455,-587.472 579,-583.7 517.9901,-573.2611 365.3965,-542.7 303.5,-542.7"/>
<polygon fill="#000000" stroke="#000000" points="633.0122,-595.2578 640.801,-599.2945 637.0061,-595.4789 641,-595.7 641,-595.7 641,-595.7 637.0061,-595.4789 641.199,-592.1055 633.0122,-595.2578 633.0122,-595.2578"/>
<ellipse fill="none" stroke="#000000" cx="629.8171" cy="-595.081" rx="3.2" ry="3.2"/>
</g>
<!-- organizaciones -->
<g id="node5" class="node">
<title>organizaciones</title>
<g id="a_node5"><a xlink:href="../../tables/organizaciones.html" xlink:title="organizaciones" target="_top">
<polygon fill="#ffffff" stroke="transparent" points="183.5,-202.2 183.5,-263.2 299.5,-263.2 299.5,-202.2 183.5,-202.2"/>
<polygon fill="#f5f5f5" stroke="transparent" points="183.5,-239.7 183.5,-262.7 299.5,-262.7 299.5,-239.7 183.5,-239.7"/>
<polygon fill="none" stroke="#000000" points="183.5,-239.7 183.5,-262.7 299.5,-262.7 299.5,-239.7 183.5,-239.7"/>
<text text-anchor="start" x="188.0186" y="-248.8" font-family="Helvetica,sans-Serif" font-weight="bold" font-size="11.00" fill="#000000">organizaciones</text>
<text text-anchor="start" x="265.0219" y="-247.8" font-family="Helvetica,sans-Serif" font-size="11.00" fill="#000000">[table]</text>
<polygon fill="none" stroke="#000000" points="183.5,-220.7 183.5,-239.7 299.5,-239.7 299.5,-220.7 183.5,-220.7"/>
<text text-anchor="start" x="186.5" y="-226.8" font-family="Helvetica,sans-Serif" font-size="11.00" fill="#000000">...</text>
<polygon fill="#ffffff" stroke="transparent" points="183.5,-201.7 183.5,-220.7 222.5,-220.7 222.5,-201.7 183.5,-201.7"/>
<polygon fill="none" stroke="#000000" points="183.5,-201.7 183.5,-220.7 222.5,-220.7 222.5,-201.7 183.5,-201.7"/>
<text text-anchor="start" x="186.5" y="-207.8" font-family="Helvetica,sans-Serif" font-size="11.00" fill="#000000">&lt; 1</text>
<polygon fill="#ffffff" stroke="transparent" points="222.5,-201.7 222.5,-220.7 269.5,-220.7 269.5,-201.7 222.5,-201.7"/>
<polygon fill="none" stroke="#000000" points="222.5,-201.7 222.5,-220.7 269.5,-220.7 269.5,-201.7 222.5,-201.7"/>
<text text-anchor="start" x="234.1105" y="-207.8" font-family="Helvetica,sans-Serif" font-size="11.00" fill="#000000">0 rows</text>
<polygon fill="#ffffff" stroke="transparent" points="269.5,-201.7 269.5,-220.7 299.5,-220.7 299.5,-201.7 269.5,-201.7"/>
<polygon fill="none" stroke="#000000" points="269.5,-201.7 269.5,-220.7 299.5,-220.7 299.5,-201.7 269.5,-201.7"/>
<text text-anchor="start" x="280.9053" y="-207.8" font-family="Helvetica,sans-Serif" font-size="11.00" fill="#000000">1 &gt;</text>
</a>
</g>
</g>
<!-- contactos&#45;&gt;organizaciones -->
<g id="edge4" class="edge">
<title>contactos:w&#45;&gt;organizaciones:e</title>
<path fill="none" stroke="#000000" d="M402.0407,-193.6518C360.0182,-199.4431 348.8188,-229.7 299.5,-229.7"/>
<polygon fill="#000000" stroke="#000000" points="408.5173,-193.2255 416.7365,-196.2922 412.5086,-192.9628 416.5,-192.7 416.5,-192.7 416.5,-192.7 412.5086,-192.9628 416.2635,-189.1078 408.5173,-193.2255 408.5173,-193.2255"/>
<ellipse fill="none" stroke="#000000" cx="405.3242" cy="-193.4357" rx="3.2" ry="3.2"/>
</g>
<!-- personas -->
<g id="node6" class="node">
<title>personas</title>
<g id="a_node6"><a xlink:href="../../tables/personas.html" xlink:title="personas" target="_top">
<polygon fill="#ffffff" stroke="transparent" points="8,-263.2 8,-346.2 131,-346.2 131,-263.2 8,-263.2"/>
<polygon fill="#f5f5f5" stroke="transparent" points="8.5,-322.7 8.5,-345.7 131.5,-345.7 131.5,-322.7 8.5,-322.7"/>
<polygon fill="none" stroke="#000000" points="8.5,-322.7 8.5,-345.7 131.5,-345.7 131.5,-322.7 8.5,-322.7"/>
<text text-anchor="start" x="13.5" y="-331.8" font-family="Helvetica,sans-Serif" font-weight="bold" font-size="11.00" fill="#000000">personas</text>
<text text-anchor="start" x="96.5437" y="-330.8" font-family="Helvetica,sans-Serif" font-size="11.00" fill="#000000">[table]</text>
<polygon fill="none" stroke="#000000" points="8.5,-300.7 8.5,-322.7 131.5,-322.7 131.5,-300.7 8.5,-300.7"/>
<image xlink:href="../../images/primaryKeys.png" width="11px" height="12px" preserveAspectRatio="xMinYMin meet" x="13.5" y="-317.7"/>
<text text-anchor="start" x="28.5" y="-307.8" font-family="Helvetica,sans-Serif" font-size="11.00" fill="#000000">persona_id</text>
<polygon fill="none" stroke="#000000" points="8.5,-281.7 8.5,-300.7 131.5,-300.7 131.5,-281.7 8.5,-281.7"/>
<text text-anchor="start" x="11.5" y="-287.8" font-family="Helvetica,sans-Serif" font-size="11.00" fill="#000000">...</text>
<polygon fill="#ffffff" stroke="transparent" points="8.5,-262.7 8.5,-281.7 49.5,-281.7 49.5,-262.7 8.5,-262.7"/>
<polygon fill="none" stroke="#000000" points="8.5,-262.7 8.5,-281.7 49.5,-281.7 49.5,-262.7 8.5,-262.7"/>
<text text-anchor="start" x="11.5" y="-268.8" font-family="Helvetica,sans-Serif" font-size="11.00" fill="#000000"> &#160;</text>
<polygon fill="#ffffff" stroke="transparent" points="49.5,-262.7 49.5,-281.7 95.5,-281.7 95.5,-262.7 49.5,-262.7"/>
<polygon fill="none" stroke="#000000" points="49.5,-262.7 49.5,-281.7 95.5,-281.7 95.5,-262.7 49.5,-262.7"/>
<text text-anchor="start" x="65.6105" y="-268.8" font-family="Helvetica,sans-Serif" font-size="11.00" fill="#000000">1 row</text>
<polygon fill="#ffffff" stroke="transparent" points="95.5,-262.7 95.5,-281.7 131.5,-281.7 131.5,-262.7 95.5,-262.7"/>
<polygon fill="none" stroke="#000000" points="95.5,-262.7 95.5,-281.7 131.5,-281.7 131.5,-262.7 95.5,-262.7"/>
<text text-anchor="start" x="112.9053" y="-268.8" font-family="Helvetica,sans-Serif" font-size="11.00" fill="#000000">7 &gt;</text>
</a>
</g>
</g>
<!-- contactos&#45;&gt;personas -->
<g id="edge5" class="edge">
<title>contactos:w&#45;&gt;personas:e</title>
<path fill="none" stroke="#000000" d="M402.0183,-193.5334C375.2048,-196.941 363.5492,-210.8728 344,-236.7 310.8755,-280.462 354.6882,-322.4783 311,-355.7 261.825,-393.094 228.5737,-380.5175 172,-355.7 147.6604,-345.0228 158.0786,-311.7 131.5,-311.7"/>
<polygon fill="#000000" stroke="#000000" points="408.5132,-193.1597 416.7069,-196.2941 412.5066,-192.9298 416.5,-192.7 416.5,-192.7 416.5,-192.7 412.5066,-192.9298 416.2931,-189.1059 408.5132,-193.1597 408.5132,-193.1597"/>
<ellipse fill="none" stroke="#000000" cx="405.3185" cy="-193.3436" rx="3.2" ry="3.2"/>
</g>
<!-- leads&#45;&gt;usuarios -->
<g id="edge10" class="edge">
<title>leads:w&#45;&gt;usuarios:e</title>
<path fill="none" stroke="#000000" d="M407.1201,-620.659C380.0952,-616.3624 371.5567,-599.3085 344,-579.7 324.1351,-565.5647 327.8807,-542.7 303.5,-542.7"/>
<polygon fill="#000000" stroke="#000000" points="413.5209,-621.1223 421.2401,-625.2906 417.5104,-621.4112 421.5,-621.7 421.5,-621.7 421.5,-621.7 417.5104,-621.4112 421.7599,-618.1094 413.5209,-621.1223 413.5209,-621.1223"/>
<ellipse fill="none" stroke="#000000" cx="410.3292" cy="-620.8913" rx="3.2" ry="3.2"/>
</g>
<!-- leads&#45;&gt;personas -->
<g id="edge9" class="edge">
<title>leads:w&#45;&gt;personas:e</title>
<path fill="none" stroke="#000000" d="M407.0514,-621.9449C304.443,-625.3927 248.0445,-662.9682 172,-587.7 127.942,-544.0918 193.4901,-311.7 131.5,-311.7"/>
<polygon fill="#000000" stroke="#000000" points="413.5011,-621.8356 421.561,-625.2995 417.5006,-621.7678 421.5,-621.7 421.5,-621.7 421.5,-621.7 417.5006,-621.7678 421.439,-618.1005 413.5011,-621.8356 413.5011,-621.8356"/>
<ellipse fill="none" stroke="#000000" cx="410.3016" cy="-621.8899" rx="3.2" ry="3.2"/>
</g>
<!-- organizaciones&#45;&gt;personas -->
<g id="edge13" class="edge">
<title>organizaciones:w&#45;&gt;personas:e</title>
<path fill="none" stroke="#000000" d="M169.4589,-234.1087C148.463,-251.1409 168.586,-311.7 131.5,-311.7"/>
<polygon fill="#000000" stroke="#000000" points="175.8674,-232.0966 184.5785,-233.1347 179.6837,-230.8983 183.5,-229.7 183.5,-229.7 183.5,-229.7 179.6837,-230.8983 182.4215,-226.2653 175.8674,-232.0966 175.8674,-232.0966"/>
<ellipse fill="none" stroke="#000000" cx="172.8143" cy="-233.0552" rx="3.2" ry="3.2"/>
</g>
<!-- direcciones -->
<g id="node7" class="node">
<title>direcciones</title>
<g id="a_node7"><a xlink:href="../../tables/direcciones.html" xlink:title="direcciones" target="_top">
<polygon fill="#ffffff" stroke="transparent" points="192.5,-284.2 192.5,-345.2 290.5,-345.2 290.5,-284.2 192.5,-284.2"/>
<polygon fill="#f5f5f5" stroke="transparent" points="192.5,-321.7 192.5,-344.7 290.5,-344.7 290.5,-321.7 192.5,-321.7"/>
<polygon fill="none" stroke="#000000" points="192.5,-321.7 192.5,-344.7 290.5,-344.7 290.5,-321.7 192.5,-321.7"/>
<text text-anchor="start" x="197.1909" y="-330.8" font-family="Helvetica,sans-Serif" font-weight="bold" font-size="11.00" fill="#000000">direcciones</text>
<text text-anchor="start" x="256.0219" y="-329.8" font-family="Helvetica,sans-Serif" font-size="11.00" fill="#000000">[table]</text>
<polygon fill="none" stroke="#000000" points="192.5,-302.7 192.5,-321.7 290.5,-321.7 290.5,-302.7 192.5,-302.7"/>
<text text-anchor="start" x="195.5" y="-308.8" font-family="Helvetica,sans-Serif" font-size="11.00" fill="#000000">...</text>
<polygon fill="#ffffff" stroke="transparent" points="192.5,-283.7 192.5,-302.7 226.5,-302.7 226.5,-283.7 192.5,-283.7"/>
<polygon fill="none" stroke="#000000" points="192.5,-283.7 192.5,-302.7 226.5,-302.7 226.5,-283.7 192.5,-283.7"/>
<text text-anchor="start" x="195.5" y="-289.8" font-family="Helvetica,sans-Serif" font-size="11.00" fill="#000000">&lt; 2</text>
<polygon fill="#ffffff" stroke="transparent" points="226.5,-283.7 226.5,-302.7 271.5,-302.7 271.5,-283.7 226.5,-283.7"/>
<polygon fill="none" stroke="#000000" points="226.5,-283.7 226.5,-302.7 271.5,-302.7 271.5,-283.7 226.5,-283.7"/>
<text text-anchor="start" x="236.1105" y="-289.8" font-family="Helvetica,sans-Serif" font-size="11.00" fill="#000000">0 rows</text>
<polygon fill="#ffffff" stroke="transparent" points="271.5,-283.7 271.5,-302.7 290.5,-302.7 290.5,-283.7 271.5,-283.7"/>
<polygon fill="none" stroke="#000000" points="271.5,-283.7 271.5,-302.7 290.5,-302.7 290.5,-283.7 271.5,-283.7"/>
<text text-anchor="start" x="281.3862" y="-289.8" font-family="Helvetica,sans-Serif" font-size="11.00" fill="#000000"> &#160;</text>
</a>
</g>
</g>
<!-- direcciones&#45;&gt;personas -->
<g id="edge6" class="edge">
<title>direcciones:w&#45;&gt;personas:e</title>
<path fill="none" stroke="#000000" d="M177.6762,-311.7C161.6248,-311.7 152.8924,-311.7 131.5,-311.7"/>
<polygon fill="#000000" stroke="#000000" points="184.5,-311.7001 192.5,-315.3 188.5,-311.7 192.5,-311.7 192.5,-311.7 192.5,-311.7 188.5,-311.7 192.5,-308.1 184.5,-311.7001 184.5,-311.7001"/>
<ellipse fill="none" stroke="#000000" cx="181.3" cy="-311.7001" rx="3.2" ry="3.2"/>
</g>
<!-- empleados -->
<g id="node8" class="node">
<title>empleados</title>
<g id="a_node8"><a xlink:href="../../tables/empleados.html" xlink:title="empleados" target="_top">
<polygon fill="#ffffff" stroke="transparent" points="352,-247.7 352,-491.7 571,-491.7 571,-247.7 352,-247.7"/>
<polygon fill="#f5f5f5" stroke="transparent" points="354.5,-466.7 354.5,-489.7 569.5,-489.7 569.5,-466.7 354.5,-466.7"/>
<polygon fill="none" stroke="#000000" points="354.5,-466.7 354.5,-489.7 569.5,-489.7 569.5,-466.7 354.5,-466.7"/>
<text text-anchor="start" x="359.5" y="-475.8" font-family="Helvetica,sans-Serif" font-weight="bold" font-size="11.00" fill="#000000">empleados</text>
<text text-anchor="start" x="534.5437" y="-474.8" font-family="Helvetica,sans-Serif" font-size="11.00" fill="#000000">[table]</text>
<polygon fill="none" stroke="#000000" points="354.5,-444.7 354.5,-466.7 477.5,-466.7 477.5,-444.7 354.5,-444.7"/>
<image xlink:href="../../images/primaryKeys.png" width="11px" height="12px" preserveAspectRatio="xMinYMin meet" x="359.5" y="-461.7"/>
<text text-anchor="start" x="374.5" y="-451.8" font-family="Helvetica,sans-Serif" font-size="11.00" fill="#000000">empleado_id</text>
<polygon fill="none" stroke="#000000" points="477.5,-444.7 477.5,-466.7 569.5,-466.7 569.5,-444.7 477.5,-444.7"/>
<text text-anchor="start" x="480.5" y="-452.4" font-family="Helvetica,sans-Serif" font-size="11.00" fill="#000000">serial[10]</text>
<polygon fill="none" stroke="#000000" points="354.5,-422.7 354.5,-444.7 477.5,-444.7 477.5,-422.7 354.5,-422.7"/>
<image xlink:href="../../images/foreignKeys.png" width="11px" height="12px" preserveAspectRatio="xMinYMin meet" x="359.5" y="-439.7"/>
<text text-anchor="start" x="374.5" y="-429.8" font-family="Helvetica,sans-Serif" font-size="11.00" fill="#000000">persona_id</text>
<polygon fill="none" stroke="#000000" points="477.5,-422.7 477.5,-444.7 569.5,-444.7 569.5,-422.7 477.5,-422.7"/>
<text text-anchor="start" x="480.5" y="-430.4" font-family="Helvetica,sans-Serif" font-size="11.00" fill="#000000">int4[10]</text>
<polygon fill="none" stroke="#000000" points="354.5,-400.7 354.5,-422.7 477.5,-422.7 477.5,-400.7 354.5,-400.7"/>
<image xlink:href="../../images/foreignKeys.png" width="11px" height="12px" preserveAspectRatio="xMinYMin meet" x="359.5" y="-417.7"/>
<text text-anchor="start" x="374.5" y="-407.8" font-family="Helvetica,sans-Serif" font-size="11.00" fill="#000000">usuario_id</text>
<polygon fill="none" stroke="#000000" points="477.5,-400.7 477.5,-422.7 569.5,-422.7 569.5,-400.7 477.5,-400.7"/>
<text text-anchor="start" x="480.5" y="-408.4" font-family="Helvetica,sans-Serif" font-size="11.00" fill="#000000">int4[10]</text>
<polygon fill="none" stroke="#000000" points="354.5,-378.7 354.5,-400.7 477.5,-400.7 477.5,-378.7 354.5,-378.7"/>
<text text-anchor="start" x="374.5" y="-385.8" font-family="Helvetica,sans-Serif" font-size="11.00" fill="#000000">activo</text>
<polygon fill="none" stroke="#000000" points="477.5,-378.7 477.5,-400.7 569.5,-400.7 569.5,-378.7 477.5,-378.7"/>
<text text-anchor="start" x="480.5" y="-386.4" font-family="Helvetica,sans-Serif" font-size="11.00" fill="#000000">bool[1]</text>
<polygon fill="none" stroke="#000000" points="354.5,-356.7 354.5,-378.7 477.5,-378.7 477.5,-356.7 354.5,-356.7"/>
<text text-anchor="start" x="374.5" y="-363.8" font-family="Helvetica,sans-Serif" font-size="11.00" fill="#000000">cargo</text>
<polygon fill="none" stroke="#000000" points="477.5,-356.7 477.5,-378.7 569.5,-378.7 569.5,-356.7 477.5,-356.7"/>
<text text-anchor="start" x="480.5" y="-364.4" font-family="Helvetica,sans-Serif" font-size="11.00" fill="#000000">varchar[255]</text>
<polygon fill="none" stroke="#000000" points="354.5,-334.7 354.5,-356.7 477.5,-356.7 477.5,-334.7 354.5,-334.7"/>
<text text-anchor="start" x="374.5" y="-341.8" font-family="Helvetica,sans-Serif" font-size="11.00" fill="#000000">usu_insercion</text>
<polygon fill="none" stroke="#000000" points="477.5,-334.7 477.5,-356.7 569.5,-356.7 569.5,-334.7 477.5,-334.7"/>
<text text-anchor="start" x="480.5" y="-342.4" font-family="Helvetica,sans-Serif" font-size="11.00" fill="#000000">varchar[20]</text>
<polygon fill="none" stroke="#000000" points="354.5,-312.7 354.5,-334.7 477.5,-334.7 477.5,-312.7 354.5,-312.7"/>
<text text-anchor="start" x="374.5" y="-319.8" font-family="Helvetica,sans-Serif" font-size="11.00" fill="#000000">fec_insercion</text>
<polygon fill="none" stroke="#000000" points="477.5,-312.7 477.5,-334.7 569.5,-334.7 569.5,-312.7 477.5,-312.7"/>
<text text-anchor="start" x="480.1023" y="-320.4" font-family="Helvetica,sans-Serif" font-size="11.00" fill="#000000">timestamptz[35,6]</text>
<polygon fill="none" stroke="#000000" points="354.5,-290.7 354.5,-312.7 477.5,-312.7 477.5,-290.7 354.5,-290.7"/>
<text text-anchor="start" x="374.5" y="-297.8" font-family="Helvetica,sans-Serif" font-size="11.00" fill="#000000">fec_modificacion</text>
<polygon fill="none" stroke="#000000" points="477.5,-290.7 477.5,-312.7 569.5,-312.7 569.5,-290.7 477.5,-290.7"/>
<text text-anchor="start" x="480.1023" y="-298.4" font-family="Helvetica,sans-Serif" font-size="11.00" fill="#000000">timestamptz[35,6]</text>
<polygon fill="none" stroke="#000000" points="354.5,-268.7 354.5,-290.7 477.5,-290.7 477.5,-268.7 354.5,-268.7"/>
<text text-anchor="start" x="374.5" y="-275.8" font-family="Helvetica,sans-Serif" font-size="11.00" fill="#000000">usu_modificacion</text>
<polygon fill="none" stroke="#000000" points="477.5,-268.7 477.5,-290.7 569.5,-290.7 569.5,-268.7 477.5,-268.7"/>
<text text-anchor="start" x="480.5" y="-276.4" font-family="Helvetica,sans-Serif" font-size="11.00" fill="#000000">varchar[20]</text>
<polygon fill="#ffffff" stroke="transparent" points="354.5,-249.7 354.5,-268.7 410.5,-268.7 410.5,-249.7 354.5,-249.7"/>
<polygon fill="none" stroke="#000000" points="354.5,-249.7 354.5,-268.7 410.5,-268.7 410.5,-249.7 354.5,-249.7"/>
<text text-anchor="start" x="357.5" y="-255.8" font-family="Helvetica,sans-Serif" font-size="11.00" fill="#000000">&lt; 2</text>
<polygon fill="#ffffff" stroke="transparent" points="410.5,-249.7 410.5,-268.7 477.5,-268.7 477.5,-249.7 410.5,-249.7"/>
<polygon fill="none" stroke="#000000" points="410.5,-249.7 410.5,-268.7 477.5,-268.7 477.5,-249.7 410.5,-249.7"/>
<text text-anchor="start" x="447.6105" y="-255.8" font-family="Helvetica,sans-Serif" font-size="11.00" fill="#000000">1 row</text>
<polygon fill="#ffffff" stroke="transparent" points="477.5,-249.7 477.5,-268.7 569.5,-268.7 569.5,-249.7 477.5,-249.7"/>
<polygon fill="none" stroke="#000000" points="477.5,-249.7 477.5,-268.7 569.5,-268.7 569.5,-249.7 477.5,-249.7"/>
<text text-anchor="start" x="550.9053" y="-255.8" font-family="Helvetica,sans-Serif" font-size="11.00" fill="#000000">0 &gt;</text>
<polygon fill="none" stroke="#000000" stroke-width="2" points="353,-248.7 353,-490.7 570,-490.7 570,-248.7 353,-248.7"/>
</a>
</g>
</g>
<!-- empleados&#45;&gt;usuarios -->
<g id="edge8" class="edge">
<title>empleados:w&#45;&gt;usuarios:e</title>
<path fill="none" stroke="#000000" d="M340.3004,-414.9382C304.6891,-435.1111 360.1214,-542.7 303.5,-542.7"/>
<polygon fill="#000000" stroke="#000000" points="346.7002,-413.4788 355.3005,-415.2099 350.6001,-412.5894 354.5,-411.7 354.5,-411.7 354.5,-411.7 350.6001,-412.5894 353.6995,-408.1901 346.7002,-413.4788 346.7002,-413.4788"/>
<ellipse fill="none" stroke="#000000" cx="343.5803" cy="-414.1903" rx="3.2" ry="3.2"/>
</g>
<!-- empleados&#45;&gt;personas -->
<g id="edge7" class="edge">
<title>empleados:w&#45;&gt;personas:e</title>
<path fill="none" stroke="#000000" d="M339.7037,-433.6664C266.0131,-433.2638 234.7455,-428.4629 172,-379.7 144.225,-358.1145 166.6765,-311.7 131.5,-311.7"/>
<polygon fill="#000000" stroke="#000000" points="346.5,-433.6818 354.4918,-437.3 350.5,-433.6909 354.5,-433.7 354.5,-433.7 354.5,-433.7 350.5,-433.6909 354.5082,-430.1 346.5,-433.6818 346.5,-433.6818"/>
<ellipse fill="none" stroke="#000000" cx="343.3" cy="-433.6745" rx="3.2" ry="3.2"/>
</g>
<!-- oportunidades -->
<g id="node9" class="node">
<title>oportunidades</title>
<g id="a_node9"><a xlink:href="../../tables/oportunidades.html" xlink:title="oportunidades" target="_top">
<polygon fill="#ffffff" stroke="transparent" points="620,-284.2 620,-345.2 732,-345.2 732,-284.2 620,-284.2"/>
<polygon fill="#f5f5f5" stroke="transparent" points="620,-321.7 620,-344.7 732,-344.7 732,-321.7 620,-321.7"/>
<polygon fill="none" stroke="#000000" points="620,-321.7 620,-344.7 732,-344.7 732,-321.7 620,-321.7"/>
<text text-anchor="start" x="624.6531" y="-330.8" font-family="Helvetica,sans-Serif" font-weight="bold" font-size="11.00" fill="#000000">oportunidades</text>
<text text-anchor="start" x="697.5219" y="-329.8" font-family="Helvetica,sans-Serif" font-size="11.00" fill="#000000">[table]</text>
<polygon fill="none" stroke="#000000" points="620,-302.7 620,-321.7 732,-321.7 732,-302.7 620,-302.7"/>
<text text-anchor="start" x="623" y="-308.8" font-family="Helvetica,sans-Serif" font-size="11.00" fill="#000000">...</text>
<polygon fill="#ffffff" stroke="transparent" points="620,-283.7 620,-302.7 657,-302.7 657,-283.7 620,-283.7"/>
<polygon fill="none" stroke="#000000" points="620,-283.7 620,-302.7 657,-302.7 657,-283.7 620,-283.7"/>
<text text-anchor="start" x="623" y="-289.8" font-family="Helvetica,sans-Serif" font-size="11.00" fill="#000000">&lt; 4</text>
<polygon fill="#ffffff" stroke="transparent" points="657,-283.7 657,-302.7 703,-302.7 703,-283.7 657,-283.7"/>
<polygon fill="none" stroke="#000000" points="657,-283.7 657,-302.7 703,-302.7 703,-283.7 657,-283.7"/>
<text text-anchor="start" x="667.6105" y="-289.8" font-family="Helvetica,sans-Serif" font-size="11.00" fill="#000000">0 rows</text>
<polygon fill="#ffffff" stroke="transparent" points="703,-283.7 703,-302.7 732,-302.7 732,-283.7 703,-283.7"/>
<polygon fill="none" stroke="#000000" points="703,-283.7 703,-302.7 732,-302.7 732,-283.7 703,-283.7"/>
<text text-anchor="start" x="713.4053" y="-289.8" font-family="Helvetica,sans-Serif" font-size="11.00" fill="#000000">1 &gt;</text>
</a>
</g>
</g>
<!-- oportunidades&#45;&gt;contactos -->
<g id="edge11" class="edge">
<title>oportunidades:w&#45;&gt;contactos:e</title>
<path fill="none" stroke="#000000" d="M605.7574,-308.1599C588.3038,-296.6421 600.942,-259.6568 579,-236.7 552.9567,-209.4523 544.1921,-192.7 506.5,-192.7"/>
<polygon fill="#000000" stroke="#000000" points="612.2362,-309.7702 619.1316,-315.1937 616.1181,-310.7351 620,-311.7 620,-311.7 620,-311.7 616.1181,-310.7351 620.8684,-308.2063 612.2362,-309.7702 612.2362,-309.7702"/>
<ellipse fill="none" stroke="#000000" cx="609.1307" cy="-308.9983" rx="3.2" ry="3.2"/>
</g>
<!-- oportunidades&#45;&gt;usuarios -->
<g id="edge12" class="edge">
<title>oportunidades:w&#45;&gt;usuarios:e</title>
<path fill="none" stroke="#000000" d="M605.5713,-313.3026C546.6923,-328.5407 639.4977,-448.4985 579,-502.7 539.9025,-537.7285 395.0016,-514.2726 344,-526.7 325.1964,-531.2818 322.8538,-542.7 303.5,-542.7"/>
<polygon fill="#000000" stroke="#000000" points="612.0489,-312.5832 620.3974,-315.278 616.0244,-312.1416 620,-311.7 620,-311.7 620,-311.7 616.0244,-312.1416 619.6026,-308.122 612.0489,-312.5832 612.0489,-312.5832"/>
<ellipse fill="none" stroke="#000000" cx="608.8685" cy="-312.9364" rx="3.2" ry="3.2"/>
</g>
<!-- profesores -->
<g id="node10" class="node">
<title>profesores</title>
<g id="a_node10"><a xlink:href="../../tables/profesores.html" xlink:title="profesores" target="_top">
<polygon fill="#ffffff" stroke="transparent" points="194.5,-120.2 194.5,-181.2 288.5,-181.2 288.5,-120.2 194.5,-120.2"/>
<polygon fill="#f5f5f5" stroke="transparent" points="194.5,-157.7 194.5,-180.7 288.5,-180.7 288.5,-157.7 194.5,-157.7"/>
<polygon fill="none" stroke="#000000" points="194.5,-157.7 194.5,-180.7 288.5,-180.7 288.5,-157.7 194.5,-157.7"/>
<text text-anchor="start" x="199.0224" y="-166.8" font-family="Helvetica,sans-Serif" font-weight="bold" font-size="11.00" fill="#000000">profesores</text>
<text text-anchor="start" x="254.0219" y="-165.8" font-family="Helvetica,sans-Serif" font-size="11.00" fill="#000000">[table]</text>
<polygon fill="none" stroke="#000000" points="194.5,-138.7 194.5,-157.7 288.5,-157.7 288.5,-138.7 194.5,-138.7"/>
<text text-anchor="start" x="197.5" y="-144.8" font-family="Helvetica,sans-Serif" font-size="11.00" fill="#000000">...</text>
<polygon fill="#ffffff" stroke="transparent" points="194.5,-119.7 194.5,-138.7 222.5,-138.7 222.5,-119.7 194.5,-119.7"/>
<polygon fill="none" stroke="#000000" points="194.5,-119.7 194.5,-138.7 222.5,-138.7 222.5,-119.7 194.5,-119.7"/>
<text text-anchor="start" x="197.5" y="-125.8" font-family="Helvetica,sans-Serif" font-size="11.00" fill="#000000">&lt; 1</text>
<polygon fill="#ffffff" stroke="transparent" points="222.5,-119.7 222.5,-138.7 263.5,-138.7 263.5,-119.7 222.5,-119.7"/>
<polygon fill="none" stroke="#000000" points="222.5,-119.7 222.5,-138.7 263.5,-138.7 263.5,-119.7 222.5,-119.7"/>
<text text-anchor="start" x="228.1105" y="-125.8" font-family="Helvetica,sans-Serif" font-size="11.00" fill="#000000">0 rows</text>
<polygon fill="#ffffff" stroke="transparent" points="263.5,-119.7 263.5,-138.7 288.5,-138.7 288.5,-119.7 263.5,-119.7"/>
<polygon fill="none" stroke="#000000" points="263.5,-119.7 263.5,-138.7 288.5,-138.7 288.5,-119.7 263.5,-119.7"/>
<text text-anchor="start" x="269.9053" y="-125.8" font-family="Helvetica,sans-Serif" font-size="11.00" fill="#000000">1 &gt;</text>
</a>
</g>
</g>
<!-- profesores&#45;&gt;personas -->
<g id="edge14" class="edge">
<title>profesores:w&#45;&gt;personas:e</title>
<path fill="none" stroke="#000000" d="M180.1257,-150.1456C128.9888,-170.5467 203.9393,-311.7 131.5,-311.7"/>
<polygon fill="#000000" stroke="#000000" points="186.6133,-149.0419 195.1038,-151.249 190.5567,-148.3709 194.5,-147.7 194.5,-147.7 194.5,-147.7 190.5567,-148.3709 193.8962,-144.151 186.6133,-149.0419 186.6133,-149.0419"/>
<ellipse fill="none" stroke="#000000" cx="183.4587" cy="-149.5786" rx="3.2" ry="3.2"/>
</g>
<!-- tareas -->
<g id="node11" class="node">
<title>tareas</title>
<g id="a_node11"><a xlink:href="../../tables/tareas.html" xlink:title="tareas" target="_top">
<polygon fill="#ffffff" stroke="transparent" points="639.5,-486.2 639.5,-547.2 712.5,-547.2 712.5,-486.2 639.5,-486.2"/>
<polygon fill="#f5f5f5" stroke="transparent" points="640,-523.7 640,-546.7 713,-546.7 713,-523.7 640,-523.7"/>
<polygon fill="none" stroke="#000000" points="640,-523.7 640,-546.7 713,-546.7 713,-523.7 640,-523.7"/>
<text text-anchor="start" x="644.7183" y="-532.8" font-family="Helvetica,sans-Serif" font-weight="bold" font-size="11.00" fill="#000000">tareas</text>
<text text-anchor="start" x="678.5219" y="-531.8" font-family="Helvetica,sans-Serif" font-size="11.00" fill="#000000">[table]</text>
<polygon fill="none" stroke="#000000" points="640,-504.7 640,-523.7 713,-523.7 713,-504.7 640,-504.7"/>
<text text-anchor="start" x="643" y="-510.8" font-family="Helvetica,sans-Serif" font-size="11.00" fill="#000000">...</text>
<polygon fill="#ffffff" stroke="transparent" points="640,-485.7 640,-504.7 662,-504.7 662,-485.7 640,-485.7"/>
<polygon fill="none" stroke="#000000" points="640,-485.7 640,-504.7 662,-504.7 662,-485.7 640,-485.7"/>
<text text-anchor="start" x="643" y="-491.8" font-family="Helvetica,sans-Serif" font-size="11.00" fill="#000000">&lt; 3</text>
<polygon fill="#ffffff" stroke="transparent" points="662,-485.7 662,-504.7 700,-504.7 700,-485.7 662,-485.7"/>
<polygon fill="none" stroke="#000000" points="662,-485.7 662,-504.7 700,-504.7 700,-485.7 662,-485.7"/>
<text text-anchor="start" x="664.8053" y="-491.8" font-family="Helvetica,sans-Serif" font-size="11.00" fill="#000000">0 rows</text>
<polygon fill="#ffffff" stroke="transparent" points="700,-485.7 700,-504.7 713,-504.7 713,-485.7 700,-485.7"/>
<polygon fill="none" stroke="#000000" points="700,-485.7 700,-504.7 713,-504.7 713,-485.7 700,-485.7"/>
<text text-anchor="start" x="703.8862" y="-491.8" font-family="Helvetica,sans-Serif" font-size="11.00" fill="#000000"> &#160;</text>
</a>
</g>
</g>
<!-- tareas&#45;&gt;contactos -->
<g id="edge15" class="edge">
<title>tareas:w&#45;&gt;contactos:e</title>
<path fill="none" stroke="#000000" d="M625.4831,-512.7953C525.1902,-499.1735 649.2722,-334.917 579,-236.7 557.0677,-206.046 544.1921,-192.7 506.5,-192.7"/>
<polygon fill="#000000" stroke="#000000" points="632.0155,-513.2023 639.776,-517.293 636.0077,-513.4512 640,-513.7 640,-513.7 640,-513.7 636.0077,-513.4512 640.224,-510.107 632.0155,-513.2023 632.0155,-513.2023"/>
<ellipse fill="none" stroke="#000000" cx="628.8217" cy="-513.0033" rx="3.2" ry="3.2"/>
</g>
<!-- tareas&#45;&gt;leads -->
<g id="edge16" class="edge">
<title>tareas:w&#45;&gt;leads:e</title>
<path fill="none" stroke="#000000" d="M625.659,-515.0655C563.8596,-527.5675 574.3747,-621.7 501.5,-621.7"/>
<polygon fill="#000000" stroke="#000000" points="632.036,-514.4584 640.3413,-517.2838 636.018,-514.0792 640,-513.7 640,-513.7 640,-513.7 636.018,-514.0792 639.6587,-510.1162 632.036,-514.4584 632.036,-514.4584"/>
<ellipse fill="none" stroke="#000000" cx="628.8504" cy="-514.7617" rx="3.2" ry="3.2"/>
</g>
<!-- tareas&#45;&gt;usuarios -->
<g id="edge17" class="edge">
<title>tareas:w&#45;&gt;usuarios:e</title>
<path fill="none" stroke="#000000" d="M625.4831,-514.6365C609.0616,-516.9386 600.8383,-522.8908 579,-525.7 457.3252,-541.3519 426.1773,-542.7 303.5,-542.7"/>
<polygon fill="#000000" stroke="#000000" points="632.0166,-514.2151 640.2318,-517.2925 636.0083,-513.9575 640,-513.7 640,-513.7 640,-513.7 636.0083,-513.9575 639.7682,-510.1075 632.0166,-514.2151 632.0166,-514.2151"/>
<ellipse fill="none" stroke="#000000" cx="628.8232" cy="-514.4211" rx="3.2" ry="3.2"/>
</g>
<!-- telefonos -->
<g id="node12" class="node">
<title>telefonos</title>
<g id="a_node12"><a xlink:href="../../tables/telefonos.html" xlink:title="telefonos" target="_top">
<polygon fill="#ffffff" stroke="transparent" points="198,-38.2 198,-99.2 285,-99.2 285,-38.2 198,-38.2"/>
<polygon fill="#f5f5f5" stroke="transparent" points="198.5,-75.7 198.5,-98.7 285.5,-98.7 285.5,-75.7 198.5,-75.7"/>
<polygon fill="none" stroke="#000000" points="198.5,-75.7 198.5,-98.7 285.5,-98.7 285.5,-75.7 198.5,-75.7"/>
<text text-anchor="start" x="203.1854" y="-84.8" font-family="Helvetica,sans-Serif" font-weight="bold" font-size="11.00" fill="#000000">telefonos</text>
<text text-anchor="start" x="251.0219" y="-83.8" font-family="Helvetica,sans-Serif" font-size="11.00" fill="#000000">[table]</text>
<polygon fill="none" stroke="#000000" points="198.5,-56.7 198.5,-75.7 285.5,-75.7 285.5,-56.7 198.5,-56.7"/>
<text text-anchor="start" x="201.5" y="-62.8" font-family="Helvetica,sans-Serif" font-size="11.00" fill="#000000">...</text>
<polygon fill="#ffffff" stroke="transparent" points="198.5,-37.7 198.5,-56.7 227.5,-56.7 227.5,-37.7 198.5,-37.7"/>
<polygon fill="none" stroke="#000000" points="198.5,-37.7 198.5,-56.7 227.5,-56.7 227.5,-37.7 198.5,-37.7"/>
<text text-anchor="start" x="201.5" y="-43.8" font-family="Helvetica,sans-Serif" font-size="11.00" fill="#000000">&lt; 2</text>
<polygon fill="#ffffff" stroke="transparent" points="227.5,-37.7 227.5,-56.7 269.5,-56.7 269.5,-37.7 227.5,-37.7"/>
<polygon fill="none" stroke="#000000" points="227.5,-37.7 227.5,-56.7 269.5,-56.7 269.5,-37.7 227.5,-37.7"/>
<text text-anchor="start" x="234.1105" y="-43.8" font-family="Helvetica,sans-Serif" font-size="11.00" fill="#000000">0 rows</text>
<polygon fill="#ffffff" stroke="transparent" points="269.5,-37.7 269.5,-56.7 285.5,-56.7 285.5,-37.7 269.5,-37.7"/>
<polygon fill="none" stroke="#000000" points="269.5,-37.7 269.5,-56.7 285.5,-56.7 285.5,-37.7 269.5,-37.7"/>
<text text-anchor="start" x="276.3862" y="-43.8" font-family="Helvetica,sans-Serif" font-size="11.00" fill="#000000"> &#160;</text>
</a>
</g>
</g>
<!-- telefonos&#45;&gt;personas -->
<g id="edge18" class="edge">
<title>telefonos:w&#45;&gt;personas:e</title>
<path fill="none" stroke="#000000" d="M185.1104,-71.7809C149.6212,-109.6629 182.8463,-311.7 131.5,-311.7"/>
<polygon fill="#000000" stroke="#000000" points="191.216,-69.0081 199.9886,-68.9778 194.858,-67.354 198.5,-65.7 198.5,-65.7 198.5,-65.7 194.858,-67.354 197.0114,-62.4222 191.216,-69.0081 191.216,-69.0081"/>
<ellipse fill="none" stroke="#000000" cx="188.3024" cy="-70.3313" rx="3.2" ry="3.2"/>
</g>
</g>
</svg>
