<?xml version="1.0" encoding="UTF-8" standalone="no"?>
<!DOCTYPE svg PUBLIC "-//W3C//DTD SVG 1.1//EN"
 "http://www.w3.org/Graphics/SVG/1.1/DTD/svg11.dtd">
<!-- Generated by graphviz version 2.40.1 (20161225.0304)
 -->
<!-- Title: twoDegreesRelationshipsDiagram Pages: 1 -->
<svg width="715pt" height="925pt"
 viewBox="0.00 0.00 715.00 925.20" xmlns="http://www.w3.org/2000/svg" xmlns:xlink="http://www.w3.org/1999/xlink">
<g id="graph0" class="graph" transform="scale(1 1) rotate(0) translate(4 921.2)">
<title>twoDegreesRelationshipsDiagram</title>
<polygon fill="#ffffff" stroke="transparent" points="-4,4 -4,-921.2 711,-921.2 711,4 -4,4"/>
<text text-anchor="middle" x="72.4936" y="-7.3" font-family="Helvetica,sans-Serif" font-size="11.00" fill="#000000">Generated by SchemaSpy</text>
<!-- casos -->
<g id="node1" class="node">
<title>casos</title>
<g id="a_node1"><a xlink:href="../../tables/casos.html" xlink:title="casos" target="_top">
<polygon fill="#ffffff" stroke="transparent" points="254,-852.2 254,-913.2 325,-913.2 325,-852.2 254,-852.2"/>
<polygon fill="#f5f5f5" stroke="transparent" points="254.5,-889.7 254.5,-912.7 325.5,-912.7 325.5,-889.7 254.5,-889.7"/>
<polygon fill="none" stroke="#000000" points="254.5,-889.7 254.5,-912.7 325.5,-912.7 325.5,-889.7 254.5,-889.7"/>
<text text-anchor="start" x="259.1351" y="-898.8" font-family="Helvetica,sans-Serif" font-weight="bold" font-size="11.00" fill="#000000">casos</text>
<text text-anchor="start" x="291.0219" y="-897.8" font-family="Helvetica,sans-Serif" font-size="11.00" fill="#000000">[table]</text>
<polygon fill="none" stroke="#000000" points="254.5,-870.7 254.5,-889.7 325.5,-889.7 325.5,-870.7 254.5,-870.7"/>
<text text-anchor="start" x="257.5" y="-876.8" font-family="Helvetica,sans-Serif" font-size="11.00" fill="#000000">...</text>
<polygon fill="#ffffff" stroke="transparent" points="254.5,-851.7 254.5,-870.7 278.5,-870.7 278.5,-851.7 254.5,-851.7"/>
<polygon fill="none" stroke="#000000" points="254.5,-851.7 254.5,-870.7 278.5,-870.7 278.5,-851.7 254.5,-851.7"/>
<text text-anchor="start" x="257.5" y="-857.8" font-family="Helvetica,sans-Serif" font-size="11.00" fill="#000000">&lt; 1</text>
<polygon fill="#ffffff" stroke="transparent" points="278.5,-851.7 278.5,-870.7 311.5,-870.7 311.5,-851.7 278.5,-851.7"/>
<polygon fill="none" stroke="#000000" points="278.5,-851.7 278.5,-870.7 311.5,-870.7 311.5,-851.7 278.5,-851.7"/>
<text text-anchor="start" x="281.6105" y="-857.8" font-family="Helvetica,sans-Serif" font-size="11.00" fill="#000000">1 row</text>
<polygon fill="#ffffff" stroke="transparent" points="311.5,-851.7 311.5,-870.7 325.5,-870.7 325.5,-851.7 311.5,-851.7"/>
<polygon fill="none" stroke="#000000" points="311.5,-851.7 311.5,-870.7 325.5,-870.7 325.5,-851.7 311.5,-851.7"/>
<text text-anchor="start" x="316.3862" y="-857.8" font-family="Helvetica,sans-Serif" font-size="11.00" fill="#000000"> &#160;</text>
</a>
</g>
</g>
<!-- usuarios -->
<g id="node2" class="node">
<title>usuarios</title>
<g id="a_node2"><a xlink:href="../../tables/usuarios.html" xlink:title="usuarios" target="_top">
<polygon fill="#ffffff" stroke="transparent" points="8,-699.2 8,-804.2 131,-804.2 131,-699.2 8,-699.2"/>
<polygon fill="#f5f5f5" stroke="transparent" points="8.5,-780.7 8.5,-803.7 131.5,-803.7 131.5,-780.7 8.5,-780.7"/>
<polygon fill="none" stroke="#000000" points="8.5,-780.7 8.5,-803.7 131.5,-803.7 131.5,-780.7 8.5,-780.7"/>
<text text-anchor="start" x="13.5" y="-789.8" font-family="Helvetica,sans-Serif" font-weight="bold" font-size="11.00" fill="#000000">usuarios</text>
<text text-anchor="start" x="96.5437" y="-788.8" font-family="Helvetica,sans-Serif" font-size="11.00" fill="#000000">[table]</text>
<polygon fill="none" stroke="#000000" points="8.5,-758.7 8.5,-780.7 131.5,-780.7 131.5,-758.7 8.5,-758.7"/>
<image xlink:href="../../images/primaryKeys.png" width="11px" height="12px" preserveAspectRatio="xMinYMin meet" x="13.5" y="-775.7"/>
<text text-anchor="start" x="28.5" y="-765.8" font-family="Helvetica,sans-Serif" font-size="11.00" fill="#000000">usuario_id</text>
<polygon fill="#ffffff" stroke="transparent" points="8.5,-736.7 8.5,-758.7 131.5,-758.7 131.5,-736.7 8.5,-736.7"/>
<polygon fill="none" stroke="#000000" points="8.5,-736.7 8.5,-758.7 131.5,-758.7 131.5,-736.7 8.5,-736.7"/>
<text text-anchor="start" x="28.5" y="-743.8" font-family="Helvetica,sans-Serif" font-size="11.00" fill="#000000">nom_usuario</text>
<polygon fill="none" stroke="#000000" points="8.5,-717.7 8.5,-736.7 131.5,-736.7 131.5,-717.7 8.5,-717.7"/>
<text text-anchor="start" x="11.5" y="-723.8" font-family="Helvetica,sans-Serif" font-size="11.00" fill="#000000">...</text>
<polygon fill="#ffffff" stroke="transparent" points="8.5,-698.7 8.5,-717.7 49.5,-717.7 49.5,-698.7 8.5,-698.7"/>
<polygon fill="none" stroke="#000000" points="8.5,-698.7 8.5,-717.7 49.5,-717.7 49.5,-698.7 8.5,-698.7"/>
<text text-anchor="start" x="11.5" y="-704.8" font-family="Helvetica,sans-Serif" font-size="11.00" fill="#000000"> &#160;</text>
<polygon fill="#ffffff" stroke="transparent" points="49.5,-698.7 49.5,-717.7 95.5,-717.7 95.5,-698.7 49.5,-698.7"/>
<polygon fill="none" stroke="#000000" points="49.5,-698.7 49.5,-717.7 95.5,-717.7 95.5,-698.7 49.5,-698.7"/>
<text text-anchor="start" x="65.6105" y="-704.8" font-family="Helvetica,sans-Serif" font-size="11.00" fill="#000000">1 row</text>
<polygon fill="#ffffff" stroke="transparent" points="95.5,-698.7 95.5,-717.7 131.5,-717.7 131.5,-698.7 95.5,-698.7"/>
<polygon fill="none" stroke="#000000" points="95.5,-698.7 95.5,-717.7 131.5,-717.7 131.5,-698.7 95.5,-698.7"/>
<text text-anchor="start" x="112.9053" y="-704.8" font-family="Helvetica,sans-Serif" font-size="11.00" fill="#000000">5 &gt;</text>
</a>
</g>
</g>
<!-- casos&#45;&gt;usuarios -->
<g id="edge1" class="edge">
<title>casos:w&#45;&gt;usuarios:e</title>
<path fill="none" stroke="#000000" d="M239.9716,-879.007C210.1273,-875.8836 198.1691,-862.1898 172,-837.7 146.316,-813.6642 166.6765,-769.7 131.5,-769.7"/>
<polygon fill="#000000" stroke="#000000" points="246.5091,-879.3188 254.3285,-883.2959 250.5045,-879.5094 254.5,-879.7 254.5,-879.7 254.5,-879.7 250.5045,-879.5094 254.6715,-876.1041 246.5091,-879.3188 246.5091,-879.3188"/>
<ellipse fill="none" stroke="#000000" cx="243.3127" cy="-879.1663" rx="3.2" ry="3.2"/>
</g>
<!-- contactos -->
<g id="node3" class="node">
<title>contactos</title>
<g id="a_node3"><a xlink:href="../../tables/contactos.html" xlink:title="contactos" target="_top">
<polygon fill="#ffffff" stroke="transparent" points="448,-342.2 448,-403.2 538,-403.2 538,-342.2 448,-342.2"/>
<polygon fill="#f5f5f5" stroke="transparent" points="448,-379.7 448,-402.7 538,-402.7 538,-379.7 448,-379.7"/>
<polygon fill="none" stroke="#000000" points="448,-379.7 448,-402.7 538,-402.7 538,-379.7 448,-379.7"/>
<text text-anchor="start" x="452.9633" y="-388.8" font-family="Helvetica,sans-Serif" font-weight="bold" font-size="11.00" fill="#000000">contactos</text>
<text text-anchor="start" x="503.5219" y="-387.8" font-family="Helvetica,sans-Serif" font-size="11.00" fill="#000000">[table]</text>
<polygon fill="none" stroke="#000000" points="448,-360.7 448,-379.7 538,-379.7 538,-360.7 448,-360.7"/>
<text text-anchor="start" x="451" y="-366.8" font-family="Helvetica,sans-Serif" font-size="11.00" fill="#000000">...</text>
<polygon fill="#ffffff" stroke="transparent" points="448,-341.7 448,-360.7 477,-360.7 477,-341.7 448,-341.7"/>
<polygon fill="none" stroke="#000000" points="448,-341.7 448,-360.7 477,-360.7 477,-341.7 448,-341.7"/>
<text text-anchor="start" x="451" y="-347.8" font-family="Helvetica,sans-Serif" font-size="11.00" fill="#000000">&lt; 2</text>
<polygon fill="#ffffff" stroke="transparent" points="477,-341.7 477,-360.7 513,-360.7 513,-341.7 477,-341.7"/>
<polygon fill="none" stroke="#000000" points="477,-341.7 477,-360.7 513,-360.7 513,-341.7 477,-341.7"/>
<text text-anchor="start" x="483.1105" y="-347.8" font-family="Helvetica,sans-Serif" font-size="11.00" fill="#000000">1 row</text>
<polygon fill="#ffffff" stroke="transparent" points="513,-341.7 513,-360.7 538,-360.7 538,-341.7 513,-341.7"/>
<polygon fill="none" stroke="#000000" points="513,-341.7 513,-360.7 538,-360.7 538,-341.7 513,-341.7"/>
<text text-anchor="start" x="519.4053" y="-347.8" font-family="Helvetica,sans-Serif" font-size="11.00" fill="#000000">2 &gt;</text>
</a>
</g>
</g>
<!-- organizaciones -->
<g id="node4" class="node">
<title>organizaciones</title>
<g id="a_node4"><a xlink:href="../../tables/organizaciones.html" xlink:title="organizaciones" target="_top">
<polygon fill="#ffffff" stroke="transparent" points="231.5,-284.2 231.5,-345.2 347.5,-345.2 347.5,-284.2 231.5,-284.2"/>
<polygon fill="#f5f5f5" stroke="transparent" points="231.5,-321.7 231.5,-344.7 347.5,-344.7 347.5,-321.7 231.5,-321.7"/>
<polygon fill="none" stroke="#000000" points="231.5,-321.7 231.5,-344.7 347.5,-344.7 347.5,-321.7 231.5,-321.7"/>
<text text-anchor="start" x="236.0186" y="-330.8" font-family="Helvetica,sans-Serif" font-weight="bold" font-size="11.00" fill="#000000">organizaciones</text>
<text text-anchor="start" x="313.0219" y="-329.8" font-family="Helvetica,sans-Serif" font-size="11.00" fill="#000000">[table]</text>
<polygon fill="none" stroke="#000000" points="231.5,-302.7 231.5,-321.7 347.5,-321.7 347.5,-302.7 231.5,-302.7"/>
<text text-anchor="start" x="234.5" y="-308.8" font-family="Helvetica,sans-Serif" font-size="11.00" fill="#000000">...</text>
<polygon fill="#ffffff" stroke="transparent" points="231.5,-283.7 231.5,-302.7 270.5,-302.7 270.5,-283.7 231.5,-283.7"/>
<polygon fill="none" stroke="#000000" points="231.5,-283.7 231.5,-302.7 270.5,-302.7 270.5,-283.7 231.5,-283.7"/>
<text text-anchor="start" x="234.5" y="-289.8" font-family="Helvetica,sans-Serif" font-size="11.00" fill="#000000">&lt; 1</text>
<polygon fill="#ffffff" stroke="transparent" points="270.5,-283.7 270.5,-302.7 317.5,-302.7 317.5,-283.7 270.5,-283.7"/>
<polygon fill="none" stroke="#000000" points="270.5,-283.7 270.5,-302.7 317.5,-302.7 317.5,-283.7 270.5,-283.7"/>
<text text-anchor="start" x="282.1105" y="-289.8" font-family="Helvetica,sans-Serif" font-size="11.00" fill="#000000">0 rows</text>
<polygon fill="#ffffff" stroke="transparent" points="317.5,-283.7 317.5,-302.7 347.5,-302.7 347.5,-283.7 317.5,-283.7"/>
<polygon fill="none" stroke="#000000" points="317.5,-283.7 317.5,-302.7 347.5,-302.7 347.5,-283.7 317.5,-283.7"/>
<text text-anchor="start" x="328.9053" y="-289.8" font-family="Helvetica,sans-Serif" font-size="11.00" fill="#000000">1 &gt;</text>
</a>
</g>
</g>
<!-- contactos&#45;&gt;organizaciones -->
<g id="edge2" class="edge">
<title>contactos:w&#45;&gt;organizaciones:e</title>
<path fill="none" stroke="#000000" d="M433.3645,-367.9006C396.383,-358.1108 393.6322,-311.7 347.5,-311.7"/>
<polygon fill="#000000" stroke="#000000" points="440.0598,-368.7237 447.5607,-373.2731 444.0299,-369.2119 448,-369.7 448,-369.7 448,-369.7 444.0299,-369.2119 448.4393,-366.1269 440.0598,-368.7237 440.0598,-368.7237"/>
<ellipse fill="none" stroke="#000000" cx="436.8837" cy="-368.3332" rx="3.2" ry="3.2"/>
</g>
<!-- personas -->
<g id="node5" class="node">
<title>personas</title>
<g id="a_node5"><a xlink:href="../../tables/personas.html" xlink:title="personas" target="_top">
<polygon fill="#ffffff" stroke="transparent" points="8,-263.2 8,-346.2 131,-346.2 131,-263.2 8,-263.2"/>
<polygon fill="#f5f5f5" stroke="transparent" points="8.5,-322.7 8.5,-345.7 131.5,-345.7 131.5,-322.7 8.5,-322.7"/>
<polygon fill="none" stroke="#000000" points="8.5,-322.7 8.5,-345.7 131.5,-345.7 131.5,-322.7 8.5,-322.7"/>
<text text-anchor="start" x="13.5" y="-331.8" font-family="Helvetica,sans-Serif" font-weight="bold" font-size="11.00" fill="#000000">personas</text>
<text text-anchor="start" x="96.5437" y="-330.8" font-family="Helvetica,sans-Serif" font-size="11.00" fill="#000000">[table]</text>
<polygon fill="none" stroke="#000000" points="8.5,-300.7 8.5,-322.7 131.5,-322.7 131.5,-300.7 8.5,-300.7"/>
<image xlink:href="../../images/primaryKeys.png" width="11px" height="12px" preserveAspectRatio="xMinYMin meet" x="13.5" y="-317.7"/>
<text text-anchor="start" x="28.5" y="-307.8" font-family="Helvetica,sans-Serif" font-size="11.00" fill="#000000">persona_id</text>
<polygon fill="none" stroke="#000000" points="8.5,-281.7 8.5,-300.7 131.5,-300.7 131.5,-281.7 8.5,-281.7"/>
<text text-anchor="start" x="11.5" y="-287.8" font-family="Helvetica,sans-Serif" font-size="11.00" fill="#000000">...</text>
<polygon fill="#ffffff" stroke="transparent" points="8.5,-262.7 8.5,-281.7 46.5,-281.7 46.5,-262.7 8.5,-262.7"/>
<polygon fill="none" stroke="#000000" points="8.5,-262.7 8.5,-281.7 46.5,-281.7 46.5,-262.7 8.5,-262.7"/>
<text text-anchor="start" x="11.5" y="-268.8" font-family="Helvetica,sans-Serif" font-size="11.00" fill="#000000"> &#160;</text>
<polygon fill="#ffffff" stroke="transparent" points="46.5,-262.7 46.5,-281.7 97.5,-281.7 97.5,-262.7 46.5,-262.7"/>
<polygon fill="none" stroke="#000000" points="46.5,-262.7 46.5,-281.7 97.5,-281.7 97.5,-262.7 46.5,-262.7"/>
<text text-anchor="start" x="62.1105" y="-268.8" font-family="Helvetica,sans-Serif" font-size="11.00" fill="#000000">2 rows</text>
<polygon fill="#ffffff" stroke="transparent" points="97.5,-262.7 97.5,-281.7 131.5,-281.7 131.5,-262.7 97.5,-262.7"/>
<polygon fill="none" stroke="#000000" points="97.5,-262.7 97.5,-281.7 131.5,-281.7 131.5,-262.7 97.5,-262.7"/>
<text text-anchor="start" x="112.9053" y="-268.8" font-family="Helvetica,sans-Serif" font-size="11.00" fill="#000000">7 &gt;</text>
</a>
</g>
</g>
<!-- contactos&#45;&gt;personas -->
<g id="edge3" class="edge">
<title>contactos:w&#45;&gt;personas:e</title>
<path fill="none" stroke="#000000" d="M433.2845,-369.8838C321.6152,-372.6796 278.6309,-405.7354 172,-355.7 147.9387,-344.4095 158.0786,-311.7 131.5,-311.7"/>
<polygon fill="#000000" stroke="#000000" points="440.0006,-369.8 448.045,-373.2997 444.0003,-369.75 448,-369.7 448,-369.7 448,-369.7 444.0003,-369.75 447.955,-366.1003 440.0006,-369.8 440.0006,-369.8"/>
<ellipse fill="none" stroke="#000000" cx="436.8009" cy="-369.84" rx="3.2" ry="3.2"/>
</g>
<!-- organizaciones&#45;&gt;personas -->
<g id="edge11" class="edge">
<title>organizaciones:w&#45;&gt;personas:e</title>
<path fill="none" stroke="#000000" d="M216.7022,-311.7C183.8758,-311.7 170.5625,-311.7 131.5,-311.7"/>
<polygon fill="#000000" stroke="#000000" points="223.5,-311.7001 231.5,-315.3 227.5,-311.7 231.5,-311.7 231.5,-311.7 231.5,-311.7 227.5,-311.7 231.5,-308.1 223.5,-311.7001 223.5,-311.7001"/>
<ellipse fill="none" stroke="#000000" cx="220.3" cy="-311.7001" rx="3.2" ry="3.2"/>
</g>
<!-- direcciones -->
<g id="node6" class="node">
<title>direcciones</title>
<g id="a_node6"><a xlink:href="../../tables/direcciones.html" xlink:title="direcciones" target="_top">
<polygon fill="#ffffff" stroke="transparent" points="240.5,-202.2 240.5,-263.2 338.5,-263.2 338.5,-202.2 240.5,-202.2"/>
<polygon fill="#f5f5f5" stroke="transparent" points="240.5,-239.7 240.5,-262.7 338.5,-262.7 338.5,-239.7 240.5,-239.7"/>
<polygon fill="none" stroke="#000000" points="240.5,-239.7 240.5,-262.7 338.5,-262.7 338.5,-239.7 240.5,-239.7"/>
<text text-anchor="start" x="245.1909" y="-248.8" font-family="Helvetica,sans-Serif" font-weight="bold" font-size="11.00" fill="#000000">direcciones</text>
<text text-anchor="start" x="304.0219" y="-247.8" font-family="Helvetica,sans-Serif" font-size="11.00" fill="#000000">[table]</text>
<polygon fill="none" stroke="#000000" points="240.5,-220.7 240.5,-239.7 338.5,-239.7 338.5,-220.7 240.5,-220.7"/>
<text text-anchor="start" x="243.5" y="-226.8" font-family="Helvetica,sans-Serif" font-size="11.00" fill="#000000">...</text>
<polygon fill="#ffffff" stroke="transparent" points="240.5,-201.7 240.5,-220.7 274.5,-220.7 274.5,-201.7 240.5,-201.7"/>
<polygon fill="none" stroke="#000000" points="240.5,-201.7 240.5,-220.7 274.5,-220.7 274.5,-201.7 240.5,-201.7"/>
<text text-anchor="start" x="243.5" y="-207.8" font-family="Helvetica,sans-Serif" font-size="11.00" fill="#000000">&lt; 3</text>
<polygon fill="#ffffff" stroke="transparent" points="274.5,-201.7 274.5,-220.7 319.5,-220.7 319.5,-201.7 274.5,-201.7"/>
<polygon fill="none" stroke="#000000" points="274.5,-201.7 274.5,-220.7 319.5,-220.7 319.5,-201.7 274.5,-201.7"/>
<text text-anchor="start" x="284.1105" y="-207.8" font-family="Helvetica,sans-Serif" font-size="11.00" fill="#000000">0 rows</text>
<polygon fill="#ffffff" stroke="transparent" points="319.5,-201.7 319.5,-220.7 338.5,-220.7 338.5,-201.7 319.5,-201.7"/>
<polygon fill="none" stroke="#000000" points="319.5,-201.7 319.5,-220.7 338.5,-220.7 338.5,-201.7 319.5,-201.7"/>
<text text-anchor="start" x="329.3862" y="-207.8" font-family="Helvetica,sans-Serif" font-size="11.00" fill="#000000"> &#160;</text>
</a>
</g>
</g>
<!-- direcciones&#45;&gt;personas -->
<g id="edge4" class="edge">
<title>direcciones:w&#45;&gt;personas:e</title>
<path fill="none" stroke="#000000" d="M226.0168,-231.1392C202.5894,-236.3386 196.1877,-254.8399 172,-273.7 152.5352,-288.8775 156.1827,-311.7 131.5,-311.7"/>
<polygon fill="#000000" stroke="#000000" points="232.5392,-230.4911 240.856,-233.2824 236.5196,-230.0956 240.5,-229.7 240.5,-229.7 240.5,-229.7 236.5196,-230.0956 240.144,-226.1176 232.5392,-230.4911 232.5392,-230.4911"/>
<ellipse fill="none" stroke="#000000" cx="229.3549" cy="-230.8076" rx="3.2" ry="3.2"/>
</g>
<!-- empleados -->
<g id="node7" class="node">
<title>empleados</title>
<g id="a_node7"><a xlink:href="../../tables/empleados.html" xlink:title="empleados" target="_top">
<polygon fill="#ffffff" stroke="transparent" points="180,-476.7 180,-720.7 399,-720.7 399,-476.7 180,-476.7"/>
<polygon fill="#f5f5f5" stroke="transparent" points="182.5,-695.7 182.5,-718.7 397.5,-718.7 397.5,-695.7 182.5,-695.7"/>
<polygon fill="none" stroke="#000000" points="182.5,-695.7 182.5,-718.7 397.5,-718.7 397.5,-695.7 182.5,-695.7"/>
<text text-anchor="start" x="187.5" y="-704.8" font-family="Helvetica,sans-Serif" font-weight="bold" font-size="11.00" fill="#000000">empleados</text>
<text text-anchor="start" x="362.5437" y="-703.8" font-family="Helvetica,sans-Serif" font-size="11.00" fill="#000000">[table]</text>
<polygon fill="none" stroke="#000000" points="182.5,-673.7 182.5,-695.7 305.5,-695.7 305.5,-673.7 182.5,-673.7"/>
<image xlink:href="../../images/primaryKeys.png" width="11px" height="12px" preserveAspectRatio="xMinYMin meet" x="187.5" y="-690.7"/>
<text text-anchor="start" x="202.5" y="-680.8" font-family="Helvetica,sans-Serif" font-size="11.00" fill="#000000">empleado_id</text>
<polygon fill="none" stroke="#000000" points="305.5,-673.7 305.5,-695.7 397.5,-695.7 397.5,-673.7 305.5,-673.7"/>
<text text-anchor="start" x="308.5" y="-681.4" font-family="Helvetica,sans-Serif" font-size="11.00" fill="#000000">serial[10]</text>
<polygon fill="none" stroke="#000000" points="182.5,-651.7 182.5,-673.7 305.5,-673.7 305.5,-651.7 182.5,-651.7"/>
<image xlink:href="../../images/foreignKeys.png" width="11px" height="12px" preserveAspectRatio="xMinYMin meet" x="187.5" y="-668.7"/>
<text text-anchor="start" x="202.5" y="-658.8" font-family="Helvetica,sans-Serif" font-size="11.00" fill="#000000">persona_id</text>
<polygon fill="none" stroke="#000000" points="305.5,-651.7 305.5,-673.7 397.5,-673.7 397.5,-651.7 305.5,-651.7"/>
<text text-anchor="start" x="308.5" y="-659.4" font-family="Helvetica,sans-Serif" font-size="11.00" fill="#000000">int4[10]</text>
<polygon fill="none" stroke="#000000" points="182.5,-629.7 182.5,-651.7 305.5,-651.7 305.5,-629.7 182.5,-629.7"/>
<image xlink:href="../../images/foreignKeys.png" width="11px" height="12px" preserveAspectRatio="xMinYMin meet" x="187.5" y="-646.7"/>
<text text-anchor="start" x="202.5" y="-636.8" font-family="Helvetica,sans-Serif" font-size="11.00" fill="#000000">usuario_id</text>
<polygon fill="none" stroke="#000000" points="305.5,-629.7 305.5,-651.7 397.5,-651.7 397.5,-629.7 305.5,-629.7"/>
<text text-anchor="start" x="308.5" y="-637.4" font-family="Helvetica,sans-Serif" font-size="11.00" fill="#000000">int4[10]</text>
<polygon fill="none" stroke="#000000" points="182.5,-607.7 182.5,-629.7 305.5,-629.7 305.5,-607.7 182.5,-607.7"/>
<text text-anchor="start" x="202.5" y="-614.8" font-family="Helvetica,sans-Serif" font-size="11.00" fill="#000000">activo</text>
<polygon fill="none" stroke="#000000" points="305.5,-607.7 305.5,-629.7 397.5,-629.7 397.5,-607.7 305.5,-607.7"/>
<text text-anchor="start" x="308.5" y="-615.4" font-family="Helvetica,sans-Serif" font-size="11.00" fill="#000000">bool[1]</text>
<polygon fill="none" stroke="#000000" points="182.5,-585.7 182.5,-607.7 305.5,-607.7 305.5,-585.7 182.5,-585.7"/>
<text text-anchor="start" x="202.5" y="-592.8" font-family="Helvetica,sans-Serif" font-size="11.00" fill="#000000">cargo</text>
<polygon fill="none" stroke="#000000" points="305.5,-585.7 305.5,-607.7 397.5,-607.7 397.5,-585.7 305.5,-585.7"/>
<text text-anchor="start" x="308.5" y="-593.4" font-family="Helvetica,sans-Serif" font-size="11.00" fill="#000000">varchar[255]</text>
<polygon fill="none" stroke="#000000" points="182.5,-563.7 182.5,-585.7 305.5,-585.7 305.5,-563.7 182.5,-563.7"/>
<text text-anchor="start" x="202.5" y="-570.8" font-family="Helvetica,sans-Serif" font-size="11.00" fill="#000000">usu_insercion</text>
<polygon fill="none" stroke="#000000" points="305.5,-563.7 305.5,-585.7 397.5,-585.7 397.5,-563.7 305.5,-563.7"/>
<text text-anchor="start" x="308.5" y="-571.4" font-family="Helvetica,sans-Serif" font-size="11.00" fill="#000000">varchar[20]</text>
<polygon fill="none" stroke="#000000" points="182.5,-541.7 182.5,-563.7 305.5,-563.7 305.5,-541.7 182.5,-541.7"/>
<text text-anchor="start" x="202.5" y="-548.8" font-family="Helvetica,sans-Serif" font-size="11.00" fill="#000000">fec_insercion</text>
<polygon fill="none" stroke="#000000" points="305.5,-541.7 305.5,-563.7 397.5,-563.7 397.5,-541.7 305.5,-541.7"/>
<text text-anchor="start" x="308.1023" y="-549.4" font-family="Helvetica,sans-Serif" font-size="11.00" fill="#000000">timestamptz[35,6]</text>
<polygon fill="none" stroke="#000000" points="182.5,-519.7 182.5,-541.7 305.5,-541.7 305.5,-519.7 182.5,-519.7"/>
<text text-anchor="start" x="202.5" y="-526.8" font-family="Helvetica,sans-Serif" font-size="11.00" fill="#000000">fec_modificacion</text>
<polygon fill="none" stroke="#000000" points="305.5,-519.7 305.5,-541.7 397.5,-541.7 397.5,-519.7 305.5,-519.7"/>
<text text-anchor="start" x="308.1023" y="-527.4" font-family="Helvetica,sans-Serif" font-size="11.00" fill="#000000">timestamptz[35,6]</text>
<polygon fill="none" stroke="#000000" points="182.5,-497.7 182.5,-519.7 305.5,-519.7 305.5,-497.7 182.5,-497.7"/>
<text text-anchor="start" x="202.5" y="-504.8" font-family="Helvetica,sans-Serif" font-size="11.00" fill="#000000">usu_modificacion</text>
<polygon fill="none" stroke="#000000" points="305.5,-497.7 305.5,-519.7 397.5,-519.7 397.5,-497.7 305.5,-497.7"/>
<text text-anchor="start" x="308.5" y="-505.4" font-family="Helvetica,sans-Serif" font-size="11.00" fill="#000000">varchar[20]</text>
<polygon fill="#ffffff" stroke="transparent" points="182.5,-478.7 182.5,-497.7 238.5,-497.7 238.5,-478.7 182.5,-478.7"/>
<polygon fill="none" stroke="#000000" points="182.5,-478.7 182.5,-497.7 238.5,-497.7 238.5,-478.7 182.5,-478.7"/>
<text text-anchor="start" x="185.5" y="-484.8" font-family="Helvetica,sans-Serif" font-size="11.00" fill="#000000">&lt; 2</text>
<polygon fill="#ffffff" stroke="transparent" points="238.5,-478.7 238.5,-497.7 305.5,-497.7 305.5,-478.7 238.5,-478.7"/>
<polygon fill="none" stroke="#000000" points="238.5,-478.7 238.5,-497.7 305.5,-497.7 305.5,-478.7 238.5,-478.7"/>
<text text-anchor="start" x="275.6105" y="-484.8" font-family="Helvetica,sans-Serif" font-size="11.00" fill="#000000">1 row</text>
<polygon fill="#ffffff" stroke="transparent" points="305.5,-478.7 305.5,-497.7 397.5,-497.7 397.5,-478.7 305.5,-478.7"/>
<polygon fill="none" stroke="#000000" points="305.5,-478.7 305.5,-497.7 397.5,-497.7 397.5,-478.7 305.5,-478.7"/>
<text text-anchor="start" x="378.9053" y="-484.8" font-family="Helvetica,sans-Serif" font-size="11.00" fill="#000000">0 &gt;</text>
<polygon fill="none" stroke="#000000" stroke-width="2" points="181,-477.7 181,-719.7 398,-719.7 398,-477.7 181,-477.7"/>
</a>
</g>
</g>
<!-- empleados&#45;&gt;usuarios -->
<g id="edge6" class="edge">
<title>empleados:w&#45;&gt;usuarios:e</title>
<path fill="none" stroke="#000000" d="M168.021,-644.1504C133.6928,-664.6651 187.1307,-769.7 131.5,-769.7"/>
<polygon fill="#000000" stroke="#000000" points="174.7179,-642.5546 183.3346,-644.2019 178.609,-641.6273 182.5,-640.7 182.5,-640.7 182.5,-640.7 178.609,-641.6273 181.6654,-637.1981 174.7179,-642.5546 174.7179,-642.5546"/>
<ellipse fill="none" stroke="#000000" cx="171.6051" cy="-643.2964" rx="3.2" ry="3.2"/>
</g>
<!-- empleados&#45;&gt;personas -->
<g id="edge5" class="edge">
<title>empleados:w&#45;&gt;personas:e</title>
<path fill="none" stroke="#000000" d="M168.8174,-658.0036C117.3937,-616.3519 204.931,-311.7 131.5,-311.7"/>
<polygon fill="#000000" stroke="#000000" points="174.9333,-660.1028 181.3312,-666.105 178.7167,-661.4014 182.5,-662.7 182.5,-662.7 182.5,-662.7 178.7167,-661.4014 183.6688,-659.295 174.9333,-660.1028 174.9333,-660.1028"/>
<ellipse fill="none" stroke="#000000" cx="171.9066" cy="-659.0639" rx="3.2" ry="3.2"/>
</g>
<!-- leads -->
<g id="node8" class="node">
<title>leads</title>
<g id="a_node8"><a xlink:href="../../tables/leads.html" xlink:title="leads" target="_top">
<polygon fill="#ffffff" stroke="transparent" points="254,-394.2 254,-455.2 325,-455.2 325,-394.2 254,-394.2"/>
<polygon fill="#f5f5f5" stroke="transparent" points="254.5,-431.7 254.5,-454.7 325.5,-454.7 325.5,-431.7 254.5,-431.7"/>
<polygon fill="none" stroke="#000000" points="254.5,-431.7 254.5,-454.7 325.5,-454.7 325.5,-431.7 254.5,-431.7"/>
<text text-anchor="start" x="259.5" y="-440.8" font-family="Helvetica,sans-Serif" font-weight="bold" font-size="11.00" fill="#000000">leads</text>
<text text-anchor="start" x="290.5437" y="-439.8" font-family="Helvetica,sans-Serif" font-size="11.00" fill="#000000">[table]</text>
<polygon fill="none" stroke="#000000" points="254.5,-412.7 254.5,-431.7 325.5,-431.7 325.5,-412.7 254.5,-412.7"/>
<text text-anchor="start" x="257.5" y="-418.8" font-family="Helvetica,sans-Serif" font-size="11.00" fill="#000000">...</text>
<polygon fill="#ffffff" stroke="transparent" points="254.5,-393.7 254.5,-412.7 275.5,-412.7 275.5,-393.7 254.5,-393.7"/>
<polygon fill="none" stroke="#000000" points="254.5,-393.7 254.5,-412.7 275.5,-412.7 275.5,-393.7 254.5,-393.7"/>
<text text-anchor="start" x="257.2027" y="-399.8" font-family="Helvetica,sans-Serif" font-size="11.00" fill="#000000">&lt; 4</text>
<polygon fill="#ffffff" stroke="transparent" points="275.5,-393.7 275.5,-412.7 313.5,-412.7 313.5,-393.7 275.5,-393.7"/>
<polygon fill="none" stroke="#000000" points="275.5,-393.7 275.5,-412.7 313.5,-412.7 313.5,-393.7 275.5,-393.7"/>
<text text-anchor="start" x="278.3053" y="-399.8" font-family="Helvetica,sans-Serif" font-size="11.00" fill="#000000">0 rows</text>
<polygon fill="#ffffff" stroke="transparent" points="313.5,-393.7 313.5,-412.7 325.5,-412.7 325.5,-393.7 313.5,-393.7"/>
<polygon fill="none" stroke="#000000" points="313.5,-393.7 313.5,-412.7 325.5,-412.7 325.5,-393.7 313.5,-393.7"/>
<text text-anchor="start" x="316.4431" y="-399.8" font-family="Helvetica,sans-Serif" font-size="11.00" fill="#000000"> &#160;</text>
</a>
</g>
</g>
<!-- leads&#45;&gt;usuarios -->
<g id="edge8" class="edge">
<title>leads:w&#45;&gt;usuarios:e</title>
<path fill="none" stroke="#000000" d="M239.9958,-422.1903C208.5306,-424.5442 192.7299,-435.8269 172,-465.7 133.1455,-521.6918 199.6524,-769.7 131.5,-769.7"/>
<polygon fill="#000000" stroke="#000000" points="246.5046,-421.9703 254.6217,-425.2979 250.5023,-421.8352 254.5,-421.7 254.5,-421.7 254.5,-421.7 250.5023,-421.8352 254.3783,-418.1021 246.5046,-421.9703 246.5046,-421.9703"/>
<ellipse fill="none" stroke="#000000" cx="243.3064" cy="-422.0785" rx="3.2" ry="3.2"/>
</g>
<!-- leads&#45;&gt;personas -->
<g id="edge7" class="edge">
<title>leads:w&#45;&gt;personas:e</title>
<path fill="none" stroke="#000000" d="M239.9716,-421.007C210.1273,-417.8836 198.1691,-404.1898 172,-379.7 146.316,-355.6642 166.6765,-311.7 131.5,-311.7"/>
<polygon fill="#000000" stroke="#000000" points="246.5091,-421.3188 254.3285,-425.2959 250.5045,-421.5094 254.5,-421.7 254.5,-421.7 254.5,-421.7 250.5045,-421.5094 254.6715,-418.1041 246.5091,-421.3188 246.5091,-421.3188"/>
<ellipse fill="none" stroke="#000000" cx="243.3127" cy="-421.1663" rx="3.2" ry="3.2"/>
</g>
<!-- oportunidades -->
<g id="node9" class="node">
<title>oportunidades</title>
<g id="a_node9"><a xlink:href="../../tables/oportunidades.html" xlink:title="oportunidades" target="_top">
<polygon fill="#ffffff" stroke="transparent" points="587,-571.2 587,-632.2 699,-632.2 699,-571.2 587,-571.2"/>
<polygon fill="#f5f5f5" stroke="transparent" points="587,-608.7 587,-631.7 699,-631.7 699,-608.7 587,-608.7"/>
<polygon fill="none" stroke="#000000" points="587,-608.7 587,-631.7 699,-631.7 699,-608.7 587,-608.7"/>
<text text-anchor="start" x="591.6531" y="-617.8" font-family="Helvetica,sans-Serif" font-weight="bold" font-size="11.00" fill="#000000">oportunidades</text>
<text text-anchor="start" x="664.5219" y="-616.8" font-family="Helvetica,sans-Serif" font-size="11.00" fill="#000000">[table]</text>
<polygon fill="none" stroke="#000000" points="587,-589.7 587,-608.7 699,-608.7 699,-589.7 587,-589.7"/>
<text text-anchor="start" x="590" y="-595.8" font-family="Helvetica,sans-Serif" font-size="11.00" fill="#000000">...</text>
<polygon fill="#ffffff" stroke="transparent" points="587,-570.7 587,-589.7 627,-589.7 627,-570.7 587,-570.7"/>
<polygon fill="none" stroke="#000000" points="587,-570.7 587,-589.7 627,-589.7 627,-570.7 587,-570.7"/>
<text text-anchor="start" x="590" y="-576.8" font-family="Helvetica,sans-Serif" font-size="11.00" fill="#000000">&lt; 4</text>
<polygon fill="#ffffff" stroke="transparent" points="627,-570.7 627,-589.7 668,-589.7 668,-570.7 627,-570.7"/>
<polygon fill="none" stroke="#000000" points="627,-570.7 627,-589.7 668,-589.7 668,-570.7 627,-570.7"/>
<text text-anchor="start" x="638.1105" y="-576.8" font-family="Helvetica,sans-Serif" font-size="11.00" fill="#000000">1 row</text>
<polygon fill="#ffffff" stroke="transparent" points="668,-570.7 668,-589.7 699,-589.7 699,-570.7 668,-570.7"/>
<polygon fill="none" stroke="#000000" points="668,-570.7 668,-589.7 699,-589.7 699,-570.7 668,-570.7"/>
<text text-anchor="start" x="680.4053" y="-576.8" font-family="Helvetica,sans-Serif" font-size="11.00" fill="#000000">1 &gt;</text>
</a>
</g>
</g>
<!-- oportunidades&#45;&gt;usuarios -->
<g id="edge10" class="edge">
<title>oportunidades:w&#45;&gt;usuarios:e</title>
<path fill="none" stroke="#000000" d="M572.5606,-599.5002C466.8105,-611.8269 515.2861,-763.1322 407,-813.7 359.6829,-835.7963 219.8231,-834.6789 172,-813.7 147.6604,-803.0228 158.0786,-769.7 131.5,-769.7"/>
<polygon fill="#000000" stroke="#000000" points="579.0123,-599.1427 587.1992,-602.2945 583.0061,-598.9214 587,-598.7 587,-598.7 587,-598.7 583.0061,-598.9214 586.8008,-595.1055 579.0123,-599.1427 579.0123,-599.1427"/>
<ellipse fill="none" stroke="#000000" cx="575.8172" cy="-599.3198" rx="3.2" ry="3.2"/>
</g>
<!-- oportunidades&#45;&gt;contactos -->
<g id="edge9" class="edge">
<title>oportunidades:w&#45;&gt;contactos:e</title>
<path fill="none" stroke="#000000" d="M572.6529,-596.8567C498.9731,-575.1845 636.593,-369.7 538,-369.7"/>
<polygon fill="#000000" stroke="#000000" points="579.0652,-597.6805 586.5412,-602.2706 583.0326,-598.1902 587,-598.7 587,-598.7 587,-598.7 583.0326,-598.1902 587.4588,-595.1294 579.0652,-597.6805 579.0652,-597.6805"/>
<ellipse fill="none" stroke="#000000" cx="575.8913" cy="-597.2727" rx="3.2" ry="3.2"/>
</g>
<!-- profesores -->
<g id="node10" class="node">
<title>profesores</title>
<g id="a_node10"><a xlink:href="../../tables/profesores.html" xlink:title="profesores" target="_top">
<polygon fill="#ffffff" stroke="transparent" points="242.5,-120.2 242.5,-181.2 336.5,-181.2 336.5,-120.2 242.5,-120.2"/>
<polygon fill="#f5f5f5" stroke="transparent" points="242.5,-157.7 242.5,-180.7 336.5,-180.7 336.5,-157.7 242.5,-157.7"/>
<polygon fill="none" stroke="#000000" points="242.5,-157.7 242.5,-180.7 336.5,-180.7 336.5,-157.7 242.5,-157.7"/>
<text text-anchor="start" x="247.0224" y="-166.8" font-family="Helvetica,sans-Serif" font-weight="bold" font-size="11.00" fill="#000000">profesores</text>
<text text-anchor="start" x="302.0219" y="-165.8" font-family="Helvetica,sans-Serif" font-size="11.00" fill="#000000">[table]</text>
<polygon fill="none" stroke="#000000" points="242.5,-138.7 242.5,-157.7 336.5,-157.7 336.5,-138.7 242.5,-138.7"/>
<text text-anchor="start" x="245.5" y="-144.8" font-family="Helvetica,sans-Serif" font-size="11.00" fill="#000000">...</text>
<polygon fill="#ffffff" stroke="transparent" points="242.5,-119.7 242.5,-138.7 270.5,-138.7 270.5,-119.7 242.5,-119.7"/>
<polygon fill="none" stroke="#000000" points="242.5,-119.7 242.5,-138.7 270.5,-138.7 270.5,-119.7 242.5,-119.7"/>
<text text-anchor="start" x="245.5" y="-125.8" font-family="Helvetica,sans-Serif" font-size="11.00" fill="#000000">&lt; 1</text>
<polygon fill="#ffffff" stroke="transparent" points="270.5,-119.7 270.5,-138.7 311.5,-138.7 311.5,-119.7 270.5,-119.7"/>
<polygon fill="none" stroke="#000000" points="270.5,-119.7 270.5,-138.7 311.5,-138.7 311.5,-119.7 270.5,-119.7"/>
<text text-anchor="start" x="276.1105" y="-125.8" font-family="Helvetica,sans-Serif" font-size="11.00" fill="#000000">0 rows</text>
<polygon fill="#ffffff" stroke="transparent" points="311.5,-119.7 311.5,-138.7 336.5,-138.7 336.5,-119.7 311.5,-119.7"/>
<polygon fill="none" stroke="#000000" points="311.5,-119.7 311.5,-138.7 336.5,-138.7 336.5,-119.7 311.5,-119.7"/>
<text text-anchor="start" x="317.9053" y="-125.8" font-family="Helvetica,sans-Serif" font-size="11.00" fill="#000000">1 &gt;</text>
</a>
</g>
</g>
<!-- profesores&#45;&gt;personas -->
<g id="edge12" class="edge">
<title>profesores:w&#45;&gt;personas:e</title>
<path fill="none" stroke="#000000" d="M228.0159,-148.6386C202.2295,-152.3359 191.6005,-166.9174 172,-191.7 137.0822,-235.8496 187.7889,-311.7 131.5,-311.7"/>
<polygon fill="#000000" stroke="#000000" points="234.5167,-148.2174 242.7328,-151.2925 238.5084,-147.9587 242.5,-147.7 242.5,-147.7 242.5,-147.7 238.5084,-147.9587 242.2672,-144.1075 234.5167,-148.2174 234.5167,-148.2174"/>
<ellipse fill="none" stroke="#000000" cx="231.3234" cy="-148.4244" rx="3.2" ry="3.2"/>
</g>
<!-- tareas -->
<g id="node11" class="node">
<title>tareas</title>
<g id="a_node11"><a xlink:href="../../tables/tareas.html" xlink:title="tareas" target="_top">
<polygon fill="#ffffff" stroke="transparent" points="253,-742.2 253,-803.2 326,-803.2 326,-742.2 253,-742.2"/>
<polygon fill="#f5f5f5" stroke="transparent" points="253.5,-779.7 253.5,-802.7 326.5,-802.7 326.5,-779.7 253.5,-779.7"/>
<polygon fill="none" stroke="#000000" points="253.5,-779.7 253.5,-802.7 326.5,-802.7 326.5,-779.7 253.5,-779.7"/>
<text text-anchor="start" x="258.2183" y="-788.8" font-family="Helvetica,sans-Serif" font-weight="bold" font-size="11.00" fill="#000000">tareas</text>
<text text-anchor="start" x="292.0219" y="-787.8" font-family="Helvetica,sans-Serif" font-size="11.00" fill="#000000">[table]</text>
<polygon fill="none" stroke="#000000" points="253.5,-760.7 253.5,-779.7 326.5,-779.7 326.5,-760.7 253.5,-760.7"/>
<text text-anchor="start" x="256.5" y="-766.8" font-family="Helvetica,sans-Serif" font-size="11.00" fill="#000000">...</text>
<polygon fill="#ffffff" stroke="transparent" points="253.5,-741.7 253.5,-760.7 275.5,-760.7 275.5,-741.7 253.5,-741.7"/>
<polygon fill="none" stroke="#000000" points="253.5,-741.7 253.5,-760.7 275.5,-760.7 275.5,-741.7 253.5,-741.7"/>
<text text-anchor="start" x="256.5" y="-747.8" font-family="Helvetica,sans-Serif" font-size="11.00" fill="#000000">&lt; 1</text>
<polygon fill="#ffffff" stroke="transparent" points="275.5,-741.7 275.5,-760.7 313.5,-760.7 313.5,-741.7 275.5,-741.7"/>
<polygon fill="none" stroke="#000000" points="275.5,-741.7 275.5,-760.7 313.5,-760.7 313.5,-741.7 275.5,-741.7"/>
<text text-anchor="start" x="278.3053" y="-747.8" font-family="Helvetica,sans-Serif" font-size="11.00" fill="#000000">0 rows</text>
<polygon fill="#ffffff" stroke="transparent" points="313.5,-741.7 313.5,-760.7 326.5,-760.7 326.5,-741.7 313.5,-741.7"/>
<polygon fill="none" stroke="#000000" points="313.5,-741.7 313.5,-760.7 326.5,-760.7 326.5,-741.7 313.5,-741.7"/>
<text text-anchor="start" x="317.3862" y="-747.8" font-family="Helvetica,sans-Serif" font-size="11.00" fill="#000000"> &#160;</text>
</a>
</g>
</g>
<!-- tareas&#45;&gt;usuarios -->
<g id="edge13" class="edge">
<title>tareas:w&#45;&gt;usuarios:e</title>
<path fill="none" stroke="#000000" d="M238.9784,-769.7C196.3107,-769.7 180.533,-769.7 131.5,-769.7"/>
<polygon fill="#000000" stroke="#000000" points="245.5,-769.7001 253.5,-773.3 249.5,-769.7 253.5,-769.7 253.5,-769.7 253.5,-769.7 249.5,-769.7 253.5,-766.1 245.5,-769.7001 245.5,-769.7001"/>
<ellipse fill="none" stroke="#000000" cx="242.3" cy="-769.7001" rx="3.2" ry="3.2"/>
</g>
<!-- telefonos -->
<g id="node12" class="node">
<title>telefonos</title>
<g id="a_node12"><a xlink:href="../../tables/telefonos.html" xlink:title="telefonos" target="_top">
<polygon fill="#ffffff" stroke="transparent" points="246,-38.2 246,-99.2 333,-99.2 333,-38.2 246,-38.2"/>
<polygon fill="#f5f5f5" stroke="transparent" points="246.5,-75.7 246.5,-98.7 333.5,-98.7 333.5,-75.7 246.5,-75.7"/>
<polygon fill="none" stroke="#000000" points="246.5,-75.7 246.5,-98.7 333.5,-98.7 333.5,-75.7 246.5,-75.7"/>
<text text-anchor="start" x="251.1854" y="-84.8" font-family="Helvetica,sans-Serif" font-weight="bold" font-size="11.00" fill="#000000">telefonos</text>
<text text-anchor="start" x="299.0219" y="-83.8" font-family="Helvetica,sans-Serif" font-size="11.00" fill="#000000">[table]</text>
<polygon fill="none" stroke="#000000" points="246.5,-56.7 246.5,-75.7 333.5,-75.7 333.5,-56.7 246.5,-56.7"/>
<text text-anchor="start" x="249.5" y="-62.8" font-family="Helvetica,sans-Serif" font-size="11.00" fill="#000000">...</text>
<polygon fill="#ffffff" stroke="transparent" points="246.5,-37.7 246.5,-56.7 275.5,-56.7 275.5,-37.7 246.5,-37.7"/>
<polygon fill="none" stroke="#000000" points="246.5,-37.7 246.5,-56.7 275.5,-56.7 275.5,-37.7 246.5,-37.7"/>
<text text-anchor="start" x="249.5" y="-43.8" font-family="Helvetica,sans-Serif" font-size="11.00" fill="#000000">&lt; 2</text>
<polygon fill="#ffffff" stroke="transparent" points="275.5,-37.7 275.5,-56.7 317.5,-56.7 317.5,-37.7 275.5,-37.7"/>
<polygon fill="none" stroke="#000000" points="275.5,-37.7 275.5,-56.7 317.5,-56.7 317.5,-37.7 275.5,-37.7"/>
<text text-anchor="start" x="282.1105" y="-43.8" font-family="Helvetica,sans-Serif" font-size="11.00" fill="#000000">0 rows</text>
<polygon fill="#ffffff" stroke="transparent" points="317.5,-37.7 317.5,-56.7 333.5,-56.7 333.5,-37.7 317.5,-37.7"/>
<polygon fill="none" stroke="#000000" points="317.5,-37.7 317.5,-56.7 333.5,-56.7 333.5,-37.7 317.5,-37.7"/>
<text text-anchor="start" x="324.3862" y="-43.8" font-family="Helvetica,sans-Serif" font-size="11.00" fill="#000000"> &#160;</text>
</a>
</g>
</g>
<!-- telefonos&#45;&gt;personas -->
<g id="edge14" class="edge">
<title>telefonos:w&#45;&gt;personas:e</title>
<path fill="none" stroke="#000000" d="M232.0266,-66.4248C204.1194,-69.5083 191.2237,-82.6351 172,-109.7 118.9774,-184.3502 223.0645,-311.7 131.5,-311.7"/>
<polygon fill="#000000" stroke="#000000" points="238.51,-66.1002 246.6801,-69.2955 242.505,-65.9001 246.5,-65.7 246.5,-65.7 246.5,-65.7 242.505,-65.9001 246.3199,-62.1045 238.51,-66.1002 238.51,-66.1002"/>
<ellipse fill="none" stroke="#000000" cx="235.314" cy="-66.2602" rx="3.2" ry="3.2"/>
</g>
</g>
</svg>
