<?xml version="1.0" encoding="UTF-8" standalone="no"?>
<!DOCTYPE svg PUBLIC "-//W3C//DTD SVG 1.1//EN"
 "http://www.w3.org/Graphics/SVG/1.1/DTD/svg11.dtd">
<!-- Generated by graphviz version 2.40.1 (20161225.0304)
 -->
<!-- Title: twoDegreesRelationshipsDiagram Pages: 1 -->
<svg width="748pt" height="629pt"
 viewBox="0.00 0.00 748.00 628.70" xmlns="http://www.w3.org/2000/svg" xmlns:xlink="http://www.w3.org/1999/xlink">
<g id="graph0" class="graph" transform="scale(1 1) rotate(0) translate(4 624.7)">
<title>twoDegreesRelationshipsDiagram</title>
<polygon fill="#ffffff" stroke="transparent" points="-4,4 -4,-624.7 744,-624.7 744,4 -4,4"/>
<text text-anchor="middle" x="72.4936" y="-7.3" font-family="Helvetica,sans-Serif" font-size="11.00" fill="#000000">Generated by SchemaSpy</text>
<!-- casos -->
<g id="node1" class="node">
<title>casos</title>
<g id="a_node1"><a xlink:href="../../tables/casos.html" xlink:title="casos" target="_top">
<polygon fill="#ffffff" stroke="transparent" points="640.5,-156.2 640.5,-217.2 711.5,-217.2 711.5,-156.2 640.5,-156.2"/>
<polygon fill="#f5f5f5" stroke="transparent" points="641,-193.7 641,-216.7 712,-216.7 712,-193.7 641,-193.7"/>
<polygon fill="none" stroke="#000000" points="641,-193.7 641,-216.7 712,-216.7 712,-193.7 641,-193.7"/>
<text text-anchor="start" x="645.6351" y="-202.8" font-family="Helvetica,sans-Serif" font-weight="bold" font-size="11.00" fill="#000000">casos</text>
<text text-anchor="start" x="677.5219" y="-201.8" font-family="Helvetica,sans-Serif" font-size="11.00" fill="#000000">[table]</text>
<polygon fill="none" stroke="#000000" points="641,-174.7 641,-193.7 712,-193.7 712,-174.7 641,-174.7"/>
<text text-anchor="start" x="644" y="-180.8" font-family="Helvetica,sans-Serif" font-size="11.00" fill="#000000">...</text>
<polygon fill="#ffffff" stroke="transparent" points="641,-155.7 641,-174.7 662,-174.7 662,-155.7 641,-155.7"/>
<polygon fill="none" stroke="#000000" points="641,-155.7 641,-174.7 662,-174.7 662,-155.7 641,-155.7"/>
<text text-anchor="start" x="643.7026" y="-161.8" font-family="Helvetica,sans-Serif" font-size="11.00" fill="#000000">&lt; 3</text>
<polygon fill="#ffffff" stroke="transparent" points="662,-155.7 662,-174.7 700,-174.7 700,-155.7 662,-155.7"/>
<polygon fill="none" stroke="#000000" points="662,-155.7 662,-174.7 700,-174.7 700,-155.7 662,-155.7"/>
<text text-anchor="start" x="664.8053" y="-161.8" font-family="Helvetica,sans-Serif" font-size="11.00" fill="#000000">0 rows</text>
<polygon fill="#ffffff" stroke="transparent" points="700,-155.7 700,-174.7 712,-174.7 712,-155.7 700,-155.7"/>
<polygon fill="none" stroke="#000000" points="700,-155.7 700,-174.7 712,-174.7 712,-155.7 700,-155.7"/>
<text text-anchor="start" x="702.9431" y="-161.8" font-family="Helvetica,sans-Serif" font-size="11.00" fill="#000000"> &#160;</text>
</a>
</g>
</g>
<!-- contactos -->
<g id="node2" class="node">
<title>contactos</title>
<g id="a_node2"><a xlink:href="../../tables/contactos.html" xlink:title="contactos" target="_top">
<polygon fill="#ffffff" stroke="transparent" points="416.5,-126.2 416.5,-187.2 506.5,-187.2 506.5,-126.2 416.5,-126.2"/>
<polygon fill="#f5f5f5" stroke="transparent" points="416.5,-163.7 416.5,-186.7 506.5,-186.7 506.5,-163.7 416.5,-163.7"/>
<polygon fill="none" stroke="#000000" points="416.5,-163.7 416.5,-186.7 506.5,-186.7 506.5,-163.7 416.5,-163.7"/>
<text text-anchor="start" x="421.4633" y="-172.8" font-family="Helvetica,sans-Serif" font-weight="bold" font-size="11.00" fill="#000000">contactos</text>
<text text-anchor="start" x="472.0219" y="-171.8" font-family="Helvetica,sans-Serif" font-size="11.00" fill="#000000">[table]</text>
<polygon fill="none" stroke="#000000" points="416.5,-144.7 416.5,-163.7 506.5,-163.7 506.5,-144.7 416.5,-144.7"/>
<text text-anchor="start" x="419.5" y="-150.8" font-family="Helvetica,sans-Serif" font-size="11.00" fill="#000000">...</text>
<polygon fill="#ffffff" stroke="transparent" points="416.5,-125.7 416.5,-144.7 442.5,-144.7 442.5,-125.7 416.5,-125.7"/>
<polygon fill="none" stroke="#000000" points="416.5,-125.7 416.5,-144.7 442.5,-144.7 442.5,-125.7 416.5,-125.7"/>
<text text-anchor="start" x="419.5" y="-131.8" font-family="Helvetica,sans-Serif" font-size="11.00" fill="#000000">&lt; 2</text>
<polygon fill="#ffffff" stroke="transparent" points="442.5,-125.7 442.5,-144.7 482.5,-144.7 482.5,-125.7 442.5,-125.7"/>
<polygon fill="none" stroke="#000000" points="442.5,-125.7 442.5,-144.7 482.5,-144.7 482.5,-125.7 442.5,-125.7"/>
<text text-anchor="start" x="447.1105" y="-131.8" font-family="Helvetica,sans-Serif" font-size="11.00" fill="#000000">5 rows</text>
<polygon fill="#ffffff" stroke="transparent" points="482.5,-125.7 482.5,-144.7 506.5,-144.7 506.5,-125.7 482.5,-125.7"/>
<polygon fill="none" stroke="#000000" points="482.5,-125.7 482.5,-144.7 506.5,-144.7 506.5,-125.7 482.5,-125.7"/>
<text text-anchor="start" x="487.9053" y="-131.8" font-family="Helvetica,sans-Serif" font-size="11.00" fill="#000000">5 &gt;</text>
</a>
</g>
</g>
<!-- casos&#45;&gt;contactos -->
<g id="edge1" class="edge">
<title>casos:w&#45;&gt;contactos:e</title>
<path fill="none" stroke="#000000" d="M626.5523,-183.1007C577.3892,-178.8725 562.603,-153.7 506.5,-153.7"/>
<polygon fill="#000000" stroke="#000000" points="633.0069,-183.3684 640.8508,-187.2969 637.0034,-183.5342 641,-183.7 641,-183.7 641,-183.7 637.0034,-183.5342 641.1492,-180.1031 633.0069,-183.3684 633.0069,-183.3684"/>
<ellipse fill="none" stroke="#000000" cx="629.8096" cy="-183.2358" rx="3.2" ry="3.2"/>
</g>
<!-- leads -->
<g id="node3" class="node">
<title>leads</title>
<g id="a_node3"><a xlink:href="../../tables/leads.html" xlink:title="leads" target="_top">
<polygon fill="#ffffff" stroke="transparent" points="421.5,-236.2 421.5,-297.2 501.5,-297.2 501.5,-236.2 421.5,-236.2"/>
<polygon fill="#f5f5f5" stroke="transparent" points="421.5,-273.7 421.5,-296.7 501.5,-296.7 501.5,-273.7 421.5,-273.7"/>
<polygon fill="none" stroke="#000000" points="421.5,-273.7 421.5,-296.7 501.5,-296.7 501.5,-273.7 421.5,-273.7"/>
<text text-anchor="start" x="426.5" y="-282.8" font-family="Helvetica,sans-Serif" font-weight="bold" font-size="11.00" fill="#000000">leads</text>
<text text-anchor="start" x="466.5437" y="-281.8" font-family="Helvetica,sans-Serif" font-size="11.00" fill="#000000">[table]</text>
<polygon fill="none" stroke="#000000" points="421.5,-254.7 421.5,-273.7 501.5,-273.7 501.5,-254.7 421.5,-254.7"/>
<text text-anchor="start" x="424.5" y="-260.8" font-family="Helvetica,sans-Serif" font-size="11.00" fill="#000000">...</text>
<polygon fill="#ffffff" stroke="transparent" points="421.5,-235.7 421.5,-254.7 442.5,-254.7 442.5,-235.7 421.5,-235.7"/>
<polygon fill="none" stroke="#000000" points="421.5,-235.7 421.5,-254.7 442.5,-254.7 442.5,-235.7 421.5,-235.7"/>
<text text-anchor="start" x="424.2027" y="-241.8" font-family="Helvetica,sans-Serif" font-size="11.00" fill="#000000">&lt; 5</text>
<polygon fill="#ffffff" stroke="transparent" points="442.5,-235.7 442.5,-254.7 480.5,-254.7 480.5,-235.7 442.5,-235.7"/>
<polygon fill="none" stroke="#000000" points="442.5,-235.7 442.5,-254.7 480.5,-254.7 480.5,-235.7 442.5,-235.7"/>
<text text-anchor="start" x="445.3053" y="-241.8" font-family="Helvetica,sans-Serif" font-size="11.00" fill="#000000">4 rows</text>
<polygon fill="#ffffff" stroke="transparent" points="480.5,-235.7 480.5,-254.7 501.5,-254.7 501.5,-235.7 480.5,-235.7"/>
<polygon fill="none" stroke="#000000" points="480.5,-235.7 480.5,-254.7 501.5,-254.7 501.5,-235.7 480.5,-235.7"/>
<text text-anchor="start" x="483.2027" y="-241.8" font-family="Helvetica,sans-Serif" font-size="11.00" fill="#000000">3 &gt;</text>
</a>
</g>
</g>
<!-- casos&#45;&gt;leads -->
<g id="edge2" class="edge">
<title>casos:w&#45;&gt;leads:e</title>
<path fill="none" stroke="#000000" d="M626.487,-185.5758C607.2751,-191.2056 602.0742,-208.3891 579,-221.7 545.0644,-241.2766 540.6773,-263.7 501.5,-263.7"/>
<polygon fill="#000000" stroke="#000000" points="633.066,-184.7255 641.4615,-187.2703 637.033,-184.2128 641,-183.7 641,-183.7 641,-183.7 637.033,-184.2128 640.5385,-180.1297 633.066,-184.7255 633.066,-184.7255"/>
<ellipse fill="none" stroke="#000000" cx="629.8924" cy="-185.1357" rx="3.2" ry="3.2"/>
</g>
<!-- usuarios -->
<g id="node4" class="node">
<title>usuarios</title>
<g id="a_node4"><a xlink:href="../../tables/usuarios.html" xlink:title="usuarios" target="_top">
<polygon fill="#ffffff" stroke="transparent" points="180,-257.2 180,-362.2 303,-362.2 303,-257.2 180,-257.2"/>
<polygon fill="#f5f5f5" stroke="transparent" points="180.5,-338.7 180.5,-361.7 303.5,-361.7 303.5,-338.7 180.5,-338.7"/>
<polygon fill="none" stroke="#000000" points="180.5,-338.7 180.5,-361.7 303.5,-361.7 303.5,-338.7 180.5,-338.7"/>
<text text-anchor="start" x="185.5" y="-347.8" font-family="Helvetica,sans-Serif" font-weight="bold" font-size="11.00" fill="#000000">usuarios</text>
<text text-anchor="start" x="268.5437" y="-346.8" font-family="Helvetica,sans-Serif" font-size="11.00" fill="#000000">[table]</text>
<polygon fill="none" stroke="#000000" points="180.5,-316.7 180.5,-338.7 303.5,-338.7 303.5,-316.7 180.5,-316.7"/>
<image xlink:href="../../images/primaryKeys.png" width="11px" height="12px" preserveAspectRatio="xMinYMin meet" x="185.5" y="-333.7"/>
<text text-anchor="start" x="200.5" y="-323.8" font-family="Helvetica,sans-Serif" font-size="11.00" fill="#000000">usuario_id</text>
<polygon fill="#ffffff" stroke="transparent" points="180.5,-294.7 180.5,-316.7 303.5,-316.7 303.5,-294.7 180.5,-294.7"/>
<polygon fill="none" stroke="#000000" points="180.5,-294.7 180.5,-316.7 303.5,-316.7 303.5,-294.7 180.5,-294.7"/>
<text text-anchor="start" x="200.5" y="-301.8" font-family="Helvetica,sans-Serif" font-size="11.00" fill="#000000">nom_usuario</text>
<polygon fill="none" stroke="#000000" points="180.5,-275.7 180.5,-294.7 303.5,-294.7 303.5,-275.7 180.5,-275.7"/>
<text text-anchor="start" x="183.5" y="-281.8" font-family="Helvetica,sans-Serif" font-size="11.00" fill="#000000">...</text>
<polygon fill="#ffffff" stroke="transparent" points="180.5,-256.7 180.5,-275.7 221.5,-275.7 221.5,-256.7 180.5,-256.7"/>
<polygon fill="none" stroke="#000000" points="180.5,-256.7 180.5,-275.7 221.5,-275.7 221.5,-256.7 180.5,-256.7"/>
<text text-anchor="start" x="183.5" y="-262.8" font-family="Helvetica,sans-Serif" font-size="11.00" fill="#000000"> &#160;</text>
<polygon fill="#ffffff" stroke="transparent" points="221.5,-256.7 221.5,-275.7 267.5,-275.7 267.5,-256.7 221.5,-256.7"/>
<polygon fill="none" stroke="#000000" points="221.5,-256.7 221.5,-275.7 267.5,-275.7 267.5,-256.7 221.5,-256.7"/>
<text text-anchor="start" x="237.6105" y="-262.8" font-family="Helvetica,sans-Serif" font-size="11.00" fill="#000000">1 row</text>
<polygon fill="#ffffff" stroke="transparent" points="267.5,-256.7 267.5,-275.7 303.5,-275.7 303.5,-256.7 267.5,-256.7"/>
<polygon fill="none" stroke="#000000" points="267.5,-256.7 267.5,-275.7 303.5,-275.7 303.5,-256.7 267.5,-256.7"/>
<text text-anchor="start" x="284.9053" y="-262.8" font-family="Helvetica,sans-Serif" font-size="11.00" fill="#000000">6 &gt;</text>
</a>
</g>
</g>
<!-- casos&#45;&gt;usuarios -->
<g id="edge3" class="edge">
<title>casos:w&#45;&gt;usuarios:e</title>
<path fill="none" stroke="#000000" d="M626.1797,-184.7259C609.4448,-187.2596 601.1854,-193.8841 579,-197.7 527.1695,-206.615 385.6849,-193.6338 344,-225.7 305.3393,-255.4398 352.2761,-327.7 303.5,-327.7"/>
<polygon fill="#000000" stroke="#000000" points="633.0191,-184.2525 641.2486,-187.2914 637.0095,-183.9763 641,-183.7 641,-183.7 641,-183.7 637.0095,-183.9763 640.7514,-180.1086 633.0191,-184.2525 633.0191,-184.2525"/>
<ellipse fill="none" stroke="#000000" cx="629.8267" cy="-184.4735" rx="3.2" ry="3.2"/>
</g>
<!-- organizaciones -->
<g id="node5" class="node">
<title>organizaciones</title>
<g id="a_node5"><a xlink:href="../../tables/organizaciones.html" xlink:title="organizaciones" target="_top">
<polygon fill="#ffffff" stroke="transparent" points="183.5,-120.2 183.5,-181.2 299.5,-181.2 299.5,-120.2 183.5,-120.2"/>
<polygon fill="#f5f5f5" stroke="transparent" points="183.5,-157.7 183.5,-180.7 299.5,-180.7 299.5,-157.7 183.5,-157.7"/>
<polygon fill="none" stroke="#000000" points="183.5,-157.7 183.5,-180.7 299.5,-180.7 299.5,-157.7 183.5,-157.7"/>
<text text-anchor="start" x="188.0186" y="-166.8" font-family="Helvetica,sans-Serif" font-weight="bold" font-size="11.00" fill="#000000">organizaciones</text>
<text text-anchor="start" x="265.0219" y="-165.8" font-family="Helvetica,sans-Serif" font-size="11.00" fill="#000000">[table]</text>
<polygon fill="none" stroke="#000000" points="183.5,-138.7 183.5,-157.7 299.5,-157.7 299.5,-138.7 183.5,-138.7"/>
<text text-anchor="start" x="186.5" y="-144.8" font-family="Helvetica,sans-Serif" font-size="11.00" fill="#000000">...</text>
<polygon fill="#ffffff" stroke="transparent" points="183.5,-119.7 183.5,-138.7 222.5,-138.7 222.5,-119.7 183.5,-119.7"/>
<polygon fill="none" stroke="#000000" points="183.5,-119.7 183.5,-138.7 222.5,-138.7 222.5,-119.7 183.5,-119.7"/>
<text text-anchor="start" x="186.5" y="-125.8" font-family="Helvetica,sans-Serif" font-size="11.00" fill="#000000">&lt; 1</text>
<polygon fill="#ffffff" stroke="transparent" points="222.5,-119.7 222.5,-138.7 269.5,-138.7 269.5,-119.7 222.5,-119.7"/>
<polygon fill="none" stroke="#000000" points="222.5,-119.7 222.5,-138.7 269.5,-138.7 269.5,-119.7 222.5,-119.7"/>
<text text-anchor="start" x="234.1105" y="-125.8" font-family="Helvetica,sans-Serif" font-size="11.00" fill="#000000">0 rows</text>
<polygon fill="#ffffff" stroke="transparent" points="269.5,-119.7 269.5,-138.7 299.5,-138.7 299.5,-119.7 269.5,-119.7"/>
<polygon fill="none" stroke="#000000" points="269.5,-119.7 269.5,-138.7 299.5,-138.7 299.5,-119.7 269.5,-119.7"/>
<text text-anchor="start" x="280.9053" y="-125.8" font-family="Helvetica,sans-Serif" font-size="11.00" fill="#000000">1 &gt;</text>
</a>
</g>
</g>
<!-- contactos&#45;&gt;organizaciones -->
<g id="edge4" class="edge">
<title>contactos:w&#45;&gt;organizaciones:e</title>
<path fill="none" stroke="#000000" d="M402.03,-153.5333C361.4801,-152.5642 346.3818,-147.7 299.5,-147.7"/>
<polygon fill="#000000" stroke="#000000" points="408.5005,-153.6078 416.4585,-157.2998 412.5003,-153.6539 416.5,-153.7 416.5,-153.7 416.5,-153.7 412.5003,-153.6539 416.5415,-150.1002 408.5005,-153.6078 408.5005,-153.6078"/>
<ellipse fill="none" stroke="#000000" cx="405.3007" cy="-153.5709" rx="3.2" ry="3.2"/>
</g>
<!-- personas -->
<g id="node6" class="node">
<title>personas</title>
<g id="a_node6"><a xlink:href="../../tables/personas.html" xlink:title="personas" target="_top">
<polygon fill="#ffffff" stroke="transparent" points="8,-170.2 8,-253.2 131,-253.2 131,-170.2 8,-170.2"/>
<polygon fill="#f5f5f5" stroke="transparent" points="8.5,-229.7 8.5,-252.7 131.5,-252.7 131.5,-229.7 8.5,-229.7"/>
<polygon fill="none" stroke="#000000" points="8.5,-229.7 8.5,-252.7 131.5,-252.7 131.5,-229.7 8.5,-229.7"/>
<text text-anchor="start" x="13.5" y="-238.8" font-family="Helvetica,sans-Serif" font-weight="bold" font-size="11.00" fill="#000000">personas</text>
<text text-anchor="start" x="96.5437" y="-237.8" font-family="Helvetica,sans-Serif" font-size="11.00" fill="#000000">[table]</text>
<polygon fill="none" stroke="#000000" points="8.5,-207.7 8.5,-229.7 131.5,-229.7 131.5,-207.7 8.5,-207.7"/>
<image xlink:href="../../images/primaryKeys.png" width="11px" height="12px" preserveAspectRatio="xMinYMin meet" x="13.5" y="-224.7"/>
<text text-anchor="start" x="28.5" y="-214.8" font-family="Helvetica,sans-Serif" font-size="11.00" fill="#000000">persona_id</text>
<polygon fill="none" stroke="#000000" points="8.5,-188.7 8.5,-207.7 131.5,-207.7 131.5,-188.7 8.5,-188.7"/>
<text text-anchor="start" x="11.5" y="-194.8" font-family="Helvetica,sans-Serif" font-size="11.00" fill="#000000">...</text>
<polygon fill="#ffffff" stroke="transparent" points="8.5,-169.7 8.5,-188.7 46.5,-188.7 46.5,-169.7 8.5,-169.7"/>
<polygon fill="none" stroke="#000000" points="8.5,-169.7 8.5,-188.7 46.5,-188.7 46.5,-169.7 8.5,-169.7"/>
<text text-anchor="start" x="11.5" y="-175.8" font-family="Helvetica,sans-Serif" font-size="11.00" fill="#000000"> &#160;</text>
<polygon fill="#ffffff" stroke="transparent" points="46.5,-169.7 46.5,-188.7 97.5,-188.7 97.5,-169.7 46.5,-169.7"/>
<polygon fill="none" stroke="#000000" points="46.5,-169.7 46.5,-188.7 97.5,-188.7 97.5,-169.7 46.5,-169.7"/>
<text text-anchor="start" x="62.1105" y="-175.8" font-family="Helvetica,sans-Serif" font-size="11.00" fill="#000000">5 rows</text>
<polygon fill="#ffffff" stroke="transparent" points="97.5,-169.7 97.5,-188.7 131.5,-188.7 131.5,-169.7 97.5,-169.7"/>
<polygon fill="none" stroke="#000000" points="97.5,-169.7 97.5,-188.7 131.5,-188.7 131.5,-169.7 97.5,-169.7"/>
<text text-anchor="start" x="112.9053" y="-175.8" font-family="Helvetica,sans-Serif" font-size="11.00" fill="#000000">6 &gt;</text>
</a>
</g>
</g>
<!-- contactos&#45;&gt;personas -->
<g id="edge5" class="edge">
<title>contactos:w&#45;&gt;personas:e</title>
<path fill="none" stroke="#000000" d="M402.0512,-154.5145C364.6575,-158.9891 354.2228,-180.7779 311,-191.7 232.7833,-211.4648 212.1752,-218.7 131.5,-218.7"/>
<polygon fill="#000000" stroke="#000000" points="408.5127,-154.1503 416.7026,-157.2943 412.5063,-153.9251 416.5,-153.7 416.5,-153.7 416.5,-153.7 412.5063,-153.9251 416.2974,-150.1057 408.5127,-154.1503 408.5127,-154.1503"/>
<ellipse fill="none" stroke="#000000" cx="405.3178" cy="-154.3304" rx="3.2" ry="3.2"/>
</g>
<!-- leads&#45;&gt;usuarios -->
<g id="edge10" class="edge">
<title>leads:w&#45;&gt;usuarios:e</title>
<path fill="none" stroke="#000000" d="M407.3824,-267.1409C375.8253,-280.4344 329.1358,-327.7 303.5,-327.7"/>
<polygon fill="#000000" stroke="#000000" points="413.7275,-265.5944 422.3525,-267.1976 417.6138,-264.6472 421.5,-263.7 421.5,-263.7 421.5,-263.7 417.6138,-264.6472 420.6475,-260.2024 413.7275,-265.5944 413.7275,-265.5944"/>
<ellipse fill="none" stroke="#000000" cx="410.6185" cy="-266.3522" rx="3.2" ry="3.2"/>
</g>
<!-- leads&#45;&gt;personas -->
<g id="edge9" class="edge">
<title>leads:w&#45;&gt;personas:e</title>
<path fill="none" stroke="#000000" d="M406.8749,-261.5899C348.4157,-252.6932 135.0426,-218.7 131.5,-218.7"/>
<polygon fill="#000000" stroke="#000000" points="413.582,-262.5576 420.9859,-267.2631 417.541,-263.1288 421.5,-263.7 421.5,-263.7 421.5,-263.7 417.541,-263.1288 422.0141,-260.1369 413.582,-262.5576 413.582,-262.5576"/>
<ellipse fill="none" stroke="#000000" cx="410.4148" cy="-262.1006" rx="3.2" ry="3.2"/>
</g>
<!-- organizaciones&#45;&gt;personas -->
<g id="edge16" class="edge">
<title>organizaciones:w&#45;&gt;personas:e</title>
<path fill="none" stroke="#000000" d="M169.7112,-152.1414C150.861,-167.685 164.6549,-218.7 131.5,-218.7"/>
<polygon fill="#000000" stroke="#000000" points="175.8853,-150.1527 184.6037,-151.1266 179.6926,-148.9264 183.5,-147.7 183.5,-147.7 183.5,-147.7 179.6926,-148.9264 182.3963,-144.2734 175.8853,-150.1527 175.8853,-150.1527"/>
<ellipse fill="none" stroke="#000000" cx="172.8394" cy="-151.1338" rx="3.2" ry="3.2"/>
</g>
<!-- direcciones -->
<g id="node7" class="node">
<title>direcciones</title>
<g id="a_node7"><a xlink:href="../../tables/direcciones.html" xlink:title="direcciones" target="_top">
<polygon fill="#ffffff" stroke="transparent" points="192.5,-38.2 192.5,-99.2 290.5,-99.2 290.5,-38.2 192.5,-38.2"/>
<polygon fill="#f5f5f5" stroke="transparent" points="192.5,-75.7 192.5,-98.7 290.5,-98.7 290.5,-75.7 192.5,-75.7"/>
<polygon fill="none" stroke="#000000" points="192.5,-75.7 192.5,-98.7 290.5,-98.7 290.5,-75.7 192.5,-75.7"/>
<text text-anchor="start" x="197.1909" y="-84.8" font-family="Helvetica,sans-Serif" font-weight="bold" font-size="11.00" fill="#000000">direcciones</text>
<text text-anchor="start" x="256.0219" y="-83.8" font-family="Helvetica,sans-Serif" font-size="11.00" fill="#000000">[table]</text>
<polygon fill="none" stroke="#000000" points="192.5,-56.7 192.5,-75.7 290.5,-75.7 290.5,-56.7 192.5,-56.7"/>
<text text-anchor="start" x="195.5" y="-62.8" font-family="Helvetica,sans-Serif" font-size="11.00" fill="#000000">...</text>
<polygon fill="#ffffff" stroke="transparent" points="192.5,-37.7 192.5,-56.7 229.5,-56.7 229.5,-37.7 192.5,-37.7"/>
<polygon fill="none" stroke="#000000" points="192.5,-37.7 192.5,-56.7 229.5,-56.7 229.5,-37.7 192.5,-37.7"/>
<text text-anchor="start" x="195.5" y="-43.8" font-family="Helvetica,sans-Serif" font-size="11.00" fill="#000000">&lt; 1</text>
<polygon fill="#ffffff" stroke="transparent" points="229.5,-37.7 229.5,-56.7 269.5,-56.7 269.5,-37.7 229.5,-37.7"/>
<polygon fill="none" stroke="#000000" points="229.5,-37.7 229.5,-56.7 269.5,-56.7 269.5,-37.7 229.5,-37.7"/>
<text text-anchor="start" x="239.6105" y="-43.8" font-family="Helvetica,sans-Serif" font-size="11.00" fill="#000000">1 row</text>
<polygon fill="#ffffff" stroke="transparent" points="269.5,-37.7 269.5,-56.7 290.5,-56.7 290.5,-37.7 269.5,-37.7"/>
<polygon fill="none" stroke="#000000" points="269.5,-37.7 269.5,-56.7 290.5,-56.7 290.5,-37.7 269.5,-37.7"/>
<text text-anchor="start" x="281.3862" y="-43.8" font-family="Helvetica,sans-Serif" font-size="11.00" fill="#000000"> &#160;</text>
</a>
</g>
</g>
<!-- direcciones&#45;&gt;personas -->
<g id="edge6" class="edge">
<title>direcciones:w&#45;&gt;personas:e</title>
<path fill="none" stroke="#000000" d="M178.0956,-68.3556C131.672,-88.6724 198.9861,-218.7 131.5,-218.7"/>
<polygon fill="#000000" stroke="#000000" points="184.6326,-67.1505 193.1527,-69.2403 188.5663,-66.4252 192.5,-65.7 192.5,-65.7 192.5,-65.7 188.5663,-66.4252 191.8473,-62.1597 184.6326,-67.1505 184.6326,-67.1505"/>
<ellipse fill="none" stroke="#000000" cx="181.4856" cy="-67.7307" rx="3.2" ry="3.2"/>
</g>
<!-- empleados -->
<g id="node8" class="node">
<title>empleados</title>
<g id="a_node8"><a xlink:href="../../tables/empleados.html" xlink:title="empleados" target="_top">
<polygon fill="#ffffff" stroke="transparent" points="352,-372.7 352,-616.7 571,-616.7 571,-372.7 352,-372.7"/>
<polygon fill="#f5f5f5" stroke="transparent" points="354.5,-591.7 354.5,-614.7 569.5,-614.7 569.5,-591.7 354.5,-591.7"/>
<polygon fill="none" stroke="#000000" points="354.5,-591.7 354.5,-614.7 569.5,-614.7 569.5,-591.7 354.5,-591.7"/>
<text text-anchor="start" x="359.5" y="-600.8" font-family="Helvetica,sans-Serif" font-weight="bold" font-size="11.00" fill="#000000">empleados</text>
<text text-anchor="start" x="534.5437" y="-599.8" font-family="Helvetica,sans-Serif" font-size="11.00" fill="#000000">[table]</text>
<polygon fill="none" stroke="#000000" points="354.5,-569.7 354.5,-591.7 477.5,-591.7 477.5,-569.7 354.5,-569.7"/>
<image xlink:href="../../images/primaryKeys.png" width="11px" height="12px" preserveAspectRatio="xMinYMin meet" x="359.5" y="-586.7"/>
<text text-anchor="start" x="374.5" y="-576.8" font-family="Helvetica,sans-Serif" font-size="11.00" fill="#000000">empleado_id</text>
<polygon fill="none" stroke="#000000" points="477.5,-569.7 477.5,-591.7 569.5,-591.7 569.5,-569.7 477.5,-569.7"/>
<text text-anchor="start" x="480.5" y="-577.4" font-family="Helvetica,sans-Serif" font-size="11.00" fill="#000000">serial[10]</text>
<polygon fill="none" stroke="#000000" points="354.5,-547.7 354.5,-569.7 477.5,-569.7 477.5,-547.7 354.5,-547.7"/>
<image xlink:href="../../images/foreignKeys.png" width="11px" height="12px" preserveAspectRatio="xMinYMin meet" x="359.5" y="-564.7"/>
<text text-anchor="start" x="374.5" y="-554.8" font-family="Helvetica,sans-Serif" font-size="11.00" fill="#000000">persona_id</text>
<polygon fill="none" stroke="#000000" points="477.5,-547.7 477.5,-569.7 569.5,-569.7 569.5,-547.7 477.5,-547.7"/>
<text text-anchor="start" x="480.5" y="-555.4" font-family="Helvetica,sans-Serif" font-size="11.00" fill="#000000">int4[10]</text>
<polygon fill="none" stroke="#000000" points="354.5,-525.7 354.5,-547.7 477.5,-547.7 477.5,-525.7 354.5,-525.7"/>
<image xlink:href="../../images/foreignKeys.png" width="11px" height="12px" preserveAspectRatio="xMinYMin meet" x="359.5" y="-542.7"/>
<text text-anchor="start" x="374.5" y="-532.8" font-family="Helvetica,sans-Serif" font-size="11.00" fill="#000000">usuario_id</text>
<polygon fill="none" stroke="#000000" points="477.5,-525.7 477.5,-547.7 569.5,-547.7 569.5,-525.7 477.5,-525.7"/>
<text text-anchor="start" x="480.5" y="-533.4" font-family="Helvetica,sans-Serif" font-size="11.00" fill="#000000">int4[10]</text>
<polygon fill="none" stroke="#000000" points="354.5,-503.7 354.5,-525.7 477.5,-525.7 477.5,-503.7 354.5,-503.7"/>
<text text-anchor="start" x="374.5" y="-510.8" font-family="Helvetica,sans-Serif" font-size="11.00" fill="#000000">activo</text>
<polygon fill="none" stroke="#000000" points="477.5,-503.7 477.5,-525.7 569.5,-525.7 569.5,-503.7 477.5,-503.7"/>
<text text-anchor="start" x="480.5" y="-511.4" font-family="Helvetica,sans-Serif" font-size="11.00" fill="#000000">bool[1]</text>
<polygon fill="none" stroke="#000000" points="354.5,-481.7 354.5,-503.7 477.5,-503.7 477.5,-481.7 354.5,-481.7"/>
<text text-anchor="start" x="374.5" y="-488.8" font-family="Helvetica,sans-Serif" font-size="11.00" fill="#000000">cargo</text>
<polygon fill="none" stroke="#000000" points="477.5,-481.7 477.5,-503.7 569.5,-503.7 569.5,-481.7 477.5,-481.7"/>
<text text-anchor="start" x="480.5" y="-489.4" font-family="Helvetica,sans-Serif" font-size="11.00" fill="#000000">varchar[255]</text>
<polygon fill="none" stroke="#000000" points="354.5,-459.7 354.5,-481.7 477.5,-481.7 477.5,-459.7 354.5,-459.7"/>
<text text-anchor="start" x="374.5" y="-466.8" font-family="Helvetica,sans-Serif" font-size="11.00" fill="#000000">usu_insercion</text>
<polygon fill="none" stroke="#000000" points="477.5,-459.7 477.5,-481.7 569.5,-481.7 569.5,-459.7 477.5,-459.7"/>
<text text-anchor="start" x="480.5" y="-467.4" font-family="Helvetica,sans-Serif" font-size="11.00" fill="#000000">varchar[20]</text>
<polygon fill="none" stroke="#000000" points="354.5,-437.7 354.5,-459.7 477.5,-459.7 477.5,-437.7 354.5,-437.7"/>
<text text-anchor="start" x="374.5" y="-444.8" font-family="Helvetica,sans-Serif" font-size="11.00" fill="#000000">fec_insercion</text>
<polygon fill="none" stroke="#000000" points="477.5,-437.7 477.5,-459.7 569.5,-459.7 569.5,-437.7 477.5,-437.7"/>
<text text-anchor="start" x="480.1023" y="-445.4" font-family="Helvetica,sans-Serif" font-size="11.00" fill="#000000">timestamptz[35,6]</text>
<polygon fill="none" stroke="#000000" points="354.5,-415.7 354.5,-437.7 477.5,-437.7 477.5,-415.7 354.5,-415.7"/>
<text text-anchor="start" x="374.5" y="-422.8" font-family="Helvetica,sans-Serif" font-size="11.00" fill="#000000">fec_modificacion</text>
<polygon fill="none" stroke="#000000" points="477.5,-415.7 477.5,-437.7 569.5,-437.7 569.5,-415.7 477.5,-415.7"/>
<text text-anchor="start" x="480.1023" y="-423.4" font-family="Helvetica,sans-Serif" font-size="11.00" fill="#000000">timestamptz[35,6]</text>
<polygon fill="none" stroke="#000000" points="354.5,-393.7 354.5,-415.7 477.5,-415.7 477.5,-393.7 354.5,-393.7"/>
<text text-anchor="start" x="374.5" y="-400.8" font-family="Helvetica,sans-Serif" font-size="11.00" fill="#000000">usu_modificacion</text>
<polygon fill="none" stroke="#000000" points="477.5,-393.7 477.5,-415.7 569.5,-415.7 569.5,-393.7 477.5,-393.7"/>
<text text-anchor="start" x="480.5" y="-401.4" font-family="Helvetica,sans-Serif" font-size="11.00" fill="#000000">varchar[20]</text>
<polygon fill="#ffffff" stroke="transparent" points="354.5,-374.7 354.5,-393.7 410.5,-393.7 410.5,-374.7 354.5,-374.7"/>
<polygon fill="none" stroke="#000000" points="354.5,-374.7 354.5,-393.7 410.5,-393.7 410.5,-374.7 354.5,-374.7"/>
<text text-anchor="start" x="357.5" y="-380.8" font-family="Helvetica,sans-Serif" font-size="11.00" fill="#000000">&lt; 2</text>
<polygon fill="#ffffff" stroke="transparent" points="410.5,-374.7 410.5,-393.7 477.5,-393.7 477.5,-374.7 410.5,-374.7"/>
<polygon fill="none" stroke="#000000" points="410.5,-374.7 410.5,-393.7 477.5,-393.7 477.5,-374.7 410.5,-374.7"/>
<text text-anchor="start" x="447.6105" y="-380.8" font-family="Helvetica,sans-Serif" font-size="11.00" fill="#000000">1 row</text>
<polygon fill="#ffffff" stroke="transparent" points="477.5,-374.7 477.5,-393.7 569.5,-393.7 569.5,-374.7 477.5,-374.7"/>
<polygon fill="none" stroke="#000000" points="477.5,-374.7 477.5,-393.7 569.5,-393.7 569.5,-374.7 477.5,-374.7"/>
<text text-anchor="start" x="550.9053" y="-380.8" font-family="Helvetica,sans-Serif" font-size="11.00" fill="#000000">0 &gt;</text>
<polygon fill="none" stroke="#000000" stroke-width="2" points="353,-373.7 353,-615.7 570,-615.7 570,-373.7 353,-373.7"/>
</a>
</g>
</g>
<!-- empleados&#45;&gt;usuarios -->
<g id="edge8" class="edge">
<title>empleados:w&#45;&gt;usuarios:e</title>
<path fill="none" stroke="#000000" d="M340.027,-534.6315C274.5089,-512.9254 393.512,-327.7 303.5,-327.7"/>
<polygon fill="#000000" stroke="#000000" points="346.5805,-535.5681 353.9906,-540.2638 350.5402,-536.134 354.5,-536.7 354.5,-536.7 354.5,-536.7 350.5402,-536.134 355.0094,-533.1362 346.5805,-535.5681 346.5805,-535.5681"/>
<ellipse fill="none" stroke="#000000" cx="343.4127" cy="-535.1153" rx="3.2" ry="3.2"/>
</g>
<!-- empleados&#45;&gt;personas -->
<g id="edge7" class="edge">
<title>empleados:w&#45;&gt;personas:e</title>
<path fill="none" stroke="#000000" d="M339.9456,-558.4582C257.2717,-555.599 222.7094,-527.0393 172,-454.7 141.4564,-411.1281 184.7111,-218.7 131.5,-218.7"/>
<polygon fill="#000000" stroke="#000000" points="346.5011,-558.5671 354.4402,-562.2995 350.5006,-558.6335 354.5,-558.7 354.5,-558.7 354.5,-558.7 350.5006,-558.6335 354.5598,-555.1005 346.5011,-558.5671 346.5011,-558.5671"/>
<ellipse fill="none" stroke="#000000" cx="343.3015" cy="-558.5139" rx="3.2" ry="3.2"/>
</g>
<!-- llamadas -->
<g id="node9" class="node">
<title>llamadas</title>
<g id="a_node9"><a xlink:href="../../tables/llamadas.html" xlink:title="llamadas" target="_top">
<polygon fill="#ffffff" stroke="transparent" points="632.5,-320.2 632.5,-381.2 719.5,-381.2 719.5,-320.2 632.5,-320.2"/>
<polygon fill="#f5f5f5" stroke="transparent" points="633,-357.7 633,-380.7 720,-380.7 720,-357.7 633,-357.7"/>
<polygon fill="none" stroke="#000000" points="633,-357.7 633,-380.7 720,-380.7 720,-357.7 633,-357.7"/>
<text text-anchor="start" x="637.9984" y="-366.8" font-family="Helvetica,sans-Serif" font-weight="bold" font-size="11.00" fill="#000000">llamadas</text>
<text text-anchor="start" x="685.5219" y="-365.8" font-family="Helvetica,sans-Serif" font-size="11.00" fill="#000000">[table]</text>
<polygon fill="none" stroke="#000000" points="633,-338.7 633,-357.7 720,-357.7 720,-338.7 633,-338.7"/>
<text text-anchor="start" x="636" y="-344.8" font-family="Helvetica,sans-Serif" font-size="11.00" fill="#000000">...</text>
<polygon fill="#ffffff" stroke="transparent" points="633,-319.7 633,-338.7 662,-338.7 662,-319.7 633,-319.7"/>
<polygon fill="none" stroke="#000000" points="633,-319.7 633,-338.7 662,-338.7 662,-319.7 633,-319.7"/>
<text text-anchor="start" x="636" y="-325.8" font-family="Helvetica,sans-Serif" font-size="11.00" fill="#000000">&lt; 3</text>
<polygon fill="#ffffff" stroke="transparent" points="662,-319.7 662,-338.7 704,-338.7 704,-319.7 662,-319.7"/>
<polygon fill="none" stroke="#000000" points="662,-319.7 662,-338.7 704,-338.7 704,-319.7 662,-319.7"/>
<text text-anchor="start" x="668.6105" y="-325.8" font-family="Helvetica,sans-Serif" font-size="11.00" fill="#000000">0 rows</text>
<polygon fill="#ffffff" stroke="transparent" points="704,-319.7 704,-338.7 720,-338.7 720,-319.7 704,-319.7"/>
<polygon fill="none" stroke="#000000" points="704,-319.7 704,-338.7 720,-338.7 720,-319.7 704,-319.7"/>
<text text-anchor="start" x="710.8862" y="-325.8" font-family="Helvetica,sans-Serif" font-size="11.00" fill="#000000"> &#160;</text>
</a>
</g>
</g>
<!-- llamadas&#45;&gt;contactos -->
<g id="edge11" class="edge">
<title>llamadas:w&#45;&gt;contactos:e</title>
<path fill="none" stroke="#000000" d="M620.3133,-340.8384C616.4804,-333.3354 617.2608,-320.8864 612,-309.7 576.3794,-233.958 590.1999,-153.7 506.5,-153.7"/>
<polygon fill="#000000" stroke="#000000" points="625.9632,-343.8942 631.2874,-350.8665 629.4816,-345.7971 633,-347.7 633,-347.7 633,-347.7 629.4816,-345.7971 634.7126,-344.5335 625.9632,-343.8942 625.9632,-343.8942"/>
<ellipse fill="none" stroke="#000000" cx="623.1485" cy="-342.3718" rx="3.2" ry="3.2"/>
</g>
<!-- llamadas&#45;&gt;leads -->
<g id="edge12" class="edge">
<title>llamadas:w&#45;&gt;leads:e</title>
<path fill="none" stroke="#000000" d="M618.4171,-346.3121C564.3022,-335.3905 565.5682,-263.7 501.5,-263.7"/>
<polygon fill="#000000" stroke="#000000" points="625.036,-346.942 632.6589,-351.2838 629.018,-347.321 633,-347.7 633,-347.7 633,-347.7 629.018,-347.321 633.3411,-344.1162 625.036,-346.942 625.036,-346.942"/>
<ellipse fill="none" stroke="#000000" cx="621.8504" cy="-346.6388" rx="3.2" ry="3.2"/>
</g>
<!-- llamadas&#45;&gt;usuarios -->
<g id="edge13" class="edge">
<title>llamadas:w&#45;&gt;usuarios:e</title>
<path fill="none" stroke="#000000" d="M618.3553,-347.6721C501.7045,-347.2161 467.251,-341.1938 344,-331.7 325.9658,-330.3109 321.5876,-327.7 303.5,-327.7"/>
<polygon fill="#000000" stroke="#000000" points="625,-347.6847 632.9931,-351.3 629,-347.6924 633,-347.7 633,-347.7 633,-347.7 629,-347.6924 633.0069,-344.1 625,-347.6847 625,-347.6847"/>
<ellipse fill="none" stroke="#000000" cx="621.8" cy="-347.6786" rx="3.2" ry="3.2"/>
</g>
<!-- oportunidades -->
<g id="node10" class="node">
<title>oportunidades</title>
<g id="a_node10"><a xlink:href="../../tables/oportunidades.html" xlink:title="oportunidades" target="_top">
<polygon fill="#ffffff" stroke="transparent" points="620,-74.2 620,-135.2 732,-135.2 732,-74.2 620,-74.2"/>
<polygon fill="#f5f5f5" stroke="transparent" points="620,-111.7 620,-134.7 732,-134.7 732,-111.7 620,-111.7"/>
<polygon fill="none" stroke="#000000" points="620,-111.7 620,-134.7 732,-134.7 732,-111.7 620,-111.7"/>
<text text-anchor="start" x="624.6531" y="-120.8" font-family="Helvetica,sans-Serif" font-weight="bold" font-size="11.00" fill="#000000">oportunidades</text>
<text text-anchor="start" x="697.5219" y="-119.8" font-family="Helvetica,sans-Serif" font-size="11.00" fill="#000000">[table]</text>
<polygon fill="none" stroke="#000000" points="620,-92.7 620,-111.7 732,-111.7 732,-92.7 620,-92.7"/>
<text text-anchor="start" x="623" y="-98.8" font-family="Helvetica,sans-Serif" font-size="11.00" fill="#000000">...</text>
<polygon fill="#ffffff" stroke="transparent" points="620,-73.7 620,-92.7 654,-92.7 654,-73.7 620,-73.7"/>
<polygon fill="none" stroke="#000000" points="620,-73.7 620,-92.7 654,-92.7 654,-73.7 620,-73.7"/>
<text text-anchor="start" x="623" y="-79.8" font-family="Helvetica,sans-Serif" font-size="11.00" fill="#000000">&lt; 5</text>
<polygon fill="#ffffff" stroke="transparent" points="654,-73.7 654,-92.7 704,-92.7 704,-73.7 654,-73.7"/>
<polygon fill="none" stroke="#000000" points="654,-73.7 654,-92.7 704,-92.7 704,-73.7 654,-73.7"/>
<text text-anchor="start" x="662.4956" y="-79.8" font-family="Helvetica,sans-Serif" font-size="11.00" fill="#000000">14 rows</text>
<polygon fill="#ffffff" stroke="transparent" points="704,-73.7 704,-92.7 732,-92.7 732,-73.7 704,-73.7"/>
<polygon fill="none" stroke="#000000" points="704,-73.7 704,-92.7 732,-92.7 732,-73.7 704,-73.7"/>
<text text-anchor="start" x="713.4053" y="-79.8" font-family="Helvetica,sans-Serif" font-size="11.00" fill="#000000">1 &gt;</text>
</a>
</g>
</g>
<!-- oportunidades&#45;&gt;contactos -->
<g id="edge14" class="edge">
<title>oportunidades:w&#45;&gt;contactos:e</title>
<path fill="none" stroke="#000000" d="M605.4316,-103.0377C563.5447,-111.1769 556.6764,-153.7 506.5,-153.7"/>
<polygon fill="#000000" stroke="#000000" points="612.0335,-102.4315 620.3292,-105.2849 616.0168,-102.0658 620,-101.7 620,-101.7 620,-101.7 616.0168,-102.0658 619.6708,-98.1151 612.0335,-102.4315 612.0335,-102.4315"/>
<ellipse fill="none" stroke="#000000" cx="608.8469" cy="-102.7241" rx="3.2" ry="3.2"/>
</g>
<!-- oportunidades&#45;&gt;usuarios -->
<g id="edge15" class="edge">
<title>oportunidades:w&#45;&gt;usuarios:e</title>
<path fill="none" stroke="#000000" d="M605.5402,-101.3932C492.2762,-96.5988 432.9255,-38.2776 344,-115.7 271.6522,-178.6891 399.4262,-327.7 303.5,-327.7"/>
<polygon fill="#000000" stroke="#000000" points="612.0018,-101.5302 619.9236,-105.2992 616.0009,-101.6151 620,-101.7 620,-101.7 620,-101.7 616.0009,-101.6151 620.0764,-98.1008 612.0018,-101.5302 612.0018,-101.5302"/>
<ellipse fill="none" stroke="#000000" cx="608.8025" cy="-101.4623" rx="3.2" ry="3.2"/>
</g>
<!-- tareas -->
<g id="node11" class="node">
<title>tareas</title>
<g id="a_node11"><a xlink:href="../../tables/tareas.html" xlink:title="tareas" target="_top">
<polygon fill="#ffffff" stroke="transparent" points="639.5,-238.2 639.5,-299.2 712.5,-299.2 712.5,-238.2 639.5,-238.2"/>
<polygon fill="#f5f5f5" stroke="transparent" points="640,-275.7 640,-298.7 713,-298.7 713,-275.7 640,-275.7"/>
<polygon fill="none" stroke="#000000" points="640,-275.7 640,-298.7 713,-298.7 713,-275.7 640,-275.7"/>
<text text-anchor="start" x="644.7183" y="-284.8" font-family="Helvetica,sans-Serif" font-weight="bold" font-size="11.00" fill="#000000">tareas</text>
<text text-anchor="start" x="678.5219" y="-283.8" font-family="Helvetica,sans-Serif" font-size="11.00" fill="#000000">[table]</text>
<polygon fill="none" stroke="#000000" points="640,-256.7 640,-275.7 713,-275.7 713,-256.7 640,-256.7"/>
<text text-anchor="start" x="643" y="-262.8" font-family="Helvetica,sans-Serif" font-size="11.00" fill="#000000">...</text>
<polygon fill="#ffffff" stroke="transparent" points="640,-237.7 640,-256.7 662,-256.7 662,-237.7 640,-237.7"/>
<polygon fill="none" stroke="#000000" points="640,-237.7 640,-256.7 662,-256.7 662,-237.7 640,-237.7"/>
<text text-anchor="start" x="643" y="-243.8" font-family="Helvetica,sans-Serif" font-size="11.00" fill="#000000">&lt; 3</text>
<polygon fill="#ffffff" stroke="transparent" points="662,-237.7 662,-256.7 700,-256.7 700,-237.7 662,-237.7"/>
<polygon fill="none" stroke="#000000" points="662,-237.7 662,-256.7 700,-256.7 700,-237.7 662,-237.7"/>
<text text-anchor="start" x="664.8053" y="-243.8" font-family="Helvetica,sans-Serif" font-size="11.00" fill="#000000">0 rows</text>
<polygon fill="#ffffff" stroke="transparent" points="700,-237.7 700,-256.7 713,-256.7 713,-237.7 700,-237.7"/>
<polygon fill="none" stroke="#000000" points="700,-237.7 700,-256.7 713,-256.7 713,-237.7 700,-237.7"/>
<text text-anchor="start" x="703.8862" y="-243.8" font-family="Helvetica,sans-Serif" font-size="11.00" fill="#000000"> &#160;</text>
</a>
</g>
</g>
<!-- tareas&#45;&gt;contactos -->
<g id="edge17" class="edge">
<title>tareas:w&#45;&gt;contactos:e</title>
<path fill="none" stroke="#000000" d="M625.4396,-264.2014C565.015,-250.9109 578.6542,-153.7 506.5,-153.7"/>
<polygon fill="#000000" stroke="#000000" points="632.042,-264.8809 639.6314,-269.2811 636.021,-265.2905 640,-265.7 640,-265.7 640,-265.7 636.021,-265.2905 640.3686,-262.1189 632.042,-264.8809 632.042,-264.8809"/>
<ellipse fill="none" stroke="#000000" cx="628.8589" cy="-264.5533" rx="3.2" ry="3.2"/>
</g>
<!-- tareas&#45;&gt;leads -->
<g id="edge18" class="edge">
<title>tareas:w&#45;&gt;leads:e</title>
<path fill="none" stroke="#000000" d="M625.4118,-265.66C575.5296,-265.3782 557.8917,-263.7 501.5,-263.7"/>
<polygon fill="#000000" stroke="#000000" points="632,-265.678 639.9901,-269.3 636,-265.689 640,-265.7 640,-265.7 640,-265.7 636,-265.689 640.0099,-262.1 632,-265.678 632,-265.678"/>
<ellipse fill="none" stroke="#000000" cx="628.8" cy="-265.6693" rx="3.2" ry="3.2"/>
</g>
<!-- tareas&#45;&gt;usuarios -->
<g id="edge19" class="edge">
<title>tareas:w&#45;&gt;usuarios:e</title>
<path fill="none" stroke="#000000" d="M625.589,-268.3038C607.0776,-276.0076 604.5974,-298.7107 579,-307.7 521.0842,-328.0389 364.8833,-327.7 303.5,-327.7"/>
<polygon fill="#000000" stroke="#000000" points="632.1275,-267.1224 640.6401,-269.2426 636.0637,-266.4112 640,-265.7 640,-265.7 640,-265.7 636.0637,-266.4112 639.3599,-262.1574 632.1275,-267.1224 632.1275,-267.1224"/>
<ellipse fill="none" stroke="#000000" cx="628.9785" cy="-267.6914" rx="3.2" ry="3.2"/>
</g>
<!-- telefonos -->
<g id="node12" class="node">
<title>telefonos</title>
<g id="a_node12"><a xlink:href="../../tables/telefonos.html" xlink:title="telefonos" target="_top">
<polygon fill="#ffffff" stroke="transparent" points="198,-383.2 198,-444.2 285,-444.2 285,-383.2 198,-383.2"/>
<polygon fill="#f5f5f5" stroke="transparent" points="198.5,-420.7 198.5,-443.7 285.5,-443.7 285.5,-420.7 198.5,-420.7"/>
<polygon fill="none" stroke="#000000" points="198.5,-420.7 198.5,-443.7 285.5,-443.7 285.5,-420.7 198.5,-420.7"/>
<text text-anchor="start" x="203.1854" y="-429.8" font-family="Helvetica,sans-Serif" font-weight="bold" font-size="11.00" fill="#000000">telefonos</text>
<text text-anchor="start" x="251.0219" y="-428.8" font-family="Helvetica,sans-Serif" font-size="11.00" fill="#000000">[table]</text>
<polygon fill="none" stroke="#000000" points="198.5,-401.7 198.5,-420.7 285.5,-420.7 285.5,-401.7 198.5,-401.7"/>
<text text-anchor="start" x="201.5" y="-407.8" font-family="Helvetica,sans-Serif" font-size="11.00" fill="#000000">...</text>
<polygon fill="#ffffff" stroke="transparent" points="198.5,-382.7 198.5,-401.7 230.5,-401.7 230.5,-382.7 198.5,-382.7"/>
<polygon fill="none" stroke="#000000" points="198.5,-382.7 198.5,-401.7 230.5,-401.7 230.5,-382.7 198.5,-382.7"/>
<text text-anchor="start" x="201.5" y="-388.8" font-family="Helvetica,sans-Serif" font-size="11.00" fill="#000000">&lt; 1</text>
<polygon fill="#ffffff" stroke="transparent" points="230.5,-382.7 230.5,-401.7 267.5,-401.7 267.5,-382.7 230.5,-382.7"/>
<polygon fill="none" stroke="#000000" points="230.5,-382.7 230.5,-401.7 267.5,-401.7 267.5,-382.7 230.5,-382.7"/>
<text text-anchor="start" x="237.6105" y="-388.8" font-family="Helvetica,sans-Serif" font-size="11.00" fill="#000000">1 row</text>
<polygon fill="#ffffff" stroke="transparent" points="267.5,-382.7 267.5,-401.7 285.5,-401.7 285.5,-382.7 267.5,-382.7"/>
<polygon fill="none" stroke="#000000" points="267.5,-382.7 267.5,-401.7 285.5,-401.7 285.5,-382.7 267.5,-382.7"/>
<text text-anchor="start" x="276.3862" y="-388.8" font-family="Helvetica,sans-Serif" font-size="11.00" fill="#000000"> &#160;</text>
</a>
</g>
</g>
<!-- telefonos&#45;&gt;personas -->
<g id="edge20" class="edge">
<title>telefonos:w&#45;&gt;personas:e</title>
<path fill="none" stroke="#000000" d="M184.2378,-408.6737C121.1475,-388.1539 216.4075,-218.7 131.5,-218.7"/>
<polygon fill="#000000" stroke="#000000" points="190.5795,-409.5746 197.9936,-414.2642 194.5398,-410.1373 198.5,-410.7 198.5,-410.7 198.5,-410.7 194.5398,-410.1373 199.0064,-407.1358 190.5795,-409.5746 190.5795,-409.5746"/>
<ellipse fill="none" stroke="#000000" cx="187.4114" cy="-409.1245" rx="3.2" ry="3.2"/>
</g>
</g>
</svg>
