<?xml version="1.0" encoding="UTF-8" standalone="no"?>
<!DOCTYPE svg PUBLIC "-//W3C//DTD SVG 1.1//EN"
 "http://www.w3.org/Graphics/SVG/1.1/DTD/svg11.dtd">
<!-- Generated by graphviz version 2.40.1 (20161225.0304)
 -->
<!-- Title: oneDegreeRelationshipsDiagram Pages: 1 -->
<svg width="507pt" height="303pt"
 viewBox="0.00 0.00 507.00 303.20" xmlns="http://www.w3.org/2000/svg" xmlns:xlink="http://www.w3.org/1999/xlink">
<g id="graph0" class="graph" transform="scale(1 1) rotate(0) translate(4 299.2)">
<title>oneDegreeRelationshipsDiagram</title>
<polygon fill="#ffffff" stroke="transparent" points="-4,4 -4,-299.2 503,-299.2 503,4 -4,4"/>
<text text-anchor="middle" x="72.4936" y="-7.3" font-family="Helvetica,sans-Serif" font-size="11.00" fill="#000000">Generated by SchemaSpy</text>
<!-- encuesta_pregunta_opciones -->
<g id="node1" class="node">
<title>encuesta_pregunta_opciones</title>
<g id="a_node1"><a xlink:href="../../tables/encuesta_pregunta_opciones.html" xlink:title="encuesta_pregunta_opciones" target="_top">
<polygon fill="#ffffff" stroke="transparent" points="295.5,-186.2 295.5,-291.2 485.5,-291.2 485.5,-186.2 295.5,-186.2"/>
<polygon fill="#f5f5f5" stroke="transparent" points="295.5,-267.7 295.5,-290.7 485.5,-290.7 485.5,-267.7 295.5,-267.7"/>
<polygon fill="none" stroke="#000000" points="295.5,-267.7 295.5,-290.7 485.5,-290.7 485.5,-267.7 295.5,-267.7"/>
<text text-anchor="start" x="300.5" y="-276.8" font-family="Helvetica,sans-Serif" font-weight="bold" font-size="11.00" fill="#000000">encuesta_pregunta_opciones</text>
<text text-anchor="start" x="450.5437" y="-275.8" font-family="Helvetica,sans-Serif" font-size="11.00" fill="#000000">[table]</text>
<polygon fill="none" stroke="#000000" points="295.5,-245.7 295.5,-267.7 485.5,-267.7 485.5,-245.7 295.5,-245.7"/>
<image xlink:href="../../images/primaryKeys.png" width="11px" height="12px" preserveAspectRatio="xMinYMin meet" x="300.5" y="-262.7"/>
<text text-anchor="start" x="315.5" y="-252.8" font-family="Helvetica,sans-Serif" font-size="11.00" fill="#000000">opcion_id</text>
<polygon fill="none" stroke="#000000" points="295.5,-223.7 295.5,-245.7 485.5,-245.7 485.5,-223.7 295.5,-223.7"/>
<image xlink:href="../../images/foreignKeys.png" width="11px" height="12px" preserveAspectRatio="xMinYMin meet" x="300.5" y="-240.7"/>
<text text-anchor="start" x="315.5" y="-230.8" font-family="Helvetica,sans-Serif" font-size="11.00" fill="#000000">pregunta_id</text>
<polygon fill="none" stroke="#000000" points="295.5,-204.7 295.5,-223.7 485.5,-223.7 485.5,-204.7 295.5,-204.7"/>
<text text-anchor="start" x="298.5" y="-210.8" font-family="Helvetica,sans-Serif" font-size="11.00" fill="#000000">...</text>
<polygon fill="#ffffff" stroke="transparent" points="295.5,-185.7 295.5,-204.7 372.5,-204.7 372.5,-185.7 295.5,-185.7"/>
<polygon fill="none" stroke="#000000" points="295.5,-185.7 295.5,-204.7 372.5,-204.7 372.5,-185.7 295.5,-185.7"/>
<text text-anchor="start" x="298.5" y="-191.8" font-family="Helvetica,sans-Serif" font-size="11.00" fill="#000000">&lt; 1</text>
<polygon fill="#ffffff" stroke="transparent" points="372.5,-185.7 372.5,-204.7 444.5,-204.7 444.5,-185.7 372.5,-185.7"/>
<polygon fill="none" stroke="#000000" points="372.5,-185.7 372.5,-204.7 444.5,-204.7 444.5,-185.7 372.5,-185.7"/>
<text text-anchor="start" x="402.9956" y="-191.8" font-family="Helvetica,sans-Serif" font-size="11.00" fill="#000000">15 rows</text>
<polygon fill="#ffffff" stroke="transparent" points="444.5,-185.7 444.5,-204.7 485.5,-204.7 485.5,-185.7 444.5,-185.7"/>
<polygon fill="none" stroke="#000000" points="444.5,-185.7 444.5,-204.7 485.5,-204.7 485.5,-185.7 444.5,-185.7"/>
<text text-anchor="start" x="476.3862" y="-191.8" font-family="Helvetica,sans-Serif" font-size="11.00" fill="#000000"> &#160;</text>
</a>
</g>
</g>
<!-- encuesta_preguntas -->
<g id="node2" class="node">
<title>encuesta_preguntas</title>
<g id="a_node2"><a xlink:href="../../tables/encuesta_preguntas.html" xlink:title="encuesta_preguntas" target="_top">
<polygon fill="#ffffff" stroke="transparent" points="8,-40.7 8,-196.7 241,-196.7 241,-40.7 8,-40.7"/>
<polygon fill="#f5f5f5" stroke="transparent" points="10.5,-171.7 10.5,-194.7 239.5,-194.7 239.5,-171.7 10.5,-171.7"/>
<polygon fill="none" stroke="#000000" points="10.5,-171.7 10.5,-194.7 239.5,-194.7 239.5,-171.7 10.5,-171.7"/>
<text text-anchor="start" x="15.5" y="-180.8" font-family="Helvetica,sans-Serif" font-weight="bold" font-size="11.00" fill="#000000">encuesta_preguntas</text>
<text text-anchor="start" x="204.5437" y="-179.8" font-family="Helvetica,sans-Serif" font-size="11.00" fill="#000000">[table]</text>
<polygon fill="none" stroke="#000000" points="10.5,-149.7 10.5,-171.7 147.5,-171.7 147.5,-149.7 10.5,-149.7"/>
<image xlink:href="../../images/primaryKeys.png" width="11px" height="12px" preserveAspectRatio="xMinYMin meet" x="15.5" y="-166.7"/>
<text text-anchor="start" x="30.5" y="-156.8" font-family="Helvetica,sans-Serif" font-size="11.00" fill="#000000">pregunta_id</text>
<polygon fill="none" stroke="#000000" points="147.5,-149.7 147.5,-171.7 239.5,-171.7 239.5,-149.7 147.5,-149.7"/>
<text text-anchor="start" x="150.5" y="-157.4" font-family="Helvetica,sans-Serif" font-size="11.00" fill="#000000">serial[10]</text>
<polygon fill="none" stroke="#000000" points="10.5,-127.7 10.5,-149.7 147.5,-149.7 147.5,-127.7 10.5,-127.7"/>
<text text-anchor="start" x="30.5" y="-134.8" font-family="Helvetica,sans-Serif" font-size="11.00" fill="#000000">pregunta</text>
<polygon fill="none" stroke="#000000" points="147.5,-127.7 147.5,-149.7 239.5,-149.7 239.5,-127.7 147.5,-127.7"/>
<text text-anchor="start" x="150.5" y="-135.4" font-family="Helvetica,sans-Serif" font-size="11.00" fill="#000000">varchar[255]</text>
<polygon fill="none" stroke="#000000" points="10.5,-105.7 10.5,-127.7 147.5,-127.7 147.5,-105.7 10.5,-105.7"/>
<text text-anchor="start" x="30.5" y="-112.8" font-family="Helvetica,sans-Serif" font-size="11.00" fill="#000000">obligatorio</text>
<polygon fill="none" stroke="#000000" points="147.5,-105.7 147.5,-127.7 239.5,-127.7 239.5,-105.7 147.5,-105.7"/>
<text text-anchor="start" x="150.5" y="-113.4" font-family="Helvetica,sans-Serif" font-size="11.00" fill="#000000">bool[1]</text>
<polygon fill="none" stroke="#000000" points="10.5,-83.7 10.5,-105.7 147.5,-105.7 147.5,-83.7 10.5,-83.7"/>
<text text-anchor="start" x="30.5" y="-90.8" font-family="Helvetica,sans-Serif" font-size="11.00" fill="#000000">fec_insercion</text>
<polygon fill="none" stroke="#000000" points="147.5,-83.7 147.5,-105.7 239.5,-105.7 239.5,-83.7 147.5,-83.7"/>
<text text-anchor="start" x="150.1023" y="-91.4" font-family="Helvetica,sans-Serif" font-size="11.00" fill="#000000">timestamptz[35,6]</text>
<polygon fill="none" stroke="#000000" points="10.5,-61.7 10.5,-83.7 147.5,-83.7 147.5,-61.7 10.5,-61.7"/>
<text text-anchor="start" x="30.5" y="-68.8" font-family="Helvetica,sans-Serif" font-size="11.00" fill="#000000">fec_modificacion</text>
<polygon fill="none" stroke="#000000" points="147.5,-61.7 147.5,-83.7 239.5,-83.7 239.5,-61.7 147.5,-61.7"/>
<text text-anchor="start" x="150.1023" y="-69.4" font-family="Helvetica,sans-Serif" font-size="11.00" fill="#000000">timestamptz[35,6]</text>
<polygon fill="#ffffff" stroke="transparent" points="10.5,-42.7 10.5,-61.7 70.5,-61.7 70.5,-42.7 10.5,-42.7"/>
<polygon fill="none" stroke="#000000" points="10.5,-42.7 10.5,-61.7 70.5,-61.7 70.5,-42.7 10.5,-42.7"/>
<text text-anchor="start" x="13.5" y="-48.8" font-family="Helvetica,sans-Serif" font-size="11.00" fill="#000000">&lt; 0</text>
<polygon fill="#ffffff" stroke="transparent" points="70.5,-42.7 70.5,-61.7 147.5,-61.7 147.5,-42.7 70.5,-42.7"/>
<polygon fill="none" stroke="#000000" points="70.5,-42.7 70.5,-61.7 147.5,-61.7 147.5,-42.7 70.5,-42.7"/>
<text text-anchor="start" x="112.1105" y="-48.8" font-family="Helvetica,sans-Serif" font-size="11.00" fill="#000000">4 rows</text>
<polygon fill="#ffffff" stroke="transparent" points="147.5,-42.7 147.5,-61.7 239.5,-61.7 239.5,-42.7 147.5,-42.7"/>
<polygon fill="none" stroke="#000000" points="147.5,-42.7 147.5,-61.7 239.5,-61.7 239.5,-42.7 147.5,-42.7"/>
<text text-anchor="start" x="220.9053" y="-48.8" font-family="Helvetica,sans-Serif" font-size="11.00" fill="#000000">2 &gt;</text>
<polygon fill="none" stroke="#000000" stroke-width="2" points="9,-41.7 9,-195.7 240,-195.7 240,-41.7 9,-41.7"/>
</a>
</g>
</g>
<!-- encuesta_pregunta_opciones&#45;&gt;encuesta_preguntas -->
<g id="edge1" class="edge">
<title>encuesta_pregunta_opciones:w&#45;&gt;encuesta_preguntas:e</title>
<path fill="none" stroke="#000000" d="M281.4523,-230.5094C260.4974,-214.8552 274.7837,-160.7 239.5,-160.7"/>
<polygon fill="#000000" stroke="#000000" points="287.8338,-232.4131 294.4709,-238.1498 291.6669,-233.5565 295.5,-234.7 295.5,-234.7 295.5,-234.7 291.6669,-233.5565 296.5291,-231.2502 287.8338,-232.4131 287.8338,-232.4131"/>
<ellipse fill="none" stroke="#000000" cx="284.7674" cy="-231.4983" rx="3.2" ry="3.2"/>
</g>
<!-- encuesta_pregunta_respuestas -->
<g id="node3" class="node">
<title>encuesta_pregunta_respuestas</title>
<g id="a_node3"><a xlink:href="../../tables/encuesta_pregunta_respuestas.html" xlink:title="encuesta_pregunta_respuestas" target="_top">
<polygon fill="#ffffff" stroke="transparent" points="290,-38.2 290,-165.2 491,-165.2 491,-38.2 290,-38.2"/>
<polygon fill="#f5f5f5" stroke="transparent" points="290.5,-141.7 290.5,-164.7 491.5,-164.7 491.5,-141.7 290.5,-141.7"/>
<polygon fill="none" stroke="#000000" points="290.5,-141.7 290.5,-164.7 491.5,-164.7 491.5,-141.7 290.5,-141.7"/>
<text text-anchor="start" x="295.5" y="-150.8" font-family="Helvetica,sans-Serif" font-weight="bold" font-size="11.00" fill="#000000">encuesta_pregunta_respuestas</text>
<text text-anchor="start" x="456.5437" y="-149.8" font-family="Helvetica,sans-Serif" font-size="11.00" fill="#000000">[table]</text>
<polygon fill="none" stroke="#000000" points="290.5,-119.7 290.5,-141.7 491.5,-141.7 491.5,-119.7 290.5,-119.7"/>
<image xlink:href="../../images/primaryKeys.png" width="11px" height="12px" preserveAspectRatio="xMinYMin meet" x="295.5" y="-136.7"/>
<text text-anchor="start" x="310.5" y="-126.8" font-family="Helvetica,sans-Serif" font-size="11.00" fill="#000000">pregunta_respuesta_id</text>
<polygon fill="none" stroke="#000000" points="290.5,-97.7 290.5,-119.7 491.5,-119.7 491.5,-97.7 290.5,-97.7"/>
<image xlink:href="../../images/foreignKeys.png" width="11px" height="12px" preserveAspectRatio="xMinYMin meet" x="295.5" y="-114.7"/>
<text text-anchor="start" x="310.5" y="-104.8" font-family="Helvetica,sans-Serif" font-size="11.00" fill="#000000">respuesta_id</text>
<polygon fill="none" stroke="#000000" points="290.5,-75.7 290.5,-97.7 491.5,-97.7 491.5,-75.7 290.5,-75.7"/>
<image xlink:href="../../images/foreignKeys.png" width="11px" height="12px" preserveAspectRatio="xMinYMin meet" x="295.5" y="-92.7"/>
<text text-anchor="start" x="310.5" y="-82.8" font-family="Helvetica,sans-Serif" font-size="11.00" fill="#000000">pregunta_id</text>
<polygon fill="none" stroke="#000000" points="290.5,-56.7 290.5,-75.7 491.5,-75.7 491.5,-56.7 290.5,-56.7"/>
<text text-anchor="start" x="293.5" y="-62.8" font-family="Helvetica,sans-Serif" font-size="11.00" fill="#000000">...</text>
<polygon fill="#ffffff" stroke="transparent" points="290.5,-37.7 290.5,-56.7 376.5,-56.7 376.5,-37.7 290.5,-37.7"/>
<polygon fill="none" stroke="#000000" points="290.5,-37.7 290.5,-56.7 376.5,-56.7 376.5,-37.7 290.5,-37.7"/>
<text text-anchor="start" x="293.5" y="-43.8" font-family="Helvetica,sans-Serif" font-size="11.00" fill="#000000">&lt; 2</text>
<polygon fill="#ffffff" stroke="transparent" points="376.5,-37.7 376.5,-56.7 446.5,-56.7 446.5,-37.7 376.5,-37.7"/>
<polygon fill="none" stroke="#000000" points="376.5,-37.7 376.5,-56.7 446.5,-56.7 446.5,-37.7 376.5,-37.7"/>
<text text-anchor="start" x="411.1105" y="-43.8" font-family="Helvetica,sans-Serif" font-size="11.00" fill="#000000">4 rows</text>
<polygon fill="#ffffff" stroke="transparent" points="446.5,-37.7 446.5,-56.7 491.5,-56.7 491.5,-37.7 446.5,-37.7"/>
<polygon fill="none" stroke="#000000" points="446.5,-37.7 446.5,-56.7 491.5,-56.7 491.5,-37.7 446.5,-37.7"/>
<text text-anchor="start" x="482.3862" y="-43.8" font-family="Helvetica,sans-Serif" font-size="11.00" fill="#000000"> &#160;</text>
</a>
</g>
</g>
<!-- encuesta_pregunta_respuestas&#45;&gt;encuesta_preguntas -->
<g id="edge2" class="edge">
<title>encuesta_pregunta_respuestas:w&#45;&gt;encuesta_preguntas:e</title>
<path fill="none" stroke="#000000" d="M276.5503,-91.329C257.7607,-107.5294 273.3581,-160.7 239.5,-160.7"/>
<polygon fill="#000000" stroke="#000000" points="282.9071,-89.2196 291.6338,-90.1168 286.7036,-87.9598 290.5,-86.7 290.5,-86.7 290.5,-86.7 286.7036,-87.9598 289.3662,-83.2832 282.9071,-89.2196 282.9071,-89.2196"/>
<ellipse fill="none" stroke="#000000" cx="279.87" cy="-90.2275" rx="3.2" ry="3.2"/>
</g>
</g>
</svg>
