<?xml version="1.0" encoding="UTF-8" standalone="no"?>
<!DOCTYPE svg PUBLIC "-//W3C//DTD SVG 1.1//EN"
 "http://www.w3.org/Graphics/SVG/1.1/DTD/svg11.dtd">
<!-- Generated by graphviz version 2.40.1 (20161225.0304)
 -->
<!-- Title: twoDegreesRelationshipsDiagram Pages: 1 -->
<svg width="1159pt" height="502pt"
 viewBox="0.00 0.00 1159.00 501.56" xmlns="http://www.w3.org/2000/svg" xmlns:xlink="http://www.w3.org/1999/xlink">
<g id="graph0" class="graph" transform="scale(1 1) rotate(0) translate(4 497.5602)">
<title>twoDegreesRelationshipsDiagram</title>
<polygon fill="#ffffff" stroke="transparent" points="-4,4 -4,-497.5602 1155,-497.5602 1155,4 -4,4"/>
<text text-anchor="middle" x="72.4936" y="-7.3" font-family="Helvetica,sans-Serif" font-size="11.00" fill="#000000">Generated by SchemaSpy</text>
<!-- casos -->
<g id="node1" class="node">
<title>casos</title>
<g id="a_node1"><a xlink:href="../../tables/casos.html" xlink:title="casos" target="_top">
<polygon fill="#ffffff" stroke="transparent" points="508,-236.5602 508,-297.5602 579,-297.5602 579,-236.5602 508,-236.5602"/>
<polygon fill="#f5f5f5" stroke="transparent" points="508.5,-274.0602 508.5,-297.0602 579.5,-297.0602 579.5,-274.0602 508.5,-274.0602"/>
<polygon fill="none" stroke="#000000" points="508.5,-274.0602 508.5,-297.0602 579.5,-297.0602 579.5,-274.0602 508.5,-274.0602"/>
<text text-anchor="start" x="513.1351" y="-283.1602" font-family="Helvetica,sans-Serif" font-weight="bold" font-size="11.00" fill="#000000">casos</text>
<text text-anchor="start" x="545.0219" y="-282.1602" font-family="Helvetica,sans-Serif" font-size="11.00" fill="#000000">[table]</text>
<polygon fill="none" stroke="#000000" points="508.5,-255.0602 508.5,-274.0602 579.5,-274.0602 579.5,-255.0602 508.5,-255.0602"/>
<text text-anchor="start" x="511.5" y="-261.1602" font-family="Helvetica,sans-Serif" font-size="11.00" fill="#000000">...</text>
<polygon fill="#ffffff" stroke="transparent" points="508.5,-236.0602 508.5,-255.0602 529.5,-255.0602 529.5,-236.0602 508.5,-236.0602"/>
<polygon fill="none" stroke="#000000" points="508.5,-236.0602 508.5,-255.0602 529.5,-255.0602 529.5,-236.0602 508.5,-236.0602"/>
<text text-anchor="start" x="511.2027" y="-242.1602" font-family="Helvetica,sans-Serif" font-size="11.00" fill="#000000">&lt; 3</text>
<polygon fill="#ffffff" stroke="transparent" points="529.5,-236.0602 529.5,-255.0602 567.5,-255.0602 567.5,-236.0602 529.5,-236.0602"/>
<polygon fill="none" stroke="#000000" points="529.5,-236.0602 529.5,-255.0602 567.5,-255.0602 567.5,-236.0602 529.5,-236.0602"/>
<text text-anchor="start" x="532.3053" y="-242.1602" font-family="Helvetica,sans-Serif" font-size="11.00" fill="#000000">0 rows</text>
<polygon fill="#ffffff" stroke="transparent" points="567.5,-236.0602 567.5,-255.0602 579.5,-255.0602 579.5,-236.0602 567.5,-236.0602"/>
<polygon fill="none" stroke="#000000" points="567.5,-236.0602 567.5,-255.0602 579.5,-255.0602 579.5,-236.0602 567.5,-236.0602"/>
<text text-anchor="start" x="570.4431" y="-242.1602" font-family="Helvetica,sans-Serif" font-size="11.00" fill="#000000"> &#160;</text>
</a>
</g>
</g>
<!-- contactos -->
<g id="node2" class="node">
<title>contactos</title>
<g id="a_node2"><a xlink:href="../../tables/contactos.html" xlink:title="contactos" target="_top">
<polygon fill="#ffffff" stroke="transparent" points="310,-88.5602 310,-215.5602 433,-215.5602 433,-88.5602 310,-88.5602"/>
<polygon fill="#f5f5f5" stroke="transparent" points="310.5,-192.0602 310.5,-215.0602 433.5,-215.0602 433.5,-192.0602 310.5,-192.0602"/>
<polygon fill="none" stroke="#000000" points="310.5,-192.0602 310.5,-215.0602 433.5,-215.0602 433.5,-192.0602 310.5,-192.0602"/>
<text text-anchor="start" x="315.5" y="-201.1602" font-family="Helvetica,sans-Serif" font-weight="bold" font-size="11.00" fill="#000000">contactos</text>
<text text-anchor="start" x="398.5437" y="-200.1602" font-family="Helvetica,sans-Serif" font-size="11.00" fill="#000000">[table]</text>
<polygon fill="none" stroke="#000000" points="310.5,-170.0602 310.5,-192.0602 433.5,-192.0602 433.5,-170.0602 310.5,-170.0602"/>
<image xlink:href="../../images/primaryKeys.png" width="11px" height="12px" preserveAspectRatio="xMinYMin meet" x="315.5" y="-187.06"/>
<text text-anchor="start" x="330.5" y="-177.1602" font-family="Helvetica,sans-Serif" font-size="11.00" fill="#000000">contacto_id</text>
<polygon fill="none" stroke="#000000" points="310.5,-148.0602 310.5,-170.0602 433.5,-170.0602 433.5,-148.0602 310.5,-148.0602"/>
<image xlink:href="../../images/foreignKeys.png" width="11px" height="12px" preserveAspectRatio="xMinYMin meet" x="315.5" y="-165.06"/>
<text text-anchor="start" x="330.5" y="-155.1602" font-family="Helvetica,sans-Serif" font-size="11.00" fill="#000000">persona_id</text>
<polygon fill="none" stroke="#000000" points="310.5,-126.0602 310.5,-148.0602 433.5,-148.0602 433.5,-126.0602 310.5,-126.0602"/>
<image xlink:href="../../images/foreignKeys.png" width="11px" height="12px" preserveAspectRatio="xMinYMin meet" x="315.5" y="-143.06"/>
<text text-anchor="start" x="330.5" y="-133.1602" font-family="Helvetica,sans-Serif" font-size="11.00" fill="#000000">organizacion_id</text>
<polygon fill="none" stroke="#000000" points="310.5,-107.0602 310.5,-126.0602 433.5,-126.0602 433.5,-107.0602 310.5,-107.0602"/>
<text text-anchor="start" x="313.5" y="-113.1602" font-family="Helvetica,sans-Serif" font-size="11.00" fill="#000000">...</text>
<polygon fill="#ffffff" stroke="transparent" points="310.5,-88.0602 310.5,-107.0602 352.5,-107.0602 352.5,-88.0602 310.5,-88.0602"/>
<polygon fill="none" stroke="#000000" points="310.5,-88.0602 310.5,-107.0602 352.5,-107.0602 352.5,-88.0602 310.5,-88.0602"/>
<text text-anchor="start" x="313.5" y="-94.1602" font-family="Helvetica,sans-Serif" font-size="11.00" fill="#000000">&lt; 2</text>
<polygon fill="#ffffff" stroke="transparent" points="352.5,-88.0602 352.5,-107.0602 401.5,-107.0602 401.5,-88.0602 352.5,-88.0602"/>
<polygon fill="none" stroke="#000000" points="352.5,-88.0602 352.5,-107.0602 401.5,-107.0602 401.5,-88.0602 352.5,-88.0602"/>
<text text-anchor="start" x="366.1105" y="-94.1602" font-family="Helvetica,sans-Serif" font-size="11.00" fill="#000000">2 rows</text>
<polygon fill="#ffffff" stroke="transparent" points="401.5,-88.0602 401.5,-107.0602 433.5,-107.0602 433.5,-88.0602 401.5,-88.0602"/>
<polygon fill="none" stroke="#000000" points="401.5,-88.0602 401.5,-107.0602 433.5,-107.0602 433.5,-88.0602 401.5,-88.0602"/>
<text text-anchor="start" x="414.9053" y="-94.1602" font-family="Helvetica,sans-Serif" font-size="11.00" fill="#000000">5 &gt;</text>
</a>
</g>
</g>
<!-- casos&#45;&gt;contactos -->
<g id="edge1" class="edge">
<title>casos:w&#45;&gt;contactos:e</title>
<path fill="none" stroke="#000000" d="M494.2428,-261.1062C463.3666,-246.3206 477.5861,-181.0602 433.5,-181.0602"/>
<polygon fill="#000000" stroke="#000000" points="500.6664,-262.4371 507.7696,-267.5853 504.5832,-263.2486 508.5,-264.0602 508.5,-264.0602 508.5,-264.0602 504.5832,-263.2486 509.2304,-260.5351 500.6664,-262.4371 500.6664,-262.4371"/>
<ellipse fill="none" stroke="#000000" cx="497.5329" cy="-261.7878" rx="3.2" ry="3.2"/>
</g>
<!-- usuarios -->
<g id="node3" class="node">
<title>usuarios</title>
<g id="a_node3"><a xlink:href="../../tables/usuarios.html" xlink:title="usuarios" target="_top">
<polygon fill="#ffffff" stroke="transparent" points="329.5,-236.5602 329.5,-297.5602 413.5,-297.5602 413.5,-236.5602 329.5,-236.5602"/>
<polygon fill="#f5f5f5" stroke="transparent" points="329.5,-274.0602 329.5,-297.0602 413.5,-297.0602 413.5,-274.0602 329.5,-274.0602"/>
<polygon fill="none" stroke="#000000" points="329.5,-274.0602 329.5,-297.0602 413.5,-297.0602 413.5,-274.0602 329.5,-274.0602"/>
<text text-anchor="start" x="334.2188" y="-283.1602" font-family="Helvetica,sans-Serif" font-weight="bold" font-size="11.00" fill="#000000">usuarios</text>
<text text-anchor="start" x="379.0219" y="-282.1602" font-family="Helvetica,sans-Serif" font-size="11.00" fill="#000000">[table]</text>
<polygon fill="none" stroke="#000000" points="329.5,-255.0602 329.5,-274.0602 413.5,-274.0602 413.5,-255.0602 329.5,-255.0602"/>
<text text-anchor="start" x="332.5" y="-261.1602" font-family="Helvetica,sans-Serif" font-size="11.00" fill="#000000">...</text>
<polygon fill="#ffffff" stroke="transparent" points="329.5,-236.0602 329.5,-255.0602 350.5,-255.0602 350.5,-236.0602 329.5,-236.0602"/>
<polygon fill="none" stroke="#000000" points="329.5,-236.0602 329.5,-255.0602 350.5,-255.0602 350.5,-236.0602 329.5,-236.0602"/>
<text text-anchor="start" x="332.5" y="-242.1602" font-family="Helvetica,sans-Serif" font-size="11.00" fill="#000000"> &#160;</text>
<polygon fill="#ffffff" stroke="transparent" points="350.5,-236.0602 350.5,-255.0602 387.5,-255.0602 387.5,-236.0602 350.5,-236.0602"/>
<polygon fill="none" stroke="#000000" points="350.5,-236.0602 350.5,-255.0602 387.5,-255.0602 387.5,-236.0602 350.5,-236.0602"/>
<text text-anchor="start" x="357.6105" y="-242.1602" font-family="Helvetica,sans-Serif" font-size="11.00" fill="#000000">1 row</text>
<polygon fill="#ffffff" stroke="transparent" points="387.5,-236.0602 387.5,-255.0602 413.5,-255.0602 413.5,-236.0602 387.5,-236.0602"/>
<polygon fill="none" stroke="#000000" points="387.5,-236.0602 387.5,-255.0602 413.5,-255.0602 413.5,-236.0602 387.5,-236.0602"/>
<text text-anchor="start" x="394.9053" y="-242.1602" font-family="Helvetica,sans-Serif" font-size="11.00" fill="#000000">6 &gt;</text>
</a>
</g>
</g>
<!-- casos&#45;&gt;usuarios -->
<g id="edge2" class="edge">
<title>casos:w&#45;&gt;usuarios:e</title>
<path fill="none" stroke="#000000" d="M494.0273,-264.0602C463.1441,-264.0602 450.4444,-264.0602 413.5,-264.0602"/>
<polygon fill="#000000" stroke="#000000" points="500.5,-264.0602 508.5,-267.6602 504.5,-264.0602 508.5,-264.0602 508.5,-264.0602 508.5,-264.0602 504.5,-264.0602 508.5,-260.4602 500.5,-264.0602 500.5,-264.0602"/>
<ellipse fill="none" stroke="#000000" cx="497.3" cy="-264.0603" rx="3.2" ry="3.2"/>
</g>
<!-- organizaciones -->
<g id="node4" class="node">
<title>organizaciones</title>
<g id="a_node4"><a xlink:href="../../tables/organizaciones.html" xlink:title="organizaciones" target="_top">
<polygon fill="#ffffff" stroke="transparent" points="145,-91.5602 145,-152.5602 261,-152.5602 261,-91.5602 145,-91.5602"/>
<polygon fill="#f5f5f5" stroke="transparent" points="145,-129.0602 145,-152.0602 261,-152.0602 261,-129.0602 145,-129.0602"/>
<polygon fill="none" stroke="#000000" points="145,-129.0602 145,-152.0602 261,-152.0602 261,-129.0602 145,-129.0602"/>
<text text-anchor="start" x="149.5186" y="-138.1602" font-family="Helvetica,sans-Serif" font-weight="bold" font-size="11.00" fill="#000000">organizaciones</text>
<text text-anchor="start" x="226.5219" y="-137.1602" font-family="Helvetica,sans-Serif" font-size="11.00" fill="#000000">[table]</text>
<polygon fill="none" stroke="#000000" points="145,-110.0602 145,-129.0602 261,-129.0602 261,-110.0602 145,-110.0602"/>
<text text-anchor="start" x="148" y="-116.1602" font-family="Helvetica,sans-Serif" font-size="11.00" fill="#000000">...</text>
<polygon fill="#ffffff" stroke="transparent" points="145,-91.0602 145,-110.0602 184,-110.0602 184,-91.0602 145,-91.0602"/>
<polygon fill="none" stroke="#000000" points="145,-91.0602 145,-110.0602 184,-110.0602 184,-91.0602 145,-91.0602"/>
<text text-anchor="start" x="148" y="-97.1602" font-family="Helvetica,sans-Serif" font-size="11.00" fill="#000000">&lt; 1</text>
<polygon fill="#ffffff" stroke="transparent" points="184,-91.0602 184,-110.0602 231,-110.0602 231,-91.0602 184,-91.0602"/>
<polygon fill="none" stroke="#000000" points="184,-91.0602 184,-110.0602 231,-110.0602 231,-91.0602 184,-91.0602"/>
<text text-anchor="start" x="195.6105" y="-97.1602" font-family="Helvetica,sans-Serif" font-size="11.00" fill="#000000">0 rows</text>
<polygon fill="#ffffff" stroke="transparent" points="231,-91.0602 231,-110.0602 261,-110.0602 261,-91.0602 231,-91.0602"/>
<polygon fill="none" stroke="#000000" points="231,-91.0602 231,-110.0602 261,-110.0602 261,-91.0602 231,-91.0602"/>
<text text-anchor="start" x="242.4053" y="-97.1602" font-family="Helvetica,sans-Serif" font-size="11.00" fill="#000000">1 &gt;</text>
</a>
</g>
</g>
<!-- contactos&#45;&gt;organizaciones -->
<g id="edge3" class="edge">
<title>contactos:w&#45;&gt;organizaciones:e</title>
<path fill="none" stroke="#000000" d="M296.1817,-134.2477C284.4545,-129.1852 278.557,-119.0602 261,-119.0602"/>
<polygon fill="#000000" stroke="#000000" points="302.65,-135.5182 309.8061,-140.5927 306.575,-136.2892 310.5,-137.0602 310.5,-137.0602 310.5,-137.0602 306.575,-136.2892 311.1939,-133.5277 302.65,-135.5182 302.65,-135.5182"/>
<ellipse fill="none" stroke="#000000" cx="299.51" cy="-134.9014" rx="3.2" ry="3.2"/>
</g>
<!-- personas -->
<g id="node5" class="node">
<title>personas</title>
<g id="a_node5"><a xlink:href="../../tables/personas.html" xlink:title="personas" target="_top">
<polygon fill="#ffffff" stroke="transparent" points="8,-120.5602 8,-181.5602 96,-181.5602 96,-120.5602 8,-120.5602"/>
<polygon fill="#f5f5f5" stroke="transparent" points="8,-158.0602 8,-181.0602 96,-181.0602 96,-158.0602 8,-158.0602"/>
<polygon fill="none" stroke="#000000" points="8,-158.0602 8,-181.0602 96,-181.0602 96,-158.0602 8,-158.0602"/>
<text text-anchor="start" x="12.8818" y="-167.1602" font-family="Helvetica,sans-Serif" font-weight="bold" font-size="11.00" fill="#000000">personas</text>
<text text-anchor="start" x="61.5219" y="-166.1602" font-family="Helvetica,sans-Serif" font-size="11.00" fill="#000000">[table]</text>
<polygon fill="none" stroke="#000000" points="8,-139.0602 8,-158.0602 96,-158.0602 96,-139.0602 8,-139.0602"/>
<text text-anchor="start" x="11" y="-145.1602" font-family="Helvetica,sans-Serif" font-size="11.00" fill="#000000">...</text>
<polygon fill="#ffffff" stroke="transparent" points="8,-120.0602 8,-139.0602 28,-139.0602 28,-120.0602 8,-120.0602"/>
<polygon fill="none" stroke="#000000" points="8,-120.0602 8,-139.0602 28,-139.0602 28,-120.0602 8,-120.0602"/>
<text text-anchor="start" x="11" y="-126.1602" font-family="Helvetica,sans-Serif" font-size="11.00" fill="#000000"> &#160;</text>
<polygon fill="#ffffff" stroke="transparent" points="28,-120.0602 28,-139.0602 70,-139.0602 70,-120.0602 28,-120.0602"/>
<polygon fill="none" stroke="#000000" points="28,-120.0602 28,-139.0602 70,-139.0602 70,-120.0602 28,-120.0602"/>
<text text-anchor="start" x="34.6105" y="-126.1602" font-family="Helvetica,sans-Serif" font-size="11.00" fill="#000000">7 rows</text>
<polygon fill="#ffffff" stroke="transparent" points="70,-120.0602 70,-139.0602 96,-139.0602 96,-120.0602 70,-120.0602"/>
<polygon fill="none" stroke="#000000" points="70,-120.0602 70,-139.0602 96,-139.0602 96,-120.0602 70,-120.0602"/>
<text text-anchor="start" x="77.4053" y="-126.1602" font-family="Helvetica,sans-Serif" font-size="11.00" fill="#000000">7 &gt;</text>
</a>
</g>
</g>
<!-- contactos&#45;&gt;personas -->
<g id="edge4" class="edge">
<title>contactos:w&#45;&gt;personas:e</title>
<path fill="none" stroke="#000000" d="M296.1002,-159.8423C287.6707,-160.8248 281.58,-162.4553 269,-163.0602 210.401,-165.8777 194.7669,-173.2956 137,-163.0602 117.8941,-159.6749 115.4034,-148.0602 96,-148.0602"/>
<polygon fill="#000000" stroke="#000000" points="302.5118,-159.4941 310.6953,-162.6549 306.5059,-159.2771 310.5,-159.0602 310.5,-159.0602 310.5,-159.0602 306.5059,-159.2771 310.3047,-155.4655 302.5118,-159.4941 302.5118,-159.4941"/>
<ellipse fill="none" stroke="#000000" cx="299.3165" cy="-159.6677" rx="3.2" ry="3.2"/>
</g>
<!-- organizaciones&#45;&gt;personas -->
<g id="edge15" class="edge">
<title>organizaciones:w&#45;&gt;personas:e</title>
<path fill="none" stroke="#000000" d="M130.9495,-123.0925C118.971,-131.0609 115.3749,-148.0602 96,-148.0602"/>
<polygon fill="#000000" stroke="#000000" points="137.3104,-121.2671 145.9931,-122.5205 141.1552,-120.1636 145,-119.0602 145,-119.0602 145,-119.0602 141.1552,-120.1636 144.0069,-115.5999 137.3104,-121.2671 137.3104,-121.2671"/>
<ellipse fill="none" stroke="#000000" cx="134.2346" cy="-122.1498" rx="3.2" ry="3.2"/>
</g>
<!-- encuesta_pregunta_respuestas -->
<g id="node6" class="node">
<title>encuesta_pregunta_respuestas</title>
<g id="a_node6"><a xlink:href="../../tables/encuesta_pregunta_respuestas.html" xlink:title="encuesta_pregunta_respuestas" target="_top">
<polygon fill="#ffffff" stroke="transparent" points="942,-136.5602 942,-263.5602 1143,-263.5602 1143,-136.5602 942,-136.5602"/>
<polygon fill="#f5f5f5" stroke="transparent" points="942.5,-240.0602 942.5,-263.0602 1143.5,-263.0602 1143.5,-240.0602 942.5,-240.0602"/>
<polygon fill="none" stroke="#000000" points="942.5,-240.0602 942.5,-263.0602 1143.5,-263.0602 1143.5,-240.0602 942.5,-240.0602"/>
<text text-anchor="start" x="947.5" y="-249.1602" font-family="Helvetica,sans-Serif" font-weight="bold" font-size="11.00" fill="#000000">encuesta_pregunta_respuestas</text>
<text text-anchor="start" x="1108.5437" y="-248.1602" font-family="Helvetica,sans-Serif" font-size="11.00" fill="#000000">[table]</text>
<polygon fill="none" stroke="#000000" points="942.5,-218.0602 942.5,-240.0602 1143.5,-240.0602 1143.5,-218.0602 942.5,-218.0602"/>
<image xlink:href="../../images/primaryKeys.png" width="11px" height="12px" preserveAspectRatio="xMinYMin meet" x="947.5" y="-235.06"/>
<text text-anchor="start" x="962.5" y="-225.1602" font-family="Helvetica,sans-Serif" font-size="11.00" fill="#000000">pregunta_respuesta_id</text>
<polygon fill="none" stroke="#000000" points="942.5,-196.0602 942.5,-218.0602 1143.5,-218.0602 1143.5,-196.0602 942.5,-196.0602"/>
<image xlink:href="../../images/foreignKeys.png" width="11px" height="12px" preserveAspectRatio="xMinYMin meet" x="947.5" y="-213.06"/>
<text text-anchor="start" x="962.5" y="-203.1602" font-family="Helvetica,sans-Serif" font-size="11.00" fill="#000000">respuesta_id</text>
<polygon fill="none" stroke="#000000" points="942.5,-174.0602 942.5,-196.0602 1143.5,-196.0602 1143.5,-174.0602 942.5,-174.0602"/>
<image xlink:href="../../images/foreignKeys.png" width="11px" height="12px" preserveAspectRatio="xMinYMin meet" x="947.5" y="-191.06"/>
<text text-anchor="start" x="962.5" y="-181.1602" font-family="Helvetica,sans-Serif" font-size="11.00" fill="#000000">pregunta_id</text>
<polygon fill="none" stroke="#000000" points="942.5,-155.0602 942.5,-174.0602 1143.5,-174.0602 1143.5,-155.0602 942.5,-155.0602"/>
<text text-anchor="start" x="945.5" y="-161.1602" font-family="Helvetica,sans-Serif" font-size="11.00" fill="#000000">...</text>
<polygon fill="#ffffff" stroke="transparent" points="942.5,-136.0602 942.5,-155.0602 1028.5,-155.0602 1028.5,-136.0602 942.5,-136.0602"/>
<polygon fill="none" stroke="#000000" points="942.5,-136.0602 942.5,-155.0602 1028.5,-155.0602 1028.5,-136.0602 942.5,-136.0602"/>
<text text-anchor="start" x="945.5" y="-142.1602" font-family="Helvetica,sans-Serif" font-size="11.00" fill="#000000">&lt; 2</text>
<polygon fill="#ffffff" stroke="transparent" points="1028.5,-136.0602 1028.5,-155.0602 1098.5,-155.0602 1098.5,-136.0602 1028.5,-136.0602"/>
<polygon fill="none" stroke="#000000" points="1028.5,-136.0602 1028.5,-155.0602 1098.5,-155.0602 1098.5,-136.0602 1028.5,-136.0602"/>
<text text-anchor="start" x="1063.1105" y="-142.1602" font-family="Helvetica,sans-Serif" font-size="11.00" fill="#000000">0 rows</text>
<polygon fill="#ffffff" stroke="transparent" points="1098.5,-136.0602 1098.5,-155.0602 1143.5,-155.0602 1143.5,-136.0602 1098.5,-136.0602"/>
<polygon fill="none" stroke="#000000" points="1098.5,-136.0602 1098.5,-155.0602 1143.5,-155.0602 1143.5,-136.0602 1098.5,-136.0602"/>
<text text-anchor="start" x="1134.3862" y="-142.1602" font-family="Helvetica,sans-Serif" font-size="11.00" fill="#000000"> &#160;</text>
</a>
</g>
</g>
<!-- encuesta_preguntas -->
<g id="node7" class="node">
<title>encuesta_preguntas</title>
<g id="a_node7"><a xlink:href="../../tables/encuesta_preguntas.html" xlink:title="encuesta_preguntas" target="_top">
<polygon fill="#ffffff" stroke="transparent" points="702.5,-81.5602 702.5,-142.5602 844.5,-142.5602 844.5,-81.5602 702.5,-81.5602"/>
<polygon fill="#f5f5f5" stroke="transparent" points="702.5,-119.0602 702.5,-142.0602 844.5,-142.0602 844.5,-119.0602 702.5,-119.0602"/>
<polygon fill="none" stroke="#000000" points="702.5,-119.0602 702.5,-142.0602 844.5,-142.0602 844.5,-119.0602 702.5,-119.0602"/>
<text text-anchor="start" x="707.1727" y="-128.1602" font-family="Helvetica,sans-Serif" font-weight="bold" font-size="11.00" fill="#000000">encuesta_preguntas</text>
<text text-anchor="start" x="810.0219" y="-127.1602" font-family="Helvetica,sans-Serif" font-size="11.00" fill="#000000">[table]</text>
<polygon fill="none" stroke="#000000" points="702.5,-100.0602 702.5,-119.0602 844.5,-119.0602 844.5,-100.0602 702.5,-100.0602"/>
<text text-anchor="start" x="705.5" y="-106.1602" font-family="Helvetica,sans-Serif" font-size="11.00" fill="#000000">...</text>
<polygon fill="#ffffff" stroke="transparent" points="702.5,-81.0602 702.5,-100.0602 749.5,-100.0602 749.5,-81.0602 702.5,-81.0602"/>
<polygon fill="none" stroke="#000000" points="702.5,-81.0602 702.5,-100.0602 749.5,-100.0602 749.5,-81.0602 702.5,-81.0602"/>
<text text-anchor="start" x="705.5" y="-87.1602" font-family="Helvetica,sans-Serif" font-size="11.00" fill="#000000"> &#160;</text>
<polygon fill="#ffffff" stroke="transparent" points="749.5,-81.0602 749.5,-100.0602 805.5,-100.0602 805.5,-81.0602 749.5,-81.0602"/>
<polygon fill="none" stroke="#000000" points="749.5,-81.0602 749.5,-100.0602 805.5,-100.0602 805.5,-81.0602 749.5,-81.0602"/>
<text text-anchor="start" x="770.1105" y="-87.1602" font-family="Helvetica,sans-Serif" font-size="11.00" fill="#000000">2 rows</text>
<polygon fill="#ffffff" stroke="transparent" points="805.5,-81.0602 805.5,-100.0602 844.5,-100.0602 844.5,-81.0602 805.5,-81.0602"/>
<polygon fill="none" stroke="#000000" points="805.5,-81.0602 805.5,-100.0602 844.5,-100.0602 844.5,-81.0602 805.5,-81.0602"/>
<text text-anchor="start" x="825.9053" y="-87.1602" font-family="Helvetica,sans-Serif" font-size="11.00" fill="#000000">2 &gt;</text>
</a>
</g>
</g>
<!-- encuesta_pregunta_respuestas&#45;&gt;encuesta_preguntas -->
<g id="edge5" class="edge">
<title>encuesta_pregunta_respuestas:w&#45;&gt;encuesta_preguntas:e</title>
<path fill="none" stroke="#000000" d="M930.7609,-176.342C905.0177,-156.3793 845.8591,-109.0602 844.5,-109.0602"/>
<polygon fill="#000000" stroke="#000000" points="936.0774,-180.2904 940.3536,-187.9503 939.2887,-182.6753 942.5,-185.0602 942.5,-185.0602 942.5,-185.0602 939.2887,-182.6753 944.6464,-182.17 936.0774,-180.2904 936.0774,-180.2904"/>
<ellipse fill="none" stroke="#000000" cx="933.5084" cy="-178.3825" rx="3.2" ry="3.2"/>
</g>
<!-- encuesta_respuestas -->
<g id="node8" class="node">
<title>encuesta_respuestas</title>
<g id="a_node8"><a xlink:href="../../tables/encuesta_respuestas.html" xlink:title="encuesta_respuestas" target="_top">
<polygon fill="#ffffff" stroke="transparent" points="654,-164.0602 654,-320.0602 893,-320.0602 893,-164.0602 654,-164.0602"/>
<polygon fill="#f5f5f5" stroke="transparent" points="656.5,-295.0602 656.5,-318.0602 891.5,-318.0602 891.5,-295.0602 656.5,-295.0602"/>
<polygon fill="none" stroke="#000000" points="656.5,-295.0602 656.5,-318.0602 891.5,-318.0602 891.5,-295.0602 656.5,-295.0602"/>
<text text-anchor="start" x="661.5" y="-304.1602" font-family="Helvetica,sans-Serif" font-weight="bold" font-size="11.00" fill="#000000">encuesta_respuestas</text>
<text text-anchor="start" x="856.5437" y="-303.1602" font-family="Helvetica,sans-Serif" font-size="11.00" fill="#000000">[table]</text>
<polygon fill="none" stroke="#000000" points="656.5,-273.0602 656.5,-295.0602 799.5,-295.0602 799.5,-273.0602 656.5,-273.0602"/>
<image xlink:href="../../images/primaryKeys.png" width="11px" height="12px" preserveAspectRatio="xMinYMin meet" x="661.5" y="-290.06"/>
<text text-anchor="start" x="676.5" y="-280.1602" font-family="Helvetica,sans-Serif" font-size="11.00" fill="#000000">respuesta_id</text>
<polygon fill="none" stroke="#000000" points="799.5,-273.0602 799.5,-295.0602 891.5,-295.0602 891.5,-273.0602 799.5,-273.0602"/>
<text text-anchor="start" x="802.5" y="-280.7602" font-family="Helvetica,sans-Serif" font-size="11.00" fill="#000000">serial[10]</text>
<polygon fill="none" stroke="#000000" points="656.5,-251.0602 656.5,-273.0602 799.5,-273.0602 799.5,-251.0602 656.5,-251.0602"/>
<image xlink:href="../../images/foreignKeys.png" width="11px" height="12px" preserveAspectRatio="xMinYMin meet" x="661.5" y="-268.06"/>
<text text-anchor="start" x="676.5" y="-258.1602" font-family="Helvetica,sans-Serif" font-size="11.00" fill="#000000">oportunidad_id</text>
<polygon fill="none" stroke="#000000" points="799.5,-251.0602 799.5,-273.0602 891.5,-273.0602 891.5,-251.0602 799.5,-251.0602"/>
<text text-anchor="start" x="802.5" y="-258.7602" font-family="Helvetica,sans-Serif" font-size="11.00" fill="#000000">int4[10]</text>
<polygon fill="none" stroke="#000000" points="656.5,-229.0602 656.5,-251.0602 799.5,-251.0602 799.5,-229.0602 656.5,-229.0602"/>
<image xlink:href="../../images/foreignKeys.png" width="11px" height="12px" preserveAspectRatio="xMinYMin meet" x="661.5" y="-246.06"/>
<text text-anchor="start" x="676.5" y="-236.1602" font-family="Helvetica,sans-Serif" font-size="11.00" fill="#000000">contacto_id</text>
<polygon fill="none" stroke="#000000" points="799.5,-229.0602 799.5,-251.0602 891.5,-251.0602 891.5,-229.0602 799.5,-229.0602"/>
<text text-anchor="start" x="802.5" y="-236.7602" font-family="Helvetica,sans-Serif" font-size="11.00" fill="#000000">int4[10]</text>
<polygon fill="none" stroke="#000000" points="656.5,-207.0602 656.5,-229.0602 799.5,-229.0602 799.5,-207.0602 656.5,-207.0602"/>
<text text-anchor="start" x="676.5" y="-214.1602" font-family="Helvetica,sans-Serif" font-size="11.00" fill="#000000">fec_insercion</text>
<polygon fill="none" stroke="#000000" points="799.5,-207.0602 799.5,-229.0602 891.5,-229.0602 891.5,-207.0602 799.5,-207.0602"/>
<text text-anchor="start" x="802.1023" y="-214.7602" font-family="Helvetica,sans-Serif" font-size="11.00" fill="#000000">timestamptz[35,6]</text>
<polygon fill="none" stroke="#000000" points="656.5,-185.0602 656.5,-207.0602 799.5,-207.0602 799.5,-185.0602 656.5,-185.0602"/>
<text text-anchor="start" x="676.5" y="-192.1602" font-family="Helvetica,sans-Serif" font-size="11.00" fill="#000000">fec_modificacion</text>
<polygon fill="none" stroke="#000000" points="799.5,-185.0602 799.5,-207.0602 891.5,-207.0602 891.5,-185.0602 799.5,-185.0602"/>
<text text-anchor="start" x="802.1023" y="-192.7602" font-family="Helvetica,sans-Serif" font-size="11.00" fill="#000000">timestamptz[35,6]</text>
<polygon fill="#ffffff" stroke="transparent" points="656.5,-166.0602 656.5,-185.0602 719.5,-185.0602 719.5,-166.0602 656.5,-166.0602"/>
<polygon fill="none" stroke="#000000" points="656.5,-166.0602 656.5,-185.0602 719.5,-185.0602 719.5,-166.0602 656.5,-166.0602"/>
<text text-anchor="start" x="659.5" y="-172.1602" font-family="Helvetica,sans-Serif" font-size="11.00" fill="#000000">&lt; 2</text>
<polygon fill="#ffffff" stroke="transparent" points="719.5,-166.0602 719.5,-185.0602 799.5,-185.0602 799.5,-166.0602 719.5,-166.0602"/>
<polygon fill="none" stroke="#000000" points="719.5,-166.0602 719.5,-185.0602 799.5,-185.0602 799.5,-166.0602 719.5,-166.0602"/>
<text text-anchor="start" x="764.1105" y="-172.1602" font-family="Helvetica,sans-Serif" font-size="11.00" fill="#000000">0 rows</text>
<polygon fill="#ffffff" stroke="transparent" points="799.5,-166.0602 799.5,-185.0602 891.5,-185.0602 891.5,-166.0602 799.5,-166.0602"/>
<polygon fill="none" stroke="#000000" points="799.5,-166.0602 799.5,-185.0602 891.5,-185.0602 891.5,-166.0602 799.5,-166.0602"/>
<text text-anchor="start" x="872.9053" y="-172.1602" font-family="Helvetica,sans-Serif" font-size="11.00" fill="#000000">1 &gt;</text>
<polygon fill="none" stroke="#000000" stroke-width="2" points="655,-165.0602 655,-319.0602 892,-319.0602 892,-165.0602 655,-165.0602"/>
</a>
</g>
</g>
<!-- encuesta_pregunta_respuestas&#45;&gt;encuesta_respuestas -->
<g id="edge6" class="edge">
<title>encuesta_pregunta_respuestas:w&#45;&gt;encuesta_respuestas:e</title>
<path fill="none" stroke="#000000" d="M928.5177,-211.6463C909.094,-228.223 926.4549,-284.0602 891.5,-284.0602"/>
<polygon fill="#000000" stroke="#000000" points="934.8984,-209.5535 943.622,-210.4809 938.6992,-208.3068 942.5,-207.0602 942.5,-207.0602 942.5,-207.0602 938.6992,-208.3068 941.378,-203.6395 934.8984,-209.5535 934.8984,-209.5535"/>
<ellipse fill="none" stroke="#000000" cx="931.8578" cy="-210.5508" rx="3.2" ry="3.2"/>
</g>
<!-- encuesta_respuestas&#45;&gt;contactos -->
<g id="edge7" class="edge">
<title>encuesta_respuestas:w&#45;&gt;contactos:e</title>
<path fill="none" stroke="#000000" d="M641.9206,-238.2373C588.5832,-222.4835 672.5539,-108.8127 613,-62.0602 564.4072,-23.9126 524.2301,-26.0959 474,-62.0602 428.575,-94.5841 489.368,-181.0602 433.5,-181.0602"/>
<polygon fill="#000000" stroke="#000000" points="648.5618,-239.0676 656.0534,-243.6324 652.5309,-239.5639 656.5,-240.0602 656.5,-240.0602 656.5,-240.0602 652.5309,-239.5639 656.9466,-236.488 648.5618,-239.0676 648.5618,-239.0676"/>
<ellipse fill="none" stroke="#000000" cx="645.3865" cy="-238.6706" rx="3.2" ry="3.2"/>
</g>
<!-- oportunidades -->
<g id="node9" class="node">
<title>oportunidades</title>
<g id="a_node9"><a xlink:href="../../tables/oportunidades.html" xlink:title="oportunidades" target="_top">
<polygon fill="#ffffff" stroke="transparent" points="482,-318.5602 482,-489.5602 605,-489.5602 605,-318.5602 482,-318.5602"/>
<polygon fill="#f5f5f5" stroke="transparent" points="482.5,-466.0602 482.5,-489.0602 605.5,-489.0602 605.5,-466.0602 482.5,-466.0602"/>
<polygon fill="none" stroke="#000000" points="482.5,-466.0602 482.5,-489.0602 605.5,-489.0602 605.5,-466.0602 482.5,-466.0602"/>
<text text-anchor="start" x="487.5" y="-475.1602" font-family="Helvetica,sans-Serif" font-weight="bold" font-size="11.00" fill="#000000">oportunidades</text>
<text text-anchor="start" x="570.5437" y="-474.1602" font-family="Helvetica,sans-Serif" font-size="11.00" fill="#000000">[table]</text>
<polygon fill="none" stroke="#000000" points="482.5,-444.0602 482.5,-466.0602 605.5,-466.0602 605.5,-444.0602 482.5,-444.0602"/>
<image xlink:href="../../images/primaryKeys.png" width="11px" height="12px" preserveAspectRatio="xMinYMin meet" x="487.5" y="-461.06"/>
<text text-anchor="start" x="502.5" y="-451.1602" font-family="Helvetica,sans-Serif" font-size="11.00" fill="#000000">oportunidad_id</text>
<polygon fill="none" stroke="#000000" points="482.5,-422.0602 482.5,-444.0602 605.5,-444.0602 605.5,-422.0602 482.5,-422.0602"/>
<image xlink:href="../../images/foreignKeys.png" width="11px" height="12px" preserveAspectRatio="xMinYMin meet" x="487.5" y="-439.06"/>
<text text-anchor="start" x="502.5" y="-429.1602" font-family="Helvetica,sans-Serif" font-size="11.00" fill="#000000">campana_id</text>
<polygon fill="none" stroke="#000000" points="482.5,-400.0602 482.5,-422.0602 605.5,-422.0602 605.5,-400.0602 482.5,-400.0602"/>
<image xlink:href="../../images/foreignKeys.png" width="11px" height="12px" preserveAspectRatio="xMinYMin meet" x="487.5" y="-417.06"/>
<text text-anchor="start" x="502.5" y="-407.1602" font-family="Helvetica,sans-Serif" font-size="11.00" fill="#000000">contacto_id</text>
<polygon fill="none" stroke="#000000" points="482.5,-378.0602 482.5,-400.0602 605.5,-400.0602 605.5,-378.0602 482.5,-378.0602"/>
<image xlink:href="../../images/foreignKeys.png" width="11px" height="12px" preserveAspectRatio="xMinYMin meet" x="487.5" y="-395.06"/>
<text text-anchor="start" x="502.5" y="-385.1602" font-family="Helvetica,sans-Serif" font-size="11.00" fill="#000000">curso_id</text>
<polygon fill="none" stroke="#000000" points="482.5,-356.0602 482.5,-378.0602 605.5,-378.0602 605.5,-356.0602 482.5,-356.0602"/>
<image xlink:href="../../images/foreignKeys.png" width="11px" height="12px" preserveAspectRatio="xMinYMin meet" x="487.5" y="-373.06"/>
<text text-anchor="start" x="502.5" y="-363.1602" font-family="Helvetica,sans-Serif" font-size="11.00" fill="#000000">usu_asignado_id</text>
<polygon fill="none" stroke="#000000" points="482.5,-337.0602 482.5,-356.0602 605.5,-356.0602 605.5,-337.0602 482.5,-337.0602"/>
<text text-anchor="start" x="485.5" y="-343.1602" font-family="Helvetica,sans-Serif" font-size="11.00" fill="#000000">...</text>
<polygon fill="#ffffff" stroke="transparent" points="482.5,-318.0602 482.5,-337.0602 524.5,-337.0602 524.5,-318.0602 482.5,-318.0602"/>
<polygon fill="none" stroke="#000000" points="482.5,-318.0602 482.5,-337.0602 524.5,-337.0602 524.5,-318.0602 482.5,-318.0602"/>
<text text-anchor="start" x="485.5" y="-324.1602" font-family="Helvetica,sans-Serif" font-size="11.00" fill="#000000">&lt; 4</text>
<polygon fill="#ffffff" stroke="transparent" points="524.5,-318.0602 524.5,-337.0602 573.5,-337.0602 573.5,-318.0602 524.5,-318.0602"/>
<polygon fill="none" stroke="#000000" points="524.5,-318.0602 524.5,-337.0602 573.5,-337.0602 573.5,-318.0602 524.5,-318.0602"/>
<text text-anchor="start" x="538.1105" y="-324.1602" font-family="Helvetica,sans-Serif" font-size="11.00" fill="#000000">6 rows</text>
<polygon fill="#ffffff" stroke="transparent" points="573.5,-318.0602 573.5,-337.0602 605.5,-337.0602 605.5,-318.0602 573.5,-318.0602"/>
<polygon fill="none" stroke="#000000" points="573.5,-318.0602 573.5,-337.0602 605.5,-337.0602 605.5,-318.0602 573.5,-318.0602"/>
<text text-anchor="start" x="586.9053" y="-324.1602" font-family="Helvetica,sans-Serif" font-size="11.00" fill="#000000">1 &gt;</text>
</a>
</g>
</g>
<!-- encuesta_respuestas&#45;&gt;oportunidades -->
<g id="edge8" class="edge">
<title>encuesta_respuestas:w&#45;&gt;oportunidades:e</title>
<path fill="none" stroke="#000000" d="M641.9111,-264.3621C583.1835,-286.1373 688.5037,-455.0602 605.5,-455.0602"/>
<polygon fill="#000000" stroke="#000000" points="648.5978,-263.3071 657.0611,-265.6162 652.5489,-262.6836 656.5,-262.0602 656.5,-262.0602 656.5,-262.0602 652.5489,-262.6836 655.9389,-258.5042 648.5978,-263.3071 648.5978,-263.3071"/>
<ellipse fill="none" stroke="#000000" cx="645.4369" cy="-263.8059" rx="3.2" ry="3.2"/>
</g>
<!-- oportunidades&#45;&gt;contactos -->
<g id="edge12" class="edge">
<title>oportunidades:w&#45;&gt;contactos:e</title>
<path fill="none" stroke="#000000" d="M468.0947,-409.2088C394.1265,-387.442 532.5047,-181.0602 433.5,-181.0602"/>
<polygon fill="#000000" stroke="#000000" points="474.5653,-410.0404 482.0411,-414.6308 478.5326,-410.5503 482.5,-411.0602 482.5,-411.0602 482.5,-411.0602 478.5326,-410.5503 482.9589,-407.4896 474.5653,-410.0404 474.5653,-410.0404"/>
<ellipse fill="none" stroke="#000000" cx="471.3914" cy="-409.6324" rx="3.2" ry="3.2"/>
</g>
<!-- oportunidades&#45;&gt;usuarios -->
<g id="edge14" class="edge">
<title>oportunidades:w&#45;&gt;usuarios:e</title>
<path fill="none" stroke="#000000" d="M468.0536,-363.8647C435.0192,-346.4794 462.789,-264.0602 413.5,-264.0602"/>
<polygon fill="#000000" stroke="#000000" points="474.6888,-365.3323 481.7225,-370.5752 478.5944,-366.1963 482.5,-367.0602 482.5,-367.0602 482.5,-367.0602 478.5944,-366.1963 483.2775,-363.5452 474.6888,-365.3323 474.6888,-365.3323"/>
<ellipse fill="none" stroke="#000000" cx="471.5643" cy="-364.6412" rx="3.2" ry="3.2"/>
</g>
<!-- campanas -->
<g id="node11" class="node">
<title>campanas</title>
<g id="a_node11"><a xlink:href="../../tables/campanas.html" xlink:title="campanas" target="_top">
<polygon fill="#ffffff" stroke="transparent" points="325,-424.5602 325,-485.5602 418,-485.5602 418,-424.5602 325,-424.5602"/>
<polygon fill="#f5f5f5" stroke="transparent" points="325.5,-462.0602 325.5,-485.0602 418.5,-485.0602 418.5,-462.0602 325.5,-462.0602"/>
<polygon fill="none" stroke="#000000" points="325.5,-462.0602 325.5,-485.0602 418.5,-485.0602 418.5,-462.0602 325.5,-462.0602"/>
<text text-anchor="start" x="330.1318" y="-471.1602" font-family="Helvetica,sans-Serif" font-weight="bold" font-size="11.00" fill="#000000">campanas</text>
<text text-anchor="start" x="384.0219" y="-470.1602" font-family="Helvetica,sans-Serif" font-size="11.00" fill="#000000">[table]</text>
<polygon fill="none" stroke="#000000" points="325.5,-443.0602 325.5,-462.0602 418.5,-462.0602 418.5,-443.0602 325.5,-443.0602"/>
<text text-anchor="start" x="328.5" y="-449.1602" font-family="Helvetica,sans-Serif" font-size="11.00" fill="#000000">...</text>
<polygon fill="#ffffff" stroke="transparent" points="325.5,-424.0602 325.5,-443.0602 348.5,-443.0602 348.5,-424.0602 325.5,-424.0602"/>
<polygon fill="none" stroke="#000000" points="325.5,-424.0602 325.5,-443.0602 348.5,-443.0602 348.5,-424.0602 325.5,-424.0602"/>
<text text-anchor="start" x="328.5" y="-430.1602" font-family="Helvetica,sans-Serif" font-size="11.00" fill="#000000"> &#160;</text>
<polygon fill="#ffffff" stroke="transparent" points="348.5,-424.0602 348.5,-443.0602 391.5,-443.0602 391.5,-424.0602 348.5,-424.0602"/>
<polygon fill="none" stroke="#000000" points="348.5,-424.0602 348.5,-443.0602 391.5,-443.0602 391.5,-424.0602 348.5,-424.0602"/>
<text text-anchor="start" x="356.1105" y="-430.1602" font-family="Helvetica,sans-Serif" font-size="11.00" fill="#000000">2 rows</text>
<polygon fill="#ffffff" stroke="transparent" points="391.5,-424.0602 391.5,-443.0602 418.5,-443.0602 418.5,-424.0602 391.5,-424.0602"/>
<polygon fill="none" stroke="#000000" points="391.5,-424.0602 391.5,-443.0602 418.5,-443.0602 418.5,-424.0602 391.5,-424.0602"/>
<text text-anchor="start" x="399.9053" y="-430.1602" font-family="Helvetica,sans-Serif" font-size="11.00" fill="#000000">2 &gt;</text>
</a>
</g>
</g>
<!-- oportunidades&#45;&gt;campanas -->
<g id="edge11" class="edge">
<title>oportunidades:w&#45;&gt;campanas:e</title>
<path fill="none" stroke="#000000" d="M468.1183,-434.8136C450.2027,-439.5172 442.6081,-452.0602 418.5,-452.0602"/>
<polygon fill="#000000" stroke="#000000" points="474.5588,-434.0284 482.9357,-436.6337 478.5294,-433.5443 482.5,-433.0602 482.5,-433.0602 482.5,-433.0602 478.5294,-433.5443 482.0643,-429.4866 474.5588,-434.0284 474.5588,-434.0284"/>
<ellipse fill="none" stroke="#000000" cx="471.3823" cy="-434.4157" rx="3.2" ry="3.2"/>
</g>
<!-- cursos -->
<g id="node12" class="node">
<title>cursos</title>
<g id="a_node12"><a xlink:href="../../tables/cursos.html" xlink:title="cursos" target="_top">
<polygon fill="#ffffff" stroke="transparent" points="334,-342.5602 334,-403.5602 409,-403.5602 409,-342.5602 334,-342.5602"/>
<polygon fill="#f5f5f5" stroke="transparent" points="334.5,-380.0602 334.5,-403.0602 409.5,-403.0602 409.5,-380.0602 334.5,-380.0602"/>
<polygon fill="none" stroke="#000000" points="334.5,-380.0602 334.5,-403.0602 409.5,-403.0602 409.5,-380.0602 334.5,-380.0602"/>
<text text-anchor="start" x="339.3042" y="-389.1602" font-family="Helvetica,sans-Serif" font-weight="bold" font-size="11.00" fill="#000000">cursos</text>
<text text-anchor="start" x="375.0219" y="-388.1602" font-family="Helvetica,sans-Serif" font-size="11.00" fill="#000000">[table]</text>
<polygon fill="none" stroke="#000000" points="334.5,-361.0602 334.5,-380.0602 409.5,-380.0602 409.5,-361.0602 334.5,-361.0602"/>
<text text-anchor="start" x="337.5" y="-367.1602" font-family="Helvetica,sans-Serif" font-size="11.00" fill="#000000">...</text>
<polygon fill="#ffffff" stroke="transparent" points="334.5,-342.0602 334.5,-361.0602 351.5,-361.0602 351.5,-342.0602 334.5,-342.0602"/>
<polygon fill="none" stroke="#000000" points="334.5,-342.0602 334.5,-361.0602 351.5,-361.0602 351.5,-342.0602 334.5,-342.0602"/>
<text text-anchor="start" x="337.5" y="-348.1602" font-family="Helvetica,sans-Serif" font-size="11.00" fill="#000000"> &#160;</text>
<polygon fill="#ffffff" stroke="transparent" points="351.5,-342.0602 351.5,-361.0602 385.5,-361.0602 385.5,-342.0602 351.5,-342.0602"/>
<polygon fill="none" stroke="#000000" points="351.5,-342.0602 351.5,-361.0602 385.5,-361.0602 385.5,-342.0602 351.5,-342.0602"/>
<text text-anchor="start" x="355.6105" y="-348.1602" font-family="Helvetica,sans-Serif" font-size="11.00" fill="#000000">1 row</text>
<polygon fill="#ffffff" stroke="transparent" points="385.5,-342.0602 385.5,-361.0602 409.5,-361.0602 409.5,-342.0602 385.5,-342.0602"/>
<polygon fill="none" stroke="#000000" points="385.5,-342.0602 385.5,-361.0602 409.5,-361.0602 409.5,-342.0602 385.5,-342.0602"/>
<text text-anchor="start" x="390.9053" y="-348.1602" font-family="Helvetica,sans-Serif" font-size="11.00" fill="#000000">3 &gt;</text>
</a>
</g>
</g>
<!-- oportunidades&#45;&gt;cursos -->
<g id="edge13" class="edge">
<title>oportunidades:w&#45;&gt;cursos:e</title>
<path fill="none" stroke="#000000" d="M467.9824,-387.6938C446.2803,-383.3372 437.5251,-370.0602 409.5,-370.0602"/>
<polygon fill="#000000" stroke="#000000" points="474.5352,-388.3105 482.1626,-392.6443 478.5176,-388.6853 482.5,-389.0602 482.5,-389.0602 482.5,-389.0602 478.5176,-388.6853 482.8374,-385.476 474.5352,-388.3105 474.5352,-388.3105"/>
<ellipse fill="none" stroke="#000000" cx="471.3493" cy="-388.0106" rx="3.2" ry="3.2"/>
</g>
<!-- llamadas -->
<g id="node10" class="node">
<title>llamadas</title>
<g id="a_node10"><a xlink:href="../../tables/llamadas.html" xlink:title="llamadas" target="_top">
<polygon fill="#ffffff" stroke="transparent" points="500,-154.5602 500,-215.5602 587,-215.5602 587,-154.5602 500,-154.5602"/>
<polygon fill="#f5f5f5" stroke="transparent" points="500.5,-192.0602 500.5,-215.0602 587.5,-215.0602 587.5,-192.0602 500.5,-192.0602"/>
<polygon fill="none" stroke="#000000" points="500.5,-192.0602 500.5,-215.0602 587.5,-215.0602 587.5,-192.0602 500.5,-192.0602"/>
<text text-anchor="start" x="505.4984" y="-201.1602" font-family="Helvetica,sans-Serif" font-weight="bold" font-size="11.00" fill="#000000">llamadas</text>
<text text-anchor="start" x="553.0219" y="-200.1602" font-family="Helvetica,sans-Serif" font-size="11.00" fill="#000000">[table]</text>
<polygon fill="none" stroke="#000000" points="500.5,-173.0602 500.5,-192.0602 587.5,-192.0602 587.5,-173.0602 500.5,-173.0602"/>
<text text-anchor="start" x="503.5" y="-179.1602" font-family="Helvetica,sans-Serif" font-size="11.00" fill="#000000">...</text>
<polygon fill="#ffffff" stroke="transparent" points="500.5,-154.0602 500.5,-173.0602 529.5,-173.0602 529.5,-154.0602 500.5,-154.0602"/>
<polygon fill="none" stroke="#000000" points="500.5,-154.0602 500.5,-173.0602 529.5,-173.0602 529.5,-154.0602 500.5,-154.0602"/>
<text text-anchor="start" x="503.5" y="-160.1602" font-family="Helvetica,sans-Serif" font-size="11.00" fill="#000000">&lt; 3</text>
<polygon fill="#ffffff" stroke="transparent" points="529.5,-154.0602 529.5,-173.0602 571.5,-173.0602 571.5,-154.0602 529.5,-154.0602"/>
<polygon fill="none" stroke="#000000" points="529.5,-154.0602 529.5,-173.0602 571.5,-173.0602 571.5,-154.0602 529.5,-154.0602"/>
<text text-anchor="start" x="536.1105" y="-160.1602" font-family="Helvetica,sans-Serif" font-size="11.00" fill="#000000">0 rows</text>
<polygon fill="#ffffff" stroke="transparent" points="571.5,-154.0602 571.5,-173.0602 587.5,-173.0602 587.5,-154.0602 571.5,-154.0602"/>
<polygon fill="none" stroke="#000000" points="571.5,-154.0602 571.5,-173.0602 587.5,-173.0602 587.5,-154.0602 571.5,-154.0602"/>
<text text-anchor="start" x="578.3862" y="-160.1602" font-family="Helvetica,sans-Serif" font-size="11.00" fill="#000000"> &#160;</text>
</a>
</g>
</g>
<!-- llamadas&#45;&gt;contactos -->
<g id="edge9" class="edge">
<title>llamadas:w&#45;&gt;contactos:e</title>
<path fill="none" stroke="#000000" d="M486.0799,-181.9714C467.2347,-181.7267 457.8135,-181.0602 433.5,-181.0602"/>
<polygon fill="#000000" stroke="#000000" points="492.5002,-182.0109 500.4778,-185.6601 496.5001,-182.0355 500.5,-182.0602 500.5,-182.0602 500.5,-182.0602 496.5001,-182.0355 500.5222,-178.4603 492.5002,-182.0109 492.5002,-182.0109"/>
<ellipse fill="none" stroke="#000000" cx="489.3002" cy="-181.9912" rx="3.2" ry="3.2"/>
</g>
<!-- llamadas&#45;&gt;usuarios -->
<g id="edge10" class="edge">
<title>llamadas:w&#45;&gt;usuarios:e</title>
<path fill="none" stroke="#000000" d="M485.9341,-184.6042C450.6245,-198.4449 461.0308,-264.0602 413.5,-264.0602"/>
<polygon fill="#000000" stroke="#000000" points="492.6193,-183.4366 501.1194,-185.6065 496.5596,-182.7484 500.5,-182.0602 500.5,-182.0602 500.5,-182.0602 496.5596,-182.7484 499.8806,-178.5139 492.6193,-183.4366 492.6193,-183.4366"/>
<ellipse fill="none" stroke="#000000" cx="489.467" cy="-183.9872" rx="3.2" ry="3.2"/>
</g>
<!-- tareas -->
<g id="node13" class="node">
<title>tareas</title>
<g id="a_node13"><a xlink:href="../../tables/tareas.html" xlink:title="tareas" target="_top">
<polygon fill="#ffffff" stroke="transparent" points="507,-72.5602 507,-133.5602 580,-133.5602 580,-72.5602 507,-72.5602"/>
<polygon fill="#f5f5f5" stroke="transparent" points="507.5,-110.0602 507.5,-133.0602 580.5,-133.0602 580.5,-110.0602 507.5,-110.0602"/>
<polygon fill="none" stroke="#000000" points="507.5,-110.0602 507.5,-133.0602 580.5,-133.0602 580.5,-110.0602 507.5,-110.0602"/>
<text text-anchor="start" x="512.2183" y="-119.1602" font-family="Helvetica,sans-Serif" font-weight="bold" font-size="11.00" fill="#000000">tareas</text>
<text text-anchor="start" x="546.0219" y="-118.1602" font-family="Helvetica,sans-Serif" font-size="11.00" fill="#000000">[table]</text>
<polygon fill="none" stroke="#000000" points="507.5,-91.0602 507.5,-110.0602 580.5,-110.0602 580.5,-91.0602 507.5,-91.0602"/>
<text text-anchor="start" x="510.5" y="-97.1602" font-family="Helvetica,sans-Serif" font-size="11.00" fill="#000000">...</text>
<polygon fill="#ffffff" stroke="transparent" points="507.5,-72.0602 507.5,-91.0602 529.5,-91.0602 529.5,-72.0602 507.5,-72.0602"/>
<polygon fill="none" stroke="#000000" points="507.5,-72.0602 507.5,-91.0602 529.5,-91.0602 529.5,-72.0602 507.5,-72.0602"/>
<text text-anchor="start" x="510.5" y="-78.1602" font-family="Helvetica,sans-Serif" font-size="11.00" fill="#000000">&lt; 3</text>
<polygon fill="#ffffff" stroke="transparent" points="529.5,-72.0602 529.5,-91.0602 567.5,-91.0602 567.5,-72.0602 529.5,-72.0602"/>
<polygon fill="none" stroke="#000000" points="529.5,-72.0602 529.5,-91.0602 567.5,-91.0602 567.5,-72.0602 529.5,-72.0602"/>
<text text-anchor="start" x="532.3053" y="-78.1602" font-family="Helvetica,sans-Serif" font-size="11.00" fill="#000000">0 rows</text>
<polygon fill="#ffffff" stroke="transparent" points="567.5,-72.0602 567.5,-91.0602 580.5,-91.0602 580.5,-72.0602 567.5,-72.0602"/>
<polygon fill="none" stroke="#000000" points="567.5,-72.0602 567.5,-91.0602 580.5,-91.0602 580.5,-72.0602 567.5,-72.0602"/>
<text text-anchor="start" x="571.3862" y="-78.1602" font-family="Helvetica,sans-Serif" font-size="11.00" fill="#000000"> &#160;</text>
</a>
</g>
</g>
<!-- tareas&#45;&gt;contactos -->
<g id="edge16" class="edge">
<title>tareas:w&#45;&gt;contactos:e</title>
<path fill="none" stroke="#000000" d="M493.1027,-103.1366C463.2591,-117.9322 476.5472,-181.0602 433.5,-181.0602"/>
<polygon fill="#000000" stroke="#000000" points="499.6766,-101.7319 508.2523,-103.5807 503.5883,-100.896 507.5,-100.0602 507.5,-100.0602 507.5,-100.0602 503.5883,-100.896 506.7477,-96.5397 499.6766,-101.7319 499.6766,-101.7319"/>
<ellipse fill="none" stroke="#000000" cx="496.5472" cy="-102.4006" rx="3.2" ry="3.2"/>
</g>
<!-- tareas&#45;&gt;usuarios -->
<g id="edge17" class="edge">
<title>tareas:w&#45;&gt;usuarios:e</title>
<path fill="none" stroke="#000000" d="M493.1403,-102.0162C432.3729,-120.5195 492.098,-264.0602 413.5,-264.0602"/>
<polygon fill="#000000" stroke="#000000" points="499.5732,-101.14 507.9859,-103.6272 503.5366,-100.6001 507.5,-100.0602 507.5,-100.0602 507.5,-100.0602 503.5366,-100.6001 507.0141,-96.4931 499.5732,-101.14 499.5732,-101.14"/>
<ellipse fill="none" stroke="#000000" cx="496.4025" cy="-101.5719" rx="3.2" ry="3.2"/>
</g>
</g>
</svg>
