<?xml version="1.0" encoding="UTF-8" standalone="no"?>
<!DOCTYPE svg PUBLIC "-//W3C//DTD SVG 1.1//EN"
 "http://www.w3.org/Graphics/SVG/1.1/DTD/svg11.dtd">
<!-- Generated by graphviz version 2.40.1 (20161225.0304)
 -->
<!-- Title: twoDegreesRelationshipsDiagram Pages: 1 -->
<svg width="501pt" height="311pt"
 viewBox="0.00 0.00 501.00 310.70" xmlns="http://www.w3.org/2000/svg" xmlns:xlink="http://www.w3.org/1999/xlink">
<g id="graph0" class="graph" transform="scale(1 1) rotate(0) translate(4 306.7)">
<title>twoDegreesRelationshipsDiagram</title>
<polygon fill="#ffffff" stroke="transparent" points="-4,4 -4,-306.7 497,-306.7 497,4 -4,4"/>
<text text-anchor="middle" x="72.4936" y="-7.3" font-family="Helvetica,sans-Serif" font-size="11.00" fill="#000000">Generated by SchemaSpy</text>
<!-- encuesta_pregunta_opciones -->
<g id="node1" class="node">
<title>encuesta_pregunta_opciones</title>
<g id="a_node1"><a xlink:href="../../tables/encuesta_pregunta_opciones.html" xlink:title="encuesta_pregunta_opciones" target="_top">
<polygon fill="#ffffff" stroke="transparent" points="199,-120.7 199,-298.7 485,-298.7 485,-120.7 199,-120.7"/>
<polygon fill="#f5f5f5" stroke="transparent" points="201,-273.7 201,-296.7 483,-296.7 483,-273.7 201,-273.7"/>
<polygon fill="none" stroke="#000000" points="201,-273.7 201,-296.7 483,-296.7 483,-273.7 201,-273.7"/>
<text text-anchor="start" x="206" y="-282.8" font-family="Helvetica,sans-Serif" font-weight="bold" font-size="11.00" fill="#000000">encuesta_pregunta_opciones</text>
<text text-anchor="start" x="448.0437" y="-281.8" font-family="Helvetica,sans-Serif" font-size="11.00" fill="#000000">[table]</text>
<polygon fill="none" stroke="#000000" points="201,-251.7 201,-273.7 391,-273.7 391,-251.7 201,-251.7"/>
<image xlink:href="../../images/primaryKeys.png" width="11px" height="12px" preserveAspectRatio="xMinYMin meet" x="206" y="-268.7"/>
<text text-anchor="start" x="221" y="-258.8" font-family="Helvetica,sans-Serif" font-size="11.00" fill="#000000">opcion_id</text>
<polygon fill="none" stroke="#000000" points="391,-251.7 391,-273.7 483,-273.7 483,-251.7 391,-251.7"/>
<text text-anchor="start" x="394" y="-259.4" font-family="Helvetica,sans-Serif" font-size="11.00" fill="#000000">serial[10]</text>
<polygon fill="none" stroke="#000000" points="201,-229.7 201,-251.7 391,-251.7 391,-229.7 201,-229.7"/>
<image xlink:href="../../images/foreignKeys.png" width="11px" height="12px" preserveAspectRatio="xMinYMin meet" x="206" y="-246.7"/>
<text text-anchor="start" x="221" y="-236.8" font-family="Helvetica,sans-Serif" font-size="11.00" fill="#000000">pregunta_id</text>
<polygon fill="none" stroke="#000000" points="391,-229.7 391,-251.7 483,-251.7 483,-229.7 391,-229.7"/>
<text text-anchor="start" x="394" y="-237.4" font-family="Helvetica,sans-Serif" font-size="11.00" fill="#000000">int4[10]</text>
<polygon fill="none" stroke="#000000" points="201,-207.7 201,-229.7 391,-229.7 391,-207.7 201,-207.7"/>
<text text-anchor="start" x="221" y="-214.8" font-family="Helvetica,sans-Serif" font-size="11.00" fill="#000000">etiqueta</text>
<polygon fill="none" stroke="#000000" points="391,-207.7 391,-229.7 483,-229.7 483,-207.7 391,-207.7"/>
<text text-anchor="start" x="394" y="-215.4" font-family="Helvetica,sans-Serif" font-size="11.00" fill="#000000">varchar[255]</text>
<polygon fill="none" stroke="#000000" points="201,-185.7 201,-207.7 391,-207.7 391,-185.7 201,-185.7"/>
<text text-anchor="start" x="221" y="-192.8" font-family="Helvetica,sans-Serif" font-size="11.00" fill="#000000">valor</text>
<polygon fill="none" stroke="#000000" points="391,-185.7 391,-207.7 483,-207.7 483,-185.7 391,-185.7"/>
<text text-anchor="start" x="394" y="-193.4" font-family="Helvetica,sans-Serif" font-size="11.00" fill="#000000">int4[10]</text>
<polygon fill="none" stroke="#000000" points="201,-163.7 201,-185.7 391,-185.7 391,-163.7 201,-163.7"/>
<text text-anchor="start" x="221" y="-170.8" font-family="Helvetica,sans-Serif" font-size="11.00" fill="#000000">fec_insercion</text>
<polygon fill="none" stroke="#000000" points="391,-163.7 391,-185.7 483,-185.7 483,-163.7 391,-163.7"/>
<text text-anchor="start" x="393.6023" y="-171.4" font-family="Helvetica,sans-Serif" font-size="11.00" fill="#000000">timestamptz[35,6]</text>
<polygon fill="none" stroke="#000000" points="201,-141.7 201,-163.7 391,-163.7 391,-141.7 201,-141.7"/>
<text text-anchor="start" x="221" y="-148.8" font-family="Helvetica,sans-Serif" font-size="11.00" fill="#000000">fec_modificacion</text>
<polygon fill="none" stroke="#000000" points="391,-141.7 391,-163.7 483,-163.7 483,-141.7 391,-141.7"/>
<text text-anchor="start" x="393.6023" y="-149.4" font-family="Helvetica,sans-Serif" font-size="11.00" fill="#000000">timestamptz[35,6]</text>
<polygon fill="#ffffff" stroke="transparent" points="201,-122.7 201,-141.7 287,-141.7 287,-122.7 201,-122.7"/>
<polygon fill="none" stroke="#000000" points="201,-122.7 201,-141.7 287,-141.7 287,-122.7 201,-122.7"/>
<text text-anchor="start" x="204" y="-128.8" font-family="Helvetica,sans-Serif" font-size="11.00" fill="#000000">&lt; 1</text>
<polygon fill="#ffffff" stroke="transparent" points="287,-122.7 287,-141.7 391,-141.7 391,-122.7 287,-122.7"/>
<polygon fill="none" stroke="#000000" points="287,-122.7 287,-141.7 391,-141.7 391,-122.7 287,-122.7"/>
<text text-anchor="start" x="355.6105" y="-128.8" font-family="Helvetica,sans-Serif" font-size="11.00" fill="#000000">5 rows</text>
<polygon fill="#ffffff" stroke="transparent" points="391,-122.7 391,-141.7 483,-141.7 483,-122.7 391,-122.7"/>
<polygon fill="none" stroke="#000000" points="391,-122.7 391,-141.7 483,-141.7 483,-122.7 391,-122.7"/>
<text text-anchor="start" x="464.4053" y="-128.8" font-family="Helvetica,sans-Serif" font-size="11.00" fill="#000000">0 &gt;</text>
<polygon fill="none" stroke="#000000" stroke-width="2" points="200,-121.7 200,-297.7 484,-297.7 484,-121.7 200,-121.7"/>
</a>
</g>
</g>
<!-- encuesta_preguntas -->
<g id="node2" class="node">
<title>encuesta_preguntas</title>
<g id="a_node2"><a xlink:href="../../tables/encuesta_preguntas.html" xlink:title="encuesta_preguntas" target="_top">
<polygon fill="#ffffff" stroke="transparent" points="8,-104.2 8,-187.2 150,-187.2 150,-104.2 8,-104.2"/>
<polygon fill="#f5f5f5" stroke="transparent" points="8,-163.7 8,-186.7 150,-186.7 150,-163.7 8,-163.7"/>
<polygon fill="none" stroke="#000000" points="8,-163.7 8,-186.7 150,-186.7 150,-163.7 8,-163.7"/>
<text text-anchor="start" x="12.6727" y="-172.8" font-family="Helvetica,sans-Serif" font-weight="bold" font-size="11.00" fill="#000000">encuesta_preguntas</text>
<text text-anchor="start" x="115.5219" y="-171.8" font-family="Helvetica,sans-Serif" font-size="11.00" fill="#000000">[table]</text>
<polygon fill="none" stroke="#000000" points="8,-141.7 8,-163.7 150,-163.7 150,-141.7 8,-141.7"/>
<image xlink:href="../../images/primaryKeys.png" width="11px" height="12px" preserveAspectRatio="xMinYMin meet" x="13" y="-158.7"/>
<text text-anchor="start" x="31" y="-148.8" font-family="Helvetica,sans-Serif" font-size="11.00" fill="#000000">pregunta_id</text>
<polygon fill="none" stroke="#000000" points="8,-122.7 8,-141.7 150,-141.7 150,-122.7 8,-122.7"/>
<text text-anchor="start" x="11" y="-128.8" font-family="Helvetica,sans-Serif" font-size="11.00" fill="#000000">...</text>
<polygon fill="#ffffff" stroke="transparent" points="8,-103.7 8,-122.7 55,-122.7 55,-103.7 8,-103.7"/>
<polygon fill="none" stroke="#000000" points="8,-103.7 8,-122.7 55,-122.7 55,-103.7 8,-103.7"/>
<text text-anchor="start" x="11" y="-109.8" font-family="Helvetica,sans-Serif" font-size="11.00" fill="#000000"> &#160;</text>
<polygon fill="#ffffff" stroke="transparent" points="55,-103.7 55,-122.7 111,-122.7 111,-103.7 55,-103.7"/>
<polygon fill="none" stroke="#000000" points="55,-103.7 55,-122.7 111,-122.7 111,-103.7 55,-103.7"/>
<text text-anchor="start" x="75.6105" y="-109.8" font-family="Helvetica,sans-Serif" font-size="11.00" fill="#000000">2 rows</text>
<polygon fill="#ffffff" stroke="transparent" points="111,-103.7 111,-122.7 150,-122.7 150,-103.7 111,-103.7"/>
<polygon fill="none" stroke="#000000" points="111,-103.7 111,-122.7 150,-122.7 150,-103.7 111,-103.7"/>
<text text-anchor="start" x="131.4053" y="-109.8" font-family="Helvetica,sans-Serif" font-size="11.00" fill="#000000">2 &gt;</text>
</a>
</g>
</g>
<!-- encuesta_pregunta_opciones&#45;&gt;encuesta_preguntas -->
<g id="edge1" class="edge">
<title>encuesta_pregunta_opciones:w&#45;&gt;encuesta_preguntas:e</title>
<path fill="none" stroke="#000000" d="M187.0699,-236.4556C164.7709,-218.8772 189.2009,-152.7 150,-152.7"/>
<polygon fill="#000000" stroke="#000000" points="193.3473,-238.3682 199.9507,-244.1437 197.1737,-239.5341 201,-240.7 201,-240.7 201,-240.7 197.1737,-239.5341 202.0493,-237.2563 193.3473,-238.3682 193.3473,-238.3682"/>
<ellipse fill="none" stroke="#000000" cx="190.2863" cy="-237.4355" rx="3.2" ry="3.2"/>
</g>
<!-- encuesta_pregunta_respuestas -->
<g id="node3" class="node">
<title>encuesta_pregunta_respuestas</title>
<g id="a_node3"><a xlink:href="../../tables/encuesta_pregunta_respuestas.html" xlink:title="encuesta_pregunta_respuestas" target="_top">
<polygon fill="#ffffff" stroke="transparent" points="243.5,-38.2 243.5,-99.2 440.5,-99.2 440.5,-38.2 243.5,-38.2"/>
<polygon fill="#f5f5f5" stroke="transparent" points="244,-75.7 244,-98.7 441,-98.7 441,-75.7 244,-75.7"/>
<polygon fill="none" stroke="#000000" points="244,-75.7 244,-98.7 441,-98.7 441,-75.7 244,-75.7"/>
<text text-anchor="start" x="248.9687" y="-84.8" font-family="Helvetica,sans-Serif" font-weight="bold" font-size="11.00" fill="#000000">encuesta_pregunta_respuestas</text>
<text text-anchor="start" x="406.5219" y="-83.8" font-family="Helvetica,sans-Serif" font-size="11.00" fill="#000000">[table]</text>
<polygon fill="none" stroke="#000000" points="244,-56.7 244,-75.7 441,-75.7 441,-56.7 244,-56.7"/>
<text text-anchor="start" x="247" y="-62.8" font-family="Helvetica,sans-Serif" font-size="11.00" fill="#000000">...</text>
<polygon fill="#ffffff" stroke="transparent" points="244,-37.7 244,-56.7 328,-56.7 328,-37.7 244,-37.7"/>
<polygon fill="none" stroke="#000000" points="244,-37.7 244,-56.7 328,-56.7 328,-37.7 244,-37.7"/>
<text text-anchor="start" x="247" y="-43.8" font-family="Helvetica,sans-Serif" font-size="11.00" fill="#000000">&lt; 2</text>
<polygon fill="#ffffff" stroke="transparent" points="328,-37.7 328,-56.7 397,-56.7 397,-37.7 328,-37.7"/>
<polygon fill="none" stroke="#000000" points="328,-37.7 328,-56.7 397,-56.7 397,-37.7 328,-37.7"/>
<text text-anchor="start" x="361.6105" y="-43.8" font-family="Helvetica,sans-Serif" font-size="11.00" fill="#000000">0 rows</text>
<polygon fill="#ffffff" stroke="transparent" points="397,-37.7 397,-56.7 441,-56.7 441,-37.7 397,-37.7"/>
<polygon fill="none" stroke="#000000" points="397,-37.7 397,-56.7 441,-56.7 441,-37.7 397,-37.7"/>
<text text-anchor="start" x="431.8862" y="-43.8" font-family="Helvetica,sans-Serif" font-size="11.00" fill="#000000"> &#160;</text>
</a>
</g>
</g>
<!-- encuesta_pregunta_respuestas&#45;&gt;encuesta_preguntas -->
<g id="edge2" class="edge">
<title>encuesta_pregunta_respuestas:w&#45;&gt;encuesta_preguntas:e</title>
<path fill="none" stroke="#000000" d="M229.5705,-68.0465C212.4733,-74.5705 209.3586,-93.5733 191,-110.7 171.9253,-128.4947 176.0863,-152.7 150,-152.7"/>
<polygon fill="#000000" stroke="#000000" points="236.1037,-66.9841 244.5779,-69.2533 240.0519,-66.3421 244,-65.7 244,-65.7 244,-65.7 240.0519,-66.3421 243.4221,-62.1467 236.1037,-66.9841 236.1037,-66.9841"/>
<ellipse fill="none" stroke="#000000" cx="232.9452" cy="-67.4978" rx="3.2" ry="3.2"/>
</g>
</g>
</svg>
