<?xml version="1.0" encoding="UTF-8" standalone="no"?>
<!DOCTYPE svg PUBLIC "-//W3C//DTD SVG 1.1//EN"
 "http://www.w3.org/Graphics/SVG/1.1/DTD/svg11.dtd">
<!-- Generated by graphviz version 2.40.1 (20161225.0304)
 -->
<!-- Title: twoDegreesRelationshipsDiagram Pages: 1 -->
<svg width="1159pt" height="495pt"
 viewBox="0.00 0.00 1159.00 495.20" xmlns="http://www.w3.org/2000/svg" xmlns:xlink="http://www.w3.org/1999/xlink">
<g id="graph0" class="graph" transform="scale(1 1) rotate(0) translate(4 491.2)">
<title>twoDegreesRelationshipsDiagram</title>
<polygon fill="#ffffff" stroke="transparent" points="-4,4 -4,-491.2 1155,-491.2 1155,4 -4,4"/>
<text text-anchor="middle" x="72.4936" y="-7.3" font-family="Helvetica,sans-Serif" font-size="11.00" fill="#000000">Generated by SchemaSpy</text>
<!-- casos -->
<g id="node1" class="node">
<title>casos</title>
<g id="a_node1"><a xlink:href="../../tables/casos.html" xlink:title="casos" target="_top">
<polygon fill="#ffffff" stroke="transparent" points="508,-38.2 508,-99.2 579,-99.2 579,-38.2 508,-38.2"/>
<polygon fill="#f5f5f5" stroke="transparent" points="508.5,-75.7 508.5,-98.7 579.5,-98.7 579.5,-75.7 508.5,-75.7"/>
<polygon fill="none" stroke="#000000" points="508.5,-75.7 508.5,-98.7 579.5,-98.7 579.5,-75.7 508.5,-75.7"/>
<text text-anchor="start" x="513.1351" y="-84.8" font-family="Helvetica,sans-Serif" font-weight="bold" font-size="11.00" fill="#000000">casos</text>
<text text-anchor="start" x="545.0219" y="-83.8" font-family="Helvetica,sans-Serif" font-size="11.00" fill="#000000">[table]</text>
<polygon fill="none" stroke="#000000" points="508.5,-56.7 508.5,-75.7 579.5,-75.7 579.5,-56.7 508.5,-56.7"/>
<text text-anchor="start" x="511.5" y="-62.8" font-family="Helvetica,sans-Serif" font-size="11.00" fill="#000000">...</text>
<polygon fill="#ffffff" stroke="transparent" points="508.5,-37.7 508.5,-56.7 529.5,-56.7 529.5,-37.7 508.5,-37.7"/>
<polygon fill="none" stroke="#000000" points="508.5,-37.7 508.5,-56.7 529.5,-56.7 529.5,-37.7 508.5,-37.7"/>
<text text-anchor="start" x="511.2027" y="-43.8" font-family="Helvetica,sans-Serif" font-size="11.00" fill="#000000">&lt; 3</text>
<polygon fill="#ffffff" stroke="transparent" points="529.5,-37.7 529.5,-56.7 567.5,-56.7 567.5,-37.7 529.5,-37.7"/>
<polygon fill="none" stroke="#000000" points="529.5,-37.7 529.5,-56.7 567.5,-56.7 567.5,-37.7 529.5,-37.7"/>
<text text-anchor="start" x="532.3053" y="-43.8" font-family="Helvetica,sans-Serif" font-size="11.00" fill="#000000">0 rows</text>
<polygon fill="#ffffff" stroke="transparent" points="567.5,-37.7 567.5,-56.7 579.5,-56.7 579.5,-37.7 567.5,-37.7"/>
<polygon fill="none" stroke="#000000" points="567.5,-37.7 567.5,-56.7 579.5,-56.7 579.5,-37.7 567.5,-37.7"/>
<text text-anchor="start" x="570.4431" y="-43.8" font-family="Helvetica,sans-Serif" font-size="11.00" fill="#000000"> &#160;</text>
</a>
</g>
</g>
<!-- contactos -->
<g id="node2" class="node">
<title>contactos</title>
<g id="a_node2"><a xlink:href="../../tables/contactos.html" xlink:title="contactos" target="_top">
<polygon fill="#ffffff" stroke="transparent" points="310,-153.2 310,-280.2 433,-280.2 433,-153.2 310,-153.2"/>
<polygon fill="#f5f5f5" stroke="transparent" points="310.5,-256.7 310.5,-279.7 433.5,-279.7 433.5,-256.7 310.5,-256.7"/>
<polygon fill="none" stroke="#000000" points="310.5,-256.7 310.5,-279.7 433.5,-279.7 433.5,-256.7 310.5,-256.7"/>
<text text-anchor="start" x="315.5" y="-265.8" font-family="Helvetica,sans-Serif" font-weight="bold" font-size="11.00" fill="#000000">contactos</text>
<text text-anchor="start" x="398.5437" y="-264.8" font-family="Helvetica,sans-Serif" font-size="11.00" fill="#000000">[table]</text>
<polygon fill="none" stroke="#000000" points="310.5,-234.7 310.5,-256.7 433.5,-256.7 433.5,-234.7 310.5,-234.7"/>
<image xlink:href="../../images/primaryKeys.png" width="11px" height="12px" preserveAspectRatio="xMinYMin meet" x="315.5" y="-251.7"/>
<text text-anchor="start" x="330.5" y="-241.8" font-family="Helvetica,sans-Serif" font-size="11.00" fill="#000000">contacto_id</text>
<polygon fill="none" stroke="#000000" points="310.5,-212.7 310.5,-234.7 433.5,-234.7 433.5,-212.7 310.5,-212.7"/>
<image xlink:href="../../images/foreignKeys.png" width="11px" height="12px" preserveAspectRatio="xMinYMin meet" x="315.5" y="-229.7"/>
<text text-anchor="start" x="330.5" y="-219.8" font-family="Helvetica,sans-Serif" font-size="11.00" fill="#000000">persona_id</text>
<polygon fill="none" stroke="#000000" points="310.5,-190.7 310.5,-212.7 433.5,-212.7 433.5,-190.7 310.5,-190.7"/>
<image xlink:href="../../images/foreignKeys.png" width="11px" height="12px" preserveAspectRatio="xMinYMin meet" x="315.5" y="-207.7"/>
<text text-anchor="start" x="330.5" y="-197.8" font-family="Helvetica,sans-Serif" font-size="11.00" fill="#000000">organizacion_id</text>
<polygon fill="none" stroke="#000000" points="310.5,-171.7 310.5,-190.7 433.5,-190.7 433.5,-171.7 310.5,-171.7"/>
<text text-anchor="start" x="313.5" y="-177.8" font-family="Helvetica,sans-Serif" font-size="11.00" fill="#000000">...</text>
<polygon fill="#ffffff" stroke="transparent" points="310.5,-152.7 310.5,-171.7 352.5,-171.7 352.5,-152.7 310.5,-152.7"/>
<polygon fill="none" stroke="#000000" points="310.5,-152.7 310.5,-171.7 352.5,-171.7 352.5,-152.7 310.5,-152.7"/>
<text text-anchor="start" x="313.5" y="-158.8" font-family="Helvetica,sans-Serif" font-size="11.00" fill="#000000">&lt; 2</text>
<polygon fill="#ffffff" stroke="transparent" points="352.5,-152.7 352.5,-171.7 401.5,-171.7 401.5,-152.7 352.5,-152.7"/>
<polygon fill="none" stroke="#000000" points="352.5,-152.7 352.5,-171.7 401.5,-171.7 401.5,-152.7 352.5,-152.7"/>
<text text-anchor="start" x="366.1105" y="-158.8" font-family="Helvetica,sans-Serif" font-size="11.00" fill="#000000">0 rows</text>
<polygon fill="#ffffff" stroke="transparent" points="401.5,-152.7 401.5,-171.7 433.5,-171.7 433.5,-152.7 401.5,-152.7"/>
<polygon fill="none" stroke="#000000" points="401.5,-152.7 401.5,-171.7 433.5,-171.7 433.5,-152.7 401.5,-152.7"/>
<text text-anchor="start" x="414.9053" y="-158.8" font-family="Helvetica,sans-Serif" font-size="11.00" fill="#000000">5 &gt;</text>
</a>
</g>
</g>
<!-- casos&#45;&gt;contactos -->
<g id="edge1" class="edge">
<title>casos:w&#45;&gt;contactos:e</title>
<path fill="none" stroke="#000000" d="M493.9487,-67.8469C433.7406,-88.1554 514.5807,-245.7 433.5,-245.7"/>
<polygon fill="#000000" stroke="#000000" points="500.5857,-66.8677 509.0255,-69.2614 504.5428,-66.2839 508.5,-65.7 508.5,-65.7 508.5,-65.7 504.5428,-66.2839 507.9745,-62.1386 500.5857,-66.8677 500.5857,-66.8677"/>
<ellipse fill="none" stroke="#000000" cx="497.4199" cy="-67.3348" rx="3.2" ry="3.2"/>
</g>
<!-- usuarios -->
<g id="node3" class="node">
<title>usuarios</title>
<g id="a_node3"><a xlink:href="../../tables/usuarios.html" xlink:title="usuarios" target="_top">
<polygon fill="#ffffff" stroke="transparent" points="329.5,-71.2 329.5,-132.2 413.5,-132.2 413.5,-71.2 329.5,-71.2"/>
<polygon fill="#f5f5f5" stroke="transparent" points="329.5,-108.7 329.5,-131.7 413.5,-131.7 413.5,-108.7 329.5,-108.7"/>
<polygon fill="none" stroke="#000000" points="329.5,-108.7 329.5,-131.7 413.5,-131.7 413.5,-108.7 329.5,-108.7"/>
<text text-anchor="start" x="334.2188" y="-117.8" font-family="Helvetica,sans-Serif" font-weight="bold" font-size="11.00" fill="#000000">usuarios</text>
<text text-anchor="start" x="379.0219" y="-116.8" font-family="Helvetica,sans-Serif" font-size="11.00" fill="#000000">[table]</text>
<polygon fill="none" stroke="#000000" points="329.5,-89.7 329.5,-108.7 413.5,-108.7 413.5,-89.7 329.5,-89.7"/>
<text text-anchor="start" x="332.5" y="-95.8" font-family="Helvetica,sans-Serif" font-size="11.00" fill="#000000">...</text>
<polygon fill="#ffffff" stroke="transparent" points="329.5,-70.7 329.5,-89.7 350.5,-89.7 350.5,-70.7 329.5,-70.7"/>
<polygon fill="none" stroke="#000000" points="329.5,-70.7 329.5,-89.7 350.5,-89.7 350.5,-70.7 329.5,-70.7"/>
<text text-anchor="start" x="332.5" y="-76.8" font-family="Helvetica,sans-Serif" font-size="11.00" fill="#000000"> &#160;</text>
<polygon fill="#ffffff" stroke="transparent" points="350.5,-70.7 350.5,-89.7 387.5,-89.7 387.5,-70.7 350.5,-70.7"/>
<polygon fill="none" stroke="#000000" points="350.5,-70.7 350.5,-89.7 387.5,-89.7 387.5,-70.7 350.5,-70.7"/>
<text text-anchor="start" x="357.6105" y="-76.8" font-family="Helvetica,sans-Serif" font-size="11.00" fill="#000000">1 row</text>
<polygon fill="#ffffff" stroke="transparent" points="387.5,-70.7 387.5,-89.7 413.5,-89.7 413.5,-70.7 387.5,-70.7"/>
<polygon fill="none" stroke="#000000" points="387.5,-70.7 387.5,-89.7 413.5,-89.7 413.5,-70.7 387.5,-70.7"/>
<text text-anchor="start" x="394.9053" y="-76.8" font-family="Helvetica,sans-Serif" font-size="11.00" fill="#000000">5 &gt;</text>
</a>
</g>
</g>
<!-- casos&#45;&gt;usuarios -->
<g id="edge2" class="edge">
<title>casos:w&#45;&gt;usuarios:e</title>
<path fill="none" stroke="#000000" d="M493.8432,-67.0345C461.872,-73.2083 452.7845,-98.7 413.5,-98.7"/>
<polygon fill="#000000" stroke="#000000" points="500.533,-66.4255 508.8265,-69.2852 504.5165,-66.0627 508.5,-65.7 508.5,-65.7 508.5,-65.7 504.5165,-66.0627 508.1735,-62.1148 500.533,-66.4255 500.533,-66.4255"/>
<ellipse fill="none" stroke="#000000" cx="497.3461" cy="-66.7156" rx="3.2" ry="3.2"/>
</g>
<!-- organizaciones -->
<g id="node4" class="node">
<title>organizaciones</title>
<g id="a_node4"><a xlink:href="../../tables/organizaciones.html" xlink:title="organizaciones" target="_top">
<polygon fill="#ffffff" stroke="transparent" points="145,-156.2 145,-217.2 261,-217.2 261,-156.2 145,-156.2"/>
<polygon fill="#f5f5f5" stroke="transparent" points="145,-193.7 145,-216.7 261,-216.7 261,-193.7 145,-193.7"/>
<polygon fill="none" stroke="#000000" points="145,-193.7 145,-216.7 261,-216.7 261,-193.7 145,-193.7"/>
<text text-anchor="start" x="149.5186" y="-202.8" font-family="Helvetica,sans-Serif" font-weight="bold" font-size="11.00" fill="#000000">organizaciones</text>
<text text-anchor="start" x="226.5219" y="-201.8" font-family="Helvetica,sans-Serif" font-size="11.00" fill="#000000">[table]</text>
<polygon fill="none" stroke="#000000" points="145,-174.7 145,-193.7 261,-193.7 261,-174.7 145,-174.7"/>
<text text-anchor="start" x="148" y="-180.8" font-family="Helvetica,sans-Serif" font-size="11.00" fill="#000000">...</text>
<polygon fill="#ffffff" stroke="transparent" points="145,-155.7 145,-174.7 184,-174.7 184,-155.7 145,-155.7"/>
<polygon fill="none" stroke="#000000" points="145,-155.7 145,-174.7 184,-174.7 184,-155.7 145,-155.7"/>
<text text-anchor="start" x="148" y="-161.8" font-family="Helvetica,sans-Serif" font-size="11.00" fill="#000000">&lt; 1</text>
<polygon fill="#ffffff" stroke="transparent" points="184,-155.7 184,-174.7 231,-174.7 231,-155.7 184,-155.7"/>
<polygon fill="none" stroke="#000000" points="184,-155.7 184,-174.7 231,-174.7 231,-155.7 184,-155.7"/>
<text text-anchor="start" x="195.6105" y="-161.8" font-family="Helvetica,sans-Serif" font-size="11.00" fill="#000000">0 rows</text>
<polygon fill="#ffffff" stroke="transparent" points="231,-155.7 231,-174.7 261,-174.7 261,-155.7 231,-155.7"/>
<polygon fill="none" stroke="#000000" points="231,-155.7 231,-174.7 261,-174.7 261,-155.7 231,-155.7"/>
<text text-anchor="start" x="242.4053" y="-161.8" font-family="Helvetica,sans-Serif" font-size="11.00" fill="#000000">1 &gt;</text>
</a>
</g>
</g>
<!-- contactos&#45;&gt;organizaciones -->
<g id="edge3" class="edge">
<title>contactos:w&#45;&gt;organizaciones:e</title>
<path fill="none" stroke="#000000" d="M296.1817,-198.8875C284.4545,-193.825 278.557,-183.7 261,-183.7"/>
<polygon fill="#000000" stroke="#000000" points="302.65,-200.158 309.8061,-205.2325 306.575,-200.929 310.5,-201.7 310.5,-201.7 310.5,-201.7 306.575,-200.929 311.1939,-198.1675 302.65,-200.158 302.65,-200.158"/>
<ellipse fill="none" stroke="#000000" cx="299.51" cy="-199.5412" rx="3.2" ry="3.2"/>
</g>
<!-- personas -->
<g id="node5" class="node">
<title>personas</title>
<g id="a_node5"><a xlink:href="../../tables/personas.html" xlink:title="personas" target="_top">
<polygon fill="#ffffff" stroke="transparent" points="8,-185.2 8,-246.2 96,-246.2 96,-185.2 8,-185.2"/>
<polygon fill="#f5f5f5" stroke="transparent" points="8,-222.7 8,-245.7 96,-245.7 96,-222.7 8,-222.7"/>
<polygon fill="none" stroke="#000000" points="8,-222.7 8,-245.7 96,-245.7 96,-222.7 8,-222.7"/>
<text text-anchor="start" x="12.8818" y="-231.8" font-family="Helvetica,sans-Serif" font-weight="bold" font-size="11.00" fill="#000000">personas</text>
<text text-anchor="start" x="61.5219" y="-230.8" font-family="Helvetica,sans-Serif" font-size="11.00" fill="#000000">[table]</text>
<polygon fill="none" stroke="#000000" points="8,-203.7 8,-222.7 96,-222.7 96,-203.7 8,-203.7"/>
<text text-anchor="start" x="11" y="-209.8" font-family="Helvetica,sans-Serif" font-size="11.00" fill="#000000">...</text>
<polygon fill="#ffffff" stroke="transparent" points="8,-184.7 8,-203.7 31,-203.7 31,-184.7 8,-184.7"/>
<polygon fill="none" stroke="#000000" points="8,-184.7 8,-203.7 31,-203.7 31,-184.7 8,-184.7"/>
<text text-anchor="start" x="11" y="-190.8" font-family="Helvetica,sans-Serif" font-size="11.00" fill="#000000"> &#160;</text>
<polygon fill="#ffffff" stroke="transparent" points="31,-184.7 31,-203.7 69,-203.7 69,-184.7 31,-184.7"/>
<polygon fill="none" stroke="#000000" points="31,-184.7 31,-203.7 69,-203.7 69,-184.7 31,-184.7"/>
<text text-anchor="start" x="39.1105" y="-190.8" font-family="Helvetica,sans-Serif" font-size="11.00" fill="#000000">1 row</text>
<polygon fill="#ffffff" stroke="transparent" points="69,-184.7 69,-203.7 96,-203.7 96,-184.7 69,-184.7"/>
<polygon fill="none" stroke="#000000" points="69,-184.7 69,-203.7 96,-203.7 96,-184.7 69,-184.7"/>
<text text-anchor="start" x="77.4053" y="-190.8" font-family="Helvetica,sans-Serif" font-size="11.00" fill="#000000">7 &gt;</text>
</a>
</g>
</g>
<!-- contactos&#45;&gt;personas -->
<g id="edge4" class="edge">
<title>contactos:w&#45;&gt;personas:e</title>
<path fill="none" stroke="#000000" d="M296.1002,-224.4821C287.6707,-225.4646 281.58,-227.0951 269,-227.7 210.401,-230.5175 194.7669,-237.9354 137,-227.7 117.8941,-224.3147 115.4034,-212.7 96,-212.7"/>
<polygon fill="#000000" stroke="#000000" points="302.5118,-224.1339 310.6953,-227.2947 306.5059,-223.917 310.5,-223.7 310.5,-223.7 310.5,-223.7 306.5059,-223.917 310.3047,-220.1053 302.5118,-224.1339 302.5118,-224.1339"/>
<ellipse fill="none" stroke="#000000" cx="299.3165" cy="-224.3075" rx="3.2" ry="3.2"/>
</g>
<!-- organizaciones&#45;&gt;personas -->
<g id="edge14" class="edge">
<title>organizaciones:w&#45;&gt;personas:e</title>
<path fill="none" stroke="#000000" d="M130.9495,-187.7323C118.971,-195.7007 115.3749,-212.7 96,-212.7"/>
<polygon fill="#000000" stroke="#000000" points="137.3104,-185.9069 145.9931,-187.1603 141.1552,-184.8034 145,-183.7 145,-183.7 145,-183.7 141.1552,-184.8034 144.0069,-180.2397 137.3104,-185.9069 137.3104,-185.9069"/>
<ellipse fill="none" stroke="#000000" cx="134.2346" cy="-186.7896" rx="3.2" ry="3.2"/>
</g>
<!-- encuesta_pregunta_respuestas -->
<g id="node6" class="node">
<title>encuesta_pregunta_respuestas</title>
<g id="a_node6"><a xlink:href="../../tables/encuesta_pregunta_respuestas.html" xlink:title="encuesta_pregunta_respuestas" target="_top">
<polygon fill="#ffffff" stroke="transparent" points="942,-253.2 942,-380.2 1143,-380.2 1143,-253.2 942,-253.2"/>
<polygon fill="#f5f5f5" stroke="transparent" points="942.5,-356.7 942.5,-379.7 1143.5,-379.7 1143.5,-356.7 942.5,-356.7"/>
<polygon fill="none" stroke="#000000" points="942.5,-356.7 942.5,-379.7 1143.5,-379.7 1143.5,-356.7 942.5,-356.7"/>
<text text-anchor="start" x="947.5" y="-365.8" font-family="Helvetica,sans-Serif" font-weight="bold" font-size="11.00" fill="#000000">encuesta_pregunta_respuestas</text>
<text text-anchor="start" x="1108.5437" y="-364.8" font-family="Helvetica,sans-Serif" font-size="11.00" fill="#000000">[table]</text>
<polygon fill="none" stroke="#000000" points="942.5,-334.7 942.5,-356.7 1143.5,-356.7 1143.5,-334.7 942.5,-334.7"/>
<image xlink:href="../../images/primaryKeys.png" width="11px" height="12px" preserveAspectRatio="xMinYMin meet" x="947.5" y="-351.7"/>
<text text-anchor="start" x="962.5" y="-341.8" font-family="Helvetica,sans-Serif" font-size="11.00" fill="#000000">pregunta_respuesta_id</text>
<polygon fill="none" stroke="#000000" points="942.5,-312.7 942.5,-334.7 1143.5,-334.7 1143.5,-312.7 942.5,-312.7"/>
<image xlink:href="../../images/foreignKeys.png" width="11px" height="12px" preserveAspectRatio="xMinYMin meet" x="947.5" y="-329.7"/>
<text text-anchor="start" x="962.5" y="-319.8" font-family="Helvetica,sans-Serif" font-size="11.00" fill="#000000">respuesta_id</text>
<polygon fill="none" stroke="#000000" points="942.5,-290.7 942.5,-312.7 1143.5,-312.7 1143.5,-290.7 942.5,-290.7"/>
<image xlink:href="../../images/foreignKeys.png" width="11px" height="12px" preserveAspectRatio="xMinYMin meet" x="947.5" y="-307.7"/>
<text text-anchor="start" x="962.5" y="-297.8" font-family="Helvetica,sans-Serif" font-size="11.00" fill="#000000">pregunta_id</text>
<polygon fill="none" stroke="#000000" points="942.5,-271.7 942.5,-290.7 1143.5,-290.7 1143.5,-271.7 942.5,-271.7"/>
<text text-anchor="start" x="945.5" y="-277.8" font-family="Helvetica,sans-Serif" font-size="11.00" fill="#000000">...</text>
<polygon fill="#ffffff" stroke="transparent" points="942.5,-252.7 942.5,-271.7 1028.5,-271.7 1028.5,-252.7 942.5,-252.7"/>
<polygon fill="none" stroke="#000000" points="942.5,-252.7 942.5,-271.7 1028.5,-271.7 1028.5,-252.7 942.5,-252.7"/>
<text text-anchor="start" x="945.5" y="-258.8" font-family="Helvetica,sans-Serif" font-size="11.00" fill="#000000">&lt; 2</text>
<polygon fill="#ffffff" stroke="transparent" points="1028.5,-252.7 1028.5,-271.7 1098.5,-271.7 1098.5,-252.7 1028.5,-252.7"/>
<polygon fill="none" stroke="#000000" points="1028.5,-252.7 1028.5,-271.7 1098.5,-271.7 1098.5,-252.7 1028.5,-252.7"/>
<text text-anchor="start" x="1063.1105" y="-258.8" font-family="Helvetica,sans-Serif" font-size="11.00" fill="#000000">0 rows</text>
<polygon fill="#ffffff" stroke="transparent" points="1098.5,-252.7 1098.5,-271.7 1143.5,-271.7 1143.5,-252.7 1098.5,-252.7"/>
<polygon fill="none" stroke="#000000" points="1098.5,-252.7 1098.5,-271.7 1143.5,-271.7 1143.5,-252.7 1098.5,-252.7"/>
<text text-anchor="start" x="1134.3862" y="-258.8" font-family="Helvetica,sans-Serif" font-size="11.00" fill="#000000"> &#160;</text>
</a>
</g>
</g>
<!-- encuesta_preguntas -->
<g id="node7" class="node">
<title>encuesta_preguntas</title>
<g id="a_node7"><a xlink:href="../../tables/encuesta_preguntas.html" xlink:title="encuesta_preguntas" target="_top">
<polygon fill="#ffffff" stroke="transparent" points="702.5,-198.2 702.5,-259.2 844.5,-259.2 844.5,-198.2 702.5,-198.2"/>
<polygon fill="#f5f5f5" stroke="transparent" points="702.5,-235.7 702.5,-258.7 844.5,-258.7 844.5,-235.7 702.5,-235.7"/>
<polygon fill="none" stroke="#000000" points="702.5,-235.7 702.5,-258.7 844.5,-258.7 844.5,-235.7 702.5,-235.7"/>
<text text-anchor="start" x="707.1727" y="-244.8" font-family="Helvetica,sans-Serif" font-weight="bold" font-size="11.00" fill="#000000">encuesta_preguntas</text>
<text text-anchor="start" x="810.0219" y="-243.8" font-family="Helvetica,sans-Serif" font-size="11.00" fill="#000000">[table]</text>
<polygon fill="none" stroke="#000000" points="702.5,-216.7 702.5,-235.7 844.5,-235.7 844.5,-216.7 702.5,-216.7"/>
<text text-anchor="start" x="705.5" y="-222.8" font-family="Helvetica,sans-Serif" font-size="11.00" fill="#000000">...</text>
<polygon fill="#ffffff" stroke="transparent" points="702.5,-197.7 702.5,-216.7 749.5,-216.7 749.5,-197.7 702.5,-197.7"/>
<polygon fill="none" stroke="#000000" points="702.5,-197.7 702.5,-216.7 749.5,-216.7 749.5,-197.7 702.5,-197.7"/>
<text text-anchor="start" x="705.5" y="-203.8" font-family="Helvetica,sans-Serif" font-size="11.00" fill="#000000"> &#160;</text>
<polygon fill="#ffffff" stroke="transparent" points="749.5,-197.7 749.5,-216.7 805.5,-216.7 805.5,-197.7 749.5,-197.7"/>
<polygon fill="none" stroke="#000000" points="749.5,-197.7 749.5,-216.7 805.5,-216.7 805.5,-197.7 749.5,-197.7"/>
<text text-anchor="start" x="770.1105" y="-203.8" font-family="Helvetica,sans-Serif" font-size="11.00" fill="#000000">2 rows</text>
<polygon fill="#ffffff" stroke="transparent" points="805.5,-197.7 805.5,-216.7 844.5,-216.7 844.5,-197.7 805.5,-197.7"/>
<polygon fill="none" stroke="#000000" points="805.5,-197.7 805.5,-216.7 844.5,-216.7 844.5,-197.7 805.5,-197.7"/>
<text text-anchor="start" x="825.9053" y="-203.8" font-family="Helvetica,sans-Serif" font-size="11.00" fill="#000000">2 &gt;</text>
</a>
</g>
</g>
<!-- encuesta_pregunta_respuestas&#45;&gt;encuesta_preguntas -->
<g id="edge5" class="edge">
<title>encuesta_pregunta_respuestas:w&#45;&gt;encuesta_preguntas:e</title>
<path fill="none" stroke="#000000" d="M929.52,-294.6863C904.2971,-275.8719 855.6959,-225.7 844.5,-225.7"/>
<polygon fill="#000000" stroke="#000000" points="935.4618,-297.8969 940.7886,-304.8672 938.9809,-299.7985 942.5,-301.7 942.5,-301.7 942.5,-301.7 938.9809,-299.7985 944.2114,-298.5328 935.4618,-297.8969 935.4618,-297.8969"/>
<ellipse fill="none" stroke="#000000" cx="932.6465" cy="-296.3757" rx="3.2" ry="3.2"/>
</g>
<!-- encuesta_respuestas -->
<g id="node8" class="node">
<title>encuesta_respuestas</title>
<g id="a_node8"><a xlink:href="../../tables/encuesta_respuestas.html" xlink:title="encuesta_respuestas" target="_top">
<polygon fill="#ffffff" stroke="transparent" points="654,-280.7 654,-436.7 893,-436.7 893,-280.7 654,-280.7"/>
<polygon fill="#f5f5f5" stroke="transparent" points="656.5,-411.7 656.5,-434.7 891.5,-434.7 891.5,-411.7 656.5,-411.7"/>
<polygon fill="none" stroke="#000000" points="656.5,-411.7 656.5,-434.7 891.5,-434.7 891.5,-411.7 656.5,-411.7"/>
<text text-anchor="start" x="661.5" y="-420.8" font-family="Helvetica,sans-Serif" font-weight="bold" font-size="11.00" fill="#000000">encuesta_respuestas</text>
<text text-anchor="start" x="856.5437" y="-419.8" font-family="Helvetica,sans-Serif" font-size="11.00" fill="#000000">[table]</text>
<polygon fill="none" stroke="#000000" points="656.5,-389.7 656.5,-411.7 799.5,-411.7 799.5,-389.7 656.5,-389.7"/>
<image xlink:href="../../images/primaryKeys.png" width="11px" height="12px" preserveAspectRatio="xMinYMin meet" x="661.5" y="-406.7"/>
<text text-anchor="start" x="676.5" y="-396.8" font-family="Helvetica,sans-Serif" font-size="11.00" fill="#000000">respuesta_id</text>
<polygon fill="none" stroke="#000000" points="799.5,-389.7 799.5,-411.7 891.5,-411.7 891.5,-389.7 799.5,-389.7"/>
<text text-anchor="start" x="802.5" y="-397.4" font-family="Helvetica,sans-Serif" font-size="11.00" fill="#000000">serial[10]</text>
<polygon fill="none" stroke="#000000" points="656.5,-367.7 656.5,-389.7 799.5,-389.7 799.5,-367.7 656.5,-367.7"/>
<image xlink:href="../../images/foreignKeys.png" width="11px" height="12px" preserveAspectRatio="xMinYMin meet" x="661.5" y="-384.7"/>
<text text-anchor="start" x="676.5" y="-374.8" font-family="Helvetica,sans-Serif" font-size="11.00" fill="#000000">oportunidad_id</text>
<polygon fill="none" stroke="#000000" points="799.5,-367.7 799.5,-389.7 891.5,-389.7 891.5,-367.7 799.5,-367.7"/>
<text text-anchor="start" x="802.5" y="-375.4" font-family="Helvetica,sans-Serif" font-size="11.00" fill="#000000">int4[10]</text>
<polygon fill="none" stroke="#000000" points="656.5,-345.7 656.5,-367.7 799.5,-367.7 799.5,-345.7 656.5,-345.7"/>
<image xlink:href="../../images/foreignKeys.png" width="11px" height="12px" preserveAspectRatio="xMinYMin meet" x="661.5" y="-362.7"/>
<text text-anchor="start" x="676.5" y="-352.8" font-family="Helvetica,sans-Serif" font-size="11.00" fill="#000000">contacto_id</text>
<polygon fill="none" stroke="#000000" points="799.5,-345.7 799.5,-367.7 891.5,-367.7 891.5,-345.7 799.5,-345.7"/>
<text text-anchor="start" x="802.5" y="-353.4" font-family="Helvetica,sans-Serif" font-size="11.00" fill="#000000">int4[10]</text>
<polygon fill="none" stroke="#000000" points="656.5,-323.7 656.5,-345.7 799.5,-345.7 799.5,-323.7 656.5,-323.7"/>
<text text-anchor="start" x="676.5" y="-330.8" font-family="Helvetica,sans-Serif" font-size="11.00" fill="#000000">fec_insercion</text>
<polygon fill="none" stroke="#000000" points="799.5,-323.7 799.5,-345.7 891.5,-345.7 891.5,-323.7 799.5,-323.7"/>
<text text-anchor="start" x="802.1023" y="-331.4" font-family="Helvetica,sans-Serif" font-size="11.00" fill="#000000">timestamptz[35,6]</text>
<polygon fill="none" stroke="#000000" points="656.5,-301.7 656.5,-323.7 799.5,-323.7 799.5,-301.7 656.5,-301.7"/>
<text text-anchor="start" x="676.5" y="-308.8" font-family="Helvetica,sans-Serif" font-size="11.00" fill="#000000">fec_modificacion</text>
<polygon fill="none" stroke="#000000" points="799.5,-301.7 799.5,-323.7 891.5,-323.7 891.5,-301.7 799.5,-301.7"/>
<text text-anchor="start" x="802.1023" y="-309.4" font-family="Helvetica,sans-Serif" font-size="11.00" fill="#000000">timestamptz[35,6]</text>
<polygon fill="#ffffff" stroke="transparent" points="656.5,-282.7 656.5,-301.7 719.5,-301.7 719.5,-282.7 656.5,-282.7"/>
<polygon fill="none" stroke="#000000" points="656.5,-282.7 656.5,-301.7 719.5,-301.7 719.5,-282.7 656.5,-282.7"/>
<text text-anchor="start" x="659.5" y="-288.8" font-family="Helvetica,sans-Serif" font-size="11.00" fill="#000000">&lt; 2</text>
<polygon fill="#ffffff" stroke="transparent" points="719.5,-282.7 719.5,-301.7 799.5,-301.7 799.5,-282.7 719.5,-282.7"/>
<polygon fill="none" stroke="#000000" points="719.5,-282.7 719.5,-301.7 799.5,-301.7 799.5,-282.7 719.5,-282.7"/>
<text text-anchor="start" x="764.1105" y="-288.8" font-family="Helvetica,sans-Serif" font-size="11.00" fill="#000000">0 rows</text>
<polygon fill="#ffffff" stroke="transparent" points="799.5,-282.7 799.5,-301.7 891.5,-301.7 891.5,-282.7 799.5,-282.7"/>
<polygon fill="none" stroke="#000000" points="799.5,-282.7 799.5,-301.7 891.5,-301.7 891.5,-282.7 799.5,-282.7"/>
<text text-anchor="start" x="872.9053" y="-288.8" font-family="Helvetica,sans-Serif" font-size="11.00" fill="#000000">1 &gt;</text>
<polygon fill="none" stroke="#000000" stroke-width="2" points="655,-281.7 655,-435.7 892,-435.7 892,-281.7 655,-281.7"/>
</a>
</g>
</g>
<!-- encuesta_pregunta_respuestas&#45;&gt;encuesta_respuestas -->
<g id="edge6" class="edge">
<title>encuesta_pregunta_respuestas:w&#45;&gt;encuesta_respuestas:e</title>
<path fill="none" stroke="#000000" d="M928.5177,-328.2861C909.094,-344.8628 926.4549,-400.7 891.5,-400.7"/>
<polygon fill="#000000" stroke="#000000" points="934.8984,-326.1933 943.622,-327.1207 938.6992,-324.9466 942.5,-323.7 942.5,-323.7 942.5,-323.7 938.6992,-324.9466 941.378,-320.2793 934.8984,-326.1933 934.8984,-326.1933"/>
<ellipse fill="none" stroke="#000000" cx="931.8578" cy="-327.1906" rx="3.2" ry="3.2"/>
</g>
<!-- encuesta_respuestas&#45;&gt;contactos -->
<g id="edge7" class="edge">
<title>encuesta_respuestas:w&#45;&gt;contactos:e</title>
<path fill="none" stroke="#000000" d="M642.4053,-352.4214C629.4327,-341.9008 634.1701,-314.6853 613,-301.7 559.2816,-268.7501 531.9988,-298.3474 474,-273.7 453.8602,-265.1413 455.383,-245.7 433.5,-245.7"/>
<polygon fill="#000000" stroke="#000000" points="648.8449,-354.3762 655.4543,-360.1448 652.6725,-355.5381 656.5,-356.7 656.5,-356.7 656.5,-356.7 652.6725,-355.5381 657.5457,-353.2552 648.8449,-354.3762 648.8449,-354.3762"/>
<ellipse fill="none" stroke="#000000" cx="645.7829" cy="-353.4466" rx="3.2" ry="3.2"/>
</g>
<!-- oportunidades -->
<g id="node9" class="node">
<title>oportunidades</title>
<g id="a_node9"><a xlink:href="../../tables/oportunidades.html" xlink:title="oportunidades" target="_top">
<polygon fill="#ffffff" stroke="transparent" points="482,-312.2 482,-483.2 605,-483.2 605,-312.2 482,-312.2"/>
<polygon fill="#f5f5f5" stroke="transparent" points="482.5,-459.7 482.5,-482.7 605.5,-482.7 605.5,-459.7 482.5,-459.7"/>
<polygon fill="none" stroke="#000000" points="482.5,-459.7 482.5,-482.7 605.5,-482.7 605.5,-459.7 482.5,-459.7"/>
<text text-anchor="start" x="487.5" y="-468.8" font-family="Helvetica,sans-Serif" font-weight="bold" font-size="11.00" fill="#000000">oportunidades</text>
<text text-anchor="start" x="570.5437" y="-467.8" font-family="Helvetica,sans-Serif" font-size="11.00" fill="#000000">[table]</text>
<polygon fill="none" stroke="#000000" points="482.5,-437.7 482.5,-459.7 605.5,-459.7 605.5,-437.7 482.5,-437.7"/>
<image xlink:href="../../images/primaryKeys.png" width="11px" height="12px" preserveAspectRatio="xMinYMin meet" x="487.5" y="-454.7"/>
<text text-anchor="start" x="502.5" y="-444.8" font-family="Helvetica,sans-Serif" font-size="11.00" fill="#000000">oportunidad_id</text>
<polygon fill="none" stroke="#000000" points="482.5,-415.7 482.5,-437.7 605.5,-437.7 605.5,-415.7 482.5,-415.7"/>
<image xlink:href="../../images/foreignKeys.png" width="11px" height="12px" preserveAspectRatio="xMinYMin meet" x="487.5" y="-432.7"/>
<text text-anchor="start" x="502.5" y="-422.8" font-family="Helvetica,sans-Serif" font-size="11.00" fill="#000000">campana_id</text>
<polygon fill="none" stroke="#000000" points="482.5,-393.7 482.5,-415.7 605.5,-415.7 605.5,-393.7 482.5,-393.7"/>
<image xlink:href="../../images/foreignKeys.png" width="11px" height="12px" preserveAspectRatio="xMinYMin meet" x="487.5" y="-410.7"/>
<text text-anchor="start" x="502.5" y="-400.8" font-family="Helvetica,sans-Serif" font-size="11.00" fill="#000000">contacto_id</text>
<polygon fill="none" stroke="#000000" points="482.5,-371.7 482.5,-393.7 605.5,-393.7 605.5,-371.7 482.5,-371.7"/>
<image xlink:href="../../images/foreignKeys.png" width="11px" height="12px" preserveAspectRatio="xMinYMin meet" x="487.5" y="-388.7"/>
<text text-anchor="start" x="502.5" y="-378.8" font-family="Helvetica,sans-Serif" font-size="11.00" fill="#000000">curso_id</text>
<polygon fill="none" stroke="#000000" points="482.5,-349.7 482.5,-371.7 605.5,-371.7 605.5,-349.7 482.5,-349.7"/>
<image xlink:href="../../images/foreignKeys.png" width="11px" height="12px" preserveAspectRatio="xMinYMin meet" x="487.5" y="-366.7"/>
<text text-anchor="start" x="502.5" y="-356.8" font-family="Helvetica,sans-Serif" font-size="11.00" fill="#000000">usu_asignado_id</text>
<polygon fill="none" stroke="#000000" points="482.5,-330.7 482.5,-349.7 605.5,-349.7 605.5,-330.7 482.5,-330.7"/>
<text text-anchor="start" x="485.5" y="-336.8" font-family="Helvetica,sans-Serif" font-size="11.00" fill="#000000">...</text>
<polygon fill="#ffffff" stroke="transparent" points="482.5,-311.7 482.5,-330.7 524.5,-330.7 524.5,-311.7 482.5,-311.7"/>
<polygon fill="none" stroke="#000000" points="482.5,-311.7 482.5,-330.7 524.5,-330.7 524.5,-311.7 482.5,-311.7"/>
<text text-anchor="start" x="485.5" y="-317.8" font-family="Helvetica,sans-Serif" font-size="11.00" fill="#000000">&lt; 4</text>
<polygon fill="#ffffff" stroke="transparent" points="524.5,-311.7 524.5,-330.7 573.5,-330.7 573.5,-311.7 524.5,-311.7"/>
<polygon fill="none" stroke="#000000" points="524.5,-311.7 524.5,-330.7 573.5,-330.7 573.5,-311.7 524.5,-311.7"/>
<text text-anchor="start" x="538.1105" y="-317.8" font-family="Helvetica,sans-Serif" font-size="11.00" fill="#000000">0 rows</text>
<polygon fill="#ffffff" stroke="transparent" points="573.5,-311.7 573.5,-330.7 605.5,-330.7 605.5,-311.7 573.5,-311.7"/>
<polygon fill="none" stroke="#000000" points="573.5,-311.7 573.5,-330.7 605.5,-330.7 605.5,-311.7 573.5,-311.7"/>
<text text-anchor="start" x="586.9053" y="-317.8" font-family="Helvetica,sans-Serif" font-size="11.00" fill="#000000">1 &gt;</text>
</a>
</g>
</g>
<!-- encuesta_respuestas&#45;&gt;oportunidades -->
<g id="edge8" class="edge">
<title>encuesta_respuestas:w&#45;&gt;oportunidades:e</title>
<path fill="none" stroke="#000000" d="M642.6872,-383.2929C624.5536,-398.866 637.9781,-448.7 605.5,-448.7"/>
<polygon fill="#000000" stroke="#000000" points="648.9087,-381.2242 657.6359,-382.1161 652.7043,-379.9621 656.5,-378.7 656.5,-378.7 656.5,-378.7 652.7043,-379.9621 655.3641,-375.2839 648.9087,-381.2242 648.9087,-381.2242"/>
<ellipse fill="none" stroke="#000000" cx="645.8721" cy="-382.2339" rx="3.2" ry="3.2"/>
</g>
<!-- oportunidades&#45;&gt;contactos -->
<g id="edge11" class="edge">
<title>oportunidades:w&#45;&gt;contactos:e</title>
<path fill="none" stroke="#000000" d="M468.1688,-401.9403C422.9508,-380.8267 501.6692,-245.7 433.5,-245.7"/>
<polygon fill="#000000" stroke="#000000" points="474.6443,-403.1872 481.8192,-408.2351 478.5722,-403.9436 482.5,-404.7 482.5,-404.7 482.5,-404.7 478.5722,-403.9436 483.1808,-401.1649 474.6443,-403.1872 474.6443,-403.1872"/>
<ellipse fill="none" stroke="#000000" cx="471.5021" cy="-402.5821" rx="3.2" ry="3.2"/>
</g>
<!-- oportunidades&#45;&gt;usuarios -->
<g id="edge13" class="edge">
<title>oportunidades:w&#45;&gt;usuarios:e</title>
<path fill="none" stroke="#000000" d="M468.8133,-354.7355C430.6302,-315.7367 468.2982,-98.7 413.5,-98.7"/>
<polygon fill="#000000" stroke="#000000" points="475.1661,-357.504 481.0618,-364.0002 478.8331,-359.102 482.5,-360.7 482.5,-360.7 482.5,-360.7 478.8331,-359.102 483.9382,-357.3998 475.1661,-357.504 475.1661,-357.504"/>
<ellipse fill="none" stroke="#000000" cx="472.2326" cy="-356.2255" rx="3.2" ry="3.2"/>
</g>
<!-- campanas -->
<g id="node11" class="node">
<title>campanas</title>
<g id="a_node11"><a xlink:href="../../tables/campanas.html" xlink:title="campanas" target="_top">
<polygon fill="#ffffff" stroke="transparent" points="325,-418.2 325,-479.2 418,-479.2 418,-418.2 325,-418.2"/>
<polygon fill="#f5f5f5" stroke="transparent" points="325.5,-455.7 325.5,-478.7 418.5,-478.7 418.5,-455.7 325.5,-455.7"/>
<polygon fill="none" stroke="#000000" points="325.5,-455.7 325.5,-478.7 418.5,-478.7 418.5,-455.7 325.5,-455.7"/>
<text text-anchor="start" x="330.1318" y="-464.8" font-family="Helvetica,sans-Serif" font-weight="bold" font-size="11.00" fill="#000000">campanas</text>
<text text-anchor="start" x="384.0219" y="-463.8" font-family="Helvetica,sans-Serif" font-size="11.00" fill="#000000">[table]</text>
<polygon fill="none" stroke="#000000" points="325.5,-436.7 325.5,-455.7 418.5,-455.7 418.5,-436.7 325.5,-436.7"/>
<text text-anchor="start" x="328.5" y="-442.8" font-family="Helvetica,sans-Serif" font-size="11.00" fill="#000000">...</text>
<polygon fill="#ffffff" stroke="transparent" points="325.5,-417.7 325.5,-436.7 348.5,-436.7 348.5,-417.7 325.5,-417.7"/>
<polygon fill="none" stroke="#000000" points="325.5,-417.7 325.5,-436.7 348.5,-436.7 348.5,-417.7 325.5,-417.7"/>
<text text-anchor="start" x="328.5" y="-423.8" font-family="Helvetica,sans-Serif" font-size="11.00" fill="#000000"> &#160;</text>
<polygon fill="#ffffff" stroke="transparent" points="348.5,-417.7 348.5,-436.7 391.5,-436.7 391.5,-417.7 348.5,-417.7"/>
<polygon fill="none" stroke="#000000" points="348.5,-417.7 348.5,-436.7 391.5,-436.7 391.5,-417.7 348.5,-417.7"/>
<text text-anchor="start" x="356.1105" y="-423.8" font-family="Helvetica,sans-Serif" font-size="11.00" fill="#000000">0 rows</text>
<polygon fill="#ffffff" stroke="transparent" points="391.5,-417.7 391.5,-436.7 418.5,-436.7 418.5,-417.7 391.5,-417.7"/>
<polygon fill="none" stroke="#000000" points="391.5,-417.7 391.5,-436.7 418.5,-436.7 418.5,-417.7 391.5,-417.7"/>
<text text-anchor="start" x="399.9053" y="-423.8" font-family="Helvetica,sans-Serif" font-size="11.00" fill="#000000">2 &gt;</text>
</a>
</g>
</g>
<!-- oportunidades&#45;&gt;campanas -->
<g id="edge10" class="edge">
<title>oportunidades:w&#45;&gt;campanas:e</title>
<path fill="none" stroke="#000000" d="M468.1183,-428.4534C450.2027,-433.157 442.6081,-445.7 418.5,-445.7"/>
<polygon fill="#000000" stroke="#000000" points="474.5588,-427.6682 482.9357,-430.2735 478.5294,-427.1841 482.5,-426.7 482.5,-426.7 482.5,-426.7 478.5294,-427.1841 482.0643,-423.1265 474.5588,-427.6682 474.5588,-427.6682"/>
<ellipse fill="none" stroke="#000000" cx="471.3823" cy="-428.0555" rx="3.2" ry="3.2"/>
</g>
<!-- cursos -->
<g id="node12" class="node">
<title>cursos</title>
<g id="a_node12"><a xlink:href="../../tables/cursos.html" xlink:title="cursos" target="_top">
<polygon fill="#ffffff" stroke="transparent" points="334,-336.2 334,-397.2 409,-397.2 409,-336.2 334,-336.2"/>
<polygon fill="#f5f5f5" stroke="transparent" points="334.5,-373.7 334.5,-396.7 409.5,-396.7 409.5,-373.7 334.5,-373.7"/>
<polygon fill="none" stroke="#000000" points="334.5,-373.7 334.5,-396.7 409.5,-396.7 409.5,-373.7 334.5,-373.7"/>
<text text-anchor="start" x="339.3042" y="-382.8" font-family="Helvetica,sans-Serif" font-weight="bold" font-size="11.00" fill="#000000">cursos</text>
<text text-anchor="start" x="375.0219" y="-381.8" font-family="Helvetica,sans-Serif" font-size="11.00" fill="#000000">[table]</text>
<polygon fill="none" stroke="#000000" points="334.5,-354.7 334.5,-373.7 409.5,-373.7 409.5,-354.7 334.5,-354.7"/>
<text text-anchor="start" x="337.5" y="-360.8" font-family="Helvetica,sans-Serif" font-size="11.00" fill="#000000">...</text>
<polygon fill="#ffffff" stroke="transparent" points="334.5,-335.7 334.5,-354.7 348.5,-354.7 348.5,-335.7 334.5,-335.7"/>
<polygon fill="none" stroke="#000000" points="334.5,-335.7 334.5,-354.7 348.5,-354.7 348.5,-335.7 334.5,-335.7"/>
<text text-anchor="start" x="337.5" y="-341.8" font-family="Helvetica,sans-Serif" font-size="11.00" fill="#000000"> &#160;</text>
<polygon fill="#ffffff" stroke="transparent" points="348.5,-335.7 348.5,-354.7 387.5,-354.7 387.5,-335.7 348.5,-335.7"/>
<polygon fill="none" stroke="#000000" points="348.5,-335.7 348.5,-354.7 387.5,-354.7 387.5,-335.7 348.5,-335.7"/>
<text text-anchor="start" x="352.1105" y="-341.8" font-family="Helvetica,sans-Serif" font-size="11.00" fill="#000000">0 rows</text>
<polygon fill="#ffffff" stroke="transparent" points="387.5,-335.7 387.5,-354.7 409.5,-354.7 409.5,-335.7 387.5,-335.7"/>
<polygon fill="none" stroke="#000000" points="387.5,-335.7 387.5,-354.7 409.5,-354.7 409.5,-335.7 387.5,-335.7"/>
<text text-anchor="start" x="390.9053" y="-341.8" font-family="Helvetica,sans-Serif" font-size="11.00" fill="#000000">3 &gt;</text>
</a>
</g>
</g>
<!-- oportunidades&#45;&gt;cursos -->
<g id="edge12" class="edge">
<title>oportunidades:w&#45;&gt;cursos:e</title>
<path fill="none" stroke="#000000" d="M467.9824,-381.3336C446.2803,-376.977 437.5251,-363.7 409.5,-363.7"/>
<polygon fill="#000000" stroke="#000000" points="474.5352,-381.9503 482.1626,-386.2842 478.5176,-382.3251 482.5,-382.7 482.5,-382.7 482.5,-382.7 478.5176,-382.3251 482.8374,-379.1158 474.5352,-381.9503 474.5352,-381.9503"/>
<ellipse fill="none" stroke="#000000" cx="471.3493" cy="-381.6504" rx="3.2" ry="3.2"/>
</g>
<!-- llamadas -->
<g id="node10" class="node">
<title>llamadas</title>
<g id="a_node10"><a xlink:href="../../tables/llamadas.html" xlink:title="llamadas" target="_top">
<polygon fill="#ffffff" stroke="transparent" points="500,-202.2 500,-263.2 587,-263.2 587,-202.2 500,-202.2"/>
<polygon fill="#f5f5f5" stroke="transparent" points="500.5,-239.7 500.5,-262.7 587.5,-262.7 587.5,-239.7 500.5,-239.7"/>
<polygon fill="none" stroke="#000000" points="500.5,-239.7 500.5,-262.7 587.5,-262.7 587.5,-239.7 500.5,-239.7"/>
<text text-anchor="start" x="505.4984" y="-248.8" font-family="Helvetica,sans-Serif" font-weight="bold" font-size="11.00" fill="#000000">llamadas</text>
<text text-anchor="start" x="553.0219" y="-247.8" font-family="Helvetica,sans-Serif" font-size="11.00" fill="#000000">[table]</text>
<polygon fill="none" stroke="#000000" points="500.5,-220.7 500.5,-239.7 587.5,-239.7 587.5,-220.7 500.5,-220.7"/>
<text text-anchor="start" x="503.5" y="-226.8" font-family="Helvetica,sans-Serif" font-size="11.00" fill="#000000">...</text>
<polygon fill="#ffffff" stroke="transparent" points="500.5,-201.7 500.5,-220.7 529.5,-220.7 529.5,-201.7 500.5,-201.7"/>
<polygon fill="none" stroke="#000000" points="500.5,-201.7 500.5,-220.7 529.5,-220.7 529.5,-201.7 500.5,-201.7"/>
<text text-anchor="start" x="503.5" y="-207.8" font-family="Helvetica,sans-Serif" font-size="11.00" fill="#000000">&lt; 2</text>
<polygon fill="#ffffff" stroke="transparent" points="529.5,-201.7 529.5,-220.7 571.5,-220.7 571.5,-201.7 529.5,-201.7"/>
<polygon fill="none" stroke="#000000" points="529.5,-201.7 529.5,-220.7 571.5,-220.7 571.5,-201.7 529.5,-201.7"/>
<text text-anchor="start" x="536.1105" y="-207.8" font-family="Helvetica,sans-Serif" font-size="11.00" fill="#000000">0 rows</text>
<polygon fill="#ffffff" stroke="transparent" points="571.5,-201.7 571.5,-220.7 587.5,-220.7 587.5,-201.7 571.5,-201.7"/>
<polygon fill="none" stroke="#000000" points="571.5,-201.7 571.5,-220.7 587.5,-220.7 587.5,-201.7 571.5,-201.7"/>
<text text-anchor="start" x="578.3862" y="-207.8" font-family="Helvetica,sans-Serif" font-size="11.00" fill="#000000"> &#160;</text>
</a>
</g>
</g>
<!-- llamadas&#45;&gt;contactos -->
<g id="edge9" class="edge">
<title>llamadas:w&#45;&gt;contactos:e</title>
<path fill="none" stroke="#000000" d="M486.1148,-231.0642C467.0092,-234.9334 458.6139,-245.7 433.5,-245.7"/>
<polygon fill="#000000" stroke="#000000" points="492.5357,-230.4553 500.8399,-233.2839 496.5179,-230.0777 500.5,-229.7 500.5,-229.7 500.5,-229.7 496.5179,-230.0777 500.1601,-226.1161 492.5357,-230.4553 492.5357,-230.4553"/>
<ellipse fill="none" stroke="#000000" cx="489.35" cy="-230.7574" rx="3.2" ry="3.2"/>
</g>
<!-- tareas -->
<g id="node13" class="node">
<title>tareas</title>
<g id="a_node13"><a xlink:href="../../tables/tareas.html" xlink:title="tareas" target="_top">
<polygon fill="#ffffff" stroke="transparent" points="507,-120.2 507,-181.2 580,-181.2 580,-120.2 507,-120.2"/>
<polygon fill="#f5f5f5" stroke="transparent" points="507.5,-157.7 507.5,-180.7 580.5,-180.7 580.5,-157.7 507.5,-157.7"/>
<polygon fill="none" stroke="#000000" points="507.5,-157.7 507.5,-180.7 580.5,-180.7 580.5,-157.7 507.5,-157.7"/>
<text text-anchor="start" x="512.2183" y="-166.8" font-family="Helvetica,sans-Serif" font-weight="bold" font-size="11.00" fill="#000000">tareas</text>
<text text-anchor="start" x="546.0219" y="-165.8" font-family="Helvetica,sans-Serif" font-size="11.00" fill="#000000">[table]</text>
<polygon fill="none" stroke="#000000" points="507.5,-138.7 507.5,-157.7 580.5,-157.7 580.5,-138.7 507.5,-138.7"/>
<text text-anchor="start" x="510.5" y="-144.8" font-family="Helvetica,sans-Serif" font-size="11.00" fill="#000000">...</text>
<polygon fill="#ffffff" stroke="transparent" points="507.5,-119.7 507.5,-138.7 529.5,-138.7 529.5,-119.7 507.5,-119.7"/>
<polygon fill="none" stroke="#000000" points="507.5,-119.7 507.5,-138.7 529.5,-138.7 529.5,-119.7 507.5,-119.7"/>
<text text-anchor="start" x="510.5" y="-125.8" font-family="Helvetica,sans-Serif" font-size="11.00" fill="#000000">&lt; 3</text>
<polygon fill="#ffffff" stroke="transparent" points="529.5,-119.7 529.5,-138.7 567.5,-138.7 567.5,-119.7 529.5,-119.7"/>
<polygon fill="none" stroke="#000000" points="529.5,-119.7 529.5,-138.7 567.5,-138.7 567.5,-119.7 529.5,-119.7"/>
<text text-anchor="start" x="532.3053" y="-125.8" font-family="Helvetica,sans-Serif" font-size="11.00" fill="#000000">0 rows</text>
<polygon fill="#ffffff" stroke="transparent" points="567.5,-119.7 567.5,-138.7 580.5,-138.7 580.5,-119.7 567.5,-119.7"/>
<polygon fill="none" stroke="#000000" points="567.5,-119.7 567.5,-138.7 580.5,-138.7 580.5,-119.7 567.5,-119.7"/>
<text text-anchor="start" x="571.3862" y="-125.8" font-family="Helvetica,sans-Serif" font-size="11.00" fill="#000000"> &#160;</text>
</a>
</g>
</g>
<!-- tareas&#45;&gt;contactos -->
<g id="edge15" class="edge">
<title>tareas:w&#45;&gt;contactos:e</title>
<path fill="none" stroke="#000000" d="M493.0151,-150.7404C459.3395,-167.2818 482.3218,-245.7 433.5,-245.7"/>
<polygon fill="#000000" stroke="#000000" points="499.6706,-149.3434 508.2396,-151.2232 503.5853,-148.5217 507.5,-147.7 507.5,-147.7 507.5,-147.7 503.5853,-148.5217 506.7604,-144.1768 499.6706,-149.3434 499.6706,-149.3434"/>
<ellipse fill="none" stroke="#000000" cx="496.5389" cy="-150.0008" rx="3.2" ry="3.2"/>
</g>
<!-- tareas&#45;&gt;usuarios -->
<g id="edge16" class="edge">
<title>tareas:w&#45;&gt;usuarios:e</title>
<path fill="none" stroke="#000000" d="M493.1737,-145.9561C459.8306,-137.2272 455.2762,-98.7 413.5,-98.7"/>
<polygon fill="#000000" stroke="#000000" points="499.5586,-146.7332 507.065,-151.2736 503.5293,-147.2166 507.5,-147.7 507.5,-147.7 507.5,-147.7 503.5293,-147.2166 507.935,-144.1264 499.5586,-146.7332 499.5586,-146.7332"/>
<ellipse fill="none" stroke="#000000" cx="496.3821" cy="-146.3465" rx="3.2" ry="3.2"/>
</g>
</g>
</svg>
