<?xml version="1.0" encoding="UTF-8" standalone="no"?>
<!DOCTYPE svg PUBLIC "-//W3C//DTD SVG 1.1//EN"
 "http://www.w3.org/Graphics/SVG/1.1/DTD/svg11.dtd">
<!-- Generated by graphviz version 2.40.1 (20161225.0304)
 -->
<!-- Title: oneDegreeRelationshipsDiagram Pages: 1 -->
<svg width="501pt" height="228pt"
 viewBox="0.00 0.00 501.00 228.20" xmlns="http://www.w3.org/2000/svg" xmlns:xlink="http://www.w3.org/1999/xlink">
<g id="graph0" class="graph" transform="scale(1 1) rotate(0) translate(4 224.2)">
<title>oneDegreeRelationshipsDiagram</title>
<polygon fill="#ffffff" stroke="transparent" points="-4,4 -4,-224.2 497,-224.2 497,4 -4,4"/>
<text text-anchor="middle" x="72.4936" y="-7.3" font-family="Helvetica,sans-Serif" font-size="11.00" fill="#000000">Generated by SchemaSpy</text>
<!-- encuesta_pregunta_opciones -->
<g id="node1" class="node">
<title>encuesta_pregunta_opciones</title>
<g id="a_node1"><a xlink:href="../../tables/encuesta_pregunta_opciones.html" xlink:title="encuesta_pregunta_opciones" target="_top">
<polygon fill="#ffffff" stroke="transparent" points="199,-38.2 199,-216.2 485,-216.2 485,-38.2 199,-38.2"/>
<polygon fill="#f5f5f5" stroke="transparent" points="201,-191.2 201,-214.2 483,-214.2 483,-191.2 201,-191.2"/>
<polygon fill="none" stroke="#000000" points="201,-191.2 201,-214.2 483,-214.2 483,-191.2 201,-191.2"/>
<text text-anchor="start" x="206" y="-200.3" font-family="Helvetica,sans-Serif" font-weight="bold" font-size="11.00" fill="#000000">encuesta_pregunta_opciones</text>
<text text-anchor="start" x="448.0437" y="-199.3" font-family="Helvetica,sans-Serif" font-size="11.00" fill="#000000">[table]</text>
<polygon fill="none" stroke="#000000" points="201,-169.2 201,-191.2 391,-191.2 391,-169.2 201,-169.2"/>
<image xlink:href="../../images/primaryKeys.png" width="11px" height="12px" preserveAspectRatio="xMinYMin meet" x="206" y="-186.2"/>
<text text-anchor="start" x="221" y="-176.3" font-family="Helvetica,sans-Serif" font-size="11.00" fill="#000000">opcion_id</text>
<polygon fill="none" stroke="#000000" points="391,-169.2 391,-191.2 483,-191.2 483,-169.2 391,-169.2"/>
<text text-anchor="start" x="394" y="-176.9" font-family="Helvetica,sans-Serif" font-size="11.00" fill="#000000">serial[10]</text>
<polygon fill="none" stroke="#000000" points="201,-147.2 201,-169.2 391,-169.2 391,-147.2 201,-147.2"/>
<image xlink:href="../../images/foreignKeys.png" width="11px" height="12px" preserveAspectRatio="xMinYMin meet" x="206" y="-164.2"/>
<text text-anchor="start" x="221" y="-154.3" font-family="Helvetica,sans-Serif" font-size="11.00" fill="#000000">pregunta_id</text>
<polygon fill="none" stroke="#000000" points="391,-147.2 391,-169.2 483,-169.2 483,-147.2 391,-147.2"/>
<text text-anchor="start" x="394" y="-154.9" font-family="Helvetica,sans-Serif" font-size="11.00" fill="#000000">int4[10]</text>
<polygon fill="none" stroke="#000000" points="201,-125.2 201,-147.2 391,-147.2 391,-125.2 201,-125.2"/>
<text text-anchor="start" x="221" y="-132.3" font-family="Helvetica,sans-Serif" font-size="11.00" fill="#000000">etiqueta</text>
<polygon fill="none" stroke="#000000" points="391,-125.2 391,-147.2 483,-147.2 483,-125.2 391,-125.2"/>
<text text-anchor="start" x="394" y="-132.9" font-family="Helvetica,sans-Serif" font-size="11.00" fill="#000000">varchar[255]</text>
<polygon fill="none" stroke="#000000" points="201,-103.2 201,-125.2 391,-125.2 391,-103.2 201,-103.2"/>
<text text-anchor="start" x="221" y="-110.3" font-family="Helvetica,sans-Serif" font-size="11.00" fill="#000000">valor</text>
<polygon fill="none" stroke="#000000" points="391,-103.2 391,-125.2 483,-125.2 483,-103.2 391,-103.2"/>
<text text-anchor="start" x="394" y="-110.9" font-family="Helvetica,sans-Serif" font-size="11.00" fill="#000000">int4[10]</text>
<polygon fill="none" stroke="#000000" points="201,-81.2 201,-103.2 391,-103.2 391,-81.2 201,-81.2"/>
<text text-anchor="start" x="221" y="-88.3" font-family="Helvetica,sans-Serif" font-size="11.00" fill="#000000">fec_insercion</text>
<polygon fill="none" stroke="#000000" points="391,-81.2 391,-103.2 483,-103.2 483,-81.2 391,-81.2"/>
<text text-anchor="start" x="393.6023" y="-88.9" font-family="Helvetica,sans-Serif" font-size="11.00" fill="#000000">timestamptz[35,6]</text>
<polygon fill="none" stroke="#000000" points="201,-59.2 201,-81.2 391,-81.2 391,-59.2 201,-59.2"/>
<text text-anchor="start" x="221" y="-66.3" font-family="Helvetica,sans-Serif" font-size="11.00" fill="#000000">fec_modificacion</text>
<polygon fill="none" stroke="#000000" points="391,-59.2 391,-81.2 483,-81.2 483,-59.2 391,-59.2"/>
<text text-anchor="start" x="393.6023" y="-66.9" font-family="Helvetica,sans-Serif" font-size="11.00" fill="#000000">timestamptz[35,6]</text>
<polygon fill="#ffffff" stroke="transparent" points="201,-40.2 201,-59.2 284,-59.2 284,-40.2 201,-40.2"/>
<polygon fill="none" stroke="#000000" points="201,-40.2 201,-59.2 284,-59.2 284,-40.2 201,-40.2"/>
<text text-anchor="start" x="204" y="-46.3" font-family="Helvetica,sans-Serif" font-size="11.00" fill="#000000">&lt; 1</text>
<polygon fill="#ffffff" stroke="transparent" points="284,-40.2 284,-59.2 391,-59.2 391,-40.2 284,-40.2"/>
<polygon fill="none" stroke="#000000" points="284,-40.2 284,-59.2 391,-59.2 391,-40.2 284,-40.2"/>
<text text-anchor="start" x="349.4956" y="-46.3" font-family="Helvetica,sans-Serif" font-size="11.00" fill="#000000">15 rows</text>
<polygon fill="#ffffff" stroke="transparent" points="391,-40.2 391,-59.2 483,-59.2 483,-40.2 391,-40.2"/>
<polygon fill="none" stroke="#000000" points="391,-40.2 391,-59.2 483,-59.2 483,-40.2 391,-40.2"/>
<text text-anchor="start" x="464.4053" y="-46.3" font-family="Helvetica,sans-Serif" font-size="11.00" fill="#000000">0 &gt;</text>
<polygon fill="none" stroke="#000000" stroke-width="2" points="200,-39.2 200,-215.2 484,-215.2 484,-39.2 200,-39.2"/>
</a>
</g>
</g>
<!-- encuesta_preguntas -->
<g id="node2" class="node">
<title>encuesta_preguntas</title>
<g id="a_node2"><a xlink:href="../../tables/encuesta_preguntas.html" xlink:title="encuesta_preguntas" target="_top">
<polygon fill="#ffffff" stroke="transparent" points="8,-109.7 8,-192.7 150,-192.7 150,-109.7 8,-109.7"/>
<polygon fill="#f5f5f5" stroke="transparent" points="8,-169.2 8,-192.2 150,-192.2 150,-169.2 8,-169.2"/>
<polygon fill="none" stroke="#000000" points="8,-169.2 8,-192.2 150,-192.2 150,-169.2 8,-169.2"/>
<text text-anchor="start" x="12.6727" y="-178.3" font-family="Helvetica,sans-Serif" font-weight="bold" font-size="11.00" fill="#000000">encuesta_preguntas</text>
<text text-anchor="start" x="115.5219" y="-177.3" font-family="Helvetica,sans-Serif" font-size="11.00" fill="#000000">[table]</text>
<polygon fill="none" stroke="#000000" points="8,-147.2 8,-169.2 150,-169.2 150,-147.2 8,-147.2"/>
<image xlink:href="../../images/primaryKeys.png" width="11px" height="12px" preserveAspectRatio="xMinYMin meet" x="13" y="-164.2"/>
<text text-anchor="start" x="31" y="-154.3" font-family="Helvetica,sans-Serif" font-size="11.00" fill="#000000">pregunta_id</text>
<polygon fill="none" stroke="#000000" points="8,-128.2 8,-147.2 150,-147.2 150,-128.2 8,-128.2"/>
<text text-anchor="start" x="11" y="-134.3" font-family="Helvetica,sans-Serif" font-size="11.00" fill="#000000">...</text>
<polygon fill="#ffffff" stroke="transparent" points="8,-109.2 8,-128.2 55,-128.2 55,-109.2 8,-109.2"/>
<polygon fill="none" stroke="#000000" points="8,-109.2 8,-128.2 55,-128.2 55,-109.2 8,-109.2"/>
<text text-anchor="start" x="11" y="-115.3" font-family="Helvetica,sans-Serif" font-size="11.00" fill="#000000"> &#160;</text>
<polygon fill="#ffffff" stroke="transparent" points="55,-109.2 55,-128.2 111,-128.2 111,-109.2 55,-109.2"/>
<polygon fill="none" stroke="#000000" points="55,-109.2 55,-128.2 111,-128.2 111,-109.2 55,-109.2"/>
<text text-anchor="start" x="75.6105" y="-115.3" font-family="Helvetica,sans-Serif" font-size="11.00" fill="#000000">4 rows</text>
<polygon fill="#ffffff" stroke="transparent" points="111,-109.2 111,-128.2 150,-128.2 150,-109.2 111,-109.2"/>
<polygon fill="none" stroke="#000000" points="111,-109.2 111,-128.2 150,-128.2 150,-109.2 111,-109.2"/>
<text text-anchor="start" x="131.4053" y="-115.3" font-family="Helvetica,sans-Serif" font-size="11.00" fill="#000000">2 &gt;</text>
</a>
</g>
</g>
<!-- encuesta_pregunta_opciones&#45;&gt;encuesta_preguntas -->
<g id="edge1" class="edge">
<title>encuesta_pregunta_opciones:w&#45;&gt;encuesta_preguntas:e</title>
<path fill="none" stroke="#000000" d="M186.276,-158.2C174.2815,-158.2 166.8229,-158.2 150,-158.2"/>
<polygon fill="#000000" stroke="#000000" points="193,-158.2001 201,-161.8 197,-158.2 201,-158.2 201,-158.2 201,-158.2 197,-158.2 201,-154.6 193,-158.2001 193,-158.2001"/>
<ellipse fill="none" stroke="#000000" cx="189.8" cy="-158.2001" rx="3.2" ry="3.2"/>
</g>
</g>
</svg>
