<?xml version="1.0" encoding="UTF-8" standalone="no"?>
<!DOCTYPE svg PUBLIC "-//W3C//DTD SVG 1.1//EN"
 "http://www.w3.org/Graphics/SVG/1.1/DTD/svg11.dtd">
<!-- Generated by graphviz version 2.40.1 (20161225.0304)
 -->
<!-- Title: oneDegreeRelationshipsDiagram Pages: 1 -->
<svg width="858pt" height="280pt"
 viewBox="0.00 0.00 858.00 280.20" xmlns="http://www.w3.org/2000/svg" xmlns:xlink="http://www.w3.org/1999/xlink">
<g id="graph0" class="graph" transform="scale(1 1) rotate(0) translate(4 276.2)">
<title>oneDegreeRelationshipsDiagram</title>
<polygon fill="#ffffff" stroke="transparent" points="-4,4 -4,-276.2 854,-276.2 854,4 -4,4"/>
<text text-anchor="middle" x="72.4936" y="-7.3" font-family="Helvetica,sans-Serif" font-size="11.00" fill="#000000">Generated by SchemaSpy</text>
<!-- encuesta_pregunta_respuestas -->
<g id="node1" class="node">
<title>encuesta_pregunta_respuestas</title>
<g id="a_node1"><a xlink:href="../../tables/encuesta_pregunta_respuestas.html" xlink:title="encuesta_pregunta_respuestas" target="_top">
<polygon fill="#ffffff" stroke="transparent" points="641,-115.2 641,-242.2 842,-242.2 842,-115.2 641,-115.2"/>
<polygon fill="#f5f5f5" stroke="transparent" points="641.5,-218.7 641.5,-241.7 842.5,-241.7 842.5,-218.7 641.5,-218.7"/>
<polygon fill="none" stroke="#000000" points="641.5,-218.7 641.5,-241.7 842.5,-241.7 842.5,-218.7 641.5,-218.7"/>
<text text-anchor="start" x="646.5" y="-227.8" font-family="Helvetica,sans-Serif" font-weight="bold" font-size="11.00" fill="#000000">encuesta_pregunta_respuestas</text>
<text text-anchor="start" x="807.5437" y="-226.8" font-family="Helvetica,sans-Serif" font-size="11.00" fill="#000000">[table]</text>
<polygon fill="none" stroke="#000000" points="641.5,-196.7 641.5,-218.7 842.5,-218.7 842.5,-196.7 641.5,-196.7"/>
<image xlink:href="../../images/primaryKeys.png" width="11px" height="12px" preserveAspectRatio="xMinYMin meet" x="646.5" y="-213.7"/>
<text text-anchor="start" x="661.5" y="-203.8" font-family="Helvetica,sans-Serif" font-size="11.00" fill="#000000">pregunta_respuesta_id</text>
<polygon fill="none" stroke="#000000" points="641.5,-174.7 641.5,-196.7 842.5,-196.7 842.5,-174.7 641.5,-174.7"/>
<image xlink:href="../../images/foreignKeys.png" width="11px" height="12px" preserveAspectRatio="xMinYMin meet" x="646.5" y="-191.7"/>
<text text-anchor="start" x="661.5" y="-181.8" font-family="Helvetica,sans-Serif" font-size="11.00" fill="#000000">respuesta_id</text>
<polygon fill="none" stroke="#000000" points="641.5,-152.7 641.5,-174.7 842.5,-174.7 842.5,-152.7 641.5,-152.7"/>
<image xlink:href="../../images/foreignKeys.png" width="11px" height="12px" preserveAspectRatio="xMinYMin meet" x="646.5" y="-169.7"/>
<text text-anchor="start" x="661.5" y="-159.8" font-family="Helvetica,sans-Serif" font-size="11.00" fill="#000000">pregunta_id</text>
<polygon fill="none" stroke="#000000" points="641.5,-133.7 641.5,-152.7 842.5,-152.7 842.5,-133.7 641.5,-133.7"/>
<text text-anchor="start" x="644.5" y="-139.8" font-family="Helvetica,sans-Serif" font-size="11.00" fill="#000000">...</text>
<polygon fill="#ffffff" stroke="transparent" points="641.5,-114.7 641.5,-133.7 727.5,-133.7 727.5,-114.7 641.5,-114.7"/>
<polygon fill="none" stroke="#000000" points="641.5,-114.7 641.5,-133.7 727.5,-133.7 727.5,-114.7 641.5,-114.7"/>
<text text-anchor="start" x="644.5" y="-120.8" font-family="Helvetica,sans-Serif" font-size="11.00" fill="#000000">&lt; 2</text>
<polygon fill="#ffffff" stroke="transparent" points="727.5,-114.7 727.5,-133.7 797.5,-133.7 797.5,-114.7 727.5,-114.7"/>
<polygon fill="none" stroke="#000000" points="727.5,-114.7 727.5,-133.7 797.5,-133.7 797.5,-114.7 727.5,-114.7"/>
<text text-anchor="start" x="762.1105" y="-120.8" font-family="Helvetica,sans-Serif" font-size="11.00" fill="#000000">4 rows</text>
<polygon fill="#ffffff" stroke="transparent" points="797.5,-114.7 797.5,-133.7 842.5,-133.7 842.5,-114.7 797.5,-114.7"/>
<polygon fill="none" stroke="#000000" points="797.5,-114.7 797.5,-133.7 842.5,-133.7 842.5,-114.7 797.5,-114.7"/>
<text text-anchor="start" x="833.3862" y="-120.8" font-family="Helvetica,sans-Serif" font-size="11.00" fill="#000000"> &#160;</text>
</a>
</g>
</g>
<!-- encuesta_respuestas -->
<g id="node2" class="node">
<title>encuesta_respuestas</title>
<g id="a_node2"><a xlink:href="../../tables/encuesta_respuestas.html" xlink:title="encuesta_respuestas" target="_top">
<polygon fill="#ffffff" stroke="transparent" points="352,-43.7 352,-221.7 592,-221.7 592,-43.7 352,-43.7"/>
<polygon fill="#f5f5f5" stroke="transparent" points="354,-196.7 354,-219.7 590,-219.7 590,-196.7 354,-196.7"/>
<polygon fill="none" stroke="#000000" points="354,-196.7 354,-219.7 590,-219.7 590,-196.7 354,-196.7"/>
<text text-anchor="start" x="359" y="-205.8" font-family="Helvetica,sans-Serif" font-weight="bold" font-size="11.00" fill="#000000">encuesta_respuestas</text>
<text text-anchor="start" x="555.0437" y="-204.8" font-family="Helvetica,sans-Serif" font-size="11.00" fill="#000000">[table]</text>
<polygon fill="none" stroke="#000000" points="354,-174.7 354,-196.7 497,-196.7 497,-174.7 354,-174.7"/>
<image xlink:href="../../images/primaryKeys.png" width="11px" height="12px" preserveAspectRatio="xMinYMin meet" x="359" y="-191.7"/>
<text text-anchor="start" x="374" y="-181.8" font-family="Helvetica,sans-Serif" font-size="11.00" fill="#000000">respuesta_id</text>
<polygon fill="none" stroke="#000000" points="497,-174.7 497,-196.7 590,-196.7 590,-174.7 497,-174.7"/>
<text text-anchor="start" x="500" y="-182.4" font-family="Helvetica,sans-Serif" font-size="11.00" fill="#000000">serial[10]</text>
<polygon fill="none" stroke="#000000" points="354,-152.7 354,-174.7 497,-174.7 497,-152.7 354,-152.7"/>
<image xlink:href="../../images/foreignKeys.png" width="11px" height="12px" preserveAspectRatio="xMinYMin meet" x="359" y="-169.7"/>
<text text-anchor="start" x="374" y="-159.8" font-family="Helvetica,sans-Serif" font-size="11.00" fill="#000000">oportunidad_id</text>
<polygon fill="none" stroke="#000000" points="497,-152.7 497,-174.7 590,-174.7 590,-152.7 497,-152.7"/>
<text text-anchor="start" x="500" y="-160.4" font-family="Helvetica,sans-Serif" font-size="11.00" fill="#000000">int4[10]</text>
<polygon fill="none" stroke="#000000" points="354,-130.7 354,-152.7 497,-152.7 497,-130.7 354,-130.7"/>
<image xlink:href="../../images/foreignKeys.png" width="11px" height="12px" preserveAspectRatio="xMinYMin meet" x="359" y="-147.7"/>
<text text-anchor="start" x="374" y="-137.8" font-family="Helvetica,sans-Serif" font-size="11.00" fill="#000000">contacto_id</text>
<polygon fill="none" stroke="#000000" points="497,-130.7 497,-152.7 590,-152.7 590,-130.7 497,-130.7"/>
<text text-anchor="start" x="500" y="-138.4" font-family="Helvetica,sans-Serif" font-size="11.00" fill="#000000">int4[10]</text>
<polygon fill="none" stroke="#000000" points="354,-108.7 354,-130.7 497,-130.7 497,-108.7 354,-108.7"/>
<text text-anchor="start" x="374" y="-115.8" font-family="Helvetica,sans-Serif" font-size="11.00" fill="#000000">json</text>
<polygon fill="none" stroke="#000000" points="497,-108.7 497,-130.7 590,-130.7 590,-108.7 497,-108.7"/>
<text text-anchor="start" x="499.7833" y="-116.4" font-family="Helvetica,sans-Serif" font-size="11.00" fill="#000000">json[2147483647]</text>
<polygon fill="none" stroke="#000000" points="354,-86.7 354,-108.7 497,-108.7 497,-86.7 354,-86.7"/>
<text text-anchor="start" x="374" y="-93.8" font-family="Helvetica,sans-Serif" font-size="11.00" fill="#000000">fec_insercion</text>
<polygon fill="none" stroke="#000000" points="497,-86.7 497,-108.7 590,-108.7 590,-86.7 497,-86.7"/>
<text text-anchor="start" x="500" y="-94.4" font-family="Helvetica,sans-Serif" font-size="11.00" fill="#000000">timestamptz[35,6]</text>
<polygon fill="none" stroke="#000000" points="354,-64.7 354,-86.7 497,-86.7 497,-64.7 354,-64.7"/>
<text text-anchor="start" x="374" y="-71.8" font-family="Helvetica,sans-Serif" font-size="11.00" fill="#000000">fec_modificacion</text>
<polygon fill="none" stroke="#000000" points="497,-64.7 497,-86.7 590,-86.7 590,-64.7 497,-64.7"/>
<text text-anchor="start" x="500" y="-72.4" font-family="Helvetica,sans-Serif" font-size="11.00" fill="#000000">timestamptz[35,6]</text>
<polygon fill="#ffffff" stroke="transparent" points="354,-45.7 354,-64.7 420,-64.7 420,-45.7 354,-45.7"/>
<polygon fill="none" stroke="#000000" points="354,-45.7 354,-64.7 420,-64.7 420,-45.7 354,-45.7"/>
<text text-anchor="start" x="357" y="-51.8" font-family="Helvetica,sans-Serif" font-size="11.00" fill="#000000">&lt; 2</text>
<polygon fill="#ffffff" stroke="transparent" points="420,-45.7 420,-64.7 497,-64.7 497,-45.7 420,-45.7"/>
<polygon fill="none" stroke="#000000" points="420,-45.7 420,-64.7 497,-64.7 497,-45.7 420,-45.7"/>
<text text-anchor="start" x="467.1105" y="-51.8" font-family="Helvetica,sans-Serif" font-size="11.00" fill="#000000">1 row</text>
<polygon fill="#ffffff" stroke="transparent" points="497,-45.7 497,-64.7 590,-64.7 590,-45.7 497,-45.7"/>
<polygon fill="none" stroke="#000000" points="497,-45.7 497,-64.7 590,-64.7 590,-45.7 497,-45.7"/>
<text text-anchor="start" x="571.4053" y="-51.8" font-family="Helvetica,sans-Serif" font-size="11.00" fill="#000000">1 &gt;</text>
<polygon fill="none" stroke="#000000" stroke-width="2" points="353,-44.7 353,-220.7 591,-220.7 591,-44.7 353,-44.7"/>
</a>
</g>
</g>
<!-- encuesta_pregunta_respuestas&#45;&gt;encuesta_respuestas -->
<g id="edge1" class="edge">
<title>encuesta_pregunta_respuestas:w&#45;&gt;encuesta_respuestas:e</title>
<path fill="none" stroke="#000000" d="M627.0156,-185.7C614.6771,-185.7 607.1667,-185.7 590,-185.7"/>
<polygon fill="#000000" stroke="#000000" points="633.5,-185.7001 641.5,-189.3 637.5,-185.7 641.5,-185.7 641.5,-185.7 641.5,-185.7 637.5,-185.7 641.5,-182.1 633.5,-185.7001 633.5,-185.7001"/>
<ellipse fill="none" stroke="#000000" cx="630.3" cy="-185.7001" rx="3.2" ry="3.2"/>
</g>
<!-- contactos -->
<g id="node3" class="node">
<title>contactos</title>
<g id="a_node3"><a xlink:href="../../tables/contactos.html" xlink:title="contactos" target="_top">
<polygon fill="#ffffff" stroke="transparent" points="8,-38.2 8,-165.2 131,-165.2 131,-38.2 8,-38.2"/>
<polygon fill="#f5f5f5" stroke="transparent" points="8.5,-141.7 8.5,-164.7 131.5,-164.7 131.5,-141.7 8.5,-141.7"/>
<polygon fill="none" stroke="#000000" points="8.5,-141.7 8.5,-164.7 131.5,-164.7 131.5,-141.7 8.5,-141.7"/>
<text text-anchor="start" x="13.5" y="-150.8" font-family="Helvetica,sans-Serif" font-weight="bold" font-size="11.00" fill="#000000">contactos</text>
<text text-anchor="start" x="96.5437" y="-149.8" font-family="Helvetica,sans-Serif" font-size="11.00" fill="#000000">[table]</text>
<polygon fill="none" stroke="#000000" points="8.5,-119.7 8.5,-141.7 131.5,-141.7 131.5,-119.7 8.5,-119.7"/>
<image xlink:href="../../images/primaryKeys.png" width="11px" height="12px" preserveAspectRatio="xMinYMin meet" x="13.5" y="-136.7"/>
<text text-anchor="start" x="28.5" y="-126.8" font-family="Helvetica,sans-Serif" font-size="11.00" fill="#000000">contacto_id</text>
<polygon fill="none" stroke="#000000" points="8.5,-97.7 8.5,-119.7 131.5,-119.7 131.5,-97.7 8.5,-97.7"/>
<image xlink:href="../../images/foreignKeys.png" width="11px" height="12px" preserveAspectRatio="xMinYMin meet" x="13.5" y="-114.7"/>
<text text-anchor="start" x="28.5" y="-104.8" font-family="Helvetica,sans-Serif" font-size="11.00" fill="#000000">persona_id</text>
<polygon fill="none" stroke="#000000" points="8.5,-75.7 8.5,-97.7 131.5,-97.7 131.5,-75.7 8.5,-75.7"/>
<image xlink:href="../../images/foreignKeys.png" width="11px" height="12px" preserveAspectRatio="xMinYMin meet" x="13.5" y="-92.7"/>
<text text-anchor="start" x="28.5" y="-82.8" font-family="Helvetica,sans-Serif" font-size="11.00" fill="#000000">organizacion_id</text>
<polygon fill="none" stroke="#000000" points="8.5,-56.7 8.5,-75.7 131.5,-75.7 131.5,-56.7 8.5,-56.7"/>
<text text-anchor="start" x="11.5" y="-62.8" font-family="Helvetica,sans-Serif" font-size="11.00" fill="#000000">...</text>
<polygon fill="#ffffff" stroke="transparent" points="8.5,-37.7 8.5,-56.7 53.5,-56.7 53.5,-37.7 8.5,-37.7"/>
<polygon fill="none" stroke="#000000" points="8.5,-37.7 8.5,-56.7 53.5,-56.7 53.5,-37.7 8.5,-37.7"/>
<text text-anchor="start" x="11.5" y="-43.8" font-family="Helvetica,sans-Serif" font-size="11.00" fill="#000000">&lt; 2</text>
<polygon fill="#ffffff" stroke="transparent" points="53.5,-37.7 53.5,-56.7 97.5,-56.7 97.5,-37.7 53.5,-37.7"/>
<polygon fill="none" stroke="#000000" points="53.5,-37.7 53.5,-56.7 97.5,-56.7 97.5,-37.7 53.5,-37.7"/>
<text text-anchor="start" x="67.6105" y="-43.8" font-family="Helvetica,sans-Serif" font-size="11.00" fill="#000000">1 row</text>
<polygon fill="#ffffff" stroke="transparent" points="97.5,-37.7 97.5,-56.7 131.5,-56.7 131.5,-37.7 97.5,-37.7"/>
<polygon fill="none" stroke="#000000" points="97.5,-37.7 97.5,-56.7 131.5,-56.7 131.5,-37.7 97.5,-37.7"/>
<text text-anchor="start" x="112.9053" y="-43.8" font-family="Helvetica,sans-Serif" font-size="11.00" fill="#000000">2 &gt;</text>
</a>
</g>
</g>
<!-- encuesta_respuestas&#45;&gt;contactos -->
<g id="edge2" class="edge">
<title>encuesta_respuestas:w&#45;&gt;contactos:e</title>
<path fill="none" stroke="#000000" d="M340.1425,-137.1552C327.631,-126.0274 333.2252,-97.5354 311,-86.7 255.47,-59.6276 228.5737,-61.8825 172,-86.7 147.6604,-97.3772 158.0786,-130.7 131.5,-130.7"/>
<polygon fill="#000000" stroke="#000000" points="346.3984,-139.2069 352.8781,-145.1207 350.1992,-140.4534 354,-141.7 354,-141.7 354,-141.7 350.1992,-140.4534 355.1219,-138.2793 346.3984,-139.2069 346.3984,-139.2069"/>
<ellipse fill="none" stroke="#000000" cx="343.3577" cy="-138.2097" rx="3.2" ry="3.2"/>
</g>
<!-- oportunidades -->
<g id="node4" class="node">
<title>oportunidades</title>
<g id="a_node4"><a xlink:href="../../tables/oportunidades.html" xlink:title="oportunidades" target="_top">
<polygon fill="#ffffff" stroke="transparent" points="180,-97.2 180,-268.2 303,-268.2 303,-97.2 180,-97.2"/>
<polygon fill="#f5f5f5" stroke="transparent" points="180.5,-244.7 180.5,-267.7 303.5,-267.7 303.5,-244.7 180.5,-244.7"/>
<polygon fill="none" stroke="#000000" points="180.5,-244.7 180.5,-267.7 303.5,-267.7 303.5,-244.7 180.5,-244.7"/>
<text text-anchor="start" x="185.5" y="-253.8" font-family="Helvetica,sans-Serif" font-weight="bold" font-size="11.00" fill="#000000">oportunidades</text>
<text text-anchor="start" x="268.5437" y="-252.8" font-family="Helvetica,sans-Serif" font-size="11.00" fill="#000000">[table]</text>
<polygon fill="none" stroke="#000000" points="180.5,-222.7 180.5,-244.7 303.5,-244.7 303.5,-222.7 180.5,-222.7"/>
<image xlink:href="../../images/primaryKeys.png" width="11px" height="12px" preserveAspectRatio="xMinYMin meet" x="185.5" y="-239.7"/>
<text text-anchor="start" x="200.5" y="-229.8" font-family="Helvetica,sans-Serif" font-size="11.00" fill="#000000">oportunidad_id</text>
<polygon fill="none" stroke="#000000" points="180.5,-200.7 180.5,-222.7 303.5,-222.7 303.5,-200.7 180.5,-200.7"/>
<image xlink:href="../../images/foreignKeys.png" width="11px" height="12px" preserveAspectRatio="xMinYMin meet" x="185.5" y="-217.7"/>
<text text-anchor="start" x="200.5" y="-207.8" font-family="Helvetica,sans-Serif" font-size="11.00" fill="#000000">campana_id</text>
<polygon fill="none" stroke="#000000" points="180.5,-178.7 180.5,-200.7 303.5,-200.7 303.5,-178.7 180.5,-178.7"/>
<image xlink:href="../../images/foreignKeys.png" width="11px" height="12px" preserveAspectRatio="xMinYMin meet" x="185.5" y="-195.7"/>
<text text-anchor="start" x="200.5" y="-185.8" font-family="Helvetica,sans-Serif" font-size="11.00" fill="#000000">contacto_id</text>
<polygon fill="none" stroke="#000000" points="180.5,-156.7 180.5,-178.7 303.5,-178.7 303.5,-156.7 180.5,-156.7"/>
<image xlink:href="../../images/foreignKeys.png" width="11px" height="12px" preserveAspectRatio="xMinYMin meet" x="185.5" y="-173.7"/>
<text text-anchor="start" x="200.5" y="-163.8" font-family="Helvetica,sans-Serif" font-size="11.00" fill="#000000">curso_id</text>
<polygon fill="none" stroke="#000000" points="180.5,-134.7 180.5,-156.7 303.5,-156.7 303.5,-134.7 180.5,-134.7"/>
<image xlink:href="../../images/foreignKeys.png" width="11px" height="12px" preserveAspectRatio="xMinYMin meet" x="185.5" y="-151.7"/>
<text text-anchor="start" x="200.5" y="-141.8" font-family="Helvetica,sans-Serif" font-size="11.00" fill="#000000">usu_asignado_id</text>
<polygon fill="none" stroke="#000000" points="180.5,-115.7 180.5,-134.7 303.5,-134.7 303.5,-115.7 180.5,-115.7"/>
<text text-anchor="start" x="183.5" y="-121.8" font-family="Helvetica,sans-Serif" font-size="11.00" fill="#000000">...</text>
<polygon fill="#ffffff" stroke="transparent" points="180.5,-96.7 180.5,-115.7 225.5,-115.7 225.5,-96.7 180.5,-96.7"/>
<polygon fill="none" stroke="#000000" points="180.5,-96.7 180.5,-115.7 225.5,-115.7 225.5,-96.7 180.5,-96.7"/>
<text text-anchor="start" x="183.5" y="-102.8" font-family="Helvetica,sans-Serif" font-size="11.00" fill="#000000">&lt; 4</text>
<polygon fill="#ffffff" stroke="transparent" points="225.5,-96.7 225.5,-115.7 269.5,-115.7 269.5,-96.7 225.5,-96.7"/>
<polygon fill="none" stroke="#000000" points="225.5,-96.7 225.5,-115.7 269.5,-115.7 269.5,-96.7 225.5,-96.7"/>
<text text-anchor="start" x="239.6105" y="-102.8" font-family="Helvetica,sans-Serif" font-size="11.00" fill="#000000">1 row</text>
<polygon fill="#ffffff" stroke="transparent" points="269.5,-96.7 269.5,-115.7 303.5,-115.7 303.5,-96.7 269.5,-96.7"/>
<polygon fill="none" stroke="#000000" points="269.5,-96.7 269.5,-115.7 303.5,-115.7 303.5,-96.7 269.5,-96.7"/>
<text text-anchor="start" x="284.9053" y="-102.8" font-family="Helvetica,sans-Serif" font-size="11.00" fill="#000000">1 &gt;</text>
</a>
</g>
</g>
<!-- encuesta_respuestas&#45;&gt;oportunidades -->
<g id="edge3" class="edge">
<title>encuesta_respuestas:w&#45;&gt;oportunidades:e</title>
<path fill="none" stroke="#000000" d="M340.2554,-168.2929C322.2561,-183.866 335.8681,-233.7 303.5,-233.7"/>
<polygon fill="#000000" stroke="#000000" points="346.4124,-166.2355 355.141,-167.1144 350.2062,-164.9678 354,-163.7 354,-163.7 354,-163.7 350.2062,-164.9678 352.859,-160.2856 346.4124,-166.2355 346.4124,-166.2355"/>
<ellipse fill="none" stroke="#000000" cx="343.3774" cy="-167.2497" rx="3.2" ry="3.2"/>
</g>
<!-- oportunidades&#45;&gt;contactos -->
<g id="edge4" class="edge">
<title>oportunidades:w&#45;&gt;contactos:e</title>
<path fill="none" stroke="#000000" d="M166.6662,-184.6697C151.5842,-170.4018 159.4614,-130.7 131.5,-130.7"/>
<polygon fill="#000000" stroke="#000000" points="172.9816,-186.9661 179.2697,-193.0833 176.7408,-188.3331 180.5,-189.7 180.5,-189.7 180.5,-189.7 176.7408,-188.3331 181.7303,-186.3167 172.9816,-186.9661 172.9816,-186.9661"/>
<ellipse fill="none" stroke="#000000" cx="169.9743" cy="-185.8725" rx="3.2" ry="3.2"/>
</g>
</g>
</svg>
