<?xml version="1.0" encoding="UTF-8" standalone="no"?>
<!DOCTYPE svg PUBLIC "-//W3C//DTD SVG 1.1//EN"
 "http://www.w3.org/Graphics/SVG/1.1/DTD/svg11.dtd">
<!-- Generated by graphviz version 2.40.1 (20161225.0304)
 -->
<!-- Title: twoDegreesRelationshipsDiagram Pages: 1 -->
<svg width="817pt" height="333pt"
 viewBox="0.00 0.00 817.00 332.70" xmlns="http://www.w3.org/2000/svg" xmlns:xlink="http://www.w3.org/1999/xlink">
<g id="graph0" class="graph" transform="scale(1 1) rotate(0) translate(4 328.7)">
<title>twoDegreesRelationshipsDiagram</title>
<polygon fill="#ffffff" stroke="transparent" points="-4,4 -4,-328.7 813,-328.7 813,4 -4,4"/>
<text text-anchor="middle" x="72.4936" y="-7.3" font-family="Helvetica,sans-Serif" font-size="11.00" fill="#000000">Generated by SchemaSpy</text>
<!-- encuesta_pregunta_opciones -->
<g id="node1" class="node">
<title>encuesta_pregunta_opciones</title>
<g id="a_node1"><a xlink:href="../../tables/encuesta_pregunta_opciones.html" xlink:title="encuesta_pregunta_opciones" target="_top">
<polygon fill="#ffffff" stroke="transparent" points="559,-38.2 559,-99.2 746,-99.2 746,-38.2 559,-38.2"/>
<polygon fill="#f5f5f5" stroke="transparent" points="559.5,-75.7 559.5,-98.7 746.5,-98.7 746.5,-75.7 559.5,-75.7"/>
<polygon fill="none" stroke="#000000" points="559.5,-75.7 559.5,-98.7 746.5,-98.7 746.5,-75.7 559.5,-75.7"/>
<text text-anchor="start" x="564.3576" y="-84.8" font-family="Helvetica,sans-Serif" font-weight="bold" font-size="11.00" fill="#000000">encuesta_pregunta_opciones</text>
<text text-anchor="start" x="712.0219" y="-83.8" font-family="Helvetica,sans-Serif" font-size="11.00" fill="#000000">[table]</text>
<polygon fill="none" stroke="#000000" points="559.5,-56.7 559.5,-75.7 746.5,-75.7 746.5,-56.7 559.5,-56.7"/>
<text text-anchor="start" x="562.5" y="-62.8" font-family="Helvetica,sans-Serif" font-size="11.00" fill="#000000">...</text>
<polygon fill="#ffffff" stroke="transparent" points="559.5,-37.7 559.5,-56.7 638.5,-56.7 638.5,-37.7 559.5,-37.7"/>
<polygon fill="none" stroke="#000000" points="559.5,-37.7 559.5,-56.7 638.5,-56.7 638.5,-37.7 559.5,-37.7"/>
<text text-anchor="start" x="562.5" y="-43.8" font-family="Helvetica,sans-Serif" font-size="11.00" fill="#000000">&lt; 1</text>
<polygon fill="#ffffff" stroke="transparent" points="638.5,-37.7 638.5,-56.7 705.5,-56.7 705.5,-37.7 638.5,-37.7"/>
<polygon fill="none" stroke="#000000" points="638.5,-37.7 638.5,-56.7 705.5,-56.7 705.5,-37.7 638.5,-37.7"/>
<text text-anchor="start" x="670.1105" y="-43.8" font-family="Helvetica,sans-Serif" font-size="11.00" fill="#000000">5 rows</text>
<polygon fill="#ffffff" stroke="transparent" points="705.5,-37.7 705.5,-56.7 746.5,-56.7 746.5,-37.7 705.5,-37.7"/>
<polygon fill="none" stroke="#000000" points="705.5,-37.7 705.5,-56.7 746.5,-56.7 746.5,-37.7 705.5,-37.7"/>
<text text-anchor="start" x="737.3862" y="-43.8" font-family="Helvetica,sans-Serif" font-size="11.00" fill="#000000"> &#160;</text>
</a>
</g>
</g>
<!-- encuesta_preguntas -->
<g id="node2" class="node">
<title>encuesta_preguntas</title>
<g id="a_node2"><a xlink:href="../../tables/encuesta_preguntas.html" xlink:title="encuesta_preguntas" target="_top">
<polygon fill="#ffffff" stroke="transparent" points="310.5,-41.2 310.5,-124.2 452.5,-124.2 452.5,-41.2 310.5,-41.2"/>
<polygon fill="#f5f5f5" stroke="transparent" points="310.5,-100.7 310.5,-123.7 452.5,-123.7 452.5,-100.7 310.5,-100.7"/>
<polygon fill="none" stroke="#000000" points="310.5,-100.7 310.5,-123.7 452.5,-123.7 452.5,-100.7 310.5,-100.7"/>
<text text-anchor="start" x="315.1728" y="-109.8" font-family="Helvetica,sans-Serif" font-weight="bold" font-size="11.00" fill="#000000">encuesta_preguntas</text>
<text text-anchor="start" x="418.0219" y="-108.8" font-family="Helvetica,sans-Serif" font-size="11.00" fill="#000000">[table]</text>
<polygon fill="none" stroke="#000000" points="310.5,-78.7 310.5,-100.7 452.5,-100.7 452.5,-78.7 310.5,-78.7"/>
<image xlink:href="../../images/primaryKeys.png" width="11px" height="12px" preserveAspectRatio="xMinYMin meet" x="315.5" y="-95.7"/>
<text text-anchor="start" x="333.5" y="-85.8" font-family="Helvetica,sans-Serif" font-size="11.00" fill="#000000">pregunta_id</text>
<polygon fill="none" stroke="#000000" points="310.5,-59.7 310.5,-78.7 452.5,-78.7 452.5,-59.7 310.5,-59.7"/>
<text text-anchor="start" x="313.5" y="-65.8" font-family="Helvetica,sans-Serif" font-size="11.00" fill="#000000">...</text>
<polygon fill="#ffffff" stroke="transparent" points="310.5,-40.7 310.5,-59.7 357.5,-59.7 357.5,-40.7 310.5,-40.7"/>
<polygon fill="none" stroke="#000000" points="310.5,-40.7 310.5,-59.7 357.5,-59.7 357.5,-40.7 310.5,-40.7"/>
<text text-anchor="start" x="313.5" y="-46.8" font-family="Helvetica,sans-Serif" font-size="11.00" fill="#000000"> &#160;</text>
<polygon fill="#ffffff" stroke="transparent" points="357.5,-40.7 357.5,-59.7 413.5,-59.7 413.5,-40.7 357.5,-40.7"/>
<polygon fill="none" stroke="#000000" points="357.5,-40.7 357.5,-59.7 413.5,-59.7 413.5,-40.7 357.5,-40.7"/>
<text text-anchor="start" x="378.1105" y="-46.8" font-family="Helvetica,sans-Serif" font-size="11.00" fill="#000000">2 rows</text>
<polygon fill="#ffffff" stroke="transparent" points="413.5,-40.7 413.5,-59.7 452.5,-59.7 452.5,-40.7 413.5,-40.7"/>
<polygon fill="none" stroke="#000000" points="413.5,-40.7 413.5,-59.7 452.5,-59.7 452.5,-40.7 413.5,-40.7"/>
<text text-anchor="start" x="433.9053" y="-46.8" font-family="Helvetica,sans-Serif" font-size="11.00" fill="#000000">2 &gt;</text>
</a>
</g>
</g>
<!-- encuesta_pregunta_opciones&#45;&gt;encuesta_preguntas -->
<g id="edge1" class="edge">
<title>encuesta_pregunta_opciones:w&#45;&gt;encuesta_preguntas:e</title>
<path fill="none" stroke="#000000" d="M544.8128,-66.4985C508.21,-70.6629 495.9065,-89.7 452.5,-89.7"/>
<polygon fill="#000000" stroke="#000000" points="551.5118,-66.1344 559.6955,-69.2947 555.5059,-65.9172 559.5,-65.7 559.5,-65.7 559.5,-65.7 555.5059,-65.9172 559.3045,-62.1053 551.5118,-66.1344 551.5118,-66.1344"/>
<ellipse fill="none" stroke="#000000" cx="548.3165" cy="-66.3081" rx="3.2" ry="3.2"/>
</g>
<!-- encuesta_pregunta_respuestas -->
<g id="node3" class="node">
<title>encuesta_pregunta_respuestas</title>
<g id="a_node3"><a xlink:href="../../tables/encuesta_pregunta_respuestas.html" xlink:title="encuesta_pregunta_respuestas" target="_top">
<polygon fill="#ffffff" stroke="transparent" points="504,-120.7 504,-320.7 801,-320.7 801,-120.7 504,-120.7"/>
<polygon fill="#f5f5f5" stroke="transparent" points="506.5,-295.7 506.5,-318.7 799.5,-318.7 799.5,-295.7 506.5,-295.7"/>
<polygon fill="none" stroke="#000000" points="506.5,-295.7 506.5,-318.7 799.5,-318.7 799.5,-295.7 506.5,-295.7"/>
<text text-anchor="start" x="511.5" y="-304.8" font-family="Helvetica,sans-Serif" font-weight="bold" font-size="11.00" fill="#000000">encuesta_pregunta_respuestas</text>
<text text-anchor="start" x="764.5437" y="-303.8" font-family="Helvetica,sans-Serif" font-size="11.00" fill="#000000">[table]</text>
<polygon fill="none" stroke="#000000" points="506.5,-273.7 506.5,-295.7 707.5,-295.7 707.5,-273.7 506.5,-273.7"/>
<image xlink:href="../../images/primaryKeys.png" width="11px" height="12px" preserveAspectRatio="xMinYMin meet" x="511.5" y="-290.7"/>
<text text-anchor="start" x="526.5" y="-280.8" font-family="Helvetica,sans-Serif" font-size="11.00" fill="#000000">pregunta_respuesta_id</text>
<polygon fill="none" stroke="#000000" points="707.5,-273.7 707.5,-295.7 799.5,-295.7 799.5,-273.7 707.5,-273.7"/>
<text text-anchor="start" x="710.5" y="-281.4" font-family="Helvetica,sans-Serif" font-size="11.00" fill="#000000">serial[10]</text>
<polygon fill="none" stroke="#000000" points="506.5,-251.7 506.5,-273.7 707.5,-273.7 707.5,-251.7 506.5,-251.7"/>
<image xlink:href="../../images/foreignKeys.png" width="11px" height="12px" preserveAspectRatio="xMinYMin meet" x="511.5" y="-268.7"/>
<text text-anchor="start" x="526.5" y="-258.8" font-family="Helvetica,sans-Serif" font-size="11.00" fill="#000000">respuesta_id</text>
<polygon fill="none" stroke="#000000" points="707.5,-251.7 707.5,-273.7 799.5,-273.7 799.5,-251.7 707.5,-251.7"/>
<text text-anchor="start" x="710.5" y="-259.4" font-family="Helvetica,sans-Serif" font-size="11.00" fill="#000000">int4[10]</text>
<polygon fill="none" stroke="#000000" points="506.5,-229.7 506.5,-251.7 707.5,-251.7 707.5,-229.7 506.5,-229.7"/>
<image xlink:href="../../images/foreignKeys.png" width="11px" height="12px" preserveAspectRatio="xMinYMin meet" x="511.5" y="-246.7"/>
<text text-anchor="start" x="526.5" y="-236.8" font-family="Helvetica,sans-Serif" font-size="11.00" fill="#000000">pregunta_id</text>
<polygon fill="none" stroke="#000000" points="707.5,-229.7 707.5,-251.7 799.5,-251.7 799.5,-229.7 707.5,-229.7"/>
<text text-anchor="start" x="710.5" y="-237.4" font-family="Helvetica,sans-Serif" font-size="11.00" fill="#000000">int4[10]</text>
<polygon fill="none" stroke="#000000" points="506.5,-207.7 506.5,-229.7 707.5,-229.7 707.5,-207.7 506.5,-207.7"/>
<text text-anchor="start" x="526.5" y="-214.8" font-family="Helvetica,sans-Serif" font-size="11.00" fill="#000000">valor</text>
<polygon fill="none" stroke="#000000" points="707.5,-207.7 707.5,-229.7 799.5,-229.7 799.5,-207.7 707.5,-207.7"/>
<text text-anchor="start" x="710.5" y="-215.4" font-family="Helvetica,sans-Serif" font-size="11.00" fill="#000000">int4[10]</text>
<polygon fill="none" stroke="#000000" points="506.5,-185.7 506.5,-207.7 707.5,-207.7 707.5,-185.7 506.5,-185.7"/>
<text text-anchor="start" x="526.5" y="-192.8" font-family="Helvetica,sans-Serif" font-size="11.00" fill="#000000">valor_texto</text>
<polygon fill="none" stroke="#000000" points="707.5,-185.7 707.5,-207.7 799.5,-207.7 799.5,-185.7 707.5,-185.7"/>
<text text-anchor="start" x="710.5" y="-193.4" font-family="Helvetica,sans-Serif" font-size="11.00" fill="#000000">text[2147483647]</text>
<polygon fill="none" stroke="#000000" points="506.5,-163.7 506.5,-185.7 707.5,-185.7 707.5,-163.7 506.5,-163.7"/>
<text text-anchor="start" x="526.5" y="-170.8" font-family="Helvetica,sans-Serif" font-size="11.00" fill="#000000">fec_insercion</text>
<polygon fill="none" stroke="#000000" points="707.5,-163.7 707.5,-185.7 799.5,-185.7 799.5,-163.7 707.5,-163.7"/>
<text text-anchor="start" x="710.1023" y="-171.4" font-family="Helvetica,sans-Serif" font-size="11.00" fill="#000000">timestamptz[35,6]</text>
<polygon fill="none" stroke="#000000" points="506.5,-141.7 506.5,-163.7 707.5,-163.7 707.5,-141.7 506.5,-141.7"/>
<text text-anchor="start" x="526.5" y="-148.8" font-family="Helvetica,sans-Serif" font-size="11.00" fill="#000000">fec_modificacion</text>
<polygon fill="none" stroke="#000000" points="707.5,-141.7 707.5,-163.7 799.5,-163.7 799.5,-141.7 707.5,-141.7"/>
<text text-anchor="start" x="710.1023" y="-149.4" font-family="Helvetica,sans-Serif" font-size="11.00" fill="#000000">timestamptz[35,6]</text>
<polygon fill="#ffffff" stroke="transparent" points="506.5,-122.7 506.5,-141.7 598.5,-141.7 598.5,-122.7 506.5,-122.7"/>
<polygon fill="none" stroke="#000000" points="506.5,-122.7 506.5,-141.7 598.5,-141.7 598.5,-122.7 506.5,-122.7"/>
<text text-anchor="start" x="509.5" y="-128.8" font-family="Helvetica,sans-Serif" font-size="11.00" fill="#000000">&lt; 2</text>
<polygon fill="#ffffff" stroke="transparent" points="598.5,-122.7 598.5,-141.7 707.5,-141.7 707.5,-122.7 598.5,-122.7"/>
<polygon fill="none" stroke="#000000" points="598.5,-122.7 598.5,-141.7 707.5,-141.7 707.5,-122.7 598.5,-122.7"/>
<text text-anchor="start" x="672.1105" y="-128.8" font-family="Helvetica,sans-Serif" font-size="11.00" fill="#000000">8 rows</text>
<polygon fill="#ffffff" stroke="transparent" points="707.5,-122.7 707.5,-141.7 799.5,-141.7 799.5,-122.7 707.5,-122.7"/>
<polygon fill="none" stroke="#000000" points="707.5,-122.7 707.5,-141.7 799.5,-141.7 799.5,-122.7 707.5,-122.7"/>
<text text-anchor="start" x="780.9053" y="-128.8" font-family="Helvetica,sans-Serif" font-size="11.00" fill="#000000">0 &gt;</text>
<polygon fill="none" stroke="#000000" stroke-width="2" points="505,-121.7 505,-319.7 800,-319.7 800,-121.7 505,-121.7"/>
</a>
</g>
</g>
<!-- encuesta_pregunta_respuestas&#45;&gt;encuesta_preguntas -->
<g id="edge2" class="edge">
<title>encuesta_pregunta_respuestas:w&#45;&gt;encuesta_preguntas:e</title>
<path fill="none" stroke="#000000" d="M492.2881,-237.9502C448.3831,-217.4847 518.066,-89.7 452.5,-89.7"/>
<polygon fill="#000000" stroke="#000000" points="498.6457,-239.1803 505.8161,-244.2344 502.5728,-239.9401 506.5,-240.7 506.5,-240.7 506.5,-240.7 502.5728,-239.9401 507.1839,-237.1656 498.6457,-239.1803 498.6457,-239.1803"/>
<ellipse fill="none" stroke="#000000" cx="495.5039" cy="-238.5724" rx="3.2" ry="3.2"/>
</g>
<!-- encuesta_respuestas -->
<g id="node4" class="node">
<title>encuesta_respuestas</title>
<g id="a_node4"><a xlink:href="../../tables/encuesta_respuestas.html" xlink:title="encuesta_respuestas" target="_top">
<polygon fill="#ffffff" stroke="transparent" points="308,-170.2 308,-297.2 455,-297.2 455,-170.2 308,-170.2"/>
<polygon fill="#f5f5f5" stroke="transparent" points="308.5,-273.7 308.5,-296.7 455.5,-296.7 455.5,-273.7 308.5,-273.7"/>
<polygon fill="none" stroke="#000000" points="308.5,-273.7 308.5,-296.7 455.5,-296.7 455.5,-273.7 308.5,-273.7"/>
<text text-anchor="start" x="313.2302" y="-282.8" font-family="Helvetica,sans-Serif" font-weight="bold" font-size="11.00" fill="#000000">encuesta_respuestas</text>
<text text-anchor="start" x="421.0219" y="-281.8" font-family="Helvetica,sans-Serif" font-size="11.00" fill="#000000">[table]</text>
<polygon fill="none" stroke="#000000" points="308.5,-251.7 308.5,-273.7 455.5,-273.7 455.5,-251.7 308.5,-251.7"/>
<image xlink:href="../../images/primaryKeys.png" width="11px" height="12px" preserveAspectRatio="xMinYMin meet" x="313.5" y="-268.7"/>
<text text-anchor="start" x="330.5" y="-258.8" font-family="Helvetica,sans-Serif" font-size="11.00" fill="#000000">respuesta_id</text>
<polygon fill="none" stroke="#000000" points="308.5,-229.7 308.5,-251.7 455.5,-251.7 455.5,-229.7 308.5,-229.7"/>
<image xlink:href="../../images/foreignKeys.png" width="11px" height="12px" preserveAspectRatio="xMinYMin meet" x="313.5" y="-246.7"/>
<text text-anchor="start" x="330.5" y="-236.8" font-family="Helvetica,sans-Serif" font-size="11.00" fill="#000000">oportunidad_id</text>
<polygon fill="none" stroke="#000000" points="308.5,-207.7 308.5,-229.7 455.5,-229.7 455.5,-207.7 308.5,-207.7"/>
<image xlink:href="../../images/foreignKeys.png" width="11px" height="12px" preserveAspectRatio="xMinYMin meet" x="313.5" y="-224.7"/>
<text text-anchor="start" x="330.5" y="-214.8" font-family="Helvetica,sans-Serif" font-size="11.00" fill="#000000">contacto_id</text>
<polygon fill="none" stroke="#000000" points="308.5,-188.7 308.5,-207.7 455.5,-207.7 455.5,-188.7 308.5,-188.7"/>
<text text-anchor="start" x="311.5" y="-194.8" font-family="Helvetica,sans-Serif" font-size="11.00" fill="#000000">...</text>
<polygon fill="#ffffff" stroke="transparent" points="308.5,-169.7 308.5,-188.7 362.5,-188.7 362.5,-169.7 308.5,-169.7"/>
<polygon fill="none" stroke="#000000" points="308.5,-169.7 308.5,-188.7 362.5,-188.7 362.5,-169.7 308.5,-169.7"/>
<text text-anchor="start" x="311.5" y="-175.8" font-family="Helvetica,sans-Serif" font-size="11.00" fill="#000000">&lt; 2</text>
<polygon fill="#ffffff" stroke="transparent" points="362.5,-169.7 362.5,-188.7 417.5,-188.7 417.5,-169.7 362.5,-169.7"/>
<polygon fill="none" stroke="#000000" points="362.5,-169.7 362.5,-188.7 417.5,-188.7 417.5,-169.7 362.5,-169.7"/>
<text text-anchor="start" x="382.1105" y="-175.8" font-family="Helvetica,sans-Serif" font-size="11.00" fill="#000000">4 rows</text>
<polygon fill="#ffffff" stroke="transparent" points="417.5,-169.7 417.5,-188.7 455.5,-188.7 455.5,-169.7 417.5,-169.7"/>
<polygon fill="none" stroke="#000000" points="417.5,-169.7 417.5,-188.7 455.5,-188.7 455.5,-169.7 417.5,-169.7"/>
<text text-anchor="start" x="436.9053" y="-175.8" font-family="Helvetica,sans-Serif" font-size="11.00" fill="#000000">1 &gt;</text>
</a>
</g>
</g>
<!-- encuesta_pregunta_respuestas&#45;&gt;encuesta_respuestas -->
<g id="edge3" class="edge">
<title>encuesta_pregunta_respuestas:w&#45;&gt;encuesta_respuestas:e</title>
<path fill="none" stroke="#000000" d="M491.776,-262.7C479.7815,-262.7 472.3229,-262.7 455.5,-262.7"/>
<polygon fill="#000000" stroke="#000000" points="498.5,-262.7001 506.5,-266.3 502.5,-262.7 506.5,-262.7 506.5,-262.7 506.5,-262.7 502.5,-262.7 506.5,-259.1 498.5,-262.7001 498.5,-262.7001"/>
<ellipse fill="none" stroke="#000000" cx="495.3" cy="-262.7001" rx="3.2" ry="3.2"/>
</g>
<!-- contactos -->
<g id="node5" class="node">
<title>contactos</title>
<g id="a_node5"><a xlink:href="../../tables/contactos.html" xlink:title="contactos" target="_top">
<polygon fill="#ffffff" stroke="transparent" points="8,-202.2 8,-263.2 98,-263.2 98,-202.2 8,-202.2"/>
<polygon fill="#f5f5f5" stroke="transparent" points="8,-239.7 8,-262.7 98,-262.7 98,-239.7 8,-239.7"/>
<polygon fill="none" stroke="#000000" points="8,-239.7 8,-262.7 98,-262.7 98,-239.7 8,-239.7"/>
<text text-anchor="start" x="12.9633" y="-248.8" font-family="Helvetica,sans-Serif" font-weight="bold" font-size="11.00" fill="#000000">contactos</text>
<text text-anchor="start" x="63.5219" y="-247.8" font-family="Helvetica,sans-Serif" font-size="11.00" fill="#000000">[table]</text>
<polygon fill="none" stroke="#000000" points="8,-220.7 8,-239.7 98,-239.7 98,-220.7 8,-220.7"/>
<text text-anchor="start" x="11" y="-226.8" font-family="Helvetica,sans-Serif" font-size="11.00" fill="#000000">...</text>
<polygon fill="#ffffff" stroke="transparent" points="8,-201.7 8,-220.7 34,-220.7 34,-201.7 8,-201.7"/>
<polygon fill="none" stroke="#000000" points="8,-201.7 8,-220.7 34,-220.7 34,-201.7 8,-201.7"/>
<text text-anchor="start" x="11" y="-207.8" font-family="Helvetica,sans-Serif" font-size="11.00" fill="#000000">&lt; 2</text>
<polygon fill="#ffffff" stroke="transparent" points="34,-201.7 34,-220.7 74,-220.7 74,-201.7 34,-201.7"/>
<polygon fill="none" stroke="#000000" points="34,-201.7 34,-220.7 74,-220.7 74,-201.7 34,-201.7"/>
<text text-anchor="start" x="38.6105" y="-207.8" font-family="Helvetica,sans-Serif" font-size="11.00" fill="#000000">2 rows</text>
<polygon fill="#ffffff" stroke="transparent" points="74,-201.7 74,-220.7 98,-220.7 98,-201.7 74,-201.7"/>
<polygon fill="none" stroke="#000000" points="74,-201.7 74,-220.7 98,-220.7 98,-201.7 74,-201.7"/>
<text text-anchor="start" x="79.4053" y="-207.8" font-family="Helvetica,sans-Serif" font-size="11.00" fill="#000000">5 &gt;</text>
</a>
</g>
</g>
<!-- encuesta_respuestas&#45;&gt;contactos -->
<g id="edge4" class="edge">
<title>encuesta_respuestas:w&#45;&gt;contactos:e</title>
<path fill="none" stroke="#000000" d="M293.7966,-218.547C230.2297,-217.2065 208.4748,-207.7418 139,-217.7 120.2054,-220.3939 116.9867,-229.7 98,-229.7"/>
<polygon fill="#000000" stroke="#000000" points="300.5004,-218.6167 308.4625,-222.2998 304.5002,-218.6584 308.5,-218.7 308.5,-218.7 308.5,-218.7 304.5002,-218.6584 308.5375,-215.1002 300.5004,-218.6167 300.5004,-218.6167"/>
<ellipse fill="none" stroke="#000000" cx="297.3006" cy="-218.5834" rx="3.2" ry="3.2"/>
</g>
<!-- oportunidades -->
<g id="node6" class="node">
<title>oportunidades</title>
<g id="a_node6"><a xlink:href="../../tables/oportunidades.html" xlink:title="oportunidades" target="_top">
<polygon fill="#ffffff" stroke="transparent" points="147,-228.2 147,-289.2 259,-289.2 259,-228.2 147,-228.2"/>
<polygon fill="#f5f5f5" stroke="transparent" points="147,-265.7 147,-288.7 259,-288.7 259,-265.7 147,-265.7"/>
<polygon fill="none" stroke="#000000" points="147,-265.7 147,-288.7 259,-288.7 259,-265.7 147,-265.7"/>
<text text-anchor="start" x="151.6531" y="-274.8" font-family="Helvetica,sans-Serif" font-weight="bold" font-size="11.00" fill="#000000">oportunidades</text>
<text text-anchor="start" x="224.5219" y="-273.8" font-family="Helvetica,sans-Serif" font-size="11.00" fill="#000000">[table]</text>
<polygon fill="none" stroke="#000000" points="147,-246.7 147,-265.7 259,-265.7 259,-246.7 147,-246.7"/>
<text text-anchor="start" x="150" y="-252.8" font-family="Helvetica,sans-Serif" font-size="11.00" fill="#000000">...</text>
<polygon fill="#ffffff" stroke="transparent" points="147,-227.7 147,-246.7 181,-246.7 181,-227.7 147,-227.7"/>
<polygon fill="none" stroke="#000000" points="147,-227.7 147,-246.7 181,-246.7 181,-227.7 147,-227.7"/>
<text text-anchor="start" x="150" y="-233.8" font-family="Helvetica,sans-Serif" font-size="11.00" fill="#000000">&lt; 4</text>
<polygon fill="#ffffff" stroke="transparent" points="181,-227.7 181,-246.7 231,-246.7 231,-227.7 181,-227.7"/>
<polygon fill="none" stroke="#000000" points="181,-227.7 181,-246.7 231,-246.7 231,-227.7 181,-227.7"/>
<text text-anchor="start" x="189.4956" y="-233.8" font-family="Helvetica,sans-Serif" font-size="11.00" fill="#000000">13 rows</text>
<polygon fill="#ffffff" stroke="transparent" points="231,-227.7 231,-246.7 259,-246.7 259,-227.7 231,-227.7"/>
<polygon fill="none" stroke="#000000" points="231,-227.7 231,-246.7 259,-246.7 259,-227.7 231,-227.7"/>
<text text-anchor="start" x="240.4053" y="-233.8" font-family="Helvetica,sans-Serif" font-size="11.00" fill="#000000">1 &gt;</text>
</a>
</g>
</g>
<!-- encuesta_respuestas&#45;&gt;oportunidades -->
<g id="edge5" class="edge">
<title>encuesta_respuestas:w&#45;&gt;oportunidades:e</title>
<path fill="none" stroke="#000000" d="M293.9343,-243.1769C282.4012,-247.4374 276.0613,-255.7 259,-255.7"/>
<polygon fill="#000000" stroke="#000000" points="300.6132,-242.0412 309.1035,-244.249 304.5566,-241.3706 308.5,-240.7 308.5,-240.7 308.5,-240.7 304.5566,-241.3706 307.8965,-237.151 300.6132,-242.0412 300.6132,-242.0412"/>
<ellipse fill="none" stroke="#000000" cx="297.4585" cy="-242.5777" rx="3.2" ry="3.2"/>
</g>
<!-- oportunidades&#45;&gt;contactos -->
<g id="edge6" class="edge">
<title>oportunidades:w&#45;&gt;contactos:e</title>
<path fill="none" stroke="#000000" d="M132.7707,-251.8636C121.0311,-244.6313 116.6828,-229.7 98,-229.7"/>
<polygon fill="#000000" stroke="#000000" points="139.2758,-253.6174 146.0628,-259.1759 143.1379,-254.6587 147,-255.7 147,-255.7 147,-255.7 143.1379,-254.6587 147.9372,-252.2241 139.2758,-253.6174 139.2758,-253.6174"/>
<ellipse fill="none" stroke="#000000" cx="136.1861" cy="-252.7844" rx="3.2" ry="3.2"/>
</g>
</g>
</svg>
