<?xml version="1.0" encoding="UTF-8" standalone="no"?>
<!DOCTYPE svg PUBLIC "-//W3C//DTD SVG 1.1//EN"
 "http://www.w3.org/Graphics/SVG/1.1/DTD/svg11.dtd">
<!-- Generated by graphviz version 2.40.1 (20161225.0304)
 -->
<!-- Title: twoDegreesRelationshipsDiagram Pages: 1 -->
<svg width="507pt" height="343pt"
 viewBox="0.00 0.00 507.00 342.70" xmlns="http://www.w3.org/2000/svg" xmlns:xlink="http://www.w3.org/1999/xlink">
<g id="graph0" class="graph" transform="scale(1 1) rotate(0) translate(4 338.7)">
<title>twoDegreesRelationshipsDiagram</title>
<polygon fill="#ffffff" stroke="transparent" points="-4,4 -4,-338.7 503,-338.7 503,4 -4,4"/>
<text text-anchor="middle" x="72.4936" y="-7.3" font-family="Helvetica,sans-Serif" font-size="11.00" fill="#000000">Generated by SchemaSpy</text>
<!-- encuesta_pregunta_opciones -->
<g id="node1" class="node">
<title>encuesta_pregunta_opciones</title>
<g id="a_node1"><a xlink:href="../../tables/encuesta_pregunta_opciones.html" xlink:title="encuesta_pregunta_opciones" target="_top">
<polygon fill="#ffffff" stroke="transparent" points="295.5,-77.7 295.5,-182.7 485.5,-182.7 485.5,-77.7 295.5,-77.7"/>
<polygon fill="#f5f5f5" stroke="transparent" points="295.5,-159.2 295.5,-182.2 485.5,-182.2 485.5,-159.2 295.5,-159.2"/>
<polygon fill="none" stroke="#000000" points="295.5,-159.2 295.5,-182.2 485.5,-182.2 485.5,-159.2 295.5,-159.2"/>
<text text-anchor="start" x="300.5" y="-168.3" font-family="Helvetica,sans-Serif" font-weight="bold" font-size="11.00" fill="#000000">encuesta_pregunta_opciones</text>
<text text-anchor="start" x="450.5437" y="-167.3" font-family="Helvetica,sans-Serif" font-size="11.00" fill="#000000">[table]</text>
<polygon fill="none" stroke="#000000" points="295.5,-137.2 295.5,-159.2 485.5,-159.2 485.5,-137.2 295.5,-137.2"/>
<image xlink:href="../../images/primaryKeys.png" width="11px" height="12px" preserveAspectRatio="xMinYMin meet" x="300.5" y="-154.2"/>
<text text-anchor="start" x="315.5" y="-144.3" font-family="Helvetica,sans-Serif" font-size="11.00" fill="#000000">opcion_id</text>
<polygon fill="none" stroke="#000000" points="295.5,-115.2 295.5,-137.2 485.5,-137.2 485.5,-115.2 295.5,-115.2"/>
<image xlink:href="../../images/foreignKeys.png" width="11px" height="12px" preserveAspectRatio="xMinYMin meet" x="300.5" y="-132.2"/>
<text text-anchor="start" x="315.5" y="-122.3" font-family="Helvetica,sans-Serif" font-size="11.00" fill="#000000">pregunta_id</text>
<polygon fill="none" stroke="#000000" points="295.5,-96.2 295.5,-115.2 485.5,-115.2 485.5,-96.2 295.5,-96.2"/>
<text text-anchor="start" x="298.5" y="-102.3" font-family="Helvetica,sans-Serif" font-size="11.00" fill="#000000">...</text>
<polygon fill="#ffffff" stroke="transparent" points="295.5,-77.2 295.5,-96.2 375.5,-96.2 375.5,-77.2 295.5,-77.2"/>
<polygon fill="none" stroke="#000000" points="295.5,-77.2 295.5,-96.2 375.5,-96.2 375.5,-77.2 295.5,-77.2"/>
<text text-anchor="start" x="298.5" y="-83.3" font-family="Helvetica,sans-Serif" font-size="11.00" fill="#000000">&lt; 1</text>
<polygon fill="#ffffff" stroke="transparent" points="375.5,-77.2 375.5,-96.2 443.5,-96.2 443.5,-77.2 375.5,-77.2"/>
<polygon fill="none" stroke="#000000" points="375.5,-77.2 375.5,-96.2 443.5,-96.2 443.5,-77.2 375.5,-77.2"/>
<text text-anchor="start" x="408.1105" y="-83.3" font-family="Helvetica,sans-Serif" font-size="11.00" fill="#000000">5 rows</text>
<polygon fill="#ffffff" stroke="transparent" points="443.5,-77.2 443.5,-96.2 485.5,-96.2 485.5,-77.2 443.5,-77.2"/>
<polygon fill="none" stroke="#000000" points="443.5,-77.2 443.5,-96.2 485.5,-96.2 485.5,-77.2 443.5,-77.2"/>
<text text-anchor="start" x="476.3862" y="-83.3" font-family="Helvetica,sans-Serif" font-size="11.00" fill="#000000"> &#160;</text>
</a>
</g>
</g>
<!-- encuesta_preguntas -->
<g id="node2" class="node">
<title>encuesta_preguntas</title>
<g id="a_node2"><a xlink:href="../../tables/encuesta_preguntas.html" xlink:title="encuesta_preguntas" target="_top">
<polygon fill="#ffffff" stroke="transparent" points="8,-38.2 8,-194.2 241,-194.2 241,-38.2 8,-38.2"/>
<polygon fill="#f5f5f5" stroke="transparent" points="10.5,-169.2 10.5,-192.2 239.5,-192.2 239.5,-169.2 10.5,-169.2"/>
<polygon fill="none" stroke="#000000" points="10.5,-169.2 10.5,-192.2 239.5,-192.2 239.5,-169.2 10.5,-169.2"/>
<text text-anchor="start" x="15.5" y="-178.3" font-family="Helvetica,sans-Serif" font-weight="bold" font-size="11.00" fill="#000000">encuesta_preguntas</text>
<text text-anchor="start" x="204.5437" y="-177.3" font-family="Helvetica,sans-Serif" font-size="11.00" fill="#000000">[table]</text>
<polygon fill="none" stroke="#000000" points="10.5,-147.2 10.5,-169.2 147.5,-169.2 147.5,-147.2 10.5,-147.2"/>
<image xlink:href="../../images/primaryKeys.png" width="11px" height="12px" preserveAspectRatio="xMinYMin meet" x="15.5" y="-164.2"/>
<text text-anchor="start" x="30.5" y="-154.3" font-family="Helvetica,sans-Serif" font-size="11.00" fill="#000000">pregunta_id</text>
<polygon fill="none" stroke="#000000" points="147.5,-147.2 147.5,-169.2 239.5,-169.2 239.5,-147.2 147.5,-147.2"/>
<text text-anchor="start" x="150.5" y="-154.9" font-family="Helvetica,sans-Serif" font-size="11.00" fill="#000000">serial[10]</text>
<polygon fill="none" stroke="#000000" points="10.5,-125.2 10.5,-147.2 147.5,-147.2 147.5,-125.2 10.5,-125.2"/>
<text text-anchor="start" x="30.5" y="-132.3" font-family="Helvetica,sans-Serif" font-size="11.00" fill="#000000">pregunta</text>
<polygon fill="none" stroke="#000000" points="147.5,-125.2 147.5,-147.2 239.5,-147.2 239.5,-125.2 147.5,-125.2"/>
<text text-anchor="start" x="150.5" y="-132.9" font-family="Helvetica,sans-Serif" font-size="11.00" fill="#000000">varchar[255]</text>
<polygon fill="none" stroke="#000000" points="10.5,-103.2 10.5,-125.2 147.5,-125.2 147.5,-103.2 10.5,-103.2"/>
<text text-anchor="start" x="30.5" y="-110.3" font-family="Helvetica,sans-Serif" font-size="11.00" fill="#000000">obligatorio</text>
<polygon fill="none" stroke="#000000" points="147.5,-103.2 147.5,-125.2 239.5,-125.2 239.5,-103.2 147.5,-103.2"/>
<text text-anchor="start" x="150.5" y="-110.9" font-family="Helvetica,sans-Serif" font-size="11.00" fill="#000000">bool[1]</text>
<polygon fill="none" stroke="#000000" points="10.5,-81.2 10.5,-103.2 147.5,-103.2 147.5,-81.2 10.5,-81.2"/>
<text text-anchor="start" x="30.5" y="-88.3" font-family="Helvetica,sans-Serif" font-size="11.00" fill="#000000">fec_insercion</text>
<polygon fill="none" stroke="#000000" points="147.5,-81.2 147.5,-103.2 239.5,-103.2 239.5,-81.2 147.5,-81.2"/>
<text text-anchor="start" x="150.1023" y="-88.9" font-family="Helvetica,sans-Serif" font-size="11.00" fill="#000000">timestamptz[35,6]</text>
<polygon fill="none" stroke="#000000" points="10.5,-59.2 10.5,-81.2 147.5,-81.2 147.5,-59.2 10.5,-59.2"/>
<text text-anchor="start" x="30.5" y="-66.3" font-family="Helvetica,sans-Serif" font-size="11.00" fill="#000000">fec_modificacion</text>
<polygon fill="none" stroke="#000000" points="147.5,-59.2 147.5,-81.2 239.5,-81.2 239.5,-59.2 147.5,-59.2"/>
<text text-anchor="start" x="150.1023" y="-66.9" font-family="Helvetica,sans-Serif" font-size="11.00" fill="#000000">timestamptz[35,6]</text>
<polygon fill="#ffffff" stroke="transparent" points="10.5,-40.2 10.5,-59.2 70.5,-59.2 70.5,-40.2 10.5,-40.2"/>
<polygon fill="none" stroke="#000000" points="10.5,-40.2 10.5,-59.2 70.5,-59.2 70.5,-40.2 10.5,-40.2"/>
<text text-anchor="start" x="13.5" y="-46.3" font-family="Helvetica,sans-Serif" font-size="11.00" fill="#000000">&lt; 0</text>
<polygon fill="#ffffff" stroke="transparent" points="70.5,-40.2 70.5,-59.2 147.5,-59.2 147.5,-40.2 70.5,-40.2"/>
<polygon fill="none" stroke="#000000" points="70.5,-40.2 70.5,-59.2 147.5,-59.2 147.5,-40.2 70.5,-40.2"/>
<text text-anchor="start" x="112.1105" y="-46.3" font-family="Helvetica,sans-Serif" font-size="11.00" fill="#000000">2 rows</text>
<polygon fill="#ffffff" stroke="transparent" points="147.5,-40.2 147.5,-59.2 239.5,-59.2 239.5,-40.2 147.5,-40.2"/>
<polygon fill="none" stroke="#000000" points="147.5,-40.2 147.5,-59.2 239.5,-59.2 239.5,-40.2 147.5,-40.2"/>
<text text-anchor="start" x="220.9053" y="-46.3" font-family="Helvetica,sans-Serif" font-size="11.00" fill="#000000">2 &gt;</text>
<polygon fill="none" stroke="#000000" stroke-width="2" points="9,-39.2 9,-193.2 240,-193.2 240,-39.2 9,-39.2"/>
</a>
</g>
</g>
<!-- encuesta_pregunta_opciones&#45;&gt;encuesta_preguntas -->
<g id="edge1" class="edge">
<title>encuesta_pregunta_opciones:w&#45;&gt;encuesta_preguntas:e</title>
<path fill="none" stroke="#000000" d="M281.242,-129.6246C266.1375,-137.8797 262.3431,-158.2 239.5,-158.2"/>
<polygon fill="#000000" stroke="#000000" points="287.7212,-128.0684 296.3408,-129.7004 291.6106,-127.1342 295.5,-126.2 295.5,-126.2 295.5,-126.2 291.6106,-127.1342 294.6592,-122.6996 287.7212,-128.0684 287.7212,-128.0684"/>
<ellipse fill="none" stroke="#000000" cx="284.6097" cy="-128.8157" rx="3.2" ry="3.2"/>
</g>
<!-- encuesta_pregunta_respuestas -->
<g id="node3" class="node">
<title>encuesta_pregunta_respuestas</title>
<g id="a_node3"><a xlink:href="../../tables/encuesta_pregunta_respuestas.html" xlink:title="encuesta_pregunta_respuestas" target="_top">
<polygon fill="#ffffff" stroke="transparent" points="290,-203.7 290,-330.7 491,-330.7 491,-203.7 290,-203.7"/>
<polygon fill="#f5f5f5" stroke="transparent" points="290.5,-307.2 290.5,-330.2 491.5,-330.2 491.5,-307.2 290.5,-307.2"/>
<polygon fill="none" stroke="#000000" points="290.5,-307.2 290.5,-330.2 491.5,-330.2 491.5,-307.2 290.5,-307.2"/>
<text text-anchor="start" x="295.5" y="-316.3" font-family="Helvetica,sans-Serif" font-weight="bold" font-size="11.00" fill="#000000">encuesta_pregunta_respuestas</text>
<text text-anchor="start" x="456.5437" y="-315.3" font-family="Helvetica,sans-Serif" font-size="11.00" fill="#000000">[table]</text>
<polygon fill="none" stroke="#000000" points="290.5,-285.2 290.5,-307.2 491.5,-307.2 491.5,-285.2 290.5,-285.2"/>
<image xlink:href="../../images/primaryKeys.png" width="11px" height="12px" preserveAspectRatio="xMinYMin meet" x="295.5" y="-302.2"/>
<text text-anchor="start" x="310.5" y="-292.3" font-family="Helvetica,sans-Serif" font-size="11.00" fill="#000000">pregunta_respuesta_id</text>
<polygon fill="none" stroke="#000000" points="290.5,-263.2 290.5,-285.2 491.5,-285.2 491.5,-263.2 290.5,-263.2"/>
<image xlink:href="../../images/foreignKeys.png" width="11px" height="12px" preserveAspectRatio="xMinYMin meet" x="295.5" y="-280.2"/>
<text text-anchor="start" x="310.5" y="-270.3" font-family="Helvetica,sans-Serif" font-size="11.00" fill="#000000">respuesta_id</text>
<polygon fill="none" stroke="#000000" points="290.5,-241.2 290.5,-263.2 491.5,-263.2 491.5,-241.2 290.5,-241.2"/>
<image xlink:href="../../images/foreignKeys.png" width="11px" height="12px" preserveAspectRatio="xMinYMin meet" x="295.5" y="-258.2"/>
<text text-anchor="start" x="310.5" y="-248.3" font-family="Helvetica,sans-Serif" font-size="11.00" fill="#000000">pregunta_id</text>
<polygon fill="none" stroke="#000000" points="290.5,-222.2 290.5,-241.2 491.5,-241.2 491.5,-222.2 290.5,-222.2"/>
<text text-anchor="start" x="293.5" y="-228.3" font-family="Helvetica,sans-Serif" font-size="11.00" fill="#000000">...</text>
<polygon fill="#ffffff" stroke="transparent" points="290.5,-203.2 290.5,-222.2 376.5,-222.2 376.5,-203.2 290.5,-203.2"/>
<polygon fill="none" stroke="#000000" points="290.5,-203.2 290.5,-222.2 376.5,-222.2 376.5,-203.2 290.5,-203.2"/>
<text text-anchor="start" x="293.5" y="-209.3" font-family="Helvetica,sans-Serif" font-size="11.00" fill="#000000">&lt; 2</text>
<polygon fill="#ffffff" stroke="transparent" points="376.5,-203.2 376.5,-222.2 446.5,-222.2 446.5,-203.2 376.5,-203.2"/>
<polygon fill="none" stroke="#000000" points="376.5,-203.2 376.5,-222.2 446.5,-222.2 446.5,-203.2 376.5,-203.2"/>
<text text-anchor="start" x="411.1105" y="-209.3" font-family="Helvetica,sans-Serif" font-size="11.00" fill="#000000">2 rows</text>
<polygon fill="#ffffff" stroke="transparent" points="446.5,-203.2 446.5,-222.2 491.5,-222.2 491.5,-203.2 446.5,-203.2"/>
<polygon fill="none" stroke="#000000" points="446.5,-203.2 446.5,-222.2 491.5,-222.2 491.5,-203.2 446.5,-203.2"/>
<text text-anchor="start" x="482.3862" y="-209.3" font-family="Helvetica,sans-Serif" font-size="11.00" fill="#000000"> &#160;</text>
</a>
</g>
</g>
<!-- encuesta_pregunta_respuestas&#45;&gt;encuesta_preguntas -->
<g id="edge2" class="edge">
<title>encuesta_pregunta_respuestas:w&#45;&gt;encuesta_preguntas:e</title>
<path fill="none" stroke="#000000" d="M276.6116,-248.1609C252.5536,-230.1688 281.0893,-158.2 239.5,-158.2"/>
<polygon fill="#000000" stroke="#000000" points="282.8183,-249.9659 289.4947,-255.6568 286.6591,-251.083 290.5,-252.2 290.5,-252.2 290.5,-252.2 286.6591,-251.083 291.5053,-248.7432 282.8183,-249.9659 282.8183,-249.9659"/>
<ellipse fill="none" stroke="#000000" cx="279.7456" cy="-249.0723" rx="3.2" ry="3.2"/>
</g>
<!-- encuesta_respuestas -->
<g id="node4" class="node">
<title>encuesta_respuestas</title>
<g id="a_node4"><a xlink:href="../../tables/encuesta_respuestas.html" xlink:title="encuesta_respuestas" target="_top">
<polygon fill="#ffffff" stroke="transparent" points="51,-246.7 51,-307.7 198,-307.7 198,-246.7 51,-246.7"/>
<polygon fill="#f5f5f5" stroke="transparent" points="51.5,-284.2 51.5,-307.2 198.5,-307.2 198.5,-284.2 51.5,-284.2"/>
<polygon fill="none" stroke="#000000" points="51.5,-284.2 51.5,-307.2 198.5,-307.2 198.5,-284.2 51.5,-284.2"/>
<text text-anchor="start" x="56.2302" y="-293.3" font-family="Helvetica,sans-Serif" font-weight="bold" font-size="11.00" fill="#000000">encuesta_respuestas</text>
<text text-anchor="start" x="164.0219" y="-292.3" font-family="Helvetica,sans-Serif" font-size="11.00" fill="#000000">[table]</text>
<polygon fill="none" stroke="#000000" points="51.5,-265.2 51.5,-284.2 198.5,-284.2 198.5,-265.2 51.5,-265.2"/>
<text text-anchor="start" x="54.5" y="-271.3" font-family="Helvetica,sans-Serif" font-size="11.00" fill="#000000">...</text>
<polygon fill="#ffffff" stroke="transparent" points="51.5,-246.2 51.5,-265.2 108.5,-265.2 108.5,-246.2 51.5,-246.2"/>
<polygon fill="none" stroke="#000000" points="51.5,-246.2 51.5,-265.2 108.5,-265.2 108.5,-246.2 51.5,-246.2"/>
<text text-anchor="start" x="54.5" y="-252.3" font-family="Helvetica,sans-Serif" font-size="11.00" fill="#000000">&lt; 2</text>
<polygon fill="#ffffff" stroke="transparent" points="108.5,-246.2 108.5,-265.2 158.5,-265.2 158.5,-246.2 108.5,-246.2"/>
<polygon fill="none" stroke="#000000" points="108.5,-246.2 108.5,-265.2 158.5,-265.2 158.5,-246.2 108.5,-246.2"/>
<text text-anchor="start" x="128.6105" y="-252.3" font-family="Helvetica,sans-Serif" font-size="11.00" fill="#000000">1 row</text>
<polygon fill="#ffffff" stroke="transparent" points="158.5,-246.2 158.5,-265.2 198.5,-265.2 198.5,-246.2 158.5,-246.2"/>
<polygon fill="none" stroke="#000000" points="158.5,-246.2 158.5,-265.2 198.5,-265.2 198.5,-246.2 158.5,-246.2"/>
<text text-anchor="start" x="179.9053" y="-252.3" font-family="Helvetica,sans-Serif" font-size="11.00" fill="#000000">1 &gt;</text>
</a>
</g>
</g>
<!-- encuesta_pregunta_respuestas&#45;&gt;encuesta_respuestas -->
<g id="edge3" class="edge">
<title>encuesta_pregunta_respuestas:w&#45;&gt;encuesta_respuestas:e</title>
<path fill="none" stroke="#000000" d="M276.0849,-274.2C246.4661,-274.2 234.1181,-274.2 198.5,-274.2"/>
<polygon fill="#000000" stroke="#000000" points="282.5,-274.2001 290.5,-277.8 286.5,-274.2 290.5,-274.2 290.5,-274.2 290.5,-274.2 286.5,-274.2 290.5,-270.6 282.5,-274.2001 282.5,-274.2001"/>
<ellipse fill="none" stroke="#000000" cx="279.3" cy="-274.2001" rx="3.2" ry="3.2"/>
</g>
</g>
</svg>
