<?xml version="1.0" encoding="UTF-8" standalone="no"?>
<!DOCTYPE svg PUBLIC "-//W3C//DTD SVG 1.1//EN"
 "http://www.w3.org/Graphics/SVG/1.1/DTD/svg11.dtd">
<!-- Generated by graphviz version 2.40.1 (20161225.0304)
 -->
<!-- Title: oneDegreeRelationshipsDiagram Pages: 1 -->
<svg width="517pt" height="281pt"
 viewBox="0.00 0.00 517.00 281.20" xmlns="http://www.w3.org/2000/svg" xmlns:xlink="http://www.w3.org/1999/xlink">
<g id="graph0" class="graph" transform="scale(1 1) rotate(0) translate(4 277.2)">
<title>oneDegreeRelationshipsDiagram</title>
<polygon fill="#ffffff" stroke="transparent" points="-4,4 -4,-277.2 513,-277.2 513,4 -4,4"/>
<text text-anchor="middle" x="72.4936" y="-7.3" font-family="Helvetica,sans-Serif" font-size="11.00" fill="#000000">Generated by SchemaSpy</text>
<!-- encuesta_pregunta_respuestas -->
<g id="node1" class="node">
<title>encuesta_pregunta_respuestas</title>
<g id="a_node1"><a xlink:href="../../tables/encuesta_pregunta_respuestas.html" xlink:title="encuesta_pregunta_respuestas" target="_top">
<polygon fill="#ffffff" stroke="transparent" points="204,-51.7 204,-229.7 501,-229.7 501,-51.7 204,-51.7"/>
<polygon fill="#f5f5f5" stroke="transparent" points="206.5,-204.7 206.5,-227.7 499.5,-227.7 499.5,-204.7 206.5,-204.7"/>
<polygon fill="none" stroke="#000000" points="206.5,-204.7 206.5,-227.7 499.5,-227.7 499.5,-204.7 206.5,-204.7"/>
<text text-anchor="start" x="211.5" y="-213.8" font-family="Helvetica,sans-Serif" font-weight="bold" font-size="11.00" fill="#000000">encuesta_pregunta_respuestas</text>
<text text-anchor="start" x="464.5437" y="-212.8" font-family="Helvetica,sans-Serif" font-size="11.00" fill="#000000">[table]</text>
<polygon fill="none" stroke="#000000" points="206.5,-182.7 206.5,-204.7 407.5,-204.7 407.5,-182.7 206.5,-182.7"/>
<image xlink:href="../../images/primaryKeys.png" width="11px" height="12px" preserveAspectRatio="xMinYMin meet" x="211.5" y="-199.7"/>
<text text-anchor="start" x="226.5" y="-189.8" font-family="Helvetica,sans-Serif" font-size="11.00" fill="#000000">pregunta_respuesta_id</text>
<polygon fill="none" stroke="#000000" points="407.5,-182.7 407.5,-204.7 499.5,-204.7 499.5,-182.7 407.5,-182.7"/>
<text text-anchor="start" x="410.5" y="-190.4" font-family="Helvetica,sans-Serif" font-size="11.00" fill="#000000">serial[10]</text>
<polygon fill="none" stroke="#000000" points="206.5,-160.7 206.5,-182.7 407.5,-182.7 407.5,-160.7 206.5,-160.7"/>
<image xlink:href="../../images/foreignKeys.png" width="11px" height="12px" preserveAspectRatio="xMinYMin meet" x="211.5" y="-177.7"/>
<text text-anchor="start" x="226.5" y="-167.8" font-family="Helvetica,sans-Serif" font-size="11.00" fill="#000000">respuesta_id</text>
<polygon fill="none" stroke="#000000" points="407.5,-160.7 407.5,-182.7 499.5,-182.7 499.5,-160.7 407.5,-160.7"/>
<text text-anchor="start" x="410.5" y="-168.4" font-family="Helvetica,sans-Serif" font-size="11.00" fill="#000000">int4[10]</text>
<polygon fill="none" stroke="#000000" points="206.5,-138.7 206.5,-160.7 407.5,-160.7 407.5,-138.7 206.5,-138.7"/>
<image xlink:href="../../images/foreignKeys.png" width="11px" height="12px" preserveAspectRatio="xMinYMin meet" x="211.5" y="-155.7"/>
<text text-anchor="start" x="226.5" y="-145.8" font-family="Helvetica,sans-Serif" font-size="11.00" fill="#000000">pregunta_id</text>
<polygon fill="none" stroke="#000000" points="407.5,-138.7 407.5,-160.7 499.5,-160.7 499.5,-138.7 407.5,-138.7"/>
<text text-anchor="start" x="410.5" y="-146.4" font-family="Helvetica,sans-Serif" font-size="11.00" fill="#000000">int4[10]</text>
<polygon fill="none" stroke="#000000" points="206.5,-116.7 206.5,-138.7 407.5,-138.7 407.5,-116.7 206.5,-116.7"/>
<text text-anchor="start" x="226.5" y="-123.8" font-family="Helvetica,sans-Serif" font-size="11.00" fill="#000000">valor</text>
<polygon fill="none" stroke="#000000" points="407.5,-116.7 407.5,-138.7 499.5,-138.7 499.5,-116.7 407.5,-116.7"/>
<text text-anchor="start" x="410.5" y="-124.4" font-family="Helvetica,sans-Serif" font-size="11.00" fill="#000000">text[2147483647]</text>
<polygon fill="none" stroke="#000000" points="206.5,-94.7 206.5,-116.7 407.5,-116.7 407.5,-94.7 206.5,-94.7"/>
<text text-anchor="start" x="226.5" y="-101.8" font-family="Helvetica,sans-Serif" font-size="11.00" fill="#000000">fec_insercion</text>
<polygon fill="none" stroke="#000000" points="407.5,-94.7 407.5,-116.7 499.5,-116.7 499.5,-94.7 407.5,-94.7"/>
<text text-anchor="start" x="410.1023" y="-102.4" font-family="Helvetica,sans-Serif" font-size="11.00" fill="#000000">timestamptz[35,6]</text>
<polygon fill="none" stroke="#000000" points="206.5,-72.7 206.5,-94.7 407.5,-94.7 407.5,-72.7 206.5,-72.7"/>
<text text-anchor="start" x="226.5" y="-79.8" font-family="Helvetica,sans-Serif" font-size="11.00" fill="#000000">fec_modificacion</text>
<polygon fill="none" stroke="#000000" points="407.5,-72.7 407.5,-94.7 499.5,-94.7 499.5,-72.7 407.5,-72.7"/>
<text text-anchor="start" x="410.1023" y="-80.4" font-family="Helvetica,sans-Serif" font-size="11.00" fill="#000000">timestamptz[35,6]</text>
<polygon fill="#ffffff" stroke="transparent" points="206.5,-53.7 206.5,-72.7 298.5,-72.7 298.5,-53.7 206.5,-53.7"/>
<polygon fill="none" stroke="#000000" points="206.5,-53.7 206.5,-72.7 298.5,-72.7 298.5,-53.7 206.5,-53.7"/>
<text text-anchor="start" x="209.5" y="-59.8" font-family="Helvetica,sans-Serif" font-size="11.00" fill="#000000">&lt; 2</text>
<polygon fill="#ffffff" stroke="transparent" points="298.5,-53.7 298.5,-72.7 407.5,-72.7 407.5,-53.7 298.5,-53.7"/>
<polygon fill="none" stroke="#000000" points="298.5,-53.7 298.5,-72.7 407.5,-72.7 407.5,-53.7 298.5,-53.7"/>
<text text-anchor="start" x="372.1105" y="-59.8" font-family="Helvetica,sans-Serif" font-size="11.00" fill="#000000">4 rows</text>
<polygon fill="#ffffff" stroke="transparent" points="407.5,-53.7 407.5,-72.7 499.5,-72.7 499.5,-53.7 407.5,-53.7"/>
<polygon fill="none" stroke="#000000" points="407.5,-53.7 407.5,-72.7 499.5,-72.7 499.5,-53.7 407.5,-53.7"/>
<text text-anchor="start" x="480.9053" y="-59.8" font-family="Helvetica,sans-Serif" font-size="11.00" fill="#000000">0 &gt;</text>
<polygon fill="none" stroke="#000000" stroke-width="2" points="205,-52.7 205,-228.7 500,-228.7 500,-52.7 205,-52.7"/>
</a>
</g>
</g>
<!-- encuesta_preguntas -->
<g id="node2" class="node">
<title>encuesta_preguntas</title>
<g id="a_node2"><a xlink:href="../../tables/encuesta_preguntas.html" xlink:title="encuesta_preguntas" target="_top">
<polygon fill="#ffffff" stroke="transparent" points="10.5,-38.2 10.5,-121.2 152.5,-121.2 152.5,-38.2 10.5,-38.2"/>
<polygon fill="#f5f5f5" stroke="transparent" points="10.5,-97.7 10.5,-120.7 152.5,-120.7 152.5,-97.7 10.5,-97.7"/>
<polygon fill="none" stroke="#000000" points="10.5,-97.7 10.5,-120.7 152.5,-120.7 152.5,-97.7 10.5,-97.7"/>
<text text-anchor="start" x="15.1727" y="-106.8" font-family="Helvetica,sans-Serif" font-weight="bold" font-size="11.00" fill="#000000">encuesta_preguntas</text>
<text text-anchor="start" x="118.0219" y="-105.8" font-family="Helvetica,sans-Serif" font-size="11.00" fill="#000000">[table]</text>
<polygon fill="none" stroke="#000000" points="10.5,-75.7 10.5,-97.7 152.5,-97.7 152.5,-75.7 10.5,-75.7"/>
<image xlink:href="../../images/primaryKeys.png" width="11px" height="12px" preserveAspectRatio="xMinYMin meet" x="15.5" y="-92.7"/>
<text text-anchor="start" x="33.5" y="-82.8" font-family="Helvetica,sans-Serif" font-size="11.00" fill="#000000">pregunta_id</text>
<polygon fill="none" stroke="#000000" points="10.5,-56.7 10.5,-75.7 152.5,-75.7 152.5,-56.7 10.5,-56.7"/>
<text text-anchor="start" x="13.5" y="-62.8" font-family="Helvetica,sans-Serif" font-size="11.00" fill="#000000">...</text>
<polygon fill="#ffffff" stroke="transparent" points="10.5,-37.7 10.5,-56.7 57.5,-56.7 57.5,-37.7 10.5,-37.7"/>
<polygon fill="none" stroke="#000000" points="10.5,-37.7 10.5,-56.7 57.5,-56.7 57.5,-37.7 10.5,-37.7"/>
<text text-anchor="start" x="13.5" y="-43.8" font-family="Helvetica,sans-Serif" font-size="11.00" fill="#000000"> &#160;</text>
<polygon fill="#ffffff" stroke="transparent" points="57.5,-37.7 57.5,-56.7 113.5,-56.7 113.5,-37.7 57.5,-37.7"/>
<polygon fill="none" stroke="#000000" points="57.5,-37.7 57.5,-56.7 113.5,-56.7 113.5,-37.7 57.5,-37.7"/>
<text text-anchor="start" x="78.1105" y="-43.8" font-family="Helvetica,sans-Serif" font-size="11.00" fill="#000000">4 rows</text>
<polygon fill="#ffffff" stroke="transparent" points="113.5,-37.7 113.5,-56.7 152.5,-56.7 152.5,-37.7 113.5,-37.7"/>
<polygon fill="none" stroke="#000000" points="113.5,-37.7 113.5,-56.7 152.5,-56.7 152.5,-37.7 113.5,-37.7"/>
<text text-anchor="start" x="133.9053" y="-43.8" font-family="Helvetica,sans-Serif" font-size="11.00" fill="#000000">2 &gt;</text>
</a>
</g>
</g>
<!-- encuesta_pregunta_respuestas&#45;&gt;encuesta_preguntas -->
<g id="edge1" class="edge">
<title>encuesta_pregunta_respuestas:w&#45;&gt;encuesta_preguntas:e</title>
<path fill="none" stroke="#000000" d="M192.422,-145.1692C174.58,-130.7239 183.3279,-86.7 152.5,-86.7"/>
<polygon fill="#000000" stroke="#000000" points="198.8847,-147.2491 205.3971,-153.1269 202.6923,-148.4745 206.5,-149.7 206.5,-149.7 206.5,-149.7 202.6923,-148.4745 207.6029,-146.2731 198.8847,-147.2491 198.8847,-147.2491"/>
<ellipse fill="none" stroke="#000000" cx="195.8385" cy="-146.2687" rx="3.2" ry="3.2"/>
</g>
<!-- encuesta_respuestas -->
<g id="node3" class="node">
<title>encuesta_respuestas</title>
<g id="a_node3"><a xlink:href="../../tables/encuesta_respuestas.html" xlink:title="encuesta_respuestas" target="_top">
<polygon fill="#ffffff" stroke="transparent" points="8,-142.2 8,-269.2 155,-269.2 155,-142.2 8,-142.2"/>
<polygon fill="#f5f5f5" stroke="transparent" points="8.5,-245.7 8.5,-268.7 155.5,-268.7 155.5,-245.7 8.5,-245.7"/>
<polygon fill="none" stroke="#000000" points="8.5,-245.7 8.5,-268.7 155.5,-268.7 155.5,-245.7 8.5,-245.7"/>
<text text-anchor="start" x="13.2302" y="-254.8" font-family="Helvetica,sans-Serif" font-weight="bold" font-size="11.00" fill="#000000">encuesta_respuestas</text>
<text text-anchor="start" x="121.0219" y="-253.8" font-family="Helvetica,sans-Serif" font-size="11.00" fill="#000000">[table]</text>
<polygon fill="none" stroke="#000000" points="8.5,-223.7 8.5,-245.7 155.5,-245.7 155.5,-223.7 8.5,-223.7"/>
<image xlink:href="../../images/primaryKeys.png" width="11px" height="12px" preserveAspectRatio="xMinYMin meet" x="13.5" y="-240.7"/>
<text text-anchor="start" x="30.5" y="-230.8" font-family="Helvetica,sans-Serif" font-size="11.00" fill="#000000">respuesta_id</text>
<polygon fill="none" stroke="#000000" points="8.5,-201.7 8.5,-223.7 155.5,-223.7 155.5,-201.7 8.5,-201.7"/>
<image xlink:href="../../images/foreignKeys.png" width="11px" height="12px" preserveAspectRatio="xMinYMin meet" x="13.5" y="-218.7"/>
<text text-anchor="start" x="30.5" y="-208.8" font-family="Helvetica,sans-Serif" font-size="11.00" fill="#000000">oportunidad_id</text>
<polygon fill="none" stroke="#000000" points="8.5,-179.7 8.5,-201.7 155.5,-201.7 155.5,-179.7 8.5,-179.7"/>
<image xlink:href="../../images/foreignKeys.png" width="11px" height="12px" preserveAspectRatio="xMinYMin meet" x="13.5" y="-196.7"/>
<text text-anchor="start" x="30.5" y="-186.8" font-family="Helvetica,sans-Serif" font-size="11.00" fill="#000000">contacto_id</text>
<polygon fill="none" stroke="#000000" points="8.5,-160.7 8.5,-179.7 155.5,-179.7 155.5,-160.7 8.5,-160.7"/>
<text text-anchor="start" x="11.5" y="-166.8" font-family="Helvetica,sans-Serif" font-size="11.00" fill="#000000">...</text>
<polygon fill="#ffffff" stroke="transparent" points="8.5,-141.7 8.5,-160.7 65.5,-160.7 65.5,-141.7 8.5,-141.7"/>
<polygon fill="none" stroke="#000000" points="8.5,-141.7 8.5,-160.7 65.5,-160.7 65.5,-141.7 8.5,-141.7"/>
<text text-anchor="start" x="11.5" y="-147.8" font-family="Helvetica,sans-Serif" font-size="11.00" fill="#000000">&lt; 2</text>
<polygon fill="#ffffff" stroke="transparent" points="65.5,-141.7 65.5,-160.7 115.5,-160.7 115.5,-141.7 65.5,-141.7"/>
<polygon fill="none" stroke="#000000" points="65.5,-141.7 65.5,-160.7 115.5,-160.7 115.5,-141.7 65.5,-141.7"/>
<text text-anchor="start" x="85.6105" y="-147.8" font-family="Helvetica,sans-Serif" font-size="11.00" fill="#000000">1 row</text>
<polygon fill="#ffffff" stroke="transparent" points="115.5,-141.7 115.5,-160.7 155.5,-160.7 155.5,-141.7 115.5,-141.7"/>
<polygon fill="none" stroke="#000000" points="115.5,-141.7 115.5,-160.7 155.5,-160.7 155.5,-141.7 115.5,-141.7"/>
<text text-anchor="start" x="136.9053" y="-147.8" font-family="Helvetica,sans-Serif" font-size="11.00" fill="#000000">1 &gt;</text>
</a>
</g>
</g>
<!-- encuesta_pregunta_respuestas&#45;&gt;encuesta_respuestas -->
<g id="edge2" class="edge">
<title>encuesta_pregunta_respuestas:w&#45;&gt;encuesta_respuestas:e</title>
<path fill="none" stroke="#000000" d="M192.4033,-176.6435C176.025,-191.4952 185.3329,-234.7 155.5,-234.7"/>
<polygon fill="#000000" stroke="#000000" points="198.9507,-174.3474 207.6913,-175.0972 202.7254,-173.0237 206.5,-171.7 206.5,-171.7 206.5,-171.7 202.7254,-173.0237 205.3087,-168.3028 198.9507,-174.3474 198.9507,-174.3474"/>
<ellipse fill="none" stroke="#000000" cx="195.931" cy="-175.4064" rx="3.2" ry="3.2"/>
</g>
</g>
</svg>
