<?xml version="1.0" encoding="UTF-8" standalone="no"?>
<!DOCTYPE svg PUBLIC "-//W3C//DTD SVG 1.1//EN"
 "http://www.w3.org/Graphics/SVG/1.1/DTD/svg11.dtd">
<!-- Generated by graphviz version 2.40.1 (20161225.0304)
 -->
<!-- Title: twoDegreesRelationshipsDiagram Pages: 1 -->
<svg width="817pt" height="319pt"
 viewBox="0.00 0.00 817.00 318.70" xmlns="http://www.w3.org/2000/svg" xmlns:xlink="http://www.w3.org/1999/xlink">
<g id="graph0" class="graph" transform="scale(1 1) rotate(0) translate(4 314.7)">
<title>twoDegreesRelationshipsDiagram</title>
<polygon fill="#ffffff" stroke="transparent" points="-4,4 -4,-314.7 813,-314.7 813,4 -4,4"/>
<text text-anchor="middle" x="72.4936" y="-7.3" font-family="Helvetica,sans-Serif" font-size="11.00" fill="#000000">Generated by SchemaSpy</text>
<!-- encuesta_pregunta_opciones -->
<g id="node1" class="node">
<title>encuesta_pregunta_opciones</title>
<g id="a_node1"><a xlink:href="../../tables/encuesta_pregunta_opciones.html" xlink:title="encuesta_pregunta_opciones" target="_top">
<polygon fill="#ffffff" stroke="transparent" points="559,-46.2 559,-107.2 746,-107.2 746,-46.2 559,-46.2"/>
<polygon fill="#f5f5f5" stroke="transparent" points="559.5,-83.7 559.5,-106.7 746.5,-106.7 746.5,-83.7 559.5,-83.7"/>
<polygon fill="none" stroke="#000000" points="559.5,-83.7 559.5,-106.7 746.5,-106.7 746.5,-83.7 559.5,-83.7"/>
<text text-anchor="start" x="564.3576" y="-92.8" font-family="Helvetica,sans-Serif" font-weight="bold" font-size="11.00" fill="#000000">encuesta_pregunta_opciones</text>
<text text-anchor="start" x="712.0219" y="-91.8" font-family="Helvetica,sans-Serif" font-size="11.00" fill="#000000">[table]</text>
<polygon fill="none" stroke="#000000" points="559.5,-64.7 559.5,-83.7 746.5,-83.7 746.5,-64.7 559.5,-64.7"/>
<text text-anchor="start" x="562.5" y="-70.8" font-family="Helvetica,sans-Serif" font-size="11.00" fill="#000000">...</text>
<polygon fill="#ffffff" stroke="transparent" points="559.5,-45.7 559.5,-64.7 635.5,-64.7 635.5,-45.7 559.5,-45.7"/>
<polygon fill="none" stroke="#000000" points="559.5,-45.7 559.5,-64.7 635.5,-64.7 635.5,-45.7 559.5,-45.7"/>
<text text-anchor="start" x="562.5" y="-51.8" font-family="Helvetica,sans-Serif" font-size="11.00" fill="#000000">&lt; 1</text>
<polygon fill="#ffffff" stroke="transparent" points="635.5,-45.7 635.5,-64.7 706.5,-64.7 706.5,-45.7 635.5,-45.7"/>
<polygon fill="none" stroke="#000000" points="635.5,-45.7 635.5,-64.7 706.5,-64.7 706.5,-45.7 635.5,-45.7"/>
<text text-anchor="start" x="664.9956" y="-51.8" font-family="Helvetica,sans-Serif" font-size="11.00" fill="#000000">15 rows</text>
<polygon fill="#ffffff" stroke="transparent" points="706.5,-45.7 706.5,-64.7 746.5,-64.7 746.5,-45.7 706.5,-45.7"/>
<polygon fill="none" stroke="#000000" points="706.5,-45.7 706.5,-64.7 746.5,-64.7 746.5,-45.7 706.5,-45.7"/>
<text text-anchor="start" x="737.3862" y="-51.8" font-family="Helvetica,sans-Serif" font-size="11.00" fill="#000000"> &#160;</text>
</a>
</g>
</g>
<!-- encuesta_preguntas -->
<g id="node2" class="node">
<title>encuesta_preguntas</title>
<g id="a_node2"><a xlink:href="../../tables/encuesta_preguntas.html" xlink:title="encuesta_preguntas" target="_top">
<polygon fill="#ffffff" stroke="transparent" points="310.5,-38.2 310.5,-121.2 452.5,-121.2 452.5,-38.2 310.5,-38.2"/>
<polygon fill="#f5f5f5" stroke="transparent" points="310.5,-97.7 310.5,-120.7 452.5,-120.7 452.5,-97.7 310.5,-97.7"/>
<polygon fill="none" stroke="#000000" points="310.5,-97.7 310.5,-120.7 452.5,-120.7 452.5,-97.7 310.5,-97.7"/>
<text text-anchor="start" x="315.1728" y="-106.8" font-family="Helvetica,sans-Serif" font-weight="bold" font-size="11.00" fill="#000000">encuesta_preguntas</text>
<text text-anchor="start" x="418.0219" y="-105.8" font-family="Helvetica,sans-Serif" font-size="11.00" fill="#000000">[table]</text>
<polygon fill="none" stroke="#000000" points="310.5,-75.7 310.5,-97.7 452.5,-97.7 452.5,-75.7 310.5,-75.7"/>
<image xlink:href="../../images/primaryKeys.png" width="11px" height="12px" preserveAspectRatio="xMinYMin meet" x="315.5" y="-92.7"/>
<text text-anchor="start" x="333.5" y="-82.8" font-family="Helvetica,sans-Serif" font-size="11.00" fill="#000000">pregunta_id</text>
<polygon fill="none" stroke="#000000" points="310.5,-56.7 310.5,-75.7 452.5,-75.7 452.5,-56.7 310.5,-56.7"/>
<text text-anchor="start" x="313.5" y="-62.8" font-family="Helvetica,sans-Serif" font-size="11.00" fill="#000000">...</text>
<polygon fill="#ffffff" stroke="transparent" points="310.5,-37.7 310.5,-56.7 357.5,-56.7 357.5,-37.7 310.5,-37.7"/>
<polygon fill="none" stroke="#000000" points="310.5,-37.7 310.5,-56.7 357.5,-56.7 357.5,-37.7 310.5,-37.7"/>
<text text-anchor="start" x="313.5" y="-43.8" font-family="Helvetica,sans-Serif" font-size="11.00" fill="#000000"> &#160;</text>
<polygon fill="#ffffff" stroke="transparent" points="357.5,-37.7 357.5,-56.7 413.5,-56.7 413.5,-37.7 357.5,-37.7"/>
<polygon fill="none" stroke="#000000" points="357.5,-37.7 357.5,-56.7 413.5,-56.7 413.5,-37.7 357.5,-37.7"/>
<text text-anchor="start" x="378.1105" y="-43.8" font-family="Helvetica,sans-Serif" font-size="11.00" fill="#000000">4 rows</text>
<polygon fill="#ffffff" stroke="transparent" points="413.5,-37.7 413.5,-56.7 452.5,-56.7 452.5,-37.7 413.5,-37.7"/>
<polygon fill="none" stroke="#000000" points="413.5,-37.7 413.5,-56.7 452.5,-56.7 452.5,-37.7 413.5,-37.7"/>
<text text-anchor="start" x="433.9053" y="-43.8" font-family="Helvetica,sans-Serif" font-size="11.00" fill="#000000">2 &gt;</text>
</a>
</g>
</g>
<!-- encuesta_pregunta_opciones&#45;&gt;encuesta_preguntas -->
<g id="edge1" class="edge">
<title>encuesta_pregunta_opciones:w&#45;&gt;encuesta_preguntas:e</title>
<path fill="none" stroke="#000000" d="M545.0027,-74.1325C508.7078,-76.3882 495.1656,-86.7 452.5,-86.7"/>
<polygon fill="#000000" stroke="#000000" points="551.5036,-73.9386 559.6074,-77.2984 555.5018,-73.8193 559.5,-73.7 559.5,-73.7 559.5,-73.7 555.5018,-73.8193 559.3926,-70.1016 551.5036,-73.9386 551.5036,-73.9386"/>
<ellipse fill="none" stroke="#000000" cx="548.305" cy="-74.0341" rx="3.2" ry="3.2"/>
</g>
<!-- encuesta_pregunta_respuestas -->
<g id="node3" class="node">
<title>encuesta_pregunta_respuestas</title>
<g id="a_node3"><a xlink:href="../../tables/encuesta_pregunta_respuestas.html" xlink:title="encuesta_pregunta_respuestas" target="_top">
<polygon fill="#ffffff" stroke="transparent" points="504,-128.7 504,-306.7 801,-306.7 801,-128.7 504,-128.7"/>
<polygon fill="#f5f5f5" stroke="transparent" points="506.5,-281.7 506.5,-304.7 799.5,-304.7 799.5,-281.7 506.5,-281.7"/>
<polygon fill="none" stroke="#000000" points="506.5,-281.7 506.5,-304.7 799.5,-304.7 799.5,-281.7 506.5,-281.7"/>
<text text-anchor="start" x="511.5" y="-290.8" font-family="Helvetica,sans-Serif" font-weight="bold" font-size="11.00" fill="#000000">encuesta_pregunta_respuestas</text>
<text text-anchor="start" x="764.5437" y="-289.8" font-family="Helvetica,sans-Serif" font-size="11.00" fill="#000000">[table]</text>
<polygon fill="none" stroke="#000000" points="506.5,-259.7 506.5,-281.7 707.5,-281.7 707.5,-259.7 506.5,-259.7"/>
<image xlink:href="../../images/primaryKeys.png" width="11px" height="12px" preserveAspectRatio="xMinYMin meet" x="511.5" y="-276.7"/>
<text text-anchor="start" x="526.5" y="-266.8" font-family="Helvetica,sans-Serif" font-size="11.00" fill="#000000">pregunta_respuesta_id</text>
<polygon fill="none" stroke="#000000" points="707.5,-259.7 707.5,-281.7 799.5,-281.7 799.5,-259.7 707.5,-259.7"/>
<text text-anchor="start" x="710.5" y="-267.4" font-family="Helvetica,sans-Serif" font-size="11.00" fill="#000000">serial[10]</text>
<polygon fill="none" stroke="#000000" points="506.5,-237.7 506.5,-259.7 707.5,-259.7 707.5,-237.7 506.5,-237.7"/>
<image xlink:href="../../images/foreignKeys.png" width="11px" height="12px" preserveAspectRatio="xMinYMin meet" x="511.5" y="-254.7"/>
<text text-anchor="start" x="526.5" y="-244.8" font-family="Helvetica,sans-Serif" font-size="11.00" fill="#000000">respuesta_id</text>
<polygon fill="none" stroke="#000000" points="707.5,-237.7 707.5,-259.7 799.5,-259.7 799.5,-237.7 707.5,-237.7"/>
<text text-anchor="start" x="710.5" y="-245.4" font-family="Helvetica,sans-Serif" font-size="11.00" fill="#000000">int4[10]</text>
<polygon fill="none" stroke="#000000" points="506.5,-215.7 506.5,-237.7 707.5,-237.7 707.5,-215.7 506.5,-215.7"/>
<image xlink:href="../../images/foreignKeys.png" width="11px" height="12px" preserveAspectRatio="xMinYMin meet" x="511.5" y="-232.7"/>
<text text-anchor="start" x="526.5" y="-222.8" font-family="Helvetica,sans-Serif" font-size="11.00" fill="#000000">pregunta_id</text>
<polygon fill="none" stroke="#000000" points="707.5,-215.7 707.5,-237.7 799.5,-237.7 799.5,-215.7 707.5,-215.7"/>
<text text-anchor="start" x="710.5" y="-223.4" font-family="Helvetica,sans-Serif" font-size="11.00" fill="#000000">int4[10]</text>
<polygon fill="none" stroke="#000000" points="506.5,-193.7 506.5,-215.7 707.5,-215.7 707.5,-193.7 506.5,-193.7"/>
<text text-anchor="start" x="526.5" y="-200.8" font-family="Helvetica,sans-Serif" font-size="11.00" fill="#000000">valor</text>
<polygon fill="none" stroke="#000000" points="707.5,-193.7 707.5,-215.7 799.5,-215.7 799.5,-193.7 707.5,-193.7"/>
<text text-anchor="start" x="710.5" y="-201.4" font-family="Helvetica,sans-Serif" font-size="11.00" fill="#000000">text[2147483647]</text>
<polygon fill="none" stroke="#000000" points="506.5,-171.7 506.5,-193.7 707.5,-193.7 707.5,-171.7 506.5,-171.7"/>
<text text-anchor="start" x="526.5" y="-178.8" font-family="Helvetica,sans-Serif" font-size="11.00" fill="#000000">fec_insercion</text>
<polygon fill="none" stroke="#000000" points="707.5,-171.7 707.5,-193.7 799.5,-193.7 799.5,-171.7 707.5,-171.7"/>
<text text-anchor="start" x="710.1023" y="-179.4" font-family="Helvetica,sans-Serif" font-size="11.00" fill="#000000">timestamptz[35,6]</text>
<polygon fill="none" stroke="#000000" points="506.5,-149.7 506.5,-171.7 707.5,-171.7 707.5,-149.7 506.5,-149.7"/>
<text text-anchor="start" x="526.5" y="-156.8" font-family="Helvetica,sans-Serif" font-size="11.00" fill="#000000">fec_modificacion</text>
<polygon fill="none" stroke="#000000" points="707.5,-149.7 707.5,-171.7 799.5,-171.7 799.5,-149.7 707.5,-149.7"/>
<text text-anchor="start" x="710.1023" y="-157.4" font-family="Helvetica,sans-Serif" font-size="11.00" fill="#000000">timestamptz[35,6]</text>
<polygon fill="#ffffff" stroke="transparent" points="506.5,-130.7 506.5,-149.7 598.5,-149.7 598.5,-130.7 506.5,-130.7"/>
<polygon fill="none" stroke="#000000" points="506.5,-130.7 506.5,-149.7 598.5,-149.7 598.5,-130.7 506.5,-130.7"/>
<text text-anchor="start" x="509.5" y="-136.8" font-family="Helvetica,sans-Serif" font-size="11.00" fill="#000000">&lt; 2</text>
<polygon fill="#ffffff" stroke="transparent" points="598.5,-130.7 598.5,-149.7 707.5,-149.7 707.5,-130.7 598.5,-130.7"/>
<polygon fill="none" stroke="#000000" points="598.5,-130.7 598.5,-149.7 707.5,-149.7 707.5,-130.7 598.5,-130.7"/>
<text text-anchor="start" x="672.1105" y="-136.8" font-family="Helvetica,sans-Serif" font-size="11.00" fill="#000000">4 rows</text>
<polygon fill="#ffffff" stroke="transparent" points="707.5,-130.7 707.5,-149.7 799.5,-149.7 799.5,-130.7 707.5,-130.7"/>
<polygon fill="none" stroke="#000000" points="707.5,-130.7 707.5,-149.7 799.5,-149.7 799.5,-130.7 707.5,-130.7"/>
<text text-anchor="start" x="780.9053" y="-136.8" font-family="Helvetica,sans-Serif" font-size="11.00" fill="#000000">0 &gt;</text>
<polygon fill="none" stroke="#000000" stroke-width="2" points="505,-129.7 505,-305.7 800,-305.7 800,-129.7 505,-129.7"/>
</a>
</g>
</g>
<!-- encuesta_pregunta_respuestas&#45;&gt;encuesta_preguntas -->
<g id="edge2" class="edge">
<title>encuesta_pregunta_respuestas:w&#45;&gt;encuesta_preguntas:e</title>
<path fill="none" stroke="#000000" d="M492.3573,-223.7759C452.3744,-203.6714 513.4592,-86.7 452.5,-86.7"/>
<polygon fill="#000000" stroke="#000000" points="498.6657,-225.0802 505.7711,-230.2254 502.5828,-225.8901 506.5,-226.7 506.5,-226.7 506.5,-226.7 502.5828,-225.8901 507.2289,-223.1746 498.6657,-225.0802 498.6657,-225.0802"/>
<ellipse fill="none" stroke="#000000" cx="495.532" cy="-224.4322" rx="3.2" ry="3.2"/>
</g>
<!-- encuesta_respuestas -->
<g id="node4" class="node">
<title>encuesta_respuestas</title>
<g id="a_node4"><a xlink:href="../../tables/encuesta_respuestas.html" xlink:title="encuesta_respuestas" target="_top">
<polygon fill="#ffffff" stroke="transparent" points="308,-156.2 308,-283.2 455,-283.2 455,-156.2 308,-156.2"/>
<polygon fill="#f5f5f5" stroke="transparent" points="308.5,-259.7 308.5,-282.7 455.5,-282.7 455.5,-259.7 308.5,-259.7"/>
<polygon fill="none" stroke="#000000" points="308.5,-259.7 308.5,-282.7 455.5,-282.7 455.5,-259.7 308.5,-259.7"/>
<text text-anchor="start" x="313.2302" y="-268.8" font-family="Helvetica,sans-Serif" font-weight="bold" font-size="11.00" fill="#000000">encuesta_respuestas</text>
<text text-anchor="start" x="421.0219" y="-267.8" font-family="Helvetica,sans-Serif" font-size="11.00" fill="#000000">[table]</text>
<polygon fill="none" stroke="#000000" points="308.5,-237.7 308.5,-259.7 455.5,-259.7 455.5,-237.7 308.5,-237.7"/>
<image xlink:href="../../images/primaryKeys.png" width="11px" height="12px" preserveAspectRatio="xMinYMin meet" x="313.5" y="-254.7"/>
<text text-anchor="start" x="330.5" y="-244.8" font-family="Helvetica,sans-Serif" font-size="11.00" fill="#000000">respuesta_id</text>
<polygon fill="none" stroke="#000000" points="308.5,-215.7 308.5,-237.7 455.5,-237.7 455.5,-215.7 308.5,-215.7"/>
<image xlink:href="../../images/foreignKeys.png" width="11px" height="12px" preserveAspectRatio="xMinYMin meet" x="313.5" y="-232.7"/>
<text text-anchor="start" x="330.5" y="-222.8" font-family="Helvetica,sans-Serif" font-size="11.00" fill="#000000">oportunidad_id</text>
<polygon fill="none" stroke="#000000" points="308.5,-193.7 308.5,-215.7 455.5,-215.7 455.5,-193.7 308.5,-193.7"/>
<image xlink:href="../../images/foreignKeys.png" width="11px" height="12px" preserveAspectRatio="xMinYMin meet" x="313.5" y="-210.7"/>
<text text-anchor="start" x="330.5" y="-200.8" font-family="Helvetica,sans-Serif" font-size="11.00" fill="#000000">contacto_id</text>
<polygon fill="none" stroke="#000000" points="308.5,-174.7 308.5,-193.7 455.5,-193.7 455.5,-174.7 308.5,-174.7"/>
<text text-anchor="start" x="311.5" y="-180.8" font-family="Helvetica,sans-Serif" font-size="11.00" fill="#000000">...</text>
<polygon fill="#ffffff" stroke="transparent" points="308.5,-155.7 308.5,-174.7 365.5,-174.7 365.5,-155.7 308.5,-155.7"/>
<polygon fill="none" stroke="#000000" points="308.5,-155.7 308.5,-174.7 365.5,-174.7 365.5,-155.7 308.5,-155.7"/>
<text text-anchor="start" x="311.5" y="-161.8" font-family="Helvetica,sans-Serif" font-size="11.00" fill="#000000">&lt; 2</text>
<polygon fill="#ffffff" stroke="transparent" points="365.5,-155.7 365.5,-174.7 415.5,-174.7 415.5,-155.7 365.5,-155.7"/>
<polygon fill="none" stroke="#000000" points="365.5,-155.7 365.5,-174.7 415.5,-174.7 415.5,-155.7 365.5,-155.7"/>
<text text-anchor="start" x="385.6105" y="-161.8" font-family="Helvetica,sans-Serif" font-size="11.00" fill="#000000">1 row</text>
<polygon fill="#ffffff" stroke="transparent" points="415.5,-155.7 415.5,-174.7 455.5,-174.7 455.5,-155.7 415.5,-155.7"/>
<polygon fill="none" stroke="#000000" points="415.5,-155.7 415.5,-174.7 455.5,-174.7 455.5,-155.7 415.5,-155.7"/>
<text text-anchor="start" x="436.9053" y="-161.8" font-family="Helvetica,sans-Serif" font-size="11.00" fill="#000000">1 &gt;</text>
</a>
</g>
</g>
<!-- encuesta_pregunta_respuestas&#45;&gt;encuesta_respuestas -->
<g id="edge3" class="edge">
<title>encuesta_pregunta_respuestas:w&#45;&gt;encuesta_respuestas:e</title>
<path fill="none" stroke="#000000" d="M491.776,-248.7C479.7815,-248.7 472.3229,-248.7 455.5,-248.7"/>
<polygon fill="#000000" stroke="#000000" points="498.5,-248.7001 506.5,-252.3 502.5,-248.7 506.5,-248.7 506.5,-248.7 506.5,-248.7 502.5,-248.7 506.5,-245.1 498.5,-248.7001 498.5,-248.7001"/>
<ellipse fill="none" stroke="#000000" cx="495.3" cy="-248.7001" rx="3.2" ry="3.2"/>
</g>
<!-- contactos -->
<g id="node5" class="node">
<title>contactos</title>
<g id="a_node5"><a xlink:href="../../tables/contactos.html" xlink:title="contactos" target="_top">
<polygon fill="#ffffff" stroke="transparent" points="8,-188.2 8,-249.2 98,-249.2 98,-188.2 8,-188.2"/>
<polygon fill="#f5f5f5" stroke="transparent" points="8,-225.7 8,-248.7 98,-248.7 98,-225.7 8,-225.7"/>
<polygon fill="none" stroke="#000000" points="8,-225.7 8,-248.7 98,-248.7 98,-225.7 8,-225.7"/>
<text text-anchor="start" x="12.9633" y="-234.8" font-family="Helvetica,sans-Serif" font-weight="bold" font-size="11.00" fill="#000000">contactos</text>
<text text-anchor="start" x="63.5219" y="-233.8" font-family="Helvetica,sans-Serif" font-size="11.00" fill="#000000">[table]</text>
<polygon fill="none" stroke="#000000" points="8,-206.7 8,-225.7 98,-225.7 98,-206.7 8,-206.7"/>
<text text-anchor="start" x="11" y="-212.8" font-family="Helvetica,sans-Serif" font-size="11.00" fill="#000000">...</text>
<polygon fill="#ffffff" stroke="transparent" points="8,-187.7 8,-206.7 37,-206.7 37,-187.7 8,-187.7"/>
<polygon fill="none" stroke="#000000" points="8,-187.7 8,-206.7 37,-206.7 37,-187.7 8,-187.7"/>
<text text-anchor="start" x="11" y="-193.8" font-family="Helvetica,sans-Serif" font-size="11.00" fill="#000000">&lt; 2</text>
<polygon fill="#ffffff" stroke="transparent" points="37,-187.7 37,-206.7 73,-206.7 73,-187.7 37,-187.7"/>
<polygon fill="none" stroke="#000000" points="37,-187.7 37,-206.7 73,-206.7 73,-187.7 37,-187.7"/>
<text text-anchor="start" x="43.1105" y="-193.8" font-family="Helvetica,sans-Serif" font-size="11.00" fill="#000000">1 row</text>
<polygon fill="#ffffff" stroke="transparent" points="73,-187.7 73,-206.7 98,-206.7 98,-187.7 73,-187.7"/>
<polygon fill="none" stroke="#000000" points="73,-187.7 73,-206.7 98,-206.7 98,-187.7 73,-187.7"/>
<text text-anchor="start" x="79.4053" y="-193.8" font-family="Helvetica,sans-Serif" font-size="11.00" fill="#000000">2 &gt;</text>
</a>
</g>
</g>
<!-- encuesta_respuestas&#45;&gt;contactos -->
<g id="edge4" class="edge">
<title>encuesta_respuestas:w&#45;&gt;contactos:e</title>
<path fill="none" stroke="#000000" d="M293.7966,-204.547C230.2297,-203.2065 208.4748,-193.7418 139,-203.7 120.2054,-206.3939 116.9867,-215.7 98,-215.7"/>
<polygon fill="#000000" stroke="#000000" points="300.5004,-204.6167 308.4625,-208.2998 304.5002,-204.6584 308.5,-204.7 308.5,-204.7 308.5,-204.7 304.5002,-204.6584 308.5375,-201.1002 300.5004,-204.6167 300.5004,-204.6167"/>
<ellipse fill="none" stroke="#000000" cx="297.3006" cy="-204.5834" rx="3.2" ry="3.2"/>
</g>
<!-- oportunidades -->
<g id="node6" class="node">
<title>oportunidades</title>
<g id="a_node6"><a xlink:href="../../tables/oportunidades.html" xlink:title="oportunidades" target="_top">
<polygon fill="#ffffff" stroke="transparent" points="147,-214.2 147,-275.2 259,-275.2 259,-214.2 147,-214.2"/>
<polygon fill="#f5f5f5" stroke="transparent" points="147,-251.7 147,-274.7 259,-274.7 259,-251.7 147,-251.7"/>
<polygon fill="none" stroke="#000000" points="147,-251.7 147,-274.7 259,-274.7 259,-251.7 147,-251.7"/>
<text text-anchor="start" x="151.6531" y="-260.8" font-family="Helvetica,sans-Serif" font-weight="bold" font-size="11.00" fill="#000000">oportunidades</text>
<text text-anchor="start" x="224.5219" y="-259.8" font-family="Helvetica,sans-Serif" font-size="11.00" fill="#000000">[table]</text>
<polygon fill="none" stroke="#000000" points="147,-232.7 147,-251.7 259,-251.7 259,-232.7 147,-232.7"/>
<text text-anchor="start" x="150" y="-238.8" font-family="Helvetica,sans-Serif" font-size="11.00" fill="#000000">...</text>
<polygon fill="#ffffff" stroke="transparent" points="147,-213.7 147,-232.7 187,-232.7 187,-213.7 147,-213.7"/>
<polygon fill="none" stroke="#000000" points="147,-213.7 147,-232.7 187,-232.7 187,-213.7 147,-213.7"/>
<text text-anchor="start" x="150" y="-219.8" font-family="Helvetica,sans-Serif" font-size="11.00" fill="#000000">&lt; 4</text>
<polygon fill="#ffffff" stroke="transparent" points="187,-213.7 187,-232.7 228,-232.7 228,-213.7 187,-213.7"/>
<polygon fill="none" stroke="#000000" points="187,-213.7 187,-232.7 228,-232.7 228,-213.7 187,-213.7"/>
<text text-anchor="start" x="198.1105" y="-219.8" font-family="Helvetica,sans-Serif" font-size="11.00" fill="#000000">1 row</text>
<polygon fill="#ffffff" stroke="transparent" points="228,-213.7 228,-232.7 259,-232.7 259,-213.7 228,-213.7"/>
<polygon fill="none" stroke="#000000" points="228,-213.7 228,-232.7 259,-232.7 259,-213.7 228,-213.7"/>
<text text-anchor="start" x="240.4053" y="-219.8" font-family="Helvetica,sans-Serif" font-size="11.00" fill="#000000">1 &gt;</text>
</a>
</g>
</g>
<!-- encuesta_respuestas&#45;&gt;oportunidades -->
<g id="edge5" class="edge">
<title>encuesta_respuestas:w&#45;&gt;oportunidades:e</title>
<path fill="none" stroke="#000000" d="M293.9343,-229.1769C282.4012,-233.4374 276.0613,-241.7 259,-241.7"/>
<polygon fill="#000000" stroke="#000000" points="300.6132,-228.0412 309.1035,-230.249 304.5566,-227.3706 308.5,-226.7 308.5,-226.7 308.5,-226.7 304.5566,-227.3706 307.8965,-223.151 300.6132,-228.0412 300.6132,-228.0412"/>
<ellipse fill="none" stroke="#000000" cx="297.4585" cy="-228.5777" rx="3.2" ry="3.2"/>
</g>
<!-- oportunidades&#45;&gt;contactos -->
<g id="edge6" class="edge">
<title>oportunidades:w&#45;&gt;contactos:e</title>
<path fill="none" stroke="#000000" d="M132.7707,-237.8636C121.0311,-230.6313 116.6828,-215.7 98,-215.7"/>
<polygon fill="#000000" stroke="#000000" points="139.2758,-239.6174 146.0628,-245.1759 143.1379,-240.6587 147,-241.7 147,-241.7 147,-241.7 143.1379,-240.6587 147.9372,-238.2241 139.2758,-239.6174 139.2758,-239.6174"/>
<ellipse fill="none" stroke="#000000" cx="136.1861" cy="-238.7844" rx="3.2" ry="3.2"/>
</g>
</g>
</svg>
