<?xml version="1.0" encoding="UTF-8" standalone="no"?>
<!DOCTYPE svg PUBLIC "-//W3C//DTD SVG 1.1//EN"
 "http://www.w3.org/Graphics/SVG/1.1/DTD/svg11.dtd">
<!-- Generated by graphviz version 2.40.1 (20161225.0304)
 -->
<!-- Title: twoDegreesRelationshipsDiagram Pages: 1 -->
<svg width="1160pt" height="423pt"
 viewBox="0.00 0.00 1160.00 423.20" xmlns="http://www.w3.org/2000/svg" xmlns:xlink="http://www.w3.org/1999/xlink">
<g id="graph0" class="graph" transform="scale(1 1) rotate(0) translate(4 419.2)">
<title>twoDegreesRelationshipsDiagram</title>
<polygon fill="#ffffff" stroke="transparent" points="-4,4 -4,-419.2 1156,-419.2 1156,4 -4,4"/>
<text text-anchor="middle" x="72.4936" y="-7.3" font-family="Helvetica,sans-Serif" font-size="11.00" fill="#000000">Generated by SchemaSpy</text>
<!-- contactos -->
<g id="node1" class="node">
<title>contactos</title>
<g id="a_node1"><a xlink:href="../../tables/contactos.html" xlink:title="contactos" target="_top">
<polygon fill="#ffffff" stroke="transparent" points="310,-120.2 310,-247.2 433,-247.2 433,-120.2 310,-120.2"/>
<polygon fill="#f5f5f5" stroke="transparent" points="310.5,-223.7 310.5,-246.7 433.5,-246.7 433.5,-223.7 310.5,-223.7"/>
<polygon fill="none" stroke="#000000" points="310.5,-223.7 310.5,-246.7 433.5,-246.7 433.5,-223.7 310.5,-223.7"/>
<text text-anchor="start" x="315.5" y="-232.8" font-family="Helvetica,sans-Serif" font-weight="bold" font-size="11.00" fill="#000000">contactos</text>
<text text-anchor="start" x="398.5437" y="-231.8" font-family="Helvetica,sans-Serif" font-size="11.00" fill="#000000">[table]</text>
<polygon fill="none" stroke="#000000" points="310.5,-201.7 310.5,-223.7 433.5,-223.7 433.5,-201.7 310.5,-201.7"/>
<image xlink:href="../../images/primaryKeys.png" width="11px" height="12px" preserveAspectRatio="xMinYMin meet" x="315.5" y="-218.7"/>
<text text-anchor="start" x="330.5" y="-208.8" font-family="Helvetica,sans-Serif" font-size="11.00" fill="#000000">contacto_id</text>
<polygon fill="none" stroke="#000000" points="310.5,-179.7 310.5,-201.7 433.5,-201.7 433.5,-179.7 310.5,-179.7"/>
<image xlink:href="../../images/foreignKeys.png" width="11px" height="12px" preserveAspectRatio="xMinYMin meet" x="315.5" y="-196.7"/>
<text text-anchor="start" x="330.5" y="-186.8" font-family="Helvetica,sans-Serif" font-size="11.00" fill="#000000">persona_id</text>
<polygon fill="none" stroke="#000000" points="310.5,-157.7 310.5,-179.7 433.5,-179.7 433.5,-157.7 310.5,-157.7"/>
<image xlink:href="../../images/foreignKeys.png" width="11px" height="12px" preserveAspectRatio="xMinYMin meet" x="315.5" y="-174.7"/>
<text text-anchor="start" x="330.5" y="-164.8" font-family="Helvetica,sans-Serif" font-size="11.00" fill="#000000">organizacion_id</text>
<polygon fill="none" stroke="#000000" points="310.5,-138.7 310.5,-157.7 433.5,-157.7 433.5,-138.7 310.5,-138.7"/>
<text text-anchor="start" x="313.5" y="-144.8" font-family="Helvetica,sans-Serif" font-size="11.00" fill="#000000">...</text>
<polygon fill="#ffffff" stroke="transparent" points="310.5,-119.7 310.5,-138.7 355.5,-138.7 355.5,-119.7 310.5,-119.7"/>
<polygon fill="none" stroke="#000000" points="310.5,-119.7 310.5,-138.7 355.5,-138.7 355.5,-119.7 310.5,-119.7"/>
<text text-anchor="start" x="313.5" y="-125.8" font-family="Helvetica,sans-Serif" font-size="11.00" fill="#000000">&lt; 2</text>
<polygon fill="#ffffff" stroke="transparent" points="355.5,-119.7 355.5,-138.7 399.5,-138.7 399.5,-119.7 355.5,-119.7"/>
<polygon fill="none" stroke="#000000" points="355.5,-119.7 355.5,-138.7 399.5,-138.7 399.5,-119.7 355.5,-119.7"/>
<text text-anchor="start" x="369.6105" y="-125.8" font-family="Helvetica,sans-Serif" font-size="11.00" fill="#000000">1 row</text>
<polygon fill="#ffffff" stroke="transparent" points="399.5,-119.7 399.5,-138.7 433.5,-138.7 433.5,-119.7 399.5,-119.7"/>
<polygon fill="none" stroke="#000000" points="399.5,-119.7 399.5,-138.7 433.5,-138.7 433.5,-119.7 399.5,-119.7"/>
<text text-anchor="start" x="414.9053" y="-125.8" font-family="Helvetica,sans-Serif" font-size="11.00" fill="#000000">2 &gt;</text>
</a>
</g>
</g>
<!-- organizaciones -->
<g id="node2" class="node">
<title>organizaciones</title>
<g id="a_node2"><a xlink:href="../../tables/organizaciones.html" xlink:title="organizaciones" target="_top">
<polygon fill="#ffffff" stroke="transparent" points="145,-123.2 145,-184.2 261,-184.2 261,-123.2 145,-123.2"/>
<polygon fill="#f5f5f5" stroke="transparent" points="145,-160.7 145,-183.7 261,-183.7 261,-160.7 145,-160.7"/>
<polygon fill="none" stroke="#000000" points="145,-160.7 145,-183.7 261,-183.7 261,-160.7 145,-160.7"/>
<text text-anchor="start" x="149.5186" y="-169.8" font-family="Helvetica,sans-Serif" font-weight="bold" font-size="11.00" fill="#000000">organizaciones</text>
<text text-anchor="start" x="226.5219" y="-168.8" font-family="Helvetica,sans-Serif" font-size="11.00" fill="#000000">[table]</text>
<polygon fill="none" stroke="#000000" points="145,-141.7 145,-160.7 261,-160.7 261,-141.7 145,-141.7"/>
<text text-anchor="start" x="148" y="-147.8" font-family="Helvetica,sans-Serif" font-size="11.00" fill="#000000">...</text>
<polygon fill="#ffffff" stroke="transparent" points="145,-122.7 145,-141.7 184,-141.7 184,-122.7 145,-122.7"/>
<polygon fill="none" stroke="#000000" points="145,-122.7 145,-141.7 184,-141.7 184,-122.7 145,-122.7"/>
<text text-anchor="start" x="148" y="-128.8" font-family="Helvetica,sans-Serif" font-size="11.00" fill="#000000">&lt; 1</text>
<polygon fill="#ffffff" stroke="transparent" points="184,-122.7 184,-141.7 231,-141.7 231,-122.7 184,-122.7"/>
<polygon fill="none" stroke="#000000" points="184,-122.7 184,-141.7 231,-141.7 231,-122.7 184,-122.7"/>
<text text-anchor="start" x="195.6105" y="-128.8" font-family="Helvetica,sans-Serif" font-size="11.00" fill="#000000">0 rows</text>
<polygon fill="#ffffff" stroke="transparent" points="231,-122.7 231,-141.7 261,-141.7 261,-122.7 231,-122.7"/>
<polygon fill="none" stroke="#000000" points="231,-122.7 231,-141.7 261,-141.7 261,-122.7 231,-122.7"/>
<text text-anchor="start" x="242.4053" y="-128.8" font-family="Helvetica,sans-Serif" font-size="11.00" fill="#000000">1 &gt;</text>
</a>
</g>
</g>
<!-- contactos&#45;&gt;organizaciones -->
<g id="edge1" class="edge">
<title>contactos:w&#45;&gt;organizaciones:e</title>
<path fill="none" stroke="#000000" d="M296.1817,-165.8875C284.4545,-160.825 278.557,-150.7 261,-150.7"/>
<polygon fill="#000000" stroke="#000000" points="302.65,-167.158 309.8061,-172.2325 306.575,-167.929 310.5,-168.7 310.5,-168.7 310.5,-168.7 306.575,-167.929 311.1939,-165.1675 302.65,-167.158 302.65,-167.158"/>
<ellipse fill="none" stroke="#000000" cx="299.51" cy="-166.5412" rx="3.2" ry="3.2"/>
</g>
<!-- personas -->
<g id="node3" class="node">
<title>personas</title>
<g id="a_node3"><a xlink:href="../../tables/personas.html" xlink:title="personas" target="_top">
<polygon fill="#ffffff" stroke="transparent" points="8,-152.2 8,-213.2 96,-213.2 96,-152.2 8,-152.2"/>
<polygon fill="#f5f5f5" stroke="transparent" points="8,-189.7 8,-212.7 96,-212.7 96,-189.7 8,-189.7"/>
<polygon fill="none" stroke="#000000" points="8,-189.7 8,-212.7 96,-212.7 96,-189.7 8,-189.7"/>
<text text-anchor="start" x="12.8818" y="-198.8" font-family="Helvetica,sans-Serif" font-weight="bold" font-size="11.00" fill="#000000">personas</text>
<text text-anchor="start" x="61.5219" y="-197.8" font-family="Helvetica,sans-Serif" font-size="11.00" fill="#000000">[table]</text>
<polygon fill="none" stroke="#000000" points="8,-170.7 8,-189.7 96,-189.7 96,-170.7 8,-170.7"/>
<text text-anchor="start" x="11" y="-176.8" font-family="Helvetica,sans-Serif" font-size="11.00" fill="#000000">...</text>
<polygon fill="#ffffff" stroke="transparent" points="8,-151.7 8,-170.7 28,-170.7 28,-151.7 8,-151.7"/>
<polygon fill="none" stroke="#000000" points="8,-151.7 8,-170.7 28,-170.7 28,-151.7 8,-151.7"/>
<text text-anchor="start" x="11" y="-157.8" font-family="Helvetica,sans-Serif" font-size="11.00" fill="#000000"> &#160;</text>
<polygon fill="#ffffff" stroke="transparent" points="28,-151.7 28,-170.7 70,-170.7 70,-151.7 28,-151.7"/>
<polygon fill="none" stroke="#000000" points="28,-151.7 28,-170.7 70,-170.7 70,-151.7 28,-151.7"/>
<text text-anchor="start" x="34.6105" y="-157.8" font-family="Helvetica,sans-Serif" font-size="11.00" fill="#000000">2 rows</text>
<polygon fill="#ffffff" stroke="transparent" points="70,-151.7 70,-170.7 96,-170.7 96,-151.7 70,-151.7"/>
<polygon fill="none" stroke="#000000" points="70,-151.7 70,-170.7 96,-170.7 96,-151.7 70,-151.7"/>
<text text-anchor="start" x="77.4053" y="-157.8" font-family="Helvetica,sans-Serif" font-size="11.00" fill="#000000">7 &gt;</text>
</a>
</g>
</g>
<!-- contactos&#45;&gt;personas -->
<g id="edge2" class="edge">
<title>contactos:w&#45;&gt;personas:e</title>
<path fill="none" stroke="#000000" d="M296.1002,-191.4821C287.6707,-192.4646 281.58,-194.0951 269,-194.7 210.401,-197.5175 194.7669,-204.9354 137,-194.7 117.8941,-191.3147 115.4034,-179.7 96,-179.7"/>
<polygon fill="#000000" stroke="#000000" points="302.5118,-191.1339 310.6953,-194.2947 306.5059,-190.917 310.5,-190.7 310.5,-190.7 310.5,-190.7 306.5059,-190.917 310.3047,-187.1053 302.5118,-191.1339 302.5118,-191.1339"/>
<ellipse fill="none" stroke="#000000" cx="299.3165" cy="-191.3075" rx="3.2" ry="3.2"/>
</g>
<!-- organizaciones&#45;&gt;personas -->
<g id="edge11" class="edge">
<title>organizaciones:w&#45;&gt;personas:e</title>
<path fill="none" stroke="#000000" d="M130.9495,-154.7323C118.971,-162.7007 115.3749,-179.7 96,-179.7"/>
<polygon fill="#000000" stroke="#000000" points="137.3104,-152.9069 145.9931,-154.1603 141.1552,-151.8034 145,-150.7 145,-150.7 145,-150.7 141.1552,-151.8034 144.0069,-147.2397 137.3104,-152.9069 137.3104,-152.9069"/>
<ellipse fill="none" stroke="#000000" cx="134.2346" cy="-153.7896" rx="3.2" ry="3.2"/>
</g>
<!-- encuesta_pregunta_respuestas -->
<g id="node4" class="node">
<title>encuesta_pregunta_respuestas</title>
<g id="a_node4"><a xlink:href="../../tables/encuesta_pregunta_respuestas.html" xlink:title="encuesta_pregunta_respuestas" target="_top">
<polygon fill="#ffffff" stroke="transparent" points="943,-156.2 943,-283.2 1144,-283.2 1144,-156.2 943,-156.2"/>
<polygon fill="#f5f5f5" stroke="transparent" points="943.5,-259.7 943.5,-282.7 1144.5,-282.7 1144.5,-259.7 943.5,-259.7"/>
<polygon fill="none" stroke="#000000" points="943.5,-259.7 943.5,-282.7 1144.5,-282.7 1144.5,-259.7 943.5,-259.7"/>
<text text-anchor="start" x="948.5" y="-268.8" font-family="Helvetica,sans-Serif" font-weight="bold" font-size="11.00" fill="#000000">encuesta_pregunta_respuestas</text>
<text text-anchor="start" x="1109.5437" y="-267.8" font-family="Helvetica,sans-Serif" font-size="11.00" fill="#000000">[table]</text>
<polygon fill="none" stroke="#000000" points="943.5,-237.7 943.5,-259.7 1144.5,-259.7 1144.5,-237.7 943.5,-237.7"/>
<image xlink:href="../../images/primaryKeys.png" width="11px" height="12px" preserveAspectRatio="xMinYMin meet" x="948.5" y="-254.7"/>
<text text-anchor="start" x="963.5" y="-244.8" font-family="Helvetica,sans-Serif" font-size="11.00" fill="#000000">pregunta_respuesta_id</text>
<polygon fill="none" stroke="#000000" points="943.5,-215.7 943.5,-237.7 1144.5,-237.7 1144.5,-215.7 943.5,-215.7"/>
<image xlink:href="../../images/foreignKeys.png" width="11px" height="12px" preserveAspectRatio="xMinYMin meet" x="948.5" y="-232.7"/>
<text text-anchor="start" x="963.5" y="-222.8" font-family="Helvetica,sans-Serif" font-size="11.00" fill="#000000">respuesta_id</text>
<polygon fill="none" stroke="#000000" points="943.5,-193.7 943.5,-215.7 1144.5,-215.7 1144.5,-193.7 943.5,-193.7"/>
<image xlink:href="../../images/foreignKeys.png" width="11px" height="12px" preserveAspectRatio="xMinYMin meet" x="948.5" y="-210.7"/>
<text text-anchor="start" x="963.5" y="-200.8" font-family="Helvetica,sans-Serif" font-size="11.00" fill="#000000">pregunta_id</text>
<polygon fill="none" stroke="#000000" points="943.5,-174.7 943.5,-193.7 1144.5,-193.7 1144.5,-174.7 943.5,-174.7"/>
<text text-anchor="start" x="946.5" y="-180.8" font-family="Helvetica,sans-Serif" font-size="11.00" fill="#000000">...</text>
<polygon fill="#ffffff" stroke="transparent" points="943.5,-155.7 943.5,-174.7 1029.5,-174.7 1029.5,-155.7 943.5,-155.7"/>
<polygon fill="none" stroke="#000000" points="943.5,-155.7 943.5,-174.7 1029.5,-174.7 1029.5,-155.7 943.5,-155.7"/>
<text text-anchor="start" x="946.5" y="-161.8" font-family="Helvetica,sans-Serif" font-size="11.00" fill="#000000">&lt; 2</text>
<polygon fill="#ffffff" stroke="transparent" points="1029.5,-155.7 1029.5,-174.7 1099.5,-174.7 1099.5,-155.7 1029.5,-155.7"/>
<polygon fill="none" stroke="#000000" points="1029.5,-155.7 1029.5,-174.7 1099.5,-174.7 1099.5,-155.7 1029.5,-155.7"/>
<text text-anchor="start" x="1064.1105" y="-161.8" font-family="Helvetica,sans-Serif" font-size="11.00" fill="#000000">4 rows</text>
<polygon fill="#ffffff" stroke="transparent" points="1099.5,-155.7 1099.5,-174.7 1144.5,-174.7 1144.5,-155.7 1099.5,-155.7"/>
<polygon fill="none" stroke="#000000" points="1099.5,-155.7 1099.5,-174.7 1144.5,-174.7 1144.5,-155.7 1099.5,-155.7"/>
<text text-anchor="start" x="1135.3862" y="-161.8" font-family="Helvetica,sans-Serif" font-size="11.00" fill="#000000"> &#160;</text>
</a>
</g>
</g>
<!-- encuesta_preguntas -->
<g id="node5" class="node">
<title>encuesta_preguntas</title>
<g id="a_node5"><a xlink:href="../../tables/encuesta_preguntas.html" xlink:title="encuesta_preguntas" target="_top">
<polygon fill="#ffffff" stroke="transparent" points="703,-90.2 703,-151.2 845,-151.2 845,-90.2 703,-90.2"/>
<polygon fill="#f5f5f5" stroke="transparent" points="703,-127.7 703,-150.7 845,-150.7 845,-127.7 703,-127.7"/>
<polygon fill="none" stroke="#000000" points="703,-127.7 703,-150.7 845,-150.7 845,-127.7 703,-127.7"/>
<text text-anchor="start" x="707.6727" y="-136.8" font-family="Helvetica,sans-Serif" font-weight="bold" font-size="11.00" fill="#000000">encuesta_preguntas</text>
<text text-anchor="start" x="810.5219" y="-135.8" font-family="Helvetica,sans-Serif" font-size="11.00" fill="#000000">[table]</text>
<polygon fill="none" stroke="#000000" points="703,-108.7 703,-127.7 845,-127.7 845,-108.7 703,-108.7"/>
<text text-anchor="start" x="706" y="-114.8" font-family="Helvetica,sans-Serif" font-size="11.00" fill="#000000">...</text>
<polygon fill="#ffffff" stroke="transparent" points="703,-89.7 703,-108.7 750,-108.7 750,-89.7 703,-89.7"/>
<polygon fill="none" stroke="#000000" points="703,-89.7 703,-108.7 750,-108.7 750,-89.7 703,-89.7"/>
<text text-anchor="start" x="706" y="-95.8" font-family="Helvetica,sans-Serif" font-size="11.00" fill="#000000"> &#160;</text>
<polygon fill="#ffffff" stroke="transparent" points="750,-89.7 750,-108.7 806,-108.7 806,-89.7 750,-89.7"/>
<polygon fill="none" stroke="#000000" points="750,-89.7 750,-108.7 806,-108.7 806,-89.7 750,-89.7"/>
<text text-anchor="start" x="770.6105" y="-95.8" font-family="Helvetica,sans-Serif" font-size="11.00" fill="#000000">4 rows</text>
<polygon fill="#ffffff" stroke="transparent" points="806,-89.7 806,-108.7 845,-108.7 845,-89.7 806,-89.7"/>
<polygon fill="none" stroke="#000000" points="806,-89.7 806,-108.7 845,-108.7 845,-89.7 806,-89.7"/>
<text text-anchor="start" x="826.4053" y="-95.8" font-family="Helvetica,sans-Serif" font-size="11.00" fill="#000000">2 &gt;</text>
</a>
</g>
</g>
<!-- encuesta_pregunta_respuestas&#45;&gt;encuesta_preguntas -->
<g id="edge3" class="edge">
<title>encuesta_pregunta_respuestas:w&#45;&gt;encuesta_preguntas:e</title>
<path fill="none" stroke="#000000" d="M929.2792,-200.9565C917.8589,-193.2643 917.1495,-175.2648 902,-161.7 878.1578,-140.3517 877.0031,-117.7 845,-117.7"/>
<polygon fill="#000000" stroke="#000000" points="935.7636,-202.6634 942.5835,-208.1814 939.6318,-203.6817 943.5,-204.7 943.5,-204.7 943.5,-204.7 939.6318,-203.6817 944.4165,-201.2186 935.7636,-202.6634 935.7636,-202.6634"/>
<ellipse fill="none" stroke="#000000" cx="932.669" cy="-201.8487" rx="3.2" ry="3.2"/>
</g>
<!-- encuesta_respuestas -->
<g id="node6" class="node">
<title>encuesta_respuestas</title>
<g id="a_node6"><a xlink:href="../../tables/encuesta_respuestas.html" xlink:title="encuesta_respuestas" target="_top">
<polygon fill="#ffffff" stroke="transparent" points="654,-172.7 654,-350.7 894,-350.7 894,-172.7 654,-172.7"/>
<polygon fill="#f5f5f5" stroke="transparent" points="656,-325.7 656,-348.7 892,-348.7 892,-325.7 656,-325.7"/>
<polygon fill="none" stroke="#000000" points="656,-325.7 656,-348.7 892,-348.7 892,-325.7 656,-325.7"/>
<text text-anchor="start" x="661" y="-334.8" font-family="Helvetica,sans-Serif" font-weight="bold" font-size="11.00" fill="#000000">encuesta_respuestas</text>
<text text-anchor="start" x="857.0437" y="-333.8" font-family="Helvetica,sans-Serif" font-size="11.00" fill="#000000">[table]</text>
<polygon fill="none" stroke="#000000" points="656,-303.7 656,-325.7 799,-325.7 799,-303.7 656,-303.7"/>
<image xlink:href="../../images/primaryKeys.png" width="11px" height="12px" preserveAspectRatio="xMinYMin meet" x="661" y="-320.7"/>
<text text-anchor="start" x="676" y="-310.8" font-family="Helvetica,sans-Serif" font-size="11.00" fill="#000000">respuesta_id</text>
<polygon fill="none" stroke="#000000" points="799,-303.7 799,-325.7 892,-325.7 892,-303.7 799,-303.7"/>
<text text-anchor="start" x="802" y="-311.4" font-family="Helvetica,sans-Serif" font-size="11.00" fill="#000000">serial[10]</text>
<polygon fill="none" stroke="#000000" points="656,-281.7 656,-303.7 799,-303.7 799,-281.7 656,-281.7"/>
<image xlink:href="../../images/foreignKeys.png" width="11px" height="12px" preserveAspectRatio="xMinYMin meet" x="661" y="-298.7"/>
<text text-anchor="start" x="676" y="-288.8" font-family="Helvetica,sans-Serif" font-size="11.00" fill="#000000">oportunidad_id</text>
<polygon fill="none" stroke="#000000" points="799,-281.7 799,-303.7 892,-303.7 892,-281.7 799,-281.7"/>
<text text-anchor="start" x="802" y="-289.4" font-family="Helvetica,sans-Serif" font-size="11.00" fill="#000000">int4[10]</text>
<polygon fill="none" stroke="#000000" points="656,-259.7 656,-281.7 799,-281.7 799,-259.7 656,-259.7"/>
<image xlink:href="../../images/foreignKeys.png" width="11px" height="12px" preserveAspectRatio="xMinYMin meet" x="661" y="-276.7"/>
<text text-anchor="start" x="676" y="-266.8" font-family="Helvetica,sans-Serif" font-size="11.00" fill="#000000">contacto_id</text>
<polygon fill="none" stroke="#000000" points="799,-259.7 799,-281.7 892,-281.7 892,-259.7 799,-259.7"/>
<text text-anchor="start" x="802" y="-267.4" font-family="Helvetica,sans-Serif" font-size="11.00" fill="#000000">int4[10]</text>
<polygon fill="none" stroke="#000000" points="656,-237.7 656,-259.7 799,-259.7 799,-237.7 656,-237.7"/>
<text text-anchor="start" x="676" y="-244.8" font-family="Helvetica,sans-Serif" font-size="11.00" fill="#000000">json</text>
<polygon fill="none" stroke="#000000" points="799,-237.7 799,-259.7 892,-259.7 892,-237.7 799,-237.7"/>
<text text-anchor="start" x="801.7832" y="-245.4" font-family="Helvetica,sans-Serif" font-size="11.00" fill="#000000">json[2147483647]</text>
<polygon fill="none" stroke="#000000" points="656,-215.7 656,-237.7 799,-237.7 799,-215.7 656,-215.7"/>
<text text-anchor="start" x="676" y="-222.8" font-family="Helvetica,sans-Serif" font-size="11.00" fill="#000000">fec_insercion</text>
<polygon fill="none" stroke="#000000" points="799,-215.7 799,-237.7 892,-237.7 892,-215.7 799,-215.7"/>
<text text-anchor="start" x="802" y="-223.4" font-family="Helvetica,sans-Serif" font-size="11.00" fill="#000000">timestamptz[35,6]</text>
<polygon fill="none" stroke="#000000" points="656,-193.7 656,-215.7 799,-215.7 799,-193.7 656,-193.7"/>
<text text-anchor="start" x="676" y="-200.8" font-family="Helvetica,sans-Serif" font-size="11.00" fill="#000000">fec_modificacion</text>
<polygon fill="none" stroke="#000000" points="799,-193.7 799,-215.7 892,-215.7 892,-193.7 799,-193.7"/>
<text text-anchor="start" x="802" y="-201.4" font-family="Helvetica,sans-Serif" font-size="11.00" fill="#000000">timestamptz[35,6]</text>
<polygon fill="#ffffff" stroke="transparent" points="656,-174.7 656,-193.7 722,-193.7 722,-174.7 656,-174.7"/>
<polygon fill="none" stroke="#000000" points="656,-174.7 656,-193.7 722,-193.7 722,-174.7 656,-174.7"/>
<text text-anchor="start" x="659" y="-180.8" font-family="Helvetica,sans-Serif" font-size="11.00" fill="#000000">&lt; 2</text>
<polygon fill="#ffffff" stroke="transparent" points="722,-174.7 722,-193.7 799,-193.7 799,-174.7 722,-174.7"/>
<polygon fill="none" stroke="#000000" points="722,-174.7 722,-193.7 799,-193.7 799,-174.7 722,-174.7"/>
<text text-anchor="start" x="769.1105" y="-180.8" font-family="Helvetica,sans-Serif" font-size="11.00" fill="#000000">1 row</text>
<polygon fill="#ffffff" stroke="transparent" points="799,-174.7 799,-193.7 892,-193.7 892,-174.7 799,-174.7"/>
<polygon fill="none" stroke="#000000" points="799,-174.7 799,-193.7 892,-193.7 892,-174.7 799,-174.7"/>
<text text-anchor="start" x="873.4053" y="-180.8" font-family="Helvetica,sans-Serif" font-size="11.00" fill="#000000">1 &gt;</text>
<polygon fill="none" stroke="#000000" stroke-width="2" points="655,-173.7 655,-349.7 893,-349.7 893,-173.7 655,-173.7"/>
</a>
</g>
</g>
<!-- encuesta_pregunta_respuestas&#45;&gt;encuesta_respuestas -->
<g id="edge4" class="edge">
<title>encuesta_pregunta_respuestas:w&#45;&gt;encuesta_respuestas:e</title>
<path fill="none" stroke="#000000" d="M929.5174,-230.9444C907.0886,-248.5228 931.2979,-314.7 892,-314.7"/>
<polygon fill="#000000" stroke="#000000" points="935.8449,-229.0237 944.5457,-230.1448 939.6725,-227.8619 943.5,-226.7 943.5,-226.7 943.5,-226.7 939.6725,-227.8619 942.4543,-223.2552 935.8449,-229.0237 935.8449,-229.0237"/>
<ellipse fill="none" stroke="#000000" cx="932.7829" cy="-229.9532" rx="3.2" ry="3.2"/>
</g>
<!-- encuesta_respuestas&#45;&gt;contactos -->
<g id="edge5" class="edge">
<title>encuesta_respuestas:w&#45;&gt;contactos:e</title>
<path fill="none" stroke="#000000" d="M642.0241,-266.091C629.4655,-254.8027 635.3669,-225.8808 613,-214.7 541.6368,-179.0268 513.2827,-212.7 433.5,-212.7"/>
<polygon fill="#000000" stroke="#000000" points="648.4025,-268.1944 654.8725,-274.1189 652.2012,-269.4472 656,-270.7 656,-270.7 656,-270.7 652.2012,-269.4472 657.1275,-267.2811 648.4025,-268.1944 648.4025,-268.1944"/>
<ellipse fill="none" stroke="#000000" cx="645.3635" cy="-267.1922" rx="3.2" ry="3.2"/>
</g>
<!-- oportunidades -->
<g id="node7" class="node">
<title>oportunidades</title>
<g id="a_node7"><a xlink:href="../../tables/oportunidades.html" xlink:title="oportunidades" target="_top">
<polygon fill="#ffffff" stroke="transparent" points="482,-225.2 482,-396.2 605,-396.2 605,-225.2 482,-225.2"/>
<polygon fill="#f5f5f5" stroke="transparent" points="482.5,-372.7 482.5,-395.7 605.5,-395.7 605.5,-372.7 482.5,-372.7"/>
<polygon fill="none" stroke="#000000" points="482.5,-372.7 482.5,-395.7 605.5,-395.7 605.5,-372.7 482.5,-372.7"/>
<text text-anchor="start" x="487.5" y="-381.8" font-family="Helvetica,sans-Serif" font-weight="bold" font-size="11.00" fill="#000000">oportunidades</text>
<text text-anchor="start" x="570.5437" y="-380.8" font-family="Helvetica,sans-Serif" font-size="11.00" fill="#000000">[table]</text>
<polygon fill="none" stroke="#000000" points="482.5,-350.7 482.5,-372.7 605.5,-372.7 605.5,-350.7 482.5,-350.7"/>
<image xlink:href="../../images/primaryKeys.png" width="11px" height="12px" preserveAspectRatio="xMinYMin meet" x="487.5" y="-367.7"/>
<text text-anchor="start" x="502.5" y="-357.8" font-family="Helvetica,sans-Serif" font-size="11.00" fill="#000000">oportunidad_id</text>
<polygon fill="none" stroke="#000000" points="482.5,-328.7 482.5,-350.7 605.5,-350.7 605.5,-328.7 482.5,-328.7"/>
<image xlink:href="../../images/foreignKeys.png" width="11px" height="12px" preserveAspectRatio="xMinYMin meet" x="487.5" y="-345.7"/>
<text text-anchor="start" x="502.5" y="-335.8" font-family="Helvetica,sans-Serif" font-size="11.00" fill="#000000">campana_id</text>
<polygon fill="none" stroke="#000000" points="482.5,-306.7 482.5,-328.7 605.5,-328.7 605.5,-306.7 482.5,-306.7"/>
<image xlink:href="../../images/foreignKeys.png" width="11px" height="12px" preserveAspectRatio="xMinYMin meet" x="487.5" y="-323.7"/>
<text text-anchor="start" x="502.5" y="-313.8" font-family="Helvetica,sans-Serif" font-size="11.00" fill="#000000">contacto_id</text>
<polygon fill="none" stroke="#000000" points="482.5,-284.7 482.5,-306.7 605.5,-306.7 605.5,-284.7 482.5,-284.7"/>
<image xlink:href="../../images/foreignKeys.png" width="11px" height="12px" preserveAspectRatio="xMinYMin meet" x="487.5" y="-301.7"/>
<text text-anchor="start" x="502.5" y="-291.8" font-family="Helvetica,sans-Serif" font-size="11.00" fill="#000000">curso_id</text>
<polygon fill="none" stroke="#000000" points="482.5,-262.7 482.5,-284.7 605.5,-284.7 605.5,-262.7 482.5,-262.7"/>
<image xlink:href="../../images/foreignKeys.png" width="11px" height="12px" preserveAspectRatio="xMinYMin meet" x="487.5" y="-279.7"/>
<text text-anchor="start" x="502.5" y="-269.8" font-family="Helvetica,sans-Serif" font-size="11.00" fill="#000000">usu_asignado_id</text>
<polygon fill="none" stroke="#000000" points="482.5,-243.7 482.5,-262.7 605.5,-262.7 605.5,-243.7 482.5,-243.7"/>
<text text-anchor="start" x="485.5" y="-249.8" font-family="Helvetica,sans-Serif" font-size="11.00" fill="#000000">...</text>
<polygon fill="#ffffff" stroke="transparent" points="482.5,-224.7 482.5,-243.7 527.5,-243.7 527.5,-224.7 482.5,-224.7"/>
<polygon fill="none" stroke="#000000" points="482.5,-224.7 482.5,-243.7 527.5,-243.7 527.5,-224.7 482.5,-224.7"/>
<text text-anchor="start" x="485.5" y="-230.8" font-family="Helvetica,sans-Serif" font-size="11.00" fill="#000000">&lt; 4</text>
<polygon fill="#ffffff" stroke="transparent" points="527.5,-224.7 527.5,-243.7 571.5,-243.7 571.5,-224.7 527.5,-224.7"/>
<polygon fill="none" stroke="#000000" points="527.5,-224.7 527.5,-243.7 571.5,-243.7 571.5,-224.7 527.5,-224.7"/>
<text text-anchor="start" x="541.6105" y="-230.8" font-family="Helvetica,sans-Serif" font-size="11.00" fill="#000000">1 row</text>
<polygon fill="#ffffff" stroke="transparent" points="571.5,-224.7 571.5,-243.7 605.5,-243.7 605.5,-224.7 571.5,-224.7"/>
<polygon fill="none" stroke="#000000" points="571.5,-224.7 571.5,-243.7 605.5,-243.7 605.5,-224.7 571.5,-224.7"/>
<text text-anchor="start" x="586.9053" y="-230.8" font-family="Helvetica,sans-Serif" font-size="11.00" fill="#000000">1 &gt;</text>
</a>
</g>
</g>
<!-- encuesta_respuestas&#45;&gt;oportunidades -->
<g id="edge6" class="edge">
<title>encuesta_respuestas:w&#45;&gt;oportunidades:e</title>
<path fill="none" stroke="#000000" d="M641.8629,-297.6623C624.6569,-313.4834 637.2678,-361.7 605.5,-361.7"/>
<polygon fill="#000000" stroke="#000000" points="648.4515,-295.3497 657.1923,-296.0968 652.2258,-294.0248 656,-292.7 656,-292.7 656,-292.7 652.2258,-294.0248 654.8077,-289.3032 648.4515,-295.3497 648.4515,-295.3497"/>
<ellipse fill="none" stroke="#000000" cx="645.4321" cy="-296.4095" rx="3.2" ry="3.2"/>
</g>
<!-- oportunidades&#45;&gt;contactos -->
<g id="edge8" class="edge">
<title>oportunidades:w&#45;&gt;contactos:e</title>
<path fill="none" stroke="#000000" d="M468.4019,-313.7121C442.2085,-294.5326 478.9631,-212.7 433.5,-212.7"/>
<polygon fill="#000000" stroke="#000000" points="474.802,-315.5225 481.5201,-321.1641 478.651,-316.6112 482.5,-317.7 482.5,-317.7 482.5,-317.7 478.651,-316.6112 483.4799,-314.2359 474.802,-315.5225 474.802,-315.5225"/>
<ellipse fill="none" stroke="#000000" cx="471.7229" cy="-314.6514" rx="3.2" ry="3.2"/>
</g>
<!-- campanas -->
<g id="node8" class="node">
<title>campanas</title>
<g id="a_node8"><a xlink:href="../../tables/campanas.html" xlink:title="campanas" target="_top">
<polygon fill="#ffffff" stroke="transparent" points="325,-350.2 325,-411.2 418,-411.2 418,-350.2 325,-350.2"/>
<polygon fill="#f5f5f5" stroke="transparent" points="325.5,-387.7 325.5,-410.7 418.5,-410.7 418.5,-387.7 325.5,-387.7"/>
<polygon fill="none" stroke="#000000" points="325.5,-387.7 325.5,-410.7 418.5,-410.7 418.5,-387.7 325.5,-387.7"/>
<text text-anchor="start" x="330.1318" y="-396.8" font-family="Helvetica,sans-Serif" font-weight="bold" font-size="11.00" fill="#000000">campanas</text>
<text text-anchor="start" x="384.0219" y="-395.8" font-family="Helvetica,sans-Serif" font-size="11.00" fill="#000000">[table]</text>
<polygon fill="none" stroke="#000000" points="325.5,-368.7 325.5,-387.7 418.5,-387.7 418.5,-368.7 325.5,-368.7"/>
<text text-anchor="start" x="328.5" y="-374.8" font-family="Helvetica,sans-Serif" font-size="11.00" fill="#000000">...</text>
<polygon fill="#ffffff" stroke="transparent" points="325.5,-349.7 325.5,-368.7 348.5,-368.7 348.5,-349.7 325.5,-349.7"/>
<polygon fill="none" stroke="#000000" points="325.5,-349.7 325.5,-368.7 348.5,-368.7 348.5,-349.7 325.5,-349.7"/>
<text text-anchor="start" x="328.5" y="-355.8" font-family="Helvetica,sans-Serif" font-size="11.00" fill="#000000"> &#160;</text>
<polygon fill="#ffffff" stroke="transparent" points="348.5,-349.7 348.5,-368.7 391.5,-368.7 391.5,-349.7 348.5,-349.7"/>
<polygon fill="none" stroke="#000000" points="348.5,-349.7 348.5,-368.7 391.5,-368.7 391.5,-349.7 348.5,-349.7"/>
<text text-anchor="start" x="356.1105" y="-355.8" font-family="Helvetica,sans-Serif" font-size="11.00" fill="#000000">0 rows</text>
<polygon fill="#ffffff" stroke="transparent" points="391.5,-349.7 391.5,-368.7 418.5,-368.7 418.5,-349.7 391.5,-349.7"/>
<polygon fill="none" stroke="#000000" points="391.5,-349.7 391.5,-368.7 418.5,-368.7 418.5,-349.7 391.5,-349.7"/>
<text text-anchor="start" x="399.9053" y="-355.8" font-family="Helvetica,sans-Serif" font-size="11.00" fill="#000000">3 &gt;</text>
</a>
</g>
</g>
<!-- oportunidades&#45;&gt;campanas -->
<g id="edge7" class="edge">
<title>oportunidades:w&#45;&gt;campanas:e</title>
<path fill="none" stroke="#000000" d="M468.2082,-342.6818C449.1213,-351.6399 445.8948,-377.7 418.5,-377.7"/>
<polygon fill="#000000" stroke="#000000" points="474.6686,-341.334 483.2353,-343.2241 478.5843,-340.517 482.5,-339.7 482.5,-339.7 482.5,-339.7 478.5843,-340.517 481.7647,-336.1759 474.6686,-341.334 474.6686,-341.334"/>
<ellipse fill="none" stroke="#000000" cx="471.5361" cy="-341.9875" rx="3.2" ry="3.2"/>
</g>
<!-- cursos -->
<g id="node9" class="node">
<title>cursos</title>
<g id="a_node9"><a xlink:href="../../tables/cursos.html" xlink:title="cursos" target="_top">
<polygon fill="#ffffff" stroke="transparent" points="334,-268.2 334,-329.2 409,-329.2 409,-268.2 334,-268.2"/>
<polygon fill="#f5f5f5" stroke="transparent" points="334.5,-305.7 334.5,-328.7 409.5,-328.7 409.5,-305.7 334.5,-305.7"/>
<polygon fill="none" stroke="#000000" points="334.5,-305.7 334.5,-328.7 409.5,-328.7 409.5,-305.7 334.5,-305.7"/>
<text text-anchor="start" x="339.3042" y="-314.8" font-family="Helvetica,sans-Serif" font-weight="bold" font-size="11.00" fill="#000000">cursos</text>
<text text-anchor="start" x="375.0219" y="-313.8" font-family="Helvetica,sans-Serif" font-size="11.00" fill="#000000">[table]</text>
<polygon fill="none" stroke="#000000" points="334.5,-286.7 334.5,-305.7 409.5,-305.7 409.5,-286.7 334.5,-286.7"/>
<text text-anchor="start" x="337.5" y="-292.8" font-family="Helvetica,sans-Serif" font-size="11.00" fill="#000000">...</text>
<polygon fill="#ffffff" stroke="transparent" points="334.5,-267.7 334.5,-286.7 351.5,-286.7 351.5,-267.7 334.5,-267.7"/>
<polygon fill="none" stroke="#000000" points="334.5,-267.7 334.5,-286.7 351.5,-286.7 351.5,-267.7 334.5,-267.7"/>
<text text-anchor="start" x="337.5" y="-273.8" font-family="Helvetica,sans-Serif" font-size="11.00" fill="#000000"> &#160;</text>
<polygon fill="#ffffff" stroke="transparent" points="351.5,-267.7 351.5,-286.7 385.5,-286.7 385.5,-267.7 351.5,-267.7"/>
<polygon fill="none" stroke="#000000" points="351.5,-267.7 351.5,-286.7 385.5,-286.7 385.5,-267.7 351.5,-267.7"/>
<text text-anchor="start" x="355.6105" y="-273.8" font-family="Helvetica,sans-Serif" font-size="11.00" fill="#000000">1 row</text>
<polygon fill="#ffffff" stroke="transparent" points="385.5,-267.7 385.5,-286.7 409.5,-286.7 409.5,-267.7 385.5,-267.7"/>
<polygon fill="none" stroke="#000000" points="385.5,-267.7 385.5,-286.7 409.5,-286.7 409.5,-267.7 385.5,-267.7"/>
<text text-anchor="start" x="390.9053" y="-273.8" font-family="Helvetica,sans-Serif" font-size="11.00" fill="#000000">4 &gt;</text>
</a>
</g>
</g>
<!-- oportunidades&#45;&gt;cursos -->
<g id="edge9" class="edge">
<title>oportunidades:w&#45;&gt;cursos:e</title>
<path fill="none" stroke="#000000" d="M467.98,-295.7C446.6442,-295.7 436.4948,-295.7 409.5,-295.7"/>
<polygon fill="#000000" stroke="#000000" points="474.5,-295.7001 482.5,-299.3 478.5,-295.7 482.5,-295.7 482.5,-295.7 482.5,-295.7 478.5,-295.7 482.5,-292.1 474.5,-295.7001 474.5,-295.7001"/>
<ellipse fill="none" stroke="#000000" cx="471.3" cy="-295.7001" rx="3.2" ry="3.2"/>
</g>
<!-- usuarios -->
<g id="node10" class="node">
<title>usuarios</title>
<g id="a_node10"><a xlink:href="../../tables/usuarios.html" xlink:title="usuarios" target="_top">
<polygon fill="#ffffff" stroke="transparent" points="329.5,-38.2 329.5,-99.2 413.5,-99.2 413.5,-38.2 329.5,-38.2"/>
<polygon fill="#f5f5f5" stroke="transparent" points="329.5,-75.7 329.5,-98.7 413.5,-98.7 413.5,-75.7 329.5,-75.7"/>
<polygon fill="none" stroke="#000000" points="329.5,-75.7 329.5,-98.7 413.5,-98.7 413.5,-75.7 329.5,-75.7"/>
<text text-anchor="start" x="334.2188" y="-84.8" font-family="Helvetica,sans-Serif" font-weight="bold" font-size="11.00" fill="#000000">usuarios</text>
<text text-anchor="start" x="379.0219" y="-83.8" font-family="Helvetica,sans-Serif" font-size="11.00" fill="#000000">[table]</text>
<polygon fill="none" stroke="#000000" points="329.5,-56.7 329.5,-75.7 413.5,-75.7 413.5,-56.7 329.5,-56.7"/>
<text text-anchor="start" x="332.5" y="-62.8" font-family="Helvetica,sans-Serif" font-size="11.00" fill="#000000">...</text>
<polygon fill="#ffffff" stroke="transparent" points="329.5,-37.7 329.5,-56.7 350.5,-56.7 350.5,-37.7 329.5,-37.7"/>
<polygon fill="none" stroke="#000000" points="329.5,-37.7 329.5,-56.7 350.5,-56.7 350.5,-37.7 329.5,-37.7"/>
<text text-anchor="start" x="332.5" y="-43.8" font-family="Helvetica,sans-Serif" font-size="11.00" fill="#000000"> &#160;</text>
<polygon fill="#ffffff" stroke="transparent" points="350.5,-37.7 350.5,-56.7 387.5,-56.7 387.5,-37.7 350.5,-37.7"/>
<polygon fill="none" stroke="#000000" points="350.5,-37.7 350.5,-56.7 387.5,-56.7 387.5,-37.7 350.5,-37.7"/>
<text text-anchor="start" x="357.6105" y="-43.8" font-family="Helvetica,sans-Serif" font-size="11.00" fill="#000000">1 row</text>
<polygon fill="#ffffff" stroke="transparent" points="387.5,-37.7 387.5,-56.7 413.5,-56.7 413.5,-37.7 387.5,-37.7"/>
<polygon fill="none" stroke="#000000" points="387.5,-37.7 387.5,-56.7 413.5,-56.7 413.5,-37.7 387.5,-37.7"/>
<text text-anchor="start" x="394.9053" y="-43.8" font-family="Helvetica,sans-Serif" font-size="11.00" fill="#000000">5 &gt;</text>
</a>
</g>
</g>
<!-- oportunidades&#45;&gt;usuarios -->
<g id="edge10" class="edge">
<title>oportunidades:w&#45;&gt;usuarios:e</title>
<path fill="none" stroke="#000000" d="M468.0169,-271.7737C398.6361,-250.8048 505.3816,-65.7 413.5,-65.7"/>
<polygon fill="#000000" stroke="#000000" points="474.5698,-272.6452 482.0253,-277.2686 478.5349,-273.1726 482.5,-273.7 482.5,-273.7 482.5,-273.7 478.5349,-273.1726 482.9747,-270.1314 474.5698,-272.6452 474.5698,-272.6452"/>
<ellipse fill="none" stroke="#000000" cx="471.3978" cy="-272.2233" rx="3.2" ry="3.2"/>
</g>
</g>
</svg>
