<?xml version="1.0" encoding="UTF-8" standalone="no"?>
<!DOCTYPE svg PUBLIC "-//W3C//DTD SVG 1.1//EN"
 "http://www.w3.org/Graphics/SVG/1.1/DTD/svg11.dtd">
<!-- Generated by graphviz version 2.40.1 (20161225.0304)
 -->
<!-- Title: oneDegreeRelationshipsDiagram Pages: 1 -->
<svg width="857pt" height="280pt"
 viewBox="0.00 0.00 857.00 280.20" xmlns="http://www.w3.org/2000/svg" xmlns:xlink="http://www.w3.org/1999/xlink">
<g id="graph0" class="graph" transform="scale(1 1) rotate(0) translate(4 276.2)">
<title>oneDegreeRelationshipsDiagram</title>
<polygon fill="#ffffff" stroke="transparent" points="-4,4 -4,-276.2 853,-276.2 853,4 -4,4"/>
<text text-anchor="middle" x="72.4936" y="-7.3" font-family="Helvetica,sans-Serif" font-size="11.00" fill="#000000">Generated by SchemaSpy</text>
<!-- encuesta_pregunta_respuestas -->
<g id="node1" class="node">
<title>encuesta_pregunta_respuestas</title>
<g id="a_node1"><a xlink:href="../../tables/encuesta_pregunta_respuestas.html" xlink:title="encuesta_pregunta_respuestas" target="_top">
<polygon fill="#ffffff" stroke="transparent" points="640,-115.2 640,-242.2 841,-242.2 841,-115.2 640,-115.2"/>
<polygon fill="#f5f5f5" stroke="transparent" points="640.5,-218.7 640.5,-241.7 841.5,-241.7 841.5,-218.7 640.5,-218.7"/>
<polygon fill="none" stroke="#000000" points="640.5,-218.7 640.5,-241.7 841.5,-241.7 841.5,-218.7 640.5,-218.7"/>
<text text-anchor="start" x="645.5" y="-227.8" font-family="Helvetica,sans-Serif" font-weight="bold" font-size="11.00" fill="#000000">encuesta_pregunta_respuestas</text>
<text text-anchor="start" x="806.5437" y="-226.8" font-family="Helvetica,sans-Serif" font-size="11.00" fill="#000000">[table]</text>
<polygon fill="none" stroke="#000000" points="640.5,-196.7 640.5,-218.7 841.5,-218.7 841.5,-196.7 640.5,-196.7"/>
<image xlink:href="../../images/primaryKeys.png" width="11px" height="12px" preserveAspectRatio="xMinYMin meet" x="645.5" y="-213.7"/>
<text text-anchor="start" x="660.5" y="-203.8" font-family="Helvetica,sans-Serif" font-size="11.00" fill="#000000">pregunta_respuesta_id</text>
<polygon fill="none" stroke="#000000" points="640.5,-174.7 640.5,-196.7 841.5,-196.7 841.5,-174.7 640.5,-174.7"/>
<image xlink:href="../../images/foreignKeys.png" width="11px" height="12px" preserveAspectRatio="xMinYMin meet" x="645.5" y="-191.7"/>
<text text-anchor="start" x="660.5" y="-181.8" font-family="Helvetica,sans-Serif" font-size="11.00" fill="#000000">respuesta_id</text>
<polygon fill="none" stroke="#000000" points="640.5,-152.7 640.5,-174.7 841.5,-174.7 841.5,-152.7 640.5,-152.7"/>
<image xlink:href="../../images/foreignKeys.png" width="11px" height="12px" preserveAspectRatio="xMinYMin meet" x="645.5" y="-169.7"/>
<text text-anchor="start" x="660.5" y="-159.8" font-family="Helvetica,sans-Serif" font-size="11.00" fill="#000000">pregunta_id</text>
<polygon fill="none" stroke="#000000" points="640.5,-133.7 640.5,-152.7 841.5,-152.7 841.5,-133.7 640.5,-133.7"/>
<text text-anchor="start" x="643.5" y="-139.8" font-family="Helvetica,sans-Serif" font-size="11.00" fill="#000000">...</text>
<polygon fill="#ffffff" stroke="transparent" points="640.5,-114.7 640.5,-133.7 726.5,-133.7 726.5,-114.7 640.5,-114.7"/>
<polygon fill="none" stroke="#000000" points="640.5,-114.7 640.5,-133.7 726.5,-133.7 726.5,-114.7 640.5,-114.7"/>
<text text-anchor="start" x="643.5" y="-120.8" font-family="Helvetica,sans-Serif" font-size="11.00" fill="#000000">&lt; 2</text>
<polygon fill="#ffffff" stroke="transparent" points="726.5,-114.7 726.5,-133.7 796.5,-133.7 796.5,-114.7 726.5,-114.7"/>
<polygon fill="none" stroke="#000000" points="726.5,-114.7 726.5,-133.7 796.5,-133.7 796.5,-114.7 726.5,-114.7"/>
<text text-anchor="start" x="761.1105" y="-120.8" font-family="Helvetica,sans-Serif" font-size="11.00" fill="#000000">0 rows</text>
<polygon fill="#ffffff" stroke="transparent" points="796.5,-114.7 796.5,-133.7 841.5,-133.7 841.5,-114.7 796.5,-114.7"/>
<polygon fill="none" stroke="#000000" points="796.5,-114.7 796.5,-133.7 841.5,-133.7 841.5,-114.7 796.5,-114.7"/>
<text text-anchor="start" x="832.3862" y="-120.8" font-family="Helvetica,sans-Serif" font-size="11.00" fill="#000000"> &#160;</text>
</a>
</g>
</g>
<!-- encuesta_respuestas -->
<g id="node2" class="node">
<title>encuesta_respuestas</title>
<g id="a_node2"><a xlink:href="../../tables/encuesta_respuestas.html" xlink:title="encuesta_respuestas" target="_top">
<polygon fill="#ffffff" stroke="transparent" points="352,-65.7 352,-221.7 591,-221.7 591,-65.7 352,-65.7"/>
<polygon fill="#f5f5f5" stroke="transparent" points="354.5,-196.7 354.5,-219.7 589.5,-219.7 589.5,-196.7 354.5,-196.7"/>
<polygon fill="none" stroke="#000000" points="354.5,-196.7 354.5,-219.7 589.5,-219.7 589.5,-196.7 354.5,-196.7"/>
<text text-anchor="start" x="359.5" y="-205.8" font-family="Helvetica,sans-Serif" font-weight="bold" font-size="11.00" fill="#000000">encuesta_respuestas</text>
<text text-anchor="start" x="554.5437" y="-204.8" font-family="Helvetica,sans-Serif" font-size="11.00" fill="#000000">[table]</text>
<polygon fill="none" stroke="#000000" points="354.5,-174.7 354.5,-196.7 497.5,-196.7 497.5,-174.7 354.5,-174.7"/>
<image xlink:href="../../images/primaryKeys.png" width="11px" height="12px" preserveAspectRatio="xMinYMin meet" x="359.5" y="-191.7"/>
<text text-anchor="start" x="374.5" y="-181.8" font-family="Helvetica,sans-Serif" font-size="11.00" fill="#000000">respuesta_id</text>
<polygon fill="none" stroke="#000000" points="497.5,-174.7 497.5,-196.7 589.5,-196.7 589.5,-174.7 497.5,-174.7"/>
<text text-anchor="start" x="500.5" y="-182.4" font-family="Helvetica,sans-Serif" font-size="11.00" fill="#000000">serial[10]</text>
<polygon fill="none" stroke="#000000" points="354.5,-152.7 354.5,-174.7 497.5,-174.7 497.5,-152.7 354.5,-152.7"/>
<image xlink:href="../../images/foreignKeys.png" width="11px" height="12px" preserveAspectRatio="xMinYMin meet" x="359.5" y="-169.7"/>
<text text-anchor="start" x="374.5" y="-159.8" font-family="Helvetica,sans-Serif" font-size="11.00" fill="#000000">oportunidad_id</text>
<polygon fill="none" stroke="#000000" points="497.5,-152.7 497.5,-174.7 589.5,-174.7 589.5,-152.7 497.5,-152.7"/>
<text text-anchor="start" x="500.5" y="-160.4" font-family="Helvetica,sans-Serif" font-size="11.00" fill="#000000">int4[10]</text>
<polygon fill="none" stroke="#000000" points="354.5,-130.7 354.5,-152.7 497.5,-152.7 497.5,-130.7 354.5,-130.7"/>
<image xlink:href="../../images/foreignKeys.png" width="11px" height="12px" preserveAspectRatio="xMinYMin meet" x="359.5" y="-147.7"/>
<text text-anchor="start" x="374.5" y="-137.8" font-family="Helvetica,sans-Serif" font-size="11.00" fill="#000000">contacto_id</text>
<polygon fill="none" stroke="#000000" points="497.5,-130.7 497.5,-152.7 589.5,-152.7 589.5,-130.7 497.5,-130.7"/>
<text text-anchor="start" x="500.5" y="-138.4" font-family="Helvetica,sans-Serif" font-size="11.00" fill="#000000">int4[10]</text>
<polygon fill="none" stroke="#000000" points="354.5,-108.7 354.5,-130.7 497.5,-130.7 497.5,-108.7 354.5,-108.7"/>
<text text-anchor="start" x="374.5" y="-115.8" font-family="Helvetica,sans-Serif" font-size="11.00" fill="#000000">fec_insercion</text>
<polygon fill="none" stroke="#000000" points="497.5,-108.7 497.5,-130.7 589.5,-130.7 589.5,-108.7 497.5,-108.7"/>
<text text-anchor="start" x="500.1023" y="-116.4" font-family="Helvetica,sans-Serif" font-size="11.00" fill="#000000">timestamptz[35,6]</text>
<polygon fill="none" stroke="#000000" points="354.5,-86.7 354.5,-108.7 497.5,-108.7 497.5,-86.7 354.5,-86.7"/>
<text text-anchor="start" x="374.5" y="-93.8" font-family="Helvetica,sans-Serif" font-size="11.00" fill="#000000">fec_modificacion</text>
<polygon fill="none" stroke="#000000" points="497.5,-86.7 497.5,-108.7 589.5,-108.7 589.5,-86.7 497.5,-86.7"/>
<text text-anchor="start" x="500.1023" y="-94.4" font-family="Helvetica,sans-Serif" font-size="11.00" fill="#000000">timestamptz[35,6]</text>
<polygon fill="#ffffff" stroke="transparent" points="354.5,-67.7 354.5,-86.7 417.5,-86.7 417.5,-67.7 354.5,-67.7"/>
<polygon fill="none" stroke="#000000" points="354.5,-67.7 354.5,-86.7 417.5,-86.7 417.5,-67.7 354.5,-67.7"/>
<text text-anchor="start" x="357.5" y="-73.8" font-family="Helvetica,sans-Serif" font-size="11.00" fill="#000000">&lt; 2</text>
<polygon fill="#ffffff" stroke="transparent" points="417.5,-67.7 417.5,-86.7 497.5,-86.7 497.5,-67.7 417.5,-67.7"/>
<polygon fill="none" stroke="#000000" points="417.5,-67.7 417.5,-86.7 497.5,-86.7 497.5,-67.7 417.5,-67.7"/>
<text text-anchor="start" x="462.1105" y="-73.8" font-family="Helvetica,sans-Serif" font-size="11.00" fill="#000000">0 rows</text>
<polygon fill="#ffffff" stroke="transparent" points="497.5,-67.7 497.5,-86.7 589.5,-86.7 589.5,-67.7 497.5,-67.7"/>
<polygon fill="none" stroke="#000000" points="497.5,-67.7 497.5,-86.7 589.5,-86.7 589.5,-67.7 497.5,-67.7"/>
<text text-anchor="start" x="570.9053" y="-73.8" font-family="Helvetica,sans-Serif" font-size="11.00" fill="#000000">1 &gt;</text>
<polygon fill="none" stroke="#000000" stroke-width="2" points="353,-66.7 353,-220.7 590,-220.7 590,-66.7 353,-66.7"/>
</a>
</g>
</g>
<!-- encuesta_pregunta_respuestas&#45;&gt;encuesta_respuestas -->
<g id="edge1" class="edge">
<title>encuesta_pregunta_respuestas:w&#45;&gt;encuesta_respuestas:e</title>
<path fill="none" stroke="#000000" d="M625.776,-185.7C613.7815,-185.7 606.3229,-185.7 589.5,-185.7"/>
<polygon fill="#000000" stroke="#000000" points="632.5,-185.7001 640.5,-189.3 636.5,-185.7 640.5,-185.7 640.5,-185.7 640.5,-185.7 636.5,-185.7 640.5,-182.1 632.5,-185.7001 632.5,-185.7001"/>
<ellipse fill="none" stroke="#000000" cx="629.3" cy="-185.7001" rx="3.2" ry="3.2"/>
</g>
<!-- contactos -->
<g id="node3" class="node">
<title>contactos</title>
<g id="a_node3"><a xlink:href="../../tables/contactos.html" xlink:title="contactos" target="_top">
<polygon fill="#ffffff" stroke="transparent" points="8,-38.2 8,-165.2 131,-165.2 131,-38.2 8,-38.2"/>
<polygon fill="#f5f5f5" stroke="transparent" points="8.5,-141.7 8.5,-164.7 131.5,-164.7 131.5,-141.7 8.5,-141.7"/>
<polygon fill="none" stroke="#000000" points="8.5,-141.7 8.5,-164.7 131.5,-164.7 131.5,-141.7 8.5,-141.7"/>
<text text-anchor="start" x="13.5" y="-150.8" font-family="Helvetica,sans-Serif" font-weight="bold" font-size="11.00" fill="#000000">contactos</text>
<text text-anchor="start" x="96.5437" y="-149.8" font-family="Helvetica,sans-Serif" font-size="11.00" fill="#000000">[table]</text>
<polygon fill="none" stroke="#000000" points="8.5,-119.7 8.5,-141.7 131.5,-141.7 131.5,-119.7 8.5,-119.7"/>
<image xlink:href="../../images/primaryKeys.png" width="11px" height="12px" preserveAspectRatio="xMinYMin meet" x="13.5" y="-136.7"/>
<text text-anchor="start" x="28.5" y="-126.8" font-family="Helvetica,sans-Serif" font-size="11.00" fill="#000000">contacto_id</text>
<polygon fill="none" stroke="#000000" points="8.5,-97.7 8.5,-119.7 131.5,-119.7 131.5,-97.7 8.5,-97.7"/>
<image xlink:href="../../images/foreignKeys.png" width="11px" height="12px" preserveAspectRatio="xMinYMin meet" x="13.5" y="-114.7"/>
<text text-anchor="start" x="28.5" y="-104.8" font-family="Helvetica,sans-Serif" font-size="11.00" fill="#000000">persona_id</text>
<polygon fill="none" stroke="#000000" points="8.5,-75.7 8.5,-97.7 131.5,-97.7 131.5,-75.7 8.5,-75.7"/>
<image xlink:href="../../images/foreignKeys.png" width="11px" height="12px" preserveAspectRatio="xMinYMin meet" x="13.5" y="-92.7"/>
<text text-anchor="start" x="28.5" y="-82.8" font-family="Helvetica,sans-Serif" font-size="11.00" fill="#000000">organizacion_id</text>
<polygon fill="none" stroke="#000000" points="8.5,-56.7 8.5,-75.7 131.5,-75.7 131.5,-56.7 8.5,-56.7"/>
<text text-anchor="start" x="11.5" y="-62.8" font-family="Helvetica,sans-Serif" font-size="11.00" fill="#000000">...</text>
<polygon fill="#ffffff" stroke="transparent" points="8.5,-37.7 8.5,-56.7 50.5,-56.7 50.5,-37.7 8.5,-37.7"/>
<polygon fill="none" stroke="#000000" points="8.5,-37.7 8.5,-56.7 50.5,-56.7 50.5,-37.7 8.5,-37.7"/>
<text text-anchor="start" x="11.5" y="-43.8" font-family="Helvetica,sans-Serif" font-size="11.00" fill="#000000">&lt; 2</text>
<polygon fill="#ffffff" stroke="transparent" points="50.5,-37.7 50.5,-56.7 99.5,-56.7 99.5,-37.7 50.5,-37.7"/>
<polygon fill="none" stroke="#000000" points="50.5,-37.7 50.5,-56.7 99.5,-56.7 99.5,-37.7 50.5,-37.7"/>
<text text-anchor="start" x="64.1105" y="-43.8" font-family="Helvetica,sans-Serif" font-size="11.00" fill="#000000">0 rows</text>
<polygon fill="#ffffff" stroke="transparent" points="99.5,-37.7 99.5,-56.7 131.5,-56.7 131.5,-37.7 99.5,-37.7"/>
<polygon fill="none" stroke="#000000" points="99.5,-37.7 99.5,-56.7 131.5,-56.7 131.5,-37.7 99.5,-37.7"/>
<text text-anchor="start" x="112.9053" y="-43.8" font-family="Helvetica,sans-Serif" font-size="11.00" fill="#000000">5 &gt;</text>
</a>
</g>
</g>
<!-- encuesta_respuestas&#45;&gt;contactos -->
<g id="edge2" class="edge">
<title>encuesta_respuestas:w&#45;&gt;contactos:e</title>
<path fill="none" stroke="#000000" d="M340.5518,-137.1534C327.9137,-126.0214 333.3541,-97.5206 311,-86.7 255.3942,-59.7837 228.5737,-61.8825 172,-86.7 147.6604,-97.3772 158.0786,-130.7 131.5,-130.7"/>
<polygon fill="#000000" stroke="#000000" points="346.8939,-139.2207 353.3843,-145.1228 350.6969,-140.4603 354.5,-141.7 354.5,-141.7 354.5,-141.7 350.6969,-140.4603 355.6157,-138.2772 346.8939,-139.2207 346.8939,-139.2207"/>
<ellipse fill="none" stroke="#000000" cx="343.8514" cy="-138.2289" rx="3.2" ry="3.2"/>
</g>
<!-- oportunidades -->
<g id="node4" class="node">
<title>oportunidades</title>
<g id="a_node4"><a xlink:href="../../tables/oportunidades.html" xlink:title="oportunidades" target="_top">
<polygon fill="#ffffff" stroke="transparent" points="180,-97.2 180,-268.2 303,-268.2 303,-97.2 180,-97.2"/>
<polygon fill="#f5f5f5" stroke="transparent" points="180.5,-244.7 180.5,-267.7 303.5,-267.7 303.5,-244.7 180.5,-244.7"/>
<polygon fill="none" stroke="#000000" points="180.5,-244.7 180.5,-267.7 303.5,-267.7 303.5,-244.7 180.5,-244.7"/>
<text text-anchor="start" x="185.5" y="-253.8" font-family="Helvetica,sans-Serif" font-weight="bold" font-size="11.00" fill="#000000">oportunidades</text>
<text text-anchor="start" x="268.5437" y="-252.8" font-family="Helvetica,sans-Serif" font-size="11.00" fill="#000000">[table]</text>
<polygon fill="none" stroke="#000000" points="180.5,-222.7 180.5,-244.7 303.5,-244.7 303.5,-222.7 180.5,-222.7"/>
<image xlink:href="../../images/primaryKeys.png" width="11px" height="12px" preserveAspectRatio="xMinYMin meet" x="185.5" y="-239.7"/>
<text text-anchor="start" x="200.5" y="-229.8" font-family="Helvetica,sans-Serif" font-size="11.00" fill="#000000">oportunidad_id</text>
<polygon fill="none" stroke="#000000" points="180.5,-200.7 180.5,-222.7 303.5,-222.7 303.5,-200.7 180.5,-200.7"/>
<image xlink:href="../../images/foreignKeys.png" width="11px" height="12px" preserveAspectRatio="xMinYMin meet" x="185.5" y="-217.7"/>
<text text-anchor="start" x="200.5" y="-207.8" font-family="Helvetica,sans-Serif" font-size="11.00" fill="#000000">campana_id</text>
<polygon fill="none" stroke="#000000" points="180.5,-178.7 180.5,-200.7 303.5,-200.7 303.5,-178.7 180.5,-178.7"/>
<image xlink:href="../../images/foreignKeys.png" width="11px" height="12px" preserveAspectRatio="xMinYMin meet" x="185.5" y="-195.7"/>
<text text-anchor="start" x="200.5" y="-185.8" font-family="Helvetica,sans-Serif" font-size="11.00" fill="#000000">contacto_id</text>
<polygon fill="none" stroke="#000000" points="180.5,-156.7 180.5,-178.7 303.5,-178.7 303.5,-156.7 180.5,-156.7"/>
<image xlink:href="../../images/foreignKeys.png" width="11px" height="12px" preserveAspectRatio="xMinYMin meet" x="185.5" y="-173.7"/>
<text text-anchor="start" x="200.5" y="-163.8" font-family="Helvetica,sans-Serif" font-size="11.00" fill="#000000">curso_id</text>
<polygon fill="none" stroke="#000000" points="180.5,-134.7 180.5,-156.7 303.5,-156.7 303.5,-134.7 180.5,-134.7"/>
<image xlink:href="../../images/foreignKeys.png" width="11px" height="12px" preserveAspectRatio="xMinYMin meet" x="185.5" y="-151.7"/>
<text text-anchor="start" x="200.5" y="-141.8" font-family="Helvetica,sans-Serif" font-size="11.00" fill="#000000">usu_asignado_id</text>
<polygon fill="none" stroke="#000000" points="180.5,-115.7 180.5,-134.7 303.5,-134.7 303.5,-115.7 180.5,-115.7"/>
<text text-anchor="start" x="183.5" y="-121.8" font-family="Helvetica,sans-Serif" font-size="11.00" fill="#000000">...</text>
<polygon fill="#ffffff" stroke="transparent" points="180.5,-96.7 180.5,-115.7 222.5,-115.7 222.5,-96.7 180.5,-96.7"/>
<polygon fill="none" stroke="#000000" points="180.5,-96.7 180.5,-115.7 222.5,-115.7 222.5,-96.7 180.5,-96.7"/>
<text text-anchor="start" x="183.5" y="-102.8" font-family="Helvetica,sans-Serif" font-size="11.00" fill="#000000">&lt; 4</text>
<polygon fill="#ffffff" stroke="transparent" points="222.5,-96.7 222.5,-115.7 271.5,-115.7 271.5,-96.7 222.5,-96.7"/>
<polygon fill="none" stroke="#000000" points="222.5,-96.7 222.5,-115.7 271.5,-115.7 271.5,-96.7 222.5,-96.7"/>
<text text-anchor="start" x="236.1105" y="-102.8" font-family="Helvetica,sans-Serif" font-size="11.00" fill="#000000">0 rows</text>
<polygon fill="#ffffff" stroke="transparent" points="271.5,-96.7 271.5,-115.7 303.5,-115.7 303.5,-96.7 271.5,-96.7"/>
<polygon fill="none" stroke="#000000" points="271.5,-96.7 271.5,-115.7 303.5,-115.7 303.5,-96.7 271.5,-96.7"/>
<text text-anchor="start" x="284.9053" y="-102.8" font-family="Helvetica,sans-Serif" font-size="11.00" fill="#000000">1 &gt;</text>
</a>
</g>
</g>
<!-- encuesta_respuestas&#45;&gt;oportunidades -->
<g id="edge3" class="edge">
<title>encuesta_respuestas:w&#45;&gt;oportunidades:e</title>
<path fill="none" stroke="#000000" d="M340.6872,-168.2929C322.5536,-183.866 335.9781,-233.7 303.5,-233.7"/>
<polygon fill="#000000" stroke="#000000" points="346.9087,-166.2242 355.6359,-167.1161 350.7043,-164.9621 354.5,-163.7 354.5,-163.7 354.5,-163.7 350.7043,-164.9621 353.3641,-160.2839 346.9087,-166.2242 346.9087,-166.2242"/>
<ellipse fill="none" stroke="#000000" cx="343.8721" cy="-167.2339" rx="3.2" ry="3.2"/>
</g>
<!-- oportunidades&#45;&gt;contactos -->
<g id="edge4" class="edge">
<title>oportunidades:w&#45;&gt;contactos:e</title>
<path fill="none" stroke="#000000" d="M166.6662,-184.6697C151.5842,-170.4018 159.4614,-130.7 131.5,-130.7"/>
<polygon fill="#000000" stroke="#000000" points="172.9816,-186.9661 179.2697,-193.0833 176.7408,-188.3331 180.5,-189.7 180.5,-189.7 180.5,-189.7 176.7408,-188.3331 181.7303,-186.3167 172.9816,-186.9661 172.9816,-186.9661"/>
<ellipse fill="none" stroke="#000000" cx="169.9743" cy="-185.8725" rx="3.2" ry="3.2"/>
</g>
</g>
</svg>
