<?xml version="1.0" encoding="UTF-8" standalone="no"?>
<!DOCTYPE svg PUBLIC "-//W3C//DTD SVG 1.1//EN"
 "http://www.w3.org/Graphics/SVG/1.1/DTD/svg11.dtd">
<!-- Generated by graphviz version 2.40.1 (20161225.0304)
 -->
<!-- Title: oneDegreeRelationshipsDiagram Pages: 1 -->
<svg width="839pt" height="715pt"
 viewBox="0.00 0.00 839.00 715.20" xmlns="http://www.w3.org/2000/svg" xmlns:xlink="http://www.w3.org/1999/xlink">
<g id="graph0" class="graph" transform="scale(1 1) rotate(0) translate(4 711.2)">
<title>oneDegreeRelationshipsDiagram</title>
<polygon fill="#ffffff" stroke="transparent" points="-4,4 -4,-711.2 835,-711.2 835,4 -4,4"/>
<text text-anchor="middle" x="72.4936" y="-7.3" font-family="Helvetica,sans-Serif" font-size="11.00" fill="#000000">Generated by SchemaSpy</text>
<!-- casos -->
<g id="node1" class="node">
<title>casos</title>
<g id="a_node1"><a xlink:href="../../tables/casos.html" xlink:title="casos" target="_top">
<polygon fill="#ffffff" stroke="transparent" points="700,-554.2 700,-703.2 823,-703.2 823,-554.2 700,-554.2"/>
<polygon fill="#f5f5f5" stroke="transparent" points="700.5,-679.7 700.5,-702.7 823.5,-702.7 823.5,-679.7 700.5,-679.7"/>
<polygon fill="none" stroke="#000000" points="700.5,-679.7 700.5,-702.7 823.5,-702.7 823.5,-679.7 700.5,-679.7"/>
<text text-anchor="start" x="705.5" y="-688.8" font-family="Helvetica,sans-Serif" font-weight="bold" font-size="11.00" fill="#000000">casos</text>
<text text-anchor="start" x="788.5437" y="-687.8" font-family="Helvetica,sans-Serif" font-size="11.00" fill="#000000">[table]</text>
<polygon fill="none" stroke="#000000" points="700.5,-657.7 700.5,-679.7 823.5,-679.7 823.5,-657.7 700.5,-657.7"/>
<image xlink:href="../../images/primaryKeys.png" width="11px" height="12px" preserveAspectRatio="xMinYMin meet" x="705.5" y="-674.7"/>
<text text-anchor="start" x="720.5" y="-664.8" font-family="Helvetica,sans-Serif" font-size="11.00" fill="#000000">caso_id</text>
<polygon fill="none" stroke="#000000" points="700.5,-635.7 700.5,-657.7 823.5,-657.7 823.5,-635.7 700.5,-635.7"/>
<image xlink:href="../../images/foreignKeys.png" width="11px" height="12px" preserveAspectRatio="xMinYMin meet" x="705.5" y="-652.7"/>
<text text-anchor="start" x="720.5" y="-642.8" font-family="Helvetica,sans-Serif" font-size="11.00" fill="#000000">lead_id</text>
<polygon fill="none" stroke="#000000" points="700.5,-613.7 700.5,-635.7 823.5,-635.7 823.5,-613.7 700.5,-613.7"/>
<image xlink:href="../../images/foreignKeys.png" width="11px" height="12px" preserveAspectRatio="xMinYMin meet" x="705.5" y="-630.7"/>
<text text-anchor="start" x="720.5" y="-620.8" font-family="Helvetica,sans-Serif" font-size="11.00" fill="#000000">usu_asignado_id</text>
<polygon fill="none" stroke="#000000" points="700.5,-591.7 700.5,-613.7 823.5,-613.7 823.5,-591.7 700.5,-591.7"/>
<image xlink:href="../../images/foreignKeys.png" width="11px" height="12px" preserveAspectRatio="xMinYMin meet" x="705.5" y="-608.7"/>
<text text-anchor="start" x="720.5" y="-598.8" font-family="Helvetica,sans-Serif" font-size="11.00" fill="#000000">contacto_id</text>
<polygon fill="none" stroke="#000000" points="700.5,-572.7 700.5,-591.7 823.5,-591.7 823.5,-572.7 700.5,-572.7"/>
<text text-anchor="start" x="703.5" y="-578.8" font-family="Helvetica,sans-Serif" font-size="11.00" fill="#000000">...</text>
<polygon fill="#ffffff" stroke="transparent" points="700.5,-553.7 700.5,-572.7 747.5,-572.7 747.5,-553.7 700.5,-553.7"/>
<polygon fill="none" stroke="#000000" points="700.5,-553.7 700.5,-572.7 747.5,-572.7 747.5,-553.7 700.5,-553.7"/>
<text text-anchor="start" x="703.5" y="-559.8" font-family="Helvetica,sans-Serif" font-size="11.00" fill="#000000">&lt; 3</text>
<polygon fill="#ffffff" stroke="transparent" points="747.5,-553.7 747.5,-572.7 798.5,-572.7 798.5,-553.7 747.5,-553.7"/>
<polygon fill="none" stroke="#000000" points="747.5,-553.7 747.5,-572.7 798.5,-572.7 798.5,-553.7 747.5,-553.7"/>
<text text-anchor="start" x="763.1105" y="-559.8" font-family="Helvetica,sans-Serif" font-size="11.00" fill="#000000">0 rows</text>
<polygon fill="#ffffff" stroke="transparent" points="798.5,-553.7 798.5,-572.7 823.5,-572.7 823.5,-553.7 798.5,-553.7"/>
<polygon fill="none" stroke="#000000" points="798.5,-553.7 798.5,-572.7 823.5,-572.7 823.5,-553.7 798.5,-553.7"/>
<text text-anchor="start" x="814.3862" y="-559.8" font-family="Helvetica,sans-Serif" font-size="11.00" fill="#000000"> &#160;</text>
</a>
</g>
</g>
<!-- leads -->
<g id="node2" class="node">
<title>leads</title>
<g id="a_node2"><a xlink:href="../../tables/leads.html" xlink:title="leads" target="_top">
<polygon fill="#ffffff" stroke="transparent" points="352,-112.7 352,-422.7 651,-422.7 651,-112.7 352,-112.7"/>
<polygon fill="#f5f5f5" stroke="transparent" points="354.5,-397.7 354.5,-420.7 649.5,-420.7 649.5,-397.7 354.5,-397.7"/>
<polygon fill="none" stroke="#000000" points="354.5,-397.7 354.5,-420.7 649.5,-420.7 649.5,-397.7 354.5,-397.7"/>
<text text-anchor="start" x="359.5" y="-406.8" font-family="Helvetica,sans-Serif" font-weight="bold" font-size="11.00" fill="#000000">leads</text>
<text text-anchor="start" x="614.5437" y="-405.8" font-family="Helvetica,sans-Serif" font-size="11.00" fill="#000000">[table]</text>
<polygon fill="none" stroke="#000000" points="354.5,-375.7 354.5,-397.7 477.5,-397.7 477.5,-375.7 354.5,-375.7"/>
<image xlink:href="../../images/primaryKeys.png" width="11px" height="12px" preserveAspectRatio="xMinYMin meet" x="359.5" y="-392.7"/>
<text text-anchor="start" x="374.5" y="-382.8" font-family="Helvetica,sans-Serif" font-size="11.00" fill="#000000">lead_id</text>
<polygon fill="none" stroke="#000000" points="477.5,-375.7 477.5,-397.7 649.5,-397.7 649.5,-375.7 477.5,-375.7"/>
<text text-anchor="start" x="480.5" y="-383.4" font-family="Helvetica,sans-Serif" font-size="11.00" fill="#000000">serial[10]</text>
<polygon fill="none" stroke="#000000" points="354.5,-353.7 354.5,-375.7 477.5,-375.7 477.5,-353.7 354.5,-353.7"/>
<text text-anchor="start" x="374.5" y="-360.8" font-family="Helvetica,sans-Serif" font-size="11.00" fill="#000000">estado</text>
<polygon fill="none" stroke="#000000" points="477.5,-353.7 477.5,-375.7 649.5,-375.7 649.5,-353.7 477.5,-353.7"/>
<text text-anchor="start" x="480.3494" y="-361.4" font-family="Helvetica,sans-Serif" font-size="11.00" fill="#000000">enum_leads_estado[2147483647]</text>
<polygon fill="none" stroke="#000000" points="354.5,-331.7 354.5,-353.7 477.5,-353.7 477.5,-331.7 354.5,-331.7"/>
<image xlink:href="../../images/foreignKeys.png" width="11px" height="12px" preserveAspectRatio="xMinYMin meet" x="359.5" y="-348.7"/>
<text text-anchor="start" x="374.5" y="-338.8" font-family="Helvetica,sans-Serif" font-size="11.00" fill="#000000">usu_asignado_id</text>
<polygon fill="none" stroke="#000000" points="477.5,-331.7 477.5,-353.7 649.5,-353.7 649.5,-331.7 477.5,-331.7"/>
<text text-anchor="start" x="480.5" y="-339.4" font-family="Helvetica,sans-Serif" font-size="11.00" fill="#000000">int4[10]</text>
<polygon fill="none" stroke="#000000" points="354.5,-309.7 354.5,-331.7 477.5,-331.7 477.5,-309.7 354.5,-309.7"/>
<image xlink:href="../../images/foreignKeys.png" width="11px" height="12px" preserveAspectRatio="xMinYMin meet" x="359.5" y="-326.7"/>
<text text-anchor="start" x="374.5" y="-316.8" font-family="Helvetica,sans-Serif" font-size="11.00" fill="#000000">campana_id</text>
<polygon fill="none" stroke="#000000" points="477.5,-309.7 477.5,-331.7 649.5,-331.7 649.5,-309.7 477.5,-309.7"/>
<text text-anchor="start" x="480.5" y="-317.4" font-family="Helvetica,sans-Serif" font-size="11.00" fill="#000000">int4[10]</text>
<polygon fill="none" stroke="#000000" points="354.5,-287.7 354.5,-309.7 477.5,-309.7 477.5,-287.7 354.5,-287.7"/>
<text text-anchor="start" x="374.5" y="-294.8" font-family="Helvetica,sans-Serif" font-size="11.00" fill="#000000">origen</text>
<polygon fill="none" stroke="#000000" points="477.5,-287.7 477.5,-309.7 649.5,-309.7 649.5,-287.7 477.5,-287.7"/>
<text text-anchor="start" x="480.5" y="-295.4" font-family="Helvetica,sans-Serif" font-size="11.00" fill="#000000">enum_leads_origen[2147483647]</text>
<polygon fill="none" stroke="#000000" points="354.5,-265.7 354.5,-287.7 477.5,-287.7 477.5,-265.7 354.5,-265.7"/>
<image xlink:href="../../images/foreignKeys.png" width="11px" height="12px" preserveAspectRatio="xMinYMin meet" x="359.5" y="-282.7"/>
<text text-anchor="start" x="374.5" y="-272.8" font-family="Helvetica,sans-Serif" font-size="11.00" fill="#000000">persona_id</text>
<polygon fill="none" stroke="#000000" points="477.5,-265.7 477.5,-287.7 649.5,-287.7 649.5,-265.7 477.5,-265.7"/>
<text text-anchor="start" x="480.5" y="-273.4" font-family="Helvetica,sans-Serif" font-size="11.00" fill="#000000">int4[10]</text>
<polygon fill="none" stroke="#000000" points="354.5,-243.7 354.5,-265.7 477.5,-265.7 477.5,-243.7 354.5,-243.7"/>
<text text-anchor="start" x="374.5" y="-250.8" font-family="Helvetica,sans-Serif" font-size="11.00" fill="#000000">usu_insercion</text>
<polygon fill="none" stroke="#000000" points="477.5,-243.7 477.5,-265.7 649.5,-265.7 649.5,-243.7 477.5,-243.7"/>
<text text-anchor="start" x="480.5" y="-251.4" font-family="Helvetica,sans-Serif" font-size="11.00" fill="#000000">varchar[20]</text>
<polygon fill="none" stroke="#000000" points="354.5,-221.7 354.5,-243.7 477.5,-243.7 477.5,-221.7 354.5,-221.7"/>
<text text-anchor="start" x="374.5" y="-228.8" font-family="Helvetica,sans-Serif" font-size="11.00" fill="#000000">fec_insercion</text>
<polygon fill="none" stroke="#000000" points="477.5,-221.7 477.5,-243.7 649.5,-243.7 649.5,-221.7 477.5,-221.7"/>
<text text-anchor="start" x="480.5" y="-229.4" font-family="Helvetica,sans-Serif" font-size="11.00" fill="#000000">timestamptz[35,6]</text>
<polygon fill="none" stroke="#000000" points="354.5,-199.7 354.5,-221.7 477.5,-221.7 477.5,-199.7 354.5,-199.7"/>
<text text-anchor="start" x="374.5" y="-206.8" font-family="Helvetica,sans-Serif" font-size="11.00" fill="#000000">fec_modificacion</text>
<polygon fill="none" stroke="#000000" points="477.5,-199.7 477.5,-221.7 649.5,-221.7 649.5,-199.7 477.5,-199.7"/>
<text text-anchor="start" x="480.5" y="-207.4" font-family="Helvetica,sans-Serif" font-size="11.00" fill="#000000">timestamptz[35,6]</text>
<polygon fill="none" stroke="#000000" points="354.5,-177.7 354.5,-199.7 477.5,-199.7 477.5,-177.7 354.5,-177.7"/>
<text text-anchor="start" x="374.5" y="-184.8" font-family="Helvetica,sans-Serif" font-size="11.00" fill="#000000">usu_modificacion</text>
<polygon fill="none" stroke="#000000" points="477.5,-177.7 477.5,-199.7 649.5,-199.7 649.5,-177.7 477.5,-177.7"/>
<text text-anchor="start" x="480.5" y="-185.4" font-family="Helvetica,sans-Serif" font-size="11.00" fill="#000000">varchar[20]</text>
<polygon fill="none" stroke="#000000" points="354.5,-155.7 354.5,-177.7 477.5,-177.7 477.5,-155.7 354.5,-155.7"/>
<image xlink:href="../../images/foreignKeys.png" width="11px" height="12px" preserveAspectRatio="xMinYMin meet" x="359.5" y="-172.7"/>
<text text-anchor="start" x="374.5" y="-162.8" font-family="Helvetica,sans-Serif" font-size="11.00" fill="#000000">curso_id</text>
<polygon fill="none" stroke="#000000" points="477.5,-155.7 477.5,-177.7 649.5,-177.7 649.5,-155.7 477.5,-155.7"/>
<text text-anchor="start" x="480.5" y="-163.4" font-family="Helvetica,sans-Serif" font-size="11.00" fill="#000000">int4[10]</text>
<polygon fill="none" stroke="#000000" points="354.5,-133.7 354.5,-155.7 477.5,-155.7 477.5,-133.7 354.5,-133.7"/>
<image xlink:href="../../images/foreignKeys.png" width="11px" height="12px" preserveAspectRatio="xMinYMin meet" x="359.5" y="-150.7"/>
<text text-anchor="start" x="374.5" y="-140.8" font-family="Helvetica,sans-Serif" font-size="11.00" fill="#000000">ciclo_id</text>
<polygon fill="none" stroke="#000000" points="477.5,-133.7 477.5,-155.7 649.5,-155.7 649.5,-133.7 477.5,-133.7"/>
<text text-anchor="start" x="480.5" y="-141.4" font-family="Helvetica,sans-Serif" font-size="11.00" fill="#000000">int4[10]</text>
<polygon fill="#ffffff" stroke="transparent" points="354.5,-114.7 354.5,-133.7 407.5,-133.7 407.5,-114.7 354.5,-114.7"/>
<polygon fill="none" stroke="#000000" points="354.5,-114.7 354.5,-133.7 407.5,-133.7 407.5,-114.7 354.5,-114.7"/>
<text text-anchor="start" x="357.5" y="-120.8" font-family="Helvetica,sans-Serif" font-size="11.00" fill="#000000">&lt; 5</text>
<polygon fill="#ffffff" stroke="transparent" points="407.5,-114.7 407.5,-133.7 477.5,-133.7 477.5,-114.7 407.5,-114.7"/>
<polygon fill="none" stroke="#000000" points="407.5,-114.7 407.5,-133.7 477.5,-133.7 477.5,-114.7 407.5,-114.7"/>
<text text-anchor="start" x="442.1105" y="-120.8" font-family="Helvetica,sans-Serif" font-size="11.00" fill="#000000">4 rows</text>
<polygon fill="#ffffff" stroke="transparent" points="477.5,-114.7 477.5,-133.7 649.5,-133.7 649.5,-114.7 477.5,-114.7"/>
<polygon fill="none" stroke="#000000" points="477.5,-114.7 477.5,-133.7 649.5,-133.7 649.5,-114.7 477.5,-114.7"/>
<text text-anchor="start" x="630.9053" y="-120.8" font-family="Helvetica,sans-Serif" font-size="11.00" fill="#000000">3 &gt;</text>
<polygon fill="none" stroke="#000000" stroke-width="2" points="353,-113.7 353,-421.7 650,-421.7 650,-113.7 353,-113.7"/>
</a>
</g>
</g>
<!-- casos&#45;&gt;leads -->
<g id="edge1" class="edge">
<title>casos:w&#45;&gt;leads:e</title>
<path fill="none" stroke="#000000" d="M686.1372,-645.1071C599.0435,-623.3805 761.8528,-386.7 649.5,-386.7"/>
<polygon fill="#000000" stroke="#000000" points="692.5488,-645.8181 700.1031,-650.2781 696.5244,-646.2591 700.5,-646.7 700.5,-646.7 700.5,-646.7 696.5244,-646.2591 700.8969,-643.1219 692.5488,-645.8181 692.5488,-645.8181"/>
<ellipse fill="none" stroke="#000000" cx="689.3683" cy="-645.4654" rx="3.2" ry="3.2"/>
</g>
<!-- usuarios -->
<g id="node3" class="node">
<title>usuarios</title>
<g id="a_node3"><a xlink:href="../../tables/usuarios.html" xlink:title="usuarios" target="_top">
<polygon fill="#ffffff" stroke="transparent" points="180,-403.2 180,-508.2 303,-508.2 303,-403.2 180,-403.2"/>
<polygon fill="#f5f5f5" stroke="transparent" points="180.5,-484.7 180.5,-507.7 303.5,-507.7 303.5,-484.7 180.5,-484.7"/>
<polygon fill="none" stroke="#000000" points="180.5,-484.7 180.5,-507.7 303.5,-507.7 303.5,-484.7 180.5,-484.7"/>
<text text-anchor="start" x="185.5" y="-493.8" font-family="Helvetica,sans-Serif" font-weight="bold" font-size="11.00" fill="#000000">usuarios</text>
<text text-anchor="start" x="268.5437" y="-492.8" font-family="Helvetica,sans-Serif" font-size="11.00" fill="#000000">[table]</text>
<polygon fill="none" stroke="#000000" points="180.5,-462.7 180.5,-484.7 303.5,-484.7 303.5,-462.7 180.5,-462.7"/>
<image xlink:href="../../images/primaryKeys.png" width="11px" height="12px" preserveAspectRatio="xMinYMin meet" x="185.5" y="-479.7"/>
<text text-anchor="start" x="200.5" y="-469.8" font-family="Helvetica,sans-Serif" font-size="11.00" fill="#000000">usuario_id</text>
<polygon fill="#ffffff" stroke="transparent" points="180.5,-440.7 180.5,-462.7 303.5,-462.7 303.5,-440.7 180.5,-440.7"/>
<polygon fill="none" stroke="#000000" points="180.5,-440.7 180.5,-462.7 303.5,-462.7 303.5,-440.7 180.5,-440.7"/>
<text text-anchor="start" x="200.5" y="-447.8" font-family="Helvetica,sans-Serif" font-size="11.00" fill="#000000">nom_usuario</text>
<polygon fill="none" stroke="#000000" points="180.5,-421.7 180.5,-440.7 303.5,-440.7 303.5,-421.7 180.5,-421.7"/>
<text text-anchor="start" x="183.5" y="-427.8" font-family="Helvetica,sans-Serif" font-size="11.00" fill="#000000">...</text>
<polygon fill="#ffffff" stroke="transparent" points="180.5,-402.7 180.5,-421.7 221.5,-421.7 221.5,-402.7 180.5,-402.7"/>
<polygon fill="none" stroke="#000000" points="180.5,-402.7 180.5,-421.7 221.5,-421.7 221.5,-402.7 180.5,-402.7"/>
<text text-anchor="start" x="183.5" y="-408.8" font-family="Helvetica,sans-Serif" font-size="11.00" fill="#000000"> &#160;</text>
<polygon fill="#ffffff" stroke="transparent" points="221.5,-402.7 221.5,-421.7 267.5,-421.7 267.5,-402.7 221.5,-402.7"/>
<polygon fill="none" stroke="#000000" points="221.5,-402.7 221.5,-421.7 267.5,-421.7 267.5,-402.7 221.5,-402.7"/>
<text text-anchor="start" x="237.6105" y="-408.8" font-family="Helvetica,sans-Serif" font-size="11.00" fill="#000000">1 row</text>
<polygon fill="#ffffff" stroke="transparent" points="267.5,-402.7 267.5,-421.7 303.5,-421.7 303.5,-402.7 267.5,-402.7"/>
<polygon fill="none" stroke="#000000" points="267.5,-402.7 267.5,-421.7 303.5,-421.7 303.5,-402.7 267.5,-402.7"/>
<text text-anchor="start" x="284.9053" y="-408.8" font-family="Helvetica,sans-Serif" font-size="11.00" fill="#000000">6 &gt;</text>
</a>
</g>
</g>
<!-- casos&#45;&gt;usuarios -->
<g id="edge2" class="edge">
<title>casos:w&#45;&gt;usuarios:e</title>
<path fill="none" stroke="#000000" d="M685.8859,-623.6551C586.0489,-610.3139 393.2794,-473.7 303.5,-473.7"/>
<polygon fill="#000000" stroke="#000000" points="692.5204,-624.1294 700.2432,-628.2908 696.5102,-624.4147 700.5,-624.7 700.5,-624.7 700.5,-624.7 696.5102,-624.4147 700.7568,-621.1092 692.5204,-624.1294 692.5204,-624.1294"/>
<ellipse fill="none" stroke="#000000" cx="689.3285" cy="-623.9012" rx="3.2" ry="3.2"/>
</g>
<!-- leads&#45;&gt;usuarios -->
<g id="edge8" class="edge">
<title>leads:w&#45;&gt;usuarios:e</title>
<path fill="none" stroke="#000000" d="M340.3004,-345.9382C304.6891,-366.1111 360.1214,-473.7 303.5,-473.7"/>
<polygon fill="#000000" stroke="#000000" points="346.7002,-344.4788 355.3005,-346.2099 350.6001,-343.5894 354.5,-342.7 354.5,-342.7 354.5,-342.7 350.6001,-343.5894 353.6995,-339.1901 346.7002,-344.4788 346.7002,-344.4788"/>
<ellipse fill="none" stroke="#000000" cx="343.5803" cy="-345.1903" rx="3.2" ry="3.2"/>
</g>
<!-- curso_ciclos -->
<g id="node4" class="node">
<title>curso_ciclos</title>
<g id="a_node4"><a xlink:href="../../tables/curso_ciclos.html" xlink:title="curso_ciclos" target="_top">
<polygon fill="#ffffff" stroke="transparent" points="180,-38.2 180,-143.2 303,-143.2 303,-38.2 180,-38.2"/>
<polygon fill="#f5f5f5" stroke="transparent" points="180.5,-119.7 180.5,-142.7 303.5,-142.7 303.5,-119.7 180.5,-119.7"/>
<polygon fill="none" stroke="#000000" points="180.5,-119.7 180.5,-142.7 303.5,-142.7 303.5,-119.7 180.5,-119.7"/>
<text text-anchor="start" x="185.5" y="-128.8" font-family="Helvetica,sans-Serif" font-weight="bold" font-size="11.00" fill="#000000">curso_ciclos</text>
<text text-anchor="start" x="268.5437" y="-127.8" font-family="Helvetica,sans-Serif" font-size="11.00" fill="#000000">[table]</text>
<polygon fill="none" stroke="#000000" points="180.5,-97.7 180.5,-119.7 303.5,-119.7 303.5,-97.7 180.5,-97.7"/>
<image xlink:href="../../images/primaryKeys.png" width="11px" height="12px" preserveAspectRatio="xMinYMin meet" x="185.5" y="-114.7"/>
<text text-anchor="start" x="200.5" y="-104.8" font-family="Helvetica,sans-Serif" font-size="11.00" fill="#000000">ciclo_id</text>
<polygon fill="none" stroke="#000000" points="180.5,-75.7 180.5,-97.7 303.5,-97.7 303.5,-75.7 180.5,-75.7"/>
<image xlink:href="../../images/foreignKeys.png" width="11px" height="12px" preserveAspectRatio="xMinYMin meet" x="185.5" y="-92.7"/>
<text text-anchor="start" x="200.5" y="-82.8" font-family="Helvetica,sans-Serif" font-size="11.00" fill="#000000">curso_id</text>
<polygon fill="none" stroke="#000000" points="180.5,-56.7 180.5,-75.7 303.5,-75.7 303.5,-56.7 180.5,-56.7"/>
<text text-anchor="start" x="183.5" y="-62.8" font-family="Helvetica,sans-Serif" font-size="11.00" fill="#000000">...</text>
<polygon fill="#ffffff" stroke="transparent" points="180.5,-37.7 180.5,-56.7 225.5,-56.7 225.5,-37.7 180.5,-37.7"/>
<polygon fill="none" stroke="#000000" points="180.5,-37.7 180.5,-56.7 225.5,-56.7 225.5,-37.7 180.5,-37.7"/>
<text text-anchor="start" x="183.5" y="-43.8" font-family="Helvetica,sans-Serif" font-size="11.00" fill="#000000">&lt; 1</text>
<polygon fill="#ffffff" stroke="transparent" points="225.5,-37.7 225.5,-56.7 269.5,-56.7 269.5,-37.7 225.5,-37.7"/>
<polygon fill="none" stroke="#000000" points="225.5,-37.7 225.5,-56.7 269.5,-56.7 269.5,-37.7 225.5,-37.7"/>
<text text-anchor="start" x="239.6105" y="-43.8" font-family="Helvetica,sans-Serif" font-size="11.00" fill="#000000">1 row</text>
<polygon fill="#ffffff" stroke="transparent" points="269.5,-37.7 269.5,-56.7 303.5,-56.7 303.5,-37.7 269.5,-37.7"/>
<polygon fill="none" stroke="#000000" points="269.5,-37.7 269.5,-56.7 303.5,-56.7 303.5,-37.7 269.5,-37.7"/>
<text text-anchor="start" x="284.9053" y="-43.8" font-family="Helvetica,sans-Serif" font-size="11.00" fill="#000000">2 &gt;</text>
</a>
</g>
</g>
<!-- leads&#45;&gt;curso_ciclos -->
<g id="edge5" class="edge">
<title>leads:w&#45;&gt;curso_ciclos:e</title>
<path fill="none" stroke="#000000" d="M340.6404,-140.5703C327.215,-131.1143 325.3924,-108.7 303.5,-108.7"/>
<polygon fill="#000000" stroke="#000000" points="346.8331,-142.4155 353.472,-148.1501 350.6666,-143.5578 354.5,-144.7 354.5,-144.7 354.5,-144.7 350.6666,-143.5578 355.528,-141.2499 346.8331,-142.4155 346.8331,-142.4155"/>
<ellipse fill="none" stroke="#000000" cx="343.7663" cy="-141.5017" rx="3.2" ry="3.2"/>
</g>
<!-- cursos -->
<g id="node5" class="node">
<title>cursos</title>
<g id="a_node5"><a xlink:href="../../tables/cursos.html" xlink:title="cursos" target="_top">
<polygon fill="#ffffff" stroke="transparent" points="8,-78.2 8,-161.2 131,-161.2 131,-78.2 8,-78.2"/>
<polygon fill="#f5f5f5" stroke="transparent" points="8.5,-137.7 8.5,-160.7 131.5,-160.7 131.5,-137.7 8.5,-137.7"/>
<polygon fill="none" stroke="#000000" points="8.5,-137.7 8.5,-160.7 131.5,-160.7 131.5,-137.7 8.5,-137.7"/>
<text text-anchor="start" x="13.5" y="-146.8" font-family="Helvetica,sans-Serif" font-weight="bold" font-size="11.00" fill="#000000">cursos</text>
<text text-anchor="start" x="96.5437" y="-145.8" font-family="Helvetica,sans-Serif" font-size="11.00" fill="#000000">[table]</text>
<polygon fill="none" stroke="#000000" points="8.5,-115.7 8.5,-137.7 131.5,-137.7 131.5,-115.7 8.5,-115.7"/>
<image xlink:href="../../images/primaryKeys.png" width="11px" height="12px" preserveAspectRatio="xMinYMin meet" x="13.5" y="-132.7"/>
<text text-anchor="start" x="28.5" y="-122.8" font-family="Helvetica,sans-Serif" font-size="11.00" fill="#000000">curso_id</text>
<polygon fill="none" stroke="#000000" points="8.5,-96.7 8.5,-115.7 131.5,-115.7 131.5,-96.7 8.5,-96.7"/>
<text text-anchor="start" x="11.5" y="-102.8" font-family="Helvetica,sans-Serif" font-size="11.00" fill="#000000">...</text>
<polygon fill="#ffffff" stroke="transparent" points="8.5,-77.7 8.5,-96.7 43.5,-96.7 43.5,-77.7 8.5,-77.7"/>
<polygon fill="none" stroke="#000000" points="8.5,-77.7 8.5,-96.7 43.5,-96.7 43.5,-77.7 8.5,-77.7"/>
<text text-anchor="start" x="11.5" y="-83.8" font-family="Helvetica,sans-Serif" font-size="11.00" fill="#000000"> &#160;</text>
<polygon fill="#ffffff" stroke="transparent" points="43.5,-77.7 43.5,-96.7 98.5,-96.7 98.5,-77.7 43.5,-77.7"/>
<polygon fill="none" stroke="#000000" points="43.5,-77.7 43.5,-96.7 98.5,-96.7 98.5,-77.7 43.5,-77.7"/>
<text text-anchor="start" x="56.9956" y="-83.8" font-family="Helvetica,sans-Serif" font-size="11.00" fill="#000000">10 rows</text>
<polygon fill="#ffffff" stroke="transparent" points="98.5,-77.7 98.5,-96.7 131.5,-96.7 131.5,-77.7 98.5,-77.7"/>
<polygon fill="none" stroke="#000000" points="98.5,-77.7 98.5,-96.7 131.5,-96.7 131.5,-77.7 98.5,-77.7"/>
<text text-anchor="start" x="112.9053" y="-83.8" font-family="Helvetica,sans-Serif" font-size="11.00" fill="#000000">3 &gt;</text>
</a>
</g>
</g>
<!-- leads&#45;&gt;cursos -->
<g id="edge6" class="edge">
<title>leads:w&#45;&gt;cursos:e</title>
<path fill="none" stroke="#000000" d="M339.8952,-166.8431C269.9472,-168.2097 244.1318,-178.3713 172,-153.7 151.5309,-146.6989 153.1333,-126.7 131.5,-126.7"/>
<polygon fill="#000000" stroke="#000000" points="346.5004,-166.7784 354.5353,-170.2998 350.5002,-166.7392 354.5,-166.7 354.5,-166.7 354.5,-166.7 350.5002,-166.7392 354.4647,-163.1002 346.5004,-166.7784 346.5004,-166.7784"/>
<ellipse fill="none" stroke="#000000" cx="343.3005" cy="-166.8098" rx="3.2" ry="3.2"/>
</g>
<!-- campanas -->
<g id="node6" class="node">
<title>campanas</title>
<g id="a_node6"><a xlink:href="../../tables/campanas.html" xlink:title="campanas" target="_top">
<polygon fill="#ffffff" stroke="transparent" points="180,-298.2 180,-381.2 303,-381.2 303,-298.2 180,-298.2"/>
<polygon fill="#f5f5f5" stroke="transparent" points="180.5,-357.7 180.5,-380.7 303.5,-380.7 303.5,-357.7 180.5,-357.7"/>
<polygon fill="none" stroke="#000000" points="180.5,-357.7 180.5,-380.7 303.5,-380.7 303.5,-357.7 180.5,-357.7"/>
<text text-anchor="start" x="185.5" y="-366.8" font-family="Helvetica,sans-Serif" font-weight="bold" font-size="11.00" fill="#000000">campanas</text>
<text text-anchor="start" x="268.5437" y="-365.8" font-family="Helvetica,sans-Serif" font-size="11.00" fill="#000000">[table]</text>
<polygon fill="none" stroke="#000000" points="180.5,-335.7 180.5,-357.7 303.5,-357.7 303.5,-335.7 180.5,-335.7"/>
<image xlink:href="../../images/primaryKeys.png" width="11px" height="12px" preserveAspectRatio="xMinYMin meet" x="185.5" y="-352.7"/>
<text text-anchor="start" x="200.5" y="-342.8" font-family="Helvetica,sans-Serif" font-size="11.00" fill="#000000">campana_id</text>
<polygon fill="none" stroke="#000000" points="180.5,-316.7 180.5,-335.7 303.5,-335.7 303.5,-316.7 180.5,-316.7"/>
<text text-anchor="start" x="183.5" y="-322.8" font-family="Helvetica,sans-Serif" font-size="11.00" fill="#000000">...</text>
<polygon fill="#ffffff" stroke="transparent" points="180.5,-297.7 180.5,-316.7 218.5,-316.7 218.5,-297.7 180.5,-297.7"/>
<polygon fill="none" stroke="#000000" points="180.5,-297.7 180.5,-316.7 218.5,-316.7 218.5,-297.7 180.5,-297.7"/>
<text text-anchor="start" x="183.5" y="-303.8" font-family="Helvetica,sans-Serif" font-size="11.00" fill="#000000"> &#160;</text>
<polygon fill="#ffffff" stroke="transparent" points="218.5,-297.7 218.5,-316.7 269.5,-316.7 269.5,-297.7 218.5,-297.7"/>
<polygon fill="none" stroke="#000000" points="218.5,-297.7 218.5,-316.7 269.5,-316.7 269.5,-297.7 218.5,-297.7"/>
<text text-anchor="start" x="234.1105" y="-303.8" font-family="Helvetica,sans-Serif" font-size="11.00" fill="#000000">0 rows</text>
<polygon fill="#ffffff" stroke="transparent" points="269.5,-297.7 269.5,-316.7 303.5,-316.7 303.5,-297.7 269.5,-297.7"/>
<polygon fill="none" stroke="#000000" points="269.5,-297.7 269.5,-316.7 303.5,-316.7 303.5,-297.7 269.5,-297.7"/>
<text text-anchor="start" x="284.9053" y="-303.8" font-family="Helvetica,sans-Serif" font-size="11.00" fill="#000000">2 &gt;</text>
</a>
</g>
</g>
<!-- leads&#45;&gt;campanas -->
<g id="edge4" class="edge">
<title>leads:w&#45;&gt;campanas:e</title>
<path fill="none" stroke="#000000" d="M340.1325,-324.3152C327.6124,-331.4593 322.9792,-346.7 303.5,-346.7"/>
<polygon fill="#000000" stroke="#000000" points="346.7418,-322.6522 355.3785,-324.1912 350.6209,-321.6761 354.5,-320.7 354.5,-320.7 354.5,-320.7 350.6209,-321.6761 353.6215,-317.2088 346.7418,-322.6522 346.7418,-322.6522"/>
<ellipse fill="none" stroke="#000000" cx="343.6386" cy="-323.433" rx="3.2" ry="3.2"/>
</g>
<!-- personas -->
<g id="node7" class="node">
<title>personas</title>
<g id="a_node7"><a xlink:href="../../tables/personas.html" xlink:title="personas" target="_top">
<polygon fill="#ffffff" stroke="transparent" points="180,-194.2 180,-277.2 303,-277.2 303,-194.2 180,-194.2"/>
<polygon fill="#f5f5f5" stroke="transparent" points="180.5,-253.7 180.5,-276.7 303.5,-276.7 303.5,-253.7 180.5,-253.7"/>
<polygon fill="none" stroke="#000000" points="180.5,-253.7 180.5,-276.7 303.5,-276.7 303.5,-253.7 180.5,-253.7"/>
<text text-anchor="start" x="185.5" y="-262.8" font-family="Helvetica,sans-Serif" font-weight="bold" font-size="11.00" fill="#000000">personas</text>
<text text-anchor="start" x="268.5437" y="-261.8" font-family="Helvetica,sans-Serif" font-size="11.00" fill="#000000">[table]</text>
<polygon fill="none" stroke="#000000" points="180.5,-231.7 180.5,-253.7 303.5,-253.7 303.5,-231.7 180.5,-231.7"/>
<image xlink:href="../../images/primaryKeys.png" width="11px" height="12px" preserveAspectRatio="xMinYMin meet" x="185.5" y="-248.7"/>
<text text-anchor="start" x="200.5" y="-238.8" font-family="Helvetica,sans-Serif" font-size="11.00" fill="#000000">persona_id</text>
<polygon fill="none" stroke="#000000" points="180.5,-212.7 180.5,-231.7 303.5,-231.7 303.5,-212.7 180.5,-212.7"/>
<text text-anchor="start" x="183.5" y="-218.8" font-family="Helvetica,sans-Serif" font-size="11.00" fill="#000000">...</text>
<polygon fill="#ffffff" stroke="transparent" points="180.5,-193.7 180.5,-212.7 218.5,-212.7 218.5,-193.7 180.5,-193.7"/>
<polygon fill="none" stroke="#000000" points="180.5,-193.7 180.5,-212.7 218.5,-212.7 218.5,-193.7 180.5,-193.7"/>
<text text-anchor="start" x="183.5" y="-199.8" font-family="Helvetica,sans-Serif" font-size="11.00" fill="#000000"> &#160;</text>
<polygon fill="#ffffff" stroke="transparent" points="218.5,-193.7 218.5,-212.7 269.5,-212.7 269.5,-193.7 218.5,-193.7"/>
<polygon fill="none" stroke="#000000" points="218.5,-193.7 218.5,-212.7 269.5,-212.7 269.5,-193.7 218.5,-193.7"/>
<text text-anchor="start" x="234.1105" y="-199.8" font-family="Helvetica,sans-Serif" font-size="11.00" fill="#000000">5 rows</text>
<polygon fill="#ffffff" stroke="transparent" points="269.5,-193.7 269.5,-212.7 303.5,-212.7 303.5,-193.7 269.5,-193.7"/>
<polygon fill="none" stroke="#000000" points="269.5,-193.7 269.5,-212.7 303.5,-212.7 303.5,-193.7 269.5,-193.7"/>
<text text-anchor="start" x="284.9053" y="-199.8" font-family="Helvetica,sans-Serif" font-size="11.00" fill="#000000">6 &gt;</text>
</a>
</g>
</g>
<!-- leads&#45;&gt;personas -->
<g id="edge7" class="edge">
<title>leads:w&#45;&gt;personas:e</title>
<path fill="none" stroke="#000000" d="M340.3901,-272.5309C327.312,-263.452 324.7828,-242.7 303.5,-242.7"/>
<polygon fill="#000000" stroke="#000000" points="346.8279,-274.4331 353.4799,-280.1524 350.6639,-275.5665 354.5,-276.7 354.5,-276.7 354.5,-276.7 350.6639,-275.5665 355.5201,-273.2476 346.8279,-274.4331 346.8279,-274.4331"/>
<ellipse fill="none" stroke="#000000" cx="343.759" cy="-273.5263" rx="3.2" ry="3.2"/>
</g>
<!-- curso_ciclos&#45;&gt;cursos -->
<g id="edge3" class="edge">
<title>curso_ciclos:w&#45;&gt;cursos:e</title>
<path fill="none" stroke="#000000" d="M166.7637,-91.2885C153.8632,-101.7952 153.6826,-126.7 131.5,-126.7"/>
<polygon fill="#000000" stroke="#000000" points="172.9121,-89.2347 181.6406,-90.1145 176.7061,-87.9673 180.5,-86.7 180.5,-86.7 180.5,-86.7 176.7061,-87.9673 179.3594,-83.2855 172.9121,-89.2347 172.9121,-89.2347"/>
<ellipse fill="none" stroke="#000000" cx="169.877" cy="-90.2486" rx="3.2" ry="3.2"/>
</g>
<!-- llamadas -->
<g id="node8" class="node">
<title>llamadas</title>
<g id="a_node8"><a xlink:href="../../tables/llamadas.html" xlink:title="llamadas" target="_top">
<polygon fill="#ffffff" stroke="transparent" points="700,-384.2 700,-533.2 823,-533.2 823,-384.2 700,-384.2"/>
<polygon fill="#f5f5f5" stroke="transparent" points="700.5,-509.7 700.5,-532.7 823.5,-532.7 823.5,-509.7 700.5,-509.7"/>
<polygon fill="none" stroke="#000000" points="700.5,-509.7 700.5,-532.7 823.5,-532.7 823.5,-509.7 700.5,-509.7"/>
<text text-anchor="start" x="705.5" y="-518.8" font-family="Helvetica,sans-Serif" font-weight="bold" font-size="11.00" fill="#000000">llamadas</text>
<text text-anchor="start" x="788.5437" y="-517.8" font-family="Helvetica,sans-Serif" font-size="11.00" fill="#000000">[table]</text>
<polygon fill="none" stroke="#000000" points="700.5,-487.7 700.5,-509.7 823.5,-509.7 823.5,-487.7 700.5,-487.7"/>
<image xlink:href="../../images/primaryKeys.png" width="11px" height="12px" preserveAspectRatio="xMinYMin meet" x="705.5" y="-504.7"/>
<text text-anchor="start" x="720.5" y="-494.8" font-family="Helvetica,sans-Serif" font-size="11.00" fill="#000000">llamada_id</text>
<polygon fill="none" stroke="#000000" points="700.5,-465.7 700.5,-487.7 823.5,-487.7 823.5,-465.7 700.5,-465.7"/>
<image xlink:href="../../images/foreignKeys.png" width="11px" height="12px" preserveAspectRatio="xMinYMin meet" x="705.5" y="-482.7"/>
<text text-anchor="start" x="720.5" y="-472.8" font-family="Helvetica,sans-Serif" font-size="11.00" fill="#000000">contacto_id</text>
<polygon fill="none" stroke="#000000" points="700.5,-443.7 700.5,-465.7 823.5,-465.7 823.5,-443.7 700.5,-443.7"/>
<image xlink:href="../../images/foreignKeys.png" width="11px" height="12px" preserveAspectRatio="xMinYMin meet" x="705.5" y="-460.7"/>
<text text-anchor="start" x="720.5" y="-450.8" font-family="Helvetica,sans-Serif" font-size="11.00" fill="#000000">lead_id</text>
<polygon fill="none" stroke="#000000" points="700.5,-421.7 700.5,-443.7 823.5,-443.7 823.5,-421.7 700.5,-421.7"/>
<image xlink:href="../../images/foreignKeys.png" width="11px" height="12px" preserveAspectRatio="xMinYMin meet" x="705.5" y="-438.7"/>
<text text-anchor="start" x="720.5" y="-428.8" font-family="Helvetica,sans-Serif" font-size="11.00" fill="#000000">usu_asignado_id</text>
<polygon fill="none" stroke="#000000" points="700.5,-402.7 700.5,-421.7 823.5,-421.7 823.5,-402.7 700.5,-402.7"/>
<text text-anchor="start" x="703.5" y="-408.8" font-family="Helvetica,sans-Serif" font-size="11.00" fill="#000000">...</text>
<polygon fill="#ffffff" stroke="transparent" points="700.5,-383.7 700.5,-402.7 747.5,-402.7 747.5,-383.7 700.5,-383.7"/>
<polygon fill="none" stroke="#000000" points="700.5,-383.7 700.5,-402.7 747.5,-402.7 747.5,-383.7 700.5,-383.7"/>
<text text-anchor="start" x="703.5" y="-389.8" font-family="Helvetica,sans-Serif" font-size="11.00" fill="#000000">&lt; 3</text>
<polygon fill="#ffffff" stroke="transparent" points="747.5,-383.7 747.5,-402.7 798.5,-402.7 798.5,-383.7 747.5,-383.7"/>
<polygon fill="none" stroke="#000000" points="747.5,-383.7 747.5,-402.7 798.5,-402.7 798.5,-383.7 747.5,-383.7"/>
<text text-anchor="start" x="763.1105" y="-389.8" font-family="Helvetica,sans-Serif" font-size="11.00" fill="#000000">0 rows</text>
<polygon fill="#ffffff" stroke="transparent" points="798.5,-383.7 798.5,-402.7 823.5,-402.7 823.5,-383.7 798.5,-383.7"/>
<polygon fill="none" stroke="#000000" points="798.5,-383.7 798.5,-402.7 823.5,-402.7 823.5,-383.7 798.5,-383.7"/>
<text text-anchor="start" x="814.3862" y="-389.8" font-family="Helvetica,sans-Serif" font-size="11.00" fill="#000000"> &#160;</text>
</a>
</g>
</g>
<!-- llamadas&#45;&gt;leads -->
<g id="edge9" class="edge">
<title>llamadas:w&#45;&gt;leads:e</title>
<path fill="none" stroke="#000000" d="M686.3891,-449.8096C669.1017,-434.2178 681.0799,-386.7 649.5,-386.7"/>
<polygon fill="#000000" stroke="#000000" points="692.9411,-452.0803 699.3211,-458.1015 696.7205,-453.3901 700.5,-454.7 700.5,-454.7 700.5,-454.7 696.7205,-453.3901 701.6789,-451.2985 692.9411,-452.0803 692.9411,-452.0803"/>
<ellipse fill="none" stroke="#000000" cx="689.9175" cy="-451.0324" rx="3.2" ry="3.2"/>
</g>
<!-- llamadas&#45;&gt;usuarios -->
<g id="edge10" class="edge">
<title>llamadas:w&#45;&gt;usuarios:e</title>
<path fill="none" stroke="#000000" d="M686.4058,-436.4853C677.6078,-442.0986 673.5322,-452.4258 659,-456.7 507.2471,-501.3333 461.6806,-473.7 303.5,-473.7"/>
<polygon fill="#000000" stroke="#000000" points="692.7738,-434.7751 701.4338,-436.1768 696.6369,-433.7376 700.5,-432.7 700.5,-432.7 700.5,-432.7 696.6369,-433.7376 699.5662,-429.2232 692.7738,-434.7751 692.7738,-434.7751"/>
<ellipse fill="none" stroke="#000000" cx="689.6833" cy="-435.6051" rx="3.2" ry="3.2"/>
</g>
<!-- tareas -->
<g id="node9" class="node">
<title>tareas</title>
<g id="a_node9"><a xlink:href="../../tables/tareas.html" xlink:title="tareas" target="_top">
<polygon fill="#ffffff" stroke="transparent" points="700,-214.2 700,-363.2 823,-363.2 823,-214.2 700,-214.2"/>
<polygon fill="#f5f5f5" stroke="transparent" points="700.5,-339.7 700.5,-362.7 823.5,-362.7 823.5,-339.7 700.5,-339.7"/>
<polygon fill="none" stroke="#000000" points="700.5,-339.7 700.5,-362.7 823.5,-362.7 823.5,-339.7 700.5,-339.7"/>
<text text-anchor="start" x="705.5" y="-348.8" font-family="Helvetica,sans-Serif" font-weight="bold" font-size="11.00" fill="#000000">tareas</text>
<text text-anchor="start" x="788.5437" y="-347.8" font-family="Helvetica,sans-Serif" font-size="11.00" fill="#000000">[table]</text>
<polygon fill="none" stroke="#000000" points="700.5,-317.7 700.5,-339.7 823.5,-339.7 823.5,-317.7 700.5,-317.7"/>
<image xlink:href="../../images/primaryKeys.png" width="11px" height="12px" preserveAspectRatio="xMinYMin meet" x="705.5" y="-334.7"/>
<text text-anchor="start" x="720.5" y="-324.8" font-family="Helvetica,sans-Serif" font-size="11.00" fill="#000000">tarea_id</text>
<polygon fill="none" stroke="#000000" points="700.5,-295.7 700.5,-317.7 823.5,-317.7 823.5,-295.7 700.5,-295.7"/>
<image xlink:href="../../images/foreignKeys.png" width="11px" height="12px" preserveAspectRatio="xMinYMin meet" x="705.5" y="-312.7"/>
<text text-anchor="start" x="720.5" y="-302.8" font-family="Helvetica,sans-Serif" font-size="11.00" fill="#000000">contacto_id</text>
<polygon fill="none" stroke="#000000" points="700.5,-273.7 700.5,-295.7 823.5,-295.7 823.5,-273.7 700.5,-273.7"/>
<image xlink:href="../../images/foreignKeys.png" width="11px" height="12px" preserveAspectRatio="xMinYMin meet" x="705.5" y="-290.7"/>
<text text-anchor="start" x="720.5" y="-280.8" font-family="Helvetica,sans-Serif" font-size="11.00" fill="#000000">lead_id</text>
<polygon fill="none" stroke="#000000" points="700.5,-251.7 700.5,-273.7 823.5,-273.7 823.5,-251.7 700.5,-251.7"/>
<image xlink:href="../../images/foreignKeys.png" width="11px" height="12px" preserveAspectRatio="xMinYMin meet" x="705.5" y="-268.7"/>
<text text-anchor="start" x="720.5" y="-258.8" font-family="Helvetica,sans-Serif" font-size="11.00" fill="#000000">usu_asignado_id</text>
<polygon fill="none" stroke="#000000" points="700.5,-232.7 700.5,-251.7 823.5,-251.7 823.5,-232.7 700.5,-232.7"/>
<text text-anchor="start" x="703.5" y="-238.8" font-family="Helvetica,sans-Serif" font-size="11.00" fill="#000000">...</text>
<polygon fill="#ffffff" stroke="transparent" points="700.5,-213.7 700.5,-232.7 747.5,-232.7 747.5,-213.7 700.5,-213.7"/>
<polygon fill="none" stroke="#000000" points="700.5,-213.7 700.5,-232.7 747.5,-232.7 747.5,-213.7 700.5,-213.7"/>
<text text-anchor="start" x="703.5" y="-219.8" font-family="Helvetica,sans-Serif" font-size="11.00" fill="#000000">&lt; 3</text>
<polygon fill="#ffffff" stroke="transparent" points="747.5,-213.7 747.5,-232.7 798.5,-232.7 798.5,-213.7 747.5,-213.7"/>
<polygon fill="none" stroke="#000000" points="747.5,-213.7 747.5,-232.7 798.5,-232.7 798.5,-213.7 747.5,-213.7"/>
<text text-anchor="start" x="763.1105" y="-219.8" font-family="Helvetica,sans-Serif" font-size="11.00" fill="#000000">0 rows</text>
<polygon fill="#ffffff" stroke="transparent" points="798.5,-213.7 798.5,-232.7 823.5,-232.7 823.5,-213.7 798.5,-213.7"/>
<polygon fill="none" stroke="#000000" points="798.5,-213.7 798.5,-232.7 823.5,-232.7 823.5,-213.7 798.5,-213.7"/>
<text text-anchor="start" x="814.3862" y="-219.8" font-family="Helvetica,sans-Serif" font-size="11.00" fill="#000000"> &#160;</text>
</a>
</g>
</g>
<!-- tareas&#45;&gt;leads -->
<g id="edge11" class="edge">
<title>tareas:w&#45;&gt;leads:e</title>
<path fill="none" stroke="#000000" d="M686.5193,-288.574C660.2331,-307.2055 694.2447,-386.7 649.5,-386.7"/>
<polygon fill="#000000" stroke="#000000" points="692.7905,-286.8363 701.4613,-288.1693 696.6452,-285.7681 700.5,-284.7 700.5,-284.7 700.5,-284.7 696.6452,-285.7681 699.5387,-281.2307 692.7905,-286.8363 692.7905,-286.8363"/>
<ellipse fill="none" stroke="#000000" cx="689.7067" cy="-287.6908" rx="3.2" ry="3.2"/>
</g>
<!-- tareas&#45;&gt;usuarios -->
<g id="edge12" class="edge">
<title>tareas:w&#45;&gt;usuarios:e</title>
<path fill="none" stroke="#000000" d="M686.1545,-264.5139C635.3982,-279.7313 714.2877,-386.7167 659,-433.7 605.5043,-479.1605 412.4154,-441.9591 344,-457.7 325.139,-462.0395 322.8538,-473.7 303.5,-473.7"/>
<polygon fill="#000000" stroke="#000000" points="692.5632,-263.7036 700.9516,-266.2716 696.5316,-263.2018 700.5,-262.7 700.5,-262.7 700.5,-262.7 696.5316,-263.2018 700.0484,-259.1284 692.5632,-263.7036 692.5632,-263.7036"/>
<ellipse fill="none" stroke="#000000" cx="689.3885" cy="-264.105" rx="3.2" ry="3.2"/>
</g>
</g>
</svg>
