<?xml version="1.0" encoding="UTF-8" standalone="no"?>
<!DOCTYPE svg PUBLIC "-//W3C//DTD SVG 1.1//EN"
 "http://www.w3.org/Graphics/SVG/1.1/DTD/svg11.dtd">
<!-- Generated by graphviz version 2.40.1 (20161225.0304)
 -->
<!-- Title: oneDegreeRelationshipsDiagram Pages: 1 -->
<svg width="667pt" height="539pt"
 viewBox="0.00 0.00 667.00 539.20" xmlns="http://www.w3.org/2000/svg" xmlns:xlink="http://www.w3.org/1999/xlink">
<g id="graph0" class="graph" transform="scale(1 1) rotate(0) translate(4 535.2)">
<title>oneDegreeRelationshipsDiagram</title>
<polygon fill="#ffffff" stroke="transparent" points="-4,4 -4,-535.2 663,-535.2 663,4 -4,4"/>
<text text-anchor="middle" x="72.4936" y="-7.3" font-family="Helvetica,sans-Serif" font-size="11.00" fill="#000000">Generated by SchemaSpy</text>
<!-- casos -->
<g id="node1" class="node">
<title>casos</title>
<g id="a_node1"><a xlink:href="../../tables/casos.html" xlink:title="casos" target="_top">
<polygon fill="#ffffff" stroke="transparent" points="528,-378.2 528,-527.2 651,-527.2 651,-378.2 528,-378.2"/>
<polygon fill="#f5f5f5" stroke="transparent" points="528.5,-503.7 528.5,-526.7 651.5,-526.7 651.5,-503.7 528.5,-503.7"/>
<polygon fill="none" stroke="#000000" points="528.5,-503.7 528.5,-526.7 651.5,-526.7 651.5,-503.7 528.5,-503.7"/>
<text text-anchor="start" x="533.5" y="-512.8" font-family="Helvetica,sans-Serif" font-weight="bold" font-size="11.00" fill="#000000">casos</text>
<text text-anchor="start" x="616.5437" y="-511.8" font-family="Helvetica,sans-Serif" font-size="11.00" fill="#000000">[table]</text>
<polygon fill="none" stroke="#000000" points="528.5,-481.7 528.5,-503.7 651.5,-503.7 651.5,-481.7 528.5,-481.7"/>
<image xlink:href="../../images/primaryKeys.png" width="11px" height="12px" preserveAspectRatio="xMinYMin meet" x="533.5" y="-498.7"/>
<text text-anchor="start" x="548.5" y="-488.8" font-family="Helvetica,sans-Serif" font-size="11.00" fill="#000000">caso_id</text>
<polygon fill="none" stroke="#000000" points="528.5,-459.7 528.5,-481.7 651.5,-481.7 651.5,-459.7 528.5,-459.7"/>
<image xlink:href="../../images/foreignKeys.png" width="11px" height="12px" preserveAspectRatio="xMinYMin meet" x="533.5" y="-476.7"/>
<text text-anchor="start" x="548.5" y="-466.8" font-family="Helvetica,sans-Serif" font-size="11.00" fill="#000000">lead_id</text>
<polygon fill="none" stroke="#000000" points="528.5,-437.7 528.5,-459.7 651.5,-459.7 651.5,-437.7 528.5,-437.7"/>
<image xlink:href="../../images/foreignKeys.png" width="11px" height="12px" preserveAspectRatio="xMinYMin meet" x="533.5" y="-454.7"/>
<text text-anchor="start" x="548.5" y="-444.8" font-family="Helvetica,sans-Serif" font-size="11.00" fill="#000000">usu_asignado_id</text>
<polygon fill="none" stroke="#000000" points="528.5,-415.7 528.5,-437.7 651.5,-437.7 651.5,-415.7 528.5,-415.7"/>
<image xlink:href="../../images/foreignKeys.png" width="11px" height="12px" preserveAspectRatio="xMinYMin meet" x="533.5" y="-432.7"/>
<text text-anchor="start" x="548.5" y="-422.8" font-family="Helvetica,sans-Serif" font-size="11.00" fill="#000000">contacto_id</text>
<polygon fill="none" stroke="#000000" points="528.5,-396.7 528.5,-415.7 651.5,-415.7 651.5,-396.7 528.5,-396.7"/>
<text text-anchor="start" x="531.5" y="-402.8" font-family="Helvetica,sans-Serif" font-size="11.00" fill="#000000">...</text>
<polygon fill="#ffffff" stroke="transparent" points="528.5,-377.7 528.5,-396.7 575.5,-396.7 575.5,-377.7 528.5,-377.7"/>
<polygon fill="none" stroke="#000000" points="528.5,-377.7 528.5,-396.7 575.5,-396.7 575.5,-377.7 528.5,-377.7"/>
<text text-anchor="start" x="531.5" y="-383.8" font-family="Helvetica,sans-Serif" font-size="11.00" fill="#000000">&lt; 3</text>
<polygon fill="#ffffff" stroke="transparent" points="575.5,-377.7 575.5,-396.7 626.5,-396.7 626.5,-377.7 575.5,-377.7"/>
<polygon fill="none" stroke="#000000" points="575.5,-377.7 575.5,-396.7 626.5,-396.7 626.5,-377.7 575.5,-377.7"/>
<text text-anchor="start" x="591.1105" y="-383.8" font-family="Helvetica,sans-Serif" font-size="11.00" fill="#000000">3 rows</text>
<polygon fill="#ffffff" stroke="transparent" points="626.5,-377.7 626.5,-396.7 651.5,-396.7 651.5,-377.7 626.5,-377.7"/>
<polygon fill="none" stroke="#000000" points="626.5,-377.7 626.5,-396.7 651.5,-396.7 651.5,-377.7 626.5,-377.7"/>
<text text-anchor="start" x="642.3862" y="-383.8" font-family="Helvetica,sans-Serif" font-size="11.00" fill="#000000"> &#160;</text>
</a>
</g>
</g>
<!-- leads -->
<g id="node2" class="node">
<title>leads</title>
<g id="a_node2"><a xlink:href="../../tables/leads.html" xlink:title="leads" target="_top">
<polygon fill="#ffffff" stroke="transparent" points="180,-210.7 180,-498.7 479,-498.7 479,-210.7 180,-210.7"/>
<polygon fill="#f5f5f5" stroke="transparent" points="182.5,-473.7 182.5,-496.7 477.5,-496.7 477.5,-473.7 182.5,-473.7"/>
<polygon fill="none" stroke="#000000" points="182.5,-473.7 182.5,-496.7 477.5,-496.7 477.5,-473.7 182.5,-473.7"/>
<text text-anchor="start" x="187.5" y="-482.8" font-family="Helvetica,sans-Serif" font-weight="bold" font-size="11.00" fill="#000000">leads</text>
<text text-anchor="start" x="442.5437" y="-481.8" font-family="Helvetica,sans-Serif" font-size="11.00" fill="#000000">[table]</text>
<polygon fill="none" stroke="#000000" points="182.5,-451.7 182.5,-473.7 305.5,-473.7 305.5,-451.7 182.5,-451.7"/>
<image xlink:href="../../images/primaryKeys.png" width="11px" height="12px" preserveAspectRatio="xMinYMin meet" x="187.5" y="-468.7"/>
<text text-anchor="start" x="202.5" y="-458.8" font-family="Helvetica,sans-Serif" font-size="11.00" fill="#000000">lead_id</text>
<polygon fill="none" stroke="#000000" points="305.5,-451.7 305.5,-473.7 477.5,-473.7 477.5,-451.7 305.5,-451.7"/>
<text text-anchor="start" x="308.5" y="-459.4" font-family="Helvetica,sans-Serif" font-size="11.00" fill="#000000">serial[10]</text>
<polygon fill="none" stroke="#000000" points="182.5,-429.7 182.5,-451.7 305.5,-451.7 305.5,-429.7 182.5,-429.7"/>
<text text-anchor="start" x="202.5" y="-436.8" font-family="Helvetica,sans-Serif" font-size="11.00" fill="#000000">estado</text>
<polygon fill="none" stroke="#000000" points="305.5,-429.7 305.5,-451.7 477.5,-451.7 477.5,-429.7 305.5,-429.7"/>
<text text-anchor="start" x="308.3494" y="-437.4" font-family="Helvetica,sans-Serif" font-size="11.00" fill="#000000">enum_leads_estado[2147483647]</text>
<polygon fill="none" stroke="#000000" points="182.5,-407.7 182.5,-429.7 305.5,-429.7 305.5,-407.7 182.5,-407.7"/>
<image xlink:href="../../images/foreignKeys.png" width="11px" height="12px" preserveAspectRatio="xMinYMin meet" x="187.5" y="-424.7"/>
<text text-anchor="start" x="202.5" y="-414.8" font-family="Helvetica,sans-Serif" font-size="11.00" fill="#000000">usu_asignado_id</text>
<polygon fill="none" stroke="#000000" points="305.5,-407.7 305.5,-429.7 477.5,-429.7 477.5,-407.7 305.5,-407.7"/>
<text text-anchor="start" x="308.5" y="-415.4" font-family="Helvetica,sans-Serif" font-size="11.00" fill="#000000">int4[10]</text>
<polygon fill="none" stroke="#000000" points="182.5,-385.7 182.5,-407.7 305.5,-407.7 305.5,-385.7 182.5,-385.7"/>
<image xlink:href="../../images/foreignKeys.png" width="11px" height="12px" preserveAspectRatio="xMinYMin meet" x="187.5" y="-402.7"/>
<text text-anchor="start" x="202.5" y="-392.8" font-family="Helvetica,sans-Serif" font-size="11.00" fill="#000000">campana_id</text>
<polygon fill="none" stroke="#000000" points="305.5,-385.7 305.5,-407.7 477.5,-407.7 477.5,-385.7 305.5,-385.7"/>
<text text-anchor="start" x="308.5" y="-393.4" font-family="Helvetica,sans-Serif" font-size="11.00" fill="#000000">int4[10]</text>
<polygon fill="none" stroke="#000000" points="182.5,-363.7 182.5,-385.7 305.5,-385.7 305.5,-363.7 182.5,-363.7"/>
<text text-anchor="start" x="202.5" y="-370.8" font-family="Helvetica,sans-Serif" font-size="11.00" fill="#000000">origen</text>
<polygon fill="none" stroke="#000000" points="305.5,-363.7 305.5,-385.7 477.5,-385.7 477.5,-363.7 305.5,-363.7"/>
<text text-anchor="start" x="308.5" y="-371.4" font-family="Helvetica,sans-Serif" font-size="11.00" fill="#000000">enum_leads_origen[2147483647]</text>
<polygon fill="none" stroke="#000000" points="182.5,-341.7 182.5,-363.7 305.5,-363.7 305.5,-341.7 182.5,-341.7"/>
<image xlink:href="../../images/foreignKeys.png" width="11px" height="12px" preserveAspectRatio="xMinYMin meet" x="187.5" y="-358.7"/>
<text text-anchor="start" x="202.5" y="-348.8" font-family="Helvetica,sans-Serif" font-size="11.00" fill="#000000">persona_id</text>
<polygon fill="none" stroke="#000000" points="305.5,-341.7 305.5,-363.7 477.5,-363.7 477.5,-341.7 305.5,-341.7"/>
<text text-anchor="start" x="308.5" y="-349.4" font-family="Helvetica,sans-Serif" font-size="11.00" fill="#000000">int4[10]</text>
<polygon fill="none" stroke="#000000" points="182.5,-319.7 182.5,-341.7 305.5,-341.7 305.5,-319.7 182.5,-319.7"/>
<text text-anchor="start" x="202.5" y="-326.8" font-family="Helvetica,sans-Serif" font-size="11.00" fill="#000000">usu_insercion</text>
<polygon fill="none" stroke="#000000" points="305.5,-319.7 305.5,-341.7 477.5,-341.7 477.5,-319.7 305.5,-319.7"/>
<text text-anchor="start" x="308.5" y="-327.4" font-family="Helvetica,sans-Serif" font-size="11.00" fill="#000000">varchar[20]</text>
<polygon fill="none" stroke="#000000" points="182.5,-297.7 182.5,-319.7 305.5,-319.7 305.5,-297.7 182.5,-297.7"/>
<text text-anchor="start" x="202.5" y="-304.8" font-family="Helvetica,sans-Serif" font-size="11.00" fill="#000000">fec_insercion</text>
<polygon fill="none" stroke="#000000" points="305.5,-297.7 305.5,-319.7 477.5,-319.7 477.5,-297.7 305.5,-297.7"/>
<text text-anchor="start" x="308.5" y="-305.4" font-family="Helvetica,sans-Serif" font-size="11.00" fill="#000000">timestamptz[35,6]</text>
<polygon fill="none" stroke="#000000" points="182.5,-275.7 182.5,-297.7 305.5,-297.7 305.5,-275.7 182.5,-275.7"/>
<text text-anchor="start" x="202.5" y="-282.8" font-family="Helvetica,sans-Serif" font-size="11.00" fill="#000000">fec_modificacion</text>
<polygon fill="none" stroke="#000000" points="305.5,-275.7 305.5,-297.7 477.5,-297.7 477.5,-275.7 305.5,-275.7"/>
<text text-anchor="start" x="308.5" y="-283.4" font-family="Helvetica,sans-Serif" font-size="11.00" fill="#000000">timestamptz[35,6]</text>
<polygon fill="none" stroke="#000000" points="182.5,-253.7 182.5,-275.7 305.5,-275.7 305.5,-253.7 182.5,-253.7"/>
<text text-anchor="start" x="202.5" y="-260.8" font-family="Helvetica,sans-Serif" font-size="11.00" fill="#000000">usu_modificacion</text>
<polygon fill="none" stroke="#000000" points="305.5,-253.7 305.5,-275.7 477.5,-275.7 477.5,-253.7 305.5,-253.7"/>
<text text-anchor="start" x="308.5" y="-261.4" font-family="Helvetica,sans-Serif" font-size="11.00" fill="#000000">varchar[20]</text>
<polygon fill="none" stroke="#000000" points="182.5,-231.7 182.5,-253.7 305.5,-253.7 305.5,-231.7 182.5,-231.7"/>
<image xlink:href="../../images/foreignKeys.png" width="11px" height="12px" preserveAspectRatio="xMinYMin meet" x="187.5" y="-248.7"/>
<text text-anchor="start" x="202.5" y="-238.8" font-family="Helvetica,sans-Serif" font-size="11.00" fill="#000000">curso_id</text>
<polygon fill="none" stroke="#000000" points="305.5,-231.7 305.5,-253.7 477.5,-253.7 477.5,-231.7 305.5,-231.7"/>
<text text-anchor="start" x="308.5" y="-239.4" font-family="Helvetica,sans-Serif" font-size="11.00" fill="#000000">int4[10]</text>
<polygon fill="#ffffff" stroke="transparent" points="182.5,-212.7 182.5,-231.7 235.5,-231.7 235.5,-212.7 182.5,-212.7"/>
<polygon fill="none" stroke="#000000" points="182.5,-212.7 182.5,-231.7 235.5,-231.7 235.5,-212.7 182.5,-212.7"/>
<text text-anchor="start" x="185.5" y="-218.8" font-family="Helvetica,sans-Serif" font-size="11.00" fill="#000000">&lt; 4</text>
<polygon fill="#ffffff" stroke="transparent" points="235.5,-212.7 235.5,-231.7 305.5,-231.7 305.5,-212.7 235.5,-212.7"/>
<polygon fill="none" stroke="#000000" points="235.5,-212.7 235.5,-231.7 305.5,-231.7 305.5,-212.7 235.5,-212.7"/>
<text text-anchor="start" x="270.1105" y="-218.8" font-family="Helvetica,sans-Serif" font-size="11.00" fill="#000000">6 rows</text>
<polygon fill="#ffffff" stroke="transparent" points="305.5,-212.7 305.5,-231.7 477.5,-231.7 477.5,-212.7 305.5,-212.7"/>
<polygon fill="none" stroke="#000000" points="305.5,-212.7 305.5,-231.7 477.5,-231.7 477.5,-212.7 305.5,-212.7"/>
<text text-anchor="start" x="458.9053" y="-218.8" font-family="Helvetica,sans-Serif" font-size="11.00" fill="#000000">3 &gt;</text>
<polygon fill="none" stroke="#000000" stroke-width="2" points="181,-211.7 181,-497.7 478,-497.7 478,-211.7 181,-211.7"/>
</a>
</g>
</g>
<!-- casos&#45;&gt;leads -->
<g id="edge1" class="edge">
<title>casos:w&#45;&gt;leads:e</title>
<path fill="none" stroke="#000000" d="M514.0783,-469.45C501.8855,-467.2 494.7079,-462.7 477.5,-462.7"/>
<polygon fill="#000000" stroke="#000000" points="520.5299,-470.0091 528.1891,-474.2866 524.5149,-470.3546 528.5,-470.7 528.5,-470.7 528.5,-470.7 524.5149,-470.3546 528.8109,-467.1134 520.5299,-470.0091 520.5299,-470.0091"/>
<ellipse fill="none" stroke="#000000" cx="517.3418" cy="-469.7328" rx="3.2" ry="3.2"/>
</g>
<!-- usuarios -->
<g id="node3" class="node">
<title>usuarios</title>
<g id="a_node3"><a xlink:href="../../tables/usuarios.html" xlink:title="usuarios" target="_top">
<polygon fill="#ffffff" stroke="transparent" points="8,-74.2 8,-179.2 131,-179.2 131,-74.2 8,-74.2"/>
<polygon fill="#f5f5f5" stroke="transparent" points="8.5,-155.7 8.5,-178.7 131.5,-178.7 131.5,-155.7 8.5,-155.7"/>
<polygon fill="none" stroke="#000000" points="8.5,-155.7 8.5,-178.7 131.5,-178.7 131.5,-155.7 8.5,-155.7"/>
<text text-anchor="start" x="13.5" y="-164.8" font-family="Helvetica,sans-Serif" font-weight="bold" font-size="11.00" fill="#000000">usuarios</text>
<text text-anchor="start" x="96.5437" y="-163.8" font-family="Helvetica,sans-Serif" font-size="11.00" fill="#000000">[table]</text>
<polygon fill="none" stroke="#000000" points="8.5,-133.7 8.5,-155.7 131.5,-155.7 131.5,-133.7 8.5,-133.7"/>
<image xlink:href="../../images/primaryKeys.png" width="11px" height="12px" preserveAspectRatio="xMinYMin meet" x="13.5" y="-150.7"/>
<text text-anchor="start" x="28.5" y="-140.8" font-family="Helvetica,sans-Serif" font-size="11.00" fill="#000000">usuario_id</text>
<polygon fill="#ffffff" stroke="transparent" points="8.5,-111.7 8.5,-133.7 131.5,-133.7 131.5,-111.7 8.5,-111.7"/>
<polygon fill="none" stroke="#000000" points="8.5,-111.7 8.5,-133.7 131.5,-133.7 131.5,-111.7 8.5,-111.7"/>
<text text-anchor="start" x="28.5" y="-118.8" font-family="Helvetica,sans-Serif" font-size="11.00" fill="#000000">nom_usuario</text>
<polygon fill="none" stroke="#000000" points="8.5,-92.7 8.5,-111.7 131.5,-111.7 131.5,-92.7 8.5,-92.7"/>
<text text-anchor="start" x="11.5" y="-98.8" font-family="Helvetica,sans-Serif" font-size="11.00" fill="#000000">...</text>
<polygon fill="#ffffff" stroke="transparent" points="8.5,-73.7 8.5,-92.7 46.5,-92.7 46.5,-73.7 8.5,-73.7"/>
<polygon fill="none" stroke="#000000" points="8.5,-73.7 8.5,-92.7 46.5,-92.7 46.5,-73.7 8.5,-73.7"/>
<text text-anchor="start" x="11.5" y="-79.8" font-family="Helvetica,sans-Serif" font-size="11.00" fill="#000000"> &#160;</text>
<polygon fill="#ffffff" stroke="transparent" points="46.5,-73.7 46.5,-92.7 97.5,-92.7 97.5,-73.7 46.5,-73.7"/>
<polygon fill="none" stroke="#000000" points="46.5,-73.7 46.5,-92.7 97.5,-92.7 97.5,-73.7 46.5,-73.7"/>
<text text-anchor="start" x="62.1105" y="-79.8" font-family="Helvetica,sans-Serif" font-size="11.00" fill="#000000">2 rows</text>
<polygon fill="#ffffff" stroke="transparent" points="97.5,-73.7 97.5,-92.7 131.5,-92.7 131.5,-73.7 97.5,-73.7"/>
<polygon fill="none" stroke="#000000" points="97.5,-73.7 97.5,-92.7 131.5,-92.7 131.5,-73.7 97.5,-73.7"/>
<text text-anchor="start" x="112.9053" y="-79.8" font-family="Helvetica,sans-Serif" font-size="11.00" fill="#000000">6 &gt;</text>
</a>
</g>
</g>
<!-- casos&#45;&gt;usuarios -->
<g id="edge2" class="edge">
<title>casos:w&#45;&gt;usuarios:e</title>
<path fill="none" stroke="#000000" d="M515.0961,-443.0711C482.3611,-409.4853 523.1859,-235.8116 487,-200.7 436.2965,-151.5018 240.8977,-173.3337 172,-157.7 153.5641,-153.5167 150.4046,-144.7 131.5,-144.7"/>
<polygon fill="#000000" stroke="#000000" points="521.124,-445.6025 527.1061,-452.0192 524.812,-447.1512 528.5,-448.7 528.5,-448.7 528.5,-448.7 524.812,-447.1512 529.8939,-445.3808 521.124,-445.6025 521.124,-445.6025"/>
<ellipse fill="none" stroke="#000000" cx="518.1736" cy="-444.3635" rx="3.2" ry="3.2"/>
</g>
<!-- leads&#45;&gt;usuarios -->
<g id="edge6" class="edge">
<title>leads:w&#45;&gt;usuarios:e</title>
<path fill="none" stroke="#000000" d="M169.1105,-412.7223C132.3331,-372.6525 187.9912,-144.7 131.5,-144.7"/>
<polygon fill="#000000" stroke="#000000" points="175.1949,-415.4386 181.0324,-421.9873 178.8475,-417.0693 182.5,-418.7 182.5,-418.7 182.5,-418.7 178.8475,-417.0693 183.9676,-415.4127 175.1949,-415.4386 175.1949,-415.4386"/>
<ellipse fill="none" stroke="#000000" cx="172.2729" cy="-414.1341" rx="3.2" ry="3.2"/>
</g>
<!-- campanas -->
<g id="node4" class="node">
<title>campanas</title>
<g id="a_node4"><a xlink:href="../../tables/campanas.html" xlink:title="campanas" target="_top">
<polygon fill="#ffffff" stroke="transparent" points="8,-408.2 8,-491.2 131,-491.2 131,-408.2 8,-408.2"/>
<polygon fill="#f5f5f5" stroke="transparent" points="8.5,-467.7 8.5,-490.7 131.5,-490.7 131.5,-467.7 8.5,-467.7"/>
<polygon fill="none" stroke="#000000" points="8.5,-467.7 8.5,-490.7 131.5,-490.7 131.5,-467.7 8.5,-467.7"/>
<text text-anchor="start" x="13.5" y="-476.8" font-family="Helvetica,sans-Serif" font-weight="bold" font-size="11.00" fill="#000000">campanas</text>
<text text-anchor="start" x="96.5437" y="-475.8" font-family="Helvetica,sans-Serif" font-size="11.00" fill="#000000">[table]</text>
<polygon fill="none" stroke="#000000" points="8.5,-445.7 8.5,-467.7 131.5,-467.7 131.5,-445.7 8.5,-445.7"/>
<image xlink:href="../../images/primaryKeys.png" width="11px" height="12px" preserveAspectRatio="xMinYMin meet" x="13.5" y="-462.7"/>
<text text-anchor="start" x="28.5" y="-452.8" font-family="Helvetica,sans-Serif" font-size="11.00" fill="#000000">campana_id</text>
<polygon fill="none" stroke="#000000" points="8.5,-426.7 8.5,-445.7 131.5,-445.7 131.5,-426.7 8.5,-426.7"/>
<text text-anchor="start" x="11.5" y="-432.8" font-family="Helvetica,sans-Serif" font-size="11.00" fill="#000000">...</text>
<polygon fill="#ffffff" stroke="transparent" points="8.5,-407.7 8.5,-426.7 46.5,-426.7 46.5,-407.7 8.5,-407.7"/>
<polygon fill="none" stroke="#000000" points="8.5,-407.7 8.5,-426.7 46.5,-426.7 46.5,-407.7 8.5,-407.7"/>
<text text-anchor="start" x="11.5" y="-413.8" font-family="Helvetica,sans-Serif" font-size="11.00" fill="#000000"> &#160;</text>
<polygon fill="#ffffff" stroke="transparent" points="46.5,-407.7 46.5,-426.7 97.5,-426.7 97.5,-407.7 46.5,-407.7"/>
<polygon fill="none" stroke="#000000" points="46.5,-407.7 46.5,-426.7 97.5,-426.7 97.5,-407.7 46.5,-407.7"/>
<text text-anchor="start" x="62.1105" y="-413.8" font-family="Helvetica,sans-Serif" font-size="11.00" fill="#000000">2 rows</text>
<polygon fill="#ffffff" stroke="transparent" points="97.5,-407.7 97.5,-426.7 131.5,-426.7 131.5,-407.7 97.5,-407.7"/>
<polygon fill="none" stroke="#000000" points="97.5,-407.7 97.5,-426.7 131.5,-426.7 131.5,-407.7 97.5,-407.7"/>
<text text-anchor="start" x="112.9053" y="-413.8" font-family="Helvetica,sans-Serif" font-size="11.00" fill="#000000">2 &gt;</text>
</a>
</g>
</g>
<!-- leads&#45;&gt;campanas -->
<g id="edge3" class="edge">
<title>leads:w&#45;&gt;campanas:e</title>
<path fill="none" stroke="#000000" d="M168.6909,-401.4081C152.4367,-415.5525 160.4831,-456.7 131.5,-456.7"/>
<polygon fill="#000000" stroke="#000000" points="174.928,-399.2816 183.6617,-400.1074 178.714,-397.9908 182.5,-396.7 182.5,-396.7 182.5,-396.7 178.714,-397.9908 181.3383,-393.2926 174.928,-399.2816 174.928,-399.2816"/>
<ellipse fill="none" stroke="#000000" cx="171.8992" cy="-400.3143" rx="3.2" ry="3.2"/>
</g>
<!-- cursos -->
<g id="node5" class="node">
<title>cursos</title>
<g id="a_node5"><a xlink:href="../../tables/cursos.html" xlink:title="cursos" target="_top">
<polygon fill="#ffffff" stroke="transparent" points="8,-200.2 8,-283.2 131,-283.2 131,-200.2 8,-200.2"/>
<polygon fill="#f5f5f5" stroke="transparent" points="8.5,-259.7 8.5,-282.7 131.5,-282.7 131.5,-259.7 8.5,-259.7"/>
<polygon fill="none" stroke="#000000" points="8.5,-259.7 8.5,-282.7 131.5,-282.7 131.5,-259.7 8.5,-259.7"/>
<text text-anchor="start" x="13.5" y="-268.8" font-family="Helvetica,sans-Serif" font-weight="bold" font-size="11.00" fill="#000000">cursos</text>
<text text-anchor="start" x="96.5437" y="-267.8" font-family="Helvetica,sans-Serif" font-size="11.00" fill="#000000">[table]</text>
<polygon fill="none" stroke="#000000" points="8.5,-237.7 8.5,-259.7 131.5,-259.7 131.5,-237.7 8.5,-237.7"/>
<image xlink:href="../../images/primaryKeys.png" width="11px" height="12px" preserveAspectRatio="xMinYMin meet" x="13.5" y="-254.7"/>
<text text-anchor="start" x="28.5" y="-244.8" font-family="Helvetica,sans-Serif" font-size="11.00" fill="#000000">curso_id</text>
<polygon fill="none" stroke="#000000" points="8.5,-218.7 8.5,-237.7 131.5,-237.7 131.5,-218.7 8.5,-218.7"/>
<text text-anchor="start" x="11.5" y="-224.8" font-family="Helvetica,sans-Serif" font-size="11.00" fill="#000000">...</text>
<polygon fill="#ffffff" stroke="transparent" points="8.5,-199.7 8.5,-218.7 46.5,-218.7 46.5,-199.7 8.5,-199.7"/>
<polygon fill="none" stroke="#000000" points="8.5,-199.7 8.5,-218.7 46.5,-218.7 46.5,-199.7 8.5,-199.7"/>
<text text-anchor="start" x="11.5" y="-205.8" font-family="Helvetica,sans-Serif" font-size="11.00" fill="#000000"> &#160;</text>
<polygon fill="#ffffff" stroke="transparent" points="46.5,-199.7 46.5,-218.7 97.5,-218.7 97.5,-199.7 46.5,-199.7"/>
<polygon fill="none" stroke="#000000" points="46.5,-199.7 46.5,-218.7 97.5,-218.7 97.5,-199.7 46.5,-199.7"/>
<text text-anchor="start" x="62.1105" y="-205.8" font-family="Helvetica,sans-Serif" font-size="11.00" fill="#000000">4 rows</text>
<polygon fill="#ffffff" stroke="transparent" points="97.5,-199.7 97.5,-218.7 131.5,-218.7 131.5,-199.7 97.5,-199.7"/>
<polygon fill="none" stroke="#000000" points="97.5,-199.7 97.5,-218.7 131.5,-218.7 131.5,-199.7 97.5,-199.7"/>
<text text-anchor="start" x="112.9053" y="-205.8" font-family="Helvetica,sans-Serif" font-size="11.00" fill="#000000">3 &gt;</text>
</a>
</g>
</g>
<!-- leads&#45;&gt;cursos -->
<g id="edge4" class="edge">
<title>leads:w&#45;&gt;cursos:e</title>
<path fill="none" stroke="#000000" d="M168.1123,-243.6375C155.9082,-245.325 148.6172,-248.7 131.5,-248.7"/>
<polygon fill="#000000" stroke="#000000" points="174.5169,-243.2202 182.7341,-246.2924 178.5085,-242.9601 182.5,-242.7 182.5,-242.7 182.5,-242.7 178.5085,-242.9601 182.2659,-239.1076 174.5169,-243.2202 174.5169,-243.2202"/>
<ellipse fill="none" stroke="#000000" cx="171.3237" cy="-243.4283" rx="3.2" ry="3.2"/>
</g>
<!-- personas -->
<g id="node6" class="node">
<title>personas</title>
<g id="a_node6"><a xlink:href="../../tables/personas.html" xlink:title="personas" target="_top">
<polygon fill="#ffffff" stroke="transparent" points="8,-304.2 8,-387.2 131,-387.2 131,-304.2 8,-304.2"/>
<polygon fill="#f5f5f5" stroke="transparent" points="8.5,-363.7 8.5,-386.7 131.5,-386.7 131.5,-363.7 8.5,-363.7"/>
<polygon fill="none" stroke="#000000" points="8.5,-363.7 8.5,-386.7 131.5,-386.7 131.5,-363.7 8.5,-363.7"/>
<text text-anchor="start" x="13.5" y="-372.8" font-family="Helvetica,sans-Serif" font-weight="bold" font-size="11.00" fill="#000000">personas</text>
<text text-anchor="start" x="96.5437" y="-371.8" font-family="Helvetica,sans-Serif" font-size="11.00" fill="#000000">[table]</text>
<polygon fill="none" stroke="#000000" points="8.5,-341.7 8.5,-363.7 131.5,-363.7 131.5,-341.7 8.5,-341.7"/>
<image xlink:href="../../images/primaryKeys.png" width="11px" height="12px" preserveAspectRatio="xMinYMin meet" x="13.5" y="-358.7"/>
<text text-anchor="start" x="28.5" y="-348.8" font-family="Helvetica,sans-Serif" font-size="11.00" fill="#000000">persona_id</text>
<polygon fill="none" stroke="#000000" points="8.5,-322.7 8.5,-341.7 131.5,-341.7 131.5,-322.7 8.5,-322.7"/>
<text text-anchor="start" x="11.5" y="-328.8" font-family="Helvetica,sans-Serif" font-size="11.00" fill="#000000">...</text>
<polygon fill="#ffffff" stroke="transparent" points="8.5,-303.7 8.5,-322.7 43.5,-322.7 43.5,-303.7 8.5,-303.7"/>
<polygon fill="none" stroke="#000000" points="8.5,-303.7 8.5,-322.7 43.5,-322.7 43.5,-303.7 8.5,-303.7"/>
<text text-anchor="start" x="11.5" y="-309.8" font-family="Helvetica,sans-Serif" font-size="11.00" fill="#000000"> &#160;</text>
<polygon fill="#ffffff" stroke="transparent" points="43.5,-303.7 43.5,-322.7 98.5,-322.7 98.5,-303.7 43.5,-303.7"/>
<polygon fill="none" stroke="#000000" points="43.5,-303.7 43.5,-322.7 98.5,-322.7 98.5,-303.7 43.5,-303.7"/>
<text text-anchor="start" x="56.9956" y="-309.8" font-family="Helvetica,sans-Serif" font-size="11.00" fill="#000000">14 rows</text>
<polygon fill="#ffffff" stroke="transparent" points="98.5,-303.7 98.5,-322.7 131.5,-322.7 131.5,-303.7 98.5,-303.7"/>
<polygon fill="none" stroke="#000000" points="98.5,-303.7 98.5,-322.7 131.5,-322.7 131.5,-303.7 98.5,-303.7"/>
<text text-anchor="start" x="112.9053" y="-309.8" font-family="Helvetica,sans-Serif" font-size="11.00" fill="#000000">7 &gt;</text>
</a>
</g>
</g>
<!-- leads&#45;&gt;personas -->
<g id="edge5" class="edge">
<title>leads:w&#45;&gt;personas:e</title>
<path fill="none" stroke="#000000" d="M167.776,-352.7C155.7815,-352.7 148.3229,-352.7 131.5,-352.7"/>
<polygon fill="#000000" stroke="#000000" points="174.5,-352.7001 182.5,-356.3 178.5,-352.7 182.5,-352.7 182.5,-352.7 182.5,-352.7 178.5,-352.7 182.5,-349.1 174.5,-352.7001 174.5,-352.7001"/>
<ellipse fill="none" stroke="#000000" cx="171.3" cy="-352.7001" rx="3.2" ry="3.2"/>
</g>
<!-- llamadas -->
<g id="node7" class="node">
<title>llamadas</title>
<g id="a_node7"><a xlink:href="../../tables/llamadas.html" xlink:title="llamadas" target="_top">
<polygon fill="#ffffff" stroke="transparent" points="528,-208.2 528,-357.2 651,-357.2 651,-208.2 528,-208.2"/>
<polygon fill="#f5f5f5" stroke="transparent" points="528.5,-333.7 528.5,-356.7 651.5,-356.7 651.5,-333.7 528.5,-333.7"/>
<polygon fill="none" stroke="#000000" points="528.5,-333.7 528.5,-356.7 651.5,-356.7 651.5,-333.7 528.5,-333.7"/>
<text text-anchor="start" x="533.5" y="-342.8" font-family="Helvetica,sans-Serif" font-weight="bold" font-size="11.00" fill="#000000">llamadas</text>
<text text-anchor="start" x="616.5437" y="-341.8" font-family="Helvetica,sans-Serif" font-size="11.00" fill="#000000">[table]</text>
<polygon fill="none" stroke="#000000" points="528.5,-311.7 528.5,-333.7 651.5,-333.7 651.5,-311.7 528.5,-311.7"/>
<image xlink:href="../../images/primaryKeys.png" width="11px" height="12px" preserveAspectRatio="xMinYMin meet" x="533.5" y="-328.7"/>
<text text-anchor="start" x="548.5" y="-318.8" font-family="Helvetica,sans-Serif" font-size="11.00" fill="#000000">llamada_id</text>
<polygon fill="none" stroke="#000000" points="528.5,-289.7 528.5,-311.7 651.5,-311.7 651.5,-289.7 528.5,-289.7"/>
<image xlink:href="../../images/foreignKeys.png" width="11px" height="12px" preserveAspectRatio="xMinYMin meet" x="533.5" y="-306.7"/>
<text text-anchor="start" x="548.5" y="-296.8" font-family="Helvetica,sans-Serif" font-size="11.00" fill="#000000">contacto_id</text>
<polygon fill="none" stroke="#000000" points="528.5,-267.7 528.5,-289.7 651.5,-289.7 651.5,-267.7 528.5,-267.7"/>
<image xlink:href="../../images/foreignKeys.png" width="11px" height="12px" preserveAspectRatio="xMinYMin meet" x="533.5" y="-284.7"/>
<text text-anchor="start" x="548.5" y="-274.8" font-family="Helvetica,sans-Serif" font-size="11.00" fill="#000000">lead_id</text>
<polygon fill="none" stroke="#000000" points="528.5,-245.7 528.5,-267.7 651.5,-267.7 651.5,-245.7 528.5,-245.7"/>
<image xlink:href="../../images/foreignKeys.png" width="11px" height="12px" preserveAspectRatio="xMinYMin meet" x="533.5" y="-262.7"/>
<text text-anchor="start" x="548.5" y="-252.8" font-family="Helvetica,sans-Serif" font-size="11.00" fill="#000000">usu_asignado_id</text>
<polygon fill="none" stroke="#000000" points="528.5,-226.7 528.5,-245.7 651.5,-245.7 651.5,-226.7 528.5,-226.7"/>
<text text-anchor="start" x="531.5" y="-232.8" font-family="Helvetica,sans-Serif" font-size="11.00" fill="#000000">...</text>
<polygon fill="#ffffff" stroke="transparent" points="528.5,-207.7 528.5,-226.7 578.5,-226.7 578.5,-207.7 528.5,-207.7"/>
<polygon fill="none" stroke="#000000" points="528.5,-207.7 528.5,-226.7 578.5,-226.7 578.5,-207.7 528.5,-207.7"/>
<text text-anchor="start" x="531.5" y="-213.8" font-family="Helvetica,sans-Serif" font-size="11.00" fill="#000000">&lt; 3</text>
<polygon fill="#ffffff" stroke="transparent" points="578.5,-207.7 578.5,-226.7 624.5,-226.7 624.5,-207.7 578.5,-207.7"/>
<polygon fill="none" stroke="#000000" points="578.5,-207.7 578.5,-226.7 624.5,-226.7 624.5,-207.7 578.5,-207.7"/>
<text text-anchor="start" x="594.6105" y="-213.8" font-family="Helvetica,sans-Serif" font-size="11.00" fill="#000000">1 row</text>
<polygon fill="#ffffff" stroke="transparent" points="624.5,-207.7 624.5,-226.7 651.5,-226.7 651.5,-207.7 624.5,-207.7"/>
<polygon fill="none" stroke="#000000" points="624.5,-207.7 624.5,-226.7 651.5,-226.7 651.5,-207.7 624.5,-207.7"/>
<text text-anchor="start" x="642.3862" y="-213.8" font-family="Helvetica,sans-Serif" font-size="11.00" fill="#000000"> &#160;</text>
</a>
</g>
</g>
<!-- llamadas&#45;&gt;leads -->
<g id="edge7" class="edge">
<title>llamadas:w&#45;&gt;leads:e</title>
<path fill="none" stroke="#000000" d="M514.1681,-281.0264C458.509,-302.3261 556.7257,-462.7 477.5,-462.7"/>
<polygon fill="#000000" stroke="#000000" points="520.6034,-279.9819 529.0768,-282.2535 524.5517,-279.3409 528.5,-278.7 528.5,-278.7 528.5,-278.7 524.5517,-279.3409 527.9232,-275.1465 520.6034,-279.9819 520.6034,-279.9819"/>
<ellipse fill="none" stroke="#000000" cx="517.4447" cy="-280.4946" rx="3.2" ry="3.2"/>
</g>
<!-- llamadas&#45;&gt;usuarios -->
<g id="edge8" class="edge">
<title>llamadas:w&#45;&gt;usuarios:e</title>
<path fill="none" stroke="#000000" d="M514.5222,-253.0113C495.6143,-239.5162 516.3609,-192.5833 487,-172.7 355.7705,-83.8311 289.9893,-144.7 131.5,-144.7"/>
<polygon fill="#000000" stroke="#000000" points="520.7648,-254.6587 527.5814,-260.1808 524.6324,-255.6793 528.5,-256.7 528.5,-256.7 528.5,-256.7 524.6324,-255.6793 529.4186,-253.2192 520.7648,-254.6587 520.7648,-254.6587"/>
<ellipse fill="none" stroke="#000000" cx="517.6707" cy="-253.8421" rx="3.2" ry="3.2"/>
</g>
<!-- tareas -->
<g id="node8" class="node">
<title>tareas</title>
<g id="a_node8"><a xlink:href="../../tables/tareas.html" xlink:title="tareas" target="_top">
<polygon fill="#ffffff" stroke="transparent" points="528,-38.2 528,-187.2 651,-187.2 651,-38.2 528,-38.2"/>
<polygon fill="#f5f5f5" stroke="transparent" points="528.5,-163.7 528.5,-186.7 651.5,-186.7 651.5,-163.7 528.5,-163.7"/>
<polygon fill="none" stroke="#000000" points="528.5,-163.7 528.5,-186.7 651.5,-186.7 651.5,-163.7 528.5,-163.7"/>
<text text-anchor="start" x="533.5" y="-172.8" font-family="Helvetica,sans-Serif" font-weight="bold" font-size="11.00" fill="#000000">tareas</text>
<text text-anchor="start" x="616.5437" y="-171.8" font-family="Helvetica,sans-Serif" font-size="11.00" fill="#000000">[table]</text>
<polygon fill="none" stroke="#000000" points="528.5,-141.7 528.5,-163.7 651.5,-163.7 651.5,-141.7 528.5,-141.7"/>
<image xlink:href="../../images/primaryKeys.png" width="11px" height="12px" preserveAspectRatio="xMinYMin meet" x="533.5" y="-158.7"/>
<text text-anchor="start" x="548.5" y="-148.8" font-family="Helvetica,sans-Serif" font-size="11.00" fill="#000000">tarea_id</text>
<polygon fill="none" stroke="#000000" points="528.5,-119.7 528.5,-141.7 651.5,-141.7 651.5,-119.7 528.5,-119.7"/>
<image xlink:href="../../images/foreignKeys.png" width="11px" height="12px" preserveAspectRatio="xMinYMin meet" x="533.5" y="-136.7"/>
<text text-anchor="start" x="548.5" y="-126.8" font-family="Helvetica,sans-Serif" font-size="11.00" fill="#000000">contacto_id</text>
<polygon fill="none" stroke="#000000" points="528.5,-97.7 528.5,-119.7 651.5,-119.7 651.5,-97.7 528.5,-97.7"/>
<image xlink:href="../../images/foreignKeys.png" width="11px" height="12px" preserveAspectRatio="xMinYMin meet" x="533.5" y="-114.7"/>
<text text-anchor="start" x="548.5" y="-104.8" font-family="Helvetica,sans-Serif" font-size="11.00" fill="#000000">lead_id</text>
<polygon fill="none" stroke="#000000" points="528.5,-75.7 528.5,-97.7 651.5,-97.7 651.5,-75.7 528.5,-75.7"/>
<image xlink:href="../../images/foreignKeys.png" width="11px" height="12px" preserveAspectRatio="xMinYMin meet" x="533.5" y="-92.7"/>
<text text-anchor="start" x="548.5" y="-82.8" font-family="Helvetica,sans-Serif" font-size="11.00" fill="#000000">usu_asignado_id</text>
<polygon fill="none" stroke="#000000" points="528.5,-56.7 528.5,-75.7 651.5,-75.7 651.5,-56.7 528.5,-56.7"/>
<text text-anchor="start" x="531.5" y="-62.8" font-family="Helvetica,sans-Serif" font-size="11.00" fill="#000000">...</text>
<polygon fill="#ffffff" stroke="transparent" points="528.5,-37.7 528.5,-56.7 575.5,-56.7 575.5,-37.7 528.5,-37.7"/>
<polygon fill="none" stroke="#000000" points="528.5,-37.7 528.5,-56.7 575.5,-56.7 575.5,-37.7 528.5,-37.7"/>
<text text-anchor="start" x="531.5" y="-43.8" font-family="Helvetica,sans-Serif" font-size="11.00" fill="#000000">&lt; 3</text>
<polygon fill="#ffffff" stroke="transparent" points="575.5,-37.7 575.5,-56.7 626.5,-56.7 626.5,-37.7 575.5,-37.7"/>
<polygon fill="none" stroke="#000000" points="575.5,-37.7 575.5,-56.7 626.5,-56.7 626.5,-37.7 575.5,-37.7"/>
<text text-anchor="start" x="591.1105" y="-43.8" font-family="Helvetica,sans-Serif" font-size="11.00" fill="#000000">3 rows</text>
<polygon fill="#ffffff" stroke="transparent" points="626.5,-37.7 626.5,-56.7 651.5,-56.7 651.5,-37.7 626.5,-37.7"/>
<polygon fill="none" stroke="#000000" points="626.5,-37.7 626.5,-56.7 651.5,-56.7 651.5,-37.7 626.5,-37.7"/>
<text text-anchor="start" x="642.3862" y="-43.8" font-family="Helvetica,sans-Serif" font-size="11.00" fill="#000000"> &#160;</text>
</a>
</g>
</g>
<!-- tareas&#45;&gt;leads -->
<g id="edge9" class="edge">
<title>tareas:w&#45;&gt;leads:e</title>
<path fill="none" stroke="#000000" d="M514.7085,-113.4366C462.9051,-155.4442 551.5457,-462.7 477.5,-462.7"/>
<polygon fill="#000000" stroke="#000000" points="520.9338,-111.2986 529.6694,-112.1048 524.7169,-109.9993 528.5,-108.7 528.5,-108.7 528.5,-108.7 524.7169,-109.9993 527.3306,-105.2952 520.9338,-111.2986 520.9338,-111.2986"/>
<ellipse fill="none" stroke="#000000" cx="517.9073" cy="-112.338" rx="3.2" ry="3.2"/>
</g>
<!-- tareas&#45;&gt;usuarios -->
<g id="edge10" class="edge">
<title>tareas:w&#45;&gt;usuarios:e</title>
<path fill="none" stroke="#000000" d="M513.8391,-86.7831C365.8887,-88.4892 325.4679,-116.1394 172,-138.7 153.997,-141.3465 149.6965,-144.7 131.5,-144.7"/>
<polygon fill="#000000" stroke="#000000" points="520.5001,-86.7454 528.5204,-90.2999 524.5001,-86.7227 528.5,-86.7 528.5,-86.7 528.5,-86.7 524.5001,-86.7227 528.4796,-83.1001 520.5001,-86.7454 520.5001,-86.7454"/>
<ellipse fill="none" stroke="#000000" cx="517.3002" cy="-86.7635" rx="3.2" ry="3.2"/>
</g>
</g>
</svg>
