<?xml version="1.0" encoding="UTF-8" standalone="no"?>
<!DOCTYPE svg PUBLIC "-//W3C//DTD SVG 1.1//EN"
 "http://www.w3.org/Graphics/SVG/1.1/DTD/svg11.dtd">
<!-- Generated by graphviz version 2.40.1 (20161225.0304)
 -->
<!-- Title: oneDegreeRelationshipsDiagram Pages: 1 -->
<svg width="327pt" height="162pt"
 viewBox="0.00 0.00 327.00 162.20" xmlns="http://www.w3.org/2000/svg" xmlns:xlink="http://www.w3.org/1999/xlink">
<g id="graph0" class="graph" transform="scale(1 1) rotate(0) translate(4 158.2)">
<title>oneDegreeRelationshipsDiagram</title>
<polygon fill="#ffffff" stroke="transparent" points="-4,4 -4,-158.2 323,-158.2 323,4 -4,4"/>
<text text-anchor="middle" x="72.4936" y="-7.3" font-family="Helvetica,sans-Serif" font-size="11.00" fill="#000000">Generated by SchemaSpy</text>
<!-- leads -->
<g id="node1" class="node">
<title>leads</title>
<g id="a_node1"><a xlink:href="../../tables/leads.html" xlink:title="leads" target="_top">
<polygon fill="#ffffff" stroke="transparent" points="180,-38.2 180,-150.2 311,-150.2 311,-38.2 180,-38.2"/>
<polygon fill="#f5f5f5" stroke="transparent" points="182.5,-125.2 182.5,-148.2 309.5,-148.2 309.5,-125.2 182.5,-125.2"/>
<polygon fill="none" stroke="#000000" points="182.5,-125.2 182.5,-148.2 309.5,-148.2 309.5,-125.2 182.5,-125.2"/>
<text text-anchor="start" x="187.5" y="-134.3" font-family="Helvetica,sans-Serif" font-weight="bold" font-size="11.00" fill="#000000">leads</text>
<text text-anchor="start" x="274.5437" y="-133.3" font-family="Helvetica,sans-Serif" font-size="11.00" fill="#000000">[table]</text>
<polygon fill="none" stroke="#000000" points="182.5,-103.2 182.5,-125.2 267.5,-125.2 267.5,-103.2 182.5,-103.2"/>
<image xlink:href="../../images/primaryKeys.png" width="11px" height="12px" preserveAspectRatio="xMinYMin meet" x="187.5" y="-120.2"/>
<text text-anchor="start" x="202.5" y="-110.3" font-family="Helvetica,sans-Serif" font-size="11.00" fill="#000000">lead_id</text>
<polygon fill="none" stroke="#000000" points="267.5,-103.2 267.5,-125.2 309.5,-125.2 309.5,-103.2 267.5,-103.2"/>
<text text-anchor="start" x="270.4644" y="-110.9" font-family="Helvetica,sans-Serif" font-size="11.00" fill="#000000">int4[10]</text>
<polygon fill="none" stroke="#000000" points="182.5,-81.2 182.5,-103.2 267.5,-103.2 267.5,-81.2 182.5,-81.2"/>
<image xlink:href="../../images/foreignKeys.png" width="11px" height="12px" preserveAspectRatio="xMinYMin meet" x="187.5" y="-98.2"/>
<text text-anchor="start" x="202.5" y="-88.3" font-family="Helvetica,sans-Serif" font-size="11.00" fill="#000000">persona_id</text>
<polygon fill="none" stroke="#000000" points="267.5,-81.2 267.5,-103.2 309.5,-103.2 309.5,-81.2 267.5,-81.2"/>
<text text-anchor="start" x="270.4644" y="-88.9" font-family="Helvetica,sans-Serif" font-size="11.00" fill="#000000">int4[10]</text>
<polygon fill="none" stroke="#000000" points="182.5,-59.2 182.5,-81.2 267.5,-81.2 267.5,-59.2 182.5,-59.2"/>
<text text-anchor="start" x="202.5" y="-66.3" font-family="Helvetica,sans-Serif" font-size="11.00" fill="#000000">estado</text>
<polygon fill="none" stroke="#000000" points="267.5,-59.2 267.5,-81.2 309.5,-81.2 309.5,-59.2 267.5,-59.2"/>
<text text-anchor="start" x="270.4644" y="-66.9" font-family="Helvetica,sans-Serif" font-size="11.00" fill="#000000">int4[10]</text>
<polygon fill="#ffffff" stroke="transparent" points="182.5,-40.2 182.5,-59.2 216.5,-59.2 216.5,-40.2 182.5,-40.2"/>
<polygon fill="none" stroke="#000000" points="182.5,-40.2 182.5,-59.2 216.5,-59.2 216.5,-40.2 182.5,-40.2"/>
<text text-anchor="start" x="185.5" y="-46.3" font-family="Helvetica,sans-Serif" font-size="11.00" fill="#000000">&lt; 1</text>
<polygon fill="#ffffff" stroke="transparent" points="216.5,-40.2 216.5,-59.2 267.5,-59.2 267.5,-40.2 216.5,-40.2"/>
<polygon fill="none" stroke="#000000" points="216.5,-40.2 216.5,-59.2 267.5,-59.2 267.5,-40.2 216.5,-40.2"/>
<text text-anchor="start" x="232.1105" y="-46.3" font-family="Helvetica,sans-Serif" font-size="11.00" fill="#000000">0 rows</text>
<polygon fill="#ffffff" stroke="transparent" points="267.5,-40.2 267.5,-59.2 309.5,-59.2 309.5,-40.2 267.5,-40.2"/>
<polygon fill="none" stroke="#000000" points="267.5,-40.2 267.5,-59.2 309.5,-59.2 309.5,-40.2 267.5,-40.2"/>
<text text-anchor="start" x="290.9053" y="-46.3" font-family="Helvetica,sans-Serif" font-size="11.00" fill="#000000">0 &gt;</text>
<polygon fill="none" stroke="#000000" stroke-width="2" points="181,-39.2 181,-149.2 310,-149.2 310,-39.2 181,-39.2"/>
</a>
</g>
</g>
<!-- personas -->
<g id="node2" class="node">
<title>personas</title>
<g id="a_node2"><a xlink:href="../../tables/personas.html" xlink:title="personas" target="_top">
<polygon fill="#ffffff" stroke="transparent" points="8,-43.7 8,-126.7 131,-126.7 131,-43.7 8,-43.7"/>
<polygon fill="#f5f5f5" stroke="transparent" points="8.5,-103.2 8.5,-126.2 131.5,-126.2 131.5,-103.2 8.5,-103.2"/>
<polygon fill="none" stroke="#000000" points="8.5,-103.2 8.5,-126.2 131.5,-126.2 131.5,-103.2 8.5,-103.2"/>
<text text-anchor="start" x="13.5" y="-112.3" font-family="Helvetica,sans-Serif" font-weight="bold" font-size="11.00" fill="#000000">personas</text>
<text text-anchor="start" x="96.5437" y="-111.3" font-family="Helvetica,sans-Serif" font-size="11.00" fill="#000000">[table]</text>
<polygon fill="none" stroke="#000000" points="8.5,-81.2 8.5,-103.2 131.5,-103.2 131.5,-81.2 8.5,-81.2"/>
<image xlink:href="../../images/primaryKeys.png" width="11px" height="12px" preserveAspectRatio="xMinYMin meet" x="13.5" y="-98.2"/>
<text text-anchor="start" x="28.5" y="-88.3" font-family="Helvetica,sans-Serif" font-size="11.00" fill="#000000">persona_id</text>
<polygon fill="none" stroke="#000000" points="8.5,-62.2 8.5,-81.2 131.5,-81.2 131.5,-62.2 8.5,-62.2"/>
<text text-anchor="start" x="11.5" y="-68.3" font-family="Helvetica,sans-Serif" font-size="11.00" fill="#000000">...</text>
<polygon fill="#ffffff" stroke="transparent" points="8.5,-43.2 8.5,-62.2 46.5,-62.2 46.5,-43.2 8.5,-43.2"/>
<polygon fill="none" stroke="#000000" points="8.5,-43.2 8.5,-62.2 46.5,-62.2 46.5,-43.2 8.5,-43.2"/>
<text text-anchor="start" x="11.5" y="-49.3" font-family="Helvetica,sans-Serif" font-size="11.00" fill="#000000"> &#160;</text>
<polygon fill="#ffffff" stroke="transparent" points="46.5,-43.2 46.5,-62.2 97.5,-62.2 97.5,-43.2 46.5,-43.2"/>
<polygon fill="none" stroke="#000000" points="46.5,-43.2 46.5,-62.2 97.5,-62.2 97.5,-43.2 46.5,-43.2"/>
<text text-anchor="start" x="62.1105" y="-49.3" font-family="Helvetica,sans-Serif" font-size="11.00" fill="#000000">0 rows</text>
<polygon fill="#ffffff" stroke="transparent" points="97.5,-43.2 97.5,-62.2 131.5,-62.2 131.5,-43.2 97.5,-43.2"/>
<polygon fill="none" stroke="#000000" points="97.5,-43.2 97.5,-62.2 131.5,-62.2 131.5,-43.2 97.5,-43.2"/>
<text text-anchor="start" x="112.9053" y="-49.3" font-family="Helvetica,sans-Serif" font-size="11.00" fill="#000000">1 &gt;</text>
</a>
</g>
</g>
<!-- leads&#45;&gt;personas -->
<g id="edge1" class="edge">
<title>leads:w&#45;&gt;personas:e</title>
<path fill="none" stroke="#000000" d="M167.776,-92.2C155.7815,-92.2 148.3229,-92.2 131.5,-92.2"/>
<polygon fill="#000000" stroke="#000000" points="174.5,-92.2001 182.5,-95.8 178.5,-92.2 182.5,-92.2 182.5,-92.2 182.5,-92.2 178.5,-92.2 182.5,-88.6 174.5,-92.2001 174.5,-92.2001"/>
<ellipse fill="none" stroke="#000000" cx="171.3" cy="-92.2001" rx="3.2" ry="3.2"/>
</g>
</g>
</svg>
