<?xml version="1.0" encoding="UTF-8" standalone="no"?>
<!DOCTYPE svg PUBLIC "-//W3C//DTD SVG 1.1//EN"
 "http://www.w3.org/Graphics/SVG/1.1/DTD/svg11.dtd">
<!-- Generated by graphviz version 2.40.1 (20161225.0304)
 -->
<!-- Title: oneDegreeRelationshipsDiagramImplied Pages: 1 -->
<svg width="495pt" height="467pt"
 viewBox="0.00 0.00 495.00 467.20" xmlns="http://www.w3.org/2000/svg" xmlns:xlink="http://www.w3.org/1999/xlink">
<g id="graph0" class="graph" transform="scale(1 1) rotate(0) translate(4 463.2)">
<title>oneDegreeRelationshipsDiagramImplied</title>
<polygon fill="#ffffff" stroke="transparent" points="-4,4 -4,-463.2 491,-463.2 491,4 -4,4"/>
<text text-anchor="middle" x="72.4936" y="-7.3" font-family="Helvetica,sans-Serif" font-size="11.00" fill="#000000">Generated by SchemaSpy</text>
<!-- leads -->
<g id="node1" class="node">
<title>leads</title>
<g id="a_node1"><a xlink:href="../../tables/leads.html" xlink:title="leads" target="_top">
<polygon fill="#ffffff" stroke="transparent" points="180,-78.7 180,-366.7 479,-366.7 479,-78.7 180,-78.7"/>
<polygon fill="#f5f5f5" stroke="transparent" points="182.5,-341.7 182.5,-364.7 477.5,-364.7 477.5,-341.7 182.5,-341.7"/>
<polygon fill="none" stroke="#000000" points="182.5,-341.7 182.5,-364.7 477.5,-364.7 477.5,-341.7 182.5,-341.7"/>
<text text-anchor="start" x="187.5" y="-350.8" font-family="Helvetica,sans-Serif" font-weight="bold" font-size="11.00" fill="#000000">leads</text>
<text text-anchor="start" x="442.5437" y="-349.8" font-family="Helvetica,sans-Serif" font-size="11.00" fill="#000000">[table]</text>
<polygon fill="none" stroke="#000000" points="182.5,-319.7 182.5,-341.7 305.5,-341.7 305.5,-319.7 182.5,-319.7"/>
<image xlink:href="../../images/primaryKeys.png" width="11px" height="12px" preserveAspectRatio="xMinYMin meet" x="187.5" y="-336.7"/>
<text text-anchor="start" x="202.5" y="-326.8" font-family="Helvetica,sans-Serif" font-size="11.00" fill="#000000">lead_id</text>
<polygon fill="none" stroke="#000000" points="305.5,-319.7 305.5,-341.7 477.5,-341.7 477.5,-319.7 305.5,-319.7"/>
<text text-anchor="start" x="308.5" y="-327.4" font-family="Helvetica,sans-Serif" font-size="11.00" fill="#000000">serial[10]</text>
<polygon fill="none" stroke="#000000" points="182.5,-297.7 182.5,-319.7 305.5,-319.7 305.5,-297.7 182.5,-297.7"/>
<text text-anchor="start" x="202.5" y="-304.8" font-family="Helvetica,sans-Serif" font-size="11.00" fill="#000000">estado</text>
<polygon fill="none" stroke="#000000" points="305.5,-297.7 305.5,-319.7 477.5,-319.7 477.5,-297.7 305.5,-297.7"/>
<text text-anchor="start" x="308.3494" y="-305.4" font-family="Helvetica,sans-Serif" font-size="11.00" fill="#000000">enum_leads_estado[2147483647]</text>
<polygon fill="none" stroke="#000000" points="182.5,-275.7 182.5,-297.7 305.5,-297.7 305.5,-275.7 182.5,-275.7"/>
<image xlink:href="../../images/foreignKeys.png" width="11px" height="12px" preserveAspectRatio="xMinYMin meet" x="187.5" y="-292.7"/>
<text text-anchor="start" x="202.5" y="-282.8" font-family="Helvetica,sans-Serif" font-size="11.00" fill="#000000">usu_asignado_id</text>
<polygon fill="none" stroke="#000000" points="305.5,-275.7 305.5,-297.7 477.5,-297.7 477.5,-275.7 305.5,-275.7"/>
<text text-anchor="start" x="308.5" y="-283.4" font-family="Helvetica,sans-Serif" font-size="11.00" fill="#000000">int4[10]</text>
<polygon fill="none" stroke="#000000" points="182.5,-253.7 182.5,-275.7 305.5,-275.7 305.5,-253.7 182.5,-253.7"/>
<image xlink:href="../../images/foreignKeys.png" width="11px" height="12px" preserveAspectRatio="xMinYMin meet" x="187.5" y="-270.7"/>
<text text-anchor="start" x="202.5" y="-260.8" font-family="Helvetica,sans-Serif" font-size="11.00" fill="#000000">campana_id</text>
<polygon fill="none" stroke="#000000" points="305.5,-253.7 305.5,-275.7 477.5,-275.7 477.5,-253.7 305.5,-253.7"/>
<text text-anchor="start" x="308.5" y="-261.4" font-family="Helvetica,sans-Serif" font-size="11.00" fill="#000000">int4[10]</text>
<polygon fill="none" stroke="#000000" points="182.5,-231.7 182.5,-253.7 305.5,-253.7 305.5,-231.7 182.5,-231.7"/>
<text text-anchor="start" x="202.5" y="-238.8" font-family="Helvetica,sans-Serif" font-size="11.00" fill="#000000">origen</text>
<polygon fill="none" stroke="#000000" points="305.5,-231.7 305.5,-253.7 477.5,-253.7 477.5,-231.7 305.5,-231.7"/>
<text text-anchor="start" x="308.5" y="-239.4" font-family="Helvetica,sans-Serif" font-size="11.00" fill="#000000">enum_leads_origen[2147483647]</text>
<polygon fill="none" stroke="#000000" points="182.5,-209.7 182.5,-231.7 305.5,-231.7 305.5,-209.7 182.5,-209.7"/>
<image xlink:href="../../images/foreignKeys.png" width="11px" height="12px" preserveAspectRatio="xMinYMin meet" x="187.5" y="-226.7"/>
<text text-anchor="start" x="202.5" y="-216.8" font-family="Helvetica,sans-Serif" font-size="11.00" fill="#000000">persona_id</text>
<polygon fill="none" stroke="#000000" points="305.5,-209.7 305.5,-231.7 477.5,-231.7 477.5,-209.7 305.5,-209.7"/>
<text text-anchor="start" x="308.5" y="-217.4" font-family="Helvetica,sans-Serif" font-size="11.00" fill="#000000">int4[10]</text>
<polygon fill="none" stroke="#000000" points="182.5,-187.7 182.5,-209.7 305.5,-209.7 305.5,-187.7 182.5,-187.7"/>
<image xlink:href="../../images/foreignKeys.png" width="11px" height="12px" preserveAspectRatio="xMinYMin meet" x="187.5" y="-204.7"/>
<text text-anchor="start" x="202.5" y="-194.8" font-family="Helvetica,sans-Serif" font-size="11.00" fill="#000000">curso_id</text>
<polygon fill="none" stroke="#000000" points="305.5,-187.7 305.5,-209.7 477.5,-209.7 477.5,-187.7 305.5,-187.7"/>
<text text-anchor="start" x="308.5" y="-195.4" font-family="Helvetica,sans-Serif" font-size="11.00" fill="#000000">int4[10]</text>
<polygon fill="none" stroke="#000000" points="182.5,-165.7 182.5,-187.7 305.5,-187.7 305.5,-165.7 182.5,-165.7"/>
<text text-anchor="start" x="202.5" y="-172.8" font-family="Helvetica,sans-Serif" font-size="11.00" fill="#000000">usu_insercion</text>
<polygon fill="none" stroke="#000000" points="305.5,-165.7 305.5,-187.7 477.5,-187.7 477.5,-165.7 305.5,-165.7"/>
<text text-anchor="start" x="308.5" y="-173.4" font-family="Helvetica,sans-Serif" font-size="11.00" fill="#000000">varchar[20]</text>
<polygon fill="none" stroke="#000000" points="182.5,-143.7 182.5,-165.7 305.5,-165.7 305.5,-143.7 182.5,-143.7"/>
<text text-anchor="start" x="202.5" y="-150.8" font-family="Helvetica,sans-Serif" font-size="11.00" fill="#000000">fec_insercion</text>
<polygon fill="none" stroke="#000000" points="305.5,-143.7 305.5,-165.7 477.5,-165.7 477.5,-143.7 305.5,-143.7"/>
<text text-anchor="start" x="308.5" y="-151.4" font-family="Helvetica,sans-Serif" font-size="11.00" fill="#000000">timestamptz[35,6]</text>
<polygon fill="none" stroke="#000000" points="182.5,-121.7 182.5,-143.7 305.5,-143.7 305.5,-121.7 182.5,-121.7"/>
<text text-anchor="start" x="202.5" y="-128.8" font-family="Helvetica,sans-Serif" font-size="11.00" fill="#000000">fec_modificacion</text>
<polygon fill="none" stroke="#000000" points="305.5,-121.7 305.5,-143.7 477.5,-143.7 477.5,-121.7 305.5,-121.7"/>
<text text-anchor="start" x="308.5" y="-129.4" font-family="Helvetica,sans-Serif" font-size="11.00" fill="#000000">timestamptz[35,6]</text>
<polygon fill="none" stroke="#000000" points="182.5,-99.7 182.5,-121.7 305.5,-121.7 305.5,-99.7 182.5,-99.7"/>
<text text-anchor="start" x="202.5" y="-106.8" font-family="Helvetica,sans-Serif" font-size="11.00" fill="#000000">usu_modificacion</text>
<polygon fill="none" stroke="#000000" points="305.5,-99.7 305.5,-121.7 477.5,-121.7 477.5,-99.7 305.5,-99.7"/>
<text text-anchor="start" x="308.5" y="-107.4" font-family="Helvetica,sans-Serif" font-size="11.00" fill="#000000">varchar[20]</text>
<polygon fill="#ffffff" stroke="transparent" points="182.5,-80.7 182.5,-99.7 235.5,-99.7 235.5,-80.7 182.5,-80.7"/>
<polygon fill="none" stroke="#000000" points="182.5,-80.7 182.5,-99.7 235.5,-99.7 235.5,-80.7 182.5,-80.7"/>
<text text-anchor="start" x="185.5" y="-86.8" font-family="Helvetica,sans-Serif" font-size="11.00" fill="#000000">&lt; 4</text>
<polygon fill="#ffffff" stroke="transparent" points="235.5,-80.7 235.5,-99.7 305.5,-99.7 305.5,-80.7 235.5,-80.7"/>
<polygon fill="none" stroke="#000000" points="235.5,-80.7 235.5,-99.7 305.5,-99.7 305.5,-80.7 235.5,-80.7"/>
<text text-anchor="start" x="270.1105" y="-86.8" font-family="Helvetica,sans-Serif" font-size="11.00" fill="#000000">0 rows</text>
<polygon fill="#ffffff" stroke="transparent" points="305.5,-80.7 305.5,-99.7 477.5,-99.7 477.5,-80.7 305.5,-80.7"/>
<polygon fill="none" stroke="#000000" points="305.5,-80.7 305.5,-99.7 477.5,-99.7 477.5,-80.7 305.5,-80.7"/>
<text text-anchor="start" x="458.9053" y="-86.8" font-family="Helvetica,sans-Serif" font-size="11.00" fill="#000000">0 &gt;</text>
<polygon fill="none" stroke="#000000" stroke-width="2" points="181,-79.7 181,-365.7 478,-365.7 478,-79.7 181,-79.7"/>
</a>
</g>
</g>
<!-- campanas -->
<g id="node2" class="node">
<title>campanas</title>
<g id="a_node2"><a xlink:href="../../tables/campanas.html" xlink:title="campanas" target="_top">
<polygon fill="#ffffff" stroke="transparent" points="8,-246.2 8,-329.2 131,-329.2 131,-246.2 8,-246.2"/>
<polygon fill="#f5f5f5" stroke="transparent" points="8.5,-305.7 8.5,-328.7 131.5,-328.7 131.5,-305.7 8.5,-305.7"/>
<polygon fill="none" stroke="#000000" points="8.5,-305.7 8.5,-328.7 131.5,-328.7 131.5,-305.7 8.5,-305.7"/>
<text text-anchor="start" x="13.5" y="-314.8" font-family="Helvetica,sans-Serif" font-weight="bold" font-size="11.00" fill="#000000">campanas</text>
<text text-anchor="start" x="96.5437" y="-313.8" font-family="Helvetica,sans-Serif" font-size="11.00" fill="#000000">[table]</text>
<polygon fill="none" stroke="#000000" points="8.5,-283.7 8.5,-305.7 131.5,-305.7 131.5,-283.7 8.5,-283.7"/>
<image xlink:href="../../images/primaryKeys.png" width="11px" height="12px" preserveAspectRatio="xMinYMin meet" x="13.5" y="-300.7"/>
<text text-anchor="start" x="28.5" y="-290.8" font-family="Helvetica,sans-Serif" font-size="11.00" fill="#000000">campana_id</text>
<polygon fill="none" stroke="#000000" points="8.5,-264.7 8.5,-283.7 131.5,-283.7 131.5,-264.7 8.5,-264.7"/>
<text text-anchor="start" x="11.5" y="-270.8" font-family="Helvetica,sans-Serif" font-size="11.00" fill="#000000">...</text>
<polygon fill="#ffffff" stroke="transparent" points="8.5,-245.7 8.5,-264.7 46.5,-264.7 46.5,-245.7 8.5,-245.7"/>
<polygon fill="none" stroke="#000000" points="8.5,-245.7 8.5,-264.7 46.5,-264.7 46.5,-245.7 8.5,-245.7"/>
<text text-anchor="start" x="11.5" y="-251.8" font-family="Helvetica,sans-Serif" font-size="11.00" fill="#000000"> &#160;</text>
<polygon fill="#ffffff" stroke="transparent" points="46.5,-245.7 46.5,-264.7 97.5,-264.7 97.5,-245.7 46.5,-245.7"/>
<polygon fill="none" stroke="#000000" points="46.5,-245.7 46.5,-264.7 97.5,-264.7 97.5,-245.7 46.5,-245.7"/>
<text text-anchor="start" x="62.1105" y="-251.8" font-family="Helvetica,sans-Serif" font-size="11.00" fill="#000000">4 rows</text>
<polygon fill="#ffffff" stroke="transparent" points="97.5,-245.7 97.5,-264.7 131.5,-264.7 131.5,-245.7 97.5,-245.7"/>
<polygon fill="none" stroke="#000000" points="97.5,-245.7 97.5,-264.7 131.5,-264.7 131.5,-245.7 97.5,-245.7"/>
<text text-anchor="start" x="112.9053" y="-251.8" font-family="Helvetica,sans-Serif" font-size="11.00" fill="#000000">3 &gt;</text>
</a>
</g>
</g>
<!-- leads&#45;&gt;campanas -->
<g id="edge1" class="edge">
<title>leads:w&#45;&gt;campanas:e</title>
<path fill="none" stroke="#000000" stroke-dasharray="5,2" d="M168.2724,-268.622C155.4935,-276.7538 151.8394,-294.7 131.5,-294.7"/>
<polygon fill="#000000" stroke="#000000" points="174.7877,-266.826 183.4567,-268.1706 178.6438,-265.763 182.5,-264.7 182.5,-264.7 182.5,-264.7 178.6438,-265.763 181.5433,-261.2294 174.7877,-266.826 174.7877,-266.826"/>
<ellipse fill="none" stroke="#000000" cx="171.7027" cy="-267.6764" rx="3.2" ry="3.2"/>
</g>
<!-- cursos -->
<g id="node3" class="node">
<title>cursos</title>
<g id="a_node3"><a xlink:href="../../tables/cursos.html" xlink:title="cursos" target="_top">
<polygon fill="#ffffff" stroke="transparent" points="8,-38.2 8,-121.2 131,-121.2 131,-38.2 8,-38.2"/>
<polygon fill="#f5f5f5" stroke="transparent" points="8.5,-97.7 8.5,-120.7 131.5,-120.7 131.5,-97.7 8.5,-97.7"/>
<polygon fill="none" stroke="#000000" points="8.5,-97.7 8.5,-120.7 131.5,-120.7 131.5,-97.7 8.5,-97.7"/>
<text text-anchor="start" x="13.5" y="-106.8" font-family="Helvetica,sans-Serif" font-weight="bold" font-size="11.00" fill="#000000">cursos</text>
<text text-anchor="start" x="96.5437" y="-105.8" font-family="Helvetica,sans-Serif" font-size="11.00" fill="#000000">[table]</text>
<polygon fill="none" stroke="#000000" points="8.5,-75.7 8.5,-97.7 131.5,-97.7 131.5,-75.7 8.5,-75.7"/>
<image xlink:href="../../images/primaryKeys.png" width="11px" height="12px" preserveAspectRatio="xMinYMin meet" x="13.5" y="-92.7"/>
<text text-anchor="start" x="28.5" y="-82.8" font-family="Helvetica,sans-Serif" font-size="11.00" fill="#000000">curso_id</text>
<polygon fill="none" stroke="#000000" points="8.5,-56.7 8.5,-75.7 131.5,-75.7 131.5,-56.7 8.5,-56.7"/>
<text text-anchor="start" x="11.5" y="-62.8" font-family="Helvetica,sans-Serif" font-size="11.00" fill="#000000">...</text>
<polygon fill="#ffffff" stroke="transparent" points="8.5,-37.7 8.5,-56.7 46.5,-56.7 46.5,-37.7 8.5,-37.7"/>
<polygon fill="none" stroke="#000000" points="8.5,-37.7 8.5,-56.7 46.5,-56.7 46.5,-37.7 8.5,-37.7"/>
<text text-anchor="start" x="11.5" y="-43.8" font-family="Helvetica,sans-Serif" font-size="11.00" fill="#000000"> &#160;</text>
<polygon fill="#ffffff" stroke="transparent" points="46.5,-37.7 46.5,-56.7 97.5,-56.7 97.5,-37.7 46.5,-37.7"/>
<polygon fill="none" stroke="#000000" points="46.5,-37.7 46.5,-56.7 97.5,-56.7 97.5,-37.7 46.5,-37.7"/>
<text text-anchor="start" x="62.1105" y="-43.8" font-family="Helvetica,sans-Serif" font-size="11.00" fill="#000000">0 rows</text>
<polygon fill="#ffffff" stroke="transparent" points="97.5,-37.7 97.5,-56.7 131.5,-56.7 131.5,-37.7 97.5,-37.7"/>
<polygon fill="none" stroke="#000000" points="97.5,-37.7 97.5,-56.7 131.5,-56.7 131.5,-37.7 97.5,-37.7"/>
<text text-anchor="start" x="112.9053" y="-43.8" font-family="Helvetica,sans-Serif" font-size="11.00" fill="#000000">1 &gt;</text>
</a>
</g>
</g>
<!-- leads&#45;&gt;cursos -->
<g id="edge2" class="edge">
<title>leads:w&#45;&gt;cursos:e</title>
<path fill="none" stroke="#000000" stroke-dasharray="5,2" d="M168.3156,-194.9736C139.2247,-175.5398 180.2132,-86.7 131.5,-86.7"/>
<polygon fill="#000000" stroke="#000000" points="174.7626,-196.6672 181.5853,-202.1818 178.6313,-197.6836 182.5,-198.7 182.5,-198.7 182.5,-198.7 178.6313,-197.6836 183.4147,-195.2182 174.7626,-196.6672 174.7626,-196.6672"/>
<ellipse fill="none" stroke="#000000" cx="171.6676" cy="-195.8541" rx="3.2" ry="3.2"/>
</g>
<!-- personas -->
<g id="node4" class="node">
<title>personas</title>
<g id="a_node4"><a xlink:href="../../tables/personas.html" xlink:title="personas" target="_top">
<polygon fill="#ffffff" stroke="transparent" points="8,-142.2 8,-225.2 131,-225.2 131,-142.2 8,-142.2"/>
<polygon fill="#f5f5f5" stroke="transparent" points="8.5,-201.7 8.5,-224.7 131.5,-224.7 131.5,-201.7 8.5,-201.7"/>
<polygon fill="none" stroke="#000000" points="8.5,-201.7 8.5,-224.7 131.5,-224.7 131.5,-201.7 8.5,-201.7"/>
<text text-anchor="start" x="13.5" y="-210.8" font-family="Helvetica,sans-Serif" font-weight="bold" font-size="11.00" fill="#000000">personas</text>
<text text-anchor="start" x="96.5437" y="-209.8" font-family="Helvetica,sans-Serif" font-size="11.00" fill="#000000">[table]</text>
<polygon fill="none" stroke="#000000" points="8.5,-179.7 8.5,-201.7 131.5,-201.7 131.5,-179.7 8.5,-179.7"/>
<image xlink:href="../../images/primaryKeys.png" width="11px" height="12px" preserveAspectRatio="xMinYMin meet" x="13.5" y="-196.7"/>
<text text-anchor="start" x="28.5" y="-186.8" font-family="Helvetica,sans-Serif" font-size="11.00" fill="#000000">persona_id</text>
<polygon fill="none" stroke="#000000" points="8.5,-160.7 8.5,-179.7 131.5,-179.7 131.5,-160.7 8.5,-160.7"/>
<text text-anchor="start" x="11.5" y="-166.8" font-family="Helvetica,sans-Serif" font-size="11.00" fill="#000000">...</text>
<polygon fill="#ffffff" stroke="transparent" points="8.5,-141.7 8.5,-160.7 43.5,-160.7 43.5,-141.7 8.5,-141.7"/>
<polygon fill="none" stroke="#000000" points="8.5,-141.7 8.5,-160.7 43.5,-160.7 43.5,-141.7 8.5,-141.7"/>
<text text-anchor="start" x="11.5" y="-147.8" font-family="Helvetica,sans-Serif" font-size="11.00" fill="#000000"> &#160;</text>
<polygon fill="#ffffff" stroke="transparent" points="43.5,-141.7 43.5,-160.7 98.5,-160.7 98.5,-141.7 43.5,-141.7"/>
<polygon fill="none" stroke="#000000" points="43.5,-141.7 43.5,-160.7 98.5,-160.7 98.5,-141.7 43.5,-141.7"/>
<text text-anchor="start" x="56.9956" y="-147.8" font-family="Helvetica,sans-Serif" font-size="11.00" fill="#000000">22 rows</text>
<polygon fill="#ffffff" stroke="transparent" points="98.5,-141.7 98.5,-160.7 131.5,-160.7 131.5,-141.7 98.5,-141.7"/>
<polygon fill="none" stroke="#000000" points="98.5,-141.7 98.5,-160.7 131.5,-160.7 131.5,-141.7 98.5,-141.7"/>
<text text-anchor="start" x="112.9053" y="-147.8" font-family="Helvetica,sans-Serif" font-size="11.00" fill="#000000">2 &gt;</text>
</a>
</g>
</g>
<!-- leads&#45;&gt;personas -->
<g id="edge3" class="edge">
<title>leads:w&#45;&gt;personas:e</title>
<path fill="none" stroke="#000000" d="M168.2724,-216.778C155.4935,-208.6462 151.8394,-190.7 131.5,-190.7"/>
<polygon fill="#000000" stroke="#000000" points="174.7877,-218.574 181.5433,-224.1706 178.6438,-219.637 182.5,-220.7 182.5,-220.7 182.5,-220.7 178.6438,-219.637 183.4567,-217.2294 174.7877,-218.574 174.7877,-218.574"/>
<ellipse fill="none" stroke="#000000" cx="171.7027" cy="-217.7236" rx="3.2" ry="3.2"/>
</g>
<!-- usuarios -->
<g id="node5" class="node">
<title>usuarios</title>
<g id="a_node5"><a xlink:href="../../tables/usuarios.html" xlink:title="usuarios" target="_top">
<polygon fill="#ffffff" stroke="transparent" points="8,-350.2 8,-455.2 131,-455.2 131,-350.2 8,-350.2"/>
<polygon fill="#f5f5f5" stroke="transparent" points="8.5,-431.7 8.5,-454.7 131.5,-454.7 131.5,-431.7 8.5,-431.7"/>
<polygon fill="none" stroke="#000000" points="8.5,-431.7 8.5,-454.7 131.5,-454.7 131.5,-431.7 8.5,-431.7"/>
<text text-anchor="start" x="13.5" y="-440.8" font-family="Helvetica,sans-Serif" font-weight="bold" font-size="11.00" fill="#000000">usuarios</text>
<text text-anchor="start" x="96.5437" y="-439.8" font-family="Helvetica,sans-Serif" font-size="11.00" fill="#000000">[table]</text>
<polygon fill="none" stroke="#000000" points="8.5,-409.7 8.5,-431.7 131.5,-431.7 131.5,-409.7 8.5,-409.7"/>
<image xlink:href="../../images/primaryKeys.png" width="11px" height="12px" preserveAspectRatio="xMinYMin meet" x="13.5" y="-426.7"/>
<text text-anchor="start" x="28.5" y="-416.8" font-family="Helvetica,sans-Serif" font-size="11.00" fill="#000000">usuario_id</text>
<polygon fill="#ffffff" stroke="transparent" points="8.5,-387.7 8.5,-409.7 131.5,-409.7 131.5,-387.7 8.5,-387.7"/>
<polygon fill="none" stroke="#000000" points="8.5,-387.7 8.5,-409.7 131.5,-409.7 131.5,-387.7 8.5,-387.7"/>
<text text-anchor="start" x="28.5" y="-394.8" font-family="Helvetica,sans-Serif" font-size="11.00" fill="#000000">nom_usuario</text>
<polygon fill="none" stroke="#000000" points="8.5,-368.7 8.5,-387.7 131.5,-387.7 131.5,-368.7 8.5,-368.7"/>
<text text-anchor="start" x="11.5" y="-374.8" font-family="Helvetica,sans-Serif" font-size="11.00" fill="#000000">...</text>
<polygon fill="#ffffff" stroke="transparent" points="8.5,-349.7 8.5,-368.7 46.5,-368.7 46.5,-349.7 8.5,-349.7"/>
<polygon fill="none" stroke="#000000" points="8.5,-349.7 8.5,-368.7 46.5,-368.7 46.5,-349.7 8.5,-349.7"/>
<text text-anchor="start" x="11.5" y="-355.8" font-family="Helvetica,sans-Serif" font-size="11.00" fill="#000000"> &#160;</text>
<polygon fill="#ffffff" stroke="transparent" points="46.5,-349.7 46.5,-368.7 97.5,-368.7 97.5,-349.7 46.5,-349.7"/>
<polygon fill="none" stroke="#000000" points="46.5,-349.7 46.5,-368.7 97.5,-368.7 97.5,-349.7 46.5,-349.7"/>
<text text-anchor="start" x="62.1105" y="-355.8" font-family="Helvetica,sans-Serif" font-size="11.00" fill="#000000">2 rows</text>
<polygon fill="#ffffff" stroke="transparent" points="97.5,-349.7 97.5,-368.7 131.5,-368.7 131.5,-349.7 97.5,-349.7"/>
<polygon fill="none" stroke="#000000" points="97.5,-349.7 97.5,-368.7 131.5,-368.7 131.5,-349.7 97.5,-349.7"/>
<text text-anchor="start" x="112.9053" y="-355.8" font-family="Helvetica,sans-Serif" font-size="11.00" fill="#000000">2 &gt;</text>
</a>
</g>
</g>
<!-- leads&#45;&gt;usuarios -->
<g id="edge4" class="edge">
<title>leads:w&#45;&gt;usuarios:e</title>
<path fill="none" stroke="#000000" d="M168.0427,-290.0124C131.8786,-310.6473 189.2491,-420.7 131.5,-420.7"/>
<polygon fill="#000000" stroke="#000000" points="174.7021,-288.4867 183.304,-290.2091 178.601,-287.5933 182.5,-286.7 182.5,-286.7 182.5,-286.7 178.601,-287.5933 181.696,-283.1909 174.7021,-288.4867 174.7021,-288.4867"/>
<ellipse fill="none" stroke="#000000" cx="171.5829" cy="-289.2013" rx="3.2" ry="3.2"/>
</g>
</g>
</svg>
