<?xml version="1.0" encoding="UTF-8" standalone="no"?>
<!DOCTYPE svg PUBLIC "-//W3C//DTD SVG 1.1//EN"
 "http://www.w3.org/Graphics/SVG/1.1/DTD/svg11.dtd">
<!-- Generated by graphviz version 2.40.1 (20161225.0304)
 -->
<!-- Title: twoDegreesRelationshipsDiagram Pages: 1 -->
<svg width="839pt" height="904pt"
 viewBox="0.00 0.00 839.00 904.06" xmlns="http://www.w3.org/2000/svg" xmlns:xlink="http://www.w3.org/1999/xlink">
<g id="graph0" class="graph" transform="scale(1 1) rotate(0) translate(4 900.0591)">
<title>twoDegreesRelationshipsDiagram</title>
<polygon fill="#ffffff" stroke="transparent" points="-4,4 -4,-900.0591 835,-900.0591 835,4 -4,4"/>
<text text-anchor="middle" x="72.4936" y="-7.3" font-family="Helvetica,sans-Serif" font-size="11.00" fill="#000000">Generated by SchemaSpy</text>
<!-- casos -->
<g id="node1" class="node">
<title>casos</title>
<g id="a_node1"><a xlink:href="../../tables/casos.html" xlink:title="casos" target="_top">
<polygon fill="#ffffff" stroke="transparent" points="700,-316.0591 700,-465.0591 823,-465.0591 823,-316.0591 700,-316.0591"/>
<polygon fill="#f5f5f5" stroke="transparent" points="700.5,-441.5591 700.5,-464.5591 823.5,-464.5591 823.5,-441.5591 700.5,-441.5591"/>
<polygon fill="none" stroke="#000000" points="700.5,-441.5591 700.5,-464.5591 823.5,-464.5591 823.5,-441.5591 700.5,-441.5591"/>
<text text-anchor="start" x="705.5" y="-450.6591" font-family="Helvetica,sans-Serif" font-weight="bold" font-size="11.00" fill="#000000">casos</text>
<text text-anchor="start" x="788.5437" y="-449.6591" font-family="Helvetica,sans-Serif" font-size="11.00" fill="#000000">[table]</text>
<polygon fill="none" stroke="#000000" points="700.5,-419.5591 700.5,-441.5591 823.5,-441.5591 823.5,-419.5591 700.5,-419.5591"/>
<image xlink:href="../../images/primaryKeys.png" width="11px" height="12px" preserveAspectRatio="xMinYMin meet" x="705.5" y="-436.559"/>
<text text-anchor="start" x="720.5" y="-426.6591" font-family="Helvetica,sans-Serif" font-size="11.00" fill="#000000">caso_id</text>
<polygon fill="none" stroke="#000000" points="700.5,-397.5591 700.5,-419.5591 823.5,-419.5591 823.5,-397.5591 700.5,-397.5591"/>
<image xlink:href="../../images/foreignKeys.png" width="11px" height="12px" preserveAspectRatio="xMinYMin meet" x="705.5" y="-414.559"/>
<text text-anchor="start" x="720.5" y="-404.6591" font-family="Helvetica,sans-Serif" font-size="11.00" fill="#000000">lead_id</text>
<polygon fill="none" stroke="#000000" points="700.5,-375.5591 700.5,-397.5591 823.5,-397.5591 823.5,-375.5591 700.5,-375.5591"/>
<image xlink:href="../../images/foreignKeys.png" width="11px" height="12px" preserveAspectRatio="xMinYMin meet" x="705.5" y="-392.559"/>
<text text-anchor="start" x="720.5" y="-382.6591" font-family="Helvetica,sans-Serif" font-size="11.00" fill="#000000">usu_asignado_id</text>
<polygon fill="none" stroke="#000000" points="700.5,-353.5591 700.5,-375.5591 823.5,-375.5591 823.5,-353.5591 700.5,-353.5591"/>
<image xlink:href="../../images/foreignKeys.png" width="11px" height="12px" preserveAspectRatio="xMinYMin meet" x="705.5" y="-370.559"/>
<text text-anchor="start" x="720.5" y="-360.6591" font-family="Helvetica,sans-Serif" font-size="11.00" fill="#000000">contacto_id</text>
<polygon fill="none" stroke="#000000" points="700.5,-334.5591 700.5,-353.5591 823.5,-353.5591 823.5,-334.5591 700.5,-334.5591"/>
<text text-anchor="start" x="703.5" y="-340.6591" font-family="Helvetica,sans-Serif" font-size="11.00" fill="#000000">...</text>
<polygon fill="#ffffff" stroke="transparent" points="700.5,-315.5591 700.5,-334.5591 747.5,-334.5591 747.5,-315.5591 700.5,-315.5591"/>
<polygon fill="none" stroke="#000000" points="700.5,-315.5591 700.5,-334.5591 747.5,-334.5591 747.5,-315.5591 700.5,-315.5591"/>
<text text-anchor="start" x="703.5" y="-321.6591" font-family="Helvetica,sans-Serif" font-size="11.00" fill="#000000">&lt; 3</text>
<polygon fill="#ffffff" stroke="transparent" points="747.5,-315.5591 747.5,-334.5591 798.5,-334.5591 798.5,-315.5591 747.5,-315.5591"/>
<polygon fill="none" stroke="#000000" points="747.5,-315.5591 747.5,-334.5591 798.5,-334.5591 798.5,-315.5591 747.5,-315.5591"/>
<text text-anchor="start" x="763.1105" y="-321.6591" font-family="Helvetica,sans-Serif" font-size="11.00" fill="#000000">0 rows</text>
<polygon fill="#ffffff" stroke="transparent" points="798.5,-315.5591 798.5,-334.5591 823.5,-334.5591 823.5,-315.5591 798.5,-315.5591"/>
<polygon fill="none" stroke="#000000" points="798.5,-315.5591 798.5,-334.5591 823.5,-334.5591 823.5,-315.5591 798.5,-315.5591"/>
<text text-anchor="start" x="814.3862" y="-321.6591" font-family="Helvetica,sans-Serif" font-size="11.00" fill="#000000"> &#160;</text>
</a>
</g>
</g>
<!-- contactos -->
<g id="node2" class="node">
<title>contactos</title>
<g id="a_node2"><a xlink:href="../../tables/contactos.html" xlink:title="contactos" target="_top">
<polygon fill="#ffffff" stroke="transparent" points="456.5,-668.0591 456.5,-729.0591 546.5,-729.0591 546.5,-668.0591 456.5,-668.0591"/>
<polygon fill="#f5f5f5" stroke="transparent" points="456.5,-705.5591 456.5,-728.5591 546.5,-728.5591 546.5,-705.5591 456.5,-705.5591"/>
<polygon fill="none" stroke="#000000" points="456.5,-705.5591 456.5,-728.5591 546.5,-728.5591 546.5,-705.5591 456.5,-705.5591"/>
<text text-anchor="start" x="461.4633" y="-714.6591" font-family="Helvetica,sans-Serif" font-weight="bold" font-size="11.00" fill="#000000">contactos</text>
<text text-anchor="start" x="512.0219" y="-713.6591" font-family="Helvetica,sans-Serif" font-size="11.00" fill="#000000">[table]</text>
<polygon fill="none" stroke="#000000" points="456.5,-686.5591 456.5,-705.5591 546.5,-705.5591 546.5,-686.5591 456.5,-686.5591"/>
<text text-anchor="start" x="459.5" y="-692.6591" font-family="Helvetica,sans-Serif" font-size="11.00" fill="#000000">...</text>
<polygon fill="#ffffff" stroke="transparent" points="456.5,-667.5591 456.5,-686.5591 482.5,-686.5591 482.5,-667.5591 456.5,-667.5591"/>
<polygon fill="none" stroke="#000000" points="456.5,-667.5591 456.5,-686.5591 482.5,-686.5591 482.5,-667.5591 456.5,-667.5591"/>
<text text-anchor="start" x="459.5" y="-673.6591" font-family="Helvetica,sans-Serif" font-size="11.00" fill="#000000">&lt; 2</text>
<polygon fill="#ffffff" stroke="transparent" points="482.5,-667.5591 482.5,-686.5591 522.5,-686.5591 522.5,-667.5591 482.5,-667.5591"/>
<polygon fill="none" stroke="#000000" points="482.5,-667.5591 482.5,-686.5591 522.5,-686.5591 522.5,-667.5591 482.5,-667.5591"/>
<text text-anchor="start" x="487.1105" y="-673.6591" font-family="Helvetica,sans-Serif" font-size="11.00" fill="#000000">5 rows</text>
<polygon fill="#ffffff" stroke="transparent" points="522.5,-667.5591 522.5,-686.5591 546.5,-686.5591 546.5,-667.5591 522.5,-667.5591"/>
<polygon fill="none" stroke="#000000" points="522.5,-667.5591 522.5,-686.5591 546.5,-686.5591 546.5,-667.5591 522.5,-667.5591"/>
<text text-anchor="start" x="527.9053" y="-673.6591" font-family="Helvetica,sans-Serif" font-size="11.00" fill="#000000">5 &gt;</text>
</a>
</g>
</g>
<!-- casos&#45;&gt;contactos -->
<g id="edge1" class="edge">
<title>casos:w&#45;&gt;contactos:e</title>
<path fill="none" stroke="#000000" d="M686.8493,-369.2129C644.8822,-403.0376 697.5593,-611.1124 659,-657.5591 625.2896,-698.165 599.2753,-695.5591 546.5,-695.5591"/>
<polygon fill="#000000" stroke="#000000" points="692.9279,-367.1406 701.6617,-367.9665 696.714,-365.8498 700.5,-364.5591 700.5,-364.5591 700.5,-364.5591 696.714,-365.8498 699.3383,-361.1516 692.9279,-367.1406 692.9279,-367.1406"/>
<ellipse fill="none" stroke="#000000" cx="689.8991" cy="-368.1732" rx="3.2" ry="3.2"/>
</g>
<!-- leads -->
<g id="node3" class="node">
<title>leads</title>
<g id="a_node3"><a xlink:href="../../tables/leads.html" xlink:title="leads" target="_top">
<polygon fill="#ffffff" stroke="transparent" points="352,-146.5591 352,-456.5591 651,-456.5591 651,-146.5591 352,-146.5591"/>
<polygon fill="#f5f5f5" stroke="transparent" points="354.5,-431.5591 354.5,-454.5591 649.5,-454.5591 649.5,-431.5591 354.5,-431.5591"/>
<polygon fill="none" stroke="#000000" points="354.5,-431.5591 354.5,-454.5591 649.5,-454.5591 649.5,-431.5591 354.5,-431.5591"/>
<text text-anchor="start" x="359.5" y="-440.6591" font-family="Helvetica,sans-Serif" font-weight="bold" font-size="11.00" fill="#000000">leads</text>
<text text-anchor="start" x="614.5437" y="-439.6591" font-family="Helvetica,sans-Serif" font-size="11.00" fill="#000000">[table]</text>
<polygon fill="none" stroke="#000000" points="354.5,-409.5591 354.5,-431.5591 477.5,-431.5591 477.5,-409.5591 354.5,-409.5591"/>
<image xlink:href="../../images/primaryKeys.png" width="11px" height="12px" preserveAspectRatio="xMinYMin meet" x="359.5" y="-426.559"/>
<text text-anchor="start" x="374.5" y="-416.6591" font-family="Helvetica,sans-Serif" font-size="11.00" fill="#000000">lead_id</text>
<polygon fill="none" stroke="#000000" points="477.5,-409.5591 477.5,-431.5591 649.5,-431.5591 649.5,-409.5591 477.5,-409.5591"/>
<text text-anchor="start" x="480.5" y="-417.2591" font-family="Helvetica,sans-Serif" font-size="11.00" fill="#000000">serial[10]</text>
<polygon fill="none" stroke="#000000" points="354.5,-387.5591 354.5,-409.5591 477.5,-409.5591 477.5,-387.5591 354.5,-387.5591"/>
<text text-anchor="start" x="374.5" y="-394.6591" font-family="Helvetica,sans-Serif" font-size="11.00" fill="#000000">estado</text>
<polygon fill="none" stroke="#000000" points="477.5,-387.5591 477.5,-409.5591 649.5,-409.5591 649.5,-387.5591 477.5,-387.5591"/>
<text text-anchor="start" x="480.3494" y="-395.2591" font-family="Helvetica,sans-Serif" font-size="11.00" fill="#000000">enum_leads_estado[2147483647]</text>
<polygon fill="none" stroke="#000000" points="354.5,-365.5591 354.5,-387.5591 477.5,-387.5591 477.5,-365.5591 354.5,-365.5591"/>
<image xlink:href="../../images/foreignKeys.png" width="11px" height="12px" preserveAspectRatio="xMinYMin meet" x="359.5" y="-382.559"/>
<text text-anchor="start" x="374.5" y="-372.6591" font-family="Helvetica,sans-Serif" font-size="11.00" fill="#000000">usu_asignado_id</text>
<polygon fill="none" stroke="#000000" points="477.5,-365.5591 477.5,-387.5591 649.5,-387.5591 649.5,-365.5591 477.5,-365.5591"/>
<text text-anchor="start" x="480.5" y="-373.2591" font-family="Helvetica,sans-Serif" font-size="11.00" fill="#000000">int4[10]</text>
<polygon fill="none" stroke="#000000" points="354.5,-343.5591 354.5,-365.5591 477.5,-365.5591 477.5,-343.5591 354.5,-343.5591"/>
<image xlink:href="../../images/foreignKeys.png" width="11px" height="12px" preserveAspectRatio="xMinYMin meet" x="359.5" y="-360.559"/>
<text text-anchor="start" x="374.5" y="-350.6591" font-family="Helvetica,sans-Serif" font-size="11.00" fill="#000000">campana_id</text>
<polygon fill="none" stroke="#000000" points="477.5,-343.5591 477.5,-365.5591 649.5,-365.5591 649.5,-343.5591 477.5,-343.5591"/>
<text text-anchor="start" x="480.5" y="-351.2591" font-family="Helvetica,sans-Serif" font-size="11.00" fill="#000000">int4[10]</text>
<polygon fill="none" stroke="#000000" points="354.5,-321.5591 354.5,-343.5591 477.5,-343.5591 477.5,-321.5591 354.5,-321.5591"/>
<text text-anchor="start" x="374.5" y="-328.6591" font-family="Helvetica,sans-Serif" font-size="11.00" fill="#000000">origen</text>
<polygon fill="none" stroke="#000000" points="477.5,-321.5591 477.5,-343.5591 649.5,-343.5591 649.5,-321.5591 477.5,-321.5591"/>
<text text-anchor="start" x="480.5" y="-329.2591" font-family="Helvetica,sans-Serif" font-size="11.00" fill="#000000">enum_leads_origen[2147483647]</text>
<polygon fill="none" stroke="#000000" points="354.5,-299.5591 354.5,-321.5591 477.5,-321.5591 477.5,-299.5591 354.5,-299.5591"/>
<image xlink:href="../../images/foreignKeys.png" width="11px" height="12px" preserveAspectRatio="xMinYMin meet" x="359.5" y="-316.559"/>
<text text-anchor="start" x="374.5" y="-306.6591" font-family="Helvetica,sans-Serif" font-size="11.00" fill="#000000">persona_id</text>
<polygon fill="none" stroke="#000000" points="477.5,-299.5591 477.5,-321.5591 649.5,-321.5591 649.5,-299.5591 477.5,-299.5591"/>
<text text-anchor="start" x="480.5" y="-307.2591" font-family="Helvetica,sans-Serif" font-size="11.00" fill="#000000">int4[10]</text>
<polygon fill="none" stroke="#000000" points="354.5,-277.5591 354.5,-299.5591 477.5,-299.5591 477.5,-277.5591 354.5,-277.5591"/>
<text text-anchor="start" x="374.5" y="-284.6591" font-family="Helvetica,sans-Serif" font-size="11.00" fill="#000000">usu_insercion</text>
<polygon fill="none" stroke="#000000" points="477.5,-277.5591 477.5,-299.5591 649.5,-299.5591 649.5,-277.5591 477.5,-277.5591"/>
<text text-anchor="start" x="480.5" y="-285.2591" font-family="Helvetica,sans-Serif" font-size="11.00" fill="#000000">varchar[20]</text>
<polygon fill="none" stroke="#000000" points="354.5,-255.5591 354.5,-277.5591 477.5,-277.5591 477.5,-255.5591 354.5,-255.5591"/>
<text text-anchor="start" x="374.5" y="-262.6591" font-family="Helvetica,sans-Serif" font-size="11.00" fill="#000000">fec_insercion</text>
<polygon fill="none" stroke="#000000" points="477.5,-255.5591 477.5,-277.5591 649.5,-277.5591 649.5,-255.5591 477.5,-255.5591"/>
<text text-anchor="start" x="480.5" y="-263.2591" font-family="Helvetica,sans-Serif" font-size="11.00" fill="#000000">timestamptz[35,6]</text>
<polygon fill="none" stroke="#000000" points="354.5,-233.5591 354.5,-255.5591 477.5,-255.5591 477.5,-233.5591 354.5,-233.5591"/>
<text text-anchor="start" x="374.5" y="-240.6591" font-family="Helvetica,sans-Serif" font-size="11.00" fill="#000000">fec_modificacion</text>
<polygon fill="none" stroke="#000000" points="477.5,-233.5591 477.5,-255.5591 649.5,-255.5591 649.5,-233.5591 477.5,-233.5591"/>
<text text-anchor="start" x="480.5" y="-241.2591" font-family="Helvetica,sans-Serif" font-size="11.00" fill="#000000">timestamptz[35,6]</text>
<polygon fill="none" stroke="#000000" points="354.5,-211.5591 354.5,-233.5591 477.5,-233.5591 477.5,-211.5591 354.5,-211.5591"/>
<text text-anchor="start" x="374.5" y="-218.6591" font-family="Helvetica,sans-Serif" font-size="11.00" fill="#000000">usu_modificacion</text>
<polygon fill="none" stroke="#000000" points="477.5,-211.5591 477.5,-233.5591 649.5,-233.5591 649.5,-211.5591 477.5,-211.5591"/>
<text text-anchor="start" x="480.5" y="-219.2591" font-family="Helvetica,sans-Serif" font-size="11.00" fill="#000000">varchar[20]</text>
<polygon fill="none" stroke="#000000" points="354.5,-189.5591 354.5,-211.5591 477.5,-211.5591 477.5,-189.5591 354.5,-189.5591"/>
<image xlink:href="../../images/foreignKeys.png" width="11px" height="12px" preserveAspectRatio="xMinYMin meet" x="359.5" y="-206.559"/>
<text text-anchor="start" x="374.5" y="-196.6591" font-family="Helvetica,sans-Serif" font-size="11.00" fill="#000000">curso_id</text>
<polygon fill="none" stroke="#000000" points="477.5,-189.5591 477.5,-211.5591 649.5,-211.5591 649.5,-189.5591 477.5,-189.5591"/>
<text text-anchor="start" x="480.5" y="-197.2591" font-family="Helvetica,sans-Serif" font-size="11.00" fill="#000000">int4[10]</text>
<polygon fill="none" stroke="#000000" points="354.5,-167.5591 354.5,-189.5591 477.5,-189.5591 477.5,-167.5591 354.5,-167.5591"/>
<image xlink:href="../../images/foreignKeys.png" width="11px" height="12px" preserveAspectRatio="xMinYMin meet" x="359.5" y="-184.559"/>
<text text-anchor="start" x="374.5" y="-174.6591" font-family="Helvetica,sans-Serif" font-size="11.00" fill="#000000">ciclo_id</text>
<polygon fill="none" stroke="#000000" points="477.5,-167.5591 477.5,-189.5591 649.5,-189.5591 649.5,-167.5591 477.5,-167.5591"/>
<text text-anchor="start" x="480.5" y="-175.2591" font-family="Helvetica,sans-Serif" font-size="11.00" fill="#000000">int4[10]</text>
<polygon fill="#ffffff" stroke="transparent" points="354.5,-148.5591 354.5,-167.5591 407.5,-167.5591 407.5,-148.5591 354.5,-148.5591"/>
<polygon fill="none" stroke="#000000" points="354.5,-148.5591 354.5,-167.5591 407.5,-167.5591 407.5,-148.5591 354.5,-148.5591"/>
<text text-anchor="start" x="357.5" y="-154.6591" font-family="Helvetica,sans-Serif" font-size="11.00" fill="#000000">&lt; 5</text>
<polygon fill="#ffffff" stroke="transparent" points="407.5,-148.5591 407.5,-167.5591 477.5,-167.5591 477.5,-148.5591 407.5,-148.5591"/>
<polygon fill="none" stroke="#000000" points="407.5,-148.5591 407.5,-167.5591 477.5,-167.5591 477.5,-148.5591 407.5,-148.5591"/>
<text text-anchor="start" x="442.1105" y="-154.6591" font-family="Helvetica,sans-Serif" font-size="11.00" fill="#000000">4 rows</text>
<polygon fill="#ffffff" stroke="transparent" points="477.5,-148.5591 477.5,-167.5591 649.5,-167.5591 649.5,-148.5591 477.5,-148.5591"/>
<polygon fill="none" stroke="#000000" points="477.5,-148.5591 477.5,-167.5591 649.5,-167.5591 649.5,-148.5591 477.5,-148.5591"/>
<text text-anchor="start" x="630.9053" y="-154.6591" font-family="Helvetica,sans-Serif" font-size="11.00" fill="#000000">3 &gt;</text>
<polygon fill="none" stroke="#000000" stroke-width="2" points="353,-147.5591 353,-455.5591 650,-455.5591 650,-147.5591 353,-147.5591"/>
</a>
</g>
</g>
<!-- casos&#45;&gt;leads -->
<g id="edge2" class="edge">
<title>casos:w&#45;&gt;leads:e</title>
<path fill="none" stroke="#000000" d="M685.9822,-410.4341C673.8214,-413.8091 666.9642,-420.5591 649.5,-420.5591"/>
<polygon fill="#000000" stroke="#000000" points="692.5659,-409.5838 700.9611,-412.1294 696.5329,-409.0714 700.5,-408.5591 700.5,-408.5591 700.5,-408.5591 696.5329,-409.0714 700.0389,-404.9887 692.5659,-409.5838 692.5659,-409.5838"/>
<ellipse fill="none" stroke="#000000" cx="689.3923" cy="-409.9937" rx="3.2" ry="3.2"/>
</g>
<!-- usuarios -->
<g id="node4" class="node">
<title>usuarios</title>
<g id="a_node4"><a xlink:href="../../tables/usuarios.html" xlink:title="usuarios" target="_top">
<polygon fill="#ffffff" stroke="transparent" points="180,-450.0591 180,-555.0591 303,-555.0591 303,-450.0591 180,-450.0591"/>
<polygon fill="#f5f5f5" stroke="transparent" points="180.5,-531.5591 180.5,-554.5591 303.5,-554.5591 303.5,-531.5591 180.5,-531.5591"/>
<polygon fill="none" stroke="#000000" points="180.5,-531.5591 180.5,-554.5591 303.5,-554.5591 303.5,-531.5591 180.5,-531.5591"/>
<text text-anchor="start" x="185.5" y="-540.6591" font-family="Helvetica,sans-Serif" font-weight="bold" font-size="11.00" fill="#000000">usuarios</text>
<text text-anchor="start" x="268.5437" y="-539.6591" font-family="Helvetica,sans-Serif" font-size="11.00" fill="#000000">[table]</text>
<polygon fill="none" stroke="#000000" points="180.5,-509.5591 180.5,-531.5591 303.5,-531.5591 303.5,-509.5591 180.5,-509.5591"/>
<image xlink:href="../../images/primaryKeys.png" width="11px" height="12px" preserveAspectRatio="xMinYMin meet" x="185.5" y="-526.559"/>
<text text-anchor="start" x="200.5" y="-516.6591" font-family="Helvetica,sans-Serif" font-size="11.00" fill="#000000">usuario_id</text>
<polygon fill="#ffffff" stroke="transparent" points="180.5,-487.5591 180.5,-509.5591 303.5,-509.5591 303.5,-487.5591 180.5,-487.5591"/>
<polygon fill="none" stroke="#000000" points="180.5,-487.5591 180.5,-509.5591 303.5,-509.5591 303.5,-487.5591 180.5,-487.5591"/>
<text text-anchor="start" x="200.5" y="-494.6591" font-family="Helvetica,sans-Serif" font-size="11.00" fill="#000000">nom_usuario</text>
<polygon fill="none" stroke="#000000" points="180.5,-468.5591 180.5,-487.5591 303.5,-487.5591 303.5,-468.5591 180.5,-468.5591"/>
<text text-anchor="start" x="183.5" y="-474.6591" font-family="Helvetica,sans-Serif" font-size="11.00" fill="#000000">...</text>
<polygon fill="#ffffff" stroke="transparent" points="180.5,-449.5591 180.5,-468.5591 221.5,-468.5591 221.5,-449.5591 180.5,-449.5591"/>
<polygon fill="none" stroke="#000000" points="180.5,-449.5591 180.5,-468.5591 221.5,-468.5591 221.5,-449.5591 180.5,-449.5591"/>
<text text-anchor="start" x="183.5" y="-455.6591" font-family="Helvetica,sans-Serif" font-size="11.00" fill="#000000"> &#160;</text>
<polygon fill="#ffffff" stroke="transparent" points="221.5,-449.5591 221.5,-468.5591 267.5,-468.5591 267.5,-449.5591 221.5,-449.5591"/>
<polygon fill="none" stroke="#000000" points="221.5,-449.5591 221.5,-468.5591 267.5,-468.5591 267.5,-449.5591 221.5,-449.5591"/>
<text text-anchor="start" x="237.6105" y="-455.6591" font-family="Helvetica,sans-Serif" font-size="11.00" fill="#000000">1 row</text>
<polygon fill="#ffffff" stroke="transparent" points="267.5,-449.5591 267.5,-468.5591 303.5,-468.5591 303.5,-449.5591 267.5,-449.5591"/>
<polygon fill="none" stroke="#000000" points="267.5,-449.5591 267.5,-468.5591 303.5,-468.5591 303.5,-449.5591 267.5,-449.5591"/>
<text text-anchor="start" x="284.9053" y="-455.6591" font-family="Helvetica,sans-Serif" font-size="11.00" fill="#000000">6 &gt;</text>
</a>
</g>
</g>
<!-- casos&#45;&gt;usuarios -->
<g id="edge3" class="edge">
<title>casos:w&#45;&gt;usuarios:e</title>
<path fill="none" stroke="#000000" d="M686.4021,-389.6193C661.1261,-403.9152 694.1448,-464.5201 659,-490.5591 651.0373,-496.4587 313.4101,-520.5591 303.5,-520.5591"/>
<polygon fill="#000000" stroke="#000000" points="692.6821,-388.2561 701.2637,-390.0771 696.591,-387.4076 700.5,-386.5591 700.5,-386.5591 700.5,-386.5591 696.591,-387.4076 699.7363,-383.041 692.6821,-388.2561 692.6821,-388.2561"/>
<ellipse fill="none" stroke="#000000" cx="689.5549" cy="-388.935" rx="3.2" ry="3.2"/>
</g>
<!-- organizaciones -->
<g id="node5" class="node">
<title>organizaciones</title>
<g id="a_node5"><a xlink:href="../../tables/organizaciones.html" xlink:title="organizaciones" target="_top">
<polygon fill="#ffffff" stroke="transparent" points="183.5,-667.0591 183.5,-728.0591 299.5,-728.0591 299.5,-667.0591 183.5,-667.0591"/>
<polygon fill="#f5f5f5" stroke="transparent" points="183.5,-704.5591 183.5,-727.5591 299.5,-727.5591 299.5,-704.5591 183.5,-704.5591"/>
<polygon fill="none" stroke="#000000" points="183.5,-704.5591 183.5,-727.5591 299.5,-727.5591 299.5,-704.5591 183.5,-704.5591"/>
<text text-anchor="start" x="188.0186" y="-713.6591" font-family="Helvetica,sans-Serif" font-weight="bold" font-size="11.00" fill="#000000">organizaciones</text>
<text text-anchor="start" x="265.0219" y="-712.6591" font-family="Helvetica,sans-Serif" font-size="11.00" fill="#000000">[table]</text>
<polygon fill="none" stroke="#000000" points="183.5,-685.5591 183.5,-704.5591 299.5,-704.5591 299.5,-685.5591 183.5,-685.5591"/>
<text text-anchor="start" x="186.5" y="-691.6591" font-family="Helvetica,sans-Serif" font-size="11.00" fill="#000000">...</text>
<polygon fill="#ffffff" stroke="transparent" points="183.5,-666.5591 183.5,-685.5591 222.5,-685.5591 222.5,-666.5591 183.5,-666.5591"/>
<polygon fill="none" stroke="#000000" points="183.5,-666.5591 183.5,-685.5591 222.5,-685.5591 222.5,-666.5591 183.5,-666.5591"/>
<text text-anchor="start" x="186.5" y="-672.6591" font-family="Helvetica,sans-Serif" font-size="11.00" fill="#000000">&lt; 1</text>
<polygon fill="#ffffff" stroke="transparent" points="222.5,-666.5591 222.5,-685.5591 269.5,-685.5591 269.5,-666.5591 222.5,-666.5591"/>
<polygon fill="none" stroke="#000000" points="222.5,-666.5591 222.5,-685.5591 269.5,-685.5591 269.5,-666.5591 222.5,-666.5591"/>
<text text-anchor="start" x="234.1105" y="-672.6591" font-family="Helvetica,sans-Serif" font-size="11.00" fill="#000000">0 rows</text>
<polygon fill="#ffffff" stroke="transparent" points="269.5,-666.5591 269.5,-685.5591 299.5,-685.5591 299.5,-666.5591 269.5,-666.5591"/>
<polygon fill="none" stroke="#000000" points="269.5,-666.5591 269.5,-685.5591 299.5,-685.5591 299.5,-666.5591 269.5,-666.5591"/>
<text text-anchor="start" x="280.9053" y="-672.6591" font-family="Helvetica,sans-Serif" font-size="11.00" fill="#000000">1 &gt;</text>
</a>
</g>
</g>
<!-- contactos&#45;&gt;organizaciones -->
<g id="edge4" class="edge">
<title>contactos:w&#45;&gt;organizaciones:e</title>
<path fill="none" stroke="#000000" d="M441.7853,-695.5434C383.8435,-695.4161 364.1003,-694.5591 299.5,-694.5591"/>
<polygon fill="#000000" stroke="#000000" points="448.5,-695.5505 456.4961,-699.1591 452.5,-695.5548 456.5,-695.5591 456.5,-695.5591 456.5,-695.5591 452.5,-695.5548 456.5039,-691.9591 448.5,-695.5505 448.5,-695.5505"/>
<ellipse fill="none" stroke="#000000" cx="445.3" cy="-695.547" rx="3.2" ry="3.2"/>
</g>
<!-- personas -->
<g id="node6" class="node">
<title>personas</title>
<g id="a_node6"><a xlink:href="../../tables/personas.html" xlink:title="personas" target="_top">
<polygon fill="#ffffff" stroke="transparent" points="8,-620.0591 8,-703.0591 131,-703.0591 131,-620.0591 8,-620.0591"/>
<polygon fill="#f5f5f5" stroke="transparent" points="8.5,-679.5591 8.5,-702.5591 131.5,-702.5591 131.5,-679.5591 8.5,-679.5591"/>
<polygon fill="none" stroke="#000000" points="8.5,-679.5591 8.5,-702.5591 131.5,-702.5591 131.5,-679.5591 8.5,-679.5591"/>
<text text-anchor="start" x="13.5" y="-688.6591" font-family="Helvetica,sans-Serif" font-weight="bold" font-size="11.00" fill="#000000">personas</text>
<text text-anchor="start" x="96.5437" y="-687.6591" font-family="Helvetica,sans-Serif" font-size="11.00" fill="#000000">[table]</text>
<polygon fill="none" stroke="#000000" points="8.5,-657.5591 8.5,-679.5591 131.5,-679.5591 131.5,-657.5591 8.5,-657.5591"/>
<image xlink:href="../../images/primaryKeys.png" width="11px" height="12px" preserveAspectRatio="xMinYMin meet" x="13.5" y="-674.559"/>
<text text-anchor="start" x="28.5" y="-664.6591" font-family="Helvetica,sans-Serif" font-size="11.00" fill="#000000">persona_id</text>
<polygon fill="none" stroke="#000000" points="8.5,-638.5591 8.5,-657.5591 131.5,-657.5591 131.5,-638.5591 8.5,-638.5591"/>
<text text-anchor="start" x="11.5" y="-644.6591" font-family="Helvetica,sans-Serif" font-size="11.00" fill="#000000">...</text>
<polygon fill="#ffffff" stroke="transparent" points="8.5,-619.5591 8.5,-638.5591 46.5,-638.5591 46.5,-619.5591 8.5,-619.5591"/>
<polygon fill="none" stroke="#000000" points="8.5,-619.5591 8.5,-638.5591 46.5,-638.5591 46.5,-619.5591 8.5,-619.5591"/>
<text text-anchor="start" x="11.5" y="-625.6591" font-family="Helvetica,sans-Serif" font-size="11.00" fill="#000000"> &#160;</text>
<polygon fill="#ffffff" stroke="transparent" points="46.5,-619.5591 46.5,-638.5591 97.5,-638.5591 97.5,-619.5591 46.5,-619.5591"/>
<polygon fill="none" stroke="#000000" points="46.5,-619.5591 46.5,-638.5591 97.5,-638.5591 97.5,-619.5591 46.5,-619.5591"/>
<text text-anchor="start" x="62.1105" y="-625.6591" font-family="Helvetica,sans-Serif" font-size="11.00" fill="#000000">5 rows</text>
<polygon fill="#ffffff" stroke="transparent" points="97.5,-619.5591 97.5,-638.5591 131.5,-638.5591 131.5,-619.5591 97.5,-619.5591"/>
<polygon fill="none" stroke="#000000" points="97.5,-619.5591 97.5,-638.5591 131.5,-638.5591 131.5,-619.5591 97.5,-619.5591"/>
<text text-anchor="start" x="112.9053" y="-625.6591" font-family="Helvetica,sans-Serif" font-size="11.00" fill="#000000">6 &gt;</text>
</a>
</g>
</g>
<!-- contactos&#45;&gt;personas -->
<g id="edge5" class="edge">
<title>contactos:w&#45;&gt;personas:e</title>
<path fill="none" stroke="#000000" d="M442.1063,-695.0552C387.3814,-691.0742 372.3203,-664.6347 311,-656.5591 249.7511,-648.4928 233.1381,-647.6921 172,-656.5591 153.4209,-659.2536 150.2735,-668.5591 131.5,-668.5591"/>
<polygon fill="#000000" stroke="#000000" points="448.5049,-695.2792 456.374,-699.1569 452.5024,-695.4191 456.5,-695.5591 456.5,-695.5591 456.5,-695.5591 452.5024,-695.4191 456.626,-691.9613 448.5049,-695.2792 448.5049,-695.2792"/>
<ellipse fill="none" stroke="#000000" cx="445.3069" cy="-695.1672" rx="3.2" ry="3.2"/>
</g>
<!-- leads&#45;&gt;usuarios -->
<g id="edge14" class="edge">
<title>leads:w&#45;&gt;usuarios:e</title>
<path fill="none" stroke="#000000" d="M340.1848,-379.5667C300.0504,-400.2456 365.5606,-520.5591 303.5,-520.5591"/>
<polygon fill="#000000" stroke="#000000" points="346.6709,-378.204 355.2402,-380.0821 350.5855,-377.3815 354.5,-376.5591 354.5,-376.5591 354.5,-376.5591 350.5855,-377.3815 353.7598,-373.036 346.6709,-378.204 346.6709,-378.204"/>
<ellipse fill="none" stroke="#000000" cx="343.5393" cy="-378.862" rx="3.2" ry="3.2"/>
</g>
<!-- leads&#45;&gt;personas -->
<g id="edge13" class="edge">
<title>leads:w&#45;&gt;personas:e</title>
<path fill="none" stroke="#000000" d="M339.8924,-310.9073C252.0682,-315.2418 222.5026,-359.9411 172,-439.5591 144.3188,-483.1988 183.1786,-668.5591 131.5,-668.5591"/>
<polygon fill="#000000" stroke="#000000" points="346.5023,-310.7498 354.5858,-314.158 350.5011,-310.6544 354.5,-310.5591 354.5,-310.5591 354.5,-310.5591 350.5011,-310.6544 354.4142,-306.9601 346.5023,-310.7498 346.5023,-310.7498"/>
<ellipse fill="none" stroke="#000000" cx="343.3032" cy="-310.8261" rx="3.2" ry="3.2"/>
</g>
<!-- curso_ciclos -->
<g id="node7" class="node">
<title>curso_ciclos</title>
<g id="a_node7"><a xlink:href="../../tables/curso_ciclos.html" xlink:title="curso_ciclos" target="_top">
<polygon fill="#ffffff" stroke="transparent" points="180,-59.0591 180,-164.0591 303,-164.0591 303,-59.0591 180,-59.0591"/>
<polygon fill="#f5f5f5" stroke="transparent" points="180.5,-140.5591 180.5,-163.5591 303.5,-163.5591 303.5,-140.5591 180.5,-140.5591"/>
<polygon fill="none" stroke="#000000" points="180.5,-140.5591 180.5,-163.5591 303.5,-163.5591 303.5,-140.5591 180.5,-140.5591"/>
<text text-anchor="start" x="185.5" y="-149.6591" font-family="Helvetica,sans-Serif" font-weight="bold" font-size="11.00" fill="#000000">curso_ciclos</text>
<text text-anchor="start" x="268.5437" y="-148.6591" font-family="Helvetica,sans-Serif" font-size="11.00" fill="#000000">[table]</text>
<polygon fill="none" stroke="#000000" points="180.5,-118.5591 180.5,-140.5591 303.5,-140.5591 303.5,-118.5591 180.5,-118.5591"/>
<image xlink:href="../../images/primaryKeys.png" width="11px" height="12px" preserveAspectRatio="xMinYMin meet" x="185.5" y="-135.559"/>
<text text-anchor="start" x="200.5" y="-125.6591" font-family="Helvetica,sans-Serif" font-size="11.00" fill="#000000">ciclo_id</text>
<polygon fill="none" stroke="#000000" points="180.5,-96.5591 180.5,-118.5591 303.5,-118.5591 303.5,-96.5591 180.5,-96.5591"/>
<image xlink:href="../../images/foreignKeys.png" width="11px" height="12px" preserveAspectRatio="xMinYMin meet" x="185.5" y="-113.559"/>
<text text-anchor="start" x="200.5" y="-103.6591" font-family="Helvetica,sans-Serif" font-size="11.00" fill="#000000">curso_id</text>
<polygon fill="none" stroke="#000000" points="180.5,-77.5591 180.5,-96.5591 303.5,-96.5591 303.5,-77.5591 180.5,-77.5591"/>
<text text-anchor="start" x="183.5" y="-83.6591" font-family="Helvetica,sans-Serif" font-size="11.00" fill="#000000">...</text>
<polygon fill="#ffffff" stroke="transparent" points="180.5,-58.5591 180.5,-77.5591 225.5,-77.5591 225.5,-58.5591 180.5,-58.5591"/>
<polygon fill="none" stroke="#000000" points="180.5,-58.5591 180.5,-77.5591 225.5,-77.5591 225.5,-58.5591 180.5,-58.5591"/>
<text text-anchor="start" x="183.5" y="-64.6591" font-family="Helvetica,sans-Serif" font-size="11.00" fill="#000000">&lt; 1</text>
<polygon fill="#ffffff" stroke="transparent" points="225.5,-58.5591 225.5,-77.5591 269.5,-77.5591 269.5,-58.5591 225.5,-58.5591"/>
<polygon fill="none" stroke="#000000" points="225.5,-58.5591 225.5,-77.5591 269.5,-77.5591 269.5,-58.5591 225.5,-58.5591"/>
<text text-anchor="start" x="239.6105" y="-64.6591" font-family="Helvetica,sans-Serif" font-size="11.00" fill="#000000">1 row</text>
<polygon fill="#ffffff" stroke="transparent" points="269.5,-58.5591 269.5,-77.5591 303.5,-77.5591 303.5,-58.5591 269.5,-58.5591"/>
<polygon fill="none" stroke="#000000" points="269.5,-58.5591 269.5,-77.5591 303.5,-77.5591 303.5,-58.5591 269.5,-58.5591"/>
<text text-anchor="start" x="284.9053" y="-64.6591" font-family="Helvetica,sans-Serif" font-size="11.00" fill="#000000">2 &gt;</text>
</a>
</g>
</g>
<!-- leads&#45;&gt;curso_ciclos -->
<g id="edge11" class="edge">
<title>leads:w&#45;&gt;curso_ciclos:e</title>
<path fill="none" stroke="#000000" d="M340.8147,-174.0371C325.9944,-161.9067 329.0395,-129.5591 303.5,-129.5591"/>
<polygon fill="#000000" stroke="#000000" points="346.9039,-176.0491 353.3705,-181.9773 350.702,-177.3041 354.5,-178.5591 354.5,-178.5591 354.5,-178.5591 350.702,-177.3041 355.6295,-175.1408 346.9039,-176.0491 346.9039,-176.0491"/>
<ellipse fill="none" stroke="#000000" cx="343.8655" cy="-175.0451" rx="3.2" ry="3.2"/>
</g>
<!-- cursos -->
<g id="node8" class="node">
<title>cursos</title>
<g id="a_node8"><a xlink:href="../../tables/cursos.html" xlink:title="cursos" target="_top">
<polygon fill="#ffffff" stroke="transparent" points="8,-59.0591 8,-142.0591 131,-142.0591 131,-59.0591 8,-59.0591"/>
<polygon fill="#f5f5f5" stroke="transparent" points="8.5,-118.5591 8.5,-141.5591 131.5,-141.5591 131.5,-118.5591 8.5,-118.5591"/>
<polygon fill="none" stroke="#000000" points="8.5,-118.5591 8.5,-141.5591 131.5,-141.5591 131.5,-118.5591 8.5,-118.5591"/>
<text text-anchor="start" x="13.5" y="-127.6591" font-family="Helvetica,sans-Serif" font-weight="bold" font-size="11.00" fill="#000000">cursos</text>
<text text-anchor="start" x="96.5437" y="-126.6591" font-family="Helvetica,sans-Serif" font-size="11.00" fill="#000000">[table]</text>
<polygon fill="none" stroke="#000000" points="8.5,-96.5591 8.5,-118.5591 131.5,-118.5591 131.5,-96.5591 8.5,-96.5591"/>
<image xlink:href="../../images/primaryKeys.png" width="11px" height="12px" preserveAspectRatio="xMinYMin meet" x="13.5" y="-113.559"/>
<text text-anchor="start" x="28.5" y="-103.6591" font-family="Helvetica,sans-Serif" font-size="11.00" fill="#000000">curso_id</text>
<polygon fill="none" stroke="#000000" points="8.5,-77.5591 8.5,-96.5591 131.5,-96.5591 131.5,-77.5591 8.5,-77.5591"/>
<text text-anchor="start" x="11.5" y="-83.6591" font-family="Helvetica,sans-Serif" font-size="11.00" fill="#000000">...</text>
<polygon fill="#ffffff" stroke="transparent" points="8.5,-58.5591 8.5,-77.5591 43.5,-77.5591 43.5,-58.5591 8.5,-58.5591"/>
<polygon fill="none" stroke="#000000" points="8.5,-58.5591 8.5,-77.5591 43.5,-77.5591 43.5,-58.5591 8.5,-58.5591"/>
<text text-anchor="start" x="11.5" y="-64.6591" font-family="Helvetica,sans-Serif" font-size="11.00" fill="#000000"> &#160;</text>
<polygon fill="#ffffff" stroke="transparent" points="43.5,-58.5591 43.5,-77.5591 98.5,-77.5591 98.5,-58.5591 43.5,-58.5591"/>
<polygon fill="none" stroke="#000000" points="43.5,-58.5591 43.5,-77.5591 98.5,-77.5591 98.5,-58.5591 43.5,-58.5591"/>
<text text-anchor="start" x="56.9956" y="-64.6591" font-family="Helvetica,sans-Serif" font-size="11.00" fill="#000000">10 rows</text>
<polygon fill="#ffffff" stroke="transparent" points="98.5,-58.5591 98.5,-77.5591 131.5,-77.5591 131.5,-58.5591 98.5,-58.5591"/>
<polygon fill="none" stroke="#000000" points="98.5,-58.5591 98.5,-77.5591 131.5,-77.5591 131.5,-58.5591 98.5,-58.5591"/>
<text text-anchor="start" x="112.9053" y="-64.6591" font-family="Helvetica,sans-Serif" font-size="11.00" fill="#000000">3 &gt;</text>
</a>
</g>
</g>
<!-- leads&#45;&gt;cursos -->
<g id="edge12" class="edge">
<title>leads:w&#45;&gt;cursos:e</title>
<path fill="none" stroke="#000000" d="M340.515,-204.4346C322.7347,-217.7295 339.8789,-261.5983 311,-278.5591 257.73,-309.8448 220.4565,-316.8796 172,-278.5591 110.7389,-230.1124 209.6025,-107.5591 131.5,-107.5591"/>
<polygon fill="#000000" stroke="#000000" points="346.7906,-202.6956 355.4614,-204.0283 350.6453,-201.6273 354.5,-200.5591 354.5,-200.5591 354.5,-200.5591 350.6453,-201.6273 353.5386,-197.0898 346.7906,-202.6956 346.7906,-202.6956"/>
<ellipse fill="none" stroke="#000000" cx="343.7068" cy="-203.5502" rx="3.2" ry="3.2"/>
</g>
<!-- campanas -->
<g id="node11" class="node">
<title>campanas</title>
<g id="a_node11"><a xlink:href="../../tables/campanas.html" xlink:title="campanas" target="_top">
<polygon fill="#ffffff" stroke="transparent" points="180,-185.0591 180,-268.0591 303,-268.0591 303,-185.0591 180,-185.0591"/>
<polygon fill="#f5f5f5" stroke="transparent" points="180.5,-244.5591 180.5,-267.5591 303.5,-267.5591 303.5,-244.5591 180.5,-244.5591"/>
<polygon fill="none" stroke="#000000" points="180.5,-244.5591 180.5,-267.5591 303.5,-267.5591 303.5,-244.5591 180.5,-244.5591"/>
<text text-anchor="start" x="185.5" y="-253.6591" font-family="Helvetica,sans-Serif" font-weight="bold" font-size="11.00" fill="#000000">campanas</text>
<text text-anchor="start" x="268.5437" y="-252.6591" font-family="Helvetica,sans-Serif" font-size="11.00" fill="#000000">[table]</text>
<polygon fill="none" stroke="#000000" points="180.5,-222.5591 180.5,-244.5591 303.5,-244.5591 303.5,-222.5591 180.5,-222.5591"/>
<image xlink:href="../../images/primaryKeys.png" width="11px" height="12px" preserveAspectRatio="xMinYMin meet" x="185.5" y="-239.559"/>
<text text-anchor="start" x="200.5" y="-229.6591" font-family="Helvetica,sans-Serif" font-size="11.00" fill="#000000">campana_id</text>
<polygon fill="none" stroke="#000000" points="180.5,-203.5591 180.5,-222.5591 303.5,-222.5591 303.5,-203.5591 180.5,-203.5591"/>
<text text-anchor="start" x="183.5" y="-209.6591" font-family="Helvetica,sans-Serif" font-size="11.00" fill="#000000">...</text>
<polygon fill="#ffffff" stroke="transparent" points="180.5,-184.5591 180.5,-203.5591 218.5,-203.5591 218.5,-184.5591 180.5,-184.5591"/>
<polygon fill="none" stroke="#000000" points="180.5,-184.5591 180.5,-203.5591 218.5,-203.5591 218.5,-184.5591 180.5,-184.5591"/>
<text text-anchor="start" x="183.5" y="-190.6591" font-family="Helvetica,sans-Serif" font-size="11.00" fill="#000000"> &#160;</text>
<polygon fill="#ffffff" stroke="transparent" points="218.5,-184.5591 218.5,-203.5591 269.5,-203.5591 269.5,-184.5591 218.5,-184.5591"/>
<polygon fill="none" stroke="#000000" points="218.5,-184.5591 218.5,-203.5591 269.5,-203.5591 269.5,-184.5591 218.5,-184.5591"/>
<text text-anchor="start" x="234.1105" y="-190.6591" font-family="Helvetica,sans-Serif" font-size="11.00" fill="#000000">0 rows</text>
<polygon fill="#ffffff" stroke="transparent" points="269.5,-184.5591 269.5,-203.5591 303.5,-203.5591 303.5,-184.5591 269.5,-184.5591"/>
<polygon fill="none" stroke="#000000" points="269.5,-184.5591 269.5,-203.5591 303.5,-203.5591 303.5,-184.5591 269.5,-184.5591"/>
<text text-anchor="start" x="284.9053" y="-190.6591" font-family="Helvetica,sans-Serif" font-size="11.00" fill="#000000">2 &gt;</text>
</a>
</g>
</g>
<!-- leads&#45;&gt;campanas -->
<g id="edge10" class="edge">
<title>leads:w&#45;&gt;campanas:e</title>
<path fill="none" stroke="#000000" d="M340.2982,-351.0683C308.2098,-331.229 355.9323,-233.5591 303.5,-233.5591"/>
<polygon fill="#000000" stroke="#000000" points="346.7312,-352.6495 353.6407,-358.055 350.6156,-353.6043 354.5,-354.5591 354.5,-354.5591 354.5,-354.5591 350.6156,-353.6043 355.3593,-351.0631 346.7312,-352.6495 346.7312,-352.6495"/>
<ellipse fill="none" stroke="#000000" cx="343.6237" cy="-351.8856" rx="3.2" ry="3.2"/>
</g>
<!-- organizaciones&#45;&gt;personas -->
<g id="edge23" class="edge">
<title>organizaciones:w&#45;&gt;personas:e</title>
<path fill="none" stroke="#000000" d="M169.2735,-691.16C156.2053,-684.1124 151.4849,-668.5591 131.5,-668.5591"/>
<polygon fill="#000000" stroke="#000000" points="175.719,-692.7 182.6634,-698.0605 179.6095,-693.6295 183.5,-694.5591 183.5,-694.5591 183.5,-694.5591 179.6095,-693.6295 184.3366,-691.0576 175.719,-692.7 175.719,-692.7"/>
<ellipse fill="none" stroke="#000000" cx="172.6066" cy="-691.9563" rx="3.2" ry="3.2"/>
</g>
<!-- curso_ciclos&#45;&gt;cursos -->
<g id="edge6" class="edge">
<title>curso_ciclos:w&#45;&gt;cursos:e</title>
<path fill="none" stroke="#000000" d="M165.9909,-107.5591C154.6774,-107.5591 147.4931,-107.5591 131.5,-107.5591"/>
<polygon fill="#000000" stroke="#000000" points="172.5,-107.5591 180.5,-111.1591 176.5,-107.5591 180.5,-107.5591 180.5,-107.5591 180.5,-107.5591 176.5,-107.5591 180.5,-103.9591 172.5,-107.5591 172.5,-107.5591"/>
<ellipse fill="none" stroke="#000000" cx="169.3" cy="-107.5591" rx="3.2" ry="3.2"/>
</g>
<!-- direcciones -->
<g id="node9" class="node">
<title>direcciones</title>
<g id="a_node9"><a xlink:href="../../tables/direcciones.html" xlink:title="direcciones" target="_top">
<polygon fill="#ffffff" stroke="transparent" points="192.5,-831.0591 192.5,-892.0591 290.5,-892.0591 290.5,-831.0591 192.5,-831.0591"/>
<polygon fill="#f5f5f5" stroke="transparent" points="192.5,-868.5591 192.5,-891.5591 290.5,-891.5591 290.5,-868.5591 192.5,-868.5591"/>
<polygon fill="none" stroke="#000000" points="192.5,-868.5591 192.5,-891.5591 290.5,-891.5591 290.5,-868.5591 192.5,-868.5591"/>
<text text-anchor="start" x="197.1909" y="-877.6591" font-family="Helvetica,sans-Serif" font-weight="bold" font-size="11.00" fill="#000000">direcciones</text>
<text text-anchor="start" x="256.0219" y="-876.6591" font-family="Helvetica,sans-Serif" font-size="11.00" fill="#000000">[table]</text>
<polygon fill="none" stroke="#000000" points="192.5,-849.5591 192.5,-868.5591 290.5,-868.5591 290.5,-849.5591 192.5,-849.5591"/>
<text text-anchor="start" x="195.5" y="-855.6591" font-family="Helvetica,sans-Serif" font-size="11.00" fill="#000000">...</text>
<polygon fill="#ffffff" stroke="transparent" points="192.5,-830.5591 192.5,-849.5591 229.5,-849.5591 229.5,-830.5591 192.5,-830.5591"/>
<polygon fill="none" stroke="#000000" points="192.5,-830.5591 192.5,-849.5591 229.5,-849.5591 229.5,-830.5591 192.5,-830.5591"/>
<text text-anchor="start" x="195.5" y="-836.6591" font-family="Helvetica,sans-Serif" font-size="11.00" fill="#000000">&lt; 1</text>
<polygon fill="#ffffff" stroke="transparent" points="229.5,-830.5591 229.5,-849.5591 269.5,-849.5591 269.5,-830.5591 229.5,-830.5591"/>
<polygon fill="none" stroke="#000000" points="229.5,-830.5591 229.5,-849.5591 269.5,-849.5591 269.5,-830.5591 229.5,-830.5591"/>
<text text-anchor="start" x="239.6105" y="-836.6591" font-family="Helvetica,sans-Serif" font-size="11.00" fill="#000000">1 row</text>
<polygon fill="#ffffff" stroke="transparent" points="269.5,-830.5591 269.5,-849.5591 290.5,-849.5591 290.5,-830.5591 269.5,-830.5591"/>
<polygon fill="none" stroke="#000000" points="269.5,-830.5591 269.5,-849.5591 290.5,-849.5591 290.5,-830.5591 269.5,-830.5591"/>
<text text-anchor="start" x="281.3862" y="-836.6591" font-family="Helvetica,sans-Serif" font-size="11.00" fill="#000000"> &#160;</text>
</a>
</g>
</g>
<!-- direcciones&#45;&gt;personas -->
<g id="edge7" class="edge">
<title>direcciones:w&#45;&gt;personas:e</title>
<path fill="none" stroke="#000000" d="M178.1737,-856.4253C117.5566,-835.5512 214.6467,-668.5591 131.5,-668.5591"/>
<polygon fill="#000000" stroke="#000000" points="184.5873,-857.3805 191.9696,-862.1198 188.5436,-857.9698 192.5,-858.5591 192.5,-858.5591 192.5,-858.5591 188.5436,-857.9698 193.0304,-854.9983 184.5873,-857.3805 184.5873,-857.3805"/>
<ellipse fill="none" stroke="#000000" cx="181.4222" cy="-856.909" rx="3.2" ry="3.2"/>
</g>
<!-- empleados -->
<g id="node10" class="node">
<title>empleados</title>
<g id="a_node10"><a xlink:href="../../tables/empleados.html" xlink:title="empleados" target="_top">
<polygon fill="#ffffff" stroke="transparent" points="453.5,-586.0591 453.5,-647.0591 549.5,-647.0591 549.5,-586.0591 453.5,-586.0591"/>
<polygon fill="#f5f5f5" stroke="transparent" points="453.5,-623.5591 453.5,-646.5591 549.5,-646.5591 549.5,-623.5591 453.5,-623.5591"/>
<polygon fill="none" stroke="#000000" points="453.5,-623.5591 453.5,-646.5591 549.5,-646.5591 549.5,-623.5591 453.5,-623.5591"/>
<text text-anchor="start" x="458.1039" y="-632.6591" font-family="Helvetica,sans-Serif" font-weight="bold" font-size="11.00" fill="#000000">empleados</text>
<text text-anchor="start" x="515.0219" y="-631.6591" font-family="Helvetica,sans-Serif" font-size="11.00" fill="#000000">[table]</text>
<polygon fill="none" stroke="#000000" points="453.5,-604.5591 453.5,-623.5591 549.5,-623.5591 549.5,-604.5591 453.5,-604.5591"/>
<text text-anchor="start" x="456.5" y="-610.6591" font-family="Helvetica,sans-Serif" font-size="11.00" fill="#000000">...</text>
<polygon fill="#ffffff" stroke="transparent" points="453.5,-585.5591 453.5,-604.5591 489.5,-604.5591 489.5,-585.5591 453.5,-585.5591"/>
<polygon fill="none" stroke="#000000" points="453.5,-585.5591 453.5,-604.5591 489.5,-604.5591 489.5,-585.5591 453.5,-585.5591"/>
<text text-anchor="start" x="456.5" y="-591.6591" font-family="Helvetica,sans-Serif" font-size="11.00" fill="#000000">&lt; 2</text>
<polygon fill="#ffffff" stroke="transparent" points="489.5,-585.5591 489.5,-604.5591 529.5,-604.5591 529.5,-585.5591 489.5,-585.5591"/>
<polygon fill="none" stroke="#000000" points="489.5,-585.5591 489.5,-604.5591 529.5,-604.5591 529.5,-585.5591 489.5,-585.5591"/>
<text text-anchor="start" x="499.6105" y="-591.6591" font-family="Helvetica,sans-Serif" font-size="11.00" fill="#000000">1 row</text>
<polygon fill="#ffffff" stroke="transparent" points="529.5,-585.5591 529.5,-604.5591 549.5,-604.5591 549.5,-585.5591 529.5,-585.5591"/>
<polygon fill="none" stroke="#000000" points="529.5,-585.5591 529.5,-604.5591 549.5,-604.5591 549.5,-585.5591 529.5,-585.5591"/>
<text text-anchor="start" x="540.3862" y="-591.6591" font-family="Helvetica,sans-Serif" font-size="11.00" fill="#000000"> &#160;</text>
</a>
</g>
</g>
<!-- empleados&#45;&gt;usuarios -->
<g id="edge9" class="edge">
<title>empleados:w&#45;&gt;usuarios:e</title>
<path fill="none" stroke="#000000" d="M438.9559,-613.2183C398.0536,-611.1392 381.8403,-599.3206 344,-571.5591 320.6626,-554.4376 332.4444,-520.5591 303.5,-520.5591"/>
<polygon fill="#000000" stroke="#000000" points="445.5022,-613.3716 453.4156,-617.1581 449.5011,-613.4653 453.5,-613.5591 453.5,-613.5591 453.5,-613.5591 449.5011,-613.4653 453.5844,-609.96 445.5022,-613.3716 445.5022,-613.3716"/>
<ellipse fill="none" stroke="#000000" cx="442.3031" cy="-613.2966" rx="3.2" ry="3.2"/>
</g>
<!-- empleados&#45;&gt;personas -->
<g id="edge8" class="edge">
<title>empleados:w&#45;&gt;personas:e</title>
<path fill="none" stroke="#000000" d="M438.7889,-613.5467C324.5352,-613.3711 287.5973,-611.8923 172,-647.5591 152.6254,-653.537 151.7759,-668.5591 131.5,-668.5591"/>
<polygon fill="#000000" stroke="#000000" points="445.5,-613.5523 453.4969,-617.1591 449.5,-613.5557 453.5,-613.5591 453.5,-613.5591 453.5,-613.5591 449.5,-613.5557 453.5031,-609.9591 445.5,-613.5523 445.5,-613.5523"/>
<ellipse fill="none" stroke="#000000" cx="442.3" cy="-613.5496" rx="3.2" ry="3.2"/>
</g>
<!-- llamadas -->
<g id="node12" class="node">
<title>llamadas</title>
<g id="a_node12"><a xlink:href="../../tables/llamadas.html" xlink:title="llamadas" target="_top">
<polygon fill="#ffffff" stroke="transparent" points="700,-656.0591 700,-805.0591 823,-805.0591 823,-656.0591 700,-656.0591"/>
<polygon fill="#f5f5f5" stroke="transparent" points="700.5,-781.5591 700.5,-804.5591 823.5,-804.5591 823.5,-781.5591 700.5,-781.5591"/>
<polygon fill="none" stroke="#000000" points="700.5,-781.5591 700.5,-804.5591 823.5,-804.5591 823.5,-781.5591 700.5,-781.5591"/>
<text text-anchor="start" x="705.5" y="-790.6591" font-family="Helvetica,sans-Serif" font-weight="bold" font-size="11.00" fill="#000000">llamadas</text>
<text text-anchor="start" x="788.5437" y="-789.6591" font-family="Helvetica,sans-Serif" font-size="11.00" fill="#000000">[table]</text>
<polygon fill="none" stroke="#000000" points="700.5,-759.5591 700.5,-781.5591 823.5,-781.5591 823.5,-759.5591 700.5,-759.5591"/>
<image xlink:href="../../images/primaryKeys.png" width="11px" height="12px" preserveAspectRatio="xMinYMin meet" x="705.5" y="-776.559"/>
<text text-anchor="start" x="720.5" y="-766.6591" font-family="Helvetica,sans-Serif" font-size="11.00" fill="#000000">llamada_id</text>
<polygon fill="none" stroke="#000000" points="700.5,-737.5591 700.5,-759.5591 823.5,-759.5591 823.5,-737.5591 700.5,-737.5591"/>
<image xlink:href="../../images/foreignKeys.png" width="11px" height="12px" preserveAspectRatio="xMinYMin meet" x="705.5" y="-754.559"/>
<text text-anchor="start" x="720.5" y="-744.6591" font-family="Helvetica,sans-Serif" font-size="11.00" fill="#000000">contacto_id</text>
<polygon fill="none" stroke="#000000" points="700.5,-715.5591 700.5,-737.5591 823.5,-737.5591 823.5,-715.5591 700.5,-715.5591"/>
<image xlink:href="../../images/foreignKeys.png" width="11px" height="12px" preserveAspectRatio="xMinYMin meet" x="705.5" y="-732.559"/>
<text text-anchor="start" x="720.5" y="-722.6591" font-family="Helvetica,sans-Serif" font-size="11.00" fill="#000000">lead_id</text>
<polygon fill="none" stroke="#000000" points="700.5,-693.5591 700.5,-715.5591 823.5,-715.5591 823.5,-693.5591 700.5,-693.5591"/>
<image xlink:href="../../images/foreignKeys.png" width="11px" height="12px" preserveAspectRatio="xMinYMin meet" x="705.5" y="-710.559"/>
<text text-anchor="start" x="720.5" y="-700.6591" font-family="Helvetica,sans-Serif" font-size="11.00" fill="#000000">usu_asignado_id</text>
<polygon fill="none" stroke="#000000" points="700.5,-674.5591 700.5,-693.5591 823.5,-693.5591 823.5,-674.5591 700.5,-674.5591"/>
<text text-anchor="start" x="703.5" y="-680.6591" font-family="Helvetica,sans-Serif" font-size="11.00" fill="#000000">...</text>
<polygon fill="#ffffff" stroke="transparent" points="700.5,-655.5591 700.5,-674.5591 747.5,-674.5591 747.5,-655.5591 700.5,-655.5591"/>
<polygon fill="none" stroke="#000000" points="700.5,-655.5591 700.5,-674.5591 747.5,-674.5591 747.5,-655.5591 700.5,-655.5591"/>
<text text-anchor="start" x="703.5" y="-661.6591" font-family="Helvetica,sans-Serif" font-size="11.00" fill="#000000">&lt; 3</text>
<polygon fill="#ffffff" stroke="transparent" points="747.5,-655.5591 747.5,-674.5591 798.5,-674.5591 798.5,-655.5591 747.5,-655.5591"/>
<polygon fill="none" stroke="#000000" points="747.5,-655.5591 747.5,-674.5591 798.5,-674.5591 798.5,-655.5591 747.5,-655.5591"/>
<text text-anchor="start" x="763.1105" y="-661.6591" font-family="Helvetica,sans-Serif" font-size="11.00" fill="#000000">0 rows</text>
<polygon fill="#ffffff" stroke="transparent" points="798.5,-655.5591 798.5,-674.5591 823.5,-674.5591 823.5,-655.5591 798.5,-655.5591"/>
<polygon fill="none" stroke="#000000" points="798.5,-655.5591 798.5,-674.5591 823.5,-674.5591 823.5,-655.5591 798.5,-655.5591"/>
<text text-anchor="start" x="814.3862" y="-661.6591" font-family="Helvetica,sans-Serif" font-size="11.00" fill="#000000"> &#160;</text>
</a>
</g>
</g>
<!-- llamadas&#45;&gt;contactos -->
<g id="edge15" class="edge">
<title>llamadas:w&#45;&gt;contactos:e</title>
<path fill="none" stroke="#000000" d="M685.749,-747.7687C626.4516,-741.1757 613.6535,-695.5591 546.5,-695.5591"/>
<polygon fill="#000000" stroke="#000000" points="692.5115,-748.131 700.3074,-752.1539 696.5057,-748.345 700.5,-748.5591 700.5,-748.5591 700.5,-748.5591 696.5057,-748.345 700.6926,-744.9642 692.5115,-748.131 692.5115,-748.131"/>
<ellipse fill="none" stroke="#000000" cx="689.316" cy="-747.9598" rx="3.2" ry="3.2"/>
</g>
<!-- llamadas&#45;&gt;leads -->
<g id="edge16" class="edge">
<title>llamadas:w&#45;&gt;leads:e</title>
<path fill="none" stroke="#000000" d="M687.0471,-721.2479C644.1854,-680.6142 713.0522,-420.5591 649.5,-420.5591"/>
<polygon fill="#000000" stroke="#000000" points="693.0589,-723.6213 699.178,-729.9075 696.7795,-725.0902 700.5,-726.5591 700.5,-726.5591 700.5,-726.5591 696.7795,-725.0902 701.822,-723.2106 693.0589,-723.6213 693.0589,-723.6213"/>
<ellipse fill="none" stroke="#000000" cx="690.0825" cy="-722.4462" rx="3.2" ry="3.2"/>
</g>
<!-- llamadas&#45;&gt;usuarios -->
<g id="edge17" class="edge">
<title>llamadas:w&#45;&gt;usuarios:e</title>
<path fill="none" stroke="#000000" d="M686.2226,-702.0981C651.9395,-687.3488 700.9207,-610.1437 659,-575.5591 604.6124,-530.6892 412.1606,-555.5991 344,-537.5591 325.1284,-532.5643 323.0214,-520.5591 303.5,-520.5591"/>
<polygon fill="#000000" stroke="#000000" points="692.6163,-703.2001 699.8885,-708.1067 696.5581,-703.8796 700.5,-704.5591 700.5,-704.5591 700.5,-704.5591 696.5581,-703.8796 701.1115,-701.0114 692.6163,-703.2001 692.6163,-703.2001"/>
<ellipse fill="none" stroke="#000000" cx="689.4628" cy="-702.6565" rx="3.2" ry="3.2"/>
</g>
<!-- oportunidades -->
<g id="node13" class="node">
<title>oportunidades</title>
<g id="a_node13"><a xlink:href="../../tables/oportunidades.html" xlink:title="oportunidades" target="_top">
<polygon fill="#ffffff" stroke="transparent" points="705.5,-95.0591 705.5,-156.0591 817.5,-156.0591 817.5,-95.0591 705.5,-95.0591"/>
<polygon fill="#f5f5f5" stroke="transparent" points="705.5,-132.5591 705.5,-155.5591 817.5,-155.5591 817.5,-132.5591 705.5,-132.5591"/>
<polygon fill="none" stroke="#000000" points="705.5,-132.5591 705.5,-155.5591 817.5,-155.5591 817.5,-132.5591 705.5,-132.5591"/>
<text text-anchor="start" x="710.1531" y="-141.6591" font-family="Helvetica,sans-Serif" font-weight="bold" font-size="11.00" fill="#000000">oportunidades</text>
<text text-anchor="start" x="783.0219" y="-140.6591" font-family="Helvetica,sans-Serif" font-size="11.00" fill="#000000">[table]</text>
<polygon fill="none" stroke="#000000" points="705.5,-113.5591 705.5,-132.5591 817.5,-132.5591 817.5,-113.5591 705.5,-113.5591"/>
<text text-anchor="start" x="708.5" y="-119.6591" font-family="Helvetica,sans-Serif" font-size="11.00" fill="#000000">...</text>
<polygon fill="#ffffff" stroke="transparent" points="705.5,-94.5591 705.5,-113.5591 739.5,-113.5591 739.5,-94.5591 705.5,-94.5591"/>
<polygon fill="none" stroke="#000000" points="705.5,-94.5591 705.5,-113.5591 739.5,-113.5591 739.5,-94.5591 705.5,-94.5591"/>
<text text-anchor="start" x="708.5" y="-100.6591" font-family="Helvetica,sans-Serif" font-size="11.00" fill="#000000">&lt; 5</text>
<polygon fill="#ffffff" stroke="transparent" points="739.5,-94.5591 739.5,-113.5591 789.5,-113.5591 789.5,-94.5591 739.5,-94.5591"/>
<polygon fill="none" stroke="#000000" points="739.5,-94.5591 739.5,-113.5591 789.5,-113.5591 789.5,-94.5591 739.5,-94.5591"/>
<text text-anchor="start" x="747.9956" y="-100.6591" font-family="Helvetica,sans-Serif" font-size="11.00" fill="#000000">14 rows</text>
<polygon fill="#ffffff" stroke="transparent" points="789.5,-94.5591 789.5,-113.5591 817.5,-113.5591 817.5,-94.5591 789.5,-94.5591"/>
<polygon fill="none" stroke="#000000" points="789.5,-94.5591 789.5,-113.5591 817.5,-113.5591 817.5,-94.5591 789.5,-94.5591"/>
<text text-anchor="start" x="798.9053" y="-100.6591" font-family="Helvetica,sans-Serif" font-size="11.00" fill="#000000">1 &gt;</text>
</a>
</g>
</g>
<!-- oportunidades&#45;&gt;contactos -->
<g id="edge20" class="edge">
<title>oportunidades:w&#45;&gt;contactos:e</title>
<path fill="none" stroke="#000000" d="M693.4301,-131.0529C653.1181,-196.1286 692.9804,-614.3029 659,-657.5591 626.3982,-699.0603 599.2753,-695.5591 546.5,-695.5591"/>
<polygon fill="#000000" stroke="#000000" points="698.9576,-127.1631 707.5718,-125.5031 702.2288,-124.8611 705.5,-122.5591 705.5,-122.5591 705.5,-122.5591 702.2288,-124.8611 703.4282,-119.615 698.9576,-127.1631 698.9576,-127.1631"/>
<ellipse fill="none" stroke="#000000" cx="696.3406" cy="-129.0047" rx="3.2" ry="3.2"/>
</g>
<!-- oportunidades&#45;&gt;usuarios -->
<g id="edge22" class="edge">
<title>oportunidades:w&#45;&gt;usuarios:e</title>
<path fill="none" stroke="#000000" d="M691.5513,-126.6909C639.8427,-162.3015 711.0899,-417.2661 659,-466.5591 607.9965,-514.824 409.9554,-467.4604 344,-491.5591 323.2058,-499.1568 325.6387,-520.5591 303.5,-520.5591"/>
<polygon fill="#000000" stroke="#000000" points="697.8294,-124.8312 706.5225,-126.0108 701.6647,-123.6951 705.5,-122.5591 705.5,-122.5591 705.5,-122.5591 701.6647,-123.6951 704.4775,-119.1073 697.8294,-124.8312 697.8294,-124.8312"/>
<ellipse fill="none" stroke="#000000" cx="694.7612" cy="-125.7401" rx="3.2" ry="3.2"/>
</g>
<!-- oportunidades&#45;&gt;curso_ciclos -->
<g id="edge19" class="edge">
<title>oportunidades:w&#45;&gt;curso_ciclos:e</title>
<path fill="none" stroke="#000000" d="M690.9055,-121.0121C680.6001,-118.6286 674.1086,-114.1653 659,-112.5591 519.7845,-97.7588 481.2451,-84.9225 344,-112.5591 324.8627,-116.4127 323.0214,-129.5591 303.5,-129.5591"/>
<polygon fill="#000000" stroke="#000000" points="697.5446,-121.7158 705.1205,-126.139 701.5223,-122.1374 705.5,-122.5591 705.5,-122.5591 705.5,-122.5591 701.5223,-122.1374 705.8795,-118.9791 697.5446,-121.7158 697.5446,-121.7158"/>
<ellipse fill="none" stroke="#000000" cx="694.3624" cy="-121.3785" rx="3.2" ry="3.2"/>
</g>
<!-- oportunidades&#45;&gt;cursos -->
<g id="edge21" class="edge">
<title>oportunidades:w&#45;&gt;cursos:e</title>
<path fill="none" stroke="#000000" d="M691.1845,-119.1801C680.057,-112.9443 676.2025,-99.7046 659,-93.5591 512.1359,-41.0926 466.6321,-58.5798 311,-48.5591 249.3499,-44.5896 226.6644,-19.7788 172,-48.5591 143.8565,-63.3763 163.3057,-107.5591 131.5,-107.5591"/>
<polygon fill="#000000" stroke="#000000" points="697.7139,-120.7212 704.673,-126.0628 701.607,-121.6401 705.5,-122.5591 705.5,-122.5591 705.5,-122.5591 701.607,-121.6401 706.327,-119.0553 697.7139,-120.7212 697.7139,-120.7212"/>
<ellipse fill="none" stroke="#000000" cx="694.5995" cy="-119.9861" rx="3.2" ry="3.2"/>
</g>
<!-- oportunidades&#45;&gt;campanas -->
<g id="edge18" class="edge">
<title>oportunidades:w&#45;&gt;campanas:e</title>
<path fill="none" stroke="#000000" d="M690.878,-122.382C619.7254,-121.1495 374.2957,-114.5007 344,-135.5591 305.3019,-162.4579 350.6284,-233.5591 303.5,-233.5591"/>
<polygon fill="#000000" stroke="#000000" points="697.5006,-122.4622 705.4564,-126.1588 701.5003,-122.5106 705.5,-122.5591 705.5,-122.5591 705.5,-122.5591 701.5003,-122.5106 705.5436,-118.9593 697.5006,-122.4622 697.5006,-122.4622"/>
<ellipse fill="none" stroke="#000000" cx="694.3008" cy="-122.4234" rx="3.2" ry="3.2"/>
</g>
<!-- tareas -->
<g id="node14" class="node">
<title>tareas</title>
<g id="a_node14"><a xlink:href="../../tables/tareas.html" xlink:title="tareas" target="_top">
<polygon fill="#ffffff" stroke="transparent" points="700,-486.0591 700,-635.0591 823,-635.0591 823,-486.0591 700,-486.0591"/>
<polygon fill="#f5f5f5" stroke="transparent" points="700.5,-611.5591 700.5,-634.5591 823.5,-634.5591 823.5,-611.5591 700.5,-611.5591"/>
<polygon fill="none" stroke="#000000" points="700.5,-611.5591 700.5,-634.5591 823.5,-634.5591 823.5,-611.5591 700.5,-611.5591"/>
<text text-anchor="start" x="705.5" y="-620.6591" font-family="Helvetica,sans-Serif" font-weight="bold" font-size="11.00" fill="#000000">tareas</text>
<text text-anchor="start" x="788.5437" y="-619.6591" font-family="Helvetica,sans-Serif" font-size="11.00" fill="#000000">[table]</text>
<polygon fill="none" stroke="#000000" points="700.5,-589.5591 700.5,-611.5591 823.5,-611.5591 823.5,-589.5591 700.5,-589.5591"/>
<image xlink:href="../../images/primaryKeys.png" width="11px" height="12px" preserveAspectRatio="xMinYMin meet" x="705.5" y="-606.559"/>
<text text-anchor="start" x="720.5" y="-596.6591" font-family="Helvetica,sans-Serif" font-size="11.00" fill="#000000">tarea_id</text>
<polygon fill="none" stroke="#000000" points="700.5,-567.5591 700.5,-589.5591 823.5,-589.5591 823.5,-567.5591 700.5,-567.5591"/>
<image xlink:href="../../images/foreignKeys.png" width="11px" height="12px" preserveAspectRatio="xMinYMin meet" x="705.5" y="-584.559"/>
<text text-anchor="start" x="720.5" y="-574.6591" font-family="Helvetica,sans-Serif" font-size="11.00" fill="#000000">contacto_id</text>
<polygon fill="none" stroke="#000000" points="700.5,-545.5591 700.5,-567.5591 823.5,-567.5591 823.5,-545.5591 700.5,-545.5591"/>
<image xlink:href="../../images/foreignKeys.png" width="11px" height="12px" preserveAspectRatio="xMinYMin meet" x="705.5" y="-562.559"/>
<text text-anchor="start" x="720.5" y="-552.6591" font-family="Helvetica,sans-Serif" font-size="11.00" fill="#000000">lead_id</text>
<polygon fill="none" stroke="#000000" points="700.5,-523.5591 700.5,-545.5591 823.5,-545.5591 823.5,-523.5591 700.5,-523.5591"/>
<image xlink:href="../../images/foreignKeys.png" width="11px" height="12px" preserveAspectRatio="xMinYMin meet" x="705.5" y="-540.559"/>
<text text-anchor="start" x="720.5" y="-530.6591" font-family="Helvetica,sans-Serif" font-size="11.00" fill="#000000">usu_asignado_id</text>
<polygon fill="none" stroke="#000000" points="700.5,-504.5591 700.5,-523.5591 823.5,-523.5591 823.5,-504.5591 700.5,-504.5591"/>
<text text-anchor="start" x="703.5" y="-510.6591" font-family="Helvetica,sans-Serif" font-size="11.00" fill="#000000">...</text>
<polygon fill="#ffffff" stroke="transparent" points="700.5,-485.5591 700.5,-504.5591 747.5,-504.5591 747.5,-485.5591 700.5,-485.5591"/>
<polygon fill="none" stroke="#000000" points="700.5,-485.5591 700.5,-504.5591 747.5,-504.5591 747.5,-485.5591 700.5,-485.5591"/>
<text text-anchor="start" x="703.5" y="-491.6591" font-family="Helvetica,sans-Serif" font-size="11.00" fill="#000000">&lt; 3</text>
<polygon fill="#ffffff" stroke="transparent" points="747.5,-485.5591 747.5,-504.5591 798.5,-504.5591 798.5,-485.5591 747.5,-485.5591"/>
<polygon fill="none" stroke="#000000" points="747.5,-485.5591 747.5,-504.5591 798.5,-504.5591 798.5,-485.5591 747.5,-485.5591"/>
<text text-anchor="start" x="763.1105" y="-491.6591" font-family="Helvetica,sans-Serif" font-size="11.00" fill="#000000">0 rows</text>
<polygon fill="#ffffff" stroke="transparent" points="798.5,-485.5591 798.5,-504.5591 823.5,-504.5591 823.5,-485.5591 798.5,-485.5591"/>
<polygon fill="none" stroke="#000000" points="798.5,-485.5591 798.5,-504.5591 823.5,-504.5591 823.5,-485.5591 798.5,-485.5591"/>
<text text-anchor="start" x="814.3862" y="-491.6591" font-family="Helvetica,sans-Serif" font-size="11.00" fill="#000000"> &#160;</text>
</a>
</g>
</g>
<!-- tareas&#45;&gt;contactos -->
<g id="edge24" class="edge">
<title>tareas:w&#45;&gt;contactos:e</title>
<path fill="none" stroke="#000000" d="M686.4063,-582.1515C668.2641,-594.5297 684.4556,-635.8371 659,-657.5591 618.8544,-691.8164 599.2753,-695.5591 546.5,-695.5591"/>
<polygon fill="#000000" stroke="#000000" points="692.7479,-580.5351 701.3892,-582.0475 696.6239,-579.5471 700.5,-578.5591 700.5,-578.5591 700.5,-578.5591 696.6239,-579.5471 699.6108,-575.0706 692.7479,-580.5351 692.7479,-580.5351"/>
<ellipse fill="none" stroke="#000000" cx="689.647" cy="-581.3255" rx="3.2" ry="3.2"/>
</g>
<!-- tareas&#45;&gt;leads -->
<g id="edge25" class="edge">
<title>tareas:w&#45;&gt;leads:e</title>
<path fill="none" stroke="#000000" d="M686.3483,-553.463C648.829,-533.2193 708.2549,-420.5591 649.5,-420.5591"/>
<polygon fill="#000000" stroke="#000000" points="692.6848,-554.8492 699.7306,-560.0759 696.5924,-555.7041 700.5,-556.5591 700.5,-556.5591 700.5,-556.5591 696.5924,-555.7041 701.2694,-553.0422 692.6848,-554.8492 692.6848,-554.8492"/>
<ellipse fill="none" stroke="#000000" cx="689.5588" cy="-554.1653" rx="3.2" ry="3.2"/>
</g>
<!-- tareas&#45;&gt;usuarios -->
<g id="edge26" class="edge">
<title>tareas:w&#45;&gt;usuarios:e</title>
<path fill="none" stroke="#000000" d="M685.813,-534.526C521.3534,-533.7773 475.0541,-520.5591 303.5,-520.5591"/>
<polygon fill="#000000" stroke="#000000" points="692.5,-534.541 700.4919,-538.159 696.5,-534.55 700.5,-534.5591 700.5,-534.5591 700.5,-534.5591 696.5,-534.55 700.5081,-530.9591 692.5,-534.541 692.5,-534.541"/>
<ellipse fill="none" stroke="#000000" cx="689.3" cy="-534.5338" rx="3.2" ry="3.2"/>
</g>
<!-- telefonos -->
<g id="node15" class="node">
<title>telefonos</title>
<g id="a_node15"><a xlink:href="../../tables/telefonos.html" xlink:title="telefonos" target="_top">
<polygon fill="#ffffff" stroke="transparent" points="198,-749.0591 198,-810.0591 285,-810.0591 285,-749.0591 198,-749.0591"/>
<polygon fill="#f5f5f5" stroke="transparent" points="198.5,-786.5591 198.5,-809.5591 285.5,-809.5591 285.5,-786.5591 198.5,-786.5591"/>
<polygon fill="none" stroke="#000000" points="198.5,-786.5591 198.5,-809.5591 285.5,-809.5591 285.5,-786.5591 198.5,-786.5591"/>
<text text-anchor="start" x="203.1854" y="-795.6591" font-family="Helvetica,sans-Serif" font-weight="bold" font-size="11.00" fill="#000000">telefonos</text>
<text text-anchor="start" x="251.0219" y="-794.6591" font-family="Helvetica,sans-Serif" font-size="11.00" fill="#000000">[table]</text>
<polygon fill="none" stroke="#000000" points="198.5,-767.5591 198.5,-786.5591 285.5,-786.5591 285.5,-767.5591 198.5,-767.5591"/>
<text text-anchor="start" x="201.5" y="-773.6591" font-family="Helvetica,sans-Serif" font-size="11.00" fill="#000000">...</text>
<polygon fill="#ffffff" stroke="transparent" points="198.5,-748.5591 198.5,-767.5591 230.5,-767.5591 230.5,-748.5591 198.5,-748.5591"/>
<polygon fill="none" stroke="#000000" points="198.5,-748.5591 198.5,-767.5591 230.5,-767.5591 230.5,-748.5591 198.5,-748.5591"/>
<text text-anchor="start" x="201.5" y="-754.6591" font-family="Helvetica,sans-Serif" font-size="11.00" fill="#000000">&lt; 1</text>
<polygon fill="#ffffff" stroke="transparent" points="230.5,-748.5591 230.5,-767.5591 267.5,-767.5591 267.5,-748.5591 230.5,-748.5591"/>
<polygon fill="none" stroke="#000000" points="230.5,-748.5591 230.5,-767.5591 267.5,-767.5591 267.5,-748.5591 230.5,-748.5591"/>
<text text-anchor="start" x="237.6105" y="-754.6591" font-family="Helvetica,sans-Serif" font-size="11.00" fill="#000000">1 row</text>
<polygon fill="#ffffff" stroke="transparent" points="267.5,-748.5591 267.5,-767.5591 285.5,-767.5591 285.5,-748.5591 267.5,-748.5591"/>
<polygon fill="none" stroke="#000000" points="267.5,-748.5591 267.5,-767.5591 285.5,-767.5591 285.5,-748.5591 267.5,-748.5591"/>
<text text-anchor="start" x="276.3862" y="-754.6591" font-family="Helvetica,sans-Serif" font-size="11.00" fill="#000000"> &#160;</text>
</a>
</g>
</g>
<!-- telefonos&#45;&gt;personas -->
<g id="edge27" class="edge">
<title>telefonos:w&#45;&gt;personas:e</title>
<path fill="none" stroke="#000000" d="M184.2452,-773.4433C150.2949,-755.7356 182.2495,-668.5591 131.5,-668.5591"/>
<polygon fill="#000000" stroke="#000000" points="190.6845,-774.8507 197.7313,-780.076 194.5923,-775.7049 198.5,-776.5591 198.5,-776.5591 198.5,-776.5591 194.5923,-775.7049 199.2687,-773.0421 190.6845,-774.8507 190.6845,-774.8507"/>
<ellipse fill="none" stroke="#000000" cx="187.5583" cy="-774.1674" rx="3.2" ry="3.2"/>
</g>
</g>
</svg>
