<?xml version="1.0" encoding="UTF-8" standalone="no"?>
<!DOCTYPE svg PUBLIC "-//W3C//DTD SVG 1.1//EN"
 "http://www.w3.org/Graphics/SVG/1.1/DTD/svg11.dtd">
<!-- Generated by graphviz version 2.40.1 (20161225.0304)
 -->
<!-- Title: twoDegreesRelationshipsDiagram Pages: 1 -->
<svg width="495pt" height="421pt"
 viewBox="0.00 0.00 495.00 420.70" xmlns="http://www.w3.org/2000/svg" xmlns:xlink="http://www.w3.org/1999/xlink">
<g id="graph0" class="graph" transform="scale(1 1) rotate(0) translate(4 416.7)">
<title>twoDegreesRelationshipsDiagram</title>
<polygon fill="#ffffff" stroke="transparent" points="-4,4 -4,-416.7 491,-416.7 491,4 -4,4"/>
<text text-anchor="middle" x="72.4936" y="-7.3" font-family="Helvetica,sans-Serif" font-size="11.00" fill="#000000">Generated by SchemaSpy</text>
<!-- empleados -->
<g id="node1" class="node">
<title>empleados</title>
<g id="a_node1"><a xlink:href="../../tables/empleados.html" xlink:title="empleados" target="_top">
<polygon fill="#ffffff" stroke="transparent" points="281.5,-347.7 281.5,-408.7 377.5,-408.7 377.5,-347.7 281.5,-347.7"/>
<polygon fill="#f5f5f5" stroke="transparent" points="281.5,-385.2 281.5,-408.2 377.5,-408.2 377.5,-385.2 281.5,-385.2"/>
<polygon fill="none" stroke="#000000" points="281.5,-385.2 281.5,-408.2 377.5,-408.2 377.5,-385.2 281.5,-385.2"/>
<text text-anchor="start" x="286.1039" y="-394.3" font-family="Helvetica,sans-Serif" font-weight="bold" font-size="11.00" fill="#000000">empleados</text>
<text text-anchor="start" x="343.0219" y="-393.3" font-family="Helvetica,sans-Serif" font-size="11.00" fill="#000000">[table]</text>
<polygon fill="none" stroke="#000000" points="281.5,-366.2 281.5,-385.2 377.5,-385.2 377.5,-366.2 281.5,-366.2"/>
<text text-anchor="start" x="284.5" y="-372.3" font-family="Helvetica,sans-Serif" font-size="11.00" fill="#000000">...</text>
<polygon fill="#ffffff" stroke="transparent" points="281.5,-347.2 281.5,-366.2 314.5,-366.2 314.5,-347.2 281.5,-347.2"/>
<polygon fill="none" stroke="#000000" points="281.5,-347.2 281.5,-366.2 314.5,-366.2 314.5,-347.2 281.5,-347.2"/>
<text text-anchor="start" x="284.5" y="-353.3" font-family="Helvetica,sans-Serif" font-size="11.00" fill="#000000">&lt; 2</text>
<polygon fill="#ffffff" stroke="transparent" points="314.5,-347.2 314.5,-366.2 358.5,-366.2 358.5,-347.2 314.5,-347.2"/>
<polygon fill="none" stroke="#000000" points="314.5,-347.2 314.5,-366.2 358.5,-366.2 358.5,-347.2 314.5,-347.2"/>
<text text-anchor="start" x="323.1105" y="-353.3" font-family="Helvetica,sans-Serif" font-size="11.00" fill="#000000">0 rows</text>
<polygon fill="#ffffff" stroke="transparent" points="358.5,-347.2 358.5,-366.2 377.5,-366.2 377.5,-347.2 358.5,-347.2"/>
<polygon fill="none" stroke="#000000" points="358.5,-347.2 358.5,-366.2 377.5,-366.2 377.5,-347.2 358.5,-347.2"/>
<text text-anchor="start" x="368.3862" y="-353.3" font-family="Helvetica,sans-Serif" font-size="11.00" fill="#000000"> &#160;</text>
</a>
</g>
</g>
<!-- personas -->
<g id="node2" class="node">
<title>personas</title>
<g id="a_node2"><a xlink:href="../../tables/personas.html" xlink:title="personas" target="_top">
<polygon fill="#ffffff" stroke="transparent" points="8,-165.7 8,-248.7 131,-248.7 131,-165.7 8,-165.7"/>
<polygon fill="#f5f5f5" stroke="transparent" points="8.5,-225.2 8.5,-248.2 131.5,-248.2 131.5,-225.2 8.5,-225.2"/>
<polygon fill="none" stroke="#000000" points="8.5,-225.2 8.5,-248.2 131.5,-248.2 131.5,-225.2 8.5,-225.2"/>
<text text-anchor="start" x="13.5" y="-234.3" font-family="Helvetica,sans-Serif" font-weight="bold" font-size="11.00" fill="#000000">personas</text>
<text text-anchor="start" x="96.5437" y="-233.3" font-family="Helvetica,sans-Serif" font-size="11.00" fill="#000000">[table]</text>
<polygon fill="none" stroke="#000000" points="8.5,-203.2 8.5,-225.2 131.5,-225.2 131.5,-203.2 8.5,-203.2"/>
<image xlink:href="../../images/primaryKeys.png" width="11px" height="12px" preserveAspectRatio="xMinYMin meet" x="13.5" y="-220.2"/>
<text text-anchor="start" x="28.5" y="-210.3" font-family="Helvetica,sans-Serif" font-size="11.00" fill="#000000">persona_id</text>
<polygon fill="none" stroke="#000000" points="8.5,-184.2 8.5,-203.2 131.5,-203.2 131.5,-184.2 8.5,-184.2"/>
<text text-anchor="start" x="11.5" y="-190.3" font-family="Helvetica,sans-Serif" font-size="11.00" fill="#000000">...</text>
<polygon fill="#ffffff" stroke="transparent" points="8.5,-165.2 8.5,-184.2 43.5,-184.2 43.5,-165.2 8.5,-165.2"/>
<polygon fill="none" stroke="#000000" points="8.5,-165.2 8.5,-184.2 43.5,-184.2 43.5,-165.2 8.5,-165.2"/>
<text text-anchor="start" x="11.5" y="-171.3" font-family="Helvetica,sans-Serif" font-size="11.00" fill="#000000"> &#160;</text>
<polygon fill="#ffffff" stroke="transparent" points="43.5,-165.2 43.5,-184.2 98.5,-184.2 98.5,-165.2 43.5,-165.2"/>
<polygon fill="none" stroke="#000000" points="43.5,-165.2 43.5,-184.2 98.5,-184.2 98.5,-165.2 43.5,-165.2"/>
<text text-anchor="start" x="56.9956" y="-171.3" font-family="Helvetica,sans-Serif" font-size="11.00" fill="#000000">22 rows</text>
<polygon fill="#ffffff" stroke="transparent" points="98.5,-165.2 98.5,-184.2 131.5,-184.2 131.5,-165.2 98.5,-165.2"/>
<polygon fill="none" stroke="#000000" points="98.5,-165.2 98.5,-184.2 131.5,-184.2 131.5,-165.2 98.5,-165.2"/>
<text text-anchor="start" x="112.9053" y="-171.3" font-family="Helvetica,sans-Serif" font-size="11.00" fill="#000000">2 &gt;</text>
</a>
</g>
</g>
<!-- empleados&#45;&gt;personas -->
<g id="edge1" class="edge">
<title>empleados:w&#45;&gt;personas:e</title>
<path fill="none" stroke="#000000" d="M266.9457,-375.128C225.4911,-374.5925 204.535,-370.2578 172,-337.2 131.6289,-296.1802 189.0538,-214.2 131.5,-214.2"/>
<polygon fill="#000000" stroke="#000000" points="273.5001,-375.1604 281.4822,-378.8 277.5,-375.1802 281.5,-375.2 281.5,-375.2 281.5,-375.2 277.5,-375.1802 281.5178,-371.6 273.5001,-375.1604 273.5001,-375.1604"/>
<ellipse fill="none" stroke="#000000" cx="270.3001" cy="-375.1445" rx="3.2" ry="3.2"/>
</g>
<!-- usuarios -->
<g id="node3" class="node">
<title>usuarios</title>
<g id="a_node3"><a xlink:href="../../tables/usuarios.html" xlink:title="usuarios" target="_top">
<polygon fill="#ffffff" stroke="transparent" points="8,-286.7 8,-391.7 131,-391.7 131,-286.7 8,-286.7"/>
<polygon fill="#f5f5f5" stroke="transparent" points="8.5,-368.2 8.5,-391.2 131.5,-391.2 131.5,-368.2 8.5,-368.2"/>
<polygon fill="none" stroke="#000000" points="8.5,-368.2 8.5,-391.2 131.5,-391.2 131.5,-368.2 8.5,-368.2"/>
<text text-anchor="start" x="13.5" y="-377.3" font-family="Helvetica,sans-Serif" font-weight="bold" font-size="11.00" fill="#000000">usuarios</text>
<text text-anchor="start" x="96.5437" y="-376.3" font-family="Helvetica,sans-Serif" font-size="11.00" fill="#000000">[table]</text>
<polygon fill="none" stroke="#000000" points="8.5,-346.2 8.5,-368.2 131.5,-368.2 131.5,-346.2 8.5,-346.2"/>
<image xlink:href="../../images/primaryKeys.png" width="11px" height="12px" preserveAspectRatio="xMinYMin meet" x="13.5" y="-363.2"/>
<text text-anchor="start" x="28.5" y="-353.3" font-family="Helvetica,sans-Serif" font-size="11.00" fill="#000000">usuario_id</text>
<polygon fill="#ffffff" stroke="transparent" points="8.5,-324.2 8.5,-346.2 131.5,-346.2 131.5,-324.2 8.5,-324.2"/>
<polygon fill="none" stroke="#000000" points="8.5,-324.2 8.5,-346.2 131.5,-346.2 131.5,-324.2 8.5,-324.2"/>
<text text-anchor="start" x="28.5" y="-331.3" font-family="Helvetica,sans-Serif" font-size="11.00" fill="#000000">nom_usuario</text>
<polygon fill="none" stroke="#000000" points="8.5,-305.2 8.5,-324.2 131.5,-324.2 131.5,-305.2 8.5,-305.2"/>
<text text-anchor="start" x="11.5" y="-311.3" font-family="Helvetica,sans-Serif" font-size="11.00" fill="#000000">...</text>
<polygon fill="#ffffff" stroke="transparent" points="8.5,-286.2 8.5,-305.2 46.5,-305.2 46.5,-286.2 8.5,-286.2"/>
<polygon fill="none" stroke="#000000" points="8.5,-286.2 8.5,-305.2 46.5,-305.2 46.5,-286.2 8.5,-286.2"/>
<text text-anchor="start" x="11.5" y="-292.3" font-family="Helvetica,sans-Serif" font-size="11.00" fill="#000000"> &#160;</text>
<polygon fill="#ffffff" stroke="transparent" points="46.5,-286.2 46.5,-305.2 97.5,-305.2 97.5,-286.2 46.5,-286.2"/>
<polygon fill="none" stroke="#000000" points="46.5,-286.2 46.5,-305.2 97.5,-305.2 97.5,-286.2 46.5,-286.2"/>
<text text-anchor="start" x="62.1105" y="-292.3" font-family="Helvetica,sans-Serif" font-size="11.00" fill="#000000">2 rows</text>
<polygon fill="#ffffff" stroke="transparent" points="97.5,-286.2 97.5,-305.2 131.5,-305.2 131.5,-286.2 97.5,-286.2"/>
<polygon fill="none" stroke="#000000" points="97.5,-286.2 97.5,-305.2 131.5,-305.2 131.5,-286.2 97.5,-286.2"/>
<text text-anchor="start" x="112.9053" y="-292.3" font-family="Helvetica,sans-Serif" font-size="11.00" fill="#000000">2 &gt;</text>
</a>
</g>
</g>
<!-- empleados&#45;&gt;usuarios -->
<g id="edge2" class="edge">
<title>empleados:w&#45;&gt;usuarios:e</title>
<path fill="none" stroke="#000000" d="M267.0062,-374.9026C211.6633,-372.5623 193.5304,-357.2 131.5,-357.2"/>
<polygon fill="#000000" stroke="#000000" points="273.5017,-375.0358 281.4261,-378.7992 277.5008,-375.1179 281.5,-375.2 281.5,-375.2 281.5,-375.2 277.5008,-375.1179 281.5739,-371.6008 273.5017,-375.0358 273.5017,-375.0358"/>
<ellipse fill="none" stroke="#000000" cx="270.3024" cy="-374.9702" rx="3.2" ry="3.2"/>
</g>
<!-- leads -->
<g id="node4" class="node">
<title>leads</title>
<g id="a_node4"><a xlink:href="../../tables/leads.html" xlink:title="leads" target="_top">
<polygon fill="#ffffff" stroke="transparent" points="180,-38.2 180,-326.2 479,-326.2 479,-38.2 180,-38.2"/>
<polygon fill="#f5f5f5" stroke="transparent" points="182.5,-301.2 182.5,-324.2 477.5,-324.2 477.5,-301.2 182.5,-301.2"/>
<polygon fill="none" stroke="#000000" points="182.5,-301.2 182.5,-324.2 477.5,-324.2 477.5,-301.2 182.5,-301.2"/>
<text text-anchor="start" x="187.5" y="-310.3" font-family="Helvetica,sans-Serif" font-weight="bold" font-size="11.00" fill="#000000">leads</text>
<text text-anchor="start" x="442.5437" y="-309.3" font-family="Helvetica,sans-Serif" font-size="11.00" fill="#000000">[table]</text>
<polygon fill="none" stroke="#000000" points="182.5,-279.2 182.5,-301.2 305.5,-301.2 305.5,-279.2 182.5,-279.2"/>
<image xlink:href="../../images/primaryKeys.png" width="11px" height="12px" preserveAspectRatio="xMinYMin meet" x="187.5" y="-296.2"/>
<text text-anchor="start" x="202.5" y="-286.3" font-family="Helvetica,sans-Serif" font-size="11.00" fill="#000000">lead_id</text>
<polygon fill="none" stroke="#000000" points="305.5,-279.2 305.5,-301.2 477.5,-301.2 477.5,-279.2 305.5,-279.2"/>
<text text-anchor="start" x="308.5" y="-286.9" font-family="Helvetica,sans-Serif" font-size="11.00" fill="#000000">serial[10]</text>
<polygon fill="none" stroke="#000000" points="182.5,-257.2 182.5,-279.2 305.5,-279.2 305.5,-257.2 182.5,-257.2"/>
<text text-anchor="start" x="202.5" y="-264.3" font-family="Helvetica,sans-Serif" font-size="11.00" fill="#000000">estado</text>
<polygon fill="none" stroke="#000000" points="305.5,-257.2 305.5,-279.2 477.5,-279.2 477.5,-257.2 305.5,-257.2"/>
<text text-anchor="start" x="308.3494" y="-264.9" font-family="Helvetica,sans-Serif" font-size="11.00" fill="#000000">enum_leads_estado[2147483647]</text>
<polygon fill="none" stroke="#000000" points="182.5,-235.2 182.5,-257.2 305.5,-257.2 305.5,-235.2 182.5,-235.2"/>
<image xlink:href="../../images/foreignKeys.png" width="11px" height="12px" preserveAspectRatio="xMinYMin meet" x="187.5" y="-252.2"/>
<text text-anchor="start" x="202.5" y="-242.3" font-family="Helvetica,sans-Serif" font-size="11.00" fill="#000000">usu_asignado_id</text>
<polygon fill="none" stroke="#000000" points="305.5,-235.2 305.5,-257.2 477.5,-257.2 477.5,-235.2 305.5,-235.2"/>
<text text-anchor="start" x="308.5" y="-242.9" font-family="Helvetica,sans-Serif" font-size="11.00" fill="#000000">int4[10]</text>
<polygon fill="none" stroke="#000000" points="182.5,-213.2 182.5,-235.2 305.5,-235.2 305.5,-213.2 182.5,-213.2"/>
<image xlink:href="../../images/foreignKeys.png" width="11px" height="12px" preserveAspectRatio="xMinYMin meet" x="187.5" y="-230.2"/>
<text text-anchor="start" x="202.5" y="-220.3" font-family="Helvetica,sans-Serif" font-size="11.00" fill="#000000">campana_id</text>
<polygon fill="none" stroke="#000000" points="305.5,-213.2 305.5,-235.2 477.5,-235.2 477.5,-213.2 305.5,-213.2"/>
<text text-anchor="start" x="308.5" y="-220.9" font-family="Helvetica,sans-Serif" font-size="11.00" fill="#000000">int4[10]</text>
<polygon fill="none" stroke="#000000" points="182.5,-191.2 182.5,-213.2 305.5,-213.2 305.5,-191.2 182.5,-191.2"/>
<text text-anchor="start" x="202.5" y="-198.3" font-family="Helvetica,sans-Serif" font-size="11.00" fill="#000000">origen</text>
<polygon fill="none" stroke="#000000" points="305.5,-191.2 305.5,-213.2 477.5,-213.2 477.5,-191.2 305.5,-191.2"/>
<text text-anchor="start" x="308.5" y="-198.9" font-family="Helvetica,sans-Serif" font-size="11.00" fill="#000000">enum_leads_origen[2147483647]</text>
<polygon fill="none" stroke="#000000" points="182.5,-169.2 182.5,-191.2 305.5,-191.2 305.5,-169.2 182.5,-169.2"/>
<image xlink:href="../../images/foreignKeys.png" width="11px" height="12px" preserveAspectRatio="xMinYMin meet" x="187.5" y="-186.2"/>
<text text-anchor="start" x="202.5" y="-176.3" font-family="Helvetica,sans-Serif" font-size="11.00" fill="#000000">persona_id</text>
<polygon fill="none" stroke="#000000" points="305.5,-169.2 305.5,-191.2 477.5,-191.2 477.5,-169.2 305.5,-169.2"/>
<text text-anchor="start" x="308.5" y="-176.9" font-family="Helvetica,sans-Serif" font-size="11.00" fill="#000000">int4[10]</text>
<polygon fill="none" stroke="#000000" points="182.5,-147.2 182.5,-169.2 305.5,-169.2 305.5,-147.2 182.5,-147.2"/>
<image xlink:href="../../images/foreignKeys.png" width="11px" height="12px" preserveAspectRatio="xMinYMin meet" x="187.5" y="-164.2"/>
<text text-anchor="start" x="202.5" y="-154.3" font-family="Helvetica,sans-Serif" font-size="11.00" fill="#000000">curso_id</text>
<polygon fill="none" stroke="#000000" points="305.5,-147.2 305.5,-169.2 477.5,-169.2 477.5,-147.2 305.5,-147.2"/>
<text text-anchor="start" x="308.5" y="-154.9" font-family="Helvetica,sans-Serif" font-size="11.00" fill="#000000">int4[10]</text>
<polygon fill="none" stroke="#000000" points="182.5,-125.2 182.5,-147.2 305.5,-147.2 305.5,-125.2 182.5,-125.2"/>
<text text-anchor="start" x="202.5" y="-132.3" font-family="Helvetica,sans-Serif" font-size="11.00" fill="#000000">usu_insercion</text>
<polygon fill="none" stroke="#000000" points="305.5,-125.2 305.5,-147.2 477.5,-147.2 477.5,-125.2 305.5,-125.2"/>
<text text-anchor="start" x="308.5" y="-132.9" font-family="Helvetica,sans-Serif" font-size="11.00" fill="#000000">varchar[20]</text>
<polygon fill="none" stroke="#000000" points="182.5,-103.2 182.5,-125.2 305.5,-125.2 305.5,-103.2 182.5,-103.2"/>
<text text-anchor="start" x="202.5" y="-110.3" font-family="Helvetica,sans-Serif" font-size="11.00" fill="#000000">fec_insercion</text>
<polygon fill="none" stroke="#000000" points="305.5,-103.2 305.5,-125.2 477.5,-125.2 477.5,-103.2 305.5,-103.2"/>
<text text-anchor="start" x="308.5" y="-110.9" font-family="Helvetica,sans-Serif" font-size="11.00" fill="#000000">timestamptz[35,6]</text>
<polygon fill="none" stroke="#000000" points="182.5,-81.2 182.5,-103.2 305.5,-103.2 305.5,-81.2 182.5,-81.2"/>
<text text-anchor="start" x="202.5" y="-88.3" font-family="Helvetica,sans-Serif" font-size="11.00" fill="#000000">fec_modificacion</text>
<polygon fill="none" stroke="#000000" points="305.5,-81.2 305.5,-103.2 477.5,-103.2 477.5,-81.2 305.5,-81.2"/>
<text text-anchor="start" x="308.5" y="-88.9" font-family="Helvetica,sans-Serif" font-size="11.00" fill="#000000">timestamptz[35,6]</text>
<polygon fill="none" stroke="#000000" points="182.5,-59.2 182.5,-81.2 305.5,-81.2 305.5,-59.2 182.5,-59.2"/>
<text text-anchor="start" x="202.5" y="-66.3" font-family="Helvetica,sans-Serif" font-size="11.00" fill="#000000">usu_modificacion</text>
<polygon fill="none" stroke="#000000" points="305.5,-59.2 305.5,-81.2 477.5,-81.2 477.5,-59.2 305.5,-59.2"/>
<text text-anchor="start" x="308.5" y="-66.9" font-family="Helvetica,sans-Serif" font-size="11.00" fill="#000000">varchar[20]</text>
<polygon fill="#ffffff" stroke="transparent" points="182.5,-40.2 182.5,-59.2 235.5,-59.2 235.5,-40.2 182.5,-40.2"/>
<polygon fill="none" stroke="#000000" points="182.5,-40.2 182.5,-59.2 235.5,-59.2 235.5,-40.2 182.5,-40.2"/>
<text text-anchor="start" x="185.5" y="-46.3" font-family="Helvetica,sans-Serif" font-size="11.00" fill="#000000">&lt; 2</text>
<polygon fill="#ffffff" stroke="transparent" points="235.5,-40.2 235.5,-59.2 305.5,-59.2 305.5,-40.2 235.5,-40.2"/>
<polygon fill="none" stroke="#000000" points="235.5,-40.2 235.5,-59.2 305.5,-59.2 305.5,-40.2 235.5,-40.2"/>
<text text-anchor="start" x="270.1105" y="-46.3" font-family="Helvetica,sans-Serif" font-size="11.00" fill="#000000">0 rows</text>
<polygon fill="#ffffff" stroke="transparent" points="305.5,-40.2 305.5,-59.2 477.5,-59.2 477.5,-40.2 305.5,-40.2"/>
<polygon fill="none" stroke="#000000" points="305.5,-40.2 305.5,-59.2 477.5,-59.2 477.5,-40.2 305.5,-40.2"/>
<text text-anchor="start" x="458.9053" y="-46.3" font-family="Helvetica,sans-Serif" font-size="11.00" fill="#000000">0 &gt;</text>
<polygon fill="none" stroke="#000000" stroke-width="2" points="181,-39.2 181,-325.2 478,-325.2 478,-39.2 181,-39.2"/>
</a>
</g>
</g>
<!-- leads&#45;&gt;personas -->
<g id="edge3" class="edge">
<title>leads:w&#45;&gt;personas:e</title>
<path fill="none" stroke="#000000" d="M168.3901,-184.3691C155.312,-193.448 152.7828,-214.2 131.5,-214.2"/>
<polygon fill="#000000" stroke="#000000" points="174.8279,-182.4669 183.5201,-183.6524 178.6639,-181.3335 182.5,-180.2 182.5,-180.2 182.5,-180.2 178.6639,-181.3335 181.4799,-176.7476 174.8279,-182.4669 174.8279,-182.4669"/>
<ellipse fill="none" stroke="#000000" cx="171.759" cy="-183.3737" rx="3.2" ry="3.2"/>
</g>
<!-- leads&#45;&gt;usuarios -->
<g id="edge4" class="edge">
<title>leads:w&#45;&gt;usuarios:e</title>
<path fill="none" stroke="#000000" d="M168.4079,-249.8932C139.4665,-269.1534 179.8533,-357.2 131.5,-357.2"/>
<polygon fill="#000000" stroke="#000000" points="174.7613,-248.2281 183.4127,-249.6824 178.6307,-247.2141 182.5,-246.2 182.5,-246.2 182.5,-246.2 178.6307,-247.2141 181.5873,-242.7176 174.7613,-248.2281 174.7613,-248.2281"/>
<ellipse fill="none" stroke="#000000" cx="171.6659" cy="-249.0394" rx="3.2" ry="3.2"/>
</g>
</g>
</svg>
