<?xml version="1.0" encoding="UTF-8" standalone="no"?>
<!DOCTYPE svg PUBLIC "-//W3C//DTD SVG 1.1//EN"
 "http://www.w3.org/Graphics/SVG/1.1/DTD/svg11.dtd">
<!-- Generated by graphviz version 2.40.1 (20161225.0304)
 -->
<!-- Title: oneDegreeRelationshipsDiagramImplied Pages: 1 -->
<svg width="495pt" height="467pt"
 viewBox="0.00 0.00 495.00 467.20" xmlns="http://www.w3.org/2000/svg" xmlns:xlink="http://www.w3.org/1999/xlink">
<g id="graph0" class="graph" transform="scale(1 1) rotate(0) translate(4 463.2)">
<title>oneDegreeRelationshipsDiagramImplied</title>
<polygon fill="#ffffff" stroke="transparent" points="-4,4 -4,-463.2 491,-463.2 491,4 -4,4"/>
<text text-anchor="middle" x="72.4936" y="-7.3" font-family="Helvetica,sans-Serif" font-size="11.00" fill="#000000">Generated by SchemaSpy</text>
<!-- leads -->
<g id="node1" class="node">
<title>leads</title>
<g id="a_node1"><a xlink:href="../../tables/leads.html" xlink:title="leads" target="_top">
<polygon fill="#ffffff" stroke="transparent" points="180,-81.7 180,-369.7 479,-369.7 479,-81.7 180,-81.7"/>
<polygon fill="#f5f5f5" stroke="transparent" points="182.5,-344.7 182.5,-367.7 477.5,-367.7 477.5,-344.7 182.5,-344.7"/>
<polygon fill="none" stroke="#000000" points="182.5,-344.7 182.5,-367.7 477.5,-367.7 477.5,-344.7 182.5,-344.7"/>
<text text-anchor="start" x="187.5" y="-353.8" font-family="Helvetica,sans-Serif" font-weight="bold" font-size="11.00" fill="#000000">leads</text>
<text text-anchor="start" x="442.5437" y="-352.8" font-family="Helvetica,sans-Serif" font-size="11.00" fill="#000000">[table]</text>
<polygon fill="none" stroke="#000000" points="182.5,-322.7 182.5,-344.7 305.5,-344.7 305.5,-322.7 182.5,-322.7"/>
<image xlink:href="../../images/primaryKeys.png" width="11px" height="12px" preserveAspectRatio="xMinYMin meet" x="187.5" y="-339.7"/>
<text text-anchor="start" x="202.5" y="-329.8" font-family="Helvetica,sans-Serif" font-size="11.00" fill="#000000">lead_id</text>
<polygon fill="none" stroke="#000000" points="305.5,-322.7 305.5,-344.7 477.5,-344.7 477.5,-322.7 305.5,-322.7"/>
<text text-anchor="start" x="308.5" y="-330.4" font-family="Helvetica,sans-Serif" font-size="11.00" fill="#000000">serial[10]</text>
<polygon fill="none" stroke="#000000" points="182.5,-300.7 182.5,-322.7 305.5,-322.7 305.5,-300.7 182.5,-300.7"/>
<text text-anchor="start" x="202.5" y="-307.8" font-family="Helvetica,sans-Serif" font-size="11.00" fill="#000000">estado</text>
<polygon fill="none" stroke="#000000" points="305.5,-300.7 305.5,-322.7 477.5,-322.7 477.5,-300.7 305.5,-300.7"/>
<text text-anchor="start" x="308.3494" y="-308.4" font-family="Helvetica,sans-Serif" font-size="11.00" fill="#000000">enum_leads_estado[2147483647]</text>
<polygon fill="none" stroke="#000000" points="182.5,-278.7 182.5,-300.7 305.5,-300.7 305.5,-278.7 182.5,-278.7"/>
<image xlink:href="../../images/foreignKeys.png" width="11px" height="12px" preserveAspectRatio="xMinYMin meet" x="187.5" y="-295.7"/>
<text text-anchor="start" x="202.5" y="-285.8" font-family="Helvetica,sans-Serif" font-size="11.00" fill="#000000">usu_asignado_id</text>
<polygon fill="none" stroke="#000000" points="305.5,-278.7 305.5,-300.7 477.5,-300.7 477.5,-278.7 305.5,-278.7"/>
<text text-anchor="start" x="308.5" y="-286.4" font-family="Helvetica,sans-Serif" font-size="11.00" fill="#000000">int4[10]</text>
<polygon fill="none" stroke="#000000" points="182.5,-256.7 182.5,-278.7 305.5,-278.7 305.5,-256.7 182.5,-256.7"/>
<image xlink:href="../../images/foreignKeys.png" width="11px" height="12px" preserveAspectRatio="xMinYMin meet" x="187.5" y="-273.7"/>
<text text-anchor="start" x="202.5" y="-263.8" font-family="Helvetica,sans-Serif" font-size="11.00" fill="#000000">campana_id</text>
<polygon fill="none" stroke="#000000" points="305.5,-256.7 305.5,-278.7 477.5,-278.7 477.5,-256.7 305.5,-256.7"/>
<text text-anchor="start" x="308.5" y="-264.4" font-family="Helvetica,sans-Serif" font-size="11.00" fill="#000000">int4[10]</text>
<polygon fill="none" stroke="#000000" points="182.5,-234.7 182.5,-256.7 305.5,-256.7 305.5,-234.7 182.5,-234.7"/>
<text text-anchor="start" x="202.5" y="-241.8" font-family="Helvetica,sans-Serif" font-size="11.00" fill="#000000">origen</text>
<polygon fill="none" stroke="#000000" points="305.5,-234.7 305.5,-256.7 477.5,-256.7 477.5,-234.7 305.5,-234.7"/>
<text text-anchor="start" x="308.5" y="-242.4" font-family="Helvetica,sans-Serif" font-size="11.00" fill="#000000">enum_leads_origen[2147483647]</text>
<polygon fill="none" stroke="#000000" points="182.5,-212.7 182.5,-234.7 305.5,-234.7 305.5,-212.7 182.5,-212.7"/>
<image xlink:href="../../images/foreignKeys.png" width="11px" height="12px" preserveAspectRatio="xMinYMin meet" x="187.5" y="-229.7"/>
<text text-anchor="start" x="202.5" y="-219.8" font-family="Helvetica,sans-Serif" font-size="11.00" fill="#000000">persona_id</text>
<polygon fill="none" stroke="#000000" points="305.5,-212.7 305.5,-234.7 477.5,-234.7 477.5,-212.7 305.5,-212.7"/>
<text text-anchor="start" x="308.5" y="-220.4" font-family="Helvetica,sans-Serif" font-size="11.00" fill="#000000">int4[10]</text>
<polygon fill="none" stroke="#000000" points="182.5,-190.7 182.5,-212.7 305.5,-212.7 305.5,-190.7 182.5,-190.7"/>
<text text-anchor="start" x="202.5" y="-197.8" font-family="Helvetica,sans-Serif" font-size="11.00" fill="#000000">usu_insercion</text>
<polygon fill="none" stroke="#000000" points="305.5,-190.7 305.5,-212.7 477.5,-212.7 477.5,-190.7 305.5,-190.7"/>
<text text-anchor="start" x="308.5" y="-198.4" font-family="Helvetica,sans-Serif" font-size="11.00" fill="#000000">varchar[20]</text>
<polygon fill="none" stroke="#000000" points="182.5,-168.7 182.5,-190.7 305.5,-190.7 305.5,-168.7 182.5,-168.7"/>
<text text-anchor="start" x="202.5" y="-175.8" font-family="Helvetica,sans-Serif" font-size="11.00" fill="#000000">fec_insercion</text>
<polygon fill="none" stroke="#000000" points="305.5,-168.7 305.5,-190.7 477.5,-190.7 477.5,-168.7 305.5,-168.7"/>
<text text-anchor="start" x="308.5" y="-176.4" font-family="Helvetica,sans-Serif" font-size="11.00" fill="#000000">timestamptz[35,6]</text>
<polygon fill="none" stroke="#000000" points="182.5,-146.7 182.5,-168.7 305.5,-168.7 305.5,-146.7 182.5,-146.7"/>
<text text-anchor="start" x="202.5" y="-153.8" font-family="Helvetica,sans-Serif" font-size="11.00" fill="#000000">fec_modificacion</text>
<polygon fill="none" stroke="#000000" points="305.5,-146.7 305.5,-168.7 477.5,-168.7 477.5,-146.7 305.5,-146.7"/>
<text text-anchor="start" x="308.5" y="-154.4" font-family="Helvetica,sans-Serif" font-size="11.00" fill="#000000">timestamptz[35,6]</text>
<polygon fill="none" stroke="#000000" points="182.5,-124.7 182.5,-146.7 305.5,-146.7 305.5,-124.7 182.5,-124.7"/>
<text text-anchor="start" x="202.5" y="-131.8" font-family="Helvetica,sans-Serif" font-size="11.00" fill="#000000">usu_modificacion</text>
<polygon fill="none" stroke="#000000" points="305.5,-124.7 305.5,-146.7 477.5,-146.7 477.5,-124.7 305.5,-124.7"/>
<text text-anchor="start" x="308.5" y="-132.4" font-family="Helvetica,sans-Serif" font-size="11.00" fill="#000000">varchar[20]</text>
<polygon fill="none" stroke="#000000" points="182.5,-102.7 182.5,-124.7 305.5,-124.7 305.5,-102.7 182.5,-102.7"/>
<image xlink:href="../../images/foreignKeys.png" width="11px" height="12px" preserveAspectRatio="xMinYMin meet" x="187.5" y="-119.7"/>
<text text-anchor="start" x="202.5" y="-109.8" font-family="Helvetica,sans-Serif" font-size="11.00" fill="#000000">curso_id</text>
<polygon fill="none" stroke="#000000" points="305.5,-102.7 305.5,-124.7 477.5,-124.7 477.5,-102.7 305.5,-102.7"/>
<text text-anchor="start" x="308.5" y="-110.4" font-family="Helvetica,sans-Serif" font-size="11.00" fill="#000000">int4[10]</text>
<polygon fill="#ffffff" stroke="transparent" points="182.5,-83.7 182.5,-102.7 235.5,-102.7 235.5,-83.7 182.5,-83.7"/>
<polygon fill="none" stroke="#000000" points="182.5,-83.7 182.5,-102.7 235.5,-102.7 235.5,-83.7 182.5,-83.7"/>
<text text-anchor="start" x="185.5" y="-89.8" font-family="Helvetica,sans-Serif" font-size="11.00" fill="#000000">&lt; 4</text>
<polygon fill="#ffffff" stroke="transparent" points="235.5,-83.7 235.5,-102.7 305.5,-102.7 305.5,-83.7 235.5,-83.7"/>
<polygon fill="none" stroke="#000000" points="235.5,-83.7 235.5,-102.7 305.5,-102.7 305.5,-83.7 235.5,-83.7"/>
<text text-anchor="start" x="270.1105" y="-89.8" font-family="Helvetica,sans-Serif" font-size="11.00" fill="#000000">0 rows</text>
<polygon fill="#ffffff" stroke="transparent" points="305.5,-83.7 305.5,-102.7 477.5,-102.7 477.5,-83.7 305.5,-83.7"/>
<polygon fill="none" stroke="#000000" points="305.5,-83.7 305.5,-102.7 477.5,-102.7 477.5,-83.7 305.5,-83.7"/>
<text text-anchor="start" x="458.9053" y="-89.8" font-family="Helvetica,sans-Serif" font-size="11.00" fill="#000000">0 &gt;</text>
<polygon fill="none" stroke="#000000" stroke-width="2" points="181,-82.7 181,-368.7 478,-368.7 478,-82.7 181,-82.7"/>
</a>
</g>
</g>
<!-- campanas -->
<g id="node2" class="node">
<title>campanas</title>
<g id="a_node2"><a xlink:href="../../tables/campanas.html" xlink:title="campanas" target="_top">
<polygon fill="#ffffff" stroke="transparent" points="8,-246.2 8,-329.2 131,-329.2 131,-246.2 8,-246.2"/>
<polygon fill="#f5f5f5" stroke="transparent" points="8.5,-305.7 8.5,-328.7 131.5,-328.7 131.5,-305.7 8.5,-305.7"/>
<polygon fill="none" stroke="#000000" points="8.5,-305.7 8.5,-328.7 131.5,-328.7 131.5,-305.7 8.5,-305.7"/>
<text text-anchor="start" x="13.5" y="-314.8" font-family="Helvetica,sans-Serif" font-weight="bold" font-size="11.00" fill="#000000">campanas</text>
<text text-anchor="start" x="96.5437" y="-313.8" font-family="Helvetica,sans-Serif" font-size="11.00" fill="#000000">[table]</text>
<polygon fill="none" stroke="#000000" points="8.5,-283.7 8.5,-305.7 131.5,-305.7 131.5,-283.7 8.5,-283.7"/>
<image xlink:href="../../images/primaryKeys.png" width="11px" height="12px" preserveAspectRatio="xMinYMin meet" x="13.5" y="-300.7"/>
<text text-anchor="start" x="28.5" y="-290.8" font-family="Helvetica,sans-Serif" font-size="11.00" fill="#000000">campana_id</text>
<polygon fill="none" stroke="#000000" points="8.5,-264.7 8.5,-283.7 131.5,-283.7 131.5,-264.7 8.5,-264.7"/>
<text text-anchor="start" x="11.5" y="-270.8" font-family="Helvetica,sans-Serif" font-size="11.00" fill="#000000">...</text>
<polygon fill="#ffffff" stroke="transparent" points="8.5,-245.7 8.5,-264.7 46.5,-264.7 46.5,-245.7 8.5,-245.7"/>
<polygon fill="none" stroke="#000000" points="8.5,-245.7 8.5,-264.7 46.5,-264.7 46.5,-245.7 8.5,-245.7"/>
<text text-anchor="start" x="11.5" y="-251.8" font-family="Helvetica,sans-Serif" font-size="11.00" fill="#000000"> &#160;</text>
<polygon fill="#ffffff" stroke="transparent" points="46.5,-245.7 46.5,-264.7 97.5,-264.7 97.5,-245.7 46.5,-245.7"/>
<polygon fill="none" stroke="#000000" points="46.5,-245.7 46.5,-264.7 97.5,-264.7 97.5,-245.7 46.5,-245.7"/>
<text text-anchor="start" x="62.1105" y="-251.8" font-family="Helvetica,sans-Serif" font-size="11.00" fill="#000000">0 rows</text>
<polygon fill="#ffffff" stroke="transparent" points="97.5,-245.7 97.5,-264.7 131.5,-264.7 131.5,-245.7 97.5,-245.7"/>
<polygon fill="none" stroke="#000000" points="97.5,-245.7 97.5,-264.7 131.5,-264.7 131.5,-245.7 97.5,-245.7"/>
<text text-anchor="start" x="112.9053" y="-251.8" font-family="Helvetica,sans-Serif" font-size="11.00" fill="#000000">3 &gt;</text>
</a>
</g>
</g>
<!-- leads&#45;&gt;campanas -->
<g id="edge1" class="edge">
<title>leads:w&#45;&gt;campanas:e</title>
<path fill="none" stroke="#000000" d="M168.4593,-271.2298C155.6546,-278.5484 151.3365,-294.7 131.5,-294.7"/>
<polygon fill="#000000" stroke="#000000" points="174.7414,-269.6505 183.3777,-271.1914 178.6207,-268.6753 182.5,-267.7 182.5,-267.7 182.5,-267.7 178.6207,-268.6753 181.6223,-264.2086 174.7414,-269.6505 174.7414,-269.6505"/>
<ellipse fill="none" stroke="#000000" cx="171.638" cy="-270.4307" rx="3.2" ry="3.2"/>
</g>
<!-- cursos -->
<g id="node3" class="node">
<title>cursos</title>
<g id="a_node3"><a xlink:href="../../tables/cursos.html" xlink:title="cursos" target="_top">
<polygon fill="#ffffff" stroke="transparent" points="8,-38.2 8,-121.2 131,-121.2 131,-38.2 8,-38.2"/>
<polygon fill="#f5f5f5" stroke="transparent" points="8.5,-97.7 8.5,-120.7 131.5,-120.7 131.5,-97.7 8.5,-97.7"/>
<polygon fill="none" stroke="#000000" points="8.5,-97.7 8.5,-120.7 131.5,-120.7 131.5,-97.7 8.5,-97.7"/>
<text text-anchor="start" x="13.5" y="-106.8" font-family="Helvetica,sans-Serif" font-weight="bold" font-size="11.00" fill="#000000">cursos</text>
<text text-anchor="start" x="96.5437" y="-105.8" font-family="Helvetica,sans-Serif" font-size="11.00" fill="#000000">[table]</text>
<polygon fill="none" stroke="#000000" points="8.5,-75.7 8.5,-97.7 131.5,-97.7 131.5,-75.7 8.5,-75.7"/>
<image xlink:href="../../images/primaryKeys.png" width="11px" height="12px" preserveAspectRatio="xMinYMin meet" x="13.5" y="-92.7"/>
<text text-anchor="start" x="28.5" y="-82.8" font-family="Helvetica,sans-Serif" font-size="11.00" fill="#000000">curso_id</text>
<polygon fill="none" stroke="#000000" points="8.5,-56.7 8.5,-75.7 131.5,-75.7 131.5,-56.7 8.5,-56.7"/>
<text text-anchor="start" x="11.5" y="-62.8" font-family="Helvetica,sans-Serif" font-size="11.00" fill="#000000">...</text>
<polygon fill="#ffffff" stroke="transparent" points="8.5,-37.7 8.5,-56.7 49.5,-56.7 49.5,-37.7 8.5,-37.7"/>
<polygon fill="none" stroke="#000000" points="8.5,-37.7 8.5,-56.7 49.5,-56.7 49.5,-37.7 8.5,-37.7"/>
<text text-anchor="start" x="11.5" y="-43.8" font-family="Helvetica,sans-Serif" font-size="11.00" fill="#000000"> &#160;</text>
<polygon fill="#ffffff" stroke="transparent" points="49.5,-37.7 49.5,-56.7 95.5,-56.7 95.5,-37.7 49.5,-37.7"/>
<polygon fill="none" stroke="#000000" points="49.5,-37.7 49.5,-56.7 95.5,-56.7 95.5,-37.7 49.5,-37.7"/>
<text text-anchor="start" x="65.6105" y="-43.8" font-family="Helvetica,sans-Serif" font-size="11.00" fill="#000000">1 row</text>
<polygon fill="#ffffff" stroke="transparent" points="95.5,-37.7 95.5,-56.7 131.5,-56.7 131.5,-37.7 95.5,-37.7"/>
<polygon fill="none" stroke="#000000" points="95.5,-37.7 95.5,-56.7 131.5,-56.7 131.5,-37.7 95.5,-37.7"/>
<text text-anchor="start" x="112.9053" y="-43.8" font-family="Helvetica,sans-Serif" font-size="11.00" fill="#000000">4 &gt;</text>
</a>
</g>
</g>
<!-- leads&#45;&gt;cursos -->
<g id="edge2" class="edge">
<title>leads:w&#45;&gt;cursos:e</title>
<path fill="none" stroke="#000000" d="M168.4593,-110.1702C155.6546,-102.8516 151.3365,-86.7 131.5,-86.7"/>
<polygon fill="#000000" stroke="#000000" points="174.7414,-111.7495 181.6223,-117.1914 178.6207,-112.7247 182.5,-113.7 182.5,-113.7 182.5,-113.7 178.6207,-112.7247 183.3777,-110.2086 174.7414,-111.7495 174.7414,-111.7495"/>
<ellipse fill="none" stroke="#000000" cx="171.638" cy="-110.9693" rx="3.2" ry="3.2"/>
</g>
<!-- personas -->
<g id="node4" class="node">
<title>personas</title>
<g id="a_node4"><a xlink:href="../../tables/personas.html" xlink:title="personas" target="_top">
<polygon fill="#ffffff" stroke="transparent" points="8,-142.2 8,-225.2 131,-225.2 131,-142.2 8,-142.2"/>
<polygon fill="#f5f5f5" stroke="transparent" points="8.5,-201.7 8.5,-224.7 131.5,-224.7 131.5,-201.7 8.5,-201.7"/>
<polygon fill="none" stroke="#000000" points="8.5,-201.7 8.5,-224.7 131.5,-224.7 131.5,-201.7 8.5,-201.7"/>
<text text-anchor="start" x="13.5" y="-210.8" font-family="Helvetica,sans-Serif" font-weight="bold" font-size="11.00" fill="#000000">personas</text>
<text text-anchor="start" x="96.5437" y="-209.8" font-family="Helvetica,sans-Serif" font-size="11.00" fill="#000000">[table]</text>
<polygon fill="none" stroke="#000000" points="8.5,-179.7 8.5,-201.7 131.5,-201.7 131.5,-179.7 8.5,-179.7"/>
<image xlink:href="../../images/primaryKeys.png" width="11px" height="12px" preserveAspectRatio="xMinYMin meet" x="13.5" y="-196.7"/>
<text text-anchor="start" x="28.5" y="-186.8" font-family="Helvetica,sans-Serif" font-size="11.00" fill="#000000">persona_id</text>
<polygon fill="none" stroke="#000000" points="8.5,-160.7 8.5,-179.7 131.5,-179.7 131.5,-160.7 8.5,-160.7"/>
<text text-anchor="start" x="11.5" y="-166.8" font-family="Helvetica,sans-Serif" font-size="11.00" fill="#000000">...</text>
<polygon fill="#ffffff" stroke="transparent" points="8.5,-141.7 8.5,-160.7 46.5,-160.7 46.5,-141.7 8.5,-141.7"/>
<polygon fill="none" stroke="#000000" points="8.5,-141.7 8.5,-160.7 46.5,-160.7 46.5,-141.7 8.5,-141.7"/>
<text text-anchor="start" x="11.5" y="-147.8" font-family="Helvetica,sans-Serif" font-size="11.00" fill="#000000"> &#160;</text>
<polygon fill="#ffffff" stroke="transparent" points="46.5,-141.7 46.5,-160.7 97.5,-160.7 97.5,-141.7 46.5,-141.7"/>
<polygon fill="none" stroke="#000000" points="46.5,-141.7 46.5,-160.7 97.5,-160.7 97.5,-141.7 46.5,-141.7"/>
<text text-anchor="start" x="62.1105" y="-147.8" font-family="Helvetica,sans-Serif" font-size="11.00" fill="#000000">2 rows</text>
<polygon fill="#ffffff" stroke="transparent" points="97.5,-141.7 97.5,-160.7 131.5,-160.7 131.5,-141.7 97.5,-141.7"/>
<polygon fill="none" stroke="#000000" points="97.5,-141.7 97.5,-160.7 131.5,-160.7 131.5,-141.7 97.5,-141.7"/>
<text text-anchor="start" x="112.9053" y="-147.8" font-family="Helvetica,sans-Serif" font-size="11.00" fill="#000000">7 &gt;</text>
</a>
</g>
</g>
<!-- leads&#45;&gt;personas -->
<g id="edge3" class="edge">
<title>leads:w&#45;&gt;personas:e</title>
<path fill="none" stroke="#000000" d="M168.4604,-219.6536C155.3775,-210.8416 152.5921,-190.7 131.5,-190.7"/>
<polygon fill="#000000" stroke="#000000" points="174.8129,-221.4844 181.503,-227.1592 178.6565,-222.5922 182.5,-223.7 182.5,-223.7 182.5,-223.7 178.6565,-222.5922 183.497,-220.2408 174.8129,-221.4844 174.8129,-221.4844"/>
<ellipse fill="none" stroke="#000000" cx="171.7381" cy="-220.5982" rx="3.2" ry="3.2"/>
</g>
<!-- usuarios -->
<g id="node5" class="node">
<title>usuarios</title>
<g id="a_node5"><a xlink:href="../../tables/usuarios.html" xlink:title="usuarios" target="_top">
<polygon fill="#ffffff" stroke="transparent" points="8,-350.2 8,-455.2 131,-455.2 131,-350.2 8,-350.2"/>
<polygon fill="#f5f5f5" stroke="transparent" points="8.5,-431.7 8.5,-454.7 131.5,-454.7 131.5,-431.7 8.5,-431.7"/>
<polygon fill="none" stroke="#000000" points="8.5,-431.7 8.5,-454.7 131.5,-454.7 131.5,-431.7 8.5,-431.7"/>
<text text-anchor="start" x="13.5" y="-440.8" font-family="Helvetica,sans-Serif" font-weight="bold" font-size="11.00" fill="#000000">usuarios</text>
<text text-anchor="start" x="96.5437" y="-439.8" font-family="Helvetica,sans-Serif" font-size="11.00" fill="#000000">[table]</text>
<polygon fill="none" stroke="#000000" points="8.5,-409.7 8.5,-431.7 131.5,-431.7 131.5,-409.7 8.5,-409.7"/>
<image xlink:href="../../images/primaryKeys.png" width="11px" height="12px" preserveAspectRatio="xMinYMin meet" x="13.5" y="-426.7"/>
<text text-anchor="start" x="28.5" y="-416.8" font-family="Helvetica,sans-Serif" font-size="11.00" fill="#000000">usuario_id</text>
<polygon fill="#ffffff" stroke="transparent" points="8.5,-387.7 8.5,-409.7 131.5,-409.7 131.5,-387.7 8.5,-387.7"/>
<polygon fill="none" stroke="#000000" points="8.5,-387.7 8.5,-409.7 131.5,-409.7 131.5,-387.7 8.5,-387.7"/>
<text text-anchor="start" x="28.5" y="-394.8" font-family="Helvetica,sans-Serif" font-size="11.00" fill="#000000">nom_usuario</text>
<polygon fill="none" stroke="#000000" points="8.5,-368.7 8.5,-387.7 131.5,-387.7 131.5,-368.7 8.5,-368.7"/>
<text text-anchor="start" x="11.5" y="-374.8" font-family="Helvetica,sans-Serif" font-size="11.00" fill="#000000">...</text>
<polygon fill="#ffffff" stroke="transparent" points="8.5,-349.7 8.5,-368.7 49.5,-368.7 49.5,-349.7 8.5,-349.7"/>
<polygon fill="none" stroke="#000000" points="8.5,-349.7 8.5,-368.7 49.5,-368.7 49.5,-349.7 8.5,-349.7"/>
<text text-anchor="start" x="11.5" y="-355.8" font-family="Helvetica,sans-Serif" font-size="11.00" fill="#000000"> &#160;</text>
<polygon fill="#ffffff" stroke="transparent" points="49.5,-349.7 49.5,-368.7 95.5,-368.7 95.5,-349.7 49.5,-349.7"/>
<polygon fill="none" stroke="#000000" points="49.5,-349.7 49.5,-368.7 95.5,-368.7 95.5,-349.7 49.5,-349.7"/>
<text text-anchor="start" x="65.6105" y="-355.8" font-family="Helvetica,sans-Serif" font-size="11.00" fill="#000000">1 row</text>
<polygon fill="#ffffff" stroke="transparent" points="95.5,-349.7 95.5,-368.7 131.5,-368.7 131.5,-349.7 95.5,-349.7"/>
<polygon fill="none" stroke="#000000" points="95.5,-349.7 95.5,-368.7 131.5,-368.7 131.5,-349.7 95.5,-349.7"/>
<text text-anchor="start" x="112.9053" y="-355.8" font-family="Helvetica,sans-Serif" font-size="11.00" fill="#000000">5 &gt;</text>
</a>
</g>
</g>
<!-- leads&#45;&gt;usuarios -->
<g id="edge4" class="edge">
<title>leads:w&#45;&gt;usuarios:e</title>
<path fill="none" stroke="#000000" d="M168.3004,-292.9382C132.6891,-313.1111 188.1214,-420.7 131.5,-420.7"/>
<polygon fill="#000000" stroke="#000000" points="174.7002,-291.4788 183.3005,-293.2099 178.6001,-290.5894 182.5,-289.7 182.5,-289.7 182.5,-289.7 178.6001,-290.5894 181.6995,-286.1901 174.7002,-291.4788 174.7002,-291.4788"/>
<ellipse fill="none" stroke="#000000" cx="171.5803" cy="-292.1903" rx="3.2" ry="3.2"/>
</g>
</g>
</svg>
