<?xml version="1.0" encoding="UTF-8" standalone="no"?>
<!DOCTYPE svg PUBLIC "-//W3C//DTD SVG 1.1//EN"
 "http://www.w3.org/Graphics/SVG/1.1/DTD/svg11.dtd">
<!-- Generated by graphviz version 2.40.1 (20161225.0304)
 -->
<!-- Title: twoDegreesRelationshipsDiagramImplied Pages: 1 -->
<svg width="407pt" height="585pt"
 viewBox="0.00 0.00 407.00 585.20" xmlns="http://www.w3.org/2000/svg" xmlns:xlink="http://www.w3.org/1999/xlink">
<g id="graph0" class="graph" transform="scale(1 1) rotate(0) translate(4 581.2)">
<title>twoDegreesRelationshipsDiagramImplied</title>
<polygon fill="#ffffff" stroke="transparent" points="-4,4 -4,-581.2 403,-581.2 403,4 -4,4"/>
<text text-anchor="middle" x="72.4936" y="-7.3" font-family="Helvetica,sans-Serif" font-size="11.00" fill="#000000">Generated by SchemaSpy</text>
<!-- contactos -->
<g id="node1" class="node">
<title>contactos</title>
<g id="a_node1"><a xlink:href="../../tables/contactos.html" xlink:title="contactos" target="_top">
<polygon fill="#ffffff" stroke="transparent" points="240.5,-512.2 240.5,-573.2 330.5,-573.2 330.5,-512.2 240.5,-512.2"/>
<polygon fill="#f5f5f5" stroke="transparent" points="240.5,-549.7 240.5,-572.7 330.5,-572.7 330.5,-549.7 240.5,-549.7"/>
<polygon fill="none" stroke="#000000" points="240.5,-549.7 240.5,-572.7 330.5,-572.7 330.5,-549.7 240.5,-549.7"/>
<text text-anchor="start" x="245.4633" y="-558.8" font-family="Helvetica,sans-Serif" font-weight="bold" font-size="11.00" fill="#000000">contactos</text>
<text text-anchor="start" x="296.0219" y="-557.8" font-family="Helvetica,sans-Serif" font-size="11.00" fill="#000000">[table]</text>
<polygon fill="none" stroke="#000000" points="240.5,-530.7 240.5,-549.7 330.5,-549.7 330.5,-530.7 240.5,-530.7"/>
<text text-anchor="start" x="243.5" y="-536.8" font-family="Helvetica,sans-Serif" font-size="11.00" fill="#000000">...</text>
<polygon fill="#ffffff" stroke="transparent" points="240.5,-511.7 240.5,-530.7 266.5,-530.7 266.5,-511.7 240.5,-511.7"/>
<polygon fill="none" stroke="#000000" points="240.5,-511.7 240.5,-530.7 266.5,-530.7 266.5,-511.7 240.5,-511.7"/>
<text text-anchor="start" x="243.5" y="-517.8" font-family="Helvetica,sans-Serif" font-size="11.00" fill="#000000">&lt; 1</text>
<polygon fill="#ffffff" stroke="transparent" points="266.5,-511.7 266.5,-530.7 306.5,-530.7 306.5,-511.7 266.5,-511.7"/>
<polygon fill="none" stroke="#000000" points="266.5,-511.7 266.5,-530.7 306.5,-530.7 306.5,-511.7 266.5,-511.7"/>
<text text-anchor="start" x="271.1105" y="-517.8" font-family="Helvetica,sans-Serif" font-size="11.00" fill="#000000">0 rows</text>
<polygon fill="#ffffff" stroke="transparent" points="306.5,-511.7 306.5,-530.7 330.5,-530.7 330.5,-511.7 306.5,-511.7"/>
<polygon fill="none" stroke="#000000" points="306.5,-511.7 306.5,-530.7 330.5,-530.7 330.5,-511.7 306.5,-511.7"/>
<text text-anchor="start" x="311.9053" y="-517.8" font-family="Helvetica,sans-Serif" font-size="11.00" fill="#000000">1 &gt;</text>
</a>
</g>
</g>
<!-- personas -->
<g id="node2" class="node">
<title>personas</title>
<g id="a_node2"><a xlink:href="../../tables/personas.html" xlink:title="personas" target="_top">
<polygon fill="#ffffff" stroke="transparent" points="8,-241.2 8,-324.2 131,-324.2 131,-241.2 8,-241.2"/>
<polygon fill="#f5f5f5" stroke="transparent" points="8.5,-300.7 8.5,-323.7 131.5,-323.7 131.5,-300.7 8.5,-300.7"/>
<polygon fill="none" stroke="#000000" points="8.5,-300.7 8.5,-323.7 131.5,-323.7 131.5,-300.7 8.5,-300.7"/>
<text text-anchor="start" x="13.5" y="-309.8" font-family="Helvetica,sans-Serif" font-weight="bold" font-size="11.00" fill="#000000">personas</text>
<text text-anchor="start" x="96.5437" y="-308.8" font-family="Helvetica,sans-Serif" font-size="11.00" fill="#000000">[table]</text>
<polygon fill="none" stroke="#000000" points="8.5,-278.7 8.5,-300.7 131.5,-300.7 131.5,-278.7 8.5,-278.7"/>
<image xlink:href="../../images/primaryKeys.png" width="11px" height="12px" preserveAspectRatio="xMinYMin meet" x="13.5" y="-295.7"/>
<text text-anchor="start" x="28.5" y="-285.8" font-family="Helvetica,sans-Serif" font-size="11.00" fill="#000000">persona_id</text>
<polygon fill="none" stroke="#000000" points="8.5,-259.7 8.5,-278.7 131.5,-278.7 131.5,-259.7 8.5,-259.7"/>
<text text-anchor="start" x="11.5" y="-265.8" font-family="Helvetica,sans-Serif" font-size="11.00" fill="#000000">...</text>
<polygon fill="#ffffff" stroke="transparent" points="8.5,-240.7 8.5,-259.7 46.5,-259.7 46.5,-240.7 8.5,-240.7"/>
<polygon fill="none" stroke="#000000" points="8.5,-240.7 8.5,-259.7 46.5,-259.7 46.5,-240.7 8.5,-240.7"/>
<text text-anchor="start" x="11.5" y="-246.8" font-family="Helvetica,sans-Serif" font-size="11.00" fill="#000000"> &#160;</text>
<polygon fill="#ffffff" stroke="transparent" points="46.5,-240.7 46.5,-259.7 97.5,-259.7 97.5,-240.7 46.5,-240.7"/>
<polygon fill="none" stroke="#000000" points="46.5,-240.7 46.5,-259.7 97.5,-259.7 97.5,-240.7 46.5,-240.7"/>
<text text-anchor="start" x="62.1105" y="-246.8" font-family="Helvetica,sans-Serif" font-size="11.00" fill="#000000">0 rows</text>
<polygon fill="#ffffff" stroke="transparent" points="97.5,-240.7 97.5,-259.7 131.5,-259.7 131.5,-240.7 97.5,-240.7"/>
<polygon fill="none" stroke="#000000" points="97.5,-240.7 97.5,-259.7 131.5,-259.7 131.5,-240.7 97.5,-240.7"/>
<text text-anchor="start" x="112.9053" y="-246.8" font-family="Helvetica,sans-Serif" font-size="11.00" fill="#000000">4 &gt;</text>
</a>
</g>
</g>
<!-- contactos&#45;&gt;personas -->
<g id="edge1" class="edge">
<title>contactos:w&#45;&gt;personas:e</title>
<path fill="none" stroke="#000000" d="M225.987,-538.9874C201.4755,-536.2877 189.3038,-525.606 172,-501.7 143.877,-462.847 179.4631,-289.7 131.5,-289.7"/>
<polygon fill="#000000" stroke="#000000" points="232.5096,-539.3076 240.3234,-543.2957 236.5048,-539.5038 240.5,-539.7 240.5,-539.7 240.5,-539.7 236.5048,-539.5038 240.6766,-536.1043 232.5096,-539.3076 232.5096,-539.3076"/>
<ellipse fill="none" stroke="#000000" cx="229.3135" cy="-539.1507" rx="3.2" ry="3.2"/>
</g>
<!-- leads -->
<g id="node3" class="node">
<title>leads</title>
<g id="a_node3"><a xlink:href="../../tables/leads.html" xlink:title="leads" target="_top">
<polygon fill="#ffffff" stroke="transparent" points="180,-202.7 180,-490.7 391,-490.7 391,-202.7 180,-202.7"/>
<polygon fill="#f5f5f5" stroke="transparent" points="182.5,-465.7 182.5,-488.7 389.5,-488.7 389.5,-465.7 182.5,-465.7"/>
<polygon fill="none" stroke="#000000" points="182.5,-465.7 182.5,-488.7 389.5,-488.7 389.5,-465.7 182.5,-465.7"/>
<text text-anchor="start" x="187.5" y="-474.8" font-family="Helvetica,sans-Serif" font-weight="bold" font-size="11.00" fill="#000000">leads</text>
<text text-anchor="start" x="354.5437" y="-473.8" font-family="Helvetica,sans-Serif" font-size="11.00" fill="#000000">[table]</text>
<polygon fill="none" stroke="#000000" points="182.5,-443.7 182.5,-465.7 305.5,-465.7 305.5,-443.7 182.5,-443.7"/>
<image xlink:href="../../images/primaryKeys.png" width="11px" height="12px" preserveAspectRatio="xMinYMin meet" x="187.5" y="-460.7"/>
<text text-anchor="start" x="202.5" y="-450.8" font-family="Helvetica,sans-Serif" font-size="11.00" fill="#000000">lead_id</text>
<polygon fill="none" stroke="#000000" points="305.5,-443.7 305.5,-465.7 389.5,-465.7 389.5,-443.7 305.5,-443.7"/>
<text text-anchor="start" x="308.5" y="-451.4" font-family="Helvetica,sans-Serif" font-size="11.00" fill="#000000">int4[10]</text>
<polygon fill="none" stroke="#000000" points="182.5,-421.7 182.5,-443.7 305.5,-443.7 305.5,-421.7 182.5,-421.7"/>
<image xlink:href="../../images/foreignKeys.png" width="11px" height="12px" preserveAspectRatio="xMinYMin meet" x="187.5" y="-438.7"/>
<text text-anchor="start" x="202.5" y="-428.8" font-family="Helvetica,sans-Serif" font-size="11.00" fill="#000000">persona_id</text>
<polygon fill="none" stroke="#000000" points="305.5,-421.7 305.5,-443.7 389.5,-443.7 389.5,-421.7 305.5,-421.7"/>
<text text-anchor="start" x="308.5" y="-429.4" font-family="Helvetica,sans-Serif" font-size="11.00" fill="#000000">int4[10]</text>
<polygon fill="none" stroke="#000000" points="182.5,-399.7 182.5,-421.7 305.5,-421.7 305.5,-399.7 182.5,-399.7"/>
<text text-anchor="start" x="202.5" y="-406.8" font-family="Helvetica,sans-Serif" font-size="11.00" fill="#000000">estado</text>
<polygon fill="none" stroke="#000000" points="305.5,-399.7 305.5,-421.7 389.5,-421.7 389.5,-399.7 305.5,-399.7"/>
<text text-anchor="start" x="308.5" y="-407.4" font-family="Helvetica,sans-Serif" font-size="11.00" fill="#000000">int4[10]</text>
<polygon fill="none" stroke="#000000" points="182.5,-377.7 182.5,-399.7 305.5,-399.7 305.5,-377.7 182.5,-377.7"/>
<text text-anchor="start" x="202.5" y="-384.8" font-family="Helvetica,sans-Serif" font-size="11.00" fill="#000000">origen</text>
<polygon fill="none" stroke="#000000" points="305.5,-377.7 305.5,-399.7 389.5,-399.7 389.5,-377.7 305.5,-377.7"/>
<text text-anchor="start" x="308.5" y="-385.4" font-family="Helvetica,sans-Serif" font-size="11.00" fill="#000000">int4[10]</text>
<polygon fill="none" stroke="#000000" points="182.5,-355.7 182.5,-377.7 305.5,-377.7 305.5,-355.7 182.5,-355.7"/>
<text text-anchor="start" x="202.5" y="-362.8" font-family="Helvetica,sans-Serif" font-size="11.00" fill="#000000">usu_asignado</text>
<polygon fill="none" stroke="#000000" points="305.5,-355.7 305.5,-377.7 389.5,-377.7 389.5,-355.7 305.5,-355.7"/>
<text text-anchor="start" x="308.5" y="-363.4" font-family="Helvetica,sans-Serif" font-size="11.00" fill="#000000">varchar[20]</text>
<polygon fill="none" stroke="#000000" points="182.5,-333.7 182.5,-355.7 305.5,-355.7 305.5,-333.7 182.5,-333.7"/>
<text text-anchor="start" x="202.5" y="-340.8" font-family="Helvetica,sans-Serif" font-size="11.00" fill="#000000">fec_insercion</text>
<polygon fill="none" stroke="#000000" points="305.5,-333.7 305.5,-355.7 389.5,-355.7 389.5,-333.7 305.5,-333.7"/>
<text text-anchor="start" x="308.3807" y="-341.4" font-family="Helvetica,sans-Serif" font-size="11.00" fill="#000000">timestamp[29,6]</text>
<polygon fill="none" stroke="#000000" points="182.5,-311.7 182.5,-333.7 305.5,-333.7 305.5,-311.7 182.5,-311.7"/>
<text text-anchor="start" x="202.5" y="-318.8" font-family="Helvetica,sans-Serif" font-size="11.00" fill="#000000">usu_insercion</text>
<polygon fill="none" stroke="#000000" points="305.5,-311.7 305.5,-333.7 389.5,-333.7 389.5,-311.7 305.5,-311.7"/>
<text text-anchor="start" x="308.5" y="-319.4" font-family="Helvetica,sans-Serif" font-size="11.00" fill="#000000">varchar[20]</text>
<polygon fill="none" stroke="#000000" points="182.5,-289.7 182.5,-311.7 305.5,-311.7 305.5,-289.7 182.5,-289.7"/>
<text text-anchor="start" x="202.5" y="-296.8" font-family="Helvetica,sans-Serif" font-size="11.00" fill="#000000">fec_modificacion</text>
<polygon fill="none" stroke="#000000" points="305.5,-289.7 305.5,-311.7 389.5,-311.7 389.5,-289.7 305.5,-289.7"/>
<text text-anchor="start" x="308.3807" y="-297.4" font-family="Helvetica,sans-Serif" font-size="11.00" fill="#000000">timestamp[29,6]</text>
<polygon fill="none" stroke="#000000" points="182.5,-267.7 182.5,-289.7 305.5,-289.7 305.5,-267.7 182.5,-267.7"/>
<text text-anchor="start" x="202.5" y="-274.8" font-family="Helvetica,sans-Serif" font-size="11.00" fill="#000000">usu_modificacion</text>
<polygon fill="none" stroke="#000000" points="305.5,-267.7 305.5,-289.7 389.5,-289.7 389.5,-267.7 305.5,-267.7"/>
<text text-anchor="start" x="308.5" y="-275.4" font-family="Helvetica,sans-Serif" font-size="11.00" fill="#000000">varchar[20]</text>
<polygon fill="none" stroke="#000000" points="182.5,-245.7 182.5,-267.7 305.5,-267.7 305.5,-245.7 182.5,-245.7"/>
<text text-anchor="start" x="202.5" y="-252.8" font-family="Helvetica,sans-Serif" font-size="11.00" fill="#000000">fec_eliminacion</text>
<polygon fill="none" stroke="#000000" points="305.5,-245.7 305.5,-267.7 389.5,-267.7 389.5,-245.7 305.5,-245.7"/>
<text text-anchor="start" x="308.3807" y="-253.4" font-family="Helvetica,sans-Serif" font-size="11.00" fill="#000000">timestamp[29,6]</text>
<polygon fill="none" stroke="#000000" points="182.5,-223.7 182.5,-245.7 305.5,-245.7 305.5,-223.7 182.5,-223.7"/>
<text text-anchor="start" x="202.5" y="-230.8" font-family="Helvetica,sans-Serif" font-size="11.00" fill="#000000">usu_eliminacion</text>
<polygon fill="none" stroke="#000000" points="305.5,-223.7 305.5,-245.7 389.5,-245.7 389.5,-223.7 305.5,-223.7"/>
<text text-anchor="start" x="308.5" y="-231.4" font-family="Helvetica,sans-Serif" font-size="11.00" fill="#000000">varchar[20]</text>
<polygon fill="#ffffff" stroke="transparent" points="182.5,-204.7 182.5,-223.7 235.5,-223.7 235.5,-204.7 182.5,-204.7"/>
<polygon fill="none" stroke="#000000" points="182.5,-204.7 182.5,-223.7 235.5,-223.7 235.5,-204.7 182.5,-204.7"/>
<text text-anchor="start" x="185.5" y="-210.8" font-family="Helvetica,sans-Serif" font-size="11.00" fill="#000000">&lt; 1</text>
<polygon fill="#ffffff" stroke="transparent" points="235.5,-204.7 235.5,-223.7 305.5,-223.7 305.5,-204.7 235.5,-204.7"/>
<polygon fill="none" stroke="#000000" points="235.5,-204.7 235.5,-223.7 305.5,-223.7 305.5,-204.7 235.5,-204.7"/>
<text text-anchor="start" x="270.1105" y="-210.8" font-family="Helvetica,sans-Serif" font-size="11.00" fill="#000000">0 rows</text>
<polygon fill="#ffffff" stroke="transparent" points="305.5,-204.7 305.5,-223.7 389.5,-223.7 389.5,-204.7 305.5,-204.7"/>
<polygon fill="none" stroke="#000000" points="305.5,-204.7 305.5,-223.7 389.5,-223.7 389.5,-204.7 305.5,-204.7"/>
<text text-anchor="start" x="370.9053" y="-210.8" font-family="Helvetica,sans-Serif" font-size="11.00" fill="#000000">0 &gt;</text>
<polygon fill="none" stroke="#000000" stroke-width="2" points="181,-203.7 181,-489.7 390,-489.7 390,-203.7 181,-203.7"/>
</a>
</g>
</g>
<!-- leads&#45;&gt;personas -->
<g id="edge2" class="edge">
<title>leads:w&#45;&gt;personas:e</title>
<path fill="none" stroke="#000000" d="M168.2665,-429.7132C128.3345,-409.178 193.1778,-289.7 131.5,-289.7"/>
<polygon fill="#000000" stroke="#000000" points="174.6705,-431.057 181.7607,-436.2233 178.5853,-431.8785 182.5,-432.7 182.5,-432.7 182.5,-432.7 178.5853,-431.8785 183.2393,-429.1767 174.6705,-431.057 174.6705,-431.057"/>
<ellipse fill="none" stroke="#000000" cx="171.5387" cy="-430.3998" rx="3.2" ry="3.2"/>
</g>
<!-- organizaciones -->
<g id="node4" class="node">
<title>organizaciones</title>
<g id="a_node4"><a xlink:href="../../tables/organizaciones.html" xlink:title="organizaciones" target="_top">
<polygon fill="#ffffff" stroke="transparent" points="227.5,-120.2 227.5,-181.2 343.5,-181.2 343.5,-120.2 227.5,-120.2"/>
<polygon fill="#f5f5f5" stroke="transparent" points="227.5,-157.7 227.5,-180.7 343.5,-180.7 343.5,-157.7 227.5,-157.7"/>
<polygon fill="none" stroke="#000000" points="227.5,-157.7 227.5,-180.7 343.5,-180.7 343.5,-157.7 227.5,-157.7"/>
<text text-anchor="start" x="232.0186" y="-166.8" font-family="Helvetica,sans-Serif" font-weight="bold" font-size="11.00" fill="#000000">organizaciones</text>
<text text-anchor="start" x="309.0219" y="-165.8" font-family="Helvetica,sans-Serif" font-size="11.00" fill="#000000">[table]</text>
<polygon fill="none" stroke="#000000" points="227.5,-138.7 227.5,-157.7 343.5,-157.7 343.5,-138.7 227.5,-138.7"/>
<text text-anchor="start" x="230.5" y="-144.8" font-family="Helvetica,sans-Serif" font-size="11.00" fill="#000000">...</text>
<polygon fill="#ffffff" stroke="transparent" points="227.5,-119.7 227.5,-138.7 266.5,-138.7 266.5,-119.7 227.5,-119.7"/>
<polygon fill="none" stroke="#000000" points="227.5,-119.7 227.5,-138.7 266.5,-138.7 266.5,-119.7 227.5,-119.7"/>
<text text-anchor="start" x="230.5" y="-125.8" font-family="Helvetica,sans-Serif" font-size="11.00" fill="#000000">&lt; 1</text>
<polygon fill="#ffffff" stroke="transparent" points="266.5,-119.7 266.5,-138.7 313.5,-138.7 313.5,-119.7 266.5,-119.7"/>
<polygon fill="none" stroke="#000000" points="266.5,-119.7 266.5,-138.7 313.5,-138.7 313.5,-119.7 266.5,-119.7"/>
<text text-anchor="start" x="278.1105" y="-125.8" font-family="Helvetica,sans-Serif" font-size="11.00" fill="#000000">0 rows</text>
<polygon fill="#ffffff" stroke="transparent" points="313.5,-119.7 313.5,-138.7 343.5,-138.7 343.5,-119.7 313.5,-119.7"/>
<polygon fill="none" stroke="#000000" points="313.5,-119.7 313.5,-138.7 343.5,-138.7 343.5,-119.7 313.5,-119.7"/>
<text text-anchor="start" x="324.9053" y="-125.8" font-family="Helvetica,sans-Serif" font-size="11.00" fill="#000000">1 &gt;</text>
</a>
</g>
</g>
<!-- organizaciones&#45;&gt;personas -->
<g id="edge3" class="edge">
<title>organizaciones:w&#45;&gt;personas:e</title>
<path fill="none" stroke="#000000" d="M213.0356,-149.4401C193.6439,-154.763 187.6836,-171.7453 172,-192.7 144.0063,-230.1021 178.218,-289.7 131.5,-289.7"/>
<polygon fill="#000000" stroke="#000000" points="219.5573,-148.6556 227.93,-151.2742 223.5286,-148.1778 227.5,-147.7 227.5,-147.7 227.5,-147.7 223.5286,-148.1778 227.07,-144.1258 219.5573,-148.6556 219.5573,-148.6556"/>
<ellipse fill="none" stroke="#000000" cx="216.3802" cy="-149.0378" rx="3.2" ry="3.2"/>
</g>
<!-- usuarios -->
<g id="node5" class="node">
<title>usuarios</title>
<g id="a_node5"><a xlink:href="../../tables/usuarios.html" xlink:title="usuarios" target="_top">
<polygon fill="#ffffff" stroke="transparent" points="242.5,-38.2 242.5,-99.2 328.5,-99.2 328.5,-38.2 242.5,-38.2"/>
<polygon fill="#f5f5f5" stroke="transparent" points="242.5,-75.7 242.5,-98.7 328.5,-98.7 328.5,-75.7 242.5,-75.7"/>
<polygon fill="none" stroke="#000000" points="242.5,-75.7 242.5,-98.7 328.5,-98.7 328.5,-75.7 242.5,-75.7"/>
<text text-anchor="start" x="247.5" y="-84.8" font-family="Helvetica,sans-Serif" font-weight="bold" font-size="11.00" fill="#000000">usuarios</text>
<text text-anchor="start" x="293.5437" y="-83.8" font-family="Helvetica,sans-Serif" font-size="11.00" fill="#000000">[table]</text>
<polygon fill="none" stroke="#000000" points="242.5,-56.7 242.5,-75.7 328.5,-75.7 328.5,-56.7 242.5,-56.7"/>
<text text-anchor="start" x="245.5" y="-62.8" font-family="Helvetica,sans-Serif" font-size="11.00" fill="#000000">...</text>
<polygon fill="#ffffff" stroke="transparent" points="242.5,-37.7 242.5,-56.7 263.5,-56.7 263.5,-37.7 242.5,-37.7"/>
<polygon fill="none" stroke="#000000" points="242.5,-37.7 242.5,-56.7 263.5,-56.7 263.5,-37.7 242.5,-37.7"/>
<text text-anchor="start" x="245.2027" y="-43.8" font-family="Helvetica,sans-Serif" font-size="11.00" fill="#000000">&lt; 1</text>
<polygon fill="#ffffff" stroke="transparent" points="263.5,-37.7 263.5,-56.7 301.5,-56.7 301.5,-37.7 263.5,-37.7"/>
<polygon fill="none" stroke="#000000" points="263.5,-37.7 263.5,-56.7 301.5,-56.7 301.5,-37.7 263.5,-37.7"/>
<text text-anchor="start" x="266.3053" y="-43.8" font-family="Helvetica,sans-Serif" font-size="11.00" fill="#000000">0 rows</text>
<polygon fill="#ffffff" stroke="transparent" points="301.5,-37.7 301.5,-56.7 328.5,-56.7 328.5,-37.7 301.5,-37.7"/>
<polygon fill="none" stroke="#000000" points="301.5,-37.7 301.5,-56.7 328.5,-56.7 328.5,-37.7 301.5,-37.7"/>
<text text-anchor="start" x="304.1452" y="-43.8" font-family="Helvetica,sans-Serif" font-size="11.00" fill="#000000">12 &gt;</text>
</a>
</g>
</g>
<!-- usuarios&#45;&gt;personas -->
<g id="edge4" class="edge">
<title>usuarios:w&#45;&gt;personas:e</title>
<path fill="none" stroke="#000000" stroke-dasharray="5,2" d="M227.9333,-66.5768C201.8488,-70.0506 190.2835,-83.9305 172,-109.7 124.5506,-176.5771 213.5,-289.7 131.5,-289.7"/>
<polygon fill="#000000" stroke="#000000" points="234.5145,-66.1807 242.7163,-69.2935 238.5072,-65.9404 242.5,-65.7 242.5,-65.7 242.5,-65.7 238.5072,-65.9404 242.2837,-62.1065 234.5145,-66.1807 234.5145,-66.1807"/>
<ellipse fill="none" stroke="#000000" cx="231.3202" cy="-66.373" rx="3.2" ry="3.2"/>
</g>
</g>
</svg>
