<?xml version="1.0" encoding="UTF-8" standalone="no"?>
<!DOCTYPE svg PUBLIC "-//W3C//DTD SVG 1.1//EN"
 "http://www.w3.org/Graphics/SVG/1.1/DTD/svg11.dtd">
<!-- Generated by graphviz version 2.40.1 (20161225.0304)
 -->
<!-- Title: oneDegreeRelationshipsDiagram Pages: 1 -->
<svg width="513pt" height="418pt"
 viewBox="0.00 0.00 513.00 417.70" xmlns="http://www.w3.org/2000/svg" xmlns:xlink="http://www.w3.org/1999/xlink">
<g id="graph0" class="graph" transform="scale(1 1) rotate(0) translate(4 413.7)">
<title>oneDegreeRelationshipsDiagram</title>
<polygon fill="#ffffff" stroke="transparent" points="-4,4 -4,-413.7 509,-413.7 509,4 -4,4"/>
<text text-anchor="middle" x="72.4936" y="-7.3" font-family="Helvetica,sans-Serif" font-size="11.00" fill="#000000">Generated by SchemaSpy</text>
<!-- llamadas -->
<g id="node1" class="node">
<title>llamadas</title>
<g id="a_node1"><a xlink:href="../../tables/llamadas.html" xlink:title="llamadas" target="_top">
<polygon fill="#ffffff" stroke="transparent" points="180,-95.7 180,-405.7 497,-405.7 497,-95.7 180,-95.7"/>
<polygon fill="#f5f5f5" stroke="transparent" points="182.5,-380.7 182.5,-403.7 495.5,-403.7 495.5,-380.7 182.5,-380.7"/>
<polygon fill="none" stroke="#000000" points="182.5,-380.7 182.5,-403.7 495.5,-403.7 495.5,-380.7 182.5,-380.7"/>
<text text-anchor="start" x="187.5" y="-389.8" font-family="Helvetica,sans-Serif" font-weight="bold" font-size="11.00" fill="#000000">llamadas</text>
<text text-anchor="start" x="460.5437" y="-388.8" font-family="Helvetica,sans-Serif" font-size="11.00" fill="#000000">[table]</text>
<polygon fill="none" stroke="#000000" points="182.5,-358.7 182.5,-380.7 305.5,-380.7 305.5,-358.7 182.5,-358.7"/>
<image xlink:href="../../images/primaryKeys.png" width="11px" height="12px" preserveAspectRatio="xMinYMin meet" x="187.5" y="-375.7"/>
<text text-anchor="start" x="202.5" y="-365.8" font-family="Helvetica,sans-Serif" font-size="11.00" fill="#000000">llamada_id</text>
<polygon fill="none" stroke="#000000" points="305.5,-358.7 305.5,-380.7 495.5,-380.7 495.5,-358.7 305.5,-358.7"/>
<text text-anchor="start" x="308.5" y="-366.4" font-family="Helvetica,sans-Serif" font-size="11.00" fill="#000000">serial[10]</text>
<polygon fill="none" stroke="#000000" points="182.5,-336.7 182.5,-358.7 305.5,-358.7 305.5,-336.7 182.5,-336.7"/>
<text text-anchor="start" x="202.5" y="-343.8" font-family="Helvetica,sans-Serif" font-size="11.00" fill="#000000">asunto</text>
<polygon fill="none" stroke="#000000" points="305.5,-336.7 305.5,-358.7 495.5,-358.7 495.5,-336.7 305.5,-336.7"/>
<text text-anchor="start" x="308.5" y="-344.4" font-family="Helvetica,sans-Serif" font-size="11.00" fill="#000000">varchar[255]</text>
<polygon fill="none" stroke="#000000" points="182.5,-314.7 182.5,-336.7 305.5,-336.7 305.5,-314.7 182.5,-314.7"/>
<text text-anchor="start" x="202.5" y="-321.8" font-family="Helvetica,sans-Serif" font-size="11.00" fill="#000000">estado</text>
<polygon fill="none" stroke="#000000" points="305.5,-314.7 305.5,-336.7 495.5,-336.7 495.5,-314.7 305.5,-314.7"/>
<text text-anchor="start" x="308.4905" y="-322.4" font-family="Helvetica,sans-Serif" font-size="11.00" fill="#000000">enum_llamadas_estado[2147483647]</text>
<polygon fill="none" stroke="#000000" points="182.5,-292.7 182.5,-314.7 305.5,-314.7 305.5,-292.7 182.5,-292.7"/>
<text text-anchor="start" x="202.5" y="-299.8" font-family="Helvetica,sans-Serif" font-size="11.00" fill="#000000">tipo</text>
<polygon fill="none" stroke="#000000" points="305.5,-292.7 305.5,-314.7 495.5,-314.7 495.5,-292.7 305.5,-292.7"/>
<text text-anchor="start" x="308.5" y="-300.4" font-family="Helvetica,sans-Serif" font-size="11.00" fill="#000000">enum_llamadas_tipo[2147483647]</text>
<polygon fill="none" stroke="#000000" points="182.5,-270.7 182.5,-292.7 305.5,-292.7 305.5,-270.7 182.5,-270.7"/>
<text text-anchor="start" x="202.5" y="-277.8" font-family="Helvetica,sans-Serif" font-size="11.00" fill="#000000">fec_inicio</text>
<polygon fill="none" stroke="#000000" points="305.5,-270.7 305.5,-292.7 495.5,-292.7 495.5,-270.7 305.5,-270.7"/>
<text text-anchor="start" x="308.5" y="-278.4" font-family="Helvetica,sans-Serif" font-size="11.00" fill="#000000">timestamptz[35,6]</text>
<polygon fill="none" stroke="#000000" points="182.5,-248.7 182.5,-270.7 305.5,-270.7 305.5,-248.7 182.5,-248.7"/>
<image xlink:href="../../images/foreignKeys.png" width="11px" height="12px" preserveAspectRatio="xMinYMin meet" x="187.5" y="-265.7"/>
<text text-anchor="start" x="202.5" y="-255.8" font-family="Helvetica,sans-Serif" font-size="11.00" fill="#000000">contacto_id</text>
<polygon fill="none" stroke="#000000" points="305.5,-248.7 305.5,-270.7 495.5,-270.7 495.5,-248.7 305.5,-248.7"/>
<text text-anchor="start" x="308.5" y="-256.4" font-family="Helvetica,sans-Serif" font-size="11.00" fill="#000000">int4[10]</text>
<polygon fill="none" stroke="#000000" points="182.5,-226.7 182.5,-248.7 305.5,-248.7 305.5,-226.7 182.5,-226.7"/>
<image xlink:href="../../images/foreignKeys.png" width="11px" height="12px" preserveAspectRatio="xMinYMin meet" x="187.5" y="-243.7"/>
<text text-anchor="start" x="202.5" y="-233.8" font-family="Helvetica,sans-Serif" font-size="11.00" fill="#000000">lead_id</text>
<polygon fill="none" stroke="#000000" points="305.5,-226.7 305.5,-248.7 495.5,-248.7 495.5,-226.7 305.5,-226.7"/>
<text text-anchor="start" x="308.5" y="-234.4" font-family="Helvetica,sans-Serif" font-size="11.00" fill="#000000">int4[10]</text>
<polygon fill="none" stroke="#000000" points="182.5,-204.7 182.5,-226.7 305.5,-226.7 305.5,-204.7 182.5,-204.7"/>
<text text-anchor="start" x="202.5" y="-211.8" font-family="Helvetica,sans-Serif" font-size="11.00" fill="#000000">descripcion</text>
<polygon fill="none" stroke="#000000" points="305.5,-204.7 305.5,-226.7 495.5,-226.7 495.5,-204.7 305.5,-204.7"/>
<text text-anchor="start" x="308.5" y="-212.4" font-family="Helvetica,sans-Serif" font-size="11.00" fill="#000000">text[2147483647]</text>
<polygon fill="none" stroke="#000000" points="182.5,-182.7 182.5,-204.7 305.5,-204.7 305.5,-182.7 182.5,-182.7"/>
<text text-anchor="start" x="202.5" y="-189.8" font-family="Helvetica,sans-Serif" font-size="11.00" fill="#000000">usu_insercion</text>
<polygon fill="none" stroke="#000000" points="305.5,-182.7 305.5,-204.7 495.5,-204.7 495.5,-182.7 305.5,-182.7"/>
<text text-anchor="start" x="308.5" y="-190.4" font-family="Helvetica,sans-Serif" font-size="11.00" fill="#000000">varchar[20]</text>
<polygon fill="none" stroke="#000000" points="182.5,-160.7 182.5,-182.7 305.5,-182.7 305.5,-160.7 182.5,-160.7"/>
<text text-anchor="start" x="202.5" y="-167.8" font-family="Helvetica,sans-Serif" font-size="11.00" fill="#000000">fec_insercion</text>
<polygon fill="none" stroke="#000000" points="305.5,-160.7 305.5,-182.7 495.5,-182.7 495.5,-160.7 305.5,-160.7"/>
<text text-anchor="start" x="308.5" y="-168.4" font-family="Helvetica,sans-Serif" font-size="11.00" fill="#000000">timestamptz[35,6]</text>
<polygon fill="none" stroke="#000000" points="182.5,-138.7 182.5,-160.7 305.5,-160.7 305.5,-138.7 182.5,-138.7"/>
<text text-anchor="start" x="202.5" y="-145.8" font-family="Helvetica,sans-Serif" font-size="11.00" fill="#000000">fec_modificacion</text>
<polygon fill="none" stroke="#000000" points="305.5,-138.7 305.5,-160.7 495.5,-160.7 495.5,-138.7 305.5,-138.7"/>
<text text-anchor="start" x="308.5" y="-146.4" font-family="Helvetica,sans-Serif" font-size="11.00" fill="#000000">timestamptz[35,6]</text>
<polygon fill="none" stroke="#000000" points="182.5,-116.7 182.5,-138.7 305.5,-138.7 305.5,-116.7 182.5,-116.7"/>
<text text-anchor="start" x="202.5" y="-123.8" font-family="Helvetica,sans-Serif" font-size="11.00" fill="#000000">usu_modificacion</text>
<polygon fill="none" stroke="#000000" points="305.5,-116.7 305.5,-138.7 495.5,-138.7 495.5,-116.7 305.5,-116.7"/>
<text text-anchor="start" x="308.5" y="-124.4" font-family="Helvetica,sans-Serif" font-size="11.00" fill="#000000">varchar[20]</text>
<polygon fill="#ffffff" stroke="transparent" points="182.5,-97.7 182.5,-116.7 235.5,-116.7 235.5,-97.7 182.5,-97.7"/>
<polygon fill="none" stroke="#000000" points="182.5,-97.7 182.5,-116.7 235.5,-116.7 235.5,-97.7 182.5,-97.7"/>
<text text-anchor="start" x="185.5" y="-103.8" font-family="Helvetica,sans-Serif" font-size="11.00" fill="#000000">&lt; 2</text>
<polygon fill="#ffffff" stroke="transparent" points="235.5,-97.7 235.5,-116.7 305.5,-116.7 305.5,-97.7 235.5,-97.7"/>
<polygon fill="none" stroke="#000000" points="235.5,-97.7 235.5,-116.7 305.5,-116.7 305.5,-97.7 235.5,-97.7"/>
<text text-anchor="start" x="270.1105" y="-103.8" font-family="Helvetica,sans-Serif" font-size="11.00" fill="#000000">0 rows</text>
<polygon fill="#ffffff" stroke="transparent" points="305.5,-97.7 305.5,-116.7 495.5,-116.7 495.5,-97.7 305.5,-97.7"/>
<polygon fill="none" stroke="#000000" points="305.5,-97.7 305.5,-116.7 495.5,-116.7 495.5,-97.7 305.5,-97.7"/>
<text text-anchor="start" x="476.9053" y="-103.8" font-family="Helvetica,sans-Serif" font-size="11.00" fill="#000000">0 &gt;</text>
<polygon fill="none" stroke="#000000" stroke-width="2" points="181,-96.7 181,-404.7 496,-404.7 496,-96.7 181,-96.7"/>
</a>
</g>
</g>
<!-- contactos -->
<g id="node2" class="node">
<title>contactos</title>
<g id="a_node2"><a xlink:href="../../tables/contactos.html" xlink:title="contactos" target="_top">
<polygon fill="#ffffff" stroke="transparent" points="8,-230.2 8,-357.2 131,-357.2 131,-230.2 8,-230.2"/>
<polygon fill="#f5f5f5" stroke="transparent" points="8.5,-333.7 8.5,-356.7 131.5,-356.7 131.5,-333.7 8.5,-333.7"/>
<polygon fill="none" stroke="#000000" points="8.5,-333.7 8.5,-356.7 131.5,-356.7 131.5,-333.7 8.5,-333.7"/>
<text text-anchor="start" x="13.5" y="-342.8" font-family="Helvetica,sans-Serif" font-weight="bold" font-size="11.00" fill="#000000">contactos</text>
<text text-anchor="start" x="96.5437" y="-341.8" font-family="Helvetica,sans-Serif" font-size="11.00" fill="#000000">[table]</text>
<polygon fill="none" stroke="#000000" points="8.5,-311.7 8.5,-333.7 131.5,-333.7 131.5,-311.7 8.5,-311.7"/>
<image xlink:href="../../images/primaryKeys.png" width="11px" height="12px" preserveAspectRatio="xMinYMin meet" x="13.5" y="-328.7"/>
<text text-anchor="start" x="28.5" y="-318.8" font-family="Helvetica,sans-Serif" font-size="11.00" fill="#000000">contacto_id</text>
<polygon fill="none" stroke="#000000" points="8.5,-289.7 8.5,-311.7 131.5,-311.7 131.5,-289.7 8.5,-289.7"/>
<image xlink:href="../../images/foreignKeys.png" width="11px" height="12px" preserveAspectRatio="xMinYMin meet" x="13.5" y="-306.7"/>
<text text-anchor="start" x="28.5" y="-296.8" font-family="Helvetica,sans-Serif" font-size="11.00" fill="#000000">persona_id</text>
<polygon fill="none" stroke="#000000" points="8.5,-267.7 8.5,-289.7 131.5,-289.7 131.5,-267.7 8.5,-267.7"/>
<image xlink:href="../../images/foreignKeys.png" width="11px" height="12px" preserveAspectRatio="xMinYMin meet" x="13.5" y="-284.7"/>
<text text-anchor="start" x="28.5" y="-274.8" font-family="Helvetica,sans-Serif" font-size="11.00" fill="#000000">organizacion_id</text>
<polygon fill="none" stroke="#000000" points="8.5,-248.7 8.5,-267.7 131.5,-267.7 131.5,-248.7 8.5,-248.7"/>
<text text-anchor="start" x="11.5" y="-254.8" font-family="Helvetica,sans-Serif" font-size="11.00" fill="#000000">...</text>
<polygon fill="#ffffff" stroke="transparent" points="8.5,-229.7 8.5,-248.7 50.5,-248.7 50.5,-229.7 8.5,-229.7"/>
<polygon fill="none" stroke="#000000" points="8.5,-229.7 8.5,-248.7 50.5,-248.7 50.5,-229.7 8.5,-229.7"/>
<text text-anchor="start" x="11.5" y="-235.8" font-family="Helvetica,sans-Serif" font-size="11.00" fill="#000000">&lt; 2</text>
<polygon fill="#ffffff" stroke="transparent" points="50.5,-229.7 50.5,-248.7 99.5,-248.7 99.5,-229.7 50.5,-229.7"/>
<polygon fill="none" stroke="#000000" points="50.5,-229.7 50.5,-248.7 99.5,-248.7 99.5,-229.7 50.5,-229.7"/>
<text text-anchor="start" x="64.1105" y="-235.8" font-family="Helvetica,sans-Serif" font-size="11.00" fill="#000000">0 rows</text>
<polygon fill="#ffffff" stroke="transparent" points="99.5,-229.7 99.5,-248.7 131.5,-248.7 131.5,-229.7 99.5,-229.7"/>
<polygon fill="none" stroke="#000000" points="99.5,-229.7 99.5,-248.7 131.5,-248.7 131.5,-229.7 99.5,-229.7"/>
<text text-anchor="start" x="112.9053" y="-235.8" font-family="Helvetica,sans-Serif" font-size="11.00" fill="#000000">5 &gt;</text>
</a>
</g>
</g>
<!-- llamadas&#45;&gt;contactos -->
<g id="edge1" class="edge">
<title>llamadas:w&#45;&gt;contactos:e</title>
<path fill="none" stroke="#000000" d="M168.4033,-264.6435C152.025,-279.4952 161.3329,-322.7 131.5,-322.7"/>
<polygon fill="#000000" stroke="#000000" points="174.9507,-262.3474 183.6913,-263.0972 178.7254,-261.0237 182.5,-259.7 182.5,-259.7 182.5,-259.7 178.7254,-261.0237 181.3087,-256.3028 174.9507,-262.3474 174.9507,-262.3474"/>
<ellipse fill="none" stroke="#000000" cx="171.931" cy="-263.4064" rx="3.2" ry="3.2"/>
</g>
<!-- leads -->
<g id="node3" class="node">
<title>leads</title>
<g id="a_node3"><a xlink:href="../../tables/leads.html" xlink:title="leads" target="_top">
<polygon fill="#ffffff" stroke="transparent" points="8,-38.2 8,-209.2 131,-209.2 131,-38.2 8,-38.2"/>
<polygon fill="#f5f5f5" stroke="transparent" points="8.5,-185.7 8.5,-208.7 131.5,-208.7 131.5,-185.7 8.5,-185.7"/>
<polygon fill="none" stroke="#000000" points="8.5,-185.7 8.5,-208.7 131.5,-208.7 131.5,-185.7 8.5,-185.7"/>
<text text-anchor="start" x="13.5" y="-194.8" font-family="Helvetica,sans-Serif" font-weight="bold" font-size="11.00" fill="#000000">leads</text>
<text text-anchor="start" x="96.5437" y="-193.8" font-family="Helvetica,sans-Serif" font-size="11.00" fill="#000000">[table]</text>
<polygon fill="none" stroke="#000000" points="8.5,-163.7 8.5,-185.7 131.5,-185.7 131.5,-163.7 8.5,-163.7"/>
<image xlink:href="../../images/primaryKeys.png" width="11px" height="12px" preserveAspectRatio="xMinYMin meet" x="13.5" y="-180.7"/>
<text text-anchor="start" x="28.5" y="-170.8" font-family="Helvetica,sans-Serif" font-size="11.00" fill="#000000">lead_id</text>
<polygon fill="none" stroke="#000000" points="8.5,-141.7 8.5,-163.7 131.5,-163.7 131.5,-141.7 8.5,-141.7"/>
<image xlink:href="../../images/foreignKeys.png" width="11px" height="12px" preserveAspectRatio="xMinYMin meet" x="13.5" y="-158.7"/>
<text text-anchor="start" x="28.5" y="-148.8" font-family="Helvetica,sans-Serif" font-size="11.00" fill="#000000">usu_asignado_id</text>
<polygon fill="none" stroke="#000000" points="8.5,-119.7 8.5,-141.7 131.5,-141.7 131.5,-119.7 8.5,-119.7"/>
<image xlink:href="../../images/foreignKeys.png" width="11px" height="12px" preserveAspectRatio="xMinYMin meet" x="13.5" y="-136.7"/>
<text text-anchor="start" x="28.5" y="-126.8" font-family="Helvetica,sans-Serif" font-size="11.00" fill="#000000">campana_id</text>
<polygon fill="none" stroke="#000000" points="8.5,-97.7 8.5,-119.7 131.5,-119.7 131.5,-97.7 8.5,-97.7"/>
<image xlink:href="../../images/foreignKeys.png" width="11px" height="12px" preserveAspectRatio="xMinYMin meet" x="13.5" y="-114.7"/>
<text text-anchor="start" x="28.5" y="-104.8" font-family="Helvetica,sans-Serif" font-size="11.00" fill="#000000">persona_id</text>
<polygon fill="none" stroke="#000000" points="8.5,-75.7 8.5,-97.7 131.5,-97.7 131.5,-75.7 8.5,-75.7"/>
<image xlink:href="../../images/foreignKeys.png" width="11px" height="12px" preserveAspectRatio="xMinYMin meet" x="13.5" y="-92.7"/>
<text text-anchor="start" x="28.5" y="-82.8" font-family="Helvetica,sans-Serif" font-size="11.00" fill="#000000">curso_id</text>
<polygon fill="none" stroke="#000000" points="8.5,-56.7 8.5,-75.7 131.5,-75.7 131.5,-56.7 8.5,-56.7"/>
<text text-anchor="start" x="11.5" y="-62.8" font-family="Helvetica,sans-Serif" font-size="11.00" fill="#000000">...</text>
<polygon fill="#ffffff" stroke="transparent" points="8.5,-37.7 8.5,-56.7 50.5,-56.7 50.5,-37.7 8.5,-37.7"/>
<polygon fill="none" stroke="#000000" points="8.5,-37.7 8.5,-56.7 50.5,-56.7 50.5,-37.7 8.5,-37.7"/>
<text text-anchor="start" x="11.5" y="-43.8" font-family="Helvetica,sans-Serif" font-size="11.00" fill="#000000">&lt; 4</text>
<polygon fill="#ffffff" stroke="transparent" points="50.5,-37.7 50.5,-56.7 99.5,-56.7 99.5,-37.7 50.5,-37.7"/>
<polygon fill="none" stroke="#000000" points="50.5,-37.7 50.5,-56.7 99.5,-56.7 99.5,-37.7 50.5,-37.7"/>
<text text-anchor="start" x="64.1105" y="-43.8" font-family="Helvetica,sans-Serif" font-size="11.00" fill="#000000">0 rows</text>
<polygon fill="#ffffff" stroke="transparent" points="99.5,-37.7 99.5,-56.7 131.5,-56.7 131.5,-37.7 99.5,-37.7"/>
<polygon fill="none" stroke="#000000" points="99.5,-37.7 99.5,-56.7 131.5,-56.7 131.5,-37.7 99.5,-37.7"/>
<text text-anchor="start" x="112.9053" y="-43.8" font-family="Helvetica,sans-Serif" font-size="11.00" fill="#000000">3 &gt;</text>
</a>
</g>
</g>
<!-- llamadas&#45;&gt;leads -->
<g id="edge2" class="edge">
<title>llamadas:w&#45;&gt;leads:e</title>
<path fill="none" stroke="#000000" d="M168.4033,-232.7565C152.025,-217.9048 161.3329,-174.7 131.5,-174.7"/>
<polygon fill="#000000" stroke="#000000" points="174.9507,-235.0526 181.3087,-241.0972 178.7254,-236.3763 182.5,-237.7 182.5,-237.7 182.5,-237.7 178.7254,-236.3763 183.6913,-234.3028 174.9507,-235.0526 174.9507,-235.0526"/>
<ellipse fill="none" stroke="#000000" cx="171.931" cy="-233.9936" rx="3.2" ry="3.2"/>
</g>
</g>
</svg>
