<?xml version="1.0" encoding="UTF-8" standalone="no"?>
<!DOCTYPE svg PUBLIC "-//W3C//DTD SVG 1.1//EN"
 "http://www.w3.org/Graphics/SVG/1.1/DTD/svg11.dtd">
<!-- Generated by graphviz version 2.40.1 (20161225.0304)
 -->
<!-- Title: oneDegreeRelationshipsDiagram Pages: 1 -->
<svg width="685pt" height="397pt"
 viewBox="0.00 0.00 685.00 396.70" xmlns="http://www.w3.org/2000/svg" xmlns:xlink="http://www.w3.org/1999/xlink">
<g id="graph0" class="graph" transform="scale(1 1) rotate(0) translate(4 392.7)">
<title>oneDegreeRelationshipsDiagram</title>
<polygon fill="#ffffff" stroke="transparent" points="-4,4 -4,-392.7 681,-392.7 681,4 -4,4"/>
<text text-anchor="middle" x="72.4936" y="-7.3" font-family="Helvetica,sans-Serif" font-size="11.00" fill="#000000">Generated by SchemaSpy</text>
<!-- leads -->
<g id="node1" class="node">
<title>leads</title>
<g id="a_node1"><a xlink:href="../../tables/leads.html" xlink:title="leads" target="_top">
<polygon fill="#ffffff" stroke="transparent" points="180,-65.7 180,-236.7 303,-236.7 303,-65.7 180,-65.7"/>
<polygon fill="#f5f5f5" stroke="transparent" points="180.5,-213.2 180.5,-236.2 303.5,-236.2 303.5,-213.2 180.5,-213.2"/>
<polygon fill="none" stroke="#000000" points="180.5,-213.2 180.5,-236.2 303.5,-236.2 303.5,-213.2 180.5,-213.2"/>
<text text-anchor="start" x="185.5" y="-222.3" font-family="Helvetica,sans-Serif" font-weight="bold" font-size="11.00" fill="#000000">leads</text>
<text text-anchor="start" x="268.5437" y="-221.3" font-family="Helvetica,sans-Serif" font-size="11.00" fill="#000000">[table]</text>
<polygon fill="none" stroke="#000000" points="180.5,-191.2 180.5,-213.2 303.5,-213.2 303.5,-191.2 180.5,-191.2"/>
<image xlink:href="../../images/primaryKeys.png" width="11px" height="12px" preserveAspectRatio="xMinYMin meet" x="185.5" y="-208.2"/>
<text text-anchor="start" x="200.5" y="-198.3" font-family="Helvetica,sans-Serif" font-size="11.00" fill="#000000">lead_id</text>
<polygon fill="none" stroke="#000000" points="180.5,-169.2 180.5,-191.2 303.5,-191.2 303.5,-169.2 180.5,-169.2"/>
<image xlink:href="../../images/foreignKeys.png" width="11px" height="12px" preserveAspectRatio="xMinYMin meet" x="185.5" y="-186.2"/>
<text text-anchor="start" x="200.5" y="-176.3" font-family="Helvetica,sans-Serif" font-size="11.00" fill="#000000">usu_asignado_id</text>
<polygon fill="none" stroke="#000000" points="180.5,-147.2 180.5,-169.2 303.5,-169.2 303.5,-147.2 180.5,-147.2"/>
<image xlink:href="../../images/foreignKeys.png" width="11px" height="12px" preserveAspectRatio="xMinYMin meet" x="185.5" y="-164.2"/>
<text text-anchor="start" x="200.5" y="-154.3" font-family="Helvetica,sans-Serif" font-size="11.00" fill="#000000">campana_id</text>
<polygon fill="none" stroke="#000000" points="180.5,-125.2 180.5,-147.2 303.5,-147.2 303.5,-125.2 180.5,-125.2"/>
<image xlink:href="../../images/foreignKeys.png" width="11px" height="12px" preserveAspectRatio="xMinYMin meet" x="185.5" y="-142.2"/>
<text text-anchor="start" x="200.5" y="-132.3" font-family="Helvetica,sans-Serif" font-size="11.00" fill="#000000">persona_id</text>
<polygon fill="none" stroke="#000000" points="180.5,-103.2 180.5,-125.2 303.5,-125.2 303.5,-103.2 180.5,-103.2"/>
<image xlink:href="../../images/foreignKeys.png" width="11px" height="12px" preserveAspectRatio="xMinYMin meet" x="185.5" y="-120.2"/>
<text text-anchor="start" x="200.5" y="-110.3" font-family="Helvetica,sans-Serif" font-size="11.00" fill="#000000">curso_id</text>
<polygon fill="none" stroke="#000000" points="180.5,-84.2 180.5,-103.2 303.5,-103.2 303.5,-84.2 180.5,-84.2"/>
<text text-anchor="start" x="183.5" y="-90.3" font-family="Helvetica,sans-Serif" font-size="11.00" fill="#000000">...</text>
<polygon fill="#ffffff" stroke="transparent" points="180.5,-65.2 180.5,-84.2 222.5,-84.2 222.5,-65.2 180.5,-65.2"/>
<polygon fill="none" stroke="#000000" points="180.5,-65.2 180.5,-84.2 222.5,-84.2 222.5,-65.2 180.5,-65.2"/>
<text text-anchor="start" x="183.5" y="-71.3" font-family="Helvetica,sans-Serif" font-size="11.00" fill="#000000">&lt; 4</text>
<polygon fill="#ffffff" stroke="transparent" points="222.5,-65.2 222.5,-84.2 271.5,-84.2 271.5,-65.2 222.5,-65.2"/>
<polygon fill="none" stroke="#000000" points="222.5,-65.2 222.5,-84.2 271.5,-84.2 271.5,-65.2 222.5,-65.2"/>
<text text-anchor="start" x="236.1105" y="-71.3" font-family="Helvetica,sans-Serif" font-size="11.00" fill="#000000">6 rows</text>
<polygon fill="#ffffff" stroke="transparent" points="271.5,-65.2 271.5,-84.2 303.5,-84.2 303.5,-65.2 271.5,-65.2"/>
<polygon fill="none" stroke="#000000" points="271.5,-65.2 271.5,-84.2 303.5,-84.2 303.5,-65.2 271.5,-65.2"/>
<text text-anchor="start" x="284.9053" y="-71.3" font-family="Helvetica,sans-Serif" font-size="11.00" fill="#000000">3 &gt;</text>
</a>
</g>
</g>
<!-- usuarios -->
<g id="node2" class="node">
<title>usuarios</title>
<g id="a_node2"><a xlink:href="../../tables/usuarios.html" xlink:title="usuarios" target="_top">
<polygon fill="#ffffff" stroke="transparent" points="8,-39.7 8,-144.7 131,-144.7 131,-39.7 8,-39.7"/>
<polygon fill="#f5f5f5" stroke="transparent" points="8.5,-121.2 8.5,-144.2 131.5,-144.2 131.5,-121.2 8.5,-121.2"/>
<polygon fill="none" stroke="#000000" points="8.5,-121.2 8.5,-144.2 131.5,-144.2 131.5,-121.2 8.5,-121.2"/>
<text text-anchor="start" x="13.5" y="-130.3" font-family="Helvetica,sans-Serif" font-weight="bold" font-size="11.00" fill="#000000">usuarios</text>
<text text-anchor="start" x="96.5437" y="-129.3" font-family="Helvetica,sans-Serif" font-size="11.00" fill="#000000">[table]</text>
<polygon fill="none" stroke="#000000" points="8.5,-99.2 8.5,-121.2 131.5,-121.2 131.5,-99.2 8.5,-99.2"/>
<image xlink:href="../../images/primaryKeys.png" width="11px" height="12px" preserveAspectRatio="xMinYMin meet" x="13.5" y="-116.2"/>
<text text-anchor="start" x="28.5" y="-106.3" font-family="Helvetica,sans-Serif" font-size="11.00" fill="#000000">usuario_id</text>
<polygon fill="#ffffff" stroke="transparent" points="8.5,-77.2 8.5,-99.2 131.5,-99.2 131.5,-77.2 8.5,-77.2"/>
<polygon fill="none" stroke="#000000" points="8.5,-77.2 8.5,-99.2 131.5,-99.2 131.5,-77.2 8.5,-77.2"/>
<text text-anchor="start" x="28.5" y="-84.3" font-family="Helvetica,sans-Serif" font-size="11.00" fill="#000000">nom_usuario</text>
<polygon fill="none" stroke="#000000" points="8.5,-58.2 8.5,-77.2 131.5,-77.2 131.5,-58.2 8.5,-58.2"/>
<text text-anchor="start" x="11.5" y="-64.3" font-family="Helvetica,sans-Serif" font-size="11.00" fill="#000000">...</text>
<polygon fill="#ffffff" stroke="transparent" points="8.5,-39.2 8.5,-58.2 46.5,-58.2 46.5,-39.2 8.5,-39.2"/>
<polygon fill="none" stroke="#000000" points="8.5,-39.2 8.5,-58.2 46.5,-58.2 46.5,-39.2 8.5,-39.2"/>
<text text-anchor="start" x="11.5" y="-45.3" font-family="Helvetica,sans-Serif" font-size="11.00" fill="#000000"> &#160;</text>
<polygon fill="#ffffff" stroke="transparent" points="46.5,-39.2 46.5,-58.2 97.5,-58.2 97.5,-39.2 46.5,-39.2"/>
<polygon fill="none" stroke="#000000" points="46.5,-39.2 46.5,-58.2 97.5,-58.2 97.5,-39.2 46.5,-39.2"/>
<text text-anchor="start" x="62.1105" y="-45.3" font-family="Helvetica,sans-Serif" font-size="11.00" fill="#000000">2 rows</text>
<polygon fill="#ffffff" stroke="transparent" points="97.5,-39.2 97.5,-58.2 131.5,-58.2 131.5,-39.2 97.5,-39.2"/>
<polygon fill="none" stroke="#000000" points="97.5,-39.2 97.5,-58.2 131.5,-58.2 131.5,-39.2 97.5,-39.2"/>
<text text-anchor="start" x="112.9053" y="-45.3" font-family="Helvetica,sans-Serif" font-size="11.00" fill="#000000">6 &gt;</text>
</a>
</g>
</g>
<!-- leads&#45;&gt;usuarios -->
<g id="edge1" class="edge">
<title>leads:w&#45;&gt;usuarios:e</title>
<path fill="none" stroke="#000000" d="M166.4782,-175.1658C149.62,-159.1154 163.2455,-110.2 131.5,-110.2"/>
<polygon fill="#000000" stroke="#000000" points="172.9706,-177.4967 179.2835,-183.5882 176.7353,-178.8483 180.5,-180.2 180.5,-180.2 180.5,-180.2 176.7353,-178.8483 181.7165,-176.8118 172.9706,-177.4967 172.9706,-177.4967"/>
<ellipse fill="none" stroke="#000000" cx="169.9588" cy="-176.4154" rx="3.2" ry="3.2"/>
</g>
<!-- llamadas -->
<g id="node3" class="node">
<title>llamadas</title>
<g id="a_node3"><a xlink:href="../../tables/llamadas.html" xlink:title="llamadas" target="_top">
<polygon fill="#ffffff" stroke="transparent" points="352,-38.2 352,-370.2 669,-370.2 669,-38.2 352,-38.2"/>
<polygon fill="#f5f5f5" stroke="transparent" points="354.5,-345.2 354.5,-368.2 667.5,-368.2 667.5,-345.2 354.5,-345.2"/>
<polygon fill="none" stroke="#000000" points="354.5,-345.2 354.5,-368.2 667.5,-368.2 667.5,-345.2 354.5,-345.2"/>
<text text-anchor="start" x="359.5" y="-354.3" font-family="Helvetica,sans-Serif" font-weight="bold" font-size="11.00" fill="#000000">llamadas</text>
<text text-anchor="start" x="632.5437" y="-353.3" font-family="Helvetica,sans-Serif" font-size="11.00" fill="#000000">[table]</text>
<polygon fill="none" stroke="#000000" points="354.5,-323.2 354.5,-345.2 477.5,-345.2 477.5,-323.2 354.5,-323.2"/>
<image xlink:href="../../images/primaryKeys.png" width="11px" height="12px" preserveAspectRatio="xMinYMin meet" x="359.5" y="-340.2"/>
<text text-anchor="start" x="374.5" y="-330.3" font-family="Helvetica,sans-Serif" font-size="11.00" fill="#000000">llamada_id</text>
<polygon fill="none" stroke="#000000" points="477.5,-323.2 477.5,-345.2 667.5,-345.2 667.5,-323.2 477.5,-323.2"/>
<text text-anchor="start" x="480.5" y="-330.9" font-family="Helvetica,sans-Serif" font-size="11.00" fill="#000000">serial[10]</text>
<polygon fill="none" stroke="#000000" points="354.5,-301.2 354.5,-323.2 477.5,-323.2 477.5,-301.2 354.5,-301.2"/>
<text text-anchor="start" x="374.5" y="-308.3" font-family="Helvetica,sans-Serif" font-size="11.00" fill="#000000">asunto</text>
<polygon fill="none" stroke="#000000" points="477.5,-301.2 477.5,-323.2 667.5,-323.2 667.5,-301.2 477.5,-301.2"/>
<text text-anchor="start" x="480.5" y="-308.9" font-family="Helvetica,sans-Serif" font-size="11.00" fill="#000000">varchar[255]</text>
<polygon fill="none" stroke="#000000" points="354.5,-279.2 354.5,-301.2 477.5,-301.2 477.5,-279.2 354.5,-279.2"/>
<text text-anchor="start" x="374.5" y="-286.3" font-family="Helvetica,sans-Serif" font-size="11.00" fill="#000000">estado</text>
<polygon fill="none" stroke="#000000" points="477.5,-279.2 477.5,-301.2 667.5,-301.2 667.5,-279.2 477.5,-279.2"/>
<text text-anchor="start" x="480.4905" y="-286.9" font-family="Helvetica,sans-Serif" font-size="11.00" fill="#000000">enum_llamadas_estado[2147483647]</text>
<polygon fill="none" stroke="#000000" points="354.5,-257.2 354.5,-279.2 477.5,-279.2 477.5,-257.2 354.5,-257.2"/>
<text text-anchor="start" x="374.5" y="-264.3" font-family="Helvetica,sans-Serif" font-size="11.00" fill="#000000">tipo</text>
<polygon fill="none" stroke="#000000" points="477.5,-257.2 477.5,-279.2 667.5,-279.2 667.5,-257.2 477.5,-257.2"/>
<text text-anchor="start" x="480.5" y="-264.9" font-family="Helvetica,sans-Serif" font-size="11.00" fill="#000000">enum_llamadas_tipo[2147483647]</text>
<polygon fill="none" stroke="#000000" points="354.5,-235.2 354.5,-257.2 477.5,-257.2 477.5,-235.2 354.5,-235.2"/>
<text text-anchor="start" x="374.5" y="-242.3" font-family="Helvetica,sans-Serif" font-size="11.00" fill="#000000">fec_inicio</text>
<polygon fill="none" stroke="#000000" points="477.5,-235.2 477.5,-257.2 667.5,-257.2 667.5,-235.2 477.5,-235.2"/>
<text text-anchor="start" x="480.5" y="-242.9" font-family="Helvetica,sans-Serif" font-size="11.00" fill="#000000">timestamptz[35,6]</text>
<polygon fill="none" stroke="#000000" points="354.5,-213.2 354.5,-235.2 477.5,-235.2 477.5,-213.2 354.5,-213.2"/>
<image xlink:href="../../images/foreignKeys.png" width="11px" height="12px" preserveAspectRatio="xMinYMin meet" x="359.5" y="-230.2"/>
<text text-anchor="start" x="374.5" y="-220.3" font-family="Helvetica,sans-Serif" font-size="11.00" fill="#000000">contacto_id</text>
<polygon fill="none" stroke="#000000" points="477.5,-213.2 477.5,-235.2 667.5,-235.2 667.5,-213.2 477.5,-213.2"/>
<text text-anchor="start" x="480.5" y="-220.9" font-family="Helvetica,sans-Serif" font-size="11.00" fill="#000000">int4[10]</text>
<polygon fill="none" stroke="#000000" points="354.5,-191.2 354.5,-213.2 477.5,-213.2 477.5,-191.2 354.5,-191.2"/>
<image xlink:href="../../images/foreignKeys.png" width="11px" height="12px" preserveAspectRatio="xMinYMin meet" x="359.5" y="-208.2"/>
<text text-anchor="start" x="374.5" y="-198.3" font-family="Helvetica,sans-Serif" font-size="11.00" fill="#000000">lead_id</text>
<polygon fill="none" stroke="#000000" points="477.5,-191.2 477.5,-213.2 667.5,-213.2 667.5,-191.2 477.5,-191.2"/>
<text text-anchor="start" x="480.5" y="-198.9" font-family="Helvetica,sans-Serif" font-size="11.00" fill="#000000">int4[10]</text>
<polygon fill="none" stroke="#000000" points="354.5,-169.2 354.5,-191.2 477.5,-191.2 477.5,-169.2 354.5,-169.2"/>
<text text-anchor="start" x="374.5" y="-176.3" font-family="Helvetica,sans-Serif" font-size="11.00" fill="#000000">descripcion</text>
<polygon fill="none" stroke="#000000" points="477.5,-169.2 477.5,-191.2 667.5,-191.2 667.5,-169.2 477.5,-169.2"/>
<text text-anchor="start" x="480.5" y="-176.9" font-family="Helvetica,sans-Serif" font-size="11.00" fill="#000000">text[2147483647]</text>
<polygon fill="none" stroke="#000000" points="354.5,-147.2 354.5,-169.2 477.5,-169.2 477.5,-147.2 354.5,-147.2"/>
<text text-anchor="start" x="374.5" y="-154.3" font-family="Helvetica,sans-Serif" font-size="11.00" fill="#000000">usu_insercion</text>
<polygon fill="none" stroke="#000000" points="477.5,-147.2 477.5,-169.2 667.5,-169.2 667.5,-147.2 477.5,-147.2"/>
<text text-anchor="start" x="480.5" y="-154.9" font-family="Helvetica,sans-Serif" font-size="11.00" fill="#000000">varchar[20]</text>
<polygon fill="none" stroke="#000000" points="354.5,-125.2 354.5,-147.2 477.5,-147.2 477.5,-125.2 354.5,-125.2"/>
<text text-anchor="start" x="374.5" y="-132.3" font-family="Helvetica,sans-Serif" font-size="11.00" fill="#000000">fec_insercion</text>
<polygon fill="none" stroke="#000000" points="477.5,-125.2 477.5,-147.2 667.5,-147.2 667.5,-125.2 477.5,-125.2"/>
<text text-anchor="start" x="480.5" y="-132.9" font-family="Helvetica,sans-Serif" font-size="11.00" fill="#000000">timestamptz[35,6]</text>
<polygon fill="none" stroke="#000000" points="354.5,-103.2 354.5,-125.2 477.5,-125.2 477.5,-103.2 354.5,-103.2"/>
<text text-anchor="start" x="374.5" y="-110.3" font-family="Helvetica,sans-Serif" font-size="11.00" fill="#000000">fec_modificacion</text>
<polygon fill="none" stroke="#000000" points="477.5,-103.2 477.5,-125.2 667.5,-125.2 667.5,-103.2 477.5,-103.2"/>
<text text-anchor="start" x="480.5" y="-110.9" font-family="Helvetica,sans-Serif" font-size="11.00" fill="#000000">timestamptz[35,6]</text>
<polygon fill="none" stroke="#000000" points="354.5,-81.2 354.5,-103.2 477.5,-103.2 477.5,-81.2 354.5,-81.2"/>
<text text-anchor="start" x="374.5" y="-88.3" font-family="Helvetica,sans-Serif" font-size="11.00" fill="#000000">usu_modificacion</text>
<polygon fill="none" stroke="#000000" points="477.5,-81.2 477.5,-103.2 667.5,-103.2 667.5,-81.2 477.5,-81.2"/>
<text text-anchor="start" x="480.5" y="-88.9" font-family="Helvetica,sans-Serif" font-size="11.00" fill="#000000">varchar[20]</text>
<polygon fill="none" stroke="#000000" points="354.5,-59.2 354.5,-81.2 477.5,-81.2 477.5,-59.2 354.5,-59.2"/>
<image xlink:href="../../images/foreignKeys.png" width="11px" height="12px" preserveAspectRatio="xMinYMin meet" x="359.5" y="-76.2"/>
<text text-anchor="start" x="374.5" y="-66.3" font-family="Helvetica,sans-Serif" font-size="11.00" fill="#000000">usu_asignado_id</text>
<polygon fill="none" stroke="#000000" points="477.5,-59.2 477.5,-81.2 667.5,-81.2 667.5,-59.2 477.5,-59.2"/>
<text text-anchor="start" x="480.5" y="-66.9" font-family="Helvetica,sans-Serif" font-size="11.00" fill="#000000">int4[10]</text>
<polygon fill="#ffffff" stroke="transparent" points="354.5,-40.2 354.5,-59.2 410.5,-59.2 410.5,-40.2 354.5,-40.2"/>
<polygon fill="none" stroke="#000000" points="354.5,-40.2 354.5,-59.2 410.5,-59.2 410.5,-40.2 354.5,-40.2"/>
<text text-anchor="start" x="357.5" y="-46.3" font-family="Helvetica,sans-Serif" font-size="11.00" fill="#000000">&lt; 3</text>
<polygon fill="#ffffff" stroke="transparent" points="410.5,-40.2 410.5,-59.2 477.5,-59.2 477.5,-40.2 410.5,-40.2"/>
<polygon fill="none" stroke="#000000" points="410.5,-40.2 410.5,-59.2 477.5,-59.2 477.5,-40.2 410.5,-40.2"/>
<text text-anchor="start" x="447.6105" y="-46.3" font-family="Helvetica,sans-Serif" font-size="11.00" fill="#000000">1 row</text>
<polygon fill="#ffffff" stroke="transparent" points="477.5,-40.2 477.5,-59.2 667.5,-59.2 667.5,-40.2 477.5,-40.2"/>
<polygon fill="none" stroke="#000000" points="477.5,-40.2 477.5,-59.2 667.5,-59.2 667.5,-40.2 477.5,-40.2"/>
<text text-anchor="start" x="648.9053" y="-46.3" font-family="Helvetica,sans-Serif" font-size="11.00" fill="#000000">0 &gt;</text>
<polygon fill="none" stroke="#000000" stroke-width="2" points="353,-39.2 353,-369.2 668,-369.2 668,-39.2 353,-39.2"/>
</a>
</g>
</g>
<!-- llamadas&#45;&gt;leads -->
<g id="edge3" class="edge">
<title>llamadas:w&#45;&gt;leads:e</title>
<path fill="none" stroke="#000000" d="M339.776,-202.2C327.7815,-202.2 320.3229,-202.2 303.5,-202.2"/>
<polygon fill="#000000" stroke="#000000" points="346.5,-202.2001 354.5,-205.8 350.5,-202.2 354.5,-202.2 354.5,-202.2 354.5,-202.2 350.5,-202.2 354.5,-198.6 346.5,-202.2001 346.5,-202.2001"/>
<ellipse fill="none" stroke="#000000" cx="343.3" cy="-202.2001" rx="3.2" ry="3.2"/>
</g>
<!-- llamadas&#45;&gt;usuarios -->
<g id="edge4" class="edge">
<title>llamadas:w&#45;&gt;usuarios:e</title>
<path fill="none" stroke="#000000" d="M340.0198,-67.6472C330.8156,-64.0268 325.1815,-57.5764 311,-55.2 250.0717,-44.9901 227.1338,-27.3297 172,-55.2 144.908,-68.8951 161.8567,-110.2 131.5,-110.2"/>
<polygon fill="#000000" stroke="#000000" points="346.6215,-68.811 353.875,-73.7453 350.5607,-69.5055 354.5,-70.2 354.5,-70.2 354.5,-70.2 350.5607,-69.5055 355.125,-66.6547 346.6215,-68.811 346.6215,-68.811"/>
<ellipse fill="none" stroke="#000000" cx="343.4701" cy="-68.2554" rx="3.2" ry="3.2"/>
</g>
<!-- contactos -->
<g id="node4" class="node">
<title>contactos</title>
<g id="a_node4"><a xlink:href="../../tables/contactos.html" xlink:title="contactos" target="_top">
<polygon fill="#ffffff" stroke="transparent" points="180,-257.7 180,-384.7 303,-384.7 303,-257.7 180,-257.7"/>
<polygon fill="#f5f5f5" stroke="transparent" points="180.5,-361.2 180.5,-384.2 303.5,-384.2 303.5,-361.2 180.5,-361.2"/>
<polygon fill="none" stroke="#000000" points="180.5,-361.2 180.5,-384.2 303.5,-384.2 303.5,-361.2 180.5,-361.2"/>
<text text-anchor="start" x="185.5" y="-370.3" font-family="Helvetica,sans-Serif" font-weight="bold" font-size="11.00" fill="#000000">contactos</text>
<text text-anchor="start" x="268.5437" y="-369.3" font-family="Helvetica,sans-Serif" font-size="11.00" fill="#000000">[table]</text>
<polygon fill="none" stroke="#000000" points="180.5,-339.2 180.5,-361.2 303.5,-361.2 303.5,-339.2 180.5,-339.2"/>
<image xlink:href="../../images/primaryKeys.png" width="11px" height="12px" preserveAspectRatio="xMinYMin meet" x="185.5" y="-356.2"/>
<text text-anchor="start" x="200.5" y="-346.3" font-family="Helvetica,sans-Serif" font-size="11.00" fill="#000000">contacto_id</text>
<polygon fill="none" stroke="#000000" points="180.5,-317.2 180.5,-339.2 303.5,-339.2 303.5,-317.2 180.5,-317.2"/>
<image xlink:href="../../images/foreignKeys.png" width="11px" height="12px" preserveAspectRatio="xMinYMin meet" x="185.5" y="-334.2"/>
<text text-anchor="start" x="200.5" y="-324.3" font-family="Helvetica,sans-Serif" font-size="11.00" fill="#000000">persona_id</text>
<polygon fill="none" stroke="#000000" points="180.5,-295.2 180.5,-317.2 303.5,-317.2 303.5,-295.2 180.5,-295.2"/>
<image xlink:href="../../images/foreignKeys.png" width="11px" height="12px" preserveAspectRatio="xMinYMin meet" x="185.5" y="-312.2"/>
<text text-anchor="start" x="200.5" y="-302.3" font-family="Helvetica,sans-Serif" font-size="11.00" fill="#000000">organizacion_id</text>
<polygon fill="none" stroke="#000000" points="180.5,-276.2 180.5,-295.2 303.5,-295.2 303.5,-276.2 180.5,-276.2"/>
<text text-anchor="start" x="183.5" y="-282.3" font-family="Helvetica,sans-Serif" font-size="11.00" fill="#000000">...</text>
<polygon fill="#ffffff" stroke="transparent" points="180.5,-257.2 180.5,-276.2 222.5,-276.2 222.5,-257.2 180.5,-257.2"/>
<polygon fill="none" stroke="#000000" points="180.5,-257.2 180.5,-276.2 222.5,-276.2 222.5,-257.2 180.5,-257.2"/>
<text text-anchor="start" x="183.5" y="-263.3" font-family="Helvetica,sans-Serif" font-size="11.00" fill="#000000">&lt; 2</text>
<polygon fill="#ffffff" stroke="transparent" points="222.5,-257.2 222.5,-276.2 271.5,-276.2 271.5,-257.2 222.5,-257.2"/>
<polygon fill="none" stroke="#000000" points="222.5,-257.2 222.5,-276.2 271.5,-276.2 271.5,-257.2 222.5,-257.2"/>
<text text-anchor="start" x="236.1105" y="-263.3" font-family="Helvetica,sans-Serif" font-size="11.00" fill="#000000">2 rows</text>
<polygon fill="#ffffff" stroke="transparent" points="271.5,-257.2 271.5,-276.2 303.5,-276.2 303.5,-257.2 271.5,-257.2"/>
<polygon fill="none" stroke="#000000" points="271.5,-257.2 271.5,-276.2 303.5,-276.2 303.5,-257.2 271.5,-257.2"/>
<text text-anchor="start" x="284.9053" y="-263.3" font-family="Helvetica,sans-Serif" font-size="11.00" fill="#000000">5 &gt;</text>
</a>
</g>
</g>
<!-- llamadas&#45;&gt;contactos -->
<g id="edge2" class="edge">
<title>llamadas:w&#45;&gt;contactos:e</title>
<path fill="none" stroke="#000000" d="M340.2844,-227.5702C306.4826,-247.6077 358.0136,-350.2 303.5,-350.2"/>
<polygon fill="#000000" stroke="#000000" points="346.7158,-226.0455 355.3305,-227.7029 350.6079,-225.1228 354.5,-224.2 354.5,-224.2 354.5,-224.2 350.6079,-225.1228 353.6695,-220.6971 346.7158,-226.0455 346.7158,-226.0455"/>
<ellipse fill="none" stroke="#000000" cx="343.6021" cy="-226.7837" rx="3.2" ry="3.2"/>
</g>
</g>
</svg>
