<?xml version="1.0" encoding="UTF-8" standalone="no"?>
<!DOCTYPE svg PUBLIC "-//W3C//DTD SVG 1.1//EN"
 "http://www.w3.org/Graphics/SVG/1.1/DTD/svg11.dtd">
<!-- Generated by graphviz version 2.40.1 (20161225.0304)
 -->
<!-- Title: twoDegreesRelationshipsDiagram Pages: 1 -->
<svg width="1018pt" height="838pt"
 viewBox="0.00 0.00 1018.00 838.46" xmlns="http://www.w3.org/2000/svg" xmlns:xlink="http://www.w3.org/1999/xlink">
<g id="graph0" class="graph" transform="scale(1 1) rotate(0) translate(4 834.4567)">
<title>twoDegreesRelationshipsDiagram</title>
<polygon fill="#ffffff" stroke="transparent" points="-4,4 -4,-834.4567 1014,-834.4567 1014,4 -4,4"/>
<text text-anchor="middle" x="72.4936" y="-7.3" font-family="Helvetica,sans-Serif" font-size="11.00" fill="#000000">Generated by SchemaSpy</text>
<!-- casos -->
<g id="node1" class="node">
<title>casos</title>
<g id="a_node1"><a xlink:href="../../tables/casos.html" xlink:title="casos" target="_top">
<polygon fill="#ffffff" stroke="transparent" points="612,-334.8539 612,-395.8539 683,-395.8539 683,-334.8539 612,-334.8539"/>
<polygon fill="#f5f5f5" stroke="transparent" points="612.5,-372.3539 612.5,-395.3539 683.5,-395.3539 683.5,-372.3539 612.5,-372.3539"/>
<polygon fill="none" stroke="#000000" points="612.5,-372.3539 612.5,-395.3539 683.5,-395.3539 683.5,-372.3539 612.5,-372.3539"/>
<text text-anchor="start" x="617.1351" y="-381.4539" font-family="Helvetica,sans-Serif" font-weight="bold" font-size="11.00" fill="#000000">casos</text>
<text text-anchor="start" x="649.0219" y="-380.4539" font-family="Helvetica,sans-Serif" font-size="11.00" fill="#000000">[table]</text>
<polygon fill="none" stroke="#000000" points="612.5,-353.3539 612.5,-372.3539 683.5,-372.3539 683.5,-353.3539 612.5,-353.3539"/>
<text text-anchor="start" x="615.5" y="-359.4539" font-family="Helvetica,sans-Serif" font-size="11.00" fill="#000000">...</text>
<polygon fill="#ffffff" stroke="transparent" points="612.5,-334.3539 612.5,-353.3539 633.5,-353.3539 633.5,-334.3539 612.5,-334.3539"/>
<polygon fill="none" stroke="#000000" points="612.5,-334.3539 612.5,-353.3539 633.5,-353.3539 633.5,-334.3539 612.5,-334.3539"/>
<text text-anchor="start" x="615.2026" y="-340.4539" font-family="Helvetica,sans-Serif" font-size="11.00" fill="#000000">&lt; 3</text>
<polygon fill="#ffffff" stroke="transparent" points="633.5,-334.3539 633.5,-353.3539 671.5,-353.3539 671.5,-334.3539 633.5,-334.3539"/>
<polygon fill="none" stroke="#000000" points="633.5,-334.3539 633.5,-353.3539 671.5,-353.3539 671.5,-334.3539 633.5,-334.3539"/>
<text text-anchor="start" x="636.3053" y="-340.4539" font-family="Helvetica,sans-Serif" font-size="11.00" fill="#000000">0 rows</text>
<polygon fill="#ffffff" stroke="transparent" points="671.5,-334.3539 671.5,-353.3539 683.5,-353.3539 683.5,-334.3539 671.5,-334.3539"/>
<polygon fill="none" stroke="#000000" points="671.5,-334.3539 671.5,-353.3539 683.5,-353.3539 683.5,-334.3539 671.5,-334.3539"/>
<text text-anchor="start" x="674.4431" y="-340.4539" font-family="Helvetica,sans-Serif" font-size="11.00" fill="#000000"> &#160;</text>
</a>
</g>
</g>
<!-- contactos -->
<g id="node2" class="node">
<title>contactos</title>
<g id="a_node2"><a xlink:href="../../tables/contactos.html" xlink:title="contactos" target="_top">
<polygon fill="#ffffff" stroke="transparent" points="317,-526.8539 317,-653.8539 440,-653.8539 440,-526.8539 317,-526.8539"/>
<polygon fill="#f5f5f5" stroke="transparent" points="317.5,-630.3539 317.5,-653.3539 440.5,-653.3539 440.5,-630.3539 317.5,-630.3539"/>
<polygon fill="none" stroke="#000000" points="317.5,-630.3539 317.5,-653.3539 440.5,-653.3539 440.5,-630.3539 317.5,-630.3539"/>
<text text-anchor="start" x="322.5" y="-639.4539" font-family="Helvetica,sans-Serif" font-weight="bold" font-size="11.00" fill="#000000">contactos</text>
<text text-anchor="start" x="405.5437" y="-638.4539" font-family="Helvetica,sans-Serif" font-size="11.00" fill="#000000">[table]</text>
<polygon fill="none" stroke="#000000" points="317.5,-608.3539 317.5,-630.3539 440.5,-630.3539 440.5,-608.3539 317.5,-608.3539"/>
<image xlink:href="../../images/primaryKeys.png" width="11px" height="12px" preserveAspectRatio="xMinYMin meet" x="322.5" y="-625.354"/>
<text text-anchor="start" x="337.5" y="-615.4539" font-family="Helvetica,sans-Serif" font-size="11.00" fill="#000000">contacto_id</text>
<polygon fill="none" stroke="#000000" points="317.5,-586.3539 317.5,-608.3539 440.5,-608.3539 440.5,-586.3539 317.5,-586.3539"/>
<image xlink:href="../../images/foreignKeys.png" width="11px" height="12px" preserveAspectRatio="xMinYMin meet" x="322.5" y="-603.354"/>
<text text-anchor="start" x="337.5" y="-593.4539" font-family="Helvetica,sans-Serif" font-size="11.00" fill="#000000">persona_id</text>
<polygon fill="none" stroke="#000000" points="317.5,-564.3539 317.5,-586.3539 440.5,-586.3539 440.5,-564.3539 317.5,-564.3539"/>
<image xlink:href="../../images/foreignKeys.png" width="11px" height="12px" preserveAspectRatio="xMinYMin meet" x="322.5" y="-581.354"/>
<text text-anchor="start" x="337.5" y="-571.4539" font-family="Helvetica,sans-Serif" font-size="11.00" fill="#000000">organizacion_id</text>
<polygon fill="none" stroke="#000000" points="317.5,-545.3539 317.5,-564.3539 440.5,-564.3539 440.5,-545.3539 317.5,-545.3539"/>
<text text-anchor="start" x="320.5" y="-551.4539" font-family="Helvetica,sans-Serif" font-size="11.00" fill="#000000">...</text>
<polygon fill="#ffffff" stroke="transparent" points="317.5,-526.3539 317.5,-545.3539 359.5,-545.3539 359.5,-526.3539 317.5,-526.3539"/>
<polygon fill="none" stroke="#000000" points="317.5,-526.3539 317.5,-545.3539 359.5,-545.3539 359.5,-526.3539 317.5,-526.3539"/>
<text text-anchor="start" x="320.5" y="-532.4539" font-family="Helvetica,sans-Serif" font-size="11.00" fill="#000000">&lt; 2</text>
<polygon fill="#ffffff" stroke="transparent" points="359.5,-526.3539 359.5,-545.3539 408.5,-545.3539 408.5,-526.3539 359.5,-526.3539"/>
<polygon fill="none" stroke="#000000" points="359.5,-526.3539 359.5,-545.3539 408.5,-545.3539 408.5,-526.3539 359.5,-526.3539"/>
<text text-anchor="start" x="373.1105" y="-532.4539" font-family="Helvetica,sans-Serif" font-size="11.00" fill="#000000">5 rows</text>
<polygon fill="#ffffff" stroke="transparent" points="408.5,-526.3539 408.5,-545.3539 440.5,-545.3539 440.5,-526.3539 408.5,-526.3539"/>
<polygon fill="none" stroke="#000000" points="408.5,-526.3539 408.5,-545.3539 440.5,-545.3539 440.5,-526.3539 408.5,-526.3539"/>
<text text-anchor="start" x="421.9053" y="-532.4539" font-family="Helvetica,sans-Serif" font-size="11.00" fill="#000000">5 &gt;</text>
</a>
</g>
</g>
<!-- casos&#45;&gt;contactos -->
<g id="edge1" class="edge">
<title>casos:w&#45;&gt;contactos:e</title>
<path fill="none" stroke="#000000" d="M597.931,-362.3482C545.8564,-362.4087 518.1732,-364.5338 481,-407.3539 418.1147,-479.7919 536.4262,-619.3539 440.5,-619.3539"/>
<polygon fill="#000000" stroke="#000000" points="604.5,-362.3507 612.4986,-365.9539 608.5,-362.3523 612.5,-362.3539 612.5,-362.3539 612.5,-362.3539 608.5,-362.3523 612.5014,-358.7539 604.5,-362.3507 604.5,-362.3507"/>
<ellipse fill="none" stroke="#000000" cx="601.3" cy="-362.3494" rx="3.2" ry="3.2"/>
</g>
<!-- leads -->
<g id="node3" class="node">
<title>leads</title>
<g id="a_node3"><a xlink:href="../../tables/leads.html" xlink:title="leads" target="_top">
<polygon fill="#ffffff" stroke="transparent" points="317,-121.8539 317,-314.8539 440,-314.8539 440,-121.8539 317,-121.8539"/>
<polygon fill="#f5f5f5" stroke="transparent" points="317.5,-291.3539 317.5,-314.3539 440.5,-314.3539 440.5,-291.3539 317.5,-291.3539"/>
<polygon fill="none" stroke="#000000" points="317.5,-291.3539 317.5,-314.3539 440.5,-314.3539 440.5,-291.3539 317.5,-291.3539"/>
<text text-anchor="start" x="322.5" y="-300.4539" font-family="Helvetica,sans-Serif" font-weight="bold" font-size="11.00" fill="#000000">leads</text>
<text text-anchor="start" x="405.5437" y="-299.4539" font-family="Helvetica,sans-Serif" font-size="11.00" fill="#000000">[table]</text>
<polygon fill="none" stroke="#000000" points="317.5,-269.3539 317.5,-291.3539 440.5,-291.3539 440.5,-269.3539 317.5,-269.3539"/>
<image xlink:href="../../images/primaryKeys.png" width="11px" height="12px" preserveAspectRatio="xMinYMin meet" x="322.5" y="-286.354"/>
<text text-anchor="start" x="337.5" y="-276.4539" font-family="Helvetica,sans-Serif" font-size="11.00" fill="#000000">lead_id</text>
<polygon fill="none" stroke="#000000" points="317.5,-247.3539 317.5,-269.3539 440.5,-269.3539 440.5,-247.3539 317.5,-247.3539"/>
<image xlink:href="../../images/foreignKeys.png" width="11px" height="12px" preserveAspectRatio="xMinYMin meet" x="322.5" y="-264.354"/>
<text text-anchor="start" x="337.5" y="-254.4539" font-family="Helvetica,sans-Serif" font-size="11.00" fill="#000000">usu_asignado_id</text>
<polygon fill="none" stroke="#000000" points="317.5,-225.3539 317.5,-247.3539 440.5,-247.3539 440.5,-225.3539 317.5,-225.3539"/>
<image xlink:href="../../images/foreignKeys.png" width="11px" height="12px" preserveAspectRatio="xMinYMin meet" x="322.5" y="-242.354"/>
<text text-anchor="start" x="337.5" y="-232.4539" font-family="Helvetica,sans-Serif" font-size="11.00" fill="#000000">campana_id</text>
<polygon fill="none" stroke="#000000" points="317.5,-203.3539 317.5,-225.3539 440.5,-225.3539 440.5,-203.3539 317.5,-203.3539"/>
<image xlink:href="../../images/foreignKeys.png" width="11px" height="12px" preserveAspectRatio="xMinYMin meet" x="322.5" y="-220.354"/>
<text text-anchor="start" x="337.5" y="-210.4539" font-family="Helvetica,sans-Serif" font-size="11.00" fill="#000000">persona_id</text>
<polygon fill="none" stroke="#000000" points="317.5,-181.3539 317.5,-203.3539 440.5,-203.3539 440.5,-181.3539 317.5,-181.3539"/>
<image xlink:href="../../images/foreignKeys.png" width="11px" height="12px" preserveAspectRatio="xMinYMin meet" x="322.5" y="-198.354"/>
<text text-anchor="start" x="337.5" y="-188.4539" font-family="Helvetica,sans-Serif" font-size="11.00" fill="#000000">curso_id</text>
<polygon fill="none" stroke="#000000" points="317.5,-159.3539 317.5,-181.3539 440.5,-181.3539 440.5,-159.3539 317.5,-159.3539"/>
<image xlink:href="../../images/foreignKeys.png" width="11px" height="12px" preserveAspectRatio="xMinYMin meet" x="322.5" y="-176.354"/>
<text text-anchor="start" x="337.5" y="-166.4539" font-family="Helvetica,sans-Serif" font-size="11.00" fill="#000000">ciclo_id</text>
<polygon fill="none" stroke="#000000" points="317.5,-140.3539 317.5,-159.3539 440.5,-159.3539 440.5,-140.3539 317.5,-140.3539"/>
<text text-anchor="start" x="320.5" y="-146.4539" font-family="Helvetica,sans-Serif" font-size="11.00" fill="#000000">...</text>
<polygon fill="#ffffff" stroke="transparent" points="317.5,-121.3539 317.5,-140.3539 359.5,-140.3539 359.5,-121.3539 317.5,-121.3539"/>
<polygon fill="none" stroke="#000000" points="317.5,-121.3539 317.5,-140.3539 359.5,-140.3539 359.5,-121.3539 317.5,-121.3539"/>
<text text-anchor="start" x="320.5" y="-127.4539" font-family="Helvetica,sans-Serif" font-size="11.00" fill="#000000">&lt; 5</text>
<polygon fill="#ffffff" stroke="transparent" points="359.5,-121.3539 359.5,-140.3539 408.5,-140.3539 408.5,-121.3539 359.5,-121.3539"/>
<polygon fill="none" stroke="#000000" points="359.5,-121.3539 359.5,-140.3539 408.5,-140.3539 408.5,-121.3539 359.5,-121.3539"/>
<text text-anchor="start" x="373.1105" y="-127.4539" font-family="Helvetica,sans-Serif" font-size="11.00" fill="#000000">4 rows</text>
<polygon fill="#ffffff" stroke="transparent" points="408.5,-121.3539 408.5,-140.3539 440.5,-140.3539 440.5,-121.3539 408.5,-121.3539"/>
<polygon fill="none" stroke="#000000" points="408.5,-121.3539 408.5,-140.3539 440.5,-140.3539 440.5,-121.3539 408.5,-121.3539"/>
<text text-anchor="start" x="421.9053" y="-127.4539" font-family="Helvetica,sans-Serif" font-size="11.00" fill="#000000">3 &gt;</text>
</a>
</g>
</g>
<!-- casos&#45;&gt;leads -->
<g id="edge2" class="edge">
<title>casos:w&#45;&gt;leads:e</title>
<path fill="none" stroke="#000000" d="M598.0147,-362.2152C548.2533,-361.1639 528.3898,-353.6737 481,-324.3539 458.3976,-310.3699 467.0786,-280.3539 440.5,-280.3539"/>
<polygon fill="#000000" stroke="#000000" points="604.5004,-362.2772 612.4655,-365.9537 608.5002,-362.3155 612.5,-362.3539 612.5,-362.3539 612.5,-362.3539 608.5002,-362.3155 612.5345,-358.754 604.5004,-362.2772 604.5004,-362.2772"/>
<ellipse fill="none" stroke="#000000" cx="601.3005" cy="-362.2466" rx="3.2" ry="3.2"/>
</g>
<!-- usuarios -->
<g id="node4" class="node">
<title>usuarios</title>
<g id="a_node4"><a xlink:href="../../tables/usuarios.html" xlink:title="usuarios" target="_top">
<polygon fill="#ffffff" stroke="transparent" points="145,-308.8539 145,-413.8539 268,-413.8539 268,-308.8539 145,-308.8539"/>
<polygon fill="#f5f5f5" stroke="transparent" points="145.5,-390.3539 145.5,-413.3539 268.5,-413.3539 268.5,-390.3539 145.5,-390.3539"/>
<polygon fill="none" stroke="#000000" points="145.5,-390.3539 145.5,-413.3539 268.5,-413.3539 268.5,-390.3539 145.5,-390.3539"/>
<text text-anchor="start" x="150.5" y="-399.4539" font-family="Helvetica,sans-Serif" font-weight="bold" font-size="11.00" fill="#000000">usuarios</text>
<text text-anchor="start" x="233.5437" y="-398.4539" font-family="Helvetica,sans-Serif" font-size="11.00" fill="#000000">[table]</text>
<polygon fill="none" stroke="#000000" points="145.5,-368.3539 145.5,-390.3539 268.5,-390.3539 268.5,-368.3539 145.5,-368.3539"/>
<image xlink:href="../../images/primaryKeys.png" width="11px" height="12px" preserveAspectRatio="xMinYMin meet" x="150.5" y="-385.354"/>
<text text-anchor="start" x="165.5" y="-375.4539" font-family="Helvetica,sans-Serif" font-size="11.00" fill="#000000">usuario_id</text>
<polygon fill="#ffffff" stroke="transparent" points="145.5,-346.3539 145.5,-368.3539 268.5,-368.3539 268.5,-346.3539 145.5,-346.3539"/>
<polygon fill="none" stroke="#000000" points="145.5,-346.3539 145.5,-368.3539 268.5,-368.3539 268.5,-346.3539 145.5,-346.3539"/>
<text text-anchor="start" x="165.5" y="-353.4539" font-family="Helvetica,sans-Serif" font-size="11.00" fill="#000000">nom_usuario</text>
<polygon fill="none" stroke="#000000" points="145.5,-327.3539 145.5,-346.3539 268.5,-346.3539 268.5,-327.3539 145.5,-327.3539"/>
<text text-anchor="start" x="148.5" y="-333.4539" font-family="Helvetica,sans-Serif" font-size="11.00" fill="#000000">...</text>
<polygon fill="#ffffff" stroke="transparent" points="145.5,-308.3539 145.5,-327.3539 186.5,-327.3539 186.5,-308.3539 145.5,-308.3539"/>
<polygon fill="none" stroke="#000000" points="145.5,-308.3539 145.5,-327.3539 186.5,-327.3539 186.5,-308.3539 145.5,-308.3539"/>
<text text-anchor="start" x="148.5" y="-314.4539" font-family="Helvetica,sans-Serif" font-size="11.00" fill="#000000"> &#160;</text>
<polygon fill="#ffffff" stroke="transparent" points="186.5,-308.3539 186.5,-327.3539 232.5,-327.3539 232.5,-308.3539 186.5,-308.3539"/>
<polygon fill="none" stroke="#000000" points="186.5,-308.3539 186.5,-327.3539 232.5,-327.3539 232.5,-308.3539 186.5,-308.3539"/>
<text text-anchor="start" x="202.6105" y="-314.4539" font-family="Helvetica,sans-Serif" font-size="11.00" fill="#000000">1 row</text>
<polygon fill="#ffffff" stroke="transparent" points="232.5,-308.3539 232.5,-327.3539 268.5,-327.3539 268.5,-308.3539 232.5,-308.3539"/>
<polygon fill="none" stroke="#000000" points="232.5,-308.3539 232.5,-327.3539 268.5,-327.3539 268.5,-308.3539 232.5,-308.3539"/>
<text text-anchor="start" x="249.9053" y="-314.4539" font-family="Helvetica,sans-Serif" font-size="11.00" fill="#000000">6 &gt;</text>
</a>
</g>
</g>
<!-- casos&#45;&gt;usuarios -->
<g id="edge3" class="edge">
<title>casos:w&#45;&gt;usuarios:e</title>
<path fill="none" stroke="#000000" d="M597.8074,-362.5004C536.3412,-363.7662 516.1282,-372.8895 448,-376.3539 368.314,-380.4059 348.2889,-379.3539 268.5,-379.3539"/>
<polygon fill="#000000" stroke="#000000" points="604.5004,-362.4337 612.5359,-365.9537 608.5002,-362.3938 612.5,-362.3539 612.5,-362.3539 612.5,-362.3539 608.5002,-362.3938 612.4641,-358.754 604.5004,-362.4337 604.5004,-362.4337"/>
<ellipse fill="none" stroke="#000000" cx="601.3006" cy="-362.4656" rx="3.2" ry="3.2"/>
</g>
<!-- organizaciones -->
<g id="node5" class="node">
<title>organizaciones</title>
<g id="a_node5"><a xlink:href="../../tables/organizaciones.html" xlink:title="organizaciones" target="_top">
<polygon fill="#ffffff" stroke="transparent" points="148.5,-505.8539 148.5,-566.8539 264.5,-566.8539 264.5,-505.8539 148.5,-505.8539"/>
<polygon fill="#f5f5f5" stroke="transparent" points="148.5,-543.3539 148.5,-566.3539 264.5,-566.3539 264.5,-543.3539 148.5,-543.3539"/>
<polygon fill="none" stroke="#000000" points="148.5,-543.3539 148.5,-566.3539 264.5,-566.3539 264.5,-543.3539 148.5,-543.3539"/>
<text text-anchor="start" x="153.0186" y="-552.4539" font-family="Helvetica,sans-Serif" font-weight="bold" font-size="11.00" fill="#000000">organizaciones</text>
<text text-anchor="start" x="230.0219" y="-551.4539" font-family="Helvetica,sans-Serif" font-size="11.00" fill="#000000">[table]</text>
<polygon fill="none" stroke="#000000" points="148.5,-524.3539 148.5,-543.3539 264.5,-543.3539 264.5,-524.3539 148.5,-524.3539"/>
<text text-anchor="start" x="151.5" y="-530.4539" font-family="Helvetica,sans-Serif" font-size="11.00" fill="#000000">...</text>
<polygon fill="#ffffff" stroke="transparent" points="148.5,-505.3539 148.5,-524.3539 187.5,-524.3539 187.5,-505.3539 148.5,-505.3539"/>
<polygon fill="none" stroke="#000000" points="148.5,-505.3539 148.5,-524.3539 187.5,-524.3539 187.5,-505.3539 148.5,-505.3539"/>
<text text-anchor="start" x="151.5" y="-511.4539" font-family="Helvetica,sans-Serif" font-size="11.00" fill="#000000">&lt; 1</text>
<polygon fill="#ffffff" stroke="transparent" points="187.5,-505.3539 187.5,-524.3539 234.5,-524.3539 234.5,-505.3539 187.5,-505.3539"/>
<polygon fill="none" stroke="#000000" points="187.5,-505.3539 187.5,-524.3539 234.5,-524.3539 234.5,-505.3539 187.5,-505.3539"/>
<text text-anchor="start" x="199.1105" y="-511.4539" font-family="Helvetica,sans-Serif" font-size="11.00" fill="#000000">0 rows</text>
<polygon fill="#ffffff" stroke="transparent" points="234.5,-505.3539 234.5,-524.3539 264.5,-524.3539 264.5,-505.3539 234.5,-505.3539"/>
<polygon fill="none" stroke="#000000" points="234.5,-505.3539 234.5,-524.3539 264.5,-524.3539 264.5,-505.3539 234.5,-505.3539"/>
<text text-anchor="start" x="245.9053" y="-511.4539" font-family="Helvetica,sans-Serif" font-size="11.00" fill="#000000">1 &gt;</text>
</a>
</g>
</g>
<!-- contactos&#45;&gt;organizaciones -->
<g id="edge4" class="edge">
<title>contactos:w&#45;&gt;organizaciones:e</title>
<path fill="none" stroke="#000000" d="M303.589,-571.1732C288.8046,-560.5498 288.685,-533.3539 264.5,-533.3539"/>
<polygon fill="#000000" stroke="#000000" points="309.8385,-573.0513 316.4639,-578.8015 313.6693,-574.2026 317.5,-575.3539 317.5,-575.3539 317.5,-575.3539 313.6693,-574.2026 318.5361,-571.9062 309.8385,-573.0513 309.8385,-573.0513"/>
<ellipse fill="none" stroke="#000000" cx="306.7739" cy="-572.1303" rx="3.2" ry="3.2"/>
</g>
<!-- personas -->
<g id="node6" class="node">
<title>personas</title>
<g id="a_node6"><a xlink:href="../../tables/personas.html" xlink:title="personas" target="_top">
<polygon fill="#ffffff" stroke="transparent" points="8,-475.8539 8,-536.8539 96,-536.8539 96,-475.8539 8,-475.8539"/>
<polygon fill="#f5f5f5" stroke="transparent" points="8,-513.3539 8,-536.3539 96,-536.3539 96,-513.3539 8,-513.3539"/>
<polygon fill="none" stroke="#000000" points="8,-513.3539 8,-536.3539 96,-536.3539 96,-513.3539 8,-513.3539"/>
<text text-anchor="start" x="12.8818" y="-522.4539" font-family="Helvetica,sans-Serif" font-weight="bold" font-size="11.00" fill="#000000">personas</text>
<text text-anchor="start" x="61.5219" y="-521.4539" font-family="Helvetica,sans-Serif" font-size="11.00" fill="#000000">[table]</text>
<polygon fill="none" stroke="#000000" points="8,-494.3539 8,-513.3539 96,-513.3539 96,-494.3539 8,-494.3539"/>
<text text-anchor="start" x="11" y="-500.4539" font-family="Helvetica,sans-Serif" font-size="11.00" fill="#000000">...</text>
<polygon fill="#ffffff" stroke="transparent" points="8,-475.3539 8,-494.3539 28,-494.3539 28,-475.3539 8,-475.3539"/>
<polygon fill="none" stroke="#000000" points="8,-475.3539 8,-494.3539 28,-494.3539 28,-475.3539 8,-475.3539"/>
<text text-anchor="start" x="11" y="-481.4539" font-family="Helvetica,sans-Serif" font-size="11.00" fill="#000000"> &#160;</text>
<polygon fill="#ffffff" stroke="transparent" points="28,-475.3539 28,-494.3539 70,-494.3539 70,-475.3539 28,-475.3539"/>
<polygon fill="none" stroke="#000000" points="28,-475.3539 28,-494.3539 70,-494.3539 70,-475.3539 28,-475.3539"/>
<text text-anchor="start" x="34.6105" y="-481.4539" font-family="Helvetica,sans-Serif" font-size="11.00" fill="#000000">5 rows</text>
<polygon fill="#ffffff" stroke="transparent" points="70,-475.3539 70,-494.3539 96,-494.3539 96,-475.3539 70,-475.3539"/>
<polygon fill="none" stroke="#000000" points="70,-475.3539 70,-494.3539 96,-494.3539 96,-475.3539 70,-475.3539"/>
<text text-anchor="start" x="77.4053" y="-481.4539" font-family="Helvetica,sans-Serif" font-size="11.00" fill="#000000">6 &gt;</text>
</a>
</g>
</g>
<!-- contactos&#45;&gt;personas -->
<g id="edge5" class="edge">
<title>contactos:w&#45;&gt;personas:e</title>
<path fill="none" stroke="#000000" d="M302.9098,-597.6208C232.5754,-600.1755 199.977,-619.3019 137,-577.3539 105.7069,-556.51 133.5996,-503.3539 96,-503.3539"/>
<polygon fill="#000000" stroke="#000000" points="309.5013,-597.5003 317.5659,-600.9533 313.5007,-597.4271 317.5,-597.3539 317.5,-597.3539 317.5,-597.3539 313.5007,-597.4271 317.4341,-593.7545 309.5013,-597.5003 309.5013,-597.5003"/>
<ellipse fill="none" stroke="#000000" cx="306.3019" cy="-597.5588" rx="3.2" ry="3.2"/>
</g>
<!-- leads&#45;&gt;usuarios -->
<g id="edge15" class="edge">
<title>leads:w&#45;&gt;usuarios:e</title>
<path fill="none" stroke="#000000" d="M303.43,-261.8447C271.8075,-281.6839 320.6273,-379.3539 268.5,-379.3539"/>
<polygon fill="#000000" stroke="#000000" points="309.7354,-260.2803 318.3669,-261.8479 313.6177,-259.3171 317.5,-258.3539 317.5,-258.3539 317.5,-258.3539 313.6177,-259.3171 316.6331,-254.8598 309.7354,-260.2803 309.7354,-260.2803"/>
<ellipse fill="none" stroke="#000000" cx="306.6296" cy="-261.0509" rx="3.2" ry="3.2"/>
</g>
<!-- leads&#45;&gt;personas -->
<g id="edge14" class="edge">
<title>leads:w&#45;&gt;personas:e</title>
<path fill="none" stroke="#000000" d="M303.5626,-218.8675C261.5988,-235.2424 142.8216,-290.9498 137,-298.3539 79.5697,-371.3952 188.9155,-503.3539 96,-503.3539"/>
<polygon fill="#000000" stroke="#000000" points="309.8892,-216.8187 318.6092,-217.7787 313.6946,-215.5863 317.5,-214.3539 317.5,-214.3539 317.5,-214.3539 313.6946,-215.5863 316.3908,-210.929 309.8892,-216.8187 309.8892,-216.8187"/>
<ellipse fill="none" stroke="#000000" cx="306.8448" cy="-217.8046" rx="3.2" ry="3.2"/>
</g>
<!-- curso_ciclos -->
<g id="node7" class="node">
<title>curso_ciclos</title>
<g id="a_node7"><a xlink:href="../../tables/curso_ciclos.html" xlink:title="curso_ciclos" target="_top">
<polygon fill="#ffffff" stroke="transparent" points="155,-55.8539 155,-116.8539 258,-116.8539 258,-55.8539 155,-55.8539"/>
<polygon fill="#f5f5f5" stroke="transparent" points="155.5,-93.3539 155.5,-116.3539 258.5,-116.3539 258.5,-93.3539 155.5,-93.3539"/>
<polygon fill="none" stroke="#000000" points="155.5,-93.3539 155.5,-116.3539 258.5,-116.3539 258.5,-93.3539 155.5,-93.3539"/>
<text text-anchor="start" x="160.2484" y="-102.4539" font-family="Helvetica,sans-Serif" font-weight="bold" font-size="11.00" fill="#000000">curso_ciclos</text>
<text text-anchor="start" x="224.0219" y="-101.4539" font-family="Helvetica,sans-Serif" font-size="11.00" fill="#000000">[table]</text>
<polygon fill="none" stroke="#000000" points="155.5,-74.3539 155.5,-93.3539 258.5,-93.3539 258.5,-74.3539 155.5,-74.3539"/>
<text text-anchor="start" x="158.5" y="-80.4539" font-family="Helvetica,sans-Serif" font-size="11.00" fill="#000000">...</text>
<polygon fill="#ffffff" stroke="transparent" points="155.5,-55.3539 155.5,-74.3539 190.5,-74.3539 190.5,-55.3539 155.5,-55.3539"/>
<polygon fill="none" stroke="#000000" points="155.5,-55.3539 155.5,-74.3539 190.5,-74.3539 190.5,-55.3539 155.5,-55.3539"/>
<text text-anchor="start" x="158.5" y="-61.4539" font-family="Helvetica,sans-Serif" font-size="11.00" fill="#000000">&lt; 1</text>
<polygon fill="#ffffff" stroke="transparent" points="190.5,-55.3539 190.5,-74.3539 229.5,-74.3539 229.5,-55.3539 190.5,-55.3539"/>
<polygon fill="none" stroke="#000000" points="190.5,-55.3539 190.5,-74.3539 229.5,-74.3539 229.5,-55.3539 190.5,-55.3539"/>
<text text-anchor="start" x="199.6105" y="-61.4539" font-family="Helvetica,sans-Serif" font-size="11.00" fill="#000000">1 row</text>
<polygon fill="#ffffff" stroke="transparent" points="229.5,-55.3539 229.5,-74.3539 258.5,-74.3539 258.5,-55.3539 229.5,-55.3539"/>
<polygon fill="none" stroke="#000000" points="229.5,-55.3539 229.5,-74.3539 258.5,-74.3539 258.5,-55.3539 229.5,-55.3539"/>
<text text-anchor="start" x="239.9053" y="-61.4539" font-family="Helvetica,sans-Serif" font-size="11.00" fill="#000000">2 &gt;</text>
</a>
</g>
</g>
<!-- leads&#45;&gt;curso_ciclos -->
<g id="edge12" class="edge">
<title>leads:w&#45;&gt;curso_ciclos:e</title>
<path fill="none" stroke="#000000" d="M303.4675,-166.6156C278.1221,-149.9632 299.3796,-83.3539 258.5,-83.3539"/>
<polygon fill="#000000" stroke="#000000" points="309.7696,-168.2944 316.5733,-173.8325 313.6348,-169.3241 317.5,-170.3539 317.5,-170.3539 317.5,-170.3539 313.6348,-169.3241 318.4267,-166.8752 309.7696,-168.2944 309.7696,-168.2944"/>
<ellipse fill="none" stroke="#000000" cx="306.6775" cy="-167.4707" rx="3.2" ry="3.2"/>
</g>
<!-- cursos -->
<g id="node8" class="node">
<title>cursos</title>
<g id="a_node8"><a xlink:href="../../tables/cursos.html" xlink:title="cursos" target="_top">
<polygon fill="#ffffff" stroke="transparent" points="13.5,-55.8539 13.5,-116.8539 90.5,-116.8539 90.5,-55.8539 13.5,-55.8539"/>
<polygon fill="#f5f5f5" stroke="transparent" points="14,-93.3539 14,-116.3539 91,-116.3539 91,-93.3539 14,-93.3539"/>
<polygon fill="none" stroke="#000000" points="14,-93.3539 14,-116.3539 91,-116.3539 91,-93.3539 14,-93.3539"/>
<text text-anchor="start" x="19" y="-102.4539" font-family="Helvetica,sans-Serif" font-weight="bold" font-size="11.00" fill="#000000">cursos</text>
<text text-anchor="start" x="56.0437" y="-101.4539" font-family="Helvetica,sans-Serif" font-size="11.00" fill="#000000">[table]</text>
<polygon fill="none" stroke="#000000" points="14,-74.3539 14,-93.3539 91,-93.3539 91,-74.3539 14,-74.3539"/>
<text text-anchor="start" x="17" y="-80.4539" font-family="Helvetica,sans-Serif" font-size="11.00" fill="#000000">...</text>
<polygon fill="#ffffff" stroke="transparent" points="14,-55.3539 14,-74.3539 26,-74.3539 26,-55.3539 14,-55.3539"/>
<polygon fill="none" stroke="#000000" points="14,-55.3539 14,-74.3539 26,-74.3539 26,-55.3539 14,-55.3539"/>
<text text-anchor="start" x="16.9431" y="-61.4539" font-family="Helvetica,sans-Serif" font-size="11.00" fill="#000000"> &#160;</text>
<polygon fill="#ffffff" stroke="transparent" points="26,-55.3539 26,-74.3539 70,-74.3539 70,-55.3539 26,-55.3539"/>
<polygon fill="none" stroke="#000000" points="26,-55.3539 26,-74.3539 70,-74.3539 70,-55.3539 26,-55.3539"/>
<text text-anchor="start" x="28.7478" y="-61.4539" font-family="Helvetica,sans-Serif" font-size="11.00" fill="#000000">10 rows</text>
<polygon fill="#ffffff" stroke="transparent" points="70,-55.3539 70,-74.3539 91,-74.3539 91,-55.3539 70,-55.3539"/>
<polygon fill="none" stroke="#000000" points="70,-55.3539 70,-74.3539 91,-74.3539 91,-55.3539 70,-55.3539"/>
<text text-anchor="start" x="72.7027" y="-61.4539" font-family="Helvetica,sans-Serif" font-size="11.00" fill="#000000">3 &gt;</text>
</a>
</g>
</g>
<!-- leads&#45;&gt;cursos -->
<g id="edge13" class="edge">
<title>leads:w&#45;&gt;cursos:e</title>
<path fill="none" stroke="#000000" d="M303.2687,-195.3811C294.7135,-199.5037 289.5979,-206.6767 276,-209.3539 215.3858,-221.2876 187.6227,-244.7634 137,-209.3539 88.1493,-175.1839 150.6152,-83.3539 91,-83.3539"/>
<polygon fill="#000000" stroke="#000000" points="309.6751,-194.0184 318.249,-195.8751 313.5875,-193.1861 317.5,-192.3539 317.5,-192.3539 317.5,-192.3539 313.5875,-193.1861 316.751,-188.8326 309.6751,-194.0184 309.6751,-194.0184"/>
<ellipse fill="none" stroke="#000000" cx="306.5451" cy="-194.6842" rx="3.2" ry="3.2"/>
</g>
<!-- campanas -->
<g id="node12" class="node">
<title>campanas</title>
<g id="a_node12"><a xlink:href="../../tables/campanas.html" xlink:title="campanas" target="_top">
<polygon fill="#ffffff" stroke="transparent" points="160,-137.8539 160,-198.8539 253,-198.8539 253,-137.8539 160,-137.8539"/>
<polygon fill="#f5f5f5" stroke="transparent" points="160.5,-175.3539 160.5,-198.3539 253.5,-198.3539 253.5,-175.3539 160.5,-175.3539"/>
<polygon fill="none" stroke="#000000" points="160.5,-175.3539 160.5,-198.3539 253.5,-198.3539 253.5,-175.3539 160.5,-175.3539"/>
<text text-anchor="start" x="165.1318" y="-184.4539" font-family="Helvetica,sans-Serif" font-weight="bold" font-size="11.00" fill="#000000">campanas</text>
<text text-anchor="start" x="219.0219" y="-183.4539" font-family="Helvetica,sans-Serif" font-size="11.00" fill="#000000">[table]</text>
<polygon fill="none" stroke="#000000" points="160.5,-156.3539 160.5,-175.3539 253.5,-175.3539 253.5,-156.3539 160.5,-156.3539"/>
<text text-anchor="start" x="163.5" y="-162.4539" font-family="Helvetica,sans-Serif" font-size="11.00" fill="#000000">...</text>
<polygon fill="#ffffff" stroke="transparent" points="160.5,-137.3539 160.5,-156.3539 183.5,-156.3539 183.5,-137.3539 160.5,-137.3539"/>
<polygon fill="none" stroke="#000000" points="160.5,-137.3539 160.5,-156.3539 183.5,-156.3539 183.5,-137.3539 160.5,-137.3539"/>
<text text-anchor="start" x="163.5" y="-143.4539" font-family="Helvetica,sans-Serif" font-size="11.00" fill="#000000"> &#160;</text>
<polygon fill="#ffffff" stroke="transparent" points="183.5,-137.3539 183.5,-156.3539 226.5,-156.3539 226.5,-137.3539 183.5,-137.3539"/>
<polygon fill="none" stroke="#000000" points="183.5,-137.3539 183.5,-156.3539 226.5,-156.3539 226.5,-137.3539 183.5,-137.3539"/>
<text text-anchor="start" x="191.1105" y="-143.4539" font-family="Helvetica,sans-Serif" font-size="11.00" fill="#000000">0 rows</text>
<polygon fill="#ffffff" stroke="transparent" points="226.5,-137.3539 226.5,-156.3539 253.5,-156.3539 253.5,-137.3539 226.5,-137.3539"/>
<polygon fill="none" stroke="#000000" points="226.5,-137.3539 226.5,-156.3539 253.5,-156.3539 253.5,-137.3539 226.5,-137.3539"/>
<text text-anchor="start" x="234.9053" y="-143.4539" font-family="Helvetica,sans-Serif" font-size="11.00" fill="#000000">2 &gt;</text>
</a>
</g>
</g>
<!-- leads&#45;&gt;campanas -->
<g id="edge11" class="edge">
<title>leads:w&#45;&gt;campanas:e</title>
<path fill="none" stroke="#000000" d="M303.3089,-232.7353C279.5637,-218.2669 290.1751,-165.3539 253.5,-165.3539"/>
<polygon fill="#000000" stroke="#000000" points="309.748,-234.3772 316.6105,-239.8422 313.624,-235.3655 317.5,-236.3539 317.5,-236.3539 317.5,-236.3539 313.624,-235.3655 318.3895,-232.8655 309.748,-234.3772 309.748,-234.3772"/>
<ellipse fill="none" stroke="#000000" cx="306.6472" cy="-233.5865" rx="3.2" ry="3.2"/>
</g>
<!-- organizaciones&#45;&gt;personas -->
<g id="edge24" class="edge">
<title>organizaciones:w&#45;&gt;personas:e</title>
<path fill="none" stroke="#000000" d="M134.3122,-529.6753C120.8263,-521.6644 116.9955,-503.3539 96,-503.3539"/>
<polygon fill="#000000" stroke="#000000" points="140.7561,-531.346 147.5965,-536.8386 144.628,-532.3499 148.5,-533.3539 148.5,-533.3539 148.5,-533.3539 144.628,-532.3499 149.4035,-529.8691 140.7561,-531.346 140.7561,-531.346"/>
<ellipse fill="none" stroke="#000000" cx="137.6585" cy="-530.5428" rx="3.2" ry="3.2"/>
</g>
<!-- curso_ciclos&#45;&gt;cursos -->
<g id="edge6" class="edge">
<title>curso_ciclos:w&#45;&gt;cursos:e</title>
<path fill="none" stroke="#000000" d="M140.8432,-83.3539C123.2137,-83.3539 114.0677,-83.3539 91,-83.3539"/>
<polygon fill="#000000" stroke="#000000" points="147.5,-83.3539 155.5,-86.9539 151.5,-83.3539 155.5,-83.3539 155.5,-83.3539 155.5,-83.3539 151.5,-83.3539 155.5,-79.7539 147.5,-83.3539 147.5,-83.3539"/>
<ellipse fill="none" stroke="#000000" cx="144.3" cy="-83.3539" rx="3.2" ry="3.2"/>
</g>
<!-- empleados -->
<g id="node9" class="node">
<title>empleados</title>
<g id="a_node9"><a xlink:href="../../tables/empleados.html" xlink:title="empleados" target="_top">
<polygon fill="#ffffff" stroke="transparent" points="330.5,-444.8539 330.5,-505.8539 426.5,-505.8539 426.5,-444.8539 330.5,-444.8539"/>
<polygon fill="#f5f5f5" stroke="transparent" points="330.5,-482.3539 330.5,-505.3539 426.5,-505.3539 426.5,-482.3539 330.5,-482.3539"/>
<polygon fill="none" stroke="#000000" points="330.5,-482.3539 330.5,-505.3539 426.5,-505.3539 426.5,-482.3539 330.5,-482.3539"/>
<text text-anchor="start" x="335.1039" y="-491.4539" font-family="Helvetica,sans-Serif" font-weight="bold" font-size="11.00" fill="#000000">empleados</text>
<text text-anchor="start" x="392.0219" y="-490.4539" font-family="Helvetica,sans-Serif" font-size="11.00" fill="#000000">[table]</text>
<polygon fill="none" stroke="#000000" points="330.5,-463.3539 330.5,-482.3539 426.5,-482.3539 426.5,-463.3539 330.5,-463.3539"/>
<text text-anchor="start" x="333.5" y="-469.4539" font-family="Helvetica,sans-Serif" font-size="11.00" fill="#000000">...</text>
<polygon fill="#ffffff" stroke="transparent" points="330.5,-444.3539 330.5,-463.3539 366.5,-463.3539 366.5,-444.3539 330.5,-444.3539"/>
<polygon fill="none" stroke="#000000" points="330.5,-444.3539 330.5,-463.3539 366.5,-463.3539 366.5,-444.3539 330.5,-444.3539"/>
<text text-anchor="start" x="333.5" y="-450.4539" font-family="Helvetica,sans-Serif" font-size="11.00" fill="#000000">&lt; 2</text>
<polygon fill="#ffffff" stroke="transparent" points="366.5,-444.3539 366.5,-463.3539 406.5,-463.3539 406.5,-444.3539 366.5,-444.3539"/>
<polygon fill="none" stroke="#000000" points="366.5,-444.3539 366.5,-463.3539 406.5,-463.3539 406.5,-444.3539 366.5,-444.3539"/>
<text text-anchor="start" x="376.6105" y="-450.4539" font-family="Helvetica,sans-Serif" font-size="11.00" fill="#000000">1 row</text>
<polygon fill="#ffffff" stroke="transparent" points="406.5,-444.3539 406.5,-463.3539 426.5,-463.3539 426.5,-444.3539 406.5,-444.3539"/>
<polygon fill="none" stroke="#000000" points="406.5,-444.3539 406.5,-463.3539 426.5,-463.3539 426.5,-444.3539 406.5,-444.3539"/>
<text text-anchor="start" x="417.3862" y="-450.4539" font-family="Helvetica,sans-Serif" font-size="11.00" fill="#000000"> &#160;</text>
</a>
</g>
</g>
<!-- empleados&#45;&gt;usuarios -->
<g id="edge8" class="edge">
<title>empleados:w&#45;&gt;usuarios:e</title>
<path fill="none" stroke="#000000" d="M316.341,-468.8217C288.383,-451.8341 312.355,-379.3539 268.5,-379.3539"/>
<polygon fill="#000000" stroke="#000000" points="322.7379,-470.4175 329.6286,-475.8468 326.6189,-471.3857 330.5,-472.3539 330.5,-472.3539 330.5,-472.3539 326.6189,-471.3857 331.3714,-468.8609 322.7379,-470.4175 322.7379,-470.4175"/>
<ellipse fill="none" stroke="#000000" cx="319.633" cy="-469.6429" rx="3.2" ry="3.2"/>
</g>
<!-- empleados&#45;&gt;personas -->
<g id="edge7" class="edge">
<title>empleados:w&#45;&gt;personas:e</title>
<path fill="none" stroke="#000000" d="M315.9226,-472.4514C241.174,-473.4904 217.5471,-482.7265 137,-495.3539 118.6582,-498.2293 114.5659,-503.3539 96,-503.3539"/>
<polygon fill="#000000" stroke="#000000" points="322.5002,-472.4075 330.5241,-475.9538 326.5001,-472.3807 330.5,-472.3539 330.5,-472.3539 330.5,-472.3539 326.5001,-472.3807 330.4759,-468.7539 322.5002,-472.4075 322.5002,-472.4075"/>
<ellipse fill="none" stroke="#000000" cx="319.3003" cy="-472.4289" rx="3.2" ry="3.2"/>
</g>
<!-- encuesta_respuestas -->
<g id="node10" class="node">
<title>encuesta_respuestas</title>
<g id="a_node10"><a xlink:href="../../tables/encuesta_respuestas.html" xlink:title="encuesta_respuestas" target="_top">
<polygon fill="#ffffff" stroke="transparent" points="855,-432.8539 855,-493.8539 1002,-493.8539 1002,-432.8539 855,-432.8539"/>
<polygon fill="#f5f5f5" stroke="transparent" points="855.5,-470.3539 855.5,-493.3539 1002.5,-493.3539 1002.5,-470.3539 855.5,-470.3539"/>
<polygon fill="none" stroke="#000000" points="855.5,-470.3539 855.5,-493.3539 1002.5,-493.3539 1002.5,-470.3539 855.5,-470.3539"/>
<text text-anchor="start" x="860.2302" y="-479.4539" font-family="Helvetica,sans-Serif" font-weight="bold" font-size="11.00" fill="#000000">encuesta_respuestas</text>
<text text-anchor="start" x="968.0219" y="-478.4539" font-family="Helvetica,sans-Serif" font-size="11.00" fill="#000000">[table]</text>
<polygon fill="none" stroke="#000000" points="855.5,-451.3539 855.5,-470.3539 1002.5,-470.3539 1002.5,-451.3539 855.5,-451.3539"/>
<text text-anchor="start" x="858.5" y="-457.4539" font-family="Helvetica,sans-Serif" font-size="11.00" fill="#000000">...</text>
<polygon fill="#ffffff" stroke="transparent" points="855.5,-432.3539 855.5,-451.3539 912.5,-451.3539 912.5,-432.3539 855.5,-432.3539"/>
<polygon fill="none" stroke="#000000" points="855.5,-432.3539 855.5,-451.3539 912.5,-451.3539 912.5,-432.3539 855.5,-432.3539"/>
<text text-anchor="start" x="858.5" y="-438.4539" font-family="Helvetica,sans-Serif" font-size="11.00" fill="#000000">&lt; 2</text>
<polygon fill="#ffffff" stroke="transparent" points="912.5,-432.3539 912.5,-451.3539 962.5,-451.3539 962.5,-432.3539 912.5,-432.3539"/>
<polygon fill="none" stroke="#000000" points="912.5,-432.3539 912.5,-451.3539 962.5,-451.3539 962.5,-432.3539 912.5,-432.3539"/>
<text text-anchor="start" x="932.6105" y="-438.4539" font-family="Helvetica,sans-Serif" font-size="11.00" fill="#000000">1 row</text>
<polygon fill="#ffffff" stroke="transparent" points="962.5,-432.3539 962.5,-451.3539 1002.5,-451.3539 1002.5,-432.3539 962.5,-432.3539"/>
<polygon fill="none" stroke="#000000" points="962.5,-432.3539 962.5,-451.3539 1002.5,-451.3539 1002.5,-432.3539 962.5,-432.3539"/>
<text text-anchor="start" x="983.9053" y="-438.4539" font-family="Helvetica,sans-Serif" font-size="11.00" fill="#000000">1 &gt;</text>
</a>
</g>
</g>
<!-- encuesta_respuestas&#45;&gt;contactos -->
<g id="edge9" class="edge">
<title>encuesta_respuestas:w&#45;&gt;contactos:e</title>
<path fill="none" stroke="#000000" d="M841.6918,-465.2596C799.9004,-500.8958 860.5826,-719.7716 814,-760.3539 702.4082,-857.5715 599.2182,-849.3958 481,-760.3539 428.9197,-721.1269 505.7005,-619.3539 440.5,-619.3539"/>
<polygon fill="#000000" stroke="#000000" points="847.9616,-463.0321 856.7052,-463.7461 851.7308,-461.693 855.5,-460.3539 855.5,-460.3539 855.5,-460.3539 851.7308,-461.693 854.2948,-456.9616 847.9616,-463.0321 847.9616,-463.0321"/>
<ellipse fill="none" stroke="#000000" cx="844.9463" cy="-464.1034" rx="3.2" ry="3.2"/>
</g>
<!-- oportunidades -->
<g id="node11" class="node">
<title>oportunidades</title>
<g id="a_node11"><a xlink:href="../../tables/oportunidades.html" xlink:title="oportunidades" target="_top">
<polygon fill="#ffffff" stroke="transparent" points="591.5,-119.8539 591.5,-180.8539 703.5,-180.8539 703.5,-119.8539 591.5,-119.8539"/>
<polygon fill="#f5f5f5" stroke="transparent" points="591.5,-157.3539 591.5,-180.3539 703.5,-180.3539 703.5,-157.3539 591.5,-157.3539"/>
<polygon fill="none" stroke="#000000" points="591.5,-157.3539 591.5,-180.3539 703.5,-180.3539 703.5,-157.3539 591.5,-157.3539"/>
<text text-anchor="start" x="596.1531" y="-166.4539" font-family="Helvetica,sans-Serif" font-weight="bold" font-size="11.00" fill="#000000">oportunidades</text>
<text text-anchor="start" x="669.0219" y="-165.4539" font-family="Helvetica,sans-Serif" font-size="11.00" fill="#000000">[table]</text>
<polygon fill="none" stroke="#000000" points="591.5,-138.3539 591.5,-157.3539 703.5,-157.3539 703.5,-138.3539 591.5,-138.3539"/>
<text text-anchor="start" x="594.5" y="-144.4539" font-family="Helvetica,sans-Serif" font-size="11.00" fill="#000000">...</text>
<polygon fill="#ffffff" stroke="transparent" points="591.5,-119.3539 591.5,-138.3539 625.5,-138.3539 625.5,-119.3539 591.5,-119.3539"/>
<polygon fill="none" stroke="#000000" points="591.5,-119.3539 591.5,-138.3539 625.5,-138.3539 625.5,-119.3539 591.5,-119.3539"/>
<text text-anchor="start" x="594.5" y="-125.4539" font-family="Helvetica,sans-Serif" font-size="11.00" fill="#000000">&lt; 5</text>
<polygon fill="#ffffff" stroke="transparent" points="625.5,-119.3539 625.5,-138.3539 675.5,-138.3539 675.5,-119.3539 625.5,-119.3539"/>
<polygon fill="none" stroke="#000000" points="625.5,-119.3539 625.5,-138.3539 675.5,-138.3539 675.5,-119.3539 625.5,-119.3539"/>
<text text-anchor="start" x="633.9956" y="-125.4539" font-family="Helvetica,sans-Serif" font-size="11.00" fill="#000000">14 rows</text>
<polygon fill="#ffffff" stroke="transparent" points="675.5,-119.3539 675.5,-138.3539 703.5,-138.3539 703.5,-119.3539 675.5,-119.3539"/>
<polygon fill="none" stroke="#000000" points="675.5,-119.3539 675.5,-138.3539 703.5,-138.3539 703.5,-119.3539 675.5,-119.3539"/>
<text text-anchor="start" x="684.9053" y="-125.4539" font-family="Helvetica,sans-Serif" font-size="11.00" fill="#000000">1 &gt;</text>
</a>
</g>
</g>
<!-- encuesta_respuestas&#45;&gt;oportunidades -->
<g id="edge10" class="edge">
<title>encuesta_respuestas:w&#45;&gt;oportunidades:e</title>
<path fill="none" stroke="#000000" d="M842.0732,-454.4651C812.612,-423.5909 835.9908,-280.3727 814,-242.3539 781.5722,-186.2909 768.2659,-147.3539 703.5,-147.3539"/>
<polygon fill="#000000" stroke="#000000" points="848.1737,-457.1406 854.054,-463.6507 851.8368,-458.7472 855.5,-460.3539 855.5,-460.3539 855.5,-460.3539 851.8368,-458.7472 856.946,-457.057 848.1737,-457.1406 848.1737,-457.1406"/>
<ellipse fill="none" stroke="#000000" cx="845.2431" cy="-455.8553" rx="3.2" ry="3.2"/>
</g>
<!-- oportunidades&#45;&gt;contactos -->
<g id="edge21" class="edge">
<title>oportunidades:w&#45;&gt;contactos:e</title>
<path fill="none" stroke="#000000" d="M576.854,-148.0693C524.1417,-153.5128 508.7158,-189.6134 481,-242.3539 441.8032,-316.9416 524.7598,-619.3539 440.5,-619.3539"/>
<polygon fill="#000000" stroke="#000000" points="583.5095,-147.7442 591.6757,-150.9496 587.5048,-147.549 591.5,-147.3539 591.5,-147.3539 591.5,-147.3539 587.5048,-147.549 591.3243,-143.7581 583.5095,-147.7442 583.5095,-147.7442"/>
<ellipse fill="none" stroke="#000000" cx="580.3133" cy="-147.9004" rx="3.2" ry="3.2"/>
</g>
<!-- oportunidades&#45;&gt;usuarios -->
<g id="edge23" class="edge">
<title>oportunidades:w&#45;&gt;usuarios:e</title>
<path fill="none" stroke="#000000" d="M576.9864,-148.1507C525.2436,-154.191 515.5962,-193.8479 481,-242.3539 457.9487,-274.6732 478.7385,-300.2333 448,-325.3539 399.3969,-365.074 366.8218,-325.9287 309,-350.3539 288.6062,-358.9687 290.6387,-379.3539 268.5,-379.3539"/>
<polygon fill="#000000" stroke="#000000" points="583.512,-147.7925 591.6974,-150.9484 587.506,-147.5732 591.5,-147.3539 591.5,-147.3539 591.5,-147.3539 587.506,-147.5732 591.3026,-143.7593 583.512,-147.7925 583.512,-147.7925"/>
<ellipse fill="none" stroke="#000000" cx="580.3168" cy="-147.9679" rx="3.2" ry="3.2"/>
</g>
<!-- oportunidades&#45;&gt;curso_ciclos -->
<g id="edge20" class="edge">
<title>oportunidades:w&#45;&gt;curso_ciclos:e</title>
<path fill="none" stroke="#000000" d="M576.994,-146.7328C522.0308,-141.8193 509.221,-109.0821 448,-96.3539 365.3473,-79.1698 342.9202,-83.3539 258.5,-83.3539"/>
<polygon fill="#000000" stroke="#000000" points="583.5073,-147.0116 591.346,-150.9506 587.5037,-147.1827 591.5,-147.3539 591.5,-147.3539 591.5,-147.3539 587.5037,-147.1827 591.654,-143.7572 583.5073,-147.0116 583.5073,-147.0116"/>
<ellipse fill="none" stroke="#000000" cx="580.3103" cy="-146.8747" rx="3.2" ry="3.2"/>
</g>
<!-- oportunidades&#45;&gt;cursos -->
<g id="edge22" class="edge">
<title>oportunidades:w&#45;&gt;cursos:e</title>
<path fill="none" stroke="#000000" d="M576.8364,-146.6389C519.8484,-140.8091 509.8798,-100.7766 448,-80.3539 373.9193,-55.9043 353.6184,-53.171 276,-45.3539 214.5332,-39.1634 195.1329,-24.4478 137,-45.3539 112.0465,-54.3278 117.5181,-83.3539 91,-83.3539"/>
<polygon fill="#000000" stroke="#000000" points="583.5095,-146.9642 591.3247,-150.9496 587.5047,-147.159 591.5,-147.3539 591.5,-147.3539 591.5,-147.3539 587.5047,-147.159 591.6753,-143.7581 583.5095,-146.9642 583.5095,-146.9642"/>
<ellipse fill="none" stroke="#000000" cx="580.3133" cy="-146.8084" rx="3.2" ry="3.2"/>
</g>
<!-- oportunidades&#45;&gt;campanas -->
<g id="edge19" class="edge">
<title>oportunidades:w&#45;&gt;campanas:e</title>
<path fill="none" stroke="#000000" d="M577.0137,-146.8651C523.4726,-143.1097 508.1599,-118.7849 448,-111.3539 386.6882,-103.7805 366.2358,-88.104 309,-111.3539 277.1145,-124.3061 287.9158,-165.3539 253.5,-165.3539"/>
<polygon fill="#000000" stroke="#000000" points="583.5045,-147.084 591.3786,-150.9518 587.5023,-147.2189 591.5,-147.3539 591.5,-147.3539 591.5,-147.3539 587.5023,-147.2189 591.6214,-143.7559 583.5045,-147.084 583.5045,-147.084"/>
<ellipse fill="none" stroke="#000000" cx="580.3064" cy="-146.9761" rx="3.2" ry="3.2"/>
</g>
<!-- llamadas -->
<g id="node13" class="node">
<title>llamadas</title>
<g id="a_node13"><a xlink:href="../../tables/llamadas.html" xlink:title="llamadas" target="_top">
<polygon fill="#ffffff" stroke="transparent" points="489,-417.3539 489,-749.3539 806,-749.3539 806,-417.3539 489,-417.3539"/>
<polygon fill="#f5f5f5" stroke="transparent" points="491.5,-724.3539 491.5,-747.3539 804.5,-747.3539 804.5,-724.3539 491.5,-724.3539"/>
<polygon fill="none" stroke="#000000" points="491.5,-724.3539 491.5,-747.3539 804.5,-747.3539 804.5,-724.3539 491.5,-724.3539"/>
<text text-anchor="start" x="496.5" y="-733.4539" font-family="Helvetica,sans-Serif" font-weight="bold" font-size="11.00" fill="#000000">llamadas</text>
<text text-anchor="start" x="769.5437" y="-732.4539" font-family="Helvetica,sans-Serif" font-size="11.00" fill="#000000">[table]</text>
<polygon fill="none" stroke="#000000" points="491.5,-702.3539 491.5,-724.3539 614.5,-724.3539 614.5,-702.3539 491.5,-702.3539"/>
<image xlink:href="../../images/primaryKeys.png" width="11px" height="12px" preserveAspectRatio="xMinYMin meet" x="496.5" y="-719.354"/>
<text text-anchor="start" x="511.5" y="-709.4539" font-family="Helvetica,sans-Serif" font-size="11.00" fill="#000000">llamada_id</text>
<polygon fill="none" stroke="#000000" points="614.5,-702.3539 614.5,-724.3539 804.5,-724.3539 804.5,-702.3539 614.5,-702.3539"/>
<text text-anchor="start" x="617.5" y="-710.0539" font-family="Helvetica,sans-Serif" font-size="11.00" fill="#000000">serial[10]</text>
<polygon fill="none" stroke="#000000" points="491.5,-680.3539 491.5,-702.3539 614.5,-702.3539 614.5,-680.3539 491.5,-680.3539"/>
<text text-anchor="start" x="511.5" y="-687.4539" font-family="Helvetica,sans-Serif" font-size="11.00" fill="#000000">asunto</text>
<polygon fill="none" stroke="#000000" points="614.5,-680.3539 614.5,-702.3539 804.5,-702.3539 804.5,-680.3539 614.5,-680.3539"/>
<text text-anchor="start" x="617.5" y="-688.0539" font-family="Helvetica,sans-Serif" font-size="11.00" fill="#000000">varchar[255]</text>
<polygon fill="none" stroke="#000000" points="491.5,-658.3539 491.5,-680.3539 614.5,-680.3539 614.5,-658.3539 491.5,-658.3539"/>
<text text-anchor="start" x="511.5" y="-665.4539" font-family="Helvetica,sans-Serif" font-size="11.00" fill="#000000">estado</text>
<polygon fill="none" stroke="#000000" points="614.5,-658.3539 614.5,-680.3539 804.5,-680.3539 804.5,-658.3539 614.5,-658.3539"/>
<text text-anchor="start" x="617.4905" y="-666.0539" font-family="Helvetica,sans-Serif" font-size="11.00" fill="#000000">enum_llamadas_estado[2147483647]</text>
<polygon fill="none" stroke="#000000" points="491.5,-636.3539 491.5,-658.3539 614.5,-658.3539 614.5,-636.3539 491.5,-636.3539"/>
<text text-anchor="start" x="511.5" y="-643.4539" font-family="Helvetica,sans-Serif" font-size="11.00" fill="#000000">tipo</text>
<polygon fill="none" stroke="#000000" points="614.5,-636.3539 614.5,-658.3539 804.5,-658.3539 804.5,-636.3539 614.5,-636.3539"/>
<text text-anchor="start" x="617.5" y="-644.0539" font-family="Helvetica,sans-Serif" font-size="11.00" fill="#000000">enum_llamadas_tipo[2147483647]</text>
<polygon fill="none" stroke="#000000" points="491.5,-614.3539 491.5,-636.3539 614.5,-636.3539 614.5,-614.3539 491.5,-614.3539"/>
<text text-anchor="start" x="511.5" y="-621.4539" font-family="Helvetica,sans-Serif" font-size="11.00" fill="#000000">fec_inicio</text>
<polygon fill="none" stroke="#000000" points="614.5,-614.3539 614.5,-636.3539 804.5,-636.3539 804.5,-614.3539 614.5,-614.3539"/>
<text text-anchor="start" x="617.5" y="-622.0539" font-family="Helvetica,sans-Serif" font-size="11.00" fill="#000000">timestamptz[35,6]</text>
<polygon fill="none" stroke="#000000" points="491.5,-592.3539 491.5,-614.3539 614.5,-614.3539 614.5,-592.3539 491.5,-592.3539"/>
<image xlink:href="../../images/foreignKeys.png" width="11px" height="12px" preserveAspectRatio="xMinYMin meet" x="496.5" y="-609.354"/>
<text text-anchor="start" x="511.5" y="-599.4539" font-family="Helvetica,sans-Serif" font-size="11.00" fill="#000000">contacto_id</text>
<polygon fill="none" stroke="#000000" points="614.5,-592.3539 614.5,-614.3539 804.5,-614.3539 804.5,-592.3539 614.5,-592.3539"/>
<text text-anchor="start" x="617.5" y="-600.0539" font-family="Helvetica,sans-Serif" font-size="11.00" fill="#000000">int4[10]</text>
<polygon fill="none" stroke="#000000" points="491.5,-570.3539 491.5,-592.3539 614.5,-592.3539 614.5,-570.3539 491.5,-570.3539"/>
<image xlink:href="../../images/foreignKeys.png" width="11px" height="12px" preserveAspectRatio="xMinYMin meet" x="496.5" y="-587.354"/>
<text text-anchor="start" x="511.5" y="-577.4539" font-family="Helvetica,sans-Serif" font-size="11.00" fill="#000000">lead_id</text>
<polygon fill="none" stroke="#000000" points="614.5,-570.3539 614.5,-592.3539 804.5,-592.3539 804.5,-570.3539 614.5,-570.3539"/>
<text text-anchor="start" x="617.5" y="-578.0539" font-family="Helvetica,sans-Serif" font-size="11.00" fill="#000000">int4[10]</text>
<polygon fill="none" stroke="#000000" points="491.5,-548.3539 491.5,-570.3539 614.5,-570.3539 614.5,-548.3539 491.5,-548.3539"/>
<text text-anchor="start" x="511.5" y="-555.4539" font-family="Helvetica,sans-Serif" font-size="11.00" fill="#000000">descripcion</text>
<polygon fill="none" stroke="#000000" points="614.5,-548.3539 614.5,-570.3539 804.5,-570.3539 804.5,-548.3539 614.5,-548.3539"/>
<text text-anchor="start" x="617.5" y="-556.0539" font-family="Helvetica,sans-Serif" font-size="11.00" fill="#000000">text[2147483647]</text>
<polygon fill="none" stroke="#000000" points="491.5,-526.3539 491.5,-548.3539 614.5,-548.3539 614.5,-526.3539 491.5,-526.3539"/>
<text text-anchor="start" x="511.5" y="-533.4539" font-family="Helvetica,sans-Serif" font-size="11.00" fill="#000000">usu_insercion</text>
<polygon fill="none" stroke="#000000" points="614.5,-526.3539 614.5,-548.3539 804.5,-548.3539 804.5,-526.3539 614.5,-526.3539"/>
<text text-anchor="start" x="617.5" y="-534.0539" font-family="Helvetica,sans-Serif" font-size="11.00" fill="#000000">varchar[20]</text>
<polygon fill="none" stroke="#000000" points="491.5,-504.3539 491.5,-526.3539 614.5,-526.3539 614.5,-504.3539 491.5,-504.3539"/>
<text text-anchor="start" x="511.5" y="-511.4539" font-family="Helvetica,sans-Serif" font-size="11.00" fill="#000000">fec_insercion</text>
<polygon fill="none" stroke="#000000" points="614.5,-504.3539 614.5,-526.3539 804.5,-526.3539 804.5,-504.3539 614.5,-504.3539"/>
<text text-anchor="start" x="617.5" y="-512.0539" font-family="Helvetica,sans-Serif" font-size="11.00" fill="#000000">timestamptz[35,6]</text>
<polygon fill="none" stroke="#000000" points="491.5,-482.3539 491.5,-504.3539 614.5,-504.3539 614.5,-482.3539 491.5,-482.3539"/>
<text text-anchor="start" x="511.5" y="-489.4539" font-family="Helvetica,sans-Serif" font-size="11.00" fill="#000000">fec_modificacion</text>
<polygon fill="none" stroke="#000000" points="614.5,-482.3539 614.5,-504.3539 804.5,-504.3539 804.5,-482.3539 614.5,-482.3539"/>
<text text-anchor="start" x="617.5" y="-490.0539" font-family="Helvetica,sans-Serif" font-size="11.00" fill="#000000">timestamptz[35,6]</text>
<polygon fill="none" stroke="#000000" points="491.5,-460.3539 491.5,-482.3539 614.5,-482.3539 614.5,-460.3539 491.5,-460.3539"/>
<text text-anchor="start" x="511.5" y="-467.4539" font-family="Helvetica,sans-Serif" font-size="11.00" fill="#000000">usu_modificacion</text>
<polygon fill="none" stroke="#000000" points="614.5,-460.3539 614.5,-482.3539 804.5,-482.3539 804.5,-460.3539 614.5,-460.3539"/>
<text text-anchor="start" x="617.5" y="-468.0539" font-family="Helvetica,sans-Serif" font-size="11.00" fill="#000000">varchar[20]</text>
<polygon fill="none" stroke="#000000" points="491.5,-438.3539 491.5,-460.3539 614.5,-460.3539 614.5,-438.3539 491.5,-438.3539"/>
<image xlink:href="../../images/foreignKeys.png" width="11px" height="12px" preserveAspectRatio="xMinYMin meet" x="496.5" y="-455.354"/>
<text text-anchor="start" x="511.5" y="-445.4539" font-family="Helvetica,sans-Serif" font-size="11.00" fill="#000000">usu_asignado_id</text>
<polygon fill="none" stroke="#000000" points="614.5,-438.3539 614.5,-460.3539 804.5,-460.3539 804.5,-438.3539 614.5,-438.3539"/>
<text text-anchor="start" x="617.5" y="-446.0539" font-family="Helvetica,sans-Serif" font-size="11.00" fill="#000000">int4[10]</text>
<polygon fill="#ffffff" stroke="transparent" points="491.5,-419.3539 491.5,-438.3539 544.5,-438.3539 544.5,-419.3539 491.5,-419.3539"/>
<polygon fill="none" stroke="#000000" points="491.5,-419.3539 491.5,-438.3539 544.5,-438.3539 544.5,-419.3539 491.5,-419.3539"/>
<text text-anchor="start" x="494.5" y="-425.4539" font-family="Helvetica,sans-Serif" font-size="11.00" fill="#000000">&lt; 3</text>
<polygon fill="#ffffff" stroke="transparent" points="544.5,-419.3539 544.5,-438.3539 614.5,-438.3539 614.5,-419.3539 544.5,-419.3539"/>
<polygon fill="none" stroke="#000000" points="544.5,-419.3539 544.5,-438.3539 614.5,-438.3539 614.5,-419.3539 544.5,-419.3539"/>
<text text-anchor="start" x="579.1105" y="-425.4539" font-family="Helvetica,sans-Serif" font-size="11.00" fill="#000000">0 rows</text>
<polygon fill="#ffffff" stroke="transparent" points="614.5,-419.3539 614.5,-438.3539 804.5,-438.3539 804.5,-419.3539 614.5,-419.3539"/>
<polygon fill="none" stroke="#000000" points="614.5,-419.3539 614.5,-438.3539 804.5,-438.3539 804.5,-419.3539 614.5,-419.3539"/>
<text text-anchor="start" x="785.9053" y="-425.4539" font-family="Helvetica,sans-Serif" font-size="11.00" fill="#000000">0 &gt;</text>
<polygon fill="none" stroke="#000000" stroke-width="2" points="490,-418.3539 490,-748.3539 805,-748.3539 805,-418.3539 490,-418.3539"/>
</a>
</g>
</g>
<!-- llamadas&#45;&gt;contactos -->
<g id="edge16" class="edge">
<title>llamadas:w&#45;&gt;contactos:e</title>
<path fill="none" stroke="#000000" d="M477.2304,-605.7147C464.8657,-610.1654 458.5026,-619.3539 440.5,-619.3539"/>
<polygon fill="#000000" stroke="#000000" points="483.6073,-604.6597 492.0876,-606.9056 487.5536,-604.0068 491.5,-603.3539 491.5,-603.3539 491.5,-603.3539 487.5536,-604.0068 490.9124,-599.8021 483.6073,-604.6597 483.6073,-604.6597"/>
<ellipse fill="none" stroke="#000000" cx="480.4502" cy="-605.1821" rx="3.2" ry="3.2"/>
</g>
<!-- llamadas&#45;&gt;leads -->
<g id="edge17" class="edge">
<title>llamadas:w&#45;&gt;leads:e</title>
<path fill="none" stroke="#000000" d="M477.9796,-575.8725C436.2424,-535.077 502.9095,-280.3539 440.5,-280.3539"/>
<polygon fill="#000000" stroke="#000000" points="484.0861,-578.3481 490.1474,-584.6901 487.7931,-579.851 491.5,-581.3539 491.5,-581.3539 491.5,-581.3539 487.7931,-579.851 492.8526,-578.0176 484.0861,-578.3481 484.0861,-578.3481"/>
<ellipse fill="none" stroke="#000000" cx="481.1205" cy="-577.1458" rx="3.2" ry="3.2"/>
</g>
<!-- llamadas&#45;&gt;usuarios -->
<g id="edge18" class="edge">
<title>llamadas:w&#45;&gt;usuarios:e</title>
<path fill="none" stroke="#000000" d="M477.1991,-447.4464C467.6426,-444.537 461.825,-438.854 448,-434.3539 428.1647,-427.8973 289.3597,-379.3539 268.5,-379.3539"/>
<polygon fill="#000000" stroke="#000000" points="483.5702,-448.2962 491.024,-452.9223 487.5351,-448.825 491.5,-449.3539 491.5,-449.3539 491.5,-449.3539 487.5351,-448.825 491.976,-445.7855 483.5702,-448.2962 483.5702,-448.2962"/>
<ellipse fill="none" stroke="#000000" cx="480.3983" cy="-447.8731" rx="3.2" ry="3.2"/>
</g>
<!-- tareas -->
<g id="node14" class="node">
<title>tareas</title>
<g id="a_node14"><a xlink:href="../../tables/tareas.html" xlink:title="tareas" target="_top">
<polygon fill="#ffffff" stroke="transparent" points="611,-252.8539 611,-313.8539 684,-313.8539 684,-252.8539 611,-252.8539"/>
<polygon fill="#f5f5f5" stroke="transparent" points="611.5,-290.3539 611.5,-313.3539 684.5,-313.3539 684.5,-290.3539 611.5,-290.3539"/>
<polygon fill="none" stroke="#000000" points="611.5,-290.3539 611.5,-313.3539 684.5,-313.3539 684.5,-290.3539 611.5,-290.3539"/>
<text text-anchor="start" x="616.2183" y="-299.4539" font-family="Helvetica,sans-Serif" font-weight="bold" font-size="11.00" fill="#000000">tareas</text>
<text text-anchor="start" x="650.0219" y="-298.4539" font-family="Helvetica,sans-Serif" font-size="11.00" fill="#000000">[table]</text>
<polygon fill="none" stroke="#000000" points="611.5,-271.3539 611.5,-290.3539 684.5,-290.3539 684.5,-271.3539 611.5,-271.3539"/>
<text text-anchor="start" x="614.5" y="-277.4539" font-family="Helvetica,sans-Serif" font-size="11.00" fill="#000000">...</text>
<polygon fill="#ffffff" stroke="transparent" points="611.5,-252.3539 611.5,-271.3539 633.5,-271.3539 633.5,-252.3539 611.5,-252.3539"/>
<polygon fill="none" stroke="#000000" points="611.5,-252.3539 611.5,-271.3539 633.5,-271.3539 633.5,-252.3539 611.5,-252.3539"/>
<text text-anchor="start" x="614.5" y="-258.4539" font-family="Helvetica,sans-Serif" font-size="11.00" fill="#000000">&lt; 3</text>
<polygon fill="#ffffff" stroke="transparent" points="633.5,-252.3539 633.5,-271.3539 671.5,-271.3539 671.5,-252.3539 633.5,-252.3539"/>
<polygon fill="none" stroke="#000000" points="633.5,-252.3539 633.5,-271.3539 671.5,-271.3539 671.5,-252.3539 633.5,-252.3539"/>
<text text-anchor="start" x="636.3053" y="-258.4539" font-family="Helvetica,sans-Serif" font-size="11.00" fill="#000000">0 rows</text>
<polygon fill="#ffffff" stroke="transparent" points="671.5,-252.3539 671.5,-271.3539 684.5,-271.3539 684.5,-252.3539 671.5,-252.3539"/>
<polygon fill="none" stroke="#000000" points="671.5,-252.3539 671.5,-271.3539 684.5,-271.3539 684.5,-252.3539 671.5,-252.3539"/>
<text text-anchor="start" x="675.3862" y="-258.4539" font-family="Helvetica,sans-Serif" font-size="11.00" fill="#000000"> &#160;</text>
</a>
</g>
</g>
<!-- tareas&#45;&gt;contactos -->
<g id="edge25" class="edge">
<title>tareas:w&#45;&gt;contactos:e</title>
<path fill="none" stroke="#000000" d="M597.0395,-280.3195C545.265,-280.173 516.8092,-281.0563 481,-324.3539 438.8281,-375.3446 506.6705,-619.3539 440.5,-619.3539"/>
<polygon fill="#000000" stroke="#000000" points="603.5,-280.3348 611.4914,-283.9538 607.5,-280.3443 611.5,-280.3539 611.5,-280.3539 611.5,-280.3539 607.5,-280.3443 611.5086,-276.7539 603.5,-280.3348 603.5,-280.3348"/>
<ellipse fill="none" stroke="#000000" cx="600.3" cy="-280.3271" rx="3.2" ry="3.2"/>
</g>
<!-- tareas&#45;&gt;leads -->
<g id="edge26" class="edge">
<title>tareas:w&#45;&gt;leads:e</title>
<path fill="none" stroke="#000000" d="M597.0801,-280.3539C532.7252,-280.3539 511.4531,-280.3539 440.5,-280.3539"/>
<polygon fill="#000000" stroke="#000000" points="603.5,-280.3539 611.5,-283.9539 607.5,-280.3539 611.5,-280.3539 611.5,-280.3539 611.5,-280.3539 607.5,-280.3539 611.5,-276.7539 603.5,-280.3539 603.5,-280.3539"/>
<ellipse fill="none" stroke="#000000" cx="600.3" cy="-280.3539" rx="3.2" ry="3.2"/>
</g>
<!-- tareas&#45;&gt;usuarios -->
<g id="edge27" class="edge">
<title>tareas:w&#45;&gt;usuarios:e</title>
<path fill="none" stroke="#000000" d="M597.0018,-280.6778C547.4656,-283.0289 530.5553,-298.1273 481,-324.3539 464.7369,-332.9609 464.8974,-342.0706 448,-349.3539 410.8609,-365.3619 308.9422,-379.3539 268.5,-379.3539"/>
<polygon fill="#000000" stroke="#000000" points="603.502,-280.5326 611.5804,-283.953 607.501,-280.4432 611.5,-280.3539 611.5,-280.3539 611.5,-280.3539 607.501,-280.4432 611.4196,-276.7548 603.502,-280.5326 603.502,-280.5326"/>
<ellipse fill="none" stroke="#000000" cx="600.3028" cy="-280.6041" rx="3.2" ry="3.2"/>
</g>
</g>
</svg>
