<?xml version="1.0" encoding="UTF-8" standalone="no"?>
<!DOCTYPE svg PUBLIC "-//W3C//DTD SVG 1.1//EN"
 "http://www.w3.org/Graphics/SVG/1.1/DTD/svg11.dtd">
<!-- Generated by graphviz version 2.40.1 (20161225.0304)
 -->
<!-- Title: twoDegreesRelationshipsDiagram Pages: 1 -->
<svg width="484pt" height="289pt"
 viewBox="0.00 0.00 484.00 288.70" xmlns="http://www.w3.org/2000/svg" xmlns:xlink="http://www.w3.org/1999/xlink">
<g id="graph0" class="graph" transform="scale(1 1) rotate(0) translate(4 284.7)">
<title>twoDegreesRelationshipsDiagram</title>
<polygon fill="#ffffff" stroke="transparent" points="-4,4 -4,-284.7 480,-284.7 480,4 -4,4"/>
<text text-anchor="middle" x="72.4936" y="-7.3" font-family="Helvetica,sans-Serif" font-size="11.00" fill="#000000">Generated by SchemaSpy</text>
<!-- actividades -->
<g id="node1" class="node">
<title>actividades</title>
<g id="a_node1"><a xlink:href="../../tables/actividades.html" xlink:title="actividades" target="_top">
<polygon fill="#ffffff" stroke="transparent" points="143,-38.2 143,-209.2 283,-209.2 283,-38.2 143,-38.2"/>
<polygon fill="#f5f5f5" stroke="transparent" points="143,-185.7 143,-208.7 283,-208.7 283,-185.7 143,-185.7"/>
<polygon fill="none" stroke="#000000" points="143,-185.7 143,-208.7 283,-208.7 283,-185.7 143,-185.7"/>
<text text-anchor="start" x="148" y="-194.8" font-family="Helvetica,sans-Serif" font-weight="bold" font-size="11.00" fill="#000000">actividades</text>
<text text-anchor="start" x="248.0437" y="-193.8" font-family="Helvetica,sans-Serif" font-size="11.00" fill="#000000">[table]</text>
<polygon fill="none" stroke="#000000" points="143,-163.7 143,-185.7 283,-185.7 283,-163.7 143,-163.7"/>
<image xlink:href="../../images/primaryKeys.png" width="11px" height="12px" preserveAspectRatio="xMinYMin meet" x="148" y="-180.7"/>
<text text-anchor="start" x="163" y="-170.8" font-family="Helvetica,sans-Serif" font-size="11.00" fill="#000000">actividad_id</text>
<polygon fill="none" stroke="#000000" points="143,-141.7 143,-163.7 283,-163.7 283,-141.7 143,-141.7"/>
<image xlink:href="../../images/foreignKeys.png" width="11px" height="12px" preserveAspectRatio="xMinYMin meet" x="148" y="-158.7"/>
<text text-anchor="start" x="163" y="-148.8" font-family="Helvetica,sans-Serif" font-size="11.00" fill="#000000">usu_asignado_id</text>
<polygon fill="none" stroke="#000000" points="143,-119.7 143,-141.7 283,-141.7 283,-119.7 143,-119.7"/>
<image xlink:href="../../images/foreignKeys.png" width="11px" height="12px" preserveAspectRatio="xMinYMin meet" x="148" y="-136.7"/>
<text text-anchor="start" x="163" y="-126.8" font-family="Helvetica,sans-Serif" font-size="11.00" fill="#000000">usu_insercion_id</text>
<polygon fill="none" stroke="#000000" points="143,-97.7 143,-119.7 283,-119.7 283,-97.7 143,-97.7"/>
<image xlink:href="../../images/foreignKeys.png" width="11px" height="12px" preserveAspectRatio="xMinYMin meet" x="148" y="-114.7"/>
<text text-anchor="start" x="163" y="-104.8" font-family="Helvetica,sans-Serif" font-size="11.00" fill="#000000">usu_modificacion_id</text>
<polygon fill="none" stroke="#000000" points="143,-75.7 143,-97.7 283,-97.7 283,-75.7 143,-75.7"/>
<image xlink:href="../../images/foreignKeys.png" width="11px" height="12px" preserveAspectRatio="xMinYMin meet" x="148" y="-92.7"/>
<text text-anchor="start" x="163" y="-82.8" font-family="Helvetica,sans-Serif" font-size="11.00" fill="#000000">usu_eliminacion_id</text>
<polygon fill="none" stroke="#000000" points="143,-56.7 143,-75.7 283,-75.7 283,-56.7 143,-56.7"/>
<text text-anchor="start" x="146" y="-62.8" font-family="Helvetica,sans-Serif" font-size="11.00" fill="#000000">...</text>
<polygon fill="#ffffff" stroke="transparent" points="143,-37.7 143,-56.7 194,-56.7 194,-37.7 143,-37.7"/>
<polygon fill="none" stroke="#000000" points="143,-37.7 143,-56.7 194,-56.7 194,-37.7 143,-37.7"/>
<text text-anchor="start" x="146" y="-43.8" font-family="Helvetica,sans-Serif" font-size="11.00" fill="#000000">&lt; 4</text>
<polygon fill="#ffffff" stroke="transparent" points="194,-37.7 194,-56.7 247,-56.7 247,-37.7 194,-37.7"/>
<polygon fill="none" stroke="#000000" points="194,-37.7 194,-56.7 247,-56.7 247,-37.7 194,-37.7"/>
<text text-anchor="start" x="211.6105" y="-43.8" font-family="Helvetica,sans-Serif" font-size="11.00" fill="#000000">0 rows</text>
<polygon fill="#ffffff" stroke="transparent" points="247,-37.7 247,-56.7 283,-56.7 283,-37.7 247,-37.7"/>
<polygon fill="none" stroke="#000000" points="247,-37.7 247,-56.7 283,-56.7 283,-37.7 247,-37.7"/>
<text text-anchor="start" x="264.4053" y="-43.8" font-family="Helvetica,sans-Serif" font-size="11.00" fill="#000000">2 &gt;</text>
</a>
</g>
</g>
<!-- usuarios -->
<g id="node2" class="node">
<title>usuarios</title>
<g id="a_node2"><a xlink:href="../../tables/usuarios.html" xlink:title="usuarios" target="_top">
<polygon fill="#ffffff" stroke="transparent" points="8,-92.2 8,-153.2 94,-153.2 94,-92.2 8,-92.2"/>
<polygon fill="#f5f5f5" stroke="transparent" points="8,-129.7 8,-152.7 94,-152.7 94,-129.7 8,-129.7"/>
<polygon fill="none" stroke="#000000" points="8,-129.7 8,-152.7 94,-152.7 94,-129.7 8,-129.7"/>
<text text-anchor="start" x="13" y="-138.8" font-family="Helvetica,sans-Serif" font-weight="bold" font-size="11.00" fill="#000000">usuarios</text>
<text text-anchor="start" x="59.0437" y="-137.8" font-family="Helvetica,sans-Serif" font-size="11.00" fill="#000000">[table]</text>
<polygon fill="none" stroke="#000000" points="8,-110.7 8,-129.7 94,-129.7 94,-110.7 8,-110.7"/>
<text text-anchor="start" x="11" y="-116.8" font-family="Helvetica,sans-Serif" font-size="11.00" fill="#000000">...</text>
<polygon fill="#ffffff" stroke="transparent" points="8,-91.7 8,-110.7 29,-110.7 29,-91.7 8,-91.7"/>
<polygon fill="none" stroke="#000000" points="8,-91.7 8,-110.7 29,-110.7 29,-91.7 8,-91.7"/>
<text text-anchor="start" x="10.7027" y="-97.8" font-family="Helvetica,sans-Serif" font-size="11.00" fill="#000000">&lt; 4</text>
<polygon fill="#ffffff" stroke="transparent" points="29,-91.7 29,-110.7 67,-110.7 67,-91.7 29,-91.7"/>
<polygon fill="none" stroke="#000000" points="29,-91.7 29,-110.7 67,-110.7 67,-91.7 29,-91.7"/>
<text text-anchor="start" x="31.8053" y="-97.8" font-family="Helvetica,sans-Serif" font-size="11.00" fill="#000000">0 rows</text>
<polygon fill="#ffffff" stroke="transparent" points="67,-91.7 67,-110.7 94,-110.7 94,-91.7 67,-91.7"/>
<polygon fill="none" stroke="#000000" points="67,-91.7 67,-110.7 94,-110.7 94,-91.7 67,-91.7"/>
<text text-anchor="start" x="69.6452" y="-97.8" font-family="Helvetica,sans-Serif" font-size="11.00" fill="#000000">19 &gt;</text>
</a>
</g>
</g>
<!-- actividades&#45;&gt;usuarios -->
<g id="edge1" class="edge">
<title>actividades:w&#45;&gt;usuarios:e</title>
<path fill="none" stroke="#000000" d="M129.0457,-148.3858C116.8073,-139.4408 114.3075,-119.7 94,-119.7"/>
<polygon fill="#000000" stroke="#000000" points="135.3569,-150.337 141.9366,-156.1394 139.1785,-151.5185 143,-152.7 143,-152.7 143,-152.7 139.1785,-151.5185 144.0634,-149.2606 135.3569,-150.337 135.3569,-150.337"/>
<ellipse fill="none" stroke="#000000" cx="132.2997" cy="-149.3918" rx="3.2" ry="3.2"/>
</g>
<!-- actividades&#45;&gt;usuarios -->
<g id="edge2" class="edge">
<title>actividades:w&#45;&gt;usuarios:e</title>
<path fill="none" stroke="#000000" d="M129.0457,-91.0142C116.8073,-99.9592 114.3075,-119.7 94,-119.7"/>
<polygon fill="#000000" stroke="#000000" points="135.3569,-89.063 144.0634,-90.1394 139.1785,-87.8815 143,-86.7 143,-86.7 143,-86.7 139.1785,-87.8815 141.9366,-83.2606 135.3569,-89.063 135.3569,-89.063"/>
<ellipse fill="none" stroke="#000000" cx="132.2997" cy="-90.0082" rx="3.2" ry="3.2"/>
</g>
<!-- actividades&#45;&gt;usuarios -->
<g id="edge3" class="edge">
<title>actividades:w&#45;&gt;usuarios:e</title>
<path fill="none" stroke="#000000" d="M128.7027,-128.8836C117.2382,-125.7593 110.5655,-119.7 94,-119.7"/>
<polygon fill="#000000" stroke="#000000" points="135.0638,-129.6917 142.5463,-134.2713 139.0319,-130.1958 143,-130.7 143,-130.7 143,-130.7 139.0319,-130.1958 143.4537,-127.1287 135.0638,-129.6917 135.0638,-129.6917"/>
<ellipse fill="none" stroke="#000000" cx="131.8893" cy="-129.2884" rx="3.2" ry="3.2"/>
</g>
<!-- actividades&#45;&gt;usuarios -->
<g id="edge4" class="edge">
<title>actividades:w&#45;&gt;usuarios:e</title>
<path fill="none" stroke="#000000" d="M128.7027,-110.5164C117.2382,-113.6407 110.5655,-119.7 94,-119.7"/>
<polygon fill="#000000" stroke="#000000" points="135.0638,-109.7083 143.4537,-112.2713 139.0319,-109.2042 143,-108.7 143,-108.7 143,-108.7 139.0319,-109.2042 142.5463,-105.1287 135.0638,-109.7083 135.0638,-109.7083"/>
<ellipse fill="none" stroke="#000000" cx="131.8893" cy="-110.1116" rx="3.2" ry="3.2"/>
</g>
<!-- llamadas -->
<g id="node3" class="node">
<title>llamadas</title>
<g id="a_node3"><a xlink:href="../../tables/llamadas.html" xlink:title="llamadas" target="_top">
<polygon fill="#ffffff" stroke="transparent" points="332,-186.7 332,-276.7 468,-276.7 468,-186.7 332,-186.7"/>
<polygon fill="#f5f5f5" stroke="transparent" points="334,-251.7 334,-274.7 466,-274.7 466,-251.7 334,-251.7"/>
<polygon fill="none" stroke="#000000" points="334,-251.7 334,-274.7 466,-274.7 466,-251.7 334,-251.7"/>
<text text-anchor="start" x="339" y="-260.8" font-family="Helvetica,sans-Serif" font-weight="bold" font-size="11.00" fill="#000000">llamadas</text>
<text text-anchor="start" x="431.0437" y="-259.8" font-family="Helvetica,sans-Serif" font-size="11.00" fill="#000000">[table]</text>
<polygon fill="none" stroke="#000000" points="334,-229.7 334,-251.7 424,-251.7 424,-229.7 334,-229.7"/>
<image xlink:href="../../images/primaryKeys.png" width="11px" height="12px" preserveAspectRatio="xMinYMin meet" x="339" y="-246.7"/>
<text text-anchor="start" x="354" y="-236.8" font-family="Helvetica,sans-Serif" font-size="11.00" fill="#000000">llamada_id</text>
<polygon fill="none" stroke="#000000" points="424,-229.7 424,-251.7 466,-251.7 466,-229.7 424,-229.7"/>
<text text-anchor="start" x="426.9644" y="-237.4" font-family="Helvetica,sans-Serif" font-size="11.00" fill="#000000">int4[10]</text>
<polygon fill="none" stroke="#000000" points="334,-207.7 334,-229.7 424,-229.7 424,-207.7 334,-207.7"/>
<image xlink:href="../../images/foreignKeys.png" width="11px" height="12px" preserveAspectRatio="xMinYMin meet" x="339" y="-224.7"/>
<text text-anchor="start" x="354" y="-214.8" font-family="Helvetica,sans-Serif" font-size="11.00" fill="#000000">actividad_id</text>
<polygon fill="none" stroke="#000000" points="424,-207.7 424,-229.7 466,-229.7 466,-207.7 424,-207.7"/>
<text text-anchor="start" x="426.9644" y="-215.4" font-family="Helvetica,sans-Serif" font-size="11.00" fill="#000000">int4[10]</text>
<polygon fill="#ffffff" stroke="transparent" points="334,-188.7 334,-207.7 370,-207.7 370,-188.7 334,-188.7"/>
<polygon fill="none" stroke="#000000" points="334,-188.7 334,-207.7 370,-207.7 370,-188.7 334,-188.7"/>
<text text-anchor="start" x="337" y="-194.8" font-family="Helvetica,sans-Serif" font-size="11.00" fill="#000000">&lt; 1</text>
<polygon fill="#ffffff" stroke="transparent" points="370,-188.7 370,-207.7 424,-207.7 424,-188.7 370,-188.7"/>
<polygon fill="none" stroke="#000000" points="370,-188.7 370,-207.7 424,-207.7 424,-188.7 370,-188.7"/>
<text text-anchor="start" x="388.6105" y="-194.8" font-family="Helvetica,sans-Serif" font-size="11.00" fill="#000000">0 rows</text>
<polygon fill="#ffffff" stroke="transparent" points="424,-188.7 424,-207.7 466,-207.7 466,-188.7 424,-188.7"/>
<polygon fill="none" stroke="#000000" points="424,-188.7 424,-207.7 466,-207.7 466,-188.7 424,-188.7"/>
<text text-anchor="start" x="447.4053" y="-194.8" font-family="Helvetica,sans-Serif" font-size="11.00" fill="#000000">0 &gt;</text>
<polygon fill="none" stroke="#000000" stroke-width="2" points="333,-187.7 333,-275.7 467,-275.7 467,-187.7 333,-187.7"/>
</a>
</g>
</g>
<!-- llamadas&#45;&gt;actividades -->
<g id="edge5" class="edge">
<title>llamadas:w&#45;&gt;actividades:e</title>
<path fill="none" stroke="#000000" d="M319.9107,-213.9912C306.0669,-202.6404 306.8557,-174.7 283,-174.7"/>
<polygon fill="#000000" stroke="#000000" points="326.4125,-216.1642 332.8589,-222.1144 330.2063,-217.4321 334,-218.7 334,-218.7 334,-218.7 330.2063,-217.4321 335.1411,-215.2856 326.4125,-216.1642 326.4125,-216.1642"/>
<ellipse fill="none" stroke="#000000" cx="323.3775" cy="-215.1498" rx="3.2" ry="3.2"/>
</g>
<!-- tareas -->
<g id="node4" class="node">
<title>tareas</title>
<g id="a_node4"><a xlink:href="../../tables/tareas.html" xlink:title="tareas" target="_top">
<polygon fill="#ffffff" stroke="transparent" points="363.5,-104.2 363.5,-165.2 436.5,-165.2 436.5,-104.2 363.5,-104.2"/>
<polygon fill="#f5f5f5" stroke="transparent" points="364,-141.7 364,-164.7 437,-164.7 437,-141.7 364,-141.7"/>
<polygon fill="none" stroke="#000000" points="364,-141.7 364,-164.7 437,-164.7 437,-141.7 364,-141.7"/>
<text text-anchor="start" x="368.7183" y="-150.8" font-family="Helvetica,sans-Serif" font-weight="bold" font-size="11.00" fill="#000000">tareas</text>
<text text-anchor="start" x="402.5219" y="-149.8" font-family="Helvetica,sans-Serif" font-size="11.00" fill="#000000">[table]</text>
<polygon fill="none" stroke="#000000" points="364,-122.7 364,-141.7 437,-141.7 437,-122.7 364,-122.7"/>
<text text-anchor="start" x="367" y="-128.8" font-family="Helvetica,sans-Serif" font-size="11.00" fill="#000000">...</text>
<polygon fill="#ffffff" stroke="transparent" points="364,-103.7 364,-122.7 386,-122.7 386,-103.7 364,-103.7"/>
<polygon fill="none" stroke="#000000" points="364,-103.7 364,-122.7 386,-122.7 386,-103.7 364,-103.7"/>
<text text-anchor="start" x="367" y="-109.8" font-family="Helvetica,sans-Serif" font-size="11.00" fill="#000000">&lt; 1</text>
<polygon fill="#ffffff" stroke="transparent" points="386,-103.7 386,-122.7 424,-122.7 424,-103.7 386,-103.7"/>
<polygon fill="none" stroke="#000000" points="386,-103.7 386,-122.7 424,-122.7 424,-103.7 386,-103.7"/>
<text text-anchor="start" x="388.8053" y="-109.8" font-family="Helvetica,sans-Serif" font-size="11.00" fill="#000000">0 rows</text>
<polygon fill="#ffffff" stroke="transparent" points="424,-103.7 424,-122.7 437,-122.7 437,-103.7 424,-103.7"/>
<polygon fill="none" stroke="#000000" points="424,-103.7 424,-122.7 437,-122.7 437,-103.7 424,-103.7"/>
<text text-anchor="start" x="427.8862" y="-109.8" font-family="Helvetica,sans-Serif" font-size="11.00" fill="#000000"> &#160;</text>
</a>
</g>
</g>
<!-- tareas&#45;&gt;actividades -->
<g id="edge6" class="edge">
<title>tareas:w&#45;&gt;actividades:e</title>
<path fill="none" stroke="#000000" d="M349.3863,-133.8915C322.6115,-142.6541 318.1858,-174.7 283,-174.7"/>
<polygon fill="#000000" stroke="#000000" points="356.0885,-132.8865 364.5339,-135.2602 360.0442,-132.2932 364,-131.7 364,-131.7 364,-131.7 360.0442,-132.2932 363.4661,-128.1398 356.0885,-132.8865 356.0885,-132.8865"/>
<ellipse fill="none" stroke="#000000" cx="352.9238" cy="-133.3611" rx="3.2" ry="3.2"/>
</g>
</g>
</svg>
