<?xml version="1.0" encoding="UTF-8" standalone="no"?>
<!DOCTYPE svg PUBLIC "-//W3C//DTD SVG 1.1//EN"
 "http://www.w3.org/Graphics/SVG/1.1/DTD/svg11.dtd">
<!-- Generated by graphviz version 2.40.1 (20161225.0304)
 -->
<!-- Title: oneDegreeRelationshipsDiagram Pages: 1 -->
<svg width="685pt" height="418pt"
 viewBox="0.00 0.00 685.00 417.56" xmlns="http://www.w3.org/2000/svg" xmlns:xlink="http://www.w3.org/1999/xlink">
<g id="graph0" class="graph" transform="scale(1 1) rotate(0) translate(4 413.5628)">
<title>oneDegreeRelationshipsDiagram</title>
<polygon fill="#ffffff" stroke="transparent" points="-4,4 -4,-413.5628 681,-413.5628 681,4 -4,4"/>
<text text-anchor="middle" x="72.4936" y="-7.3" font-family="Helvetica,sans-Serif" font-size="11.00" fill="#000000">Generated by SchemaSpy</text>
<!-- leads -->
<g id="node1" class="node">
<title>leads</title>
<g id="a_node1"><a xlink:href="../../tables/leads.html" xlink:title="leads" target="_top">
<polygon fill="#ffffff" stroke="transparent" points="180,-64.5628 180,-257.5628 303,-257.5628 303,-64.5628 180,-64.5628"/>
<polygon fill="#f5f5f5" stroke="transparent" points="180.5,-234.0628 180.5,-257.0628 303.5,-257.0628 303.5,-234.0628 180.5,-234.0628"/>
<polygon fill="none" stroke="#000000" points="180.5,-234.0628 180.5,-257.0628 303.5,-257.0628 303.5,-234.0628 180.5,-234.0628"/>
<text text-anchor="start" x="185.5" y="-243.1628" font-family="Helvetica,sans-Serif" font-weight="bold" font-size="11.00" fill="#000000">leads</text>
<text text-anchor="start" x="268.5437" y="-242.1628" font-family="Helvetica,sans-Serif" font-size="11.00" fill="#000000">[table]</text>
<polygon fill="none" stroke="#000000" points="180.5,-212.0628 180.5,-234.0628 303.5,-234.0628 303.5,-212.0628 180.5,-212.0628"/>
<image xlink:href="../../images/primaryKeys.png" width="11px" height="12px" preserveAspectRatio="xMinYMin meet" x="185.5" y="-229.063"/>
<text text-anchor="start" x="200.5" y="-219.1628" font-family="Helvetica,sans-Serif" font-size="11.00" fill="#000000">lead_id</text>
<polygon fill="none" stroke="#000000" points="180.5,-190.0628 180.5,-212.0628 303.5,-212.0628 303.5,-190.0628 180.5,-190.0628"/>
<image xlink:href="../../images/foreignKeys.png" width="11px" height="12px" preserveAspectRatio="xMinYMin meet" x="185.5" y="-207.063"/>
<text text-anchor="start" x="200.5" y="-197.1628" font-family="Helvetica,sans-Serif" font-size="11.00" fill="#000000">usu_asignado_id</text>
<polygon fill="none" stroke="#000000" points="180.5,-168.0628 180.5,-190.0628 303.5,-190.0628 303.5,-168.0628 180.5,-168.0628"/>
<image xlink:href="../../images/foreignKeys.png" width="11px" height="12px" preserveAspectRatio="xMinYMin meet" x="185.5" y="-185.063"/>
<text text-anchor="start" x="200.5" y="-175.1628" font-family="Helvetica,sans-Serif" font-size="11.00" fill="#000000">campana_id</text>
<polygon fill="none" stroke="#000000" points="180.5,-146.0628 180.5,-168.0628 303.5,-168.0628 303.5,-146.0628 180.5,-146.0628"/>
<image xlink:href="../../images/foreignKeys.png" width="11px" height="12px" preserveAspectRatio="xMinYMin meet" x="185.5" y="-163.063"/>
<text text-anchor="start" x="200.5" y="-153.1628" font-family="Helvetica,sans-Serif" font-size="11.00" fill="#000000">persona_id</text>
<polygon fill="none" stroke="#000000" points="180.5,-124.0628 180.5,-146.0628 303.5,-146.0628 303.5,-124.0628 180.5,-124.0628"/>
<image xlink:href="../../images/foreignKeys.png" width="11px" height="12px" preserveAspectRatio="xMinYMin meet" x="185.5" y="-141.063"/>
<text text-anchor="start" x="200.5" y="-131.1628" font-family="Helvetica,sans-Serif" font-size="11.00" fill="#000000">curso_id</text>
<polygon fill="none" stroke="#000000" points="180.5,-102.0628 180.5,-124.0628 303.5,-124.0628 303.5,-102.0628 180.5,-102.0628"/>
<image xlink:href="../../images/foreignKeys.png" width="11px" height="12px" preserveAspectRatio="xMinYMin meet" x="185.5" y="-119.063"/>
<text text-anchor="start" x="200.5" y="-109.1628" font-family="Helvetica,sans-Serif" font-size="11.00" fill="#000000">ciclo_id</text>
<polygon fill="none" stroke="#000000" points="180.5,-83.0628 180.5,-102.0628 303.5,-102.0628 303.5,-83.0628 180.5,-83.0628"/>
<text text-anchor="start" x="183.5" y="-89.1628" font-family="Helvetica,sans-Serif" font-size="11.00" fill="#000000">...</text>
<polygon fill="#ffffff" stroke="transparent" points="180.5,-64.0628 180.5,-83.0628 222.5,-83.0628 222.5,-64.0628 180.5,-64.0628"/>
<polygon fill="none" stroke="#000000" points="180.5,-64.0628 180.5,-83.0628 222.5,-83.0628 222.5,-64.0628 180.5,-64.0628"/>
<text text-anchor="start" x="183.5" y="-70.1628" font-family="Helvetica,sans-Serif" font-size="11.00" fill="#000000">&lt; 5</text>
<polygon fill="#ffffff" stroke="transparent" points="222.5,-64.0628 222.5,-83.0628 271.5,-83.0628 271.5,-64.0628 222.5,-64.0628"/>
<polygon fill="none" stroke="#000000" points="222.5,-64.0628 222.5,-83.0628 271.5,-83.0628 271.5,-64.0628 222.5,-64.0628"/>
<text text-anchor="start" x="236.1105" y="-70.1628" font-family="Helvetica,sans-Serif" font-size="11.00" fill="#000000">4 rows</text>
<polygon fill="#ffffff" stroke="transparent" points="271.5,-64.0628 271.5,-83.0628 303.5,-83.0628 303.5,-64.0628 271.5,-64.0628"/>
<polygon fill="none" stroke="#000000" points="271.5,-64.0628 271.5,-83.0628 303.5,-83.0628 303.5,-64.0628 271.5,-64.0628"/>
<text text-anchor="start" x="284.9053" y="-70.1628" font-family="Helvetica,sans-Serif" font-size="11.00" fill="#000000">3 &gt;</text>
</a>
</g>
</g>
<!-- usuarios -->
<g id="node2" class="node">
<title>usuarios</title>
<g id="a_node2"><a xlink:href="../../tables/usuarios.html" xlink:title="usuarios" target="_top">
<polygon fill="#ffffff" stroke="transparent" points="8,-49.5628 8,-154.5628 131,-154.5628 131,-49.5628 8,-49.5628"/>
<polygon fill="#f5f5f5" stroke="transparent" points="8.5,-131.0628 8.5,-154.0628 131.5,-154.0628 131.5,-131.0628 8.5,-131.0628"/>
<polygon fill="none" stroke="#000000" points="8.5,-131.0628 8.5,-154.0628 131.5,-154.0628 131.5,-131.0628 8.5,-131.0628"/>
<text text-anchor="start" x="13.5" y="-140.1628" font-family="Helvetica,sans-Serif" font-weight="bold" font-size="11.00" fill="#000000">usuarios</text>
<text text-anchor="start" x="96.5437" y="-139.1628" font-family="Helvetica,sans-Serif" font-size="11.00" fill="#000000">[table]</text>
<polygon fill="none" stroke="#000000" points="8.5,-109.0628 8.5,-131.0628 131.5,-131.0628 131.5,-109.0628 8.5,-109.0628"/>
<image xlink:href="../../images/primaryKeys.png" width="11px" height="12px" preserveAspectRatio="xMinYMin meet" x="13.5" y="-126.063"/>
<text text-anchor="start" x="28.5" y="-116.1628" font-family="Helvetica,sans-Serif" font-size="11.00" fill="#000000">usuario_id</text>
<polygon fill="#ffffff" stroke="transparent" points="8.5,-87.0628 8.5,-109.0628 131.5,-109.0628 131.5,-87.0628 8.5,-87.0628"/>
<polygon fill="none" stroke="#000000" points="8.5,-87.0628 8.5,-109.0628 131.5,-109.0628 131.5,-87.0628 8.5,-87.0628"/>
<text text-anchor="start" x="28.5" y="-94.1628" font-family="Helvetica,sans-Serif" font-size="11.00" fill="#000000">nom_usuario</text>
<polygon fill="none" stroke="#000000" points="8.5,-68.0628 8.5,-87.0628 131.5,-87.0628 131.5,-68.0628 8.5,-68.0628"/>
<text text-anchor="start" x="11.5" y="-74.1628" font-family="Helvetica,sans-Serif" font-size="11.00" fill="#000000">...</text>
<polygon fill="#ffffff" stroke="transparent" points="8.5,-49.0628 8.5,-68.0628 49.5,-68.0628 49.5,-49.0628 8.5,-49.0628"/>
<polygon fill="none" stroke="#000000" points="8.5,-49.0628 8.5,-68.0628 49.5,-68.0628 49.5,-49.0628 8.5,-49.0628"/>
<text text-anchor="start" x="11.5" y="-55.1628" font-family="Helvetica,sans-Serif" font-size="11.00" fill="#000000"> &#160;</text>
<polygon fill="#ffffff" stroke="transparent" points="49.5,-49.0628 49.5,-68.0628 95.5,-68.0628 95.5,-49.0628 49.5,-49.0628"/>
<polygon fill="none" stroke="#000000" points="49.5,-49.0628 49.5,-68.0628 95.5,-68.0628 95.5,-49.0628 49.5,-49.0628"/>
<text text-anchor="start" x="65.6105" y="-55.1628" font-family="Helvetica,sans-Serif" font-size="11.00" fill="#000000">1 row</text>
<polygon fill="#ffffff" stroke="transparent" points="95.5,-49.0628 95.5,-68.0628 131.5,-68.0628 131.5,-49.0628 95.5,-49.0628"/>
<polygon fill="none" stroke="#000000" points="95.5,-49.0628 95.5,-68.0628 131.5,-68.0628 131.5,-49.0628 95.5,-49.0628"/>
<text text-anchor="start" x="112.9053" y="-55.1628" font-family="Helvetica,sans-Serif" font-size="11.00" fill="#000000">6 &gt;</text>
</a>
</g>
</g>
<!-- leads&#45;&gt;usuarios -->
<g id="edge1" class="edge">
<title>leads:w&#45;&gt;usuarios:e</title>
<path fill="none" stroke="#000000" d="M166.6299,-196.4758C146.9726,-179.3407 167.4935,-120.0628 131.5,-120.0628"/>
<polygon fill="#000000" stroke="#000000" points="172.9046,-198.5509 179.3696,-204.4807 176.7023,-199.8068 180.5,-201.0628 180.5,-201.0628 180.5,-201.0628 176.7023,-199.8068 181.6304,-197.6448 172.9046,-198.5509 172.9046,-198.5509"/>
<ellipse fill="none" stroke="#000000" cx="169.8664" cy="-197.5461" rx="3.2" ry="3.2"/>
</g>
<!-- llamadas -->
<g id="node3" class="node">
<title>llamadas</title>
<g id="a_node3"><a xlink:href="../../tables/llamadas.html" xlink:title="llamadas" target="_top">
<polygon fill="#ffffff" stroke="transparent" points="352,-59.0628 352,-391.0628 669,-391.0628 669,-59.0628 352,-59.0628"/>
<polygon fill="#f5f5f5" stroke="transparent" points="354.5,-366.0628 354.5,-389.0628 667.5,-389.0628 667.5,-366.0628 354.5,-366.0628"/>
<polygon fill="none" stroke="#000000" points="354.5,-366.0628 354.5,-389.0628 667.5,-389.0628 667.5,-366.0628 354.5,-366.0628"/>
<text text-anchor="start" x="359.5" y="-375.1628" font-family="Helvetica,sans-Serif" font-weight="bold" font-size="11.00" fill="#000000">llamadas</text>
<text text-anchor="start" x="632.5437" y="-374.1628" font-family="Helvetica,sans-Serif" font-size="11.00" fill="#000000">[table]</text>
<polygon fill="none" stroke="#000000" points="354.5,-344.0628 354.5,-366.0628 477.5,-366.0628 477.5,-344.0628 354.5,-344.0628"/>
<image xlink:href="../../images/primaryKeys.png" width="11px" height="12px" preserveAspectRatio="xMinYMin meet" x="359.5" y="-361.063"/>
<text text-anchor="start" x="374.5" y="-351.1628" font-family="Helvetica,sans-Serif" font-size="11.00" fill="#000000">llamada_id</text>
<polygon fill="none" stroke="#000000" points="477.5,-344.0628 477.5,-366.0628 667.5,-366.0628 667.5,-344.0628 477.5,-344.0628"/>
<text text-anchor="start" x="480.5" y="-351.7628" font-family="Helvetica,sans-Serif" font-size="11.00" fill="#000000">serial[10]</text>
<polygon fill="none" stroke="#000000" points="354.5,-322.0628 354.5,-344.0628 477.5,-344.0628 477.5,-322.0628 354.5,-322.0628"/>
<text text-anchor="start" x="374.5" y="-329.1628" font-family="Helvetica,sans-Serif" font-size="11.00" fill="#000000">asunto</text>
<polygon fill="none" stroke="#000000" points="477.5,-322.0628 477.5,-344.0628 667.5,-344.0628 667.5,-322.0628 477.5,-322.0628"/>
<text text-anchor="start" x="480.5" y="-329.7628" font-family="Helvetica,sans-Serif" font-size="11.00" fill="#000000">varchar[255]</text>
<polygon fill="none" stroke="#000000" points="354.5,-300.0628 354.5,-322.0628 477.5,-322.0628 477.5,-300.0628 354.5,-300.0628"/>
<text text-anchor="start" x="374.5" y="-307.1628" font-family="Helvetica,sans-Serif" font-size="11.00" fill="#000000">estado</text>
<polygon fill="none" stroke="#000000" points="477.5,-300.0628 477.5,-322.0628 667.5,-322.0628 667.5,-300.0628 477.5,-300.0628"/>
<text text-anchor="start" x="480.4905" y="-307.7628" font-family="Helvetica,sans-Serif" font-size="11.00" fill="#000000">enum_llamadas_estado[2147483647]</text>
<polygon fill="none" stroke="#000000" points="354.5,-278.0628 354.5,-300.0628 477.5,-300.0628 477.5,-278.0628 354.5,-278.0628"/>
<text text-anchor="start" x="374.5" y="-285.1628" font-family="Helvetica,sans-Serif" font-size="11.00" fill="#000000">tipo</text>
<polygon fill="none" stroke="#000000" points="477.5,-278.0628 477.5,-300.0628 667.5,-300.0628 667.5,-278.0628 477.5,-278.0628"/>
<text text-anchor="start" x="480.5" y="-285.7628" font-family="Helvetica,sans-Serif" font-size="11.00" fill="#000000">enum_llamadas_tipo[2147483647]</text>
<polygon fill="none" stroke="#000000" points="354.5,-256.0628 354.5,-278.0628 477.5,-278.0628 477.5,-256.0628 354.5,-256.0628"/>
<text text-anchor="start" x="374.5" y="-263.1628" font-family="Helvetica,sans-Serif" font-size="11.00" fill="#000000">fec_inicio</text>
<polygon fill="none" stroke="#000000" points="477.5,-256.0628 477.5,-278.0628 667.5,-278.0628 667.5,-256.0628 477.5,-256.0628"/>
<text text-anchor="start" x="480.5" y="-263.7628" font-family="Helvetica,sans-Serif" font-size="11.00" fill="#000000">timestamptz[35,6]</text>
<polygon fill="none" stroke="#000000" points="354.5,-234.0628 354.5,-256.0628 477.5,-256.0628 477.5,-234.0628 354.5,-234.0628"/>
<image xlink:href="../../images/foreignKeys.png" width="11px" height="12px" preserveAspectRatio="xMinYMin meet" x="359.5" y="-251.063"/>
<text text-anchor="start" x="374.5" y="-241.1628" font-family="Helvetica,sans-Serif" font-size="11.00" fill="#000000">contacto_id</text>
<polygon fill="none" stroke="#000000" points="477.5,-234.0628 477.5,-256.0628 667.5,-256.0628 667.5,-234.0628 477.5,-234.0628"/>
<text text-anchor="start" x="480.5" y="-241.7628" font-family="Helvetica,sans-Serif" font-size="11.00" fill="#000000">int4[10]</text>
<polygon fill="none" stroke="#000000" points="354.5,-212.0628 354.5,-234.0628 477.5,-234.0628 477.5,-212.0628 354.5,-212.0628"/>
<image xlink:href="../../images/foreignKeys.png" width="11px" height="12px" preserveAspectRatio="xMinYMin meet" x="359.5" y="-229.063"/>
<text text-anchor="start" x="374.5" y="-219.1628" font-family="Helvetica,sans-Serif" font-size="11.00" fill="#000000">lead_id</text>
<polygon fill="none" stroke="#000000" points="477.5,-212.0628 477.5,-234.0628 667.5,-234.0628 667.5,-212.0628 477.5,-212.0628"/>
<text text-anchor="start" x="480.5" y="-219.7628" font-family="Helvetica,sans-Serif" font-size="11.00" fill="#000000">int4[10]</text>
<polygon fill="none" stroke="#000000" points="354.5,-190.0628 354.5,-212.0628 477.5,-212.0628 477.5,-190.0628 354.5,-190.0628"/>
<text text-anchor="start" x="374.5" y="-197.1628" font-family="Helvetica,sans-Serif" font-size="11.00" fill="#000000">descripcion</text>
<polygon fill="none" stroke="#000000" points="477.5,-190.0628 477.5,-212.0628 667.5,-212.0628 667.5,-190.0628 477.5,-190.0628"/>
<text text-anchor="start" x="480.5" y="-197.7628" font-family="Helvetica,sans-Serif" font-size="11.00" fill="#000000">text[2147483647]</text>
<polygon fill="none" stroke="#000000" points="354.5,-168.0628 354.5,-190.0628 477.5,-190.0628 477.5,-168.0628 354.5,-168.0628"/>
<text text-anchor="start" x="374.5" y="-175.1628" font-family="Helvetica,sans-Serif" font-size="11.00" fill="#000000">usu_insercion</text>
<polygon fill="none" stroke="#000000" points="477.5,-168.0628 477.5,-190.0628 667.5,-190.0628 667.5,-168.0628 477.5,-168.0628"/>
<text text-anchor="start" x="480.5" y="-175.7628" font-family="Helvetica,sans-Serif" font-size="11.00" fill="#000000">varchar[20]</text>
<polygon fill="none" stroke="#000000" points="354.5,-146.0628 354.5,-168.0628 477.5,-168.0628 477.5,-146.0628 354.5,-146.0628"/>
<text text-anchor="start" x="374.5" y="-153.1628" font-family="Helvetica,sans-Serif" font-size="11.00" fill="#000000">fec_insercion</text>
<polygon fill="none" stroke="#000000" points="477.5,-146.0628 477.5,-168.0628 667.5,-168.0628 667.5,-146.0628 477.5,-146.0628"/>
<text text-anchor="start" x="480.5" y="-153.7628" font-family="Helvetica,sans-Serif" font-size="11.00" fill="#000000">timestamptz[35,6]</text>
<polygon fill="none" stroke="#000000" points="354.5,-124.0628 354.5,-146.0628 477.5,-146.0628 477.5,-124.0628 354.5,-124.0628"/>
<text text-anchor="start" x="374.5" y="-131.1628" font-family="Helvetica,sans-Serif" font-size="11.00" fill="#000000">fec_modificacion</text>
<polygon fill="none" stroke="#000000" points="477.5,-124.0628 477.5,-146.0628 667.5,-146.0628 667.5,-124.0628 477.5,-124.0628"/>
<text text-anchor="start" x="480.5" y="-131.7628" font-family="Helvetica,sans-Serif" font-size="11.00" fill="#000000">timestamptz[35,6]</text>
<polygon fill="none" stroke="#000000" points="354.5,-102.0628 354.5,-124.0628 477.5,-124.0628 477.5,-102.0628 354.5,-102.0628"/>
<text text-anchor="start" x="374.5" y="-109.1628" font-family="Helvetica,sans-Serif" font-size="11.00" fill="#000000">usu_modificacion</text>
<polygon fill="none" stroke="#000000" points="477.5,-102.0628 477.5,-124.0628 667.5,-124.0628 667.5,-102.0628 477.5,-102.0628"/>
<text text-anchor="start" x="480.5" y="-109.7628" font-family="Helvetica,sans-Serif" font-size="11.00" fill="#000000">varchar[20]</text>
<polygon fill="none" stroke="#000000" points="354.5,-80.0628 354.5,-102.0628 477.5,-102.0628 477.5,-80.0628 354.5,-80.0628"/>
<image xlink:href="../../images/foreignKeys.png" width="11px" height="12px" preserveAspectRatio="xMinYMin meet" x="359.5" y="-97.0628"/>
<text text-anchor="start" x="374.5" y="-87.1628" font-family="Helvetica,sans-Serif" font-size="11.00" fill="#000000">usu_asignado_id</text>
<polygon fill="none" stroke="#000000" points="477.5,-80.0628 477.5,-102.0628 667.5,-102.0628 667.5,-80.0628 477.5,-80.0628"/>
<text text-anchor="start" x="480.5" y="-87.7628" font-family="Helvetica,sans-Serif" font-size="11.00" fill="#000000">int4[10]</text>
<polygon fill="#ffffff" stroke="transparent" points="354.5,-61.0628 354.5,-80.0628 407.5,-80.0628 407.5,-61.0628 354.5,-61.0628"/>
<polygon fill="none" stroke="#000000" points="354.5,-61.0628 354.5,-80.0628 407.5,-80.0628 407.5,-61.0628 354.5,-61.0628"/>
<text text-anchor="start" x="357.5" y="-67.1628" font-family="Helvetica,sans-Serif" font-size="11.00" fill="#000000">&lt; 3</text>
<polygon fill="#ffffff" stroke="transparent" points="407.5,-61.0628 407.5,-80.0628 477.5,-80.0628 477.5,-61.0628 407.5,-61.0628"/>
<polygon fill="none" stroke="#000000" points="407.5,-61.0628 407.5,-80.0628 477.5,-80.0628 477.5,-61.0628 407.5,-61.0628"/>
<text text-anchor="start" x="442.1105" y="-67.1628" font-family="Helvetica,sans-Serif" font-size="11.00" fill="#000000">0 rows</text>
<polygon fill="#ffffff" stroke="transparent" points="477.5,-61.0628 477.5,-80.0628 667.5,-80.0628 667.5,-61.0628 477.5,-61.0628"/>
<polygon fill="none" stroke="#000000" points="477.5,-61.0628 477.5,-80.0628 667.5,-80.0628 667.5,-61.0628 477.5,-61.0628"/>
<text text-anchor="start" x="648.9053" y="-67.1628" font-family="Helvetica,sans-Serif" font-size="11.00" fill="#000000">0 &gt;</text>
<polygon fill="none" stroke="#000000" stroke-width="2" points="353,-60.0628 353,-390.0628 668,-390.0628 668,-60.0628 353,-60.0628"/>
</a>
</g>
</g>
<!-- llamadas&#45;&gt;leads -->
<g id="edge3" class="edge">
<title>llamadas:w&#45;&gt;leads:e</title>
<path fill="none" stroke="#000000" d="M339.776,-223.0628C327.7815,-223.0628 320.3229,-223.0628 303.5,-223.0628"/>
<polygon fill="#000000" stroke="#000000" points="346.5,-223.0628 354.5,-226.6628 350.5,-223.0628 354.5,-223.0628 354.5,-223.0628 354.5,-223.0628 350.5,-223.0628 354.5,-219.4628 346.5,-223.0628 346.5,-223.0628"/>
<ellipse fill="none" stroke="#000000" cx="343.3" cy="-223.0629" rx="3.2" ry="3.2"/>
</g>
<!-- llamadas&#45;&gt;usuarios -->
<g id="edge4" class="edge">
<title>llamadas:w&#45;&gt;usuarios:e</title>
<path fill="none" stroke="#000000" d="M340.6677,-86.7715C330.1493,-78.5269 329.052,-60.7017 311,-54.0628 253.0189,-32.7393 225.91,-23.8932 172,-54.0628 141.9673,-70.8699 165.9158,-120.0628 131.5,-120.0628"/>
<polygon fill="#000000" stroke="#000000" points="346.8592,-88.6923 353.4333,-94.5011 350.6796,-89.8775 354.5,-91.0628 354.5,-91.0628 354.5,-91.0628 350.6796,-89.8775 355.5667,-87.6244 346.8592,-88.6923 346.8592,-88.6923"/>
<ellipse fill="none" stroke="#000000" cx="343.8029" cy="-87.7441" rx="3.2" ry="3.2"/>
</g>
<!-- contactos -->
<g id="node4" class="node">
<title>contactos</title>
<g id="a_node4"><a xlink:href="../../tables/contactos.html" xlink:title="contactos" target="_top">
<polygon fill="#ffffff" stroke="transparent" points="180,-278.5628 180,-405.5628 303,-405.5628 303,-278.5628 180,-278.5628"/>
<polygon fill="#f5f5f5" stroke="transparent" points="180.5,-382.0628 180.5,-405.0628 303.5,-405.0628 303.5,-382.0628 180.5,-382.0628"/>
<polygon fill="none" stroke="#000000" points="180.5,-382.0628 180.5,-405.0628 303.5,-405.0628 303.5,-382.0628 180.5,-382.0628"/>
<text text-anchor="start" x="185.5" y="-391.1628" font-family="Helvetica,sans-Serif" font-weight="bold" font-size="11.00" fill="#000000">contactos</text>
<text text-anchor="start" x="268.5437" y="-390.1628" font-family="Helvetica,sans-Serif" font-size="11.00" fill="#000000">[table]</text>
<polygon fill="none" stroke="#000000" points="180.5,-360.0628 180.5,-382.0628 303.5,-382.0628 303.5,-360.0628 180.5,-360.0628"/>
<image xlink:href="../../images/primaryKeys.png" width="11px" height="12px" preserveAspectRatio="xMinYMin meet" x="185.5" y="-377.063"/>
<text text-anchor="start" x="200.5" y="-367.1628" font-family="Helvetica,sans-Serif" font-size="11.00" fill="#000000">contacto_id</text>
<polygon fill="none" stroke="#000000" points="180.5,-338.0628 180.5,-360.0628 303.5,-360.0628 303.5,-338.0628 180.5,-338.0628"/>
<image xlink:href="../../images/foreignKeys.png" width="11px" height="12px" preserveAspectRatio="xMinYMin meet" x="185.5" y="-355.063"/>
<text text-anchor="start" x="200.5" y="-345.1628" font-family="Helvetica,sans-Serif" font-size="11.00" fill="#000000">persona_id</text>
<polygon fill="none" stroke="#000000" points="180.5,-316.0628 180.5,-338.0628 303.5,-338.0628 303.5,-316.0628 180.5,-316.0628"/>
<image xlink:href="../../images/foreignKeys.png" width="11px" height="12px" preserveAspectRatio="xMinYMin meet" x="185.5" y="-333.063"/>
<text text-anchor="start" x="200.5" y="-323.1628" font-family="Helvetica,sans-Serif" font-size="11.00" fill="#000000">organizacion_id</text>
<polygon fill="none" stroke="#000000" points="180.5,-297.0628 180.5,-316.0628 303.5,-316.0628 303.5,-297.0628 180.5,-297.0628"/>
<text text-anchor="start" x="183.5" y="-303.1628" font-family="Helvetica,sans-Serif" font-size="11.00" fill="#000000">...</text>
<polygon fill="#ffffff" stroke="transparent" points="180.5,-278.0628 180.5,-297.0628 222.5,-297.0628 222.5,-278.0628 180.5,-278.0628"/>
<polygon fill="none" stroke="#000000" points="180.5,-278.0628 180.5,-297.0628 222.5,-297.0628 222.5,-278.0628 180.5,-278.0628"/>
<text text-anchor="start" x="183.5" y="-284.1628" font-family="Helvetica,sans-Serif" font-size="11.00" fill="#000000">&lt; 2</text>
<polygon fill="#ffffff" stroke="transparent" points="222.5,-278.0628 222.5,-297.0628 271.5,-297.0628 271.5,-278.0628 222.5,-278.0628"/>
<polygon fill="none" stroke="#000000" points="222.5,-278.0628 222.5,-297.0628 271.5,-297.0628 271.5,-278.0628 222.5,-278.0628"/>
<text text-anchor="start" x="236.1105" y="-284.1628" font-family="Helvetica,sans-Serif" font-size="11.00" fill="#000000">5 rows</text>
<polygon fill="#ffffff" stroke="transparent" points="271.5,-278.0628 271.5,-297.0628 303.5,-297.0628 303.5,-278.0628 271.5,-278.0628"/>
<polygon fill="none" stroke="#000000" points="271.5,-278.0628 271.5,-297.0628 303.5,-297.0628 303.5,-278.0628 271.5,-278.0628"/>
<text text-anchor="start" x="284.9053" y="-284.1628" font-family="Helvetica,sans-Serif" font-size="11.00" fill="#000000">5 &gt;</text>
</a>
</g>
</g>
<!-- llamadas&#45;&gt;contactos -->
<g id="edge2" class="edge">
<title>llamadas:w&#45;&gt;contactos:e</title>
<path fill="none" stroke="#000000" d="M340.2844,-248.433C306.4826,-268.4705 358.0136,-371.0628 303.5,-371.0628"/>
<polygon fill="#000000" stroke="#000000" points="346.7158,-246.9083 355.3305,-248.5657 350.6079,-245.9855 354.5,-245.0628 354.5,-245.0628 354.5,-245.0628 350.6079,-245.9855 353.6695,-241.5599 346.7158,-246.9083 346.7158,-246.9083"/>
<ellipse fill="none" stroke="#000000" cx="343.6021" cy="-247.6465" rx="3.2" ry="3.2"/>
</g>
</g>
</svg>
