<?xml version="1.0" encoding="UTF-8" standalone="no"?>
<!DOCTYPE svg PUBLIC "-//W3C//DTD SVG 1.1//EN"
 "http://www.w3.org/Graphics/SVG/1.1/DTD/svg11.dtd">
<!-- Generated by graphviz version 2.40.1 (20161225.0304)
 -->
<!-- Title: oneDegreeRelationshipsDiagram Pages: 1 -->
<svg width="846pt" height="376pt"
 viewBox="0.00 0.00 846.00 375.70" xmlns="http://www.w3.org/2000/svg" xmlns:xlink="http://www.w3.org/1999/xlink">
<g id="graph0" class="graph" transform="scale(1 1) rotate(0) translate(4 371.7)">
<title>oneDegreeRelationshipsDiagram</title>
<polygon fill="#ffffff" stroke="transparent" points="-4,4 -4,-371.7 842,-371.7 842,4 -4,4"/>
<text text-anchor="middle" x="72.4936" y="-7.3" font-family="Helvetica,sans-Serif" font-size="11.00" fill="#000000">Generated by SchemaSpy</text>
<!-- campanas -->
<g id="node1" class="node">
<title>campanas</title>
<g id="a_node1"><a xlink:href="../../tables/campanas.html" xlink:title="campanas" target="_top">
<polygon fill="#ffffff" stroke="transparent" points="197,-192.7 197,-363.7 337,-363.7 337,-192.7 197,-192.7"/>
<polygon fill="#f5f5f5" stroke="transparent" points="197,-340.2 197,-363.2 337,-363.2 337,-340.2 197,-340.2"/>
<polygon fill="none" stroke="#000000" points="197,-340.2 197,-363.2 337,-363.2 337,-340.2 197,-340.2"/>
<text text-anchor="start" x="202" y="-349.3" font-family="Helvetica,sans-Serif" font-weight="bold" font-size="11.00" fill="#000000">campanas</text>
<text text-anchor="start" x="302.0437" y="-348.3" font-family="Helvetica,sans-Serif" font-size="11.00" fill="#000000">[table]</text>
<polygon fill="none" stroke="#000000" points="197,-318.2 197,-340.2 337,-340.2 337,-318.2 197,-318.2"/>
<image xlink:href="../../images/primaryKeys.png" width="11px" height="12px" preserveAspectRatio="xMinYMin meet" x="202" y="-335.2"/>
<text text-anchor="start" x="217" y="-325.3" font-family="Helvetica,sans-Serif" font-size="11.00" fill="#000000">campana_id</text>
<polygon fill="none" stroke="#000000" points="197,-296.2 197,-318.2 337,-318.2 337,-296.2 197,-296.2"/>
<image xlink:href="../../images/foreignKeys.png" width="11px" height="12px" preserveAspectRatio="xMinYMin meet" x="202" y="-313.2"/>
<text text-anchor="start" x="217" y="-303.3" font-family="Helvetica,sans-Serif" font-size="11.00" fill="#000000">usu_asignado_id</text>
<polygon fill="none" stroke="#000000" points="197,-274.2 197,-296.2 337,-296.2 337,-274.2 197,-274.2"/>
<image xlink:href="../../images/foreignKeys.png" width="11px" height="12px" preserveAspectRatio="xMinYMin meet" x="202" y="-291.2"/>
<text text-anchor="start" x="217" y="-281.3" font-family="Helvetica,sans-Serif" font-size="11.00" fill="#000000">usu_insercion_id</text>
<polygon fill="none" stroke="#000000" points="197,-252.2 197,-274.2 337,-274.2 337,-252.2 197,-252.2"/>
<image xlink:href="../../images/foreignKeys.png" width="11px" height="12px" preserveAspectRatio="xMinYMin meet" x="202" y="-269.2"/>
<text text-anchor="start" x="217" y="-259.3" font-family="Helvetica,sans-Serif" font-size="11.00" fill="#000000">usu_modificacion_id</text>
<polygon fill="none" stroke="#000000" points="197,-230.2 197,-252.2 337,-252.2 337,-230.2 197,-230.2"/>
<image xlink:href="../../images/foreignKeys.png" width="11px" height="12px" preserveAspectRatio="xMinYMin meet" x="202" y="-247.2"/>
<text text-anchor="start" x="217" y="-237.3" font-family="Helvetica,sans-Serif" font-size="11.00" fill="#000000">usu_eliminacion_id</text>
<polygon fill="none" stroke="#000000" points="197,-211.2 197,-230.2 337,-230.2 337,-211.2 197,-211.2"/>
<text text-anchor="start" x="200" y="-217.3" font-family="Helvetica,sans-Serif" font-size="11.00" fill="#000000">...</text>
<polygon fill="#ffffff" stroke="transparent" points="197,-192.2 197,-211.2 248,-211.2 248,-192.2 197,-192.2"/>
<polygon fill="none" stroke="#000000" points="197,-192.2 197,-211.2 248,-211.2 248,-192.2 197,-192.2"/>
<text text-anchor="start" x="200" y="-198.3" font-family="Helvetica,sans-Serif" font-size="11.00" fill="#000000">&lt; 4</text>
<polygon fill="#ffffff" stroke="transparent" points="248,-192.2 248,-211.2 301,-211.2 301,-192.2 248,-192.2"/>
<polygon fill="none" stroke="#000000" points="248,-192.2 248,-211.2 301,-211.2 301,-192.2 248,-192.2"/>
<text text-anchor="start" x="265.6105" y="-198.3" font-family="Helvetica,sans-Serif" font-size="11.00" fill="#000000">0 rows</text>
<polygon fill="#ffffff" stroke="transparent" points="301,-192.2 301,-211.2 337,-211.2 337,-192.2 301,-192.2"/>
<polygon fill="none" stroke="#000000" points="301,-192.2 301,-211.2 337,-211.2 337,-192.2 301,-192.2"/>
<text text-anchor="start" x="318.4053" y="-198.3" font-family="Helvetica,sans-Serif" font-size="11.00" fill="#000000">1 &gt;</text>
</a>
</g>
</g>
<!-- usuarios -->
<g id="node2" class="node">
<title>usuarios</title>
<g id="a_node2"><a xlink:href="../../tables/usuarios.html" xlink:title="usuarios" target="_top">
<polygon fill="#ffffff" stroke="transparent" points="8,-67.7 8,-238.7 148,-238.7 148,-67.7 8,-67.7"/>
<polygon fill="#f5f5f5" stroke="transparent" points="8,-215.2 8,-238.2 148,-238.2 148,-215.2 8,-215.2"/>
<polygon fill="none" stroke="#000000" points="8,-215.2 8,-238.2 148,-238.2 148,-215.2 8,-215.2"/>
<text text-anchor="start" x="13" y="-224.3" font-family="Helvetica,sans-Serif" font-weight="bold" font-size="11.00" fill="#000000">usuarios</text>
<text text-anchor="start" x="113.0437" y="-223.3" font-family="Helvetica,sans-Serif" font-size="11.00" fill="#000000">[table]</text>
<polygon fill="none" stroke="#000000" points="8,-193.2 8,-215.2 148,-215.2 148,-193.2 8,-193.2"/>
<image xlink:href="../../images/primaryKeys.png" width="11px" height="12px" preserveAspectRatio="xMinYMin meet" x="13" y="-210.2"/>
<text text-anchor="start" x="28" y="-200.3" font-family="Helvetica,sans-Serif" font-size="11.00" fill="#000000">usuario_id</text>
<polygon fill="none" stroke="#000000" points="8,-171.2 8,-193.2 148,-193.2 148,-171.2 8,-171.2"/>
<image xlink:href="../../images/foreignKeys.png" width="11px" height="12px" preserveAspectRatio="xMinYMin meet" x="13" y="-188.2"/>
<text text-anchor="start" x="28" y="-178.3" font-family="Helvetica,sans-Serif" font-size="11.00" fill="#000000">persona_id</text>
<polygon fill="none" stroke="#000000" points="8,-149.2 8,-171.2 148,-171.2 148,-149.2 8,-149.2"/>
<image xlink:href="../../images/foreignKeys.png" width="11px" height="12px" preserveAspectRatio="xMinYMin meet" x="13" y="-166.2"/>
<text text-anchor="start" x="28" y="-156.3" font-family="Helvetica,sans-Serif" font-size="11.00" fill="#000000">usu_insercion_id</text>
<polygon fill="none" stroke="#000000" points="8,-127.2 8,-149.2 148,-149.2 148,-127.2 8,-127.2"/>
<image xlink:href="../../images/foreignKeys.png" width="11px" height="12px" preserveAspectRatio="xMinYMin meet" x="13" y="-144.2"/>
<text text-anchor="start" x="28" y="-134.3" font-family="Helvetica,sans-Serif" font-size="11.00" fill="#000000">usu_modificacion_id</text>
<polygon fill="none" stroke="#000000" points="8,-105.2 8,-127.2 148,-127.2 148,-105.2 8,-105.2"/>
<image xlink:href="../../images/foreignKeys.png" width="11px" height="12px" preserveAspectRatio="xMinYMin meet" x="13" y="-122.2"/>
<text text-anchor="start" x="28" y="-112.3" font-family="Helvetica,sans-Serif" font-size="11.00" fill="#000000">usu_eliminacion_id</text>
<polygon fill="none" stroke="#000000" points="8,-86.2 8,-105.2 148,-105.2 148,-86.2 8,-86.2"/>
<text text-anchor="start" x="11" y="-92.3" font-family="Helvetica,sans-Serif" font-size="11.00" fill="#000000">...</text>
<polygon fill="#ffffff" stroke="transparent" points="8,-67.2 8,-86.2 56,-86.2 56,-67.2 8,-67.2"/>
<polygon fill="none" stroke="#000000" points="8,-67.2 8,-86.2 56,-86.2 56,-67.2 8,-67.2"/>
<text text-anchor="start" x="11" y="-73.3" font-family="Helvetica,sans-Serif" font-size="11.00" fill="#000000">&lt; 4</text>
<polygon fill="#ffffff" stroke="transparent" points="56,-67.2 56,-86.2 107,-86.2 107,-67.2 56,-67.2"/>
<polygon fill="none" stroke="#000000" points="56,-67.2 56,-86.2 107,-86.2 107,-67.2 56,-67.2"/>
<text text-anchor="start" x="71.6105" y="-73.3" font-family="Helvetica,sans-Serif" font-size="11.00" fill="#000000">0 rows</text>
<polygon fill="#ffffff" stroke="transparent" points="107,-67.2 107,-86.2 148,-86.2 148,-67.2 107,-67.2"/>
<polygon fill="none" stroke="#000000" points="107,-67.2 107,-86.2 148,-86.2 148,-67.2 107,-67.2"/>
<text text-anchor="start" x="123.2904" y="-73.3" font-family="Helvetica,sans-Serif" font-size="11.00" fill="#000000">19 &gt;</text>
</a>
</g>
</g>
<!-- campanas&#45;&gt;usuarios -->
<g id="edge1" class="edge">
<title>campanas:w&#45;&gt;usuarios:e</title>
<path fill="none" stroke="#000000" d="M183.093,-303.2881C157.1689,-284.4739 192.7533,-204.2 148,-204.2"/>
<polygon fill="#000000" stroke="#000000" points="189.2989,-305.0337 196.0252,-310.6655 193.1494,-306.1168 197,-307.2 197,-307.2 197,-307.2 193.1494,-306.1168 197.9748,-303.7345 189.2989,-305.0337 189.2989,-305.0337"/>
<ellipse fill="none" stroke="#000000" cx="186.2184" cy="-304.1672" rx="3.2" ry="3.2"/>
</g>
<!-- campanas&#45;&gt;usuarios -->
<g id="edge2" class="edge">
<title>campanas:w&#45;&gt;usuarios:e</title>
<path fill="none" stroke="#000000" d="M183.1217,-236.6631C170.5786,-226.783 169.3196,-204.2 148,-204.2"/>
<polygon fill="#000000" stroke="#000000" points="189.396,-238.7142 195.8814,-244.6218 193.198,-239.9571 197,-241.2 197,-241.2 197,-241.2 193.198,-239.9571 198.1186,-237.7782 189.396,-238.7142 189.396,-238.7142"/>
<ellipse fill="none" stroke="#000000" cx="186.3544" cy="-237.7198" rx="3.2" ry="3.2"/>
</g>
<!-- campanas&#45;&gt;usuarios -->
<g id="edge3" class="edge">
<title>campanas:w&#45;&gt;usuarios:e</title>
<path fill="none" stroke="#000000" d="M183.1299,-280.613C163.4726,-263.478 183.9935,-204.2 148,-204.2"/>
<polygon fill="#000000" stroke="#000000" points="189.4046,-282.6881 195.8696,-288.6179 193.2023,-283.944 197,-285.2 197,-285.2 197,-285.2 193.2023,-283.944 198.1304,-281.7821 189.4046,-282.6881 189.4046,-282.6881"/>
<ellipse fill="none" stroke="#000000" cx="186.3664" cy="-281.6833" rx="3.2" ry="3.2"/>
</g>
<!-- campanas&#45;&gt;usuarios -->
<g id="edge4" class="edge">
<title>campanas:w&#45;&gt;usuarios:e</title>
<path fill="none" stroke="#000000" d="M183.1662,-258.1697C168.0842,-243.9018 175.9614,-204.2 148,-204.2"/>
<polygon fill="#000000" stroke="#000000" points="189.4816,-260.4661 195.7697,-266.5833 193.2408,-261.8331 197,-263.2 197,-263.2 197,-263.2 193.2408,-261.8331 198.2303,-259.8167 189.4816,-260.4661 189.4816,-260.4661"/>
<ellipse fill="none" stroke="#000000" cx="186.4743" cy="-259.3725" rx="3.2" ry="3.2"/>
</g>
<!-- contactos_oportunidades -->
<g id="node3" class="node">
<title>contactos_oportunidades</title>
<g id="a_node3"><a xlink:href="../../tables/contactos_oportunidades.html" xlink:title="contactos_oportunidades" target="_top">
<polygon fill="#ffffff" stroke="transparent" points="663,-241.7 663,-346.7 830,-346.7 830,-241.7 663,-241.7"/>
<polygon fill="#f5f5f5" stroke="transparent" points="663.5,-323.2 663.5,-346.2 830.5,-346.2 830.5,-323.2 663.5,-323.2"/>
<polygon fill="none" stroke="#000000" points="663.5,-323.2 663.5,-346.2 830.5,-346.2 830.5,-323.2 663.5,-323.2"/>
<text text-anchor="start" x="668.5" y="-332.3" font-family="Helvetica,sans-Serif" font-weight="bold" font-size="11.00" fill="#000000">contactos_oportunidades</text>
<text text-anchor="start" x="795.5437" y="-331.3" font-family="Helvetica,sans-Serif" font-size="11.00" fill="#000000">[table]</text>
<polygon fill="none" stroke="#000000" points="663.5,-301.2 663.5,-323.2 830.5,-323.2 830.5,-301.2 663.5,-301.2"/>
<image xlink:href="../../images/foreignKeys.png" width="11px" height="12px" preserveAspectRatio="xMinYMin meet" x="668.5" y="-318.2"/>
<text text-anchor="start" x="683.5" y="-308.3" font-family="Helvetica,sans-Serif" font-size="11.00" fill="#000000">contacto_id</text>
<polygon fill="none" stroke="#000000" points="663.5,-279.2 663.5,-301.2 830.5,-301.2 830.5,-279.2 663.5,-279.2"/>
<image xlink:href="../../images/foreignKeys.png" width="11px" height="12px" preserveAspectRatio="xMinYMin meet" x="668.5" y="-296.2"/>
<text text-anchor="start" x="683.5" y="-286.3" font-family="Helvetica,sans-Serif" font-size="11.00" fill="#000000">oportunidad_id</text>
<polygon fill="none" stroke="#000000" points="663.5,-260.2 663.5,-279.2 830.5,-279.2 830.5,-260.2 663.5,-260.2"/>
<text text-anchor="start" x="666.5" y="-266.3" font-family="Helvetica,sans-Serif" font-size="11.00" fill="#000000">...</text>
<polygon fill="#ffffff" stroke="transparent" points="663.5,-241.2 663.5,-260.2 732.5,-260.2 732.5,-241.2 663.5,-241.2"/>
<polygon fill="none" stroke="#000000" points="663.5,-241.2 663.5,-260.2 732.5,-260.2 732.5,-241.2 663.5,-241.2"/>
<text text-anchor="start" x="666.5" y="-247.3" font-family="Helvetica,sans-Serif" font-size="11.00" fill="#000000">&lt; 2</text>
<polygon fill="#ffffff" stroke="transparent" points="732.5,-241.2 732.5,-260.2 794.5,-260.2 794.5,-241.2 732.5,-241.2"/>
<polygon fill="none" stroke="#000000" points="732.5,-241.2 732.5,-260.2 794.5,-260.2 794.5,-241.2 732.5,-241.2"/>
<text text-anchor="start" x="759.1105" y="-247.3" font-family="Helvetica,sans-Serif" font-size="11.00" fill="#000000">0 rows</text>
<polygon fill="#ffffff" stroke="transparent" points="794.5,-241.2 794.5,-260.2 830.5,-260.2 830.5,-241.2 794.5,-241.2"/>
<polygon fill="none" stroke="#000000" points="794.5,-241.2 794.5,-260.2 830.5,-260.2 830.5,-241.2 794.5,-241.2"/>
<text text-anchor="start" x="821.3862" y="-247.3" font-family="Helvetica,sans-Serif" font-size="11.00" fill="#000000"> &#160;</text>
</a>
</g>
</g>
<!-- oportunidades -->
<g id="node4" class="node">
<title>oportunidades</title>
<g id="a_node4"><a xlink:href="../../tables/oportunidades.html" xlink:title="oportunidades" target="_top">
<polygon fill="#ffffff" stroke="transparent" points="386,-38.2 386,-326.2 614,-326.2 614,-38.2 386,-38.2"/>
<polygon fill="#f5f5f5" stroke="transparent" points="388,-301.2 388,-324.2 612,-324.2 612,-301.2 388,-301.2"/>
<polygon fill="none" stroke="#000000" points="388,-301.2 388,-324.2 612,-324.2 612,-301.2 388,-301.2"/>
<text text-anchor="start" x="393" y="-310.3" font-family="Helvetica,sans-Serif" font-weight="bold" font-size="11.00" fill="#000000">oportunidades</text>
<text text-anchor="start" x="577.0437" y="-309.3" font-family="Helvetica,sans-Serif" font-size="11.00" fill="#000000">[table]</text>
<polygon fill="none" stroke="#000000" points="388,-279.2 388,-301.2 528,-301.2 528,-279.2 388,-279.2"/>
<image xlink:href="../../images/primaryKeys.png" width="11px" height="12px" preserveAspectRatio="xMinYMin meet" x="393" y="-296.2"/>
<text text-anchor="start" x="408" y="-286.3" font-family="Helvetica,sans-Serif" font-size="11.00" fill="#000000">oportunidad_id</text>
<polygon fill="none" stroke="#000000" points="528,-279.2 528,-301.2 612,-301.2 612,-279.2 528,-279.2"/>
<text text-anchor="start" x="531" y="-286.9" font-family="Helvetica,sans-Serif" font-size="11.00" fill="#000000">int4[10]</text>
<polygon fill="none" stroke="#000000" points="388,-257.2 388,-279.2 528,-279.2 528,-257.2 388,-257.2"/>
<image xlink:href="../../images/foreignKeys.png" width="11px" height="12px" preserveAspectRatio="xMinYMin meet" x="393" y="-274.2"/>
<text text-anchor="start" x="408" y="-264.3" font-family="Helvetica,sans-Serif" font-size="11.00" fill="#000000">campana_id</text>
<polygon fill="none" stroke="#000000" points="528,-257.2 528,-279.2 612,-279.2 612,-257.2 528,-257.2"/>
<text text-anchor="start" x="531" y="-264.9" font-family="Helvetica,sans-Serif" font-size="11.00" fill="#000000">int4[10]</text>
<polygon fill="none" stroke="#000000" points="388,-235.2 388,-257.2 528,-257.2 528,-235.2 388,-235.2"/>
<image xlink:href="../../images/foreignKeys.png" width="11px" height="12px" preserveAspectRatio="xMinYMin meet" x="393" y="-252.2"/>
<text text-anchor="start" x="408" y="-242.3" font-family="Helvetica,sans-Serif" font-size="11.00" fill="#000000">usu_asignado_id</text>
<polygon fill="none" stroke="#000000" points="528,-235.2 528,-257.2 612,-257.2 612,-235.2 528,-235.2"/>
<text text-anchor="start" x="531" y="-242.9" font-family="Helvetica,sans-Serif" font-size="11.00" fill="#000000">int4[10]</text>
<polygon fill="none" stroke="#000000" points="388,-213.2 388,-235.2 528,-235.2 528,-213.2 388,-213.2"/>
<text text-anchor="start" x="408" y="-220.3" font-family="Helvetica,sans-Serif" font-size="11.00" fill="#000000">nombre</text>
<polygon fill="none" stroke="#000000" points="528,-213.2 528,-235.2 612,-235.2 612,-213.2 528,-213.2"/>
<text text-anchor="start" x="531" y="-220.9" font-family="Helvetica,sans-Serif" font-size="11.00" fill="#000000">varchar[120]</text>
<polygon fill="none" stroke="#000000" points="388,-191.2 388,-213.2 528,-213.2 528,-191.2 388,-191.2"/>
<text text-anchor="start" x="408" y="-198.3" font-family="Helvetica,sans-Serif" font-size="11.00" fill="#000000">etapa</text>
<polygon fill="none" stroke="#000000" points="528,-191.2 528,-213.2 612,-213.2 612,-191.2 528,-191.2"/>
<text text-anchor="start" x="531" y="-198.9" font-family="Helvetica,sans-Serif" font-size="11.00" fill="#000000">int4[10]</text>
<polygon fill="none" stroke="#000000" points="388,-169.2 388,-191.2 528,-191.2 528,-169.2 388,-169.2"/>
<text text-anchor="start" x="408" y="-176.3" font-family="Helvetica,sans-Serif" font-size="11.00" fill="#000000">fec_insercion</text>
<polygon fill="none" stroke="#000000" points="528,-169.2 528,-191.2 612,-191.2 612,-169.2 528,-169.2"/>
<text text-anchor="start" x="530.8807" y="-176.9" font-family="Helvetica,sans-Serif" font-size="11.00" fill="#000000">timestamp[29,6]</text>
<polygon fill="none" stroke="#000000" points="388,-147.2 388,-169.2 528,-169.2 528,-147.2 388,-147.2"/>
<image xlink:href="../../images/foreignKeys.png" width="11px" height="12px" preserveAspectRatio="xMinYMin meet" x="393" y="-164.2"/>
<text text-anchor="start" x="408" y="-154.3" font-family="Helvetica,sans-Serif" font-size="11.00" fill="#000000">usu_insercion_id</text>
<polygon fill="none" stroke="#000000" points="528,-147.2 528,-169.2 612,-169.2 612,-147.2 528,-147.2"/>
<text text-anchor="start" x="531" y="-154.9" font-family="Helvetica,sans-Serif" font-size="11.00" fill="#000000">int4[10]</text>
<polygon fill="none" stroke="#000000" points="388,-125.2 388,-147.2 528,-147.2 528,-125.2 388,-125.2"/>
<text text-anchor="start" x="408" y="-132.3" font-family="Helvetica,sans-Serif" font-size="11.00" fill="#000000">fec_modificacion</text>
<polygon fill="none" stroke="#000000" points="528,-125.2 528,-147.2 612,-147.2 612,-125.2 528,-125.2"/>
<text text-anchor="start" x="530.8807" y="-132.9" font-family="Helvetica,sans-Serif" font-size="11.00" fill="#000000">timestamp[29,6]</text>
<polygon fill="none" stroke="#000000" points="388,-103.2 388,-125.2 528,-125.2 528,-103.2 388,-103.2"/>
<image xlink:href="../../images/foreignKeys.png" width="11px" height="12px" preserveAspectRatio="xMinYMin meet" x="393" y="-120.2"/>
<text text-anchor="start" x="408" y="-110.3" font-family="Helvetica,sans-Serif" font-size="11.00" fill="#000000">usu_modificacion_id</text>
<polygon fill="none" stroke="#000000" points="528,-103.2 528,-125.2 612,-125.2 612,-103.2 528,-103.2"/>
<text text-anchor="start" x="531" y="-110.9" font-family="Helvetica,sans-Serif" font-size="11.00" fill="#000000">int4[10]</text>
<polygon fill="none" stroke="#000000" points="388,-81.2 388,-103.2 528,-103.2 528,-81.2 388,-81.2"/>
<text text-anchor="start" x="408" y="-88.3" font-family="Helvetica,sans-Serif" font-size="11.00" fill="#000000">fec_eliminacion</text>
<polygon fill="none" stroke="#000000" points="528,-81.2 528,-103.2 612,-103.2 612,-81.2 528,-81.2"/>
<text text-anchor="start" x="530.8807" y="-88.9" font-family="Helvetica,sans-Serif" font-size="11.00" fill="#000000">timestamp[29,6]</text>
<polygon fill="none" stroke="#000000" points="388,-59.2 388,-81.2 528,-81.2 528,-59.2 388,-59.2"/>
<image xlink:href="../../images/foreignKeys.png" width="11px" height="12px" preserveAspectRatio="xMinYMin meet" x="393" y="-76.2"/>
<text text-anchor="start" x="408" y="-66.3" font-family="Helvetica,sans-Serif" font-size="11.00" fill="#000000">usu_eliminacion_id</text>
<polygon fill="none" stroke="#000000" points="528,-59.2 528,-81.2 612,-81.2 612,-59.2 528,-59.2"/>
<text text-anchor="start" x="531" y="-66.9" font-family="Helvetica,sans-Serif" font-size="11.00" fill="#000000">int4[10]</text>
<polygon fill="#ffffff" stroke="transparent" points="388,-40.2 388,-59.2 449,-59.2 449,-40.2 388,-40.2"/>
<polygon fill="none" stroke="#000000" points="388,-40.2 388,-59.2 449,-59.2 449,-40.2 388,-40.2"/>
<text text-anchor="start" x="391" y="-46.3" font-family="Helvetica,sans-Serif" font-size="11.00" fill="#000000">&lt; 5</text>
<polygon fill="#ffffff" stroke="transparent" points="449,-40.2 449,-59.2 528,-59.2 528,-40.2 449,-40.2"/>
<polygon fill="none" stroke="#000000" points="449,-40.2 449,-59.2 528,-59.2 528,-40.2 449,-40.2"/>
<text text-anchor="start" x="492.6105" y="-46.3" font-family="Helvetica,sans-Serif" font-size="11.00" fill="#000000">0 rows</text>
<polygon fill="#ffffff" stroke="transparent" points="528,-40.2 528,-59.2 612,-59.2 612,-40.2 528,-40.2"/>
<polygon fill="none" stroke="#000000" points="528,-40.2 528,-59.2 612,-59.2 612,-40.2 528,-40.2"/>
<text text-anchor="start" x="593.4053" y="-46.3" font-family="Helvetica,sans-Serif" font-size="11.00" fill="#000000">1 &gt;</text>
<polygon fill="none" stroke="#000000" stroke-width="2" points="387,-39.2 387,-325.2 613,-325.2 613,-39.2 387,-39.2"/>
</a>
</g>
</g>
<!-- contactos_oportunidades&#45;&gt;oportunidades -->
<g id="edge5" class="edge">
<title>contactos_oportunidades:w&#45;&gt;oportunidades:e</title>
<path fill="none" stroke="#000000" d="M649.0156,-290.2C636.6771,-290.2 629.1667,-290.2 612,-290.2"/>
<polygon fill="#000000" stroke="#000000" points="655.5,-290.2001 663.5,-293.8 659.5,-290.2 663.5,-290.2 663.5,-290.2 663.5,-290.2 659.5,-290.2 663.5,-286.6 655.5,-290.2001 655.5,-290.2001"/>
<ellipse fill="none" stroke="#000000" cx="652.3" cy="-290.2001" rx="3.2" ry="3.2"/>
</g>
<!-- oportunidades&#45;&gt;campanas -->
<g id="edge6" class="edge">
<title>oportunidades:w&#45;&gt;campanas:e</title>
<path fill="none" stroke="#000000" d="M374.0956,-272.9866C357.8004,-287.3667 366.2645,-329.2 337,-329.2"/>
<polygon fill="#000000" stroke="#000000" points="380.4357,-270.8041 389.1718,-271.604 384.2178,-269.502 388,-268.2 388,-268.2 388,-268.2 384.2178,-269.502 386.8282,-264.796 380.4357,-270.8041 380.4357,-270.8041"/>
<ellipse fill="none" stroke="#000000" cx="377.4099" cy="-271.8457" rx="3.2" ry="3.2"/>
</g>
<!-- oportunidades&#45;&gt;usuarios -->
<g id="edge7" class="edge">
<title>oportunidades:w&#45;&gt;usuarios:e</title>
<path fill="none" stroke="#000000" d="M373.8982,-241.6747C359.9788,-229.3602 369.5721,-195.2938 345,-182.2 283.8118,-149.5945 256.2419,-165.2992 189,-182.2 168.944,-187.2409 168.6798,-204.2 148,-204.2"/>
<polygon fill="#000000" stroke="#000000" points="380.3826,-243.7555 386.9,-249.6278 384.1913,-244.9778 388,-246.2 388,-246.2 388,-246.2 384.1913,-244.9778 389.1,-242.7722 380.3826,-243.7555 380.3826,-243.7555"/>
<ellipse fill="none" stroke="#000000" cx="377.3356" cy="-242.7778" rx="3.2" ry="3.2"/>
</g>
<!-- oportunidades&#45;&gt;usuarios -->
<g id="edge8" class="edge">
<title>oportunidades:w&#45;&gt;usuarios:e</title>
<path fill="none" stroke="#000000" d="M373.2246,-70.0055C293.7289,-67.9472 255.0578,-51.2759 189,-104.2 151.5126,-134.2342 196.035,-204.2 148,-204.2"/>
<polygon fill="#000000" stroke="#000000" points="380.0007,-70.0947 387.9526,-73.7997 384.0003,-70.1473 388,-70.2 388,-70.2 388,-70.2 384.0003,-70.1473 388.0474,-66.6003 380.0007,-70.0947 380.0007,-70.0947"/>
<ellipse fill="none" stroke="#000000" cx="376.801" cy="-70.0525" rx="3.2" ry="3.2"/>
</g>
<!-- oportunidades&#45;&gt;usuarios -->
<g id="edge9" class="edge">
<title>oportunidades:w&#45;&gt;usuarios:e</title>
<path fill="none" stroke="#000000" d="M373.5162,-157.883C296.0216,-154.4694 265.2371,-125.2962 189,-159.2 164.278,-170.1942 175.0564,-204.2 148,-204.2"/>
<polygon fill="#000000" stroke="#000000" points="380.0019,-158.0249 387.9212,-161.7991 384.001,-158.1124 388,-158.2 388,-158.2 388,-158.2 384.001,-158.1124 388.0788,-154.6009 380.0019,-158.0249 380.0019,-158.0249"/>
<ellipse fill="none" stroke="#000000" cx="376.8027" cy="-157.9548" rx="3.2" ry="3.2"/>
</g>
<!-- oportunidades&#45;&gt;usuarios -->
<g id="edge10" class="edge">
<title>oportunidades:w&#45;&gt;usuarios:e</title>
<path fill="none" stroke="#000000" d="M373.3604,-113.9972C294.8054,-111.8393 259.9537,-94.0689 189,-139.2 160.1802,-157.5313 182.1558,-204.2 148,-204.2"/>
<polygon fill="#000000" stroke="#000000" points="380.0008,-114.0891 387.9501,-117.7997 384.0004,-114.1446 388,-114.2 388,-114.2 388,-114.2 384.0004,-114.1446 388.0499,-110.6003 380.0008,-114.0891 380.0008,-114.0891"/>
<ellipse fill="none" stroke="#000000" cx="376.8011" cy="-114.0448" rx="3.2" ry="3.2"/>
</g>
</g>
</svg>
