<?xml version="1.0" encoding="UTF-8" standalone="no"?>
<!DOCTYPE svg PUBLIC "-//W3C//DTD SVG 1.1//EN"
 "http://www.w3.org/Graphics/SVG/1.1/DTD/svg11.dtd">
<!-- Generated by graphviz version 2.40.1 (20161225.0304)
 -->
<!-- Title: oneDegreeRelationshipsDiagram Pages: 1 -->
<svg width="906pt" height="564pt"
 viewBox="0.00 0.00 906.00 564.20" xmlns="http://www.w3.org/2000/svg" xmlns:xlink="http://www.w3.org/1999/xlink">
<g id="graph0" class="graph" transform="scale(1 1) rotate(0) translate(4 560.2)">
<title>oneDegreeRelationshipsDiagram</title>
<polygon fill="#ffffff" stroke="transparent" points="-4,4 -4,-560.2 902,-560.2 902,4 -4,4"/>
<text text-anchor="middle" x="72.4936" y="-7.3" font-family="Helvetica,sans-Serif" font-size="11.00" fill="#000000">Generated by SchemaSpy</text>
<!-- curso_ciclos -->
<g id="node1" class="node">
<title>curso_ciclos</title>
<g id="a_node1"><a xlink:href="../../tables/curso_ciclos.html" xlink:title="curso_ciclos" target="_top">
<polygon fill="#ffffff" stroke="transparent" points="180,-38.2 180,-143.2 303,-143.2 303,-38.2 180,-38.2"/>
<polygon fill="#f5f5f5" stroke="transparent" points="180.5,-119.7 180.5,-142.7 303.5,-142.7 303.5,-119.7 180.5,-119.7"/>
<polygon fill="none" stroke="#000000" points="180.5,-119.7 180.5,-142.7 303.5,-142.7 303.5,-119.7 180.5,-119.7"/>
<text text-anchor="start" x="185.5" y="-128.8" font-family="Helvetica,sans-Serif" font-weight="bold" font-size="11.00" fill="#000000">curso_ciclos</text>
<text text-anchor="start" x="268.5437" y="-127.8" font-family="Helvetica,sans-Serif" font-size="11.00" fill="#000000">[table]</text>
<polygon fill="none" stroke="#000000" points="180.5,-97.7 180.5,-119.7 303.5,-119.7 303.5,-97.7 180.5,-97.7"/>
<image xlink:href="../../images/primaryKeys.png" width="11px" height="12px" preserveAspectRatio="xMinYMin meet" x="185.5" y="-114.7"/>
<text text-anchor="start" x="200.5" y="-104.8" font-family="Helvetica,sans-Serif" font-size="11.00" fill="#000000">ciclo_id</text>
<polygon fill="none" stroke="#000000" points="180.5,-75.7 180.5,-97.7 303.5,-97.7 303.5,-75.7 180.5,-75.7"/>
<image xlink:href="../../images/foreignKeys.png" width="11px" height="12px" preserveAspectRatio="xMinYMin meet" x="185.5" y="-92.7"/>
<text text-anchor="start" x="200.5" y="-82.8" font-family="Helvetica,sans-Serif" font-size="11.00" fill="#000000">curso_id</text>
<polygon fill="none" stroke="#000000" points="180.5,-56.7 180.5,-75.7 303.5,-75.7 303.5,-56.7 180.5,-56.7"/>
<text text-anchor="start" x="183.5" y="-62.8" font-family="Helvetica,sans-Serif" font-size="11.00" fill="#000000">...</text>
<polygon fill="#ffffff" stroke="transparent" points="180.5,-37.7 180.5,-56.7 225.5,-56.7 225.5,-37.7 180.5,-37.7"/>
<polygon fill="none" stroke="#000000" points="180.5,-37.7 180.5,-56.7 225.5,-56.7 225.5,-37.7 180.5,-37.7"/>
<text text-anchor="start" x="183.5" y="-43.8" font-family="Helvetica,sans-Serif" font-size="11.00" fill="#000000">&lt; 1</text>
<polygon fill="#ffffff" stroke="transparent" points="225.5,-37.7 225.5,-56.7 269.5,-56.7 269.5,-37.7 225.5,-37.7"/>
<polygon fill="none" stroke="#000000" points="225.5,-37.7 225.5,-56.7 269.5,-56.7 269.5,-37.7 225.5,-37.7"/>
<text text-anchor="start" x="239.6105" y="-43.8" font-family="Helvetica,sans-Serif" font-size="11.00" fill="#000000">1 row</text>
<polygon fill="#ffffff" stroke="transparent" points="269.5,-37.7 269.5,-56.7 303.5,-56.7 303.5,-37.7 269.5,-37.7"/>
<polygon fill="none" stroke="#000000" points="269.5,-37.7 269.5,-56.7 303.5,-56.7 303.5,-37.7 269.5,-37.7"/>
<text text-anchor="start" x="284.9053" y="-43.8" font-family="Helvetica,sans-Serif" font-size="11.00" fill="#000000">2 &gt;</text>
</a>
</g>
</g>
<!-- cursos -->
<g id="node2" class="node">
<title>cursos</title>
<g id="a_node2"><a xlink:href="../../tables/cursos.html" xlink:title="cursos" target="_top">
<polygon fill="#ffffff" stroke="transparent" points="8,-141.2 8,-224.2 131,-224.2 131,-141.2 8,-141.2"/>
<polygon fill="#f5f5f5" stroke="transparent" points="8.5,-200.7 8.5,-223.7 131.5,-223.7 131.5,-200.7 8.5,-200.7"/>
<polygon fill="none" stroke="#000000" points="8.5,-200.7 8.5,-223.7 131.5,-223.7 131.5,-200.7 8.5,-200.7"/>
<text text-anchor="start" x="13.5" y="-209.8" font-family="Helvetica,sans-Serif" font-weight="bold" font-size="11.00" fill="#000000">cursos</text>
<text text-anchor="start" x="96.5437" y="-208.8" font-family="Helvetica,sans-Serif" font-size="11.00" fill="#000000">[table]</text>
<polygon fill="none" stroke="#000000" points="8.5,-178.7 8.5,-200.7 131.5,-200.7 131.5,-178.7 8.5,-178.7"/>
<image xlink:href="../../images/primaryKeys.png" width="11px" height="12px" preserveAspectRatio="xMinYMin meet" x="13.5" y="-195.7"/>
<text text-anchor="start" x="28.5" y="-185.8" font-family="Helvetica,sans-Serif" font-size="11.00" fill="#000000">curso_id</text>
<polygon fill="none" stroke="#000000" points="8.5,-159.7 8.5,-178.7 131.5,-178.7 131.5,-159.7 8.5,-159.7"/>
<text text-anchor="start" x="11.5" y="-165.8" font-family="Helvetica,sans-Serif" font-size="11.00" fill="#000000">...</text>
<polygon fill="#ffffff" stroke="transparent" points="8.5,-140.7 8.5,-159.7 43.5,-159.7 43.5,-140.7 8.5,-140.7"/>
<polygon fill="none" stroke="#000000" points="8.5,-140.7 8.5,-159.7 43.5,-159.7 43.5,-140.7 8.5,-140.7"/>
<text text-anchor="start" x="11.5" y="-146.8" font-family="Helvetica,sans-Serif" font-size="11.00" fill="#000000"> &#160;</text>
<polygon fill="#ffffff" stroke="transparent" points="43.5,-140.7 43.5,-159.7 98.5,-159.7 98.5,-140.7 43.5,-140.7"/>
<polygon fill="none" stroke="#000000" points="43.5,-140.7 43.5,-159.7 98.5,-159.7 98.5,-140.7 43.5,-140.7"/>
<text text-anchor="start" x="56.9956" y="-146.8" font-family="Helvetica,sans-Serif" font-size="11.00" fill="#000000">10 rows</text>
<polygon fill="#ffffff" stroke="transparent" points="98.5,-140.7 98.5,-159.7 131.5,-159.7 131.5,-140.7 98.5,-140.7"/>
<polygon fill="none" stroke="#000000" points="98.5,-140.7 98.5,-159.7 131.5,-159.7 131.5,-140.7 98.5,-140.7"/>
<text text-anchor="start" x="112.9053" y="-146.8" font-family="Helvetica,sans-Serif" font-size="11.00" fill="#000000">3 &gt;</text>
</a>
</g>
</g>
<!-- curso_ciclos&#45;&gt;cursos -->
<g id="edge1" class="edge">
<title>curso_ciclos:w&#45;&gt;cursos:e</title>
<path fill="none" stroke="#000000" d="M166.593,-90.6119C140.6689,-109.4261 176.2533,-189.7 131.5,-189.7"/>
<polygon fill="#000000" stroke="#000000" points="172.7989,-88.8663 181.4748,-90.1655 176.6494,-87.7832 180.5,-86.7 180.5,-86.7 180.5,-86.7 176.6494,-87.7832 179.5252,-83.2345 172.7989,-88.8663 172.7989,-88.8663"/>
<ellipse fill="none" stroke="#000000" cx="169.7184" cy="-89.7328" rx="3.2" ry="3.2"/>
</g>
<!-- encuesta_respuestas -->
<g id="node3" class="node">
<title>encuesta_respuestas</title>
<g id="a_node3"><a xlink:href="../../tables/encuesta_respuestas.html" xlink:title="encuesta_respuestas" target="_top">
<polygon fill="#ffffff" stroke="transparent" points="743,-386.2 743,-513.2 890,-513.2 890,-386.2 743,-386.2"/>
<polygon fill="#f5f5f5" stroke="transparent" points="743.5,-489.7 743.5,-512.7 890.5,-512.7 890.5,-489.7 743.5,-489.7"/>
<polygon fill="none" stroke="#000000" points="743.5,-489.7 743.5,-512.7 890.5,-512.7 890.5,-489.7 743.5,-489.7"/>
<text text-anchor="start" x="748.2302" y="-498.8" font-family="Helvetica,sans-Serif" font-weight="bold" font-size="11.00" fill="#000000">encuesta_respuestas</text>
<text text-anchor="start" x="856.0219" y="-497.8" font-family="Helvetica,sans-Serif" font-size="11.00" fill="#000000">[table]</text>
<polygon fill="none" stroke="#000000" points="743.5,-467.7 743.5,-489.7 890.5,-489.7 890.5,-467.7 743.5,-467.7"/>
<image xlink:href="../../images/primaryKeys.png" width="11px" height="12px" preserveAspectRatio="xMinYMin meet" x="748.5" y="-484.7"/>
<text text-anchor="start" x="765.5" y="-474.8" font-family="Helvetica,sans-Serif" font-size="11.00" fill="#000000">respuesta_id</text>
<polygon fill="none" stroke="#000000" points="743.5,-445.7 743.5,-467.7 890.5,-467.7 890.5,-445.7 743.5,-445.7"/>
<image xlink:href="../../images/foreignKeys.png" width="11px" height="12px" preserveAspectRatio="xMinYMin meet" x="748.5" y="-462.7"/>
<text text-anchor="start" x="765.5" y="-452.8" font-family="Helvetica,sans-Serif" font-size="11.00" fill="#000000">oportunidad_id</text>
<polygon fill="none" stroke="#000000" points="743.5,-423.7 743.5,-445.7 890.5,-445.7 890.5,-423.7 743.5,-423.7"/>
<image xlink:href="../../images/foreignKeys.png" width="11px" height="12px" preserveAspectRatio="xMinYMin meet" x="748.5" y="-440.7"/>
<text text-anchor="start" x="765.5" y="-430.8" font-family="Helvetica,sans-Serif" font-size="11.00" fill="#000000">contacto_id</text>
<polygon fill="none" stroke="#000000" points="743.5,-404.7 743.5,-423.7 890.5,-423.7 890.5,-404.7 743.5,-404.7"/>
<text text-anchor="start" x="746.5" y="-410.8" font-family="Helvetica,sans-Serif" font-size="11.00" fill="#000000">...</text>
<polygon fill="#ffffff" stroke="transparent" points="743.5,-385.7 743.5,-404.7 800.5,-404.7 800.5,-385.7 743.5,-385.7"/>
<polygon fill="none" stroke="#000000" points="743.5,-385.7 743.5,-404.7 800.5,-404.7 800.5,-385.7 743.5,-385.7"/>
<text text-anchor="start" x="746.5" y="-391.8" font-family="Helvetica,sans-Serif" font-size="11.00" fill="#000000">&lt; 2</text>
<polygon fill="#ffffff" stroke="transparent" points="800.5,-385.7 800.5,-404.7 850.5,-404.7 850.5,-385.7 800.5,-385.7"/>
<polygon fill="none" stroke="#000000" points="800.5,-385.7 800.5,-404.7 850.5,-404.7 850.5,-385.7 800.5,-385.7"/>
<text text-anchor="start" x="820.6105" y="-391.8" font-family="Helvetica,sans-Serif" font-size="11.00" fill="#000000">1 row</text>
<polygon fill="#ffffff" stroke="transparent" points="850.5,-385.7 850.5,-404.7 890.5,-404.7 890.5,-385.7 850.5,-385.7"/>
<polygon fill="none" stroke="#000000" points="850.5,-385.7 850.5,-404.7 890.5,-404.7 890.5,-385.7 850.5,-385.7"/>
<text text-anchor="start" x="871.9053" y="-391.8" font-family="Helvetica,sans-Serif" font-size="11.00" fill="#000000">1 &gt;</text>
</a>
</g>
</g>
<!-- contactos -->
<g id="node4" class="node">
<title>contactos</title>
<g id="a_node4"><a xlink:href="../../tables/contactos.html" xlink:title="contactos" target="_top">
<polygon fill="#ffffff" stroke="transparent" points="180,-425.2 180,-552.2 303,-552.2 303,-425.2 180,-425.2"/>
<polygon fill="#f5f5f5" stroke="transparent" points="180.5,-528.7 180.5,-551.7 303.5,-551.7 303.5,-528.7 180.5,-528.7"/>
<polygon fill="none" stroke="#000000" points="180.5,-528.7 180.5,-551.7 303.5,-551.7 303.5,-528.7 180.5,-528.7"/>
<text text-anchor="start" x="185.5" y="-537.8" font-family="Helvetica,sans-Serif" font-weight="bold" font-size="11.00" fill="#000000">contactos</text>
<text text-anchor="start" x="268.5437" y="-536.8" font-family="Helvetica,sans-Serif" font-size="11.00" fill="#000000">[table]</text>
<polygon fill="none" stroke="#000000" points="180.5,-506.7 180.5,-528.7 303.5,-528.7 303.5,-506.7 180.5,-506.7"/>
<image xlink:href="../../images/primaryKeys.png" width="11px" height="12px" preserveAspectRatio="xMinYMin meet" x="185.5" y="-523.7"/>
<text text-anchor="start" x="200.5" y="-513.8" font-family="Helvetica,sans-Serif" font-size="11.00" fill="#000000">contacto_id</text>
<polygon fill="none" stroke="#000000" points="180.5,-484.7 180.5,-506.7 303.5,-506.7 303.5,-484.7 180.5,-484.7"/>
<image xlink:href="../../images/foreignKeys.png" width="11px" height="12px" preserveAspectRatio="xMinYMin meet" x="185.5" y="-501.7"/>
<text text-anchor="start" x="200.5" y="-491.8" font-family="Helvetica,sans-Serif" font-size="11.00" fill="#000000">persona_id</text>
<polygon fill="none" stroke="#000000" points="180.5,-462.7 180.5,-484.7 303.5,-484.7 303.5,-462.7 180.5,-462.7"/>
<image xlink:href="../../images/foreignKeys.png" width="11px" height="12px" preserveAspectRatio="xMinYMin meet" x="185.5" y="-479.7"/>
<text text-anchor="start" x="200.5" y="-469.8" font-family="Helvetica,sans-Serif" font-size="11.00" fill="#000000">organizacion_id</text>
<polygon fill="none" stroke="#000000" points="180.5,-443.7 180.5,-462.7 303.5,-462.7 303.5,-443.7 180.5,-443.7"/>
<text text-anchor="start" x="183.5" y="-449.8" font-family="Helvetica,sans-Serif" font-size="11.00" fill="#000000">...</text>
<polygon fill="#ffffff" stroke="transparent" points="180.5,-424.7 180.5,-443.7 222.5,-443.7 222.5,-424.7 180.5,-424.7"/>
<polygon fill="none" stroke="#000000" points="180.5,-424.7 180.5,-443.7 222.5,-443.7 222.5,-424.7 180.5,-424.7"/>
<text text-anchor="start" x="183.5" y="-430.8" font-family="Helvetica,sans-Serif" font-size="11.00" fill="#000000">&lt; 2</text>
<polygon fill="#ffffff" stroke="transparent" points="222.5,-424.7 222.5,-443.7 271.5,-443.7 271.5,-424.7 222.5,-424.7"/>
<polygon fill="none" stroke="#000000" points="222.5,-424.7 222.5,-443.7 271.5,-443.7 271.5,-424.7 222.5,-424.7"/>
<text text-anchor="start" x="236.1105" y="-430.8" font-family="Helvetica,sans-Serif" font-size="11.00" fill="#000000">5 rows</text>
<polygon fill="#ffffff" stroke="transparent" points="271.5,-424.7 271.5,-443.7 303.5,-443.7 303.5,-424.7 271.5,-424.7"/>
<polygon fill="none" stroke="#000000" points="271.5,-424.7 271.5,-443.7 303.5,-443.7 303.5,-424.7 271.5,-424.7"/>
<text text-anchor="start" x="284.9053" y="-430.8" font-family="Helvetica,sans-Serif" font-size="11.00" fill="#000000">5 &gt;</text>
</a>
</g>
</g>
<!-- encuesta_respuestas&#45;&gt;contactos -->
<g id="edge2" class="edge">
<title>encuesta_respuestas:w&#45;&gt;contactos:e</title>
<path fill="none" stroke="#000000" d="M729.3445,-438.7428C720.3465,-445.0213 716.9367,-456.9864 702,-462.7 535.0101,-526.5769 482.29,-517.7 303.5,-517.7"/>
<polygon fill="#000000" stroke="#000000" points="735.8076,-436.897 744.4887,-438.1616 739.6538,-435.7985 743.5,-434.7 743.5,-434.7 743.5,-434.7 739.6538,-435.7985 742.5113,-431.2384 735.8076,-436.897 735.8076,-436.897"/>
<ellipse fill="none" stroke="#000000" cx="732.7306" cy="-437.7758" rx="3.2" ry="3.2"/>
</g>
<!-- oportunidades -->
<g id="node5" class="node">
<title>oportunidades</title>
<g id="a_node5"><a xlink:href="../../tables/oportunidades.html" xlink:title="oportunidades" target="_top">
<polygon fill="#ffffff" stroke="transparent" points="352,-75.7 352,-451.7 694,-451.7 694,-75.7 352,-75.7"/>
<polygon fill="#f5f5f5" stroke="transparent" points="354,-426.7 354,-449.7 692,-449.7 692,-426.7 354,-426.7"/>
<polygon fill="none" stroke="#000000" points="354,-426.7 354,-449.7 692,-449.7 692,-426.7 354,-426.7"/>
<text text-anchor="start" x="359" y="-435.8" font-family="Helvetica,sans-Serif" font-weight="bold" font-size="11.00" fill="#000000">oportunidades</text>
<text text-anchor="start" x="657.0437" y="-434.8" font-family="Helvetica,sans-Serif" font-size="11.00" fill="#000000">[table]</text>
<polygon fill="none" stroke="#000000" points="354,-404.7 354,-426.7 477,-426.7 477,-404.7 354,-404.7"/>
<image xlink:href="../../images/primaryKeys.png" width="11px" height="12px" preserveAspectRatio="xMinYMin meet" x="359" y="-421.7"/>
<text text-anchor="start" x="374" y="-411.8" font-family="Helvetica,sans-Serif" font-size="11.00" fill="#000000">oportunidad_id</text>
<polygon fill="none" stroke="#000000" points="477,-404.7 477,-426.7 692,-426.7 692,-404.7 477,-404.7"/>
<text text-anchor="start" x="480" y="-412.4" font-family="Helvetica,sans-Serif" font-size="11.00" fill="#000000">serial[10]</text>
<polygon fill="none" stroke="#000000" points="354,-382.7 354,-404.7 477,-404.7 477,-382.7 354,-382.7"/>
<text text-anchor="start" x="374" y="-389.8" font-family="Helvetica,sans-Serif" font-size="11.00" fill="#000000">nombre</text>
<polygon fill="none" stroke="#000000" points="477,-382.7 477,-404.7 692,-404.7 692,-382.7 477,-382.7"/>
<text text-anchor="start" x="480" y="-390.4" font-family="Helvetica,sans-Serif" font-size="11.00" fill="#000000">varchar[200]</text>
<polygon fill="none" stroke="#000000" points="354,-360.7 354,-382.7 477,-382.7 477,-360.7 354,-360.7"/>
<image xlink:href="../../images/foreignKeys.png" width="11px" height="12px" preserveAspectRatio="xMinYMin meet" x="359" y="-377.7"/>
<text text-anchor="start" x="374" y="-367.8" font-family="Helvetica,sans-Serif" font-size="11.00" fill="#000000">campana_id</text>
<polygon fill="none" stroke="#000000" points="477,-360.7 477,-382.7 692,-382.7 692,-360.7 477,-360.7"/>
<text text-anchor="start" x="480" y="-368.4" font-family="Helvetica,sans-Serif" font-size="11.00" fill="#000000">int4[10]</text>
<polygon fill="none" stroke="#000000" points="354,-338.7 354,-360.7 477,-360.7 477,-338.7 354,-338.7"/>
<image xlink:href="../../images/foreignKeys.png" width="11px" height="12px" preserveAspectRatio="xMinYMin meet" x="359" y="-355.7"/>
<text text-anchor="start" x="374" y="-345.8" font-family="Helvetica,sans-Serif" font-size="11.00" fill="#000000">contacto_id</text>
<polygon fill="none" stroke="#000000" points="477,-338.7 477,-360.7 692,-360.7 692,-338.7 477,-338.7"/>
<text text-anchor="start" x="480" y="-346.4" font-family="Helvetica,sans-Serif" font-size="11.00" fill="#000000">int4[10]</text>
<polygon fill="none" stroke="#000000" points="354,-316.7 354,-338.7 477,-338.7 477,-316.7 354,-316.7"/>
<image xlink:href="../../images/foreignKeys.png" width="11px" height="12px" preserveAspectRatio="xMinYMin meet" x="359" y="-333.7"/>
<text text-anchor="start" x="374" y="-323.8" font-family="Helvetica,sans-Serif" font-size="11.00" fill="#000000">curso_id</text>
<polygon fill="none" stroke="#000000" points="477,-316.7 477,-338.7 692,-338.7 692,-316.7 477,-316.7"/>
<text text-anchor="start" x="480" y="-324.4" font-family="Helvetica,sans-Serif" font-size="11.00" fill="#000000">int4[10]</text>
<polygon fill="none" stroke="#000000" points="354,-294.7 354,-316.7 477,-316.7 477,-294.7 354,-294.7"/>
<image xlink:href="../../images/foreignKeys.png" width="11px" height="12px" preserveAspectRatio="xMinYMin meet" x="359" y="-311.7"/>
<text text-anchor="start" x="374" y="-301.8" font-family="Helvetica,sans-Serif" font-size="11.00" fill="#000000">usu_asignado_id</text>
<polygon fill="none" stroke="#000000" points="477,-294.7 477,-316.7 692,-316.7 692,-294.7 477,-294.7"/>
<text text-anchor="start" x="480" y="-302.4" font-family="Helvetica,sans-Serif" font-size="11.00" fill="#000000">int4[10]</text>
<polygon fill="none" stroke="#000000" points="354,-272.7 354,-294.7 477,-294.7 477,-272.7 354,-272.7"/>
<text text-anchor="start" x="374" y="-279.8" font-family="Helvetica,sans-Serif" font-size="11.00" fill="#000000">valor</text>
<polygon fill="none" stroke="#000000" points="477,-272.7 477,-294.7 692,-294.7 692,-272.7 477,-272.7"/>
<text text-anchor="start" x="480" y="-280.4" font-family="Helvetica,sans-Serif" font-size="11.00" fill="#000000">int4[10]</text>
<polygon fill="none" stroke="#000000" points="354,-250.7 354,-272.7 477,-272.7 477,-250.7 354,-250.7"/>
<text text-anchor="start" x="374" y="-257.8" font-family="Helvetica,sans-Serif" font-size="11.00" fill="#000000">descripcion</text>
<polygon fill="none" stroke="#000000" points="477,-250.7 477,-272.7 692,-272.7 692,-250.7 477,-250.7"/>
<text text-anchor="start" x="480" y="-258.4" font-family="Helvetica,sans-Serif" font-size="11.00" fill="#000000">text[2147483647]</text>
<polygon fill="none" stroke="#000000" points="354,-228.7 354,-250.7 477,-250.7 477,-228.7 354,-228.7"/>
<text text-anchor="start" x="374" y="-235.8" font-family="Helvetica,sans-Serif" font-size="11.00" fill="#000000">estado</text>
<polygon fill="none" stroke="#000000" points="477,-228.7 477,-250.7 692,-250.7 692,-228.7 477,-228.7"/>
<text text-anchor="start" x="479.6453" y="-236.4" font-family="Helvetica,sans-Serif" font-size="11.00" fill="#000000">enum_oportunidades_estado[2147483647]</text>
<polygon fill="none" stroke="#000000" points="354,-206.7 354,-228.7 477,-228.7 477,-206.7 354,-206.7"/>
<text text-anchor="start" x="374" y="-213.8" font-family="Helvetica,sans-Serif" font-size="11.00" fill="#000000">usu_insercion</text>
<polygon fill="none" stroke="#000000" points="477,-206.7 477,-228.7 692,-228.7 692,-206.7 477,-206.7"/>
<text text-anchor="start" x="480" y="-214.4" font-family="Helvetica,sans-Serif" font-size="11.00" fill="#000000">varchar[20]</text>
<polygon fill="none" stroke="#000000" points="354,-184.7 354,-206.7 477,-206.7 477,-184.7 354,-184.7"/>
<text text-anchor="start" x="374" y="-191.8" font-family="Helvetica,sans-Serif" font-size="11.00" fill="#000000">fec_insercion</text>
<polygon fill="none" stroke="#000000" points="477,-184.7 477,-206.7 692,-206.7 692,-184.7 477,-184.7"/>
<text text-anchor="start" x="480" y="-192.4" font-family="Helvetica,sans-Serif" font-size="11.00" fill="#000000">timestamptz[35,6]</text>
<polygon fill="none" stroke="#000000" points="354,-162.7 354,-184.7 477,-184.7 477,-162.7 354,-162.7"/>
<text text-anchor="start" x="374" y="-169.8" font-family="Helvetica,sans-Serif" font-size="11.00" fill="#000000">fec_modificacion</text>
<polygon fill="none" stroke="#000000" points="477,-162.7 477,-184.7 692,-184.7 692,-162.7 477,-162.7"/>
<text text-anchor="start" x="480" y="-170.4" font-family="Helvetica,sans-Serif" font-size="11.00" fill="#000000">timestamptz[35,6]</text>
<polygon fill="none" stroke="#000000" points="354,-140.7 354,-162.7 477,-162.7 477,-140.7 354,-140.7"/>
<text text-anchor="start" x="374" y="-147.8" font-family="Helvetica,sans-Serif" font-size="11.00" fill="#000000">usu_modificacion</text>
<polygon fill="none" stroke="#000000" points="477,-140.7 477,-162.7 692,-162.7 692,-140.7 477,-140.7"/>
<text text-anchor="start" x="480" y="-148.4" font-family="Helvetica,sans-Serif" font-size="11.00" fill="#000000">varchar[20]</text>
<polygon fill="none" stroke="#000000" points="354,-118.7 354,-140.7 477,-140.7 477,-118.7 354,-118.7"/>
<text text-anchor="start" x="374" y="-125.8" font-family="Helvetica,sans-Serif" font-size="11.00" fill="#000000">encuesta</text>
<polygon fill="none" stroke="#000000" points="477,-118.7 477,-140.7 692,-140.7 692,-118.7 477,-118.7"/>
<text text-anchor="start" x="480" y="-126.4" font-family="Helvetica,sans-Serif" font-size="11.00" fill="#000000">bool[1]</text>
<polygon fill="none" stroke="#000000" points="354,-96.7 354,-118.7 477,-118.7 477,-96.7 354,-96.7"/>
<image xlink:href="../../images/foreignKeys.png" width="11px" height="12px" preserveAspectRatio="xMinYMin meet" x="359" y="-113.7"/>
<text text-anchor="start" x="374" y="-103.8" font-family="Helvetica,sans-Serif" font-size="11.00" fill="#000000">ciclo_id</text>
<polygon fill="none" stroke="#000000" points="477,-96.7 477,-118.7 692,-118.7 692,-96.7 477,-96.7"/>
<text text-anchor="start" x="480" y="-104.4" font-family="Helvetica,sans-Serif" font-size="11.00" fill="#000000">int4[10]</text>
<polygon fill="#ffffff" stroke="transparent" points="354,-77.7 354,-96.7 404,-96.7 404,-77.7 354,-77.7"/>
<polygon fill="none" stroke="#000000" points="354,-77.7 354,-96.7 404,-96.7 404,-77.7 354,-77.7"/>
<text text-anchor="start" x="357" y="-83.8" font-family="Helvetica,sans-Serif" font-size="11.00" fill="#000000">&lt; 5</text>
<polygon fill="#ffffff" stroke="transparent" points="404,-77.7 404,-96.7 477,-96.7 477,-77.7 404,-77.7"/>
<polygon fill="none" stroke="#000000" points="404,-77.7 404,-96.7 477,-96.7 477,-77.7 404,-77.7"/>
<text text-anchor="start" x="435.4956" y="-83.8" font-family="Helvetica,sans-Serif" font-size="11.00" fill="#000000">14 rows</text>
<polygon fill="#ffffff" stroke="transparent" points="477,-77.7 477,-96.7 692,-96.7 692,-77.7 477,-77.7"/>
<polygon fill="none" stroke="#000000" points="477,-77.7 477,-96.7 692,-96.7 692,-77.7 477,-77.7"/>
<text text-anchor="start" x="673.4053" y="-83.8" font-family="Helvetica,sans-Serif" font-size="11.00" fill="#000000">1 &gt;</text>
<polygon fill="none" stroke="#000000" stroke-width="2" points="353,-76.7 353,-450.7 693,-450.7 693,-76.7 353,-76.7"/>
</a>
</g>
</g>
<!-- encuesta_respuestas&#45;&gt;oportunidades -->
<g id="edge3" class="edge">
<title>encuesta_respuestas:w&#45;&gt;oportunidades:e</title>
<path fill="none" stroke="#000000" d="M729.5533,-452.3123C715.596,-441.7354 715.3139,-415.7 692,-415.7"/>
<polygon fill="#000000" stroke="#000000" points="735.8687,-454.2991 742.4196,-460.1341 739.6844,-455.4996 743.5,-456.7 743.5,-456.7 743.5,-456.7 739.6844,-455.4996 744.5804,-453.2659 735.8687,-454.2991 735.8687,-454.2991"/>
<ellipse fill="none" stroke="#000000" cx="732.8162" cy="-453.3388" rx="3.2" ry="3.2"/>
</g>
<!-- oportunidades&#45;&gt;curso_ciclos -->
<g id="edge5" class="edge">
<title>oportunidades:w&#45;&gt;curso_ciclos:e</title>
<path fill="none" stroke="#000000" d="M339.4191,-107.8651C327.5427,-108.1492 320.1613,-108.7 303.5,-108.7"/>
<polygon fill="#000000" stroke="#000000" points="346.0005,-107.7906 354.0408,-111.2998 350.0003,-107.7453 354,-107.7 354,-107.7 354,-107.7 350.0003,-107.7453 353.9592,-104.1002 346.0005,-107.7906 346.0005,-107.7906"/>
<ellipse fill="none" stroke="#000000" cx="342.8007" cy="-107.8269" rx="3.2" ry="3.2"/>
</g>
<!-- oportunidades&#45;&gt;cursos -->
<g id="edge7" class="edge">
<title>oportunidades:w&#45;&gt;cursos:e</title>
<path fill="none" stroke="#000000" d="M339.4958,-325.1786C330.3257,-321.5384 324.8559,-314.7991 311,-310.7 250.5702,-292.8226 221.0242,-322.2977 172,-282.7 136.9288,-254.3724 176.5826,-189.7 131.5,-189.7"/>
<polygon fill="#000000" stroke="#000000" points="346.1182,-326.3298 353.3834,-331.2468 350.0591,-327.0149 354,-327.7 354,-327.7 354,-327.7 350.0591,-327.0149 354.6166,-324.1532 346.1182,-326.3298 346.1182,-326.3298"/>
<ellipse fill="none" stroke="#000000" cx="342.9655" cy="-325.7817" rx="3.2" ry="3.2"/>
</g>
<!-- oportunidades&#45;&gt;contactos -->
<g id="edge6" class="edge">
<title>oportunidades:w&#45;&gt;contactos:e</title>
<path fill="none" stroke="#000000" d="M339.5209,-352.3389C290.6731,-373.7121 375.6805,-517.7 303.5,-517.7"/>
<polygon fill="#000000" stroke="#000000" points="346.1296,-351.1345 354.6455,-353.2417 350.0648,-350.4172 354,-349.7 354,-349.7 354,-349.7 350.0648,-350.4172 353.3545,-346.1583 346.1296,-351.1345 346.1296,-351.1345"/>
<ellipse fill="none" stroke="#000000" cx="342.9815" cy="-351.7082" rx="3.2" ry="3.2"/>
</g>
<!-- campanas -->
<g id="node6" class="node">
<title>campanas</title>
<g id="a_node6"><a xlink:href="../../tables/campanas.html" xlink:title="campanas" target="_top">
<polygon fill="#ffffff" stroke="transparent" points="180,-321.2 180,-404.2 303,-404.2 303,-321.2 180,-321.2"/>
<polygon fill="#f5f5f5" stroke="transparent" points="180.5,-380.7 180.5,-403.7 303.5,-403.7 303.5,-380.7 180.5,-380.7"/>
<polygon fill="none" stroke="#000000" points="180.5,-380.7 180.5,-403.7 303.5,-403.7 303.5,-380.7 180.5,-380.7"/>
<text text-anchor="start" x="185.5" y="-389.8" font-family="Helvetica,sans-Serif" font-weight="bold" font-size="11.00" fill="#000000">campanas</text>
<text text-anchor="start" x="268.5437" y="-388.8" font-family="Helvetica,sans-Serif" font-size="11.00" fill="#000000">[table]</text>
<polygon fill="none" stroke="#000000" points="180.5,-358.7 180.5,-380.7 303.5,-380.7 303.5,-358.7 180.5,-358.7"/>
<image xlink:href="../../images/primaryKeys.png" width="11px" height="12px" preserveAspectRatio="xMinYMin meet" x="185.5" y="-375.7"/>
<text text-anchor="start" x="200.5" y="-365.8" font-family="Helvetica,sans-Serif" font-size="11.00" fill="#000000">campana_id</text>
<polygon fill="none" stroke="#000000" points="180.5,-339.7 180.5,-358.7 303.5,-358.7 303.5,-339.7 180.5,-339.7"/>
<text text-anchor="start" x="183.5" y="-345.8" font-family="Helvetica,sans-Serif" font-size="11.00" fill="#000000">...</text>
<polygon fill="#ffffff" stroke="transparent" points="180.5,-320.7 180.5,-339.7 218.5,-339.7 218.5,-320.7 180.5,-320.7"/>
<polygon fill="none" stroke="#000000" points="180.5,-320.7 180.5,-339.7 218.5,-339.7 218.5,-320.7 180.5,-320.7"/>
<text text-anchor="start" x="183.5" y="-326.8" font-family="Helvetica,sans-Serif" font-size="11.00" fill="#000000"> &#160;</text>
<polygon fill="#ffffff" stroke="transparent" points="218.5,-320.7 218.5,-339.7 269.5,-339.7 269.5,-320.7 218.5,-320.7"/>
<polygon fill="none" stroke="#000000" points="218.5,-320.7 218.5,-339.7 269.5,-339.7 269.5,-320.7 218.5,-320.7"/>
<text text-anchor="start" x="234.1105" y="-326.8" font-family="Helvetica,sans-Serif" font-size="11.00" fill="#000000">0 rows</text>
<polygon fill="#ffffff" stroke="transparent" points="269.5,-320.7 269.5,-339.7 303.5,-339.7 303.5,-320.7 269.5,-320.7"/>
<polygon fill="none" stroke="#000000" points="269.5,-320.7 269.5,-339.7 303.5,-339.7 303.5,-320.7 269.5,-320.7"/>
<text text-anchor="start" x="284.9053" y="-326.8" font-family="Helvetica,sans-Serif" font-size="11.00" fill="#000000">2 &gt;</text>
</a>
</g>
</g>
<!-- oportunidades&#45;&gt;campanas -->
<g id="edge4" class="edge">
<title>oportunidades:w&#45;&gt;campanas:e</title>
<path fill="none" stroke="#000000" d="M339.4154,-371.3697C327.5405,-370.8017 320.171,-369.7 303.5,-369.7"/>
<polygon fill="#000000" stroke="#000000" points="346.0021,-371.5188 353.9185,-375.2991 350.001,-371.6094 354,-371.7 354,-371.7 354,-371.7 350.001,-371.6094 354.0815,-368.1009 346.0021,-371.5188 346.0021,-371.5188"/>
<ellipse fill="none" stroke="#000000" cx="342.8029" cy="-371.4464" rx="3.2" ry="3.2"/>
</g>
<!-- usuarios -->
<g id="node7" class="node">
<title>usuarios</title>
<g id="a_node7"><a xlink:href="../../tables/usuarios.html" xlink:title="usuarios" target="_top">
<polygon fill="#ffffff" stroke="transparent" points="180,-167.2 180,-272.2 303,-272.2 303,-167.2 180,-167.2"/>
<polygon fill="#f5f5f5" stroke="transparent" points="180.5,-248.7 180.5,-271.7 303.5,-271.7 303.5,-248.7 180.5,-248.7"/>
<polygon fill="none" stroke="#000000" points="180.5,-248.7 180.5,-271.7 303.5,-271.7 303.5,-248.7 180.5,-248.7"/>
<text text-anchor="start" x="185.5" y="-257.8" font-family="Helvetica,sans-Serif" font-weight="bold" font-size="11.00" fill="#000000">usuarios</text>
<text text-anchor="start" x="268.5437" y="-256.8" font-family="Helvetica,sans-Serif" font-size="11.00" fill="#000000">[table]</text>
<polygon fill="none" stroke="#000000" points="180.5,-226.7 180.5,-248.7 303.5,-248.7 303.5,-226.7 180.5,-226.7"/>
<image xlink:href="../../images/primaryKeys.png" width="11px" height="12px" preserveAspectRatio="xMinYMin meet" x="185.5" y="-243.7"/>
<text text-anchor="start" x="200.5" y="-233.8" font-family="Helvetica,sans-Serif" font-size="11.00" fill="#000000">usuario_id</text>
<polygon fill="#ffffff" stroke="transparent" points="180.5,-204.7 180.5,-226.7 303.5,-226.7 303.5,-204.7 180.5,-204.7"/>
<polygon fill="none" stroke="#000000" points="180.5,-204.7 180.5,-226.7 303.5,-226.7 303.5,-204.7 180.5,-204.7"/>
<text text-anchor="start" x="200.5" y="-211.8" font-family="Helvetica,sans-Serif" font-size="11.00" fill="#000000">nom_usuario</text>
<polygon fill="none" stroke="#000000" points="180.5,-185.7 180.5,-204.7 303.5,-204.7 303.5,-185.7 180.5,-185.7"/>
<text text-anchor="start" x="183.5" y="-191.8" font-family="Helvetica,sans-Serif" font-size="11.00" fill="#000000">...</text>
<polygon fill="#ffffff" stroke="transparent" points="180.5,-166.7 180.5,-185.7 221.5,-185.7 221.5,-166.7 180.5,-166.7"/>
<polygon fill="none" stroke="#000000" points="180.5,-166.7 180.5,-185.7 221.5,-185.7 221.5,-166.7 180.5,-166.7"/>
<text text-anchor="start" x="183.5" y="-172.8" font-family="Helvetica,sans-Serif" font-size="11.00" fill="#000000"> &#160;</text>
<polygon fill="#ffffff" stroke="transparent" points="221.5,-166.7 221.5,-185.7 267.5,-185.7 267.5,-166.7 221.5,-166.7"/>
<polygon fill="none" stroke="#000000" points="221.5,-166.7 221.5,-185.7 267.5,-185.7 267.5,-166.7 221.5,-166.7"/>
<text text-anchor="start" x="237.6105" y="-172.8" font-family="Helvetica,sans-Serif" font-size="11.00" fill="#000000">1 row</text>
<polygon fill="#ffffff" stroke="transparent" points="267.5,-166.7 267.5,-185.7 303.5,-185.7 303.5,-166.7 267.5,-166.7"/>
<polygon fill="none" stroke="#000000" points="267.5,-166.7 267.5,-185.7 303.5,-185.7 303.5,-166.7 267.5,-166.7"/>
<text text-anchor="start" x="284.9053" y="-172.8" font-family="Helvetica,sans-Serif" font-size="11.00" fill="#000000">6 &gt;</text>
</a>
</g>
</g>
<!-- oportunidades&#45;&gt;usuarios -->
<g id="edge8" class="edge">
<title>oportunidades:w&#45;&gt;usuarios:e</title>
<path fill="none" stroke="#000000" d="M339.9618,-300.8096C322.8087,-285.2178 334.9688,-237.7 303.5,-237.7"/>
<polygon fill="#000000" stroke="#000000" points="346.4453,-303.0682 352.8157,-309.0996 350.2226,-304.3841 354,-305.7 354,-305.7 354,-305.7 350.2226,-304.3841 355.1843,-302.3004 346.4453,-303.0682 346.4453,-303.0682"/>
<ellipse fill="none" stroke="#000000" cx="343.4234" cy="-302.0154" rx="3.2" ry="3.2"/>
</g>
</g>
</svg>
