<?xml version="1.0" encoding="UTF-8" standalone="no"?>
<!DOCTYPE svg PUBLIC "-//W3C//DTD SVG 1.1//EN"
 "http://www.w3.org/Graphics/SVG/1.1/DTD/svg11.dtd">
<!-- Generated by graphviz version 2.40.1 (20161225.0304)
 -->
<!-- Title: twoDegreesRelationshipsDiagram Pages: 1 -->
<svg width="983pt" height="553pt"
 viewBox="0.00 0.00 983.00 553.46" xmlns="http://www.w3.org/2000/svg" xmlns:xlink="http://www.w3.org/1999/xlink">
<g id="graph0" class="graph" transform="scale(1 1) rotate(0) translate(4 549.4557)">
<title>twoDegreesRelationshipsDiagram</title>
<polygon fill="#ffffff" stroke="transparent" points="-4,4 -4,-549.4557 979,-549.4557 979,4 -4,4"/>
<text text-anchor="middle" x="72.4936" y="-7.3" font-family="Helvetica,sans-Serif" font-size="11.00" fill="#000000">Generated by SchemaSpy</text>
<!-- actividades -->
<g id="node1" class="node">
<title>actividades</title>
<g id="a_node1"><a xlink:href="../../tables/actividades.html" xlink:title="actividades" target="_top">
<polygon fill="#ffffff" stroke="transparent" points="355,-379.7 355,-440.7 453,-440.7 453,-379.7 355,-379.7"/>
<polygon fill="#f5f5f5" stroke="transparent" points="355,-417.2 355,-440.2 453,-440.2 453,-417.2 355,-417.2"/>
<polygon fill="none" stroke="#000000" points="355,-417.2 355,-440.2 453,-440.2 453,-417.2 355,-417.2"/>
<text text-anchor="start" x="359.9934" y="-426.3" font-family="Helvetica,sans-Serif" font-weight="bold" font-size="11.00" fill="#000000">actividades</text>
<text text-anchor="start" x="418.5219" y="-425.3" font-family="Helvetica,sans-Serif" font-size="11.00" fill="#000000">[table]</text>
<polygon fill="none" stroke="#000000" points="355,-398.2 355,-417.2 453,-417.2 453,-398.2 355,-398.2"/>
<text text-anchor="start" x="358" y="-404.3" font-family="Helvetica,sans-Serif" font-size="11.00" fill="#000000">...</text>
<polygon fill="#ffffff" stroke="transparent" points="355,-379.2 355,-398.2 385,-398.2 385,-379.2 355,-379.2"/>
<polygon fill="none" stroke="#000000" points="355,-379.2 355,-398.2 385,-398.2 385,-379.2 355,-379.2"/>
<text text-anchor="start" x="358" y="-385.3" font-family="Helvetica,sans-Serif" font-size="11.00" fill="#000000">&lt; 4</text>
<polygon fill="#ffffff" stroke="transparent" points="385,-379.2 385,-398.2 427,-398.2 427,-379.2 385,-379.2"/>
<polygon fill="none" stroke="#000000" points="385,-379.2 385,-398.2 427,-398.2 427,-379.2 385,-379.2"/>
<text text-anchor="start" x="391.6105" y="-385.3" font-family="Helvetica,sans-Serif" font-size="11.00" fill="#000000">0 rows</text>
<polygon fill="#ffffff" stroke="transparent" points="427,-379.2 427,-398.2 453,-398.2 453,-379.2 427,-379.2"/>
<polygon fill="none" stroke="#000000" points="427,-379.2 427,-398.2 453,-398.2 453,-379.2 427,-379.2"/>
<text text-anchor="start" x="434.4053" y="-385.3" font-family="Helvetica,sans-Serif" font-size="11.00" fill="#000000">2 &gt;</text>
</a>
</g>
</g>
<!-- usuarios -->
<g id="node2" class="node">
<title>usuarios</title>
<g id="a_node2"><a xlink:href="../../tables/usuarios.html" xlink:title="usuarios" target="_top">
<polygon fill="#ffffff" stroke="transparent" points="145,-269.7 145,-440.7 285,-440.7 285,-269.7 145,-269.7"/>
<polygon fill="#f5f5f5" stroke="transparent" points="145,-417.2 145,-440.2 285,-440.2 285,-417.2 145,-417.2"/>
<polygon fill="none" stroke="#000000" points="145,-417.2 145,-440.2 285,-440.2 285,-417.2 145,-417.2"/>
<text text-anchor="start" x="150" y="-426.3" font-family="Helvetica,sans-Serif" font-weight="bold" font-size="11.00" fill="#000000">usuarios</text>
<text text-anchor="start" x="250.0437" y="-425.3" font-family="Helvetica,sans-Serif" font-size="11.00" fill="#000000">[table]</text>
<polygon fill="none" stroke="#000000" points="145,-395.2 145,-417.2 285,-417.2 285,-395.2 145,-395.2"/>
<image xlink:href="../../images/primaryKeys.png" width="11px" height="12px" preserveAspectRatio="xMinYMin meet" x="150" y="-412.2"/>
<text text-anchor="start" x="165" y="-402.3" font-family="Helvetica,sans-Serif" font-size="11.00" fill="#000000">usuario_id</text>
<polygon fill="none" stroke="#000000" points="145,-373.2 145,-395.2 285,-395.2 285,-373.2 145,-373.2"/>
<image xlink:href="../../images/foreignKeys.png" width="11px" height="12px" preserveAspectRatio="xMinYMin meet" x="150" y="-390.2"/>
<text text-anchor="start" x="165" y="-380.3" font-family="Helvetica,sans-Serif" font-size="11.00" fill="#000000">persona_id</text>
<polygon fill="none" stroke="#000000" points="145,-351.2 145,-373.2 285,-373.2 285,-351.2 145,-351.2"/>
<image xlink:href="../../images/foreignKeys.png" width="11px" height="12px" preserveAspectRatio="xMinYMin meet" x="150" y="-368.2"/>
<text text-anchor="start" x="165" y="-358.3" font-family="Helvetica,sans-Serif" font-size="11.00" fill="#000000">usu_insercion_id</text>
<polygon fill="none" stroke="#000000" points="145,-329.2 145,-351.2 285,-351.2 285,-329.2 145,-329.2"/>
<image xlink:href="../../images/foreignKeys.png" width="11px" height="12px" preserveAspectRatio="xMinYMin meet" x="150" y="-346.2"/>
<text text-anchor="start" x="165" y="-336.3" font-family="Helvetica,sans-Serif" font-size="11.00" fill="#000000">usu_modificacion_id</text>
<polygon fill="none" stroke="#000000" points="145,-307.2 145,-329.2 285,-329.2 285,-307.2 145,-307.2"/>
<image xlink:href="../../images/foreignKeys.png" width="11px" height="12px" preserveAspectRatio="xMinYMin meet" x="150" y="-324.2"/>
<text text-anchor="start" x="165" y="-314.3" font-family="Helvetica,sans-Serif" font-size="11.00" fill="#000000">usu_eliminacion_id</text>
<polygon fill="none" stroke="#000000" points="145,-288.2 145,-307.2 285,-307.2 285,-288.2 145,-288.2"/>
<text text-anchor="start" x="148" y="-294.3" font-family="Helvetica,sans-Serif" font-size="11.00" fill="#000000">...</text>
<polygon fill="#ffffff" stroke="transparent" points="145,-269.2 145,-288.2 193,-288.2 193,-269.2 145,-269.2"/>
<polygon fill="none" stroke="#000000" points="145,-269.2 145,-288.2 193,-288.2 193,-269.2 145,-269.2"/>
<text text-anchor="start" x="148" y="-275.3" font-family="Helvetica,sans-Serif" font-size="11.00" fill="#000000">&lt; 4</text>
<polygon fill="#ffffff" stroke="transparent" points="193,-269.2 193,-288.2 244,-288.2 244,-269.2 193,-269.2"/>
<polygon fill="none" stroke="#000000" points="193,-269.2 193,-288.2 244,-288.2 244,-269.2 193,-269.2"/>
<text text-anchor="start" x="208.6105" y="-275.3" font-family="Helvetica,sans-Serif" font-size="11.00" fill="#000000">0 rows</text>
<polygon fill="#ffffff" stroke="transparent" points="244,-269.2 244,-288.2 285,-288.2 285,-269.2 244,-269.2"/>
<polygon fill="none" stroke="#000000" points="244,-269.2 244,-288.2 285,-288.2 285,-269.2 244,-269.2"/>
<text text-anchor="start" x="260.2904" y="-275.3" font-family="Helvetica,sans-Serif" font-size="11.00" fill="#000000">19 &gt;</text>
</a>
</g>
</g>
<!-- actividades&#45;&gt;usuarios -->
<g id="edge1" class="edge">
<title>actividades:w&#45;&gt;usuarios:e</title>
<path fill="none" stroke="#000000" d="M342.5347,-399.9354C321.0642,-388.3438 311.4958,-390.0203 285,-406.2"/>
<polygon fill="#000000" stroke="#000000" points="348.0881,-403.1718 353.1873,-410.3103 351.5441,-405.1859 355,-407.2 355,-407.2 355,-407.2 351.5441,-405.1859 356.8127,-404.0897 348.0881,-403.1718 348.0881,-403.1718"/>
<ellipse fill="none" stroke="#000000" cx="345.3234" cy="-401.5606" rx="3.2" ry="3.2"/>
</g>
<!-- actividades&#45;&gt;usuarios -->
<g id="edge2" class="edge">
<title>actividades:w&#45;&gt;usuarios:e</title>
<path fill="none" stroke="#000000" d="M340.7884,-404.5595C320.5247,-401.063 310.7665,-401.2313 285,-406.2"/>
<polygon fill="#000000" stroke="#000000" points="347.1346,-405.7386 354.3424,-410.7394 351.0673,-406.4693 355,-407.2 355,-407.2 355,-407.2 351.0673,-406.4693 355.6576,-403.6606 347.1346,-405.7386 347.1346,-405.7386"/>
<ellipse fill="none" stroke="#000000" cx="343.9884" cy="-405.154" rx="3.2" ry="3.2"/>
</g>
<!-- actividades&#45;&gt;usuarios -->
<g id="edge3" class="edge">
<title>actividades:w&#45;&gt;usuarios:e</title>
<path fill="none" stroke="#000000" d="M340.7884,-410.1105C320.5247,-413.679 310.7665,-411.9969 285,-406.2"/>
<polygon fill="#000000" stroke="#000000" points="347.1627,-408.8051 355.7223,-410.7268 351.0813,-408.0026 355,-407.2 355,-407.2 355,-407.2 351.0813,-408.0026 354.2777,-403.6732 347.1627,-408.8051 347.1627,-408.8051"/>
<ellipse fill="none" stroke="#000000" cx="344.0277" cy="-409.4472" rx="3.2" ry="3.2"/>
</g>
<!-- actividades&#45;&gt;usuarios -->
<g id="edge4" class="edge">
<title>actividades:w&#45;&gt;usuarios:e</title>
<path fill="none" stroke="#000000" d="M342.5347,-414.7247C321.0642,-426.4845 311.4958,-423.2313 285,-406.2"/>
<polygon fill="#000000" stroke="#000000" points="348.1511,-411.3344 356.8605,-410.282 351.5756,-409.2672 355,-407.2 355,-407.2 355,-407.2 351.5756,-409.2672 353.1395,-404.118 348.1511,-411.3344 348.1511,-411.3344"/>
<ellipse fill="none" stroke="#000000" cx="345.4115" cy="-412.9881" rx="3.2" ry="3.2"/>
</g>
<!-- personas -->
<g id="node6" class="node">
<title>personas</title>
<g id="a_node6"><a xlink:href="../../tables/personas.html" xlink:title="personas" target="_top">
<polygon fill="#ffffff" stroke="transparent" points="8,-408.7 8,-469.7 96,-469.7 96,-408.7 8,-408.7"/>
<polygon fill="#f5f5f5" stroke="transparent" points="8,-446.2 8,-469.2 96,-469.2 96,-446.2 8,-446.2"/>
<polygon fill="none" stroke="#000000" points="8,-446.2 8,-469.2 96,-469.2 96,-446.2 8,-446.2"/>
<text text-anchor="start" x="12.8818" y="-455.3" font-family="Helvetica,sans-Serif" font-weight="bold" font-size="11.00" fill="#000000">personas</text>
<text text-anchor="start" x="61.5219" y="-454.3" font-family="Helvetica,sans-Serif" font-size="11.00" fill="#000000">[table]</text>
<polygon fill="none" stroke="#000000" points="8,-427.2 8,-446.2 96,-446.2 96,-427.2 8,-427.2"/>
<text text-anchor="start" x="11" y="-433.3" font-family="Helvetica,sans-Serif" font-size="11.00" fill="#000000">...</text>
<polygon fill="#ffffff" stroke="transparent" points="8,-408.2 8,-427.2 28,-427.2 28,-408.2 8,-408.2"/>
<polygon fill="none" stroke="#000000" points="8,-408.2 8,-427.2 28,-427.2 28,-408.2 8,-408.2"/>
<text text-anchor="start" x="11" y="-414.3" font-family="Helvetica,sans-Serif" font-size="11.00" fill="#000000"> &#160;</text>
<polygon fill="#ffffff" stroke="transparent" points="28,-408.2 28,-427.2 70,-427.2 70,-408.2 28,-408.2"/>
<polygon fill="none" stroke="#000000" points="28,-408.2 28,-427.2 70,-427.2 70,-408.2 28,-408.2"/>
<text text-anchor="start" x="34.6105" y="-414.3" font-family="Helvetica,sans-Serif" font-size="11.00" fill="#000000">0 rows</text>
<polygon fill="#ffffff" stroke="transparent" points="70,-408.2 70,-427.2 96,-427.2 96,-408.2 70,-408.2"/>
<polygon fill="none" stroke="#000000" points="70,-408.2 70,-427.2 96,-427.2 96,-408.2 70,-408.2"/>
<text text-anchor="start" x="77.4053" y="-414.3" font-family="Helvetica,sans-Serif" font-size="11.00" fill="#000000">4 &gt;</text>
</a>
</g>
</g>
<!-- usuarios&#45;&gt;personas -->
<g id="edge22" class="edge">
<title>usuarios:w&#45;&gt;personas:e</title>
<path fill="none" stroke="#000000" d="M131.4073,-388.9988C117.0597,-401.8719 121.8011,-436.2 96,-436.2"/>
<polygon fill="#000000" stroke="#000000" points="137.4563,-386.8633 146.1985,-387.5947 141.2282,-385.5316 145,-384.2 145,-384.2 145,-384.2 141.2282,-385.5316 143.8015,-380.8053 137.4563,-386.8633 137.4563,-386.8633"/>
<ellipse fill="none" stroke="#000000" cx="134.4388" cy="-387.9286" rx="3.2" ry="3.2"/>
</g>
<!-- campanas -->
<g id="node3" class="node">
<title>campanas</title>
<g id="a_node3"><a xlink:href="../../tables/campanas.html" xlink:title="campanas" target="_top">
<polygon fill="#ffffff" stroke="transparent" points="334,-187.7 334,-358.7 474,-358.7 474,-187.7 334,-187.7"/>
<polygon fill="#f5f5f5" stroke="transparent" points="334,-335.2 334,-358.2 474,-358.2 474,-335.2 334,-335.2"/>
<polygon fill="none" stroke="#000000" points="334,-335.2 334,-358.2 474,-358.2 474,-335.2 334,-335.2"/>
<text text-anchor="start" x="339" y="-344.3" font-family="Helvetica,sans-Serif" font-weight="bold" font-size="11.00" fill="#000000">campanas</text>
<text text-anchor="start" x="439.0437" y="-343.3" font-family="Helvetica,sans-Serif" font-size="11.00" fill="#000000">[table]</text>
<polygon fill="none" stroke="#000000" points="334,-313.2 334,-335.2 474,-335.2 474,-313.2 334,-313.2"/>
<image xlink:href="../../images/primaryKeys.png" width="11px" height="12px" preserveAspectRatio="xMinYMin meet" x="339" y="-330.2"/>
<text text-anchor="start" x="354" y="-320.3" font-family="Helvetica,sans-Serif" font-size="11.00" fill="#000000">campana_id</text>
<polygon fill="none" stroke="#000000" points="334,-291.2 334,-313.2 474,-313.2 474,-291.2 334,-291.2"/>
<image xlink:href="../../images/foreignKeys.png" width="11px" height="12px" preserveAspectRatio="xMinYMin meet" x="339" y="-308.2"/>
<text text-anchor="start" x="354" y="-298.3" font-family="Helvetica,sans-Serif" font-size="11.00" fill="#000000">usu_asignado_id</text>
<polygon fill="none" stroke="#000000" points="334,-269.2 334,-291.2 474,-291.2 474,-269.2 334,-269.2"/>
<image xlink:href="../../images/foreignKeys.png" width="11px" height="12px" preserveAspectRatio="xMinYMin meet" x="339" y="-286.2"/>
<text text-anchor="start" x="354" y="-276.3" font-family="Helvetica,sans-Serif" font-size="11.00" fill="#000000">usu_insercion_id</text>
<polygon fill="none" stroke="#000000" points="334,-247.2 334,-269.2 474,-269.2 474,-247.2 334,-247.2"/>
<image xlink:href="../../images/foreignKeys.png" width="11px" height="12px" preserveAspectRatio="xMinYMin meet" x="339" y="-264.2"/>
<text text-anchor="start" x="354" y="-254.3" font-family="Helvetica,sans-Serif" font-size="11.00" fill="#000000">usu_modificacion_id</text>
<polygon fill="none" stroke="#000000" points="334,-225.2 334,-247.2 474,-247.2 474,-225.2 334,-225.2"/>
<image xlink:href="../../images/foreignKeys.png" width="11px" height="12px" preserveAspectRatio="xMinYMin meet" x="339" y="-242.2"/>
<text text-anchor="start" x="354" y="-232.3" font-family="Helvetica,sans-Serif" font-size="11.00" fill="#000000">usu_eliminacion_id</text>
<polygon fill="none" stroke="#000000" points="334,-206.2 334,-225.2 474,-225.2 474,-206.2 334,-206.2"/>
<text text-anchor="start" x="337" y="-212.3" font-family="Helvetica,sans-Serif" font-size="11.00" fill="#000000">...</text>
<polygon fill="#ffffff" stroke="transparent" points="334,-187.2 334,-206.2 385,-206.2 385,-187.2 334,-187.2"/>
<polygon fill="none" stroke="#000000" points="334,-187.2 334,-206.2 385,-206.2 385,-187.2 334,-187.2"/>
<text text-anchor="start" x="337" y="-193.3" font-family="Helvetica,sans-Serif" font-size="11.00" fill="#000000">&lt; 4</text>
<polygon fill="#ffffff" stroke="transparent" points="385,-187.2 385,-206.2 438,-206.2 438,-187.2 385,-187.2"/>
<polygon fill="none" stroke="#000000" points="385,-187.2 385,-206.2 438,-206.2 438,-187.2 385,-187.2"/>
<text text-anchor="start" x="402.6105" y="-193.3" font-family="Helvetica,sans-Serif" font-size="11.00" fill="#000000">0 rows</text>
<polygon fill="#ffffff" stroke="transparent" points="438,-187.2 438,-206.2 474,-206.2 474,-187.2 438,-187.2"/>
<polygon fill="none" stroke="#000000" points="438,-187.2 438,-206.2 474,-206.2 474,-187.2 438,-187.2"/>
<text text-anchor="start" x="455.4053" y="-193.3" font-family="Helvetica,sans-Serif" font-size="11.00" fill="#000000">1 &gt;</text>
</a>
</g>
</g>
<!-- campanas&#45;&gt;usuarios -->
<g id="edge5" class="edge">
<title>campanas:w&#45;&gt;usuarios:e</title>
<path fill="none" stroke="#000000" d="M319.9975,-306.1499C293.9389,-325.1468 330.1079,-406.2 285,-406.2"/>
<polygon fill="#000000" stroke="#000000" points="326.3005,-304.372 334.9774,-305.6648 330.1502,-303.286 334,-302.2 334,-302.2 334,-302.2 330.1502,-303.286 333.0226,-298.7352 326.3005,-304.372 326.3005,-304.372"/>
<ellipse fill="none" stroke="#000000" cx="323.2207" cy="-305.2408" rx="3.2" ry="3.2"/>
</g>
<!-- campanas&#45;&gt;usuarios -->
<g id="edge6" class="edge">
<title>campanas:w&#45;&gt;usuarios:e</title>
<path fill="none" stroke="#000000" d="M319.7399,-238.7351C270.0399,-259.8825 357.9492,-406.2 285,-406.2"/>
<polygon fill="#000000" stroke="#000000" points="326.1235,-237.6003 334.6301,-239.7444 330.0617,-236.9001 334,-236.2 334,-236.2 334,-236.2 330.0617,-236.9001 333.3699,-232.6556 326.1235,-237.6003 326.1235,-237.6003"/>
<ellipse fill="none" stroke="#000000" cx="322.9729" cy="-238.1604" rx="3.2" ry="3.2"/>
</g>
<!-- campanas&#45;&gt;usuarios -->
<g id="edge7" class="edge">
<title>campanas:w&#45;&gt;usuarios:e</title>
<path fill="none" stroke="#000000" d="M319.9076,-283.5702C286.5633,-303.6077 339.2178,-406.2 285,-406.2"/>
<polygon fill="#000000" stroke="#000000" points="326.2194,-282.0608 334.8373,-283.7013 330.1097,-281.1304 334,-280.2 334,-280.2 334,-280.2 330.1097,-281.1304 333.1627,-276.6987 326.2194,-282.0608 326.2194,-282.0608"/>
<ellipse fill="none" stroke="#000000" cx="323.1072" cy="-282.8051" rx="3.2" ry="3.2"/>
</g>
<!-- campanas&#45;&gt;usuarios -->
<g id="edge8" class="edge">
<title>campanas:w&#45;&gt;usuarios:e</title>
<path fill="none" stroke="#000000" d="M319.7158,-261.1564C278.6366,-282.0155 348.47,-406.2 285,-406.2"/>
<polygon fill="#000000" stroke="#000000" points="326.166,-259.8214 334.7296,-261.7253 330.083,-259.0107 334,-258.2 334,-258.2 334,-258.2 330.083,-259.0107 333.2704,-254.6747 326.166,-259.8214 326.166,-259.8214"/>
<ellipse fill="none" stroke="#000000" cx="323.0324" cy="-260.47" rx="3.2" ry="3.2"/>
</g>
<!-- casos -->
<g id="node4" class="node">
<title>casos</title>
<g id="a_node4"><a xlink:href="../../tables/casos.html" xlink:title="casos" target="_top">
<polygon fill="#ffffff" stroke="transparent" points="368.5,-461.7 368.5,-522.7 439.5,-522.7 439.5,-461.7 368.5,-461.7"/>
<polygon fill="#f5f5f5" stroke="transparent" points="369,-499.2 369,-522.2 440,-522.2 440,-499.2 369,-499.2"/>
<polygon fill="none" stroke="#000000" points="369,-499.2 369,-522.2 440,-522.2 440,-499.2 369,-499.2"/>
<text text-anchor="start" x="373.6351" y="-508.3" font-family="Helvetica,sans-Serif" font-weight="bold" font-size="11.00" fill="#000000">casos</text>
<text text-anchor="start" x="405.5219" y="-507.3" font-family="Helvetica,sans-Serif" font-size="11.00" fill="#000000">[table]</text>
<polygon fill="none" stroke="#000000" points="369,-480.2 369,-499.2 440,-499.2 440,-480.2 369,-480.2"/>
<text text-anchor="start" x="372" y="-486.3" font-family="Helvetica,sans-Serif" font-size="11.00" fill="#000000">...</text>
<polygon fill="#ffffff" stroke="transparent" points="369,-461.2 369,-480.2 390,-480.2 390,-461.2 369,-461.2"/>
<polygon fill="none" stroke="#000000" points="369,-461.2 369,-480.2 390,-480.2 390,-461.2 369,-461.2"/>
<text text-anchor="start" x="371.7027" y="-467.3" font-family="Helvetica,sans-Serif" font-size="11.00" fill="#000000">&lt; 5</text>
<polygon fill="#ffffff" stroke="transparent" points="390,-461.2 390,-480.2 428,-480.2 428,-461.2 390,-461.2"/>
<polygon fill="none" stroke="#000000" points="390,-461.2 390,-480.2 428,-480.2 428,-461.2 390,-461.2"/>
<text text-anchor="start" x="392.8053" y="-467.3" font-family="Helvetica,sans-Serif" font-size="11.00" fill="#000000">0 rows</text>
<polygon fill="#ffffff" stroke="transparent" points="428,-461.2 428,-480.2 440,-480.2 440,-461.2 428,-461.2"/>
<polygon fill="none" stroke="#000000" points="428,-461.2 428,-480.2 440,-480.2 440,-461.2 428,-461.2"/>
<text text-anchor="start" x="430.9431" y="-467.3" font-family="Helvetica,sans-Serif" font-size="11.00" fill="#000000"> &#160;</text>
</a>
</g>
</g>
<!-- casos&#45;&gt;usuarios -->
<g id="edge10" class="edge">
<title>casos:w&#45;&gt;usuarios:e</title>
<path fill="none" stroke="#000000" d="M357.9408,-479.3222C343.171,-463.3547 341.0475,-447.0209 326,-432.2 306.7236,-413.2139 312.0564,-387.2 285,-406.2"/>
<polygon fill="#000000" stroke="#000000" points="363.0334,-483.8708 366.6019,-491.885 366.0167,-486.5354 369,-489.2 369,-489.2 369,-489.2 366.0167,-486.5354 371.3981,-486.515 363.0334,-483.8708 363.0334,-483.8708"/>
<ellipse fill="none" stroke="#000000" cx="360.6468" cy="-481.7391" rx="3.2" ry="3.2"/>
</g>
<!-- casos&#45;&gt;usuarios -->
<g id="edge11" class="edge">
<title>casos:w&#45;&gt;usuarios:e</title>
<path fill="none" stroke="#000000" d="M355.5496,-483.4087C342.8892,-474.5105 340.1957,-459.182 326,-445.2 306.7236,-426.2139 312.0564,-400.2 285,-406.2"/>
<polygon fill="#000000" stroke="#000000" points="361.6522,-486.0362 367.5763,-492.5065 365.3261,-487.6181 369,-489.2 369,-489.2 369,-489.2 365.3261,-487.6181 370.4237,-485.8935 361.6522,-486.0362 361.6522,-486.0362"/>
<ellipse fill="none" stroke="#000000" cx="358.713" cy="-484.7707" rx="3.2" ry="3.2"/>
</g>
<!-- casos&#45;&gt;usuarios -->
<g id="edge12" class="edge">
<title>casos:w&#45;&gt;usuarios:e</title>
<path fill="none" stroke="#000000" d="M354.4365,-489.9331C342.7172,-486.592 339.7699,-471.7625 326,-458.2 306.7236,-439.2139 312.0564,-413.2 285,-406.2"/>
<polygon fill="#000000" stroke="#000000" points="361.0101,-489.6023 369.181,-492.7954 365.0051,-489.4011 369,-489.2 369,-489.2 369,-489.2 365.0051,-489.4011 368.819,-485.6046 361.0101,-489.6023 361.0101,-489.6023"/>
<ellipse fill="none" stroke="#000000" cx="357.8142" cy="-489.7632" rx="3.2" ry="3.2"/>
</g>
<!-- casos&#45;&gt;usuarios -->
<g id="edge13" class="edge">
<title>casos:w&#45;&gt;usuarios:e</title>
<path fill="none" stroke="#000000" d="M356.3214,-496.7782C342.9923,-501.1242 340.4797,-485.4616 326,-471.2 306.7236,-452.2139 312.0564,-426.2 285,-406.2"/>
<polygon fill="#000000" stroke="#000000" points="362.1331,-493.3044 370.847,-492.2901 365.5666,-491.2522 369,-489.2 369,-489.2 369,-489.2 365.5666,-491.2522 367.153,-486.1099 362.1331,-493.3044 362.1331,-493.3044"/>
<ellipse fill="none" stroke="#000000" cx="359.3864" cy="-494.9462" rx="3.2" ry="3.2"/>
</g>
<!-- contactos -->
<g id="node5" class="node">
<title>contactos</title>
<g id="a_node5"><a xlink:href="../../tables/contactos.html" xlink:title="contactos" target="_top">
<polygon fill="#ffffff" stroke="transparent" points="170,-461.7 170,-522.7 260,-522.7 260,-461.7 170,-461.7"/>
<polygon fill="#f5f5f5" stroke="transparent" points="170,-499.2 170,-522.2 260,-522.2 260,-499.2 170,-499.2"/>
<polygon fill="none" stroke="#000000" points="170,-499.2 170,-522.2 260,-522.2 260,-499.2 170,-499.2"/>
<text text-anchor="start" x="174.9633" y="-508.3" font-family="Helvetica,sans-Serif" font-weight="bold" font-size="11.00" fill="#000000">contactos</text>
<text text-anchor="start" x="225.5219" y="-507.3" font-family="Helvetica,sans-Serif" font-size="11.00" fill="#000000">[table]</text>
<polygon fill="none" stroke="#000000" points="170,-480.2 170,-499.2 260,-499.2 260,-480.2 170,-480.2"/>
<text text-anchor="start" x="173" y="-486.3" font-family="Helvetica,sans-Serif" font-size="11.00" fill="#000000">...</text>
<polygon fill="#ffffff" stroke="transparent" points="170,-461.2 170,-480.2 196,-480.2 196,-461.2 170,-461.2"/>
<polygon fill="none" stroke="#000000" points="170,-461.2 170,-480.2 196,-480.2 196,-461.2 170,-461.2"/>
<text text-anchor="start" x="173" y="-467.3" font-family="Helvetica,sans-Serif" font-size="11.00" fill="#000000">&lt; 1</text>
<polygon fill="#ffffff" stroke="transparent" points="196,-461.2 196,-480.2 236,-480.2 236,-461.2 196,-461.2"/>
<polygon fill="none" stroke="#000000" points="196,-461.2 196,-480.2 236,-480.2 236,-461.2 196,-461.2"/>
<text text-anchor="start" x="200.6105" y="-467.3" font-family="Helvetica,sans-Serif" font-size="11.00" fill="#000000">0 rows</text>
<polygon fill="#ffffff" stroke="transparent" points="236,-461.2 236,-480.2 260,-480.2 260,-461.2 236,-461.2"/>
<polygon fill="none" stroke="#000000" points="236,-461.2 236,-480.2 260,-480.2 260,-461.2 236,-461.2"/>
<text text-anchor="start" x="241.4053" y="-467.3" font-family="Helvetica,sans-Serif" font-size="11.00" fill="#000000">3 &gt;</text>
</a>
</g>
</g>
<!-- casos&#45;&gt;contactos -->
<g id="edge9" class="edge">
<title>casos:w&#45;&gt;contactos:e</title>
<path fill="none" stroke="#000000" d="M354.313,-489.2C317.4716,-489.2 303.1458,-489.2 260,-489.2"/>
<polygon fill="#000000" stroke="#000000" points="361,-489.2001 369,-492.8 365,-489.2 369,-489.2 369,-489.2 369,-489.2 365,-489.2 369,-485.6 361,-489.2001 361,-489.2001"/>
<ellipse fill="none" stroke="#000000" cx="357.8" cy="-489.2001" rx="3.2" ry="3.2"/>
</g>
<!-- contactos&#45;&gt;personas -->
<g id="edge14" class="edge">
<title>contactos:w&#45;&gt;personas:e</title>
<path fill="none" stroke="#000000" d="M155.8213,-486.4989C130.5495,-475.6985 130.9234,-436.2 96,-436.2"/>
<polygon fill="#000000" stroke="#000000" points="162.1413,-487.7028 169.3263,-492.7364 166.0707,-488.4514 170,-489.2 170,-489.2 170,-489.2 166.0707,-488.4514 170.6737,-485.6636 162.1413,-487.7028 162.1413,-487.7028"/>
<ellipse fill="none" stroke="#000000" cx="158.9979" cy="-487.104" rx="3.2" ry="3.2"/>
</g>
<!-- contactos_oportunidades -->
<g id="node7" class="node">
<title>contactos_oportunidades</title>
<g id="a_node7"><a xlink:href="../../tables/contactos_oportunidades.html" xlink:title="contactos_oportunidades" target="_top">
<polygon fill="#ffffff" stroke="transparent" points="800,-356.7 800,-461.7 967,-461.7 967,-356.7 800,-356.7"/>
<polygon fill="#f5f5f5" stroke="transparent" points="800.5,-438.2 800.5,-461.2 967.5,-461.2 967.5,-438.2 800.5,-438.2"/>
<polygon fill="none" stroke="#000000" points="800.5,-438.2 800.5,-461.2 967.5,-461.2 967.5,-438.2 800.5,-438.2"/>
<text text-anchor="start" x="805.5" y="-447.3" font-family="Helvetica,sans-Serif" font-weight="bold" font-size="11.00" fill="#000000">contactos_oportunidades</text>
<text text-anchor="start" x="932.5437" y="-446.3" font-family="Helvetica,sans-Serif" font-size="11.00" fill="#000000">[table]</text>
<polygon fill="none" stroke="#000000" points="800.5,-416.2 800.5,-438.2 967.5,-438.2 967.5,-416.2 800.5,-416.2"/>
<image xlink:href="../../images/foreignKeys.png" width="11px" height="12px" preserveAspectRatio="xMinYMin meet" x="805.5" y="-433.2"/>
<text text-anchor="start" x="820.5" y="-423.3" font-family="Helvetica,sans-Serif" font-size="11.00" fill="#000000">contacto_id</text>
<polygon fill="none" stroke="#000000" points="800.5,-394.2 800.5,-416.2 967.5,-416.2 967.5,-394.2 800.5,-394.2"/>
<image xlink:href="../../images/foreignKeys.png" width="11px" height="12px" preserveAspectRatio="xMinYMin meet" x="805.5" y="-411.2"/>
<text text-anchor="start" x="820.5" y="-401.3" font-family="Helvetica,sans-Serif" font-size="11.00" fill="#000000">oportunidad_id</text>
<polygon fill="none" stroke="#000000" points="800.5,-375.2 800.5,-394.2 967.5,-394.2 967.5,-375.2 800.5,-375.2"/>
<text text-anchor="start" x="803.5" y="-381.3" font-family="Helvetica,sans-Serif" font-size="11.00" fill="#000000">...</text>
<polygon fill="#ffffff" stroke="transparent" points="800.5,-356.2 800.5,-375.2 869.5,-375.2 869.5,-356.2 800.5,-356.2"/>
<polygon fill="none" stroke="#000000" points="800.5,-356.2 800.5,-375.2 869.5,-375.2 869.5,-356.2 800.5,-356.2"/>
<text text-anchor="start" x="803.5" y="-362.3" font-family="Helvetica,sans-Serif" font-size="11.00" fill="#000000">&lt; 2</text>
<polygon fill="#ffffff" stroke="transparent" points="869.5,-356.2 869.5,-375.2 931.5,-375.2 931.5,-356.2 869.5,-356.2"/>
<polygon fill="none" stroke="#000000" points="869.5,-356.2 869.5,-375.2 931.5,-375.2 931.5,-356.2 869.5,-356.2"/>
<text text-anchor="start" x="896.1105" y="-362.3" font-family="Helvetica,sans-Serif" font-size="11.00" fill="#000000">0 rows</text>
<polygon fill="#ffffff" stroke="transparent" points="931.5,-356.2 931.5,-375.2 967.5,-375.2 967.5,-356.2 931.5,-356.2"/>
<polygon fill="none" stroke="#000000" points="931.5,-356.2 931.5,-375.2 967.5,-375.2 967.5,-356.2 931.5,-356.2"/>
<text text-anchor="start" x="958.3862" y="-362.3" font-family="Helvetica,sans-Serif" font-size="11.00" fill="#000000"> &#160;</text>
</a>
</g>
</g>
<!-- contactos_oportunidades&#45;&gt;contactos -->
<g id="edge15" class="edge">
<title>contactos_oportunidades:w&#45;&gt;contactos:e</title>
<path fill="none" stroke="#000000" d="M786.0506,-427.4665C649.7089,-432.5902 624.3787,-510.1295 482,-533.2 413.5593,-544.2899 392.3584,-553.2917 326,-533.2 292.2584,-522.9839 295.2543,-489.2 260,-489.2"/>
<polygon fill="#000000" stroke="#000000" points="792.5014,-427.3476 800.5664,-430.7994 796.5007,-427.2738 800.5,-427.2 800.5,-427.2 800.5,-427.2 796.5007,-427.2738 800.4336,-423.6006 792.5014,-427.3476 792.5014,-427.3476"/>
<ellipse fill="none" stroke="#000000" cx="789.3019" cy="-427.4066" rx="3.2" ry="3.2"/>
</g>
<!-- oportunidades -->
<g id="node8" class="node">
<title>oportunidades</title>
<g id="a_node8"><a xlink:href="../../tables/oportunidades.html" xlink:title="oportunidades" target="_top">
<polygon fill="#ffffff" stroke="transparent" points="523,-38.2 523,-326.2 751,-326.2 751,-38.2 523,-38.2"/>
<polygon fill="#f5f5f5" stroke="transparent" points="525,-301.2 525,-324.2 749,-324.2 749,-301.2 525,-301.2"/>
<polygon fill="none" stroke="#000000" points="525,-301.2 525,-324.2 749,-324.2 749,-301.2 525,-301.2"/>
<text text-anchor="start" x="530" y="-310.3" font-family="Helvetica,sans-Serif" font-weight="bold" font-size="11.00" fill="#000000">oportunidades</text>
<text text-anchor="start" x="714.0437" y="-309.3" font-family="Helvetica,sans-Serif" font-size="11.00" fill="#000000">[table]</text>
<polygon fill="none" stroke="#000000" points="525,-279.2 525,-301.2 665,-301.2 665,-279.2 525,-279.2"/>
<image xlink:href="../../images/primaryKeys.png" width="11px" height="12px" preserveAspectRatio="xMinYMin meet" x="530" y="-296.2"/>
<text text-anchor="start" x="545" y="-286.3" font-family="Helvetica,sans-Serif" font-size="11.00" fill="#000000">oportunidad_id</text>
<polygon fill="none" stroke="#000000" points="665,-279.2 665,-301.2 749,-301.2 749,-279.2 665,-279.2"/>
<text text-anchor="start" x="668" y="-286.9" font-family="Helvetica,sans-Serif" font-size="11.00" fill="#000000">int4[10]</text>
<polygon fill="none" stroke="#000000" points="525,-257.2 525,-279.2 665,-279.2 665,-257.2 525,-257.2"/>
<image xlink:href="../../images/foreignKeys.png" width="11px" height="12px" preserveAspectRatio="xMinYMin meet" x="530" y="-274.2"/>
<text text-anchor="start" x="545" y="-264.3" font-family="Helvetica,sans-Serif" font-size="11.00" fill="#000000">campana_id</text>
<polygon fill="none" stroke="#000000" points="665,-257.2 665,-279.2 749,-279.2 749,-257.2 665,-257.2"/>
<text text-anchor="start" x="668" y="-264.9" font-family="Helvetica,sans-Serif" font-size="11.00" fill="#000000">int4[10]</text>
<polygon fill="none" stroke="#000000" points="525,-235.2 525,-257.2 665,-257.2 665,-235.2 525,-235.2"/>
<image xlink:href="../../images/foreignKeys.png" width="11px" height="12px" preserveAspectRatio="xMinYMin meet" x="530" y="-252.2"/>
<text text-anchor="start" x="545" y="-242.3" font-family="Helvetica,sans-Serif" font-size="11.00" fill="#000000">usu_asignado_id</text>
<polygon fill="none" stroke="#000000" points="665,-235.2 665,-257.2 749,-257.2 749,-235.2 665,-235.2"/>
<text text-anchor="start" x="668" y="-242.9" font-family="Helvetica,sans-Serif" font-size="11.00" fill="#000000">int4[10]</text>
<polygon fill="none" stroke="#000000" points="525,-213.2 525,-235.2 665,-235.2 665,-213.2 525,-213.2"/>
<text text-anchor="start" x="545" y="-220.3" font-family="Helvetica,sans-Serif" font-size="11.00" fill="#000000">nombre</text>
<polygon fill="none" stroke="#000000" points="665,-213.2 665,-235.2 749,-235.2 749,-213.2 665,-213.2"/>
<text text-anchor="start" x="668" y="-220.9" font-family="Helvetica,sans-Serif" font-size="11.00" fill="#000000">varchar[120]</text>
<polygon fill="none" stroke="#000000" points="525,-191.2 525,-213.2 665,-213.2 665,-191.2 525,-191.2"/>
<text text-anchor="start" x="545" y="-198.3" font-family="Helvetica,sans-Serif" font-size="11.00" fill="#000000">etapa</text>
<polygon fill="none" stroke="#000000" points="665,-191.2 665,-213.2 749,-213.2 749,-191.2 665,-191.2"/>
<text text-anchor="start" x="668" y="-198.9" font-family="Helvetica,sans-Serif" font-size="11.00" fill="#000000">int4[10]</text>
<polygon fill="none" stroke="#000000" points="525,-169.2 525,-191.2 665,-191.2 665,-169.2 525,-169.2"/>
<text text-anchor="start" x="545" y="-176.3" font-family="Helvetica,sans-Serif" font-size="11.00" fill="#000000">fec_insercion</text>
<polygon fill="none" stroke="#000000" points="665,-169.2 665,-191.2 749,-191.2 749,-169.2 665,-169.2"/>
<text text-anchor="start" x="667.8807" y="-176.9" font-family="Helvetica,sans-Serif" font-size="11.00" fill="#000000">timestamp[29,6]</text>
<polygon fill="none" stroke="#000000" points="525,-147.2 525,-169.2 665,-169.2 665,-147.2 525,-147.2"/>
<image xlink:href="../../images/foreignKeys.png" width="11px" height="12px" preserveAspectRatio="xMinYMin meet" x="530" y="-164.2"/>
<text text-anchor="start" x="545" y="-154.3" font-family="Helvetica,sans-Serif" font-size="11.00" fill="#000000">usu_insercion_id</text>
<polygon fill="none" stroke="#000000" points="665,-147.2 665,-169.2 749,-169.2 749,-147.2 665,-147.2"/>
<text text-anchor="start" x="668" y="-154.9" font-family="Helvetica,sans-Serif" font-size="11.00" fill="#000000">int4[10]</text>
<polygon fill="none" stroke="#000000" points="525,-125.2 525,-147.2 665,-147.2 665,-125.2 525,-125.2"/>
<text text-anchor="start" x="545" y="-132.3" font-family="Helvetica,sans-Serif" font-size="11.00" fill="#000000">fec_modificacion</text>
<polygon fill="none" stroke="#000000" points="665,-125.2 665,-147.2 749,-147.2 749,-125.2 665,-125.2"/>
<text text-anchor="start" x="667.8807" y="-132.9" font-family="Helvetica,sans-Serif" font-size="11.00" fill="#000000">timestamp[29,6]</text>
<polygon fill="none" stroke="#000000" points="525,-103.2 525,-125.2 665,-125.2 665,-103.2 525,-103.2"/>
<image xlink:href="../../images/foreignKeys.png" width="11px" height="12px" preserveAspectRatio="xMinYMin meet" x="530" y="-120.2"/>
<text text-anchor="start" x="545" y="-110.3" font-family="Helvetica,sans-Serif" font-size="11.00" fill="#000000">usu_modificacion_id</text>
<polygon fill="none" stroke="#000000" points="665,-103.2 665,-125.2 749,-125.2 749,-103.2 665,-103.2"/>
<text text-anchor="start" x="668" y="-110.9" font-family="Helvetica,sans-Serif" font-size="11.00" fill="#000000">int4[10]</text>
<polygon fill="none" stroke="#000000" points="525,-81.2 525,-103.2 665,-103.2 665,-81.2 525,-81.2"/>
<text text-anchor="start" x="545" y="-88.3" font-family="Helvetica,sans-Serif" font-size="11.00" fill="#000000">fec_eliminacion</text>
<polygon fill="none" stroke="#000000" points="665,-81.2 665,-103.2 749,-103.2 749,-81.2 665,-81.2"/>
<text text-anchor="start" x="667.8807" y="-88.9" font-family="Helvetica,sans-Serif" font-size="11.00" fill="#000000">timestamp[29,6]</text>
<polygon fill="none" stroke="#000000" points="525,-59.2 525,-81.2 665,-81.2 665,-59.2 525,-59.2"/>
<image xlink:href="../../images/foreignKeys.png" width="11px" height="12px" preserveAspectRatio="xMinYMin meet" x="530" y="-76.2"/>
<text text-anchor="start" x="545" y="-66.3" font-family="Helvetica,sans-Serif" font-size="11.00" fill="#000000">usu_eliminacion_id</text>
<polygon fill="none" stroke="#000000" points="665,-59.2 665,-81.2 749,-81.2 749,-59.2 665,-59.2"/>
<text text-anchor="start" x="668" y="-66.9" font-family="Helvetica,sans-Serif" font-size="11.00" fill="#000000">int4[10]</text>
<polygon fill="#ffffff" stroke="transparent" points="525,-40.2 525,-59.2 586,-59.2 586,-40.2 525,-40.2"/>
<polygon fill="none" stroke="#000000" points="525,-40.2 525,-59.2 586,-59.2 586,-40.2 525,-40.2"/>
<text text-anchor="start" x="528" y="-46.3" font-family="Helvetica,sans-Serif" font-size="11.00" fill="#000000">&lt; 5</text>
<polygon fill="#ffffff" stroke="transparent" points="586,-40.2 586,-59.2 665,-59.2 665,-40.2 586,-40.2"/>
<polygon fill="none" stroke="#000000" points="586,-40.2 586,-59.2 665,-59.2 665,-40.2 586,-40.2"/>
<text text-anchor="start" x="629.6105" y="-46.3" font-family="Helvetica,sans-Serif" font-size="11.00" fill="#000000">0 rows</text>
<polygon fill="#ffffff" stroke="transparent" points="665,-40.2 665,-59.2 749,-59.2 749,-40.2 665,-40.2"/>
<polygon fill="none" stroke="#000000" points="665,-40.2 665,-59.2 749,-59.2 749,-40.2 665,-40.2"/>
<text text-anchor="start" x="730.4053" y="-46.3" font-family="Helvetica,sans-Serif" font-size="11.00" fill="#000000">1 &gt;</text>
<polygon fill="none" stroke="#000000" stroke-width="2" points="524,-39.2 524,-325.2 750,-325.2 750,-39.2 524,-39.2"/>
</a>
</g>
</g>
<!-- contactos_oportunidades&#45;&gt;oportunidades -->
<g id="edge16" class="edge">
<title>contactos_oportunidades:w&#45;&gt;oportunidades:e</title>
<path fill="none" stroke="#000000" d="M786.3951,-401.6322C755.9645,-382.2214 799.0957,-290.2 749,-290.2"/>
<polygon fill="#000000" stroke="#000000" points="792.7443,-403.2381 799.6172,-408.6901 796.6221,-404.2191 800.5,-405.2 800.5,-405.2 800.5,-405.2 796.6221,-404.2191 801.3828,-401.7099 792.7443,-403.2381 792.7443,-403.2381"/>
<ellipse fill="none" stroke="#000000" cx="789.642" cy="-402.4534" rx="3.2" ry="3.2"/>
</g>
<!-- oportunidades&#45;&gt;usuarios -->
<g id="edge18" class="edge">
<title>oportunidades:w&#45;&gt;usuarios:e</title>
<path fill="none" stroke="#000000" d="M511.1671,-242.0728C495.7021,-229.5119 508.163,-191.7231 482,-177.2 421.38,-143.5499 379.171,-132.7033 326,-177.2 246.7066,-243.5576 388.3962,-406.2 285,-406.2"/>
<polygon fill="#000000" stroke="#000000" points="517.3339,-243.9127 523.9707,-249.6497 521.167,-245.0563 525,-246.2 525,-246.2 525,-246.2 521.167,-245.0563 526.0293,-242.7503 517.3339,-243.9127 517.3339,-243.9127"/>
<ellipse fill="none" stroke="#000000" cx="514.2675" cy="-242.9978" rx="3.2" ry="3.2"/>
</g>
<!-- oportunidades&#45;&gt;usuarios -->
<g id="edge19" class="edge">
<title>oportunidades:w&#45;&gt;usuarios:e</title>
<path fill="none" stroke="#000000" d="M510.2118,-69.8913C430.2684,-66.598 385.2634,-39.2244 326,-99.2 277.6228,-148.1585 353.8279,-406.2 285,-406.2"/>
<polygon fill="#000000" stroke="#000000" points="517.0017,-70.033 524.9249,-73.7992 521.0009,-70.1165 525,-70.2 525,-70.2 525,-70.2 521.0009,-70.1165 525.0751,-66.6008 517.0017,-70.033 517.0017,-70.033"/>
<ellipse fill="none" stroke="#000000" cx="513.8024" cy="-69.9662" rx="3.2" ry="3.2"/>
</g>
<!-- oportunidades&#45;&gt;usuarios -->
<g id="edge20" class="edge">
<title>oportunidades:w&#45;&gt;usuarios:e</title>
<path fill="none" stroke="#000000" d="M510.5296,-156.2358C501.5446,-153.562 495.6087,-148.9131 482,-147.2 413.2095,-138.5406 378.7197,-102.1695 326,-147.2 281.691,-185.0466 343.2722,-406.2 285,-406.2"/>
<polygon fill="#000000" stroke="#000000" points="517.0727,-157.1239 524.5158,-161.7673 521.0363,-157.662 525,-158.2 525,-158.2 525,-158.2 521.0363,-157.662 525.4842,-154.6327 517.0727,-157.1239 517.0727,-157.1239"/>
<ellipse fill="none" stroke="#000000" cx="513.9018" cy="-156.6935" rx="3.2" ry="3.2"/>
</g>
<!-- oportunidades&#45;&gt;usuarios -->
<g id="edge21" class="edge">
<title>oportunidades:w&#45;&gt;usuarios:e</title>
<path fill="none" stroke="#000000" d="M510.3687,-113.7359C431.3476,-108.7458 388.0117,-66.2788 326,-122.2 278.6456,-164.9035 348.7654,-406.2 285,-406.2"/>
<polygon fill="#000000" stroke="#000000" points="517.004,-113.9463 524.8858,-117.7982 521.002,-114.0732 525,-114.2 525,-114.2 525,-114.2 521.002,-114.0732 525.1142,-110.6018 517.004,-113.9463 517.004,-113.9463"/>
<ellipse fill="none" stroke="#000000" cx="513.8056" cy="-113.8448" rx="3.2" ry="3.2"/>
</g>
<!-- oportunidades&#45;&gt;campanas -->
<g id="edge17" class="edge">
<title>oportunidades:w&#45;&gt;campanas:e</title>
<path fill="none" stroke="#000000" d="M511.1154,-272.9745C495.5899,-286.5169 501.6146,-324.2 474,-324.2"/>
<polygon fill="#000000" stroke="#000000" points="517.4348,-270.8015 526.1707,-271.6043 521.2174,-269.5008 525,-268.2 525,-268.2 525,-268.2 521.2174,-269.5008 523.8293,-264.7957 517.4348,-270.8015 517.4348,-270.8015"/>
<ellipse fill="none" stroke="#000000" cx="514.4087" cy="-271.8421" rx="3.2" ry="3.2"/>
</g>
</g>
</svg>
