<?xml version="1.0" encoding="UTF-8" standalone="no"?>
<!DOCTYPE svg PUBLIC "-//W3C//DTD SVG 1.1//EN"
 "http://www.w3.org/Graphics/SVG/1.1/DTD/svg11.dtd">
<!-- Generated by graphviz version 2.40.1 (20161225.0304)
 -->
<!-- Title: twoDegreesRelationshipsDiagram Pages: 1 -->
<svg width="944pt" height="739pt"
 viewBox="0.00 0.00 944.00 739.20" xmlns="http://www.w3.org/2000/svg" xmlns:xlink="http://www.w3.org/1999/xlink">
<g id="graph0" class="graph" transform="scale(1 1) rotate(0) translate(4 735.2)">
<title>twoDegreesRelationshipsDiagram</title>
<polygon fill="#ffffff" stroke="transparent" points="-4,4 -4,-735.2 940,-735.2 940,4 -4,4"/>
<text text-anchor="middle" x="72.4936" y="-7.3" font-family="Helvetica,sans-Serif" font-size="11.00" fill="#000000">Generated by SchemaSpy</text>
<!-- casos -->
<g id="node1" class="node">
<title>casos</title>
<g id="a_node1"><a xlink:href="../../tables/casos.html" xlink:title="casos" target="_top">
<polygon fill="#ffffff" stroke="transparent" points="640.5,-555.2 640.5,-616.2 711.5,-616.2 711.5,-555.2 640.5,-555.2"/>
<polygon fill="#f5f5f5" stroke="transparent" points="641,-592.7 641,-615.7 712,-615.7 712,-592.7 641,-592.7"/>
<polygon fill="none" stroke="#000000" points="641,-592.7 641,-615.7 712,-615.7 712,-592.7 641,-592.7"/>
<text text-anchor="start" x="645.6351" y="-601.8" font-family="Helvetica,sans-Serif" font-weight="bold" font-size="11.00" fill="#000000">casos</text>
<text text-anchor="start" x="677.5219" y="-600.8" font-family="Helvetica,sans-Serif" font-size="11.00" fill="#000000">[table]</text>
<polygon fill="none" stroke="#000000" points="641,-573.7 641,-592.7 712,-592.7 712,-573.7 641,-573.7"/>
<text text-anchor="start" x="644" y="-579.8" font-family="Helvetica,sans-Serif" font-size="11.00" fill="#000000">...</text>
<polygon fill="#ffffff" stroke="transparent" points="641,-554.7 641,-573.7 662,-573.7 662,-554.7 641,-554.7"/>
<polygon fill="none" stroke="#000000" points="641,-554.7 641,-573.7 662,-573.7 662,-554.7 641,-554.7"/>
<text text-anchor="start" x="643.7026" y="-560.8" font-family="Helvetica,sans-Serif" font-size="11.00" fill="#000000">&lt; 3</text>
<polygon fill="#ffffff" stroke="transparent" points="662,-554.7 662,-573.7 700,-573.7 700,-554.7 662,-554.7"/>
<polygon fill="none" stroke="#000000" points="662,-554.7 662,-573.7 700,-573.7 700,-554.7 662,-554.7"/>
<text text-anchor="start" x="664.8053" y="-560.8" font-family="Helvetica,sans-Serif" font-size="11.00" fill="#000000">0 rows</text>
<polygon fill="#ffffff" stroke="transparent" points="700,-554.7 700,-573.7 712,-573.7 712,-554.7 700,-554.7"/>
<polygon fill="none" stroke="#000000" points="700,-554.7 700,-573.7 712,-573.7 712,-554.7 700,-554.7"/>
<text text-anchor="start" x="702.9431" y="-560.8" font-family="Helvetica,sans-Serif" font-size="11.00" fill="#000000"> &#160;</text>
</a>
</g>
</g>
<!-- contactos -->
<g id="node2" class="node">
<title>contactos</title>
<g id="a_node2"><a xlink:href="../../tables/contactos.html" xlink:title="contactos" target="_top">
<polygon fill="#ffffff" stroke="transparent" points="448,-531.2 448,-658.2 571,-658.2 571,-531.2 448,-531.2"/>
<polygon fill="#f5f5f5" stroke="transparent" points="448.5,-634.7 448.5,-657.7 571.5,-657.7 571.5,-634.7 448.5,-634.7"/>
<polygon fill="none" stroke="#000000" points="448.5,-634.7 448.5,-657.7 571.5,-657.7 571.5,-634.7 448.5,-634.7"/>
<text text-anchor="start" x="453.5" y="-643.8" font-family="Helvetica,sans-Serif" font-weight="bold" font-size="11.00" fill="#000000">contactos</text>
<text text-anchor="start" x="536.5437" y="-642.8" font-family="Helvetica,sans-Serif" font-size="11.00" fill="#000000">[table]</text>
<polygon fill="none" stroke="#000000" points="448.5,-612.7 448.5,-634.7 571.5,-634.7 571.5,-612.7 448.5,-612.7"/>
<image xlink:href="../../images/primaryKeys.png" width="11px" height="12px" preserveAspectRatio="xMinYMin meet" x="453.5" y="-629.7"/>
<text text-anchor="start" x="468.5" y="-619.8" font-family="Helvetica,sans-Serif" font-size="11.00" fill="#000000">contacto_id</text>
<polygon fill="none" stroke="#000000" points="448.5,-590.7 448.5,-612.7 571.5,-612.7 571.5,-590.7 448.5,-590.7"/>
<image xlink:href="../../images/foreignKeys.png" width="11px" height="12px" preserveAspectRatio="xMinYMin meet" x="453.5" y="-607.7"/>
<text text-anchor="start" x="468.5" y="-597.8" font-family="Helvetica,sans-Serif" font-size="11.00" fill="#000000">persona_id</text>
<polygon fill="none" stroke="#000000" points="448.5,-568.7 448.5,-590.7 571.5,-590.7 571.5,-568.7 448.5,-568.7"/>
<image xlink:href="../../images/foreignKeys.png" width="11px" height="12px" preserveAspectRatio="xMinYMin meet" x="453.5" y="-585.7"/>
<text text-anchor="start" x="468.5" y="-575.8" font-family="Helvetica,sans-Serif" font-size="11.00" fill="#000000">organizacion_id</text>
<polygon fill="none" stroke="#000000" points="448.5,-549.7 448.5,-568.7 571.5,-568.7 571.5,-549.7 448.5,-549.7"/>
<text text-anchor="start" x="451.5" y="-555.8" font-family="Helvetica,sans-Serif" font-size="11.00" fill="#000000">...</text>
<polygon fill="#ffffff" stroke="transparent" points="448.5,-530.7 448.5,-549.7 490.5,-549.7 490.5,-530.7 448.5,-530.7"/>
<polygon fill="none" stroke="#000000" points="448.5,-530.7 448.5,-549.7 490.5,-549.7 490.5,-530.7 448.5,-530.7"/>
<text text-anchor="start" x="451.5" y="-536.8" font-family="Helvetica,sans-Serif" font-size="11.00" fill="#000000">&lt; 2</text>
<polygon fill="#ffffff" stroke="transparent" points="490.5,-530.7 490.5,-549.7 539.5,-549.7 539.5,-530.7 490.5,-530.7"/>
<polygon fill="none" stroke="#000000" points="490.5,-530.7 490.5,-549.7 539.5,-549.7 539.5,-530.7 490.5,-530.7"/>
<text text-anchor="start" x="504.1105" y="-536.8" font-family="Helvetica,sans-Serif" font-size="11.00" fill="#000000">2 rows</text>
<polygon fill="#ffffff" stroke="transparent" points="539.5,-530.7 539.5,-549.7 571.5,-549.7 571.5,-530.7 539.5,-530.7"/>
<polygon fill="none" stroke="#000000" points="539.5,-530.7 539.5,-549.7 571.5,-549.7 571.5,-530.7 539.5,-530.7"/>
<text text-anchor="start" x="552.9053" y="-536.8" font-family="Helvetica,sans-Serif" font-size="11.00" fill="#000000">5 &gt;</text>
</a>
</g>
</g>
<!-- casos&#45;&gt;contactos -->
<g id="edge1" class="edge">
<title>casos:w&#45;&gt;contactos:e</title>
<path fill="none" stroke="#000000" d="M626.6883,-585.3901C604.9026,-594.5115 601.7596,-623.7 571.5,-623.7"/>
<polygon fill="#000000" stroke="#000000" points="633.1377,-584.1779 641.6651,-586.238 637.0688,-583.4389 641,-582.7 641,-582.7 641,-582.7 637.0688,-583.4389 640.3349,-579.162 633.1377,-584.1779 633.1377,-584.1779"/>
<ellipse fill="none" stroke="#000000" cx="629.9928" cy="-584.7691" rx="3.2" ry="3.2"/>
</g>
<!-- leads -->
<g id="node3" class="node">
<title>leads</title>
<g id="a_node3"><a xlink:href="../../tables/leads.html" xlink:title="leads" target="_top">
<polygon fill="#ffffff" stroke="transparent" points="469.5,-420.2 469.5,-481.2 549.5,-481.2 549.5,-420.2 469.5,-420.2"/>
<polygon fill="#f5f5f5" stroke="transparent" points="469.5,-457.7 469.5,-480.7 549.5,-480.7 549.5,-457.7 469.5,-457.7"/>
<polygon fill="none" stroke="#000000" points="469.5,-457.7 469.5,-480.7 549.5,-480.7 549.5,-457.7 469.5,-457.7"/>
<text text-anchor="start" x="474.5" y="-466.8" font-family="Helvetica,sans-Serif" font-weight="bold" font-size="11.00" fill="#000000">leads</text>
<text text-anchor="start" x="514.5437" y="-465.8" font-family="Helvetica,sans-Serif" font-size="11.00" fill="#000000">[table]</text>
<polygon fill="none" stroke="#000000" points="469.5,-438.7 469.5,-457.7 549.5,-457.7 549.5,-438.7 469.5,-438.7"/>
<text text-anchor="start" x="472.5" y="-444.8" font-family="Helvetica,sans-Serif" font-size="11.00" fill="#000000">...</text>
<polygon fill="#ffffff" stroke="transparent" points="469.5,-419.7 469.5,-438.7 490.5,-438.7 490.5,-419.7 469.5,-419.7"/>
<polygon fill="none" stroke="#000000" points="469.5,-419.7 469.5,-438.7 490.5,-438.7 490.5,-419.7 469.5,-419.7"/>
<text text-anchor="start" x="472.2027" y="-425.8" font-family="Helvetica,sans-Serif" font-size="11.00" fill="#000000">&lt; 4</text>
<polygon fill="#ffffff" stroke="transparent" points="490.5,-419.7 490.5,-438.7 528.5,-438.7 528.5,-419.7 490.5,-419.7"/>
<polygon fill="none" stroke="#000000" points="490.5,-419.7 490.5,-438.7 528.5,-438.7 528.5,-419.7 490.5,-419.7"/>
<text text-anchor="start" x="493.3053" y="-425.8" font-family="Helvetica,sans-Serif" font-size="11.00" fill="#000000">2 rows</text>
<polygon fill="#ffffff" stroke="transparent" points="528.5,-419.7 528.5,-438.7 549.5,-438.7 549.5,-419.7 528.5,-419.7"/>
<polygon fill="none" stroke="#000000" points="528.5,-419.7 528.5,-438.7 549.5,-438.7 549.5,-419.7 528.5,-419.7"/>
<text text-anchor="start" x="531.2026" y="-425.8" font-family="Helvetica,sans-Serif" font-size="11.00" fill="#000000">3 &gt;</text>
</a>
</g>
</g>
<!-- casos&#45;&gt;leads -->
<g id="edge2" class="edge">
<title>casos:w&#45;&gt;leads:e</title>
<path fill="none" stroke="#000000" d="M626.5175,-580.4695C575.9315,-562.9169 616.4618,-447.7 549.5,-447.7"/>
<polygon fill="#000000" stroke="#000000" points="633.0932,-581.4822 640.452,-586.258 637.0466,-582.0911 641,-582.7 641,-582.7 641,-582.7 637.0466,-582.0911 641.548,-579.142 633.0932,-581.4822 633.0932,-581.4822"/>
<ellipse fill="none" stroke="#000000" cx="629.9305" cy="-580.9951" rx="3.2" ry="3.2"/>
</g>
<!-- organizaciones -->
<g id="node4" class="node">
<title>organizaciones</title>
<g id="a_node4"><a xlink:href="../../tables/organizaciones.html" xlink:title="organizaciones" target="_top">
<polygon fill="#ffffff" stroke="transparent" points="180,-393.7 180,-615.7 399,-615.7 399,-393.7 180,-393.7"/>
<polygon fill="#f5f5f5" stroke="transparent" points="182.5,-590.7 182.5,-613.7 397.5,-613.7 397.5,-590.7 182.5,-590.7"/>
<polygon fill="none" stroke="#000000" points="182.5,-590.7 182.5,-613.7 397.5,-613.7 397.5,-590.7 182.5,-590.7"/>
<text text-anchor="start" x="187.5" y="-599.8" font-family="Helvetica,sans-Serif" font-weight="bold" font-size="11.00" fill="#000000">organizaciones</text>
<text text-anchor="start" x="362.5437" y="-598.8" font-family="Helvetica,sans-Serif" font-size="11.00" fill="#000000">[table]</text>
<polygon fill="none" stroke="#000000" points="182.5,-568.7 182.5,-590.7 305.5,-590.7 305.5,-568.7 182.5,-568.7"/>
<image xlink:href="../../images/primaryKeys.png" width="11px" height="12px" preserveAspectRatio="xMinYMin meet" x="187.5" y="-585.7"/>
<text text-anchor="start" x="202.5" y="-575.8" font-family="Helvetica,sans-Serif" font-size="11.00" fill="#000000">organizacion_id</text>
<polygon fill="none" stroke="#000000" points="305.5,-568.7 305.5,-590.7 397.5,-590.7 397.5,-568.7 305.5,-568.7"/>
<text text-anchor="start" x="308.5" y="-576.4" font-family="Helvetica,sans-Serif" font-size="11.00" fill="#000000">serial[10]</text>
<polygon fill="none" stroke="#000000" points="182.5,-546.7 182.5,-568.7 305.5,-568.7 305.5,-546.7 182.5,-546.7"/>
<image xlink:href="../../images/foreignKeys.png" width="11px" height="12px" preserveAspectRatio="xMinYMin meet" x="187.5" y="-563.7"/>
<text text-anchor="start" x="202.5" y="-553.8" font-family="Helvetica,sans-Serif" font-size="11.00" fill="#000000">persona_id</text>
<polygon fill="none" stroke="#000000" points="305.5,-546.7 305.5,-568.7 397.5,-568.7 397.5,-546.7 305.5,-546.7"/>
<text text-anchor="start" x="308.5" y="-554.4" font-family="Helvetica,sans-Serif" font-size="11.00" fill="#000000">int4[10]</text>
<polygon fill="none" stroke="#000000" points="182.5,-524.7 182.5,-546.7 305.5,-546.7 305.5,-524.7 182.5,-524.7"/>
<text text-anchor="start" x="202.5" y="-531.8" font-family="Helvetica,sans-Serif" font-size="11.00" fill="#000000">descripcion</text>
<polygon fill="none" stroke="#000000" points="305.5,-524.7 305.5,-546.7 397.5,-546.7 397.5,-524.7 305.5,-524.7"/>
<text text-anchor="start" x="308.5" y="-532.4" font-family="Helvetica,sans-Serif" font-size="11.00" fill="#000000">text[2147483647]</text>
<polygon fill="none" stroke="#000000" points="182.5,-502.7 182.5,-524.7 305.5,-524.7 305.5,-502.7 182.5,-502.7"/>
<text text-anchor="start" x="202.5" y="-509.8" font-family="Helvetica,sans-Serif" font-size="11.00" fill="#000000">website</text>
<polygon fill="none" stroke="#000000" points="305.5,-502.7 305.5,-524.7 397.5,-524.7 397.5,-502.7 305.5,-502.7"/>
<text text-anchor="start" x="308.5" y="-510.4" font-family="Helvetica,sans-Serif" font-size="11.00" fill="#000000">varchar[255]</text>
<polygon fill="none" stroke="#000000" points="182.5,-480.7 182.5,-502.7 305.5,-502.7 305.5,-480.7 182.5,-480.7"/>
<text text-anchor="start" x="202.5" y="-487.8" font-family="Helvetica,sans-Serif" font-size="11.00" fill="#000000">usu_insercion</text>
<polygon fill="none" stroke="#000000" points="305.5,-480.7 305.5,-502.7 397.5,-502.7 397.5,-480.7 305.5,-480.7"/>
<text text-anchor="start" x="308.5" y="-488.4" font-family="Helvetica,sans-Serif" font-size="11.00" fill="#000000">varchar[20]</text>
<polygon fill="none" stroke="#000000" points="182.5,-458.7 182.5,-480.7 305.5,-480.7 305.5,-458.7 182.5,-458.7"/>
<text text-anchor="start" x="202.5" y="-465.8" font-family="Helvetica,sans-Serif" font-size="11.00" fill="#000000">fec_insercion</text>
<polygon fill="none" stroke="#000000" points="305.5,-458.7 305.5,-480.7 397.5,-480.7 397.5,-458.7 305.5,-458.7"/>
<text text-anchor="start" x="308.1023" y="-466.4" font-family="Helvetica,sans-Serif" font-size="11.00" fill="#000000">timestamptz[35,6]</text>
<polygon fill="none" stroke="#000000" points="182.5,-436.7 182.5,-458.7 305.5,-458.7 305.5,-436.7 182.5,-436.7"/>
<text text-anchor="start" x="202.5" y="-443.8" font-family="Helvetica,sans-Serif" font-size="11.00" fill="#000000">fec_modificacion</text>
<polygon fill="none" stroke="#000000" points="305.5,-436.7 305.5,-458.7 397.5,-458.7 397.5,-436.7 305.5,-436.7"/>
<text text-anchor="start" x="308.1023" y="-444.4" font-family="Helvetica,sans-Serif" font-size="11.00" fill="#000000">timestamptz[35,6]</text>
<polygon fill="none" stroke="#000000" points="182.5,-414.7 182.5,-436.7 305.5,-436.7 305.5,-414.7 182.5,-414.7"/>
<text text-anchor="start" x="202.5" y="-421.8" font-family="Helvetica,sans-Serif" font-size="11.00" fill="#000000">usu_modificacion</text>
<polygon fill="none" stroke="#000000" points="305.5,-414.7 305.5,-436.7 397.5,-436.7 397.5,-414.7 305.5,-414.7"/>
<text text-anchor="start" x="308.5" y="-422.4" font-family="Helvetica,sans-Serif" font-size="11.00" fill="#000000">varchar[20]</text>
<polygon fill="#ffffff" stroke="transparent" points="182.5,-395.7 182.5,-414.7 235.5,-414.7 235.5,-395.7 182.5,-395.7"/>
<polygon fill="none" stroke="#000000" points="182.5,-395.7 182.5,-414.7 235.5,-414.7 235.5,-395.7 182.5,-395.7"/>
<text text-anchor="start" x="185.5" y="-401.8" font-family="Helvetica,sans-Serif" font-size="11.00" fill="#000000">&lt; 1</text>
<polygon fill="#ffffff" stroke="transparent" points="235.5,-395.7 235.5,-414.7 305.5,-414.7 305.5,-395.7 235.5,-395.7"/>
<polygon fill="none" stroke="#000000" points="235.5,-395.7 235.5,-414.7 305.5,-414.7 305.5,-395.7 235.5,-395.7"/>
<text text-anchor="start" x="270.1105" y="-401.8" font-family="Helvetica,sans-Serif" font-size="11.00" fill="#000000">0 rows</text>
<polygon fill="#ffffff" stroke="transparent" points="305.5,-395.7 305.5,-414.7 397.5,-414.7 397.5,-395.7 305.5,-395.7"/>
<polygon fill="none" stroke="#000000" points="305.5,-395.7 305.5,-414.7 397.5,-414.7 397.5,-395.7 305.5,-395.7"/>
<text text-anchor="start" x="378.9053" y="-401.8" font-family="Helvetica,sans-Serif" font-size="11.00" fill="#000000">1 &gt;</text>
<polygon fill="none" stroke="#000000" stroke-width="2" points="181,-394.7 181,-614.7 398,-614.7 398,-394.7 181,-394.7"/>
</a>
</g>
</g>
<!-- contactos&#45;&gt;organizaciones -->
<g id="edge3" class="edge">
<title>contactos:w&#45;&gt;organizaciones:e</title>
<path fill="none" stroke="#000000" d="M433.776,-579.7C421.7815,-579.7 414.3229,-579.7 397.5,-579.7"/>
<polygon fill="#000000" stroke="#000000" points="440.5,-579.7001 448.5,-583.3 444.5,-579.7 448.5,-579.7 448.5,-579.7 448.5,-579.7 444.5,-579.7 448.5,-576.1 440.5,-579.7001 440.5,-579.7001"/>
<ellipse fill="none" stroke="#000000" cx="437.3" cy="-579.7001" rx="3.2" ry="3.2"/>
</g>
<!-- personas -->
<g id="node5" class="node">
<title>personas</title>
<g id="a_node5"><a xlink:href="../../tables/personas.html" xlink:title="personas" target="_top">
<polygon fill="#ffffff" stroke="transparent" points="8,-263.2 8,-346.2 131,-346.2 131,-263.2 8,-263.2"/>
<polygon fill="#f5f5f5" stroke="transparent" points="8.5,-322.7 8.5,-345.7 131.5,-345.7 131.5,-322.7 8.5,-322.7"/>
<polygon fill="none" stroke="#000000" points="8.5,-322.7 8.5,-345.7 131.5,-345.7 131.5,-322.7 8.5,-322.7"/>
<text text-anchor="start" x="13.5" y="-331.8" font-family="Helvetica,sans-Serif" font-weight="bold" font-size="11.00" fill="#000000">personas</text>
<text text-anchor="start" x="96.5437" y="-330.8" font-family="Helvetica,sans-Serif" font-size="11.00" fill="#000000">[table]</text>
<polygon fill="none" stroke="#000000" points="8.5,-300.7 8.5,-322.7 131.5,-322.7 131.5,-300.7 8.5,-300.7"/>
<image xlink:href="../../images/primaryKeys.png" width="11px" height="12px" preserveAspectRatio="xMinYMin meet" x="13.5" y="-317.7"/>
<text text-anchor="start" x="28.5" y="-307.8" font-family="Helvetica,sans-Serif" font-size="11.00" fill="#000000">persona_id</text>
<polygon fill="none" stroke="#000000" points="8.5,-281.7 8.5,-300.7 131.5,-300.7 131.5,-281.7 8.5,-281.7"/>
<text text-anchor="start" x="11.5" y="-287.8" font-family="Helvetica,sans-Serif" font-size="11.00" fill="#000000">...</text>
<polygon fill="#ffffff" stroke="transparent" points="8.5,-262.7 8.5,-281.7 46.5,-281.7 46.5,-262.7 8.5,-262.7"/>
<polygon fill="none" stroke="#000000" points="8.5,-262.7 8.5,-281.7 46.5,-281.7 46.5,-262.7 8.5,-262.7"/>
<text text-anchor="start" x="11.5" y="-268.8" font-family="Helvetica,sans-Serif" font-size="11.00" fill="#000000"> &#160;</text>
<polygon fill="#ffffff" stroke="transparent" points="46.5,-262.7 46.5,-281.7 97.5,-281.7 97.5,-262.7 46.5,-262.7"/>
<polygon fill="none" stroke="#000000" points="46.5,-262.7 46.5,-281.7 97.5,-281.7 97.5,-262.7 46.5,-262.7"/>
<text text-anchor="start" x="62.1105" y="-268.8" font-family="Helvetica,sans-Serif" font-size="11.00" fill="#000000">7 rows</text>
<polygon fill="#ffffff" stroke="transparent" points="97.5,-262.7 97.5,-281.7 131.5,-281.7 131.5,-262.7 97.5,-262.7"/>
<polygon fill="none" stroke="#000000" points="97.5,-262.7 97.5,-281.7 131.5,-281.7 131.5,-262.7 97.5,-262.7"/>
<text text-anchor="start" x="112.9053" y="-268.8" font-family="Helvetica,sans-Serif" font-size="11.00" fill="#000000">7 &gt;</text>
</a>
</g>
</g>
<!-- contactos&#45;&gt;personas -->
<g id="edge4" class="edge">
<title>contactos:w&#45;&gt;personas:e</title>
<path fill="none" stroke="#000000" d="M434.4304,-605.5727C425.6644,-611.3 421.6302,-621.7742 407,-625.7 306.1242,-652.7686 250.435,-694.6681 172,-625.7 119.1647,-579.2418 201.8558,-311.7 131.5,-311.7"/>
<polygon fill="#000000" stroke="#000000" points="440.7869,-603.8231 449.4554,-605.1709 444.6434,-602.7615 448.5,-601.7 448.5,-601.7 448.5,-601.7 444.6434,-602.7615 447.5446,-598.2291 440.7869,-603.8231 440.7869,-603.8231"/>
<ellipse fill="none" stroke="#000000" cx="437.7016" cy="-604.6723" rx="3.2" ry="3.2"/>
</g>
<!-- leads&#45;&gt;personas -->
<g id="edge9" class="edge">
<title>leads:w&#45;&gt;personas:e</title>
<path fill="none" stroke="#000000" d="M455.1691,-444.9723C432.2913,-434.6658 437.7255,-397.9113 407,-382.7 312.7825,-336.0555 265.7037,-403.3682 172,-355.7 148.3105,-343.6489 158.0786,-311.7 131.5,-311.7"/>
<polygon fill="#000000" stroke="#000000" points="461.6411,-446.2041 468.8269,-451.2365 465.5705,-446.9521 469.5,-447.7 469.5,-447.7 469.5,-447.7 465.5705,-446.9521 470.1731,-444.1635 461.6411,-446.2041 461.6411,-446.2041"/>
<ellipse fill="none" stroke="#000000" cx="458.4975" cy="-445.6058" rx="3.2" ry="3.2"/>
</g>
<!-- organizaciones&#45;&gt;personas -->
<g id="edge13" class="edge">
<title>organizaciones:w&#45;&gt;personas:e</title>
<path fill="none" stroke="#000000" d="M168.1088,-555.9977C86.9925,-534.2631 237.7061,-311.7 131.5,-311.7"/>
<polygon fill="#000000" stroke="#000000" points="174.5554,-556.7602 182.0771,-561.2751 178.5277,-557.2301 182.5,-557.7 182.5,-557.7 182.5,-557.7 178.5277,-557.2301 182.9229,-554.1249 174.5554,-556.7602 174.5554,-556.7602"/>
<ellipse fill="none" stroke="#000000" cx="171.3775" cy="-556.3843" rx="3.2" ry="3.2"/>
</g>
<!-- direcciones -->
<g id="node6" class="node">
<title>direcciones</title>
<g id="a_node6"><a xlink:href="../../tables/direcciones.html" xlink:title="direcciones" target="_top">
<polygon fill="#ffffff" stroke="transparent" points="240.5,-284.2 240.5,-345.2 338.5,-345.2 338.5,-284.2 240.5,-284.2"/>
<polygon fill="#f5f5f5" stroke="transparent" points="240.5,-321.7 240.5,-344.7 338.5,-344.7 338.5,-321.7 240.5,-321.7"/>
<polygon fill="none" stroke="#000000" points="240.5,-321.7 240.5,-344.7 338.5,-344.7 338.5,-321.7 240.5,-321.7"/>
<text text-anchor="start" x="245.1909" y="-330.8" font-family="Helvetica,sans-Serif" font-weight="bold" font-size="11.00" fill="#000000">direcciones</text>
<text text-anchor="start" x="304.0219" y="-329.8" font-family="Helvetica,sans-Serif" font-size="11.00" fill="#000000">[table]</text>
<polygon fill="none" stroke="#000000" points="240.5,-302.7 240.5,-321.7 338.5,-321.7 338.5,-302.7 240.5,-302.7"/>
<text text-anchor="start" x="243.5" y="-308.8" font-family="Helvetica,sans-Serif" font-size="11.00" fill="#000000">...</text>
<polygon fill="#ffffff" stroke="transparent" points="240.5,-283.7 240.5,-302.7 274.5,-302.7 274.5,-283.7 240.5,-283.7"/>
<polygon fill="none" stroke="#000000" points="240.5,-283.7 240.5,-302.7 274.5,-302.7 274.5,-283.7 240.5,-283.7"/>
<text text-anchor="start" x="243.5" y="-289.8" font-family="Helvetica,sans-Serif" font-size="11.00" fill="#000000">&lt; 2</text>
<polygon fill="#ffffff" stroke="transparent" points="274.5,-283.7 274.5,-302.7 319.5,-302.7 319.5,-283.7 274.5,-283.7"/>
<polygon fill="none" stroke="#000000" points="274.5,-283.7 274.5,-302.7 319.5,-302.7 319.5,-283.7 274.5,-283.7"/>
<text text-anchor="start" x="284.1105" y="-289.8" font-family="Helvetica,sans-Serif" font-size="11.00" fill="#000000">4 rows</text>
<polygon fill="#ffffff" stroke="transparent" points="319.5,-283.7 319.5,-302.7 338.5,-302.7 338.5,-283.7 319.5,-283.7"/>
<polygon fill="none" stroke="#000000" points="319.5,-283.7 319.5,-302.7 338.5,-302.7 338.5,-283.7 319.5,-283.7"/>
<text text-anchor="start" x="329.3862" y="-289.8" font-family="Helvetica,sans-Serif" font-size="11.00" fill="#000000"> &#160;</text>
</a>
</g>
</g>
<!-- direcciones&#45;&gt;personas -->
<g id="edge5" class="edge">
<title>direcciones:w&#45;&gt;personas:e</title>
<path fill="none" stroke="#000000" d="M225.813,-311.7C188.9716,-311.7 174.6458,-311.7 131.5,-311.7"/>
<polygon fill="#000000" stroke="#000000" points="232.5,-311.7001 240.5,-315.3 236.5,-311.7 240.5,-311.7 240.5,-311.7 240.5,-311.7 236.5,-311.7 240.5,-308.1 232.5,-311.7001 232.5,-311.7001"/>
<ellipse fill="none" stroke="#000000" cx="229.3" cy="-311.7001" rx="3.2" ry="3.2"/>
</g>
<!-- empleados -->
<g id="node7" class="node">
<title>empleados</title>
<g id="a_node7"><a xlink:href="../../tables/empleados.html" xlink:title="empleados" target="_top">
<polygon fill="#ffffff" stroke="transparent" points="241.5,-202.2 241.5,-263.2 337.5,-263.2 337.5,-202.2 241.5,-202.2"/>
<polygon fill="#f5f5f5" stroke="transparent" points="241.5,-239.7 241.5,-262.7 337.5,-262.7 337.5,-239.7 241.5,-239.7"/>
<polygon fill="none" stroke="#000000" points="241.5,-239.7 241.5,-262.7 337.5,-262.7 337.5,-239.7 241.5,-239.7"/>
<text text-anchor="start" x="246.1039" y="-248.8" font-family="Helvetica,sans-Serif" font-weight="bold" font-size="11.00" fill="#000000">empleados</text>
<text text-anchor="start" x="303.0219" y="-247.8" font-family="Helvetica,sans-Serif" font-size="11.00" fill="#000000">[table]</text>
<polygon fill="none" stroke="#000000" points="241.5,-220.7 241.5,-239.7 337.5,-239.7 337.5,-220.7 241.5,-220.7"/>
<text text-anchor="start" x="244.5" y="-226.8" font-family="Helvetica,sans-Serif" font-size="11.00" fill="#000000">...</text>
<polygon fill="#ffffff" stroke="transparent" points="241.5,-201.7 241.5,-220.7 277.5,-220.7 277.5,-201.7 241.5,-201.7"/>
<polygon fill="none" stroke="#000000" points="241.5,-201.7 241.5,-220.7 277.5,-220.7 277.5,-201.7 241.5,-201.7"/>
<text text-anchor="start" x="244.5" y="-207.8" font-family="Helvetica,sans-Serif" font-size="11.00" fill="#000000">&lt; 2</text>
<polygon fill="#ffffff" stroke="transparent" points="277.5,-201.7 277.5,-220.7 317.5,-220.7 317.5,-201.7 277.5,-201.7"/>
<polygon fill="none" stroke="#000000" points="277.5,-201.7 277.5,-220.7 317.5,-220.7 317.5,-201.7 277.5,-201.7"/>
<text text-anchor="start" x="287.6105" y="-207.8" font-family="Helvetica,sans-Serif" font-size="11.00" fill="#000000">1 row</text>
<polygon fill="#ffffff" stroke="transparent" points="317.5,-201.7 317.5,-220.7 337.5,-220.7 337.5,-201.7 317.5,-201.7"/>
<polygon fill="none" stroke="#000000" points="317.5,-201.7 317.5,-220.7 337.5,-220.7 337.5,-201.7 317.5,-201.7"/>
<text text-anchor="start" x="328.3862" y="-207.8" font-family="Helvetica,sans-Serif" font-size="11.00" fill="#000000"> &#160;</text>
</a>
</g>
</g>
<!-- empleados&#45;&gt;personas -->
<g id="edge6" class="edge">
<title>empleados:w&#45;&gt;personas:e</title>
<path fill="none" stroke="#000000" d="M226.8529,-231.1312C203.134,-236.3036 196.5006,-254.7249 172,-273.7 152.4855,-288.8135 156.1827,-311.7 131.5,-311.7"/>
<polygon fill="#000000" stroke="#000000" points="233.5379,-230.4781 241.8501,-233.2829 237.519,-230.089 241.5,-229.7 241.5,-229.7 241.5,-229.7 237.519,-230.089 241.1499,-226.1171 233.5379,-230.4781 233.5379,-230.4781"/>
<ellipse fill="none" stroke="#000000" cx="230.3531" cy="-230.7893" rx="3.2" ry="3.2"/>
</g>
<!-- encuesta_respuestas -->
<g id="node8" class="node">
<title>encuesta_respuestas</title>
<g id="a_node8"><a xlink:href="../../tables/encuesta_respuestas.html" xlink:title="encuesta_respuestas" target="_top">
<polygon fill="#ffffff" stroke="transparent" points="781,-666.2 781,-727.2 928,-727.2 928,-666.2 781,-666.2"/>
<polygon fill="#f5f5f5" stroke="transparent" points="781.5,-703.7 781.5,-726.7 928.5,-726.7 928.5,-703.7 781.5,-703.7"/>
<polygon fill="none" stroke="#000000" points="781.5,-703.7 781.5,-726.7 928.5,-726.7 928.5,-703.7 781.5,-703.7"/>
<text text-anchor="start" x="786.2302" y="-712.8" font-family="Helvetica,sans-Serif" font-weight="bold" font-size="11.00" fill="#000000">encuesta_respuestas</text>
<text text-anchor="start" x="894.0219" y="-711.8" font-family="Helvetica,sans-Serif" font-size="11.00" fill="#000000">[table]</text>
<polygon fill="none" stroke="#000000" points="781.5,-684.7 781.5,-703.7 928.5,-703.7 928.5,-684.7 781.5,-684.7"/>
<text text-anchor="start" x="784.5" y="-690.8" font-family="Helvetica,sans-Serif" font-size="11.00" fill="#000000">...</text>
<polygon fill="#ffffff" stroke="transparent" points="781.5,-665.7 781.5,-684.7 835.5,-684.7 835.5,-665.7 781.5,-665.7"/>
<polygon fill="none" stroke="#000000" points="781.5,-665.7 781.5,-684.7 835.5,-684.7 835.5,-665.7 781.5,-665.7"/>
<text text-anchor="start" x="784.5" y="-671.8" font-family="Helvetica,sans-Serif" font-size="11.00" fill="#000000">&lt; 2</text>
<polygon fill="#ffffff" stroke="transparent" points="835.5,-665.7 835.5,-684.7 890.5,-684.7 890.5,-665.7 835.5,-665.7"/>
<polygon fill="none" stroke="#000000" points="835.5,-665.7 835.5,-684.7 890.5,-684.7 890.5,-665.7 835.5,-665.7"/>
<text text-anchor="start" x="855.1105" y="-671.8" font-family="Helvetica,sans-Serif" font-size="11.00" fill="#000000">0 rows</text>
<polygon fill="#ffffff" stroke="transparent" points="890.5,-665.7 890.5,-684.7 928.5,-684.7 928.5,-665.7 890.5,-665.7"/>
<polygon fill="none" stroke="#000000" points="890.5,-665.7 890.5,-684.7 928.5,-684.7 928.5,-665.7 890.5,-665.7"/>
<text text-anchor="start" x="909.9053" y="-671.8" font-family="Helvetica,sans-Serif" font-size="11.00" fill="#000000">1 &gt;</text>
</a>
</g>
</g>
<!-- encuesta_respuestas&#45;&gt;contactos -->
<g id="edge7" class="edge">
<title>encuesta_respuestas:w&#45;&gt;contactos:e</title>
<path fill="none" stroke="#000000" d="M767.0752,-696.4974C758.6461,-700.1561 753.2812,-706.3734 740,-708.7 683.9644,-718.5162 660.1063,-739.0666 612,-708.7 576.6135,-686.3626 613.3469,-623.7 571.5,-623.7"/>
<polygon fill="#000000" stroke="#000000" points="773.6463,-695.2231 782.1854,-697.2342 777.5732,-694.4616 781.5,-693.7 781.5,-693.7 781.5,-693.7 777.5732,-694.4616 780.8146,-690.1658 773.6463,-695.2231 773.6463,-695.2231"/>
<ellipse fill="none" stroke="#000000" cx="770.5048" cy="-695.8323" rx="3.2" ry="3.2"/>
</g>
<!-- oportunidades -->
<g id="node9" class="node">
<title>oportunidades</title>
<g id="a_node9"><a xlink:href="../../tables/oportunidades.html" xlink:title="oportunidades" target="_top">
<polygon fill="#ffffff" stroke="transparent" points="620,-637.2 620,-698.2 732,-698.2 732,-637.2 620,-637.2"/>
<polygon fill="#f5f5f5" stroke="transparent" points="620,-674.7 620,-697.7 732,-697.7 732,-674.7 620,-674.7"/>
<polygon fill="none" stroke="#000000" points="620,-674.7 620,-697.7 732,-697.7 732,-674.7 620,-674.7"/>
<text text-anchor="start" x="624.6531" y="-683.8" font-family="Helvetica,sans-Serif" font-weight="bold" font-size="11.00" fill="#000000">oportunidades</text>
<text text-anchor="start" x="697.5219" y="-682.8" font-family="Helvetica,sans-Serif" font-size="11.00" fill="#000000">[table]</text>
<polygon fill="none" stroke="#000000" points="620,-655.7 620,-674.7 732,-674.7 732,-655.7 620,-655.7"/>
<text text-anchor="start" x="623" y="-661.8" font-family="Helvetica,sans-Serif" font-size="11.00" fill="#000000">...</text>
<polygon fill="#ffffff" stroke="transparent" points="620,-636.7 620,-655.7 657,-655.7 657,-636.7 620,-636.7"/>
<polygon fill="none" stroke="#000000" points="620,-636.7 620,-655.7 657,-655.7 657,-636.7 620,-636.7"/>
<text text-anchor="start" x="623" y="-642.8" font-family="Helvetica,sans-Serif" font-size="11.00" fill="#000000">&lt; 4</text>
<polygon fill="#ffffff" stroke="transparent" points="657,-636.7 657,-655.7 703,-655.7 703,-636.7 657,-636.7"/>
<polygon fill="none" stroke="#000000" points="657,-636.7 657,-655.7 703,-655.7 703,-636.7 657,-636.7"/>
<text text-anchor="start" x="667.6105" y="-642.8" font-family="Helvetica,sans-Serif" font-size="11.00" fill="#000000">6 rows</text>
<polygon fill="#ffffff" stroke="transparent" points="703,-636.7 703,-655.7 732,-655.7 732,-636.7 703,-636.7"/>
<polygon fill="none" stroke="#000000" points="703,-636.7 703,-655.7 732,-655.7 732,-636.7 703,-636.7"/>
<text text-anchor="start" x="713.4053" y="-642.8" font-family="Helvetica,sans-Serif" font-size="11.00" fill="#000000">1 &gt;</text>
</a>
</g>
</g>
<!-- encuesta_respuestas&#45;&gt;oportunidades -->
<g id="edge8" class="edge">
<title>encuesta_respuestas:w&#45;&gt;oportunidades:e</title>
<path fill="none" stroke="#000000" d="M767.3253,-689.6677C755.2205,-681.6993 751.5215,-664.7 732,-664.7"/>
<polygon fill="#000000" stroke="#000000" points="773.8053,-691.511 780.515,-697.1626 777.6526,-692.6055 781.5,-693.7 781.5,-693.7 781.5,-693.7 777.6526,-692.6055 782.485,-690.2374 773.8053,-691.511 773.8053,-691.511"/>
<ellipse fill="none" stroke="#000000" cx="770.7274" cy="-690.6354" rx="3.2" ry="3.2"/>
</g>
<!-- oportunidades&#45;&gt;contactos -->
<g id="edge12" class="edge">
<title>oportunidades:w&#45;&gt;contactos:e</title>
<path fill="none" stroke="#000000" d="M606.2884,-659.9968C593.5191,-649.2274 593.7719,-623.7 571.5,-623.7"/>
<polygon fill="#000000" stroke="#000000" points="612.4328,-662.1043 618.8319,-668.1052 616.2164,-663.4022 620,-664.7 620,-664.7 620,-664.7 616.2164,-663.4022 621.1681,-661.2948 612.4328,-662.1043 612.4328,-662.1043"/>
<ellipse fill="none" stroke="#000000" cx="609.4059" cy="-661.0661" rx="3.2" ry="3.2"/>
</g>
<!-- llamadas -->
<g id="node10" class="node">
<title>llamadas</title>
<g id="a_node10"><a xlink:href="../../tables/llamadas.html" xlink:title="llamadas" target="_top">
<polygon fill="#ffffff" stroke="transparent" points="632.5,-473.2 632.5,-534.2 719.5,-534.2 719.5,-473.2 632.5,-473.2"/>
<polygon fill="#f5f5f5" stroke="transparent" points="633,-510.7 633,-533.7 720,-533.7 720,-510.7 633,-510.7"/>
<polygon fill="none" stroke="#000000" points="633,-510.7 633,-533.7 720,-533.7 720,-510.7 633,-510.7"/>
<text text-anchor="start" x="637.9984" y="-519.8" font-family="Helvetica,sans-Serif" font-weight="bold" font-size="11.00" fill="#000000">llamadas</text>
<text text-anchor="start" x="685.5219" y="-518.8" font-family="Helvetica,sans-Serif" font-size="11.00" fill="#000000">[table]</text>
<polygon fill="none" stroke="#000000" points="633,-491.7 633,-510.7 720,-510.7 720,-491.7 633,-491.7"/>
<text text-anchor="start" x="636" y="-497.8" font-family="Helvetica,sans-Serif" font-size="11.00" fill="#000000">...</text>
<polygon fill="#ffffff" stroke="transparent" points="633,-472.7 633,-491.7 662,-491.7 662,-472.7 633,-472.7"/>
<polygon fill="none" stroke="#000000" points="633,-472.7 633,-491.7 662,-491.7 662,-472.7 633,-472.7"/>
<text text-anchor="start" x="636" y="-478.8" font-family="Helvetica,sans-Serif" font-size="11.00" fill="#000000">&lt; 3</text>
<polygon fill="#ffffff" stroke="transparent" points="662,-472.7 662,-491.7 704,-491.7 704,-472.7 662,-472.7"/>
<polygon fill="none" stroke="#000000" points="662,-472.7 662,-491.7 704,-491.7 704,-472.7 662,-472.7"/>
<text text-anchor="start" x="668.6105" y="-478.8" font-family="Helvetica,sans-Serif" font-size="11.00" fill="#000000">0 rows</text>
<polygon fill="#ffffff" stroke="transparent" points="704,-472.7 704,-491.7 720,-491.7 720,-472.7 704,-472.7"/>
<polygon fill="none" stroke="#000000" points="704,-472.7 704,-491.7 720,-491.7 720,-472.7 704,-472.7"/>
<text text-anchor="start" x="710.8862" y="-478.8" font-family="Helvetica,sans-Serif" font-size="11.00" fill="#000000"> &#160;</text>
</a>
</g>
</g>
<!-- llamadas&#45;&gt;contactos -->
<g id="edge10" class="edge">
<title>llamadas:w&#45;&gt;contactos:e</title>
<path fill="none" stroke="#000000" d="M618.8225,-503.7405C582.1982,-522.6814 626.8893,-623.7 571.5,-623.7"/>
<polygon fill="#000000" stroke="#000000" points="625.1779,-502.3776 633.7549,-504.22 629.0889,-501.5388 633,-500.7 633,-500.7 633,-500.7 629.0889,-501.5388 632.2451,-497.18 625.1779,-502.3776 625.1779,-502.3776"/>
<ellipse fill="none" stroke="#000000" cx="622.049" cy="-503.0486" rx="3.2" ry="3.2"/>
</g>
<!-- llamadas&#45;&gt;leads -->
<g id="edge11" class="edge">
<title>llamadas:w&#45;&gt;leads:e</title>
<path fill="none" stroke="#000000" d="M618.5949,-498.4227C589.3914,-488.2781 587.9612,-447.7 549.5,-447.7"/>
<polygon fill="#000000" stroke="#000000" points="625.0981,-499.4507 632.4378,-504.2558 629.0491,-500.0754 633,-500.7 633,-500.7 633,-500.7 629.0491,-500.0754 633.5622,-497.1442 625.0981,-499.4507 625.0981,-499.4507"/>
<ellipse fill="none" stroke="#000000" cx="621.9374" cy="-498.951" rx="3.2" ry="3.2"/>
</g>
<!-- profesores -->
<g id="node11" class="node">
<title>profesores</title>
<g id="a_node11"><a xlink:href="../../tables/profesores.html" xlink:title="profesores" target="_top">
<polygon fill="#ffffff" stroke="transparent" points="242.5,-120.2 242.5,-181.2 336.5,-181.2 336.5,-120.2 242.5,-120.2"/>
<polygon fill="#f5f5f5" stroke="transparent" points="242.5,-157.7 242.5,-180.7 336.5,-180.7 336.5,-157.7 242.5,-157.7"/>
<polygon fill="none" stroke="#000000" points="242.5,-157.7 242.5,-180.7 336.5,-180.7 336.5,-157.7 242.5,-157.7"/>
<text text-anchor="start" x="247.0224" y="-166.8" font-family="Helvetica,sans-Serif" font-weight="bold" font-size="11.00" fill="#000000">profesores</text>
<text text-anchor="start" x="302.0219" y="-165.8" font-family="Helvetica,sans-Serif" font-size="11.00" fill="#000000">[table]</text>
<polygon fill="none" stroke="#000000" points="242.5,-138.7 242.5,-157.7 336.5,-157.7 336.5,-138.7 242.5,-138.7"/>
<text text-anchor="start" x="245.5" y="-144.8" font-family="Helvetica,sans-Serif" font-size="11.00" fill="#000000">...</text>
<polygon fill="#ffffff" stroke="transparent" points="242.5,-119.7 242.5,-138.7 273.5,-138.7 273.5,-119.7 242.5,-119.7"/>
<polygon fill="none" stroke="#000000" points="242.5,-119.7 242.5,-138.7 273.5,-138.7 273.5,-119.7 242.5,-119.7"/>
<text text-anchor="start" x="245.5" y="-125.8" font-family="Helvetica,sans-Serif" font-size="11.00" fill="#000000">&lt; 1</text>
<polygon fill="#ffffff" stroke="transparent" points="273.5,-119.7 273.5,-138.7 310.5,-138.7 310.5,-119.7 273.5,-119.7"/>
<polygon fill="none" stroke="#000000" points="273.5,-119.7 273.5,-138.7 310.5,-138.7 310.5,-119.7 273.5,-119.7"/>
<text text-anchor="start" x="280.6105" y="-125.8" font-family="Helvetica,sans-Serif" font-size="11.00" fill="#000000">1 row</text>
<polygon fill="#ffffff" stroke="transparent" points="310.5,-119.7 310.5,-138.7 336.5,-138.7 336.5,-119.7 310.5,-119.7"/>
<polygon fill="none" stroke="#000000" points="310.5,-119.7 310.5,-138.7 336.5,-138.7 336.5,-119.7 310.5,-119.7"/>
<text text-anchor="start" x="317.9053" y="-125.8" font-family="Helvetica,sans-Serif" font-size="11.00" fill="#000000">1 &gt;</text>
</a>
</g>
</g>
<!-- profesores&#45;&gt;personas -->
<g id="edge14" class="edge">
<title>profesores:w&#45;&gt;personas:e</title>
<path fill="none" stroke="#000000" d="M228.0159,-148.6386C202.2295,-152.3359 191.6005,-166.9174 172,-191.7 137.0822,-235.8496 187.7889,-311.7 131.5,-311.7"/>
<polygon fill="#000000" stroke="#000000" points="234.5167,-148.2174 242.7328,-151.2925 238.5084,-147.9587 242.5,-147.7 242.5,-147.7 242.5,-147.7 238.5084,-147.9587 242.2672,-144.1075 234.5167,-148.2174 234.5167,-148.2174"/>
<ellipse fill="none" stroke="#000000" cx="231.3234" cy="-148.4244" rx="3.2" ry="3.2"/>
</g>
<!-- tareas -->
<g id="node12" class="node">
<title>tareas</title>
<g id="a_node12"><a xlink:href="../../tables/tareas.html" xlink:title="tareas" target="_top">
<polygon fill="#ffffff" stroke="transparent" points="639.5,-391.2 639.5,-452.2 712.5,-452.2 712.5,-391.2 639.5,-391.2"/>
<polygon fill="#f5f5f5" stroke="transparent" points="640,-428.7 640,-451.7 713,-451.7 713,-428.7 640,-428.7"/>
<polygon fill="none" stroke="#000000" points="640,-428.7 640,-451.7 713,-451.7 713,-428.7 640,-428.7"/>
<text text-anchor="start" x="644.7183" y="-437.8" font-family="Helvetica,sans-Serif" font-weight="bold" font-size="11.00" fill="#000000">tareas</text>
<text text-anchor="start" x="678.5219" y="-436.8" font-family="Helvetica,sans-Serif" font-size="11.00" fill="#000000">[table]</text>
<polygon fill="none" stroke="#000000" points="640,-409.7 640,-428.7 713,-428.7 713,-409.7 640,-409.7"/>
<text text-anchor="start" x="643" y="-415.8" font-family="Helvetica,sans-Serif" font-size="11.00" fill="#000000">...</text>
<polygon fill="#ffffff" stroke="transparent" points="640,-390.7 640,-409.7 662,-409.7 662,-390.7 640,-390.7"/>
<polygon fill="none" stroke="#000000" points="640,-390.7 640,-409.7 662,-409.7 662,-390.7 640,-390.7"/>
<text text-anchor="start" x="643" y="-396.8" font-family="Helvetica,sans-Serif" font-size="11.00" fill="#000000">&lt; 3</text>
<polygon fill="#ffffff" stroke="transparent" points="662,-390.7 662,-409.7 700,-409.7 700,-390.7 662,-390.7"/>
<polygon fill="none" stroke="#000000" points="662,-390.7 662,-409.7 700,-409.7 700,-390.7 662,-390.7"/>
<text text-anchor="start" x="664.8053" y="-396.8" font-family="Helvetica,sans-Serif" font-size="11.00" fill="#000000">0 rows</text>
<polygon fill="#ffffff" stroke="transparent" points="700,-390.7 700,-409.7 713,-409.7 713,-390.7 700,-390.7"/>
<polygon fill="none" stroke="#000000" points="700,-390.7 700,-409.7 713,-409.7 713,-390.7 700,-390.7"/>
<text text-anchor="start" x="703.8862" y="-396.8" font-family="Helvetica,sans-Serif" font-size="11.00" fill="#000000"> &#160;</text>
</a>
</g>
</g>
<!-- tareas&#45;&gt;contactos -->
<g id="edge15" class="edge">
<title>tareas:w&#45;&gt;contactos:e</title>
<path fill="none" stroke="#000000" d="M625.7113,-420.5985C557.2367,-441.265 662.1219,-623.7 571.5,-623.7"/>
<polygon fill="#000000" stroke="#000000" points="632.0697,-419.7537 640.4742,-422.2686 636.0348,-419.2269 640,-418.7 640,-418.7 640,-418.7 636.0348,-419.2269 639.5258,-415.1314 632.0697,-419.7537 632.0697,-419.7537"/>
<ellipse fill="none" stroke="#000000" cx="628.8976" cy="-420.1752" rx="3.2" ry="3.2"/>
</g>
<!-- tareas&#45;&gt;leads -->
<g id="edge16" class="edge">
<title>tareas:w&#45;&gt;leads:e</title>
<path fill="none" stroke="#000000" d="M625.3162,-420.0214C595.6078,-425.6947 586.2922,-447.7 549.5,-447.7"/>
<polygon fill="#000000" stroke="#000000" points="632.0322,-419.4171 640.3227,-422.2855 636.0161,-419.0585 640,-418.7 640,-418.7 640,-418.7 636.0161,-419.0585 639.6773,-415.1145 632.0322,-419.4171 632.0322,-419.4171"/>
<ellipse fill="none" stroke="#000000" cx="628.8451" cy="-419.7039" rx="3.2" ry="3.2"/>
</g>
<!-- telefonos -->
<g id="node13" class="node">
<title>telefonos</title>
<g id="a_node13"><a xlink:href="../../tables/telefonos.html" xlink:title="telefonos" target="_top">
<polygon fill="#ffffff" stroke="transparent" points="246,-38.2 246,-99.2 333,-99.2 333,-38.2 246,-38.2"/>
<polygon fill="#f5f5f5" stroke="transparent" points="246.5,-75.7 246.5,-98.7 333.5,-98.7 333.5,-75.7 246.5,-75.7"/>
<polygon fill="none" stroke="#000000" points="246.5,-75.7 246.5,-98.7 333.5,-98.7 333.5,-75.7 246.5,-75.7"/>
<text text-anchor="start" x="251.1854" y="-84.8" font-family="Helvetica,sans-Serif" font-weight="bold" font-size="11.00" fill="#000000">telefonos</text>
<text text-anchor="start" x="299.0219" y="-83.8" font-family="Helvetica,sans-Serif" font-size="11.00" fill="#000000">[table]</text>
<polygon fill="none" stroke="#000000" points="246.5,-56.7 246.5,-75.7 333.5,-75.7 333.5,-56.7 246.5,-56.7"/>
<text text-anchor="start" x="249.5" y="-62.8" font-family="Helvetica,sans-Serif" font-size="11.00" fill="#000000">...</text>
<polygon fill="#ffffff" stroke="transparent" points="246.5,-37.7 246.5,-56.7 278.5,-56.7 278.5,-37.7 246.5,-37.7"/>
<polygon fill="none" stroke="#000000" points="246.5,-37.7 246.5,-56.7 278.5,-56.7 278.5,-37.7 246.5,-37.7"/>
<text text-anchor="start" x="249.5" y="-43.8" font-family="Helvetica,sans-Serif" font-size="11.00" fill="#000000">&lt; 2</text>
<polygon fill="#ffffff" stroke="transparent" points="278.5,-37.7 278.5,-56.7 315.5,-56.7 315.5,-37.7 278.5,-37.7"/>
<polygon fill="none" stroke="#000000" points="278.5,-37.7 278.5,-56.7 315.5,-56.7 315.5,-37.7 278.5,-37.7"/>
<text text-anchor="start" x="285.6105" y="-43.8" font-family="Helvetica,sans-Serif" font-size="11.00" fill="#000000">1 row</text>
<polygon fill="#ffffff" stroke="transparent" points="315.5,-37.7 315.5,-56.7 333.5,-56.7 333.5,-37.7 315.5,-37.7"/>
<polygon fill="none" stroke="#000000" points="315.5,-37.7 315.5,-56.7 333.5,-56.7 333.5,-37.7 315.5,-37.7"/>
<text text-anchor="start" x="324.3862" y="-43.8" font-family="Helvetica,sans-Serif" font-size="11.00" fill="#000000"> &#160;</text>
</a>
</g>
</g>
<!-- telefonos&#45;&gt;personas -->
<g id="edge17" class="edge">
<title>telefonos:w&#45;&gt;personas:e</title>
<path fill="none" stroke="#000000" d="M232.0266,-66.4248C204.1194,-69.5083 191.2237,-82.6351 172,-109.7 118.9774,-184.3502 223.0645,-311.7 131.5,-311.7"/>
<polygon fill="#000000" stroke="#000000" points="238.51,-66.1002 246.6801,-69.2955 242.505,-65.9001 246.5,-65.7 246.5,-65.7 246.5,-65.7 242.505,-65.9001 246.3199,-62.1045 238.51,-66.1002 238.51,-66.1002"/>
<ellipse fill="none" stroke="#000000" cx="235.314" cy="-66.2602" rx="3.2" ry="3.2"/>
</g>
</g>
</svg>
