<?xml version="1.0" encoding="UTF-8" standalone="no"?>
<!DOCTYPE svg PUBLIC "-//W3C//DTD SVG 1.1//EN"
 "http://www.w3.org/Graphics/SVG/1.1/DTD/svg11.dtd">
<!-- Generated by graphviz version 2.40.1 (20161225.0304)
 -->
<!-- Title: twoDegreesRelationshipsDiagram Pages: 1 -->
<svg width="944pt" height="657pt"
 viewBox="0.00 0.00 944.00 657.20" xmlns="http://www.w3.org/2000/svg" xmlns:xlink="http://www.w3.org/1999/xlink">
<g id="graph0" class="graph" transform="scale(1 1) rotate(0) translate(4 653.2)">
<title>twoDegreesRelationshipsDiagram</title>
<polygon fill="#ffffff" stroke="transparent" points="-4,4 -4,-653.2 940,-653.2 940,4 -4,4"/>
<text text-anchor="middle" x="72.4936" y="-7.3" font-family="Helvetica,sans-Serif" font-size="11.00" fill="#000000">Generated by SchemaSpy</text>
<!-- casos -->
<g id="node1" class="node">
<title>casos</title>
<g id="a_node1"><a xlink:href="../../tables/casos.html" xlink:title="casos" target="_top">
<polygon fill="#ffffff" stroke="transparent" points="640.5,-473.2 640.5,-534.2 711.5,-534.2 711.5,-473.2 640.5,-473.2"/>
<polygon fill="#f5f5f5" stroke="transparent" points="641,-510.7 641,-533.7 712,-533.7 712,-510.7 641,-510.7"/>
<polygon fill="none" stroke="#000000" points="641,-510.7 641,-533.7 712,-533.7 712,-510.7 641,-510.7"/>
<text text-anchor="start" x="645.6351" y="-519.8" font-family="Helvetica,sans-Serif" font-weight="bold" font-size="11.00" fill="#000000">casos</text>
<text text-anchor="start" x="677.5219" y="-518.8" font-family="Helvetica,sans-Serif" font-size="11.00" fill="#000000">[table]</text>
<polygon fill="none" stroke="#000000" points="641,-491.7 641,-510.7 712,-510.7 712,-491.7 641,-491.7"/>
<text text-anchor="start" x="644" y="-497.8" font-family="Helvetica,sans-Serif" font-size="11.00" fill="#000000">...</text>
<polygon fill="#ffffff" stroke="transparent" points="641,-472.7 641,-491.7 662,-491.7 662,-472.7 641,-472.7"/>
<polygon fill="none" stroke="#000000" points="641,-472.7 641,-491.7 662,-491.7 662,-472.7 641,-472.7"/>
<text text-anchor="start" x="643.7026" y="-478.8" font-family="Helvetica,sans-Serif" font-size="11.00" fill="#000000">&lt; 3</text>
<polygon fill="#ffffff" stroke="transparent" points="662,-472.7 662,-491.7 700,-491.7 700,-472.7 662,-472.7"/>
<polygon fill="none" stroke="#000000" points="662,-472.7 662,-491.7 700,-491.7 700,-472.7 662,-472.7"/>
<text text-anchor="start" x="664.8053" y="-478.8" font-family="Helvetica,sans-Serif" font-size="11.00" fill="#000000">0 rows</text>
<polygon fill="#ffffff" stroke="transparent" points="700,-472.7 700,-491.7 712,-491.7 712,-472.7 700,-472.7"/>
<polygon fill="none" stroke="#000000" points="700,-472.7 700,-491.7 712,-491.7 712,-472.7 700,-472.7"/>
<text text-anchor="start" x="702.9431" y="-478.8" font-family="Helvetica,sans-Serif" font-size="11.00" fill="#000000"> &#160;</text>
</a>
</g>
</g>
<!-- contactos -->
<g id="node2" class="node">
<title>contactos</title>
<g id="a_node2"><a xlink:href="../../tables/contactos.html" xlink:title="contactos" target="_top">
<polygon fill="#ffffff" stroke="transparent" points="448,-449.2 448,-576.2 571,-576.2 571,-449.2 448,-449.2"/>
<polygon fill="#f5f5f5" stroke="transparent" points="448.5,-552.7 448.5,-575.7 571.5,-575.7 571.5,-552.7 448.5,-552.7"/>
<polygon fill="none" stroke="#000000" points="448.5,-552.7 448.5,-575.7 571.5,-575.7 571.5,-552.7 448.5,-552.7"/>
<text text-anchor="start" x="453.5" y="-561.8" font-family="Helvetica,sans-Serif" font-weight="bold" font-size="11.00" fill="#000000">contactos</text>
<text text-anchor="start" x="536.5437" y="-560.8" font-family="Helvetica,sans-Serif" font-size="11.00" fill="#000000">[table]</text>
<polygon fill="none" stroke="#000000" points="448.5,-530.7 448.5,-552.7 571.5,-552.7 571.5,-530.7 448.5,-530.7"/>
<image xlink:href="../../images/primaryKeys.png" width="11px" height="12px" preserveAspectRatio="xMinYMin meet" x="453.5" y="-547.7"/>
<text text-anchor="start" x="468.5" y="-537.8" font-family="Helvetica,sans-Serif" font-size="11.00" fill="#000000">contacto_id</text>
<polygon fill="none" stroke="#000000" points="448.5,-508.7 448.5,-530.7 571.5,-530.7 571.5,-508.7 448.5,-508.7"/>
<image xlink:href="../../images/foreignKeys.png" width="11px" height="12px" preserveAspectRatio="xMinYMin meet" x="453.5" y="-525.7"/>
<text text-anchor="start" x="468.5" y="-515.8" font-family="Helvetica,sans-Serif" font-size="11.00" fill="#000000">persona_id</text>
<polygon fill="none" stroke="#000000" points="448.5,-486.7 448.5,-508.7 571.5,-508.7 571.5,-486.7 448.5,-486.7"/>
<image xlink:href="../../images/foreignKeys.png" width="11px" height="12px" preserveAspectRatio="xMinYMin meet" x="453.5" y="-503.7"/>
<text text-anchor="start" x="468.5" y="-493.8" font-family="Helvetica,sans-Serif" font-size="11.00" fill="#000000">organizacion_id</text>
<polygon fill="none" stroke="#000000" points="448.5,-467.7 448.5,-486.7 571.5,-486.7 571.5,-467.7 448.5,-467.7"/>
<text text-anchor="start" x="451.5" y="-473.8" font-family="Helvetica,sans-Serif" font-size="11.00" fill="#000000">...</text>
<polygon fill="#ffffff" stroke="transparent" points="448.5,-448.7 448.5,-467.7 490.5,-467.7 490.5,-448.7 448.5,-448.7"/>
<polygon fill="none" stroke="#000000" points="448.5,-448.7 448.5,-467.7 490.5,-467.7 490.5,-448.7 448.5,-448.7"/>
<text text-anchor="start" x="451.5" y="-454.8" font-family="Helvetica,sans-Serif" font-size="11.00" fill="#000000">&lt; 2</text>
<polygon fill="#ffffff" stroke="transparent" points="490.5,-448.7 490.5,-467.7 539.5,-467.7 539.5,-448.7 490.5,-448.7"/>
<polygon fill="none" stroke="#000000" points="490.5,-448.7 490.5,-467.7 539.5,-467.7 539.5,-448.7 490.5,-448.7"/>
<text text-anchor="start" x="504.1105" y="-454.8" font-family="Helvetica,sans-Serif" font-size="11.00" fill="#000000">5 rows</text>
<polygon fill="#ffffff" stroke="transparent" points="539.5,-448.7 539.5,-467.7 571.5,-467.7 571.5,-448.7 539.5,-448.7"/>
<polygon fill="none" stroke="#000000" points="539.5,-448.7 539.5,-467.7 571.5,-467.7 571.5,-448.7 539.5,-448.7"/>
<text text-anchor="start" x="552.9053" y="-454.8" font-family="Helvetica,sans-Serif" font-size="11.00" fill="#000000">5 &gt;</text>
</a>
</g>
</g>
<!-- casos&#45;&gt;contactos -->
<g id="edge1" class="edge">
<title>casos:w&#45;&gt;contactos:e</title>
<path fill="none" stroke="#000000" d="M626.6883,-503.3901C604.9026,-512.5115 601.7596,-541.7 571.5,-541.7"/>
<polygon fill="#000000" stroke="#000000" points="633.1377,-502.1779 641.6651,-504.238 637.0688,-501.4389 641,-500.7 641,-500.7 641,-500.7 637.0688,-501.4389 640.3349,-497.162 633.1377,-502.1779 633.1377,-502.1779"/>
<ellipse fill="none" stroke="#000000" cx="629.9928" cy="-502.7691" rx="3.2" ry="3.2"/>
</g>
<!-- leads -->
<g id="node3" class="node">
<title>leads</title>
<g id="a_node3"><a xlink:href="../../tables/leads.html" xlink:title="leads" target="_top">
<polygon fill="#ffffff" stroke="transparent" points="469.5,-338.2 469.5,-399.2 549.5,-399.2 549.5,-338.2 469.5,-338.2"/>
<polygon fill="#f5f5f5" stroke="transparent" points="469.5,-375.7 469.5,-398.7 549.5,-398.7 549.5,-375.7 469.5,-375.7"/>
<polygon fill="none" stroke="#000000" points="469.5,-375.7 469.5,-398.7 549.5,-398.7 549.5,-375.7 469.5,-375.7"/>
<text text-anchor="start" x="474.5" y="-384.8" font-family="Helvetica,sans-Serif" font-weight="bold" font-size="11.00" fill="#000000">leads</text>
<text text-anchor="start" x="514.5437" y="-383.8" font-family="Helvetica,sans-Serif" font-size="11.00" fill="#000000">[table]</text>
<polygon fill="none" stroke="#000000" points="469.5,-356.7 469.5,-375.7 549.5,-375.7 549.5,-356.7 469.5,-356.7"/>
<text text-anchor="start" x="472.5" y="-362.8" font-family="Helvetica,sans-Serif" font-size="11.00" fill="#000000">...</text>
<polygon fill="#ffffff" stroke="transparent" points="469.5,-337.7 469.5,-356.7 490.5,-356.7 490.5,-337.7 469.5,-337.7"/>
<polygon fill="none" stroke="#000000" points="469.5,-337.7 469.5,-356.7 490.5,-356.7 490.5,-337.7 469.5,-337.7"/>
<text text-anchor="start" x="472.2027" y="-343.8" font-family="Helvetica,sans-Serif" font-size="11.00" fill="#000000">&lt; 5</text>
<polygon fill="#ffffff" stroke="transparent" points="490.5,-337.7 490.5,-356.7 528.5,-356.7 528.5,-337.7 490.5,-337.7"/>
<polygon fill="none" stroke="#000000" points="490.5,-337.7 490.5,-356.7 528.5,-356.7 528.5,-337.7 490.5,-337.7"/>
<text text-anchor="start" x="493.3053" y="-343.8" font-family="Helvetica,sans-Serif" font-size="11.00" fill="#000000">4 rows</text>
<polygon fill="#ffffff" stroke="transparent" points="528.5,-337.7 528.5,-356.7 549.5,-356.7 549.5,-337.7 528.5,-337.7"/>
<polygon fill="none" stroke="#000000" points="528.5,-337.7 528.5,-356.7 549.5,-356.7 549.5,-337.7 528.5,-337.7"/>
<text text-anchor="start" x="531.2026" y="-343.8" font-family="Helvetica,sans-Serif" font-size="11.00" fill="#000000">3 &gt;</text>
</a>
</g>
</g>
<!-- casos&#45;&gt;leads -->
<g id="edge2" class="edge">
<title>casos:w&#45;&gt;leads:e</title>
<path fill="none" stroke="#000000" d="M626.5175,-498.4695C575.9315,-480.9169 616.4618,-365.7 549.5,-365.7"/>
<polygon fill="#000000" stroke="#000000" points="633.0932,-499.4822 640.452,-504.258 637.0466,-500.0911 641,-500.7 641,-500.7 641,-500.7 637.0466,-500.0911 641.548,-497.142 633.0932,-499.4822 633.0932,-499.4822"/>
<ellipse fill="none" stroke="#000000" cx="629.9305" cy="-498.9951" rx="3.2" ry="3.2"/>
</g>
<!-- organizaciones -->
<g id="node4" class="node">
<title>organizaciones</title>
<g id="a_node4"><a xlink:href="../../tables/organizaciones.html" xlink:title="organizaciones" target="_top">
<polygon fill="#ffffff" stroke="transparent" points="180,-311.7 180,-533.7 399,-533.7 399,-311.7 180,-311.7"/>
<polygon fill="#f5f5f5" stroke="transparent" points="182.5,-508.7 182.5,-531.7 397.5,-531.7 397.5,-508.7 182.5,-508.7"/>
<polygon fill="none" stroke="#000000" points="182.5,-508.7 182.5,-531.7 397.5,-531.7 397.5,-508.7 182.5,-508.7"/>
<text text-anchor="start" x="187.5" y="-517.8" font-family="Helvetica,sans-Serif" font-weight="bold" font-size="11.00" fill="#000000">organizaciones</text>
<text text-anchor="start" x="362.5437" y="-516.8" font-family="Helvetica,sans-Serif" font-size="11.00" fill="#000000">[table]</text>
<polygon fill="none" stroke="#000000" points="182.5,-486.7 182.5,-508.7 305.5,-508.7 305.5,-486.7 182.5,-486.7"/>
<image xlink:href="../../images/primaryKeys.png" width="11px" height="12px" preserveAspectRatio="xMinYMin meet" x="187.5" y="-503.7"/>
<text text-anchor="start" x="202.5" y="-493.8" font-family="Helvetica,sans-Serif" font-size="11.00" fill="#000000">organizacion_id</text>
<polygon fill="none" stroke="#000000" points="305.5,-486.7 305.5,-508.7 397.5,-508.7 397.5,-486.7 305.5,-486.7"/>
<text text-anchor="start" x="308.5" y="-494.4" font-family="Helvetica,sans-Serif" font-size="11.00" fill="#000000">serial[10]</text>
<polygon fill="none" stroke="#000000" points="182.5,-464.7 182.5,-486.7 305.5,-486.7 305.5,-464.7 182.5,-464.7"/>
<image xlink:href="../../images/foreignKeys.png" width="11px" height="12px" preserveAspectRatio="xMinYMin meet" x="187.5" y="-481.7"/>
<text text-anchor="start" x="202.5" y="-471.8" font-family="Helvetica,sans-Serif" font-size="11.00" fill="#000000">persona_id</text>
<polygon fill="none" stroke="#000000" points="305.5,-464.7 305.5,-486.7 397.5,-486.7 397.5,-464.7 305.5,-464.7"/>
<text text-anchor="start" x="308.5" y="-472.4" font-family="Helvetica,sans-Serif" font-size="11.00" fill="#000000">int4[10]</text>
<polygon fill="none" stroke="#000000" points="182.5,-442.7 182.5,-464.7 305.5,-464.7 305.5,-442.7 182.5,-442.7"/>
<text text-anchor="start" x="202.5" y="-449.8" font-family="Helvetica,sans-Serif" font-size="11.00" fill="#000000">descripcion</text>
<polygon fill="none" stroke="#000000" points="305.5,-442.7 305.5,-464.7 397.5,-464.7 397.5,-442.7 305.5,-442.7"/>
<text text-anchor="start" x="308.5" y="-450.4" font-family="Helvetica,sans-Serif" font-size="11.00" fill="#000000">text[2147483647]</text>
<polygon fill="none" stroke="#000000" points="182.5,-420.7 182.5,-442.7 305.5,-442.7 305.5,-420.7 182.5,-420.7"/>
<text text-anchor="start" x="202.5" y="-427.8" font-family="Helvetica,sans-Serif" font-size="11.00" fill="#000000">website</text>
<polygon fill="none" stroke="#000000" points="305.5,-420.7 305.5,-442.7 397.5,-442.7 397.5,-420.7 305.5,-420.7"/>
<text text-anchor="start" x="308.5" y="-428.4" font-family="Helvetica,sans-Serif" font-size="11.00" fill="#000000">varchar[255]</text>
<polygon fill="none" stroke="#000000" points="182.5,-398.7 182.5,-420.7 305.5,-420.7 305.5,-398.7 182.5,-398.7"/>
<text text-anchor="start" x="202.5" y="-405.8" font-family="Helvetica,sans-Serif" font-size="11.00" fill="#000000">usu_insercion</text>
<polygon fill="none" stroke="#000000" points="305.5,-398.7 305.5,-420.7 397.5,-420.7 397.5,-398.7 305.5,-398.7"/>
<text text-anchor="start" x="308.5" y="-406.4" font-family="Helvetica,sans-Serif" font-size="11.00" fill="#000000">varchar[20]</text>
<polygon fill="none" stroke="#000000" points="182.5,-376.7 182.5,-398.7 305.5,-398.7 305.5,-376.7 182.5,-376.7"/>
<text text-anchor="start" x="202.5" y="-383.8" font-family="Helvetica,sans-Serif" font-size="11.00" fill="#000000">fec_insercion</text>
<polygon fill="none" stroke="#000000" points="305.5,-376.7 305.5,-398.7 397.5,-398.7 397.5,-376.7 305.5,-376.7"/>
<text text-anchor="start" x="308.1023" y="-384.4" font-family="Helvetica,sans-Serif" font-size="11.00" fill="#000000">timestamptz[35,6]</text>
<polygon fill="none" stroke="#000000" points="182.5,-354.7 182.5,-376.7 305.5,-376.7 305.5,-354.7 182.5,-354.7"/>
<text text-anchor="start" x="202.5" y="-361.8" font-family="Helvetica,sans-Serif" font-size="11.00" fill="#000000">fec_modificacion</text>
<polygon fill="none" stroke="#000000" points="305.5,-354.7 305.5,-376.7 397.5,-376.7 397.5,-354.7 305.5,-354.7"/>
<text text-anchor="start" x="308.1023" y="-362.4" font-family="Helvetica,sans-Serif" font-size="11.00" fill="#000000">timestamptz[35,6]</text>
<polygon fill="none" stroke="#000000" points="182.5,-332.7 182.5,-354.7 305.5,-354.7 305.5,-332.7 182.5,-332.7"/>
<text text-anchor="start" x="202.5" y="-339.8" font-family="Helvetica,sans-Serif" font-size="11.00" fill="#000000">usu_modificacion</text>
<polygon fill="none" stroke="#000000" points="305.5,-332.7 305.5,-354.7 397.5,-354.7 397.5,-332.7 305.5,-332.7"/>
<text text-anchor="start" x="308.5" y="-340.4" font-family="Helvetica,sans-Serif" font-size="11.00" fill="#000000">varchar[20]</text>
<polygon fill="#ffffff" stroke="transparent" points="182.5,-313.7 182.5,-332.7 235.5,-332.7 235.5,-313.7 182.5,-313.7"/>
<polygon fill="none" stroke="#000000" points="182.5,-313.7 182.5,-332.7 235.5,-332.7 235.5,-313.7 182.5,-313.7"/>
<text text-anchor="start" x="185.5" y="-319.8" font-family="Helvetica,sans-Serif" font-size="11.00" fill="#000000">&lt; 1</text>
<polygon fill="#ffffff" stroke="transparent" points="235.5,-313.7 235.5,-332.7 305.5,-332.7 305.5,-313.7 235.5,-313.7"/>
<polygon fill="none" stroke="#000000" points="235.5,-313.7 235.5,-332.7 305.5,-332.7 305.5,-313.7 235.5,-313.7"/>
<text text-anchor="start" x="270.1105" y="-319.8" font-family="Helvetica,sans-Serif" font-size="11.00" fill="#000000">0 rows</text>
<polygon fill="#ffffff" stroke="transparent" points="305.5,-313.7 305.5,-332.7 397.5,-332.7 397.5,-313.7 305.5,-313.7"/>
<polygon fill="none" stroke="#000000" points="305.5,-313.7 305.5,-332.7 397.5,-332.7 397.5,-313.7 305.5,-313.7"/>
<text text-anchor="start" x="378.9053" y="-319.8" font-family="Helvetica,sans-Serif" font-size="11.00" fill="#000000">1 &gt;</text>
<polygon fill="none" stroke="#000000" stroke-width="2" points="181,-312.7 181,-532.7 398,-532.7 398,-312.7 181,-312.7"/>
</a>
</g>
</g>
<!-- contactos&#45;&gt;organizaciones -->
<g id="edge3" class="edge">
<title>contactos:w&#45;&gt;organizaciones:e</title>
<path fill="none" stroke="#000000" d="M433.776,-497.7C421.7815,-497.7 414.3229,-497.7 397.5,-497.7"/>
<polygon fill="#000000" stroke="#000000" points="440.5,-497.7001 448.5,-501.3 444.5,-497.7 448.5,-497.7 448.5,-497.7 448.5,-497.7 444.5,-497.7 448.5,-494.1 440.5,-497.7001 440.5,-497.7001"/>
<ellipse fill="none" stroke="#000000" cx="437.3" cy="-497.7001" rx="3.2" ry="3.2"/>
</g>
<!-- personas -->
<g id="node5" class="node">
<title>personas</title>
<g id="a_node5"><a xlink:href="../../tables/personas.html" xlink:title="personas" target="_top">
<polygon fill="#ffffff" stroke="transparent" points="8,-210.2 8,-293.2 131,-293.2 131,-210.2 8,-210.2"/>
<polygon fill="#f5f5f5" stroke="transparent" points="8.5,-269.7 8.5,-292.7 131.5,-292.7 131.5,-269.7 8.5,-269.7"/>
<polygon fill="none" stroke="#000000" points="8.5,-269.7 8.5,-292.7 131.5,-292.7 131.5,-269.7 8.5,-269.7"/>
<text text-anchor="start" x="13.5" y="-278.8" font-family="Helvetica,sans-Serif" font-weight="bold" font-size="11.00" fill="#000000">personas</text>
<text text-anchor="start" x="96.5437" y="-277.8" font-family="Helvetica,sans-Serif" font-size="11.00" fill="#000000">[table]</text>
<polygon fill="none" stroke="#000000" points="8.5,-247.7 8.5,-269.7 131.5,-269.7 131.5,-247.7 8.5,-247.7"/>
<image xlink:href="../../images/primaryKeys.png" width="11px" height="12px" preserveAspectRatio="xMinYMin meet" x="13.5" y="-264.7"/>
<text text-anchor="start" x="28.5" y="-254.8" font-family="Helvetica,sans-Serif" font-size="11.00" fill="#000000">persona_id</text>
<polygon fill="none" stroke="#000000" points="8.5,-228.7 8.5,-247.7 131.5,-247.7 131.5,-228.7 8.5,-228.7"/>
<text text-anchor="start" x="11.5" y="-234.8" font-family="Helvetica,sans-Serif" font-size="11.00" fill="#000000">...</text>
<polygon fill="#ffffff" stroke="transparent" points="8.5,-209.7 8.5,-228.7 46.5,-228.7 46.5,-209.7 8.5,-209.7"/>
<polygon fill="none" stroke="#000000" points="8.5,-209.7 8.5,-228.7 46.5,-228.7 46.5,-209.7 8.5,-209.7"/>
<text text-anchor="start" x="11.5" y="-215.8" font-family="Helvetica,sans-Serif" font-size="11.00" fill="#000000"> &#160;</text>
<polygon fill="#ffffff" stroke="transparent" points="46.5,-209.7 46.5,-228.7 97.5,-228.7 97.5,-209.7 46.5,-209.7"/>
<polygon fill="none" stroke="#000000" points="46.5,-209.7 46.5,-228.7 97.5,-228.7 97.5,-209.7 46.5,-209.7"/>
<text text-anchor="start" x="62.1105" y="-215.8" font-family="Helvetica,sans-Serif" font-size="11.00" fill="#000000">5 rows</text>
<polygon fill="#ffffff" stroke="transparent" points="97.5,-209.7 97.5,-228.7 131.5,-228.7 131.5,-209.7 97.5,-209.7"/>
<polygon fill="none" stroke="#000000" points="97.5,-209.7 97.5,-228.7 131.5,-228.7 131.5,-209.7 97.5,-209.7"/>
<text text-anchor="start" x="112.9053" y="-215.8" font-family="Helvetica,sans-Serif" font-size="11.00" fill="#000000">6 &gt;</text>
</a>
</g>
</g>
<!-- contactos&#45;&gt;personas -->
<g id="edge4" class="edge">
<title>contactos:w&#45;&gt;personas:e</title>
<path fill="none" stroke="#000000" d="M434.4304,-523.5727C425.6644,-529.3 421.6302,-539.7742 407,-543.7 306.1242,-570.7686 250.8777,-612.1612 172,-543.7 123.6894,-501.7692 195.4696,-258.7 131.5,-258.7"/>
<polygon fill="#000000" stroke="#000000" points="440.7869,-521.8231 449.4554,-523.1709 444.6434,-520.7615 448.5,-519.7 448.5,-519.7 448.5,-519.7 444.6434,-520.7615 447.5446,-516.2291 440.7869,-521.8231 440.7869,-521.8231"/>
<ellipse fill="none" stroke="#000000" cx="437.7016" cy="-522.6723" rx="3.2" ry="3.2"/>
</g>
<!-- leads&#45;&gt;personas -->
<g id="edge9" class="edge">
<title>leads:w&#45;&gt;personas:e</title>
<path fill="none" stroke="#000000" d="M455.1691,-362.9723C432.2913,-352.6658 437.7255,-315.9113 407,-300.7 312.7825,-254.0555 274.253,-298.133 172,-273.7 153.3307,-269.239 150.6949,-258.7 131.5,-258.7"/>
<polygon fill="#000000" stroke="#000000" points="461.6411,-364.2041 468.8269,-369.2365 465.5705,-364.9521 469.5,-365.7 469.5,-365.7 469.5,-365.7 465.5705,-364.9521 470.1731,-362.1635 461.6411,-364.2041 461.6411,-364.2041"/>
<ellipse fill="none" stroke="#000000" cx="458.4975" cy="-363.6058" rx="3.2" ry="3.2"/>
</g>
<!-- organizaciones&#45;&gt;personas -->
<g id="edge13" class="edge">
<title>organizaciones:w&#45;&gt;personas:e</title>
<path fill="none" stroke="#000000" d="M167.9457,-473.6904C99.3066,-451.8141 224.9607,-258.7 131.5,-258.7"/>
<polygon fill="#000000" stroke="#000000" points="174.5752,-474.6057 182.0076,-479.2662 178.5376,-475.1529 182.5,-475.7 182.5,-475.7 182.5,-475.7 178.5376,-475.1529 182.9924,-472.1338 174.5752,-474.6057 174.5752,-474.6057"/>
<ellipse fill="none" stroke="#000000" cx="171.4053" cy="-474.168" rx="3.2" ry="3.2"/>
</g>
<!-- direcciones -->
<g id="node6" class="node">
<title>direcciones</title>
<g id="a_node6"><a xlink:href="../../tables/direcciones.html" xlink:title="direcciones" target="_top">
<polygon fill="#ffffff" stroke="transparent" points="240.5,-202.2 240.5,-263.2 338.5,-263.2 338.5,-202.2 240.5,-202.2"/>
<polygon fill="#f5f5f5" stroke="transparent" points="240.5,-239.7 240.5,-262.7 338.5,-262.7 338.5,-239.7 240.5,-239.7"/>
<polygon fill="none" stroke="#000000" points="240.5,-239.7 240.5,-262.7 338.5,-262.7 338.5,-239.7 240.5,-239.7"/>
<text text-anchor="start" x="245.1909" y="-248.8" font-family="Helvetica,sans-Serif" font-weight="bold" font-size="11.00" fill="#000000">direcciones</text>
<text text-anchor="start" x="304.0219" y="-247.8" font-family="Helvetica,sans-Serif" font-size="11.00" fill="#000000">[table]</text>
<polygon fill="none" stroke="#000000" points="240.5,-220.7 240.5,-239.7 338.5,-239.7 338.5,-220.7 240.5,-220.7"/>
<text text-anchor="start" x="243.5" y="-226.8" font-family="Helvetica,sans-Serif" font-size="11.00" fill="#000000">...</text>
<polygon fill="#ffffff" stroke="transparent" points="240.5,-201.7 240.5,-220.7 277.5,-220.7 277.5,-201.7 240.5,-201.7"/>
<polygon fill="none" stroke="#000000" points="240.5,-201.7 240.5,-220.7 277.5,-220.7 277.5,-201.7 240.5,-201.7"/>
<text text-anchor="start" x="243.5" y="-207.8" font-family="Helvetica,sans-Serif" font-size="11.00" fill="#000000">&lt; 1</text>
<polygon fill="#ffffff" stroke="transparent" points="277.5,-201.7 277.5,-220.7 317.5,-220.7 317.5,-201.7 277.5,-201.7"/>
<polygon fill="none" stroke="#000000" points="277.5,-201.7 277.5,-220.7 317.5,-220.7 317.5,-201.7 277.5,-201.7"/>
<text text-anchor="start" x="287.6105" y="-207.8" font-family="Helvetica,sans-Serif" font-size="11.00" fill="#000000">1 row</text>
<polygon fill="#ffffff" stroke="transparent" points="317.5,-201.7 317.5,-220.7 338.5,-220.7 338.5,-201.7 317.5,-201.7"/>
<polygon fill="none" stroke="#000000" points="317.5,-201.7 317.5,-220.7 338.5,-220.7 338.5,-201.7 317.5,-201.7"/>
<text text-anchor="start" x="329.3862" y="-207.8" font-family="Helvetica,sans-Serif" font-size="11.00" fill="#000000"> &#160;</text>
</a>
</g>
</g>
<!-- direcciones&#45;&gt;personas -->
<g id="edge5" class="edge">
<title>direcciones:w&#45;&gt;personas:e</title>
<path fill="none" stroke="#000000" d="M225.9227,-230.5997C188.0662,-235.4946 176.3426,-258.7 131.5,-258.7"/>
<polygon fill="#000000" stroke="#000000" points="232.5152,-230.1929 240.7218,-233.2932 236.5076,-229.9464 240.5,-229.7 240.5,-229.7 240.5,-229.7 236.5076,-229.9464 240.2782,-226.1068 232.5152,-230.1929 232.5152,-230.1929"/>
<ellipse fill="none" stroke="#000000" cx="229.3213" cy="-230.39" rx="3.2" ry="3.2"/>
</g>
<!-- empleados -->
<g id="node7" class="node">
<title>empleados</title>
<g id="a_node7"><a xlink:href="../../tables/empleados.html" xlink:title="empleados" target="_top">
<polygon fill="#ffffff" stroke="transparent" points="241.5,-120.2 241.5,-181.2 337.5,-181.2 337.5,-120.2 241.5,-120.2"/>
<polygon fill="#f5f5f5" stroke="transparent" points="241.5,-157.7 241.5,-180.7 337.5,-180.7 337.5,-157.7 241.5,-157.7"/>
<polygon fill="none" stroke="#000000" points="241.5,-157.7 241.5,-180.7 337.5,-180.7 337.5,-157.7 241.5,-157.7"/>
<text text-anchor="start" x="246.1039" y="-166.8" font-family="Helvetica,sans-Serif" font-weight="bold" font-size="11.00" fill="#000000">empleados</text>
<text text-anchor="start" x="303.0219" y="-165.8" font-family="Helvetica,sans-Serif" font-size="11.00" fill="#000000">[table]</text>
<polygon fill="none" stroke="#000000" points="241.5,-138.7 241.5,-157.7 337.5,-157.7 337.5,-138.7 241.5,-138.7"/>
<text text-anchor="start" x="244.5" y="-144.8" font-family="Helvetica,sans-Serif" font-size="11.00" fill="#000000">...</text>
<polygon fill="#ffffff" stroke="transparent" points="241.5,-119.7 241.5,-138.7 277.5,-138.7 277.5,-119.7 241.5,-119.7"/>
<polygon fill="none" stroke="#000000" points="241.5,-119.7 241.5,-138.7 277.5,-138.7 277.5,-119.7 241.5,-119.7"/>
<text text-anchor="start" x="244.5" y="-125.8" font-family="Helvetica,sans-Serif" font-size="11.00" fill="#000000">&lt; 2</text>
<polygon fill="#ffffff" stroke="transparent" points="277.5,-119.7 277.5,-138.7 317.5,-138.7 317.5,-119.7 277.5,-119.7"/>
<polygon fill="none" stroke="#000000" points="277.5,-119.7 277.5,-138.7 317.5,-138.7 317.5,-119.7 277.5,-119.7"/>
<text text-anchor="start" x="287.6105" y="-125.8" font-family="Helvetica,sans-Serif" font-size="11.00" fill="#000000">1 row</text>
<polygon fill="#ffffff" stroke="transparent" points="317.5,-119.7 317.5,-138.7 337.5,-138.7 337.5,-119.7 317.5,-119.7"/>
<polygon fill="none" stroke="#000000" points="317.5,-119.7 317.5,-138.7 337.5,-138.7 337.5,-119.7 317.5,-119.7"/>
<text text-anchor="start" x="328.3862" y="-125.8" font-family="Helvetica,sans-Serif" font-size="11.00" fill="#000000"> &#160;</text>
</a>
</g>
</g>
<!-- empleados&#45;&gt;personas -->
<g id="edge6" class="edge">
<title>empleados:w&#45;&gt;personas:e</title>
<path fill="none" stroke="#000000" d="M226.995,-148.8505C202.355,-153.1904 193.7848,-169.4597 172,-191.7 147.6519,-216.5573 166.2953,-258.7 131.5,-258.7"/>
<polygon fill="#000000" stroke="#000000" points="233.525,-148.3326 241.7847,-151.2887 237.5125,-148.0163 241.5,-147.7 241.5,-147.7 241.5,-147.7 237.5125,-148.0163 241.2153,-144.1113 233.525,-148.3326 233.525,-148.3326"/>
<ellipse fill="none" stroke="#000000" cx="230.3351" cy="-148.5857" rx="3.2" ry="3.2"/>
</g>
<!-- encuesta_respuestas -->
<g id="node8" class="node">
<title>encuesta_respuestas</title>
<g id="a_node8"><a xlink:href="../../tables/encuesta_respuestas.html" xlink:title="encuesta_respuestas" target="_top">
<polygon fill="#ffffff" stroke="transparent" points="781,-584.2 781,-645.2 928,-645.2 928,-584.2 781,-584.2"/>
<polygon fill="#f5f5f5" stroke="transparent" points="781.5,-621.7 781.5,-644.7 928.5,-644.7 928.5,-621.7 781.5,-621.7"/>
<polygon fill="none" stroke="#000000" points="781.5,-621.7 781.5,-644.7 928.5,-644.7 928.5,-621.7 781.5,-621.7"/>
<text text-anchor="start" x="786.2302" y="-630.8" font-family="Helvetica,sans-Serif" font-weight="bold" font-size="11.00" fill="#000000">encuesta_respuestas</text>
<text text-anchor="start" x="894.0219" y="-629.8" font-family="Helvetica,sans-Serif" font-size="11.00" fill="#000000">[table]</text>
<polygon fill="none" stroke="#000000" points="781.5,-602.7 781.5,-621.7 928.5,-621.7 928.5,-602.7 781.5,-602.7"/>
<text text-anchor="start" x="784.5" y="-608.8" font-family="Helvetica,sans-Serif" font-size="11.00" fill="#000000">...</text>
<polygon fill="#ffffff" stroke="transparent" points="781.5,-583.7 781.5,-602.7 838.5,-602.7 838.5,-583.7 781.5,-583.7"/>
<polygon fill="none" stroke="#000000" points="781.5,-583.7 781.5,-602.7 838.5,-602.7 838.5,-583.7 781.5,-583.7"/>
<text text-anchor="start" x="784.5" y="-589.8" font-family="Helvetica,sans-Serif" font-size="11.00" fill="#000000">&lt; 2</text>
<polygon fill="#ffffff" stroke="transparent" points="838.5,-583.7 838.5,-602.7 888.5,-602.7 888.5,-583.7 838.5,-583.7"/>
<polygon fill="none" stroke="#000000" points="838.5,-583.7 838.5,-602.7 888.5,-602.7 888.5,-583.7 838.5,-583.7"/>
<text text-anchor="start" x="858.6105" y="-589.8" font-family="Helvetica,sans-Serif" font-size="11.00" fill="#000000">1 row</text>
<polygon fill="#ffffff" stroke="transparent" points="888.5,-583.7 888.5,-602.7 928.5,-602.7 928.5,-583.7 888.5,-583.7"/>
<polygon fill="none" stroke="#000000" points="888.5,-583.7 888.5,-602.7 928.5,-602.7 928.5,-583.7 888.5,-583.7"/>
<text text-anchor="start" x="909.9053" y="-589.8" font-family="Helvetica,sans-Serif" font-size="11.00" fill="#000000">1 &gt;</text>
</a>
</g>
</g>
<!-- encuesta_respuestas&#45;&gt;contactos -->
<g id="edge7" class="edge">
<title>encuesta_respuestas:w&#45;&gt;contactos:e</title>
<path fill="none" stroke="#000000" d="M767.0752,-614.4974C758.6461,-618.1561 753.2812,-624.3734 740,-626.7 683.9644,-636.5162 660.1063,-657.0666 612,-626.7 576.6135,-604.3626 613.3469,-541.7 571.5,-541.7"/>
<polygon fill="#000000" stroke="#000000" points="773.6463,-613.2231 782.1854,-615.2342 777.5732,-612.4616 781.5,-611.7 781.5,-611.7 781.5,-611.7 777.5732,-612.4616 780.8146,-608.1658 773.6463,-613.2231 773.6463,-613.2231"/>
<ellipse fill="none" stroke="#000000" cx="770.5048" cy="-613.8323" rx="3.2" ry="3.2"/>
</g>
<!-- oportunidades -->
<g id="node9" class="node">
<title>oportunidades</title>
<g id="a_node9"><a xlink:href="../../tables/oportunidades.html" xlink:title="oportunidades" target="_top">
<polygon fill="#ffffff" stroke="transparent" points="620,-555.2 620,-616.2 732,-616.2 732,-555.2 620,-555.2"/>
<polygon fill="#f5f5f5" stroke="transparent" points="620,-592.7 620,-615.7 732,-615.7 732,-592.7 620,-592.7"/>
<polygon fill="none" stroke="#000000" points="620,-592.7 620,-615.7 732,-615.7 732,-592.7 620,-592.7"/>
<text text-anchor="start" x="624.6531" y="-601.8" font-family="Helvetica,sans-Serif" font-weight="bold" font-size="11.00" fill="#000000">oportunidades</text>
<text text-anchor="start" x="697.5219" y="-600.8" font-family="Helvetica,sans-Serif" font-size="11.00" fill="#000000">[table]</text>
<polygon fill="none" stroke="#000000" points="620,-573.7 620,-592.7 732,-592.7 732,-573.7 620,-573.7"/>
<text text-anchor="start" x="623" y="-579.8" font-family="Helvetica,sans-Serif" font-size="11.00" fill="#000000">...</text>
<polygon fill="#ffffff" stroke="transparent" points="620,-554.7 620,-573.7 654,-573.7 654,-554.7 620,-554.7"/>
<polygon fill="none" stroke="#000000" points="620,-554.7 620,-573.7 654,-573.7 654,-554.7 620,-554.7"/>
<text text-anchor="start" x="623" y="-560.8" font-family="Helvetica,sans-Serif" font-size="11.00" fill="#000000">&lt; 5</text>
<polygon fill="#ffffff" stroke="transparent" points="654,-554.7 654,-573.7 704,-573.7 704,-554.7 654,-554.7"/>
<polygon fill="none" stroke="#000000" points="654,-554.7 654,-573.7 704,-573.7 704,-554.7 654,-554.7"/>
<text text-anchor="start" x="662.4956" y="-560.8" font-family="Helvetica,sans-Serif" font-size="11.00" fill="#000000">14 rows</text>
<polygon fill="#ffffff" stroke="transparent" points="704,-554.7 704,-573.7 732,-573.7 732,-554.7 704,-554.7"/>
<polygon fill="none" stroke="#000000" points="704,-554.7 704,-573.7 732,-573.7 732,-554.7 704,-554.7"/>
<text text-anchor="start" x="713.4053" y="-560.8" font-family="Helvetica,sans-Serif" font-size="11.00" fill="#000000">1 &gt;</text>
</a>
</g>
</g>
<!-- encuesta_respuestas&#45;&gt;oportunidades -->
<g id="edge8" class="edge">
<title>encuesta_respuestas:w&#45;&gt;oportunidades:e</title>
<path fill="none" stroke="#000000" d="M767.3253,-607.6677C755.2205,-599.6993 751.5215,-582.7 732,-582.7"/>
<polygon fill="#000000" stroke="#000000" points="773.8053,-609.511 780.515,-615.1626 777.6526,-610.6055 781.5,-611.7 781.5,-611.7 781.5,-611.7 777.6526,-610.6055 782.485,-608.2374 773.8053,-609.511 773.8053,-609.511"/>
<ellipse fill="none" stroke="#000000" cx="770.7274" cy="-608.6354" rx="3.2" ry="3.2"/>
</g>
<!-- oportunidades&#45;&gt;contactos -->
<g id="edge12" class="edge">
<title>oportunidades:w&#45;&gt;contactos:e</title>
<path fill="none" stroke="#000000" d="M606.2884,-577.9968C593.5191,-567.2274 593.7719,-541.7 571.5,-541.7"/>
<polygon fill="#000000" stroke="#000000" points="612.4328,-580.1043 618.8319,-586.1052 616.2164,-581.4022 620,-582.7 620,-582.7 620,-582.7 616.2164,-581.4022 621.1681,-579.2948 612.4328,-580.1043 612.4328,-580.1043"/>
<ellipse fill="none" stroke="#000000" cx="609.4059" cy="-579.0661" rx="3.2" ry="3.2"/>
</g>
<!-- llamadas -->
<g id="node10" class="node">
<title>llamadas</title>
<g id="a_node10"><a xlink:href="../../tables/llamadas.html" xlink:title="llamadas" target="_top">
<polygon fill="#ffffff" stroke="transparent" points="632.5,-391.2 632.5,-452.2 719.5,-452.2 719.5,-391.2 632.5,-391.2"/>
<polygon fill="#f5f5f5" stroke="transparent" points="633,-428.7 633,-451.7 720,-451.7 720,-428.7 633,-428.7"/>
<polygon fill="none" stroke="#000000" points="633,-428.7 633,-451.7 720,-451.7 720,-428.7 633,-428.7"/>
<text text-anchor="start" x="637.9984" y="-437.8" font-family="Helvetica,sans-Serif" font-weight="bold" font-size="11.00" fill="#000000">llamadas</text>
<text text-anchor="start" x="685.5219" y="-436.8" font-family="Helvetica,sans-Serif" font-size="11.00" fill="#000000">[table]</text>
<polygon fill="none" stroke="#000000" points="633,-409.7 633,-428.7 720,-428.7 720,-409.7 633,-409.7"/>
<text text-anchor="start" x="636" y="-415.8" font-family="Helvetica,sans-Serif" font-size="11.00" fill="#000000">...</text>
<polygon fill="#ffffff" stroke="transparent" points="633,-390.7 633,-409.7 662,-409.7 662,-390.7 633,-390.7"/>
<polygon fill="none" stroke="#000000" points="633,-390.7 633,-409.7 662,-409.7 662,-390.7 633,-390.7"/>
<text text-anchor="start" x="636" y="-396.8" font-family="Helvetica,sans-Serif" font-size="11.00" fill="#000000">&lt; 3</text>
<polygon fill="#ffffff" stroke="transparent" points="662,-390.7 662,-409.7 704,-409.7 704,-390.7 662,-390.7"/>
<polygon fill="none" stroke="#000000" points="662,-390.7 662,-409.7 704,-409.7 704,-390.7 662,-390.7"/>
<text text-anchor="start" x="668.6105" y="-396.8" font-family="Helvetica,sans-Serif" font-size="11.00" fill="#000000">0 rows</text>
<polygon fill="#ffffff" stroke="transparent" points="704,-390.7 704,-409.7 720,-409.7 720,-390.7 704,-390.7"/>
<polygon fill="none" stroke="#000000" points="704,-390.7 704,-409.7 720,-409.7 720,-390.7 704,-390.7"/>
<text text-anchor="start" x="710.8862" y="-396.8" font-family="Helvetica,sans-Serif" font-size="11.00" fill="#000000"> &#160;</text>
</a>
</g>
</g>
<!-- llamadas&#45;&gt;contactos -->
<g id="edge10" class="edge">
<title>llamadas:w&#45;&gt;contactos:e</title>
<path fill="none" stroke="#000000" d="M618.8225,-421.7405C582.1982,-440.6814 626.8893,-541.7 571.5,-541.7"/>
<polygon fill="#000000" stroke="#000000" points="625.1779,-420.3776 633.7549,-422.22 629.0889,-419.5388 633,-418.7 633,-418.7 633,-418.7 629.0889,-419.5388 632.2451,-415.18 625.1779,-420.3776 625.1779,-420.3776"/>
<ellipse fill="none" stroke="#000000" cx="622.049" cy="-421.0486" rx="3.2" ry="3.2"/>
</g>
<!-- llamadas&#45;&gt;leads -->
<g id="edge11" class="edge">
<title>llamadas:w&#45;&gt;leads:e</title>
<path fill="none" stroke="#000000" d="M618.5949,-416.4227C589.3914,-406.2781 587.9612,-365.7 549.5,-365.7"/>
<polygon fill="#000000" stroke="#000000" points="625.0981,-417.4507 632.4378,-422.2558 629.0491,-418.0754 633,-418.7 633,-418.7 633,-418.7 629.0491,-418.0754 633.5622,-415.1442 625.0981,-417.4507 625.0981,-417.4507"/>
<ellipse fill="none" stroke="#000000" cx="621.9374" cy="-416.951" rx="3.2" ry="3.2"/>
</g>
<!-- tareas -->
<g id="node11" class="node">
<title>tareas</title>
<g id="a_node11"><a xlink:href="../../tables/tareas.html" xlink:title="tareas" target="_top">
<polygon fill="#ffffff" stroke="transparent" points="639.5,-309.2 639.5,-370.2 712.5,-370.2 712.5,-309.2 639.5,-309.2"/>
<polygon fill="#f5f5f5" stroke="transparent" points="640,-346.7 640,-369.7 713,-369.7 713,-346.7 640,-346.7"/>
<polygon fill="none" stroke="#000000" points="640,-346.7 640,-369.7 713,-369.7 713,-346.7 640,-346.7"/>
<text text-anchor="start" x="644.7183" y="-355.8" font-family="Helvetica,sans-Serif" font-weight="bold" font-size="11.00" fill="#000000">tareas</text>
<text text-anchor="start" x="678.5219" y="-354.8" font-family="Helvetica,sans-Serif" font-size="11.00" fill="#000000">[table]</text>
<polygon fill="none" stroke="#000000" points="640,-327.7 640,-346.7 713,-346.7 713,-327.7 640,-327.7"/>
<text text-anchor="start" x="643" y="-333.8" font-family="Helvetica,sans-Serif" font-size="11.00" fill="#000000">...</text>
<polygon fill="#ffffff" stroke="transparent" points="640,-308.7 640,-327.7 662,-327.7 662,-308.7 640,-308.7"/>
<polygon fill="none" stroke="#000000" points="640,-308.7 640,-327.7 662,-327.7 662,-308.7 640,-308.7"/>
<text text-anchor="start" x="643" y="-314.8" font-family="Helvetica,sans-Serif" font-size="11.00" fill="#000000">&lt; 3</text>
<polygon fill="#ffffff" stroke="transparent" points="662,-308.7 662,-327.7 700,-327.7 700,-308.7 662,-308.7"/>
<polygon fill="none" stroke="#000000" points="662,-308.7 662,-327.7 700,-327.7 700,-308.7 662,-308.7"/>
<text text-anchor="start" x="664.8053" y="-314.8" font-family="Helvetica,sans-Serif" font-size="11.00" fill="#000000">0 rows</text>
<polygon fill="#ffffff" stroke="transparent" points="700,-308.7 700,-327.7 713,-327.7 713,-308.7 700,-308.7"/>
<polygon fill="none" stroke="#000000" points="700,-308.7 700,-327.7 713,-327.7 713,-308.7 700,-308.7"/>
<text text-anchor="start" x="703.8862" y="-314.8" font-family="Helvetica,sans-Serif" font-size="11.00" fill="#000000"> &#160;</text>
</a>
</g>
</g>
<!-- tareas&#45;&gt;contactos -->
<g id="edge14" class="edge">
<title>tareas:w&#45;&gt;contactos:e</title>
<path fill="none" stroke="#000000" d="M625.7113,-338.5985C557.2367,-359.265 662.1219,-541.7 571.5,-541.7"/>
<polygon fill="#000000" stroke="#000000" points="632.0697,-337.7537 640.4742,-340.2686 636.0348,-337.2269 640,-336.7 640,-336.7 640,-336.7 636.0348,-337.2269 639.5258,-333.1314 632.0697,-337.7537 632.0697,-337.7537"/>
<ellipse fill="none" stroke="#000000" cx="628.8976" cy="-338.1752" rx="3.2" ry="3.2"/>
</g>
<!-- tareas&#45;&gt;leads -->
<g id="edge15" class="edge">
<title>tareas:w&#45;&gt;leads:e</title>
<path fill="none" stroke="#000000" d="M625.3162,-338.0214C595.6078,-343.6947 586.2922,-365.7 549.5,-365.7"/>
<polygon fill="#000000" stroke="#000000" points="632.0322,-337.4171 640.3227,-340.2855 636.0161,-337.0585 640,-336.7 640,-336.7 640,-336.7 636.0161,-337.0585 639.6773,-333.1145 632.0322,-337.4171 632.0322,-337.4171"/>
<ellipse fill="none" stroke="#000000" cx="628.8451" cy="-337.7039" rx="3.2" ry="3.2"/>
</g>
<!-- telefonos -->
<g id="node12" class="node">
<title>telefonos</title>
<g id="a_node12"><a xlink:href="../../tables/telefonos.html" xlink:title="telefonos" target="_top">
<polygon fill="#ffffff" stroke="transparent" points="246,-38.2 246,-99.2 333,-99.2 333,-38.2 246,-38.2"/>
<polygon fill="#f5f5f5" stroke="transparent" points="246.5,-75.7 246.5,-98.7 333.5,-98.7 333.5,-75.7 246.5,-75.7"/>
<polygon fill="none" stroke="#000000" points="246.5,-75.7 246.5,-98.7 333.5,-98.7 333.5,-75.7 246.5,-75.7"/>
<text text-anchor="start" x="251.1854" y="-84.8" font-family="Helvetica,sans-Serif" font-weight="bold" font-size="11.00" fill="#000000">telefonos</text>
<text text-anchor="start" x="299.0219" y="-83.8" font-family="Helvetica,sans-Serif" font-size="11.00" fill="#000000">[table]</text>
<polygon fill="none" stroke="#000000" points="246.5,-56.7 246.5,-75.7 333.5,-75.7 333.5,-56.7 246.5,-56.7"/>
<text text-anchor="start" x="249.5" y="-62.8" font-family="Helvetica,sans-Serif" font-size="11.00" fill="#000000">...</text>
<polygon fill="#ffffff" stroke="transparent" points="246.5,-37.7 246.5,-56.7 278.5,-56.7 278.5,-37.7 246.5,-37.7"/>
<polygon fill="none" stroke="#000000" points="246.5,-37.7 246.5,-56.7 278.5,-56.7 278.5,-37.7 246.5,-37.7"/>
<text text-anchor="start" x="249.5" y="-43.8" font-family="Helvetica,sans-Serif" font-size="11.00" fill="#000000">&lt; 1</text>
<polygon fill="#ffffff" stroke="transparent" points="278.5,-37.7 278.5,-56.7 315.5,-56.7 315.5,-37.7 278.5,-37.7"/>
<polygon fill="none" stroke="#000000" points="278.5,-37.7 278.5,-56.7 315.5,-56.7 315.5,-37.7 278.5,-37.7"/>
<text text-anchor="start" x="285.6105" y="-43.8" font-family="Helvetica,sans-Serif" font-size="11.00" fill="#000000">1 row</text>
<polygon fill="#ffffff" stroke="transparent" points="315.5,-37.7 315.5,-56.7 333.5,-56.7 333.5,-37.7 315.5,-37.7"/>
<polygon fill="none" stroke="#000000" points="315.5,-37.7 315.5,-56.7 333.5,-56.7 333.5,-37.7 315.5,-37.7"/>
<text text-anchor="start" x="324.3862" y="-43.8" font-family="Helvetica,sans-Serif" font-size="11.00" fill="#000000"> &#160;</text>
</a>
</g>
</g>
<!-- telefonos&#45;&gt;personas -->
<g id="edge16" class="edge">
<title>telefonos:w&#45;&gt;personas:e</title>
<path fill="none" stroke="#000000" d="M232.0772,-66.462C204.3662,-69.6899 192.1264,-83.2995 172,-109.7 130.395,-164.2748 200.1249,-258.7 131.5,-258.7"/>
<polygon fill="#000000" stroke="#000000" points="238.5111,-66.1221 246.69,-69.295 242.5056,-65.9111 246.5,-65.7 246.5,-65.7 246.5,-65.7 242.5056,-65.9111 246.31,-62.105 238.5111,-66.1221 238.5111,-66.1221"/>
<ellipse fill="none" stroke="#000000" cx="235.3156" cy="-66.291" rx="3.2" ry="3.2"/>
</g>
</g>
</svg>
