<?xml version="1.0" encoding="UTF-8" standalone="no"?>
<!DOCTYPE svg PUBLIC "-//W3C//DTD SVG 1.1//EN"
 "http://www.w3.org/Graphics/SVG/1.1/DTD/svg11.dtd">
<!-- Generated by graphviz version 2.40.1 (20161225.0304)
 -->
<!-- Title: twoDegreesRelationshipsDiagram Pages: 1 -->
<svg width="633pt" height="585pt"
 viewBox="0.00 0.00 633.00 585.20" xmlns="http://www.w3.org/2000/svg" xmlns:xlink="http://www.w3.org/1999/xlink">
<g id="graph0" class="graph" transform="scale(1 1) rotate(0) translate(4 581.2)">
<title>twoDegreesRelationshipsDiagram</title>
<polygon fill="#ffffff" stroke="transparent" points="-4,4 -4,-581.2 629,-581.2 629,4 -4,4"/>
<text text-anchor="middle" x="72.4936" y="-7.3" font-family="Helvetica,sans-Serif" font-size="11.00" fill="#000000">Generated by SchemaSpy</text>
<!-- contactos -->
<g id="node1" class="node">
<title>contactos</title>
<g id="a_node1"><a xlink:href="../../tables/contactos.html" xlink:title="contactos" target="_top">
<polygon fill="#ffffff" stroke="transparent" points="243.5,-512.2 243.5,-573.2 333.5,-573.2 333.5,-512.2 243.5,-512.2"/>
<polygon fill="#f5f5f5" stroke="transparent" points="243.5,-549.7 243.5,-572.7 333.5,-572.7 333.5,-549.7 243.5,-549.7"/>
<polygon fill="none" stroke="#000000" points="243.5,-549.7 243.5,-572.7 333.5,-572.7 333.5,-549.7 243.5,-549.7"/>
<text text-anchor="start" x="248.4633" y="-558.8" font-family="Helvetica,sans-Serif" font-weight="bold" font-size="11.00" fill="#000000">contactos</text>
<text text-anchor="start" x="299.0219" y="-557.8" font-family="Helvetica,sans-Serif" font-size="11.00" fill="#000000">[table]</text>
<polygon fill="none" stroke="#000000" points="243.5,-530.7 243.5,-549.7 333.5,-549.7 333.5,-530.7 243.5,-530.7"/>
<text text-anchor="start" x="246.5" y="-536.8" font-family="Helvetica,sans-Serif" font-size="11.00" fill="#000000">...</text>
<polygon fill="#ffffff" stroke="transparent" points="243.5,-511.7 243.5,-530.7 269.5,-530.7 269.5,-511.7 243.5,-511.7"/>
<polygon fill="none" stroke="#000000" points="243.5,-511.7 243.5,-530.7 269.5,-530.7 269.5,-511.7 243.5,-511.7"/>
<text text-anchor="start" x="246.5" y="-517.8" font-family="Helvetica,sans-Serif" font-size="11.00" fill="#000000">&lt; 1</text>
<polygon fill="#ffffff" stroke="transparent" points="269.5,-511.7 269.5,-530.7 309.5,-530.7 309.5,-511.7 269.5,-511.7"/>
<polygon fill="none" stroke="#000000" points="269.5,-511.7 269.5,-530.7 309.5,-530.7 309.5,-511.7 269.5,-511.7"/>
<text text-anchor="start" x="274.1105" y="-517.8" font-family="Helvetica,sans-Serif" font-size="11.00" fill="#000000">0 rows</text>
<polygon fill="#ffffff" stroke="transparent" points="309.5,-511.7 309.5,-530.7 333.5,-530.7 333.5,-511.7 309.5,-511.7"/>
<polygon fill="none" stroke="#000000" points="309.5,-511.7 309.5,-530.7 333.5,-530.7 333.5,-511.7 309.5,-511.7"/>
<text text-anchor="start" x="314.9053" y="-517.8" font-family="Helvetica,sans-Serif" font-size="11.00" fill="#000000">3 &gt;</text>
</a>
</g>
</g>
<!-- personas -->
<g id="node2" class="node">
<title>personas</title>
<g id="a_node2"><a xlink:href="../../tables/personas.html" xlink:title="personas" target="_top">
<polygon fill="#ffffff" stroke="transparent" points="8,-219.2 8,-302.2 131,-302.2 131,-219.2 8,-219.2"/>
<polygon fill="#f5f5f5" stroke="transparent" points="8.5,-278.7 8.5,-301.7 131.5,-301.7 131.5,-278.7 8.5,-278.7"/>
<polygon fill="none" stroke="#000000" points="8.5,-278.7 8.5,-301.7 131.5,-301.7 131.5,-278.7 8.5,-278.7"/>
<text text-anchor="start" x="13.5" y="-287.8" font-family="Helvetica,sans-Serif" font-weight="bold" font-size="11.00" fill="#000000">personas</text>
<text text-anchor="start" x="96.5437" y="-286.8" font-family="Helvetica,sans-Serif" font-size="11.00" fill="#000000">[table]</text>
<polygon fill="none" stroke="#000000" points="8.5,-256.7 8.5,-278.7 131.5,-278.7 131.5,-256.7 8.5,-256.7"/>
<image xlink:href="../../images/primaryKeys.png" width="11px" height="12px" preserveAspectRatio="xMinYMin meet" x="13.5" y="-273.7"/>
<text text-anchor="start" x="28.5" y="-263.8" font-family="Helvetica,sans-Serif" font-size="11.00" fill="#000000">persona_id</text>
<polygon fill="none" stroke="#000000" points="8.5,-237.7 8.5,-256.7 131.5,-256.7 131.5,-237.7 8.5,-237.7"/>
<text text-anchor="start" x="11.5" y="-243.8" font-family="Helvetica,sans-Serif" font-size="11.00" fill="#000000">...</text>
<polygon fill="#ffffff" stroke="transparent" points="8.5,-218.7 8.5,-237.7 46.5,-237.7 46.5,-218.7 8.5,-218.7"/>
<polygon fill="none" stroke="#000000" points="8.5,-218.7 8.5,-237.7 46.5,-237.7 46.5,-218.7 8.5,-218.7"/>
<text text-anchor="start" x="11.5" y="-224.8" font-family="Helvetica,sans-Serif" font-size="11.00" fill="#000000"> &#160;</text>
<polygon fill="#ffffff" stroke="transparent" points="46.5,-218.7 46.5,-237.7 97.5,-237.7 97.5,-218.7 46.5,-218.7"/>
<polygon fill="none" stroke="#000000" points="46.5,-218.7 46.5,-237.7 97.5,-237.7 97.5,-218.7 46.5,-218.7"/>
<text text-anchor="start" x="62.1105" y="-224.8" font-family="Helvetica,sans-Serif" font-size="11.00" fill="#000000">0 rows</text>
<polygon fill="#ffffff" stroke="transparent" points="97.5,-218.7 97.5,-237.7 131.5,-237.7 131.5,-218.7 97.5,-218.7"/>
<polygon fill="none" stroke="#000000" points="97.5,-218.7 97.5,-237.7 131.5,-237.7 131.5,-218.7 97.5,-218.7"/>
<text text-anchor="start" x="112.9053" y="-224.8" font-family="Helvetica,sans-Serif" font-size="11.00" fill="#000000">4 &gt;</text>
</a>
</g>
</g>
<!-- contactos&#45;&gt;personas -->
<g id="edge1" class="edge">
<title>contactos:w&#45;&gt;personas:e</title>
<path fill="none" stroke="#000000" d="M228.8087,-539.0773C203.0892,-536.6242 189.976,-526.5191 172,-501.7 141.0441,-458.9597 184.2731,-267.7 131.5,-267.7"/>
<polygon fill="#000000" stroke="#000000" points="235.5072,-539.3612 243.3475,-543.2968 239.5036,-539.5306 243.5,-539.7 243.5,-539.7 243.5,-539.7 239.5036,-539.5306 243.6525,-536.1032 235.5072,-539.3612 235.5072,-539.3612"/>
<ellipse fill="none" stroke="#000000" cx="232.31" cy="-539.2256" rx="3.2" ry="3.2"/>
</g>
<!-- contactos_organizaciones -->
<g id="node3" class="node">
<title>contactos_organizaciones</title>
<g id="a_node3"><a xlink:href="../../tables/contactos_organizaciones.html" xlink:title="contactos_organizaciones" target="_top">
<polygon fill="#ffffff" stroke="transparent" points="446,-437.2 446,-542.2 617,-542.2 617,-437.2 446,-437.2"/>
<polygon fill="#f5f5f5" stroke="transparent" points="446.5,-518.7 446.5,-541.7 617.5,-541.7 617.5,-518.7 446.5,-518.7"/>
<polygon fill="none" stroke="#000000" points="446.5,-518.7 446.5,-541.7 617.5,-541.7 617.5,-518.7 446.5,-518.7"/>
<text text-anchor="start" x="451.5" y="-527.8" font-family="Helvetica,sans-Serif" font-weight="bold" font-size="11.00" fill="#000000">contactos_organizaciones</text>
<text text-anchor="start" x="583.0219" y="-526.8" font-family="Helvetica,sans-Serif" font-size="11.00" fill="#000000">[table]</text>
<polygon fill="none" stroke="#000000" points="446.5,-496.7 446.5,-518.7 617.5,-518.7 617.5,-496.7 446.5,-496.7"/>
<image xlink:href="../../images/foreignKeys.png" width="11px" height="12px" preserveAspectRatio="xMinYMin meet" x="451.5" y="-513.7"/>
<text text-anchor="start" x="466.5" y="-503.8" font-family="Helvetica,sans-Serif" font-size="11.00" fill="#000000">contacto_id</text>
<polygon fill="none" stroke="#000000" points="446.5,-474.7 446.5,-496.7 617.5,-496.7 617.5,-474.7 446.5,-474.7"/>
<image xlink:href="../../images/foreignKeys.png" width="11px" height="12px" preserveAspectRatio="xMinYMin meet" x="451.5" y="-491.7"/>
<text text-anchor="start" x="466.5" y="-481.8" font-family="Helvetica,sans-Serif" font-size="11.00" fill="#000000">organizacion_id</text>
<polygon fill="none" stroke="#000000" points="446.5,-455.7 446.5,-474.7 617.5,-474.7 617.5,-455.7 446.5,-455.7"/>
<text text-anchor="start" x="449.5" y="-461.8" font-family="Helvetica,sans-Serif" font-size="11.00" fill="#000000">...</text>
<polygon fill="#ffffff" stroke="transparent" points="446.5,-436.7 446.5,-455.7 517.5,-455.7 517.5,-436.7 446.5,-436.7"/>
<polygon fill="none" stroke="#000000" points="446.5,-436.7 446.5,-455.7 517.5,-455.7 517.5,-436.7 446.5,-436.7"/>
<text text-anchor="start" x="449.5" y="-442.8" font-family="Helvetica,sans-Serif" font-size="11.00" fill="#000000">&lt; 2</text>
<polygon fill="#ffffff" stroke="transparent" points="517.5,-436.7 517.5,-455.7 580.5,-455.7 580.5,-436.7 517.5,-436.7"/>
<polygon fill="none" stroke="#000000" points="517.5,-436.7 517.5,-455.7 580.5,-455.7 580.5,-436.7 517.5,-436.7"/>
<text text-anchor="start" x="545.1105" y="-442.8" font-family="Helvetica,sans-Serif" font-size="11.00" fill="#000000">0 rows</text>
<polygon fill="#ffffff" stroke="transparent" points="580.5,-436.7 580.5,-455.7 617.5,-455.7 617.5,-436.7 580.5,-436.7"/>
<polygon fill="none" stroke="#000000" points="580.5,-436.7 580.5,-455.7 617.5,-455.7 617.5,-436.7 580.5,-436.7"/>
<text text-anchor="start" x="608.3862" y="-442.8" font-family="Helvetica,sans-Serif" font-size="11.00" fill="#000000"> &#160;</text>
</a>
</g>
</g>
<!-- contactos_organizaciones&#45;&gt;contactos -->
<g id="edge2" class="edge">
<title>contactos_organizaciones:w&#45;&gt;contactos:e</title>
<path fill="none" stroke="#000000" d="M432.1134,-508.5893C392.1559,-513.7575 380.4978,-539.7 333.5,-539.7"/>
<polygon fill="#000000" stroke="#000000" points="438.5152,-508.1936 446.7221,-511.2931 442.5076,-507.9468 446.5,-507.7 446.5,-507.7 446.5,-507.7 442.5076,-507.9468 446.2779,-504.1069 438.5152,-508.1936 438.5152,-508.1936"/>
<ellipse fill="none" stroke="#000000" cx="435.3213" cy="-508.391" rx="3.2" ry="3.2"/>
</g>
<!-- organizaciones -->
<g id="node4" class="node">
<title>organizaciones</title>
<g id="a_node4"><a xlink:href="../../tables/organizaciones.html" xlink:title="organizaciones" target="_top">
<polygon fill="#ffffff" stroke="transparent" points="180,-202.7 180,-490.7 397,-490.7 397,-202.7 180,-202.7"/>
<polygon fill="#f5f5f5" stroke="transparent" points="182.5,-465.7 182.5,-488.7 395.5,-488.7 395.5,-465.7 182.5,-465.7"/>
<polygon fill="none" stroke="#000000" points="182.5,-465.7 182.5,-488.7 395.5,-488.7 395.5,-465.7 182.5,-465.7"/>
<text text-anchor="start" x="187.5" y="-474.8" font-family="Helvetica,sans-Serif" font-weight="bold" font-size="11.00" fill="#000000">organizaciones</text>
<text text-anchor="start" x="360.5437" y="-473.8" font-family="Helvetica,sans-Serif" font-size="11.00" fill="#000000">[table]</text>
<polygon fill="none" stroke="#000000" points="182.5,-443.7 182.5,-465.7 305.5,-465.7 305.5,-443.7 182.5,-443.7"/>
<image xlink:href="../../images/primaryKeys.png" width="11px" height="12px" preserveAspectRatio="xMinYMin meet" x="187.5" y="-460.7"/>
<text text-anchor="start" x="202.5" y="-450.8" font-family="Helvetica,sans-Serif" font-size="11.00" fill="#000000">organizacion_id</text>
<polygon fill="none" stroke="#000000" points="305.5,-443.7 305.5,-465.7 395.5,-465.7 395.5,-443.7 305.5,-443.7"/>
<text text-anchor="start" x="308.5" y="-451.4" font-family="Helvetica,sans-Serif" font-size="11.00" fill="#000000">int4[10]</text>
<polygon fill="none" stroke="#000000" points="182.5,-421.7 182.5,-443.7 305.5,-443.7 305.5,-421.7 182.5,-421.7"/>
<text text-anchor="start" x="202.5" y="-428.8" font-family="Helvetica,sans-Serif" font-size="11.00" fill="#000000">descripcion</text>
<polygon fill="none" stroke="#000000" points="305.5,-421.7 305.5,-443.7 395.5,-443.7 395.5,-421.7 305.5,-421.7"/>
<text text-anchor="start" x="308.0043" y="-429.4" font-family="Helvetica,sans-Serif" font-size="11.00" fill="#000000">text[2147483647]</text>
<polygon fill="none" stroke="#000000" points="182.5,-399.7 182.5,-421.7 305.5,-421.7 305.5,-399.7 182.5,-399.7"/>
<text text-anchor="start" x="202.5" y="-406.8" font-family="Helvetica,sans-Serif" font-size="11.00" fill="#000000">website</text>
<polygon fill="none" stroke="#000000" points="305.5,-399.7 305.5,-421.7 395.5,-421.7 395.5,-399.7 305.5,-399.7"/>
<text text-anchor="start" x="308.5" y="-407.4" font-family="Helvetica,sans-Serif" font-size="11.00" fill="#000000">varchar[500]</text>
<polygon fill="none" stroke="#000000" points="182.5,-377.7 182.5,-399.7 305.5,-399.7 305.5,-377.7 182.5,-377.7"/>
<image xlink:href="../../images/foreignKeys.png" width="11px" height="12px" preserveAspectRatio="xMinYMin meet" x="187.5" y="-394.7"/>
<text text-anchor="start" x="202.5" y="-384.8" font-family="Helvetica,sans-Serif" font-size="11.00" fill="#000000">persona_id</text>
<polygon fill="none" stroke="#000000" points="305.5,-377.7 305.5,-399.7 395.5,-399.7 395.5,-377.7 305.5,-377.7"/>
<text text-anchor="start" x="308.5" y="-385.4" font-family="Helvetica,sans-Serif" font-size="11.00" fill="#000000">int4[10]</text>
<polygon fill="none" stroke="#000000" points="182.5,-355.7 182.5,-377.7 305.5,-377.7 305.5,-355.7 182.5,-355.7"/>
<text text-anchor="start" x="202.5" y="-362.8" font-family="Helvetica,sans-Serif" font-size="11.00" fill="#000000">usu_asignado</text>
<polygon fill="none" stroke="#000000" points="305.5,-355.7 305.5,-377.7 395.5,-377.7 395.5,-355.7 305.5,-355.7"/>
<text text-anchor="start" x="308.5" y="-363.4" font-family="Helvetica,sans-Serif" font-size="11.00" fill="#000000">varchar[20]</text>
<polygon fill="none" stroke="#000000" points="182.5,-333.7 182.5,-355.7 305.5,-355.7 305.5,-333.7 182.5,-333.7"/>
<text text-anchor="start" x="202.5" y="-340.8" font-family="Helvetica,sans-Serif" font-size="11.00" fill="#000000">fec_insercion</text>
<polygon fill="none" stroke="#000000" points="305.5,-333.7 305.5,-355.7 395.5,-355.7 395.5,-333.7 305.5,-333.7"/>
<text text-anchor="start" x="308.5" y="-341.4" font-family="Helvetica,sans-Serif" font-size="11.00" fill="#000000">timestamp[29,6]</text>
<polygon fill="none" stroke="#000000" points="182.5,-311.7 182.5,-333.7 305.5,-333.7 305.5,-311.7 182.5,-311.7"/>
<text text-anchor="start" x="202.5" y="-318.8" font-family="Helvetica,sans-Serif" font-size="11.00" fill="#000000">usu_insercion</text>
<polygon fill="none" stroke="#000000" points="305.5,-311.7 305.5,-333.7 395.5,-333.7 395.5,-311.7 305.5,-311.7"/>
<text text-anchor="start" x="308.5" y="-319.4" font-family="Helvetica,sans-Serif" font-size="11.00" fill="#000000">varchar[20]</text>
<polygon fill="none" stroke="#000000" points="182.5,-289.7 182.5,-311.7 305.5,-311.7 305.5,-289.7 182.5,-289.7"/>
<text text-anchor="start" x="202.5" y="-296.8" font-family="Helvetica,sans-Serif" font-size="11.00" fill="#000000">fec_modificacion</text>
<polygon fill="none" stroke="#000000" points="305.5,-289.7 305.5,-311.7 395.5,-311.7 395.5,-289.7 305.5,-289.7"/>
<text text-anchor="start" x="308.5" y="-297.4" font-family="Helvetica,sans-Serif" font-size="11.00" fill="#000000">timestamp[29,6]</text>
<polygon fill="none" stroke="#000000" points="182.5,-267.7 182.5,-289.7 305.5,-289.7 305.5,-267.7 182.5,-267.7"/>
<text text-anchor="start" x="202.5" y="-274.8" font-family="Helvetica,sans-Serif" font-size="11.00" fill="#000000">usu_modificacion</text>
<polygon fill="none" stroke="#000000" points="305.5,-267.7 305.5,-289.7 395.5,-289.7 395.5,-267.7 305.5,-267.7"/>
<text text-anchor="start" x="308.5" y="-275.4" font-family="Helvetica,sans-Serif" font-size="11.00" fill="#000000">varchar[20]</text>
<polygon fill="none" stroke="#000000" points="182.5,-245.7 182.5,-267.7 305.5,-267.7 305.5,-245.7 182.5,-245.7"/>
<text text-anchor="start" x="202.5" y="-252.8" font-family="Helvetica,sans-Serif" font-size="11.00" fill="#000000">fec_eliminacion</text>
<polygon fill="none" stroke="#000000" points="305.5,-245.7 305.5,-267.7 395.5,-267.7 395.5,-245.7 305.5,-245.7"/>
<text text-anchor="start" x="308.5" y="-253.4" font-family="Helvetica,sans-Serif" font-size="11.00" fill="#000000">timestamp[29,6]</text>
<polygon fill="none" stroke="#000000" points="182.5,-223.7 182.5,-245.7 305.5,-245.7 305.5,-223.7 182.5,-223.7"/>
<text text-anchor="start" x="202.5" y="-230.8" font-family="Helvetica,sans-Serif" font-size="11.00" fill="#000000">usu_eliminacion</text>
<polygon fill="none" stroke="#000000" points="305.5,-223.7 305.5,-245.7 395.5,-245.7 395.5,-223.7 305.5,-223.7"/>
<text text-anchor="start" x="308.5" y="-231.4" font-family="Helvetica,sans-Serif" font-size="11.00" fill="#000000">varchar[20]</text>
<polygon fill="#ffffff" stroke="transparent" points="182.5,-204.7 182.5,-223.7 235.5,-223.7 235.5,-204.7 182.5,-204.7"/>
<polygon fill="none" stroke="#000000" points="182.5,-204.7 182.5,-223.7 235.5,-223.7 235.5,-204.7 182.5,-204.7"/>
<text text-anchor="start" x="185.5" y="-210.8" font-family="Helvetica,sans-Serif" font-size="11.00" fill="#000000">&lt; 1</text>
<polygon fill="#ffffff" stroke="transparent" points="235.5,-204.7 235.5,-223.7 305.5,-223.7 305.5,-204.7 235.5,-204.7"/>
<polygon fill="none" stroke="#000000" points="235.5,-204.7 235.5,-223.7 305.5,-223.7 305.5,-204.7 235.5,-204.7"/>
<text text-anchor="start" x="270.1105" y="-210.8" font-family="Helvetica,sans-Serif" font-size="11.00" fill="#000000">0 rows</text>
<polygon fill="#ffffff" stroke="transparent" points="305.5,-204.7 305.5,-223.7 395.5,-223.7 395.5,-204.7 305.5,-204.7"/>
<polygon fill="none" stroke="#000000" points="305.5,-204.7 305.5,-223.7 395.5,-223.7 395.5,-204.7 305.5,-204.7"/>
<text text-anchor="start" x="376.9053" y="-210.8" font-family="Helvetica,sans-Serif" font-size="11.00" fill="#000000">1 &gt;</text>
<polygon fill="none" stroke="#000000" stroke-width="2" points="181,-203.7 181,-489.7 396,-489.7 396,-203.7 181,-203.7"/>
</a>
</g>
</g>
<!-- contactos_organizaciones&#45;&gt;organizaciones -->
<g id="edge3" class="edge">
<title>contactos_organizaciones:w&#45;&gt;organizaciones:e</title>
<path fill="none" stroke="#000000" d="M432.5967,-481.8988C419.5044,-473.6209 416.2231,-454.7 395.5,-454.7"/>
<polygon fill="#000000" stroke="#000000" points="438.7832,-483.5902 445.5506,-489.1726 442.6416,-484.6451 446.5,-485.7 446.5,-485.7 446.5,-485.7 442.6416,-484.6451 447.4494,-482.2274 438.7832,-483.5902 438.7832,-483.5902"/>
<ellipse fill="none" stroke="#000000" cx="435.6965" cy="-482.7462" rx="3.2" ry="3.2"/>
</g>
<!-- organizaciones&#45;&gt;personas -->
<g id="edge5" class="edge">
<title>organizaciones:w&#45;&gt;personas:e</title>
<path fill="none" stroke="#000000" d="M168.2982,-385.2092C136.2098,-365.37 183.9323,-267.7 131.5,-267.7"/>
<polygon fill="#000000" stroke="#000000" points="174.7312,-386.7904 181.6407,-392.1959 178.6156,-387.7452 182.5,-388.7 182.5,-388.7 182.5,-388.7 178.6156,-387.7452 183.3593,-385.2041 174.7312,-386.7904 174.7312,-386.7904"/>
<ellipse fill="none" stroke="#000000" cx="171.6237" cy="-386.0266" rx="3.2" ry="3.2"/>
</g>
<!-- leads -->
<g id="node5" class="node">
<title>leads</title>
<g id="a_node5"><a xlink:href="../../tables/leads.html" xlink:title="leads" target="_top">
<polygon fill="#ffffff" stroke="transparent" points="253,-120.2 253,-181.2 324,-181.2 324,-120.2 253,-120.2"/>
<polygon fill="#f5f5f5" stroke="transparent" points="253.5,-157.7 253.5,-180.7 324.5,-180.7 324.5,-157.7 253.5,-157.7"/>
<polygon fill="none" stroke="#000000" points="253.5,-157.7 253.5,-180.7 324.5,-180.7 324.5,-157.7 253.5,-157.7"/>
<text text-anchor="start" x="258.5" y="-166.8" font-family="Helvetica,sans-Serif" font-weight="bold" font-size="11.00" fill="#000000">leads</text>
<text text-anchor="start" x="289.5437" y="-165.8" font-family="Helvetica,sans-Serif" font-size="11.00" fill="#000000">[table]</text>
<polygon fill="none" stroke="#000000" points="253.5,-138.7 253.5,-157.7 324.5,-157.7 324.5,-138.7 253.5,-138.7"/>
<text text-anchor="start" x="256.5" y="-144.8" font-family="Helvetica,sans-Serif" font-size="11.00" fill="#000000">...</text>
<polygon fill="#ffffff" stroke="transparent" points="253.5,-119.7 253.5,-138.7 274.5,-138.7 274.5,-119.7 253.5,-119.7"/>
<polygon fill="none" stroke="#000000" points="253.5,-119.7 253.5,-138.7 274.5,-138.7 274.5,-119.7 253.5,-119.7"/>
<text text-anchor="start" x="256.2027" y="-125.8" font-family="Helvetica,sans-Serif" font-size="11.00" fill="#000000">&lt; 1</text>
<polygon fill="#ffffff" stroke="transparent" points="274.5,-119.7 274.5,-138.7 312.5,-138.7 312.5,-119.7 274.5,-119.7"/>
<polygon fill="none" stroke="#000000" points="274.5,-119.7 274.5,-138.7 312.5,-138.7 312.5,-119.7 274.5,-119.7"/>
<text text-anchor="start" x="277.3053" y="-125.8" font-family="Helvetica,sans-Serif" font-size="11.00" fill="#000000">0 rows</text>
<polygon fill="#ffffff" stroke="transparent" points="312.5,-119.7 312.5,-138.7 324.5,-138.7 324.5,-119.7 312.5,-119.7"/>
<polygon fill="none" stroke="#000000" points="312.5,-119.7 312.5,-138.7 324.5,-138.7 324.5,-119.7 312.5,-119.7"/>
<text text-anchor="start" x="315.4431" y="-125.8" font-family="Helvetica,sans-Serif" font-size="11.00" fill="#000000"> &#160;</text>
</a>
</g>
</g>
<!-- leads&#45;&gt;personas -->
<g id="edge4" class="edge">
<title>leads:w&#45;&gt;personas:e</title>
<path fill="none" stroke="#000000" d="M238.9091,-148.4741C208.9855,-151.9524 197.3669,-167.0947 172,-192.7 145.3384,-219.6123 169.3829,-267.7 131.5,-267.7"/>
<polygon fill="#000000" stroke="#000000" points="245.5112,-148.1239 253.6907,-151.2949 249.5056,-147.9119 253.5,-147.7 253.5,-147.7 253.5,-147.7 249.5056,-147.9119 253.3093,-144.1051 245.5112,-148.1239 245.5112,-148.1239"/>
<ellipse fill="none" stroke="#000000" cx="242.3157" cy="-148.2934" rx="3.2" ry="3.2"/>
</g>
<!-- usuarios -->
<g id="node6" class="node">
<title>usuarios</title>
<g id="a_node6"><a xlink:href="../../tables/usuarios.html" xlink:title="usuarios" target="_top">
<polygon fill="#ffffff" stroke="transparent" points="245.5,-38.2 245.5,-99.2 331.5,-99.2 331.5,-38.2 245.5,-38.2"/>
<polygon fill="#f5f5f5" stroke="transparent" points="245.5,-75.7 245.5,-98.7 331.5,-98.7 331.5,-75.7 245.5,-75.7"/>
<polygon fill="none" stroke="#000000" points="245.5,-75.7 245.5,-98.7 331.5,-98.7 331.5,-75.7 245.5,-75.7"/>
<text text-anchor="start" x="250.5" y="-84.8" font-family="Helvetica,sans-Serif" font-weight="bold" font-size="11.00" fill="#000000">usuarios</text>
<text text-anchor="start" x="296.5437" y="-83.8" font-family="Helvetica,sans-Serif" font-size="11.00" fill="#000000">[table]</text>
<polygon fill="none" stroke="#000000" points="245.5,-56.7 245.5,-75.7 331.5,-75.7 331.5,-56.7 245.5,-56.7"/>
<text text-anchor="start" x="248.5" y="-62.8" font-family="Helvetica,sans-Serif" font-size="11.00" fill="#000000">...</text>
<polygon fill="#ffffff" stroke="transparent" points="245.5,-37.7 245.5,-56.7 266.5,-56.7 266.5,-37.7 245.5,-37.7"/>
<polygon fill="none" stroke="#000000" points="245.5,-37.7 245.5,-56.7 266.5,-56.7 266.5,-37.7 245.5,-37.7"/>
<text text-anchor="start" x="248.2027" y="-43.8" font-family="Helvetica,sans-Serif" font-size="11.00" fill="#000000">&lt; 4</text>
<polygon fill="#ffffff" stroke="transparent" points="266.5,-37.7 266.5,-56.7 304.5,-56.7 304.5,-37.7 266.5,-37.7"/>
<polygon fill="none" stroke="#000000" points="266.5,-37.7 266.5,-56.7 304.5,-56.7 304.5,-37.7 266.5,-37.7"/>
<text text-anchor="start" x="269.3053" y="-43.8" font-family="Helvetica,sans-Serif" font-size="11.00" fill="#000000">0 rows</text>
<polygon fill="#ffffff" stroke="transparent" points="304.5,-37.7 304.5,-56.7 331.5,-56.7 331.5,-37.7 304.5,-37.7"/>
<polygon fill="none" stroke="#000000" points="304.5,-37.7 304.5,-56.7 331.5,-56.7 331.5,-37.7 304.5,-37.7"/>
<text text-anchor="start" x="307.1452" y="-43.8" font-family="Helvetica,sans-Serif" font-size="11.00" fill="#000000">19 &gt;</text>
</a>
</g>
</g>
<!-- usuarios&#45;&gt;personas -->
<g id="edge6" class="edge">
<title>usuarios:w&#45;&gt;personas:e</title>
<path fill="none" stroke="#000000" d="M230.8472,-66.51C203.6679,-69.8302 191.5697,-83.479 172,-109.7 128.6409,-167.796 203.9925,-267.7 131.5,-267.7"/>
<polygon fill="#000000" stroke="#000000" points="237.5122,-66.1416 245.6987,-69.2945 241.5061,-65.9208 245.5,-65.7 245.5,-65.7 245.5,-65.7 241.5061,-65.9208 245.3013,-62.1055 237.5122,-66.1416 237.5122,-66.1416"/>
<ellipse fill="none" stroke="#000000" cx="234.3171" cy="-66.3183" rx="3.2" ry="3.2"/>
</g>
</g>
</svg>
