<?xml version="1.0" encoding="UTF-8" standalone="no"?>
<!DOCTYPE svg PUBLIC "-//W3C//DTD SVG 1.1//EN"
 "http://www.w3.org/Graphics/SVG/1.1/DTD/svg11.dtd">
<!-- Generated by graphviz version 2.40.1 (20161225.0304)
 -->
<!-- Title: oneDegreeRelationshipsDiagram Pages: 1 -->
<svg width="587pt" height="334pt"
 viewBox="0.00 0.00 587.00 333.70" xmlns="http://www.w3.org/2000/svg" xmlns:xlink="http://www.w3.org/1999/xlink">
<g id="graph0" class="graph" transform="scale(1 1) rotate(0) translate(4 329.7)">
<title>oneDegreeRelationshipsDiagram</title>
<polygon fill="#ffffff" stroke="transparent" points="-4,4 -4,-329.7 583,-329.7 583,4 -4,4"/>
<text text-anchor="middle" x="72.4936" y="-7.3" font-family="Helvetica,sans-Serif" font-size="11.00" fill="#000000">Generated by SchemaSpy</text>
<!-- contactos -->
<g id="node1" class="node">
<title>contactos</title>
<g id="a_node1"><a xlink:href="../../tables/contactos.html" xlink:title="contactos" target="_top">
<polygon fill="#ffffff" stroke="transparent" points="448,-194.7 448,-321.7 571,-321.7 571,-194.7 448,-194.7"/>
<polygon fill="#f5f5f5" stroke="transparent" points="448.5,-298.2 448.5,-321.2 571.5,-321.2 571.5,-298.2 448.5,-298.2"/>
<polygon fill="none" stroke="#000000" points="448.5,-298.2 448.5,-321.2 571.5,-321.2 571.5,-298.2 448.5,-298.2"/>
<text text-anchor="start" x="453.5" y="-307.3" font-family="Helvetica,sans-Serif" font-weight="bold" font-size="11.00" fill="#000000">contactos</text>
<text text-anchor="start" x="536.5437" y="-306.3" font-family="Helvetica,sans-Serif" font-size="11.00" fill="#000000">[table]</text>
<polygon fill="none" stroke="#000000" points="448.5,-276.2 448.5,-298.2 571.5,-298.2 571.5,-276.2 448.5,-276.2"/>
<image xlink:href="../../images/primaryKeys.png" width="11px" height="12px" preserveAspectRatio="xMinYMin meet" x="453.5" y="-293.2"/>
<text text-anchor="start" x="468.5" y="-283.3" font-family="Helvetica,sans-Serif" font-size="11.00" fill="#000000">contacto_id</text>
<polygon fill="none" stroke="#000000" points="448.5,-254.2 448.5,-276.2 571.5,-276.2 571.5,-254.2 448.5,-254.2"/>
<image xlink:href="../../images/foreignKeys.png" width="11px" height="12px" preserveAspectRatio="xMinYMin meet" x="453.5" y="-271.2"/>
<text text-anchor="start" x="468.5" y="-261.3" font-family="Helvetica,sans-Serif" font-size="11.00" fill="#000000">persona_id</text>
<polygon fill="none" stroke="#000000" points="448.5,-232.2 448.5,-254.2 571.5,-254.2 571.5,-232.2 448.5,-232.2"/>
<image xlink:href="../../images/foreignKeys.png" width="11px" height="12px" preserveAspectRatio="xMinYMin meet" x="453.5" y="-249.2"/>
<text text-anchor="start" x="468.5" y="-239.3" font-family="Helvetica,sans-Serif" font-size="11.00" fill="#000000">organizacion_id</text>
<polygon fill="none" stroke="#000000" points="448.5,-213.2 448.5,-232.2 571.5,-232.2 571.5,-213.2 448.5,-213.2"/>
<text text-anchor="start" x="451.5" y="-219.3" font-family="Helvetica,sans-Serif" font-size="11.00" fill="#000000">...</text>
<polygon fill="#ffffff" stroke="transparent" points="448.5,-194.2 448.5,-213.2 490.5,-213.2 490.5,-194.2 448.5,-194.2"/>
<polygon fill="none" stroke="#000000" points="448.5,-194.2 448.5,-213.2 490.5,-213.2 490.5,-194.2 448.5,-194.2"/>
<text text-anchor="start" x="451.5" y="-200.3" font-family="Helvetica,sans-Serif" font-size="11.00" fill="#000000">&lt; 2</text>
<polygon fill="#ffffff" stroke="transparent" points="490.5,-194.2 490.5,-213.2 539.5,-213.2 539.5,-194.2 490.5,-194.2"/>
<polygon fill="none" stroke="#000000" points="490.5,-194.2 490.5,-213.2 539.5,-213.2 539.5,-194.2 490.5,-194.2"/>
<text text-anchor="start" x="504.1105" y="-200.3" font-family="Helvetica,sans-Serif" font-size="11.00" fill="#000000">0 rows</text>
<polygon fill="#ffffff" stroke="transparent" points="539.5,-194.2 539.5,-213.2 571.5,-213.2 571.5,-194.2 539.5,-194.2"/>
<polygon fill="none" stroke="#000000" points="539.5,-194.2 539.5,-213.2 571.5,-213.2 571.5,-194.2 539.5,-194.2"/>
<text text-anchor="start" x="552.9053" y="-200.3" font-family="Helvetica,sans-Serif" font-size="11.00" fill="#000000">5 &gt;</text>
</a>
</g>
</g>
<!-- organizaciones -->
<g id="node2" class="node">
<title>organizaciones</title>
<g id="a_node2"><a xlink:href="../../tables/organizaciones.html" xlink:title="organizaciones" target="_top">
<polygon fill="#ffffff" stroke="transparent" points="180,-38.2 180,-260.2 399,-260.2 399,-38.2 180,-38.2"/>
<polygon fill="#f5f5f5" stroke="transparent" points="182.5,-235.2 182.5,-258.2 397.5,-258.2 397.5,-235.2 182.5,-235.2"/>
<polygon fill="none" stroke="#000000" points="182.5,-235.2 182.5,-258.2 397.5,-258.2 397.5,-235.2 182.5,-235.2"/>
<text text-anchor="start" x="187.5" y="-244.3" font-family="Helvetica,sans-Serif" font-weight="bold" font-size="11.00" fill="#000000">organizaciones</text>
<text text-anchor="start" x="362.5437" y="-243.3" font-family="Helvetica,sans-Serif" font-size="11.00" fill="#000000">[table]</text>
<polygon fill="none" stroke="#000000" points="182.5,-213.2 182.5,-235.2 305.5,-235.2 305.5,-213.2 182.5,-213.2"/>
<image xlink:href="../../images/primaryKeys.png" width="11px" height="12px" preserveAspectRatio="xMinYMin meet" x="187.5" y="-230.2"/>
<text text-anchor="start" x="202.5" y="-220.3" font-family="Helvetica,sans-Serif" font-size="11.00" fill="#000000">organizacion_id</text>
<polygon fill="none" stroke="#000000" points="305.5,-213.2 305.5,-235.2 397.5,-235.2 397.5,-213.2 305.5,-213.2"/>
<text text-anchor="start" x="308.5" y="-220.9" font-family="Helvetica,sans-Serif" font-size="11.00" fill="#000000">serial[10]</text>
<polygon fill="none" stroke="#000000" points="182.5,-191.2 182.5,-213.2 305.5,-213.2 305.5,-191.2 182.5,-191.2"/>
<image xlink:href="../../images/foreignKeys.png" width="11px" height="12px" preserveAspectRatio="xMinYMin meet" x="187.5" y="-208.2"/>
<text text-anchor="start" x="202.5" y="-198.3" font-family="Helvetica,sans-Serif" font-size="11.00" fill="#000000">persona_id</text>
<polygon fill="none" stroke="#000000" points="305.5,-191.2 305.5,-213.2 397.5,-213.2 397.5,-191.2 305.5,-191.2"/>
<text text-anchor="start" x="308.5" y="-198.9" font-family="Helvetica,sans-Serif" font-size="11.00" fill="#000000">int4[10]</text>
<polygon fill="none" stroke="#000000" points="182.5,-169.2 182.5,-191.2 305.5,-191.2 305.5,-169.2 182.5,-169.2"/>
<text text-anchor="start" x="202.5" y="-176.3" font-family="Helvetica,sans-Serif" font-size="11.00" fill="#000000">descripcion</text>
<polygon fill="none" stroke="#000000" points="305.5,-169.2 305.5,-191.2 397.5,-191.2 397.5,-169.2 305.5,-169.2"/>
<text text-anchor="start" x="308.5" y="-176.9" font-family="Helvetica,sans-Serif" font-size="11.00" fill="#000000">text[2147483647]</text>
<polygon fill="none" stroke="#000000" points="182.5,-147.2 182.5,-169.2 305.5,-169.2 305.5,-147.2 182.5,-147.2"/>
<text text-anchor="start" x="202.5" y="-154.3" font-family="Helvetica,sans-Serif" font-size="11.00" fill="#000000">website</text>
<polygon fill="none" stroke="#000000" points="305.5,-147.2 305.5,-169.2 397.5,-169.2 397.5,-147.2 305.5,-147.2"/>
<text text-anchor="start" x="308.5" y="-154.9" font-family="Helvetica,sans-Serif" font-size="11.00" fill="#000000">varchar[255]</text>
<polygon fill="none" stroke="#000000" points="182.5,-125.2 182.5,-147.2 305.5,-147.2 305.5,-125.2 182.5,-125.2"/>
<text text-anchor="start" x="202.5" y="-132.3" font-family="Helvetica,sans-Serif" font-size="11.00" fill="#000000">usu_insercion</text>
<polygon fill="none" stroke="#000000" points="305.5,-125.2 305.5,-147.2 397.5,-147.2 397.5,-125.2 305.5,-125.2"/>
<text text-anchor="start" x="308.5" y="-132.9" font-family="Helvetica,sans-Serif" font-size="11.00" fill="#000000">varchar[20]</text>
<polygon fill="none" stroke="#000000" points="182.5,-103.2 182.5,-125.2 305.5,-125.2 305.5,-103.2 182.5,-103.2"/>
<text text-anchor="start" x="202.5" y="-110.3" font-family="Helvetica,sans-Serif" font-size="11.00" fill="#000000">fec_insercion</text>
<polygon fill="none" stroke="#000000" points="305.5,-103.2 305.5,-125.2 397.5,-125.2 397.5,-103.2 305.5,-103.2"/>
<text text-anchor="start" x="308.1023" y="-110.9" font-family="Helvetica,sans-Serif" font-size="11.00" fill="#000000">timestamptz[35,6]</text>
<polygon fill="none" stroke="#000000" points="182.5,-81.2 182.5,-103.2 305.5,-103.2 305.5,-81.2 182.5,-81.2"/>
<text text-anchor="start" x="202.5" y="-88.3" font-family="Helvetica,sans-Serif" font-size="11.00" fill="#000000">fec_modificacion</text>
<polygon fill="none" stroke="#000000" points="305.5,-81.2 305.5,-103.2 397.5,-103.2 397.5,-81.2 305.5,-81.2"/>
<text text-anchor="start" x="308.1023" y="-88.9" font-family="Helvetica,sans-Serif" font-size="11.00" fill="#000000">timestamptz[35,6]</text>
<polygon fill="none" stroke="#000000" points="182.5,-59.2 182.5,-81.2 305.5,-81.2 305.5,-59.2 182.5,-59.2"/>
<text text-anchor="start" x="202.5" y="-66.3" font-family="Helvetica,sans-Serif" font-size="11.00" fill="#000000">usu_modificacion</text>
<polygon fill="none" stroke="#000000" points="305.5,-59.2 305.5,-81.2 397.5,-81.2 397.5,-59.2 305.5,-59.2"/>
<text text-anchor="start" x="308.5" y="-66.9" font-family="Helvetica,sans-Serif" font-size="11.00" fill="#000000">varchar[20]</text>
<polygon fill="#ffffff" stroke="transparent" points="182.5,-40.2 182.5,-59.2 235.5,-59.2 235.5,-40.2 182.5,-40.2"/>
<polygon fill="none" stroke="#000000" points="182.5,-40.2 182.5,-59.2 235.5,-59.2 235.5,-40.2 182.5,-40.2"/>
<text text-anchor="start" x="185.5" y="-46.3" font-family="Helvetica,sans-Serif" font-size="11.00" fill="#000000">&lt; 1</text>
<polygon fill="#ffffff" stroke="transparent" points="235.5,-40.2 235.5,-59.2 305.5,-59.2 305.5,-40.2 235.5,-40.2"/>
<polygon fill="none" stroke="#000000" points="235.5,-40.2 235.5,-59.2 305.5,-59.2 305.5,-40.2 235.5,-40.2"/>
<text text-anchor="start" x="270.1105" y="-46.3" font-family="Helvetica,sans-Serif" font-size="11.00" fill="#000000">0 rows</text>
<polygon fill="#ffffff" stroke="transparent" points="305.5,-40.2 305.5,-59.2 397.5,-59.2 397.5,-40.2 305.5,-40.2"/>
<polygon fill="none" stroke="#000000" points="305.5,-40.2 305.5,-59.2 397.5,-59.2 397.5,-40.2 305.5,-40.2"/>
<text text-anchor="start" x="378.9053" y="-46.3" font-family="Helvetica,sans-Serif" font-size="11.00" fill="#000000">1 &gt;</text>
<polygon fill="none" stroke="#000000" stroke-width="2" points="181,-39.2 181,-259.2 398,-259.2 398,-39.2 181,-39.2"/>
</a>
</g>
</g>
<!-- contactos&#45;&gt;organizaciones -->
<g id="edge1" class="edge">
<title>contactos:w&#45;&gt;organizaciones:e</title>
<path fill="none" stroke="#000000" d="M434.1076,-240.3965C421.7761,-235.1113 415.8304,-224.2 397.5,-224.2"/>
<polygon fill="#000000" stroke="#000000" points="440.6476,-241.6704 447.8117,-246.7336 444.5738,-242.4352 448.5,-243.2 448.5,-243.2 448.5,-243.2 444.5738,-242.4352 449.1883,-239.6664 440.6476,-241.6704 440.6476,-241.6704"/>
<ellipse fill="none" stroke="#000000" cx="437.5066" cy="-241.0585" rx="3.2" ry="3.2"/>
</g>
<!-- personas -->
<g id="node3" class="node">
<title>personas</title>
<g id="a_node3"><a xlink:href="../../tables/personas.html" xlink:title="personas" target="_top">
<polygon fill="#ffffff" stroke="transparent" points="8,-194.7 8,-277.7 131,-277.7 131,-194.7 8,-194.7"/>
<polygon fill="#f5f5f5" stroke="transparent" points="8.5,-254.2 8.5,-277.2 131.5,-277.2 131.5,-254.2 8.5,-254.2"/>
<polygon fill="none" stroke="#000000" points="8.5,-254.2 8.5,-277.2 131.5,-277.2 131.5,-254.2 8.5,-254.2"/>
<text text-anchor="start" x="13.5" y="-263.3" font-family="Helvetica,sans-Serif" font-weight="bold" font-size="11.00" fill="#000000">personas</text>
<text text-anchor="start" x="96.5437" y="-262.3" font-family="Helvetica,sans-Serif" font-size="11.00" fill="#000000">[table]</text>
<polygon fill="none" stroke="#000000" points="8.5,-232.2 8.5,-254.2 131.5,-254.2 131.5,-232.2 8.5,-232.2"/>
<image xlink:href="../../images/primaryKeys.png" width="11px" height="12px" preserveAspectRatio="xMinYMin meet" x="13.5" y="-249.2"/>
<text text-anchor="start" x="28.5" y="-239.3" font-family="Helvetica,sans-Serif" font-size="11.00" fill="#000000">persona_id</text>
<polygon fill="none" stroke="#000000" points="8.5,-213.2 8.5,-232.2 131.5,-232.2 131.5,-213.2 8.5,-213.2"/>
<text text-anchor="start" x="11.5" y="-219.3" font-family="Helvetica,sans-Serif" font-size="11.00" fill="#000000">...</text>
<polygon fill="#ffffff" stroke="transparent" points="8.5,-194.2 8.5,-213.2 49.5,-213.2 49.5,-194.2 8.5,-194.2"/>
<polygon fill="none" stroke="#000000" points="8.5,-194.2 8.5,-213.2 49.5,-213.2 49.5,-194.2 8.5,-194.2"/>
<text text-anchor="start" x="11.5" y="-200.3" font-family="Helvetica,sans-Serif" font-size="11.00" fill="#000000"> &#160;</text>
<polygon fill="#ffffff" stroke="transparent" points="49.5,-194.2 49.5,-213.2 95.5,-213.2 95.5,-194.2 49.5,-194.2"/>
<polygon fill="none" stroke="#000000" points="49.5,-194.2 49.5,-213.2 95.5,-213.2 95.5,-194.2 49.5,-194.2"/>
<text text-anchor="start" x="65.6105" y="-200.3" font-family="Helvetica,sans-Serif" font-size="11.00" fill="#000000">1 row</text>
<polygon fill="#ffffff" stroke="transparent" points="95.5,-194.2 95.5,-213.2 131.5,-213.2 131.5,-194.2 95.5,-194.2"/>
<polygon fill="none" stroke="#000000" points="95.5,-194.2 95.5,-213.2 131.5,-213.2 131.5,-194.2 95.5,-194.2"/>
<text text-anchor="start" x="112.9053" y="-200.3" font-family="Helvetica,sans-Serif" font-size="11.00" fill="#000000">7 &gt;</text>
</a>
</g>
</g>
<!-- contactos&#45;&gt;personas -->
<g id="edge2" class="edge">
<title>contactos:w&#45;&gt;personas:e</title>
<path fill="none" stroke="#000000" d="M434.0864,-266.1775C425.6642,-267.4054 419.6044,-269.4434 407,-270.2 302.7432,-276.4579 271.9629,-300.4663 172,-270.2 151.2949,-263.931 153.1333,-243.2 131.5,-243.2"/>
<polygon fill="#000000" stroke="#000000" points="440.5183,-265.7413 448.7436,-268.7917 444.5092,-265.4707 448.5,-265.2 448.5,-265.2 448.5,-265.2 444.5092,-265.4707 448.2564,-261.6083 440.5183,-265.7413 440.5183,-265.7413"/>
<ellipse fill="none" stroke="#000000" cx="437.3257" cy="-265.9579" rx="3.2" ry="3.2"/>
</g>
<!-- organizaciones&#45;&gt;personas -->
<g id="edge3" class="edge">
<title>organizaciones:w&#45;&gt;personas:e</title>
<path fill="none" stroke="#000000" d="M168.6568,-206.5877C154.8325,-217.1646 154.6756,-243.2 131.5,-243.2"/>
<polygon fill="#000000" stroke="#000000" points="174.8739,-204.6172 183.5877,-205.6317 178.6869,-203.4086 182.5,-202.2 182.5,-202.2 182.5,-202.2 178.6869,-203.4086 181.4123,-198.7683 174.8739,-204.6172 174.8739,-204.6172"/>
<ellipse fill="none" stroke="#000000" cx="171.8235" cy="-205.5841" rx="3.2" ry="3.2"/>
</g>
</g>
</svg>
