<?xml version="1.0" encoding="UTF-8" standalone="no"?>
<!DOCTYPE svg PUBLIC "-//W3C//DTD SVG 1.1//EN"
 "http://www.w3.org/Graphics/SVG/1.1/DTD/svg11.dtd">
<!-- Generated by graphviz version 2.40.1 (20161225.0304)
 -->
<!-- Title: twoDegreesRelationshipsDiagram Pages: 1 -->
<svg width="944pt" height="710pt"
 viewBox="0.00 0.00 944.00 709.70" xmlns="http://www.w3.org/2000/svg" xmlns:xlink="http://www.w3.org/1999/xlink">
<g id="graph0" class="graph" transform="scale(1 1) rotate(0) translate(4 705.7)">
<title>twoDegreesRelationshipsDiagram</title>
<polygon fill="#ffffff" stroke="transparent" points="-4,4 -4,-705.7 940,-705.7 940,4 -4,4"/>
<text text-anchor="middle" x="72.4936" y="-7.3" font-family="Helvetica,sans-Serif" font-size="11.00" fill="#000000">Generated by SchemaSpy</text>
<!-- contactos -->
<g id="node1" class="node">
<title>contactos</title>
<g id="a_node1"><a xlink:href="../../tables/contactos.html" xlink:title="contactos" target="_top">
<polygon fill="#ffffff" stroke="transparent" points="448,-194.7 448,-321.7 571,-321.7 571,-194.7 448,-194.7"/>
<polygon fill="#f5f5f5" stroke="transparent" points="448.5,-298.2 448.5,-321.2 571.5,-321.2 571.5,-298.2 448.5,-298.2"/>
<polygon fill="none" stroke="#000000" points="448.5,-298.2 448.5,-321.2 571.5,-321.2 571.5,-298.2 448.5,-298.2"/>
<text text-anchor="start" x="453.5" y="-307.3" font-family="Helvetica,sans-Serif" font-weight="bold" font-size="11.00" fill="#000000">contactos</text>
<text text-anchor="start" x="536.5437" y="-306.3" font-family="Helvetica,sans-Serif" font-size="11.00" fill="#000000">[table]</text>
<polygon fill="none" stroke="#000000" points="448.5,-276.2 448.5,-298.2 571.5,-298.2 571.5,-276.2 448.5,-276.2"/>
<image xlink:href="../../images/primaryKeys.png" width="11px" height="12px" preserveAspectRatio="xMinYMin meet" x="453.5" y="-293.2"/>
<text text-anchor="start" x="468.5" y="-283.3" font-family="Helvetica,sans-Serif" font-size="11.00" fill="#000000">contacto_id</text>
<polygon fill="none" stroke="#000000" points="448.5,-254.2 448.5,-276.2 571.5,-276.2 571.5,-254.2 448.5,-254.2"/>
<image xlink:href="../../images/foreignKeys.png" width="11px" height="12px" preserveAspectRatio="xMinYMin meet" x="453.5" y="-271.2"/>
<text text-anchor="start" x="468.5" y="-261.3" font-family="Helvetica,sans-Serif" font-size="11.00" fill="#000000">persona_id</text>
<polygon fill="none" stroke="#000000" points="448.5,-232.2 448.5,-254.2 571.5,-254.2 571.5,-232.2 448.5,-232.2"/>
<image xlink:href="../../images/foreignKeys.png" width="11px" height="12px" preserveAspectRatio="xMinYMin meet" x="453.5" y="-249.2"/>
<text text-anchor="start" x="468.5" y="-239.3" font-family="Helvetica,sans-Serif" font-size="11.00" fill="#000000">organizacion_id</text>
<polygon fill="none" stroke="#000000" points="448.5,-213.2 448.5,-232.2 571.5,-232.2 571.5,-213.2 448.5,-213.2"/>
<text text-anchor="start" x="451.5" y="-219.3" font-family="Helvetica,sans-Serif" font-size="11.00" fill="#000000">...</text>
<polygon fill="#ffffff" stroke="transparent" points="448.5,-194.2 448.5,-213.2 490.5,-213.2 490.5,-194.2 448.5,-194.2"/>
<polygon fill="none" stroke="#000000" points="448.5,-194.2 448.5,-213.2 490.5,-213.2 490.5,-194.2 448.5,-194.2"/>
<text text-anchor="start" x="451.5" y="-200.3" font-family="Helvetica,sans-Serif" font-size="11.00" fill="#000000">&lt; 2</text>
<polygon fill="#ffffff" stroke="transparent" points="490.5,-194.2 490.5,-213.2 539.5,-213.2 539.5,-194.2 490.5,-194.2"/>
<polygon fill="none" stroke="#000000" points="490.5,-194.2 490.5,-213.2 539.5,-213.2 539.5,-194.2 490.5,-194.2"/>
<text text-anchor="start" x="504.1105" y="-200.3" font-family="Helvetica,sans-Serif" font-size="11.00" fill="#000000">0 rows</text>
<polygon fill="#ffffff" stroke="transparent" points="539.5,-194.2 539.5,-213.2 571.5,-213.2 571.5,-194.2 539.5,-194.2"/>
<polygon fill="none" stroke="#000000" points="539.5,-194.2 539.5,-213.2 571.5,-213.2 571.5,-194.2 539.5,-194.2"/>
<text text-anchor="start" x="552.9053" y="-200.3" font-family="Helvetica,sans-Serif" font-size="11.00" fill="#000000">2 &gt;</text>
</a>
</g>
</g>
<!-- organizaciones -->
<g id="node2" class="node">
<title>organizaciones</title>
<g id="a_node2"><a xlink:href="../../tables/organizaciones.html" xlink:title="organizaciones" target="_top">
<polygon fill="#ffffff" stroke="transparent" points="180,-38.2 180,-260.2 399,-260.2 399,-38.2 180,-38.2"/>
<polygon fill="#f5f5f5" stroke="transparent" points="182.5,-235.2 182.5,-258.2 397.5,-258.2 397.5,-235.2 182.5,-235.2"/>
<polygon fill="none" stroke="#000000" points="182.5,-235.2 182.5,-258.2 397.5,-258.2 397.5,-235.2 182.5,-235.2"/>
<text text-anchor="start" x="187.5" y="-244.3" font-family="Helvetica,sans-Serif" font-weight="bold" font-size="11.00" fill="#000000">organizaciones</text>
<text text-anchor="start" x="362.5437" y="-243.3" font-family="Helvetica,sans-Serif" font-size="11.00" fill="#000000">[table]</text>
<polygon fill="none" stroke="#000000" points="182.5,-213.2 182.5,-235.2 305.5,-235.2 305.5,-213.2 182.5,-213.2"/>
<image xlink:href="../../images/primaryKeys.png" width="11px" height="12px" preserveAspectRatio="xMinYMin meet" x="187.5" y="-230.2"/>
<text text-anchor="start" x="202.5" y="-220.3" font-family="Helvetica,sans-Serif" font-size="11.00" fill="#000000">organizacion_id</text>
<polygon fill="none" stroke="#000000" points="305.5,-213.2 305.5,-235.2 397.5,-235.2 397.5,-213.2 305.5,-213.2"/>
<text text-anchor="start" x="308.5" y="-220.9" font-family="Helvetica,sans-Serif" font-size="11.00" fill="#000000">serial[10]</text>
<polygon fill="none" stroke="#000000" points="182.5,-191.2 182.5,-213.2 305.5,-213.2 305.5,-191.2 182.5,-191.2"/>
<image xlink:href="../../images/foreignKeys.png" width="11px" height="12px" preserveAspectRatio="xMinYMin meet" x="187.5" y="-208.2"/>
<text text-anchor="start" x="202.5" y="-198.3" font-family="Helvetica,sans-Serif" font-size="11.00" fill="#000000">persona_id</text>
<polygon fill="none" stroke="#000000" points="305.5,-191.2 305.5,-213.2 397.5,-213.2 397.5,-191.2 305.5,-191.2"/>
<text text-anchor="start" x="308.5" y="-198.9" font-family="Helvetica,sans-Serif" font-size="11.00" fill="#000000">int4[10]</text>
<polygon fill="none" stroke="#000000" points="182.5,-169.2 182.5,-191.2 305.5,-191.2 305.5,-169.2 182.5,-169.2"/>
<text text-anchor="start" x="202.5" y="-176.3" font-family="Helvetica,sans-Serif" font-size="11.00" fill="#000000">descripcion</text>
<polygon fill="none" stroke="#000000" points="305.5,-169.2 305.5,-191.2 397.5,-191.2 397.5,-169.2 305.5,-169.2"/>
<text text-anchor="start" x="308.5" y="-176.9" font-family="Helvetica,sans-Serif" font-size="11.00" fill="#000000">text[2147483647]</text>
<polygon fill="none" stroke="#000000" points="182.5,-147.2 182.5,-169.2 305.5,-169.2 305.5,-147.2 182.5,-147.2"/>
<text text-anchor="start" x="202.5" y="-154.3" font-family="Helvetica,sans-Serif" font-size="11.00" fill="#000000">website</text>
<polygon fill="none" stroke="#000000" points="305.5,-147.2 305.5,-169.2 397.5,-169.2 397.5,-147.2 305.5,-147.2"/>
<text text-anchor="start" x="308.5" y="-154.9" font-family="Helvetica,sans-Serif" font-size="11.00" fill="#000000">varchar[255]</text>
<polygon fill="none" stroke="#000000" points="182.5,-125.2 182.5,-147.2 305.5,-147.2 305.5,-125.2 182.5,-125.2"/>
<text text-anchor="start" x="202.5" y="-132.3" font-family="Helvetica,sans-Serif" font-size="11.00" fill="#000000">usu_insercion</text>
<polygon fill="none" stroke="#000000" points="305.5,-125.2 305.5,-147.2 397.5,-147.2 397.5,-125.2 305.5,-125.2"/>
<text text-anchor="start" x="308.5" y="-132.9" font-family="Helvetica,sans-Serif" font-size="11.00" fill="#000000">varchar[20]</text>
<polygon fill="none" stroke="#000000" points="182.5,-103.2 182.5,-125.2 305.5,-125.2 305.5,-103.2 182.5,-103.2"/>
<text text-anchor="start" x="202.5" y="-110.3" font-family="Helvetica,sans-Serif" font-size="11.00" fill="#000000">fec_insercion</text>
<polygon fill="none" stroke="#000000" points="305.5,-103.2 305.5,-125.2 397.5,-125.2 397.5,-103.2 305.5,-103.2"/>
<text text-anchor="start" x="308.1023" y="-110.9" font-family="Helvetica,sans-Serif" font-size="11.00" fill="#000000">timestamptz[35,6]</text>
<polygon fill="none" stroke="#000000" points="182.5,-81.2 182.5,-103.2 305.5,-103.2 305.5,-81.2 182.5,-81.2"/>
<text text-anchor="start" x="202.5" y="-88.3" font-family="Helvetica,sans-Serif" font-size="11.00" fill="#000000">fec_modificacion</text>
<polygon fill="none" stroke="#000000" points="305.5,-81.2 305.5,-103.2 397.5,-103.2 397.5,-81.2 305.5,-81.2"/>
<text text-anchor="start" x="308.1023" y="-88.9" font-family="Helvetica,sans-Serif" font-size="11.00" fill="#000000">timestamptz[35,6]</text>
<polygon fill="none" stroke="#000000" points="182.5,-59.2 182.5,-81.2 305.5,-81.2 305.5,-59.2 182.5,-59.2"/>
<text text-anchor="start" x="202.5" y="-66.3" font-family="Helvetica,sans-Serif" font-size="11.00" fill="#000000">usu_modificacion</text>
<polygon fill="none" stroke="#000000" points="305.5,-59.2 305.5,-81.2 397.5,-81.2 397.5,-59.2 305.5,-59.2"/>
<text text-anchor="start" x="308.5" y="-66.9" font-family="Helvetica,sans-Serif" font-size="11.00" fill="#000000">varchar[20]</text>
<polygon fill="#ffffff" stroke="transparent" points="182.5,-40.2 182.5,-59.2 235.5,-59.2 235.5,-40.2 182.5,-40.2"/>
<polygon fill="none" stroke="#000000" points="182.5,-40.2 182.5,-59.2 235.5,-59.2 235.5,-40.2 182.5,-40.2"/>
<text text-anchor="start" x="185.5" y="-46.3" font-family="Helvetica,sans-Serif" font-size="11.00" fill="#000000">&lt; 1</text>
<polygon fill="#ffffff" stroke="transparent" points="235.5,-40.2 235.5,-59.2 305.5,-59.2 305.5,-40.2 235.5,-40.2"/>
<polygon fill="none" stroke="#000000" points="235.5,-40.2 235.5,-59.2 305.5,-59.2 305.5,-40.2 235.5,-40.2"/>
<text text-anchor="start" x="270.1105" y="-46.3" font-family="Helvetica,sans-Serif" font-size="11.00" fill="#000000">0 rows</text>
<polygon fill="#ffffff" stroke="transparent" points="305.5,-40.2 305.5,-59.2 397.5,-59.2 397.5,-40.2 305.5,-40.2"/>
<polygon fill="none" stroke="#000000" points="305.5,-40.2 305.5,-59.2 397.5,-59.2 397.5,-40.2 305.5,-40.2"/>
<text text-anchor="start" x="378.9053" y="-46.3" font-family="Helvetica,sans-Serif" font-size="11.00" fill="#000000">1 &gt;</text>
<polygon fill="none" stroke="#000000" stroke-width="2" points="181,-39.2 181,-259.2 398,-259.2 398,-39.2 181,-39.2"/>
</a>
</g>
</g>
<!-- contactos&#45;&gt;organizaciones -->
<g id="edge1" class="edge">
<title>contactos:w&#45;&gt;organizaciones:e</title>
<path fill="none" stroke="#000000" d="M434.1076,-240.3965C421.7761,-235.1113 415.8304,-224.2 397.5,-224.2"/>
<polygon fill="#000000" stroke="#000000" points="440.6476,-241.6704 447.8117,-246.7336 444.5738,-242.4352 448.5,-243.2 448.5,-243.2 448.5,-243.2 444.5738,-242.4352 449.1883,-239.6664 440.6476,-241.6704 440.6476,-241.6704"/>
<ellipse fill="none" stroke="#000000" cx="437.5066" cy="-241.0585" rx="3.2" ry="3.2"/>
</g>
<!-- personas -->
<g id="node3" class="node">
<title>personas</title>
<g id="a_node3"><a xlink:href="../../tables/personas.html" xlink:title="personas" target="_top">
<polygon fill="#ffffff" stroke="transparent" points="8,-369.7 8,-452.7 131,-452.7 131,-369.7 8,-369.7"/>
<polygon fill="#f5f5f5" stroke="transparent" points="8.5,-429.2 8.5,-452.2 131.5,-452.2 131.5,-429.2 8.5,-429.2"/>
<polygon fill="none" stroke="#000000" points="8.5,-429.2 8.5,-452.2 131.5,-452.2 131.5,-429.2 8.5,-429.2"/>
<text text-anchor="start" x="13.5" y="-438.3" font-family="Helvetica,sans-Serif" font-weight="bold" font-size="11.00" fill="#000000">personas</text>
<text text-anchor="start" x="96.5437" y="-437.3" font-family="Helvetica,sans-Serif" font-size="11.00" fill="#000000">[table]</text>
<polygon fill="none" stroke="#000000" points="8.5,-407.2 8.5,-429.2 131.5,-429.2 131.5,-407.2 8.5,-407.2"/>
<image xlink:href="../../images/primaryKeys.png" width="11px" height="12px" preserveAspectRatio="xMinYMin meet" x="13.5" y="-424.2"/>
<text text-anchor="start" x="28.5" y="-414.3" font-family="Helvetica,sans-Serif" font-size="11.00" fill="#000000">persona_id</text>
<polygon fill="none" stroke="#000000" points="8.5,-388.2 8.5,-407.2 131.5,-407.2 131.5,-388.2 8.5,-388.2"/>
<text text-anchor="start" x="11.5" y="-394.3" font-family="Helvetica,sans-Serif" font-size="11.00" fill="#000000">...</text>
<polygon fill="#ffffff" stroke="transparent" points="8.5,-369.2 8.5,-388.2 46.5,-388.2 46.5,-369.2 8.5,-369.2"/>
<polygon fill="none" stroke="#000000" points="8.5,-369.2 8.5,-388.2 46.5,-388.2 46.5,-369.2 8.5,-369.2"/>
<text text-anchor="start" x="11.5" y="-375.3" font-family="Helvetica,sans-Serif" font-size="11.00" fill="#000000"> &#160;</text>
<polygon fill="#ffffff" stroke="transparent" points="46.5,-369.2 46.5,-388.2 97.5,-388.2 97.5,-369.2 46.5,-369.2"/>
<polygon fill="none" stroke="#000000" points="46.5,-369.2 46.5,-388.2 97.5,-388.2 97.5,-369.2 46.5,-369.2"/>
<text text-anchor="start" x="62.1105" y="-375.3" font-family="Helvetica,sans-Serif" font-size="11.00" fill="#000000">0 rows</text>
<polygon fill="#ffffff" stroke="transparent" points="97.5,-369.2 97.5,-388.2 131.5,-388.2 131.5,-369.2 97.5,-369.2"/>
<polygon fill="none" stroke="#000000" points="97.5,-369.2 97.5,-388.2 131.5,-388.2 131.5,-369.2 97.5,-369.2"/>
<text text-anchor="start" x="112.9053" y="-375.3" font-family="Helvetica,sans-Serif" font-size="11.00" fill="#000000">7 &gt;</text>
</a>
</g>
</g>
<!-- contactos&#45;&gt;personas -->
<g id="edge2" class="edge">
<title>contactos:w&#45;&gt;personas:e</title>
<path fill="none" stroke="#000000" d="M434.0473,-266.1509C425.6098,-267.3844 419.5616,-269.5707 407,-271.2 354.8709,-277.9616 212.8788,-265.1533 172,-298.2 128.2258,-333.5874 187.7889,-418.2 131.5,-418.2"/>
<polygon fill="#000000" stroke="#000000" points="440.5173,-265.7253 448.7364,-268.7922 444.5086,-265.4626 448.5,-265.2 448.5,-265.2 448.5,-265.2 444.5086,-265.4626 448.2636,-261.6078 440.5173,-265.7253 440.5173,-265.7253"/>
<ellipse fill="none" stroke="#000000" cx="437.3242" cy="-265.9354" rx="3.2" ry="3.2"/>
</g>
<!-- organizaciones&#45;&gt;personas -->
<g id="edge9" class="edge">
<title>organizaciones:w&#45;&gt;personas:e</title>
<path fill="none" stroke="#000000" d="M168.0072,-204.2004C99.6453,-225.9758 224.5526,-418.2 131.5,-418.2"/>
<polygon fill="#000000" stroke="#000000" points="174.5751,-203.2939 182.9922,-205.7662 178.5376,-202.7469 182.5,-202.2 182.5,-202.2 182.5,-202.2 178.5376,-202.7469 182.0078,-198.6338 174.5751,-203.2939 174.5751,-203.2939"/>
<ellipse fill="none" stroke="#000000" cx="171.4052" cy="-203.7314" rx="3.2" ry="3.2"/>
</g>
<!-- direcciones -->
<g id="node4" class="node">
<title>direcciones</title>
<g id="a_node4"><a xlink:href="../../tables/direcciones.html" xlink:title="direcciones" target="_top">
<polygon fill="#ffffff" stroke="transparent" points="240.5,-636.7 240.5,-697.7 338.5,-697.7 338.5,-636.7 240.5,-636.7"/>
<polygon fill="#f5f5f5" stroke="transparent" points="240.5,-674.2 240.5,-697.2 338.5,-697.2 338.5,-674.2 240.5,-674.2"/>
<polygon fill="none" stroke="#000000" points="240.5,-674.2 240.5,-697.2 338.5,-697.2 338.5,-674.2 240.5,-674.2"/>
<text text-anchor="start" x="245.1909" y="-683.3" font-family="Helvetica,sans-Serif" font-weight="bold" font-size="11.00" fill="#000000">direcciones</text>
<text text-anchor="start" x="304.0219" y="-682.3" font-family="Helvetica,sans-Serif" font-size="11.00" fill="#000000">[table]</text>
<polygon fill="none" stroke="#000000" points="240.5,-655.2 240.5,-674.2 338.5,-674.2 338.5,-655.2 240.5,-655.2"/>
<text text-anchor="start" x="243.5" y="-661.3" font-family="Helvetica,sans-Serif" font-size="11.00" fill="#000000">...</text>
<polygon fill="#ffffff" stroke="transparent" points="240.5,-636.2 240.5,-655.2 274.5,-655.2 274.5,-636.2 240.5,-636.2"/>
<polygon fill="none" stroke="#000000" points="240.5,-636.2 240.5,-655.2 274.5,-655.2 274.5,-636.2 240.5,-636.2"/>
<text text-anchor="start" x="243.5" y="-642.3" font-family="Helvetica,sans-Serif" font-size="11.00" fill="#000000">&lt; 3</text>
<polygon fill="#ffffff" stroke="transparent" points="274.5,-636.2 274.5,-655.2 319.5,-655.2 319.5,-636.2 274.5,-636.2"/>
<polygon fill="none" stroke="#000000" points="274.5,-636.2 274.5,-655.2 319.5,-655.2 319.5,-636.2 274.5,-636.2"/>
<text text-anchor="start" x="284.1105" y="-642.3" font-family="Helvetica,sans-Serif" font-size="11.00" fill="#000000">0 rows</text>
<polygon fill="#ffffff" stroke="transparent" points="319.5,-636.2 319.5,-655.2 338.5,-655.2 338.5,-636.2 319.5,-636.2"/>
<polygon fill="none" stroke="#000000" points="319.5,-636.2 319.5,-655.2 338.5,-655.2 338.5,-636.2 319.5,-636.2"/>
<text text-anchor="start" x="329.3862" y="-642.3" font-family="Helvetica,sans-Serif" font-size="11.00" fill="#000000"> &#160;</text>
</a>
</g>
</g>
<!-- direcciones&#45;&gt;personas -->
<g id="edge3" class="edge">
<title>direcciones:w&#45;&gt;personas:e</title>
<path fill="none" stroke="#000000" d="M225.9899,-663.4853C201.4884,-660.7783 189.3462,-650.0753 172,-626.2 116.6426,-550.006 225.6805,-418.2 131.5,-418.2"/>
<polygon fill="#000000" stroke="#000000" points="232.5097,-663.8064 240.3229,-667.7956 236.5048,-664.0032 240.5,-664.2 240.5,-664.2 240.5,-664.2 236.5048,-664.0032 240.6771,-660.6044 232.5097,-663.8064 232.5097,-663.8064"/>
<ellipse fill="none" stroke="#000000" cx="229.3136" cy="-663.6489" rx="3.2" ry="3.2"/>
</g>
<!-- empleados -->
<g id="node5" class="node">
<title>empleados</title>
<g id="a_node5"><a xlink:href="../../tables/empleados.html" xlink:title="empleados" target="_top">
<polygon fill="#ffffff" stroke="transparent" points="241.5,-554.7 241.5,-615.7 337.5,-615.7 337.5,-554.7 241.5,-554.7"/>
<polygon fill="#f5f5f5" stroke="transparent" points="241.5,-592.2 241.5,-615.2 337.5,-615.2 337.5,-592.2 241.5,-592.2"/>
<polygon fill="none" stroke="#000000" points="241.5,-592.2 241.5,-615.2 337.5,-615.2 337.5,-592.2 241.5,-592.2"/>
<text text-anchor="start" x="246.1039" y="-601.3" font-family="Helvetica,sans-Serif" font-weight="bold" font-size="11.00" fill="#000000">empleados</text>
<text text-anchor="start" x="303.0219" y="-600.3" font-family="Helvetica,sans-Serif" font-size="11.00" fill="#000000">[table]</text>
<polygon fill="none" stroke="#000000" points="241.5,-573.2 241.5,-592.2 337.5,-592.2 337.5,-573.2 241.5,-573.2"/>
<text text-anchor="start" x="244.5" y="-579.3" font-family="Helvetica,sans-Serif" font-size="11.00" fill="#000000">...</text>
<polygon fill="#ffffff" stroke="transparent" points="241.5,-554.2 241.5,-573.2 274.5,-573.2 274.5,-554.2 241.5,-554.2"/>
<polygon fill="none" stroke="#000000" points="241.5,-554.2 241.5,-573.2 274.5,-573.2 274.5,-554.2 241.5,-554.2"/>
<text text-anchor="start" x="244.5" y="-560.3" font-family="Helvetica,sans-Serif" font-size="11.00" fill="#000000">&lt; 2</text>
<polygon fill="#ffffff" stroke="transparent" points="274.5,-554.2 274.5,-573.2 318.5,-573.2 318.5,-554.2 274.5,-554.2"/>
<polygon fill="none" stroke="#000000" points="274.5,-554.2 274.5,-573.2 318.5,-573.2 318.5,-554.2 274.5,-554.2"/>
<text text-anchor="start" x="283.1105" y="-560.3" font-family="Helvetica,sans-Serif" font-size="11.00" fill="#000000">0 rows</text>
<polygon fill="#ffffff" stroke="transparent" points="318.5,-554.2 318.5,-573.2 337.5,-573.2 337.5,-554.2 318.5,-554.2"/>
<polygon fill="none" stroke="#000000" points="318.5,-554.2 318.5,-573.2 337.5,-573.2 337.5,-554.2 318.5,-554.2"/>
<text text-anchor="start" x="328.3862" y="-560.3" font-family="Helvetica,sans-Serif" font-size="11.00" fill="#000000"> &#160;</text>
</a>
</g>
</g>
<!-- empleados&#45;&gt;personas -->
<g id="edge4" class="edge">
<title>empleados:w&#45;&gt;personas:e</title>
<path fill="none" stroke="#000000" d="M226.9155,-581.4244C202.4347,-578.512 191.0117,-567.2013 172,-544.2 134.5251,-498.8609 190.3218,-418.2 131.5,-418.2"/>
<polygon fill="#000000" stroke="#000000" points="233.5113,-581.7751 241.3088,-585.7949 237.5056,-581.9876 241.5,-582.2 241.5,-582.2 241.5,-582.2 237.5056,-581.9876 241.6912,-578.6051 233.5113,-581.7751 233.5113,-581.7751"/>
<ellipse fill="none" stroke="#000000" cx="230.3158" cy="-581.6052" rx="3.2" ry="3.2"/>
</g>
<!-- encuesta_respuestas -->
<g id="node6" class="node">
<title>encuesta_respuestas</title>
<g id="a_node6"><a xlink:href="../../tables/encuesta_respuestas.html" xlink:title="encuesta_respuestas" target="_top">
<polygon fill="#ffffff" stroke="transparent" points="781,-259.7 781,-320.7 928,-320.7 928,-259.7 781,-259.7"/>
<polygon fill="#f5f5f5" stroke="transparent" points="781.5,-297.2 781.5,-320.2 928.5,-320.2 928.5,-297.2 781.5,-297.2"/>
<polygon fill="none" stroke="#000000" points="781.5,-297.2 781.5,-320.2 928.5,-320.2 928.5,-297.2 781.5,-297.2"/>
<text text-anchor="start" x="786.2302" y="-306.3" font-family="Helvetica,sans-Serif" font-weight="bold" font-size="11.00" fill="#000000">encuesta_respuestas</text>
<text text-anchor="start" x="894.0219" y="-305.3" font-family="Helvetica,sans-Serif" font-size="11.00" fill="#000000">[table]</text>
<polygon fill="none" stroke="#000000" points="781.5,-278.2 781.5,-297.2 928.5,-297.2 928.5,-278.2 781.5,-278.2"/>
<text text-anchor="start" x="784.5" y="-284.3" font-family="Helvetica,sans-Serif" font-size="11.00" fill="#000000">...</text>
<polygon fill="#ffffff" stroke="transparent" points="781.5,-259.2 781.5,-278.2 835.5,-278.2 835.5,-259.2 781.5,-259.2"/>
<polygon fill="none" stroke="#000000" points="781.5,-259.2 781.5,-278.2 835.5,-278.2 835.5,-259.2 781.5,-259.2"/>
<text text-anchor="start" x="784.5" y="-265.3" font-family="Helvetica,sans-Serif" font-size="11.00" fill="#000000">&lt; 2</text>
<polygon fill="#ffffff" stroke="transparent" points="835.5,-259.2 835.5,-278.2 890.5,-278.2 890.5,-259.2 835.5,-259.2"/>
<polygon fill="none" stroke="#000000" points="835.5,-259.2 835.5,-278.2 890.5,-278.2 890.5,-259.2 835.5,-259.2"/>
<text text-anchor="start" x="855.1105" y="-265.3" font-family="Helvetica,sans-Serif" font-size="11.00" fill="#000000">0 rows</text>
<polygon fill="#ffffff" stroke="transparent" points="890.5,-259.2 890.5,-278.2 928.5,-278.2 928.5,-259.2 890.5,-259.2"/>
<polygon fill="none" stroke="#000000" points="890.5,-259.2 890.5,-278.2 928.5,-278.2 928.5,-259.2 890.5,-259.2"/>
<text text-anchor="start" x="909.9053" y="-265.3" font-family="Helvetica,sans-Serif" font-size="11.00" fill="#000000">1 &gt;</text>
</a>
</g>
</g>
<!-- encuesta_respuestas&#45;&gt;contactos -->
<g id="edge5" class="edge">
<title>encuesta_respuestas:w&#45;&gt;contactos:e</title>
<path fill="none" stroke="#000000" d="M767.0752,-289.9974C758.6461,-293.6561 753.2812,-299.8734 740,-302.2 683.9644,-312.0162 667.9965,-312.2366 612,-302.2 593.1062,-298.8135 590.6949,-287.2 571.5,-287.2"/>
<polygon fill="#000000" stroke="#000000" points="773.6463,-288.7231 782.1854,-290.7342 777.5732,-287.9616 781.5,-287.2 781.5,-287.2 781.5,-287.2 777.5732,-287.9616 780.8146,-283.6658 773.6463,-288.7231 773.6463,-288.7231"/>
<ellipse fill="none" stroke="#000000" cx="770.5048" cy="-289.3323" rx="3.2" ry="3.2"/>
</g>
<!-- oportunidades -->
<g id="node7" class="node">
<title>oportunidades</title>
<g id="a_node7"><a xlink:href="../../tables/oportunidades.html" xlink:title="oportunidades" target="_top">
<polygon fill="#ffffff" stroke="transparent" points="620,-230.7 620,-291.7 732,-291.7 732,-230.7 620,-230.7"/>
<polygon fill="#f5f5f5" stroke="transparent" points="620,-268.2 620,-291.2 732,-291.2 732,-268.2 620,-268.2"/>
<polygon fill="none" stroke="#000000" points="620,-268.2 620,-291.2 732,-291.2 732,-268.2 620,-268.2"/>
<text text-anchor="start" x="624.6531" y="-277.3" font-family="Helvetica,sans-Serif" font-weight="bold" font-size="11.00" fill="#000000">oportunidades</text>
<text text-anchor="start" x="697.5219" y="-276.3" font-family="Helvetica,sans-Serif" font-size="11.00" fill="#000000">[table]</text>
<polygon fill="none" stroke="#000000" points="620,-249.2 620,-268.2 732,-268.2 732,-249.2 620,-249.2"/>
<text text-anchor="start" x="623" y="-255.3" font-family="Helvetica,sans-Serif" font-size="11.00" fill="#000000">...</text>
<polygon fill="#ffffff" stroke="transparent" points="620,-230.2 620,-249.2 657,-249.2 657,-230.2 620,-230.2"/>
<polygon fill="none" stroke="#000000" points="620,-230.2 620,-249.2 657,-249.2 657,-230.2 620,-230.2"/>
<text text-anchor="start" x="623" y="-236.3" font-family="Helvetica,sans-Serif" font-size="11.00" fill="#000000">&lt; 4</text>
<polygon fill="#ffffff" stroke="transparent" points="657,-230.2 657,-249.2 703,-249.2 703,-230.2 657,-230.2"/>
<polygon fill="none" stroke="#000000" points="657,-230.2 657,-249.2 703,-249.2 703,-230.2 657,-230.2"/>
<text text-anchor="start" x="667.6105" y="-236.3" font-family="Helvetica,sans-Serif" font-size="11.00" fill="#000000">0 rows</text>
<polygon fill="#ffffff" stroke="transparent" points="703,-230.2 703,-249.2 732,-249.2 732,-230.2 703,-230.2"/>
<polygon fill="none" stroke="#000000" points="703,-230.2 703,-249.2 732,-249.2 732,-230.2 703,-230.2"/>
<text text-anchor="start" x="713.4053" y="-236.3" font-family="Helvetica,sans-Serif" font-size="11.00" fill="#000000">1 &gt;</text>
</a>
</g>
</g>
<!-- encuesta_respuestas&#45;&gt;oportunidades -->
<g id="edge6" class="edge">
<title>encuesta_respuestas:w&#45;&gt;oportunidades:e</title>
<path fill="none" stroke="#000000" d="M767.3253,-283.1677C755.2205,-275.1993 751.5215,-258.2 732,-258.2"/>
<polygon fill="#000000" stroke="#000000" points="773.8053,-285.011 780.515,-290.6626 777.6526,-286.1055 781.5,-287.2 781.5,-287.2 781.5,-287.2 777.6526,-286.1055 782.485,-283.7374 773.8053,-285.011 773.8053,-285.011"/>
<ellipse fill="none" stroke="#000000" cx="770.7274" cy="-284.1354" rx="3.2" ry="3.2"/>
</g>
<!-- oportunidades&#45;&gt;contactos -->
<g id="edge8" class="edge">
<title>oportunidades:w&#45;&gt;contactos:e</title>
<path fill="none" stroke="#000000" d="M606.0737,-262.2323C594.2213,-270.2007 590.7287,-287.2 571.5,-287.2"/>
<polygon fill="#000000" stroke="#000000" points="612.3156,-260.425 621.0013,-261.658 616.1578,-259.3125 620,-258.2 620,-258.2 620,-258.2 616.1578,-259.3125 618.9987,-254.742 612.3156,-260.425 612.3156,-260.425"/>
<ellipse fill="none" stroke="#000000" cx="609.2419" cy="-261.315" rx="3.2" ry="3.2"/>
</g>
<!-- leads -->
<g id="node8" class="node">
<title>leads</title>
<g id="a_node8"><a xlink:href="../../tables/leads.html" xlink:title="leads" target="_top">
<polygon fill="#ffffff" stroke="transparent" points="254,-472.7 254,-533.7 325,-533.7 325,-472.7 254,-472.7"/>
<polygon fill="#f5f5f5" stroke="transparent" points="254.5,-510.2 254.5,-533.2 325.5,-533.2 325.5,-510.2 254.5,-510.2"/>
<polygon fill="none" stroke="#000000" points="254.5,-510.2 254.5,-533.2 325.5,-533.2 325.5,-510.2 254.5,-510.2"/>
<text text-anchor="start" x="259.5" y="-519.3" font-family="Helvetica,sans-Serif" font-weight="bold" font-size="11.00" fill="#000000">leads</text>
<text text-anchor="start" x="290.5437" y="-518.3" font-family="Helvetica,sans-Serif" font-size="11.00" fill="#000000">[table]</text>
<polygon fill="none" stroke="#000000" points="254.5,-491.2 254.5,-510.2 325.5,-510.2 325.5,-491.2 254.5,-491.2"/>
<text text-anchor="start" x="257.5" y="-497.3" font-family="Helvetica,sans-Serif" font-size="11.00" fill="#000000">...</text>
<polygon fill="#ffffff" stroke="transparent" points="254.5,-472.2 254.5,-491.2 275.5,-491.2 275.5,-472.2 254.5,-472.2"/>
<polygon fill="none" stroke="#000000" points="254.5,-472.2 254.5,-491.2 275.5,-491.2 275.5,-472.2 254.5,-472.2"/>
<text text-anchor="start" x="257.2027" y="-478.3" font-family="Helvetica,sans-Serif" font-size="11.00" fill="#000000">&lt; 4</text>
<polygon fill="#ffffff" stroke="transparent" points="275.5,-472.2 275.5,-491.2 313.5,-491.2 313.5,-472.2 275.5,-472.2"/>
<polygon fill="none" stroke="#000000" points="275.5,-472.2 275.5,-491.2 313.5,-491.2 313.5,-472.2 275.5,-472.2"/>
<text text-anchor="start" x="278.3053" y="-478.3" font-family="Helvetica,sans-Serif" font-size="11.00" fill="#000000">0 rows</text>
<polygon fill="#ffffff" stroke="transparent" points="313.5,-472.2 313.5,-491.2 325.5,-491.2 325.5,-472.2 313.5,-472.2"/>
<polygon fill="none" stroke="#000000" points="313.5,-472.2 313.5,-491.2 325.5,-491.2 325.5,-472.2 313.5,-472.2"/>
<text text-anchor="start" x="316.4431" y="-478.3" font-family="Helvetica,sans-Serif" font-size="11.00" fill="#000000"> &#160;</text>
</a>
</g>
</g>
<!-- leads&#45;&gt;personas -->
<g id="edge7" class="edge">
<title>leads:w&#45;&gt;personas:e</title>
<path fill="none" stroke="#000000" d="M239.9227,-499.4574C211.201,-496.2491 200.3034,-482.8025 172,-462.2 150.5115,-446.5582 158.0786,-418.2 131.5,-418.2"/>
<polygon fill="#000000" stroke="#000000" points="246.5104,-499.7929 254.3168,-503.7953 250.5052,-499.9965 254.5,-500.2 254.5,-500.2 254.5,-500.2 250.5052,-499.9965 254.6832,-496.6047 246.5104,-499.7929 246.5104,-499.7929"/>
<ellipse fill="none" stroke="#000000" cx="243.3145" cy="-499.6301" rx="3.2" ry="3.2"/>
</g>
<!-- profesores -->
<g id="node9" class="node">
<title>profesores</title>
<g id="a_node9"><a xlink:href="../../tables/profesores.html" xlink:title="profesores" target="_top">
<polygon fill="#ffffff" stroke="transparent" points="242.5,-390.7 242.5,-451.7 336.5,-451.7 336.5,-390.7 242.5,-390.7"/>
<polygon fill="#f5f5f5" stroke="transparent" points="242.5,-428.2 242.5,-451.2 336.5,-451.2 336.5,-428.2 242.5,-428.2"/>
<polygon fill="none" stroke="#000000" points="242.5,-428.2 242.5,-451.2 336.5,-451.2 336.5,-428.2 242.5,-428.2"/>
<text text-anchor="start" x="247.0224" y="-437.3" font-family="Helvetica,sans-Serif" font-weight="bold" font-size="11.00" fill="#000000">profesores</text>
<text text-anchor="start" x="302.0219" y="-436.3" font-family="Helvetica,sans-Serif" font-size="11.00" fill="#000000">[table]</text>
<polygon fill="none" stroke="#000000" points="242.5,-409.2 242.5,-428.2 336.5,-428.2 336.5,-409.2 242.5,-409.2"/>
<text text-anchor="start" x="245.5" y="-415.3" font-family="Helvetica,sans-Serif" font-size="11.00" fill="#000000">...</text>
<polygon fill="#ffffff" stroke="transparent" points="242.5,-390.2 242.5,-409.2 270.5,-409.2 270.5,-390.2 242.5,-390.2"/>
<polygon fill="none" stroke="#000000" points="242.5,-390.2 242.5,-409.2 270.5,-409.2 270.5,-390.2 242.5,-390.2"/>
<text text-anchor="start" x="245.5" y="-396.3" font-family="Helvetica,sans-Serif" font-size="11.00" fill="#000000">&lt; 1</text>
<polygon fill="#ffffff" stroke="transparent" points="270.5,-390.2 270.5,-409.2 311.5,-409.2 311.5,-390.2 270.5,-390.2"/>
<polygon fill="none" stroke="#000000" points="270.5,-390.2 270.5,-409.2 311.5,-409.2 311.5,-390.2 270.5,-390.2"/>
<text text-anchor="start" x="276.1105" y="-396.3" font-family="Helvetica,sans-Serif" font-size="11.00" fill="#000000">0 rows</text>
<polygon fill="#ffffff" stroke="transparent" points="311.5,-390.2 311.5,-409.2 336.5,-409.2 336.5,-390.2 311.5,-390.2"/>
<polygon fill="none" stroke="#000000" points="311.5,-390.2 311.5,-409.2 336.5,-409.2 336.5,-390.2 311.5,-390.2"/>
<text text-anchor="start" x="317.9053" y="-396.3" font-family="Helvetica,sans-Serif" font-size="11.00" fill="#000000">1 &gt;</text>
</a>
</g>
</g>
<!-- profesores&#45;&gt;personas -->
<g id="edge10" class="edge">
<title>profesores:w&#45;&gt;personas:e</title>
<path fill="none" stroke="#000000" d="M228.0385,-418.2C190.1535,-418.2 175.6302,-418.2 131.5,-418.2"/>
<polygon fill="#000000" stroke="#000000" points="234.5,-418.2001 242.5,-421.8 238.5,-418.2 242.5,-418.2 242.5,-418.2 242.5,-418.2 238.5,-418.2 242.5,-414.6 234.5,-418.2001 234.5,-418.2001"/>
<ellipse fill="none" stroke="#000000" cx="231.3" cy="-418.2001" rx="3.2" ry="3.2"/>
</g>
<!-- telefonos -->
<g id="node10" class="node">
<title>telefonos</title>
<g id="a_node10"><a xlink:href="../../tables/telefonos.html" xlink:title="telefonos" target="_top">
<polygon fill="#ffffff" stroke="transparent" points="246,-308.7 246,-369.7 333,-369.7 333,-308.7 246,-308.7"/>
<polygon fill="#f5f5f5" stroke="transparent" points="246.5,-346.2 246.5,-369.2 333.5,-369.2 333.5,-346.2 246.5,-346.2"/>
<polygon fill="none" stroke="#000000" points="246.5,-346.2 246.5,-369.2 333.5,-369.2 333.5,-346.2 246.5,-346.2"/>
<text text-anchor="start" x="251.1854" y="-355.3" font-family="Helvetica,sans-Serif" font-weight="bold" font-size="11.00" fill="#000000">telefonos</text>
<text text-anchor="start" x="299.0219" y="-354.3" font-family="Helvetica,sans-Serif" font-size="11.00" fill="#000000">[table]</text>
<polygon fill="none" stroke="#000000" points="246.5,-327.2 246.5,-346.2 333.5,-346.2 333.5,-327.2 246.5,-327.2"/>
<text text-anchor="start" x="249.5" y="-333.3" font-family="Helvetica,sans-Serif" font-size="11.00" fill="#000000">...</text>
<polygon fill="#ffffff" stroke="transparent" points="246.5,-308.2 246.5,-327.2 275.5,-327.2 275.5,-308.2 246.5,-308.2"/>
<polygon fill="none" stroke="#000000" points="246.5,-308.2 246.5,-327.2 275.5,-327.2 275.5,-308.2 246.5,-308.2"/>
<text text-anchor="start" x="249.5" y="-314.3" font-family="Helvetica,sans-Serif" font-size="11.00" fill="#000000">&lt; 2</text>
<polygon fill="#ffffff" stroke="transparent" points="275.5,-308.2 275.5,-327.2 317.5,-327.2 317.5,-308.2 275.5,-308.2"/>
<polygon fill="none" stroke="#000000" points="275.5,-308.2 275.5,-327.2 317.5,-327.2 317.5,-308.2 275.5,-308.2"/>
<text text-anchor="start" x="282.1105" y="-314.3" font-family="Helvetica,sans-Serif" font-size="11.00" fill="#000000">0 rows</text>
<polygon fill="#ffffff" stroke="transparent" points="317.5,-308.2 317.5,-327.2 333.5,-327.2 333.5,-308.2 317.5,-308.2"/>
<polygon fill="none" stroke="#000000" points="317.5,-308.2 317.5,-327.2 333.5,-327.2 333.5,-308.2 317.5,-308.2"/>
<text text-anchor="start" x="324.3862" y="-314.3" font-family="Helvetica,sans-Serif" font-size="11.00" fill="#000000"> &#160;</text>
</a>
</g>
</g>
<!-- telefonos&#45;&gt;personas -->
<g id="edge11" class="edge">
<title>telefonos:w&#45;&gt;personas:e</title>
<path fill="none" stroke="#000000" d="M232.0818,-337.3893C206.0558,-342.128 198.4372,-360.3712 172,-380.2 152.2542,-395.01 156.1827,-418.2 131.5,-418.2"/>
<polygon fill="#000000" stroke="#000000" points="238.5271,-336.8577 246.796,-339.7878 242.5135,-336.5288 246.5,-336.2 246.5,-336.2 246.5,-336.2 242.5135,-336.5288 246.204,-332.6122 238.5271,-336.8577 238.5271,-336.8577"/>
<ellipse fill="none" stroke="#000000" cx="235.3379" cy="-337.1208" rx="3.2" ry="3.2"/>
</g>
</g>
</svg>
