<?xml version="1.0" encoding="UTF-8" standalone="no"?>
<!DOCTYPE svg PUBLIC "-//W3C//DTD SVG 1.1//EN"
 "http://www.w3.org/Graphics/SVG/1.1/DTD/svg11.dtd">
<!-- Generated by graphviz version 2.40.1 (20161225.0304)
 -->
<!-- Title: twoDegreesRelationshipsDiagram Pages: 1 -->
<svg width="562pt" height="293pt"
 viewBox="0.00 0.00 562.00 292.70" xmlns="http://www.w3.org/2000/svg" xmlns:xlink="http://www.w3.org/1999/xlink">
<g id="graph0" class="graph" transform="scale(1 1) rotate(0) translate(4 288.7)">
<title>twoDegreesRelationshipsDiagram</title>
<polygon fill="#ffffff" stroke="transparent" points="-4,4 -4,-288.7 558,-288.7 558,4 -4,4"/>
<text text-anchor="middle" x="72.4936" y="-7.3" font-family="Helvetica,sans-Serif" font-size="11.00" fill="#000000">Generated by SchemaSpy</text>
<!-- ciudades -->
<g id="node1" class="node">
<title>ciudades</title>
<g id="a_node1"><a xlink:href="../../tables/ciudades.html" xlink:title="ciudades" target="_top">
<polygon fill="#ffffff" stroke="transparent" points="276,-175.7 276,-280.7 399,-280.7 399,-175.7 276,-175.7"/>
<polygon fill="#f5f5f5" stroke="transparent" points="276.5,-257.2 276.5,-280.2 399.5,-280.2 399.5,-257.2 276.5,-257.2"/>
<polygon fill="none" stroke="#000000" points="276.5,-257.2 276.5,-280.2 399.5,-280.2 399.5,-257.2 276.5,-257.2"/>
<text text-anchor="start" x="281.5" y="-266.3" font-family="Helvetica,sans-Serif" font-weight="bold" font-size="11.00" fill="#000000">ciudades</text>
<text text-anchor="start" x="364.5437" y="-265.3" font-family="Helvetica,sans-Serif" font-size="11.00" fill="#000000">[table]</text>
<polygon fill="none" stroke="#000000" points="276.5,-235.2 276.5,-257.2 399.5,-257.2 399.5,-235.2 276.5,-235.2"/>
<image xlink:href="../../images/primaryKeys.png" width="11px" height="12px" preserveAspectRatio="xMinYMin meet" x="281.5" y="-252.2"/>
<text text-anchor="start" x="296.5" y="-242.3" font-family="Helvetica,sans-Serif" font-size="11.00" fill="#000000">ciudad_id</text>
<polygon fill="none" stroke="#000000" points="276.5,-213.2 276.5,-235.2 399.5,-235.2 399.5,-213.2 276.5,-213.2"/>
<image xlink:href="../../images/foreignKeys.png" width="11px" height="12px" preserveAspectRatio="xMinYMin meet" x="281.5" y="-230.2"/>
<text text-anchor="start" x="296.5" y="-220.3" font-family="Helvetica,sans-Serif" font-size="11.00" fill="#000000">pais_id</text>
<polygon fill="none" stroke="#000000" points="276.5,-194.2 276.5,-213.2 399.5,-213.2 399.5,-194.2 276.5,-194.2"/>
<text text-anchor="start" x="279.5" y="-200.3" font-family="Helvetica,sans-Serif" font-size="11.00" fill="#000000">...</text>
<polygon fill="#ffffff" stroke="transparent" points="276.5,-175.2 276.5,-194.2 318.5,-194.2 318.5,-175.2 276.5,-175.2"/>
<polygon fill="none" stroke="#000000" points="276.5,-175.2 276.5,-194.2 318.5,-194.2 318.5,-175.2 276.5,-175.2"/>
<text text-anchor="start" x="279.5" y="-181.3" font-family="Helvetica,sans-Serif" font-size="11.00" fill="#000000">&lt; 1</text>
<polygon fill="#ffffff" stroke="transparent" points="318.5,-175.2 318.5,-194.2 367.5,-194.2 367.5,-175.2 318.5,-175.2"/>
<polygon fill="none" stroke="#000000" points="318.5,-175.2 318.5,-194.2 367.5,-194.2 367.5,-175.2 318.5,-175.2"/>
<text text-anchor="start" x="332.1105" y="-181.3" font-family="Helvetica,sans-Serif" font-size="11.00" fill="#000000">0 rows</text>
<polygon fill="#ffffff" stroke="transparent" points="367.5,-175.2 367.5,-194.2 399.5,-194.2 399.5,-175.2 367.5,-175.2"/>
<polygon fill="none" stroke="#000000" points="367.5,-175.2 367.5,-194.2 399.5,-194.2 399.5,-175.2 367.5,-175.2"/>
<text text-anchor="start" x="380.9053" y="-181.3" font-family="Helvetica,sans-Serif" font-size="11.00" fill="#000000">1 &gt;</text>
</a>
</g>
</g>
<!-- paises -->
<g id="node2" class="node">
<title>paises</title>
<g id="a_node2"><a xlink:href="../../tables/paises.html" xlink:title="paises" target="_top">
<polygon fill="#ffffff" stroke="transparent" points="8,-38.2 8,-260.2 227,-260.2 227,-38.2 8,-38.2"/>
<polygon fill="#f5f5f5" stroke="transparent" points="10.5,-235.2 10.5,-258.2 225.5,-258.2 225.5,-235.2 10.5,-235.2"/>
<polygon fill="none" stroke="#000000" points="10.5,-235.2 10.5,-258.2 225.5,-258.2 225.5,-235.2 10.5,-235.2"/>
<text text-anchor="start" x="15.5" y="-244.3" font-family="Helvetica,sans-Serif" font-weight="bold" font-size="11.00" fill="#000000">paises</text>
<text text-anchor="start" x="190.5437" y="-243.3" font-family="Helvetica,sans-Serif" font-size="11.00" fill="#000000">[table]</text>
<polygon fill="none" stroke="#000000" points="10.5,-213.2 10.5,-235.2 133.5,-235.2 133.5,-213.2 10.5,-213.2"/>
<image xlink:href="../../images/primaryKeys.png" width="11px" height="12px" preserveAspectRatio="xMinYMin meet" x="15.5" y="-230.2"/>
<text text-anchor="start" x="30.5" y="-220.3" font-family="Helvetica,sans-Serif" font-size="11.00" fill="#000000">pais_id</text>
<polygon fill="none" stroke="#000000" points="133.5,-213.2 133.5,-235.2 225.5,-235.2 225.5,-213.2 133.5,-213.2"/>
<text text-anchor="start" x="136.5" y="-220.9" font-family="Helvetica,sans-Serif" font-size="11.00" fill="#000000">serial[10]</text>
<polygon fill="none" stroke="#000000" points="10.5,-191.2 10.5,-213.2 133.5,-213.2 133.5,-191.2 10.5,-191.2"/>
<text text-anchor="start" x="30.5" y="-198.3" font-family="Helvetica,sans-Serif" font-size="11.00" fill="#000000">nombre</text>
<polygon fill="none" stroke="#000000" points="133.5,-191.2 133.5,-213.2 225.5,-213.2 225.5,-191.2 133.5,-191.2"/>
<text text-anchor="start" x="136.5" y="-198.9" font-family="Helvetica,sans-Serif" font-size="11.00" fill="#000000">varchar[255]</text>
<polygon fill="none" stroke="#000000" points="10.5,-169.2 10.5,-191.2 133.5,-191.2 133.5,-169.2 10.5,-169.2"/>
<text text-anchor="start" x="30.5" y="-176.3" font-family="Helvetica,sans-Serif" font-size="11.00" fill="#000000">nom_corto</text>
<polygon fill="none" stroke="#000000" points="133.5,-169.2 133.5,-191.2 225.5,-191.2 225.5,-169.2 133.5,-169.2"/>
<text text-anchor="start" x="136.5" y="-176.9" font-family="Helvetica,sans-Serif" font-size="11.00" fill="#000000">varchar[10]</text>
<polygon fill="none" stroke="#000000" points="10.5,-147.2 10.5,-169.2 133.5,-169.2 133.5,-147.2 10.5,-147.2"/>
<text text-anchor="start" x="30.5" y="-154.3" font-family="Helvetica,sans-Serif" font-size="11.00" fill="#000000">cod_telefono</text>
<polygon fill="none" stroke="#000000" points="133.5,-147.2 133.5,-169.2 225.5,-169.2 225.5,-147.2 133.5,-147.2"/>
<text text-anchor="start" x="136.5" y="-154.9" font-family="Helvetica,sans-Serif" font-size="11.00" fill="#000000">varchar[10]</text>
<polygon fill="none" stroke="#000000" points="10.5,-125.2 10.5,-147.2 133.5,-147.2 133.5,-125.2 10.5,-125.2"/>
<text text-anchor="start" x="30.5" y="-132.3" font-family="Helvetica,sans-Serif" font-size="11.00" fill="#000000">usu_insercion</text>
<polygon fill="none" stroke="#000000" points="133.5,-125.2 133.5,-147.2 225.5,-147.2 225.5,-125.2 133.5,-125.2"/>
<text text-anchor="start" x="136.5" y="-132.9" font-family="Helvetica,sans-Serif" font-size="11.00" fill="#000000">varchar[20]</text>
<polygon fill="none" stroke="#000000" points="10.5,-103.2 10.5,-125.2 133.5,-125.2 133.5,-103.2 10.5,-103.2"/>
<text text-anchor="start" x="30.5" y="-110.3" font-family="Helvetica,sans-Serif" font-size="11.00" fill="#000000">fec_insercion</text>
<polygon fill="none" stroke="#000000" points="133.5,-103.2 133.5,-125.2 225.5,-125.2 225.5,-103.2 133.5,-103.2"/>
<text text-anchor="start" x="136.1023" y="-110.9" font-family="Helvetica,sans-Serif" font-size="11.00" fill="#000000">timestamptz[35,6]</text>
<polygon fill="none" stroke="#000000" points="10.5,-81.2 10.5,-103.2 133.5,-103.2 133.5,-81.2 10.5,-81.2"/>
<text text-anchor="start" x="30.5" y="-88.3" font-family="Helvetica,sans-Serif" font-size="11.00" fill="#000000">fec_modificacion</text>
<polygon fill="none" stroke="#000000" points="133.5,-81.2 133.5,-103.2 225.5,-103.2 225.5,-81.2 133.5,-81.2"/>
<text text-anchor="start" x="136.1023" y="-88.9" font-family="Helvetica,sans-Serif" font-size="11.00" fill="#000000">timestamptz[35,6]</text>
<polygon fill="none" stroke="#000000" points="10.5,-59.2 10.5,-81.2 133.5,-81.2 133.5,-59.2 10.5,-59.2"/>
<text text-anchor="start" x="30.5" y="-66.3" font-family="Helvetica,sans-Serif" font-size="11.00" fill="#000000">usu_modificacion</text>
<polygon fill="none" stroke="#000000" points="133.5,-59.2 133.5,-81.2 225.5,-81.2 225.5,-59.2 133.5,-59.2"/>
<text text-anchor="start" x="136.5" y="-66.9" font-family="Helvetica,sans-Serif" font-size="11.00" fill="#000000">varchar[20]</text>
<polygon fill="#ffffff" stroke="transparent" points="10.5,-40.2 10.5,-59.2 63.5,-59.2 63.5,-40.2 10.5,-40.2"/>
<polygon fill="none" stroke="#000000" points="10.5,-40.2 10.5,-59.2 63.5,-59.2 63.5,-40.2 10.5,-40.2"/>
<text text-anchor="start" x="13.5" y="-46.3" font-family="Helvetica,sans-Serif" font-size="11.00" fill="#000000">&lt; 0</text>
<polygon fill="#ffffff" stroke="transparent" points="63.5,-40.2 63.5,-59.2 133.5,-59.2 133.5,-40.2 63.5,-40.2"/>
<polygon fill="none" stroke="#000000" points="63.5,-40.2 63.5,-59.2 133.5,-59.2 133.5,-40.2 63.5,-40.2"/>
<text text-anchor="start" x="98.1105" y="-46.3" font-family="Helvetica,sans-Serif" font-size="11.00" fill="#000000">0 rows</text>
<polygon fill="#ffffff" stroke="transparent" points="133.5,-40.2 133.5,-59.2 225.5,-59.2 225.5,-40.2 133.5,-40.2"/>
<polygon fill="none" stroke="#000000" points="133.5,-40.2 133.5,-59.2 225.5,-59.2 225.5,-40.2 133.5,-40.2"/>
<text text-anchor="start" x="206.9053" y="-46.3" font-family="Helvetica,sans-Serif" font-size="11.00" fill="#000000">1 &gt;</text>
<polygon fill="none" stroke="#000000" stroke-width="2" points="9,-39.2 9,-259.2 226,-259.2 226,-39.2 9,-39.2"/>
</a>
</g>
</g>
<!-- ciudades&#45;&gt;paises -->
<g id="edge1" class="edge">
<title>ciudades:w&#45;&gt;paises:e</title>
<path fill="none" stroke="#000000" d="M261.776,-224.2C249.7815,-224.2 242.3229,-224.2 225.5,-224.2"/>
<polygon fill="#000000" stroke="#000000" points="268.5,-224.2001 276.5,-227.8 272.5,-224.2 276.5,-224.2 276.5,-224.2 276.5,-224.2 272.5,-224.2 276.5,-220.6 268.5,-224.2001 268.5,-224.2001"/>
<ellipse fill="none" stroke="#000000" cx="265.3" cy="-224.2001" rx="3.2" ry="3.2"/>
</g>
<!-- direcciones -->
<g id="node3" class="node">
<title>direcciones</title>
<g id="a_node3"><a xlink:href="../../tables/direcciones.html" xlink:title="direcciones" target="_top">
<polygon fill="#ffffff" stroke="transparent" points="448,-218.7 448,-279.7 546,-279.7 546,-218.7 448,-218.7"/>
<polygon fill="#f5f5f5" stroke="transparent" points="448,-256.2 448,-279.2 546,-279.2 546,-256.2 448,-256.2"/>
<polygon fill="none" stroke="#000000" points="448,-256.2 448,-279.2 546,-279.2 546,-256.2 448,-256.2"/>
<text text-anchor="start" x="452.6909" y="-265.3" font-family="Helvetica,sans-Serif" font-weight="bold" font-size="11.00" fill="#000000">direcciones</text>
<text text-anchor="start" x="511.5219" y="-264.3" font-family="Helvetica,sans-Serif" font-size="11.00" fill="#000000">[table]</text>
<polygon fill="none" stroke="#000000" points="448,-237.2 448,-256.2 546,-256.2 546,-237.2 448,-237.2"/>
<text text-anchor="start" x="451" y="-243.3" font-family="Helvetica,sans-Serif" font-size="11.00" fill="#000000">...</text>
<polygon fill="#ffffff" stroke="transparent" points="448,-218.2 448,-237.2 482,-237.2 482,-218.2 448,-218.2"/>
<polygon fill="none" stroke="#000000" points="448,-218.2 448,-237.2 482,-237.2 482,-218.2 448,-218.2"/>
<text text-anchor="start" x="451" y="-224.3" font-family="Helvetica,sans-Serif" font-size="11.00" fill="#000000">&lt; 3</text>
<polygon fill="#ffffff" stroke="transparent" points="482,-218.2 482,-237.2 527,-237.2 527,-218.2 482,-218.2"/>
<polygon fill="none" stroke="#000000" points="482,-218.2 482,-237.2 527,-237.2 527,-218.2 482,-218.2"/>
<text text-anchor="start" x="491.6105" y="-224.3" font-family="Helvetica,sans-Serif" font-size="11.00" fill="#000000">0 rows</text>
<polygon fill="#ffffff" stroke="transparent" points="527,-218.2 527,-237.2 546,-237.2 546,-218.2 527,-218.2"/>
<polygon fill="none" stroke="#000000" points="527,-218.2 527,-237.2 546,-237.2 546,-218.2 527,-218.2"/>
<text text-anchor="start" x="536.8862" y="-224.3" font-family="Helvetica,sans-Serif" font-size="11.00" fill="#000000"> &#160;</text>
</a>
</g>
</g>
<!-- direcciones&#45;&gt;ciudades -->
<g id="edge2" class="edge">
<title>direcciones:w&#45;&gt;ciudades:e</title>
<path fill="none" stroke="#000000" d="M433.2829,-246.2C422.2886,-246.2 415.1615,-246.2 399.5,-246.2"/>
<polygon fill="#000000" stroke="#000000" points="440,-246.2001 448,-249.8 444,-246.2 448,-246.2 448,-246.2 448,-246.2 444,-246.2 448,-242.6 440,-246.2001 440,-246.2001"/>
<ellipse fill="none" stroke="#000000" cx="436.8" cy="-246.2001" rx="3.2" ry="3.2"/>
</g>
</g>
</svg>
