<?xml version="1.0" encoding="UTF-8" standalone="no"?>
<!DOCTYPE svg PUBLIC "-//W3C//DTD SVG 1.1//EN"
 "http://www.w3.org/Graphics/SVG/1.1/DTD/svg11.dtd">
<!-- Generated by graphviz version 2.40.1 (20161225.0304)
 -->
<!-- Title: oneDegreeRelationshipsDiagram Pages: 1 -->
<svg width="553pt" height="315pt"
 viewBox="0.00 0.00 553.00 314.70" xmlns="http://www.w3.org/2000/svg" xmlns:xlink="http://www.w3.org/1999/xlink">
<g id="graph0" class="graph" transform="scale(1 1) rotate(0) translate(4 310.7)">
<title>oneDegreeRelationshipsDiagram</title>
<polygon fill="#ffffff" stroke="transparent" points="-4,4 -4,-310.7 549,-310.7 549,4 -4,4"/>
<text text-anchor="middle" x="72.4936" y="-7.3" font-family="Helvetica,sans-Serif" font-size="11.00" fill="#000000">Generated by SchemaSpy</text>
<!-- empleados -->
<g id="node1" class="node">
<title>empleados</title>
<g id="a_node1"><a xlink:href="../../tables/empleados.html" xlink:title="empleados" target="_top">
<polygon fill="#ffffff" stroke="transparent" points="414,-175.7 414,-302.7 537,-302.7 537,-175.7 414,-175.7"/>
<polygon fill="#f5f5f5" stroke="transparent" points="414.5,-279.2 414.5,-302.2 537.5,-302.2 537.5,-279.2 414.5,-279.2"/>
<polygon fill="none" stroke="#000000" points="414.5,-279.2 414.5,-302.2 537.5,-302.2 537.5,-279.2 414.5,-279.2"/>
<text text-anchor="start" x="419.5" y="-288.3" font-family="Helvetica,sans-Serif" font-weight="bold" font-size="11.00" fill="#000000">empleados</text>
<text text-anchor="start" x="502.5437" y="-287.3" font-family="Helvetica,sans-Serif" font-size="11.00" fill="#000000">[table]</text>
<polygon fill="none" stroke="#000000" points="414.5,-257.2 414.5,-279.2 537.5,-279.2 537.5,-257.2 414.5,-257.2"/>
<image xlink:href="../../images/primaryKeys.png" width="11px" height="12px" preserveAspectRatio="xMinYMin meet" x="419.5" y="-274.2"/>
<text text-anchor="start" x="434.5" y="-264.3" font-family="Helvetica,sans-Serif" font-size="11.00" fill="#000000">empleado_id</text>
<polygon fill="none" stroke="#000000" points="414.5,-235.2 414.5,-257.2 537.5,-257.2 537.5,-235.2 414.5,-235.2"/>
<image xlink:href="../../images/foreignKeys.png" width="11px" height="12px" preserveAspectRatio="xMinYMin meet" x="419.5" y="-252.2"/>
<text text-anchor="start" x="434.5" y="-242.3" font-family="Helvetica,sans-Serif" font-size="11.00" fill="#000000">persona_id</text>
<polygon fill="none" stroke="#000000" points="414.5,-213.2 414.5,-235.2 537.5,-235.2 537.5,-213.2 414.5,-213.2"/>
<image xlink:href="../../images/foreignKeys.png" width="11px" height="12px" preserveAspectRatio="xMinYMin meet" x="419.5" y="-230.2"/>
<text text-anchor="start" x="434.5" y="-220.3" font-family="Helvetica,sans-Serif" font-size="11.00" fill="#000000">usuario_id</text>
<polygon fill="none" stroke="#000000" points="414.5,-194.2 414.5,-213.2 537.5,-213.2 537.5,-194.2 414.5,-194.2"/>
<text text-anchor="start" x="417.5" y="-200.3" font-family="Helvetica,sans-Serif" font-size="11.00" fill="#000000">...</text>
<polygon fill="#ffffff" stroke="transparent" points="414.5,-175.2 414.5,-194.2 461.5,-194.2 461.5,-175.2 414.5,-175.2"/>
<polygon fill="none" stroke="#000000" points="414.5,-175.2 414.5,-194.2 461.5,-194.2 461.5,-175.2 414.5,-175.2"/>
<text text-anchor="start" x="417.5" y="-181.3" font-family="Helvetica,sans-Serif" font-size="11.00" fill="#000000">&lt; 2</text>
<polygon fill="#ffffff" stroke="transparent" points="461.5,-175.2 461.5,-194.2 512.5,-194.2 512.5,-175.2 461.5,-175.2"/>
<polygon fill="none" stroke="#000000" points="461.5,-175.2 461.5,-194.2 512.5,-194.2 512.5,-175.2 461.5,-175.2"/>
<text text-anchor="start" x="477.1105" y="-181.3" font-family="Helvetica,sans-Serif" font-size="11.00" fill="#000000">0 rows</text>
<polygon fill="#ffffff" stroke="transparent" points="512.5,-175.2 512.5,-194.2 537.5,-194.2 537.5,-175.2 512.5,-175.2"/>
<polygon fill="none" stroke="#000000" points="512.5,-175.2 512.5,-194.2 537.5,-194.2 537.5,-175.2 512.5,-175.2"/>
<text text-anchor="start" x="528.3862" y="-181.3" font-family="Helvetica,sans-Serif" font-size="11.00" fill="#000000"> &#160;</text>
</a>
</g>
</g>
<!-- personas -->
<g id="node2" class="node">
<title>personas</title>
<g id="a_node2"><a xlink:href="../../tables/personas.html" xlink:title="personas" target="_top">
<polygon fill="#ffffff" stroke="transparent" points="8,-38.2 8,-282.2 365,-282.2 365,-38.2 8,-38.2"/>
<polygon fill="#f5f5f5" stroke="transparent" points="10.5,-257.2 10.5,-280.2 363.5,-280.2 363.5,-257.2 10.5,-257.2"/>
<polygon fill="none" stroke="#000000" points="10.5,-257.2 10.5,-280.2 363.5,-280.2 363.5,-257.2 10.5,-257.2"/>
<text text-anchor="start" x="15.5" y="-266.3" font-family="Helvetica,sans-Serif" font-weight="bold" font-size="11.00" fill="#000000">personas</text>
<text text-anchor="start" x="328.5437" y="-265.3" font-family="Helvetica,sans-Serif" font-size="11.00" fill="#000000">[table]</text>
<polygon fill="none" stroke="#000000" points="10.5,-235.2 10.5,-257.2 133.5,-257.2 133.5,-235.2 10.5,-235.2"/>
<image xlink:href="../../images/primaryKeys.png" width="11px" height="12px" preserveAspectRatio="xMinYMin meet" x="15.5" y="-252.2"/>
<text text-anchor="start" x="30.5" y="-242.3" font-family="Helvetica,sans-Serif" font-size="11.00" fill="#000000">persona_id</text>
<polygon fill="none" stroke="#000000" points="133.5,-235.2 133.5,-257.2 363.5,-257.2 363.5,-235.2 133.5,-235.2"/>
<text text-anchor="start" x="136.5" y="-242.9" font-family="Helvetica,sans-Serif" font-size="11.00" fill="#000000">serial[10]</text>
<polygon fill="none" stroke="#000000" points="10.5,-213.2 10.5,-235.2 133.5,-235.2 133.5,-213.2 10.5,-213.2"/>
<text text-anchor="start" x="30.5" y="-220.3" font-family="Helvetica,sans-Serif" font-size="11.00" fill="#000000">nombre</text>
<polygon fill="none" stroke="#000000" points="133.5,-213.2 133.5,-235.2 363.5,-235.2 363.5,-213.2 133.5,-213.2"/>
<text text-anchor="start" x="136.5" y="-220.9" font-family="Helvetica,sans-Serif" font-size="11.00" fill="#000000">varchar[255]</text>
<polygon fill="none" stroke="#000000" points="10.5,-191.2 10.5,-213.2 133.5,-213.2 133.5,-191.2 10.5,-191.2"/>
<text text-anchor="start" x="30.5" y="-198.3" font-family="Helvetica,sans-Serif" font-size="11.00" fill="#000000">email</text>
<polygon fill="none" stroke="#000000" points="133.5,-191.2 133.5,-213.2 363.5,-213.2 363.5,-191.2 133.5,-191.2"/>
<text text-anchor="start" x="136.5" y="-198.9" font-family="Helvetica,sans-Serif" font-size="11.00" fill="#000000">varchar[60]</text>
<polygon fill="none" stroke="#000000" points="10.5,-169.2 10.5,-191.2 133.5,-191.2 133.5,-169.2 10.5,-169.2"/>
<text text-anchor="start" x="30.5" y="-176.3" font-family="Helvetica,sans-Serif" font-size="11.00" fill="#000000">nro_documento</text>
<polygon fill="none" stroke="#000000" points="133.5,-169.2 133.5,-191.2 363.5,-191.2 363.5,-169.2 133.5,-169.2"/>
<text text-anchor="start" x="136.5" y="-176.9" font-family="Helvetica,sans-Serif" font-size="11.00" fill="#000000">varchar[20]</text>
<polygon fill="none" stroke="#000000" points="10.5,-147.2 10.5,-169.2 133.5,-169.2 133.5,-147.2 10.5,-147.2"/>
<text text-anchor="start" x="30.5" y="-154.3" font-family="Helvetica,sans-Serif" font-size="11.00" fill="#000000">tip_documento</text>
<polygon fill="none" stroke="#000000" points="133.5,-147.2 133.5,-169.2 363.5,-169.2 363.5,-147.2 133.5,-147.2"/>
<text text-anchor="start" x="136.3143" y="-154.9" font-family="Helvetica,sans-Serif" font-size="11.00" fill="#000000">enum_personas_tip_documento[2147483647]</text>
<polygon fill="none" stroke="#000000" points="10.5,-125.2 10.5,-147.2 133.5,-147.2 133.5,-125.2 10.5,-125.2"/>
<text text-anchor="start" x="30.5" y="-132.3" font-family="Helvetica,sans-Serif" font-size="11.00" fill="#000000">usu_insercion</text>
<polygon fill="none" stroke="#000000" points="133.5,-125.2 133.5,-147.2 363.5,-147.2 363.5,-125.2 133.5,-125.2"/>
<text text-anchor="start" x="136.5" y="-132.9" font-family="Helvetica,sans-Serif" font-size="11.00" fill="#000000">varchar[20]</text>
<polygon fill="none" stroke="#000000" points="10.5,-103.2 10.5,-125.2 133.5,-125.2 133.5,-103.2 10.5,-103.2"/>
<text text-anchor="start" x="30.5" y="-110.3" font-family="Helvetica,sans-Serif" font-size="11.00" fill="#000000">fec_insercion</text>
<polygon fill="none" stroke="#000000" points="133.5,-103.2 133.5,-125.2 363.5,-125.2 363.5,-103.2 133.5,-103.2"/>
<text text-anchor="start" x="136.5" y="-110.9" font-family="Helvetica,sans-Serif" font-size="11.00" fill="#000000">timestamptz[35,6]</text>
<polygon fill="none" stroke="#000000" points="10.5,-81.2 10.5,-103.2 133.5,-103.2 133.5,-81.2 10.5,-81.2"/>
<text text-anchor="start" x="30.5" y="-88.3" font-family="Helvetica,sans-Serif" font-size="11.00" fill="#000000">fec_modificacion</text>
<polygon fill="none" stroke="#000000" points="133.5,-81.2 133.5,-103.2 363.5,-103.2 363.5,-81.2 133.5,-81.2"/>
<text text-anchor="start" x="136.5" y="-88.9" font-family="Helvetica,sans-Serif" font-size="11.00" fill="#000000">timestamptz[35,6]</text>
<polygon fill="none" stroke="#000000" points="10.5,-59.2 10.5,-81.2 133.5,-81.2 133.5,-59.2 10.5,-59.2"/>
<text text-anchor="start" x="30.5" y="-66.3" font-family="Helvetica,sans-Serif" font-size="11.00" fill="#000000">usu_modificacion</text>
<polygon fill="none" stroke="#000000" points="133.5,-59.2 133.5,-81.2 363.5,-81.2 363.5,-59.2 133.5,-59.2"/>
<text text-anchor="start" x="136.5" y="-66.9" font-family="Helvetica,sans-Serif" font-size="11.00" fill="#000000">varchar[20]</text>
<polygon fill="#ffffff" stroke="transparent" points="10.5,-40.2 10.5,-59.2 63.5,-59.2 63.5,-40.2 10.5,-40.2"/>
<polygon fill="none" stroke="#000000" points="10.5,-40.2 10.5,-59.2 63.5,-59.2 63.5,-40.2 10.5,-40.2"/>
<text text-anchor="start" x="13.5" y="-46.3" font-family="Helvetica,sans-Serif" font-size="11.00" fill="#000000">&lt; 0</text>
<polygon fill="#ffffff" stroke="transparent" points="63.5,-40.2 63.5,-59.2 133.5,-59.2 133.5,-40.2 63.5,-40.2"/>
<polygon fill="none" stroke="#000000" points="63.5,-40.2 63.5,-59.2 133.5,-59.2 133.5,-40.2 63.5,-40.2"/>
<text text-anchor="start" x="98.1105" y="-46.3" font-family="Helvetica,sans-Serif" font-size="11.00" fill="#000000">0 rows</text>
<polygon fill="#ffffff" stroke="transparent" points="133.5,-40.2 133.5,-59.2 363.5,-59.2 363.5,-40.2 133.5,-40.2"/>
<polygon fill="none" stroke="#000000" points="133.5,-40.2 133.5,-59.2 363.5,-59.2 363.5,-40.2 133.5,-40.2"/>
<text text-anchor="start" x="344.9053" y="-46.3" font-family="Helvetica,sans-Serif" font-size="11.00" fill="#000000">1 &gt;</text>
<polygon fill="none" stroke="#000000" stroke-width="2" points="9,-39.2 9,-281.2 364,-281.2 364,-39.2 9,-39.2"/>
</a>
</g>
</g>
<!-- empleados&#45;&gt;personas -->
<g id="edge1" class="edge">
<title>empleados:w&#45;&gt;personas:e</title>
<path fill="none" stroke="#000000" d="M399.776,-246.2C387.7815,-246.2 380.3229,-246.2 363.5,-246.2"/>
<polygon fill="#000000" stroke="#000000" points="406.5,-246.2001 414.5,-249.8 410.5,-246.2 414.5,-246.2 414.5,-246.2 414.5,-246.2 410.5,-246.2 414.5,-242.6 406.5,-246.2001 406.5,-246.2001"/>
<ellipse fill="none" stroke="#000000" cx="403.3" cy="-246.2001" rx="3.2" ry="3.2"/>
</g>
</g>
</svg>
