<?xml version="1.0" encoding="UTF-8" standalone="no"?>
<!DOCTYPE svg PUBLIC "-//W3C//DTD SVG 1.1//EN"
 "http://www.w3.org/Graphics/SVG/1.1/DTD/svg11.dtd">
<!-- Generated by graphviz version 2.40.1 (20161225.0304)
 -->
<!-- Title: twoDegreesRelationshipsDiagramImplied Pages: 1 -->
<svg width="553pt" height="541pt"
 viewBox="0.00 0.00 553.00 540.70" xmlns="http://www.w3.org/2000/svg" xmlns:xlink="http://www.w3.org/1999/xlink">
<g id="graph0" class="graph" transform="scale(1 1) rotate(0) translate(4 536.7)">
<title>twoDegreesRelationshipsDiagramImplied</title>
<polygon fill="#ffffff" stroke="transparent" points="-4,4 -4,-536.7 549,-536.7 549,4 -4,4"/>
<text text-anchor="middle" x="72.4936" y="-7.3" font-family="Helvetica,sans-Serif" font-size="11.00" fill="#000000">Generated by SchemaSpy</text>
<!-- empleados -->
<g id="node1" class="node">
<title>empleados</title>
<g id="a_node1"><a xlink:href="../../tables/empleados.html" xlink:title="empleados" target="_top">
<polygon fill="#ffffff" stroke="transparent" points="414,-364.2 414,-491.2 537,-491.2 537,-364.2 414,-364.2"/>
<polygon fill="#f5f5f5" stroke="transparent" points="414.5,-467.7 414.5,-490.7 537.5,-490.7 537.5,-467.7 414.5,-467.7"/>
<polygon fill="none" stroke="#000000" points="414.5,-467.7 414.5,-490.7 537.5,-490.7 537.5,-467.7 414.5,-467.7"/>
<text text-anchor="start" x="419.5" y="-476.8" font-family="Helvetica,sans-Serif" font-weight="bold" font-size="11.00" fill="#000000">empleados</text>
<text text-anchor="start" x="502.5437" y="-475.8" font-family="Helvetica,sans-Serif" font-size="11.00" fill="#000000">[table]</text>
<polygon fill="none" stroke="#000000" points="414.5,-445.7 414.5,-467.7 537.5,-467.7 537.5,-445.7 414.5,-445.7"/>
<image xlink:href="../../images/primaryKeys.png" width="11px" height="12px" preserveAspectRatio="xMinYMin meet" x="419.5" y="-462.7"/>
<text text-anchor="start" x="434.5" y="-452.8" font-family="Helvetica,sans-Serif" font-size="11.00" fill="#000000">empleado_id</text>
<polygon fill="none" stroke="#000000" points="414.5,-423.7 414.5,-445.7 537.5,-445.7 537.5,-423.7 414.5,-423.7"/>
<image xlink:href="../../images/foreignKeys.png" width="11px" height="12px" preserveAspectRatio="xMinYMin meet" x="419.5" y="-440.7"/>
<text text-anchor="start" x="434.5" y="-430.8" font-family="Helvetica,sans-Serif" font-size="11.00" fill="#000000">persona_id</text>
<polygon fill="none" stroke="#000000" points="414.5,-401.7 414.5,-423.7 537.5,-423.7 537.5,-401.7 414.5,-401.7"/>
<image xlink:href="../../images/foreignKeys.png" width="11px" height="12px" preserveAspectRatio="xMinYMin meet" x="419.5" y="-418.7"/>
<text text-anchor="start" x="434.5" y="-408.8" font-family="Helvetica,sans-Serif" font-size="11.00" fill="#000000">usuario_id</text>
<polygon fill="none" stroke="#000000" points="414.5,-382.7 414.5,-401.7 537.5,-401.7 537.5,-382.7 414.5,-382.7"/>
<text text-anchor="start" x="417.5" y="-388.8" font-family="Helvetica,sans-Serif" font-size="11.00" fill="#000000">...</text>
<polygon fill="#ffffff" stroke="transparent" points="414.5,-363.7 414.5,-382.7 461.5,-382.7 461.5,-363.7 414.5,-363.7"/>
<polygon fill="none" stroke="#000000" points="414.5,-363.7 414.5,-382.7 461.5,-382.7 461.5,-363.7 414.5,-363.7"/>
<text text-anchor="start" x="417.5" y="-369.8" font-family="Helvetica,sans-Serif" font-size="11.00" fill="#000000">&lt; 2</text>
<polygon fill="#ffffff" stroke="transparent" points="461.5,-363.7 461.5,-382.7 512.5,-382.7 512.5,-363.7 461.5,-363.7"/>
<polygon fill="none" stroke="#000000" points="461.5,-363.7 461.5,-382.7 512.5,-382.7 512.5,-363.7 461.5,-363.7"/>
<text text-anchor="start" x="477.1105" y="-369.8" font-family="Helvetica,sans-Serif" font-size="11.00" fill="#000000">0 rows</text>
<polygon fill="#ffffff" stroke="transparent" points="512.5,-363.7 512.5,-382.7 537.5,-382.7 537.5,-363.7 512.5,-363.7"/>
<polygon fill="none" stroke="#000000" points="512.5,-363.7 512.5,-382.7 537.5,-382.7 537.5,-363.7 512.5,-363.7"/>
<text text-anchor="start" x="528.3862" y="-369.8" font-family="Helvetica,sans-Serif" font-size="11.00" fill="#000000"> &#160;</text>
</a>
</g>
</g>
<!-- personas -->
<g id="node2" class="node">
<title>personas</title>
<g id="a_node2"><a xlink:href="../../tables/personas.html" xlink:title="personas" target="_top">
<polygon fill="#ffffff" stroke="transparent" points="8,-284.7 8,-528.7 365,-528.7 365,-284.7 8,-284.7"/>
<polygon fill="#f5f5f5" stroke="transparent" points="10.5,-503.7 10.5,-526.7 363.5,-526.7 363.5,-503.7 10.5,-503.7"/>
<polygon fill="none" stroke="#000000" points="10.5,-503.7 10.5,-526.7 363.5,-526.7 363.5,-503.7 10.5,-503.7"/>
<text text-anchor="start" x="15.5" y="-512.8" font-family="Helvetica,sans-Serif" font-weight="bold" font-size="11.00" fill="#000000">personas</text>
<text text-anchor="start" x="328.5437" y="-511.8" font-family="Helvetica,sans-Serif" font-size="11.00" fill="#000000">[table]</text>
<polygon fill="none" stroke="#000000" points="10.5,-481.7 10.5,-503.7 133.5,-503.7 133.5,-481.7 10.5,-481.7"/>
<image xlink:href="../../images/primaryKeys.png" width="11px" height="12px" preserveAspectRatio="xMinYMin meet" x="15.5" y="-498.7"/>
<text text-anchor="start" x="30.5" y="-488.8" font-family="Helvetica,sans-Serif" font-size="11.00" fill="#000000">persona_id</text>
<polygon fill="none" stroke="#000000" points="133.5,-481.7 133.5,-503.7 363.5,-503.7 363.5,-481.7 133.5,-481.7"/>
<text text-anchor="start" x="136.5" y="-489.4" font-family="Helvetica,sans-Serif" font-size="11.00" fill="#000000">serial[10]</text>
<polygon fill="none" stroke="#000000" points="10.5,-459.7 10.5,-481.7 133.5,-481.7 133.5,-459.7 10.5,-459.7"/>
<text text-anchor="start" x="30.5" y="-466.8" font-family="Helvetica,sans-Serif" font-size="11.00" fill="#000000">nombre</text>
<polygon fill="none" stroke="#000000" points="133.5,-459.7 133.5,-481.7 363.5,-481.7 363.5,-459.7 133.5,-459.7"/>
<text text-anchor="start" x="136.5" y="-467.4" font-family="Helvetica,sans-Serif" font-size="11.00" fill="#000000">varchar[255]</text>
<polygon fill="none" stroke="#000000" points="10.5,-437.7 10.5,-459.7 133.5,-459.7 133.5,-437.7 10.5,-437.7"/>
<text text-anchor="start" x="30.5" y="-444.8" font-family="Helvetica,sans-Serif" font-size="11.00" fill="#000000">email</text>
<polygon fill="none" stroke="#000000" points="133.5,-437.7 133.5,-459.7 363.5,-459.7 363.5,-437.7 133.5,-437.7"/>
<text text-anchor="start" x="136.5" y="-445.4" font-family="Helvetica,sans-Serif" font-size="11.00" fill="#000000">varchar[60]</text>
<polygon fill="none" stroke="#000000" points="10.5,-415.7 10.5,-437.7 133.5,-437.7 133.5,-415.7 10.5,-415.7"/>
<text text-anchor="start" x="30.5" y="-422.8" font-family="Helvetica,sans-Serif" font-size="11.00" fill="#000000">nro_documento</text>
<polygon fill="none" stroke="#000000" points="133.5,-415.7 133.5,-437.7 363.5,-437.7 363.5,-415.7 133.5,-415.7"/>
<text text-anchor="start" x="136.5" y="-423.4" font-family="Helvetica,sans-Serif" font-size="11.00" fill="#000000">varchar[20]</text>
<polygon fill="none" stroke="#000000" points="10.5,-393.7 10.5,-415.7 133.5,-415.7 133.5,-393.7 10.5,-393.7"/>
<text text-anchor="start" x="30.5" y="-400.8" font-family="Helvetica,sans-Serif" font-size="11.00" fill="#000000">tip_documento</text>
<polygon fill="none" stroke="#000000" points="133.5,-393.7 133.5,-415.7 363.5,-415.7 363.5,-393.7 133.5,-393.7"/>
<text text-anchor="start" x="136.3143" y="-401.4" font-family="Helvetica,sans-Serif" font-size="11.00" fill="#000000">enum_personas_tip_documento[2147483647]</text>
<polygon fill="none" stroke="#000000" points="10.5,-371.7 10.5,-393.7 133.5,-393.7 133.5,-371.7 10.5,-371.7"/>
<text text-anchor="start" x="30.5" y="-378.8" font-family="Helvetica,sans-Serif" font-size="11.00" fill="#000000">usu_insercion</text>
<polygon fill="none" stroke="#000000" points="133.5,-371.7 133.5,-393.7 363.5,-393.7 363.5,-371.7 133.5,-371.7"/>
<text text-anchor="start" x="136.5" y="-379.4" font-family="Helvetica,sans-Serif" font-size="11.00" fill="#000000">varchar[20]</text>
<polygon fill="none" stroke="#000000" points="10.5,-349.7 10.5,-371.7 133.5,-371.7 133.5,-349.7 10.5,-349.7"/>
<text text-anchor="start" x="30.5" y="-356.8" font-family="Helvetica,sans-Serif" font-size="11.00" fill="#000000">fec_insercion</text>
<polygon fill="none" stroke="#000000" points="133.5,-349.7 133.5,-371.7 363.5,-371.7 363.5,-349.7 133.5,-349.7"/>
<text text-anchor="start" x="136.5" y="-357.4" font-family="Helvetica,sans-Serif" font-size="11.00" fill="#000000">timestamptz[35,6]</text>
<polygon fill="none" stroke="#000000" points="10.5,-327.7 10.5,-349.7 133.5,-349.7 133.5,-327.7 10.5,-327.7"/>
<text text-anchor="start" x="30.5" y="-334.8" font-family="Helvetica,sans-Serif" font-size="11.00" fill="#000000">fec_modificacion</text>
<polygon fill="none" stroke="#000000" points="133.5,-327.7 133.5,-349.7 363.5,-349.7 363.5,-327.7 133.5,-327.7"/>
<text text-anchor="start" x="136.5" y="-335.4" font-family="Helvetica,sans-Serif" font-size="11.00" fill="#000000">timestamptz[35,6]</text>
<polygon fill="none" stroke="#000000" points="10.5,-305.7 10.5,-327.7 133.5,-327.7 133.5,-305.7 10.5,-305.7"/>
<text text-anchor="start" x="30.5" y="-312.8" font-family="Helvetica,sans-Serif" font-size="11.00" fill="#000000">usu_modificacion</text>
<polygon fill="none" stroke="#000000" points="133.5,-305.7 133.5,-327.7 363.5,-327.7 363.5,-305.7 133.5,-305.7"/>
<text text-anchor="start" x="136.5" y="-313.4" font-family="Helvetica,sans-Serif" font-size="11.00" fill="#000000">varchar[20]</text>
<polygon fill="#ffffff" stroke="transparent" points="10.5,-286.7 10.5,-305.7 60.5,-305.7 60.5,-286.7 10.5,-286.7"/>
<polygon fill="none" stroke="#000000" points="10.5,-286.7 10.5,-305.7 60.5,-305.7 60.5,-286.7 10.5,-286.7"/>
<text text-anchor="start" x="13.5" y="-292.8" font-family="Helvetica,sans-Serif" font-size="11.00" fill="#000000">&lt; 0</text>
<polygon fill="#ffffff" stroke="transparent" points="60.5,-286.7 60.5,-305.7 133.5,-305.7 133.5,-286.7 60.5,-286.7"/>
<polygon fill="none" stroke="#000000" points="60.5,-286.7 60.5,-305.7 133.5,-305.7 133.5,-286.7 60.5,-286.7"/>
<text text-anchor="start" x="91.9956" y="-292.8" font-family="Helvetica,sans-Serif" font-size="11.00" fill="#000000">22 rows</text>
<polygon fill="#ffffff" stroke="transparent" points="133.5,-286.7 133.5,-305.7 363.5,-305.7 363.5,-286.7 133.5,-286.7"/>
<polygon fill="none" stroke="#000000" points="133.5,-286.7 133.5,-305.7 363.5,-305.7 363.5,-286.7 133.5,-286.7"/>
<text text-anchor="start" x="344.9053" y="-292.8" font-family="Helvetica,sans-Serif" font-size="11.00" fill="#000000">2 &gt;</text>
<polygon fill="none" stroke="#000000" stroke-width="2" points="9,-285.7 9,-527.7 364,-527.7 364,-285.7 9,-285.7"/>
</a>
</g>
</g>
<!-- empleados&#45;&gt;personas -->
<g id="edge1" class="edge">
<title>empleados:w&#45;&gt;personas:e</title>
<path fill="none" stroke="#000000" d="M400.4278,-439.645C384.8395,-453.6711 391.658,-492.7 363.5,-492.7"/>
<polygon fill="#000000" stroke="#000000" points="406.9524,-437.3523 415.6935,-438.0964 410.7262,-436.0261 414.5,-434.7 414.5,-434.7 414.5,-434.7 410.7262,-436.0261 413.3065,-431.3036 406.9524,-437.3523 406.9524,-437.3523"/>
<ellipse fill="none" stroke="#000000" cx="403.9334" cy="-438.4132" rx="3.2" ry="3.2"/>
</g>
<!-- usuarios -->
<g id="node3" class="node">
<title>usuarios</title>
<g id="a_node3"><a xlink:href="../../tables/usuarios.html" xlink:title="usuarios" target="_top">
<polygon fill="#ffffff" stroke="transparent" points="144.5,-202.2 144.5,-263.2 228.5,-263.2 228.5,-202.2 144.5,-202.2"/>
<polygon fill="#f5f5f5" stroke="transparent" points="144.5,-239.7 144.5,-262.7 228.5,-262.7 228.5,-239.7 144.5,-239.7"/>
<polygon fill="none" stroke="#000000" points="144.5,-239.7 144.5,-262.7 228.5,-262.7 228.5,-239.7 144.5,-239.7"/>
<text text-anchor="start" x="149.2188" y="-248.8" font-family="Helvetica,sans-Serif" font-weight="bold" font-size="11.00" fill="#000000">usuarios</text>
<text text-anchor="start" x="194.0219" y="-247.8" font-family="Helvetica,sans-Serif" font-size="11.00" fill="#000000">[table]</text>
<polygon fill="none" stroke="#000000" points="144.5,-220.7 144.5,-239.7 228.5,-239.7 228.5,-220.7 144.5,-220.7"/>
<text text-anchor="start" x="147.5" y="-226.8" font-family="Helvetica,sans-Serif" font-size="11.00" fill="#000000">...</text>
<polygon fill="#ffffff" stroke="transparent" points="144.5,-201.7 144.5,-220.7 162.5,-220.7 162.5,-201.7 144.5,-201.7"/>
<polygon fill="none" stroke="#000000" points="144.5,-201.7 144.5,-220.7 162.5,-220.7 162.5,-201.7 144.5,-201.7"/>
<text text-anchor="start" x="147.5" y="-207.8" font-family="Helvetica,sans-Serif" font-size="11.00" fill="#000000"> &#160;</text>
<polygon fill="#ffffff" stroke="transparent" points="162.5,-201.7 162.5,-220.7 203.5,-220.7 203.5,-201.7 162.5,-201.7"/>
<polygon fill="none" stroke="#000000" points="162.5,-201.7 162.5,-220.7 203.5,-220.7 203.5,-201.7 162.5,-201.7"/>
<text text-anchor="start" x="168.1105" y="-207.8" font-family="Helvetica,sans-Serif" font-size="11.00" fill="#000000">2 rows</text>
<polygon fill="#ffffff" stroke="transparent" points="203.5,-201.7 203.5,-220.7 228.5,-220.7 228.5,-201.7 203.5,-201.7"/>
<polygon fill="none" stroke="#000000" points="203.5,-201.7 203.5,-220.7 228.5,-220.7 228.5,-201.7 203.5,-201.7"/>
<text text-anchor="start" x="209.9053" y="-207.8" font-family="Helvetica,sans-Serif" font-size="11.00" fill="#000000">2 &gt;</text>
</a>
</g>
</g>
<!-- empleados&#45;&gt;usuarios -->
<g id="edge2" class="edge">
<title>empleados:w&#45;&gt;usuarios:e</title>
<path fill="none" stroke="#000000" d="M400.2484,-410.5614C361.6929,-396.4597 414.017,-316.12 373,-274.7 325.67,-226.905 295.7644,-229.7 228.5,-229.7"/>
<polygon fill="#000000" stroke="#000000" points="406.5886,-411.5128 413.9657,-416.2601 410.5443,-412.1064 414.5,-412.7 414.5,-412.7 414.5,-412.7 410.5443,-412.1064 415.0343,-409.1399 406.5886,-411.5128 406.5886,-411.5128"/>
<ellipse fill="none" stroke="#000000" cx="403.424" cy="-411.0379" rx="3.2" ry="3.2"/>
</g>
<!-- leads -->
<g id="node4" class="node">
<title>leads</title>
<g id="a_node4"><a xlink:href="../../tables/leads.html" xlink:title="leads" target="_top">
<polygon fill="#ffffff" stroke="transparent" points="414,-85.2 414,-256.2 537,-256.2 537,-85.2 414,-85.2"/>
<polygon fill="#f5f5f5" stroke="transparent" points="414.5,-232.7 414.5,-255.7 537.5,-255.7 537.5,-232.7 414.5,-232.7"/>
<polygon fill="none" stroke="#000000" points="414.5,-232.7 414.5,-255.7 537.5,-255.7 537.5,-232.7 414.5,-232.7"/>
<text text-anchor="start" x="419.5" y="-241.8" font-family="Helvetica,sans-Serif" font-weight="bold" font-size="11.00" fill="#000000">leads</text>
<text text-anchor="start" x="502.5437" y="-240.8" font-family="Helvetica,sans-Serif" font-size="11.00" fill="#000000">[table]</text>
<polygon fill="none" stroke="#000000" points="414.5,-210.7 414.5,-232.7 537.5,-232.7 537.5,-210.7 414.5,-210.7"/>
<image xlink:href="../../images/primaryKeys.png" width="11px" height="12px" preserveAspectRatio="xMinYMin meet" x="419.5" y="-227.7"/>
<text text-anchor="start" x="434.5" y="-217.8" font-family="Helvetica,sans-Serif" font-size="11.00" fill="#000000">lead_id</text>
<polygon fill="none" stroke="#000000" points="414.5,-188.7 414.5,-210.7 537.5,-210.7 537.5,-188.7 414.5,-188.7"/>
<image xlink:href="../../images/foreignKeys.png" width="11px" height="12px" preserveAspectRatio="xMinYMin meet" x="419.5" y="-205.7"/>
<text text-anchor="start" x="434.5" y="-195.8" font-family="Helvetica,sans-Serif" font-size="11.00" fill="#000000">usu_asignado_id</text>
<polygon fill="none" stroke="#000000" points="414.5,-166.7 414.5,-188.7 537.5,-188.7 537.5,-166.7 414.5,-166.7"/>
<image xlink:href="../../images/foreignKeys.png" width="11px" height="12px" preserveAspectRatio="xMinYMin meet" x="419.5" y="-183.7"/>
<text text-anchor="start" x="434.5" y="-173.8" font-family="Helvetica,sans-Serif" font-size="11.00" fill="#000000">campana_id</text>
<polygon fill="none" stroke="#000000" points="414.5,-144.7 414.5,-166.7 537.5,-166.7 537.5,-144.7 414.5,-144.7"/>
<image xlink:href="../../images/foreignKeys.png" width="11px" height="12px" preserveAspectRatio="xMinYMin meet" x="419.5" y="-161.7"/>
<text text-anchor="start" x="434.5" y="-151.8" font-family="Helvetica,sans-Serif" font-size="11.00" fill="#000000">persona_id</text>
<polygon fill="none" stroke="#000000" points="414.5,-122.7 414.5,-144.7 537.5,-144.7 537.5,-122.7 414.5,-122.7"/>
<image xlink:href="../../images/foreignKeys.png" width="11px" height="12px" preserveAspectRatio="xMinYMin meet" x="419.5" y="-139.7"/>
<text text-anchor="start" x="434.5" y="-129.8" font-family="Helvetica,sans-Serif" font-size="11.00" fill="#000000">curso_id</text>
<polygon fill="none" stroke="#000000" points="414.5,-103.7 414.5,-122.7 537.5,-122.7 537.5,-103.7 414.5,-103.7"/>
<text text-anchor="start" x="417.5" y="-109.8" font-family="Helvetica,sans-Serif" font-size="11.00" fill="#000000">...</text>
<polygon fill="#ffffff" stroke="transparent" points="414.5,-84.7 414.5,-103.7 461.5,-103.7 461.5,-84.7 414.5,-84.7"/>
<polygon fill="none" stroke="#000000" points="414.5,-84.7 414.5,-103.7 461.5,-103.7 461.5,-84.7 414.5,-84.7"/>
<text text-anchor="start" x="417.5" y="-90.8" font-family="Helvetica,sans-Serif" font-size="11.00" fill="#000000">&lt; 4</text>
<polygon fill="#ffffff" stroke="transparent" points="461.5,-84.7 461.5,-103.7 512.5,-103.7 512.5,-84.7 461.5,-84.7"/>
<polygon fill="none" stroke="#000000" points="461.5,-84.7 461.5,-103.7 512.5,-103.7 512.5,-84.7 461.5,-84.7"/>
<text text-anchor="start" x="477.1105" y="-90.8" font-family="Helvetica,sans-Serif" font-size="11.00" fill="#000000">0 rows</text>
<polygon fill="#ffffff" stroke="transparent" points="512.5,-84.7 512.5,-103.7 537.5,-103.7 537.5,-84.7 512.5,-84.7"/>
<polygon fill="none" stroke="#000000" points="512.5,-84.7 512.5,-103.7 537.5,-103.7 537.5,-84.7 512.5,-84.7"/>
<text text-anchor="start" x="528.3862" y="-90.8" font-family="Helvetica,sans-Serif" font-size="11.00" fill="#000000"> &#160;</text>
</a>
</g>
</g>
<!-- leads&#45;&gt;personas -->
<g id="edge5" class="edge">
<title>leads:w&#45;&gt;personas:e</title>
<path fill="none" stroke="#000000" d="M400.7074,-160.7254C352.3611,-202.6471 433.7681,-492.7 363.5,-492.7"/>
<polygon fill="#000000" stroke="#000000" points="406.9834,-158.4387 415.7324,-159.0825 410.7417,-157.0694 414.5,-155.7 414.5,-155.7 414.5,-155.7 410.7417,-157.0694 413.2676,-152.3175 406.9834,-158.4387 406.9834,-158.4387"/>
<ellipse fill="none" stroke="#000000" cx="403.9767" cy="-159.5342" rx="3.2" ry="3.2"/>
</g>
<!-- leads&#45;&gt;usuarios -->
<g id="edge6" class="edge">
<title>leads:w&#45;&gt;usuarios:e</title>
<path fill="none" stroke="#000000" d="M399.9785,-200.0166C328.2821,-203.2228 307.1651,-229.7 228.5,-229.7"/>
<polygon fill="#000000" stroke="#000000" points="406.5019,-199.8744 414.5785,-203.2991 410.501,-199.7872 414.5,-199.7 414.5,-199.7 414.5,-199.7 410.501,-199.7872 414.4215,-196.1009 406.5019,-199.8744 406.5019,-199.8744"/>
<ellipse fill="none" stroke="#000000" cx="403.3027" cy="-199.9442" rx="3.2" ry="3.2"/>
</g>
<!-- campanas -->
<g id="node5" class="node">
<title>campanas</title>
<g id="a_node5"><a xlink:href="../../tables/campanas.html" xlink:title="campanas" target="_top">
<polygon fill="#ffffff" stroke="transparent" points="140,-120.2 140,-181.2 233,-181.2 233,-120.2 140,-120.2"/>
<polygon fill="#f5f5f5" stroke="transparent" points="140.5,-157.7 140.5,-180.7 233.5,-180.7 233.5,-157.7 140.5,-157.7"/>
<polygon fill="none" stroke="#000000" points="140.5,-157.7 140.5,-180.7 233.5,-180.7 233.5,-157.7 140.5,-157.7"/>
<text text-anchor="start" x="145.1318" y="-166.8" font-family="Helvetica,sans-Serif" font-weight="bold" font-size="11.00" fill="#000000">campanas</text>
<text text-anchor="start" x="199.0219" y="-165.8" font-family="Helvetica,sans-Serif" font-size="11.00" fill="#000000">[table]</text>
<polygon fill="none" stroke="#000000" points="140.5,-138.7 140.5,-157.7 233.5,-157.7 233.5,-138.7 140.5,-138.7"/>
<text text-anchor="start" x="143.5" y="-144.8" font-family="Helvetica,sans-Serif" font-size="11.00" fill="#000000">...</text>
<polygon fill="#ffffff" stroke="transparent" points="140.5,-119.7 140.5,-138.7 163.5,-138.7 163.5,-119.7 140.5,-119.7"/>
<polygon fill="none" stroke="#000000" points="140.5,-119.7 140.5,-138.7 163.5,-138.7 163.5,-119.7 140.5,-119.7"/>
<text text-anchor="start" x="143.5" y="-125.8" font-family="Helvetica,sans-Serif" font-size="11.00" fill="#000000"> &#160;</text>
<polygon fill="#ffffff" stroke="transparent" points="163.5,-119.7 163.5,-138.7 206.5,-138.7 206.5,-119.7 163.5,-119.7"/>
<polygon fill="none" stroke="#000000" points="163.5,-119.7 163.5,-138.7 206.5,-138.7 206.5,-119.7 163.5,-119.7"/>
<text text-anchor="start" x="171.1105" y="-125.8" font-family="Helvetica,sans-Serif" font-size="11.00" fill="#000000">4 rows</text>
<polygon fill="#ffffff" stroke="transparent" points="206.5,-119.7 206.5,-138.7 233.5,-138.7 233.5,-119.7 206.5,-119.7"/>
<polygon fill="none" stroke="#000000" points="206.5,-119.7 206.5,-138.7 233.5,-138.7 233.5,-119.7 206.5,-119.7"/>
<text text-anchor="start" x="214.9053" y="-125.8" font-family="Helvetica,sans-Serif" font-size="11.00" fill="#000000">3 &gt;</text>
</a>
</g>
</g>
<!-- leads&#45;&gt;campanas -->
<g id="edge3" class="edge">
<title>leads:w&#45;&gt;campanas:e</title>
<path fill="none" stroke="#000000" stroke-dasharray="5,2" d="M399.9254,-177.3631C330.47,-174.0672 309.9456,-147.7 233.5,-147.7"/>
<polygon fill="#000000" stroke="#000000" points="406.5021,-177.5151 414.4168,-181.299 410.5011,-177.6075 414.5,-177.7 414.5,-177.7 414.5,-177.7 410.5011,-177.6075 414.5832,-174.101 406.5021,-177.5151 406.5021,-177.5151"/>
<ellipse fill="none" stroke="#000000" cx="403.303" cy="-177.4411" rx="3.2" ry="3.2"/>
</g>
<!-- cursos -->
<g id="node6" class="node">
<title>cursos</title>
<g id="a_node6"><a xlink:href="../../tables/cursos.html" xlink:title="cursos" target="_top">
<polygon fill="#ffffff" stroke="transparent" points="149,-38.2 149,-99.2 224,-99.2 224,-38.2 149,-38.2"/>
<polygon fill="#f5f5f5" stroke="transparent" points="149.5,-75.7 149.5,-98.7 224.5,-98.7 224.5,-75.7 149.5,-75.7"/>
<polygon fill="none" stroke="#000000" points="149.5,-75.7 149.5,-98.7 224.5,-98.7 224.5,-75.7 149.5,-75.7"/>
<text text-anchor="start" x="154.3042" y="-84.8" font-family="Helvetica,sans-Serif" font-weight="bold" font-size="11.00" fill="#000000">cursos</text>
<text text-anchor="start" x="190.0219" y="-83.8" font-family="Helvetica,sans-Serif" font-size="11.00" fill="#000000">[table]</text>
<polygon fill="none" stroke="#000000" points="149.5,-56.7 149.5,-75.7 224.5,-75.7 224.5,-56.7 149.5,-56.7"/>
<text text-anchor="start" x="152.5" y="-62.8" font-family="Helvetica,sans-Serif" font-size="11.00" fill="#000000">...</text>
<polygon fill="#ffffff" stroke="transparent" points="149.5,-37.7 149.5,-56.7 163.5,-56.7 163.5,-37.7 149.5,-37.7"/>
<polygon fill="none" stroke="#000000" points="149.5,-37.7 149.5,-56.7 163.5,-56.7 163.5,-37.7 149.5,-37.7"/>
<text text-anchor="start" x="152.5" y="-43.8" font-family="Helvetica,sans-Serif" font-size="11.00" fill="#000000"> &#160;</text>
<polygon fill="#ffffff" stroke="transparent" points="163.5,-37.7 163.5,-56.7 202.5,-56.7 202.5,-37.7 163.5,-37.7"/>
<polygon fill="none" stroke="#000000" points="163.5,-37.7 163.5,-56.7 202.5,-56.7 202.5,-37.7 163.5,-37.7"/>
<text text-anchor="start" x="167.1105" y="-43.8" font-family="Helvetica,sans-Serif" font-size="11.00" fill="#000000">0 rows</text>
<polygon fill="#ffffff" stroke="transparent" points="202.5,-37.7 202.5,-56.7 224.5,-56.7 224.5,-37.7 202.5,-37.7"/>
<polygon fill="none" stroke="#000000" points="202.5,-37.7 202.5,-56.7 224.5,-56.7 224.5,-37.7 202.5,-37.7"/>
<text text-anchor="start" x="205.9053" y="-43.8" font-family="Helvetica,sans-Serif" font-size="11.00" fill="#000000">1 &gt;</text>
</a>
</g>
</g>
<!-- leads&#45;&gt;cursos -->
<g id="edge4" class="edge">
<title>leads:w&#45;&gt;cursos:e</title>
<path fill="none" stroke="#000000" stroke-dasharray="5,2" d="M400.2512,-130.3435C391.2511,-125.2905 386.9152,-115.685 373,-109.7 309.7648,-82.5021 293.3362,-65.7 224.5,-65.7"/>
<polygon fill="#000000" stroke="#000000" points="406.7131,-131.8657 413.6745,-137.2041 410.6066,-132.7828 414.5,-133.7 414.5,-133.7 414.5,-133.7 410.6066,-132.7828 415.3255,-130.1959 406.7131,-131.8657 406.7131,-131.8657"/>
<ellipse fill="none" stroke="#000000" cx="403.5984" cy="-131.1319" rx="3.2" ry="3.2"/>
</g>
</g>
</svg>
