<?xml version="1.0" encoding="UTF-8" standalone="no"?>
<!DOCTYPE svg PUBLIC "-//W3C//DTD SVG 1.1//EN"
 "http://www.w3.org/Graphics/SVG/1.1/DTD/svg11.dtd">
<!-- Generated by graphviz version 2.40.1 (20161225.0304)
 -->
<!-- Title: oneDegreeRelationshipsDiagramImplied Pages: 1 -->
<svg width="424pt" height="581pt"
 viewBox="0.00 0.00 424.00 580.70" xmlns="http://www.w3.org/2000/svg" xmlns:xlink="http://www.w3.org/1999/xlink">
<g id="graph0" class="graph" transform="scale(1 1) rotate(0) translate(4 576.7)">
<title>oneDegreeRelationshipsDiagramImplied</title>
<polygon fill="#ffffff" stroke="transparent" points="-4,4 -4,-576.7 420,-576.7 420,4 -4,4"/>
<text text-anchor="middle" x="72.4936" y="-7.3" font-family="Helvetica,sans-Serif" font-size="11.00" fill="#000000">Generated by SchemaSpy</text>
<!-- contactos -->
<g id="node1" class="node">
<title>contactos</title>
<g id="a_node1"><a xlink:href="../../tables/contactos.html" xlink:title="contactos" target="_top">
<polygon fill="#ffffff" stroke="transparent" points="293,-482.7 293,-568.7 383,-568.7 383,-482.7 293,-482.7"/>
<polygon fill="#f5f5f5" stroke="transparent" points="293,-545.7 293,-568.7 383,-568.7 383,-545.7 293,-545.7"/>
<polygon fill="none" stroke="#000000" points="293,-545.7 293,-568.7 383,-568.7 383,-545.7 293,-545.7"/>
<text text-anchor="start" x="297.9633" y="-554.8" font-family="Helvetica,sans-Serif" font-weight="bold" font-size="11.00" fill="#000000">contactos</text>
<text text-anchor="start" x="348.5219" y="-553.8" font-family="Helvetica,sans-Serif" font-size="11.00" fill="#000000">[table]</text>
<polygon fill="none" stroke="#000000" points="293,-523.7 293,-545.7 383,-545.7 383,-523.7 293,-523.7"/>
<image xlink:href="../../images/primaryKeys.png" width="11px" height="12px" preserveAspectRatio="xMinYMin meet" x="298" y="-540.7"/>
<text text-anchor="start" x="314" y="-530.8" font-family="Helvetica,sans-Serif" font-size="11.00" fill="#000000">contacto_id</text>
<polygon fill="none" stroke="#000000" points="293,-501.7 293,-523.7 383,-523.7 383,-501.7 293,-501.7"/>
<image xlink:href="../../images/foreignKeys.png" width="11px" height="12px" preserveAspectRatio="xMinYMin meet" x="298" y="-518.7"/>
<text text-anchor="start" x="314" y="-508.8" font-family="Helvetica,sans-Serif" font-size="11.00" fill="#000000">persona_id</text>
<polygon fill="#ffffff" stroke="transparent" points="293,-482.7 293,-501.7 319,-501.7 319,-482.7 293,-482.7"/>
<polygon fill="none" stroke="#000000" points="293,-482.7 293,-501.7 319,-501.7 319,-482.7 293,-482.7"/>
<text text-anchor="start" x="296" y="-488.8" font-family="Helvetica,sans-Serif" font-size="11.00" fill="#000000">&lt; 1</text>
<polygon fill="#ffffff" stroke="transparent" points="319,-482.7 319,-501.7 359,-501.7 359,-482.7 319,-482.7"/>
<polygon fill="none" stroke="#000000" points="319,-482.7 319,-501.7 359,-501.7 359,-482.7 319,-482.7"/>
<text text-anchor="start" x="323.6105" y="-488.8" font-family="Helvetica,sans-Serif" font-size="11.00" fill="#000000">0 rows</text>
<polygon fill="#ffffff" stroke="transparent" points="359,-482.7 359,-501.7 383,-501.7 383,-482.7 359,-482.7"/>
<polygon fill="none" stroke="#000000" points="359,-482.7 359,-501.7 383,-501.7 383,-482.7 359,-482.7"/>
<text text-anchor="start" x="364.4053" y="-488.8" font-family="Helvetica,sans-Serif" font-size="11.00" fill="#000000">2 &gt;</text>
</a>
</g>
</g>
<!-- personas -->
<g id="node2" class="node">
<title>personas</title>
<g id="a_node2"><a xlink:href="../../tables/personas.html" xlink:title="personas" target="_top">
<polygon fill="#ffffff" stroke="transparent" points="8,-67.7 8,-377.7 219,-377.7 219,-67.7 8,-67.7"/>
<polygon fill="#f5f5f5" stroke="transparent" points="10.5,-352.7 10.5,-375.7 217.5,-375.7 217.5,-352.7 10.5,-352.7"/>
<polygon fill="none" stroke="#000000" points="10.5,-352.7 10.5,-375.7 217.5,-375.7 217.5,-352.7 10.5,-352.7"/>
<text text-anchor="start" x="15.5" y="-361.8" font-family="Helvetica,sans-Serif" font-weight="bold" font-size="11.00" fill="#000000">personas</text>
<text text-anchor="start" x="182.5437" y="-360.8" font-family="Helvetica,sans-Serif" font-size="11.00" fill="#000000">[table]</text>
<polygon fill="none" stroke="#000000" points="10.5,-330.7 10.5,-352.7 133.5,-352.7 133.5,-330.7 10.5,-330.7"/>
<image xlink:href="../../images/primaryKeys.png" width="11px" height="12px" preserveAspectRatio="xMinYMin meet" x="15.5" y="-347.7"/>
<text text-anchor="start" x="30.5" y="-337.8" font-family="Helvetica,sans-Serif" font-size="11.00" fill="#000000">persona_id</text>
<polygon fill="none" stroke="#000000" points="133.5,-330.7 133.5,-352.7 217.5,-352.7 217.5,-330.7 133.5,-330.7"/>
<text text-anchor="start" x="136.5" y="-338.4" font-family="Helvetica,sans-Serif" font-size="11.00" fill="#000000">int4[10]</text>
<polygon fill="none" stroke="#000000" points="10.5,-308.7 10.5,-330.7 133.5,-330.7 133.5,-308.7 10.5,-308.7"/>
<text text-anchor="start" x="30.5" y="-315.8" font-family="Helvetica,sans-Serif" font-size="11.00" fill="#000000">nombre</text>
<polygon fill="none" stroke="#000000" points="133.5,-308.7 133.5,-330.7 217.5,-330.7 217.5,-308.7 133.5,-308.7"/>
<text text-anchor="start" x="136.5" y="-316.4" font-family="Helvetica,sans-Serif" font-size="11.00" fill="#000000">varchar[120]</text>
<polygon fill="none" stroke="#000000" points="10.5,-286.7 10.5,-308.7 133.5,-308.7 133.5,-286.7 10.5,-286.7"/>
<text text-anchor="start" x="30.5" y="-293.8" font-family="Helvetica,sans-Serif" font-size="11.00" fill="#000000">apellido</text>
<polygon fill="none" stroke="#000000" points="133.5,-286.7 133.5,-308.7 217.5,-308.7 217.5,-286.7 133.5,-286.7"/>
<text text-anchor="start" x="136.5" y="-294.4" font-family="Helvetica,sans-Serif" font-size="11.00" fill="#000000">varchar[120]</text>
<polygon fill="none" stroke="#000000" points="10.5,-264.7 10.5,-286.7 133.5,-286.7 133.5,-264.7 10.5,-264.7"/>
<text text-anchor="start" x="30.5" y="-271.8" font-family="Helvetica,sans-Serif" font-size="11.00" fill="#000000">email</text>
<polygon fill="none" stroke="#000000" points="133.5,-264.7 133.5,-286.7 217.5,-286.7 217.5,-264.7 133.5,-264.7"/>
<text text-anchor="start" x="136.5" y="-272.4" font-family="Helvetica,sans-Serif" font-size="11.00" fill="#000000">varchar[64]</text>
<polygon fill="none" stroke="#000000" points="10.5,-242.7 10.5,-264.7 133.5,-264.7 133.5,-242.7 10.5,-242.7"/>
<text text-anchor="start" x="30.5" y="-249.8" font-family="Helvetica,sans-Serif" font-size="11.00" fill="#000000">fec_insercion</text>
<polygon fill="none" stroke="#000000" points="133.5,-242.7 133.5,-264.7 217.5,-264.7 217.5,-242.7 133.5,-242.7"/>
<text text-anchor="start" x="136.3807" y="-250.4" font-family="Helvetica,sans-Serif" font-size="11.00" fill="#000000">timestamp[29,6]</text>
<polygon fill="none" stroke="#000000" points="10.5,-220.7 10.5,-242.7 133.5,-242.7 133.5,-220.7 10.5,-220.7"/>
<text text-anchor="start" x="30.5" y="-227.8" font-family="Helvetica,sans-Serif" font-size="11.00" fill="#000000">usu_insercion</text>
<polygon fill="none" stroke="#000000" points="133.5,-220.7 133.5,-242.7 217.5,-242.7 217.5,-220.7 133.5,-220.7"/>
<text text-anchor="start" x="136.5" y="-228.4" font-family="Helvetica,sans-Serif" font-size="11.00" fill="#000000">varchar[20]</text>
<polygon fill="none" stroke="#000000" points="10.5,-198.7 10.5,-220.7 133.5,-220.7 133.5,-198.7 10.5,-198.7"/>
<text text-anchor="start" x="30.5" y="-205.8" font-family="Helvetica,sans-Serif" font-size="11.00" fill="#000000">fec_modificacion</text>
<polygon fill="none" stroke="#000000" points="133.5,-198.7 133.5,-220.7 217.5,-220.7 217.5,-198.7 133.5,-198.7"/>
<text text-anchor="start" x="136.3807" y="-206.4" font-family="Helvetica,sans-Serif" font-size="11.00" fill="#000000">timestamp[29,6]</text>
<polygon fill="none" stroke="#000000" points="10.5,-176.7 10.5,-198.7 133.5,-198.7 133.5,-176.7 10.5,-176.7"/>
<text text-anchor="start" x="30.5" y="-183.8" font-family="Helvetica,sans-Serif" font-size="11.00" fill="#000000">usu_modificacion</text>
<polygon fill="none" stroke="#000000" points="133.5,-176.7 133.5,-198.7 217.5,-198.7 217.5,-176.7 133.5,-176.7"/>
<text text-anchor="start" x="136.5" y="-184.4" font-family="Helvetica,sans-Serif" font-size="11.00" fill="#000000">varchar[20]</text>
<polygon fill="none" stroke="#000000" points="10.5,-154.7 10.5,-176.7 133.5,-176.7 133.5,-154.7 10.5,-154.7"/>
<text text-anchor="start" x="30.5" y="-161.8" font-family="Helvetica,sans-Serif" font-size="11.00" fill="#000000">fec_eliminacion</text>
<polygon fill="none" stroke="#000000" points="133.5,-154.7 133.5,-176.7 217.5,-176.7 217.5,-154.7 133.5,-154.7"/>
<text text-anchor="start" x="136.3807" y="-162.4" font-family="Helvetica,sans-Serif" font-size="11.00" fill="#000000">timestamp[29,6]</text>
<polygon fill="none" stroke="#000000" points="10.5,-132.7 10.5,-154.7 133.5,-154.7 133.5,-132.7 10.5,-132.7"/>
<text text-anchor="start" x="30.5" y="-139.8" font-family="Helvetica,sans-Serif" font-size="11.00" fill="#000000">usu_eliminacion</text>
<polygon fill="none" stroke="#000000" points="133.5,-132.7 133.5,-154.7 217.5,-154.7 217.5,-132.7 133.5,-132.7"/>
<text text-anchor="start" x="136.5" y="-140.4" font-family="Helvetica,sans-Serif" font-size="11.00" fill="#000000">varchar[20]</text>
<polygon fill="none" stroke="#000000" points="10.5,-110.7 10.5,-132.7 133.5,-132.7 133.5,-110.7 10.5,-110.7"/>
<text text-anchor="start" x="30.5" y="-117.8" font-family="Helvetica,sans-Serif" font-size="11.00" fill="#000000">telefono</text>
<polygon fill="none" stroke="#000000" points="133.5,-110.7 133.5,-132.7 217.5,-132.7 217.5,-110.7 133.5,-110.7"/>
<text text-anchor="start" x="136.5" y="-118.4" font-family="Helvetica,sans-Serif" font-size="11.00" fill="#000000">varchar[32]</text>
<polygon fill="none" stroke="#000000" points="10.5,-88.7 10.5,-110.7 133.5,-110.7 133.5,-88.7 10.5,-88.7"/>
<text text-anchor="start" x="30.5" y="-95.8" font-family="Helvetica,sans-Serif" font-size="11.00" fill="#000000">celular</text>
<polygon fill="none" stroke="#000000" points="133.5,-88.7 133.5,-110.7 217.5,-110.7 217.5,-88.7 133.5,-88.7"/>
<text text-anchor="start" x="136.5" y="-96.4" font-family="Helvetica,sans-Serif" font-size="11.00" fill="#000000">varchar[32]</text>
<polygon fill="#ffffff" stroke="transparent" points="10.5,-69.7 10.5,-88.7 63.5,-88.7 63.5,-69.7 10.5,-69.7"/>
<polygon fill="none" stroke="#000000" points="10.5,-69.7 10.5,-88.7 63.5,-88.7 63.5,-69.7 10.5,-69.7"/>
<text text-anchor="start" x="13.5" y="-75.8" font-family="Helvetica,sans-Serif" font-size="11.00" fill="#000000">&lt; 0</text>
<polygon fill="#ffffff" stroke="transparent" points="63.5,-69.7 63.5,-88.7 133.5,-88.7 133.5,-69.7 63.5,-69.7"/>
<polygon fill="none" stroke="#000000" points="63.5,-69.7 63.5,-88.7 133.5,-88.7 133.5,-69.7 63.5,-69.7"/>
<text text-anchor="start" x="98.1105" y="-75.8" font-family="Helvetica,sans-Serif" font-size="11.00" fill="#000000">0 rows</text>
<polygon fill="#ffffff" stroke="transparent" points="133.5,-69.7 133.5,-88.7 217.5,-88.7 217.5,-69.7 133.5,-69.7"/>
<polygon fill="none" stroke="#000000" points="133.5,-69.7 133.5,-88.7 217.5,-88.7 217.5,-69.7 133.5,-69.7"/>
<text text-anchor="start" x="198.9053" y="-75.8" font-family="Helvetica,sans-Serif" font-size="11.00" fill="#000000">4 &gt;</text>
<polygon fill="none" stroke="#000000" stroke-width="2" points="9,-68.7 9,-376.7 218,-376.7 218,-68.7 9,-68.7"/>
</a>
</g>
</g>
<!-- contactos&#45;&gt;personas -->
<g id="edge1" class="edge">
<title>contactos:w&#45;&gt;personas:e</title>
<path fill="none" stroke="#000000" d="M278.6459,-510.5379C221.196,-490.7431 295.0612,-341.7 217.5,-341.7"/>
<polygon fill="#000000" stroke="#000000" points="285.0892,-511.5084 292.4638,-516.2598 289.0446,-512.1042 293,-512.7 293,-512.7 293,-512.7 289.0446,-512.1042 293.5362,-509.1402 285.0892,-511.5084 285.0892,-511.5084"/>
<ellipse fill="none" stroke="#000000" cx="281.9249" cy="-511.0318" rx="3.2" ry="3.2"/>
</g>
<!-- leads -->
<g id="node3" class="node">
<title>leads</title>
<g id="a_node3"><a xlink:href="../../tables/leads.html" xlink:title="leads" target="_top">
<polygon fill="#ffffff" stroke="transparent" points="276.5,-356.2 276.5,-461.2 399.5,-461.2 399.5,-356.2 276.5,-356.2"/>
<polygon fill="#f5f5f5" stroke="transparent" points="277,-437.7 277,-460.7 400,-460.7 400,-437.7 277,-437.7"/>
<polygon fill="none" stroke="#000000" points="277,-437.7 277,-460.7 400,-460.7 400,-437.7 277,-437.7"/>
<text text-anchor="start" x="282" y="-446.8" font-family="Helvetica,sans-Serif" font-weight="bold" font-size="11.00" fill="#000000">leads</text>
<text text-anchor="start" x="365.0437" y="-445.8" font-family="Helvetica,sans-Serif" font-size="11.00" fill="#000000">[table]</text>
<polygon fill="none" stroke="#000000" points="277,-415.7 277,-437.7 400,-437.7 400,-415.7 277,-415.7"/>
<image xlink:href="../../images/primaryKeys.png" width="11px" height="12px" preserveAspectRatio="xMinYMin meet" x="282" y="-432.7"/>
<text text-anchor="start" x="297" y="-422.8" font-family="Helvetica,sans-Serif" font-size="11.00" fill="#000000">lead_id</text>
<polygon fill="none" stroke="#000000" points="277,-393.7 277,-415.7 400,-415.7 400,-393.7 277,-393.7"/>
<image xlink:href="../../images/foreignKeys.png" width="11px" height="12px" preserveAspectRatio="xMinYMin meet" x="282" y="-410.7"/>
<text text-anchor="start" x="297" y="-400.8" font-family="Helvetica,sans-Serif" font-size="11.00" fill="#000000">persona_id</text>
<polygon fill="none" stroke="#000000" points="277,-374.7 277,-393.7 400,-393.7 400,-374.7 277,-374.7"/>
<text text-anchor="start" x="280" y="-380.8" font-family="Helvetica,sans-Serif" font-size="11.00" fill="#000000">...</text>
<polygon fill="#ffffff" stroke="transparent" points="277,-355.7 277,-374.7 324,-374.7 324,-355.7 277,-355.7"/>
<polygon fill="none" stroke="#000000" points="277,-355.7 277,-374.7 324,-374.7 324,-355.7 277,-355.7"/>
<text text-anchor="start" x="280" y="-361.8" font-family="Helvetica,sans-Serif" font-size="11.00" fill="#000000">&lt; 1</text>
<polygon fill="#ffffff" stroke="transparent" points="324,-355.7 324,-374.7 375,-374.7 375,-355.7 324,-355.7"/>
<polygon fill="none" stroke="#000000" points="324,-355.7 324,-374.7 375,-374.7 375,-355.7 324,-355.7"/>
<text text-anchor="start" x="339.6105" y="-361.8" font-family="Helvetica,sans-Serif" font-size="11.00" fill="#000000">0 rows</text>
<polygon fill="#ffffff" stroke="transparent" points="375,-355.7 375,-374.7 400,-374.7 400,-355.7 375,-355.7"/>
<polygon fill="none" stroke="#000000" points="375,-355.7 375,-374.7 400,-374.7 400,-355.7 375,-355.7"/>
<text text-anchor="start" x="390.8862" y="-361.8" font-family="Helvetica,sans-Serif" font-size="11.00" fill="#000000"> &#160;</text>
</a>
</g>
</g>
<!-- leads&#45;&gt;personas -->
<g id="edge2" class="edge">
<title>leads:w&#45;&gt;personas:e</title>
<path fill="none" stroke="#000000" d="M262.9036,-400.7591C242.526,-386.9668 250.1464,-341.7 217.5,-341.7"/>
<polygon fill="#000000" stroke="#000000" points="269.2954,-402.546 276.0307,-408.1671 273.1477,-403.623 277,-404.7 277,-404.7 277,-404.7 273.1477,-403.623 277.9693,-401.2329 269.2954,-402.546 269.2954,-402.546"/>
<ellipse fill="none" stroke="#000000" cx="266.2136" cy="-401.6844" rx="3.2" ry="3.2"/>
</g>
<!-- organizaciones -->
<g id="node4" class="node">
<title>organizaciones</title>
<g id="a_node4"><a xlink:href="../../tables/organizaciones.html" xlink:title="organizaciones" target="_top">
<polygon fill="#ffffff" stroke="transparent" points="276.5,-230.2 276.5,-335.2 399.5,-335.2 399.5,-230.2 276.5,-230.2"/>
<polygon fill="#f5f5f5" stroke="transparent" points="277,-311.7 277,-334.7 400,-334.7 400,-311.7 277,-311.7"/>
<polygon fill="none" stroke="#000000" points="277,-311.7 277,-334.7 400,-334.7 400,-311.7 277,-311.7"/>
<text text-anchor="start" x="282" y="-320.8" font-family="Helvetica,sans-Serif" font-weight="bold" font-size="11.00" fill="#000000">organizaciones</text>
<text text-anchor="start" x="365.0437" y="-319.8" font-family="Helvetica,sans-Serif" font-size="11.00" fill="#000000">[table]</text>
<polygon fill="none" stroke="#000000" points="277,-289.7 277,-311.7 400,-311.7 400,-289.7 277,-289.7"/>
<image xlink:href="../../images/primaryKeys.png" width="11px" height="12px" preserveAspectRatio="xMinYMin meet" x="282" y="-306.7"/>
<text text-anchor="start" x="297" y="-296.8" font-family="Helvetica,sans-Serif" font-size="11.00" fill="#000000">organizacion_id</text>
<polygon fill="none" stroke="#000000" points="277,-267.7 277,-289.7 400,-289.7 400,-267.7 277,-267.7"/>
<image xlink:href="../../images/foreignKeys.png" width="11px" height="12px" preserveAspectRatio="xMinYMin meet" x="282" y="-284.7"/>
<text text-anchor="start" x="297" y="-274.8" font-family="Helvetica,sans-Serif" font-size="11.00" fill="#000000">persona_id</text>
<polygon fill="none" stroke="#000000" points="277,-248.7 277,-267.7 400,-267.7 400,-248.7 277,-248.7"/>
<text text-anchor="start" x="280" y="-254.8" font-family="Helvetica,sans-Serif" font-size="11.00" fill="#000000">...</text>
<polygon fill="#ffffff" stroke="transparent" points="277,-229.7 277,-248.7 319,-248.7 319,-229.7 277,-229.7"/>
<polygon fill="none" stroke="#000000" points="277,-229.7 277,-248.7 319,-248.7 319,-229.7 277,-229.7"/>
<text text-anchor="start" x="280" y="-235.8" font-family="Helvetica,sans-Serif" font-size="11.00" fill="#000000">&lt; 1</text>
<polygon fill="#ffffff" stroke="transparent" points="319,-229.7 319,-248.7 368,-248.7 368,-229.7 319,-229.7"/>
<polygon fill="none" stroke="#000000" points="319,-229.7 319,-248.7 368,-248.7 368,-229.7 319,-229.7"/>
<text text-anchor="start" x="332.6105" y="-235.8" font-family="Helvetica,sans-Serif" font-size="11.00" fill="#000000">0 rows</text>
<polygon fill="#ffffff" stroke="transparent" points="368,-229.7 368,-248.7 400,-248.7 400,-229.7 368,-229.7"/>
<polygon fill="none" stroke="#000000" points="368,-229.7 368,-248.7 400,-248.7 400,-229.7 368,-229.7"/>
<text text-anchor="start" x="381.4053" y="-235.8" font-family="Helvetica,sans-Serif" font-size="11.00" fill="#000000">1 &gt;</text>
</a>
</g>
</g>
<!-- organizaciones&#45;&gt;personas -->
<g id="edge3" class="edge">
<title>organizaciones:w&#45;&gt;personas:e</title>
<path fill="none" stroke="#000000" d="M262.9036,-282.6409C242.526,-296.4332 250.1464,-341.7 217.5,-341.7"/>
<polygon fill="#000000" stroke="#000000" points="269.2954,-280.854 277.9693,-282.1671 273.1477,-279.777 277,-278.7 277,-278.7 277,-278.7 273.1477,-279.777 276.0307,-275.2329 269.2954,-280.854 269.2954,-280.854"/>
<ellipse fill="none" stroke="#000000" cx="266.2136" cy="-281.7156" rx="3.2" ry="3.2"/>
</g>
<!-- usuarios -->
<g id="node5" class="node">
<title>usuarios</title>
<g id="a_node5"><a xlink:href="../../tables/usuarios.html" xlink:title="usuarios" target="_top">
<polygon fill="#ffffff" stroke="transparent" points="268,-38.2 268,-209.2 408,-209.2 408,-38.2 268,-38.2"/>
<polygon fill="#f5f5f5" stroke="transparent" points="268,-185.7 268,-208.7 408,-208.7 408,-185.7 268,-185.7"/>
<polygon fill="none" stroke="#000000" points="268,-185.7 268,-208.7 408,-208.7 408,-185.7 268,-185.7"/>
<text text-anchor="start" x="273" y="-194.8" font-family="Helvetica,sans-Serif" font-weight="bold" font-size="11.00" fill="#000000">usuarios</text>
<text text-anchor="start" x="373.0437" y="-193.8" font-family="Helvetica,sans-Serif" font-size="11.00" fill="#000000">[table]</text>
<polygon fill="none" stroke="#000000" points="268,-163.7 268,-185.7 408,-185.7 408,-163.7 268,-163.7"/>
<image xlink:href="../../images/primaryKeys.png" width="11px" height="12px" preserveAspectRatio="xMinYMin meet" x="273" y="-180.7"/>
<text text-anchor="start" x="288" y="-170.8" font-family="Helvetica,sans-Serif" font-size="11.00" fill="#000000">usuario_id</text>
<polygon fill="none" stroke="#000000" points="268,-141.7 268,-163.7 408,-163.7 408,-141.7 268,-141.7"/>
<image xlink:href="../../images/foreignKeys.png" width="11px" height="12px" preserveAspectRatio="xMinYMin meet" x="273" y="-158.7"/>
<text text-anchor="start" x="288" y="-148.8" font-family="Helvetica,sans-Serif" font-size="11.00" fill="#000000">persona_id</text>
<polygon fill="none" stroke="#000000" points="268,-119.7 268,-141.7 408,-141.7 408,-119.7 268,-119.7"/>
<image xlink:href="../../images/foreignKeys.png" width="11px" height="12px" preserveAspectRatio="xMinYMin meet" x="273" y="-136.7"/>
<text text-anchor="start" x="288" y="-126.8" font-family="Helvetica,sans-Serif" font-size="11.00" fill="#000000">usu_insercion_id</text>
<polygon fill="none" stroke="#000000" points="268,-97.7 268,-119.7 408,-119.7 408,-97.7 268,-97.7"/>
<image xlink:href="../../images/foreignKeys.png" width="11px" height="12px" preserveAspectRatio="xMinYMin meet" x="273" y="-114.7"/>
<text text-anchor="start" x="288" y="-104.8" font-family="Helvetica,sans-Serif" font-size="11.00" fill="#000000">usu_modificacion_id</text>
<polygon fill="none" stroke="#000000" points="268,-75.7 268,-97.7 408,-97.7 408,-75.7 268,-75.7"/>
<image xlink:href="../../images/foreignKeys.png" width="11px" height="12px" preserveAspectRatio="xMinYMin meet" x="273" y="-92.7"/>
<text text-anchor="start" x="288" y="-82.8" font-family="Helvetica,sans-Serif" font-size="11.00" fill="#000000">usu_eliminacion_id</text>
<polygon fill="none" stroke="#000000" points="268,-56.7 268,-75.7 408,-75.7 408,-56.7 268,-56.7"/>
<text text-anchor="start" x="271" y="-62.8" font-family="Helvetica,sans-Serif" font-size="11.00" fill="#000000">...</text>
<polygon fill="#ffffff" stroke="transparent" points="268,-37.7 268,-56.7 316,-56.7 316,-37.7 268,-37.7"/>
<polygon fill="none" stroke="#000000" points="268,-37.7 268,-56.7 316,-56.7 316,-37.7 268,-37.7"/>
<text text-anchor="start" x="271" y="-43.8" font-family="Helvetica,sans-Serif" font-size="11.00" fill="#000000">&lt; 4</text>
<polygon fill="#ffffff" stroke="transparent" points="316,-37.7 316,-56.7 367,-56.7 367,-37.7 316,-37.7"/>
<polygon fill="none" stroke="#000000" points="316,-37.7 316,-56.7 367,-56.7 367,-37.7 316,-37.7"/>
<text text-anchor="start" x="331.6105" y="-43.8" font-family="Helvetica,sans-Serif" font-size="11.00" fill="#000000">0 rows</text>
<polygon fill="#ffffff" stroke="transparent" points="367,-37.7 367,-56.7 408,-56.7 408,-37.7 367,-37.7"/>
<polygon fill="none" stroke="#000000" points="367,-37.7 367,-56.7 408,-56.7 408,-37.7 367,-37.7"/>
<text text-anchor="start" x="383.2904" y="-43.8" font-family="Helvetica,sans-Serif" font-size="11.00" fill="#000000">19 &gt;</text>
</a>
</g>
</g>
<!-- usuarios&#45;&gt;personas -->
<g id="edge4" class="edge">
<title>usuarios:w&#45;&gt;personas:e</title>
<path fill="none" stroke="#000000" d="M253.6968,-154.9542C196.0856,-176.2781 298.8428,-341.7 217.5,-341.7"/>
<polygon fill="#000000" stroke="#000000" points="260.0975,-153.9455 268.5605,-156.2561 264.0488,-153.3227 268,-152.7 268,-152.7 268,-152.7 264.0488,-153.3227 267.4395,-149.1439 260.0975,-153.9455 260.0975,-153.9455"/>
<ellipse fill="none" stroke="#000000" cx="256.9366" cy="-154.4437" rx="3.2" ry="3.2"/>
</g>
</g>
</svg>
