<?xml version="1.0" encoding="UTF-8" standalone="no"?>
<!DOCTYPE svg PUBLIC "-//W3C//DTD SVG 1.1//EN"
 "http://www.w3.org/Graphics/SVG/1.1/DTD/svg11.dtd">
<!-- Generated by graphviz version 2.40.1 (20161225.0304)
 -->
<!-- Title: oneDegreeRelationshipsDiagram Pages: 1 -->
<svg width="369pt" height="337pt"
 viewBox="0.00 0.00 369.00 336.70" xmlns="http://www.w3.org/2000/svg" xmlns:xlink="http://www.w3.org/1999/xlink">
<g id="graph0" class="graph" transform="scale(1 1) rotate(0) translate(4 332.7)">
<title>oneDegreeRelationshipsDiagram</title>
<polygon fill="#ffffff" stroke="transparent" points="-4,4 -4,-332.7 365,-332.7 365,4 -4,4"/>
<text text-anchor="middle" x="72.4936" y="-7.3" font-family="Helvetica,sans-Serif" font-size="11.00" fill="#000000">Generated by SchemaSpy</text>
<!-- leads -->
<g id="node1" class="node">
<title>leads</title>
<g id="a_node1"><a xlink:href="../../tables/leads.html" xlink:title="leads" target="_top">
<polygon fill="#ffffff" stroke="transparent" points="268,-219.7 268,-324.7 353,-324.7 353,-219.7 268,-219.7"/>
<polygon fill="#f5f5f5" stroke="transparent" points="268.5,-301.2 268.5,-324.2 353.5,-324.2 353.5,-301.2 268.5,-301.2"/>
<polygon fill="none" stroke="#000000" points="268.5,-301.2 268.5,-324.2 353.5,-324.2 353.5,-301.2 268.5,-301.2"/>
<text text-anchor="start" x="273.5" y="-310.3" font-family="Helvetica,sans-Serif" font-weight="bold" font-size="11.00" fill="#000000">leads</text>
<text text-anchor="start" x="318.5437" y="-309.3" font-family="Helvetica,sans-Serif" font-size="11.00" fill="#000000">[table]</text>
<polygon fill="none" stroke="#000000" points="268.5,-279.2 268.5,-301.2 353.5,-301.2 353.5,-279.2 268.5,-279.2"/>
<image xlink:href="../../images/primaryKeys.png" width="11px" height="12px" preserveAspectRatio="xMinYMin meet" x="273.5" y="-296.2"/>
<text text-anchor="start" x="288.5" y="-286.3" font-family="Helvetica,sans-Serif" font-size="11.00" fill="#000000">lead_id</text>
<polygon fill="none" stroke="#000000" points="268.5,-257.2 268.5,-279.2 353.5,-279.2 353.5,-257.2 268.5,-257.2"/>
<image xlink:href="../../images/foreignKeys.png" width="11px" height="12px" preserveAspectRatio="xMinYMin meet" x="273.5" y="-274.2"/>
<text text-anchor="start" x="288.5" y="-264.3" font-family="Helvetica,sans-Serif" font-size="11.00" fill="#000000">persona_id</text>
<polygon fill="none" stroke="#000000" points="268.5,-238.2 268.5,-257.2 353.5,-257.2 353.5,-238.2 268.5,-238.2"/>
<text text-anchor="start" x="271.5" y="-244.3" font-family="Helvetica,sans-Serif" font-size="11.00" fill="#000000">...</text>
<polygon fill="#ffffff" stroke="transparent" points="268.5,-219.2 268.5,-238.2 296.5,-238.2 296.5,-219.2 268.5,-219.2"/>
<polygon fill="none" stroke="#000000" points="268.5,-219.2 268.5,-238.2 296.5,-238.2 296.5,-219.2 268.5,-219.2"/>
<text text-anchor="start" x="271.5" y="-225.3" font-family="Helvetica,sans-Serif" font-size="11.00" fill="#000000">&lt; 1</text>
<polygon fill="#ffffff" stroke="transparent" points="296.5,-219.2 296.5,-238.2 337.5,-238.2 337.5,-219.2 296.5,-219.2"/>
<polygon fill="none" stroke="#000000" points="296.5,-219.2 296.5,-238.2 337.5,-238.2 337.5,-219.2 296.5,-219.2"/>
<text text-anchor="start" x="302.1105" y="-225.3" font-family="Helvetica,sans-Serif" font-size="11.00" fill="#000000">0 rows</text>
<polygon fill="#ffffff" stroke="transparent" points="337.5,-219.2 337.5,-238.2 353.5,-238.2 353.5,-219.2 337.5,-219.2"/>
<polygon fill="none" stroke="#000000" points="337.5,-219.2 337.5,-238.2 353.5,-238.2 353.5,-219.2 337.5,-219.2"/>
<text text-anchor="start" x="344.3862" y="-225.3" font-family="Helvetica,sans-Serif" font-size="11.00" fill="#000000"> &#160;</text>
</a>
</g>
</g>
<!-- personas -->
<g id="node2" class="node">
<title>personas</title>
<g id="a_node2"><a xlink:href="../../tables/personas.html" xlink:title="personas" target="_top">
<polygon fill="#ffffff" stroke="transparent" points="8,-38.2 8,-304.2 219,-304.2 219,-38.2 8,-38.2"/>
<polygon fill="#f5f5f5" stroke="transparent" points="10.5,-279.2 10.5,-302.2 217.5,-302.2 217.5,-279.2 10.5,-279.2"/>
<polygon fill="none" stroke="#000000" points="10.5,-279.2 10.5,-302.2 217.5,-302.2 217.5,-279.2 10.5,-279.2"/>
<text text-anchor="start" x="15.5" y="-288.3" font-family="Helvetica,sans-Serif" font-weight="bold" font-size="11.00" fill="#000000">personas</text>
<text text-anchor="start" x="182.5437" y="-287.3" font-family="Helvetica,sans-Serif" font-size="11.00" fill="#000000">[table]</text>
<polygon fill="none" stroke="#000000" points="10.5,-257.2 10.5,-279.2 133.5,-279.2 133.5,-257.2 10.5,-257.2"/>
<image xlink:href="../../images/primaryKeys.png" width="11px" height="12px" preserveAspectRatio="xMinYMin meet" x="15.5" y="-274.2"/>
<text text-anchor="start" x="30.5" y="-264.3" font-family="Helvetica,sans-Serif" font-size="11.00" fill="#000000">persona_id</text>
<polygon fill="none" stroke="#000000" points="133.5,-257.2 133.5,-279.2 217.5,-279.2 217.5,-257.2 133.5,-257.2"/>
<text text-anchor="start" x="136.5" y="-264.9" font-family="Helvetica,sans-Serif" font-size="11.00" fill="#000000">int4[10]</text>
<polygon fill="none" stroke="#000000" points="10.5,-235.2 10.5,-257.2 133.5,-257.2 133.5,-235.2 10.5,-235.2"/>
<text text-anchor="start" x="30.5" y="-242.3" font-family="Helvetica,sans-Serif" font-size="11.00" fill="#000000">nombre</text>
<polygon fill="none" stroke="#000000" points="133.5,-235.2 133.5,-257.2 217.5,-257.2 217.5,-235.2 133.5,-235.2"/>
<text text-anchor="start" x="136.5" y="-242.9" font-family="Helvetica,sans-Serif" font-size="11.00" fill="#000000">varchar[120]</text>
<polygon fill="none" stroke="#000000" points="10.5,-213.2 10.5,-235.2 133.5,-235.2 133.5,-213.2 10.5,-213.2"/>
<text text-anchor="start" x="30.5" y="-220.3" font-family="Helvetica,sans-Serif" font-size="11.00" fill="#000000">apellido</text>
<polygon fill="none" stroke="#000000" points="133.5,-213.2 133.5,-235.2 217.5,-235.2 217.5,-213.2 133.5,-213.2"/>
<text text-anchor="start" x="136.5" y="-220.9" font-family="Helvetica,sans-Serif" font-size="11.00" fill="#000000">varchar[120]</text>
<polygon fill="none" stroke="#000000" points="10.5,-191.2 10.5,-213.2 133.5,-213.2 133.5,-191.2 10.5,-191.2"/>
<text text-anchor="start" x="30.5" y="-198.3" font-family="Helvetica,sans-Serif" font-size="11.00" fill="#000000">email</text>
<polygon fill="none" stroke="#000000" points="133.5,-191.2 133.5,-213.2 217.5,-213.2 217.5,-191.2 133.5,-191.2"/>
<text text-anchor="start" x="136.5" y="-198.9" font-family="Helvetica,sans-Serif" font-size="11.00" fill="#000000">varchar[64]</text>
<polygon fill="none" stroke="#000000" points="10.5,-169.2 10.5,-191.2 133.5,-191.2 133.5,-169.2 10.5,-169.2"/>
<text text-anchor="start" x="30.5" y="-176.3" font-family="Helvetica,sans-Serif" font-size="11.00" fill="#000000">fec_insercion</text>
<polygon fill="none" stroke="#000000" points="133.5,-169.2 133.5,-191.2 217.5,-191.2 217.5,-169.2 133.5,-169.2"/>
<text text-anchor="start" x="136.3807" y="-176.9" font-family="Helvetica,sans-Serif" font-size="11.00" fill="#000000">timestamp[29,6]</text>
<polygon fill="none" stroke="#000000" points="10.5,-147.2 10.5,-169.2 133.5,-169.2 133.5,-147.2 10.5,-147.2"/>
<text text-anchor="start" x="30.5" y="-154.3" font-family="Helvetica,sans-Serif" font-size="11.00" fill="#000000">usu_insercion</text>
<polygon fill="none" stroke="#000000" points="133.5,-147.2 133.5,-169.2 217.5,-169.2 217.5,-147.2 133.5,-147.2"/>
<text text-anchor="start" x="136.5" y="-154.9" font-family="Helvetica,sans-Serif" font-size="11.00" fill="#000000">varchar[20]</text>
<polygon fill="none" stroke="#000000" points="10.5,-125.2 10.5,-147.2 133.5,-147.2 133.5,-125.2 10.5,-125.2"/>
<text text-anchor="start" x="30.5" y="-132.3" font-family="Helvetica,sans-Serif" font-size="11.00" fill="#000000">fec_modificacion</text>
<polygon fill="none" stroke="#000000" points="133.5,-125.2 133.5,-147.2 217.5,-147.2 217.5,-125.2 133.5,-125.2"/>
<text text-anchor="start" x="136.3807" y="-132.9" font-family="Helvetica,sans-Serif" font-size="11.00" fill="#000000">timestamp[29,6]</text>
<polygon fill="none" stroke="#000000" points="10.5,-103.2 10.5,-125.2 133.5,-125.2 133.5,-103.2 10.5,-103.2"/>
<text text-anchor="start" x="30.5" y="-110.3" font-family="Helvetica,sans-Serif" font-size="11.00" fill="#000000">usu_modificacion</text>
<polygon fill="none" stroke="#000000" points="133.5,-103.2 133.5,-125.2 217.5,-125.2 217.5,-103.2 133.5,-103.2"/>
<text text-anchor="start" x="136.5" y="-110.9" font-family="Helvetica,sans-Serif" font-size="11.00" fill="#000000">varchar[20]</text>
<polygon fill="none" stroke="#000000" points="10.5,-81.2 10.5,-103.2 133.5,-103.2 133.5,-81.2 10.5,-81.2"/>
<text text-anchor="start" x="30.5" y="-88.3" font-family="Helvetica,sans-Serif" font-size="11.00" fill="#000000">fec_eliminacion</text>
<polygon fill="none" stroke="#000000" points="133.5,-81.2 133.5,-103.2 217.5,-103.2 217.5,-81.2 133.5,-81.2"/>
<text text-anchor="start" x="136.3807" y="-88.9" font-family="Helvetica,sans-Serif" font-size="11.00" fill="#000000">timestamp[29,6]</text>
<polygon fill="none" stroke="#000000" points="10.5,-59.2 10.5,-81.2 133.5,-81.2 133.5,-59.2 10.5,-59.2"/>
<text text-anchor="start" x="30.5" y="-66.3" font-family="Helvetica,sans-Serif" font-size="11.00" fill="#000000">usu_eliminacion</text>
<polygon fill="none" stroke="#000000" points="133.5,-59.2 133.5,-81.2 217.5,-81.2 217.5,-59.2 133.5,-59.2"/>
<text text-anchor="start" x="136.5" y="-66.9" font-family="Helvetica,sans-Serif" font-size="11.00" fill="#000000">varchar[20]</text>
<polygon fill="#ffffff" stroke="transparent" points="10.5,-40.2 10.5,-59.2 63.5,-59.2 63.5,-40.2 10.5,-40.2"/>
<polygon fill="none" stroke="#000000" points="10.5,-40.2 10.5,-59.2 63.5,-59.2 63.5,-40.2 10.5,-40.2"/>
<text text-anchor="start" x="13.5" y="-46.3" font-family="Helvetica,sans-Serif" font-size="11.00" fill="#000000">&lt; 0</text>
<polygon fill="#ffffff" stroke="transparent" points="63.5,-40.2 63.5,-59.2 133.5,-59.2 133.5,-40.2 63.5,-40.2"/>
<polygon fill="none" stroke="#000000" points="63.5,-40.2 63.5,-59.2 133.5,-59.2 133.5,-40.2 63.5,-40.2"/>
<text text-anchor="start" x="98.1105" y="-46.3" font-family="Helvetica,sans-Serif" font-size="11.00" fill="#000000">0 rows</text>
<polygon fill="#ffffff" stroke="transparent" points="133.5,-40.2 133.5,-59.2 217.5,-59.2 217.5,-40.2 133.5,-40.2"/>
<polygon fill="none" stroke="#000000" points="133.5,-40.2 133.5,-59.2 217.5,-59.2 217.5,-40.2 133.5,-40.2"/>
<text text-anchor="start" x="198.9053" y="-46.3" font-family="Helvetica,sans-Serif" font-size="11.00" fill="#000000">1 &gt;</text>
<polygon fill="none" stroke="#000000" stroke-width="2" points="9,-39.2 9,-303.2 218,-303.2 218,-39.2 9,-39.2"/>
</a>
</g>
</g>
<!-- leads&#45;&gt;personas -->
<g id="edge1" class="edge">
<title>leads:w&#45;&gt;personas:e</title>
<path fill="none" stroke="#000000" d="M253.776,-268.2C241.7815,-268.2 234.3229,-268.2 217.5,-268.2"/>
<polygon fill="#000000" stroke="#000000" points="260.5,-268.2001 268.5,-271.8 264.5,-268.2 268.5,-268.2 268.5,-268.2 268.5,-268.2 264.5,-268.2 268.5,-264.6 260.5,-268.2001 260.5,-268.2001"/>
<ellipse fill="none" stroke="#000000" cx="257.3" cy="-268.2001" rx="3.2" ry="3.2"/>
</g>
</g>
</svg>
