<?xml version="1.0" encoding="UTF-8" standalone="no"?>
<!DOCTYPE svg PUBLIC "-//W3C//DTD SVG 1.1//EN"
 "http://www.w3.org/Graphics/SVG/1.1/DTD/svg11.dtd">
<!-- Generated by graphviz version 2.40.1 (20161225.0304)
 -->
<!-- Title: twoDegreesRelationshipsDiagram Pages: 1 -->
<svg width="1018pt" height="581pt"
 viewBox="0.00 0.00 1018.00 581.20" xmlns="http://www.w3.org/2000/svg" xmlns:xlink="http://www.w3.org/1999/xlink">
<g id="graph0" class="graph" transform="scale(1 1) rotate(0) translate(4 577.2)">
<title>twoDegreesRelationshipsDiagram</title>
<polygon fill="#ffffff" stroke="transparent" points="-4,4 -4,-577.2 1014,-577.2 1014,4 -4,4"/>
<text text-anchor="middle" x="72.4936" y="-7.3" font-family="Helvetica,sans-Serif" font-size="11.00" fill="#000000">Generated by SchemaSpy</text>
<!-- actividades -->
<g id="node1" class="node">
<title>actividades</title>
<g id="a_node1"><a xlink:href="../../tables/actividades.html" xlink:title="actividades" target="_top">
<polygon fill="#ffffff" stroke="transparent" points="493,-134.2 493,-195.2 591,-195.2 591,-134.2 493,-134.2"/>
<polygon fill="#f5f5f5" stroke="transparent" points="493,-171.7 493,-194.7 591,-194.7 591,-171.7 493,-171.7"/>
<polygon fill="none" stroke="#000000" points="493,-171.7 493,-194.7 591,-194.7 591,-171.7 493,-171.7"/>
<text text-anchor="start" x="497.9934" y="-180.8" font-family="Helvetica,sans-Serif" font-weight="bold" font-size="11.00" fill="#000000">actividades</text>
<text text-anchor="start" x="556.5219" y="-179.8" font-family="Helvetica,sans-Serif" font-size="11.00" fill="#000000">[table]</text>
<polygon fill="none" stroke="#000000" points="493,-152.7 493,-171.7 591,-171.7 591,-152.7 493,-152.7"/>
<text text-anchor="start" x="496" y="-158.8" font-family="Helvetica,sans-Serif" font-size="11.00" fill="#000000">...</text>
<polygon fill="#ffffff" stroke="transparent" points="493,-133.7 493,-152.7 523,-152.7 523,-133.7 493,-133.7"/>
<polygon fill="none" stroke="#000000" points="493,-133.7 493,-152.7 523,-152.7 523,-133.7 493,-133.7"/>
<text text-anchor="start" x="496" y="-139.8" font-family="Helvetica,sans-Serif" font-size="11.00" fill="#000000">&lt; 4</text>
<polygon fill="#ffffff" stroke="transparent" points="523,-133.7 523,-152.7 565,-152.7 565,-133.7 523,-133.7"/>
<polygon fill="none" stroke="#000000" points="523,-133.7 523,-152.7 565,-152.7 565,-133.7 523,-133.7"/>
<text text-anchor="start" x="529.6105" y="-139.8" font-family="Helvetica,sans-Serif" font-size="11.00" fill="#000000">0 rows</text>
<polygon fill="#ffffff" stroke="transparent" points="565,-133.7 565,-152.7 591,-152.7 591,-133.7 565,-133.7"/>
<polygon fill="none" stroke="#000000" points="565,-133.7 565,-152.7 591,-152.7 591,-133.7 565,-133.7"/>
<text text-anchor="start" x="572.4053" y="-139.8" font-family="Helvetica,sans-Serif" font-size="11.00" fill="#000000">2 &gt;</text>
</a>
</g>
</g>
<!-- usuarios -->
<g id="node2" class="node">
<title>usuarios</title>
<g id="a_node2"><a xlink:href="../../tables/usuarios.html" xlink:title="usuarios" target="_top">
<polygon fill="#ffffff" stroke="transparent" points="268,-164.2 268,-335.2 408,-335.2 408,-164.2 268,-164.2"/>
<polygon fill="#f5f5f5" stroke="transparent" points="268,-311.7 268,-334.7 408,-334.7 408,-311.7 268,-311.7"/>
<polygon fill="none" stroke="#000000" points="268,-311.7 268,-334.7 408,-334.7 408,-311.7 268,-311.7"/>
<text text-anchor="start" x="273" y="-320.8" font-family="Helvetica,sans-Serif" font-weight="bold" font-size="11.00" fill="#000000">usuarios</text>
<text text-anchor="start" x="373.0437" y="-319.8" font-family="Helvetica,sans-Serif" font-size="11.00" fill="#000000">[table]</text>
<polygon fill="none" stroke="#000000" points="268,-289.7 268,-311.7 408,-311.7 408,-289.7 268,-289.7"/>
<image xlink:href="../../images/primaryKeys.png" width="11px" height="12px" preserveAspectRatio="xMinYMin meet" x="273" y="-306.7"/>
<text text-anchor="start" x="288" y="-296.8" font-family="Helvetica,sans-Serif" font-size="11.00" fill="#000000">usuario_id</text>
<polygon fill="none" stroke="#000000" points="268,-267.7 268,-289.7 408,-289.7 408,-267.7 268,-267.7"/>
<image xlink:href="../../images/foreignKeys.png" width="11px" height="12px" preserveAspectRatio="xMinYMin meet" x="273" y="-284.7"/>
<text text-anchor="start" x="288" y="-274.8" font-family="Helvetica,sans-Serif" font-size="11.00" fill="#000000">persona_id</text>
<polygon fill="none" stroke="#000000" points="268,-245.7 268,-267.7 408,-267.7 408,-245.7 268,-245.7"/>
<image xlink:href="../../images/foreignKeys.png" width="11px" height="12px" preserveAspectRatio="xMinYMin meet" x="273" y="-262.7"/>
<text text-anchor="start" x="288" y="-252.8" font-family="Helvetica,sans-Serif" font-size="11.00" fill="#000000">usu_insercion_id</text>
<polygon fill="none" stroke="#000000" points="268,-223.7 268,-245.7 408,-245.7 408,-223.7 268,-223.7"/>
<image xlink:href="../../images/foreignKeys.png" width="11px" height="12px" preserveAspectRatio="xMinYMin meet" x="273" y="-240.7"/>
<text text-anchor="start" x="288" y="-230.8" font-family="Helvetica,sans-Serif" font-size="11.00" fill="#000000">usu_modificacion_id</text>
<polygon fill="none" stroke="#000000" points="268,-201.7 268,-223.7 408,-223.7 408,-201.7 268,-201.7"/>
<image xlink:href="../../images/foreignKeys.png" width="11px" height="12px" preserveAspectRatio="xMinYMin meet" x="273" y="-218.7"/>
<text text-anchor="start" x="288" y="-208.8" font-family="Helvetica,sans-Serif" font-size="11.00" fill="#000000">usu_eliminacion_id</text>
<polygon fill="none" stroke="#000000" points="268,-182.7 268,-201.7 408,-201.7 408,-182.7 268,-182.7"/>
<text text-anchor="start" x="271" y="-188.8" font-family="Helvetica,sans-Serif" font-size="11.00" fill="#000000">...</text>
<polygon fill="#ffffff" stroke="transparent" points="268,-163.7 268,-182.7 316,-182.7 316,-163.7 268,-163.7"/>
<polygon fill="none" stroke="#000000" points="268,-163.7 268,-182.7 316,-182.7 316,-163.7 268,-163.7"/>
<text text-anchor="start" x="271" y="-169.8" font-family="Helvetica,sans-Serif" font-size="11.00" fill="#000000">&lt; 4</text>
<polygon fill="#ffffff" stroke="transparent" points="316,-163.7 316,-182.7 367,-182.7 367,-163.7 316,-163.7"/>
<polygon fill="none" stroke="#000000" points="316,-163.7 316,-182.7 367,-182.7 367,-163.7 316,-163.7"/>
<text text-anchor="start" x="331.6105" y="-169.8" font-family="Helvetica,sans-Serif" font-size="11.00" fill="#000000">0 rows</text>
<polygon fill="#ffffff" stroke="transparent" points="367,-163.7 367,-182.7 408,-182.7 408,-163.7 367,-163.7"/>
<polygon fill="none" stroke="#000000" points="367,-163.7 367,-182.7 408,-182.7 408,-163.7 367,-163.7"/>
<text text-anchor="start" x="383.2904" y="-169.8" font-family="Helvetica,sans-Serif" font-size="11.00" fill="#000000">19 &gt;</text>
</a>
</g>
</g>
<!-- actividades&#45;&gt;usuarios -->
<g id="edge1" class="edge">
<title>actividades:w&#45;&gt;usuarios:e</title>
<path fill="none" stroke="#000000" d="M480.001,-154.9909C464.5227,-150.6815 461.6211,-168.1091 449,-186.7 423.1703,-224.7472 453.9866,-281.7 408,-300.7"/>
<polygon fill="#000000" stroke="#000000" points="485.891,-158.0309 491.3489,-164.8991 489.4455,-159.8654 493,-161.7 493,-161.7 493,-161.7 489.4455,-159.8654 494.6511,-158.5009 485.891,-158.0309 485.891,-158.0309"/>
<ellipse fill="none" stroke="#000000" cx="483.0474" cy="-156.5632" rx="3.2" ry="3.2"/>
</g>
<!-- actividades&#45;&gt;usuarios -->
<g id="edge2" class="edge">
<title>actividades:w&#45;&gt;usuarios:e</title>
<path fill="none" stroke="#000000" d="M478.2696,-161.3901C464.2851,-165.0238 461.1357,-181.8241 449,-199.7 423.1703,-237.7472 453.9866,-294.7 408,-300.7"/>
<polygon fill="#000000" stroke="#000000" points="485.0018,-161.5317 492.9243,-165.2992 489.0009,-161.6158 493,-161.7 493,-161.7 493,-161.7 489.0009,-161.6158 493.0757,-158.1008 485.0018,-161.5317 485.0018,-161.5317"/>
<ellipse fill="none" stroke="#000000" cx="481.8025" cy="-161.4644" rx="3.2" ry="3.2"/>
</g>
<!-- actividades&#45;&gt;usuarios -->
<g id="edge3" class="edge">
<title>actividades:w&#45;&gt;usuarios:e</title>
<path fill="none" stroke="#000000" d="M479.5579,-167.3253C464.466,-177.0168 461.4997,-194.2879 449,-212.7 423.1703,-250.7472 453.9866,-307.7 408,-300.7"/>
<polygon fill="#000000" stroke="#000000" points="485.6201,-164.7884 494.3898,-165.0209 489.3101,-163.2442 493,-161.7 493,-161.7 493,-161.7 489.3101,-163.2442 491.6102,-158.3791 485.6201,-164.7884 485.6201,-164.7884"/>
<ellipse fill="none" stroke="#000000" cx="482.6682" cy="-166.0237" rx="3.2" ry="3.2"/>
</g>
<!-- actividades&#45;&gt;usuarios -->
<g id="edge4" class="edge">
<title>actividades:w&#45;&gt;usuarios:e</title>
<path fill="none" stroke="#000000" d="M481.844,-171.1594C464.7315,-188.3427 462.1065,-206.3941 449,-225.7 423.1703,-263.7472 453.9866,-320.7 408,-300.7"/>
<polygon fill="#000000" stroke="#000000" points="486.8982,-166.8738 495.3282,-164.4458 489.9491,-164.2869 493,-161.7 493,-161.7 493,-161.7 489.9491,-164.2869 490.6718,-158.9542 486.8982,-166.8738 486.8982,-166.8738"/>
<ellipse fill="none" stroke="#000000" cx="484.4575" cy="-168.9434" rx="3.2" ry="3.2"/>
</g>
<!-- personas -->
<g id="node6" class="node">
<title>personas</title>
<g id="a_node6"><a xlink:href="../../tables/personas.html" xlink:title="personas" target="_top">
<polygon fill="#ffffff" stroke="transparent" points="8,-58.7 8,-368.7 219,-368.7 219,-58.7 8,-58.7"/>
<polygon fill="#f5f5f5" stroke="transparent" points="10.5,-343.7 10.5,-366.7 217.5,-366.7 217.5,-343.7 10.5,-343.7"/>
<polygon fill="none" stroke="#000000" points="10.5,-343.7 10.5,-366.7 217.5,-366.7 217.5,-343.7 10.5,-343.7"/>
<text text-anchor="start" x="15.5" y="-352.8" font-family="Helvetica,sans-Serif" font-weight="bold" font-size="11.00" fill="#000000">personas</text>
<text text-anchor="start" x="182.5437" y="-351.8" font-family="Helvetica,sans-Serif" font-size="11.00" fill="#000000">[table]</text>
<polygon fill="none" stroke="#000000" points="10.5,-321.7 10.5,-343.7 133.5,-343.7 133.5,-321.7 10.5,-321.7"/>
<image xlink:href="../../images/primaryKeys.png" width="11px" height="12px" preserveAspectRatio="xMinYMin meet" x="15.5" y="-338.7"/>
<text text-anchor="start" x="30.5" y="-328.8" font-family="Helvetica,sans-Serif" font-size="11.00" fill="#000000">persona_id</text>
<polygon fill="none" stroke="#000000" points="133.5,-321.7 133.5,-343.7 217.5,-343.7 217.5,-321.7 133.5,-321.7"/>
<text text-anchor="start" x="136.5" y="-329.4" font-family="Helvetica,sans-Serif" font-size="11.00" fill="#000000">int4[10]</text>
<polygon fill="none" stroke="#000000" points="10.5,-299.7 10.5,-321.7 133.5,-321.7 133.5,-299.7 10.5,-299.7"/>
<text text-anchor="start" x="30.5" y="-306.8" font-family="Helvetica,sans-Serif" font-size="11.00" fill="#000000">nombre</text>
<polygon fill="none" stroke="#000000" points="133.5,-299.7 133.5,-321.7 217.5,-321.7 217.5,-299.7 133.5,-299.7"/>
<text text-anchor="start" x="136.5" y="-307.4" font-family="Helvetica,sans-Serif" font-size="11.00" fill="#000000">varchar[120]</text>
<polygon fill="none" stroke="#000000" points="10.5,-277.7 10.5,-299.7 133.5,-299.7 133.5,-277.7 10.5,-277.7"/>
<text text-anchor="start" x="30.5" y="-284.8" font-family="Helvetica,sans-Serif" font-size="11.00" fill="#000000">apellido</text>
<polygon fill="none" stroke="#000000" points="133.5,-277.7 133.5,-299.7 217.5,-299.7 217.5,-277.7 133.5,-277.7"/>
<text text-anchor="start" x="136.5" y="-285.4" font-family="Helvetica,sans-Serif" font-size="11.00" fill="#000000">varchar[120]</text>
<polygon fill="none" stroke="#000000" points="10.5,-255.7 10.5,-277.7 133.5,-277.7 133.5,-255.7 10.5,-255.7"/>
<text text-anchor="start" x="30.5" y="-262.8" font-family="Helvetica,sans-Serif" font-size="11.00" fill="#000000">email</text>
<polygon fill="none" stroke="#000000" points="133.5,-255.7 133.5,-277.7 217.5,-277.7 217.5,-255.7 133.5,-255.7"/>
<text text-anchor="start" x="136.5" y="-263.4" font-family="Helvetica,sans-Serif" font-size="11.00" fill="#000000">varchar[64]</text>
<polygon fill="none" stroke="#000000" points="10.5,-233.7 10.5,-255.7 133.5,-255.7 133.5,-233.7 10.5,-233.7"/>
<text text-anchor="start" x="30.5" y="-240.8" font-family="Helvetica,sans-Serif" font-size="11.00" fill="#000000">fec_insercion</text>
<polygon fill="none" stroke="#000000" points="133.5,-233.7 133.5,-255.7 217.5,-255.7 217.5,-233.7 133.5,-233.7"/>
<text text-anchor="start" x="136.3807" y="-241.4" font-family="Helvetica,sans-Serif" font-size="11.00" fill="#000000">timestamp[29,6]</text>
<polygon fill="none" stroke="#000000" points="10.5,-211.7 10.5,-233.7 133.5,-233.7 133.5,-211.7 10.5,-211.7"/>
<text text-anchor="start" x="30.5" y="-218.8" font-family="Helvetica,sans-Serif" font-size="11.00" fill="#000000">usu_insercion</text>
<polygon fill="none" stroke="#000000" points="133.5,-211.7 133.5,-233.7 217.5,-233.7 217.5,-211.7 133.5,-211.7"/>
<text text-anchor="start" x="136.5" y="-219.4" font-family="Helvetica,sans-Serif" font-size="11.00" fill="#000000">varchar[20]</text>
<polygon fill="none" stroke="#000000" points="10.5,-189.7 10.5,-211.7 133.5,-211.7 133.5,-189.7 10.5,-189.7"/>
<text text-anchor="start" x="30.5" y="-196.8" font-family="Helvetica,sans-Serif" font-size="11.00" fill="#000000">fec_modificacion</text>
<polygon fill="none" stroke="#000000" points="133.5,-189.7 133.5,-211.7 217.5,-211.7 217.5,-189.7 133.5,-189.7"/>
<text text-anchor="start" x="136.3807" y="-197.4" font-family="Helvetica,sans-Serif" font-size="11.00" fill="#000000">timestamp[29,6]</text>
<polygon fill="none" stroke="#000000" points="10.5,-167.7 10.5,-189.7 133.5,-189.7 133.5,-167.7 10.5,-167.7"/>
<text text-anchor="start" x="30.5" y="-174.8" font-family="Helvetica,sans-Serif" font-size="11.00" fill="#000000">usu_modificacion</text>
<polygon fill="none" stroke="#000000" points="133.5,-167.7 133.5,-189.7 217.5,-189.7 217.5,-167.7 133.5,-167.7"/>
<text text-anchor="start" x="136.5" y="-175.4" font-family="Helvetica,sans-Serif" font-size="11.00" fill="#000000">varchar[20]</text>
<polygon fill="none" stroke="#000000" points="10.5,-145.7 10.5,-167.7 133.5,-167.7 133.5,-145.7 10.5,-145.7"/>
<text text-anchor="start" x="30.5" y="-152.8" font-family="Helvetica,sans-Serif" font-size="11.00" fill="#000000">fec_eliminacion</text>
<polygon fill="none" stroke="#000000" points="133.5,-145.7 133.5,-167.7 217.5,-167.7 217.5,-145.7 133.5,-145.7"/>
<text text-anchor="start" x="136.3807" y="-153.4" font-family="Helvetica,sans-Serif" font-size="11.00" fill="#000000">timestamp[29,6]</text>
<polygon fill="none" stroke="#000000" points="10.5,-123.7 10.5,-145.7 133.5,-145.7 133.5,-123.7 10.5,-123.7"/>
<text text-anchor="start" x="30.5" y="-130.8" font-family="Helvetica,sans-Serif" font-size="11.00" fill="#000000">usu_eliminacion</text>
<polygon fill="none" stroke="#000000" points="133.5,-123.7 133.5,-145.7 217.5,-145.7 217.5,-123.7 133.5,-123.7"/>
<text text-anchor="start" x="136.5" y="-131.4" font-family="Helvetica,sans-Serif" font-size="11.00" fill="#000000">varchar[20]</text>
<polygon fill="none" stroke="#000000" points="10.5,-101.7 10.5,-123.7 133.5,-123.7 133.5,-101.7 10.5,-101.7"/>
<text text-anchor="start" x="30.5" y="-108.8" font-family="Helvetica,sans-Serif" font-size="11.00" fill="#000000">telefono</text>
<polygon fill="none" stroke="#000000" points="133.5,-101.7 133.5,-123.7 217.5,-123.7 217.5,-101.7 133.5,-101.7"/>
<text text-anchor="start" x="136.5" y="-109.4" font-family="Helvetica,sans-Serif" font-size="11.00" fill="#000000">varchar[32]</text>
<polygon fill="none" stroke="#000000" points="10.5,-79.7 10.5,-101.7 133.5,-101.7 133.5,-79.7 10.5,-79.7"/>
<text text-anchor="start" x="30.5" y="-86.8" font-family="Helvetica,sans-Serif" font-size="11.00" fill="#000000">celular</text>
<polygon fill="none" stroke="#000000" points="133.5,-79.7 133.5,-101.7 217.5,-101.7 217.5,-79.7 133.5,-79.7"/>
<text text-anchor="start" x="136.5" y="-87.4" font-family="Helvetica,sans-Serif" font-size="11.00" fill="#000000">varchar[32]</text>
<polygon fill="#ffffff" stroke="transparent" points="10.5,-60.7 10.5,-79.7 63.5,-79.7 63.5,-60.7 10.5,-60.7"/>
<polygon fill="none" stroke="#000000" points="10.5,-60.7 10.5,-79.7 63.5,-79.7 63.5,-60.7 10.5,-60.7"/>
<text text-anchor="start" x="13.5" y="-66.8" font-family="Helvetica,sans-Serif" font-size="11.00" fill="#000000">&lt; 0</text>
<polygon fill="#ffffff" stroke="transparent" points="63.5,-60.7 63.5,-79.7 133.5,-79.7 133.5,-60.7 63.5,-60.7"/>
<polygon fill="none" stroke="#000000" points="63.5,-60.7 63.5,-79.7 133.5,-79.7 133.5,-60.7 63.5,-60.7"/>
<text text-anchor="start" x="98.1105" y="-66.8" font-family="Helvetica,sans-Serif" font-size="11.00" fill="#000000">0 rows</text>
<polygon fill="#ffffff" stroke="transparent" points="133.5,-60.7 133.5,-79.7 217.5,-79.7 217.5,-60.7 133.5,-60.7"/>
<polygon fill="none" stroke="#000000" points="133.5,-60.7 133.5,-79.7 217.5,-79.7 217.5,-60.7 133.5,-60.7"/>
<text text-anchor="start" x="198.9053" y="-66.8" font-family="Helvetica,sans-Serif" font-size="11.00" fill="#000000">4 &gt;</text>
<polygon fill="none" stroke="#000000" stroke-width="2" points="9,-59.7 9,-367.7 218,-367.7 218,-59.7 9,-59.7"/>
</a>
</g>
</g>
<!-- usuarios&#45;&gt;personas -->
<g id="edge26" class="edge">
<title>usuarios:w&#45;&gt;personas:e</title>
<path fill="none" stroke="#000000" d="M253.9534,-283.6834C239.1573,-297.0516 244.1984,-332.7 217.5,-332.7"/>
<polygon fill="#000000" stroke="#000000" points="260.4604,-281.3749 269.2037,-282.0928 264.2302,-280.0375 268,-278.7 268,-278.7 268,-278.7 264.2302,-280.0375 266.7963,-275.3072 260.4604,-281.3749 260.4604,-281.3749"/>
<ellipse fill="none" stroke="#000000" cx="257.4446" cy="-282.4449" rx="3.2" ry="3.2"/>
</g>
<!-- campanas -->
<g id="node3" class="node">
<title>campanas</title>
<g id="a_node3"><a xlink:href="../../tables/campanas.html" xlink:title="campanas" target="_top">
<polygon fill="#ffffff" stroke="transparent" points="495.5,-216.2 495.5,-277.2 588.5,-277.2 588.5,-216.2 495.5,-216.2"/>
<polygon fill="#f5f5f5" stroke="transparent" points="496,-253.7 496,-276.7 589,-276.7 589,-253.7 496,-253.7"/>
<polygon fill="none" stroke="#000000" points="496,-253.7 496,-276.7 589,-276.7 589,-253.7 496,-253.7"/>
<text text-anchor="start" x="500.6318" y="-262.8" font-family="Helvetica,sans-Serif" font-weight="bold" font-size="11.00" fill="#000000">campanas</text>
<text text-anchor="start" x="554.5219" y="-261.8" font-family="Helvetica,sans-Serif" font-size="11.00" fill="#000000">[table]</text>
<polygon fill="none" stroke="#000000" points="496,-234.7 496,-253.7 589,-253.7 589,-234.7 496,-234.7"/>
<text text-anchor="start" x="499" y="-240.8" font-family="Helvetica,sans-Serif" font-size="11.00" fill="#000000">...</text>
<polygon fill="#ffffff" stroke="transparent" points="496,-215.7 496,-234.7 523,-234.7 523,-215.7 496,-215.7"/>
<polygon fill="none" stroke="#000000" points="496,-215.7 496,-234.7 523,-234.7 523,-215.7 496,-215.7"/>
<text text-anchor="start" x="499" y="-221.8" font-family="Helvetica,sans-Serif" font-size="11.00" fill="#000000">&lt; 4</text>
<polygon fill="#ffffff" stroke="transparent" points="523,-215.7 523,-234.7 564,-234.7 564,-215.7 523,-215.7"/>
<polygon fill="none" stroke="#000000" points="523,-215.7 523,-234.7 564,-234.7 564,-215.7 523,-215.7"/>
<text text-anchor="start" x="528.6105" y="-221.8" font-family="Helvetica,sans-Serif" font-size="11.00" fill="#000000">0 rows</text>
<polygon fill="#ffffff" stroke="transparent" points="564,-215.7 564,-234.7 589,-234.7 589,-215.7 564,-215.7"/>
<polygon fill="none" stroke="#000000" points="564,-215.7 564,-234.7 589,-234.7 589,-215.7 564,-215.7"/>
<text text-anchor="start" x="570.4053" y="-221.8" font-family="Helvetica,sans-Serif" font-size="11.00" fill="#000000">1 &gt;</text>
</a>
</g>
</g>
<!-- campanas&#45;&gt;usuarios -->
<g id="edge5" class="edge">
<title>campanas:w&#45;&gt;usuarios:e</title>
<path fill="none" stroke="#000000" d="M482.0071,-240.0031C449.914,-237.1264 449.3201,-283.8523 408,-300.7"/>
<polygon fill="#000000" stroke="#000000" points="488.2654,-241.6565 495.0804,-247.1806 492.1327,-242.6782 496,-243.7 496,-243.7 496,-243.7 492.1327,-242.6782 496.9196,-240.2194 488.2654,-241.6565 488.2654,-241.6565"/>
<ellipse fill="none" stroke="#000000" cx="485.1715" cy="-240.8391" rx="3.2" ry="3.2"/>
</g>
<!-- campanas&#45;&gt;usuarios -->
<g id="edge6" class="edge">
<title>campanas:w&#45;&gt;usuarios:e</title>
<path fill="none" stroke="#000000" d="M481.5848,-244.0027C449.908,-250.359 449.1381,-295.4031 408,-300.7"/>
<polygon fill="#000000" stroke="#000000" points="488.0018,-243.868 496.0756,-247.2992 492.0009,-243.784 496,-243.7 496,-243.7 496,-243.7 492.0009,-243.784 495.9244,-240.1008 488.0018,-243.868 488.0018,-243.868"/>
<ellipse fill="none" stroke="#000000" cx="484.8025" cy="-243.9352" rx="3.2" ry="3.2"/>
</g>
<!-- campanas&#45;&gt;usuarios -->
<g id="edge7" class="edge">
<title>campanas:w&#45;&gt;usuarios:e</title>
<path fill="none" stroke="#000000" d="M482.0071,-247.8381C449.914,-262.7928 449.3201,-306.907 408,-300.7"/>
<polygon fill="#000000" stroke="#000000" points="488.3284,-245.9687 497.0209,-247.1522 492.1642,-244.8344 496,-243.7 496,-243.7 496,-243.7 492.1642,-244.8344 494.9791,-240.2478 488.3284,-245.9687 488.3284,-245.9687"/>
<ellipse fill="none" stroke="#000000" cx="485.2598" cy="-246.8762" rx="3.2" ry="3.2"/>
</g>
<!-- campanas&#45;&gt;usuarios -->
<g id="edge8" class="edge">
<title>campanas:w&#45;&gt;usuarios:e</title>
<path fill="none" stroke="#000000" d="M483.2962,-250.8193C449.9226,-274.4839 449.8662,-318.6688 408,-300.7"/>
<polygon fill="#000000" stroke="#000000" points="489.0212,-247.611 497.76,-246.8405 492.5106,-245.6555 496,-243.7 496,-243.7 496,-243.7 492.5106,-245.6555 494.24,-240.5595 489.0212,-247.611 489.0212,-247.611"/>
<ellipse fill="none" stroke="#000000" cx="486.2296" cy="-249.1754" rx="3.2" ry="3.2"/>
</g>
<!-- casos -->
<g id="node4" class="node">
<title>casos</title>
<g id="a_node4"><a xlink:href="../../tables/casos.html" xlink:title="casos" target="_top">
<polygon fill="#ffffff" stroke="transparent" points="506.5,-362.2 506.5,-423.2 577.5,-423.2 577.5,-362.2 506.5,-362.2"/>
<polygon fill="#f5f5f5" stroke="transparent" points="507,-399.7 507,-422.7 578,-422.7 578,-399.7 507,-399.7"/>
<polygon fill="none" stroke="#000000" points="507,-399.7 507,-422.7 578,-422.7 578,-399.7 507,-399.7"/>
<text text-anchor="start" x="511.6351" y="-408.8" font-family="Helvetica,sans-Serif" font-weight="bold" font-size="11.00" fill="#000000">casos</text>
<text text-anchor="start" x="543.5219" y="-407.8" font-family="Helvetica,sans-Serif" font-size="11.00" fill="#000000">[table]</text>
<polygon fill="none" stroke="#000000" points="507,-380.7 507,-399.7 578,-399.7 578,-380.7 507,-380.7"/>
<text text-anchor="start" x="510" y="-386.8" font-family="Helvetica,sans-Serif" font-size="11.00" fill="#000000">...</text>
<polygon fill="#ffffff" stroke="transparent" points="507,-361.7 507,-380.7 528,-380.7 528,-361.7 507,-361.7"/>
<polygon fill="none" stroke="#000000" points="507,-361.7 507,-380.7 528,-380.7 528,-361.7 507,-361.7"/>
<text text-anchor="start" x="509.7027" y="-367.8" font-family="Helvetica,sans-Serif" font-size="11.00" fill="#000000">&lt; 5</text>
<polygon fill="#ffffff" stroke="transparent" points="528,-361.7 528,-380.7 566,-380.7 566,-361.7 528,-361.7"/>
<polygon fill="none" stroke="#000000" points="528,-361.7 528,-380.7 566,-380.7 566,-361.7 528,-361.7"/>
<text text-anchor="start" x="530.8053" y="-367.8" font-family="Helvetica,sans-Serif" font-size="11.00" fill="#000000">0 rows</text>
<polygon fill="#ffffff" stroke="transparent" points="566,-361.7 566,-380.7 578,-380.7 578,-361.7 566,-361.7"/>
<polygon fill="none" stroke="#000000" points="566,-361.7 566,-380.7 578,-380.7 578,-361.7 566,-361.7"/>
<text text-anchor="start" x="568.9431" y="-367.8" font-family="Helvetica,sans-Serif" font-size="11.00" fill="#000000"> &#160;</text>
</a>
</g>
</g>
<!-- casos&#45;&gt;usuarios -->
<g id="edge10" class="edge">
<title>casos:w&#45;&gt;usuarios:e</title>
<path fill="none" stroke="#000000" d="M494.8763,-381.3672C473.9657,-364.7442 469.1041,-347.0608 449,-328.7 428.5317,-310.0066 435.7199,-281.7 408,-300.7"/>
<polygon fill="#000000" stroke="#000000" points="500.4071,-385.1686 504.9609,-392.6668 503.7035,-387.4343 507,-389.7 507,-389.7 507,-389.7 503.7035,-387.4343 509.0391,-386.7332 500.4071,-385.1686 500.4071,-385.1686"/>
<ellipse fill="none" stroke="#000000" cx="497.7699" cy="-383.356" rx="3.2" ry="3.2"/>
</g>
<!-- casos&#45;&gt;usuarios -->
<g id="edge11" class="edge">
<title>casos:w&#45;&gt;usuarios:e</title>
<path fill="none" stroke="#000000" d="M493.1931,-385.5106C473.6878,-376.7747 468.5533,-359.5578 449,-341.7 428.5317,-323.0066 435.7199,-294.7 408,-300.7"/>
<polygon fill="#000000" stroke="#000000" points="499.3446,-387.3771 505.9547,-393.1449 503.1723,-388.5386 507,-389.7 507,-389.7 507,-389.7 503.1723,-388.5386 508.0453,-386.2551 499.3446,-387.3771 499.3446,-387.3771"/>
<ellipse fill="none" stroke="#000000" cx="496.2825" cy="-386.448" rx="3.2" ry="3.2"/>
</g>
<!-- casos&#45;&gt;usuarios -->
<g id="edge12" class="edge">
<title>casos:w&#45;&gt;usuarios:e</title>
<path fill="none" stroke="#000000" d="M492.6474,-390.9833C473.5901,-389.4513 468.3697,-372.3901 449,-354.7 428.5317,-336.0066 435.7199,-307.7 408,-300.7"/>
<polygon fill="#000000" stroke="#000000" points="499.0318,-390.4125 507.3206,-393.2857 503.0159,-390.0563 507,-389.7 507,-389.7 507,-389.7 503.0159,-390.0563 506.6794,-386.1143 499.0318,-390.4125 499.0318,-390.4125"/>
<ellipse fill="none" stroke="#000000" cx="495.8445" cy="-390.6975" rx="3.2" ry="3.2"/>
</g>
<!-- casos&#45;&gt;usuarios -->
<g id="edge13" class="edge">
<title>casos:w&#45;&gt;usuarios:e</title>
<path fill="none" stroke="#000000" d="M494.0259,-396.2571C473.8296,-403.2596 468.8287,-385.8093 449,-367.7 428.5317,-349.0066 435.7199,-320.7 408,-300.7"/>
<polygon fill="#000000" stroke="#000000" points="499.8601,-393.3085 508.6238,-392.913 503.43,-391.5043 507,-389.7 507,-389.7 507,-389.7 503.43,-391.5043 505.3762,-386.487 499.8601,-393.3085 499.8601,-393.3085"/>
<ellipse fill="none" stroke="#000000" cx="497.0041" cy="-394.7519" rx="3.2" ry="3.2"/>
</g>
<!-- contactos -->
<g id="node5" class="node">
<title>contactos</title>
<g id="a_node5"><a xlink:href="../../tables/contactos.html" xlink:title="contactos" target="_top">
<polygon fill="#ffffff" stroke="transparent" points="293,-356.7 293,-442.7 383,-442.7 383,-356.7 293,-356.7"/>
<polygon fill="#f5f5f5" stroke="transparent" points="293,-419.7 293,-442.7 383,-442.7 383,-419.7 293,-419.7"/>
<polygon fill="none" stroke="#000000" points="293,-419.7 293,-442.7 383,-442.7 383,-419.7 293,-419.7"/>
<text text-anchor="start" x="297.9633" y="-428.8" font-family="Helvetica,sans-Serif" font-weight="bold" font-size="11.00" fill="#000000">contactos</text>
<text text-anchor="start" x="348.5219" y="-427.8" font-family="Helvetica,sans-Serif" font-size="11.00" fill="#000000">[table]</text>
<polygon fill="none" stroke="#000000" points="293,-397.7 293,-419.7 383,-419.7 383,-397.7 293,-397.7"/>
<image xlink:href="../../images/primaryKeys.png" width="11px" height="12px" preserveAspectRatio="xMinYMin meet" x="298" y="-414.7"/>
<text text-anchor="start" x="314" y="-404.8" font-family="Helvetica,sans-Serif" font-size="11.00" fill="#000000">contacto_id</text>
<polygon fill="none" stroke="#000000" points="293,-375.7 293,-397.7 383,-397.7 383,-375.7 293,-375.7"/>
<image xlink:href="../../images/foreignKeys.png" width="11px" height="12px" preserveAspectRatio="xMinYMin meet" x="298" y="-392.7"/>
<text text-anchor="start" x="314" y="-382.8" font-family="Helvetica,sans-Serif" font-size="11.00" fill="#000000">persona_id</text>
<polygon fill="#ffffff" stroke="transparent" points="293,-356.7 293,-375.7 319,-375.7 319,-356.7 293,-356.7"/>
<polygon fill="none" stroke="#000000" points="293,-356.7 293,-375.7 319,-375.7 319,-356.7 293,-356.7"/>
<text text-anchor="start" x="296" y="-362.8" font-family="Helvetica,sans-Serif" font-size="11.00" fill="#000000">&lt; 1</text>
<polygon fill="#ffffff" stroke="transparent" points="319,-356.7 319,-375.7 359,-375.7 359,-356.7 319,-356.7"/>
<polygon fill="none" stroke="#000000" points="319,-356.7 319,-375.7 359,-375.7 359,-356.7 319,-356.7"/>
<text text-anchor="start" x="323.6105" y="-362.8" font-family="Helvetica,sans-Serif" font-size="11.00" fill="#000000">0 rows</text>
<polygon fill="#ffffff" stroke="transparent" points="359,-356.7 359,-375.7 383,-375.7 383,-356.7 359,-356.7"/>
<polygon fill="none" stroke="#000000" points="359,-356.7 359,-375.7 383,-375.7 383,-356.7 359,-356.7"/>
<text text-anchor="start" x="364.4053" y="-362.8" font-family="Helvetica,sans-Serif" font-size="11.00" fill="#000000">3 &gt;</text>
</a>
</g>
</g>
<!-- casos&#45;&gt;contactos -->
<g id="edge9" class="edge">
<title>casos:w&#45;&gt;contactos:e</title>
<path fill="none" stroke="#000000" d="M492.3885,-390.1697C448.5233,-393.0955 433.5273,-408.7 383,-408.7"/>
<polygon fill="#000000" stroke="#000000" points="499.0041,-389.9571 507.1157,-393.2981 503.0021,-389.8285 507,-389.7 507,-389.7 507,-389.7 503.0021,-389.8285 506.8843,-386.1019 499.0041,-389.9571 499.0041,-389.9571"/>
<ellipse fill="none" stroke="#000000" cx="495.8058" cy="-390.0599" rx="3.2" ry="3.2"/>
</g>
<!-- contactos&#45;&gt;personas -->
<g id="edge14" class="edge">
<title>contactos:w&#45;&gt;personas:e</title>
<path fill="none" stroke="#000000" d="M278.5388,-383.9479C252.7596,-372.9437 253.1147,-332.7 217.5,-332.7"/>
<polygon fill="#000000" stroke="#000000" points="285.1411,-385.2043 292.3269,-390.2365 289.0705,-385.9522 293,-386.7 293,-386.7 293,-386.7 289.0705,-385.9522 293.6731,-383.1635 285.1411,-385.2043 285.1411,-385.2043"/>
<ellipse fill="none" stroke="#000000" cx="281.9975" cy="-384.606" rx="3.2" ry="3.2"/>
</g>
<!-- contactos_oportunidades -->
<g id="node7" class="node">
<title>contactos_oportunidades</title>
<g id="a_node7"><a xlink:href="../../tables/contactos_oportunidades.html" xlink:title="contactos_oportunidades" target="_top">
<polygon fill="#ffffff" stroke="transparent" points="837,-356.2 837,-417.2 1002,-417.2 1002,-356.2 837,-356.2"/>
<polygon fill="#f5f5f5" stroke="transparent" points="837.5,-393.7 837.5,-416.7 1002.5,-416.7 1002.5,-393.7 837.5,-393.7"/>
<polygon fill="none" stroke="#000000" points="837.5,-393.7 837.5,-416.7 1002.5,-416.7 1002.5,-393.7 837.5,-393.7"/>
<text text-anchor="start" x="842.059" y="-402.8" font-family="Helvetica,sans-Serif" font-weight="bold" font-size="11.00" fill="#000000">contactos_oportunidades</text>
<text text-anchor="start" x="968.0219" y="-401.8" font-family="Helvetica,sans-Serif" font-size="11.00" fill="#000000">[table]</text>
<polygon fill="none" stroke="#000000" points="837.5,-374.7 837.5,-393.7 1002.5,-393.7 1002.5,-374.7 837.5,-374.7"/>
<text text-anchor="start" x="840.5" y="-380.8" font-family="Helvetica,sans-Serif" font-size="11.00" fill="#000000">...</text>
<polygon fill="#ffffff" stroke="transparent" points="837.5,-355.7 837.5,-374.7 905.5,-374.7 905.5,-355.7 837.5,-355.7"/>
<polygon fill="none" stroke="#000000" points="837.5,-355.7 837.5,-374.7 905.5,-374.7 905.5,-355.7 837.5,-355.7"/>
<text text-anchor="start" x="840.5" y="-361.8" font-family="Helvetica,sans-Serif" font-size="11.00" fill="#000000">&lt; 2</text>
<polygon fill="#ffffff" stroke="transparent" points="905.5,-355.7 905.5,-374.7 966.5,-374.7 966.5,-355.7 905.5,-355.7"/>
<polygon fill="none" stroke="#000000" points="905.5,-355.7 905.5,-374.7 966.5,-374.7 966.5,-355.7 905.5,-355.7"/>
<text text-anchor="start" x="931.1105" y="-361.8" font-family="Helvetica,sans-Serif" font-size="11.00" fill="#000000">0 rows</text>
<polygon fill="#ffffff" stroke="transparent" points="966.5,-355.7 966.5,-374.7 1002.5,-374.7 1002.5,-355.7 966.5,-355.7"/>
<polygon fill="none" stroke="#000000" points="966.5,-355.7 966.5,-374.7 1002.5,-374.7 1002.5,-355.7 966.5,-355.7"/>
<text text-anchor="start" x="993.3862" y="-361.8" font-family="Helvetica,sans-Serif" font-size="11.00" fill="#000000"> &#160;</text>
</a>
</g>
</g>
<!-- contactos_oportunidades&#45;&gt;contactos -->
<g id="edge15" class="edge">
<title>contactos_oportunidades:w&#45;&gt;contactos:e</title>
<path fill="none" stroke="#000000" d="M822.9388,-384.0373C742.6312,-387.8619 721.9921,-423.1191 635,-433.7 552.9381,-443.6812 530.3156,-448.5847 449,-433.7 418.1455,-428.0521 414.3672,-408.7 383,-408.7"/>
<polygon fill="#000000" stroke="#000000" points="829.5021,-383.8853 837.5834,-387.299 833.5011,-383.7927 837.5,-383.7 837.5,-383.7 837.5,-383.7 833.5011,-383.7927 837.4166,-380.101 829.5021,-383.8853 829.5021,-383.8853"/>
<ellipse fill="none" stroke="#000000" cx="826.303" cy="-383.9595" rx="3.2" ry="3.2"/>
</g>
<!-- oportunidades -->
<g id="node8" class="node">
<title>oportunidades</title>
<g id="a_node8"><a xlink:href="../../tables/oportunidades.html" xlink:title="oportunidades" target="_top">
<polygon fill="#ffffff" stroke="transparent" points="676,-292.2 676,-353.2 788,-353.2 788,-292.2 676,-292.2"/>
<polygon fill="#f5f5f5" stroke="transparent" points="676,-329.7 676,-352.7 788,-352.7 788,-329.7 676,-329.7"/>
<polygon fill="none" stroke="#000000" points="676,-329.7 676,-352.7 788,-352.7 788,-329.7 676,-329.7"/>
<text text-anchor="start" x="680.6531" y="-338.8" font-family="Helvetica,sans-Serif" font-weight="bold" font-size="11.00" fill="#000000">oportunidades</text>
<text text-anchor="start" x="753.5219" y="-337.8" font-family="Helvetica,sans-Serif" font-size="11.00" fill="#000000">[table]</text>
<polygon fill="none" stroke="#000000" points="676,-310.7 676,-329.7 788,-329.7 788,-310.7 676,-310.7"/>
<text text-anchor="start" x="679" y="-316.8" font-family="Helvetica,sans-Serif" font-size="11.00" fill="#000000">...</text>
<polygon fill="#ffffff" stroke="transparent" points="676,-291.7 676,-310.7 713,-310.7 713,-291.7 676,-291.7"/>
<polygon fill="none" stroke="#000000" points="676,-291.7 676,-310.7 713,-310.7 713,-291.7 676,-291.7"/>
<text text-anchor="start" x="679" y="-297.8" font-family="Helvetica,sans-Serif" font-size="11.00" fill="#000000">&lt; 5</text>
<polygon fill="#ffffff" stroke="transparent" points="713,-291.7 713,-310.7 759,-310.7 759,-291.7 713,-291.7"/>
<polygon fill="none" stroke="#000000" points="713,-291.7 713,-310.7 759,-310.7 759,-291.7 713,-291.7"/>
<text text-anchor="start" x="723.6105" y="-297.8" font-family="Helvetica,sans-Serif" font-size="11.00" fill="#000000">0 rows</text>
<polygon fill="#ffffff" stroke="transparent" points="759,-291.7 759,-310.7 788,-310.7 788,-291.7 759,-291.7"/>
<polygon fill="none" stroke="#000000" points="759,-291.7 759,-310.7 788,-310.7 788,-291.7 759,-291.7"/>
<text text-anchor="start" x="769.4053" y="-297.8" font-family="Helvetica,sans-Serif" font-size="11.00" fill="#000000">1 &gt;</text>
</a>
</g>
</g>
<!-- contactos_oportunidades&#45;&gt;oportunidades -->
<g id="edge16" class="edge">
<title>contactos_oportunidades:w&#45;&gt;oportunidades:e</title>
<path fill="none" stroke="#000000" d="M823.5392,-378.678C807.5225,-363.5906 817.779,-319.7 788,-319.7"/>
<polygon fill="#000000" stroke="#000000" points="829.9722,-380.9921 836.2814,-387.0875 833.7361,-382.346 837.5,-383.7 837.5,-383.7 837.5,-383.7 833.7361,-382.346 838.7186,-380.3125 829.9722,-380.9921 829.9722,-380.9921"/>
<ellipse fill="none" stroke="#000000" cx="826.9611" cy="-379.9089" rx="3.2" ry="3.2"/>
</g>
<!-- oportunidades&#45;&gt;usuarios -->
<g id="edge21" class="edge">
<title>oportunidades:w&#45;&gt;usuarios:e</title>
<path fill="none" stroke="#000000" d="M661.4211,-319.6023C553.9802,-318.1378 522.3958,-300.7 408,-300.7"/>
<polygon fill="#000000" stroke="#000000" points="668.0002,-319.6463 675.9759,-323.2999 672.0001,-319.6732 676,-319.7 676,-319.7 676,-319.7 672.0001,-319.6732 676.0241,-316.1001 668.0002,-319.6463 668.0002,-319.6463"/>
<ellipse fill="none" stroke="#000000" cx="664.8003" cy="-319.6249" rx="3.2" ry="3.2"/>
</g>
<!-- oportunidades&#45;&gt;usuarios -->
<g id="edge22" class="edge">
<title>oportunidades:w&#45;&gt;usuarios:e</title>
<path fill="none" stroke="#000000" d="M661.4211,-318.0334C553.9802,-305.1607 522.3958,-288.2459 408,-300.7"/>
<polygon fill="#000000" stroke="#000000" points="668.0518,-318.7913 675.5911,-323.2767 672.0259,-319.2457 676,-319.7 676,-319.7 676,-319.7 672.0259,-319.2457 676.4089,-316.1233 668.0518,-318.7913 668.0518,-318.7913"/>
<ellipse fill="none" stroke="#000000" cx="664.8725" cy="-318.4279" rx="3.2" ry="3.2"/>
</g>
<!-- oportunidades&#45;&gt;usuarios -->
<g id="edge23" class="edge">
<title>oportunidades:w&#45;&gt;usuarios:e</title>
<path fill="none" stroke="#000000" d="M661.4211,-319.6023C553.9802,-318.1378 522.3958,-300.7 408,-300.7"/>
<polygon fill="#000000" stroke="#000000" points="668.0002,-319.6463 675.9759,-323.2999 672.0001,-319.6732 676,-319.7 676,-319.7 676,-319.7 672.0001,-319.6732 676.0241,-316.1001 668.0002,-319.6463 668.0002,-319.6463"/>
<ellipse fill="none" stroke="#000000" cx="664.8003" cy="-319.6249" rx="3.2" ry="3.2"/>
</g>
<!-- oportunidades&#45;&gt;usuarios -->
<g id="edge24" class="edge">
<title>oportunidades:w&#45;&gt;usuarios:e</title>
<path fill="none" stroke="#000000" d="M661.4211,-321.1712C553.9802,-331.1149 522.3958,-313.1541 408,-300.7"/>
<polygon fill="#000000" stroke="#000000" points="668.0404,-320.5033 676.3615,-323.2818 672.0202,-320.1016 676,-319.7 676,-319.7 676,-319.7 672.0202,-320.1016 675.6385,-316.1182 668.0404,-320.5033 668.0404,-320.5033"/>
<ellipse fill="none" stroke="#000000" cx="664.8566" cy="-320.8246" rx="3.2" ry="3.2"/>
</g>
<!-- oportunidades&#45;&gt;campanas -->
<g id="edge20" class="edge">
<title>oportunidades:w&#45;&gt;campanas:e</title>
<path fill="none" stroke="#000000" d="M661.3834,-317.1713C627.2868,-303.9842 634.7269,-243.7 589,-243.7"/>
<polygon fill="#000000" stroke="#000000" points="668.1171,-318.3362 675.3863,-323.2473 672.0585,-319.0181 676,-319.7 676,-319.7 676,-319.7 672.0585,-319.0181 676.6137,-316.1527 668.1171,-318.3362 668.1171,-318.3362"/>
<ellipse fill="none" stroke="#000000" cx="664.9639" cy="-317.7907" rx="3.2" ry="3.2"/>
</g>
<!-- contactos_organizaciones -->
<g id="node9" class="node">
<title>contactos_organizaciones</title>
<g id="a_node9"><a xlink:href="../../tables/contactos_organizaciones.html" xlink:title="contactos_organizaciones" target="_top">
<polygon fill="#ffffff" stroke="transparent" points="457,-490.2 457,-551.2 627,-551.2 627,-490.2 457,-490.2"/>
<polygon fill="#f5f5f5" stroke="transparent" points="457,-527.7 457,-550.7 627,-550.7 627,-527.7 457,-527.7"/>
<polygon fill="none" stroke="#000000" points="457,-527.7 457,-550.7 627,-550.7 627,-527.7 457,-527.7"/>
<text text-anchor="start" x="461.9244" y="-536.8" font-family="Helvetica,sans-Serif" font-weight="bold" font-size="11.00" fill="#000000">contactos_organizaciones</text>
<text text-anchor="start" x="592.5219" y="-535.8" font-family="Helvetica,sans-Serif" font-size="11.00" fill="#000000">[table]</text>
<polygon fill="none" stroke="#000000" points="457,-508.7 457,-527.7 627,-527.7 627,-508.7 457,-508.7"/>
<text text-anchor="start" x="460" y="-514.8" font-family="Helvetica,sans-Serif" font-size="11.00" fill="#000000">...</text>
<polygon fill="#ffffff" stroke="transparent" points="457,-489.7 457,-508.7 527,-508.7 527,-489.7 457,-489.7"/>
<polygon fill="none" stroke="#000000" points="457,-489.7 457,-508.7 527,-508.7 527,-489.7 457,-489.7"/>
<text text-anchor="start" x="460" y="-495.8" font-family="Helvetica,sans-Serif" font-size="11.00" fill="#000000">&lt; 2</text>
<polygon fill="#ffffff" stroke="transparent" points="527,-489.7 527,-508.7 590,-508.7 590,-489.7 527,-489.7"/>
<polygon fill="none" stroke="#000000" points="527,-489.7 527,-508.7 590,-508.7 590,-489.7 527,-489.7"/>
<text text-anchor="start" x="554.6105" y="-495.8" font-family="Helvetica,sans-Serif" font-size="11.00" fill="#000000">0 rows</text>
<polygon fill="#ffffff" stroke="transparent" points="590,-489.7 590,-508.7 627,-508.7 627,-489.7 590,-489.7"/>
<polygon fill="none" stroke="#000000" points="590,-489.7 590,-508.7 627,-508.7 627,-489.7 590,-489.7"/>
<text text-anchor="start" x="617.8862" y="-495.8" font-family="Helvetica,sans-Serif" font-size="11.00" fill="#000000"> &#160;</text>
</a>
</g>
</g>
<!-- contactos_organizaciones&#45;&gt;contactos -->
<g id="edge17" class="edge">
<title>contactos_organizaciones:w&#45;&gt;contactos:e</title>
<path fill="none" stroke="#000000" d="M442.5648,-514.7845C405.8962,-497.4504 435.8356,-408.7 383,-408.7"/>
<polygon fill="#000000" stroke="#000000" points="449.1583,-516.1162 456.2873,-521.2287 453.0792,-516.9081 457,-517.7 457,-517.7 457,-517.7 453.0792,-516.9081 457.7127,-514.1713 449.1583,-516.1162 449.1583,-516.1162"/>
<ellipse fill="none" stroke="#000000" cx="446.0217" cy="-515.4826" rx="3.2" ry="3.2"/>
</g>
<!-- organizaciones -->
<g id="node10" class="node">
<title>organizaciones</title>
<g id="a_node10"><a xlink:href="../../tables/organizaciones.html" xlink:title="organizaciones" target="_top">
<polygon fill="#ffffff" stroke="transparent" points="276.5,-464.2 276.5,-569.2 399.5,-569.2 399.5,-464.2 276.5,-464.2"/>
<polygon fill="#f5f5f5" stroke="transparent" points="277,-545.7 277,-568.7 400,-568.7 400,-545.7 277,-545.7"/>
<polygon fill="none" stroke="#000000" points="277,-545.7 277,-568.7 400,-568.7 400,-545.7 277,-545.7"/>
<text text-anchor="start" x="282" y="-554.8" font-family="Helvetica,sans-Serif" font-weight="bold" font-size="11.00" fill="#000000">organizaciones</text>
<text text-anchor="start" x="365.0437" y="-553.8" font-family="Helvetica,sans-Serif" font-size="11.00" fill="#000000">[table]</text>
<polygon fill="none" stroke="#000000" points="277,-523.7 277,-545.7 400,-545.7 400,-523.7 277,-523.7"/>
<image xlink:href="../../images/primaryKeys.png" width="11px" height="12px" preserveAspectRatio="xMinYMin meet" x="282" y="-540.7"/>
<text text-anchor="start" x="297" y="-530.8" font-family="Helvetica,sans-Serif" font-size="11.00" fill="#000000">organizacion_id</text>
<polygon fill="none" stroke="#000000" points="277,-501.7 277,-523.7 400,-523.7 400,-501.7 277,-501.7"/>
<image xlink:href="../../images/foreignKeys.png" width="11px" height="12px" preserveAspectRatio="xMinYMin meet" x="282" y="-518.7"/>
<text text-anchor="start" x="297" y="-508.8" font-family="Helvetica,sans-Serif" font-size="11.00" fill="#000000">persona_id</text>
<polygon fill="none" stroke="#000000" points="277,-482.7 277,-501.7 400,-501.7 400,-482.7 277,-482.7"/>
<text text-anchor="start" x="280" y="-488.8" font-family="Helvetica,sans-Serif" font-size="11.00" fill="#000000">...</text>
<polygon fill="#ffffff" stroke="transparent" points="277,-463.7 277,-482.7 319,-482.7 319,-463.7 277,-463.7"/>
<polygon fill="none" stroke="#000000" points="277,-463.7 277,-482.7 319,-482.7 319,-463.7 277,-463.7"/>
<text text-anchor="start" x="280" y="-469.8" font-family="Helvetica,sans-Serif" font-size="11.00" fill="#000000">&lt; 1</text>
<polygon fill="#ffffff" stroke="transparent" points="319,-463.7 319,-482.7 368,-482.7 368,-463.7 319,-463.7"/>
<polygon fill="none" stroke="#000000" points="319,-463.7 319,-482.7 368,-482.7 368,-463.7 319,-463.7"/>
<text text-anchor="start" x="332.6105" y="-469.8" font-family="Helvetica,sans-Serif" font-size="11.00" fill="#000000">0 rows</text>
<polygon fill="#ffffff" stroke="transparent" points="368,-463.7 368,-482.7 400,-482.7 400,-463.7 368,-463.7"/>
<polygon fill="none" stroke="#000000" points="368,-463.7 368,-482.7 400,-482.7 400,-463.7 368,-463.7"/>
<text text-anchor="start" x="381.4053" y="-469.8" font-family="Helvetica,sans-Serif" font-size="11.00" fill="#000000">1 &gt;</text>
</a>
</g>
</g>
<!-- contactos_organizaciones&#45;&gt;organizaciones -->
<g id="edge18" class="edge">
<title>contactos_organizaciones:w&#45;&gt;organizaciones:e</title>
<path fill="none" stroke="#000000" d="M442.3868,-519.7845C427.6905,-524.324 420.6532,-534.7 400,-534.7"/>
<polygon fill="#000000" stroke="#000000" points="449.0802,-518.8298 457.5084,-521.2639 453.0401,-518.2649 457,-517.7 457,-517.7 457,-517.7 453.0401,-518.2649 456.4916,-514.1361 449.0802,-518.8298 449.0802,-518.8298"/>
<ellipse fill="none" stroke="#000000" cx="445.9122" cy="-519.2817" rx="3.2" ry="3.2"/>
</g>
<!-- organizaciones&#45;&gt;personas -->
<g id="edge25" class="edge">
<title>organizaciones:w&#45;&gt;personas:e</title>
<path fill="none" stroke="#000000" d="M262.658,-510.4241C206.3688,-489.5875 296.1622,-332.7 217.5,-332.7"/>
<polygon fill="#000000" stroke="#000000" points="269.0989,-511.4462 276.4358,-516.2555 273.0494,-512.0731 277,-512.7 277,-512.7 277,-512.7 273.0494,-512.0731 277.5642,-509.1445 269.0989,-511.4462 269.0989,-511.4462"/>
<ellipse fill="none" stroke="#000000" cx="265.9384" cy="-510.9446" rx="3.2" ry="3.2"/>
</g>
<!-- leads -->
<g id="node11" class="node">
<title>leads</title>
<g id="a_node11"><a xlink:href="../../tables/leads.html" xlink:title="leads" target="_top">
<polygon fill="#ffffff" stroke="transparent" points="276.5,-38.2 276.5,-143.2 399.5,-143.2 399.5,-38.2 276.5,-38.2"/>
<polygon fill="#f5f5f5" stroke="transparent" points="277,-119.7 277,-142.7 400,-142.7 400,-119.7 277,-119.7"/>
<polygon fill="none" stroke="#000000" points="277,-119.7 277,-142.7 400,-142.7 400,-119.7 277,-119.7"/>
<text text-anchor="start" x="282" y="-128.8" font-family="Helvetica,sans-Serif" font-weight="bold" font-size="11.00" fill="#000000">leads</text>
<text text-anchor="start" x="365.0437" y="-127.8" font-family="Helvetica,sans-Serif" font-size="11.00" fill="#000000">[table]</text>
<polygon fill="none" stroke="#000000" points="277,-97.7 277,-119.7 400,-119.7 400,-97.7 277,-97.7"/>
<image xlink:href="../../images/primaryKeys.png" width="11px" height="12px" preserveAspectRatio="xMinYMin meet" x="282" y="-114.7"/>
<text text-anchor="start" x="297" y="-104.8" font-family="Helvetica,sans-Serif" font-size="11.00" fill="#000000">lead_id</text>
<polygon fill="none" stroke="#000000" points="277,-75.7 277,-97.7 400,-97.7 400,-75.7 277,-75.7"/>
<image xlink:href="../../images/foreignKeys.png" width="11px" height="12px" preserveAspectRatio="xMinYMin meet" x="282" y="-92.7"/>
<text text-anchor="start" x="297" y="-82.8" font-family="Helvetica,sans-Serif" font-size="11.00" fill="#000000">persona_id</text>
<polygon fill="none" stroke="#000000" points="277,-56.7 277,-75.7 400,-75.7 400,-56.7 277,-56.7"/>
<text text-anchor="start" x="280" y="-62.8" font-family="Helvetica,sans-Serif" font-size="11.00" fill="#000000">...</text>
<polygon fill="#ffffff" stroke="transparent" points="277,-37.7 277,-56.7 324,-56.7 324,-37.7 277,-37.7"/>
<polygon fill="none" stroke="#000000" points="277,-37.7 277,-56.7 324,-56.7 324,-37.7 277,-37.7"/>
<text text-anchor="start" x="280" y="-43.8" font-family="Helvetica,sans-Serif" font-size="11.00" fill="#000000">&lt; 1</text>
<polygon fill="#ffffff" stroke="transparent" points="324,-37.7 324,-56.7 375,-56.7 375,-37.7 324,-37.7"/>
<polygon fill="none" stroke="#000000" points="324,-37.7 324,-56.7 375,-56.7 375,-37.7 324,-37.7"/>
<text text-anchor="start" x="339.6105" y="-43.8" font-family="Helvetica,sans-Serif" font-size="11.00" fill="#000000">0 rows</text>
<polygon fill="#ffffff" stroke="transparent" points="375,-37.7 375,-56.7 400,-56.7 400,-37.7 375,-37.7"/>
<polygon fill="none" stroke="#000000" points="375,-37.7 375,-56.7 400,-56.7 400,-37.7 375,-37.7"/>
<text text-anchor="start" x="390.8862" y="-43.8" font-family="Helvetica,sans-Serif" font-size="11.00" fill="#000000"> &#160;</text>
</a>
</g>
</g>
<!-- leads&#45;&gt;personas -->
<g id="edge19" class="edge">
<title>leads:w&#45;&gt;personas:e</title>
<path fill="none" stroke="#000000" d="M262.446,-88.4023C180.0107,-110.1369 324.4935,-332.7 217.5,-332.7"/>
<polygon fill="#000000" stroke="#000000" points="269.0542,-87.6294 277.4182,-90.2756 273.0271,-87.1647 277,-86.7 277,-86.7 277,-86.7 273.0271,-87.1647 276.5818,-83.1244 269.0542,-87.6294 269.0542,-87.6294"/>
<ellipse fill="none" stroke="#000000" cx="265.8758" cy="-88.0012" rx="3.2" ry="3.2"/>
</g>
</g>
</svg>
