<?xml version="1.0" encoding="UTF-8" standalone="no"?>
<!DOCTYPE svg PUBLIC "-//W3C//DTD SVG 1.1//EN"
 "http://www.w3.org/Graphics/SVG/1.1/DTD/svg11.dtd">
<!-- Generated by graphviz version 2.40.1 (20161225.0304)
 -->
<!-- Title: oneDegreeRelationshipsDiagram Pages: 1 -->
<svg width="725pt" height="831pt"
 viewBox="0.00 0.00 725.00 831.20" xmlns="http://www.w3.org/2000/svg" xmlns:xlink="http://www.w3.org/1999/xlink">
<g id="graph0" class="graph" transform="scale(1 1) rotate(0) translate(4 827.2)">
<title>oneDegreeRelationshipsDiagram</title>
<polygon fill="#ffffff" stroke="transparent" points="-4,4 -4,-827.2 721,-827.2 721,4 -4,4"/>
<text text-anchor="middle" x="72.4936" y="-7.3" font-family="Helvetica,sans-Serif" font-size="11.00" fill="#000000">Generated by SchemaSpy</text>
<!-- contactos -->
<g id="node1" class="node">
<title>contactos</title>
<g id="a_node1"><a xlink:href="../../tables/contactos.html" xlink:title="contactos" target="_top">
<polygon fill="#ffffff" stroke="transparent" points="586,-692.2 586,-819.2 709,-819.2 709,-692.2 586,-692.2"/>
<polygon fill="#f5f5f5" stroke="transparent" points="586.5,-795.7 586.5,-818.7 709.5,-818.7 709.5,-795.7 586.5,-795.7"/>
<polygon fill="none" stroke="#000000" points="586.5,-795.7 586.5,-818.7 709.5,-818.7 709.5,-795.7 586.5,-795.7"/>
<text text-anchor="start" x="591.5" y="-804.8" font-family="Helvetica,sans-Serif" font-weight="bold" font-size="11.00" fill="#000000">contactos</text>
<text text-anchor="start" x="674.5437" y="-803.8" font-family="Helvetica,sans-Serif" font-size="11.00" fill="#000000">[table]</text>
<polygon fill="none" stroke="#000000" points="586.5,-773.7 586.5,-795.7 709.5,-795.7 709.5,-773.7 586.5,-773.7"/>
<image xlink:href="../../images/primaryKeys.png" width="11px" height="12px" preserveAspectRatio="xMinYMin meet" x="591.5" y="-790.7"/>
<text text-anchor="start" x="606.5" y="-780.8" font-family="Helvetica,sans-Serif" font-size="11.00" fill="#000000">contacto_id</text>
<polygon fill="none" stroke="#000000" points="586.5,-751.7 586.5,-773.7 709.5,-773.7 709.5,-751.7 586.5,-751.7"/>
<image xlink:href="../../images/foreignKeys.png" width="11px" height="12px" preserveAspectRatio="xMinYMin meet" x="591.5" y="-768.7"/>
<text text-anchor="start" x="606.5" y="-758.8" font-family="Helvetica,sans-Serif" font-size="11.00" fill="#000000">persona_id</text>
<polygon fill="none" stroke="#000000" points="586.5,-729.7 586.5,-751.7 709.5,-751.7 709.5,-729.7 586.5,-729.7"/>
<image xlink:href="../../images/foreignKeys.png" width="11px" height="12px" preserveAspectRatio="xMinYMin meet" x="591.5" y="-746.7"/>
<text text-anchor="start" x="606.5" y="-736.8" font-family="Helvetica,sans-Serif" font-size="11.00" fill="#000000">organizacion_id</text>
<polygon fill="none" stroke="#000000" points="586.5,-710.7 586.5,-729.7 709.5,-729.7 709.5,-710.7 586.5,-710.7"/>
<text text-anchor="start" x="589.5" y="-716.8" font-family="Helvetica,sans-Serif" font-size="11.00" fill="#000000">...</text>
<polygon fill="#ffffff" stroke="transparent" points="586.5,-691.7 586.5,-710.7 628.5,-710.7 628.5,-691.7 586.5,-691.7"/>
<polygon fill="none" stroke="#000000" points="586.5,-691.7 586.5,-710.7 628.5,-710.7 628.5,-691.7 586.5,-691.7"/>
<text text-anchor="start" x="589.5" y="-697.8" font-family="Helvetica,sans-Serif" font-size="11.00" fill="#000000">&lt; 2</text>
<polygon fill="#ffffff" stroke="transparent" points="628.5,-691.7 628.5,-710.7 677.5,-710.7 677.5,-691.7 628.5,-691.7"/>
<polygon fill="none" stroke="#000000" points="628.5,-691.7 628.5,-710.7 677.5,-710.7 677.5,-691.7 628.5,-691.7"/>
<text text-anchor="start" x="642.1105" y="-697.8" font-family="Helvetica,sans-Serif" font-size="11.00" fill="#000000">5 rows</text>
<polygon fill="#ffffff" stroke="transparent" points="677.5,-691.7 677.5,-710.7 709.5,-710.7 709.5,-691.7 677.5,-691.7"/>
<polygon fill="none" stroke="#000000" points="677.5,-691.7 677.5,-710.7 709.5,-710.7 709.5,-691.7 677.5,-691.7"/>
<text text-anchor="start" x="690.9053" y="-697.8" font-family="Helvetica,sans-Serif" font-size="11.00" fill="#000000">5 &gt;</text>
</a>
</g>
</g>
<!-- organizaciones -->
<g id="node2" class="node">
<title>organizaciones</title>
<g id="a_node2"><a xlink:href="../../tables/organizaciones.html" xlink:title="organizaciones" target="_top">
<polygon fill="#ffffff" stroke="transparent" points="414,-652.2 414,-757.2 537,-757.2 537,-652.2 414,-652.2"/>
<polygon fill="#f5f5f5" stroke="transparent" points="414.5,-733.7 414.5,-756.7 537.5,-756.7 537.5,-733.7 414.5,-733.7"/>
<polygon fill="none" stroke="#000000" points="414.5,-733.7 414.5,-756.7 537.5,-756.7 537.5,-733.7 414.5,-733.7"/>
<text text-anchor="start" x="419.5" y="-742.8" font-family="Helvetica,sans-Serif" font-weight="bold" font-size="11.00" fill="#000000">organizaciones</text>
<text text-anchor="start" x="502.5437" y="-741.8" font-family="Helvetica,sans-Serif" font-size="11.00" fill="#000000">[table]</text>
<polygon fill="none" stroke="#000000" points="414.5,-711.7 414.5,-733.7 537.5,-733.7 537.5,-711.7 414.5,-711.7"/>
<image xlink:href="../../images/primaryKeys.png" width="11px" height="12px" preserveAspectRatio="xMinYMin meet" x="419.5" y="-728.7"/>
<text text-anchor="start" x="434.5" y="-718.8" font-family="Helvetica,sans-Serif" font-size="11.00" fill="#000000">organizacion_id</text>
<polygon fill="none" stroke="#000000" points="414.5,-689.7 414.5,-711.7 537.5,-711.7 537.5,-689.7 414.5,-689.7"/>
<image xlink:href="../../images/foreignKeys.png" width="11px" height="12px" preserveAspectRatio="xMinYMin meet" x="419.5" y="-706.7"/>
<text text-anchor="start" x="434.5" y="-696.8" font-family="Helvetica,sans-Serif" font-size="11.00" fill="#000000">persona_id</text>
<polygon fill="none" stroke="#000000" points="414.5,-670.7 414.5,-689.7 537.5,-689.7 537.5,-670.7 414.5,-670.7"/>
<text text-anchor="start" x="417.5" y="-676.8" font-family="Helvetica,sans-Serif" font-size="11.00" fill="#000000">...</text>
<polygon fill="#ffffff" stroke="transparent" points="414.5,-651.7 414.5,-670.7 456.5,-670.7 456.5,-651.7 414.5,-651.7"/>
<polygon fill="none" stroke="#000000" points="414.5,-651.7 414.5,-670.7 456.5,-670.7 456.5,-651.7 414.5,-651.7"/>
<text text-anchor="start" x="417.5" y="-657.8" font-family="Helvetica,sans-Serif" font-size="11.00" fill="#000000">&lt; 1</text>
<polygon fill="#ffffff" stroke="transparent" points="456.5,-651.7 456.5,-670.7 505.5,-670.7 505.5,-651.7 456.5,-651.7"/>
<polygon fill="none" stroke="#000000" points="456.5,-651.7 456.5,-670.7 505.5,-670.7 505.5,-651.7 456.5,-651.7"/>
<text text-anchor="start" x="470.1105" y="-657.8" font-family="Helvetica,sans-Serif" font-size="11.00" fill="#000000">0 rows</text>
<polygon fill="#ffffff" stroke="transparent" points="505.5,-651.7 505.5,-670.7 537.5,-670.7 537.5,-651.7 505.5,-651.7"/>
<polygon fill="none" stroke="#000000" points="505.5,-651.7 505.5,-670.7 537.5,-670.7 537.5,-651.7 505.5,-651.7"/>
<text text-anchor="start" x="518.9053" y="-657.8" font-family="Helvetica,sans-Serif" font-size="11.00" fill="#000000">1 &gt;</text>
</a>
</g>
</g>
<!-- contactos&#45;&gt;organizaciones -->
<g id="edge1" class="edge">
<title>contactos:w&#45;&gt;organizaciones:e</title>
<path fill="none" stroke="#000000" d="M572.3186,-737.8875C560.7124,-732.825 554.9005,-722.7 537.5,-722.7"/>
<polygon fill="#000000" stroke="#000000" points="578.6528,-739.1437 585.7997,-744.2312 582.5764,-739.9218 586.5,-740.7 586.5,-740.7 586.5,-740.7 582.5764,-739.9218 587.2003,-737.1688 578.6528,-739.1437 578.6528,-739.1437"/>
<ellipse fill="none" stroke="#000000" cx="575.514" cy="-738.5212" rx="3.2" ry="3.2"/>
</g>
<!-- personas -->
<g id="node3" class="node">
<title>personas</title>
<g id="a_node3"><a xlink:href="../../tables/personas.html" xlink:title="personas" target="_top">
<polygon fill="#ffffff" stroke="transparent" points="8,-303.7 8,-547.7 365,-547.7 365,-303.7 8,-303.7"/>
<polygon fill="#f5f5f5" stroke="transparent" points="10.5,-522.7 10.5,-545.7 363.5,-545.7 363.5,-522.7 10.5,-522.7"/>
<polygon fill="none" stroke="#000000" points="10.5,-522.7 10.5,-545.7 363.5,-545.7 363.5,-522.7 10.5,-522.7"/>
<text text-anchor="start" x="15.5" y="-531.8" font-family="Helvetica,sans-Serif" font-weight="bold" font-size="11.00" fill="#000000">personas</text>
<text text-anchor="start" x="328.5437" y="-530.8" font-family="Helvetica,sans-Serif" font-size="11.00" fill="#000000">[table]</text>
<polygon fill="none" stroke="#000000" points="10.5,-500.7 10.5,-522.7 133.5,-522.7 133.5,-500.7 10.5,-500.7"/>
<image xlink:href="../../images/primaryKeys.png" width="11px" height="12px" preserveAspectRatio="xMinYMin meet" x="15.5" y="-517.7"/>
<text text-anchor="start" x="30.5" y="-507.8" font-family="Helvetica,sans-Serif" font-size="11.00" fill="#000000">persona_id</text>
<polygon fill="none" stroke="#000000" points="133.5,-500.7 133.5,-522.7 363.5,-522.7 363.5,-500.7 133.5,-500.7"/>
<text text-anchor="start" x="136.5" y="-508.4" font-family="Helvetica,sans-Serif" font-size="11.00" fill="#000000">serial[10]</text>
<polygon fill="none" stroke="#000000" points="10.5,-478.7 10.5,-500.7 133.5,-500.7 133.5,-478.7 10.5,-478.7"/>
<text text-anchor="start" x="30.5" y="-485.8" font-family="Helvetica,sans-Serif" font-size="11.00" fill="#000000">nombre</text>
<polygon fill="none" stroke="#000000" points="133.5,-478.7 133.5,-500.7 363.5,-500.7 363.5,-478.7 133.5,-478.7"/>
<text text-anchor="start" x="136.5" y="-486.4" font-family="Helvetica,sans-Serif" font-size="11.00" fill="#000000">varchar[255]</text>
<polygon fill="none" stroke="#000000" points="10.5,-456.7 10.5,-478.7 133.5,-478.7 133.5,-456.7 10.5,-456.7"/>
<text text-anchor="start" x="30.5" y="-463.8" font-family="Helvetica,sans-Serif" font-size="11.00" fill="#000000">email</text>
<polygon fill="none" stroke="#000000" points="133.5,-456.7 133.5,-478.7 363.5,-478.7 363.5,-456.7 133.5,-456.7"/>
<text text-anchor="start" x="136.5" y="-464.4" font-family="Helvetica,sans-Serif" font-size="11.00" fill="#000000">varchar[60]</text>
<polygon fill="none" stroke="#000000" points="10.5,-434.7 10.5,-456.7 133.5,-456.7 133.5,-434.7 10.5,-434.7"/>
<text text-anchor="start" x="30.5" y="-441.8" font-family="Helvetica,sans-Serif" font-size="11.00" fill="#000000">nro_documento</text>
<polygon fill="none" stroke="#000000" points="133.5,-434.7 133.5,-456.7 363.5,-456.7 363.5,-434.7 133.5,-434.7"/>
<text text-anchor="start" x="136.5" y="-442.4" font-family="Helvetica,sans-Serif" font-size="11.00" fill="#000000">varchar[20]</text>
<polygon fill="none" stroke="#000000" points="10.5,-412.7 10.5,-434.7 133.5,-434.7 133.5,-412.7 10.5,-412.7"/>
<text text-anchor="start" x="30.5" y="-419.8" font-family="Helvetica,sans-Serif" font-size="11.00" fill="#000000">tip_documento</text>
<polygon fill="none" stroke="#000000" points="133.5,-412.7 133.5,-434.7 363.5,-434.7 363.5,-412.7 133.5,-412.7"/>
<text text-anchor="start" x="136.3143" y="-420.4" font-family="Helvetica,sans-Serif" font-size="11.00" fill="#000000">enum_personas_tip_documento[2147483647]</text>
<polygon fill="none" stroke="#000000" points="10.5,-390.7 10.5,-412.7 133.5,-412.7 133.5,-390.7 10.5,-390.7"/>
<text text-anchor="start" x="30.5" y="-397.8" font-family="Helvetica,sans-Serif" font-size="11.00" fill="#000000">usu_insercion</text>
<polygon fill="none" stroke="#000000" points="133.5,-390.7 133.5,-412.7 363.5,-412.7 363.5,-390.7 133.5,-390.7"/>
<text text-anchor="start" x="136.5" y="-398.4" font-family="Helvetica,sans-Serif" font-size="11.00" fill="#000000">varchar[20]</text>
<polygon fill="none" stroke="#000000" points="10.5,-368.7 10.5,-390.7 133.5,-390.7 133.5,-368.7 10.5,-368.7"/>
<text text-anchor="start" x="30.5" y="-375.8" font-family="Helvetica,sans-Serif" font-size="11.00" fill="#000000">fec_insercion</text>
<polygon fill="none" stroke="#000000" points="133.5,-368.7 133.5,-390.7 363.5,-390.7 363.5,-368.7 133.5,-368.7"/>
<text text-anchor="start" x="136.5" y="-376.4" font-family="Helvetica,sans-Serif" font-size="11.00" fill="#000000">timestamptz[35,6]</text>
<polygon fill="none" stroke="#000000" points="10.5,-346.7 10.5,-368.7 133.5,-368.7 133.5,-346.7 10.5,-346.7"/>
<text text-anchor="start" x="30.5" y="-353.8" font-family="Helvetica,sans-Serif" font-size="11.00" fill="#000000">fec_modificacion</text>
<polygon fill="none" stroke="#000000" points="133.5,-346.7 133.5,-368.7 363.5,-368.7 363.5,-346.7 133.5,-346.7"/>
<text text-anchor="start" x="136.5" y="-354.4" font-family="Helvetica,sans-Serif" font-size="11.00" fill="#000000">timestamptz[35,6]</text>
<polygon fill="none" stroke="#000000" points="10.5,-324.7 10.5,-346.7 133.5,-346.7 133.5,-324.7 10.5,-324.7"/>
<text text-anchor="start" x="30.5" y="-331.8" font-family="Helvetica,sans-Serif" font-size="11.00" fill="#000000">usu_modificacion</text>
<polygon fill="none" stroke="#000000" points="133.5,-324.7 133.5,-346.7 363.5,-346.7 363.5,-324.7 133.5,-324.7"/>
<text text-anchor="start" x="136.5" y="-332.4" font-family="Helvetica,sans-Serif" font-size="11.00" fill="#000000">varchar[20]</text>
<polygon fill="#ffffff" stroke="transparent" points="10.5,-305.7 10.5,-324.7 63.5,-324.7 63.5,-305.7 10.5,-305.7"/>
<polygon fill="none" stroke="#000000" points="10.5,-305.7 10.5,-324.7 63.5,-324.7 63.5,-305.7 10.5,-305.7"/>
<text text-anchor="start" x="13.5" y="-311.8" font-family="Helvetica,sans-Serif" font-size="11.00" fill="#000000">&lt; 0</text>
<polygon fill="#ffffff" stroke="transparent" points="63.5,-305.7 63.5,-324.7 133.5,-324.7 133.5,-305.7 63.5,-305.7"/>
<polygon fill="none" stroke="#000000" points="63.5,-305.7 63.5,-324.7 133.5,-324.7 133.5,-305.7 63.5,-305.7"/>
<text text-anchor="start" x="98.1105" y="-311.8" font-family="Helvetica,sans-Serif" font-size="11.00" fill="#000000">5 rows</text>
<polygon fill="#ffffff" stroke="transparent" points="133.5,-305.7 133.5,-324.7 363.5,-324.7 363.5,-305.7 133.5,-305.7"/>
<polygon fill="none" stroke="#000000" points="133.5,-305.7 133.5,-324.7 363.5,-324.7 363.5,-305.7 133.5,-305.7"/>
<text text-anchor="start" x="344.9053" y="-311.8" font-family="Helvetica,sans-Serif" font-size="11.00" fill="#000000">6 &gt;</text>
<polygon fill="none" stroke="#000000" stroke-width="2" points="9,-304.7 9,-546.7 364,-546.7 364,-304.7 9,-304.7"/>
</a>
</g>
</g>
<!-- contactos&#45;&gt;personas -->
<g id="edge2" class="edge">
<title>contactos:w&#45;&gt;personas:e</title>
<path fill="none" stroke="#000000" d="M572.0864,-763.6775C563.6642,-764.9054 557.6044,-766.9434 545,-767.7 483.3332,-771.4015 453.125,-807.6465 406,-767.7 362.0103,-730.4112 421.1675,-511.7 363.5,-511.7"/>
<polygon fill="#000000" stroke="#000000" points="578.5183,-763.2413 586.7436,-766.2917 582.5092,-762.9707 586.5,-762.7 586.5,-762.7 586.5,-762.7 582.5092,-762.9707 586.2564,-759.1083 578.5183,-763.2413 578.5183,-763.2413"/>
<ellipse fill="none" stroke="#000000" cx="575.3257" cy="-763.4579" rx="3.2" ry="3.2"/>
</g>
<!-- organizaciones&#45;&gt;personas -->
<g id="edge6" class="edge">
<title>organizaciones:w&#45;&gt;personas:e</title>
<path fill="none" stroke="#000000" d="M400.1817,-698.4458C342.4797,-677.1219 444.8968,-511.7 363.5,-511.7"/>
<polygon fill="#000000" stroke="#000000" points="406.5973,-699.4558 413.9401,-704.2562 410.5487,-700.0779 414.5,-700.7 414.5,-700.7 414.5,-700.7 410.5487,-700.0779 415.0599,-697.1438 406.5973,-699.4558 406.5973,-699.4558"/>
<ellipse fill="none" stroke="#000000" cx="403.4363" cy="-698.9581" rx="3.2" ry="3.2"/>
</g>
<!-- direcciones -->
<g id="node4" class="node">
<title>direcciones</title>
<g id="a_node4"><a xlink:href="../../tables/direcciones.html" xlink:title="direcciones" target="_top">
<polygon fill="#ffffff" stroke="transparent" points="414,-526.2 414,-631.2 537,-631.2 537,-526.2 414,-526.2"/>
<polygon fill="#f5f5f5" stroke="transparent" points="414.5,-607.7 414.5,-630.7 537.5,-630.7 537.5,-607.7 414.5,-607.7"/>
<polygon fill="none" stroke="#000000" points="414.5,-607.7 414.5,-630.7 537.5,-630.7 537.5,-607.7 414.5,-607.7"/>
<text text-anchor="start" x="419.5" y="-616.8" font-family="Helvetica,sans-Serif" font-weight="bold" font-size="11.00" fill="#000000">direcciones</text>
<text text-anchor="start" x="502.5437" y="-615.8" font-family="Helvetica,sans-Serif" font-size="11.00" fill="#000000">[table]</text>
<polygon fill="none" stroke="#000000" points="414.5,-585.7 414.5,-607.7 537.5,-607.7 537.5,-585.7 414.5,-585.7"/>
<image xlink:href="../../images/primaryKeys.png" width="11px" height="12px" preserveAspectRatio="xMinYMin meet" x="419.5" y="-602.7"/>
<text text-anchor="start" x="434.5" y="-592.8" font-family="Helvetica,sans-Serif" font-size="11.00" fill="#000000">direccion_id</text>
<polygon fill="none" stroke="#000000" points="414.5,-563.7 414.5,-585.7 537.5,-585.7 537.5,-563.7 414.5,-563.7"/>
<image xlink:href="../../images/foreignKeys.png" width="11px" height="12px" preserveAspectRatio="xMinYMin meet" x="419.5" y="-580.7"/>
<text text-anchor="start" x="434.5" y="-570.8" font-family="Helvetica,sans-Serif" font-size="11.00" fill="#000000">persona_id</text>
<polygon fill="none" stroke="#000000" points="414.5,-544.7 414.5,-563.7 537.5,-563.7 537.5,-544.7 414.5,-544.7"/>
<text text-anchor="start" x="417.5" y="-550.8" font-family="Helvetica,sans-Serif" font-size="11.00" fill="#000000">...</text>
<polygon fill="#ffffff" stroke="transparent" points="414.5,-525.7 414.5,-544.7 464.5,-544.7 464.5,-525.7 414.5,-525.7"/>
<polygon fill="none" stroke="#000000" points="414.5,-525.7 414.5,-544.7 464.5,-544.7 464.5,-525.7 414.5,-525.7"/>
<text text-anchor="start" x="417.5" y="-531.8" font-family="Helvetica,sans-Serif" font-size="11.00" fill="#000000">&lt; 1</text>
<polygon fill="#ffffff" stroke="transparent" points="464.5,-525.7 464.5,-544.7 510.5,-544.7 510.5,-525.7 464.5,-525.7"/>
<polygon fill="none" stroke="#000000" points="464.5,-525.7 464.5,-544.7 510.5,-544.7 510.5,-525.7 464.5,-525.7"/>
<text text-anchor="start" x="480.6105" y="-531.8" font-family="Helvetica,sans-Serif" font-size="11.00" fill="#000000">1 row</text>
<polygon fill="#ffffff" stroke="transparent" points="510.5,-525.7 510.5,-544.7 537.5,-544.7 537.5,-525.7 510.5,-525.7"/>
<polygon fill="none" stroke="#000000" points="510.5,-525.7 510.5,-544.7 537.5,-544.7 537.5,-525.7 510.5,-525.7"/>
<text text-anchor="start" x="528.3862" y="-531.8" font-family="Helvetica,sans-Serif" font-size="11.00" fill="#000000"> &#160;</text>
</a>
</g>
</g>
<!-- direcciones&#45;&gt;personas -->
<g id="edge3" class="edge">
<title>direcciones:w&#45;&gt;personas:e</title>
<path fill="none" stroke="#000000" d="M400.4033,-569.7565C384.025,-554.9048 393.3329,-511.7 363.5,-511.7"/>
<polygon fill="#000000" stroke="#000000" points="406.9507,-572.0526 413.3087,-578.0972 410.7254,-573.3763 414.5,-574.7 414.5,-574.7 414.5,-574.7 410.7254,-573.3763 415.6913,-571.3028 406.9507,-572.0526 406.9507,-572.0526"/>
<ellipse fill="none" stroke="#000000" cx="403.931" cy="-570.9936" rx="3.2" ry="3.2"/>
</g>
<!-- empleados -->
<g id="node5" class="node">
<title>empleados</title>
<g id="a_node5"><a xlink:href="../../tables/empleados.html" xlink:title="empleados" target="_top">
<polygon fill="#ffffff" stroke="transparent" points="414,-378.2 414,-505.2 537,-505.2 537,-378.2 414,-378.2"/>
<polygon fill="#f5f5f5" stroke="transparent" points="414.5,-481.7 414.5,-504.7 537.5,-504.7 537.5,-481.7 414.5,-481.7"/>
<polygon fill="none" stroke="#000000" points="414.5,-481.7 414.5,-504.7 537.5,-504.7 537.5,-481.7 414.5,-481.7"/>
<text text-anchor="start" x="419.5" y="-490.8" font-family="Helvetica,sans-Serif" font-weight="bold" font-size="11.00" fill="#000000">empleados</text>
<text text-anchor="start" x="502.5437" y="-489.8" font-family="Helvetica,sans-Serif" font-size="11.00" fill="#000000">[table]</text>
<polygon fill="none" stroke="#000000" points="414.5,-459.7 414.5,-481.7 537.5,-481.7 537.5,-459.7 414.5,-459.7"/>
<image xlink:href="../../images/primaryKeys.png" width="11px" height="12px" preserveAspectRatio="xMinYMin meet" x="419.5" y="-476.7"/>
<text text-anchor="start" x="434.5" y="-466.8" font-family="Helvetica,sans-Serif" font-size="11.00" fill="#000000">empleado_id</text>
<polygon fill="none" stroke="#000000" points="414.5,-437.7 414.5,-459.7 537.5,-459.7 537.5,-437.7 414.5,-437.7"/>
<image xlink:href="../../images/foreignKeys.png" width="11px" height="12px" preserveAspectRatio="xMinYMin meet" x="419.5" y="-454.7"/>
<text text-anchor="start" x="434.5" y="-444.8" font-family="Helvetica,sans-Serif" font-size="11.00" fill="#000000">persona_id</text>
<polygon fill="none" stroke="#000000" points="414.5,-415.7 414.5,-437.7 537.5,-437.7 537.5,-415.7 414.5,-415.7"/>
<image xlink:href="../../images/foreignKeys.png" width="11px" height="12px" preserveAspectRatio="xMinYMin meet" x="419.5" y="-432.7"/>
<text text-anchor="start" x="434.5" y="-422.8" font-family="Helvetica,sans-Serif" font-size="11.00" fill="#000000">usuario_id</text>
<polygon fill="none" stroke="#000000" points="414.5,-396.7 414.5,-415.7 537.5,-415.7 537.5,-396.7 414.5,-396.7"/>
<text text-anchor="start" x="417.5" y="-402.8" font-family="Helvetica,sans-Serif" font-size="11.00" fill="#000000">...</text>
<polygon fill="#ffffff" stroke="transparent" points="414.5,-377.7 414.5,-396.7 464.5,-396.7 464.5,-377.7 414.5,-377.7"/>
<polygon fill="none" stroke="#000000" points="414.5,-377.7 414.5,-396.7 464.5,-396.7 464.5,-377.7 414.5,-377.7"/>
<text text-anchor="start" x="417.5" y="-383.8" font-family="Helvetica,sans-Serif" font-size="11.00" fill="#000000">&lt; 2</text>
<polygon fill="#ffffff" stroke="transparent" points="464.5,-377.7 464.5,-396.7 510.5,-396.7 510.5,-377.7 464.5,-377.7"/>
<polygon fill="none" stroke="#000000" points="464.5,-377.7 464.5,-396.7 510.5,-396.7 510.5,-377.7 464.5,-377.7"/>
<text text-anchor="start" x="480.6105" y="-383.8" font-family="Helvetica,sans-Serif" font-size="11.00" fill="#000000">1 row</text>
<polygon fill="#ffffff" stroke="transparent" points="510.5,-377.7 510.5,-396.7 537.5,-396.7 537.5,-377.7 510.5,-377.7"/>
<polygon fill="none" stroke="#000000" points="510.5,-377.7 510.5,-396.7 537.5,-396.7 537.5,-377.7 510.5,-377.7"/>
<text text-anchor="start" x="528.3862" y="-383.8" font-family="Helvetica,sans-Serif" font-size="11.00" fill="#000000"> &#160;</text>
</a>
</g>
</g>
<!-- empleados&#45;&gt;personas -->
<g id="edge4" class="edge">
<title>empleados:w&#45;&gt;personas:e</title>
<path fill="none" stroke="#000000" d="M400.4033,-453.6435C384.025,-468.4952 393.3329,-511.7 363.5,-511.7"/>
<polygon fill="#000000" stroke="#000000" points="406.9507,-451.3474 415.6913,-452.0972 410.7254,-450.0237 414.5,-448.7 414.5,-448.7 414.5,-448.7 410.7254,-450.0237 413.3087,-445.3028 406.9507,-451.3474 406.9507,-451.3474"/>
<ellipse fill="none" stroke="#000000" cx="403.931" cy="-452.4064" rx="3.2" ry="3.2"/>
</g>
<!-- leads -->
<g id="node6" class="node">
<title>leads</title>
<g id="a_node6"><a xlink:href="../../tables/leads.html" xlink:title="leads" target="_top">
<polygon fill="#ffffff" stroke="transparent" points="414,-164.2 414,-357.2 537,-357.2 537,-164.2 414,-164.2"/>
<polygon fill="#f5f5f5" stroke="transparent" points="414.5,-333.7 414.5,-356.7 537.5,-356.7 537.5,-333.7 414.5,-333.7"/>
<polygon fill="none" stroke="#000000" points="414.5,-333.7 414.5,-356.7 537.5,-356.7 537.5,-333.7 414.5,-333.7"/>
<text text-anchor="start" x="419.5" y="-342.8" font-family="Helvetica,sans-Serif" font-weight="bold" font-size="11.00" fill="#000000">leads</text>
<text text-anchor="start" x="502.5437" y="-341.8" font-family="Helvetica,sans-Serif" font-size="11.00" fill="#000000">[table]</text>
<polygon fill="none" stroke="#000000" points="414.5,-311.7 414.5,-333.7 537.5,-333.7 537.5,-311.7 414.5,-311.7"/>
<image xlink:href="../../images/primaryKeys.png" width="11px" height="12px" preserveAspectRatio="xMinYMin meet" x="419.5" y="-328.7"/>
<text text-anchor="start" x="434.5" y="-318.8" font-family="Helvetica,sans-Serif" font-size="11.00" fill="#000000">lead_id</text>
<polygon fill="none" stroke="#000000" points="414.5,-289.7 414.5,-311.7 537.5,-311.7 537.5,-289.7 414.5,-289.7"/>
<image xlink:href="../../images/foreignKeys.png" width="11px" height="12px" preserveAspectRatio="xMinYMin meet" x="419.5" y="-306.7"/>
<text text-anchor="start" x="434.5" y="-296.8" font-family="Helvetica,sans-Serif" font-size="11.00" fill="#000000">usu_asignado_id</text>
<polygon fill="none" stroke="#000000" points="414.5,-267.7 414.5,-289.7 537.5,-289.7 537.5,-267.7 414.5,-267.7"/>
<image xlink:href="../../images/foreignKeys.png" width="11px" height="12px" preserveAspectRatio="xMinYMin meet" x="419.5" y="-284.7"/>
<text text-anchor="start" x="434.5" y="-274.8" font-family="Helvetica,sans-Serif" font-size="11.00" fill="#000000">campana_id</text>
<polygon fill="none" stroke="#000000" points="414.5,-245.7 414.5,-267.7 537.5,-267.7 537.5,-245.7 414.5,-245.7"/>
<image xlink:href="../../images/foreignKeys.png" width="11px" height="12px" preserveAspectRatio="xMinYMin meet" x="419.5" y="-262.7"/>
<text text-anchor="start" x="434.5" y="-252.8" font-family="Helvetica,sans-Serif" font-size="11.00" fill="#000000">persona_id</text>
<polygon fill="none" stroke="#000000" points="414.5,-223.7 414.5,-245.7 537.5,-245.7 537.5,-223.7 414.5,-223.7"/>
<image xlink:href="../../images/foreignKeys.png" width="11px" height="12px" preserveAspectRatio="xMinYMin meet" x="419.5" y="-240.7"/>
<text text-anchor="start" x="434.5" y="-230.8" font-family="Helvetica,sans-Serif" font-size="11.00" fill="#000000">curso_id</text>
<polygon fill="none" stroke="#000000" points="414.5,-201.7 414.5,-223.7 537.5,-223.7 537.5,-201.7 414.5,-201.7"/>
<image xlink:href="../../images/foreignKeys.png" width="11px" height="12px" preserveAspectRatio="xMinYMin meet" x="419.5" y="-218.7"/>
<text text-anchor="start" x="434.5" y="-208.8" font-family="Helvetica,sans-Serif" font-size="11.00" fill="#000000">ciclo_id</text>
<polygon fill="none" stroke="#000000" points="414.5,-182.7 414.5,-201.7 537.5,-201.7 537.5,-182.7 414.5,-182.7"/>
<text text-anchor="start" x="417.5" y="-188.8" font-family="Helvetica,sans-Serif" font-size="11.00" fill="#000000">...</text>
<polygon fill="#ffffff" stroke="transparent" points="414.5,-163.7 414.5,-182.7 456.5,-182.7 456.5,-163.7 414.5,-163.7"/>
<polygon fill="none" stroke="#000000" points="414.5,-163.7 414.5,-182.7 456.5,-182.7 456.5,-163.7 414.5,-163.7"/>
<text text-anchor="start" x="417.5" y="-169.8" font-family="Helvetica,sans-Serif" font-size="11.00" fill="#000000">&lt; 5</text>
<polygon fill="#ffffff" stroke="transparent" points="456.5,-163.7 456.5,-182.7 505.5,-182.7 505.5,-163.7 456.5,-163.7"/>
<polygon fill="none" stroke="#000000" points="456.5,-163.7 456.5,-182.7 505.5,-182.7 505.5,-163.7 456.5,-163.7"/>
<text text-anchor="start" x="470.1105" y="-169.8" font-family="Helvetica,sans-Serif" font-size="11.00" fill="#000000">4 rows</text>
<polygon fill="#ffffff" stroke="transparent" points="505.5,-163.7 505.5,-182.7 537.5,-182.7 537.5,-163.7 505.5,-163.7"/>
<polygon fill="none" stroke="#000000" points="505.5,-163.7 505.5,-182.7 537.5,-182.7 537.5,-163.7 505.5,-163.7"/>
<text text-anchor="start" x="518.9053" y="-169.8" font-family="Helvetica,sans-Serif" font-size="11.00" fill="#000000">3 &gt;</text>
</a>
</g>
</g>
<!-- leads&#45;&gt;personas -->
<g id="edge5" class="edge">
<title>leads:w&#45;&gt;personas:e</title>
<path fill="none" stroke="#000000" d="M400.1354,-258.3284C315.162,-280.0459 473.6601,-511.7 363.5,-511.7"/>
<polygon fill="#000000" stroke="#000000" points="406.5509,-257.6012 414.9055,-260.2771 410.5255,-257.1506 414.5,-256.7 414.5,-256.7 414.5,-256.7 410.5255,-257.1506 414.0945,-253.1229 406.5509,-257.6012 406.5509,-257.6012"/>
<ellipse fill="none" stroke="#000000" cx="403.3713" cy="-257.9616" rx="3.2" ry="3.2"/>
</g>
<!-- telefonos -->
<g id="node7" class="node">
<title>telefonos</title>
<g id="a_node7"><a xlink:href="../../tables/telefonos.html" xlink:title="telefonos" target="_top">
<polygon fill="#ffffff" stroke="transparent" points="414,-38.2 414,-143.2 537,-143.2 537,-38.2 414,-38.2"/>
<polygon fill="#f5f5f5" stroke="transparent" points="414.5,-119.7 414.5,-142.7 537.5,-142.7 537.5,-119.7 414.5,-119.7"/>
<polygon fill="none" stroke="#000000" points="414.5,-119.7 414.5,-142.7 537.5,-142.7 537.5,-119.7 414.5,-119.7"/>
<text text-anchor="start" x="419.5" y="-128.8" font-family="Helvetica,sans-Serif" font-weight="bold" font-size="11.00" fill="#000000">telefonos</text>
<text text-anchor="start" x="502.5437" y="-127.8" font-family="Helvetica,sans-Serif" font-size="11.00" fill="#000000">[table]</text>
<polygon fill="none" stroke="#000000" points="414.5,-97.7 414.5,-119.7 537.5,-119.7 537.5,-97.7 414.5,-97.7"/>
<image xlink:href="../../images/primaryKeys.png" width="11px" height="12px" preserveAspectRatio="xMinYMin meet" x="419.5" y="-114.7"/>
<text text-anchor="start" x="434.5" y="-104.8" font-family="Helvetica,sans-Serif" font-size="11.00" fill="#000000">telefono_id</text>
<polygon fill="none" stroke="#000000" points="414.5,-75.7 414.5,-97.7 537.5,-97.7 537.5,-75.7 414.5,-75.7"/>
<image xlink:href="../../images/foreignKeys.png" width="11px" height="12px" preserveAspectRatio="xMinYMin meet" x="419.5" y="-92.7"/>
<text text-anchor="start" x="434.5" y="-82.8" font-family="Helvetica,sans-Serif" font-size="11.00" fill="#000000">persona_id</text>
<polygon fill="none" stroke="#000000" points="414.5,-56.7 414.5,-75.7 537.5,-75.7 537.5,-56.7 414.5,-56.7"/>
<text text-anchor="start" x="417.5" y="-62.8" font-family="Helvetica,sans-Serif" font-size="11.00" fill="#000000">...</text>
<polygon fill="#ffffff" stroke="transparent" points="414.5,-37.7 414.5,-56.7 464.5,-56.7 464.5,-37.7 414.5,-37.7"/>
<polygon fill="none" stroke="#000000" points="414.5,-37.7 414.5,-56.7 464.5,-56.7 464.5,-37.7 414.5,-37.7"/>
<text text-anchor="start" x="417.5" y="-43.8" font-family="Helvetica,sans-Serif" font-size="11.00" fill="#000000">&lt; 1</text>
<polygon fill="#ffffff" stroke="transparent" points="464.5,-37.7 464.5,-56.7 510.5,-56.7 510.5,-37.7 464.5,-37.7"/>
<polygon fill="none" stroke="#000000" points="464.5,-37.7 464.5,-56.7 510.5,-56.7 510.5,-37.7 464.5,-37.7"/>
<text text-anchor="start" x="480.6105" y="-43.8" font-family="Helvetica,sans-Serif" font-size="11.00" fill="#000000">1 row</text>
<polygon fill="#ffffff" stroke="transparent" points="510.5,-37.7 510.5,-56.7 537.5,-56.7 537.5,-37.7 510.5,-37.7"/>
<polygon fill="none" stroke="#000000" points="510.5,-37.7 510.5,-56.7 537.5,-56.7 537.5,-37.7 510.5,-37.7"/>
<text text-anchor="start" x="528.3862" y="-43.8" font-family="Helvetica,sans-Serif" font-size="11.00" fill="#000000"> &#160;</text>
</a>
</g>
</g>
<!-- telefonos&#45;&gt;personas -->
<g id="edge7" class="edge">
<title>telefonos:w&#45;&gt;personas:e</title>
<path fill="none" stroke="#000000" d="M400.5072,-90.6359C334.3998,-133.4811 453.2342,-511.7 363.5,-511.7"/>
<polygon fill="#000000" stroke="#000000" points="406.7989,-88.8662 415.4748,-90.1655 410.6494,-87.7831 414.5,-86.7 414.5,-86.7 414.5,-86.7 410.6494,-87.7831 413.5252,-83.2345 406.7989,-88.8662 406.7989,-88.8662"/>
<ellipse fill="none" stroke="#000000" cx="403.7184" cy="-89.7327" rx="3.2" ry="3.2"/>
</g>
</g>
</svg>
