<?xml version="1.0" encoding="UTF-8" standalone="no"?>
<!DOCTYPE svg PUBLIC "-//W3C//DTD SVG 1.1//EN"
 "http://www.w3.org/Graphics/SVG/1.1/DTD/svg11.dtd">
<!-- Generated by graphviz version 2.40.1 (20161225.0304)
 -->
<!-- Title: oneDegreeRelationshipsDiagram Pages: 1 -->
<svg width="725pt" height="935pt"
 viewBox="0.00 0.00 725.00 935.20" xmlns="http://www.w3.org/2000/svg" xmlns:xlink="http://www.w3.org/1999/xlink">
<g id="graph0" class="graph" transform="scale(1 1) rotate(0) translate(4 931.2)">
<title>oneDegreeRelationshipsDiagram</title>
<polygon fill="#ffffff" stroke="transparent" points="-4,4 -4,-931.2 721,-931.2 721,4 -4,4"/>
<text text-anchor="middle" x="72.4936" y="-7.3" font-family="Helvetica,sans-Serif" font-size="11.00" fill="#000000">Generated by SchemaSpy</text>
<!-- contactos -->
<g id="node1" class="node">
<title>contactos</title>
<g id="a_node1"><a xlink:href="../../tables/contactos.html" xlink:title="contactos" target="_top">
<polygon fill="#ffffff" stroke="transparent" points="586,-796.2 586,-923.2 709,-923.2 709,-796.2 586,-796.2"/>
<polygon fill="#f5f5f5" stroke="transparent" points="586.5,-899.7 586.5,-922.7 709.5,-922.7 709.5,-899.7 586.5,-899.7"/>
<polygon fill="none" stroke="#000000" points="586.5,-899.7 586.5,-922.7 709.5,-922.7 709.5,-899.7 586.5,-899.7"/>
<text text-anchor="start" x="591.5" y="-908.8" font-family="Helvetica,sans-Serif" font-weight="bold" font-size="11.00" fill="#000000">contactos</text>
<text text-anchor="start" x="674.5437" y="-907.8" font-family="Helvetica,sans-Serif" font-size="11.00" fill="#000000">[table]</text>
<polygon fill="none" stroke="#000000" points="586.5,-877.7 586.5,-899.7 709.5,-899.7 709.5,-877.7 586.5,-877.7"/>
<image xlink:href="../../images/primaryKeys.png" width="11px" height="12px" preserveAspectRatio="xMinYMin meet" x="591.5" y="-894.7"/>
<text text-anchor="start" x="606.5" y="-884.8" font-family="Helvetica,sans-Serif" font-size="11.00" fill="#000000">contacto_id</text>
<polygon fill="none" stroke="#000000" points="586.5,-855.7 586.5,-877.7 709.5,-877.7 709.5,-855.7 586.5,-855.7"/>
<image xlink:href="../../images/foreignKeys.png" width="11px" height="12px" preserveAspectRatio="xMinYMin meet" x="591.5" y="-872.7"/>
<text text-anchor="start" x="606.5" y="-862.8" font-family="Helvetica,sans-Serif" font-size="11.00" fill="#000000">persona_id</text>
<polygon fill="none" stroke="#000000" points="586.5,-833.7 586.5,-855.7 709.5,-855.7 709.5,-833.7 586.5,-833.7"/>
<image xlink:href="../../images/foreignKeys.png" width="11px" height="12px" preserveAspectRatio="xMinYMin meet" x="591.5" y="-850.7"/>
<text text-anchor="start" x="606.5" y="-840.8" font-family="Helvetica,sans-Serif" font-size="11.00" fill="#000000">organizacion_id</text>
<polygon fill="none" stroke="#000000" points="586.5,-814.7 586.5,-833.7 709.5,-833.7 709.5,-814.7 586.5,-814.7"/>
<text text-anchor="start" x="589.5" y="-820.8" font-family="Helvetica,sans-Serif" font-size="11.00" fill="#000000">...</text>
<polygon fill="#ffffff" stroke="transparent" points="586.5,-795.7 586.5,-814.7 628.5,-814.7 628.5,-795.7 586.5,-795.7"/>
<polygon fill="none" stroke="#000000" points="586.5,-795.7 586.5,-814.7 628.5,-814.7 628.5,-795.7 586.5,-795.7"/>
<text text-anchor="start" x="589.5" y="-801.8" font-family="Helvetica,sans-Serif" font-size="11.00" fill="#000000">&lt; 2</text>
<polygon fill="#ffffff" stroke="transparent" points="628.5,-795.7 628.5,-814.7 677.5,-814.7 677.5,-795.7 628.5,-795.7"/>
<polygon fill="none" stroke="#000000" points="628.5,-795.7 628.5,-814.7 677.5,-814.7 677.5,-795.7 628.5,-795.7"/>
<text text-anchor="start" x="642.1105" y="-801.8" font-family="Helvetica,sans-Serif" font-size="11.00" fill="#000000">2 rows</text>
<polygon fill="#ffffff" stroke="transparent" points="677.5,-795.7 677.5,-814.7 709.5,-814.7 709.5,-795.7 677.5,-795.7"/>
<polygon fill="none" stroke="#000000" points="677.5,-795.7 677.5,-814.7 709.5,-814.7 709.5,-795.7 677.5,-795.7"/>
<text text-anchor="start" x="690.9053" y="-801.8" font-family="Helvetica,sans-Serif" font-size="11.00" fill="#000000">5 &gt;</text>
</a>
</g>
</g>
<!-- organizaciones -->
<g id="node2" class="node">
<title>organizaciones</title>
<g id="a_node2"><a xlink:href="../../tables/organizaciones.html" xlink:title="organizaciones" target="_top">
<polygon fill="#ffffff" stroke="transparent" points="414,-756.2 414,-861.2 537,-861.2 537,-756.2 414,-756.2"/>
<polygon fill="#f5f5f5" stroke="transparent" points="414.5,-837.7 414.5,-860.7 537.5,-860.7 537.5,-837.7 414.5,-837.7"/>
<polygon fill="none" stroke="#000000" points="414.5,-837.7 414.5,-860.7 537.5,-860.7 537.5,-837.7 414.5,-837.7"/>
<text text-anchor="start" x="419.5" y="-846.8" font-family="Helvetica,sans-Serif" font-weight="bold" font-size="11.00" fill="#000000">organizaciones</text>
<text text-anchor="start" x="502.5437" y="-845.8" font-family="Helvetica,sans-Serif" font-size="11.00" fill="#000000">[table]</text>
<polygon fill="none" stroke="#000000" points="414.5,-815.7 414.5,-837.7 537.5,-837.7 537.5,-815.7 414.5,-815.7"/>
<image xlink:href="../../images/primaryKeys.png" width="11px" height="12px" preserveAspectRatio="xMinYMin meet" x="419.5" y="-832.7"/>
<text text-anchor="start" x="434.5" y="-822.8" font-family="Helvetica,sans-Serif" font-size="11.00" fill="#000000">organizacion_id</text>
<polygon fill="none" stroke="#000000" points="414.5,-793.7 414.5,-815.7 537.5,-815.7 537.5,-793.7 414.5,-793.7"/>
<image xlink:href="../../images/foreignKeys.png" width="11px" height="12px" preserveAspectRatio="xMinYMin meet" x="419.5" y="-810.7"/>
<text text-anchor="start" x="434.5" y="-800.8" font-family="Helvetica,sans-Serif" font-size="11.00" fill="#000000">persona_id</text>
<polygon fill="none" stroke="#000000" points="414.5,-774.7 414.5,-793.7 537.5,-793.7 537.5,-774.7 414.5,-774.7"/>
<text text-anchor="start" x="417.5" y="-780.8" font-family="Helvetica,sans-Serif" font-size="11.00" fill="#000000">...</text>
<polygon fill="#ffffff" stroke="transparent" points="414.5,-755.7 414.5,-774.7 456.5,-774.7 456.5,-755.7 414.5,-755.7"/>
<polygon fill="none" stroke="#000000" points="414.5,-755.7 414.5,-774.7 456.5,-774.7 456.5,-755.7 414.5,-755.7"/>
<text text-anchor="start" x="417.5" y="-761.8" font-family="Helvetica,sans-Serif" font-size="11.00" fill="#000000">&lt; 1</text>
<polygon fill="#ffffff" stroke="transparent" points="456.5,-755.7 456.5,-774.7 505.5,-774.7 505.5,-755.7 456.5,-755.7"/>
<polygon fill="none" stroke="#000000" points="456.5,-755.7 456.5,-774.7 505.5,-774.7 505.5,-755.7 456.5,-755.7"/>
<text text-anchor="start" x="470.1105" y="-761.8" font-family="Helvetica,sans-Serif" font-size="11.00" fill="#000000">2 rows</text>
<polygon fill="#ffffff" stroke="transparent" points="505.5,-755.7 505.5,-774.7 537.5,-774.7 537.5,-755.7 505.5,-755.7"/>
<polygon fill="none" stroke="#000000" points="505.5,-755.7 505.5,-774.7 537.5,-774.7 537.5,-755.7 505.5,-755.7"/>
<text text-anchor="start" x="518.9053" y="-761.8" font-family="Helvetica,sans-Serif" font-size="11.00" fill="#000000">1 &gt;</text>
</a>
</g>
</g>
<!-- contactos&#45;&gt;organizaciones -->
<g id="edge1" class="edge">
<title>contactos:w&#45;&gt;organizaciones:e</title>
<path fill="none" stroke="#000000" d="M572.3186,-841.8875C560.7124,-836.825 554.9005,-826.7 537.5,-826.7"/>
<polygon fill="#000000" stroke="#000000" points="578.6528,-843.1437 585.7997,-848.2312 582.5764,-843.9218 586.5,-844.7 586.5,-844.7 586.5,-844.7 582.5764,-843.9218 587.2003,-841.1688 578.6528,-843.1437 578.6528,-843.1437"/>
<ellipse fill="none" stroke="#000000" cx="575.514" cy="-842.5212" rx="3.2" ry="3.2"/>
</g>
<!-- personas -->
<g id="node3" class="node">
<title>personas</title>
<g id="a_node3"><a xlink:href="../../tables/personas.html" xlink:title="personas" target="_top">
<polygon fill="#ffffff" stroke="transparent" points="8,-344.7 8,-588.7 365,-588.7 365,-344.7 8,-344.7"/>
<polygon fill="#f5f5f5" stroke="transparent" points="10.5,-563.7 10.5,-586.7 363.5,-586.7 363.5,-563.7 10.5,-563.7"/>
<polygon fill="none" stroke="#000000" points="10.5,-563.7 10.5,-586.7 363.5,-586.7 363.5,-563.7 10.5,-563.7"/>
<text text-anchor="start" x="15.5" y="-572.8" font-family="Helvetica,sans-Serif" font-weight="bold" font-size="11.00" fill="#000000">personas</text>
<text text-anchor="start" x="328.5437" y="-571.8" font-family="Helvetica,sans-Serif" font-size="11.00" fill="#000000">[table]</text>
<polygon fill="none" stroke="#000000" points="10.5,-541.7 10.5,-563.7 133.5,-563.7 133.5,-541.7 10.5,-541.7"/>
<image xlink:href="../../images/primaryKeys.png" width="11px" height="12px" preserveAspectRatio="xMinYMin meet" x="15.5" y="-558.7"/>
<text text-anchor="start" x="30.5" y="-548.8" font-family="Helvetica,sans-Serif" font-size="11.00" fill="#000000">persona_id</text>
<polygon fill="none" stroke="#000000" points="133.5,-541.7 133.5,-563.7 363.5,-563.7 363.5,-541.7 133.5,-541.7"/>
<text text-anchor="start" x="136.5" y="-549.4" font-family="Helvetica,sans-Serif" font-size="11.00" fill="#000000">serial[10]</text>
<polygon fill="none" stroke="#000000" points="10.5,-519.7 10.5,-541.7 133.5,-541.7 133.5,-519.7 10.5,-519.7"/>
<text text-anchor="start" x="30.5" y="-526.8" font-family="Helvetica,sans-Serif" font-size="11.00" fill="#000000">nombre</text>
<polygon fill="none" stroke="#000000" points="133.5,-519.7 133.5,-541.7 363.5,-541.7 363.5,-519.7 133.5,-519.7"/>
<text text-anchor="start" x="136.5" y="-527.4" font-family="Helvetica,sans-Serif" font-size="11.00" fill="#000000">varchar[255]</text>
<polygon fill="none" stroke="#000000" points="10.5,-497.7 10.5,-519.7 133.5,-519.7 133.5,-497.7 10.5,-497.7"/>
<text text-anchor="start" x="30.5" y="-504.8" font-family="Helvetica,sans-Serif" font-size="11.00" fill="#000000">email</text>
<polygon fill="none" stroke="#000000" points="133.5,-497.7 133.5,-519.7 363.5,-519.7 363.5,-497.7 133.5,-497.7"/>
<text text-anchor="start" x="136.5" y="-505.4" font-family="Helvetica,sans-Serif" font-size="11.00" fill="#000000">varchar[60]</text>
<polygon fill="none" stroke="#000000" points="10.5,-475.7 10.5,-497.7 133.5,-497.7 133.5,-475.7 10.5,-475.7"/>
<text text-anchor="start" x="30.5" y="-482.8" font-family="Helvetica,sans-Serif" font-size="11.00" fill="#000000">nro_documento</text>
<polygon fill="none" stroke="#000000" points="133.5,-475.7 133.5,-497.7 363.5,-497.7 363.5,-475.7 133.5,-475.7"/>
<text text-anchor="start" x="136.5" y="-483.4" font-family="Helvetica,sans-Serif" font-size="11.00" fill="#000000">varchar[20]</text>
<polygon fill="none" stroke="#000000" points="10.5,-453.7 10.5,-475.7 133.5,-475.7 133.5,-453.7 10.5,-453.7"/>
<text text-anchor="start" x="30.5" y="-460.8" font-family="Helvetica,sans-Serif" font-size="11.00" fill="#000000">tip_documento</text>
<polygon fill="none" stroke="#000000" points="133.5,-453.7 133.5,-475.7 363.5,-475.7 363.5,-453.7 133.5,-453.7"/>
<text text-anchor="start" x="136.3143" y="-461.4" font-family="Helvetica,sans-Serif" font-size="11.00" fill="#000000">enum_personas_tip_documento[2147483647]</text>
<polygon fill="none" stroke="#000000" points="10.5,-431.7 10.5,-453.7 133.5,-453.7 133.5,-431.7 10.5,-431.7"/>
<text text-anchor="start" x="30.5" y="-438.8" font-family="Helvetica,sans-Serif" font-size="11.00" fill="#000000">usu_insercion</text>
<polygon fill="none" stroke="#000000" points="133.5,-431.7 133.5,-453.7 363.5,-453.7 363.5,-431.7 133.5,-431.7"/>
<text text-anchor="start" x="136.5" y="-439.4" font-family="Helvetica,sans-Serif" font-size="11.00" fill="#000000">varchar[20]</text>
<polygon fill="none" stroke="#000000" points="10.5,-409.7 10.5,-431.7 133.5,-431.7 133.5,-409.7 10.5,-409.7"/>
<text text-anchor="start" x="30.5" y="-416.8" font-family="Helvetica,sans-Serif" font-size="11.00" fill="#000000">fec_insercion</text>
<polygon fill="none" stroke="#000000" points="133.5,-409.7 133.5,-431.7 363.5,-431.7 363.5,-409.7 133.5,-409.7"/>
<text text-anchor="start" x="136.5" y="-417.4" font-family="Helvetica,sans-Serif" font-size="11.00" fill="#000000">timestamptz[35,6]</text>
<polygon fill="none" stroke="#000000" points="10.5,-387.7 10.5,-409.7 133.5,-409.7 133.5,-387.7 10.5,-387.7"/>
<text text-anchor="start" x="30.5" y="-394.8" font-family="Helvetica,sans-Serif" font-size="11.00" fill="#000000">fec_modificacion</text>
<polygon fill="none" stroke="#000000" points="133.5,-387.7 133.5,-409.7 363.5,-409.7 363.5,-387.7 133.5,-387.7"/>
<text text-anchor="start" x="136.5" y="-395.4" font-family="Helvetica,sans-Serif" font-size="11.00" fill="#000000">timestamptz[35,6]</text>
<polygon fill="none" stroke="#000000" points="10.5,-365.7 10.5,-387.7 133.5,-387.7 133.5,-365.7 10.5,-365.7"/>
<text text-anchor="start" x="30.5" y="-372.8" font-family="Helvetica,sans-Serif" font-size="11.00" fill="#000000">usu_modificacion</text>
<polygon fill="none" stroke="#000000" points="133.5,-365.7 133.5,-387.7 363.5,-387.7 363.5,-365.7 133.5,-365.7"/>
<text text-anchor="start" x="136.5" y="-373.4" font-family="Helvetica,sans-Serif" font-size="11.00" fill="#000000">varchar[20]</text>
<polygon fill="#ffffff" stroke="transparent" points="10.5,-346.7 10.5,-365.7 60.5,-365.7 60.5,-346.7 10.5,-346.7"/>
<polygon fill="none" stroke="#000000" points="10.5,-346.7 10.5,-365.7 60.5,-365.7 60.5,-346.7 10.5,-346.7"/>
<text text-anchor="start" x="13.5" y="-352.8" font-family="Helvetica,sans-Serif" font-size="11.00" fill="#000000">&lt; 0</text>
<polygon fill="#ffffff" stroke="transparent" points="60.5,-346.7 60.5,-365.7 133.5,-365.7 133.5,-346.7 60.5,-346.7"/>
<polygon fill="none" stroke="#000000" points="60.5,-346.7 60.5,-365.7 133.5,-365.7 133.5,-346.7 60.5,-346.7"/>
<text text-anchor="start" x="91.9956" y="-352.8" font-family="Helvetica,sans-Serif" font-size="11.00" fill="#000000">14 rows</text>
<polygon fill="#ffffff" stroke="transparent" points="133.5,-346.7 133.5,-365.7 363.5,-365.7 363.5,-346.7 133.5,-346.7"/>
<polygon fill="none" stroke="#000000" points="133.5,-346.7 133.5,-365.7 363.5,-365.7 363.5,-346.7 133.5,-346.7"/>
<text text-anchor="start" x="344.9053" y="-352.8" font-family="Helvetica,sans-Serif" font-size="11.00" fill="#000000">7 &gt;</text>
<polygon fill="none" stroke="#000000" stroke-width="2" points="9,-345.7 9,-587.7 364,-587.7 364,-345.7 9,-345.7"/>
</a>
</g>
</g>
<!-- contactos&#45;&gt;personas -->
<g id="edge2" class="edge">
<title>contactos:w&#45;&gt;personas:e</title>
<path fill="none" stroke="#000000" d="M571.911,-867.337C501.1833,-873.5009 462.6047,-921.2635 406,-871.7 352.1955,-824.5884 435.0153,-552.7 363.5,-552.7"/>
<polygon fill="#000000" stroke="#000000" points="578.5076,-867.049 586.6571,-870.2966 582.5038,-866.8745 586.5,-866.7 586.5,-866.7 586.5,-866.7 582.5038,-866.8745 586.3429,-863.1034 578.5076,-867.049 578.5076,-867.049"/>
<ellipse fill="none" stroke="#000000" cx="575.3107" cy="-867.1886" rx="3.2" ry="3.2"/>
</g>
<!-- organizaciones&#45;&gt;personas -->
<g id="edge6" class="edge">
<title>organizaciones:w&#45;&gt;personas:e</title>
<path fill="none" stroke="#000000" d="M400.0365,-803.0242C316.5524,-781.1598 472.3026,-552.7 363.5,-552.7"/>
<polygon fill="#000000" stroke="#000000" points="406.5532,-803.7792 414.0856,-808.2761 410.5266,-804.2396 414.5,-804.7 414.5,-804.7 414.5,-804.7 410.5266,-804.2396 414.9144,-801.1239 406.5532,-803.7792 406.5532,-803.7792"/>
<ellipse fill="none" stroke="#000000" cx="403.3744" cy="-803.4108" rx="3.2" ry="3.2"/>
</g>
<!-- direcciones -->
<g id="node4" class="node">
<title>direcciones</title>
<g id="a_node4"><a xlink:href="../../tables/direcciones.html" xlink:title="direcciones" target="_top">
<polygon fill="#ffffff" stroke="transparent" points="414,-630.2 414,-735.2 537,-735.2 537,-630.2 414,-630.2"/>
<polygon fill="#f5f5f5" stroke="transparent" points="414.5,-711.7 414.5,-734.7 537.5,-734.7 537.5,-711.7 414.5,-711.7"/>
<polygon fill="none" stroke="#000000" points="414.5,-711.7 414.5,-734.7 537.5,-734.7 537.5,-711.7 414.5,-711.7"/>
<text text-anchor="start" x="419.5" y="-720.8" font-family="Helvetica,sans-Serif" font-weight="bold" font-size="11.00" fill="#000000">direcciones</text>
<text text-anchor="start" x="502.5437" y="-719.8" font-family="Helvetica,sans-Serif" font-size="11.00" fill="#000000">[table]</text>
<polygon fill="none" stroke="#000000" points="414.5,-689.7 414.5,-711.7 537.5,-711.7 537.5,-689.7 414.5,-689.7"/>
<image xlink:href="../../images/primaryKeys.png" width="11px" height="12px" preserveAspectRatio="xMinYMin meet" x="419.5" y="-706.7"/>
<text text-anchor="start" x="434.5" y="-696.8" font-family="Helvetica,sans-Serif" font-size="11.00" fill="#000000">direccion_id</text>
<polygon fill="none" stroke="#000000" points="414.5,-667.7 414.5,-689.7 537.5,-689.7 537.5,-667.7 414.5,-667.7"/>
<image xlink:href="../../images/foreignKeys.png" width="11px" height="12px" preserveAspectRatio="xMinYMin meet" x="419.5" y="-684.7"/>
<text text-anchor="start" x="434.5" y="-674.8" font-family="Helvetica,sans-Serif" font-size="11.00" fill="#000000">persona_id</text>
<polygon fill="none" stroke="#000000" points="414.5,-648.7 414.5,-667.7 537.5,-667.7 537.5,-648.7 414.5,-648.7"/>
<text text-anchor="start" x="417.5" y="-654.8" font-family="Helvetica,sans-Serif" font-size="11.00" fill="#000000">...</text>
<polygon fill="#ffffff" stroke="transparent" points="414.5,-629.7 414.5,-648.7 461.5,-648.7 461.5,-629.7 414.5,-629.7"/>
<polygon fill="none" stroke="#000000" points="414.5,-629.7 414.5,-648.7 461.5,-648.7 461.5,-629.7 414.5,-629.7"/>
<text text-anchor="start" x="417.5" y="-635.8" font-family="Helvetica,sans-Serif" font-size="11.00" fill="#000000">&lt; 1</text>
<polygon fill="#ffffff" stroke="transparent" points="461.5,-629.7 461.5,-648.7 512.5,-648.7 512.5,-629.7 461.5,-629.7"/>
<polygon fill="none" stroke="#000000" points="461.5,-629.7 461.5,-648.7 512.5,-648.7 512.5,-629.7 461.5,-629.7"/>
<text text-anchor="start" x="477.1105" y="-635.8" font-family="Helvetica,sans-Serif" font-size="11.00" fill="#000000">8 rows</text>
<polygon fill="#ffffff" stroke="transparent" points="512.5,-629.7 512.5,-648.7 537.5,-648.7 537.5,-629.7 512.5,-629.7"/>
<polygon fill="none" stroke="#000000" points="512.5,-629.7 512.5,-648.7 537.5,-648.7 537.5,-629.7 512.5,-629.7"/>
<text text-anchor="start" x="528.3862" y="-635.8" font-family="Helvetica,sans-Serif" font-size="11.00" fill="#000000"> &#160;</text>
</a>
</g>
</g>
<!-- direcciones&#45;&gt;personas -->
<g id="edge3" class="edge">
<title>direcciones:w&#45;&gt;personas:e</title>
<path fill="none" stroke="#000000" d="M400.2844,-675.3298C366.4826,-655.2923 418.0136,-552.7 363.5,-552.7"/>
<polygon fill="#000000" stroke="#000000" points="406.7158,-676.8545 413.6695,-682.2029 410.6079,-677.7772 414.5,-678.7 414.5,-678.7 414.5,-678.7 410.6079,-677.7772 415.3305,-675.1971 406.7158,-676.8545 406.7158,-676.8545"/>
<ellipse fill="none" stroke="#000000" cx="403.6021" cy="-676.1163" rx="3.2" ry="3.2"/>
</g>
<!-- empleados -->
<g id="node5" class="node">
<title>empleados</title>
<g id="a_node5"><a xlink:href="../../tables/empleados.html" xlink:title="empleados" target="_top">
<polygon fill="#ffffff" stroke="transparent" points="414,-482.2 414,-609.2 537,-609.2 537,-482.2 414,-482.2"/>
<polygon fill="#f5f5f5" stroke="transparent" points="414.5,-585.7 414.5,-608.7 537.5,-608.7 537.5,-585.7 414.5,-585.7"/>
<polygon fill="none" stroke="#000000" points="414.5,-585.7 414.5,-608.7 537.5,-608.7 537.5,-585.7 414.5,-585.7"/>
<text text-anchor="start" x="419.5" y="-594.8" font-family="Helvetica,sans-Serif" font-weight="bold" font-size="11.00" fill="#000000">empleados</text>
<text text-anchor="start" x="502.5437" y="-593.8" font-family="Helvetica,sans-Serif" font-size="11.00" fill="#000000">[table]</text>
<polygon fill="none" stroke="#000000" points="414.5,-563.7 414.5,-585.7 537.5,-585.7 537.5,-563.7 414.5,-563.7"/>
<image xlink:href="../../images/primaryKeys.png" width="11px" height="12px" preserveAspectRatio="xMinYMin meet" x="419.5" y="-580.7"/>
<text text-anchor="start" x="434.5" y="-570.8" font-family="Helvetica,sans-Serif" font-size="11.00" fill="#000000">empleado_id</text>
<polygon fill="none" stroke="#000000" points="414.5,-541.7 414.5,-563.7 537.5,-563.7 537.5,-541.7 414.5,-541.7"/>
<image xlink:href="../../images/foreignKeys.png" width="11px" height="12px" preserveAspectRatio="xMinYMin meet" x="419.5" y="-558.7"/>
<text text-anchor="start" x="434.5" y="-548.8" font-family="Helvetica,sans-Serif" font-size="11.00" fill="#000000">persona_id</text>
<polygon fill="none" stroke="#000000" points="414.5,-519.7 414.5,-541.7 537.5,-541.7 537.5,-519.7 414.5,-519.7"/>
<image xlink:href="../../images/foreignKeys.png" width="11px" height="12px" preserveAspectRatio="xMinYMin meet" x="419.5" y="-536.7"/>
<text text-anchor="start" x="434.5" y="-526.8" font-family="Helvetica,sans-Serif" font-size="11.00" fill="#000000">usuario_id</text>
<polygon fill="none" stroke="#000000" points="414.5,-500.7 414.5,-519.7 537.5,-519.7 537.5,-500.7 414.5,-500.7"/>
<text text-anchor="start" x="417.5" y="-506.8" font-family="Helvetica,sans-Serif" font-size="11.00" fill="#000000">...</text>
<polygon fill="#ffffff" stroke="transparent" points="414.5,-481.7 414.5,-500.7 461.5,-500.7 461.5,-481.7 414.5,-481.7"/>
<polygon fill="none" stroke="#000000" points="414.5,-481.7 414.5,-500.7 461.5,-500.7 461.5,-481.7 414.5,-481.7"/>
<text text-anchor="start" x="417.5" y="-487.8" font-family="Helvetica,sans-Serif" font-size="11.00" fill="#000000">&lt; 2</text>
<polygon fill="#ffffff" stroke="transparent" points="461.5,-481.7 461.5,-500.7 512.5,-500.7 512.5,-481.7 461.5,-481.7"/>
<polygon fill="none" stroke="#000000" points="461.5,-481.7 461.5,-500.7 512.5,-500.7 512.5,-481.7 461.5,-481.7"/>
<text text-anchor="start" x="477.1105" y="-487.8" font-family="Helvetica,sans-Serif" font-size="11.00" fill="#000000">2 rows</text>
<polygon fill="#ffffff" stroke="transparent" points="512.5,-481.7 512.5,-500.7 537.5,-500.7 537.5,-481.7 512.5,-481.7"/>
<polygon fill="none" stroke="#000000" points="512.5,-481.7 512.5,-500.7 537.5,-500.7 537.5,-481.7 512.5,-481.7"/>
<text text-anchor="start" x="528.3862" y="-487.8" font-family="Helvetica,sans-Serif" font-size="11.00" fill="#000000"> &#160;</text>
</a>
</g>
</g>
<!-- empleados&#45;&gt;personas -->
<g id="edge4" class="edge">
<title>empleados:w&#45;&gt;personas:e</title>
<path fill="none" stroke="#000000" d="M399.776,-552.7C387.7815,-552.7 380.3229,-552.7 363.5,-552.7"/>
<polygon fill="#000000" stroke="#000000" points="406.5,-552.7001 414.5,-556.3 410.5,-552.7 414.5,-552.7 414.5,-552.7 414.5,-552.7 410.5,-552.7 414.5,-549.1 406.5,-552.7001 406.5,-552.7001"/>
<ellipse fill="none" stroke="#000000" cx="403.3" cy="-552.7001" rx="3.2" ry="3.2"/>
</g>
<!-- leads -->
<g id="node6" class="node">
<title>leads</title>
<g id="a_node6"><a xlink:href="../../tables/leads.html" xlink:title="leads" target="_top">
<polygon fill="#ffffff" stroke="transparent" points="414,-290.2 414,-461.2 537,-461.2 537,-290.2 414,-290.2"/>
<polygon fill="#f5f5f5" stroke="transparent" points="414.5,-437.7 414.5,-460.7 537.5,-460.7 537.5,-437.7 414.5,-437.7"/>
<polygon fill="none" stroke="#000000" points="414.5,-437.7 414.5,-460.7 537.5,-460.7 537.5,-437.7 414.5,-437.7"/>
<text text-anchor="start" x="419.5" y="-446.8" font-family="Helvetica,sans-Serif" font-weight="bold" font-size="11.00" fill="#000000">leads</text>
<text text-anchor="start" x="502.5437" y="-445.8" font-family="Helvetica,sans-Serif" font-size="11.00" fill="#000000">[table]</text>
<polygon fill="none" stroke="#000000" points="414.5,-415.7 414.5,-437.7 537.5,-437.7 537.5,-415.7 414.5,-415.7"/>
<image xlink:href="../../images/primaryKeys.png" width="11px" height="12px" preserveAspectRatio="xMinYMin meet" x="419.5" y="-432.7"/>
<text text-anchor="start" x="434.5" y="-422.8" font-family="Helvetica,sans-Serif" font-size="11.00" fill="#000000">lead_id</text>
<polygon fill="none" stroke="#000000" points="414.5,-393.7 414.5,-415.7 537.5,-415.7 537.5,-393.7 414.5,-393.7"/>
<image xlink:href="../../images/foreignKeys.png" width="11px" height="12px" preserveAspectRatio="xMinYMin meet" x="419.5" y="-410.7"/>
<text text-anchor="start" x="434.5" y="-400.8" font-family="Helvetica,sans-Serif" font-size="11.00" fill="#000000">usu_asignado_id</text>
<polygon fill="none" stroke="#000000" points="414.5,-371.7 414.5,-393.7 537.5,-393.7 537.5,-371.7 414.5,-371.7"/>
<image xlink:href="../../images/foreignKeys.png" width="11px" height="12px" preserveAspectRatio="xMinYMin meet" x="419.5" y="-388.7"/>
<text text-anchor="start" x="434.5" y="-378.8" font-family="Helvetica,sans-Serif" font-size="11.00" fill="#000000">campana_id</text>
<polygon fill="none" stroke="#000000" points="414.5,-349.7 414.5,-371.7 537.5,-371.7 537.5,-349.7 414.5,-349.7"/>
<image xlink:href="../../images/foreignKeys.png" width="11px" height="12px" preserveAspectRatio="xMinYMin meet" x="419.5" y="-366.7"/>
<text text-anchor="start" x="434.5" y="-356.8" font-family="Helvetica,sans-Serif" font-size="11.00" fill="#000000">persona_id</text>
<polygon fill="none" stroke="#000000" points="414.5,-327.7 414.5,-349.7 537.5,-349.7 537.5,-327.7 414.5,-327.7"/>
<image xlink:href="../../images/foreignKeys.png" width="11px" height="12px" preserveAspectRatio="xMinYMin meet" x="419.5" y="-344.7"/>
<text text-anchor="start" x="434.5" y="-334.8" font-family="Helvetica,sans-Serif" font-size="11.00" fill="#000000">curso_id</text>
<polygon fill="none" stroke="#000000" points="414.5,-308.7 414.5,-327.7 537.5,-327.7 537.5,-308.7 414.5,-308.7"/>
<text text-anchor="start" x="417.5" y="-314.8" font-family="Helvetica,sans-Serif" font-size="11.00" fill="#000000">...</text>
<polygon fill="#ffffff" stroke="transparent" points="414.5,-289.7 414.5,-308.7 456.5,-308.7 456.5,-289.7 414.5,-289.7"/>
<polygon fill="none" stroke="#000000" points="414.5,-289.7 414.5,-308.7 456.5,-308.7 456.5,-289.7 414.5,-289.7"/>
<text text-anchor="start" x="417.5" y="-295.8" font-family="Helvetica,sans-Serif" font-size="11.00" fill="#000000">&lt; 4</text>
<polygon fill="#ffffff" stroke="transparent" points="456.5,-289.7 456.5,-308.7 505.5,-308.7 505.5,-289.7 456.5,-289.7"/>
<polygon fill="none" stroke="#000000" points="456.5,-289.7 456.5,-308.7 505.5,-308.7 505.5,-289.7 456.5,-289.7"/>
<text text-anchor="start" x="470.1105" y="-295.8" font-family="Helvetica,sans-Serif" font-size="11.00" fill="#000000">6 rows</text>
<polygon fill="#ffffff" stroke="transparent" points="505.5,-289.7 505.5,-308.7 537.5,-308.7 537.5,-289.7 505.5,-289.7"/>
<polygon fill="none" stroke="#000000" points="505.5,-289.7 505.5,-308.7 537.5,-308.7 537.5,-289.7 505.5,-289.7"/>
<text text-anchor="start" x="518.9053" y="-295.8" font-family="Helvetica,sans-Serif" font-size="11.00" fill="#000000">3 &gt;</text>
</a>
</g>
</g>
<!-- leads&#45;&gt;personas -->
<g id="edge5" class="edge">
<title>leads:w&#45;&gt;personas:e</title>
<path fill="none" stroke="#000000" d="M399.9788,-362.99C341.5077,-384.6524 446.1017,-552.7 363.5,-552.7"/>
<polygon fill="#000000" stroke="#000000" points="406.5977,-361.9462 415.0608,-364.2561 410.5488,-361.3231 414.5,-360.7 414.5,-360.7 414.5,-360.7 410.5488,-361.3231 413.9392,-357.1439 406.5977,-361.9462 406.5977,-361.9462"/>
<ellipse fill="none" stroke="#000000" cx="403.4367" cy="-362.4447" rx="3.2" ry="3.2"/>
</g>
<!-- profesores -->
<g id="node7" class="node">
<title>profesores</title>
<g id="a_node7"><a xlink:href="../../tables/profesores.html" xlink:title="profesores" target="_top">
<polygon fill="#ffffff" stroke="transparent" points="414,-164.2 414,-269.2 537,-269.2 537,-164.2 414,-164.2"/>
<polygon fill="#f5f5f5" stroke="transparent" points="414.5,-245.7 414.5,-268.7 537.5,-268.7 537.5,-245.7 414.5,-245.7"/>
<polygon fill="none" stroke="#000000" points="414.5,-245.7 414.5,-268.7 537.5,-268.7 537.5,-245.7 414.5,-245.7"/>
<text text-anchor="start" x="419.5" y="-254.8" font-family="Helvetica,sans-Serif" font-weight="bold" font-size="11.00" fill="#000000">profesores</text>
<text text-anchor="start" x="502.5437" y="-253.8" font-family="Helvetica,sans-Serif" font-size="11.00" fill="#000000">[table]</text>
<polygon fill="none" stroke="#000000" points="414.5,-223.7 414.5,-245.7 537.5,-245.7 537.5,-223.7 414.5,-223.7"/>
<image xlink:href="../../images/primaryKeys.png" width="11px" height="12px" preserveAspectRatio="xMinYMin meet" x="419.5" y="-240.7"/>
<text text-anchor="start" x="434.5" y="-230.8" font-family="Helvetica,sans-Serif" font-size="11.00" fill="#000000">profesor_id</text>
<polygon fill="none" stroke="#000000" points="414.5,-201.7 414.5,-223.7 537.5,-223.7 537.5,-201.7 414.5,-201.7"/>
<image xlink:href="../../images/foreignKeys.png" width="11px" height="12px" preserveAspectRatio="xMinYMin meet" x="419.5" y="-218.7"/>
<text text-anchor="start" x="434.5" y="-208.8" font-family="Helvetica,sans-Serif" font-size="11.00" fill="#000000">persona_id</text>
<polygon fill="none" stroke="#000000" points="414.5,-182.7 414.5,-201.7 537.5,-201.7 537.5,-182.7 414.5,-182.7"/>
<text text-anchor="start" x="417.5" y="-188.8" font-family="Helvetica,sans-Serif" font-size="11.00" fill="#000000">...</text>
<polygon fill="#ffffff" stroke="transparent" points="414.5,-163.7 414.5,-182.7 459.5,-182.7 459.5,-163.7 414.5,-163.7"/>
<polygon fill="none" stroke="#000000" points="414.5,-163.7 414.5,-182.7 459.5,-182.7 459.5,-163.7 414.5,-163.7"/>
<text text-anchor="start" x="417.5" y="-169.8" font-family="Helvetica,sans-Serif" font-size="11.00" fill="#000000">&lt; 1</text>
<polygon fill="#ffffff" stroke="transparent" points="459.5,-163.7 459.5,-182.7 503.5,-182.7 503.5,-163.7 459.5,-163.7"/>
<polygon fill="none" stroke="#000000" points="459.5,-163.7 459.5,-182.7 503.5,-182.7 503.5,-163.7 459.5,-163.7"/>
<text text-anchor="start" x="473.6105" y="-169.8" font-family="Helvetica,sans-Serif" font-size="11.00" fill="#000000">1 row</text>
<polygon fill="#ffffff" stroke="transparent" points="503.5,-163.7 503.5,-182.7 537.5,-182.7 537.5,-163.7 503.5,-163.7"/>
<polygon fill="none" stroke="#000000" points="503.5,-163.7 503.5,-182.7 537.5,-182.7 537.5,-163.7 503.5,-163.7"/>
<text text-anchor="start" x="518.9053" y="-169.8" font-family="Helvetica,sans-Serif" font-size="11.00" fill="#000000">1 &gt;</text>
</a>
</g>
</g>
<!-- profesores&#45;&gt;personas -->
<g id="edge7" class="edge">
<title>profesores:w&#45;&gt;personas:e</title>
<path fill="none" stroke="#000000" d="M400.9033,-217.5063C351.534,-258.8316 434.5289,-552.7 363.5,-552.7"/>
<polygon fill="#000000" stroke="#000000" points="406.9574,-215.3663 415.6998,-216.0942 410.7287,-214.0332 414.5,-212.7 414.5,-212.7 414.5,-212.7 410.7287,-214.0332 413.3002,-209.3058 406.9574,-215.3663 406.9574,-215.3663"/>
<ellipse fill="none" stroke="#000000" cx="403.9403" cy="-216.4328" rx="3.2" ry="3.2"/>
</g>
<!-- telefonos -->
<g id="node8" class="node">
<title>telefonos</title>
<g id="a_node8"><a xlink:href="../../tables/telefonos.html" xlink:title="telefonos" target="_top">
<polygon fill="#ffffff" stroke="transparent" points="414,-38.2 414,-143.2 537,-143.2 537,-38.2 414,-38.2"/>
<polygon fill="#f5f5f5" stroke="transparent" points="414.5,-119.7 414.5,-142.7 537.5,-142.7 537.5,-119.7 414.5,-119.7"/>
<polygon fill="none" stroke="#000000" points="414.5,-119.7 414.5,-142.7 537.5,-142.7 537.5,-119.7 414.5,-119.7"/>
<text text-anchor="start" x="419.5" y="-128.8" font-family="Helvetica,sans-Serif" font-weight="bold" font-size="11.00" fill="#000000">telefonos</text>
<text text-anchor="start" x="502.5437" y="-127.8" font-family="Helvetica,sans-Serif" font-size="11.00" fill="#000000">[table]</text>
<polygon fill="none" stroke="#000000" points="414.5,-97.7 414.5,-119.7 537.5,-119.7 537.5,-97.7 414.5,-97.7"/>
<image xlink:href="../../images/primaryKeys.png" width="11px" height="12px" preserveAspectRatio="xMinYMin meet" x="419.5" y="-114.7"/>
<text text-anchor="start" x="434.5" y="-104.8" font-family="Helvetica,sans-Serif" font-size="11.00" fill="#000000">telefono_id</text>
<polygon fill="none" stroke="#000000" points="414.5,-75.7 414.5,-97.7 537.5,-97.7 537.5,-75.7 414.5,-75.7"/>
<image xlink:href="../../images/foreignKeys.png" width="11px" height="12px" preserveAspectRatio="xMinYMin meet" x="419.5" y="-92.7"/>
<text text-anchor="start" x="434.5" y="-82.8" font-family="Helvetica,sans-Serif" font-size="11.00" fill="#000000">persona_id</text>
<polygon fill="none" stroke="#000000" points="414.5,-56.7 414.5,-75.7 537.5,-75.7 537.5,-56.7 414.5,-56.7"/>
<text text-anchor="start" x="417.5" y="-62.8" font-family="Helvetica,sans-Serif" font-size="11.00" fill="#000000">...</text>
<polygon fill="#ffffff" stroke="transparent" points="414.5,-37.7 414.5,-56.7 461.5,-56.7 461.5,-37.7 414.5,-37.7"/>
<polygon fill="none" stroke="#000000" points="414.5,-37.7 414.5,-56.7 461.5,-56.7 461.5,-37.7 414.5,-37.7"/>
<text text-anchor="start" x="417.5" y="-43.8" font-family="Helvetica,sans-Serif" font-size="11.00" fill="#000000">&lt; 1</text>
<polygon fill="#ffffff" stroke="transparent" points="461.5,-37.7 461.5,-56.7 512.5,-56.7 512.5,-37.7 461.5,-37.7"/>
<polygon fill="none" stroke="#000000" points="461.5,-37.7 461.5,-56.7 512.5,-56.7 512.5,-37.7 461.5,-37.7"/>
<text text-anchor="start" x="477.1105" y="-43.8" font-family="Helvetica,sans-Serif" font-size="11.00" fill="#000000">5 rows</text>
<polygon fill="#ffffff" stroke="transparent" points="512.5,-37.7 512.5,-56.7 537.5,-56.7 537.5,-37.7 512.5,-37.7"/>
<polygon fill="none" stroke="#000000" points="512.5,-37.7 512.5,-56.7 537.5,-56.7 537.5,-37.7 512.5,-37.7"/>
<text text-anchor="start" x="528.3862" y="-43.8" font-family="Helvetica,sans-Serif" font-size="11.00" fill="#000000"> &#160;</text>
</a>
</g>
</g>
<!-- telefonos&#45;&gt;personas -->
<g id="edge8" class="edge">
<title>telefonos:w&#45;&gt;personas:e</title>
<path fill="none" stroke="#000000" d="M400.1245,-90.451C326.1941,-134.5525 462.1803,-552.7 363.5,-552.7"/>
<polygon fill="#000000" stroke="#000000" points="406.7592,-88.7199 415.4089,-90.1834 410.6296,-87.7099 414.5,-86.7 414.5,-86.7 414.5,-86.7 410.6296,-87.7099 413.5911,-83.2166 406.7592,-88.7199 406.7592,-88.7199"/>
<ellipse fill="none" stroke="#000000" cx="403.6629" cy="-89.5278" rx="3.2" ry="3.2"/>
</g>
</g>
</svg>
