<?xml version="1.0" encoding="UTF-8" standalone="no"?>
<!DOCTYPE svg PUBLIC "-//W3C//DTD SVG 1.1//EN"
 "http://www.w3.org/Graphics/SVG/1.1/DTD/svg11.dtd">
<!-- Generated by graphviz version 2.40.1 (20161225.0304)
 -->
<!-- Title: twoDegreesRelationshipsDiagram Pages: 1 -->
<svg width="553pt" height="377pt"
 viewBox="0.00 0.00 553.00 376.70" xmlns="http://www.w3.org/2000/svg" xmlns:xlink="http://www.w3.org/1999/xlink">
<g id="graph0" class="graph" transform="scale(1 1) rotate(0) translate(4 372.7)">
<title>twoDegreesRelationshipsDiagram</title>
<polygon fill="#ffffff" stroke="transparent" points="-4,4 -4,-372.7 549,-372.7 549,4 -4,4"/>
<text text-anchor="middle" x="72.4936" y="-7.3" font-family="Helvetica,sans-Serif" font-size="11.00" fill="#000000">Generated by SchemaSpy</text>
<!-- empleados -->
<g id="node1" class="node">
<title>empleados</title>
<g id="a_node1"><a xlink:href="../../tables/empleados.html" xlink:title="empleados" target="_top">
<polygon fill="#ffffff" stroke="transparent" points="414,-137.2 414,-264.2 537,-264.2 537,-137.2 414,-137.2"/>
<polygon fill="#f5f5f5" stroke="transparent" points="414.5,-240.7 414.5,-263.7 537.5,-263.7 537.5,-240.7 414.5,-240.7"/>
<polygon fill="none" stroke="#000000" points="414.5,-240.7 414.5,-263.7 537.5,-263.7 537.5,-240.7 414.5,-240.7"/>
<text text-anchor="start" x="419.5" y="-249.8" font-family="Helvetica,sans-Serif" font-weight="bold" font-size="11.00" fill="#000000">empleados</text>
<text text-anchor="start" x="502.5437" y="-248.8" font-family="Helvetica,sans-Serif" font-size="11.00" fill="#000000">[table]</text>
<polygon fill="none" stroke="#000000" points="414.5,-218.7 414.5,-240.7 537.5,-240.7 537.5,-218.7 414.5,-218.7"/>
<image xlink:href="../../images/primaryKeys.png" width="11px" height="12px" preserveAspectRatio="xMinYMin meet" x="419.5" y="-235.7"/>
<text text-anchor="start" x="434.5" y="-225.8" font-family="Helvetica,sans-Serif" font-size="11.00" fill="#000000">empleado_id</text>
<polygon fill="none" stroke="#000000" points="414.5,-196.7 414.5,-218.7 537.5,-218.7 537.5,-196.7 414.5,-196.7"/>
<image xlink:href="../../images/foreignKeys.png" width="11px" height="12px" preserveAspectRatio="xMinYMin meet" x="419.5" y="-213.7"/>
<text text-anchor="start" x="434.5" y="-203.8" font-family="Helvetica,sans-Serif" font-size="11.00" fill="#000000">persona_id</text>
<polygon fill="none" stroke="#000000" points="414.5,-174.7 414.5,-196.7 537.5,-196.7 537.5,-174.7 414.5,-174.7"/>
<image xlink:href="../../images/foreignKeys.png" width="11px" height="12px" preserveAspectRatio="xMinYMin meet" x="419.5" y="-191.7"/>
<text text-anchor="start" x="434.5" y="-181.8" font-family="Helvetica,sans-Serif" font-size="11.00" fill="#000000">usuario_id</text>
<polygon fill="none" stroke="#000000" points="414.5,-155.7 414.5,-174.7 537.5,-174.7 537.5,-155.7 414.5,-155.7"/>
<text text-anchor="start" x="417.5" y="-161.8" font-family="Helvetica,sans-Serif" font-size="11.00" fill="#000000">...</text>
<polygon fill="#ffffff" stroke="transparent" points="414.5,-136.7 414.5,-155.7 461.5,-155.7 461.5,-136.7 414.5,-136.7"/>
<polygon fill="none" stroke="#000000" points="414.5,-136.7 414.5,-155.7 461.5,-155.7 461.5,-136.7 414.5,-136.7"/>
<text text-anchor="start" x="417.5" y="-142.8" font-family="Helvetica,sans-Serif" font-size="11.00" fill="#000000">&lt; 2</text>
<polygon fill="#ffffff" stroke="transparent" points="461.5,-136.7 461.5,-155.7 512.5,-155.7 512.5,-136.7 461.5,-136.7"/>
<polygon fill="none" stroke="#000000" points="461.5,-136.7 461.5,-155.7 512.5,-155.7 512.5,-136.7 461.5,-136.7"/>
<text text-anchor="start" x="477.1105" y="-142.8" font-family="Helvetica,sans-Serif" font-size="11.00" fill="#000000">0 rows</text>
<polygon fill="#ffffff" stroke="transparent" points="512.5,-136.7 512.5,-155.7 537.5,-155.7 537.5,-136.7 512.5,-136.7"/>
<polygon fill="none" stroke="#000000" points="512.5,-136.7 512.5,-155.7 537.5,-155.7 537.5,-136.7 512.5,-136.7"/>
<text text-anchor="start" x="528.3862" y="-142.8" font-family="Helvetica,sans-Serif" font-size="11.00" fill="#000000"> &#160;</text>
</a>
</g>
</g>
<!-- personas -->
<g id="node2" class="node">
<title>personas</title>
<g id="a_node2"><a xlink:href="../../tables/personas.html" xlink:title="personas" target="_top">
<polygon fill="#ffffff" stroke="transparent" points="8,-120.7 8,-364.7 365,-364.7 365,-120.7 8,-120.7"/>
<polygon fill="#f5f5f5" stroke="transparent" points="10.5,-339.7 10.5,-362.7 363.5,-362.7 363.5,-339.7 10.5,-339.7"/>
<polygon fill="none" stroke="#000000" points="10.5,-339.7 10.5,-362.7 363.5,-362.7 363.5,-339.7 10.5,-339.7"/>
<text text-anchor="start" x="15.5" y="-348.8" font-family="Helvetica,sans-Serif" font-weight="bold" font-size="11.00" fill="#000000">personas</text>
<text text-anchor="start" x="328.5437" y="-347.8" font-family="Helvetica,sans-Serif" font-size="11.00" fill="#000000">[table]</text>
<polygon fill="none" stroke="#000000" points="10.5,-317.7 10.5,-339.7 133.5,-339.7 133.5,-317.7 10.5,-317.7"/>
<image xlink:href="../../images/primaryKeys.png" width="11px" height="12px" preserveAspectRatio="xMinYMin meet" x="15.5" y="-334.7"/>
<text text-anchor="start" x="30.5" y="-324.8" font-family="Helvetica,sans-Serif" font-size="11.00" fill="#000000">persona_id</text>
<polygon fill="none" stroke="#000000" points="133.5,-317.7 133.5,-339.7 363.5,-339.7 363.5,-317.7 133.5,-317.7"/>
<text text-anchor="start" x="136.5" y="-325.4" font-family="Helvetica,sans-Serif" font-size="11.00" fill="#000000">serial[10]</text>
<polygon fill="none" stroke="#000000" points="10.5,-295.7 10.5,-317.7 133.5,-317.7 133.5,-295.7 10.5,-295.7"/>
<text text-anchor="start" x="30.5" y="-302.8" font-family="Helvetica,sans-Serif" font-size="11.00" fill="#000000">nombre</text>
<polygon fill="none" stroke="#000000" points="133.5,-295.7 133.5,-317.7 363.5,-317.7 363.5,-295.7 133.5,-295.7"/>
<text text-anchor="start" x="136.5" y="-303.4" font-family="Helvetica,sans-Serif" font-size="11.00" fill="#000000">varchar[255]</text>
<polygon fill="none" stroke="#000000" points="10.5,-273.7 10.5,-295.7 133.5,-295.7 133.5,-273.7 10.5,-273.7"/>
<text text-anchor="start" x="30.5" y="-280.8" font-family="Helvetica,sans-Serif" font-size="11.00" fill="#000000">email</text>
<polygon fill="none" stroke="#000000" points="133.5,-273.7 133.5,-295.7 363.5,-295.7 363.5,-273.7 133.5,-273.7"/>
<text text-anchor="start" x="136.5" y="-281.4" font-family="Helvetica,sans-Serif" font-size="11.00" fill="#000000">varchar[60]</text>
<polygon fill="none" stroke="#000000" points="10.5,-251.7 10.5,-273.7 133.5,-273.7 133.5,-251.7 10.5,-251.7"/>
<text text-anchor="start" x="30.5" y="-258.8" font-family="Helvetica,sans-Serif" font-size="11.00" fill="#000000">nro_documento</text>
<polygon fill="none" stroke="#000000" points="133.5,-251.7 133.5,-273.7 363.5,-273.7 363.5,-251.7 133.5,-251.7"/>
<text text-anchor="start" x="136.5" y="-259.4" font-family="Helvetica,sans-Serif" font-size="11.00" fill="#000000">varchar[20]</text>
<polygon fill="none" stroke="#000000" points="10.5,-229.7 10.5,-251.7 133.5,-251.7 133.5,-229.7 10.5,-229.7"/>
<text text-anchor="start" x="30.5" y="-236.8" font-family="Helvetica,sans-Serif" font-size="11.00" fill="#000000">tip_documento</text>
<polygon fill="none" stroke="#000000" points="133.5,-229.7 133.5,-251.7 363.5,-251.7 363.5,-229.7 133.5,-229.7"/>
<text text-anchor="start" x="136.3143" y="-237.4" font-family="Helvetica,sans-Serif" font-size="11.00" fill="#000000">enum_personas_tip_documento[2147483647]</text>
<polygon fill="none" stroke="#000000" points="10.5,-207.7 10.5,-229.7 133.5,-229.7 133.5,-207.7 10.5,-207.7"/>
<text text-anchor="start" x="30.5" y="-214.8" font-family="Helvetica,sans-Serif" font-size="11.00" fill="#000000">usu_insercion</text>
<polygon fill="none" stroke="#000000" points="133.5,-207.7 133.5,-229.7 363.5,-229.7 363.5,-207.7 133.5,-207.7"/>
<text text-anchor="start" x="136.5" y="-215.4" font-family="Helvetica,sans-Serif" font-size="11.00" fill="#000000">varchar[20]</text>
<polygon fill="none" stroke="#000000" points="10.5,-185.7 10.5,-207.7 133.5,-207.7 133.5,-185.7 10.5,-185.7"/>
<text text-anchor="start" x="30.5" y="-192.8" font-family="Helvetica,sans-Serif" font-size="11.00" fill="#000000">fec_insercion</text>
<polygon fill="none" stroke="#000000" points="133.5,-185.7 133.5,-207.7 363.5,-207.7 363.5,-185.7 133.5,-185.7"/>
<text text-anchor="start" x="136.5" y="-193.4" font-family="Helvetica,sans-Serif" font-size="11.00" fill="#000000">timestamptz[35,6]</text>
<polygon fill="none" stroke="#000000" points="10.5,-163.7 10.5,-185.7 133.5,-185.7 133.5,-163.7 10.5,-163.7"/>
<text text-anchor="start" x="30.5" y="-170.8" font-family="Helvetica,sans-Serif" font-size="11.00" fill="#000000">fec_modificacion</text>
<polygon fill="none" stroke="#000000" points="133.5,-163.7 133.5,-185.7 363.5,-185.7 363.5,-163.7 133.5,-163.7"/>
<text text-anchor="start" x="136.5" y="-171.4" font-family="Helvetica,sans-Serif" font-size="11.00" fill="#000000">timestamptz[35,6]</text>
<polygon fill="none" stroke="#000000" points="10.5,-141.7 10.5,-163.7 133.5,-163.7 133.5,-141.7 10.5,-141.7"/>
<text text-anchor="start" x="30.5" y="-148.8" font-family="Helvetica,sans-Serif" font-size="11.00" fill="#000000">usu_modificacion</text>
<polygon fill="none" stroke="#000000" points="133.5,-141.7 133.5,-163.7 363.5,-163.7 363.5,-141.7 133.5,-141.7"/>
<text text-anchor="start" x="136.5" y="-149.4" font-family="Helvetica,sans-Serif" font-size="11.00" fill="#000000">varchar[20]</text>
<polygon fill="#ffffff" stroke="transparent" points="10.5,-122.7 10.5,-141.7 63.5,-141.7 63.5,-122.7 10.5,-122.7"/>
<polygon fill="none" stroke="#000000" points="10.5,-122.7 10.5,-141.7 63.5,-141.7 63.5,-122.7 10.5,-122.7"/>
<text text-anchor="start" x="13.5" y="-128.8" font-family="Helvetica,sans-Serif" font-size="11.00" fill="#000000">&lt; 0</text>
<polygon fill="#ffffff" stroke="transparent" points="63.5,-122.7 63.5,-141.7 133.5,-141.7 133.5,-122.7 63.5,-122.7"/>
<polygon fill="none" stroke="#000000" points="63.5,-122.7 63.5,-141.7 133.5,-141.7 133.5,-122.7 63.5,-122.7"/>
<text text-anchor="start" x="98.1105" y="-128.8" font-family="Helvetica,sans-Serif" font-size="11.00" fill="#000000">0 rows</text>
<polygon fill="#ffffff" stroke="transparent" points="133.5,-122.7 133.5,-141.7 363.5,-141.7 363.5,-122.7 133.5,-122.7"/>
<polygon fill="none" stroke="#000000" points="133.5,-122.7 133.5,-141.7 363.5,-141.7 363.5,-122.7 133.5,-122.7"/>
<text text-anchor="start" x="344.9053" y="-128.8" font-family="Helvetica,sans-Serif" font-size="11.00" fill="#000000">1 &gt;</text>
<polygon fill="none" stroke="#000000" stroke-width="2" points="9,-121.7 9,-363.7 364,-363.7 364,-121.7 9,-121.7"/>
</a>
</g>
</g>
<!-- empleados&#45;&gt;personas -->
<g id="edge1" class="edge">
<title>empleados:w&#45;&gt;personas:e</title>
<path fill="none" stroke="#000000" d="M400.2982,-211.1908C368.2098,-231.03 415.9323,-328.7 363.5,-328.7"/>
<polygon fill="#000000" stroke="#000000" points="406.7312,-209.6096 415.3593,-211.1959 410.6156,-208.6548 414.5,-207.7 414.5,-207.7 414.5,-207.7 410.6156,-208.6548 413.6407,-204.2041 406.7312,-209.6096 406.7312,-209.6096"/>
<ellipse fill="none" stroke="#000000" cx="403.6237" cy="-210.3734" rx="3.2" ry="3.2"/>
</g>
<!-- usuarios -->
<g id="node3" class="node">
<title>usuarios</title>
<g id="a_node3"><a xlink:href="../../tables/usuarios.html" xlink:title="usuarios" target="_top">
<polygon fill="#ffffff" stroke="transparent" points="144.5,-38.2 144.5,-99.2 228.5,-99.2 228.5,-38.2 144.5,-38.2"/>
<polygon fill="#f5f5f5" stroke="transparent" points="144.5,-75.7 144.5,-98.7 228.5,-98.7 228.5,-75.7 144.5,-75.7"/>
<polygon fill="none" stroke="#000000" points="144.5,-75.7 144.5,-98.7 228.5,-98.7 228.5,-75.7 144.5,-75.7"/>
<text text-anchor="start" x="149.2188" y="-84.8" font-family="Helvetica,sans-Serif" font-weight="bold" font-size="11.00" fill="#000000">usuarios</text>
<text text-anchor="start" x="194.0219" y="-83.8" font-family="Helvetica,sans-Serif" font-size="11.00" fill="#000000">[table]</text>
<polygon fill="none" stroke="#000000" points="144.5,-56.7 144.5,-75.7 228.5,-75.7 228.5,-56.7 144.5,-56.7"/>
<text text-anchor="start" x="147.5" y="-62.8" font-family="Helvetica,sans-Serif" font-size="11.00" fill="#000000">...</text>
<polygon fill="#ffffff" stroke="transparent" points="144.5,-37.7 144.5,-56.7 165.5,-56.7 165.5,-37.7 144.5,-37.7"/>
<polygon fill="none" stroke="#000000" points="144.5,-37.7 144.5,-56.7 165.5,-56.7 165.5,-37.7 144.5,-37.7"/>
<text text-anchor="start" x="147.5" y="-43.8" font-family="Helvetica,sans-Serif" font-size="11.00" fill="#000000"> &#160;</text>
<polygon fill="#ffffff" stroke="transparent" points="165.5,-37.7 165.5,-56.7 202.5,-56.7 202.5,-37.7 165.5,-37.7"/>
<polygon fill="none" stroke="#000000" points="165.5,-37.7 165.5,-56.7 202.5,-56.7 202.5,-37.7 165.5,-37.7"/>
<text text-anchor="start" x="172.6105" y="-43.8" font-family="Helvetica,sans-Serif" font-size="11.00" fill="#000000">1 row</text>
<polygon fill="#ffffff" stroke="transparent" points="202.5,-37.7 202.5,-56.7 228.5,-56.7 228.5,-37.7 202.5,-37.7"/>
<polygon fill="none" stroke="#000000" points="202.5,-37.7 202.5,-56.7 228.5,-56.7 228.5,-37.7 202.5,-37.7"/>
<text text-anchor="start" x="209.9053" y="-43.8" font-family="Helvetica,sans-Serif" font-size="11.00" fill="#000000">1 &gt;</text>
</a>
</g>
</g>
<!-- empleados&#45;&gt;usuarios -->
<g id="edge2" class="edge">
<title>empleados:w&#45;&gt;usuarios:e</title>
<path fill="none" stroke="#000000" d="M400.4065,-181.9304C383.4798,-169.7095 397.6893,-130.8147 373,-110.7 320.8517,-68.2141 295.7644,-65.7 228.5,-65.7"/>
<polygon fill="#000000" stroke="#000000" points="406.7717,-183.6329 413.5698,-189.1778 410.6358,-184.6664 414.5,-185.7 414.5,-185.7 414.5,-185.7 410.6358,-184.6664 415.4302,-182.2222 406.7717,-183.6329 406.7717,-183.6329"/>
<ellipse fill="none" stroke="#000000" cx="403.6803" cy="-182.806" rx="3.2" ry="3.2"/>
</g>
</g>
</svg>
