<?xml version="1.0" encoding="UTF-8" standalone="no"?>
<!DOCTYPE svg PUBLIC "-//W3C//DTD SVG 1.1//EN"
 "http://www.w3.org/Graphics/SVG/1.1/DTD/svg11.dtd">
<!-- Generated by graphviz version 2.40.1 (20161225.0304)
 -->
<!-- Title: oneDegreeRelationshipsDiagramImplied Pages: 1 -->
<svg width="553pt" height="411pt"
 viewBox="0.00 0.00 553.00 410.70" xmlns="http://www.w3.org/2000/svg" xmlns:xlink="http://www.w3.org/1999/xlink">
<g id="graph0" class="graph" transform="scale(1 1) rotate(0) translate(4 406.7)">
<title>oneDegreeRelationshipsDiagramImplied</title>
<polygon fill="#ffffff" stroke="transparent" points="-4,4 -4,-406.7 549,-406.7 549,4 -4,4"/>
<text text-anchor="middle" x="72.4936" y="-7.3" font-family="Helvetica,sans-Serif" font-size="11.00" fill="#000000">Generated by SchemaSpy</text>
<!-- empleados -->
<g id="node1" class="node">
<title>empleados</title>
<g id="a_node1"><a xlink:href="../../tables/empleados.html" xlink:title="empleados" target="_top">
<polygon fill="#ffffff" stroke="transparent" points="414,-271.7 414,-398.7 537,-398.7 537,-271.7 414,-271.7"/>
<polygon fill="#f5f5f5" stroke="transparent" points="414.5,-375.2 414.5,-398.2 537.5,-398.2 537.5,-375.2 414.5,-375.2"/>
<polygon fill="none" stroke="#000000" points="414.5,-375.2 414.5,-398.2 537.5,-398.2 537.5,-375.2 414.5,-375.2"/>
<text text-anchor="start" x="419.5" y="-384.3" font-family="Helvetica,sans-Serif" font-weight="bold" font-size="11.00" fill="#000000">empleados</text>
<text text-anchor="start" x="502.5437" y="-383.3" font-family="Helvetica,sans-Serif" font-size="11.00" fill="#000000">[table]</text>
<polygon fill="none" stroke="#000000" points="414.5,-353.2 414.5,-375.2 537.5,-375.2 537.5,-353.2 414.5,-353.2"/>
<image xlink:href="../../images/primaryKeys.png" width="11px" height="12px" preserveAspectRatio="xMinYMin meet" x="419.5" y="-370.2"/>
<text text-anchor="start" x="434.5" y="-360.3" font-family="Helvetica,sans-Serif" font-size="11.00" fill="#000000">empleado_id</text>
<polygon fill="none" stroke="#000000" points="414.5,-331.2 414.5,-353.2 537.5,-353.2 537.5,-331.2 414.5,-331.2"/>
<image xlink:href="../../images/foreignKeys.png" width="11px" height="12px" preserveAspectRatio="xMinYMin meet" x="419.5" y="-348.2"/>
<text text-anchor="start" x="434.5" y="-338.3" font-family="Helvetica,sans-Serif" font-size="11.00" fill="#000000">persona_id</text>
<polygon fill="none" stroke="#000000" points="414.5,-309.2 414.5,-331.2 537.5,-331.2 537.5,-309.2 414.5,-309.2"/>
<image xlink:href="../../images/foreignKeys.png" width="11px" height="12px" preserveAspectRatio="xMinYMin meet" x="419.5" y="-326.2"/>
<text text-anchor="start" x="434.5" y="-316.3" font-family="Helvetica,sans-Serif" font-size="11.00" fill="#000000">usuario_id</text>
<polygon fill="none" stroke="#000000" points="414.5,-290.2 414.5,-309.2 537.5,-309.2 537.5,-290.2 414.5,-290.2"/>
<text text-anchor="start" x="417.5" y="-296.3" font-family="Helvetica,sans-Serif" font-size="11.00" fill="#000000">...</text>
<polygon fill="#ffffff" stroke="transparent" points="414.5,-271.2 414.5,-290.2 461.5,-290.2 461.5,-271.2 414.5,-271.2"/>
<polygon fill="none" stroke="#000000" points="414.5,-271.2 414.5,-290.2 461.5,-290.2 461.5,-271.2 414.5,-271.2"/>
<text text-anchor="start" x="417.5" y="-277.3" font-family="Helvetica,sans-Serif" font-size="11.00" fill="#000000">&lt; 2</text>
<polygon fill="#ffffff" stroke="transparent" points="461.5,-271.2 461.5,-290.2 512.5,-290.2 512.5,-271.2 461.5,-271.2"/>
<polygon fill="none" stroke="#000000" points="461.5,-271.2 461.5,-290.2 512.5,-290.2 512.5,-271.2 461.5,-271.2"/>
<text text-anchor="start" x="477.1105" y="-277.3" font-family="Helvetica,sans-Serif" font-size="11.00" fill="#000000">0 rows</text>
<polygon fill="#ffffff" stroke="transparent" points="512.5,-271.2 512.5,-290.2 537.5,-290.2 537.5,-271.2 512.5,-271.2"/>
<polygon fill="none" stroke="#000000" points="512.5,-271.2 512.5,-290.2 537.5,-290.2 537.5,-271.2 512.5,-271.2"/>
<text text-anchor="start" x="528.3862" y="-277.3" font-family="Helvetica,sans-Serif" font-size="11.00" fill="#000000"> &#160;</text>
</a>
</g>
</g>
<!-- personas -->
<g id="node2" class="node">
<title>personas</title>
<g id="a_node2"><a xlink:href="../../tables/personas.html" xlink:title="personas" target="_top">
<polygon fill="#ffffff" stroke="transparent" points="8,-38.2 8,-282.2 365,-282.2 365,-38.2 8,-38.2"/>
<polygon fill="#f5f5f5" stroke="transparent" points="10.5,-257.2 10.5,-280.2 363.5,-280.2 363.5,-257.2 10.5,-257.2"/>
<polygon fill="none" stroke="#000000" points="10.5,-257.2 10.5,-280.2 363.5,-280.2 363.5,-257.2 10.5,-257.2"/>
<text text-anchor="start" x="15.5" y="-266.3" font-family="Helvetica,sans-Serif" font-weight="bold" font-size="11.00" fill="#000000">personas</text>
<text text-anchor="start" x="328.5437" y="-265.3" font-family="Helvetica,sans-Serif" font-size="11.00" fill="#000000">[table]</text>
<polygon fill="none" stroke="#000000" points="10.5,-235.2 10.5,-257.2 133.5,-257.2 133.5,-235.2 10.5,-235.2"/>
<image xlink:href="../../images/primaryKeys.png" width="11px" height="12px" preserveAspectRatio="xMinYMin meet" x="15.5" y="-252.2"/>
<text text-anchor="start" x="30.5" y="-242.3" font-family="Helvetica,sans-Serif" font-size="11.00" fill="#000000">persona_id</text>
<polygon fill="none" stroke="#000000" points="133.5,-235.2 133.5,-257.2 363.5,-257.2 363.5,-235.2 133.5,-235.2"/>
<text text-anchor="start" x="136.5" y="-242.9" font-family="Helvetica,sans-Serif" font-size="11.00" fill="#000000">serial[10]</text>
<polygon fill="none" stroke="#000000" points="10.5,-213.2 10.5,-235.2 133.5,-235.2 133.5,-213.2 10.5,-213.2"/>
<text text-anchor="start" x="30.5" y="-220.3" font-family="Helvetica,sans-Serif" font-size="11.00" fill="#000000">nombre</text>
<polygon fill="none" stroke="#000000" points="133.5,-213.2 133.5,-235.2 363.5,-235.2 363.5,-213.2 133.5,-213.2"/>
<text text-anchor="start" x="136.5" y="-220.9" font-family="Helvetica,sans-Serif" font-size="11.00" fill="#000000">varchar[255]</text>
<polygon fill="none" stroke="#000000" points="10.5,-191.2 10.5,-213.2 133.5,-213.2 133.5,-191.2 10.5,-191.2"/>
<text text-anchor="start" x="30.5" y="-198.3" font-family="Helvetica,sans-Serif" font-size="11.00" fill="#000000">email</text>
<polygon fill="none" stroke="#000000" points="133.5,-191.2 133.5,-213.2 363.5,-213.2 363.5,-191.2 133.5,-191.2"/>
<text text-anchor="start" x="136.5" y="-198.9" font-family="Helvetica,sans-Serif" font-size="11.00" fill="#000000">varchar[60]</text>
<polygon fill="none" stroke="#000000" points="10.5,-169.2 10.5,-191.2 133.5,-191.2 133.5,-169.2 10.5,-169.2"/>
<text text-anchor="start" x="30.5" y="-176.3" font-family="Helvetica,sans-Serif" font-size="11.00" fill="#000000">nro_documento</text>
<polygon fill="none" stroke="#000000" points="133.5,-169.2 133.5,-191.2 363.5,-191.2 363.5,-169.2 133.5,-169.2"/>
<text text-anchor="start" x="136.5" y="-176.9" font-family="Helvetica,sans-Serif" font-size="11.00" fill="#000000">varchar[20]</text>
<polygon fill="none" stroke="#000000" points="10.5,-147.2 10.5,-169.2 133.5,-169.2 133.5,-147.2 10.5,-147.2"/>
<text text-anchor="start" x="30.5" y="-154.3" font-family="Helvetica,sans-Serif" font-size="11.00" fill="#000000">tip_documento</text>
<polygon fill="none" stroke="#000000" points="133.5,-147.2 133.5,-169.2 363.5,-169.2 363.5,-147.2 133.5,-147.2"/>
<text text-anchor="start" x="136.3143" y="-154.9" font-family="Helvetica,sans-Serif" font-size="11.00" fill="#000000">enum_personas_tip_documento[2147483647]</text>
<polygon fill="none" stroke="#000000" points="10.5,-125.2 10.5,-147.2 133.5,-147.2 133.5,-125.2 10.5,-125.2"/>
<text text-anchor="start" x="30.5" y="-132.3" font-family="Helvetica,sans-Serif" font-size="11.00" fill="#000000">usu_insercion</text>
<polygon fill="none" stroke="#000000" points="133.5,-125.2 133.5,-147.2 363.5,-147.2 363.5,-125.2 133.5,-125.2"/>
<text text-anchor="start" x="136.5" y="-132.9" font-family="Helvetica,sans-Serif" font-size="11.00" fill="#000000">varchar[20]</text>
<polygon fill="none" stroke="#000000" points="10.5,-103.2 10.5,-125.2 133.5,-125.2 133.5,-103.2 10.5,-103.2"/>
<text text-anchor="start" x="30.5" y="-110.3" font-family="Helvetica,sans-Serif" font-size="11.00" fill="#000000">fec_insercion</text>
<polygon fill="none" stroke="#000000" points="133.5,-103.2 133.5,-125.2 363.5,-125.2 363.5,-103.2 133.5,-103.2"/>
<text text-anchor="start" x="136.5" y="-110.9" font-family="Helvetica,sans-Serif" font-size="11.00" fill="#000000">timestamptz[35,6]</text>
<polygon fill="none" stroke="#000000" points="10.5,-81.2 10.5,-103.2 133.5,-103.2 133.5,-81.2 10.5,-81.2"/>
<text text-anchor="start" x="30.5" y="-88.3" font-family="Helvetica,sans-Serif" font-size="11.00" fill="#000000">fec_modificacion</text>
<polygon fill="none" stroke="#000000" points="133.5,-81.2 133.5,-103.2 363.5,-103.2 363.5,-81.2 133.5,-81.2"/>
<text text-anchor="start" x="136.5" y="-88.9" font-family="Helvetica,sans-Serif" font-size="11.00" fill="#000000">timestamptz[35,6]</text>
<polygon fill="none" stroke="#000000" points="10.5,-59.2 10.5,-81.2 133.5,-81.2 133.5,-59.2 10.5,-59.2"/>
<text text-anchor="start" x="30.5" y="-66.3" font-family="Helvetica,sans-Serif" font-size="11.00" fill="#000000">usu_modificacion</text>
<polygon fill="none" stroke="#000000" points="133.5,-59.2 133.5,-81.2 363.5,-81.2 363.5,-59.2 133.5,-59.2"/>
<text text-anchor="start" x="136.5" y="-66.9" font-family="Helvetica,sans-Serif" font-size="11.00" fill="#000000">varchar[20]</text>
<polygon fill="#ffffff" stroke="transparent" points="10.5,-40.2 10.5,-59.2 60.5,-59.2 60.5,-40.2 10.5,-40.2"/>
<polygon fill="none" stroke="#000000" points="10.5,-40.2 10.5,-59.2 60.5,-59.2 60.5,-40.2 10.5,-40.2"/>
<text text-anchor="start" x="13.5" y="-46.3" font-family="Helvetica,sans-Serif" font-size="11.00" fill="#000000">&lt; 0</text>
<polygon fill="#ffffff" stroke="transparent" points="60.5,-40.2 60.5,-59.2 133.5,-59.2 133.5,-40.2 60.5,-40.2"/>
<polygon fill="none" stroke="#000000" points="60.5,-40.2 60.5,-59.2 133.5,-59.2 133.5,-40.2 60.5,-40.2"/>
<text text-anchor="start" x="91.9956" y="-46.3" font-family="Helvetica,sans-Serif" font-size="11.00" fill="#000000">22 rows</text>
<polygon fill="#ffffff" stroke="transparent" points="133.5,-40.2 133.5,-59.2 363.5,-59.2 363.5,-40.2 133.5,-40.2"/>
<polygon fill="none" stroke="#000000" points="133.5,-40.2 133.5,-59.2 363.5,-59.2 363.5,-40.2 133.5,-40.2"/>
<text text-anchor="start" x="344.9053" y="-46.3" font-family="Helvetica,sans-Serif" font-size="11.00" fill="#000000">2 &gt;</text>
<polygon fill="none" stroke="#000000" stroke-width="2" points="9,-39.2 9,-281.2 364,-281.2 364,-39.2 9,-39.2"/>
</a>
</g>
</g>
<!-- empleados&#45;&gt;personas -->
<g id="edge1" class="edge">
<title>empleados:w&#45;&gt;personas:e</title>
<path fill="none" stroke="#000000" d="M400.4189,-338.075C376.1253,-319.7 405.7746,-246.2 363.5,-246.2"/>
<polygon fill="#000000" stroke="#000000" points="406.8226,-339.9509 413.4879,-345.6548 410.6613,-341.0755 414.5,-342.2 414.5,-342.2 414.5,-342.2 410.6613,-341.0755 415.5121,-338.7452 406.8226,-339.9509 406.8226,-339.9509"/>
<ellipse fill="none" stroke="#000000" cx="403.7517" cy="-339.0513" rx="3.2" ry="3.2"/>
</g>
<!-- leads -->
<g id="node3" class="node">
<title>leads</title>
<g id="a_node3"><a xlink:href="../../tables/leads.html" xlink:title="leads" target="_top">
<polygon fill="#ffffff" stroke="transparent" points="414,-79.7 414,-250.7 537,-250.7 537,-79.7 414,-79.7"/>
<polygon fill="#f5f5f5" stroke="transparent" points="414.5,-227.2 414.5,-250.2 537.5,-250.2 537.5,-227.2 414.5,-227.2"/>
<polygon fill="none" stroke="#000000" points="414.5,-227.2 414.5,-250.2 537.5,-250.2 537.5,-227.2 414.5,-227.2"/>
<text text-anchor="start" x="419.5" y="-236.3" font-family="Helvetica,sans-Serif" font-weight="bold" font-size="11.00" fill="#000000">leads</text>
<text text-anchor="start" x="502.5437" y="-235.3" font-family="Helvetica,sans-Serif" font-size="11.00" fill="#000000">[table]</text>
<polygon fill="none" stroke="#000000" points="414.5,-205.2 414.5,-227.2 537.5,-227.2 537.5,-205.2 414.5,-205.2"/>
<image xlink:href="../../images/primaryKeys.png" width="11px" height="12px" preserveAspectRatio="xMinYMin meet" x="419.5" y="-222.2"/>
<text text-anchor="start" x="434.5" y="-212.3" font-family="Helvetica,sans-Serif" font-size="11.00" fill="#000000">lead_id</text>
<polygon fill="none" stroke="#000000" points="414.5,-183.2 414.5,-205.2 537.5,-205.2 537.5,-183.2 414.5,-183.2"/>
<image xlink:href="../../images/foreignKeys.png" width="11px" height="12px" preserveAspectRatio="xMinYMin meet" x="419.5" y="-200.2"/>
<text text-anchor="start" x="434.5" y="-190.3" font-family="Helvetica,sans-Serif" font-size="11.00" fill="#000000">usu_asignado_id</text>
<polygon fill="none" stroke="#000000" points="414.5,-161.2 414.5,-183.2 537.5,-183.2 537.5,-161.2 414.5,-161.2"/>
<image xlink:href="../../images/foreignKeys.png" width="11px" height="12px" preserveAspectRatio="xMinYMin meet" x="419.5" y="-178.2"/>
<text text-anchor="start" x="434.5" y="-168.3" font-family="Helvetica,sans-Serif" font-size="11.00" fill="#000000">campana_id</text>
<polygon fill="none" stroke="#000000" points="414.5,-139.2 414.5,-161.2 537.5,-161.2 537.5,-139.2 414.5,-139.2"/>
<image xlink:href="../../images/foreignKeys.png" width="11px" height="12px" preserveAspectRatio="xMinYMin meet" x="419.5" y="-156.2"/>
<text text-anchor="start" x="434.5" y="-146.3" font-family="Helvetica,sans-Serif" font-size="11.00" fill="#000000">persona_id</text>
<polygon fill="none" stroke="#000000" points="414.5,-117.2 414.5,-139.2 537.5,-139.2 537.5,-117.2 414.5,-117.2"/>
<image xlink:href="../../images/foreignKeys.png" width="11px" height="12px" preserveAspectRatio="xMinYMin meet" x="419.5" y="-134.2"/>
<text text-anchor="start" x="434.5" y="-124.3" font-family="Helvetica,sans-Serif" font-size="11.00" fill="#000000">curso_id</text>
<polygon fill="none" stroke="#000000" points="414.5,-98.2 414.5,-117.2 537.5,-117.2 537.5,-98.2 414.5,-98.2"/>
<text text-anchor="start" x="417.5" y="-104.3" font-family="Helvetica,sans-Serif" font-size="11.00" fill="#000000">...</text>
<polygon fill="#ffffff" stroke="transparent" points="414.5,-79.2 414.5,-98.2 461.5,-98.2 461.5,-79.2 414.5,-79.2"/>
<polygon fill="none" stroke="#000000" points="414.5,-79.2 414.5,-98.2 461.5,-98.2 461.5,-79.2 414.5,-79.2"/>
<text text-anchor="start" x="417.5" y="-85.3" font-family="Helvetica,sans-Serif" font-size="11.00" fill="#000000">&lt; 2</text>
<polygon fill="#ffffff" stroke="transparent" points="461.5,-79.2 461.5,-98.2 512.5,-98.2 512.5,-79.2 461.5,-79.2"/>
<polygon fill="none" stroke="#000000" points="461.5,-79.2 461.5,-98.2 512.5,-98.2 512.5,-79.2 461.5,-79.2"/>
<text text-anchor="start" x="477.1105" y="-85.3" font-family="Helvetica,sans-Serif" font-size="11.00" fill="#000000">0 rows</text>
<polygon fill="#ffffff" stroke="transparent" points="512.5,-79.2 512.5,-98.2 537.5,-98.2 537.5,-79.2 512.5,-79.2"/>
<polygon fill="none" stroke="#000000" points="512.5,-79.2 512.5,-98.2 537.5,-98.2 537.5,-79.2 512.5,-79.2"/>
<text text-anchor="start" x="528.3862" y="-85.3" font-family="Helvetica,sans-Serif" font-size="11.00" fill="#000000"> &#160;</text>
</a>
</g>
</g>
<!-- leads&#45;&gt;personas -->
<g id="edge2" class="edge">
<title>leads:w&#45;&gt;personas:e</title>
<path fill="none" stroke="#000000" d="M400.4189,-154.325C376.1253,-172.7 405.7746,-246.2 363.5,-246.2"/>
<polygon fill="#000000" stroke="#000000" points="406.8226,-152.4491 415.5121,-153.6548 410.6613,-151.3245 414.5,-150.2 414.5,-150.2 414.5,-150.2 410.6613,-151.3245 413.4879,-146.7452 406.8226,-152.4491 406.8226,-152.4491"/>
<ellipse fill="none" stroke="#000000" cx="403.7517" cy="-153.3487" rx="3.2" ry="3.2"/>
</g>
</g>
</svg>
