<?xml version="1.0" encoding="UTF-8" standalone="no"?>
<!DOCTYPE svg PUBLIC "-//W3C//DTD SVG 1.1//EN"
 "http://www.w3.org/Graphics/SVG/1.1/DTD/svg11.dtd">
<!-- Generated by graphviz version 2.40.1 (20161225.0304)
 -->
<!-- Title: twoDegreesRelationshipsDiagram Pages: 1 -->
<svg width="553pt" height="465pt"
 viewBox="0.00 0.00 553.00 464.70" xmlns="http://www.w3.org/2000/svg" xmlns:xlink="http://www.w3.org/1999/xlink">
<g id="graph0" class="graph" transform="scale(1 1) rotate(0) translate(4 460.7)">
<title>twoDegreesRelationshipsDiagram</title>
<polygon fill="#ffffff" stroke="transparent" points="-4,4 -4,-460.7 549,-460.7 549,4 -4,4"/>
<text text-anchor="middle" x="72.4936" y="-7.3" font-family="Helvetica,sans-Serif" font-size="11.00" fill="#000000">Generated by SchemaSpy</text>
<!-- empleados -->
<g id="node1" class="node">
<title>empleados</title>
<g id="a_node1"><a xlink:href="../../tables/empleados.html" xlink:title="empleados" target="_top">
<polygon fill="#ffffff" stroke="transparent" points="414,-325.7 414,-452.7 537,-452.7 537,-325.7 414,-325.7"/>
<polygon fill="#f5f5f5" stroke="transparent" points="414.5,-429.2 414.5,-452.2 537.5,-452.2 537.5,-429.2 414.5,-429.2"/>
<polygon fill="none" stroke="#000000" points="414.5,-429.2 414.5,-452.2 537.5,-452.2 537.5,-429.2 414.5,-429.2"/>
<text text-anchor="start" x="419.5" y="-438.3" font-family="Helvetica,sans-Serif" font-weight="bold" font-size="11.00" fill="#000000">empleados</text>
<text text-anchor="start" x="502.5437" y="-437.3" font-family="Helvetica,sans-Serif" font-size="11.00" fill="#000000">[table]</text>
<polygon fill="none" stroke="#000000" points="414.5,-407.2 414.5,-429.2 537.5,-429.2 537.5,-407.2 414.5,-407.2"/>
<image xlink:href="../../images/primaryKeys.png" width="11px" height="12px" preserveAspectRatio="xMinYMin meet" x="419.5" y="-424.2"/>
<text text-anchor="start" x="434.5" y="-414.3" font-family="Helvetica,sans-Serif" font-size="11.00" fill="#000000">empleado_id</text>
<polygon fill="none" stroke="#000000" points="414.5,-385.2 414.5,-407.2 537.5,-407.2 537.5,-385.2 414.5,-385.2"/>
<image xlink:href="../../images/foreignKeys.png" width="11px" height="12px" preserveAspectRatio="xMinYMin meet" x="419.5" y="-402.2"/>
<text text-anchor="start" x="434.5" y="-392.3" font-family="Helvetica,sans-Serif" font-size="11.00" fill="#000000">persona_id</text>
<polygon fill="none" stroke="#000000" points="414.5,-363.2 414.5,-385.2 537.5,-385.2 537.5,-363.2 414.5,-363.2"/>
<image xlink:href="../../images/foreignKeys.png" width="11px" height="12px" preserveAspectRatio="xMinYMin meet" x="419.5" y="-380.2"/>
<text text-anchor="start" x="434.5" y="-370.3" font-family="Helvetica,sans-Serif" font-size="11.00" fill="#000000">usuario_id</text>
<polygon fill="none" stroke="#000000" points="414.5,-344.2 414.5,-363.2 537.5,-363.2 537.5,-344.2 414.5,-344.2"/>
<text text-anchor="start" x="417.5" y="-350.3" font-family="Helvetica,sans-Serif" font-size="11.00" fill="#000000">...</text>
<polygon fill="#ffffff" stroke="transparent" points="414.5,-325.2 414.5,-344.2 461.5,-344.2 461.5,-325.2 414.5,-325.2"/>
<polygon fill="none" stroke="#000000" points="414.5,-325.2 414.5,-344.2 461.5,-344.2 461.5,-325.2 414.5,-325.2"/>
<text text-anchor="start" x="417.5" y="-331.3" font-family="Helvetica,sans-Serif" font-size="11.00" fill="#000000">&lt; 2</text>
<polygon fill="#ffffff" stroke="transparent" points="461.5,-325.2 461.5,-344.2 512.5,-344.2 512.5,-325.2 461.5,-325.2"/>
<polygon fill="none" stroke="#000000" points="461.5,-325.2 461.5,-344.2 512.5,-344.2 512.5,-325.2 461.5,-325.2"/>
<text text-anchor="start" x="477.1105" y="-331.3" font-family="Helvetica,sans-Serif" font-size="11.00" fill="#000000">0 rows</text>
<polygon fill="#ffffff" stroke="transparent" points="512.5,-325.2 512.5,-344.2 537.5,-344.2 537.5,-325.2 512.5,-325.2"/>
<polygon fill="none" stroke="#000000" points="512.5,-325.2 512.5,-344.2 537.5,-344.2 537.5,-325.2 512.5,-325.2"/>
<text text-anchor="start" x="528.3862" y="-331.3" font-family="Helvetica,sans-Serif" font-size="11.00" fill="#000000"> &#160;</text>
</a>
</g>
</g>
<!-- personas -->
<g id="node2" class="node">
<title>personas</title>
<g id="a_node2"><a xlink:href="../../tables/personas.html" xlink:title="personas" target="_top">
<polygon fill="#ffffff" stroke="transparent" points="8,-38.2 8,-282.2 365,-282.2 365,-38.2 8,-38.2"/>
<polygon fill="#f5f5f5" stroke="transparent" points="10.5,-257.2 10.5,-280.2 363.5,-280.2 363.5,-257.2 10.5,-257.2"/>
<polygon fill="none" stroke="#000000" points="10.5,-257.2 10.5,-280.2 363.5,-280.2 363.5,-257.2 10.5,-257.2"/>
<text text-anchor="start" x="15.5" y="-266.3" font-family="Helvetica,sans-Serif" font-weight="bold" font-size="11.00" fill="#000000">personas</text>
<text text-anchor="start" x="328.5437" y="-265.3" font-family="Helvetica,sans-Serif" font-size="11.00" fill="#000000">[table]</text>
<polygon fill="none" stroke="#000000" points="10.5,-235.2 10.5,-257.2 133.5,-257.2 133.5,-235.2 10.5,-235.2"/>
<image xlink:href="../../images/primaryKeys.png" width="11px" height="12px" preserveAspectRatio="xMinYMin meet" x="15.5" y="-252.2"/>
<text text-anchor="start" x="30.5" y="-242.3" font-family="Helvetica,sans-Serif" font-size="11.00" fill="#000000">persona_id</text>
<polygon fill="none" stroke="#000000" points="133.5,-235.2 133.5,-257.2 363.5,-257.2 363.5,-235.2 133.5,-235.2"/>
<text text-anchor="start" x="136.5" y="-242.9" font-family="Helvetica,sans-Serif" font-size="11.00" fill="#000000">serial[10]</text>
<polygon fill="none" stroke="#000000" points="10.5,-213.2 10.5,-235.2 133.5,-235.2 133.5,-213.2 10.5,-213.2"/>
<text text-anchor="start" x="30.5" y="-220.3" font-family="Helvetica,sans-Serif" font-size="11.00" fill="#000000">nombre</text>
<polygon fill="none" stroke="#000000" points="133.5,-213.2 133.5,-235.2 363.5,-235.2 363.5,-213.2 133.5,-213.2"/>
<text text-anchor="start" x="136.5" y="-220.9" font-family="Helvetica,sans-Serif" font-size="11.00" fill="#000000">varchar[255]</text>
<polygon fill="none" stroke="#000000" points="10.5,-191.2 10.5,-213.2 133.5,-213.2 133.5,-191.2 10.5,-191.2"/>
<text text-anchor="start" x="30.5" y="-198.3" font-family="Helvetica,sans-Serif" font-size="11.00" fill="#000000">email</text>
<polygon fill="none" stroke="#000000" points="133.5,-191.2 133.5,-213.2 363.5,-213.2 363.5,-191.2 133.5,-191.2"/>
<text text-anchor="start" x="136.5" y="-198.9" font-family="Helvetica,sans-Serif" font-size="11.00" fill="#000000">varchar[60]</text>
<polygon fill="none" stroke="#000000" points="10.5,-169.2 10.5,-191.2 133.5,-191.2 133.5,-169.2 10.5,-169.2"/>
<text text-anchor="start" x="30.5" y="-176.3" font-family="Helvetica,sans-Serif" font-size="11.00" fill="#000000">nro_documento</text>
<polygon fill="none" stroke="#000000" points="133.5,-169.2 133.5,-191.2 363.5,-191.2 363.5,-169.2 133.5,-169.2"/>
<text text-anchor="start" x="136.5" y="-176.9" font-family="Helvetica,sans-Serif" font-size="11.00" fill="#000000">varchar[20]</text>
<polygon fill="none" stroke="#000000" points="10.5,-147.2 10.5,-169.2 133.5,-169.2 133.5,-147.2 10.5,-147.2"/>
<text text-anchor="start" x="30.5" y="-154.3" font-family="Helvetica,sans-Serif" font-size="11.00" fill="#000000">tip_documento</text>
<polygon fill="none" stroke="#000000" points="133.5,-147.2 133.5,-169.2 363.5,-169.2 363.5,-147.2 133.5,-147.2"/>
<text text-anchor="start" x="136.3143" y="-154.9" font-family="Helvetica,sans-Serif" font-size="11.00" fill="#000000">enum_personas_tip_documento[2147483647]</text>
<polygon fill="none" stroke="#000000" points="10.5,-125.2 10.5,-147.2 133.5,-147.2 133.5,-125.2 10.5,-125.2"/>
<text text-anchor="start" x="30.5" y="-132.3" font-family="Helvetica,sans-Serif" font-size="11.00" fill="#000000">usu_insercion</text>
<polygon fill="none" stroke="#000000" points="133.5,-125.2 133.5,-147.2 363.5,-147.2 363.5,-125.2 133.5,-125.2"/>
<text text-anchor="start" x="136.5" y="-132.9" font-family="Helvetica,sans-Serif" font-size="11.00" fill="#000000">varchar[20]</text>
<polygon fill="none" stroke="#000000" points="10.5,-103.2 10.5,-125.2 133.5,-125.2 133.5,-103.2 10.5,-103.2"/>
<text text-anchor="start" x="30.5" y="-110.3" font-family="Helvetica,sans-Serif" font-size="11.00" fill="#000000">fec_insercion</text>
<polygon fill="none" stroke="#000000" points="133.5,-103.2 133.5,-125.2 363.5,-125.2 363.5,-103.2 133.5,-103.2"/>
<text text-anchor="start" x="136.5" y="-110.9" font-family="Helvetica,sans-Serif" font-size="11.00" fill="#000000">timestamptz[35,6]</text>
<polygon fill="none" stroke="#000000" points="10.5,-81.2 10.5,-103.2 133.5,-103.2 133.5,-81.2 10.5,-81.2"/>
<text text-anchor="start" x="30.5" y="-88.3" font-family="Helvetica,sans-Serif" font-size="11.00" fill="#000000">fec_modificacion</text>
<polygon fill="none" stroke="#000000" points="133.5,-81.2 133.5,-103.2 363.5,-103.2 363.5,-81.2 133.5,-81.2"/>
<text text-anchor="start" x="136.5" y="-88.9" font-family="Helvetica,sans-Serif" font-size="11.00" fill="#000000">timestamptz[35,6]</text>
<polygon fill="none" stroke="#000000" points="10.5,-59.2 10.5,-81.2 133.5,-81.2 133.5,-59.2 10.5,-59.2"/>
<text text-anchor="start" x="30.5" y="-66.3" font-family="Helvetica,sans-Serif" font-size="11.00" fill="#000000">usu_modificacion</text>
<polygon fill="none" stroke="#000000" points="133.5,-59.2 133.5,-81.2 363.5,-81.2 363.5,-59.2 133.5,-59.2"/>
<text text-anchor="start" x="136.5" y="-66.9" font-family="Helvetica,sans-Serif" font-size="11.00" fill="#000000">varchar[20]</text>
<polygon fill="#ffffff" stroke="transparent" points="10.5,-40.2 10.5,-59.2 60.5,-59.2 60.5,-40.2 10.5,-40.2"/>
<polygon fill="none" stroke="#000000" points="10.5,-40.2 10.5,-59.2 60.5,-59.2 60.5,-40.2 10.5,-40.2"/>
<text text-anchor="start" x="13.5" y="-46.3" font-family="Helvetica,sans-Serif" font-size="11.00" fill="#000000">&lt; 0</text>
<polygon fill="#ffffff" stroke="transparent" points="60.5,-40.2 60.5,-59.2 133.5,-59.2 133.5,-40.2 60.5,-40.2"/>
<polygon fill="none" stroke="#000000" points="60.5,-40.2 60.5,-59.2 133.5,-59.2 133.5,-40.2 60.5,-40.2"/>
<text text-anchor="start" x="91.9956" y="-46.3" font-family="Helvetica,sans-Serif" font-size="11.00" fill="#000000">22 rows</text>
<polygon fill="#ffffff" stroke="transparent" points="133.5,-40.2 133.5,-59.2 363.5,-59.2 363.5,-40.2 133.5,-40.2"/>
<polygon fill="none" stroke="#000000" points="133.5,-40.2 133.5,-59.2 363.5,-59.2 363.5,-40.2 133.5,-40.2"/>
<text text-anchor="start" x="344.9053" y="-46.3" font-family="Helvetica,sans-Serif" font-size="11.00" fill="#000000">2 &gt;</text>
<polygon fill="none" stroke="#000000" stroke-width="2" points="9,-39.2 9,-281.2 364,-281.2 364,-39.2 9,-39.2"/>
</a>
</g>
</g>
<!-- empleados&#45;&gt;personas -->
<g id="edge1" class="edge">
<title>empleados:w&#45;&gt;personas:e</title>
<path fill="none" stroke="#000000" d="M400.2294,-393.3375C357.7447,-372.6 428.1384,-246.2 363.5,-246.2"/>
<polygon fill="#000000" stroke="#000000" points="406.6562,-394.6266 413.792,-399.7297 410.5781,-395.4133 414.5,-396.2 414.5,-396.2 414.5,-396.2 410.5781,-395.4133 415.208,-392.6703 406.6562,-394.6266 406.6562,-394.6266"/>
<ellipse fill="none" stroke="#000000" cx="403.5187" cy="-393.9972" rx="3.2" ry="3.2"/>
</g>
<!-- usuarios -->
<g id="node3" class="node">
<title>usuarios</title>
<g id="a_node3"><a xlink:href="../../tables/usuarios.html" xlink:title="usuarios" target="_top">
<polygon fill="#ffffff" stroke="transparent" points="144.5,-324.7 144.5,-385.7 228.5,-385.7 228.5,-324.7 144.5,-324.7"/>
<polygon fill="#f5f5f5" stroke="transparent" points="144.5,-362.2 144.5,-385.2 228.5,-385.2 228.5,-362.2 144.5,-362.2"/>
<polygon fill="none" stroke="#000000" points="144.5,-362.2 144.5,-385.2 228.5,-385.2 228.5,-362.2 144.5,-362.2"/>
<text text-anchor="start" x="149.2188" y="-371.3" font-family="Helvetica,sans-Serif" font-weight="bold" font-size="11.00" fill="#000000">usuarios</text>
<text text-anchor="start" x="194.0219" y="-370.3" font-family="Helvetica,sans-Serif" font-size="11.00" fill="#000000">[table]</text>
<polygon fill="none" stroke="#000000" points="144.5,-343.2 144.5,-362.2 228.5,-362.2 228.5,-343.2 144.5,-343.2"/>
<text text-anchor="start" x="147.5" y="-349.3" font-family="Helvetica,sans-Serif" font-size="11.00" fill="#000000">...</text>
<polygon fill="#ffffff" stroke="transparent" points="144.5,-324.2 144.5,-343.2 162.5,-343.2 162.5,-324.2 144.5,-324.2"/>
<polygon fill="none" stroke="#000000" points="144.5,-324.2 144.5,-343.2 162.5,-343.2 162.5,-324.2 144.5,-324.2"/>
<text text-anchor="start" x="147.5" y="-330.3" font-family="Helvetica,sans-Serif" font-size="11.00" fill="#000000"> &#160;</text>
<polygon fill="#ffffff" stroke="transparent" points="162.5,-324.2 162.5,-343.2 203.5,-343.2 203.5,-324.2 162.5,-324.2"/>
<polygon fill="none" stroke="#000000" points="162.5,-324.2 162.5,-343.2 203.5,-343.2 203.5,-324.2 162.5,-324.2"/>
<text text-anchor="start" x="168.1105" y="-330.3" font-family="Helvetica,sans-Serif" font-size="11.00" fill="#000000">2 rows</text>
<polygon fill="#ffffff" stroke="transparent" points="203.5,-324.2 203.5,-343.2 228.5,-343.2 228.5,-324.2 203.5,-324.2"/>
<polygon fill="none" stroke="#000000" points="203.5,-324.2 203.5,-343.2 228.5,-343.2 228.5,-324.2 203.5,-324.2"/>
<text text-anchor="start" x="209.9053" y="-330.3" font-family="Helvetica,sans-Serif" font-size="11.00" fill="#000000">2 &gt;</text>
</a>
</g>
</g>
<!-- empleados&#45;&gt;usuarios -->
<g id="edge2" class="edge">
<title>empleados:w&#45;&gt;usuarios:e</title>
<path fill="none" stroke="#000000" d="M400.0523,-373.9678C328.6604,-371.6166 306.7028,-352.2 228.5,-352.2"/>
<polygon fill="#000000" stroke="#000000" points="406.501,-374.0714 414.4421,-377.7995 410.5005,-374.1357 414.5,-374.2 414.5,-374.2 414.5,-374.2 410.5005,-374.1357 414.5579,-370.6005 406.501,-374.0714 406.501,-374.0714"/>
<ellipse fill="none" stroke="#000000" cx="403.3014" cy="-374.02" rx="3.2" ry="3.2"/>
</g>
<!-- leads -->
<g id="node4" class="node">
<title>leads</title>
<g id="a_node4"><a xlink:href="../../tables/leads.html" xlink:title="leads" target="_top">
<polygon fill="#ffffff" stroke="transparent" points="414,-133.7 414,-304.7 537,-304.7 537,-133.7 414,-133.7"/>
<polygon fill="#f5f5f5" stroke="transparent" points="414.5,-281.2 414.5,-304.2 537.5,-304.2 537.5,-281.2 414.5,-281.2"/>
<polygon fill="none" stroke="#000000" points="414.5,-281.2 414.5,-304.2 537.5,-304.2 537.5,-281.2 414.5,-281.2"/>
<text text-anchor="start" x="419.5" y="-290.3" font-family="Helvetica,sans-Serif" font-weight="bold" font-size="11.00" fill="#000000">leads</text>
<text text-anchor="start" x="502.5437" y="-289.3" font-family="Helvetica,sans-Serif" font-size="11.00" fill="#000000">[table]</text>
<polygon fill="none" stroke="#000000" points="414.5,-259.2 414.5,-281.2 537.5,-281.2 537.5,-259.2 414.5,-259.2"/>
<image xlink:href="../../images/primaryKeys.png" width="11px" height="12px" preserveAspectRatio="xMinYMin meet" x="419.5" y="-276.2"/>
<text text-anchor="start" x="434.5" y="-266.3" font-family="Helvetica,sans-Serif" font-size="11.00" fill="#000000">lead_id</text>
<polygon fill="none" stroke="#000000" points="414.5,-237.2 414.5,-259.2 537.5,-259.2 537.5,-237.2 414.5,-237.2"/>
<image xlink:href="../../images/foreignKeys.png" width="11px" height="12px" preserveAspectRatio="xMinYMin meet" x="419.5" y="-254.2"/>
<text text-anchor="start" x="434.5" y="-244.3" font-family="Helvetica,sans-Serif" font-size="11.00" fill="#000000">usu_asignado_id</text>
<polygon fill="none" stroke="#000000" points="414.5,-215.2 414.5,-237.2 537.5,-237.2 537.5,-215.2 414.5,-215.2"/>
<image xlink:href="../../images/foreignKeys.png" width="11px" height="12px" preserveAspectRatio="xMinYMin meet" x="419.5" y="-232.2"/>
<text text-anchor="start" x="434.5" y="-222.3" font-family="Helvetica,sans-Serif" font-size="11.00" fill="#000000">campana_id</text>
<polygon fill="none" stroke="#000000" points="414.5,-193.2 414.5,-215.2 537.5,-215.2 537.5,-193.2 414.5,-193.2"/>
<image xlink:href="../../images/foreignKeys.png" width="11px" height="12px" preserveAspectRatio="xMinYMin meet" x="419.5" y="-210.2"/>
<text text-anchor="start" x="434.5" y="-200.3" font-family="Helvetica,sans-Serif" font-size="11.00" fill="#000000">persona_id</text>
<polygon fill="none" stroke="#000000" points="414.5,-171.2 414.5,-193.2 537.5,-193.2 537.5,-171.2 414.5,-171.2"/>
<image xlink:href="../../images/foreignKeys.png" width="11px" height="12px" preserveAspectRatio="xMinYMin meet" x="419.5" y="-188.2"/>
<text text-anchor="start" x="434.5" y="-178.3" font-family="Helvetica,sans-Serif" font-size="11.00" fill="#000000">curso_id</text>
<polygon fill="none" stroke="#000000" points="414.5,-152.2 414.5,-171.2 537.5,-171.2 537.5,-152.2 414.5,-152.2"/>
<text text-anchor="start" x="417.5" y="-158.3" font-family="Helvetica,sans-Serif" font-size="11.00" fill="#000000">...</text>
<polygon fill="#ffffff" stroke="transparent" points="414.5,-133.2 414.5,-152.2 461.5,-152.2 461.5,-133.2 414.5,-133.2"/>
<polygon fill="none" stroke="#000000" points="414.5,-133.2 414.5,-152.2 461.5,-152.2 461.5,-133.2 414.5,-133.2"/>
<text text-anchor="start" x="417.5" y="-139.3" font-family="Helvetica,sans-Serif" font-size="11.00" fill="#000000">&lt; 2</text>
<polygon fill="#ffffff" stroke="transparent" points="461.5,-133.2 461.5,-152.2 512.5,-152.2 512.5,-133.2 461.5,-133.2"/>
<polygon fill="none" stroke="#000000" points="461.5,-133.2 461.5,-152.2 512.5,-152.2 512.5,-133.2 461.5,-133.2"/>
<text text-anchor="start" x="477.1105" y="-139.3" font-family="Helvetica,sans-Serif" font-size="11.00" fill="#000000">0 rows</text>
<polygon fill="#ffffff" stroke="transparent" points="512.5,-133.2 512.5,-152.2 537.5,-152.2 537.5,-133.2 512.5,-133.2"/>
<polygon fill="none" stroke="#000000" points="512.5,-133.2 512.5,-152.2 537.5,-152.2 537.5,-133.2 512.5,-133.2"/>
<text text-anchor="start" x="528.3862" y="-139.3" font-family="Helvetica,sans-Serif" font-size="11.00" fill="#000000"> &#160;</text>
</a>
</g>
</g>
<!-- leads&#45;&gt;personas -->
<g id="edge3" class="edge">
<title>leads:w&#45;&gt;personas:e</title>
<path fill="none" stroke="#000000" d="M400.5759,-208.6947C386.7452,-219.5296 386.8991,-246.2 363.5,-246.2"/>
<polygon fill="#000000" stroke="#000000" points="406.8868,-206.6576 415.6059,-207.6259 410.6934,-205.4288 414.5,-204.2 414.5,-204.2 414.5,-204.2 410.6934,-205.4288 413.3941,-200.7741 406.8868,-206.6576 406.8868,-206.6576"/>
<ellipse fill="none" stroke="#000000" cx="403.8416" cy="-207.6406" rx="3.2" ry="3.2"/>
</g>
<!-- leads&#45;&gt;usuarios -->
<g id="edge4" class="edge">
<title>leads:w&#45;&gt;usuarios:e</title>
<path fill="none" stroke="#000000" d="M400.6746,-252.2353C389.3834,-260.844 390.2867,-281.2017 373,-293.2 316.0124,-332.7539 297.8693,-352.2 228.5,-352.2"/>
<polygon fill="#000000" stroke="#000000" points="406.8204,-250.4415 415.5087,-251.6558 410.6602,-249.3208 414.5,-248.2 414.5,-248.2 414.5,-248.2 410.6602,-249.3208 413.4913,-244.7442 406.8204,-250.4415 406.8204,-250.4415"/>
<ellipse fill="none" stroke="#000000" cx="403.7486" cy="-251.3381" rx="3.2" ry="3.2"/>
</g>
</g>
</svg>
