<?xml version="1.0" encoding="UTF-8" standalone="no"?>
<!DOCTYPE svg PUBLIC "-//W3C//DTD SVG 1.1//EN"
 "http://www.w3.org/Graphics/SVG/1.1/DTD/svg11.dtd">
<!-- Generated by graphviz version 2.40.1 (20161225.0304)
 -->
<!-- Title: oneDegreeRelationshipsDiagram Pages: 1 -->
<svg width="587pt" height="249pt"
 viewBox="0.00 0.00 587.00 248.70" xmlns="http://www.w3.org/2000/svg" xmlns:xlink="http://www.w3.org/1999/xlink">
<g id="graph0" class="graph" transform="scale(1 1) rotate(0) translate(4 244.7)">
<title>oneDegreeRelationshipsDiagram</title>
<polygon fill="#ffffff" stroke="transparent" points="-4,4 -4,-244.7 583,-244.7 583,4 -4,4"/>
<text text-anchor="middle" x="72.4936" y="-7.3" font-family="Helvetica,sans-Serif" font-size="11.00" fill="#000000">Generated by SchemaSpy</text>
<!-- ciclo_profesores -->
<g id="node1" class="node">
<title>ciclo_profesores</title>
<g id="a_node1"><a xlink:href="../../tables/ciclo_profesores.html" xlink:title="ciclo_profesores" target="_top">
<polygon fill="#ffffff" stroke="transparent" points="448,-87.7 448,-236.7 571,-236.7 571,-87.7 448,-87.7"/>
<polygon fill="#f5f5f5" stroke="transparent" points="448.5,-213.2 448.5,-236.2 571.5,-236.2 571.5,-213.2 448.5,-213.2"/>
<polygon fill="none" stroke="#000000" points="448.5,-213.2 448.5,-236.2 571.5,-236.2 571.5,-213.2 448.5,-213.2"/>
<text text-anchor="start" x="453.4666" y="-222.3" font-family="Helvetica,sans-Serif" font-weight="bold" font-size="11.00" fill="#000000">ciclo_profesores</text>
<text text-anchor="start" x="537.0219" y="-221.3" font-family="Helvetica,sans-Serif" font-size="11.00" fill="#000000">[table]</text>
<polygon fill="none" stroke="#000000" points="448.5,-191.2 448.5,-213.2 571.5,-213.2 571.5,-191.2 448.5,-191.2"/>
<image xlink:href="../../images/primaryKeys.png" width="11px" height="12px" preserveAspectRatio="xMinYMin meet" x="453.5" y="-208.2"/>
<text text-anchor="start" x="468.5" y="-198.3" font-family="Helvetica,sans-Serif" font-size="11.00" fill="#000000">ciclo_profesor_id</text>
<polygon fill="none" stroke="#000000" points="448.5,-169.2 448.5,-191.2 571.5,-191.2 571.5,-169.2 448.5,-169.2"/>
<image xlink:href="../../images/foreignKeys.png" width="11px" height="12px" preserveAspectRatio="xMinYMin meet" x="453.5" y="-186.2"/>
<text text-anchor="start" x="468.5" y="-176.3" font-family="Helvetica,sans-Serif" font-size="11.00" fill="#000000">profesor_id</text>
<polygon fill="none" stroke="#000000" points="448.5,-147.2 448.5,-169.2 571.5,-169.2 571.5,-147.2 448.5,-147.2"/>
<image xlink:href="../../images/foreignKeys.png" width="11px" height="12px" preserveAspectRatio="xMinYMin meet" x="453.5" y="-164.2"/>
<text text-anchor="start" x="468.5" y="-154.3" font-family="Helvetica,sans-Serif" font-size="11.00" fill="#000000">ciclo_id</text>
<polygon fill="none" stroke="#000000" points="448.5,-125.2 448.5,-147.2 571.5,-147.2 571.5,-125.2 448.5,-125.2"/>
<image xlink:href="../../images/foreignKeys.png" width="11px" height="12px" preserveAspectRatio="xMinYMin meet" x="453.5" y="-142.2"/>
<text text-anchor="start" x="468.5" y="-132.3" font-family="Helvetica,sans-Serif" font-size="11.00" fill="#000000">aula_id</text>
<polygon fill="none" stroke="#000000" points="448.5,-106.2 448.5,-125.2 571.5,-125.2 571.5,-106.2 448.5,-106.2"/>
<text text-anchor="start" x="451.5" y="-112.3" font-family="Helvetica,sans-Serif" font-size="11.00" fill="#000000">...</text>
<polygon fill="#ffffff" stroke="transparent" points="448.5,-87.2 448.5,-106.2 495.5,-106.2 495.5,-87.2 448.5,-87.2"/>
<polygon fill="none" stroke="#000000" points="448.5,-87.2 448.5,-106.2 495.5,-106.2 495.5,-87.2 448.5,-87.2"/>
<text text-anchor="start" x="451.5" y="-93.3" font-family="Helvetica,sans-Serif" font-size="11.00" fill="#000000">&lt; 3</text>
<polygon fill="#ffffff" stroke="transparent" points="495.5,-87.2 495.5,-106.2 546.5,-106.2 546.5,-87.2 495.5,-87.2"/>
<polygon fill="none" stroke="#000000" points="495.5,-87.2 495.5,-106.2 546.5,-106.2 546.5,-87.2 495.5,-87.2"/>
<text text-anchor="start" x="511.1105" y="-93.3" font-family="Helvetica,sans-Serif" font-size="11.00" fill="#000000">0 rows</text>
<polygon fill="#ffffff" stroke="transparent" points="546.5,-87.2 546.5,-106.2 571.5,-106.2 571.5,-87.2 546.5,-87.2"/>
<polygon fill="none" stroke="#000000" points="546.5,-87.2 546.5,-106.2 571.5,-106.2 571.5,-87.2 546.5,-87.2"/>
<text text-anchor="start" x="562.3862" y="-93.3" font-family="Helvetica,sans-Serif" font-size="11.00" fill="#000000"> &#160;</text>
</a>
</g>
</g>
<!-- profesores -->
<g id="node2" class="node">
<title>profesores</title>
<g id="a_node2"><a xlink:href="../../tables/profesores.html" xlink:title="profesores" target="_top">
<polygon fill="#ffffff" stroke="transparent" points="180,-38.2 180,-216.2 399,-216.2 399,-38.2 180,-38.2"/>
<polygon fill="#f5f5f5" stroke="transparent" points="182.5,-191.2 182.5,-214.2 397.5,-214.2 397.5,-191.2 182.5,-191.2"/>
<polygon fill="none" stroke="#000000" points="182.5,-191.2 182.5,-214.2 397.5,-214.2 397.5,-191.2 182.5,-191.2"/>
<text text-anchor="start" x="187.5" y="-200.3" font-family="Helvetica,sans-Serif" font-weight="bold" font-size="11.00" fill="#000000">profesores</text>
<text text-anchor="start" x="362.5437" y="-199.3" font-family="Helvetica,sans-Serif" font-size="11.00" fill="#000000">[table]</text>
<polygon fill="none" stroke="#000000" points="182.5,-169.2 182.5,-191.2 305.5,-191.2 305.5,-169.2 182.5,-169.2"/>
<image xlink:href="../../images/primaryKeys.png" width="11px" height="12px" preserveAspectRatio="xMinYMin meet" x="187.5" y="-186.2"/>
<text text-anchor="start" x="202.5" y="-176.3" font-family="Helvetica,sans-Serif" font-size="11.00" fill="#000000">profesor_id</text>
<polygon fill="none" stroke="#000000" points="305.5,-169.2 305.5,-191.2 397.5,-191.2 397.5,-169.2 305.5,-169.2"/>
<text text-anchor="start" x="308.5" y="-176.9" font-family="Helvetica,sans-Serif" font-size="11.00" fill="#000000">serial[10]</text>
<polygon fill="none" stroke="#000000" points="182.5,-147.2 182.5,-169.2 305.5,-169.2 305.5,-147.2 182.5,-147.2"/>
<image xlink:href="../../images/foreignKeys.png" width="11px" height="12px" preserveAspectRatio="xMinYMin meet" x="187.5" y="-164.2"/>
<text text-anchor="start" x="202.5" y="-154.3" font-family="Helvetica,sans-Serif" font-size="11.00" fill="#000000">persona_id</text>
<polygon fill="none" stroke="#000000" points="305.5,-147.2 305.5,-169.2 397.5,-169.2 397.5,-147.2 305.5,-147.2"/>
<text text-anchor="start" x="308.5" y="-154.9" font-family="Helvetica,sans-Serif" font-size="11.00" fill="#000000">int4[10]</text>
<polygon fill="none" stroke="#000000" points="182.5,-125.2 182.5,-147.2 305.5,-147.2 305.5,-125.2 182.5,-125.2"/>
<text text-anchor="start" x="202.5" y="-132.3" font-family="Helvetica,sans-Serif" font-size="11.00" fill="#000000">usu_insercion</text>
<polygon fill="none" stroke="#000000" points="305.5,-125.2 305.5,-147.2 397.5,-147.2 397.5,-125.2 305.5,-125.2"/>
<text text-anchor="start" x="308.5" y="-132.9" font-family="Helvetica,sans-Serif" font-size="11.00" fill="#000000">varchar[20]</text>
<polygon fill="none" stroke="#000000" points="182.5,-103.2 182.5,-125.2 305.5,-125.2 305.5,-103.2 182.5,-103.2"/>
<text text-anchor="start" x="202.5" y="-110.3" font-family="Helvetica,sans-Serif" font-size="11.00" fill="#000000">fec_insercion</text>
<polygon fill="none" stroke="#000000" points="305.5,-103.2 305.5,-125.2 397.5,-125.2 397.5,-103.2 305.5,-103.2"/>
<text text-anchor="start" x="308.1023" y="-110.9" font-family="Helvetica,sans-Serif" font-size="11.00" fill="#000000">timestamptz[35,6]</text>
<polygon fill="none" stroke="#000000" points="182.5,-81.2 182.5,-103.2 305.5,-103.2 305.5,-81.2 182.5,-81.2"/>
<text text-anchor="start" x="202.5" y="-88.3" font-family="Helvetica,sans-Serif" font-size="11.00" fill="#000000">fec_modificacion</text>
<polygon fill="none" stroke="#000000" points="305.5,-81.2 305.5,-103.2 397.5,-103.2 397.5,-81.2 305.5,-81.2"/>
<text text-anchor="start" x="308.1023" y="-88.9" font-family="Helvetica,sans-Serif" font-size="11.00" fill="#000000">timestamptz[35,6]</text>
<polygon fill="none" stroke="#000000" points="182.5,-59.2 182.5,-81.2 305.5,-81.2 305.5,-59.2 182.5,-59.2"/>
<text text-anchor="start" x="202.5" y="-66.3" font-family="Helvetica,sans-Serif" font-size="11.00" fill="#000000">usu_modificacion</text>
<polygon fill="none" stroke="#000000" points="305.5,-59.2 305.5,-81.2 397.5,-81.2 397.5,-59.2 305.5,-59.2"/>
<text text-anchor="start" x="308.5" y="-66.9" font-family="Helvetica,sans-Serif" font-size="11.00" fill="#000000">varchar[20]</text>
<polygon fill="#ffffff" stroke="transparent" points="182.5,-40.2 182.5,-59.2 235.5,-59.2 235.5,-40.2 182.5,-40.2"/>
<polygon fill="none" stroke="#000000" points="182.5,-40.2 182.5,-59.2 235.5,-59.2 235.5,-40.2 182.5,-40.2"/>
<text text-anchor="start" x="185.5" y="-46.3" font-family="Helvetica,sans-Serif" font-size="11.00" fill="#000000">&lt; 1</text>
<polygon fill="#ffffff" stroke="transparent" points="235.5,-40.2 235.5,-59.2 305.5,-59.2 305.5,-40.2 235.5,-40.2"/>
<polygon fill="none" stroke="#000000" points="235.5,-40.2 235.5,-59.2 305.5,-59.2 305.5,-40.2 235.5,-40.2"/>
<text text-anchor="start" x="270.1105" y="-46.3" font-family="Helvetica,sans-Serif" font-size="11.00" fill="#000000">0 rows</text>
<polygon fill="#ffffff" stroke="transparent" points="305.5,-40.2 305.5,-59.2 397.5,-59.2 397.5,-40.2 305.5,-40.2"/>
<polygon fill="none" stroke="#000000" points="305.5,-40.2 305.5,-59.2 397.5,-59.2 397.5,-40.2 305.5,-40.2"/>
<text text-anchor="start" x="378.9053" y="-46.3" font-family="Helvetica,sans-Serif" font-size="11.00" fill="#000000">1 &gt;</text>
<polygon fill="none" stroke="#000000" stroke-width="2" points="181,-39.2 181,-215.2 398,-215.2 398,-39.2 181,-39.2"/>
</a>
</g>
</g>
<!-- ciclo_profesores&#45;&gt;profesores -->
<g id="edge1" class="edge">
<title>ciclo_profesores:w&#45;&gt;profesores:e</title>
<path fill="none" stroke="#000000" d="M433.776,-180.2C421.7815,-180.2 414.3229,-180.2 397.5,-180.2"/>
<polygon fill="#000000" stroke="#000000" points="440.5,-180.2001 448.5,-183.8 444.5,-180.2 448.5,-180.2 448.5,-180.2 448.5,-180.2 444.5,-180.2 448.5,-176.6 440.5,-180.2001 440.5,-180.2001"/>
<ellipse fill="none" stroke="#000000" cx="437.3" cy="-180.2001" rx="3.2" ry="3.2"/>
</g>
<!-- personas -->
<g id="node3" class="node">
<title>personas</title>
<g id="a_node3"><a xlink:href="../../tables/personas.html" xlink:title="personas" target="_top">
<polygon fill="#ffffff" stroke="transparent" points="8,-109.7 8,-192.7 131,-192.7 131,-109.7 8,-109.7"/>
<polygon fill="#f5f5f5" stroke="transparent" points="8.5,-169.2 8.5,-192.2 131.5,-192.2 131.5,-169.2 8.5,-169.2"/>
<polygon fill="none" stroke="#000000" points="8.5,-169.2 8.5,-192.2 131.5,-192.2 131.5,-169.2 8.5,-169.2"/>
<text text-anchor="start" x="13.5" y="-178.3" font-family="Helvetica,sans-Serif" font-weight="bold" font-size="11.00" fill="#000000">personas</text>
<text text-anchor="start" x="96.5437" y="-177.3" font-family="Helvetica,sans-Serif" font-size="11.00" fill="#000000">[table]</text>
<polygon fill="none" stroke="#000000" points="8.5,-147.2 8.5,-169.2 131.5,-169.2 131.5,-147.2 8.5,-147.2"/>
<image xlink:href="../../images/primaryKeys.png" width="11px" height="12px" preserveAspectRatio="xMinYMin meet" x="13.5" y="-164.2"/>
<text text-anchor="start" x="28.5" y="-154.3" font-family="Helvetica,sans-Serif" font-size="11.00" fill="#000000">persona_id</text>
<polygon fill="none" stroke="#000000" points="8.5,-128.2 8.5,-147.2 131.5,-147.2 131.5,-128.2 8.5,-128.2"/>
<text text-anchor="start" x="11.5" y="-134.3" font-family="Helvetica,sans-Serif" font-size="11.00" fill="#000000">...</text>
<polygon fill="#ffffff" stroke="transparent" points="8.5,-109.2 8.5,-128.2 46.5,-128.2 46.5,-109.2 8.5,-109.2"/>
<polygon fill="none" stroke="#000000" points="8.5,-109.2 8.5,-128.2 46.5,-128.2 46.5,-109.2 8.5,-109.2"/>
<text text-anchor="start" x="11.5" y="-115.3" font-family="Helvetica,sans-Serif" font-size="11.00" fill="#000000"> &#160;</text>
<polygon fill="#ffffff" stroke="transparent" points="46.5,-109.2 46.5,-128.2 97.5,-128.2 97.5,-109.2 46.5,-109.2"/>
<polygon fill="none" stroke="#000000" points="46.5,-109.2 46.5,-128.2 97.5,-128.2 97.5,-109.2 46.5,-109.2"/>
<text text-anchor="start" x="62.1105" y="-115.3" font-family="Helvetica,sans-Serif" font-size="11.00" fill="#000000">2 rows</text>
<polygon fill="#ffffff" stroke="transparent" points="97.5,-109.2 97.5,-128.2 131.5,-128.2 131.5,-109.2 97.5,-109.2"/>
<polygon fill="none" stroke="#000000" points="97.5,-109.2 97.5,-128.2 131.5,-128.2 131.5,-109.2 97.5,-109.2"/>
<text text-anchor="start" x="112.9053" y="-115.3" font-family="Helvetica,sans-Serif" font-size="11.00" fill="#000000">7 &gt;</text>
</a>
</g>
</g>
<!-- profesores&#45;&gt;personas -->
<g id="edge2" class="edge">
<title>profesores:w&#45;&gt;personas:e</title>
<path fill="none" stroke="#000000" d="M167.776,-158.2C155.7815,-158.2 148.3229,-158.2 131.5,-158.2"/>
<polygon fill="#000000" stroke="#000000" points="174.5,-158.2001 182.5,-161.8 178.5,-158.2 182.5,-158.2 182.5,-158.2 182.5,-158.2 178.5,-158.2 182.5,-154.6 174.5,-158.2001 174.5,-158.2001"/>
<ellipse fill="none" stroke="#000000" cx="171.3" cy="-158.2001" rx="3.2" ry="3.2"/>
</g>
</g>
</svg>
