<?xml version="1.0" encoding="UTF-8" standalone="no"?>
<!DOCTYPE svg PUBLIC "-//W3C//DTD SVG 1.1//EN"
 "http://www.w3.org/Graphics/SVG/1.1/DTD/svg11.dtd">
<!-- Generated by graphviz version 2.40.1 (20161225.0304)
 -->
<!-- Title: twoDegreesRelationshipsDiagram Pages: 1 -->
<svg width="587pt" height="776pt"
 viewBox="0.00 0.00 587.00 775.70" xmlns="http://www.w3.org/2000/svg" xmlns:xlink="http://www.w3.org/1999/xlink">
<g id="graph0" class="graph" transform="scale(1 1) rotate(0) translate(4 771.7)">
<title>twoDegreesRelationshipsDiagram</title>
<polygon fill="#ffffff" stroke="transparent" points="-4,4 -4,-771.7 583,-771.7 583,4 -4,4"/>
<text text-anchor="middle" x="72.4936" y="-7.3" font-family="Helvetica,sans-Serif" font-size="11.00" fill="#000000">Generated by SchemaSpy</text>
<!-- ciclo_aulas -->
<g id="node1" class="node">
<title>ciclo_aulas</title>
<g id="a_node1"><a xlink:href="../../tables/ciclo_aulas.html" xlink:title="ciclo_aulas" target="_top">
<polygon fill="#ffffff" stroke="transparent" points="241,-476.2 241,-537.2 338,-537.2 338,-476.2 241,-476.2"/>
<polygon fill="#f5f5f5" stroke="transparent" points="241.5,-513.7 241.5,-536.7 338.5,-536.7 338.5,-513.7 241.5,-513.7"/>
<polygon fill="none" stroke="#000000" points="241.5,-513.7 241.5,-536.7 338.5,-536.7 338.5,-513.7 241.5,-513.7"/>
<text text-anchor="start" x="246.3014" y="-522.8" font-family="Helvetica,sans-Serif" font-weight="bold" font-size="11.00" fill="#000000">ciclo_aulas</text>
<text text-anchor="start" x="304.0219" y="-521.8" font-family="Helvetica,sans-Serif" font-size="11.00" fill="#000000">[table]</text>
<polygon fill="none" stroke="#000000" points="241.5,-494.7 241.5,-513.7 338.5,-513.7 338.5,-494.7 241.5,-494.7"/>
<text text-anchor="start" x="244.5" y="-500.8" font-family="Helvetica,sans-Serif" font-size="11.00" fill="#000000">...</text>
<polygon fill="#ffffff" stroke="transparent" points="241.5,-475.7 241.5,-494.7 270.5,-494.7 270.5,-475.7 241.5,-475.7"/>
<polygon fill="none" stroke="#000000" points="241.5,-475.7 241.5,-494.7 270.5,-494.7 270.5,-475.7 241.5,-475.7"/>
<text text-anchor="start" x="244.5" y="-481.8" font-family="Helvetica,sans-Serif" font-size="11.00" fill="#000000">&lt; 3</text>
<polygon fill="#ffffff" stroke="transparent" points="270.5,-475.7 270.5,-494.7 312.5,-494.7 312.5,-475.7 270.5,-475.7"/>
<polygon fill="none" stroke="#000000" points="270.5,-475.7 270.5,-494.7 312.5,-494.7 312.5,-475.7 270.5,-475.7"/>
<text text-anchor="start" x="277.1105" y="-481.8" font-family="Helvetica,sans-Serif" font-size="11.00" fill="#000000">0 rows</text>
<polygon fill="#ffffff" stroke="transparent" points="312.5,-475.7 312.5,-494.7 338.5,-494.7 338.5,-475.7 312.5,-475.7"/>
<polygon fill="none" stroke="#000000" points="312.5,-475.7 312.5,-494.7 338.5,-494.7 338.5,-475.7 312.5,-475.7"/>
<text text-anchor="start" x="319.9053" y="-481.8" font-family="Helvetica,sans-Serif" font-size="11.00" fill="#000000">1 &gt;</text>
</a>
</g>
</g>
<!-- curso_ciclos -->
<g id="node2" class="node">
<title>curso_ciclos</title>
<g id="a_node2"><a xlink:href="../../tables/curso_ciclos.html" xlink:title="curso_ciclos" target="_top">
<polygon fill="#ffffff" stroke="transparent" points="18,-505.2 18,-566.2 121,-566.2 121,-505.2 18,-505.2"/>
<polygon fill="#f5f5f5" stroke="transparent" points="18.5,-542.7 18.5,-565.7 121.5,-565.7 121.5,-542.7 18.5,-542.7"/>
<polygon fill="none" stroke="#000000" points="18.5,-542.7 18.5,-565.7 121.5,-565.7 121.5,-542.7 18.5,-542.7"/>
<text text-anchor="start" x="23.2484" y="-551.8" font-family="Helvetica,sans-Serif" font-weight="bold" font-size="11.00" fill="#000000">curso_ciclos</text>
<text text-anchor="start" x="87.0219" y="-550.8" font-family="Helvetica,sans-Serif" font-size="11.00" fill="#000000">[table]</text>
<polygon fill="none" stroke="#000000" points="18.5,-523.7 18.5,-542.7 121.5,-542.7 121.5,-523.7 18.5,-523.7"/>
<text text-anchor="start" x="21.5" y="-529.8" font-family="Helvetica,sans-Serif" font-size="11.00" fill="#000000">...</text>
<polygon fill="#ffffff" stroke="transparent" points="18.5,-504.7 18.5,-523.7 50.5,-523.7 50.5,-504.7 18.5,-504.7"/>
<polygon fill="none" stroke="#000000" points="18.5,-504.7 18.5,-523.7 50.5,-523.7 50.5,-504.7 18.5,-504.7"/>
<text text-anchor="start" x="21.5" y="-510.8" font-family="Helvetica,sans-Serif" font-size="11.00" fill="#000000">&lt; 1</text>
<polygon fill="#ffffff" stroke="transparent" points="50.5,-504.7 50.5,-523.7 94.5,-523.7 94.5,-504.7 50.5,-504.7"/>
<polygon fill="none" stroke="#000000" points="50.5,-504.7 50.5,-523.7 94.5,-523.7 94.5,-504.7 50.5,-504.7"/>
<text text-anchor="start" x="59.1105" y="-510.8" font-family="Helvetica,sans-Serif" font-size="11.00" fill="#000000">0 rows</text>
<polygon fill="#ffffff" stroke="transparent" points="94.5,-504.7 94.5,-523.7 121.5,-523.7 121.5,-504.7 94.5,-504.7"/>
<polygon fill="none" stroke="#000000" points="94.5,-504.7 94.5,-523.7 121.5,-523.7 121.5,-504.7 94.5,-504.7"/>
<text text-anchor="start" x="102.9053" y="-510.8" font-family="Helvetica,sans-Serif" font-size="11.00" fill="#000000">2 &gt;</text>
</a>
</g>
</g>
<!-- ciclo_aulas&#45;&gt;curso_ciclos -->
<g id="edge1" class="edge">
<title>ciclo_aulas:w&#45;&gt;curso_ciclos:e</title>
<path fill="none" stroke="#000000" d="M226.8941,-504.446C184.2585,-508.9852 171.1175,-532.7 121.5,-532.7"/>
<polygon fill="#000000" stroke="#000000" points="233.5104,-504.1081 241.6837,-507.2953 237.5052,-503.9041 241.5,-503.7 241.5,-503.7 241.5,-503.7 237.5052,-503.9041 241.3163,-500.1047 233.5104,-504.1081 233.5104,-504.1081"/>
<ellipse fill="none" stroke="#000000" cx="230.3146" cy="-504.2714" rx="3.2" ry="3.2"/>
</g>
<!-- ciclo_profesores -->
<g id="node3" class="node">
<title>ciclo_profesores</title>
<g id="a_node3"><a xlink:href="../../tables/ciclo_profesores.html" xlink:title="ciclo_profesores" target="_top">
<polygon fill="#ffffff" stroke="transparent" points="448,-491.2 448,-640.2 571,-640.2 571,-491.2 448,-491.2"/>
<polygon fill="#f5f5f5" stroke="transparent" points="448.5,-616.7 448.5,-639.7 571.5,-639.7 571.5,-616.7 448.5,-616.7"/>
<polygon fill="none" stroke="#000000" points="448.5,-616.7 448.5,-639.7 571.5,-639.7 571.5,-616.7 448.5,-616.7"/>
<text text-anchor="start" x="453.4666" y="-625.8" font-family="Helvetica,sans-Serif" font-weight="bold" font-size="11.00" fill="#000000">ciclo_profesores</text>
<text text-anchor="start" x="537.0219" y="-624.8" font-family="Helvetica,sans-Serif" font-size="11.00" fill="#000000">[table]</text>
<polygon fill="none" stroke="#000000" points="448.5,-594.7 448.5,-616.7 571.5,-616.7 571.5,-594.7 448.5,-594.7"/>
<image xlink:href="../../images/primaryKeys.png" width="11px" height="12px" preserveAspectRatio="xMinYMin meet" x="453.5" y="-611.7"/>
<text text-anchor="start" x="468.5" y="-601.8" font-family="Helvetica,sans-Serif" font-size="11.00" fill="#000000">ciclo_profesor_id</text>
<polygon fill="none" stroke="#000000" points="448.5,-572.7 448.5,-594.7 571.5,-594.7 571.5,-572.7 448.5,-572.7"/>
<image xlink:href="../../images/foreignKeys.png" width="11px" height="12px" preserveAspectRatio="xMinYMin meet" x="453.5" y="-589.7"/>
<text text-anchor="start" x="468.5" y="-579.8" font-family="Helvetica,sans-Serif" font-size="11.00" fill="#000000">profesor_id</text>
<polygon fill="none" stroke="#000000" points="448.5,-550.7 448.5,-572.7 571.5,-572.7 571.5,-550.7 448.5,-550.7"/>
<image xlink:href="../../images/foreignKeys.png" width="11px" height="12px" preserveAspectRatio="xMinYMin meet" x="453.5" y="-567.7"/>
<text text-anchor="start" x="468.5" y="-557.8" font-family="Helvetica,sans-Serif" font-size="11.00" fill="#000000">ciclo_id</text>
<polygon fill="none" stroke="#000000" points="448.5,-528.7 448.5,-550.7 571.5,-550.7 571.5,-528.7 448.5,-528.7"/>
<image xlink:href="../../images/foreignKeys.png" width="11px" height="12px" preserveAspectRatio="xMinYMin meet" x="453.5" y="-545.7"/>
<text text-anchor="start" x="468.5" y="-535.8" font-family="Helvetica,sans-Serif" font-size="11.00" fill="#000000">aula_id</text>
<polygon fill="none" stroke="#000000" points="448.5,-509.7 448.5,-528.7 571.5,-528.7 571.5,-509.7 448.5,-509.7"/>
<text text-anchor="start" x="451.5" y="-515.8" font-family="Helvetica,sans-Serif" font-size="11.00" fill="#000000">...</text>
<polygon fill="#ffffff" stroke="transparent" points="448.5,-490.7 448.5,-509.7 495.5,-509.7 495.5,-490.7 448.5,-490.7"/>
<polygon fill="none" stroke="#000000" points="448.5,-490.7 448.5,-509.7 495.5,-509.7 495.5,-490.7 448.5,-490.7"/>
<text text-anchor="start" x="451.5" y="-496.8" font-family="Helvetica,sans-Serif" font-size="11.00" fill="#000000">&lt; 3</text>
<polygon fill="#ffffff" stroke="transparent" points="495.5,-490.7 495.5,-509.7 546.5,-509.7 546.5,-490.7 495.5,-490.7"/>
<polygon fill="none" stroke="#000000" points="495.5,-490.7 495.5,-509.7 546.5,-509.7 546.5,-490.7 495.5,-490.7"/>
<text text-anchor="start" x="511.1105" y="-496.8" font-family="Helvetica,sans-Serif" font-size="11.00" fill="#000000">0 rows</text>
<polygon fill="#ffffff" stroke="transparent" points="546.5,-490.7 546.5,-509.7 571.5,-509.7 571.5,-490.7 546.5,-490.7"/>
<polygon fill="none" stroke="#000000" points="546.5,-490.7 546.5,-509.7 571.5,-509.7 571.5,-490.7 546.5,-490.7"/>
<text text-anchor="start" x="562.3862" y="-496.8" font-family="Helvetica,sans-Serif" font-size="11.00" fill="#000000"> &#160;</text>
</a>
</g>
</g>
<!-- ciclo_profesores&#45;&gt;ciclo_aulas -->
<g id="edge2" class="edge">
<title>ciclo_profesores:w&#45;&gt;ciclo_aulas:e</title>
<path fill="none" stroke="#000000" d="M434.1054,-538.6614C395.1563,-532.7588 384.7161,-503.7 338.5,-503.7"/>
<polygon fill="#000000" stroke="#000000" points="440.5207,-539.1242 448.2409,-543.2907 444.5104,-539.4121 448.5,-539.7 448.5,-539.7 448.5,-539.7 444.5104,-539.4121 448.7591,-536.1093 440.5207,-539.1242 440.5207,-539.1242"/>
<ellipse fill="none" stroke="#000000" cx="437.329" cy="-538.8939" rx="3.2" ry="3.2"/>
</g>
<!-- ciclo_profesores&#45;&gt;curso_ciclos -->
<g id="edge3" class="edge">
<title>ciclo_profesores:w&#45;&gt;curso_ciclos:e</title>
<path fill="none" stroke="#000000" d="M433.8057,-561.7318C322.6645,-562.2095 288.3053,-567.6238 172,-547.7 148.9225,-543.7467 144.9136,-532.7 121.5,-532.7"/>
<polygon fill="#000000" stroke="#000000" points="440.5,-561.7174 448.5078,-565.3 444.5,-561.7087 448.5,-561.7 448.5,-561.7 448.5,-561.7 444.5,-561.7087 448.4922,-558.1 440.5,-561.7174 440.5,-561.7174"/>
<ellipse fill="none" stroke="#000000" cx="437.3" cy="-561.7243" rx="3.2" ry="3.2"/>
</g>
<!-- profesores -->
<g id="node4" class="node">
<title>profesores</title>
<g id="a_node4"><a xlink:href="../../tables/profesores.html" xlink:title="profesores" target="_top">
<polygon fill="#ffffff" stroke="transparent" points="180,-585.7 180,-763.7 399,-763.7 399,-585.7 180,-585.7"/>
<polygon fill="#f5f5f5" stroke="transparent" points="182.5,-738.7 182.5,-761.7 397.5,-761.7 397.5,-738.7 182.5,-738.7"/>
<polygon fill="none" stroke="#000000" points="182.5,-738.7 182.5,-761.7 397.5,-761.7 397.5,-738.7 182.5,-738.7"/>
<text text-anchor="start" x="187.5" y="-747.8" font-family="Helvetica,sans-Serif" font-weight="bold" font-size="11.00" fill="#000000">profesores</text>
<text text-anchor="start" x="362.5437" y="-746.8" font-family="Helvetica,sans-Serif" font-size="11.00" fill="#000000">[table]</text>
<polygon fill="none" stroke="#000000" points="182.5,-716.7 182.5,-738.7 305.5,-738.7 305.5,-716.7 182.5,-716.7"/>
<image xlink:href="../../images/primaryKeys.png" width="11px" height="12px" preserveAspectRatio="xMinYMin meet" x="187.5" y="-733.7"/>
<text text-anchor="start" x="202.5" y="-723.8" font-family="Helvetica,sans-Serif" font-size="11.00" fill="#000000">profesor_id</text>
<polygon fill="none" stroke="#000000" points="305.5,-716.7 305.5,-738.7 397.5,-738.7 397.5,-716.7 305.5,-716.7"/>
<text text-anchor="start" x="308.5" y="-724.4" font-family="Helvetica,sans-Serif" font-size="11.00" fill="#000000">serial[10]</text>
<polygon fill="none" stroke="#000000" points="182.5,-694.7 182.5,-716.7 305.5,-716.7 305.5,-694.7 182.5,-694.7"/>
<image xlink:href="../../images/foreignKeys.png" width="11px" height="12px" preserveAspectRatio="xMinYMin meet" x="187.5" y="-711.7"/>
<text text-anchor="start" x="202.5" y="-701.8" font-family="Helvetica,sans-Serif" font-size="11.00" fill="#000000">persona_id</text>
<polygon fill="none" stroke="#000000" points="305.5,-694.7 305.5,-716.7 397.5,-716.7 397.5,-694.7 305.5,-694.7"/>
<text text-anchor="start" x="308.5" y="-702.4" font-family="Helvetica,sans-Serif" font-size="11.00" fill="#000000">int4[10]</text>
<polygon fill="none" stroke="#000000" points="182.5,-672.7 182.5,-694.7 305.5,-694.7 305.5,-672.7 182.5,-672.7"/>
<text text-anchor="start" x="202.5" y="-679.8" font-family="Helvetica,sans-Serif" font-size="11.00" fill="#000000">usu_insercion</text>
<polygon fill="none" stroke="#000000" points="305.5,-672.7 305.5,-694.7 397.5,-694.7 397.5,-672.7 305.5,-672.7"/>
<text text-anchor="start" x="308.5" y="-680.4" font-family="Helvetica,sans-Serif" font-size="11.00" fill="#000000">varchar[20]</text>
<polygon fill="none" stroke="#000000" points="182.5,-650.7 182.5,-672.7 305.5,-672.7 305.5,-650.7 182.5,-650.7"/>
<text text-anchor="start" x="202.5" y="-657.8" font-family="Helvetica,sans-Serif" font-size="11.00" fill="#000000">fec_insercion</text>
<polygon fill="none" stroke="#000000" points="305.5,-650.7 305.5,-672.7 397.5,-672.7 397.5,-650.7 305.5,-650.7"/>
<text text-anchor="start" x="308.1023" y="-658.4" font-family="Helvetica,sans-Serif" font-size="11.00" fill="#000000">timestamptz[35,6]</text>
<polygon fill="none" stroke="#000000" points="182.5,-628.7 182.5,-650.7 305.5,-650.7 305.5,-628.7 182.5,-628.7"/>
<text text-anchor="start" x="202.5" y="-635.8" font-family="Helvetica,sans-Serif" font-size="11.00" fill="#000000">fec_modificacion</text>
<polygon fill="none" stroke="#000000" points="305.5,-628.7 305.5,-650.7 397.5,-650.7 397.5,-628.7 305.5,-628.7"/>
<text text-anchor="start" x="308.1023" y="-636.4" font-family="Helvetica,sans-Serif" font-size="11.00" fill="#000000">timestamptz[35,6]</text>
<polygon fill="none" stroke="#000000" points="182.5,-606.7 182.5,-628.7 305.5,-628.7 305.5,-606.7 182.5,-606.7"/>
<text text-anchor="start" x="202.5" y="-613.8" font-family="Helvetica,sans-Serif" font-size="11.00" fill="#000000">usu_modificacion</text>
<polygon fill="none" stroke="#000000" points="305.5,-606.7 305.5,-628.7 397.5,-628.7 397.5,-606.7 305.5,-606.7"/>
<text text-anchor="start" x="308.5" y="-614.4" font-family="Helvetica,sans-Serif" font-size="11.00" fill="#000000">varchar[20]</text>
<polygon fill="#ffffff" stroke="transparent" points="182.5,-587.7 182.5,-606.7 235.5,-606.7 235.5,-587.7 182.5,-587.7"/>
<polygon fill="none" stroke="#000000" points="182.5,-587.7 182.5,-606.7 235.5,-606.7 235.5,-587.7 182.5,-587.7"/>
<text text-anchor="start" x="185.5" y="-593.8" font-family="Helvetica,sans-Serif" font-size="11.00" fill="#000000">&lt; 1</text>
<polygon fill="#ffffff" stroke="transparent" points="235.5,-587.7 235.5,-606.7 305.5,-606.7 305.5,-587.7 235.5,-587.7"/>
<polygon fill="none" stroke="#000000" points="235.5,-587.7 235.5,-606.7 305.5,-606.7 305.5,-587.7 235.5,-587.7"/>
<text text-anchor="start" x="270.1105" y="-593.8" font-family="Helvetica,sans-Serif" font-size="11.00" fill="#000000">0 rows</text>
<polygon fill="#ffffff" stroke="transparent" points="305.5,-587.7 305.5,-606.7 397.5,-606.7 397.5,-587.7 305.5,-587.7"/>
<polygon fill="none" stroke="#000000" points="305.5,-587.7 305.5,-606.7 397.5,-606.7 397.5,-587.7 305.5,-587.7"/>
<text text-anchor="start" x="378.9053" y="-593.8" font-family="Helvetica,sans-Serif" font-size="11.00" fill="#000000">1 &gt;</text>
<polygon fill="none" stroke="#000000" stroke-width="2" points="181,-586.7 181,-762.7 398,-762.7 398,-586.7 181,-586.7"/>
</a>
</g>
</g>
<!-- ciclo_profesores&#45;&gt;profesores -->
<g id="edge4" class="edge">
<title>ciclo_profesores:w&#45;&gt;profesores:e</title>
<path fill="none" stroke="#000000" d="M434.1848,-586.7076C394.0504,-607.3865 459.5606,-727.7 397.5,-727.7"/>
<polygon fill="#000000" stroke="#000000" points="440.6709,-585.3449 449.2402,-587.2231 444.5855,-584.5225 448.5,-583.7 448.5,-583.7 448.5,-583.7 444.5855,-584.5225 447.7598,-580.1769 440.6709,-585.3449 440.6709,-585.3449"/>
<ellipse fill="none" stroke="#000000" cx="437.5393" cy="-586.0029" rx="3.2" ry="3.2"/>
</g>
<!-- personas -->
<g id="node7" class="node">
<title>personas</title>
<g id="a_node7"><a xlink:href="../../tables/personas.html" xlink:title="personas" target="_top">
<polygon fill="#ffffff" stroke="transparent" points="8,-263.2 8,-346.2 131,-346.2 131,-263.2 8,-263.2"/>
<polygon fill="#f5f5f5" stroke="transparent" points="8.5,-322.7 8.5,-345.7 131.5,-345.7 131.5,-322.7 8.5,-322.7"/>
<polygon fill="none" stroke="#000000" points="8.5,-322.7 8.5,-345.7 131.5,-345.7 131.5,-322.7 8.5,-322.7"/>
<text text-anchor="start" x="13.5" y="-331.8" font-family="Helvetica,sans-Serif" font-weight="bold" font-size="11.00" fill="#000000">personas</text>
<text text-anchor="start" x="96.5437" y="-330.8" font-family="Helvetica,sans-Serif" font-size="11.00" fill="#000000">[table]</text>
<polygon fill="none" stroke="#000000" points="8.5,-300.7 8.5,-322.7 131.5,-322.7 131.5,-300.7 8.5,-300.7"/>
<image xlink:href="../../images/primaryKeys.png" width="11px" height="12px" preserveAspectRatio="xMinYMin meet" x="13.5" y="-317.7"/>
<text text-anchor="start" x="28.5" y="-307.8" font-family="Helvetica,sans-Serif" font-size="11.00" fill="#000000">persona_id</text>
<polygon fill="none" stroke="#000000" points="8.5,-281.7 8.5,-300.7 131.5,-300.7 131.5,-281.7 8.5,-281.7"/>
<text text-anchor="start" x="11.5" y="-287.8" font-family="Helvetica,sans-Serif" font-size="11.00" fill="#000000">...</text>
<polygon fill="#ffffff" stroke="transparent" points="8.5,-262.7 8.5,-281.7 46.5,-281.7 46.5,-262.7 8.5,-262.7"/>
<polygon fill="none" stroke="#000000" points="8.5,-262.7 8.5,-281.7 46.5,-281.7 46.5,-262.7 8.5,-262.7"/>
<text text-anchor="start" x="11.5" y="-268.8" font-family="Helvetica,sans-Serif" font-size="11.00" fill="#000000"> &#160;</text>
<polygon fill="#ffffff" stroke="transparent" points="46.5,-262.7 46.5,-281.7 97.5,-281.7 97.5,-262.7 46.5,-262.7"/>
<polygon fill="none" stroke="#000000" points="46.5,-262.7 46.5,-281.7 97.5,-281.7 97.5,-262.7 46.5,-262.7"/>
<text text-anchor="start" x="62.1105" y="-268.8" font-family="Helvetica,sans-Serif" font-size="11.00" fill="#000000">0 rows</text>
<polygon fill="#ffffff" stroke="transparent" points="97.5,-262.7 97.5,-281.7 131.5,-281.7 131.5,-262.7 97.5,-262.7"/>
<polygon fill="none" stroke="#000000" points="97.5,-262.7 97.5,-281.7 131.5,-281.7 131.5,-262.7 97.5,-262.7"/>
<text text-anchor="start" x="112.9053" y="-268.8" font-family="Helvetica,sans-Serif" font-size="11.00" fill="#000000">7 &gt;</text>
</a>
</g>
</g>
<!-- profesores&#45;&gt;personas -->
<g id="edge11" class="edge">
<title>profesores:w&#45;&gt;personas:e</title>
<path fill="none" stroke="#000000" d="M168.3481,-701.2752C109.0751,-657.9891 214.2681,-311.7 131.5,-311.7"/>
<polygon fill="#000000" stroke="#000000" points="174.8645,-703.3126 181.4257,-709.136 178.6823,-704.5063 182.5,-705.7 182.5,-705.7 182.5,-705.7 178.6823,-704.5063 183.5743,-702.264 174.8645,-703.3126 174.8645,-703.3126"/>
<ellipse fill="none" stroke="#000000" cx="171.8103" cy="-702.3577" rx="3.2" ry="3.2"/>
</g>
<!-- contactos -->
<g id="node5" class="node">
<title>contactos</title>
<g id="a_node5"><a xlink:href="../../tables/contactos.html" xlink:title="contactos" target="_top">
<polygon fill="#ffffff" stroke="transparent" points="464.5,-368.2 464.5,-429.2 554.5,-429.2 554.5,-368.2 464.5,-368.2"/>
<polygon fill="#f5f5f5" stroke="transparent" points="464.5,-405.7 464.5,-428.7 554.5,-428.7 554.5,-405.7 464.5,-405.7"/>
<polygon fill="none" stroke="#000000" points="464.5,-405.7 464.5,-428.7 554.5,-428.7 554.5,-405.7 464.5,-405.7"/>
<text text-anchor="start" x="469.4633" y="-414.8" font-family="Helvetica,sans-Serif" font-weight="bold" font-size="11.00" fill="#000000">contactos</text>
<text text-anchor="start" x="520.0219" y="-413.8" font-family="Helvetica,sans-Serif" font-size="11.00" fill="#000000">[table]</text>
<polygon fill="none" stroke="#000000" points="464.5,-386.7 464.5,-405.7 554.5,-405.7 554.5,-386.7 464.5,-386.7"/>
<text text-anchor="start" x="467.5" y="-392.8" font-family="Helvetica,sans-Serif" font-size="11.00" fill="#000000">...</text>
<polygon fill="#ffffff" stroke="transparent" points="464.5,-367.7 464.5,-386.7 490.5,-386.7 490.5,-367.7 464.5,-367.7"/>
<polygon fill="none" stroke="#000000" points="464.5,-367.7 464.5,-386.7 490.5,-386.7 490.5,-367.7 464.5,-367.7"/>
<text text-anchor="start" x="467.5" y="-373.8" font-family="Helvetica,sans-Serif" font-size="11.00" fill="#000000">&lt; 2</text>
<polygon fill="#ffffff" stroke="transparent" points="490.5,-367.7 490.5,-386.7 530.5,-386.7 530.5,-367.7 490.5,-367.7"/>
<polygon fill="none" stroke="#000000" points="490.5,-367.7 490.5,-386.7 530.5,-386.7 530.5,-367.7 490.5,-367.7"/>
<text text-anchor="start" x="495.1105" y="-373.8" font-family="Helvetica,sans-Serif" font-size="11.00" fill="#000000">0 rows</text>
<polygon fill="#ffffff" stroke="transparent" points="530.5,-367.7 530.5,-386.7 554.5,-386.7 554.5,-367.7 530.5,-367.7"/>
<polygon fill="none" stroke="#000000" points="530.5,-367.7 530.5,-386.7 554.5,-386.7 554.5,-367.7 530.5,-367.7"/>
<text text-anchor="start" x="535.9053" y="-373.8" font-family="Helvetica,sans-Serif" font-size="11.00" fill="#000000">2 &gt;</text>
</a>
</g>
</g>
<!-- organizaciones -->
<g id="node6" class="node">
<title>organizaciones</title>
<g id="a_node6"><a xlink:href="../../tables/organizaciones.html" xlink:title="organizaciones" target="_top">
<polygon fill="#ffffff" stroke="transparent" points="231.5,-394.2 231.5,-455.2 347.5,-455.2 347.5,-394.2 231.5,-394.2"/>
<polygon fill="#f5f5f5" stroke="transparent" points="231.5,-431.7 231.5,-454.7 347.5,-454.7 347.5,-431.7 231.5,-431.7"/>
<polygon fill="none" stroke="#000000" points="231.5,-431.7 231.5,-454.7 347.5,-454.7 347.5,-431.7 231.5,-431.7"/>
<text text-anchor="start" x="236.0186" y="-440.8" font-family="Helvetica,sans-Serif" font-weight="bold" font-size="11.00" fill="#000000">organizaciones</text>
<text text-anchor="start" x="313.0219" y="-439.8" font-family="Helvetica,sans-Serif" font-size="11.00" fill="#000000">[table]</text>
<polygon fill="none" stroke="#000000" points="231.5,-412.7 231.5,-431.7 347.5,-431.7 347.5,-412.7 231.5,-412.7"/>
<text text-anchor="start" x="234.5" y="-418.8" font-family="Helvetica,sans-Serif" font-size="11.00" fill="#000000">...</text>
<polygon fill="#ffffff" stroke="transparent" points="231.5,-393.7 231.5,-412.7 270.5,-412.7 270.5,-393.7 231.5,-393.7"/>
<polygon fill="none" stroke="#000000" points="231.5,-393.7 231.5,-412.7 270.5,-412.7 270.5,-393.7 231.5,-393.7"/>
<text text-anchor="start" x="234.5" y="-399.8" font-family="Helvetica,sans-Serif" font-size="11.00" fill="#000000">&lt; 1</text>
<polygon fill="#ffffff" stroke="transparent" points="270.5,-393.7 270.5,-412.7 317.5,-412.7 317.5,-393.7 270.5,-393.7"/>
<polygon fill="none" stroke="#000000" points="270.5,-393.7 270.5,-412.7 317.5,-412.7 317.5,-393.7 270.5,-393.7"/>
<text text-anchor="start" x="282.1105" y="-399.8" font-family="Helvetica,sans-Serif" font-size="11.00" fill="#000000">0 rows</text>
<polygon fill="#ffffff" stroke="transparent" points="317.5,-393.7 317.5,-412.7 347.5,-412.7 347.5,-393.7 317.5,-393.7"/>
<polygon fill="none" stroke="#000000" points="317.5,-393.7 317.5,-412.7 347.5,-412.7 347.5,-393.7 317.5,-393.7"/>
<text text-anchor="start" x="328.9053" y="-399.8" font-family="Helvetica,sans-Serif" font-size="11.00" fill="#000000">1 &gt;</text>
</a>
</g>
</g>
<!-- contactos&#45;&gt;organizaciones -->
<g id="edge5" class="edge">
<title>contactos:w&#45;&gt;organizaciones:e</title>
<path fill="none" stroke="#000000" d="M450.0389,-396.3954C408.7797,-400.5302 395.5665,-421.7 347.5,-421.7"/>
<polygon fill="#000000" stroke="#000000" points="456.5092,-396.0843 464.6729,-399.2958 460.5046,-395.8922 464.5,-395.7 464.5,-395.7 464.5,-395.7 460.5046,-395.8922 464.3271,-392.1042 456.5092,-396.0843 456.5092,-396.0843"/>
<ellipse fill="none" stroke="#000000" cx="453.3129" cy="-396.2381" rx="3.2" ry="3.2"/>
</g>
<!-- contactos&#45;&gt;personas -->
<g id="edge6" class="edge">
<title>contactos:w&#45;&gt;personas:e</title>
<path fill="none" stroke="#000000" d="M449.8822,-394.7013C434.9672,-392.4649 427.1278,-386.993 407,-383.7 303.1968,-366.7175 265.6494,-403.5883 172,-355.7 148.3359,-343.5992 158.0786,-311.7 131.5,-311.7"/>
<polygon fill="#000000" stroke="#000000" points="456.5186,-395.1546 464.2546,-399.2916 460.5093,-395.4273 464.5,-395.7 464.5,-395.7 464.5,-395.7 460.5093,-395.4273 464.7454,-392.1084 456.5186,-395.1546 456.5186,-395.1546"/>
<ellipse fill="none" stroke="#000000" cx="453.326" cy="-394.9365" rx="3.2" ry="3.2"/>
</g>
<!-- organizaciones&#45;&gt;personas -->
<g id="edge10" class="edge">
<title>organizaciones:w&#45;&gt;personas:e</title>
<path fill="none" stroke="#000000" d="M216.9986,-420.1479C196.8645,-415.2663 190.2059,-399.3744 172,-379.7 148.1087,-353.8816 166.6765,-311.7 131.5,-311.7"/>
<polygon fill="#000000" stroke="#000000" points="223.5454,-420.8486 231.1169,-425.2796 227.5227,-421.2743 231.5,-421.7 231.5,-421.7 231.5,-421.7 227.5227,-421.2743 231.8831,-418.1204 223.5454,-420.8486 223.5454,-420.8486"/>
<ellipse fill="none" stroke="#000000" cx="220.3636" cy="-420.508" rx="3.2" ry="3.2"/>
</g>
<!-- direcciones -->
<g id="node8" class="node">
<title>direcciones</title>
<g id="a_node8"><a xlink:href="../../tables/direcciones.html" xlink:title="direcciones" target="_top">
<polygon fill="#ffffff" stroke="transparent" points="240.5,-284.2 240.5,-345.2 338.5,-345.2 338.5,-284.2 240.5,-284.2"/>
<polygon fill="#f5f5f5" stroke="transparent" points="240.5,-321.7 240.5,-344.7 338.5,-344.7 338.5,-321.7 240.5,-321.7"/>
<polygon fill="none" stroke="#000000" points="240.5,-321.7 240.5,-344.7 338.5,-344.7 338.5,-321.7 240.5,-321.7"/>
<text text-anchor="start" x="245.1909" y="-330.8" font-family="Helvetica,sans-Serif" font-weight="bold" font-size="11.00" fill="#000000">direcciones</text>
<text text-anchor="start" x="304.0219" y="-329.8" font-family="Helvetica,sans-Serif" font-size="11.00" fill="#000000">[table]</text>
<polygon fill="none" stroke="#000000" points="240.5,-302.7 240.5,-321.7 338.5,-321.7 338.5,-302.7 240.5,-302.7"/>
<text text-anchor="start" x="243.5" y="-308.8" font-family="Helvetica,sans-Serif" font-size="11.00" fill="#000000">...</text>
<polygon fill="#ffffff" stroke="transparent" points="240.5,-283.7 240.5,-302.7 274.5,-302.7 274.5,-283.7 240.5,-283.7"/>
<polygon fill="none" stroke="#000000" points="240.5,-283.7 240.5,-302.7 274.5,-302.7 274.5,-283.7 240.5,-283.7"/>
<text text-anchor="start" x="243.5" y="-289.8" font-family="Helvetica,sans-Serif" font-size="11.00" fill="#000000">&lt; 3</text>
<polygon fill="#ffffff" stroke="transparent" points="274.5,-283.7 274.5,-302.7 319.5,-302.7 319.5,-283.7 274.5,-283.7"/>
<polygon fill="none" stroke="#000000" points="274.5,-283.7 274.5,-302.7 319.5,-302.7 319.5,-283.7 274.5,-283.7"/>
<text text-anchor="start" x="284.1105" y="-289.8" font-family="Helvetica,sans-Serif" font-size="11.00" fill="#000000">0 rows</text>
<polygon fill="#ffffff" stroke="transparent" points="319.5,-283.7 319.5,-302.7 338.5,-302.7 338.5,-283.7 319.5,-283.7"/>
<polygon fill="none" stroke="#000000" points="319.5,-283.7 319.5,-302.7 338.5,-302.7 338.5,-283.7 319.5,-283.7"/>
<text text-anchor="start" x="329.3862" y="-289.8" font-family="Helvetica,sans-Serif" font-size="11.00" fill="#000000"> &#160;</text>
</a>
</g>
</g>
<!-- direcciones&#45;&gt;personas -->
<g id="edge7" class="edge">
<title>direcciones:w&#45;&gt;personas:e</title>
<path fill="none" stroke="#000000" d="M225.813,-311.7C188.9716,-311.7 174.6458,-311.7 131.5,-311.7"/>
<polygon fill="#000000" stroke="#000000" points="232.5,-311.7001 240.5,-315.3 236.5,-311.7 240.5,-311.7 240.5,-311.7 240.5,-311.7 236.5,-311.7 240.5,-308.1 232.5,-311.7001 232.5,-311.7001"/>
<ellipse fill="none" stroke="#000000" cx="229.3" cy="-311.7001" rx="3.2" ry="3.2"/>
</g>
<!-- empleados -->
<g id="node9" class="node">
<title>empleados</title>
<g id="a_node9"><a xlink:href="../../tables/empleados.html" xlink:title="empleados" target="_top">
<polygon fill="#ffffff" stroke="transparent" points="241.5,-202.2 241.5,-263.2 337.5,-263.2 337.5,-202.2 241.5,-202.2"/>
<polygon fill="#f5f5f5" stroke="transparent" points="241.5,-239.7 241.5,-262.7 337.5,-262.7 337.5,-239.7 241.5,-239.7"/>
<polygon fill="none" stroke="#000000" points="241.5,-239.7 241.5,-262.7 337.5,-262.7 337.5,-239.7 241.5,-239.7"/>
<text text-anchor="start" x="246.1039" y="-248.8" font-family="Helvetica,sans-Serif" font-weight="bold" font-size="11.00" fill="#000000">empleados</text>
<text text-anchor="start" x="303.0219" y="-247.8" font-family="Helvetica,sans-Serif" font-size="11.00" fill="#000000">[table]</text>
<polygon fill="none" stroke="#000000" points="241.5,-220.7 241.5,-239.7 337.5,-239.7 337.5,-220.7 241.5,-220.7"/>
<text text-anchor="start" x="244.5" y="-226.8" font-family="Helvetica,sans-Serif" font-size="11.00" fill="#000000">...</text>
<polygon fill="#ffffff" stroke="transparent" points="241.5,-201.7 241.5,-220.7 274.5,-220.7 274.5,-201.7 241.5,-201.7"/>
<polygon fill="none" stroke="#000000" points="241.5,-201.7 241.5,-220.7 274.5,-220.7 274.5,-201.7 241.5,-201.7"/>
<text text-anchor="start" x="244.5" y="-207.8" font-family="Helvetica,sans-Serif" font-size="11.00" fill="#000000">&lt; 2</text>
<polygon fill="#ffffff" stroke="transparent" points="274.5,-201.7 274.5,-220.7 318.5,-220.7 318.5,-201.7 274.5,-201.7"/>
<polygon fill="none" stroke="#000000" points="274.5,-201.7 274.5,-220.7 318.5,-220.7 318.5,-201.7 274.5,-201.7"/>
<text text-anchor="start" x="283.1105" y="-207.8" font-family="Helvetica,sans-Serif" font-size="11.00" fill="#000000">0 rows</text>
<polygon fill="#ffffff" stroke="transparent" points="318.5,-201.7 318.5,-220.7 337.5,-220.7 337.5,-201.7 318.5,-201.7"/>
<polygon fill="none" stroke="#000000" points="318.5,-201.7 318.5,-220.7 337.5,-220.7 337.5,-201.7 318.5,-201.7"/>
<text text-anchor="start" x="328.3862" y="-207.8" font-family="Helvetica,sans-Serif" font-size="11.00" fill="#000000"> &#160;</text>
</a>
</g>
</g>
<!-- empleados&#45;&gt;personas -->
<g id="edge8" class="edge">
<title>empleados:w&#45;&gt;personas:e</title>
<path fill="none" stroke="#000000" d="M226.8529,-231.1312C203.134,-236.3036 196.5006,-254.7249 172,-273.7 152.4855,-288.8135 156.1827,-311.7 131.5,-311.7"/>
<polygon fill="#000000" stroke="#000000" points="233.5379,-230.4781 241.8501,-233.2829 237.519,-230.089 241.5,-229.7 241.5,-229.7 241.5,-229.7 237.519,-230.089 241.1499,-226.1171 233.5379,-230.4781 233.5379,-230.4781"/>
<ellipse fill="none" stroke="#000000" cx="230.3531" cy="-230.7893" rx="3.2" ry="3.2"/>
</g>
<!-- leads -->
<g id="node10" class="node">
<title>leads</title>
<g id="a_node10"><a xlink:href="../../tables/leads.html" xlink:title="leads" target="_top">
<polygon fill="#ffffff" stroke="transparent" points="254,-120.2 254,-181.2 325,-181.2 325,-120.2 254,-120.2"/>
<polygon fill="#f5f5f5" stroke="transparent" points="254.5,-157.7 254.5,-180.7 325.5,-180.7 325.5,-157.7 254.5,-157.7"/>
<polygon fill="none" stroke="#000000" points="254.5,-157.7 254.5,-180.7 325.5,-180.7 325.5,-157.7 254.5,-157.7"/>
<text text-anchor="start" x="259.5" y="-166.8" font-family="Helvetica,sans-Serif" font-weight="bold" font-size="11.00" fill="#000000">leads</text>
<text text-anchor="start" x="290.5437" y="-165.8" font-family="Helvetica,sans-Serif" font-size="11.00" fill="#000000">[table]</text>
<polygon fill="none" stroke="#000000" points="254.5,-138.7 254.5,-157.7 325.5,-157.7 325.5,-138.7 254.5,-138.7"/>
<text text-anchor="start" x="257.5" y="-144.8" font-family="Helvetica,sans-Serif" font-size="11.00" fill="#000000">...</text>
<polygon fill="#ffffff" stroke="transparent" points="254.5,-119.7 254.5,-138.7 275.5,-138.7 275.5,-119.7 254.5,-119.7"/>
<polygon fill="none" stroke="#000000" points="254.5,-119.7 254.5,-138.7 275.5,-138.7 275.5,-119.7 254.5,-119.7"/>
<text text-anchor="start" x="257.2027" y="-125.8" font-family="Helvetica,sans-Serif" font-size="11.00" fill="#000000">&lt; 4</text>
<polygon fill="#ffffff" stroke="transparent" points="275.5,-119.7 275.5,-138.7 313.5,-138.7 313.5,-119.7 275.5,-119.7"/>
<polygon fill="none" stroke="#000000" points="275.5,-119.7 275.5,-138.7 313.5,-138.7 313.5,-119.7 275.5,-119.7"/>
<text text-anchor="start" x="278.3053" y="-125.8" font-family="Helvetica,sans-Serif" font-size="11.00" fill="#000000">0 rows</text>
<polygon fill="#ffffff" stroke="transparent" points="313.5,-119.7 313.5,-138.7 325.5,-138.7 325.5,-119.7 313.5,-119.7"/>
<polygon fill="none" stroke="#000000" points="313.5,-119.7 313.5,-138.7 325.5,-138.7 325.5,-119.7 313.5,-119.7"/>
<text text-anchor="start" x="316.4431" y="-125.8" font-family="Helvetica,sans-Serif" font-size="11.00" fill="#000000"> &#160;</text>
</a>
</g>
</g>
<!-- leads&#45;&gt;personas -->
<g id="edge9" class="edge">
<title>leads:w&#45;&gt;personas:e</title>
<path fill="none" stroke="#000000" d="M239.7134,-148.3284C209.1036,-151.1938 195.4075,-164.0876 172,-191.7 135.6015,-234.6371 187.7889,-311.7 131.5,-311.7"/>
<polygon fill="#000000" stroke="#000000" points="246.5072,-148.0397 254.6529,-151.2968 250.5036,-147.8699 254.5,-147.7 254.5,-147.7 254.5,-147.7 250.5036,-147.8699 254.3471,-144.1032 246.5072,-148.0397 246.5072,-148.0397"/>
<ellipse fill="none" stroke="#000000" cx="243.3101" cy="-148.1756" rx="3.2" ry="3.2"/>
</g>
<!-- telefonos -->
<g id="node11" class="node">
<title>telefonos</title>
<g id="a_node11"><a xlink:href="../../tables/telefonos.html" xlink:title="telefonos" target="_top">
<polygon fill="#ffffff" stroke="transparent" points="246,-38.2 246,-99.2 333,-99.2 333,-38.2 246,-38.2"/>
<polygon fill="#f5f5f5" stroke="transparent" points="246.5,-75.7 246.5,-98.7 333.5,-98.7 333.5,-75.7 246.5,-75.7"/>
<polygon fill="none" stroke="#000000" points="246.5,-75.7 246.5,-98.7 333.5,-98.7 333.5,-75.7 246.5,-75.7"/>
<text text-anchor="start" x="251.1854" y="-84.8" font-family="Helvetica,sans-Serif" font-weight="bold" font-size="11.00" fill="#000000">telefonos</text>
<text text-anchor="start" x="299.0219" y="-83.8" font-family="Helvetica,sans-Serif" font-size="11.00" fill="#000000">[table]</text>
<polygon fill="none" stroke="#000000" points="246.5,-56.7 246.5,-75.7 333.5,-75.7 333.5,-56.7 246.5,-56.7"/>
<text text-anchor="start" x="249.5" y="-62.8" font-family="Helvetica,sans-Serif" font-size="11.00" fill="#000000">...</text>
<polygon fill="#ffffff" stroke="transparent" points="246.5,-37.7 246.5,-56.7 275.5,-56.7 275.5,-37.7 246.5,-37.7"/>
<polygon fill="none" stroke="#000000" points="246.5,-37.7 246.5,-56.7 275.5,-56.7 275.5,-37.7 246.5,-37.7"/>
<text text-anchor="start" x="249.5" y="-43.8" font-family="Helvetica,sans-Serif" font-size="11.00" fill="#000000">&lt; 2</text>
<polygon fill="#ffffff" stroke="transparent" points="275.5,-37.7 275.5,-56.7 317.5,-56.7 317.5,-37.7 275.5,-37.7"/>
<polygon fill="none" stroke="#000000" points="275.5,-37.7 275.5,-56.7 317.5,-56.7 317.5,-37.7 275.5,-37.7"/>
<text text-anchor="start" x="282.1105" y="-43.8" font-family="Helvetica,sans-Serif" font-size="11.00" fill="#000000">0 rows</text>
<polygon fill="#ffffff" stroke="transparent" points="317.5,-37.7 317.5,-56.7 333.5,-56.7 333.5,-37.7 317.5,-37.7"/>
<polygon fill="none" stroke="#000000" points="317.5,-37.7 317.5,-56.7 333.5,-56.7 333.5,-37.7 317.5,-37.7"/>
<text text-anchor="start" x="324.3862" y="-43.8" font-family="Helvetica,sans-Serif" font-size="11.00" fill="#000000"> &#160;</text>
</a>
</g>
</g>
<!-- telefonos&#45;&gt;personas -->
<g id="edge12" class="edge">
<title>telefonos:w&#45;&gt;personas:e</title>
<path fill="none" stroke="#000000" d="M232.0266,-66.4248C204.1194,-69.5083 191.2237,-82.6351 172,-109.7 118.9774,-184.3502 223.0645,-311.7 131.5,-311.7"/>
<polygon fill="#000000" stroke="#000000" points="238.51,-66.1002 246.6801,-69.2955 242.505,-65.9001 246.5,-65.7 246.5,-65.7 246.5,-65.7 242.505,-65.9001 246.3199,-62.1045 238.51,-66.1002 238.51,-66.1002"/>
<ellipse fill="none" stroke="#000000" cx="235.314" cy="-66.2602" rx="3.2" ry="3.2"/>
</g>
</g>
</svg>
