<?xml version="1.0" encoding="UTF-8" standalone="no"?>
<!DOCTYPE svg PUBLIC "-//W3C//DTD SVG 1.1//EN"
 "http://www.w3.org/Graphics/SVG/1.1/DTD/svg11.dtd">
<!-- Generated by graphviz version 2.40.1 (20161225.0304)
 -->
<!-- Title: twoDegreesRelationshipsDiagram Pages: 1 -->
<svg width="587pt" height="749pt"
 viewBox="0.00 0.00 587.00 748.70" xmlns="http://www.w3.org/2000/svg" xmlns:xlink="http://www.w3.org/1999/xlink">
<g id="graph0" class="graph" transform="scale(1 1) rotate(0) translate(4 744.7)">
<title>twoDegreesRelationshipsDiagram</title>
<polygon fill="#ffffff" stroke="transparent" points="-4,4 -4,-744.7 583,-744.7 583,4 -4,4"/>
<text text-anchor="middle" x="72.4936" y="-7.3" font-family="Helvetica,sans-Serif" font-size="11.00" fill="#000000">Generated by SchemaSpy</text>
<!-- ciclo_profesores -->
<g id="node1" class="node">
<title>ciclo_profesores</title>
<g id="a_node1"><a xlink:href="../../tables/ciclo_profesores.html" xlink:title="ciclo_profesores" target="_top">
<polygon fill="#ffffff" stroke="transparent" points="448,-473.2 448,-600.2 571,-600.2 571,-473.2 448,-473.2"/>
<polygon fill="#f5f5f5" stroke="transparent" points="448.5,-576.7 448.5,-599.7 571.5,-599.7 571.5,-576.7 448.5,-576.7"/>
<polygon fill="none" stroke="#000000" points="448.5,-576.7 448.5,-599.7 571.5,-599.7 571.5,-576.7 448.5,-576.7"/>
<text text-anchor="start" x="453.4666" y="-585.8" font-family="Helvetica,sans-Serif" font-weight="bold" font-size="11.00" fill="#000000">ciclo_profesores</text>
<text text-anchor="start" x="537.0219" y="-584.8" font-family="Helvetica,sans-Serif" font-size="11.00" fill="#000000">[table]</text>
<polygon fill="none" stroke="#000000" points="448.5,-554.7 448.5,-576.7 571.5,-576.7 571.5,-554.7 448.5,-554.7"/>
<image xlink:href="../../images/primaryKeys.png" width="11px" height="12px" preserveAspectRatio="xMinYMin meet" x="453.5" y="-571.7"/>
<text text-anchor="start" x="468.5" y="-561.8" font-family="Helvetica,sans-Serif" font-size="11.00" fill="#000000">ciclo_profesor_id</text>
<polygon fill="none" stroke="#000000" points="448.5,-532.7 448.5,-554.7 571.5,-554.7 571.5,-532.7 448.5,-532.7"/>
<image xlink:href="../../images/foreignKeys.png" width="11px" height="12px" preserveAspectRatio="xMinYMin meet" x="453.5" y="-549.7"/>
<text text-anchor="start" x="468.5" y="-539.8" font-family="Helvetica,sans-Serif" font-size="11.00" fill="#000000">profesor_id</text>
<polygon fill="none" stroke="#000000" points="448.5,-510.7 448.5,-532.7 571.5,-532.7 571.5,-510.7 448.5,-510.7"/>
<image xlink:href="../../images/foreignKeys.png" width="11px" height="12px" preserveAspectRatio="xMinYMin meet" x="453.5" y="-527.7"/>
<text text-anchor="start" x="468.5" y="-517.8" font-family="Helvetica,sans-Serif" font-size="11.00" fill="#000000">ciclo_id</text>
<polygon fill="none" stroke="#000000" points="448.5,-491.7 448.5,-510.7 571.5,-510.7 571.5,-491.7 448.5,-491.7"/>
<text text-anchor="start" x="451.5" y="-497.8" font-family="Helvetica,sans-Serif" font-size="11.00" fill="#000000">...</text>
<polygon fill="#ffffff" stroke="transparent" points="448.5,-472.7 448.5,-491.7 495.5,-491.7 495.5,-472.7 448.5,-472.7"/>
<polygon fill="none" stroke="#000000" points="448.5,-472.7 448.5,-491.7 495.5,-491.7 495.5,-472.7 448.5,-472.7"/>
<text text-anchor="start" x="451.5" y="-478.8" font-family="Helvetica,sans-Serif" font-size="11.00" fill="#000000">&lt; 2</text>
<polygon fill="#ffffff" stroke="transparent" points="495.5,-472.7 495.5,-491.7 546.5,-491.7 546.5,-472.7 495.5,-472.7"/>
<polygon fill="none" stroke="#000000" points="495.5,-472.7 495.5,-491.7 546.5,-491.7 546.5,-472.7 495.5,-472.7"/>
<text text-anchor="start" x="511.1105" y="-478.8" font-family="Helvetica,sans-Serif" font-size="11.00" fill="#000000">0 rows</text>
<polygon fill="#ffffff" stroke="transparent" points="546.5,-472.7 546.5,-491.7 571.5,-491.7 571.5,-472.7 546.5,-472.7"/>
<polygon fill="none" stroke="#000000" points="546.5,-472.7 546.5,-491.7 571.5,-491.7 571.5,-472.7 546.5,-472.7"/>
<text text-anchor="start" x="562.3862" y="-478.8" font-family="Helvetica,sans-Serif" font-size="11.00" fill="#000000"> &#160;</text>
</a>
</g>
</g>
<!-- curso_ciclos -->
<g id="node2" class="node">
<title>curso_ciclos</title>
<g id="a_node2"><a xlink:href="../../tables/curso_ciclos.html" xlink:title="curso_ciclos" target="_top">
<polygon fill="#ffffff" stroke="transparent" points="238,-476.2 238,-537.2 341,-537.2 341,-476.2 238,-476.2"/>
<polygon fill="#f5f5f5" stroke="transparent" points="238.5,-513.7 238.5,-536.7 341.5,-536.7 341.5,-513.7 238.5,-513.7"/>
<polygon fill="none" stroke="#000000" points="238.5,-513.7 238.5,-536.7 341.5,-536.7 341.5,-513.7 238.5,-513.7"/>
<text text-anchor="start" x="243.2484" y="-522.8" font-family="Helvetica,sans-Serif" font-weight="bold" font-size="11.00" fill="#000000">curso_ciclos</text>
<text text-anchor="start" x="307.0219" y="-521.8" font-family="Helvetica,sans-Serif" font-size="11.00" fill="#000000">[table]</text>
<polygon fill="none" stroke="#000000" points="238.5,-494.7 238.5,-513.7 341.5,-513.7 341.5,-494.7 238.5,-494.7"/>
<text text-anchor="start" x="241.5" y="-500.8" font-family="Helvetica,sans-Serif" font-size="11.00" fill="#000000">...</text>
<polygon fill="#ffffff" stroke="transparent" points="238.5,-475.7 238.5,-494.7 270.5,-494.7 270.5,-475.7 238.5,-475.7"/>
<polygon fill="none" stroke="#000000" points="238.5,-475.7 238.5,-494.7 270.5,-494.7 270.5,-475.7 238.5,-475.7"/>
<text text-anchor="start" x="241.5" y="-481.8" font-family="Helvetica,sans-Serif" font-size="11.00" fill="#000000">&lt; 1</text>
<polygon fill="#ffffff" stroke="transparent" points="270.5,-475.7 270.5,-494.7 314.5,-494.7 314.5,-475.7 270.5,-475.7"/>
<polygon fill="none" stroke="#000000" points="270.5,-475.7 270.5,-494.7 314.5,-494.7 314.5,-475.7 270.5,-475.7"/>
<text text-anchor="start" x="279.1105" y="-481.8" font-family="Helvetica,sans-Serif" font-size="11.00" fill="#000000">0 rows</text>
<polygon fill="#ffffff" stroke="transparent" points="314.5,-475.7 314.5,-494.7 341.5,-494.7 341.5,-475.7 314.5,-475.7"/>
<polygon fill="none" stroke="#000000" points="314.5,-475.7 314.5,-494.7 341.5,-494.7 341.5,-475.7 314.5,-475.7"/>
<text text-anchor="start" x="322.9053" y="-481.8" font-family="Helvetica,sans-Serif" font-size="11.00" fill="#000000">1 &gt;</text>
</a>
</g>
</g>
<!-- ciclo_profesores&#45;&gt;curso_ciclos -->
<g id="edge1" class="edge">
<title>ciclo_profesores:w&#45;&gt;curso_ciclos:e</title>
<path fill="none" stroke="#000000" d="M433.93,-521.1011C397.5172,-517.9778 384.4493,-503.7 341.5,-503.7"/>
<polygon fill="#000000" stroke="#000000" points="440.5067,-521.3714 448.3521,-525.297 444.5034,-521.5357 448.5,-521.7 448.5,-521.7 448.5,-521.7 444.5034,-521.5357 448.6479,-518.103 440.5067,-521.3714 440.5067,-521.3714"/>
<ellipse fill="none" stroke="#000000" cx="437.3094" cy="-521.2399" rx="3.2" ry="3.2"/>
</g>
<!-- profesores -->
<g id="node3" class="node">
<title>profesores</title>
<g id="a_node3"><a xlink:href="../../tables/profesores.html" xlink:title="profesores" target="_top">
<polygon fill="#ffffff" stroke="transparent" points="180,-558.7 180,-736.7 399,-736.7 399,-558.7 180,-558.7"/>
<polygon fill="#f5f5f5" stroke="transparent" points="182.5,-711.7 182.5,-734.7 397.5,-734.7 397.5,-711.7 182.5,-711.7"/>
<polygon fill="none" stroke="#000000" points="182.5,-711.7 182.5,-734.7 397.5,-734.7 397.5,-711.7 182.5,-711.7"/>
<text text-anchor="start" x="187.5" y="-720.8" font-family="Helvetica,sans-Serif" font-weight="bold" font-size="11.00" fill="#000000">profesores</text>
<text text-anchor="start" x="362.5437" y="-719.8" font-family="Helvetica,sans-Serif" font-size="11.00" fill="#000000">[table]</text>
<polygon fill="none" stroke="#000000" points="182.5,-689.7 182.5,-711.7 305.5,-711.7 305.5,-689.7 182.5,-689.7"/>
<image xlink:href="../../images/primaryKeys.png" width="11px" height="12px" preserveAspectRatio="xMinYMin meet" x="187.5" y="-706.7"/>
<text text-anchor="start" x="202.5" y="-696.8" font-family="Helvetica,sans-Serif" font-size="11.00" fill="#000000">profesor_id</text>
<polygon fill="none" stroke="#000000" points="305.5,-689.7 305.5,-711.7 397.5,-711.7 397.5,-689.7 305.5,-689.7"/>
<text text-anchor="start" x="308.5" y="-697.4" font-family="Helvetica,sans-Serif" font-size="11.00" fill="#000000">serial[10]</text>
<polygon fill="none" stroke="#000000" points="182.5,-667.7 182.5,-689.7 305.5,-689.7 305.5,-667.7 182.5,-667.7"/>
<image xlink:href="../../images/foreignKeys.png" width="11px" height="12px" preserveAspectRatio="xMinYMin meet" x="187.5" y="-684.7"/>
<text text-anchor="start" x="202.5" y="-674.8" font-family="Helvetica,sans-Serif" font-size="11.00" fill="#000000">persona_id</text>
<polygon fill="none" stroke="#000000" points="305.5,-667.7 305.5,-689.7 397.5,-689.7 397.5,-667.7 305.5,-667.7"/>
<text text-anchor="start" x="308.5" y="-675.4" font-family="Helvetica,sans-Serif" font-size="11.00" fill="#000000">int4[10]</text>
<polygon fill="none" stroke="#000000" points="182.5,-645.7 182.5,-667.7 305.5,-667.7 305.5,-645.7 182.5,-645.7"/>
<text text-anchor="start" x="202.5" y="-652.8" font-family="Helvetica,sans-Serif" font-size="11.00" fill="#000000">usu_insercion</text>
<polygon fill="none" stroke="#000000" points="305.5,-645.7 305.5,-667.7 397.5,-667.7 397.5,-645.7 305.5,-645.7"/>
<text text-anchor="start" x="308.5" y="-653.4" font-family="Helvetica,sans-Serif" font-size="11.00" fill="#000000">varchar[20]</text>
<polygon fill="none" stroke="#000000" points="182.5,-623.7 182.5,-645.7 305.5,-645.7 305.5,-623.7 182.5,-623.7"/>
<text text-anchor="start" x="202.5" y="-630.8" font-family="Helvetica,sans-Serif" font-size="11.00" fill="#000000">fec_insercion</text>
<polygon fill="none" stroke="#000000" points="305.5,-623.7 305.5,-645.7 397.5,-645.7 397.5,-623.7 305.5,-623.7"/>
<text text-anchor="start" x="308.1023" y="-631.4" font-family="Helvetica,sans-Serif" font-size="11.00" fill="#000000">timestamptz[35,6]</text>
<polygon fill="none" stroke="#000000" points="182.5,-601.7 182.5,-623.7 305.5,-623.7 305.5,-601.7 182.5,-601.7"/>
<text text-anchor="start" x="202.5" y="-608.8" font-family="Helvetica,sans-Serif" font-size="11.00" fill="#000000">fec_modificacion</text>
<polygon fill="none" stroke="#000000" points="305.5,-601.7 305.5,-623.7 397.5,-623.7 397.5,-601.7 305.5,-601.7"/>
<text text-anchor="start" x="308.1023" y="-609.4" font-family="Helvetica,sans-Serif" font-size="11.00" fill="#000000">timestamptz[35,6]</text>
<polygon fill="none" stroke="#000000" points="182.5,-579.7 182.5,-601.7 305.5,-601.7 305.5,-579.7 182.5,-579.7"/>
<text text-anchor="start" x="202.5" y="-586.8" font-family="Helvetica,sans-Serif" font-size="11.00" fill="#000000">usu_modificacion</text>
<polygon fill="none" stroke="#000000" points="305.5,-579.7 305.5,-601.7 397.5,-601.7 397.5,-579.7 305.5,-579.7"/>
<text text-anchor="start" x="308.5" y="-587.4" font-family="Helvetica,sans-Serif" font-size="11.00" fill="#000000">varchar[20]</text>
<polygon fill="#ffffff" stroke="transparent" points="182.5,-560.7 182.5,-579.7 235.5,-579.7 235.5,-560.7 182.5,-560.7"/>
<polygon fill="none" stroke="#000000" points="182.5,-560.7 182.5,-579.7 235.5,-579.7 235.5,-560.7 182.5,-560.7"/>
<text text-anchor="start" x="185.5" y="-566.8" font-family="Helvetica,sans-Serif" font-size="11.00" fill="#000000">&lt; 1</text>
<polygon fill="#ffffff" stroke="transparent" points="235.5,-560.7 235.5,-579.7 305.5,-579.7 305.5,-560.7 235.5,-560.7"/>
<polygon fill="none" stroke="#000000" points="235.5,-560.7 235.5,-579.7 305.5,-579.7 305.5,-560.7 235.5,-560.7"/>
<text text-anchor="start" x="270.1105" y="-566.8" font-family="Helvetica,sans-Serif" font-size="11.00" fill="#000000">0 rows</text>
<polygon fill="#ffffff" stroke="transparent" points="305.5,-560.7 305.5,-579.7 397.5,-579.7 397.5,-560.7 305.5,-560.7"/>
<polygon fill="none" stroke="#000000" points="305.5,-560.7 305.5,-579.7 397.5,-579.7 397.5,-560.7 305.5,-560.7"/>
<text text-anchor="start" x="378.9053" y="-566.8" font-family="Helvetica,sans-Serif" font-size="11.00" fill="#000000">1 &gt;</text>
<polygon fill="none" stroke="#000000" stroke-width="2" points="181,-559.7 181,-735.7 398,-735.7 398,-559.7 181,-559.7"/>
</a>
</g>
</g>
<!-- ciclo_profesores&#45;&gt;profesores -->
<g id="edge2" class="edge">
<title>ciclo_profesores:w&#45;&gt;profesores:e</title>
<path fill="none" stroke="#000000" d="M434.2397,-546.425C389.0593,-567.273 465.1352,-700.7 397.5,-700.7"/>
<polygon fill="#000000" stroke="#000000" points="440.6422,-545.2016 449.1757,-547.236 444.5711,-544.4508 448.5,-543.7 448.5,-543.7 448.5,-543.7 444.5711,-544.4508 447.8243,-540.164 440.6422,-545.2016 440.6422,-545.2016"/>
<ellipse fill="none" stroke="#000000" cx="437.4991" cy="-545.8023" rx="3.2" ry="3.2"/>
</g>
<!-- personas -->
<g id="node6" class="node">
<title>personas</title>
<g id="a_node6"><a xlink:href="../../tables/personas.html" xlink:title="personas" target="_top">
<polygon fill="#ffffff" stroke="transparent" points="8,-263.2 8,-346.2 131,-346.2 131,-263.2 8,-263.2"/>
<polygon fill="#f5f5f5" stroke="transparent" points="8.5,-322.7 8.5,-345.7 131.5,-345.7 131.5,-322.7 8.5,-322.7"/>
<polygon fill="none" stroke="#000000" points="8.5,-322.7 8.5,-345.7 131.5,-345.7 131.5,-322.7 8.5,-322.7"/>
<text text-anchor="start" x="13.5" y="-331.8" font-family="Helvetica,sans-Serif" font-weight="bold" font-size="11.00" fill="#000000">personas</text>
<text text-anchor="start" x="96.5437" y="-330.8" font-family="Helvetica,sans-Serif" font-size="11.00" fill="#000000">[table]</text>
<polygon fill="none" stroke="#000000" points="8.5,-300.7 8.5,-322.7 131.5,-322.7 131.5,-300.7 8.5,-300.7"/>
<image xlink:href="../../images/primaryKeys.png" width="11px" height="12px" preserveAspectRatio="xMinYMin meet" x="13.5" y="-317.7"/>
<text text-anchor="start" x="28.5" y="-307.8" font-family="Helvetica,sans-Serif" font-size="11.00" fill="#000000">persona_id</text>
<polygon fill="none" stroke="#000000" points="8.5,-281.7 8.5,-300.7 131.5,-300.7 131.5,-281.7 8.5,-281.7"/>
<text text-anchor="start" x="11.5" y="-287.8" font-family="Helvetica,sans-Serif" font-size="11.00" fill="#000000">...</text>
<polygon fill="#ffffff" stroke="transparent" points="8.5,-262.7 8.5,-281.7 49.5,-281.7 49.5,-262.7 8.5,-262.7"/>
<polygon fill="none" stroke="#000000" points="8.5,-262.7 8.5,-281.7 49.5,-281.7 49.5,-262.7 8.5,-262.7"/>
<text text-anchor="start" x="11.5" y="-268.8" font-family="Helvetica,sans-Serif" font-size="11.00" fill="#000000"> &#160;</text>
<polygon fill="#ffffff" stroke="transparent" points="49.5,-262.7 49.5,-281.7 95.5,-281.7 95.5,-262.7 49.5,-262.7"/>
<polygon fill="none" stroke="#000000" points="49.5,-262.7 49.5,-281.7 95.5,-281.7 95.5,-262.7 49.5,-262.7"/>
<text text-anchor="start" x="65.6105" y="-268.8" font-family="Helvetica,sans-Serif" font-size="11.00" fill="#000000">1 row</text>
<polygon fill="#ffffff" stroke="transparent" points="95.5,-262.7 95.5,-281.7 131.5,-281.7 131.5,-262.7 95.5,-262.7"/>
<polygon fill="none" stroke="#000000" points="95.5,-262.7 95.5,-281.7 131.5,-281.7 131.5,-262.7 95.5,-262.7"/>
<text text-anchor="start" x="112.9053" y="-268.8" font-family="Helvetica,sans-Serif" font-size="11.00" fill="#000000">7 &gt;</text>
</a>
</g>
</g>
<!-- profesores&#45;&gt;personas -->
<g id="edge9" class="edge">
<title>profesores:w&#45;&gt;personas:e</title>
<path fill="none" stroke="#000000" d="M168.5749,-674.0598C114.3943,-631.5762 208.3714,-311.7 131.5,-311.7"/>
<polygon fill="#000000" stroke="#000000" points="174.9103,-676.1709 181.3619,-682.1154 178.7051,-677.4354 182.5,-678.7 182.5,-678.7 182.5,-678.7 178.7051,-677.4354 183.6381,-675.2846 174.9103,-676.1709 174.9103,-676.1709"/>
<ellipse fill="none" stroke="#000000" cx="171.8744" cy="-675.1592" rx="3.2" ry="3.2"/>
</g>
<!-- contactos -->
<g id="node4" class="node">
<title>contactos</title>
<g id="a_node4"><a xlink:href="../../tables/contactos.html" xlink:title="contactos" target="_top">
<polygon fill="#ffffff" stroke="transparent" points="464.5,-376.2 464.5,-437.2 554.5,-437.2 554.5,-376.2 464.5,-376.2"/>
<polygon fill="#f5f5f5" stroke="transparent" points="464.5,-413.7 464.5,-436.7 554.5,-436.7 554.5,-413.7 464.5,-413.7"/>
<polygon fill="none" stroke="#000000" points="464.5,-413.7 464.5,-436.7 554.5,-436.7 554.5,-413.7 464.5,-413.7"/>
<text text-anchor="start" x="469.4633" y="-422.8" font-family="Helvetica,sans-Serif" font-weight="bold" font-size="11.00" fill="#000000">contactos</text>
<text text-anchor="start" x="520.0219" y="-421.8" font-family="Helvetica,sans-Serif" font-size="11.00" fill="#000000">[table]</text>
<polygon fill="none" stroke="#000000" points="464.5,-394.7 464.5,-413.7 554.5,-413.7 554.5,-394.7 464.5,-394.7"/>
<text text-anchor="start" x="467.5" y="-400.8" font-family="Helvetica,sans-Serif" font-size="11.00" fill="#000000">...</text>
<polygon fill="#ffffff" stroke="transparent" points="464.5,-375.7 464.5,-394.7 490.5,-394.7 490.5,-375.7 464.5,-375.7"/>
<polygon fill="none" stroke="#000000" points="464.5,-375.7 464.5,-394.7 490.5,-394.7 490.5,-375.7 464.5,-375.7"/>
<text text-anchor="start" x="467.5" y="-381.8" font-family="Helvetica,sans-Serif" font-size="11.00" fill="#000000">&lt; 2</text>
<polygon fill="#ffffff" stroke="transparent" points="490.5,-375.7 490.5,-394.7 530.5,-394.7 530.5,-375.7 490.5,-375.7"/>
<polygon fill="none" stroke="#000000" points="490.5,-375.7 490.5,-394.7 530.5,-394.7 530.5,-375.7 490.5,-375.7"/>
<text text-anchor="start" x="495.1105" y="-381.8" font-family="Helvetica,sans-Serif" font-size="11.00" fill="#000000">0 rows</text>
<polygon fill="#ffffff" stroke="transparent" points="530.5,-375.7 530.5,-394.7 554.5,-394.7 554.5,-375.7 530.5,-375.7"/>
<polygon fill="none" stroke="#000000" points="530.5,-375.7 530.5,-394.7 554.5,-394.7 554.5,-375.7 530.5,-375.7"/>
<text text-anchor="start" x="535.9053" y="-381.8" font-family="Helvetica,sans-Serif" font-size="11.00" fill="#000000">5 &gt;</text>
</a>
</g>
</g>
<!-- organizaciones -->
<g id="node5" class="node">
<title>organizaciones</title>
<g id="a_node5"><a xlink:href="../../tables/organizaciones.html" xlink:title="organizaciones" target="_top">
<polygon fill="#ffffff" stroke="transparent" points="231.5,-394.2 231.5,-455.2 347.5,-455.2 347.5,-394.2 231.5,-394.2"/>
<polygon fill="#f5f5f5" stroke="transparent" points="231.5,-431.7 231.5,-454.7 347.5,-454.7 347.5,-431.7 231.5,-431.7"/>
<polygon fill="none" stroke="#000000" points="231.5,-431.7 231.5,-454.7 347.5,-454.7 347.5,-431.7 231.5,-431.7"/>
<text text-anchor="start" x="236.0186" y="-440.8" font-family="Helvetica,sans-Serif" font-weight="bold" font-size="11.00" fill="#000000">organizaciones</text>
<text text-anchor="start" x="313.0219" y="-439.8" font-family="Helvetica,sans-Serif" font-size="11.00" fill="#000000">[table]</text>
<polygon fill="none" stroke="#000000" points="231.5,-412.7 231.5,-431.7 347.5,-431.7 347.5,-412.7 231.5,-412.7"/>
<text text-anchor="start" x="234.5" y="-418.8" font-family="Helvetica,sans-Serif" font-size="11.00" fill="#000000">...</text>
<polygon fill="#ffffff" stroke="transparent" points="231.5,-393.7 231.5,-412.7 270.5,-412.7 270.5,-393.7 231.5,-393.7"/>
<polygon fill="none" stroke="#000000" points="231.5,-393.7 231.5,-412.7 270.5,-412.7 270.5,-393.7 231.5,-393.7"/>
<text text-anchor="start" x="234.5" y="-399.8" font-family="Helvetica,sans-Serif" font-size="11.00" fill="#000000">&lt; 1</text>
<polygon fill="#ffffff" stroke="transparent" points="270.5,-393.7 270.5,-412.7 317.5,-412.7 317.5,-393.7 270.5,-393.7"/>
<polygon fill="none" stroke="#000000" points="270.5,-393.7 270.5,-412.7 317.5,-412.7 317.5,-393.7 270.5,-393.7"/>
<text text-anchor="start" x="282.1105" y="-399.8" font-family="Helvetica,sans-Serif" font-size="11.00" fill="#000000">0 rows</text>
<polygon fill="#ffffff" stroke="transparent" points="317.5,-393.7 317.5,-412.7 347.5,-412.7 347.5,-393.7 317.5,-393.7"/>
<polygon fill="none" stroke="#000000" points="317.5,-393.7 317.5,-412.7 347.5,-412.7 347.5,-393.7 317.5,-393.7"/>
<text text-anchor="start" x="328.9053" y="-399.8" font-family="Helvetica,sans-Serif" font-size="11.00" fill="#000000">1 &gt;</text>
</a>
</g>
</g>
<!-- contactos&#45;&gt;organizaciones -->
<g id="edge3" class="edge">
<title>contactos:w&#45;&gt;organizaciones:e</title>
<path fill="none" stroke="#000000" d="M449.9129,-404.2002C409.137,-407.1073 394.8712,-421.7 347.5,-421.7"/>
<polygon fill="#000000" stroke="#000000" points="456.5047,-403.9742 464.6234,-407.2979 460.5023,-403.8371 464.5,-403.7 464.5,-403.7 464.5,-403.7 460.5023,-403.8371 464.3766,-400.1021 456.5047,-403.9742 456.5047,-403.9742"/>
<ellipse fill="none" stroke="#000000" cx="453.3066" cy="-404.0839" rx="3.2" ry="3.2"/>
</g>
<!-- contactos&#45;&gt;personas -->
<g id="edge4" class="edge">
<title>contactos:w&#45;&gt;personas:e</title>
<path fill="none" stroke="#000000" d="M450.0204,-402.0462C434.7308,-398.1765 427.8038,-388.4979 407,-383.7 304.5072,-360.0624 265.6494,-403.5883 172,-355.7 148.3359,-343.5992 158.0786,-311.7 131.5,-311.7"/>
<polygon fill="#000000" stroke="#000000" points="456.5517,-402.7921 464.0915,-407.2767 460.5258,-403.2461 464.5,-403.7 464.5,-403.7 464.5,-403.7 460.5258,-403.2461 464.9085,-400.1233 456.5517,-402.7921 456.5517,-402.7921"/>
<ellipse fill="none" stroke="#000000" cx="453.3723" cy="-402.429" rx="3.2" ry="3.2"/>
</g>
<!-- organizaciones&#45;&gt;personas -->
<g id="edge8" class="edge">
<title>organizaciones:w&#45;&gt;personas:e</title>
<path fill="none" stroke="#000000" d="M216.9986,-420.1479C196.8645,-415.2663 190.2059,-399.3744 172,-379.7 148.1087,-353.8816 166.6765,-311.7 131.5,-311.7"/>
<polygon fill="#000000" stroke="#000000" points="223.5454,-420.8486 231.1169,-425.2796 227.5227,-421.2743 231.5,-421.7 231.5,-421.7 231.5,-421.7 227.5227,-421.2743 231.8831,-418.1204 223.5454,-420.8486 223.5454,-420.8486"/>
<ellipse fill="none" stroke="#000000" cx="220.3636" cy="-420.508" rx="3.2" ry="3.2"/>
</g>
<!-- direcciones -->
<g id="node7" class="node">
<title>direcciones</title>
<g id="a_node7"><a xlink:href="../../tables/direcciones.html" xlink:title="direcciones" target="_top">
<polygon fill="#ffffff" stroke="transparent" points="240.5,-284.2 240.5,-345.2 338.5,-345.2 338.5,-284.2 240.5,-284.2"/>
<polygon fill="#f5f5f5" stroke="transparent" points="240.5,-321.7 240.5,-344.7 338.5,-344.7 338.5,-321.7 240.5,-321.7"/>
<polygon fill="none" stroke="#000000" points="240.5,-321.7 240.5,-344.7 338.5,-344.7 338.5,-321.7 240.5,-321.7"/>
<text text-anchor="start" x="245.1909" y="-330.8" font-family="Helvetica,sans-Serif" font-weight="bold" font-size="11.00" fill="#000000">direcciones</text>
<text text-anchor="start" x="304.0219" y="-329.8" font-family="Helvetica,sans-Serif" font-size="11.00" fill="#000000">[table]</text>
<polygon fill="none" stroke="#000000" points="240.5,-302.7 240.5,-321.7 338.5,-321.7 338.5,-302.7 240.5,-302.7"/>
<text text-anchor="start" x="243.5" y="-308.8" font-family="Helvetica,sans-Serif" font-size="11.00" fill="#000000">...</text>
<polygon fill="#ffffff" stroke="transparent" points="240.5,-283.7 240.5,-302.7 274.5,-302.7 274.5,-283.7 240.5,-283.7"/>
<polygon fill="none" stroke="#000000" points="240.5,-283.7 240.5,-302.7 274.5,-302.7 274.5,-283.7 240.5,-283.7"/>
<text text-anchor="start" x="243.5" y="-289.8" font-family="Helvetica,sans-Serif" font-size="11.00" fill="#000000">&lt; 2</text>
<polygon fill="#ffffff" stroke="transparent" points="274.5,-283.7 274.5,-302.7 319.5,-302.7 319.5,-283.7 274.5,-283.7"/>
<polygon fill="none" stroke="#000000" points="274.5,-283.7 274.5,-302.7 319.5,-302.7 319.5,-283.7 274.5,-283.7"/>
<text text-anchor="start" x="284.1105" y="-289.8" font-family="Helvetica,sans-Serif" font-size="11.00" fill="#000000">0 rows</text>
<polygon fill="#ffffff" stroke="transparent" points="319.5,-283.7 319.5,-302.7 338.5,-302.7 338.5,-283.7 319.5,-283.7"/>
<polygon fill="none" stroke="#000000" points="319.5,-283.7 319.5,-302.7 338.5,-302.7 338.5,-283.7 319.5,-283.7"/>
<text text-anchor="start" x="329.3862" y="-289.8" font-family="Helvetica,sans-Serif" font-size="11.00" fill="#000000"> &#160;</text>
</a>
</g>
</g>
<!-- direcciones&#45;&gt;personas -->
<g id="edge5" class="edge">
<title>direcciones:w&#45;&gt;personas:e</title>
<path fill="none" stroke="#000000" d="M225.813,-311.7C188.9716,-311.7 174.6458,-311.7 131.5,-311.7"/>
<polygon fill="#000000" stroke="#000000" points="232.5,-311.7001 240.5,-315.3 236.5,-311.7 240.5,-311.7 240.5,-311.7 240.5,-311.7 236.5,-311.7 240.5,-308.1 232.5,-311.7001 232.5,-311.7001"/>
<ellipse fill="none" stroke="#000000" cx="229.3" cy="-311.7001" rx="3.2" ry="3.2"/>
</g>
<!-- empleados -->
<g id="node8" class="node">
<title>empleados</title>
<g id="a_node8"><a xlink:href="../../tables/empleados.html" xlink:title="empleados" target="_top">
<polygon fill="#ffffff" stroke="transparent" points="241.5,-202.2 241.5,-263.2 337.5,-263.2 337.5,-202.2 241.5,-202.2"/>
<polygon fill="#f5f5f5" stroke="transparent" points="241.5,-239.7 241.5,-262.7 337.5,-262.7 337.5,-239.7 241.5,-239.7"/>
<polygon fill="none" stroke="#000000" points="241.5,-239.7 241.5,-262.7 337.5,-262.7 337.5,-239.7 241.5,-239.7"/>
<text text-anchor="start" x="246.1039" y="-248.8" font-family="Helvetica,sans-Serif" font-weight="bold" font-size="11.00" fill="#000000">empleados</text>
<text text-anchor="start" x="303.0219" y="-247.8" font-family="Helvetica,sans-Serif" font-size="11.00" fill="#000000">[table]</text>
<polygon fill="none" stroke="#000000" points="241.5,-220.7 241.5,-239.7 337.5,-239.7 337.5,-220.7 241.5,-220.7"/>
<text text-anchor="start" x="244.5" y="-226.8" font-family="Helvetica,sans-Serif" font-size="11.00" fill="#000000">...</text>
<polygon fill="#ffffff" stroke="transparent" points="241.5,-201.7 241.5,-220.7 277.5,-220.7 277.5,-201.7 241.5,-201.7"/>
<polygon fill="none" stroke="#000000" points="241.5,-201.7 241.5,-220.7 277.5,-220.7 277.5,-201.7 241.5,-201.7"/>
<text text-anchor="start" x="244.5" y="-207.8" font-family="Helvetica,sans-Serif" font-size="11.00" fill="#000000">&lt; 2</text>
<polygon fill="#ffffff" stroke="transparent" points="277.5,-201.7 277.5,-220.7 317.5,-220.7 317.5,-201.7 277.5,-201.7"/>
<polygon fill="none" stroke="#000000" points="277.5,-201.7 277.5,-220.7 317.5,-220.7 317.5,-201.7 277.5,-201.7"/>
<text text-anchor="start" x="287.6105" y="-207.8" font-family="Helvetica,sans-Serif" font-size="11.00" fill="#000000">1 row</text>
<polygon fill="#ffffff" stroke="transparent" points="317.5,-201.7 317.5,-220.7 337.5,-220.7 337.5,-201.7 317.5,-201.7"/>
<polygon fill="none" stroke="#000000" points="317.5,-201.7 317.5,-220.7 337.5,-220.7 337.5,-201.7 317.5,-201.7"/>
<text text-anchor="start" x="328.3862" y="-207.8" font-family="Helvetica,sans-Serif" font-size="11.00" fill="#000000"> &#160;</text>
</a>
</g>
</g>
<!-- empleados&#45;&gt;personas -->
<g id="edge6" class="edge">
<title>empleados:w&#45;&gt;personas:e</title>
<path fill="none" stroke="#000000" d="M226.8529,-231.1312C203.134,-236.3036 196.5006,-254.7249 172,-273.7 152.4855,-288.8135 156.1827,-311.7 131.5,-311.7"/>
<polygon fill="#000000" stroke="#000000" points="233.5379,-230.4781 241.8501,-233.2829 237.519,-230.089 241.5,-229.7 241.5,-229.7 241.5,-229.7 237.519,-230.089 241.1499,-226.1171 233.5379,-230.4781 233.5379,-230.4781"/>
<ellipse fill="none" stroke="#000000" cx="230.3531" cy="-230.7893" rx="3.2" ry="3.2"/>
</g>
<!-- leads -->
<g id="node9" class="node">
<title>leads</title>
<g id="a_node9"><a xlink:href="../../tables/leads.html" xlink:title="leads" target="_top">
<polygon fill="#ffffff" stroke="transparent" points="249.5,-120.2 249.5,-181.2 329.5,-181.2 329.5,-120.2 249.5,-120.2"/>
<polygon fill="#f5f5f5" stroke="transparent" points="249.5,-157.7 249.5,-180.7 329.5,-180.7 329.5,-157.7 249.5,-157.7"/>
<polygon fill="none" stroke="#000000" points="249.5,-157.7 249.5,-180.7 329.5,-180.7 329.5,-157.7 249.5,-157.7"/>
<text text-anchor="start" x="254.5" y="-166.8" font-family="Helvetica,sans-Serif" font-weight="bold" font-size="11.00" fill="#000000">leads</text>
<text text-anchor="start" x="294.5437" y="-165.8" font-family="Helvetica,sans-Serif" font-size="11.00" fill="#000000">[table]</text>
<polygon fill="none" stroke="#000000" points="249.5,-138.7 249.5,-157.7 329.5,-157.7 329.5,-138.7 249.5,-138.7"/>
<text text-anchor="start" x="252.5" y="-144.8" font-family="Helvetica,sans-Serif" font-size="11.00" fill="#000000">...</text>
<polygon fill="#ffffff" stroke="transparent" points="249.5,-119.7 249.5,-138.7 270.5,-138.7 270.5,-119.7 249.5,-119.7"/>
<polygon fill="none" stroke="#000000" points="249.5,-119.7 249.5,-138.7 270.5,-138.7 270.5,-119.7 249.5,-119.7"/>
<text text-anchor="start" x="252.2027" y="-125.8" font-family="Helvetica,sans-Serif" font-size="11.00" fill="#000000">&lt; 4</text>
<polygon fill="#ffffff" stroke="transparent" points="270.5,-119.7 270.5,-138.7 308.5,-138.7 308.5,-119.7 270.5,-119.7"/>
<polygon fill="none" stroke="#000000" points="270.5,-119.7 270.5,-138.7 308.5,-138.7 308.5,-119.7 270.5,-119.7"/>
<text text-anchor="start" x="273.3053" y="-125.8" font-family="Helvetica,sans-Serif" font-size="11.00" fill="#000000">0 rows</text>
<polygon fill="#ffffff" stroke="transparent" points="308.5,-119.7 308.5,-138.7 329.5,-138.7 329.5,-119.7 308.5,-119.7"/>
<polygon fill="none" stroke="#000000" points="308.5,-119.7 308.5,-138.7 329.5,-138.7 329.5,-119.7 308.5,-119.7"/>
<text text-anchor="start" x="311.2027" y="-125.8" font-family="Helvetica,sans-Serif" font-size="11.00" fill="#000000">3 &gt;</text>
</a>
</g>
</g>
<!-- leads&#45;&gt;personas -->
<g id="edge7" class="edge">
<title>leads:w&#45;&gt;personas:e</title>
<path fill="none" stroke="#000000" d="M235.051,-148.4203C206.3022,-151.5746 193.8629,-165.2084 172,-191.7 136.1715,-235.1139 187.7889,-311.7 131.5,-311.7"/>
<polygon fill="#000000" stroke="#000000" points="241.5099,-148.0984 249.6793,-151.2955 245.505,-147.8992 249.5,-147.7 249.5,-147.7 249.5,-147.7 245.505,-147.8992 249.3207,-144.1045 241.5099,-148.0984 241.5099,-148.0984"/>
<ellipse fill="none" stroke="#000000" cx="238.3139" cy="-148.2577" rx="3.2" ry="3.2"/>
</g>
<!-- telefonos -->
<g id="node10" class="node">
<title>telefonos</title>
<g id="a_node10"><a xlink:href="../../tables/telefonos.html" xlink:title="telefonos" target="_top">
<polygon fill="#ffffff" stroke="transparent" points="246,-38.2 246,-99.2 333,-99.2 333,-38.2 246,-38.2"/>
<polygon fill="#f5f5f5" stroke="transparent" points="246.5,-75.7 246.5,-98.7 333.5,-98.7 333.5,-75.7 246.5,-75.7"/>
<polygon fill="none" stroke="#000000" points="246.5,-75.7 246.5,-98.7 333.5,-98.7 333.5,-75.7 246.5,-75.7"/>
<text text-anchor="start" x="251.1854" y="-84.8" font-family="Helvetica,sans-Serif" font-weight="bold" font-size="11.00" fill="#000000">telefonos</text>
<text text-anchor="start" x="299.0219" y="-83.8" font-family="Helvetica,sans-Serif" font-size="11.00" fill="#000000">[table]</text>
<polygon fill="none" stroke="#000000" points="246.5,-56.7 246.5,-75.7 333.5,-75.7 333.5,-56.7 246.5,-56.7"/>
<text text-anchor="start" x="249.5" y="-62.8" font-family="Helvetica,sans-Serif" font-size="11.00" fill="#000000">...</text>
<polygon fill="#ffffff" stroke="transparent" points="246.5,-37.7 246.5,-56.7 275.5,-56.7 275.5,-37.7 246.5,-37.7"/>
<polygon fill="none" stroke="#000000" points="246.5,-37.7 246.5,-56.7 275.5,-56.7 275.5,-37.7 246.5,-37.7"/>
<text text-anchor="start" x="249.5" y="-43.8" font-family="Helvetica,sans-Serif" font-size="11.00" fill="#000000">&lt; 2</text>
<polygon fill="#ffffff" stroke="transparent" points="275.5,-37.7 275.5,-56.7 317.5,-56.7 317.5,-37.7 275.5,-37.7"/>
<polygon fill="none" stroke="#000000" points="275.5,-37.7 275.5,-56.7 317.5,-56.7 317.5,-37.7 275.5,-37.7"/>
<text text-anchor="start" x="282.1105" y="-43.8" font-family="Helvetica,sans-Serif" font-size="11.00" fill="#000000">0 rows</text>
<polygon fill="#ffffff" stroke="transparent" points="317.5,-37.7 317.5,-56.7 333.5,-56.7 333.5,-37.7 317.5,-37.7"/>
<polygon fill="none" stroke="#000000" points="317.5,-37.7 317.5,-56.7 333.5,-56.7 333.5,-37.7 317.5,-37.7"/>
<text text-anchor="start" x="324.3862" y="-43.8" font-family="Helvetica,sans-Serif" font-size="11.00" fill="#000000"> &#160;</text>
</a>
</g>
</g>
<!-- telefonos&#45;&gt;personas -->
<g id="edge10" class="edge">
<title>telefonos:w&#45;&gt;personas:e</title>
<path fill="none" stroke="#000000" d="M232.0266,-66.4248C204.1194,-69.5083 191.2237,-82.6351 172,-109.7 118.9774,-184.3502 223.0645,-311.7 131.5,-311.7"/>
<polygon fill="#000000" stroke="#000000" points="238.51,-66.1002 246.6801,-69.2955 242.505,-65.9001 246.5,-65.7 246.5,-65.7 246.5,-65.7 242.505,-65.9001 246.3199,-62.1045 238.51,-66.1002 238.51,-66.1002"/>
<ellipse fill="none" stroke="#000000" cx="235.314" cy="-66.2602" rx="3.2" ry="3.2"/>
</g>
</g>
</svg>
