<?xml version="1.0" encoding="UTF-8" standalone="no"?>
<!DOCTYPE svg PUBLIC "-//W3C//DTD SVG 1.1//EN"
 "http://www.w3.org/Graphics/SVG/1.1/DTD/svg11.dtd">
<!-- Generated by graphviz version 2.40.1 (20161225.0304)
 -->
<!-- Title: oneDegreeRelationshipsDiagram Pages: 1 -->
<svg width="415pt" height="345pt"
 viewBox="0.00 0.00 415.00 344.70" xmlns="http://www.w3.org/2000/svg" xmlns:xlink="http://www.w3.org/1999/xlink">
<g id="graph0" class="graph" transform="scale(1 1) rotate(0) translate(4 340.7)">
<title>oneDegreeRelationshipsDiagram</title>
<polygon fill="#ffffff" stroke="transparent" points="-4,4 -4,-340.7 411,-340.7 411,4 -4,4"/>
<text text-anchor="middle" x="72.4936" y="-7.3" font-family="Helvetica,sans-Serif" font-size="11.00" fill="#000000">Generated by SchemaSpy</text>
<!-- direcciones -->
<g id="node1" class="node">
<title>direcciones</title>
<g id="a_node1"><a xlink:href="../../tables/direcciones.html" xlink:title="direcciones" target="_top">
<polygon fill="#ffffff" stroke="transparent" points="276,-205.7 276,-332.7 399,-332.7 399,-205.7 276,-205.7"/>
<polygon fill="#f5f5f5" stroke="transparent" points="276.5,-309.2 276.5,-332.2 399.5,-332.2 399.5,-309.2 276.5,-309.2"/>
<polygon fill="none" stroke="#000000" points="276.5,-309.2 276.5,-332.2 399.5,-332.2 399.5,-309.2 276.5,-309.2"/>
<text text-anchor="start" x="281.5" y="-318.3" font-family="Helvetica,sans-Serif" font-weight="bold" font-size="11.00" fill="#000000">direcciones</text>
<text text-anchor="start" x="364.5437" y="-317.3" font-family="Helvetica,sans-Serif" font-size="11.00" fill="#000000">[table]</text>
<polygon fill="none" stroke="#000000" points="276.5,-287.2 276.5,-309.2 399.5,-309.2 399.5,-287.2 276.5,-287.2"/>
<image xlink:href="../../images/primaryKeys.png" width="11px" height="12px" preserveAspectRatio="xMinYMin meet" x="281.5" y="-304.2"/>
<text text-anchor="start" x="296.5" y="-294.3" font-family="Helvetica,sans-Serif" font-size="11.00" fill="#000000">direccion_id</text>
<polygon fill="none" stroke="#000000" points="276.5,-265.2 276.5,-287.2 399.5,-287.2 399.5,-265.2 276.5,-265.2"/>
<image xlink:href="../../images/foreignKeys.png" width="11px" height="12px" preserveAspectRatio="xMinYMin meet" x="281.5" y="-282.2"/>
<text text-anchor="start" x="296.5" y="-272.3" font-family="Helvetica,sans-Serif" font-size="11.00" fill="#000000">persona_id</text>
<polygon fill="none" stroke="#000000" points="276.5,-243.2 276.5,-265.2 399.5,-265.2 399.5,-243.2 276.5,-243.2"/>
<image xlink:href="../../images/foreignKeys.png" width="11px" height="12px" preserveAspectRatio="xMinYMin meet" x="281.5" y="-260.2"/>
<text text-anchor="start" x="296.5" y="-250.3" font-family="Helvetica,sans-Serif" font-size="11.00" fill="#000000">sede_id</text>
<polygon fill="none" stroke="#000000" points="276.5,-224.2 276.5,-243.2 399.5,-243.2 399.5,-224.2 276.5,-224.2"/>
<text text-anchor="start" x="279.5" y="-230.3" font-family="Helvetica,sans-Serif" font-size="11.00" fill="#000000">...</text>
<polygon fill="#ffffff" stroke="transparent" points="276.5,-205.2 276.5,-224.2 323.5,-224.2 323.5,-205.2 276.5,-205.2"/>
<polygon fill="none" stroke="#000000" points="276.5,-205.2 276.5,-224.2 323.5,-224.2 323.5,-205.2 276.5,-205.2"/>
<text text-anchor="start" x="279.5" y="-211.3" font-family="Helvetica,sans-Serif" font-size="11.00" fill="#000000">&lt; 2</text>
<polygon fill="#ffffff" stroke="transparent" points="323.5,-205.2 323.5,-224.2 374.5,-224.2 374.5,-205.2 323.5,-205.2"/>
<polygon fill="none" stroke="#000000" points="323.5,-205.2 323.5,-224.2 374.5,-224.2 374.5,-205.2 323.5,-205.2"/>
<text text-anchor="start" x="339.1105" y="-211.3" font-family="Helvetica,sans-Serif" font-size="11.00" fill="#000000">0 rows</text>
<polygon fill="#ffffff" stroke="transparent" points="374.5,-205.2 374.5,-224.2 399.5,-224.2 399.5,-205.2 374.5,-205.2"/>
<polygon fill="none" stroke="#000000" points="374.5,-205.2 374.5,-224.2 399.5,-224.2 399.5,-205.2 374.5,-205.2"/>
<text text-anchor="start" x="390.3862" y="-211.3" font-family="Helvetica,sans-Serif" font-size="11.00" fill="#000000"> &#160;</text>
</a>
</g>
</g>
<!-- sedes -->
<g id="node2" class="node">
<title>sedes</title>
<g id="a_node2"><a xlink:href="../../tables/sedes.html" xlink:title="sedes" target="_top">
<polygon fill="#ffffff" stroke="transparent" points="8,-38.2 8,-216.2 227,-216.2 227,-38.2 8,-38.2"/>
<polygon fill="#f5f5f5" stroke="transparent" points="10.5,-191.2 10.5,-214.2 225.5,-214.2 225.5,-191.2 10.5,-191.2"/>
<polygon fill="none" stroke="#000000" points="10.5,-191.2 10.5,-214.2 225.5,-214.2 225.5,-191.2 10.5,-191.2"/>
<text text-anchor="start" x="15.5" y="-200.3" font-family="Helvetica,sans-Serif" font-weight="bold" font-size="11.00" fill="#000000">sedes</text>
<text text-anchor="start" x="190.5437" y="-199.3" font-family="Helvetica,sans-Serif" font-size="11.00" fill="#000000">[table]</text>
<polygon fill="none" stroke="#000000" points="10.5,-169.2 10.5,-191.2 133.5,-191.2 133.5,-169.2 10.5,-169.2"/>
<image xlink:href="../../images/primaryKeys.png" width="11px" height="12px" preserveAspectRatio="xMinYMin meet" x="15.5" y="-186.2"/>
<text text-anchor="start" x="30.5" y="-176.3" font-family="Helvetica,sans-Serif" font-size="11.00" fill="#000000">sede_id</text>
<polygon fill="none" stroke="#000000" points="133.5,-169.2 133.5,-191.2 225.5,-191.2 225.5,-169.2 133.5,-169.2"/>
<text text-anchor="start" x="136.5" y="-176.9" font-family="Helvetica,sans-Serif" font-size="11.00" fill="#000000">serial[10]</text>
<polygon fill="none" stroke="#000000" points="10.5,-147.2 10.5,-169.2 133.5,-169.2 133.5,-147.2 10.5,-147.2"/>
<text text-anchor="start" x="30.5" y="-154.3" font-family="Helvetica,sans-Serif" font-size="11.00" fill="#000000">nombre</text>
<polygon fill="none" stroke="#000000" points="133.5,-147.2 133.5,-169.2 225.5,-169.2 225.5,-147.2 133.5,-147.2"/>
<text text-anchor="start" x="136.5" y="-154.9" font-family="Helvetica,sans-Serif" font-size="11.00" fill="#000000">varchar[255]</text>
<polygon fill="none" stroke="#000000" points="10.5,-125.2 10.5,-147.2 133.5,-147.2 133.5,-125.2 10.5,-125.2"/>
<text text-anchor="start" x="30.5" y="-132.3" font-family="Helvetica,sans-Serif" font-size="11.00" fill="#000000">usu_insercion</text>
<polygon fill="none" stroke="#000000" points="133.5,-125.2 133.5,-147.2 225.5,-147.2 225.5,-125.2 133.5,-125.2"/>
<text text-anchor="start" x="136.5" y="-132.9" font-family="Helvetica,sans-Serif" font-size="11.00" fill="#000000">varchar[20]</text>
<polygon fill="none" stroke="#000000" points="10.5,-103.2 10.5,-125.2 133.5,-125.2 133.5,-103.2 10.5,-103.2"/>
<text text-anchor="start" x="30.5" y="-110.3" font-family="Helvetica,sans-Serif" font-size="11.00" fill="#000000">fec_insercion</text>
<polygon fill="none" stroke="#000000" points="133.5,-103.2 133.5,-125.2 225.5,-125.2 225.5,-103.2 133.5,-103.2"/>
<text text-anchor="start" x="136.1023" y="-110.9" font-family="Helvetica,sans-Serif" font-size="11.00" fill="#000000">timestamptz[35,6]</text>
<polygon fill="none" stroke="#000000" points="10.5,-81.2 10.5,-103.2 133.5,-103.2 133.5,-81.2 10.5,-81.2"/>
<text text-anchor="start" x="30.5" y="-88.3" font-family="Helvetica,sans-Serif" font-size="11.00" fill="#000000">fec_modificacion</text>
<polygon fill="none" stroke="#000000" points="133.5,-81.2 133.5,-103.2 225.5,-103.2 225.5,-81.2 133.5,-81.2"/>
<text text-anchor="start" x="136.1023" y="-88.9" font-family="Helvetica,sans-Serif" font-size="11.00" fill="#000000">timestamptz[35,6]</text>
<polygon fill="none" stroke="#000000" points="10.5,-59.2 10.5,-81.2 133.5,-81.2 133.5,-59.2 10.5,-59.2"/>
<text text-anchor="start" x="30.5" y="-66.3" font-family="Helvetica,sans-Serif" font-size="11.00" fill="#000000">usu_modificacion</text>
<polygon fill="none" stroke="#000000" points="133.5,-59.2 133.5,-81.2 225.5,-81.2 225.5,-59.2 133.5,-59.2"/>
<text text-anchor="start" x="136.5" y="-66.9" font-family="Helvetica,sans-Serif" font-size="11.00" fill="#000000">varchar[20]</text>
<polygon fill="#ffffff" stroke="transparent" points="10.5,-40.2 10.5,-59.2 63.5,-59.2 63.5,-40.2 10.5,-40.2"/>
<polygon fill="none" stroke="#000000" points="10.5,-40.2 10.5,-59.2 63.5,-59.2 63.5,-40.2 10.5,-40.2"/>
<text text-anchor="start" x="13.5" y="-46.3" font-family="Helvetica,sans-Serif" font-size="11.00" fill="#000000">&lt; 0</text>
<polygon fill="#ffffff" stroke="transparent" points="63.5,-40.2 63.5,-59.2 133.5,-59.2 133.5,-40.2 63.5,-40.2"/>
<polygon fill="none" stroke="#000000" points="63.5,-40.2 63.5,-59.2 133.5,-59.2 133.5,-40.2 63.5,-40.2"/>
<text text-anchor="start" x="98.1105" y="-46.3" font-family="Helvetica,sans-Serif" font-size="11.00" fill="#000000">0 rows</text>
<polygon fill="#ffffff" stroke="transparent" points="133.5,-40.2 133.5,-59.2 225.5,-59.2 225.5,-40.2 133.5,-40.2"/>
<polygon fill="none" stroke="#000000" points="133.5,-40.2 133.5,-59.2 225.5,-59.2 225.5,-40.2 133.5,-40.2"/>
<text text-anchor="start" x="206.9053" y="-46.3" font-family="Helvetica,sans-Serif" font-size="11.00" fill="#000000">2 &gt;</text>
<polygon fill="none" stroke="#000000" stroke-width="2" points="9,-39.2 9,-215.2 226,-215.2 226,-39.2 9,-39.2"/>
</a>
</g>
</g>
<!-- direcciones&#45;&gt;sedes -->
<g id="edge1" class="edge">
<title>direcciones:w&#45;&gt;sedes:e</title>
<path fill="none" stroke="#000000" d="M262.5503,-249.571C243.7607,-233.3706 259.3581,-180.2 225.5,-180.2"/>
<polygon fill="#000000" stroke="#000000" points="268.9071,-251.6804 275.3662,-257.6168 272.7036,-252.9402 276.5,-254.2 276.5,-254.2 276.5,-254.2 272.7036,-252.9402 277.6338,-250.7832 268.9071,-251.6804 268.9071,-251.6804"/>
<ellipse fill="none" stroke="#000000" cx="265.87" cy="-250.6725" rx="3.2" ry="3.2"/>
</g>
<!-- telefonos -->
<g id="node3" class="node">
<title>telefonos</title>
<g id="a_node3"><a xlink:href="../../tables/telefonos.html" xlink:title="telefonos" target="_top">
<polygon fill="#ffffff" stroke="transparent" points="276,-57.7 276,-184.7 399,-184.7 399,-57.7 276,-57.7"/>
<polygon fill="#f5f5f5" stroke="transparent" points="276.5,-161.2 276.5,-184.2 399.5,-184.2 399.5,-161.2 276.5,-161.2"/>
<polygon fill="none" stroke="#000000" points="276.5,-161.2 276.5,-184.2 399.5,-184.2 399.5,-161.2 276.5,-161.2"/>
<text text-anchor="start" x="281.5" y="-170.3" font-family="Helvetica,sans-Serif" font-weight="bold" font-size="11.00" fill="#000000">telefonos</text>
<text text-anchor="start" x="364.5437" y="-169.3" font-family="Helvetica,sans-Serif" font-size="11.00" fill="#000000">[table]</text>
<polygon fill="none" stroke="#000000" points="276.5,-139.2 276.5,-161.2 399.5,-161.2 399.5,-139.2 276.5,-139.2"/>
<image xlink:href="../../images/primaryKeys.png" width="11px" height="12px" preserveAspectRatio="xMinYMin meet" x="281.5" y="-156.2"/>
<text text-anchor="start" x="296.5" y="-146.3" font-family="Helvetica,sans-Serif" font-size="11.00" fill="#000000">telefono_id</text>
<polygon fill="none" stroke="#000000" points="276.5,-117.2 276.5,-139.2 399.5,-139.2 399.5,-117.2 276.5,-117.2"/>
<image xlink:href="../../images/foreignKeys.png" width="11px" height="12px" preserveAspectRatio="xMinYMin meet" x="281.5" y="-134.2"/>
<text text-anchor="start" x="296.5" y="-124.3" font-family="Helvetica,sans-Serif" font-size="11.00" fill="#000000">persona_id</text>
<polygon fill="none" stroke="#000000" points="276.5,-95.2 276.5,-117.2 399.5,-117.2 399.5,-95.2 276.5,-95.2"/>
<image xlink:href="../../images/foreignKeys.png" width="11px" height="12px" preserveAspectRatio="xMinYMin meet" x="281.5" y="-112.2"/>
<text text-anchor="start" x="296.5" y="-102.3" font-family="Helvetica,sans-Serif" font-size="11.00" fill="#000000">sede_id</text>
<polygon fill="none" stroke="#000000" points="276.5,-76.2 276.5,-95.2 399.5,-95.2 399.5,-76.2 276.5,-76.2"/>
<text text-anchor="start" x="279.5" y="-82.3" font-family="Helvetica,sans-Serif" font-size="11.00" fill="#000000">...</text>
<polygon fill="#ffffff" stroke="transparent" points="276.5,-57.2 276.5,-76.2 323.5,-76.2 323.5,-57.2 276.5,-57.2"/>
<polygon fill="none" stroke="#000000" points="276.5,-57.2 276.5,-76.2 323.5,-76.2 323.5,-57.2 276.5,-57.2"/>
<text text-anchor="start" x="279.5" y="-63.3" font-family="Helvetica,sans-Serif" font-size="11.00" fill="#000000">&lt; 2</text>
<polygon fill="#ffffff" stroke="transparent" points="323.5,-57.2 323.5,-76.2 374.5,-76.2 374.5,-57.2 323.5,-57.2"/>
<polygon fill="none" stroke="#000000" points="323.5,-57.2 323.5,-76.2 374.5,-76.2 374.5,-57.2 323.5,-57.2"/>
<text text-anchor="start" x="339.1105" y="-63.3" font-family="Helvetica,sans-Serif" font-size="11.00" fill="#000000">0 rows</text>
<polygon fill="#ffffff" stroke="transparent" points="374.5,-57.2 374.5,-76.2 399.5,-76.2 399.5,-57.2 374.5,-57.2"/>
<polygon fill="none" stroke="#000000" points="374.5,-57.2 374.5,-76.2 399.5,-76.2 399.5,-57.2 374.5,-57.2"/>
<text text-anchor="start" x="390.3862" y="-63.3" font-family="Helvetica,sans-Serif" font-size="11.00" fill="#000000"> &#160;</text>
</a>
</g>
</g>
<!-- telefonos&#45;&gt;sedes -->
<g id="edge2" class="edge">
<title>telefonos:w&#45;&gt;sedes:e</title>
<path fill="none" stroke="#000000" d="M262.5503,-110.829C243.7607,-127.0294 259.3581,-180.2 225.5,-180.2"/>
<polygon fill="#000000" stroke="#000000" points="268.9071,-108.7196 277.6338,-109.6168 272.7036,-107.4598 276.5,-106.2 276.5,-106.2 276.5,-106.2 272.7036,-107.4598 275.3662,-102.7832 268.9071,-108.7196 268.9071,-108.7196"/>
<ellipse fill="none" stroke="#000000" cx="265.87" cy="-109.7275" rx="3.2" ry="3.2"/>
</g>
</g>
</svg>
