<?xml version="1.0" encoding="UTF-8" standalone="no"?>
<!DOCTYPE svg PUBLIC "-//W3C//DTD SVG 1.1//EN"
 "http://www.w3.org/Graphics/SVG/1.1/DTD/svg11.dtd">
<!-- Generated by graphviz version 2.40.1 (20161225.0304)
 -->
<!-- Title: twoDegreesRelationshipsDiagram Pages: 1 -->
<svg width="415pt" height="377pt"
 viewBox="0.00 0.00 415.00 376.70" xmlns="http://www.w3.org/2000/svg" xmlns:xlink="http://www.w3.org/1999/xlink">
<g id="graph0" class="graph" transform="scale(1 1) rotate(0) translate(4 372.7)">
<title>twoDegreesRelationshipsDiagram</title>
<polygon fill="#ffffff" stroke="transparent" points="-4,4 -4,-372.7 411,-372.7 411,4 -4,4"/>
<text text-anchor="middle" x="72.4936" y="-7.3" font-family="Helvetica,sans-Serif" font-size="11.00" fill="#000000">Generated by SchemaSpy</text>
<!-- direcciones -->
<g id="node1" class="node">
<title>direcciones</title>
<g id="a_node1"><a xlink:href="../../tables/direcciones.html" xlink:title="direcciones" target="_top">
<polygon fill="#ffffff" stroke="transparent" points="276,-237.7 276,-364.7 399,-364.7 399,-237.7 276,-237.7"/>
<polygon fill="#f5f5f5" stroke="transparent" points="276.5,-341.2 276.5,-364.2 399.5,-364.2 399.5,-341.2 276.5,-341.2"/>
<polygon fill="none" stroke="#000000" points="276.5,-341.2 276.5,-364.2 399.5,-364.2 399.5,-341.2 276.5,-341.2"/>
<text text-anchor="start" x="281.5" y="-350.3" font-family="Helvetica,sans-Serif" font-weight="bold" font-size="11.00" fill="#000000">direcciones</text>
<text text-anchor="start" x="364.5437" y="-349.3" font-family="Helvetica,sans-Serif" font-size="11.00" fill="#000000">[table]</text>
<polygon fill="none" stroke="#000000" points="276.5,-319.2 276.5,-341.2 399.5,-341.2 399.5,-319.2 276.5,-319.2"/>
<image xlink:href="../../images/primaryKeys.png" width="11px" height="12px" preserveAspectRatio="xMinYMin meet" x="281.5" y="-336.2"/>
<text text-anchor="start" x="296.5" y="-326.3" font-family="Helvetica,sans-Serif" font-size="11.00" fill="#000000">direccion_id</text>
<polygon fill="none" stroke="#000000" points="276.5,-297.2 276.5,-319.2 399.5,-319.2 399.5,-297.2 276.5,-297.2"/>
<image xlink:href="../../images/foreignKeys.png" width="11px" height="12px" preserveAspectRatio="xMinYMin meet" x="281.5" y="-314.2"/>
<text text-anchor="start" x="296.5" y="-304.3" font-family="Helvetica,sans-Serif" font-size="11.00" fill="#000000">persona_id</text>
<polygon fill="none" stroke="#000000" points="276.5,-275.2 276.5,-297.2 399.5,-297.2 399.5,-275.2 276.5,-275.2"/>
<image xlink:href="../../images/foreignKeys.png" width="11px" height="12px" preserveAspectRatio="xMinYMin meet" x="281.5" y="-292.2"/>
<text text-anchor="start" x="296.5" y="-282.3" font-family="Helvetica,sans-Serif" font-size="11.00" fill="#000000">sede_id</text>
<polygon fill="none" stroke="#000000" points="276.5,-256.2 276.5,-275.2 399.5,-275.2 399.5,-256.2 276.5,-256.2"/>
<text text-anchor="start" x="279.5" y="-262.3" font-family="Helvetica,sans-Serif" font-size="11.00" fill="#000000">...</text>
<polygon fill="#ffffff" stroke="transparent" points="276.5,-237.2 276.5,-256.2 323.5,-256.2 323.5,-237.2 276.5,-237.2"/>
<polygon fill="none" stroke="#000000" points="276.5,-237.2 276.5,-256.2 323.5,-256.2 323.5,-237.2 276.5,-237.2"/>
<text text-anchor="start" x="279.5" y="-243.3" font-family="Helvetica,sans-Serif" font-size="11.00" fill="#000000">&lt; 2</text>
<polygon fill="#ffffff" stroke="transparent" points="323.5,-237.2 323.5,-256.2 374.5,-256.2 374.5,-237.2 323.5,-237.2"/>
<polygon fill="none" stroke="#000000" points="323.5,-237.2 323.5,-256.2 374.5,-256.2 374.5,-237.2 323.5,-237.2"/>
<text text-anchor="start" x="339.1105" y="-243.3" font-family="Helvetica,sans-Serif" font-size="11.00" fill="#000000">0 rows</text>
<polygon fill="#ffffff" stroke="transparent" points="374.5,-237.2 374.5,-256.2 399.5,-256.2 399.5,-237.2 374.5,-237.2"/>
<polygon fill="none" stroke="#000000" points="374.5,-237.2 374.5,-256.2 399.5,-256.2 399.5,-237.2 374.5,-237.2"/>
<text text-anchor="start" x="390.3862" y="-243.3" font-family="Helvetica,sans-Serif" font-size="11.00" fill="#000000"> &#160;</text>
</a>
</g>
</g>
<!-- personas -->
<g id="node2" class="node">
<title>personas</title>
<g id="a_node2"><a xlink:href="../../tables/personas.html" xlink:title="personas" target="_top">
<polygon fill="#ffffff" stroke="transparent" points="73.5,-258.7 73.5,-319.7 161.5,-319.7 161.5,-258.7 73.5,-258.7"/>
<polygon fill="#f5f5f5" stroke="transparent" points="73.5,-296.2 73.5,-319.2 161.5,-319.2 161.5,-296.2 73.5,-296.2"/>
<polygon fill="none" stroke="#000000" points="73.5,-296.2 73.5,-319.2 161.5,-319.2 161.5,-296.2 73.5,-296.2"/>
<text text-anchor="start" x="78.3818" y="-305.3" font-family="Helvetica,sans-Serif" font-weight="bold" font-size="11.00" fill="#000000">personas</text>
<text text-anchor="start" x="127.0219" y="-304.3" font-family="Helvetica,sans-Serif" font-size="11.00" fill="#000000">[table]</text>
<polygon fill="none" stroke="#000000" points="73.5,-277.2 73.5,-296.2 161.5,-296.2 161.5,-277.2 73.5,-277.2"/>
<text text-anchor="start" x="76.5" y="-283.3" font-family="Helvetica,sans-Serif" font-size="11.00" fill="#000000">...</text>
<polygon fill="#ffffff" stroke="transparent" points="73.5,-258.2 73.5,-277.2 96.5,-277.2 96.5,-258.2 73.5,-258.2"/>
<polygon fill="none" stroke="#000000" points="73.5,-258.2 73.5,-277.2 96.5,-277.2 96.5,-258.2 73.5,-258.2"/>
<text text-anchor="start" x="76.5" y="-264.3" font-family="Helvetica,sans-Serif" font-size="11.00" fill="#000000"> &#160;</text>
<polygon fill="#ffffff" stroke="transparent" points="96.5,-258.2 96.5,-277.2 134.5,-277.2 134.5,-258.2 96.5,-258.2"/>
<polygon fill="none" stroke="#000000" points="96.5,-258.2 96.5,-277.2 134.5,-277.2 134.5,-258.2 96.5,-258.2"/>
<text text-anchor="start" x="104.6105" y="-264.3" font-family="Helvetica,sans-Serif" font-size="11.00" fill="#000000">1 row</text>
<polygon fill="#ffffff" stroke="transparent" points="134.5,-258.2 134.5,-277.2 161.5,-277.2 161.5,-258.2 134.5,-258.2"/>
<polygon fill="none" stroke="#000000" points="134.5,-258.2 134.5,-277.2 161.5,-277.2 161.5,-258.2 134.5,-258.2"/>
<text text-anchor="start" x="142.9053" y="-264.3" font-family="Helvetica,sans-Serif" font-size="11.00" fill="#000000">7 &gt;</text>
</a>
</g>
</g>
<!-- direcciones&#45;&gt;personas -->
<g id="edge1" class="edge">
<title>direcciones:w&#45;&gt;personas:e</title>
<path fill="none" stroke="#000000" d="M262.0921,-307.5886C221.8778,-304.0355 208.3545,-286.2 161.5,-286.2"/>
<polygon fill="#000000" stroke="#000000" points="268.5072,-307.8608 276.3474,-311.7968 272.5036,-308.0304 276.5,-308.2 276.5,-308.2 276.5,-308.2 272.5036,-308.0304 276.6526,-304.6032 268.5072,-307.8608 268.5072,-307.8608"/>
<ellipse fill="none" stroke="#000000" cx="265.3101" cy="-307.7251" rx="3.2" ry="3.2"/>
</g>
<!-- sedes -->
<g id="node3" class="node">
<title>sedes</title>
<g id="a_node3"><a xlink:href="../../tables/sedes.html" xlink:title="sedes" target="_top">
<polygon fill="#ffffff" stroke="transparent" points="8,-38.2 8,-216.2 227,-216.2 227,-38.2 8,-38.2"/>
<polygon fill="#f5f5f5" stroke="transparent" points="10.5,-191.2 10.5,-214.2 225.5,-214.2 225.5,-191.2 10.5,-191.2"/>
<polygon fill="none" stroke="#000000" points="10.5,-191.2 10.5,-214.2 225.5,-214.2 225.5,-191.2 10.5,-191.2"/>
<text text-anchor="start" x="15.5" y="-200.3" font-family="Helvetica,sans-Serif" font-weight="bold" font-size="11.00" fill="#000000">sedes</text>
<text text-anchor="start" x="190.5437" y="-199.3" font-family="Helvetica,sans-Serif" font-size="11.00" fill="#000000">[table]</text>
<polygon fill="none" stroke="#000000" points="10.5,-169.2 10.5,-191.2 133.5,-191.2 133.5,-169.2 10.5,-169.2"/>
<image xlink:href="../../images/primaryKeys.png" width="11px" height="12px" preserveAspectRatio="xMinYMin meet" x="15.5" y="-186.2"/>
<text text-anchor="start" x="30.5" y="-176.3" font-family="Helvetica,sans-Serif" font-size="11.00" fill="#000000">sede_id</text>
<polygon fill="none" stroke="#000000" points="133.5,-169.2 133.5,-191.2 225.5,-191.2 225.5,-169.2 133.5,-169.2"/>
<text text-anchor="start" x="136.5" y="-176.9" font-family="Helvetica,sans-Serif" font-size="11.00" fill="#000000">serial[10]</text>
<polygon fill="none" stroke="#000000" points="10.5,-147.2 10.5,-169.2 133.5,-169.2 133.5,-147.2 10.5,-147.2"/>
<text text-anchor="start" x="30.5" y="-154.3" font-family="Helvetica,sans-Serif" font-size="11.00" fill="#000000">nombre</text>
<polygon fill="none" stroke="#000000" points="133.5,-147.2 133.5,-169.2 225.5,-169.2 225.5,-147.2 133.5,-147.2"/>
<text text-anchor="start" x="136.5" y="-154.9" font-family="Helvetica,sans-Serif" font-size="11.00" fill="#000000">varchar[255]</text>
<polygon fill="none" stroke="#000000" points="10.5,-125.2 10.5,-147.2 133.5,-147.2 133.5,-125.2 10.5,-125.2"/>
<text text-anchor="start" x="30.5" y="-132.3" font-family="Helvetica,sans-Serif" font-size="11.00" fill="#000000">usu_insercion</text>
<polygon fill="none" stroke="#000000" points="133.5,-125.2 133.5,-147.2 225.5,-147.2 225.5,-125.2 133.5,-125.2"/>
<text text-anchor="start" x="136.5" y="-132.9" font-family="Helvetica,sans-Serif" font-size="11.00" fill="#000000">varchar[20]</text>
<polygon fill="none" stroke="#000000" points="10.5,-103.2 10.5,-125.2 133.5,-125.2 133.5,-103.2 10.5,-103.2"/>
<text text-anchor="start" x="30.5" y="-110.3" font-family="Helvetica,sans-Serif" font-size="11.00" fill="#000000">fec_insercion</text>
<polygon fill="none" stroke="#000000" points="133.5,-103.2 133.5,-125.2 225.5,-125.2 225.5,-103.2 133.5,-103.2"/>
<text text-anchor="start" x="136.1023" y="-110.9" font-family="Helvetica,sans-Serif" font-size="11.00" fill="#000000">timestamptz[35,6]</text>
<polygon fill="none" stroke="#000000" points="10.5,-81.2 10.5,-103.2 133.5,-103.2 133.5,-81.2 10.5,-81.2"/>
<text text-anchor="start" x="30.5" y="-88.3" font-family="Helvetica,sans-Serif" font-size="11.00" fill="#000000">fec_modificacion</text>
<polygon fill="none" stroke="#000000" points="133.5,-81.2 133.5,-103.2 225.5,-103.2 225.5,-81.2 133.5,-81.2"/>
<text text-anchor="start" x="136.1023" y="-88.9" font-family="Helvetica,sans-Serif" font-size="11.00" fill="#000000">timestamptz[35,6]</text>
<polygon fill="none" stroke="#000000" points="10.5,-59.2 10.5,-81.2 133.5,-81.2 133.5,-59.2 10.5,-59.2"/>
<text text-anchor="start" x="30.5" y="-66.3" font-family="Helvetica,sans-Serif" font-size="11.00" fill="#000000">usu_modificacion</text>
<polygon fill="none" stroke="#000000" points="133.5,-59.2 133.5,-81.2 225.5,-81.2 225.5,-59.2 133.5,-59.2"/>
<text text-anchor="start" x="136.5" y="-66.9" font-family="Helvetica,sans-Serif" font-size="11.00" fill="#000000">varchar[20]</text>
<polygon fill="#ffffff" stroke="transparent" points="10.5,-40.2 10.5,-59.2 63.5,-59.2 63.5,-40.2 10.5,-40.2"/>
<polygon fill="none" stroke="#000000" points="10.5,-40.2 10.5,-59.2 63.5,-59.2 63.5,-40.2 10.5,-40.2"/>
<text text-anchor="start" x="13.5" y="-46.3" font-family="Helvetica,sans-Serif" font-size="11.00" fill="#000000">&lt; 0</text>
<polygon fill="#ffffff" stroke="transparent" points="63.5,-40.2 63.5,-59.2 133.5,-59.2 133.5,-40.2 63.5,-40.2"/>
<polygon fill="none" stroke="#000000" points="63.5,-40.2 63.5,-59.2 133.5,-59.2 133.5,-40.2 63.5,-40.2"/>
<text text-anchor="start" x="98.1105" y="-46.3" font-family="Helvetica,sans-Serif" font-size="11.00" fill="#000000">0 rows</text>
<polygon fill="#ffffff" stroke="transparent" points="133.5,-40.2 133.5,-59.2 225.5,-59.2 225.5,-40.2 133.5,-40.2"/>
<polygon fill="none" stroke="#000000" points="133.5,-40.2 133.5,-59.2 225.5,-59.2 225.5,-40.2 133.5,-40.2"/>
<text text-anchor="start" x="206.9053" y="-46.3" font-family="Helvetica,sans-Serif" font-size="11.00" fill="#000000">2 &gt;</text>
<polygon fill="none" stroke="#000000" stroke-width="2" points="9,-39.2 9,-215.2 226,-215.2 226,-39.2 9,-39.2"/>
</a>
</g>
</g>
<!-- direcciones&#45;&gt;sedes -->
<g id="edge2" class="edge">
<title>direcciones:w&#45;&gt;sedes:e</title>
<path fill="none" stroke="#000000" d="M262.4998,-282.4274C234.9963,-263.5446 271.858,-180.2 225.5,-180.2"/>
<polygon fill="#000000" stroke="#000000" points="268.7755,-284.1185 275.5633,-289.676 272.6378,-285.1592 276.5,-286.2 276.5,-286.2 276.5,-286.2 272.6378,-285.1592 277.4367,-282.724 268.7755,-284.1185 268.7755,-284.1185"/>
<ellipse fill="none" stroke="#000000" cx="265.6857" cy="-283.2859" rx="3.2" ry="3.2"/>
</g>
<!-- telefonos -->
<g id="node4" class="node">
<title>telefonos</title>
<g id="a_node4"><a xlink:href="../../tables/telefonos.html" xlink:title="telefonos" target="_top">
<polygon fill="#ffffff" stroke="transparent" points="276,-89.7 276,-216.7 399,-216.7 399,-89.7 276,-89.7"/>
<polygon fill="#f5f5f5" stroke="transparent" points="276.5,-193.2 276.5,-216.2 399.5,-216.2 399.5,-193.2 276.5,-193.2"/>
<polygon fill="none" stroke="#000000" points="276.5,-193.2 276.5,-216.2 399.5,-216.2 399.5,-193.2 276.5,-193.2"/>
<text text-anchor="start" x="281.5" y="-202.3" font-family="Helvetica,sans-Serif" font-weight="bold" font-size="11.00" fill="#000000">telefonos</text>
<text text-anchor="start" x="364.5437" y="-201.3" font-family="Helvetica,sans-Serif" font-size="11.00" fill="#000000">[table]</text>
<polygon fill="none" stroke="#000000" points="276.5,-171.2 276.5,-193.2 399.5,-193.2 399.5,-171.2 276.5,-171.2"/>
<image xlink:href="../../images/primaryKeys.png" width="11px" height="12px" preserveAspectRatio="xMinYMin meet" x="281.5" y="-188.2"/>
<text text-anchor="start" x="296.5" y="-178.3" font-family="Helvetica,sans-Serif" font-size="11.00" fill="#000000">telefono_id</text>
<polygon fill="none" stroke="#000000" points="276.5,-149.2 276.5,-171.2 399.5,-171.2 399.5,-149.2 276.5,-149.2"/>
<image xlink:href="../../images/foreignKeys.png" width="11px" height="12px" preserveAspectRatio="xMinYMin meet" x="281.5" y="-166.2"/>
<text text-anchor="start" x="296.5" y="-156.3" font-family="Helvetica,sans-Serif" font-size="11.00" fill="#000000">persona_id</text>
<polygon fill="none" stroke="#000000" points="276.5,-127.2 276.5,-149.2 399.5,-149.2 399.5,-127.2 276.5,-127.2"/>
<image xlink:href="../../images/foreignKeys.png" width="11px" height="12px" preserveAspectRatio="xMinYMin meet" x="281.5" y="-144.2"/>
<text text-anchor="start" x="296.5" y="-134.3" font-family="Helvetica,sans-Serif" font-size="11.00" fill="#000000">sede_id</text>
<polygon fill="none" stroke="#000000" points="276.5,-108.2 276.5,-127.2 399.5,-127.2 399.5,-108.2 276.5,-108.2"/>
<text text-anchor="start" x="279.5" y="-114.3" font-family="Helvetica,sans-Serif" font-size="11.00" fill="#000000">...</text>
<polygon fill="#ffffff" stroke="transparent" points="276.5,-89.2 276.5,-108.2 323.5,-108.2 323.5,-89.2 276.5,-89.2"/>
<polygon fill="none" stroke="#000000" points="276.5,-89.2 276.5,-108.2 323.5,-108.2 323.5,-89.2 276.5,-89.2"/>
<text text-anchor="start" x="279.5" y="-95.3" font-family="Helvetica,sans-Serif" font-size="11.00" fill="#000000">&lt; 2</text>
<polygon fill="#ffffff" stroke="transparent" points="323.5,-89.2 323.5,-108.2 374.5,-108.2 374.5,-89.2 323.5,-89.2"/>
<polygon fill="none" stroke="#000000" points="323.5,-89.2 323.5,-108.2 374.5,-108.2 374.5,-89.2 323.5,-89.2"/>
<text text-anchor="start" x="339.1105" y="-95.3" font-family="Helvetica,sans-Serif" font-size="11.00" fill="#000000">0 rows</text>
<polygon fill="#ffffff" stroke="transparent" points="374.5,-89.2 374.5,-108.2 399.5,-108.2 399.5,-89.2 374.5,-89.2"/>
<polygon fill="none" stroke="#000000" points="374.5,-89.2 374.5,-108.2 399.5,-108.2 399.5,-89.2 374.5,-89.2"/>
<text text-anchor="start" x="390.3862" y="-95.3" font-family="Helvetica,sans-Serif" font-size="11.00" fill="#000000"> &#160;</text>
</a>
</g>
</g>
<!-- telefonos&#45;&gt;personas -->
<g id="edge3" class="edge">
<title>telefonos:w&#45;&gt;personas:e</title>
<path fill="none" stroke="#000000" d="M262.1004,-163.8282C246.1991,-174.3823 254.0429,-205.6832 235,-227.2 207.238,-258.5685 203.3893,-286.2 161.5,-286.2"/>
<polygon fill="#000000" stroke="#000000" points="268.7425,-162.1547 277.3796,-163.6909 272.6212,-161.1773 276.5,-160.2 276.5,-160.2 276.5,-160.2 272.6212,-161.1773 275.6204,-156.7091 268.7425,-162.1547 268.7425,-162.1547"/>
<ellipse fill="none" stroke="#000000" cx="265.6394" cy="-162.9365" rx="3.2" ry="3.2"/>
</g>
<!-- telefonos&#45;&gt;sedes -->
<g id="edge4" class="edge">
<title>telefonos:w&#45;&gt;sedes:e</title>
<path fill="none" stroke="#000000" d="M262.5759,-142.6947C248.7452,-153.5296 248.8991,-180.2 225.5,-180.2"/>
<polygon fill="#000000" stroke="#000000" points="268.8868,-140.6576 277.6059,-141.6259 272.6934,-139.4288 276.5,-138.2 276.5,-138.2 276.5,-138.2 272.6934,-139.4288 275.3941,-134.7741 268.8868,-140.6576 268.8868,-140.6576"/>
<ellipse fill="none" stroke="#000000" cx="265.8416" cy="-141.6406" rx="3.2" ry="3.2"/>
</g>
</g>
</svg>
