<?xml version="1.0" encoding="UTF-8" standalone="no"?>
<!DOCTYPE svg PUBLIC "-//W3C//DTD SVG 1.1//EN"
 "http://www.w3.org/Graphics/SVG/1.1/DTD/svg11.dtd">
<!-- Generated by graphviz version 2.40.1 (20161225.0304)
 -->
<!-- Title: twoDegreesRelationshipsDiagram Pages: 1 -->
<svg width="711pt" height="591pt"
 viewBox="0.00 0.00 711.00 590.70" xmlns="http://www.w3.org/2000/svg" xmlns:xlink="http://www.w3.org/1999/xlink">
<g id="graph0" class="graph" transform="scale(1 1) rotate(0) translate(4 586.7)">
<title>twoDegreesRelationshipsDiagram</title>
<polygon fill="#ffffff" stroke="transparent" points="-4,4 -4,-586.7 707,-586.7 707,4 -4,4"/>
<text text-anchor="middle" x="72.4936" y="-7.3" font-family="Helvetica,sans-Serif" font-size="11.00" fill="#000000">Generated by SchemaSpy</text>
<!-- ciclo_aulas -->
<g id="node1" class="node">
<title>ciclo_aulas</title>
<g id="a_node1"><a xlink:href="../../tables/ciclo_aulas.html" xlink:title="ciclo_aulas" target="_top">
<polygon fill="#ffffff" stroke="transparent" points="400,-401.7 400,-550.7 523,-550.7 523,-401.7 400,-401.7"/>
<polygon fill="#f5f5f5" stroke="transparent" points="400.5,-527.2 400.5,-550.2 523.5,-550.2 523.5,-527.2 400.5,-527.2"/>
<polygon fill="none" stroke="#000000" points="400.5,-527.2 400.5,-550.2 523.5,-550.2 523.5,-527.2 400.5,-527.2"/>
<text text-anchor="start" x="405.5" y="-536.3" font-family="Helvetica,sans-Serif" font-weight="bold" font-size="11.00" fill="#000000">ciclo_aulas</text>
<text text-anchor="start" x="488.5437" y="-535.3" font-family="Helvetica,sans-Serif" font-size="11.00" fill="#000000">[table]</text>
<polygon fill="none" stroke="#000000" points="400.5,-505.2 400.5,-527.2 523.5,-527.2 523.5,-505.2 400.5,-505.2"/>
<image xlink:href="../../images/primaryKeys.png" width="11px" height="12px" preserveAspectRatio="xMinYMin meet" x="405.5" y="-522.2"/>
<text text-anchor="start" x="420.5" y="-512.3" font-family="Helvetica,sans-Serif" font-size="11.00" fill="#000000">aula_id</text>
<polygon fill="none" stroke="#000000" points="400.5,-483.2 400.5,-505.2 523.5,-505.2 523.5,-483.2 400.5,-483.2"/>
<image xlink:href="../../images/foreignKeys.png" width="11px" height="12px" preserveAspectRatio="xMinYMin meet" x="405.5" y="-500.2"/>
<text text-anchor="start" x="420.5" y="-490.3" font-family="Helvetica,sans-Serif" font-size="11.00" fill="#000000">sede_id</text>
<polygon fill="none" stroke="#000000" points="400.5,-461.2 400.5,-483.2 523.5,-483.2 523.5,-461.2 400.5,-461.2"/>
<image xlink:href="../../images/foreignKeys.png" width="11px" height="12px" preserveAspectRatio="xMinYMin meet" x="405.5" y="-478.2"/>
<text text-anchor="start" x="420.5" y="-468.3" font-family="Helvetica,sans-Serif" font-size="11.00" fill="#000000">ciclo_id</text>
<polygon fill="none" stroke="#000000" points="400.5,-439.2 400.5,-461.2 523.5,-461.2 523.5,-439.2 400.5,-439.2"/>
<image xlink:href="../../images/foreignKeys.png" width="11px" height="12px" preserveAspectRatio="xMinYMin meet" x="405.5" y="-456.2"/>
<text text-anchor="start" x="420.5" y="-446.3" font-family="Helvetica,sans-Serif" font-size="11.00" fill="#000000">curso_id</text>
<polygon fill="none" stroke="#000000" points="400.5,-420.2 400.5,-439.2 523.5,-439.2 523.5,-420.2 400.5,-420.2"/>
<text text-anchor="start" x="403.5" y="-426.3" font-family="Helvetica,sans-Serif" font-size="11.00" fill="#000000">...</text>
<polygon fill="#ffffff" stroke="transparent" points="400.5,-401.2 400.5,-420.2 442.5,-420.2 442.5,-401.2 400.5,-401.2"/>
<polygon fill="none" stroke="#000000" points="400.5,-401.2 400.5,-420.2 442.5,-420.2 442.5,-401.2 400.5,-401.2"/>
<text text-anchor="start" x="403.5" y="-407.3" font-family="Helvetica,sans-Serif" font-size="11.00" fill="#000000">&lt; 3</text>
<polygon fill="#ffffff" stroke="transparent" points="442.5,-401.2 442.5,-420.2 491.5,-420.2 491.5,-401.2 442.5,-401.2"/>
<polygon fill="none" stroke="#000000" points="442.5,-401.2 442.5,-420.2 491.5,-420.2 491.5,-401.2 442.5,-401.2"/>
<text text-anchor="start" x="456.1105" y="-407.3" font-family="Helvetica,sans-Serif" font-size="11.00" fill="#000000">0 rows</text>
<polygon fill="#ffffff" stroke="transparent" points="491.5,-401.2 491.5,-420.2 523.5,-420.2 523.5,-401.2 491.5,-401.2"/>
<polygon fill="none" stroke="#000000" points="491.5,-401.2 491.5,-420.2 523.5,-420.2 523.5,-401.2 491.5,-401.2"/>
<text text-anchor="start" x="504.9053" y="-407.3" font-family="Helvetica,sans-Serif" font-size="11.00" fill="#000000">1 &gt;</text>
</a>
</g>
</g>
<!-- curso_ciclos -->
<g id="node2" class="node">
<title>curso_ciclos</title>
<g id="a_node2"><a xlink:href="../../tables/curso_ciclos.html" xlink:title="curso_ciclos" target="_top">
<polygon fill="#ffffff" stroke="transparent" points="190,-474.7 190,-535.7 293,-535.7 293,-474.7 190,-474.7"/>
<polygon fill="#f5f5f5" stroke="transparent" points="190.5,-512.2 190.5,-535.2 293.5,-535.2 293.5,-512.2 190.5,-512.2"/>
<polygon fill="none" stroke="#000000" points="190.5,-512.2 190.5,-535.2 293.5,-535.2 293.5,-512.2 190.5,-512.2"/>
<text text-anchor="start" x="195.2484" y="-521.3" font-family="Helvetica,sans-Serif" font-weight="bold" font-size="11.00" fill="#000000">curso_ciclos</text>
<text text-anchor="start" x="259.0219" y="-520.3" font-family="Helvetica,sans-Serif" font-size="11.00" fill="#000000">[table]</text>
<polygon fill="none" stroke="#000000" points="190.5,-493.2 190.5,-512.2 293.5,-512.2 293.5,-493.2 190.5,-493.2"/>
<text text-anchor="start" x="193.5" y="-499.3" font-family="Helvetica,sans-Serif" font-size="11.00" fill="#000000">...</text>
<polygon fill="#ffffff" stroke="transparent" points="190.5,-474.2 190.5,-493.2 222.5,-493.2 222.5,-474.2 190.5,-474.2"/>
<polygon fill="none" stroke="#000000" points="190.5,-474.2 190.5,-493.2 222.5,-493.2 222.5,-474.2 190.5,-474.2"/>
<text text-anchor="start" x="193.5" y="-480.3" font-family="Helvetica,sans-Serif" font-size="11.00" fill="#000000">&lt; 1</text>
<polygon fill="#ffffff" stroke="transparent" points="222.5,-474.2 222.5,-493.2 266.5,-493.2 266.5,-474.2 222.5,-474.2"/>
<polygon fill="none" stroke="#000000" points="222.5,-474.2 222.5,-493.2 266.5,-493.2 266.5,-474.2 222.5,-474.2"/>
<text text-anchor="start" x="231.1105" y="-480.3" font-family="Helvetica,sans-Serif" font-size="11.00" fill="#000000">0 rows</text>
<polygon fill="#ffffff" stroke="transparent" points="266.5,-474.2 266.5,-493.2 293.5,-493.2 293.5,-474.2 266.5,-474.2"/>
<polygon fill="none" stroke="#000000" points="266.5,-474.2 266.5,-493.2 293.5,-493.2 293.5,-474.2 266.5,-474.2"/>
<text text-anchor="start" x="274.9053" y="-480.3" font-family="Helvetica,sans-Serif" font-size="11.00" fill="#000000">2 &gt;</text>
</a>
</g>
</g>
<!-- ciclo_aulas&#45;&gt;curso_ciclos -->
<g id="edge1" class="edge">
<title>ciclo_aulas:w&#45;&gt;curso_ciclos:e</title>
<path fill="none" stroke="#000000" d="M385.6639,-473.1982C348.8197,-478.4036 337.4874,-502.2 293.5,-502.2"/>
<polygon fill="#000000" stroke="#000000" points="392.518,-472.7371 400.7417,-475.7919 396.509,-472.4685 400.5,-472.2 400.5,-472.2 400.5,-472.2 396.509,-472.4685 400.2583,-468.6081 392.518,-472.7371 392.518,-472.7371"/>
<ellipse fill="none" stroke="#000000" cx="389.3253" cy="-472.9519" rx="3.2" ry="3.2"/>
</g>
<!-- cursos -->
<g id="node3" class="node">
<title>cursos</title>
<g id="a_node3"><a xlink:href="../../tables/cursos.html" xlink:title="cursos" target="_top">
<polygon fill="#ffffff" stroke="transparent" points="8,-448.7 8,-509.7 83,-509.7 83,-448.7 8,-448.7"/>
<polygon fill="#f5f5f5" stroke="transparent" points="8.5,-486.2 8.5,-509.2 83.5,-509.2 83.5,-486.2 8.5,-486.2"/>
<polygon fill="none" stroke="#000000" points="8.5,-486.2 8.5,-509.2 83.5,-509.2 83.5,-486.2 8.5,-486.2"/>
<text text-anchor="start" x="13.3042" y="-495.3" font-family="Helvetica,sans-Serif" font-weight="bold" font-size="11.00" fill="#000000">cursos</text>
<text text-anchor="start" x="49.0219" y="-494.3" font-family="Helvetica,sans-Serif" font-size="11.00" fill="#000000">[table]</text>
<polygon fill="none" stroke="#000000" points="8.5,-467.2 8.5,-486.2 83.5,-486.2 83.5,-467.2 8.5,-467.2"/>
<text text-anchor="start" x="11.5" y="-473.3" font-family="Helvetica,sans-Serif" font-size="11.00" fill="#000000">...</text>
<polygon fill="#ffffff" stroke="transparent" points="8.5,-448.2 8.5,-467.2 25.5,-467.2 25.5,-448.2 8.5,-448.2"/>
<polygon fill="none" stroke="#000000" points="8.5,-448.2 8.5,-467.2 25.5,-467.2 25.5,-448.2 8.5,-448.2"/>
<text text-anchor="start" x="11.5" y="-454.3" font-family="Helvetica,sans-Serif" font-size="11.00" fill="#000000"> &#160;</text>
<polygon fill="#ffffff" stroke="transparent" points="25.5,-448.2 25.5,-467.2 59.5,-467.2 59.5,-448.2 25.5,-448.2"/>
<polygon fill="none" stroke="#000000" points="25.5,-448.2 25.5,-467.2 59.5,-467.2 59.5,-448.2 25.5,-448.2"/>
<text text-anchor="start" x="29.6105" y="-454.3" font-family="Helvetica,sans-Serif" font-size="11.00" fill="#000000">1 row</text>
<polygon fill="#ffffff" stroke="transparent" points="59.5,-448.2 59.5,-467.2 83.5,-467.2 83.5,-448.2 59.5,-448.2"/>
<polygon fill="none" stroke="#000000" points="59.5,-448.2 59.5,-467.2 83.5,-467.2 83.5,-448.2 59.5,-448.2"/>
<text text-anchor="start" x="64.9053" y="-454.3" font-family="Helvetica,sans-Serif" font-size="11.00" fill="#000000">4 &gt;</text>
</a>
</g>
</g>
<!-- ciclo_aulas&#45;&gt;cursos -->
<g id="edge2" class="edge">
<title>ciclo_aulas:w&#45;&gt;cursos:e</title>
<path fill="none" stroke="#000000" d="M385.8058,-450.1684C274.6651,-449.6937 240.312,-444.3154 124,-464.2 105.495,-467.3636 102.2735,-476.2 83.5,-476.2"/>
<polygon fill="#000000" stroke="#000000" points="392.5,-450.1827 400.4922,-453.8 396.5,-450.1914 400.5,-450.2 400.5,-450.2 400.5,-450.2 396.5,-450.1914 400.5078,-446.6 392.5,-450.1827 392.5,-450.1827"/>
<ellipse fill="none" stroke="#000000" cx="389.3" cy="-450.1758" rx="3.2" ry="3.2"/>
</g>
<!-- sedes -->
<g id="node4" class="node">
<title>sedes</title>
<g id="a_node4"><a xlink:href="../../tables/sedes.html" xlink:title="sedes" target="_top">
<polygon fill="#ffffff" stroke="transparent" points="132,-38.2 132,-216.2 351,-216.2 351,-38.2 132,-38.2"/>
<polygon fill="#f5f5f5" stroke="transparent" points="134.5,-191.2 134.5,-214.2 349.5,-214.2 349.5,-191.2 134.5,-191.2"/>
<polygon fill="none" stroke="#000000" points="134.5,-191.2 134.5,-214.2 349.5,-214.2 349.5,-191.2 134.5,-191.2"/>
<text text-anchor="start" x="139.5" y="-200.3" font-family="Helvetica,sans-Serif" font-weight="bold" font-size="11.00" fill="#000000">sedes</text>
<text text-anchor="start" x="314.5437" y="-199.3" font-family="Helvetica,sans-Serif" font-size="11.00" fill="#000000">[table]</text>
<polygon fill="none" stroke="#000000" points="134.5,-169.2 134.5,-191.2 257.5,-191.2 257.5,-169.2 134.5,-169.2"/>
<image xlink:href="../../images/primaryKeys.png" width="11px" height="12px" preserveAspectRatio="xMinYMin meet" x="139.5" y="-186.2"/>
<text text-anchor="start" x="154.5" y="-176.3" font-family="Helvetica,sans-Serif" font-size="11.00" fill="#000000">sede_id</text>
<polygon fill="none" stroke="#000000" points="257.5,-169.2 257.5,-191.2 349.5,-191.2 349.5,-169.2 257.5,-169.2"/>
<text text-anchor="start" x="260.5" y="-176.9" font-family="Helvetica,sans-Serif" font-size="11.00" fill="#000000">serial[10]</text>
<polygon fill="none" stroke="#000000" points="134.5,-147.2 134.5,-169.2 257.5,-169.2 257.5,-147.2 134.5,-147.2"/>
<text text-anchor="start" x="154.5" y="-154.3" font-family="Helvetica,sans-Serif" font-size="11.00" fill="#000000">nombre</text>
<polygon fill="none" stroke="#000000" points="257.5,-147.2 257.5,-169.2 349.5,-169.2 349.5,-147.2 257.5,-147.2"/>
<text text-anchor="start" x="260.5" y="-154.9" font-family="Helvetica,sans-Serif" font-size="11.00" fill="#000000">varchar[255]</text>
<polygon fill="none" stroke="#000000" points="134.5,-125.2 134.5,-147.2 257.5,-147.2 257.5,-125.2 134.5,-125.2"/>
<text text-anchor="start" x="154.5" y="-132.3" font-family="Helvetica,sans-Serif" font-size="11.00" fill="#000000">usu_insercion</text>
<polygon fill="none" stroke="#000000" points="257.5,-125.2 257.5,-147.2 349.5,-147.2 349.5,-125.2 257.5,-125.2"/>
<text text-anchor="start" x="260.5" y="-132.9" font-family="Helvetica,sans-Serif" font-size="11.00" fill="#000000">varchar[20]</text>
<polygon fill="none" stroke="#000000" points="134.5,-103.2 134.5,-125.2 257.5,-125.2 257.5,-103.2 134.5,-103.2"/>
<text text-anchor="start" x="154.5" y="-110.3" font-family="Helvetica,sans-Serif" font-size="11.00" fill="#000000">fec_insercion</text>
<polygon fill="none" stroke="#000000" points="257.5,-103.2 257.5,-125.2 349.5,-125.2 349.5,-103.2 257.5,-103.2"/>
<text text-anchor="start" x="260.1023" y="-110.9" font-family="Helvetica,sans-Serif" font-size="11.00" fill="#000000">timestamptz[35,6]</text>
<polygon fill="none" stroke="#000000" points="134.5,-81.2 134.5,-103.2 257.5,-103.2 257.5,-81.2 134.5,-81.2"/>
<text text-anchor="start" x="154.5" y="-88.3" font-family="Helvetica,sans-Serif" font-size="11.00" fill="#000000">fec_modificacion</text>
<polygon fill="none" stroke="#000000" points="257.5,-81.2 257.5,-103.2 349.5,-103.2 349.5,-81.2 257.5,-81.2"/>
<text text-anchor="start" x="260.1023" y="-88.9" font-family="Helvetica,sans-Serif" font-size="11.00" fill="#000000">timestamptz[35,6]</text>
<polygon fill="none" stroke="#000000" points="134.5,-59.2 134.5,-81.2 257.5,-81.2 257.5,-59.2 134.5,-59.2"/>
<text text-anchor="start" x="154.5" y="-66.3" font-family="Helvetica,sans-Serif" font-size="11.00" fill="#000000">usu_modificacion</text>
<polygon fill="none" stroke="#000000" points="257.5,-59.2 257.5,-81.2 349.5,-81.2 349.5,-59.2 257.5,-59.2"/>
<text text-anchor="start" x="260.5" y="-66.9" font-family="Helvetica,sans-Serif" font-size="11.00" fill="#000000">varchar[20]</text>
<polygon fill="#ffffff" stroke="transparent" points="134.5,-40.2 134.5,-59.2 187.5,-59.2 187.5,-40.2 134.5,-40.2"/>
<polygon fill="none" stroke="#000000" points="134.5,-40.2 134.5,-59.2 187.5,-59.2 187.5,-40.2 134.5,-40.2"/>
<text text-anchor="start" x="137.5" y="-46.3" font-family="Helvetica,sans-Serif" font-size="11.00" fill="#000000">&lt; 0</text>
<polygon fill="#ffffff" stroke="transparent" points="187.5,-40.2 187.5,-59.2 257.5,-59.2 257.5,-40.2 187.5,-40.2"/>
<polygon fill="none" stroke="#000000" points="187.5,-40.2 187.5,-59.2 257.5,-59.2 257.5,-40.2 187.5,-40.2"/>
<text text-anchor="start" x="222.1105" y="-46.3" font-family="Helvetica,sans-Serif" font-size="11.00" fill="#000000">0 rows</text>
<polygon fill="#ffffff" stroke="transparent" points="257.5,-40.2 257.5,-59.2 349.5,-59.2 349.5,-40.2 257.5,-40.2"/>
<polygon fill="none" stroke="#000000" points="257.5,-40.2 257.5,-59.2 349.5,-59.2 349.5,-40.2 257.5,-40.2"/>
<text text-anchor="start" x="330.9053" y="-46.3" font-family="Helvetica,sans-Serif" font-size="11.00" fill="#000000">3 &gt;</text>
<polygon fill="none" stroke="#000000" stroke-width="2" points="133,-39.2 133,-215.2 350,-215.2 350,-39.2 133,-39.2"/>
</a>
</g>
</g>
<!-- ciclo_aulas&#45;&gt;sedes -->
<g id="edge3" class="edge">
<title>ciclo_aulas:w&#45;&gt;sedes:e</title>
<path fill="none" stroke="#000000" d="M387.0071,-489.0119C342.6427,-448.1859 414.8074,-180.2 349.5,-180.2"/>
<polygon fill="#000000" stroke="#000000" points="393.033,-491.3288 399.208,-497.5602 396.7665,-492.7644 400.5,-494.2 400.5,-494.2 400.5,-494.2 396.7665,-492.7644 401.792,-490.8398 393.033,-491.3288 393.033,-491.3288"/>
<ellipse fill="none" stroke="#000000" cx="390.0461" cy="-490.1804" rx="3.2" ry="3.2"/>
</g>
<!-- curso_ciclos&#45;&gt;cursos -->
<g id="edge6" class="edge">
<title>curso_ciclos:w&#45;&gt;cursos:e</title>
<path fill="none" stroke="#000000" d="M175.7666,-501.3349C139.089,-496.8235 127.0866,-476.2 83.5,-476.2"/>
<polygon fill="#000000" stroke="#000000" points="182.5138,-501.731 190.289,-505.7938 186.5069,-501.9655 190.5,-502.2 190.5,-502.2 190.5,-502.2 186.5069,-501.9655 190.711,-498.6062 182.5138,-501.731 182.5138,-501.731"/>
<ellipse fill="none" stroke="#000000" cx="179.3193" cy="-501.5435" rx="3.2" ry="3.2"/>
</g>
<!-- ciclo_profesores -->
<g id="node5" class="node">
<title>ciclo_profesores</title>
<g id="a_node5"><a xlink:href="../../tables/ciclo_profesores.html" xlink:title="ciclo_profesores" target="_top">
<polygon fill="#ffffff" stroke="transparent" points="572,-517.7 572,-578.7 695,-578.7 695,-517.7 572,-517.7"/>
<polygon fill="#f5f5f5" stroke="transparent" points="572.5,-555.2 572.5,-578.2 695.5,-578.2 695.5,-555.2 572.5,-555.2"/>
<polygon fill="none" stroke="#000000" points="572.5,-555.2 572.5,-578.2 695.5,-578.2 695.5,-555.2 572.5,-555.2"/>
<text text-anchor="start" x="577.4666" y="-564.3" font-family="Helvetica,sans-Serif" font-weight="bold" font-size="11.00" fill="#000000">ciclo_profesores</text>
<text text-anchor="start" x="661.0219" y="-563.3" font-family="Helvetica,sans-Serif" font-size="11.00" fill="#000000">[table]</text>
<polygon fill="none" stroke="#000000" points="572.5,-536.2 572.5,-555.2 695.5,-555.2 695.5,-536.2 572.5,-536.2"/>
<text text-anchor="start" x="575.5" y="-542.3" font-family="Helvetica,sans-Serif" font-size="11.00" fill="#000000">...</text>
<polygon fill="#ffffff" stroke="transparent" points="572.5,-517.2 572.5,-536.2 619.5,-536.2 619.5,-517.2 572.5,-517.2"/>
<polygon fill="none" stroke="#000000" points="572.5,-517.2 572.5,-536.2 619.5,-536.2 619.5,-517.2 572.5,-517.2"/>
<text text-anchor="start" x="575.5" y="-523.3" font-family="Helvetica,sans-Serif" font-size="11.00" fill="#000000">&lt; 3</text>
<polygon fill="#ffffff" stroke="transparent" points="619.5,-517.2 619.5,-536.2 670.5,-536.2 670.5,-517.2 619.5,-517.2"/>
<polygon fill="none" stroke="#000000" points="619.5,-517.2 619.5,-536.2 670.5,-536.2 670.5,-517.2 619.5,-517.2"/>
<text text-anchor="start" x="635.1105" y="-523.3" font-family="Helvetica,sans-Serif" font-size="11.00" fill="#000000">0 rows</text>
<polygon fill="#ffffff" stroke="transparent" points="670.5,-517.2 670.5,-536.2 695.5,-536.2 695.5,-517.2 670.5,-517.2"/>
<polygon fill="none" stroke="#000000" points="670.5,-517.2 670.5,-536.2 695.5,-536.2 695.5,-517.2 670.5,-517.2"/>
<text text-anchor="start" x="686.3862" y="-523.3" font-family="Helvetica,sans-Serif" font-size="11.00" fill="#000000"> &#160;</text>
</a>
</g>
</g>
<!-- ciclo_profesores&#45;&gt;ciclo_aulas -->
<g id="edge4" class="edge">
<title>ciclo_profesores:w&#45;&gt;ciclo_aulas:e</title>
<path fill="none" stroke="#000000" d="M558.4495,-541.1677C546.471,-533.1993 542.8749,-516.2 523.5,-516.2"/>
<polygon fill="#000000" stroke="#000000" points="564.8104,-542.9931 571.5069,-548.6603 568.6552,-544.0966 572.5,-545.2 572.5,-545.2 572.5,-545.2 568.6552,-544.0966 573.4931,-541.7397 564.8104,-542.9931 564.8104,-542.9931"/>
<ellipse fill="none" stroke="#000000" cx="561.7346" cy="-542.1104" rx="3.2" ry="3.2"/>
</g>
<!-- ciclo_profesores&#45;&gt;curso_ciclos -->
<g id="edge5" class="edge">
<title>ciclo_profesores:w&#45;&gt;curso_ciclos:e</title>
<path fill="none" stroke="#000000" d="M558.3175,-548.0506C549.741,-551.9323 544.5128,-558.6853 531,-561.2 470.2649,-572.5025 451.5423,-577.6683 392,-561.2 342.8162,-547.5966 344.5304,-502.2 293.5,-502.2"/>
<polygon fill="#000000" stroke="#000000" points="564.6569,-546.7765 573.2094,-548.7294 568.5784,-545.9882 572.5,-545.2 572.5,-545.2 572.5,-545.2 568.5784,-545.9882 571.7906,-541.6706 564.6569,-546.7765 564.6569,-546.7765"/>
<ellipse fill="none" stroke="#000000" cx="561.5196" cy="-547.407" rx="3.2" ry="3.2"/>
</g>
<!-- direcciones -->
<g id="node6" class="node">
<title>direcciones</title>
<g id="a_node6"><a xlink:href="../../tables/direcciones.html" xlink:title="direcciones" target="_top">
<polygon fill="#ffffff" stroke="transparent" points="400,-231.7 400,-380.7 523,-380.7 523,-231.7 400,-231.7"/>
<polygon fill="#f5f5f5" stroke="transparent" points="400.5,-357.2 400.5,-380.2 523.5,-380.2 523.5,-357.2 400.5,-357.2"/>
<polygon fill="none" stroke="#000000" points="400.5,-357.2 400.5,-380.2 523.5,-380.2 523.5,-357.2 400.5,-357.2"/>
<text text-anchor="start" x="405.5" y="-366.3" font-family="Helvetica,sans-Serif" font-weight="bold" font-size="11.00" fill="#000000">direcciones</text>
<text text-anchor="start" x="488.5437" y="-365.3" font-family="Helvetica,sans-Serif" font-size="11.00" fill="#000000">[table]</text>
<polygon fill="none" stroke="#000000" points="400.5,-335.2 400.5,-357.2 523.5,-357.2 523.5,-335.2 400.5,-335.2"/>
<image xlink:href="../../images/primaryKeys.png" width="11px" height="12px" preserveAspectRatio="xMinYMin meet" x="405.5" y="-352.2"/>
<text text-anchor="start" x="420.5" y="-342.3" font-family="Helvetica,sans-Serif" font-size="11.00" fill="#000000">direccion_id</text>
<polygon fill="none" stroke="#000000" points="400.5,-313.2 400.5,-335.2 523.5,-335.2 523.5,-313.2 400.5,-313.2"/>
<image xlink:href="../../images/foreignKeys.png" width="11px" height="12px" preserveAspectRatio="xMinYMin meet" x="405.5" y="-330.2"/>
<text text-anchor="start" x="420.5" y="-320.3" font-family="Helvetica,sans-Serif" font-size="11.00" fill="#000000">persona_id</text>
<polygon fill="none" stroke="#000000" points="400.5,-291.2 400.5,-313.2 523.5,-313.2 523.5,-291.2 400.5,-291.2"/>
<image xlink:href="../../images/foreignKeys.png" width="11px" height="12px" preserveAspectRatio="xMinYMin meet" x="405.5" y="-308.2"/>
<text text-anchor="start" x="420.5" y="-298.3" font-family="Helvetica,sans-Serif" font-size="11.00" fill="#000000">ciudad_id</text>
<polygon fill="none" stroke="#000000" points="400.5,-269.2 400.5,-291.2 523.5,-291.2 523.5,-269.2 400.5,-269.2"/>
<image xlink:href="../../images/foreignKeys.png" width="11px" height="12px" preserveAspectRatio="xMinYMin meet" x="405.5" y="-286.2"/>
<text text-anchor="start" x="420.5" y="-276.3" font-family="Helvetica,sans-Serif" font-size="11.00" fill="#000000">sede_id</text>
<polygon fill="none" stroke="#000000" points="400.5,-250.2 400.5,-269.2 523.5,-269.2 523.5,-250.2 400.5,-250.2"/>
<text text-anchor="start" x="403.5" y="-256.3" font-family="Helvetica,sans-Serif" font-size="11.00" fill="#000000">...</text>
<polygon fill="#ffffff" stroke="transparent" points="400.5,-231.2 400.5,-250.2 447.5,-250.2 447.5,-231.2 400.5,-231.2"/>
<polygon fill="none" stroke="#000000" points="400.5,-231.2 400.5,-250.2 447.5,-250.2 447.5,-231.2 400.5,-231.2"/>
<text text-anchor="start" x="403.5" y="-237.3" font-family="Helvetica,sans-Serif" font-size="11.00" fill="#000000">&lt; 3</text>
<polygon fill="#ffffff" stroke="transparent" points="447.5,-231.2 447.5,-250.2 498.5,-250.2 498.5,-231.2 447.5,-231.2"/>
<polygon fill="none" stroke="#000000" points="447.5,-231.2 447.5,-250.2 498.5,-250.2 498.5,-231.2 447.5,-231.2"/>
<text text-anchor="start" x="463.1105" y="-237.3" font-family="Helvetica,sans-Serif" font-size="11.00" fill="#000000">0 rows</text>
<polygon fill="#ffffff" stroke="transparent" points="498.5,-231.2 498.5,-250.2 523.5,-250.2 523.5,-231.2 498.5,-231.2"/>
<polygon fill="none" stroke="#000000" points="498.5,-231.2 498.5,-250.2 523.5,-250.2 523.5,-231.2 498.5,-231.2"/>
<text text-anchor="start" x="514.3862" y="-237.3" font-family="Helvetica,sans-Serif" font-size="11.00" fill="#000000"> &#160;</text>
</a>
</g>
</g>
<!-- direcciones&#45;&gt;sedes -->
<g id="edge9" class="edge">
<title>direcciones:w&#45;&gt;sedes:e</title>
<path fill="none" stroke="#000000" d="M386.3659,-276.156C360.9766,-257.4476 393.3493,-180.2 349.5,-180.2"/>
<polygon fill="#000000" stroke="#000000" points="392.8086,-277.9993 399.5097,-283.6611 396.6543,-279.0997 400.5,-280.2 400.5,-280.2 400.5,-280.2 396.6543,-279.0997 401.4903,-276.7389 392.8086,-277.9993 392.8086,-277.9993"/>
<ellipse fill="none" stroke="#000000" cx="389.7321" cy="-277.1191" rx="3.2" ry="3.2"/>
</g>
<!-- ciudades -->
<g id="node7" class="node">
<title>ciudades</title>
<g id="a_node7"><a xlink:href="../../tables/ciudades.html" xlink:title="ciudades" target="_top">
<polygon fill="#ffffff" stroke="transparent" points="198,-319.7 198,-380.7 285,-380.7 285,-319.7 198,-319.7"/>
<polygon fill="#f5f5f5" stroke="transparent" points="198.5,-357.2 198.5,-380.2 285.5,-380.2 285.5,-357.2 198.5,-357.2"/>
<polygon fill="none" stroke="#000000" points="198.5,-357.2 198.5,-380.2 285.5,-380.2 285.5,-357.2 198.5,-357.2"/>
<text text-anchor="start" x="203.4923" y="-366.3" font-family="Helvetica,sans-Serif" font-weight="bold" font-size="11.00" fill="#000000">ciudades</text>
<text text-anchor="start" x="251.0219" y="-365.3" font-family="Helvetica,sans-Serif" font-size="11.00" fill="#000000">[table]</text>
<polygon fill="none" stroke="#000000" points="198.5,-338.2 198.5,-357.2 285.5,-357.2 285.5,-338.2 198.5,-338.2"/>
<text text-anchor="start" x="201.5" y="-344.3" font-family="Helvetica,sans-Serif" font-size="11.00" fill="#000000">...</text>
<polygon fill="#ffffff" stroke="transparent" points="198.5,-319.2 198.5,-338.2 222.5,-338.2 222.5,-319.2 198.5,-319.2"/>
<polygon fill="none" stroke="#000000" points="198.5,-319.2 198.5,-338.2 222.5,-338.2 222.5,-319.2 198.5,-319.2"/>
<text text-anchor="start" x="201.5" y="-325.3" font-family="Helvetica,sans-Serif" font-size="11.00" fill="#000000">&lt; 1</text>
<polygon fill="#ffffff" stroke="transparent" points="222.5,-319.2 222.5,-338.2 262.5,-338.2 262.5,-319.2 222.5,-319.2"/>
<polygon fill="none" stroke="#000000" points="222.5,-319.2 222.5,-338.2 262.5,-338.2 262.5,-319.2 222.5,-319.2"/>
<text text-anchor="start" x="227.1105" y="-325.3" font-family="Helvetica,sans-Serif" font-size="11.00" fill="#000000">0 rows</text>
<polygon fill="#ffffff" stroke="transparent" points="262.5,-319.2 262.5,-338.2 285.5,-338.2 285.5,-319.2 262.5,-319.2"/>
<polygon fill="none" stroke="#000000" points="262.5,-319.2 262.5,-338.2 285.5,-338.2 285.5,-319.2 262.5,-319.2"/>
<text text-anchor="start" x="266.9053" y="-325.3" font-family="Helvetica,sans-Serif" font-size="11.00" fill="#000000">1 &gt;</text>
</a>
</g>
</g>
<!-- direcciones&#45;&gt;ciudades -->
<g id="edge7" class="edge">
<title>direcciones:w&#45;&gt;ciudades:e</title>
<path fill="none" stroke="#000000" d="M386.0194,-303.3576C344.1593,-310.4011 335.1322,-347.2 285.5,-347.2"/>
<polygon fill="#000000" stroke="#000000" points="392.5254,-302.8375 400.7869,-305.7886 396.5127,-302.5188 400.5,-302.2 400.5,-302.2 400.5,-302.2 396.5127,-302.5188 400.2131,-298.6114 392.5254,-302.8375 392.5254,-302.8375"/>
<ellipse fill="none" stroke="#000000" cx="389.3356" cy="-303.0926" rx="3.2" ry="3.2"/>
</g>
<!-- personas -->
<g id="node8" class="node">
<title>personas</title>
<g id="a_node8"><a xlink:href="../../tables/personas.html" xlink:title="personas" target="_top">
<polygon fill="#ffffff" stroke="transparent" points="197.5,-237.7 197.5,-298.7 285.5,-298.7 285.5,-237.7 197.5,-237.7"/>
<polygon fill="#f5f5f5" stroke="transparent" points="197.5,-275.2 197.5,-298.2 285.5,-298.2 285.5,-275.2 197.5,-275.2"/>
<polygon fill="none" stroke="#000000" points="197.5,-275.2 197.5,-298.2 285.5,-298.2 285.5,-275.2 197.5,-275.2"/>
<text text-anchor="start" x="202.3818" y="-284.3" font-family="Helvetica,sans-Serif" font-weight="bold" font-size="11.00" fill="#000000">personas</text>
<text text-anchor="start" x="251.0219" y="-283.3" font-family="Helvetica,sans-Serif" font-size="11.00" fill="#000000">[table]</text>
<polygon fill="none" stroke="#000000" points="197.5,-256.2 197.5,-275.2 285.5,-275.2 285.5,-256.2 197.5,-256.2"/>
<text text-anchor="start" x="200.5" y="-262.3" font-family="Helvetica,sans-Serif" font-size="11.00" fill="#000000">...</text>
<polygon fill="#ffffff" stroke="transparent" points="197.5,-237.2 197.5,-256.2 217.5,-256.2 217.5,-237.2 197.5,-237.2"/>
<polygon fill="none" stroke="#000000" points="197.5,-237.2 197.5,-256.2 217.5,-256.2 217.5,-237.2 197.5,-237.2"/>
<text text-anchor="start" x="200.5" y="-243.3" font-family="Helvetica,sans-Serif" font-size="11.00" fill="#000000"> &#160;</text>
<polygon fill="#ffffff" stroke="transparent" points="217.5,-237.2 217.5,-256.2 259.5,-256.2 259.5,-237.2 217.5,-237.2"/>
<polygon fill="none" stroke="#000000" points="217.5,-237.2 217.5,-256.2 259.5,-256.2 259.5,-237.2 217.5,-237.2"/>
<text text-anchor="start" x="224.1105" y="-243.3" font-family="Helvetica,sans-Serif" font-size="11.00" fill="#000000">0 rows</text>
<polygon fill="#ffffff" stroke="transparent" points="259.5,-237.2 259.5,-256.2 285.5,-256.2 285.5,-237.2 259.5,-237.2"/>
<polygon fill="none" stroke="#000000" points="259.5,-237.2 259.5,-256.2 285.5,-256.2 285.5,-237.2 259.5,-237.2"/>
<text text-anchor="start" x="266.9053" y="-243.3" font-family="Helvetica,sans-Serif" font-size="11.00" fill="#000000">7 &gt;</text>
</a>
</g>
</g>
<!-- direcciones&#45;&gt;personas -->
<g id="edge8" class="edge">
<title>direcciones:w&#45;&gt;personas:e</title>
<path fill="none" stroke="#000000" d="M386.4133,-320.8589C355.7428,-308.3778 310.0713,-265.2 285.5,-265.2"/>
<polygon fill="#000000" stroke="#000000" points="392.716,-322.3537 399.6692,-327.7028 396.608,-323.2769 400.5,-324.2 400.5,-324.2 400.5,-324.2 396.608,-323.2769 401.3308,-320.6972 392.716,-322.3537 392.716,-322.3537"/>
<ellipse fill="none" stroke="#000000" cx="389.6023" cy="-321.6152" rx="3.2" ry="3.2"/>
</g>
<!-- telefonos -->
<g id="node9" class="node">
<title>telefonos</title>
<g id="a_node9"><a xlink:href="../../tables/telefonos.html" xlink:title="telefonos" target="_top">
<polygon fill="#ffffff" stroke="transparent" points="400,-83.7 400,-210.7 523,-210.7 523,-83.7 400,-83.7"/>
<polygon fill="#f5f5f5" stroke="transparent" points="400.5,-187.2 400.5,-210.2 523.5,-210.2 523.5,-187.2 400.5,-187.2"/>
<polygon fill="none" stroke="#000000" points="400.5,-187.2 400.5,-210.2 523.5,-210.2 523.5,-187.2 400.5,-187.2"/>
<text text-anchor="start" x="405.5" y="-196.3" font-family="Helvetica,sans-Serif" font-weight="bold" font-size="11.00" fill="#000000">telefonos</text>
<text text-anchor="start" x="488.5437" y="-195.3" font-family="Helvetica,sans-Serif" font-size="11.00" fill="#000000">[table]</text>
<polygon fill="none" stroke="#000000" points="400.5,-165.2 400.5,-187.2 523.5,-187.2 523.5,-165.2 400.5,-165.2"/>
<image xlink:href="../../images/primaryKeys.png" width="11px" height="12px" preserveAspectRatio="xMinYMin meet" x="405.5" y="-182.2"/>
<text text-anchor="start" x="420.5" y="-172.3" font-family="Helvetica,sans-Serif" font-size="11.00" fill="#000000">telefono_id</text>
<polygon fill="none" stroke="#000000" points="400.5,-143.2 400.5,-165.2 523.5,-165.2 523.5,-143.2 400.5,-143.2"/>
<image xlink:href="../../images/foreignKeys.png" width="11px" height="12px" preserveAspectRatio="xMinYMin meet" x="405.5" y="-160.2"/>
<text text-anchor="start" x="420.5" y="-150.3" font-family="Helvetica,sans-Serif" font-size="11.00" fill="#000000">persona_id</text>
<polygon fill="none" stroke="#000000" points="400.5,-121.2 400.5,-143.2 523.5,-143.2 523.5,-121.2 400.5,-121.2"/>
<image xlink:href="../../images/foreignKeys.png" width="11px" height="12px" preserveAspectRatio="xMinYMin meet" x="405.5" y="-138.2"/>
<text text-anchor="start" x="420.5" y="-128.3" font-family="Helvetica,sans-Serif" font-size="11.00" fill="#000000">sede_id</text>
<polygon fill="none" stroke="#000000" points="400.5,-102.2 400.5,-121.2 523.5,-121.2 523.5,-102.2 400.5,-102.2"/>
<text text-anchor="start" x="403.5" y="-108.3" font-family="Helvetica,sans-Serif" font-size="11.00" fill="#000000">...</text>
<polygon fill="#ffffff" stroke="transparent" points="400.5,-83.2 400.5,-102.2 447.5,-102.2 447.5,-83.2 400.5,-83.2"/>
<polygon fill="none" stroke="#000000" points="400.5,-83.2 400.5,-102.2 447.5,-102.2 447.5,-83.2 400.5,-83.2"/>
<text text-anchor="start" x="403.5" y="-89.3" font-family="Helvetica,sans-Serif" font-size="11.00" fill="#000000">&lt; 2</text>
<polygon fill="#ffffff" stroke="transparent" points="447.5,-83.2 447.5,-102.2 498.5,-102.2 498.5,-83.2 447.5,-83.2"/>
<polygon fill="none" stroke="#000000" points="447.5,-83.2 447.5,-102.2 498.5,-102.2 498.5,-83.2 447.5,-83.2"/>
<text text-anchor="start" x="463.1105" y="-89.3" font-family="Helvetica,sans-Serif" font-size="11.00" fill="#000000">0 rows</text>
<polygon fill="#ffffff" stroke="transparent" points="498.5,-83.2 498.5,-102.2 523.5,-102.2 523.5,-83.2 498.5,-83.2"/>
<polygon fill="none" stroke="#000000" points="498.5,-83.2 498.5,-102.2 523.5,-102.2 523.5,-83.2 498.5,-83.2"/>
<text text-anchor="start" x="514.3862" y="-89.3" font-family="Helvetica,sans-Serif" font-size="11.00" fill="#000000"> &#160;</text>
</a>
</g>
</g>
<!-- telefonos&#45;&gt;sedes -->
<g id="edge11" class="edge">
<title>telefonos:w&#45;&gt;sedes:e</title>
<path fill="none" stroke="#000000" d="M386.4801,-136.9779C372.1524,-149.1189 374.5475,-180.2 349.5,-180.2"/>
<polygon fill="#000000" stroke="#000000" points="392.9277,-134.7807 401.6613,-135.6076 396.7138,-133.4903 400.5,-132.2 400.5,-132.2 400.5,-132.2 396.7138,-133.4903 399.3387,-128.7924 392.9277,-134.7807 392.9277,-134.7807"/>
<ellipse fill="none" stroke="#000000" cx="389.8987" cy="-135.8129" rx="3.2" ry="3.2"/>
</g>
<!-- telefonos&#45;&gt;personas -->
<g id="edge10" class="edge">
<title>telefonos:w&#45;&gt;personas:e</title>
<path fill="none" stroke="#000000" d="M386.4959,-157.7044C369.3014,-169.0951 381.4945,-205.5828 359,-227.2 332.4848,-252.6811 322.2743,-265.2 285.5,-265.2"/>
<polygon fill="#000000" stroke="#000000" points="392.7393,-156.1421 401.3739,-157.6923 396.6196,-155.171 400.5,-154.2 400.5,-154.2 400.5,-154.2 396.6196,-155.171 399.6261,-150.7077 392.7393,-156.1421 392.7393,-156.1421"/>
<ellipse fill="none" stroke="#000000" cx="389.635" cy="-156.9189" rx="3.2" ry="3.2"/>
</g>
</g>
</svg>
