<?xml version="1.0" encoding="UTF-8" standalone="no"?>
<!DOCTYPE svg PUBLIC "-//W3C//DTD SVG 1.1//EN"
 "http://www.w3.org/Graphics/SVG/1.1/DTD/svg11.dtd">
<!-- Generated by graphviz version 2.40.1 (20161225.0304)
 -->
<!-- Title: oneDegreeRelationshipsDiagram Pages: 1 -->
<svg width="415pt" height="517pt"
 viewBox="0.00 0.00 415.00 517.20" xmlns="http://www.w3.org/2000/svg" xmlns:xlink="http://www.w3.org/1999/xlink">
<g id="graph0" class="graph" transform="scale(1 1) rotate(0) translate(4 513.2)">
<title>oneDegreeRelationshipsDiagram</title>
<polygon fill="#ffffff" stroke="transparent" points="-4,4 -4,-513.2 411,-513.2 411,4 -4,4"/>
<text text-anchor="middle" x="72.4936" y="-7.3" font-family="Helvetica,sans-Serif" font-size="11.00" fill="#000000">Generated by SchemaSpy</text>
<!-- ciclo_aulas -->
<g id="node1" class="node">
<title>ciclo_aulas</title>
<g id="a_node1"><a xlink:href="../../tables/ciclo_aulas.html" xlink:title="ciclo_aulas" target="_top">
<polygon fill="#ffffff" stroke="transparent" points="276,-356.2 276,-505.2 399,-505.2 399,-356.2 276,-356.2"/>
<polygon fill="#f5f5f5" stroke="transparent" points="276.5,-481.7 276.5,-504.7 399.5,-504.7 399.5,-481.7 276.5,-481.7"/>
<polygon fill="none" stroke="#000000" points="276.5,-481.7 276.5,-504.7 399.5,-504.7 399.5,-481.7 276.5,-481.7"/>
<text text-anchor="start" x="281.5" y="-490.8" font-family="Helvetica,sans-Serif" font-weight="bold" font-size="11.00" fill="#000000">ciclo_aulas</text>
<text text-anchor="start" x="364.5437" y="-489.8" font-family="Helvetica,sans-Serif" font-size="11.00" fill="#000000">[table]</text>
<polygon fill="none" stroke="#000000" points="276.5,-459.7 276.5,-481.7 399.5,-481.7 399.5,-459.7 276.5,-459.7"/>
<image xlink:href="../../images/primaryKeys.png" width="11px" height="12px" preserveAspectRatio="xMinYMin meet" x="281.5" y="-476.7"/>
<text text-anchor="start" x="296.5" y="-466.8" font-family="Helvetica,sans-Serif" font-size="11.00" fill="#000000">aula_id</text>
<polygon fill="none" stroke="#000000" points="276.5,-437.7 276.5,-459.7 399.5,-459.7 399.5,-437.7 276.5,-437.7"/>
<image xlink:href="../../images/foreignKeys.png" width="11px" height="12px" preserveAspectRatio="xMinYMin meet" x="281.5" y="-454.7"/>
<text text-anchor="start" x="296.5" y="-444.8" font-family="Helvetica,sans-Serif" font-size="11.00" fill="#000000">sede_id</text>
<polygon fill="none" stroke="#000000" points="276.5,-415.7 276.5,-437.7 399.5,-437.7 399.5,-415.7 276.5,-415.7"/>
<image xlink:href="../../images/foreignKeys.png" width="11px" height="12px" preserveAspectRatio="xMinYMin meet" x="281.5" y="-432.7"/>
<text text-anchor="start" x="296.5" y="-422.8" font-family="Helvetica,sans-Serif" font-size="11.00" fill="#000000">ciclo_id</text>
<polygon fill="none" stroke="#000000" points="276.5,-393.7 276.5,-415.7 399.5,-415.7 399.5,-393.7 276.5,-393.7"/>
<image xlink:href="../../images/foreignKeys.png" width="11px" height="12px" preserveAspectRatio="xMinYMin meet" x="281.5" y="-410.7"/>
<text text-anchor="start" x="296.5" y="-400.8" font-family="Helvetica,sans-Serif" font-size="11.00" fill="#000000">curso_id</text>
<polygon fill="none" stroke="#000000" points="276.5,-374.7 276.5,-393.7 399.5,-393.7 399.5,-374.7 276.5,-374.7"/>
<text text-anchor="start" x="279.5" y="-380.8" font-family="Helvetica,sans-Serif" font-size="11.00" fill="#000000">...</text>
<polygon fill="#ffffff" stroke="transparent" points="276.5,-355.7 276.5,-374.7 318.5,-374.7 318.5,-355.7 276.5,-355.7"/>
<polygon fill="none" stroke="#000000" points="276.5,-355.7 276.5,-374.7 318.5,-374.7 318.5,-355.7 276.5,-355.7"/>
<text text-anchor="start" x="279.5" y="-361.8" font-family="Helvetica,sans-Serif" font-size="11.00" fill="#000000">&lt; 3</text>
<polygon fill="#ffffff" stroke="transparent" points="318.5,-355.7 318.5,-374.7 367.5,-374.7 367.5,-355.7 318.5,-355.7"/>
<polygon fill="none" stroke="#000000" points="318.5,-355.7 318.5,-374.7 367.5,-374.7 367.5,-355.7 318.5,-355.7"/>
<text text-anchor="start" x="332.1105" y="-361.8" font-family="Helvetica,sans-Serif" font-size="11.00" fill="#000000">0 rows</text>
<polygon fill="#ffffff" stroke="transparent" points="367.5,-355.7 367.5,-374.7 399.5,-374.7 399.5,-355.7 367.5,-355.7"/>
<polygon fill="none" stroke="#000000" points="367.5,-355.7 367.5,-374.7 399.5,-374.7 399.5,-355.7 367.5,-355.7"/>
<text text-anchor="start" x="380.9053" y="-361.8" font-family="Helvetica,sans-Serif" font-size="11.00" fill="#000000">1 &gt;</text>
</a>
</g>
</g>
<!-- sedes -->
<g id="node2" class="node">
<title>sedes</title>
<g id="a_node2"><a xlink:href="../../tables/sedes.html" xlink:title="sedes" target="_top">
<polygon fill="#ffffff" stroke="transparent" points="8,-92.7 8,-270.7 227,-270.7 227,-92.7 8,-92.7"/>
<polygon fill="#f5f5f5" stroke="transparent" points="10.5,-245.7 10.5,-268.7 225.5,-268.7 225.5,-245.7 10.5,-245.7"/>
<polygon fill="none" stroke="#000000" points="10.5,-245.7 10.5,-268.7 225.5,-268.7 225.5,-245.7 10.5,-245.7"/>
<text text-anchor="start" x="15.5" y="-254.8" font-family="Helvetica,sans-Serif" font-weight="bold" font-size="11.00" fill="#000000">sedes</text>
<text text-anchor="start" x="190.5437" y="-253.8" font-family="Helvetica,sans-Serif" font-size="11.00" fill="#000000">[table]</text>
<polygon fill="none" stroke="#000000" points="10.5,-223.7 10.5,-245.7 133.5,-245.7 133.5,-223.7 10.5,-223.7"/>
<image xlink:href="../../images/primaryKeys.png" width="11px" height="12px" preserveAspectRatio="xMinYMin meet" x="15.5" y="-240.7"/>
<text text-anchor="start" x="30.5" y="-230.8" font-family="Helvetica,sans-Serif" font-size="11.00" fill="#000000">sede_id</text>
<polygon fill="none" stroke="#000000" points="133.5,-223.7 133.5,-245.7 225.5,-245.7 225.5,-223.7 133.5,-223.7"/>
<text text-anchor="start" x="136.5" y="-231.4" font-family="Helvetica,sans-Serif" font-size="11.00" fill="#000000">serial[10]</text>
<polygon fill="none" stroke="#000000" points="10.5,-201.7 10.5,-223.7 133.5,-223.7 133.5,-201.7 10.5,-201.7"/>
<text text-anchor="start" x="30.5" y="-208.8" font-family="Helvetica,sans-Serif" font-size="11.00" fill="#000000">nombre</text>
<polygon fill="none" stroke="#000000" points="133.5,-201.7 133.5,-223.7 225.5,-223.7 225.5,-201.7 133.5,-201.7"/>
<text text-anchor="start" x="136.5" y="-209.4" font-family="Helvetica,sans-Serif" font-size="11.00" fill="#000000">varchar[255]</text>
<polygon fill="none" stroke="#000000" points="10.5,-179.7 10.5,-201.7 133.5,-201.7 133.5,-179.7 10.5,-179.7"/>
<text text-anchor="start" x="30.5" y="-186.8" font-family="Helvetica,sans-Serif" font-size="11.00" fill="#000000">usu_insercion</text>
<polygon fill="none" stroke="#000000" points="133.5,-179.7 133.5,-201.7 225.5,-201.7 225.5,-179.7 133.5,-179.7"/>
<text text-anchor="start" x="136.5" y="-187.4" font-family="Helvetica,sans-Serif" font-size="11.00" fill="#000000">varchar[20]</text>
<polygon fill="none" stroke="#000000" points="10.5,-157.7 10.5,-179.7 133.5,-179.7 133.5,-157.7 10.5,-157.7"/>
<text text-anchor="start" x="30.5" y="-164.8" font-family="Helvetica,sans-Serif" font-size="11.00" fill="#000000">fec_insercion</text>
<polygon fill="none" stroke="#000000" points="133.5,-157.7 133.5,-179.7 225.5,-179.7 225.5,-157.7 133.5,-157.7"/>
<text text-anchor="start" x="136.1023" y="-165.4" font-family="Helvetica,sans-Serif" font-size="11.00" fill="#000000">timestamptz[35,6]</text>
<polygon fill="none" stroke="#000000" points="10.5,-135.7 10.5,-157.7 133.5,-157.7 133.5,-135.7 10.5,-135.7"/>
<text text-anchor="start" x="30.5" y="-142.8" font-family="Helvetica,sans-Serif" font-size="11.00" fill="#000000">fec_modificacion</text>
<polygon fill="none" stroke="#000000" points="133.5,-135.7 133.5,-157.7 225.5,-157.7 225.5,-135.7 133.5,-135.7"/>
<text text-anchor="start" x="136.1023" y="-143.4" font-family="Helvetica,sans-Serif" font-size="11.00" fill="#000000">timestamptz[35,6]</text>
<polygon fill="none" stroke="#000000" points="10.5,-113.7 10.5,-135.7 133.5,-135.7 133.5,-113.7 10.5,-113.7"/>
<text text-anchor="start" x="30.5" y="-120.8" font-family="Helvetica,sans-Serif" font-size="11.00" fill="#000000">usu_modificacion</text>
<polygon fill="none" stroke="#000000" points="133.5,-113.7 133.5,-135.7 225.5,-135.7 225.5,-113.7 133.5,-113.7"/>
<text text-anchor="start" x="136.5" y="-121.4" font-family="Helvetica,sans-Serif" font-size="11.00" fill="#000000">varchar[20]</text>
<polygon fill="#ffffff" stroke="transparent" points="10.5,-94.7 10.5,-113.7 63.5,-113.7 63.5,-94.7 10.5,-94.7"/>
<polygon fill="none" stroke="#000000" points="10.5,-94.7 10.5,-113.7 63.5,-113.7 63.5,-94.7 10.5,-94.7"/>
<text text-anchor="start" x="13.5" y="-100.8" font-family="Helvetica,sans-Serif" font-size="11.00" fill="#000000">&lt; 0</text>
<polygon fill="#ffffff" stroke="transparent" points="63.5,-94.7 63.5,-113.7 133.5,-113.7 133.5,-94.7 63.5,-94.7"/>
<polygon fill="none" stroke="#000000" points="63.5,-94.7 63.5,-113.7 133.5,-113.7 133.5,-94.7 63.5,-94.7"/>
<text text-anchor="start" x="98.1105" y="-100.8" font-family="Helvetica,sans-Serif" font-size="11.00" fill="#000000">0 rows</text>
<polygon fill="#ffffff" stroke="transparent" points="133.5,-94.7 133.5,-113.7 225.5,-113.7 225.5,-94.7 133.5,-94.7"/>
<polygon fill="none" stroke="#000000" points="133.5,-94.7 133.5,-113.7 225.5,-113.7 225.5,-94.7 133.5,-94.7"/>
<text text-anchor="start" x="206.9053" y="-100.8" font-family="Helvetica,sans-Serif" font-size="11.00" fill="#000000">3 &gt;</text>
<polygon fill="none" stroke="#000000" stroke-width="2" points="9,-93.7 9,-269.7 226,-269.7 226,-93.7 9,-93.7"/>
</a>
</g>
</g>
<!-- ciclo_aulas&#45;&gt;sedes -->
<g id="edge1" class="edge">
<title>ciclo_aulas:w&#45;&gt;sedes:e</title>
<path fill="none" stroke="#000000" d="M262.1301,-446.7181C194.3226,-425.1444 317.7367,-234.7 225.5,-234.7"/>
<polygon fill="#000000" stroke="#000000" points="268.575,-447.607 276.0081,-452.2662 272.5375,-448.1535 276.5,-448.7 276.5,-448.7 276.5,-448.7 272.5375,-448.1535 276.9919,-445.1338 268.575,-447.607 268.575,-447.607"/>
<ellipse fill="none" stroke="#000000" cx="265.405" cy="-447.1697" rx="3.2" ry="3.2"/>
</g>
<!-- direcciones -->
<g id="node3" class="node">
<title>direcciones</title>
<g id="a_node3"><a xlink:href="../../tables/direcciones.html" xlink:title="direcciones" target="_top">
<polygon fill="#ffffff" stroke="transparent" points="276,-186.2 276,-335.2 399,-335.2 399,-186.2 276,-186.2"/>
<polygon fill="#f5f5f5" stroke="transparent" points="276.5,-311.7 276.5,-334.7 399.5,-334.7 399.5,-311.7 276.5,-311.7"/>
<polygon fill="none" stroke="#000000" points="276.5,-311.7 276.5,-334.7 399.5,-334.7 399.5,-311.7 276.5,-311.7"/>
<text text-anchor="start" x="281.5" y="-320.8" font-family="Helvetica,sans-Serif" font-weight="bold" font-size="11.00" fill="#000000">direcciones</text>
<text text-anchor="start" x="364.5437" y="-319.8" font-family="Helvetica,sans-Serif" font-size="11.00" fill="#000000">[table]</text>
<polygon fill="none" stroke="#000000" points="276.5,-289.7 276.5,-311.7 399.5,-311.7 399.5,-289.7 276.5,-289.7"/>
<image xlink:href="../../images/primaryKeys.png" width="11px" height="12px" preserveAspectRatio="xMinYMin meet" x="281.5" y="-306.7"/>
<text text-anchor="start" x="296.5" y="-296.8" font-family="Helvetica,sans-Serif" font-size="11.00" fill="#000000">direccion_id</text>
<polygon fill="none" stroke="#000000" points="276.5,-267.7 276.5,-289.7 399.5,-289.7 399.5,-267.7 276.5,-267.7"/>
<image xlink:href="../../images/foreignKeys.png" width="11px" height="12px" preserveAspectRatio="xMinYMin meet" x="281.5" y="-284.7"/>
<text text-anchor="start" x="296.5" y="-274.8" font-family="Helvetica,sans-Serif" font-size="11.00" fill="#000000">persona_id</text>
<polygon fill="none" stroke="#000000" points="276.5,-245.7 276.5,-267.7 399.5,-267.7 399.5,-245.7 276.5,-245.7"/>
<image xlink:href="../../images/foreignKeys.png" width="11px" height="12px" preserveAspectRatio="xMinYMin meet" x="281.5" y="-262.7"/>
<text text-anchor="start" x="296.5" y="-252.8" font-family="Helvetica,sans-Serif" font-size="11.00" fill="#000000">ciudad_id</text>
<polygon fill="none" stroke="#000000" points="276.5,-223.7 276.5,-245.7 399.5,-245.7 399.5,-223.7 276.5,-223.7"/>
<image xlink:href="../../images/foreignKeys.png" width="11px" height="12px" preserveAspectRatio="xMinYMin meet" x="281.5" y="-240.7"/>
<text text-anchor="start" x="296.5" y="-230.8" font-family="Helvetica,sans-Serif" font-size="11.00" fill="#000000">sede_id</text>
<polygon fill="none" stroke="#000000" points="276.5,-204.7 276.5,-223.7 399.5,-223.7 399.5,-204.7 276.5,-204.7"/>
<text text-anchor="start" x="279.5" y="-210.8" font-family="Helvetica,sans-Serif" font-size="11.00" fill="#000000">...</text>
<polygon fill="#ffffff" stroke="transparent" points="276.5,-185.7 276.5,-204.7 323.5,-204.7 323.5,-185.7 276.5,-185.7"/>
<polygon fill="none" stroke="#000000" points="276.5,-185.7 276.5,-204.7 323.5,-204.7 323.5,-185.7 276.5,-185.7"/>
<text text-anchor="start" x="279.5" y="-191.8" font-family="Helvetica,sans-Serif" font-size="11.00" fill="#000000">&lt; 3</text>
<polygon fill="#ffffff" stroke="transparent" points="323.5,-185.7 323.5,-204.7 374.5,-204.7 374.5,-185.7 323.5,-185.7"/>
<polygon fill="none" stroke="#000000" points="323.5,-185.7 323.5,-204.7 374.5,-204.7 374.5,-185.7 323.5,-185.7"/>
<text text-anchor="start" x="339.1105" y="-191.8" font-family="Helvetica,sans-Serif" font-size="11.00" fill="#000000">0 rows</text>
<polygon fill="#ffffff" stroke="transparent" points="374.5,-185.7 374.5,-204.7 399.5,-204.7 399.5,-185.7 374.5,-185.7"/>
<polygon fill="none" stroke="#000000" points="374.5,-185.7 374.5,-204.7 399.5,-204.7 399.5,-185.7 374.5,-185.7"/>
<text text-anchor="start" x="390.3862" y="-191.8" font-family="Helvetica,sans-Serif" font-size="11.00" fill="#000000"> &#160;</text>
</a>
</g>
</g>
<!-- direcciones&#45;&gt;sedes -->
<g id="edge2" class="edge">
<title>direcciones:w&#45;&gt;sedes:e</title>
<path fill="none" stroke="#000000" d="M261.776,-234.7C249.7815,-234.7 242.3229,-234.7 225.5,-234.7"/>
<polygon fill="#000000" stroke="#000000" points="268.5,-234.7001 276.5,-238.3 272.5,-234.7 276.5,-234.7 276.5,-234.7 276.5,-234.7 272.5,-234.7 276.5,-231.1 268.5,-234.7001 268.5,-234.7001"/>
<ellipse fill="none" stroke="#000000" cx="265.3" cy="-234.7001" rx="3.2" ry="3.2"/>
</g>
<!-- telefonos -->
<g id="node4" class="node">
<title>telefonos</title>
<g id="a_node4"><a xlink:href="../../tables/telefonos.html" xlink:title="telefonos" target="_top">
<polygon fill="#ffffff" stroke="transparent" points="276,-38.2 276,-165.2 399,-165.2 399,-38.2 276,-38.2"/>
<polygon fill="#f5f5f5" stroke="transparent" points="276.5,-141.7 276.5,-164.7 399.5,-164.7 399.5,-141.7 276.5,-141.7"/>
<polygon fill="none" stroke="#000000" points="276.5,-141.7 276.5,-164.7 399.5,-164.7 399.5,-141.7 276.5,-141.7"/>
<text text-anchor="start" x="281.5" y="-150.8" font-family="Helvetica,sans-Serif" font-weight="bold" font-size="11.00" fill="#000000">telefonos</text>
<text text-anchor="start" x="364.5437" y="-149.8" font-family="Helvetica,sans-Serif" font-size="11.00" fill="#000000">[table]</text>
<polygon fill="none" stroke="#000000" points="276.5,-119.7 276.5,-141.7 399.5,-141.7 399.5,-119.7 276.5,-119.7"/>
<image xlink:href="../../images/primaryKeys.png" width="11px" height="12px" preserveAspectRatio="xMinYMin meet" x="281.5" y="-136.7"/>
<text text-anchor="start" x="296.5" y="-126.8" font-family="Helvetica,sans-Serif" font-size="11.00" fill="#000000">telefono_id</text>
<polygon fill="none" stroke="#000000" points="276.5,-97.7 276.5,-119.7 399.5,-119.7 399.5,-97.7 276.5,-97.7"/>
<image xlink:href="../../images/foreignKeys.png" width="11px" height="12px" preserveAspectRatio="xMinYMin meet" x="281.5" y="-114.7"/>
<text text-anchor="start" x="296.5" y="-104.8" font-family="Helvetica,sans-Serif" font-size="11.00" fill="#000000">persona_id</text>
<polygon fill="none" stroke="#000000" points="276.5,-75.7 276.5,-97.7 399.5,-97.7 399.5,-75.7 276.5,-75.7"/>
<image xlink:href="../../images/foreignKeys.png" width="11px" height="12px" preserveAspectRatio="xMinYMin meet" x="281.5" y="-92.7"/>
<text text-anchor="start" x="296.5" y="-82.8" font-family="Helvetica,sans-Serif" font-size="11.00" fill="#000000">sede_id</text>
<polygon fill="none" stroke="#000000" points="276.5,-56.7 276.5,-75.7 399.5,-75.7 399.5,-56.7 276.5,-56.7"/>
<text text-anchor="start" x="279.5" y="-62.8" font-family="Helvetica,sans-Serif" font-size="11.00" fill="#000000">...</text>
<polygon fill="#ffffff" stroke="transparent" points="276.5,-37.7 276.5,-56.7 323.5,-56.7 323.5,-37.7 276.5,-37.7"/>
<polygon fill="none" stroke="#000000" points="276.5,-37.7 276.5,-56.7 323.5,-56.7 323.5,-37.7 276.5,-37.7"/>
<text text-anchor="start" x="279.5" y="-43.8" font-family="Helvetica,sans-Serif" font-size="11.00" fill="#000000">&lt; 2</text>
<polygon fill="#ffffff" stroke="transparent" points="323.5,-37.7 323.5,-56.7 374.5,-56.7 374.5,-37.7 323.5,-37.7"/>
<polygon fill="none" stroke="#000000" points="323.5,-37.7 323.5,-56.7 374.5,-56.7 374.5,-37.7 323.5,-37.7"/>
<text text-anchor="start" x="339.1105" y="-43.8" font-family="Helvetica,sans-Serif" font-size="11.00" fill="#000000">0 rows</text>
<polygon fill="#ffffff" stroke="transparent" points="374.5,-37.7 374.5,-56.7 399.5,-56.7 399.5,-37.7 374.5,-37.7"/>
<polygon fill="none" stroke="#000000" points="374.5,-37.7 374.5,-56.7 399.5,-56.7 399.5,-37.7 374.5,-37.7"/>
<text text-anchor="start" x="390.3862" y="-43.8" font-family="Helvetica,sans-Serif" font-size="11.00" fill="#000000"> &#160;</text>
</a>
</g>
</g>
<!-- telefonos&#45;&gt;sedes -->
<g id="edge3" class="edge">
<title>telefonos:w&#45;&gt;sedes:e</title>
<path fill="none" stroke="#000000" d="M262.1212,-89.6564C220.6199,-110.5155 289.2306,-234.7 225.5,-234.7"/>
<polygon fill="#000000" stroke="#000000" points="268.6639,-88.3112 277.225,-90.2262 272.582,-87.5056 276.5,-86.7 276.5,-86.7 276.5,-86.7 272.582,-87.5056 275.775,-83.1738 268.6639,-88.3112 268.6639,-88.3112"/>
<ellipse fill="none" stroke="#000000" cx="265.5295" cy="-88.9557" rx="3.2" ry="3.2"/>
</g>
</g>
</svg>
