<?xml version="1.0" encoding="UTF-8" standalone="no"?>
<!DOCTYPE svg PUBLIC "-//W3C//DTD SVG 1.1//EN"
 "http://www.w3.org/Graphics/SVG/1.1/DTD/svg11.dtd">
<!-- Generated by graphviz version 2.40.1 (20161225.0304)
 -->
<!-- Title: twoDegreesRelationshipsDiagram Pages: 1 -->
<svg width="415pt" height="440pt"
 viewBox="0.00 0.00 415.00 439.70" xmlns="http://www.w3.org/2000/svg" xmlns:xlink="http://www.w3.org/1999/xlink">
<g id="graph0" class="graph" transform="scale(1 1) rotate(0) translate(4 435.7)">
<title>twoDegreesRelationshipsDiagram</title>
<polygon fill="#ffffff" stroke="transparent" points="-4,4 -4,-435.7 411,-435.7 411,4 -4,4"/>
<text text-anchor="middle" x="72.4936" y="-7.3" font-family="Helvetica,sans-Serif" font-size="11.00" fill="#000000">Generated by SchemaSpy</text>
<!-- direcciones -->
<g id="node1" class="node">
<title>direcciones</title>
<g id="a_node1"><a xlink:href="../../tables/direcciones.html" xlink:title="direcciones" target="_top">
<polygon fill="#ffffff" stroke="transparent" points="276,-278.7 276,-427.7 399,-427.7 399,-278.7 276,-278.7"/>
<polygon fill="#f5f5f5" stroke="transparent" points="276.5,-404.2 276.5,-427.2 399.5,-427.2 399.5,-404.2 276.5,-404.2"/>
<polygon fill="none" stroke="#000000" points="276.5,-404.2 276.5,-427.2 399.5,-427.2 399.5,-404.2 276.5,-404.2"/>
<text text-anchor="start" x="281.5" y="-413.3" font-family="Helvetica,sans-Serif" font-weight="bold" font-size="11.00" fill="#000000">direcciones</text>
<text text-anchor="start" x="364.5437" y="-412.3" font-family="Helvetica,sans-Serif" font-size="11.00" fill="#000000">[table]</text>
<polygon fill="none" stroke="#000000" points="276.5,-382.2 276.5,-404.2 399.5,-404.2 399.5,-382.2 276.5,-382.2"/>
<image xlink:href="../../images/primaryKeys.png" width="11px" height="12px" preserveAspectRatio="xMinYMin meet" x="281.5" y="-399.2"/>
<text text-anchor="start" x="296.5" y="-389.3" font-family="Helvetica,sans-Serif" font-size="11.00" fill="#000000">direccion_id</text>
<polygon fill="none" stroke="#000000" points="276.5,-360.2 276.5,-382.2 399.5,-382.2 399.5,-360.2 276.5,-360.2"/>
<image xlink:href="../../images/foreignKeys.png" width="11px" height="12px" preserveAspectRatio="xMinYMin meet" x="281.5" y="-377.2"/>
<text text-anchor="start" x="296.5" y="-367.3" font-family="Helvetica,sans-Serif" font-size="11.00" fill="#000000">persona_id</text>
<polygon fill="none" stroke="#000000" points="276.5,-338.2 276.5,-360.2 399.5,-360.2 399.5,-338.2 276.5,-338.2"/>
<image xlink:href="../../images/foreignKeys.png" width="11px" height="12px" preserveAspectRatio="xMinYMin meet" x="281.5" y="-355.2"/>
<text text-anchor="start" x="296.5" y="-345.3" font-family="Helvetica,sans-Serif" font-size="11.00" fill="#000000">ciudad_id</text>
<polygon fill="none" stroke="#000000" points="276.5,-316.2 276.5,-338.2 399.5,-338.2 399.5,-316.2 276.5,-316.2"/>
<image xlink:href="../../images/foreignKeys.png" width="11px" height="12px" preserveAspectRatio="xMinYMin meet" x="281.5" y="-333.2"/>
<text text-anchor="start" x="296.5" y="-323.3" font-family="Helvetica,sans-Serif" font-size="11.00" fill="#000000">sucursal_id</text>
<polygon fill="none" stroke="#000000" points="276.5,-297.2 276.5,-316.2 399.5,-316.2 399.5,-297.2 276.5,-297.2"/>
<text text-anchor="start" x="279.5" y="-303.3" font-family="Helvetica,sans-Serif" font-size="11.00" fill="#000000">...</text>
<polygon fill="#ffffff" stroke="transparent" points="276.5,-278.2 276.5,-297.2 320.5,-297.2 320.5,-278.2 276.5,-278.2"/>
<polygon fill="none" stroke="#000000" points="276.5,-278.2 276.5,-297.2 320.5,-297.2 320.5,-278.2 276.5,-278.2"/>
<text text-anchor="start" x="279.5" y="-284.3" font-family="Helvetica,sans-Serif" font-size="11.00" fill="#000000">&lt; 3</text>
<polygon fill="#ffffff" stroke="transparent" points="320.5,-278.2 320.5,-297.2 375.5,-297.2 375.5,-278.2 320.5,-278.2"/>
<polygon fill="none" stroke="#000000" points="320.5,-278.2 320.5,-297.2 375.5,-297.2 375.5,-278.2 320.5,-278.2"/>
<text text-anchor="start" x="333.9956" y="-284.3" font-family="Helvetica,sans-Serif" font-size="11.00" fill="#000000">20 rows</text>
<polygon fill="#ffffff" stroke="transparent" points="375.5,-278.2 375.5,-297.2 399.5,-297.2 399.5,-278.2 375.5,-278.2"/>
<polygon fill="none" stroke="#000000" points="375.5,-278.2 375.5,-297.2 399.5,-297.2 399.5,-278.2 375.5,-278.2"/>
<text text-anchor="start" x="390.3862" y="-284.3" font-family="Helvetica,sans-Serif" font-size="11.00" fill="#000000"> &#160;</text>
</a>
</g>
</g>
<!-- ciudades -->
<g id="node2" class="node">
<title>ciudades</title>
<g id="a_node2"><a xlink:href="../../tables/ciudades.html" xlink:title="ciudades" target="_top">
<polygon fill="#ffffff" stroke="transparent" points="74,-321.7 74,-382.7 161,-382.7 161,-321.7 74,-321.7"/>
<polygon fill="#f5f5f5" stroke="transparent" points="74.5,-359.2 74.5,-382.2 161.5,-382.2 161.5,-359.2 74.5,-359.2"/>
<polygon fill="none" stroke="#000000" points="74.5,-359.2 74.5,-382.2 161.5,-382.2 161.5,-359.2 74.5,-359.2"/>
<text text-anchor="start" x="79.4923" y="-368.3" font-family="Helvetica,sans-Serif" font-weight="bold" font-size="11.00" fill="#000000">ciudades</text>
<text text-anchor="start" x="127.0219" y="-367.3" font-family="Helvetica,sans-Serif" font-size="11.00" fill="#000000">[table]</text>
<polygon fill="none" stroke="#000000" points="74.5,-340.2 74.5,-359.2 161.5,-359.2 161.5,-340.2 74.5,-340.2"/>
<text text-anchor="start" x="77.5" y="-346.3" font-family="Helvetica,sans-Serif" font-size="11.00" fill="#000000">...</text>
<polygon fill="#ffffff" stroke="transparent" points="74.5,-321.2 74.5,-340.2 101.5,-340.2 101.5,-321.2 74.5,-321.2"/>
<polygon fill="none" stroke="#000000" points="74.5,-321.2 74.5,-340.2 101.5,-340.2 101.5,-321.2 74.5,-321.2"/>
<text text-anchor="start" x="77.5" y="-327.3" font-family="Helvetica,sans-Serif" font-size="11.00" fill="#000000">&lt; 1</text>
<polygon fill="#ffffff" stroke="transparent" points="101.5,-321.2 101.5,-340.2 136.5,-340.2 136.5,-321.2 101.5,-321.2"/>
<polygon fill="none" stroke="#000000" points="101.5,-321.2 101.5,-340.2 136.5,-340.2 136.5,-321.2 101.5,-321.2"/>
<text text-anchor="start" x="106.6105" y="-327.3" font-family="Helvetica,sans-Serif" font-size="11.00" fill="#000000">1 row</text>
<polygon fill="#ffffff" stroke="transparent" points="136.5,-321.2 136.5,-340.2 161.5,-340.2 161.5,-321.2 136.5,-321.2"/>
<polygon fill="none" stroke="#000000" points="136.5,-321.2 136.5,-340.2 161.5,-340.2 161.5,-321.2 136.5,-321.2"/>
<text text-anchor="start" x="142.9053" y="-327.3" font-family="Helvetica,sans-Serif" font-size="11.00" fill="#000000">1 &gt;</text>
</a>
</g>
</g>
<!-- direcciones&#45;&gt;ciudades -->
<g id="edge1" class="edge">
<title>direcciones:w&#45;&gt;ciudades:e</title>
<path fill="none" stroke="#000000" d="M262.033,-349.2C222.398,-349.2 207.4201,-349.2 161.5,-349.2"/>
<polygon fill="#000000" stroke="#000000" points="268.5,-349.2001 276.5,-352.8 272.5,-349.2 276.5,-349.2 276.5,-349.2 276.5,-349.2 272.5,-349.2 276.5,-345.6 268.5,-349.2001 268.5,-349.2001"/>
<ellipse fill="none" stroke="#000000" cx="265.3" cy="-349.2001" rx="3.2" ry="3.2"/>
</g>
<!-- personas -->
<g id="node3" class="node">
<title>personas</title>
<g id="a_node3"><a xlink:href="../../tables/personas.html" xlink:title="personas" target="_top">
<polygon fill="#ffffff" stroke="transparent" points="73.5,-238.7 73.5,-299.7 161.5,-299.7 161.5,-238.7 73.5,-238.7"/>
<polygon fill="#f5f5f5" stroke="transparent" points="73.5,-276.2 73.5,-299.2 161.5,-299.2 161.5,-276.2 73.5,-276.2"/>
<polygon fill="none" stroke="#000000" points="73.5,-276.2 73.5,-299.2 161.5,-299.2 161.5,-276.2 73.5,-276.2"/>
<text text-anchor="start" x="78.3818" y="-285.3" font-family="Helvetica,sans-Serif" font-weight="bold" font-size="11.00" fill="#000000">personas</text>
<text text-anchor="start" x="127.0219" y="-284.3" font-family="Helvetica,sans-Serif" font-size="11.00" fill="#000000">[table]</text>
<polygon fill="none" stroke="#000000" points="73.5,-257.2 73.5,-276.2 161.5,-276.2 161.5,-257.2 73.5,-257.2"/>
<text text-anchor="start" x="76.5" y="-263.3" font-family="Helvetica,sans-Serif" font-size="11.00" fill="#000000">...</text>
<polygon fill="#ffffff" stroke="transparent" points="73.5,-238.2 73.5,-257.2 90.5,-257.2 90.5,-238.2 73.5,-238.2"/>
<polygon fill="none" stroke="#000000" points="73.5,-238.2 73.5,-257.2 90.5,-257.2 90.5,-238.2 73.5,-238.2"/>
<text text-anchor="start" x="76.5" y="-244.3" font-family="Helvetica,sans-Serif" font-size="11.00" fill="#000000"> &#160;</text>
<polygon fill="#ffffff" stroke="transparent" points="90.5,-238.2 90.5,-257.2 137.5,-257.2 137.5,-238.2 90.5,-238.2"/>
<polygon fill="none" stroke="#000000" points="90.5,-238.2 90.5,-257.2 137.5,-257.2 137.5,-238.2 90.5,-238.2"/>
<text text-anchor="start" x="95.9956" y="-244.3" font-family="Helvetica,sans-Serif" font-size="11.00" fill="#000000">31 rows</text>
<polygon fill="#ffffff" stroke="transparent" points="137.5,-238.2 137.5,-257.2 161.5,-257.2 161.5,-238.2 137.5,-238.2"/>
<polygon fill="none" stroke="#000000" points="137.5,-238.2 137.5,-257.2 161.5,-257.2 161.5,-238.2 137.5,-238.2"/>
<text text-anchor="start" x="142.9053" y="-244.3" font-family="Helvetica,sans-Serif" font-size="11.00" fill="#000000">7 &gt;</text>
</a>
</g>
</g>
<!-- direcciones&#45;&gt;personas -->
<g id="edge2" class="edge">
<title>direcciones:w&#45;&gt;personas:e</title>
<path fill="none" stroke="#000000" d="M262.2366,-367.2793C248.2817,-357.0544 253.9561,-329.1279 235,-311.2 207.1716,-284.881 199.8029,-266.2 161.5,-266.2"/>
<polygon fill="#000000" stroke="#000000" points="268.7861,-369.0796 275.5458,-374.6712 272.6431,-370.1398 276.5,-371.2 276.5,-371.2 276.5,-371.2 272.6431,-370.1398 277.4542,-367.7288 268.7861,-369.0796 268.7861,-369.0796"/>
<ellipse fill="none" stroke="#000000" cx="265.7006" cy="-368.2314" rx="3.2" ry="3.2"/>
</g>
<!-- sucursales -->
<g id="node4" class="node">
<title>sucursales</title>
<g id="a_node4"><a xlink:href="../../tables/sucursales.html" xlink:title="sucursales" target="_top">
<polygon fill="#ffffff" stroke="transparent" points="8,-38.2 8,-216.2 227,-216.2 227,-38.2 8,-38.2"/>
<polygon fill="#f5f5f5" stroke="transparent" points="10.5,-191.2 10.5,-214.2 225.5,-214.2 225.5,-191.2 10.5,-191.2"/>
<polygon fill="none" stroke="#000000" points="10.5,-191.2 10.5,-214.2 225.5,-214.2 225.5,-191.2 10.5,-191.2"/>
<text text-anchor="start" x="15.5" y="-200.3" font-family="Helvetica,sans-Serif" font-weight="bold" font-size="11.00" fill="#000000">sucursales</text>
<text text-anchor="start" x="190.5437" y="-199.3" font-family="Helvetica,sans-Serif" font-size="11.00" fill="#000000">[table]</text>
<polygon fill="none" stroke="#000000" points="10.5,-169.2 10.5,-191.2 133.5,-191.2 133.5,-169.2 10.5,-169.2"/>
<image xlink:href="../../images/primaryKeys.png" width="11px" height="12px" preserveAspectRatio="xMinYMin meet" x="15.5" y="-186.2"/>
<text text-anchor="start" x="30.5" y="-176.3" font-family="Helvetica,sans-Serif" font-size="11.00" fill="#000000">sucursal_id</text>
<polygon fill="none" stroke="#000000" points="133.5,-169.2 133.5,-191.2 225.5,-191.2 225.5,-169.2 133.5,-169.2"/>
<text text-anchor="start" x="136.5" y="-176.9" font-family="Helvetica,sans-Serif" font-size="11.00" fill="#000000">serial[10]</text>
<polygon fill="none" stroke="#000000" points="10.5,-147.2 10.5,-169.2 133.5,-169.2 133.5,-147.2 10.5,-147.2"/>
<text text-anchor="start" x="30.5" y="-154.3" font-family="Helvetica,sans-Serif" font-size="11.00" fill="#000000">nombre</text>
<polygon fill="none" stroke="#000000" points="133.5,-147.2 133.5,-169.2 225.5,-169.2 225.5,-147.2 133.5,-147.2"/>
<text text-anchor="start" x="136.5" y="-154.9" font-family="Helvetica,sans-Serif" font-size="11.00" fill="#000000">varchar[255]</text>
<polygon fill="none" stroke="#000000" points="10.5,-125.2 10.5,-147.2 133.5,-147.2 133.5,-125.2 10.5,-125.2"/>
<text text-anchor="start" x="30.5" y="-132.3" font-family="Helvetica,sans-Serif" font-size="11.00" fill="#000000">usu_insercion</text>
<polygon fill="none" stroke="#000000" points="133.5,-125.2 133.5,-147.2 225.5,-147.2 225.5,-125.2 133.5,-125.2"/>
<text text-anchor="start" x="136.5" y="-132.9" font-family="Helvetica,sans-Serif" font-size="11.00" fill="#000000">varchar[20]</text>
<polygon fill="none" stroke="#000000" points="10.5,-103.2 10.5,-125.2 133.5,-125.2 133.5,-103.2 10.5,-103.2"/>
<text text-anchor="start" x="30.5" y="-110.3" font-family="Helvetica,sans-Serif" font-size="11.00" fill="#000000">fec_insercion</text>
<polygon fill="none" stroke="#000000" points="133.5,-103.2 133.5,-125.2 225.5,-125.2 225.5,-103.2 133.5,-103.2"/>
<text text-anchor="start" x="136.1023" y="-110.9" font-family="Helvetica,sans-Serif" font-size="11.00" fill="#000000">timestamptz[35,6]</text>
<polygon fill="none" stroke="#000000" points="10.5,-81.2 10.5,-103.2 133.5,-103.2 133.5,-81.2 10.5,-81.2"/>
<text text-anchor="start" x="30.5" y="-88.3" font-family="Helvetica,sans-Serif" font-size="11.00" fill="#000000">fec_modificacion</text>
<polygon fill="none" stroke="#000000" points="133.5,-81.2 133.5,-103.2 225.5,-103.2 225.5,-81.2 133.5,-81.2"/>
<text text-anchor="start" x="136.1023" y="-88.9" font-family="Helvetica,sans-Serif" font-size="11.00" fill="#000000">timestamptz[35,6]</text>
<polygon fill="none" stroke="#000000" points="10.5,-59.2 10.5,-81.2 133.5,-81.2 133.5,-59.2 10.5,-59.2"/>
<text text-anchor="start" x="30.5" y="-66.3" font-family="Helvetica,sans-Serif" font-size="11.00" fill="#000000">usu_modificacion</text>
<polygon fill="none" stroke="#000000" points="133.5,-59.2 133.5,-81.2 225.5,-81.2 225.5,-59.2 133.5,-59.2"/>
<text text-anchor="start" x="136.5" y="-66.9" font-family="Helvetica,sans-Serif" font-size="11.00" fill="#000000">varchar[20]</text>
<polygon fill="#ffffff" stroke="transparent" points="10.5,-40.2 10.5,-59.2 63.5,-59.2 63.5,-40.2 10.5,-40.2"/>
<polygon fill="none" stroke="#000000" points="10.5,-40.2 10.5,-59.2 63.5,-59.2 63.5,-40.2 10.5,-40.2"/>
<text text-anchor="start" x="13.5" y="-46.3" font-family="Helvetica,sans-Serif" font-size="11.00" fill="#000000">&lt; 0</text>
<polygon fill="#ffffff" stroke="transparent" points="63.5,-40.2 63.5,-59.2 133.5,-59.2 133.5,-40.2 63.5,-40.2"/>
<polygon fill="none" stroke="#000000" points="63.5,-40.2 63.5,-59.2 133.5,-59.2 133.5,-40.2 63.5,-40.2"/>
<text text-anchor="start" x="98.1105" y="-46.3" font-family="Helvetica,sans-Serif" font-size="11.00" fill="#000000">0 rows</text>
<polygon fill="#ffffff" stroke="transparent" points="133.5,-40.2 133.5,-59.2 225.5,-59.2 225.5,-40.2 133.5,-40.2"/>
<polygon fill="none" stroke="#000000" points="133.5,-40.2 133.5,-59.2 225.5,-59.2 225.5,-40.2 133.5,-40.2"/>
<text text-anchor="start" x="206.9053" y="-46.3" font-family="Helvetica,sans-Serif" font-size="11.00" fill="#000000">2 &gt;</text>
<polygon fill="none" stroke="#000000" stroke-width="2" points="9,-39.2 9,-215.2 226,-215.2 226,-39.2 9,-39.2"/>
</a>
</g>
</g>
<!-- direcciones&#45;&gt;sucursales -->
<g id="edge3" class="edge">
<title>direcciones:w&#45;&gt;sucursales:e</title>
<path fill="none" stroke="#000000" d="M262.2019,-324.2636C220.9077,-303.5454 288.8458,-180.2 225.5,-180.2"/>
<polygon fill="#000000" stroke="#000000" points="268.6635,-325.5906 275.7758,-330.7264 272.5818,-326.3953 276.5,-327.2 276.5,-327.2 276.5,-327.2 272.5818,-326.3953 277.2242,-323.6736 268.6635,-325.5906 268.6635,-325.5906"/>
<ellipse fill="none" stroke="#000000" cx="265.529" cy="-324.9468" rx="3.2" ry="3.2"/>
</g>
<!-- telefonos -->
<g id="node5" class="node">
<title>telefonos</title>
<g id="a_node5"><a xlink:href="../../tables/telefonos.html" xlink:title="telefonos" target="_top">
<polygon fill="#ffffff" stroke="transparent" points="276,-130.7 276,-257.7 399,-257.7 399,-130.7 276,-130.7"/>
<polygon fill="#f5f5f5" stroke="transparent" points="276.5,-234.2 276.5,-257.2 399.5,-257.2 399.5,-234.2 276.5,-234.2"/>
<polygon fill="none" stroke="#000000" points="276.5,-234.2 276.5,-257.2 399.5,-257.2 399.5,-234.2 276.5,-234.2"/>
<text text-anchor="start" x="281.5" y="-243.3" font-family="Helvetica,sans-Serif" font-weight="bold" font-size="11.00" fill="#000000">telefonos</text>
<text text-anchor="start" x="364.5437" y="-242.3" font-family="Helvetica,sans-Serif" font-size="11.00" fill="#000000">[table]</text>
<polygon fill="none" stroke="#000000" points="276.5,-212.2 276.5,-234.2 399.5,-234.2 399.5,-212.2 276.5,-212.2"/>
<image xlink:href="../../images/primaryKeys.png" width="11px" height="12px" preserveAspectRatio="xMinYMin meet" x="281.5" y="-229.2"/>
<text text-anchor="start" x="296.5" y="-219.3" font-family="Helvetica,sans-Serif" font-size="11.00" fill="#000000">telefono_id</text>
<polygon fill="none" stroke="#000000" points="276.5,-190.2 276.5,-212.2 399.5,-212.2 399.5,-190.2 276.5,-190.2"/>
<image xlink:href="../../images/foreignKeys.png" width="11px" height="12px" preserveAspectRatio="xMinYMin meet" x="281.5" y="-207.2"/>
<text text-anchor="start" x="296.5" y="-197.3" font-family="Helvetica,sans-Serif" font-size="11.00" fill="#000000">persona_id</text>
<polygon fill="none" stroke="#000000" points="276.5,-168.2 276.5,-190.2 399.5,-190.2 399.5,-168.2 276.5,-168.2"/>
<image xlink:href="../../images/foreignKeys.png" width="11px" height="12px" preserveAspectRatio="xMinYMin meet" x="281.5" y="-185.2"/>
<text text-anchor="start" x="296.5" y="-175.3" font-family="Helvetica,sans-Serif" font-size="11.00" fill="#000000">sucursal_id</text>
<polygon fill="none" stroke="#000000" points="276.5,-149.2 276.5,-168.2 399.5,-168.2 399.5,-149.2 276.5,-149.2"/>
<text text-anchor="start" x="279.5" y="-155.3" font-family="Helvetica,sans-Serif" font-size="11.00" fill="#000000">...</text>
<polygon fill="#ffffff" stroke="transparent" points="276.5,-130.2 276.5,-149.2 320.5,-149.2 320.5,-130.2 276.5,-130.2"/>
<polygon fill="none" stroke="#000000" points="276.5,-130.2 276.5,-149.2 320.5,-149.2 320.5,-130.2 276.5,-130.2"/>
<text text-anchor="start" x="279.5" y="-136.3" font-family="Helvetica,sans-Serif" font-size="11.00" fill="#000000">&lt; 2</text>
<polygon fill="#ffffff" stroke="transparent" points="320.5,-130.2 320.5,-149.2 375.5,-149.2 375.5,-130.2 320.5,-130.2"/>
<polygon fill="none" stroke="#000000" points="320.5,-130.2 320.5,-149.2 375.5,-149.2 375.5,-130.2 320.5,-130.2"/>
<text text-anchor="start" x="333.9956" y="-136.3" font-family="Helvetica,sans-Serif" font-size="11.00" fill="#000000">21 rows</text>
<polygon fill="#ffffff" stroke="transparent" points="375.5,-130.2 375.5,-149.2 399.5,-149.2 399.5,-130.2 375.5,-130.2"/>
<polygon fill="none" stroke="#000000" points="375.5,-130.2 375.5,-149.2 399.5,-149.2 399.5,-130.2 375.5,-130.2"/>
<text text-anchor="start" x="390.3862" y="-136.3" font-family="Helvetica,sans-Serif" font-size="11.00" fill="#000000"> &#160;</text>
</a>
</g>
</g>
<!-- telefonos&#45;&gt;personas -->
<g id="edge4" class="edge">
<title>telefonos:w&#45;&gt;personas:e</title>
<path fill="none" stroke="#000000" d="M262.226,-204.3564C252.815,-209.3673 248.5467,-219.3759 235,-227.2 202.9769,-245.6954 198.4805,-266.2 161.5,-266.2"/>
<polygon fill="#000000" stroke="#000000" points="268.6887,-202.9273 277.2773,-204.7151 272.5943,-202.0637 276.5,-201.2 276.5,-201.2 276.5,-201.2 272.5943,-202.0637 275.7227,-197.6849 268.6887,-202.9273 268.6887,-202.9273"/>
<ellipse fill="none" stroke="#000000" cx="265.5642" cy="-203.6183" rx="3.2" ry="3.2"/>
</g>
<!-- telefonos&#45;&gt;sucursales -->
<g id="edge5" class="edge">
<title>telefonos:w&#45;&gt;sucursales:e</title>
<path fill="none" stroke="#000000" d="M261.7747,-179.3651C249.7808,-179.6492 242.3262,-180.2 225.5,-180.2"/>
<polygon fill="#000000" stroke="#000000" points="268.5005,-179.2898 276.5404,-182.7998 272.5003,-179.2449 276.5,-179.2 276.5,-179.2 276.5,-179.2 272.5003,-179.2449 276.4596,-175.6002 268.5005,-179.2898 268.5005,-179.2898"/>
<ellipse fill="none" stroke="#000000" cx="265.3007" cy="-179.3257" rx="3.2" ry="3.2"/>
</g>
</g>
</svg>
