<?xml version="1.0" encoding="UTF-8" standalone="no"?>
<!DOCTYPE svg PUBLIC "-//W3C//DTD SVG 1.1//EN"
 "http://www.w3.org/Graphics/SVG/1.1/DTD/svg11.dtd">
<!-- Generated by graphviz version 2.40.1 (20161225.0304)
 -->
<!-- Title: twoDegreesRelationshipsDiagram Pages: 1 -->
<svg width="1014pt" height="854pt"
 viewBox="0.00 0.00 1014.00 854.26" xmlns="http://www.w3.org/2000/svg" xmlns:xlink="http://www.w3.org/1999/xlink">
<g id="graph0" class="graph" transform="scale(1 1) rotate(0) translate(4 850.2568)">
<title>twoDegreesRelationshipsDiagram</title>
<polygon fill="#ffffff" stroke="transparent" points="-4,4 -4,-850.2568 1010,-850.2568 1010,4 -4,4"/>
<text text-anchor="middle" x="72.4936" y="-7.3" font-family="Helvetica,sans-Serif" font-size="11.00" fill="#000000">Generated by SchemaSpy</text>
<!-- casos -->
<g id="node1" class="node">
<title>casos</title>
<g id="a_node1"><a xlink:href="../../tables/casos.html" xlink:title="casos" target="_top">
<polygon fill="#ffffff" stroke="transparent" points="610,-328.8539 610,-389.8539 681,-389.8539 681,-328.8539 610,-328.8539"/>
<polygon fill="#f5f5f5" stroke="transparent" points="610.5,-366.3539 610.5,-389.3539 681.5,-389.3539 681.5,-366.3539 610.5,-366.3539"/>
<polygon fill="none" stroke="#000000" points="610.5,-366.3539 610.5,-389.3539 681.5,-389.3539 681.5,-366.3539 610.5,-366.3539"/>
<text text-anchor="start" x="615.1351" y="-375.4539" font-family="Helvetica,sans-Serif" font-weight="bold" font-size="11.00" fill="#000000">casos</text>
<text text-anchor="start" x="647.0219" y="-374.4539" font-family="Helvetica,sans-Serif" font-size="11.00" fill="#000000">[table]</text>
<polygon fill="none" stroke="#000000" points="610.5,-347.3539 610.5,-366.3539 681.5,-366.3539 681.5,-347.3539 610.5,-347.3539"/>
<text text-anchor="start" x="613.5" y="-353.4539" font-family="Helvetica,sans-Serif" font-size="11.00" fill="#000000">...</text>
<polygon fill="#ffffff" stroke="transparent" points="610.5,-328.3539 610.5,-347.3539 631.5,-347.3539 631.5,-328.3539 610.5,-328.3539"/>
<polygon fill="none" stroke="#000000" points="610.5,-328.3539 610.5,-347.3539 631.5,-347.3539 631.5,-328.3539 610.5,-328.3539"/>
<text text-anchor="start" x="613.2026" y="-334.4539" font-family="Helvetica,sans-Serif" font-size="11.00" fill="#000000">&lt; 3</text>
<polygon fill="#ffffff" stroke="transparent" points="631.5,-328.3539 631.5,-347.3539 669.5,-347.3539 669.5,-328.3539 631.5,-328.3539"/>
<polygon fill="none" stroke="#000000" points="631.5,-328.3539 631.5,-347.3539 669.5,-347.3539 669.5,-328.3539 631.5,-328.3539"/>
<text text-anchor="start" x="634.3053" y="-334.4539" font-family="Helvetica,sans-Serif" font-size="11.00" fill="#000000">0 rows</text>
<polygon fill="#ffffff" stroke="transparent" points="669.5,-328.3539 669.5,-347.3539 681.5,-347.3539 681.5,-328.3539 669.5,-328.3539"/>
<polygon fill="none" stroke="#000000" points="669.5,-328.3539 669.5,-347.3539 681.5,-347.3539 681.5,-328.3539 669.5,-328.3539"/>
<text text-anchor="start" x="672.4431" y="-334.4539" font-family="Helvetica,sans-Serif" font-size="11.00" fill="#000000"> &#160;</text>
</a>
</g>
</g>
<!-- contactos -->
<g id="node2" class="node">
<title>contactos</title>
<g id="a_node2"><a xlink:href="../../tables/contactos.html" xlink:title="contactos" target="_top">
<polygon fill="#ffffff" stroke="transparent" points="317,-526.8539 317,-653.8539 440,-653.8539 440,-526.8539 317,-526.8539"/>
<polygon fill="#f5f5f5" stroke="transparent" points="317.5,-630.3539 317.5,-653.3539 440.5,-653.3539 440.5,-630.3539 317.5,-630.3539"/>
<polygon fill="none" stroke="#000000" points="317.5,-630.3539 317.5,-653.3539 440.5,-653.3539 440.5,-630.3539 317.5,-630.3539"/>
<text text-anchor="start" x="322.5" y="-639.4539" font-family="Helvetica,sans-Serif" font-weight="bold" font-size="11.00" fill="#000000">contactos</text>
<text text-anchor="start" x="405.5437" y="-638.4539" font-family="Helvetica,sans-Serif" font-size="11.00" fill="#000000">[table]</text>
<polygon fill="none" stroke="#000000" points="317.5,-608.3539 317.5,-630.3539 440.5,-630.3539 440.5,-608.3539 317.5,-608.3539"/>
<image xlink:href="../../images/primaryKeys.png" width="11px" height="12px" preserveAspectRatio="xMinYMin meet" x="322.5" y="-625.354"/>
<text text-anchor="start" x="337.5" y="-615.4539" font-family="Helvetica,sans-Serif" font-size="11.00" fill="#000000">contacto_id</text>
<polygon fill="none" stroke="#000000" points="317.5,-586.3539 317.5,-608.3539 440.5,-608.3539 440.5,-586.3539 317.5,-586.3539"/>
<image xlink:href="../../images/foreignKeys.png" width="11px" height="12px" preserveAspectRatio="xMinYMin meet" x="322.5" y="-603.354"/>
<text text-anchor="start" x="337.5" y="-593.4539" font-family="Helvetica,sans-Serif" font-size="11.00" fill="#000000">persona_id</text>
<polygon fill="none" stroke="#000000" points="317.5,-564.3539 317.5,-586.3539 440.5,-586.3539 440.5,-564.3539 317.5,-564.3539"/>
<image xlink:href="../../images/foreignKeys.png" width="11px" height="12px" preserveAspectRatio="xMinYMin meet" x="322.5" y="-581.354"/>
<text text-anchor="start" x="337.5" y="-571.4539" font-family="Helvetica,sans-Serif" font-size="11.00" fill="#000000">organizacion_id</text>
<polygon fill="none" stroke="#000000" points="317.5,-545.3539 317.5,-564.3539 440.5,-564.3539 440.5,-545.3539 317.5,-545.3539"/>
<text text-anchor="start" x="320.5" y="-551.4539" font-family="Helvetica,sans-Serif" font-size="11.00" fill="#000000">...</text>
<polygon fill="#ffffff" stroke="transparent" points="317.5,-526.3539 317.5,-545.3539 359.5,-545.3539 359.5,-526.3539 317.5,-526.3539"/>
<polygon fill="none" stroke="#000000" points="317.5,-526.3539 317.5,-545.3539 359.5,-545.3539 359.5,-526.3539 317.5,-526.3539"/>
<text text-anchor="start" x="320.5" y="-532.4539" font-family="Helvetica,sans-Serif" font-size="11.00" fill="#000000">&lt; 2</text>
<polygon fill="#ffffff" stroke="transparent" points="359.5,-526.3539 359.5,-545.3539 408.5,-545.3539 408.5,-526.3539 359.5,-526.3539"/>
<polygon fill="none" stroke="#000000" points="359.5,-526.3539 359.5,-545.3539 408.5,-545.3539 408.5,-526.3539 359.5,-526.3539"/>
<text text-anchor="start" x="373.1105" y="-532.4539" font-family="Helvetica,sans-Serif" font-size="11.00" fill="#000000">5 rows</text>
<polygon fill="#ffffff" stroke="transparent" points="408.5,-526.3539 408.5,-545.3539 440.5,-545.3539 440.5,-526.3539 408.5,-526.3539"/>
<polygon fill="none" stroke="#000000" points="408.5,-526.3539 408.5,-545.3539 440.5,-545.3539 440.5,-526.3539 408.5,-526.3539"/>
<text text-anchor="start" x="421.9053" y="-532.4539" font-family="Helvetica,sans-Serif" font-size="11.00" fill="#000000">5 &gt;</text>
</a>
</g>
</g>
<!-- casos&#45;&gt;contactos -->
<g id="edge1" class="edge">
<title>casos:w&#45;&gt;contactos:e</title>
<path fill="none" stroke="#000000" d="M595.8015,-356.3571C544.6459,-356.4855 517.3825,-359.0273 481,-401.3539 416.7622,-476.0865 539.0467,-619.3539 440.5,-619.3539"/>
<polygon fill="#000000" stroke="#000000" points="602.5,-356.3557 610.5008,-359.9539 606.5,-356.3548 610.5,-356.3539 610.5,-356.3539 610.5,-356.3539 606.5,-356.3548 610.4992,-352.7539 602.5,-356.3557 602.5,-356.3557"/>
<ellipse fill="none" stroke="#000000" cx="599.3" cy="-356.3564" rx="3.2" ry="3.2"/>
</g>
<!-- leads -->
<g id="node3" class="node">
<title>leads</title>
<g id="a_node3"><a xlink:href="../../tables/leads.html" xlink:title="leads" target="_top">
<polygon fill="#ffffff" stroke="transparent" points="317,-121.8539 317,-314.8539 440,-314.8539 440,-121.8539 317,-121.8539"/>
<polygon fill="#f5f5f5" stroke="transparent" points="317.5,-291.3539 317.5,-314.3539 440.5,-314.3539 440.5,-291.3539 317.5,-291.3539"/>
<polygon fill="none" stroke="#000000" points="317.5,-291.3539 317.5,-314.3539 440.5,-314.3539 440.5,-291.3539 317.5,-291.3539"/>
<text text-anchor="start" x="322.5" y="-300.4539" font-family="Helvetica,sans-Serif" font-weight="bold" font-size="11.00" fill="#000000">leads</text>
<text text-anchor="start" x="405.5437" y="-299.4539" font-family="Helvetica,sans-Serif" font-size="11.00" fill="#000000">[table]</text>
<polygon fill="none" stroke="#000000" points="317.5,-269.3539 317.5,-291.3539 440.5,-291.3539 440.5,-269.3539 317.5,-269.3539"/>
<image xlink:href="../../images/primaryKeys.png" width="11px" height="12px" preserveAspectRatio="xMinYMin meet" x="322.5" y="-286.354"/>
<text text-anchor="start" x="337.5" y="-276.4539" font-family="Helvetica,sans-Serif" font-size="11.00" fill="#000000">lead_id</text>
<polygon fill="none" stroke="#000000" points="317.5,-247.3539 317.5,-269.3539 440.5,-269.3539 440.5,-247.3539 317.5,-247.3539"/>
<image xlink:href="../../images/foreignKeys.png" width="11px" height="12px" preserveAspectRatio="xMinYMin meet" x="322.5" y="-264.354"/>
<text text-anchor="start" x="337.5" y="-254.4539" font-family="Helvetica,sans-Serif" font-size="11.00" fill="#000000">usu_asignado_id</text>
<polygon fill="none" stroke="#000000" points="317.5,-225.3539 317.5,-247.3539 440.5,-247.3539 440.5,-225.3539 317.5,-225.3539"/>
<image xlink:href="../../images/foreignKeys.png" width="11px" height="12px" preserveAspectRatio="xMinYMin meet" x="322.5" y="-242.354"/>
<text text-anchor="start" x="337.5" y="-232.4539" font-family="Helvetica,sans-Serif" font-size="11.00" fill="#000000">campana_id</text>
<polygon fill="none" stroke="#000000" points="317.5,-203.3539 317.5,-225.3539 440.5,-225.3539 440.5,-203.3539 317.5,-203.3539"/>
<image xlink:href="../../images/foreignKeys.png" width="11px" height="12px" preserveAspectRatio="xMinYMin meet" x="322.5" y="-220.354"/>
<text text-anchor="start" x="337.5" y="-210.4539" font-family="Helvetica,sans-Serif" font-size="11.00" fill="#000000">persona_id</text>
<polygon fill="none" stroke="#000000" points="317.5,-181.3539 317.5,-203.3539 440.5,-203.3539 440.5,-181.3539 317.5,-181.3539"/>
<image xlink:href="../../images/foreignKeys.png" width="11px" height="12px" preserveAspectRatio="xMinYMin meet" x="322.5" y="-198.354"/>
<text text-anchor="start" x="337.5" y="-188.4539" font-family="Helvetica,sans-Serif" font-size="11.00" fill="#000000">curso_id</text>
<polygon fill="none" stroke="#000000" points="317.5,-159.3539 317.5,-181.3539 440.5,-181.3539 440.5,-159.3539 317.5,-159.3539"/>
<image xlink:href="../../images/foreignKeys.png" width="11px" height="12px" preserveAspectRatio="xMinYMin meet" x="322.5" y="-176.354"/>
<text text-anchor="start" x="337.5" y="-166.4539" font-family="Helvetica,sans-Serif" font-size="11.00" fill="#000000">ciclo_id</text>
<polygon fill="none" stroke="#000000" points="317.5,-140.3539 317.5,-159.3539 440.5,-159.3539 440.5,-140.3539 317.5,-140.3539"/>
<text text-anchor="start" x="320.5" y="-146.4539" font-family="Helvetica,sans-Serif" font-size="11.00" fill="#000000">...</text>
<polygon fill="#ffffff" stroke="transparent" points="317.5,-121.3539 317.5,-140.3539 359.5,-140.3539 359.5,-121.3539 317.5,-121.3539"/>
<polygon fill="none" stroke="#000000" points="317.5,-121.3539 317.5,-140.3539 359.5,-140.3539 359.5,-121.3539 317.5,-121.3539"/>
<text text-anchor="start" x="320.5" y="-127.4539" font-family="Helvetica,sans-Serif" font-size="11.00" fill="#000000">&lt; 5</text>
<polygon fill="#ffffff" stroke="transparent" points="359.5,-121.3539 359.5,-140.3539 408.5,-140.3539 408.5,-121.3539 359.5,-121.3539"/>
<polygon fill="none" stroke="#000000" points="359.5,-121.3539 359.5,-140.3539 408.5,-140.3539 408.5,-121.3539 359.5,-121.3539"/>
<text text-anchor="start" x="373.1105" y="-127.4539" font-family="Helvetica,sans-Serif" font-size="11.00" fill="#000000">4 rows</text>
<polygon fill="#ffffff" stroke="transparent" points="408.5,-121.3539 408.5,-140.3539 440.5,-140.3539 440.5,-121.3539 408.5,-121.3539"/>
<polygon fill="none" stroke="#000000" points="408.5,-121.3539 408.5,-140.3539 440.5,-140.3539 440.5,-121.3539 408.5,-121.3539"/>
<text text-anchor="start" x="421.9053" y="-127.4539" font-family="Helvetica,sans-Serif" font-size="11.00" fill="#000000">3 &gt;</text>
</a>
</g>
</g>
<!-- casos&#45;&gt;leads -->
<g id="edge2" class="edge">
<title>casos:w&#45;&gt;leads:e</title>
<path fill="none" stroke="#000000" d="M595.9292,-356.1632C547.263,-354.7814 528.5942,-345.5725 481,-318.3539 459.5737,-306.1004 465.1827,-280.3539 440.5,-280.3539"/>
<polygon fill="#000000" stroke="#000000" points="602.5007,-356.2491 610.4529,-359.9536 606.5003,-356.3015 610.5,-356.3539 610.5,-356.3539 610.5,-356.3539 606.5003,-356.3015 610.5471,-352.7542 602.5007,-356.2491 602.5007,-356.2491"/>
<ellipse fill="none" stroke="#000000" cx="599.301" cy="-356.2073" rx="3.2" ry="3.2"/>
</g>
<!-- usuarios -->
<g id="node4" class="node">
<title>usuarios</title>
<g id="a_node4"><a xlink:href="../../tables/usuarios.html" xlink:title="usuarios" target="_top">
<polygon fill="#ffffff" stroke="transparent" points="145,-308.8539 145,-413.8539 268,-413.8539 268,-308.8539 145,-308.8539"/>
<polygon fill="#f5f5f5" stroke="transparent" points="145.5,-390.3539 145.5,-413.3539 268.5,-413.3539 268.5,-390.3539 145.5,-390.3539"/>
<polygon fill="none" stroke="#000000" points="145.5,-390.3539 145.5,-413.3539 268.5,-413.3539 268.5,-390.3539 145.5,-390.3539"/>
<text text-anchor="start" x="150.5" y="-399.4539" font-family="Helvetica,sans-Serif" font-weight="bold" font-size="11.00" fill="#000000">usuarios</text>
<text text-anchor="start" x="233.5437" y="-398.4539" font-family="Helvetica,sans-Serif" font-size="11.00" fill="#000000">[table]</text>
<polygon fill="none" stroke="#000000" points="145.5,-368.3539 145.5,-390.3539 268.5,-390.3539 268.5,-368.3539 145.5,-368.3539"/>
<image xlink:href="../../images/primaryKeys.png" width="11px" height="12px" preserveAspectRatio="xMinYMin meet" x="150.5" y="-385.354"/>
<text text-anchor="start" x="165.5" y="-375.4539" font-family="Helvetica,sans-Serif" font-size="11.00" fill="#000000">usuario_id</text>
<polygon fill="#ffffff" stroke="transparent" points="145.5,-346.3539 145.5,-368.3539 268.5,-368.3539 268.5,-346.3539 145.5,-346.3539"/>
<polygon fill="none" stroke="#000000" points="145.5,-346.3539 145.5,-368.3539 268.5,-368.3539 268.5,-346.3539 145.5,-346.3539"/>
<text text-anchor="start" x="165.5" y="-353.4539" font-family="Helvetica,sans-Serif" font-size="11.00" fill="#000000">nom_usuario</text>
<polygon fill="none" stroke="#000000" points="145.5,-327.3539 145.5,-346.3539 268.5,-346.3539 268.5,-327.3539 145.5,-327.3539"/>
<text text-anchor="start" x="148.5" y="-333.4539" font-family="Helvetica,sans-Serif" font-size="11.00" fill="#000000">...</text>
<polygon fill="#ffffff" stroke="transparent" points="145.5,-308.3539 145.5,-327.3539 186.5,-327.3539 186.5,-308.3539 145.5,-308.3539"/>
<polygon fill="none" stroke="#000000" points="145.5,-308.3539 145.5,-327.3539 186.5,-327.3539 186.5,-308.3539 145.5,-308.3539"/>
<text text-anchor="start" x="148.5" y="-314.4539" font-family="Helvetica,sans-Serif" font-size="11.00" fill="#000000"> &#160;</text>
<polygon fill="#ffffff" stroke="transparent" points="186.5,-308.3539 186.5,-327.3539 232.5,-327.3539 232.5,-308.3539 186.5,-308.3539"/>
<polygon fill="none" stroke="#000000" points="186.5,-308.3539 186.5,-327.3539 232.5,-327.3539 232.5,-308.3539 186.5,-308.3539"/>
<text text-anchor="start" x="202.6105" y="-314.4539" font-family="Helvetica,sans-Serif" font-size="11.00" fill="#000000">1 row</text>
<polygon fill="#ffffff" stroke="transparent" points="232.5,-308.3539 232.5,-327.3539 268.5,-327.3539 268.5,-308.3539 232.5,-308.3539"/>
<polygon fill="none" stroke="#000000" points="232.5,-308.3539 232.5,-327.3539 268.5,-327.3539 268.5,-308.3539 232.5,-308.3539"/>
<text text-anchor="start" x="249.9053" y="-314.4539" font-family="Helvetica,sans-Serif" font-size="11.00" fill="#000000">6 &gt;</text>
</a>
</g>
</g>
<!-- casos&#45;&gt;usuarios -->
<g id="edge3" class="edge">
<title>casos:w&#45;&gt;usuarios:e</title>
<path fill="none" stroke="#000000" d="M595.9371,-356.5668C535.0481,-358.406 515.487,-371.6501 448,-376.3539 368.4042,-381.9016 348.2889,-379.3539 268.5,-379.3539"/>
<polygon fill="#000000" stroke="#000000" points="602.5009,-356.4709 610.5527,-359.9535 606.5004,-356.4124 610.5,-356.3539 610.5,-356.3539 610.5,-356.3539 606.5004,-356.4124 610.4473,-352.7542 602.5009,-356.4709 602.5009,-356.4709"/>
<ellipse fill="none" stroke="#000000" cx="599.3012" cy="-356.5177" rx="3.2" ry="3.2"/>
</g>
<!-- organizaciones -->
<g id="node5" class="node">
<title>organizaciones</title>
<g id="a_node5"><a xlink:href="../../tables/organizaciones.html" xlink:title="organizaciones" target="_top">
<polygon fill="#ffffff" stroke="transparent" points="148.5,-505.8539 148.5,-566.8539 264.5,-566.8539 264.5,-505.8539 148.5,-505.8539"/>
<polygon fill="#f5f5f5" stroke="transparent" points="148.5,-543.3539 148.5,-566.3539 264.5,-566.3539 264.5,-543.3539 148.5,-543.3539"/>
<polygon fill="none" stroke="#000000" points="148.5,-543.3539 148.5,-566.3539 264.5,-566.3539 264.5,-543.3539 148.5,-543.3539"/>
<text text-anchor="start" x="153.0186" y="-552.4539" font-family="Helvetica,sans-Serif" font-weight="bold" font-size="11.00" fill="#000000">organizaciones</text>
<text text-anchor="start" x="230.0219" y="-551.4539" font-family="Helvetica,sans-Serif" font-size="11.00" fill="#000000">[table]</text>
<polygon fill="none" stroke="#000000" points="148.5,-524.3539 148.5,-543.3539 264.5,-543.3539 264.5,-524.3539 148.5,-524.3539"/>
<text text-anchor="start" x="151.5" y="-530.4539" font-family="Helvetica,sans-Serif" font-size="11.00" fill="#000000">...</text>
<polygon fill="#ffffff" stroke="transparent" points="148.5,-505.3539 148.5,-524.3539 187.5,-524.3539 187.5,-505.3539 148.5,-505.3539"/>
<polygon fill="none" stroke="#000000" points="148.5,-505.3539 148.5,-524.3539 187.5,-524.3539 187.5,-505.3539 148.5,-505.3539"/>
<text text-anchor="start" x="151.5" y="-511.4539" font-family="Helvetica,sans-Serif" font-size="11.00" fill="#000000">&lt; 1</text>
<polygon fill="#ffffff" stroke="transparent" points="187.5,-505.3539 187.5,-524.3539 234.5,-524.3539 234.5,-505.3539 187.5,-505.3539"/>
<polygon fill="none" stroke="#000000" points="187.5,-505.3539 187.5,-524.3539 234.5,-524.3539 234.5,-505.3539 187.5,-505.3539"/>
<text text-anchor="start" x="199.1105" y="-511.4539" font-family="Helvetica,sans-Serif" font-size="11.00" fill="#000000">0 rows</text>
<polygon fill="#ffffff" stroke="transparent" points="234.5,-505.3539 234.5,-524.3539 264.5,-524.3539 264.5,-505.3539 234.5,-505.3539"/>
<polygon fill="none" stroke="#000000" points="234.5,-505.3539 234.5,-524.3539 264.5,-524.3539 264.5,-505.3539 234.5,-505.3539"/>
<text text-anchor="start" x="245.9053" y="-511.4539" font-family="Helvetica,sans-Serif" font-size="11.00" fill="#000000">1 &gt;</text>
</a>
</g>
</g>
<!-- contactos&#45;&gt;organizaciones -->
<g id="edge4" class="edge">
<title>contactos:w&#45;&gt;organizaciones:e</title>
<path fill="none" stroke="#000000" d="M303.589,-571.1732C288.8046,-560.5498 288.685,-533.3539 264.5,-533.3539"/>
<polygon fill="#000000" stroke="#000000" points="309.8385,-573.0513 316.4639,-578.8015 313.6693,-574.2026 317.5,-575.3539 317.5,-575.3539 317.5,-575.3539 313.6693,-574.2026 318.5361,-571.9062 309.8385,-573.0513 309.8385,-573.0513"/>
<ellipse fill="none" stroke="#000000" cx="306.7739" cy="-572.1303" rx="3.2" ry="3.2"/>
</g>
<!-- personas -->
<g id="node6" class="node">
<title>personas</title>
<g id="a_node6"><a xlink:href="../../tables/personas.html" xlink:title="personas" target="_top">
<polygon fill="#ffffff" stroke="transparent" points="8,-475.8539 8,-536.8539 96,-536.8539 96,-475.8539 8,-475.8539"/>
<polygon fill="#f5f5f5" stroke="transparent" points="8,-513.3539 8,-536.3539 96,-536.3539 96,-513.3539 8,-513.3539"/>
<polygon fill="none" stroke="#000000" points="8,-513.3539 8,-536.3539 96,-536.3539 96,-513.3539 8,-513.3539"/>
<text text-anchor="start" x="12.8818" y="-522.4539" font-family="Helvetica,sans-Serif" font-weight="bold" font-size="11.00" fill="#000000">personas</text>
<text text-anchor="start" x="61.5219" y="-521.4539" font-family="Helvetica,sans-Serif" font-size="11.00" fill="#000000">[table]</text>
<polygon fill="none" stroke="#000000" points="8,-494.3539 8,-513.3539 96,-513.3539 96,-494.3539 8,-494.3539"/>
<text text-anchor="start" x="11" y="-500.4539" font-family="Helvetica,sans-Serif" font-size="11.00" fill="#000000">...</text>
<polygon fill="#ffffff" stroke="transparent" points="8,-475.3539 8,-494.3539 28,-494.3539 28,-475.3539 8,-475.3539"/>
<polygon fill="none" stroke="#000000" points="8,-475.3539 8,-494.3539 28,-494.3539 28,-475.3539 8,-475.3539"/>
<text text-anchor="start" x="11" y="-481.4539" font-family="Helvetica,sans-Serif" font-size="11.00" fill="#000000"> &#160;</text>
<polygon fill="#ffffff" stroke="transparent" points="28,-475.3539 28,-494.3539 70,-494.3539 70,-475.3539 28,-475.3539"/>
<polygon fill="none" stroke="#000000" points="28,-475.3539 28,-494.3539 70,-494.3539 70,-475.3539 28,-475.3539"/>
<text text-anchor="start" x="34.6105" y="-481.4539" font-family="Helvetica,sans-Serif" font-size="11.00" fill="#000000">5 rows</text>
<polygon fill="#ffffff" stroke="transparent" points="70,-475.3539 70,-494.3539 96,-494.3539 96,-475.3539 70,-475.3539"/>
<polygon fill="none" stroke="#000000" points="70,-475.3539 70,-494.3539 96,-494.3539 96,-475.3539 70,-475.3539"/>
<text text-anchor="start" x="77.4053" y="-481.4539" font-family="Helvetica,sans-Serif" font-size="11.00" fill="#000000">6 &gt;</text>
</a>
</g>
</g>
<!-- contactos&#45;&gt;personas -->
<g id="edge5" class="edge">
<title>contactos:w&#45;&gt;personas:e</title>
<path fill="none" stroke="#000000" d="M302.9098,-597.6208C232.5754,-600.1755 199.977,-619.3019 137,-577.3539 105.7069,-556.51 133.5996,-503.3539 96,-503.3539"/>
<polygon fill="#000000" stroke="#000000" points="309.5013,-597.5003 317.5659,-600.9533 313.5007,-597.4271 317.5,-597.3539 317.5,-597.3539 317.5,-597.3539 313.5007,-597.4271 317.4341,-593.7545 309.5013,-597.5003 309.5013,-597.5003"/>
<ellipse fill="none" stroke="#000000" cx="306.3019" cy="-597.5588" rx="3.2" ry="3.2"/>
</g>
<!-- leads&#45;&gt;usuarios -->
<g id="edge15" class="edge">
<title>leads:w&#45;&gt;usuarios:e</title>
<path fill="none" stroke="#000000" d="M303.43,-261.8447C271.8075,-281.6839 320.6273,-379.3539 268.5,-379.3539"/>
<polygon fill="#000000" stroke="#000000" points="309.7354,-260.2803 318.3669,-261.8479 313.6177,-259.3171 317.5,-258.3539 317.5,-258.3539 317.5,-258.3539 313.6177,-259.3171 316.6331,-254.8598 309.7354,-260.2803 309.7354,-260.2803"/>
<ellipse fill="none" stroke="#000000" cx="306.6296" cy="-261.0509" rx="3.2" ry="3.2"/>
</g>
<!-- leads&#45;&gt;personas -->
<g id="edge14" class="edge">
<title>leads:w&#45;&gt;personas:e</title>
<path fill="none" stroke="#000000" d="M303.5626,-218.8675C261.5988,-235.2424 142.8216,-290.9498 137,-298.3539 79.5697,-371.3952 188.9155,-503.3539 96,-503.3539"/>
<polygon fill="#000000" stroke="#000000" points="309.8892,-216.8187 318.6092,-217.7787 313.6946,-215.5863 317.5,-214.3539 317.5,-214.3539 317.5,-214.3539 313.6946,-215.5863 316.3908,-210.929 309.8892,-216.8187 309.8892,-216.8187"/>
<ellipse fill="none" stroke="#000000" cx="306.8448" cy="-217.8046" rx="3.2" ry="3.2"/>
</g>
<!-- curso_ciclos -->
<g id="node7" class="node">
<title>curso_ciclos</title>
<g id="a_node7"><a xlink:href="../../tables/curso_ciclos.html" xlink:title="curso_ciclos" target="_top">
<polygon fill="#ffffff" stroke="transparent" points="155,-55.8539 155,-116.8539 258,-116.8539 258,-55.8539 155,-55.8539"/>
<polygon fill="#f5f5f5" stroke="transparent" points="155.5,-93.3539 155.5,-116.3539 258.5,-116.3539 258.5,-93.3539 155.5,-93.3539"/>
<polygon fill="none" stroke="#000000" points="155.5,-93.3539 155.5,-116.3539 258.5,-116.3539 258.5,-93.3539 155.5,-93.3539"/>
<text text-anchor="start" x="160.2484" y="-102.4539" font-family="Helvetica,sans-Serif" font-weight="bold" font-size="11.00" fill="#000000">curso_ciclos</text>
<text text-anchor="start" x="224.0219" y="-101.4539" font-family="Helvetica,sans-Serif" font-size="11.00" fill="#000000">[table]</text>
<polygon fill="none" stroke="#000000" points="155.5,-74.3539 155.5,-93.3539 258.5,-93.3539 258.5,-74.3539 155.5,-74.3539"/>
<text text-anchor="start" x="158.5" y="-80.4539" font-family="Helvetica,sans-Serif" font-size="11.00" fill="#000000">...</text>
<polygon fill="#ffffff" stroke="transparent" points="155.5,-55.3539 155.5,-74.3539 190.5,-74.3539 190.5,-55.3539 155.5,-55.3539"/>
<polygon fill="none" stroke="#000000" points="155.5,-55.3539 155.5,-74.3539 190.5,-74.3539 190.5,-55.3539 155.5,-55.3539"/>
<text text-anchor="start" x="158.5" y="-61.4539" font-family="Helvetica,sans-Serif" font-size="11.00" fill="#000000">&lt; 1</text>
<polygon fill="#ffffff" stroke="transparent" points="190.5,-55.3539 190.5,-74.3539 229.5,-74.3539 229.5,-55.3539 190.5,-55.3539"/>
<polygon fill="none" stroke="#000000" points="190.5,-55.3539 190.5,-74.3539 229.5,-74.3539 229.5,-55.3539 190.5,-55.3539"/>
<text text-anchor="start" x="199.6105" y="-61.4539" font-family="Helvetica,sans-Serif" font-size="11.00" fill="#000000">1 row</text>
<polygon fill="#ffffff" stroke="transparent" points="229.5,-55.3539 229.5,-74.3539 258.5,-74.3539 258.5,-55.3539 229.5,-55.3539"/>
<polygon fill="none" stroke="#000000" points="229.5,-55.3539 229.5,-74.3539 258.5,-74.3539 258.5,-55.3539 229.5,-55.3539"/>
<text text-anchor="start" x="239.9053" y="-61.4539" font-family="Helvetica,sans-Serif" font-size="11.00" fill="#000000">2 &gt;</text>
</a>
</g>
</g>
<!-- leads&#45;&gt;curso_ciclos -->
<g id="edge12" class="edge">
<title>leads:w&#45;&gt;curso_ciclos:e</title>
<path fill="none" stroke="#000000" d="M303.4675,-166.6156C278.1221,-149.9632 299.3796,-83.3539 258.5,-83.3539"/>
<polygon fill="#000000" stroke="#000000" points="309.7696,-168.2944 316.5733,-173.8325 313.6348,-169.3241 317.5,-170.3539 317.5,-170.3539 317.5,-170.3539 313.6348,-169.3241 318.4267,-166.8752 309.7696,-168.2944 309.7696,-168.2944"/>
<ellipse fill="none" stroke="#000000" cx="306.6775" cy="-167.4707" rx="3.2" ry="3.2"/>
</g>
<!-- cursos -->
<g id="node8" class="node">
<title>cursos</title>
<g id="a_node8"><a xlink:href="../../tables/cursos.html" xlink:title="cursos" target="_top">
<polygon fill="#ffffff" stroke="transparent" points="13.5,-55.8539 13.5,-116.8539 90.5,-116.8539 90.5,-55.8539 13.5,-55.8539"/>
<polygon fill="#f5f5f5" stroke="transparent" points="14,-93.3539 14,-116.3539 91,-116.3539 91,-93.3539 14,-93.3539"/>
<polygon fill="none" stroke="#000000" points="14,-93.3539 14,-116.3539 91,-116.3539 91,-93.3539 14,-93.3539"/>
<text text-anchor="start" x="19" y="-102.4539" font-family="Helvetica,sans-Serif" font-weight="bold" font-size="11.00" fill="#000000">cursos</text>
<text text-anchor="start" x="56.0437" y="-101.4539" font-family="Helvetica,sans-Serif" font-size="11.00" fill="#000000">[table]</text>
<polygon fill="none" stroke="#000000" points="14,-74.3539 14,-93.3539 91,-93.3539 91,-74.3539 14,-74.3539"/>
<text text-anchor="start" x="17" y="-80.4539" font-family="Helvetica,sans-Serif" font-size="11.00" fill="#000000">...</text>
<polygon fill="#ffffff" stroke="transparent" points="14,-55.3539 14,-74.3539 26,-74.3539 26,-55.3539 14,-55.3539"/>
<polygon fill="none" stroke="#000000" points="14,-55.3539 14,-74.3539 26,-74.3539 26,-55.3539 14,-55.3539"/>
<text text-anchor="start" x="16.9431" y="-61.4539" font-family="Helvetica,sans-Serif" font-size="11.00" fill="#000000"> &#160;</text>
<polygon fill="#ffffff" stroke="transparent" points="26,-55.3539 26,-74.3539 70,-74.3539 70,-55.3539 26,-55.3539"/>
<polygon fill="none" stroke="#000000" points="26,-55.3539 26,-74.3539 70,-74.3539 70,-55.3539 26,-55.3539"/>
<text text-anchor="start" x="28.7478" y="-61.4539" font-family="Helvetica,sans-Serif" font-size="11.00" fill="#000000">10 rows</text>
<polygon fill="#ffffff" stroke="transparent" points="70,-55.3539 70,-74.3539 91,-74.3539 91,-55.3539 70,-55.3539"/>
<polygon fill="none" stroke="#000000" points="70,-55.3539 70,-74.3539 91,-74.3539 91,-55.3539 70,-55.3539"/>
<text text-anchor="start" x="72.7027" y="-61.4539" font-family="Helvetica,sans-Serif" font-size="11.00" fill="#000000">3 &gt;</text>
</a>
</g>
</g>
<!-- leads&#45;&gt;cursos -->
<g id="edge13" class="edge">
<title>leads:w&#45;&gt;cursos:e</title>
<path fill="none" stroke="#000000" d="M303.2687,-195.3811C294.7135,-199.5037 289.5979,-206.6767 276,-209.3539 215.3858,-221.2876 187.6227,-244.7634 137,-209.3539 88.1493,-175.1839 150.6152,-83.3539 91,-83.3539"/>
<polygon fill="#000000" stroke="#000000" points="309.6751,-194.0184 318.249,-195.8751 313.5875,-193.1861 317.5,-192.3539 317.5,-192.3539 317.5,-192.3539 313.5875,-193.1861 316.751,-188.8326 309.6751,-194.0184 309.6751,-194.0184"/>
<ellipse fill="none" stroke="#000000" cx="306.5451" cy="-194.6842" rx="3.2" ry="3.2"/>
</g>
<!-- campanas -->
<g id="node12" class="node">
<title>campanas</title>
<g id="a_node12"><a xlink:href="../../tables/campanas.html" xlink:title="campanas" target="_top">
<polygon fill="#ffffff" stroke="transparent" points="160,-137.8539 160,-198.8539 253,-198.8539 253,-137.8539 160,-137.8539"/>
<polygon fill="#f5f5f5" stroke="transparent" points="160.5,-175.3539 160.5,-198.3539 253.5,-198.3539 253.5,-175.3539 160.5,-175.3539"/>
<polygon fill="none" stroke="#000000" points="160.5,-175.3539 160.5,-198.3539 253.5,-198.3539 253.5,-175.3539 160.5,-175.3539"/>
<text text-anchor="start" x="165.1318" y="-184.4539" font-family="Helvetica,sans-Serif" font-weight="bold" font-size="11.00" fill="#000000">campanas</text>
<text text-anchor="start" x="219.0219" y="-183.4539" font-family="Helvetica,sans-Serif" font-size="11.00" fill="#000000">[table]</text>
<polygon fill="none" stroke="#000000" points="160.5,-156.3539 160.5,-175.3539 253.5,-175.3539 253.5,-156.3539 160.5,-156.3539"/>
<text text-anchor="start" x="163.5" y="-162.4539" font-family="Helvetica,sans-Serif" font-size="11.00" fill="#000000">...</text>
<polygon fill="#ffffff" stroke="transparent" points="160.5,-137.3539 160.5,-156.3539 183.5,-156.3539 183.5,-137.3539 160.5,-137.3539"/>
<polygon fill="none" stroke="#000000" points="160.5,-137.3539 160.5,-156.3539 183.5,-156.3539 183.5,-137.3539 160.5,-137.3539"/>
<text text-anchor="start" x="163.5" y="-143.4539" font-family="Helvetica,sans-Serif" font-size="11.00" fill="#000000"> &#160;</text>
<polygon fill="#ffffff" stroke="transparent" points="183.5,-137.3539 183.5,-156.3539 226.5,-156.3539 226.5,-137.3539 183.5,-137.3539"/>
<polygon fill="none" stroke="#000000" points="183.5,-137.3539 183.5,-156.3539 226.5,-156.3539 226.5,-137.3539 183.5,-137.3539"/>
<text text-anchor="start" x="191.1105" y="-143.4539" font-family="Helvetica,sans-Serif" font-size="11.00" fill="#000000">0 rows</text>
<polygon fill="#ffffff" stroke="transparent" points="226.5,-137.3539 226.5,-156.3539 253.5,-156.3539 253.5,-137.3539 226.5,-137.3539"/>
<polygon fill="none" stroke="#000000" points="226.5,-137.3539 226.5,-156.3539 253.5,-156.3539 253.5,-137.3539 226.5,-137.3539"/>
<text text-anchor="start" x="234.9053" y="-143.4539" font-family="Helvetica,sans-Serif" font-size="11.00" fill="#000000">2 &gt;</text>
</a>
</g>
</g>
<!-- leads&#45;&gt;campanas -->
<g id="edge11" class="edge">
<title>leads:w&#45;&gt;campanas:e</title>
<path fill="none" stroke="#000000" d="M303.3089,-232.7353C279.5637,-218.2669 290.1751,-165.3539 253.5,-165.3539"/>
<polygon fill="#000000" stroke="#000000" points="309.748,-234.3772 316.6105,-239.8422 313.624,-235.3655 317.5,-236.3539 317.5,-236.3539 317.5,-236.3539 313.624,-235.3655 318.3895,-232.8655 309.748,-234.3772 309.748,-234.3772"/>
<ellipse fill="none" stroke="#000000" cx="306.6472" cy="-233.5865" rx="3.2" ry="3.2"/>
</g>
<!-- organizaciones&#45;&gt;personas -->
<g id="edge24" class="edge">
<title>organizaciones:w&#45;&gt;personas:e</title>
<path fill="none" stroke="#000000" d="M134.3122,-529.6753C120.8263,-521.6644 116.9955,-503.3539 96,-503.3539"/>
<polygon fill="#000000" stroke="#000000" points="140.7561,-531.346 147.5965,-536.8386 144.628,-532.3499 148.5,-533.3539 148.5,-533.3539 148.5,-533.3539 144.628,-532.3499 149.4035,-529.8691 140.7561,-531.346 140.7561,-531.346"/>
<ellipse fill="none" stroke="#000000" cx="137.6585" cy="-530.5428" rx="3.2" ry="3.2"/>
</g>
<!-- curso_ciclos&#45;&gt;cursos -->
<g id="edge6" class="edge">
<title>curso_ciclos:w&#45;&gt;cursos:e</title>
<path fill="none" stroke="#000000" d="M140.8432,-83.3539C123.2137,-83.3539 114.0677,-83.3539 91,-83.3539"/>
<polygon fill="#000000" stroke="#000000" points="147.5,-83.3539 155.5,-86.9539 151.5,-83.3539 155.5,-83.3539 155.5,-83.3539 155.5,-83.3539 151.5,-83.3539 155.5,-79.7539 147.5,-83.3539 147.5,-83.3539"/>
<ellipse fill="none" stroke="#000000" cx="144.3" cy="-83.3539" rx="3.2" ry="3.2"/>
</g>
<!-- empleados -->
<g id="node9" class="node">
<title>empleados</title>
<g id="a_node9"><a xlink:href="../../tables/empleados.html" xlink:title="empleados" target="_top">
<polygon fill="#ffffff" stroke="transparent" points="330.5,-444.8539 330.5,-505.8539 426.5,-505.8539 426.5,-444.8539 330.5,-444.8539"/>
<polygon fill="#f5f5f5" stroke="transparent" points="330.5,-482.3539 330.5,-505.3539 426.5,-505.3539 426.5,-482.3539 330.5,-482.3539"/>
<polygon fill="none" stroke="#000000" points="330.5,-482.3539 330.5,-505.3539 426.5,-505.3539 426.5,-482.3539 330.5,-482.3539"/>
<text text-anchor="start" x="335.1039" y="-491.4539" font-family="Helvetica,sans-Serif" font-weight="bold" font-size="11.00" fill="#000000">empleados</text>
<text text-anchor="start" x="392.0219" y="-490.4539" font-family="Helvetica,sans-Serif" font-size="11.00" fill="#000000">[table]</text>
<polygon fill="none" stroke="#000000" points="330.5,-463.3539 330.5,-482.3539 426.5,-482.3539 426.5,-463.3539 330.5,-463.3539"/>
<text text-anchor="start" x="333.5" y="-469.4539" font-family="Helvetica,sans-Serif" font-size="11.00" fill="#000000">...</text>
<polygon fill="#ffffff" stroke="transparent" points="330.5,-444.3539 330.5,-463.3539 366.5,-463.3539 366.5,-444.3539 330.5,-444.3539"/>
<polygon fill="none" stroke="#000000" points="330.5,-444.3539 330.5,-463.3539 366.5,-463.3539 366.5,-444.3539 330.5,-444.3539"/>
<text text-anchor="start" x="333.5" y="-450.4539" font-family="Helvetica,sans-Serif" font-size="11.00" fill="#000000">&lt; 2</text>
<polygon fill="#ffffff" stroke="transparent" points="366.5,-444.3539 366.5,-463.3539 406.5,-463.3539 406.5,-444.3539 366.5,-444.3539"/>
<polygon fill="none" stroke="#000000" points="366.5,-444.3539 366.5,-463.3539 406.5,-463.3539 406.5,-444.3539 366.5,-444.3539"/>
<text text-anchor="start" x="376.6105" y="-450.4539" font-family="Helvetica,sans-Serif" font-size="11.00" fill="#000000">1 row</text>
<polygon fill="#ffffff" stroke="transparent" points="406.5,-444.3539 406.5,-463.3539 426.5,-463.3539 426.5,-444.3539 406.5,-444.3539"/>
<polygon fill="none" stroke="#000000" points="406.5,-444.3539 406.5,-463.3539 426.5,-463.3539 426.5,-444.3539 406.5,-444.3539"/>
<text text-anchor="start" x="417.3862" y="-450.4539" font-family="Helvetica,sans-Serif" font-size="11.00" fill="#000000"> &#160;</text>
</a>
</g>
</g>
<!-- empleados&#45;&gt;usuarios -->
<g id="edge8" class="edge">
<title>empleados:w&#45;&gt;usuarios:e</title>
<path fill="none" stroke="#000000" d="M316.341,-468.8217C288.383,-451.8341 312.355,-379.3539 268.5,-379.3539"/>
<polygon fill="#000000" stroke="#000000" points="322.7379,-470.4175 329.6286,-475.8468 326.6189,-471.3857 330.5,-472.3539 330.5,-472.3539 330.5,-472.3539 326.6189,-471.3857 331.3714,-468.8609 322.7379,-470.4175 322.7379,-470.4175"/>
<ellipse fill="none" stroke="#000000" cx="319.633" cy="-469.6429" rx="3.2" ry="3.2"/>
</g>
<!-- empleados&#45;&gt;personas -->
<g id="edge7" class="edge">
<title>empleados:w&#45;&gt;personas:e</title>
<path fill="none" stroke="#000000" d="M315.9226,-472.4514C241.174,-473.4904 217.5471,-482.7265 137,-495.3539 118.6582,-498.2293 114.5659,-503.3539 96,-503.3539"/>
<polygon fill="#000000" stroke="#000000" points="322.5002,-472.4075 330.5241,-475.9538 326.5001,-472.3807 330.5,-472.3539 330.5,-472.3539 330.5,-472.3539 326.5001,-472.3807 330.4759,-468.7539 322.5002,-472.4075 322.5002,-472.4075"/>
<ellipse fill="none" stroke="#000000" cx="319.3003" cy="-472.4289" rx="3.2" ry="3.2"/>
</g>
<!-- encuesta_respuestas -->
<g id="node10" class="node">
<title>encuesta_respuestas</title>
<g id="a_node10"><a xlink:href="../../tables/encuesta_respuestas.html" xlink:title="encuesta_respuestas" target="_top">
<polygon fill="#ffffff" stroke="transparent" points="851,-438.8539 851,-499.8539 998,-499.8539 998,-438.8539 851,-438.8539"/>
<polygon fill="#f5f5f5" stroke="transparent" points="851.5,-476.3539 851.5,-499.3539 998.5,-499.3539 998.5,-476.3539 851.5,-476.3539"/>
<polygon fill="none" stroke="#000000" points="851.5,-476.3539 851.5,-499.3539 998.5,-499.3539 998.5,-476.3539 851.5,-476.3539"/>
<text text-anchor="start" x="856.2302" y="-485.4539" font-family="Helvetica,sans-Serif" font-weight="bold" font-size="11.00" fill="#000000">encuesta_respuestas</text>
<text text-anchor="start" x="964.0219" y="-484.4539" font-family="Helvetica,sans-Serif" font-size="11.00" fill="#000000">[table]</text>
<polygon fill="none" stroke="#000000" points="851.5,-457.3539 851.5,-476.3539 998.5,-476.3539 998.5,-457.3539 851.5,-457.3539"/>
<text text-anchor="start" x="854.5" y="-463.4539" font-family="Helvetica,sans-Serif" font-size="11.00" fill="#000000">...</text>
<polygon fill="#ffffff" stroke="transparent" points="851.5,-438.3539 851.5,-457.3539 908.5,-457.3539 908.5,-438.3539 851.5,-438.3539"/>
<polygon fill="none" stroke="#000000" points="851.5,-438.3539 851.5,-457.3539 908.5,-457.3539 908.5,-438.3539 851.5,-438.3539"/>
<text text-anchor="start" x="854.5" y="-444.4539" font-family="Helvetica,sans-Serif" font-size="11.00" fill="#000000">&lt; 2</text>
<polygon fill="#ffffff" stroke="transparent" points="908.5,-438.3539 908.5,-457.3539 958.5,-457.3539 958.5,-438.3539 908.5,-438.3539"/>
<polygon fill="none" stroke="#000000" points="908.5,-438.3539 908.5,-457.3539 958.5,-457.3539 958.5,-438.3539 908.5,-438.3539"/>
<text text-anchor="start" x="928.6105" y="-444.4539" font-family="Helvetica,sans-Serif" font-size="11.00" fill="#000000">1 row</text>
<polygon fill="#ffffff" stroke="transparent" points="958.5,-438.3539 958.5,-457.3539 998.5,-457.3539 998.5,-438.3539 958.5,-438.3539"/>
<polygon fill="none" stroke="#000000" points="958.5,-438.3539 958.5,-457.3539 998.5,-457.3539 998.5,-438.3539 958.5,-438.3539"/>
<text text-anchor="start" x="979.9053" y="-444.4539" font-family="Helvetica,sans-Serif" font-size="11.00" fill="#000000">1 &gt;</text>
</a>
</g>
</g>
<!-- encuesta_respuestas&#45;&gt;contactos -->
<g id="edge9" class="edge">
<title>encuesta_respuestas:w&#45;&gt;contactos:e</title>
<path fill="none" stroke="#000000" d="M837.8186,-470.9619C793.7354,-506.3064 858.219,-734.1598 810,-776.3539 699.9593,-872.645 596.5889,-865.9092 481,-776.3539 424.0349,-732.2187 512.562,-619.3539 440.5,-619.3539"/>
<polygon fill="#000000" stroke="#000000" points="843.9185,-468.9074 852.6491,-469.7655 847.7092,-467.6306 851.5,-466.3539 851.5,-466.3539 851.5,-466.3539 847.7092,-467.6306 850.3509,-462.9422 843.9185,-468.9074 843.9185,-468.9074"/>
<ellipse fill="none" stroke="#000000" cx="840.8859" cy="-469.9289" rx="3.2" ry="3.2"/>
</g>
<!-- oportunidades -->
<g id="node11" class="node">
<title>oportunidades</title>
<g id="a_node11"><a xlink:href="../../tables/oportunidades.html" xlink:title="oportunidades" target="_top">
<polygon fill="#ffffff" stroke="transparent" points="589.5,-116.8539 589.5,-177.8539 701.5,-177.8539 701.5,-116.8539 589.5,-116.8539"/>
<polygon fill="#f5f5f5" stroke="transparent" points="589.5,-154.3539 589.5,-177.3539 701.5,-177.3539 701.5,-154.3539 589.5,-154.3539"/>
<polygon fill="none" stroke="#000000" points="589.5,-154.3539 589.5,-177.3539 701.5,-177.3539 701.5,-154.3539 589.5,-154.3539"/>
<text text-anchor="start" x="594.1531" y="-163.4539" font-family="Helvetica,sans-Serif" font-weight="bold" font-size="11.00" fill="#000000">oportunidades</text>
<text text-anchor="start" x="667.0219" y="-162.4539" font-family="Helvetica,sans-Serif" font-size="11.00" fill="#000000">[table]</text>
<polygon fill="none" stroke="#000000" points="589.5,-135.3539 589.5,-154.3539 701.5,-154.3539 701.5,-135.3539 589.5,-135.3539"/>
<text text-anchor="start" x="592.5" y="-141.4539" font-family="Helvetica,sans-Serif" font-size="11.00" fill="#000000">...</text>
<polygon fill="#ffffff" stroke="transparent" points="589.5,-116.3539 589.5,-135.3539 623.5,-135.3539 623.5,-116.3539 589.5,-116.3539"/>
<polygon fill="none" stroke="#000000" points="589.5,-116.3539 589.5,-135.3539 623.5,-135.3539 623.5,-116.3539 589.5,-116.3539"/>
<text text-anchor="start" x="592.5" y="-122.4539" font-family="Helvetica,sans-Serif" font-size="11.00" fill="#000000">&lt; 5</text>
<polygon fill="#ffffff" stroke="transparent" points="623.5,-116.3539 623.5,-135.3539 673.5,-135.3539 673.5,-116.3539 623.5,-116.3539"/>
<polygon fill="none" stroke="#000000" points="623.5,-116.3539 623.5,-135.3539 673.5,-135.3539 673.5,-116.3539 623.5,-116.3539"/>
<text text-anchor="start" x="631.9956" y="-122.4539" font-family="Helvetica,sans-Serif" font-size="11.00" fill="#000000">14 rows</text>
<polygon fill="#ffffff" stroke="transparent" points="673.5,-116.3539 673.5,-135.3539 701.5,-135.3539 701.5,-116.3539 673.5,-116.3539"/>
<polygon fill="none" stroke="#000000" points="673.5,-116.3539 673.5,-135.3539 701.5,-135.3539 701.5,-116.3539 673.5,-116.3539"/>
<text text-anchor="start" x="682.9053" y="-122.4539" font-family="Helvetica,sans-Serif" font-size="11.00" fill="#000000">1 &gt;</text>
</a>
</g>
</g>
<!-- encuesta_respuestas&#45;&gt;oportunidades -->
<g id="edge10" class="edge">
<title>encuesta_respuestas:w&#45;&gt;oportunidades:e</title>
<path fill="none" stroke="#000000" d="M837.8374,-460.5613C806.5439,-428.8865 833.2057,-276.602 810,-236.3539 778.4202,-181.5816 764.7241,-144.3539 701.5,-144.3539"/>
<polygon fill="#000000" stroke="#000000" points="844.1346,-463.2311 850.0948,-469.6683 847.8173,-464.7925 851.5,-466.3539 851.5,-466.3539 851.5,-466.3539 847.8173,-464.7925 852.9052,-463.0394 844.1346,-463.2311 844.1346,-463.2311"/>
<ellipse fill="none" stroke="#000000" cx="841.1885" cy="-461.982" rx="3.2" ry="3.2"/>
</g>
<!-- oportunidades&#45;&gt;contactos -->
<g id="edge21" class="edge">
<title>oportunidades:w&#45;&gt;contactos:e</title>
<path fill="none" stroke="#000000" d="M574.8661,-145.0738C523.6037,-150.4112 508.1311,-185.0481 481,-236.3539 440.991,-312.0122 526.0856,-619.3539 440.5,-619.3539"/>
<polygon fill="#000000" stroke="#000000" points="581.5097,-144.747 589.6769,-147.9495 585.5048,-144.5504 589.5,-144.3539 589.5,-144.3539 589.5,-144.3539 585.5048,-144.5504 589.3231,-140.7582 581.5097,-144.747 581.5097,-144.747"/>
<ellipse fill="none" stroke="#000000" cx="578.3135" cy="-144.9043" rx="3.2" ry="3.2"/>
</g>
<!-- oportunidades&#45;&gt;usuarios -->
<g id="edge23" class="edge">
<title>oportunidades:w&#45;&gt;usuarios:e</title>
<path fill="none" stroke="#000000" d="M574.9908,-145.1501C524.6173,-151.031 514.3092,-188.8263 481,-236.3539 456.7878,-270.9013 480.3522,-298.2783 448,-325.3539 399.864,-365.6388 366.8218,-325.9287 309,-350.3539 288.6062,-358.9687 290.6387,-379.3539 268.5,-379.3539"/>
<polygon fill="#000000" stroke="#000000" points="581.512,-144.7923 589.6973,-147.9485 585.506,-144.5731 589.5,-144.3539 589.5,-144.3539 589.5,-144.3539 585.506,-144.5731 589.3027,-140.7593 581.512,-144.7923 581.512,-144.7923"/>
<ellipse fill="none" stroke="#000000" cx="578.3168" cy="-144.9676" rx="3.2" ry="3.2"/>
</g>
<!-- oportunidades&#45;&gt;curso_ciclos -->
<g id="edge20" class="edge">
<title>oportunidades:w&#45;&gt;curso_ciclos:e</title>
<path fill="none" stroke="#000000" d="M574.8622,-143.7084C520.9877,-138.7442 508.2774,-106.4988 448,-94.3539 365.298,-77.6907 342.864,-83.3539 258.5,-83.3539"/>
<polygon fill="#000000" stroke="#000000" points="581.5078,-144.0014 589.3414,-147.9504 585.5039,-144.1776 589.5,-144.3539 589.5,-144.3539 589.5,-144.3539 585.5039,-144.1776 589.6586,-140.7574 581.5078,-144.0014 581.5078,-144.0014"/>
<ellipse fill="none" stroke="#000000" cx="578.3109" cy="-143.8604" rx="3.2" ry="3.2"/>
</g>
<!-- oportunidades&#45;&gt;cursos -->
<g id="edge22" class="edge">
<title>oportunidades:w&#45;&gt;cursos:e</title>
<path fill="none" stroke="#000000" d="M575.1104,-143.6735C519.1434,-138.1248 508.7999,-100.0146 448,-80.3539 373.7733,-56.3513 353.6184,-53.171 276,-45.3539 214.5332,-39.1634 195.1329,-24.4478 137,-45.3539 112.0465,-54.3278 117.5181,-83.3539 91,-83.3539"/>
<polygon fill="#000000" stroke="#000000" points="581.5089,-143.976 589.3299,-147.9498 585.5045,-144.1649 589.5,-144.3539 589.5,-144.3539 589.5,-144.3539 585.5045,-144.1649 589.6701,-140.7579 581.5089,-143.976 581.5089,-143.976"/>
<ellipse fill="none" stroke="#000000" cx="578.3125" cy="-143.8248" rx="3.2" ry="3.2"/>
</g>
<!-- oportunidades&#45;&gt;campanas -->
<g id="edge19" class="edge">
<title>oportunidades:w&#45;&gt;campanas:e</title>
<path fill="none" stroke="#000000" d="M574.8293,-143.9813C460.752,-138.1326 420.6411,-66.0039 309,-111.3539 277.1145,-124.3061 287.9158,-165.3539 253.5,-165.3539"/>
<polygon fill="#000000" stroke="#000000" points="581.5026,-144.1507 589.4086,-147.9527 585.5013,-144.2523 589.5,-144.3539 589.5,-144.3539 589.5,-144.3539 585.5013,-144.2523 589.5914,-140.755 581.5026,-144.1507 581.5026,-144.1507"/>
<ellipse fill="none" stroke="#000000" cx="578.3036" cy="-144.0694" rx="3.2" ry="3.2"/>
</g>
<!-- llamadas -->
<g id="node13" class="node">
<title>llamadas</title>
<g id="a_node13"><a xlink:href="../../tables/llamadas.html" xlink:title="llamadas" target="_top">
<polygon fill="#ffffff" stroke="transparent" points="602,-246.8539 602,-307.8539 689,-307.8539 689,-246.8539 602,-246.8539"/>
<polygon fill="#f5f5f5" stroke="transparent" points="602.5,-284.3539 602.5,-307.3539 689.5,-307.3539 689.5,-284.3539 602.5,-284.3539"/>
<polygon fill="none" stroke="#000000" points="602.5,-284.3539 602.5,-307.3539 689.5,-307.3539 689.5,-284.3539 602.5,-284.3539"/>
<text text-anchor="start" x="607.4984" y="-293.4539" font-family="Helvetica,sans-Serif" font-weight="bold" font-size="11.00" fill="#000000">llamadas</text>
<text text-anchor="start" x="655.0219" y="-292.4539" font-family="Helvetica,sans-Serif" font-size="11.00" fill="#000000">[table]</text>
<polygon fill="none" stroke="#000000" points="602.5,-265.3539 602.5,-284.3539 689.5,-284.3539 689.5,-265.3539 602.5,-265.3539"/>
<text text-anchor="start" x="605.5" y="-271.4539" font-family="Helvetica,sans-Serif" font-size="11.00" fill="#000000">...</text>
<polygon fill="#ffffff" stroke="transparent" points="602.5,-246.3539 602.5,-265.3539 631.5,-265.3539 631.5,-246.3539 602.5,-246.3539"/>
<polygon fill="none" stroke="#000000" points="602.5,-246.3539 602.5,-265.3539 631.5,-265.3539 631.5,-246.3539 602.5,-246.3539"/>
<text text-anchor="start" x="605.5" y="-252.4539" font-family="Helvetica,sans-Serif" font-size="11.00" fill="#000000">&lt; 3</text>
<polygon fill="#ffffff" stroke="transparent" points="631.5,-246.3539 631.5,-265.3539 673.5,-265.3539 673.5,-246.3539 631.5,-246.3539"/>
<polygon fill="none" stroke="#000000" points="631.5,-246.3539 631.5,-265.3539 673.5,-265.3539 673.5,-246.3539 631.5,-246.3539"/>
<text text-anchor="start" x="638.1105" y="-252.4539" font-family="Helvetica,sans-Serif" font-size="11.00" fill="#000000">0 rows</text>
<polygon fill="#ffffff" stroke="transparent" points="673.5,-246.3539 673.5,-265.3539 689.5,-265.3539 689.5,-246.3539 673.5,-246.3539"/>
<polygon fill="none" stroke="#000000" points="673.5,-246.3539 673.5,-265.3539 689.5,-265.3539 689.5,-246.3539 673.5,-246.3539"/>
<text text-anchor="start" x="680.3862" y="-252.4539" font-family="Helvetica,sans-Serif" font-size="11.00" fill="#000000"> &#160;</text>
</a>
</g>
</g>
<!-- llamadas&#45;&gt;contactos -->
<g id="edge16" class="edge">
<title>llamadas:w&#45;&gt;contactos:e</title>
<path fill="none" stroke="#000000" d="M588.013,-274.3687C540.0807,-274.5799 513.8796,-277.5736 481,-318.3539 438.638,-370.8951 507.9917,-619.3539 440.5,-619.3539"/>
<polygon fill="#000000" stroke="#000000" points="594.5,-274.3621 602.5037,-277.9539 598.5,-274.358 602.5,-274.3539 602.5,-274.3539 602.5,-274.3539 598.5,-274.358 602.4963,-270.7539 594.5,-274.3621 594.5,-274.3621"/>
<ellipse fill="none" stroke="#000000" cx="591.3" cy="-274.3654" rx="3.2" ry="3.2"/>
</g>
<!-- llamadas&#45;&gt;leads -->
<g id="edge17" class="edge">
<title>llamadas:w&#45;&gt;leads:e</title>
<path fill="none" stroke="#000000" d="M588.0675,-274.4387C527.6656,-275.1679 507.4834,-280.3539 440.5,-280.3539"/>
<polygon fill="#000000" stroke="#000000" points="594.5001,-274.4009 602.5212,-277.9538 598.5001,-274.3774 602.5,-274.3539 602.5,-274.3539 602.5,-274.3539 598.5001,-274.3774 602.4788,-270.7539 594.5001,-274.4009 594.5001,-274.4009"/>
<ellipse fill="none" stroke="#000000" cx="591.3002" cy="-274.4198" rx="3.2" ry="3.2"/>
</g>
<!-- llamadas&#45;&gt;usuarios -->
<g id="edge18" class="edge">
<title>llamadas:w&#45;&gt;usuarios:e</title>
<path fill="none" stroke="#000000" d="M587.9895,-274.693C542.0765,-276.9891 525.5412,-290.9962 481,-318.3539 463.853,-328.8857 466.0324,-340.4224 448,-349.3539 411.7595,-367.3037 308.9422,-379.3539 268.5,-379.3539"/>
<polygon fill="#000000" stroke="#000000" points="594.5022,-274.5409 602.5842,-277.9529 598.5011,-274.4474 602.5,-274.3539 602.5,-274.3539 602.5,-274.3539 598.5011,-274.4474 602.4158,-270.7548 594.5022,-274.5409 594.5022,-274.5409"/>
<ellipse fill="none" stroke="#000000" cx="591.3031" cy="-274.6157" rx="3.2" ry="3.2"/>
</g>
<!-- tareas -->
<g id="node14" class="node">
<title>tareas</title>
<g id="a_node14"><a xlink:href="../../tables/tareas.html" xlink:title="tareas" target="_top">
<polygon fill="#ffffff" stroke="transparent" points="489,-411.3539 489,-765.3539 802,-765.3539 802,-411.3539 489,-411.3539"/>
<polygon fill="#f5f5f5" stroke="transparent" points="491.5,-740.3539 491.5,-763.3539 800.5,-763.3539 800.5,-740.3539 491.5,-740.3539"/>
<polygon fill="none" stroke="#000000" points="491.5,-740.3539 491.5,-763.3539 800.5,-763.3539 800.5,-740.3539 491.5,-740.3539"/>
<text text-anchor="start" x="496.5" y="-749.4539" font-family="Helvetica,sans-Serif" font-weight="bold" font-size="11.00" fill="#000000">tareas</text>
<text text-anchor="start" x="765.5437" y="-748.4539" font-family="Helvetica,sans-Serif" font-size="11.00" fill="#000000">[table]</text>
<polygon fill="none" stroke="#000000" points="491.5,-718.3539 491.5,-740.3539 614.5,-740.3539 614.5,-718.3539 491.5,-718.3539"/>
<image xlink:href="../../images/primaryKeys.png" width="11px" height="12px" preserveAspectRatio="xMinYMin meet" x="496.5" y="-735.354"/>
<text text-anchor="start" x="511.5" y="-725.4539" font-family="Helvetica,sans-Serif" font-size="11.00" fill="#000000">tarea_id</text>
<polygon fill="none" stroke="#000000" points="614.5,-718.3539 614.5,-740.3539 800.5,-740.3539 800.5,-718.3539 614.5,-718.3539"/>
<text text-anchor="start" x="617.5" y="-726.0539" font-family="Helvetica,sans-Serif" font-size="11.00" fill="#000000">serial[10]</text>
<polygon fill="none" stroke="#000000" points="491.5,-696.3539 491.5,-718.3539 614.5,-718.3539 614.5,-696.3539 491.5,-696.3539"/>
<text text-anchor="start" x="511.5" y="-703.4539" font-family="Helvetica,sans-Serif" font-size="11.00" fill="#000000">asunto</text>
<polygon fill="none" stroke="#000000" points="614.5,-696.3539 614.5,-718.3539 800.5,-718.3539 800.5,-696.3539 614.5,-696.3539"/>
<text text-anchor="start" x="617.5" y="-704.0539" font-family="Helvetica,sans-Serif" font-size="11.00" fill="#000000">varchar[255]</text>
<polygon fill="none" stroke="#000000" points="491.5,-674.3539 491.5,-696.3539 614.5,-696.3539 614.5,-674.3539 491.5,-674.3539"/>
<text text-anchor="start" x="511.5" y="-681.4539" font-family="Helvetica,sans-Serif" font-size="11.00" fill="#000000">descripcion</text>
<polygon fill="none" stroke="#000000" points="614.5,-674.3539 614.5,-696.3539 800.5,-696.3539 800.5,-674.3539 614.5,-674.3539"/>
<text text-anchor="start" x="617.5" y="-682.0539" font-family="Helvetica,sans-Serif" font-size="11.00" fill="#000000">text[2147483647]</text>
<polygon fill="none" stroke="#000000" points="491.5,-652.3539 491.5,-674.3539 614.5,-674.3539 614.5,-652.3539 491.5,-652.3539"/>
<text text-anchor="start" x="511.5" y="-659.4539" font-family="Helvetica,sans-Serif" font-size="11.00" fill="#000000">estado</text>
<polygon fill="none" stroke="#000000" points="614.5,-652.3539 614.5,-674.3539 800.5,-674.3539 800.5,-652.3539 614.5,-652.3539"/>
<text text-anchor="start" x="617.5" y="-660.0539" font-family="Helvetica,sans-Serif" font-size="11.00" fill="#000000">enum_tareas_estado[2147483647]</text>
<polygon fill="none" stroke="#000000" points="491.5,-630.3539 491.5,-652.3539 614.5,-652.3539 614.5,-630.3539 491.5,-630.3539"/>
<text text-anchor="start" x="511.5" y="-637.4539" font-family="Helvetica,sans-Serif" font-size="11.00" fill="#000000">prioridad</text>
<polygon fill="none" stroke="#000000" points="614.5,-630.3539 614.5,-652.3539 800.5,-652.3539 800.5,-630.3539 614.5,-630.3539"/>
<text text-anchor="start" x="617.3286" y="-638.0539" font-family="Helvetica,sans-Serif" font-size="11.00" fill="#000000">enum_tareas_prioridad[2147483647]</text>
<polygon fill="none" stroke="#000000" points="491.5,-608.3539 491.5,-630.3539 614.5,-630.3539 614.5,-608.3539 491.5,-608.3539"/>
<image xlink:href="../../images/foreignKeys.png" width="11px" height="12px" preserveAspectRatio="xMinYMin meet" x="496.5" y="-625.354"/>
<text text-anchor="start" x="511.5" y="-615.4539" font-family="Helvetica,sans-Serif" font-size="11.00" fill="#000000">contacto_id</text>
<polygon fill="none" stroke="#000000" points="614.5,-608.3539 614.5,-630.3539 800.5,-630.3539 800.5,-608.3539 614.5,-608.3539"/>
<text text-anchor="start" x="617.5" y="-616.0539" font-family="Helvetica,sans-Serif" font-size="11.00" fill="#000000">int4[10]</text>
<polygon fill="none" stroke="#000000" points="491.5,-586.3539 491.5,-608.3539 614.5,-608.3539 614.5,-586.3539 491.5,-586.3539"/>
<image xlink:href="../../images/foreignKeys.png" width="11px" height="12px" preserveAspectRatio="xMinYMin meet" x="496.5" y="-603.354"/>
<text text-anchor="start" x="511.5" y="-593.4539" font-family="Helvetica,sans-Serif" font-size="11.00" fill="#000000">lead_id</text>
<polygon fill="none" stroke="#000000" points="614.5,-586.3539 614.5,-608.3539 800.5,-608.3539 800.5,-586.3539 614.5,-586.3539"/>
<text text-anchor="start" x="617.5" y="-594.0539" font-family="Helvetica,sans-Serif" font-size="11.00" fill="#000000">int4[10]</text>
<polygon fill="none" stroke="#000000" points="491.5,-564.3539 491.5,-586.3539 614.5,-586.3539 614.5,-564.3539 491.5,-564.3539"/>
<text text-anchor="start" x="511.5" y="-571.4539" font-family="Helvetica,sans-Serif" font-size="11.00" fill="#000000">fec_inicio</text>
<polygon fill="none" stroke="#000000" points="614.5,-564.3539 614.5,-586.3539 800.5,-586.3539 800.5,-564.3539 614.5,-564.3539"/>
<text text-anchor="start" x="617.5" y="-572.0539" font-family="Helvetica,sans-Serif" font-size="11.00" fill="#000000">timestamptz[35,6]</text>
<polygon fill="none" stroke="#000000" points="491.5,-542.3539 491.5,-564.3539 614.5,-564.3539 614.5,-542.3539 491.5,-542.3539"/>
<text text-anchor="start" x="511.5" y="-549.4539" font-family="Helvetica,sans-Serif" font-size="11.00" fill="#000000">fec_fin</text>
<polygon fill="none" stroke="#000000" points="614.5,-542.3539 614.5,-564.3539 800.5,-564.3539 800.5,-542.3539 614.5,-542.3539"/>
<text text-anchor="start" x="617.5" y="-550.0539" font-family="Helvetica,sans-Serif" font-size="11.00" fill="#000000">timestamptz[35,6]</text>
<polygon fill="none" stroke="#000000" points="491.5,-520.3539 491.5,-542.3539 614.5,-542.3539 614.5,-520.3539 491.5,-520.3539"/>
<image xlink:href="../../images/foreignKeys.png" width="11px" height="12px" preserveAspectRatio="xMinYMin meet" x="496.5" y="-537.354"/>
<text text-anchor="start" x="511.5" y="-527.4539" font-family="Helvetica,sans-Serif" font-size="11.00" fill="#000000">usu_asignado_id</text>
<polygon fill="none" stroke="#000000" points="614.5,-520.3539 614.5,-542.3539 800.5,-542.3539 800.5,-520.3539 614.5,-520.3539"/>
<text text-anchor="start" x="617.5" y="-528.0539" font-family="Helvetica,sans-Serif" font-size="11.00" fill="#000000">int4[10]</text>
<polygon fill="none" stroke="#000000" points="491.5,-498.3539 491.5,-520.3539 614.5,-520.3539 614.5,-498.3539 491.5,-498.3539"/>
<text text-anchor="start" x="511.5" y="-505.4539" font-family="Helvetica,sans-Serif" font-size="11.00" fill="#000000">usu_insercion</text>
<polygon fill="none" stroke="#000000" points="614.5,-498.3539 614.5,-520.3539 800.5,-520.3539 800.5,-498.3539 614.5,-498.3539"/>
<text text-anchor="start" x="617.5" y="-506.0539" font-family="Helvetica,sans-Serif" font-size="11.00" fill="#000000">varchar[20]</text>
<polygon fill="none" stroke="#000000" points="491.5,-476.3539 491.5,-498.3539 614.5,-498.3539 614.5,-476.3539 491.5,-476.3539"/>
<text text-anchor="start" x="511.5" y="-483.4539" font-family="Helvetica,sans-Serif" font-size="11.00" fill="#000000">fec_insercion</text>
<polygon fill="none" stroke="#000000" points="614.5,-476.3539 614.5,-498.3539 800.5,-498.3539 800.5,-476.3539 614.5,-476.3539"/>
<text text-anchor="start" x="617.5" y="-484.0539" font-family="Helvetica,sans-Serif" font-size="11.00" fill="#000000">timestamptz[35,6]</text>
<polygon fill="none" stroke="#000000" points="491.5,-454.3539 491.5,-476.3539 614.5,-476.3539 614.5,-454.3539 491.5,-454.3539"/>
<text text-anchor="start" x="511.5" y="-461.4539" font-family="Helvetica,sans-Serif" font-size="11.00" fill="#000000">fec_modificacion</text>
<polygon fill="none" stroke="#000000" points="614.5,-454.3539 614.5,-476.3539 800.5,-476.3539 800.5,-454.3539 614.5,-454.3539"/>
<text text-anchor="start" x="617.5" y="-462.0539" font-family="Helvetica,sans-Serif" font-size="11.00" fill="#000000">timestamptz[35,6]</text>
<polygon fill="none" stroke="#000000" points="491.5,-432.3539 491.5,-454.3539 614.5,-454.3539 614.5,-432.3539 491.5,-432.3539"/>
<text text-anchor="start" x="511.5" y="-439.4539" font-family="Helvetica,sans-Serif" font-size="11.00" fill="#000000">usu_modificacion</text>
<polygon fill="none" stroke="#000000" points="614.5,-432.3539 614.5,-454.3539 800.5,-454.3539 800.5,-432.3539 614.5,-432.3539"/>
<text text-anchor="start" x="617.5" y="-440.0539" font-family="Helvetica,sans-Serif" font-size="11.00" fill="#000000">varchar[20]</text>
<polygon fill="#ffffff" stroke="transparent" points="491.5,-413.3539 491.5,-432.3539 544.5,-432.3539 544.5,-413.3539 491.5,-413.3539"/>
<polygon fill="none" stroke="#000000" points="491.5,-413.3539 491.5,-432.3539 544.5,-432.3539 544.5,-413.3539 491.5,-413.3539"/>
<text text-anchor="start" x="494.5" y="-419.4539" font-family="Helvetica,sans-Serif" font-size="11.00" fill="#000000">&lt; 3</text>
<polygon fill="#ffffff" stroke="transparent" points="544.5,-413.3539 544.5,-432.3539 614.5,-432.3539 614.5,-413.3539 544.5,-413.3539"/>
<polygon fill="none" stroke="#000000" points="544.5,-413.3539 544.5,-432.3539 614.5,-432.3539 614.5,-413.3539 544.5,-413.3539"/>
<text text-anchor="start" x="579.1105" y="-419.4539" font-family="Helvetica,sans-Serif" font-size="11.00" fill="#000000">0 rows</text>
<polygon fill="#ffffff" stroke="transparent" points="614.5,-413.3539 614.5,-432.3539 800.5,-432.3539 800.5,-413.3539 614.5,-413.3539"/>
<polygon fill="none" stroke="#000000" points="614.5,-413.3539 614.5,-432.3539 800.5,-432.3539 800.5,-413.3539 614.5,-413.3539"/>
<text text-anchor="start" x="781.9053" y="-419.4539" font-family="Helvetica,sans-Serif" font-size="11.00" fill="#000000">0 &gt;</text>
<polygon fill="none" stroke="#000000" stroke-width="2" points="490,-412.3539 490,-764.3539 801,-764.3539 801,-412.3539 490,-412.3539"/>
</a>
</g>
</g>
<!-- tareas&#45;&gt;contactos -->
<g id="edge25" class="edge">
<title>tareas:w&#45;&gt;contactos:e</title>
<path fill="none" stroke="#000000" d="M476.776,-619.3539C464.7815,-619.3539 457.3229,-619.3539 440.5,-619.3539"/>
<polygon fill="#000000" stroke="#000000" points="483.5,-619.3539 491.5,-622.9539 487.5,-619.3539 491.5,-619.3539 491.5,-619.3539 491.5,-619.3539 487.5,-619.3539 491.5,-615.7539 483.5,-619.3539 483.5,-619.3539"/>
<ellipse fill="none" stroke="#000000" cx="480.3" cy="-619.3539" rx="3.2" ry="3.2"/>
</g>
<!-- tareas&#45;&gt;leads -->
<g id="edge26" class="edge">
<title>tareas:w&#45;&gt;leads:e</title>
<path fill="none" stroke="#000000" d="M477.8894,-592.1162C433.1737,-550.9002 506.4154,-280.3539 440.5,-280.3539"/>
<polygon fill="#000000" stroke="#000000" points="484.0337,-594.4807 490.2071,-600.7137 487.7669,-595.9173 491.5,-597.3539 491.5,-597.3539 491.5,-597.3539 487.7669,-595.9173 492.7929,-593.994 484.0337,-594.4807 484.0337,-594.4807"/>
<ellipse fill="none" stroke="#000000" cx="481.0472" cy="-593.3314" rx="3.2" ry="3.2"/>
</g>
<!-- tareas&#45;&gt;usuarios -->
<g id="edge27" class="edge">
<title>tareas:w&#45;&gt;usuarios:e</title>
<path fill="none" stroke="#000000" d="M477.1914,-528.2918C453.1105,-514.9806 478.8531,-461.5935 448,-434.3539 432.3627,-420.548 289.3597,-379.3539 268.5,-379.3539"/>
<polygon fill="#000000" stroke="#000000" points="483.6771,-529.6797 490.7466,-534.8742 487.5886,-530.5168 491.5,-531.3539 491.5,-531.3539 491.5,-531.3539 487.5886,-530.5168 492.2534,-527.8336 483.6771,-529.6797 483.6771,-529.6797"/>
<ellipse fill="none" stroke="#000000" cx="480.548" cy="-529.0101" rx="3.2" ry="3.2"/>
</g>
</g>
</svg>
