<?xml version="1.0" encoding="UTF-8" standalone="no"?>
<!DOCTYPE svg PUBLIC "-//W3C//DTD SVG 1.1//EN"
 "http://www.w3.org/Graphics/SVG/1.1/DTD/svg11.dtd">
<!-- Generated by graphviz version 2.40.1 (20161225.0304)
 -->
<!-- Title: oneDegreeRelationshipsDiagram Pages: 1 -->
<svg width="352pt" height="245pt"
 viewBox="0.00 0.00 352.00 244.70" xmlns="http://www.w3.org/2000/svg" xmlns:xlink="http://www.w3.org/1999/xlink">
<g id="graph0" class="graph" transform="scale(1 1) rotate(0) translate(4 240.7)">
<title>oneDegreeRelationshipsDiagram</title>
<polygon fill="#ffffff" stroke="transparent" points="-4,4 -4,-240.7 348,-240.7 348,4 -4,4"/>
<text text-anchor="middle" x="72.4936" y="-7.3" font-family="Helvetica,sans-Serif" font-size="11.00" fill="#000000">Generated by SchemaSpy</text>
<!-- tareas -->
<g id="node1" class="node">
<title>tareas</title>
<g id="a_node1"><a xlink:href="../../tables/tareas.html" xlink:title="tareas" target="_top">
<polygon fill="#ffffff" stroke="transparent" points="197,-98.7 197,-232.7 336,-232.7 336,-98.7 197,-98.7"/>
<polygon fill="#f5f5f5" stroke="transparent" points="199.5,-207.7 199.5,-230.7 334.5,-230.7 334.5,-207.7 199.5,-207.7"/>
<polygon fill="none" stroke="#000000" points="199.5,-207.7 199.5,-230.7 334.5,-230.7 334.5,-207.7 199.5,-207.7"/>
<text text-anchor="start" x="204.5" y="-216.8" font-family="Helvetica,sans-Serif" font-weight="bold" font-size="11.00" fill="#000000">tareas</text>
<text text-anchor="start" x="299.5437" y="-215.8" font-family="Helvetica,sans-Serif" font-size="11.00" fill="#000000">[table]</text>
<polygon fill="none" stroke="#000000" points="199.5,-185.7 199.5,-207.7 289.5,-207.7 289.5,-185.7 199.5,-185.7"/>
<image xlink:href="../../images/primaryKeys.png" width="11px" height="12px" preserveAspectRatio="xMinYMin meet" x="204.5" y="-202.7"/>
<text text-anchor="start" x="219.5" y="-192.8" font-family="Helvetica,sans-Serif" font-size="11.00" fill="#000000">tarea_id</text>
<polygon fill="none" stroke="#000000" points="289.5,-185.7 289.5,-207.7 334.5,-207.7 334.5,-185.7 289.5,-185.7"/>
<text text-anchor="start" x="292.5" y="-193.4" font-family="Helvetica,sans-Serif" font-size="11.00" fill="#000000">int4[10]</text>
<polygon fill="none" stroke="#000000" points="199.5,-163.7 199.5,-185.7 289.5,-185.7 289.5,-163.7 199.5,-163.7"/>
<image xlink:href="../../images/foreignKeys.png" width="11px" height="12px" preserveAspectRatio="xMinYMin meet" x="204.5" y="-180.7"/>
<text text-anchor="start" x="219.5" y="-170.8" font-family="Helvetica,sans-Serif" font-size="11.00" fill="#000000">actividad_id</text>
<polygon fill="none" stroke="#000000" points="289.5,-163.7 289.5,-185.7 334.5,-185.7 334.5,-163.7 289.5,-163.7"/>
<text text-anchor="start" x="292.5" y="-171.4" font-family="Helvetica,sans-Serif" font-size="11.00" fill="#000000">int4[10]</text>
<polygon fill="none" stroke="#000000" points="199.5,-141.7 199.5,-163.7 289.5,-163.7 289.5,-141.7 199.5,-141.7"/>
<text text-anchor="start" x="219.5" y="-148.8" font-family="Helvetica,sans-Serif" font-size="11.00" fill="#000000">fec_inicio</text>
<polygon fill="none" stroke="#000000" points="289.5,-141.7 289.5,-163.7 334.5,-163.7 334.5,-141.7 289.5,-141.7"/>
<text text-anchor="start" x="292.1274" y="-149.4" font-family="Helvetica,sans-Serif" font-size="11.00" fill="#000000">date[13]</text>
<polygon fill="none" stroke="#000000" points="199.5,-119.7 199.5,-141.7 289.5,-141.7 289.5,-119.7 199.5,-119.7"/>
<text text-anchor="start" x="219.5" y="-126.8" font-family="Helvetica,sans-Serif" font-size="11.00" fill="#000000">fec_fin</text>
<polygon fill="none" stroke="#000000" points="289.5,-119.7 289.5,-141.7 334.5,-141.7 334.5,-119.7 289.5,-119.7"/>
<text text-anchor="start" x="292.1274" y="-127.4" font-family="Helvetica,sans-Serif" font-size="11.00" fill="#000000">date[13]</text>
<polygon fill="#ffffff" stroke="transparent" points="199.5,-100.7 199.5,-119.7 235.5,-119.7 235.5,-100.7 199.5,-100.7"/>
<polygon fill="none" stroke="#000000" points="199.5,-100.7 199.5,-119.7 235.5,-119.7 235.5,-100.7 199.5,-100.7"/>
<text text-anchor="start" x="202.5" y="-106.8" font-family="Helvetica,sans-Serif" font-size="11.00" fill="#000000">&lt; 1</text>
<polygon fill="#ffffff" stroke="transparent" points="235.5,-100.7 235.5,-119.7 289.5,-119.7 289.5,-100.7 235.5,-100.7"/>
<polygon fill="none" stroke="#000000" points="235.5,-100.7 235.5,-119.7 289.5,-119.7 289.5,-100.7 235.5,-100.7"/>
<text text-anchor="start" x="254.1105" y="-106.8" font-family="Helvetica,sans-Serif" font-size="11.00" fill="#000000">0 rows</text>
<polygon fill="#ffffff" stroke="transparent" points="289.5,-100.7 289.5,-119.7 334.5,-119.7 334.5,-100.7 289.5,-100.7"/>
<polygon fill="none" stroke="#000000" points="289.5,-100.7 289.5,-119.7 334.5,-119.7 334.5,-100.7 289.5,-100.7"/>
<text text-anchor="start" x="315.9053" y="-106.8" font-family="Helvetica,sans-Serif" font-size="11.00" fill="#000000">0 &gt;</text>
<polygon fill="none" stroke="#000000" stroke-width="2" points="198,-99.7 198,-231.7 335,-231.7 335,-99.7 198,-99.7"/>
</a>
</g>
</g>
<!-- actividades -->
<g id="node2" class="node">
<title>actividades</title>
<g id="a_node2"><a xlink:href="../../tables/actividades.html" xlink:title="actividades" target="_top">
<polygon fill="#ffffff" stroke="transparent" points="8,-38.2 8,-209.2 148,-209.2 148,-38.2 8,-38.2"/>
<polygon fill="#f5f5f5" stroke="transparent" points="8,-185.7 8,-208.7 148,-208.7 148,-185.7 8,-185.7"/>
<polygon fill="none" stroke="#000000" points="8,-185.7 8,-208.7 148,-208.7 148,-185.7 8,-185.7"/>
<text text-anchor="start" x="13" y="-194.8" font-family="Helvetica,sans-Serif" font-weight="bold" font-size="11.00" fill="#000000">actividades</text>
<text text-anchor="start" x="113.0437" y="-193.8" font-family="Helvetica,sans-Serif" font-size="11.00" fill="#000000">[table]</text>
<polygon fill="none" stroke="#000000" points="8,-163.7 8,-185.7 148,-185.7 148,-163.7 8,-163.7"/>
<image xlink:href="../../images/primaryKeys.png" width="11px" height="12px" preserveAspectRatio="xMinYMin meet" x="13" y="-180.7"/>
<text text-anchor="start" x="28" y="-170.8" font-family="Helvetica,sans-Serif" font-size="11.00" fill="#000000">actividad_id</text>
<polygon fill="none" stroke="#000000" points="8,-141.7 8,-163.7 148,-163.7 148,-141.7 8,-141.7"/>
<image xlink:href="../../images/foreignKeys.png" width="11px" height="12px" preserveAspectRatio="xMinYMin meet" x="13" y="-158.7"/>
<text text-anchor="start" x="28" y="-148.8" font-family="Helvetica,sans-Serif" font-size="11.00" fill="#000000">usu_asignado_id</text>
<polygon fill="none" stroke="#000000" points="8,-119.7 8,-141.7 148,-141.7 148,-119.7 8,-119.7"/>
<image xlink:href="../../images/foreignKeys.png" width="11px" height="12px" preserveAspectRatio="xMinYMin meet" x="13" y="-136.7"/>
<text text-anchor="start" x="28" y="-126.8" font-family="Helvetica,sans-Serif" font-size="11.00" fill="#000000">usu_insercion_id</text>
<polygon fill="none" stroke="#000000" points="8,-97.7 8,-119.7 148,-119.7 148,-97.7 8,-97.7"/>
<image xlink:href="../../images/foreignKeys.png" width="11px" height="12px" preserveAspectRatio="xMinYMin meet" x="13" y="-114.7"/>
<text text-anchor="start" x="28" y="-104.8" font-family="Helvetica,sans-Serif" font-size="11.00" fill="#000000">usu_modificacion_id</text>
<polygon fill="none" stroke="#000000" points="8,-75.7 8,-97.7 148,-97.7 148,-75.7 8,-75.7"/>
<image xlink:href="../../images/foreignKeys.png" width="11px" height="12px" preserveAspectRatio="xMinYMin meet" x="13" y="-92.7"/>
<text text-anchor="start" x="28" y="-82.8" font-family="Helvetica,sans-Serif" font-size="11.00" fill="#000000">usu_eliminacion_id</text>
<polygon fill="none" stroke="#000000" points="8,-56.7 8,-75.7 148,-75.7 148,-56.7 8,-56.7"/>
<text text-anchor="start" x="11" y="-62.8" font-family="Helvetica,sans-Serif" font-size="11.00" fill="#000000">...</text>
<polygon fill="#ffffff" stroke="transparent" points="8,-37.7 8,-56.7 59,-56.7 59,-37.7 8,-37.7"/>
<polygon fill="none" stroke="#000000" points="8,-37.7 8,-56.7 59,-56.7 59,-37.7 8,-37.7"/>
<text text-anchor="start" x="11" y="-43.8" font-family="Helvetica,sans-Serif" font-size="11.00" fill="#000000">&lt; 4</text>
<polygon fill="#ffffff" stroke="transparent" points="59,-37.7 59,-56.7 112,-56.7 112,-37.7 59,-37.7"/>
<polygon fill="none" stroke="#000000" points="59,-37.7 59,-56.7 112,-56.7 112,-37.7 59,-37.7"/>
<text text-anchor="start" x="76.6105" y="-43.8" font-family="Helvetica,sans-Serif" font-size="11.00" fill="#000000">0 rows</text>
<polygon fill="#ffffff" stroke="transparent" points="112,-37.7 112,-56.7 148,-56.7 148,-37.7 112,-37.7"/>
<polygon fill="none" stroke="#000000" points="112,-37.7 112,-56.7 148,-56.7 148,-37.7 112,-37.7"/>
<text text-anchor="start" x="129.4053" y="-43.8" font-family="Helvetica,sans-Serif" font-size="11.00" fill="#000000">2 &gt;</text>
</a>
</g>
</g>
<!-- tareas&#45;&gt;actividades -->
<g id="edge1" class="edge">
<title>tareas:w&#45;&gt;actividades:e</title>
<path fill="none" stroke="#000000" d="M185.0156,-174.7C172.6771,-174.7 165.1667,-174.7 148,-174.7"/>
<polygon fill="#000000" stroke="#000000" points="191.5,-174.7001 199.5,-178.3 195.5,-174.7 199.5,-174.7 199.5,-174.7 199.5,-174.7 195.5,-174.7 199.5,-171.1 191.5,-174.7001 191.5,-174.7001"/>
<ellipse fill="none" stroke="#000000" cx="188.3" cy="-174.7001" rx="3.2" ry="3.2"/>
</g>
</g>
</svg>
