<?xml version="1.0" encoding="UTF-8" standalone="no"?>
<!DOCTYPE svg PUBLIC "-//W3C//DTD SVG 1.1//EN"
 "http://www.w3.org/Graphics/SVG/1.1/DTD/svg11.dtd">
<!-- Generated by graphviz version 2.40.1 (20161225.0304)
 -->
<!-- Title: oneDegreeRelationshipsDiagram Pages: 1 -->
<svg width="681pt" height="422pt"
 viewBox="0.00 0.00 681.00 421.94" xmlns="http://www.w3.org/2000/svg" xmlns:xlink="http://www.w3.org/1999/xlink">
<g id="graph0" class="graph" transform="scale(1 1) rotate(0) translate(4 417.9419)">
<title>oneDegreeRelationshipsDiagram</title>
<polygon fill="#ffffff" stroke="transparent" points="-4,4 -4,-417.9419 677,-417.9419 677,4 -4,4"/>
<text text-anchor="middle" x="72.4936" y="-7.3" font-family="Helvetica,sans-Serif" font-size="11.00" fill="#000000">Generated by SchemaSpy</text>
<!-- leads -->
<g id="node1" class="node">
<title>leads</title>
<g id="a_node1"><a xlink:href="../../tables/leads.html" xlink:title="leads" target="_top">
<polygon fill="#ffffff" stroke="transparent" points="180,-68.9419 180,-261.9419 303,-261.9419 303,-68.9419 180,-68.9419"/>
<polygon fill="#f5f5f5" stroke="transparent" points="180.5,-238.4419 180.5,-261.4419 303.5,-261.4419 303.5,-238.4419 180.5,-238.4419"/>
<polygon fill="none" stroke="#000000" points="180.5,-238.4419 180.5,-261.4419 303.5,-261.4419 303.5,-238.4419 180.5,-238.4419"/>
<text text-anchor="start" x="185.5" y="-247.5419" font-family="Helvetica,sans-Serif" font-weight="bold" font-size="11.00" fill="#000000">leads</text>
<text text-anchor="start" x="268.5437" y="-246.5419" font-family="Helvetica,sans-Serif" font-size="11.00" fill="#000000">[table]</text>
<polygon fill="none" stroke="#000000" points="180.5,-216.4419 180.5,-238.4419 303.5,-238.4419 303.5,-216.4419 180.5,-216.4419"/>
<image xlink:href="../../images/primaryKeys.png" width="11px" height="12px" preserveAspectRatio="xMinYMin meet" x="185.5" y="-233.442"/>
<text text-anchor="start" x="200.5" y="-223.5419" font-family="Helvetica,sans-Serif" font-size="11.00" fill="#000000">lead_id</text>
<polygon fill="none" stroke="#000000" points="180.5,-194.4419 180.5,-216.4419 303.5,-216.4419 303.5,-194.4419 180.5,-194.4419"/>
<image xlink:href="../../images/foreignKeys.png" width="11px" height="12px" preserveAspectRatio="xMinYMin meet" x="185.5" y="-211.442"/>
<text text-anchor="start" x="200.5" y="-201.5419" font-family="Helvetica,sans-Serif" font-size="11.00" fill="#000000">usu_asignado_id</text>
<polygon fill="none" stroke="#000000" points="180.5,-172.4419 180.5,-194.4419 303.5,-194.4419 303.5,-172.4419 180.5,-172.4419"/>
<image xlink:href="../../images/foreignKeys.png" width="11px" height="12px" preserveAspectRatio="xMinYMin meet" x="185.5" y="-189.442"/>
<text text-anchor="start" x="200.5" y="-179.5419" font-family="Helvetica,sans-Serif" font-size="11.00" fill="#000000">campana_id</text>
<polygon fill="none" stroke="#000000" points="180.5,-150.4419 180.5,-172.4419 303.5,-172.4419 303.5,-150.4419 180.5,-150.4419"/>
<image xlink:href="../../images/foreignKeys.png" width="11px" height="12px" preserveAspectRatio="xMinYMin meet" x="185.5" y="-167.442"/>
<text text-anchor="start" x="200.5" y="-157.5419" font-family="Helvetica,sans-Serif" font-size="11.00" fill="#000000">persona_id</text>
<polygon fill="none" stroke="#000000" points="180.5,-128.4419 180.5,-150.4419 303.5,-150.4419 303.5,-128.4419 180.5,-128.4419"/>
<image xlink:href="../../images/foreignKeys.png" width="11px" height="12px" preserveAspectRatio="xMinYMin meet" x="185.5" y="-145.442"/>
<text text-anchor="start" x="200.5" y="-135.5419" font-family="Helvetica,sans-Serif" font-size="11.00" fill="#000000">curso_id</text>
<polygon fill="none" stroke="#000000" points="180.5,-106.4419 180.5,-128.4419 303.5,-128.4419 303.5,-106.4419 180.5,-106.4419"/>
<image xlink:href="../../images/foreignKeys.png" width="11px" height="12px" preserveAspectRatio="xMinYMin meet" x="185.5" y="-123.442"/>
<text text-anchor="start" x="200.5" y="-113.5419" font-family="Helvetica,sans-Serif" font-size="11.00" fill="#000000">ciclo_id</text>
<polygon fill="none" stroke="#000000" points="180.5,-87.4419 180.5,-106.4419 303.5,-106.4419 303.5,-87.4419 180.5,-87.4419"/>
<text text-anchor="start" x="183.5" y="-93.5419" font-family="Helvetica,sans-Serif" font-size="11.00" fill="#000000">...</text>
<polygon fill="#ffffff" stroke="transparent" points="180.5,-68.4419 180.5,-87.4419 222.5,-87.4419 222.5,-68.4419 180.5,-68.4419"/>
<polygon fill="none" stroke="#000000" points="180.5,-68.4419 180.5,-87.4419 222.5,-87.4419 222.5,-68.4419 180.5,-68.4419"/>
<text text-anchor="start" x="183.5" y="-74.5419" font-family="Helvetica,sans-Serif" font-size="11.00" fill="#000000">&lt; 5</text>
<polygon fill="#ffffff" stroke="transparent" points="222.5,-68.4419 222.5,-87.4419 271.5,-87.4419 271.5,-68.4419 222.5,-68.4419"/>
<polygon fill="none" stroke="#000000" points="222.5,-68.4419 222.5,-87.4419 271.5,-87.4419 271.5,-68.4419 222.5,-68.4419"/>
<text text-anchor="start" x="236.1105" y="-74.5419" font-family="Helvetica,sans-Serif" font-size="11.00" fill="#000000">4 rows</text>
<polygon fill="#ffffff" stroke="transparent" points="271.5,-68.4419 271.5,-87.4419 303.5,-87.4419 303.5,-68.4419 271.5,-68.4419"/>
<polygon fill="none" stroke="#000000" points="271.5,-68.4419 271.5,-87.4419 303.5,-87.4419 303.5,-68.4419 271.5,-68.4419"/>
<text text-anchor="start" x="284.9053" y="-74.5419" font-family="Helvetica,sans-Serif" font-size="11.00" fill="#000000">3 &gt;</text>
</a>
</g>
</g>
<!-- usuarios -->
<g id="node2" class="node">
<title>usuarios</title>
<g id="a_node2"><a xlink:href="../../tables/usuarios.html" xlink:title="usuarios" target="_top">
<polygon fill="#ffffff" stroke="transparent" points="8,-53.9419 8,-158.9419 131,-158.9419 131,-53.9419 8,-53.9419"/>
<polygon fill="#f5f5f5" stroke="transparent" points="8.5,-135.4419 8.5,-158.4419 131.5,-158.4419 131.5,-135.4419 8.5,-135.4419"/>
<polygon fill="none" stroke="#000000" points="8.5,-135.4419 8.5,-158.4419 131.5,-158.4419 131.5,-135.4419 8.5,-135.4419"/>
<text text-anchor="start" x="13.5" y="-144.5419" font-family="Helvetica,sans-Serif" font-weight="bold" font-size="11.00" fill="#000000">usuarios</text>
<text text-anchor="start" x="96.5437" y="-143.5419" font-family="Helvetica,sans-Serif" font-size="11.00" fill="#000000">[table]</text>
<polygon fill="none" stroke="#000000" points="8.5,-113.4419 8.5,-135.4419 131.5,-135.4419 131.5,-113.4419 8.5,-113.4419"/>
<image xlink:href="../../images/primaryKeys.png" width="11px" height="12px" preserveAspectRatio="xMinYMin meet" x="13.5" y="-130.442"/>
<text text-anchor="start" x="28.5" y="-120.5419" font-family="Helvetica,sans-Serif" font-size="11.00" fill="#000000">usuario_id</text>
<polygon fill="#ffffff" stroke="transparent" points="8.5,-91.4419 8.5,-113.4419 131.5,-113.4419 131.5,-91.4419 8.5,-91.4419"/>
<polygon fill="none" stroke="#000000" points="8.5,-91.4419 8.5,-113.4419 131.5,-113.4419 131.5,-91.4419 8.5,-91.4419"/>
<text text-anchor="start" x="28.5" y="-98.5419" font-family="Helvetica,sans-Serif" font-size="11.00" fill="#000000">nom_usuario</text>
<polygon fill="none" stroke="#000000" points="8.5,-72.4419 8.5,-91.4419 131.5,-91.4419 131.5,-72.4419 8.5,-72.4419"/>
<text text-anchor="start" x="11.5" y="-78.5419" font-family="Helvetica,sans-Serif" font-size="11.00" fill="#000000">...</text>
<polygon fill="#ffffff" stroke="transparent" points="8.5,-53.4419 8.5,-72.4419 49.5,-72.4419 49.5,-53.4419 8.5,-53.4419"/>
<polygon fill="none" stroke="#000000" points="8.5,-53.4419 8.5,-72.4419 49.5,-72.4419 49.5,-53.4419 8.5,-53.4419"/>
<text text-anchor="start" x="11.5" y="-59.5419" font-family="Helvetica,sans-Serif" font-size="11.00" fill="#000000"> &#160;</text>
<polygon fill="#ffffff" stroke="transparent" points="49.5,-53.4419 49.5,-72.4419 95.5,-72.4419 95.5,-53.4419 49.5,-53.4419"/>
<polygon fill="none" stroke="#000000" points="49.5,-53.4419 49.5,-72.4419 95.5,-72.4419 95.5,-53.4419 49.5,-53.4419"/>
<text text-anchor="start" x="65.6105" y="-59.5419" font-family="Helvetica,sans-Serif" font-size="11.00" fill="#000000">1 row</text>
<polygon fill="#ffffff" stroke="transparent" points="95.5,-53.4419 95.5,-72.4419 131.5,-72.4419 131.5,-53.4419 95.5,-53.4419"/>
<polygon fill="none" stroke="#000000" points="95.5,-53.4419 95.5,-72.4419 131.5,-72.4419 131.5,-53.4419 95.5,-53.4419"/>
<text text-anchor="start" x="112.9053" y="-59.5419" font-family="Helvetica,sans-Serif" font-size="11.00" fill="#000000">6 &gt;</text>
</a>
</g>
</g>
<!-- leads&#45;&gt;usuarios -->
<g id="edge1" class="edge">
<title>leads:w&#45;&gt;usuarios:e</title>
<path fill="none" stroke="#000000" d="M166.6299,-200.8549C146.9726,-183.7199 167.4935,-124.4419 131.5,-124.4419"/>
<polygon fill="#000000" stroke="#000000" points="172.9046,-202.93 179.3696,-208.8598 176.7023,-204.1859 180.5,-205.4419 180.5,-205.4419 180.5,-205.4419 176.7023,-204.1859 181.6304,-202.024 172.9046,-202.93 172.9046,-202.93"/>
<ellipse fill="none" stroke="#000000" cx="169.8664" cy="-201.9252" rx="3.2" ry="3.2"/>
</g>
<!-- tareas -->
<g id="node3" class="node">
<title>tareas</title>
<g id="a_node3"><a xlink:href="../../tables/tareas.html" xlink:title="tareas" target="_top">
<polygon fill="#ffffff" stroke="transparent" points="352,-41.4419 352,-395.4419 665,-395.4419 665,-41.4419 352,-41.4419"/>
<polygon fill="#f5f5f5" stroke="transparent" points="354.5,-370.4419 354.5,-393.4419 663.5,-393.4419 663.5,-370.4419 354.5,-370.4419"/>
<polygon fill="none" stroke="#000000" points="354.5,-370.4419 354.5,-393.4419 663.5,-393.4419 663.5,-370.4419 354.5,-370.4419"/>
<text text-anchor="start" x="359.5" y="-379.5419" font-family="Helvetica,sans-Serif" font-weight="bold" font-size="11.00" fill="#000000">tareas</text>
<text text-anchor="start" x="628.5437" y="-378.5419" font-family="Helvetica,sans-Serif" font-size="11.00" fill="#000000">[table]</text>
<polygon fill="none" stroke="#000000" points="354.5,-348.4419 354.5,-370.4419 477.5,-370.4419 477.5,-348.4419 354.5,-348.4419"/>
<image xlink:href="../../images/primaryKeys.png" width="11px" height="12px" preserveAspectRatio="xMinYMin meet" x="359.5" y="-365.442"/>
<text text-anchor="start" x="374.5" y="-355.5419" font-family="Helvetica,sans-Serif" font-size="11.00" fill="#000000">tarea_id</text>
<polygon fill="none" stroke="#000000" points="477.5,-348.4419 477.5,-370.4419 663.5,-370.4419 663.5,-348.4419 477.5,-348.4419"/>
<text text-anchor="start" x="480.5" y="-356.1419" font-family="Helvetica,sans-Serif" font-size="11.00" fill="#000000">serial[10]</text>
<polygon fill="none" stroke="#000000" points="354.5,-326.4419 354.5,-348.4419 477.5,-348.4419 477.5,-326.4419 354.5,-326.4419"/>
<text text-anchor="start" x="374.5" y="-333.5419" font-family="Helvetica,sans-Serif" font-size="11.00" fill="#000000">asunto</text>
<polygon fill="none" stroke="#000000" points="477.5,-326.4419 477.5,-348.4419 663.5,-348.4419 663.5,-326.4419 477.5,-326.4419"/>
<text text-anchor="start" x="480.5" y="-334.1419" font-family="Helvetica,sans-Serif" font-size="11.00" fill="#000000">varchar[255]</text>
<polygon fill="none" stroke="#000000" points="354.5,-304.4419 354.5,-326.4419 477.5,-326.4419 477.5,-304.4419 354.5,-304.4419"/>
<text text-anchor="start" x="374.5" y="-311.5419" font-family="Helvetica,sans-Serif" font-size="11.00" fill="#000000">descripcion</text>
<polygon fill="none" stroke="#000000" points="477.5,-304.4419 477.5,-326.4419 663.5,-326.4419 663.5,-304.4419 477.5,-304.4419"/>
<text text-anchor="start" x="480.5" y="-312.1419" font-family="Helvetica,sans-Serif" font-size="11.00" fill="#000000">text[2147483647]</text>
<polygon fill="none" stroke="#000000" points="354.5,-282.4419 354.5,-304.4419 477.5,-304.4419 477.5,-282.4419 354.5,-282.4419"/>
<text text-anchor="start" x="374.5" y="-289.5419" font-family="Helvetica,sans-Serif" font-size="11.00" fill="#000000">estado</text>
<polygon fill="none" stroke="#000000" points="477.5,-282.4419 477.5,-304.4419 663.5,-304.4419 663.5,-282.4419 477.5,-282.4419"/>
<text text-anchor="start" x="480.5" y="-290.1419" font-family="Helvetica,sans-Serif" font-size="11.00" fill="#000000">enum_tareas_estado[2147483647]</text>
<polygon fill="none" stroke="#000000" points="354.5,-260.4419 354.5,-282.4419 477.5,-282.4419 477.5,-260.4419 354.5,-260.4419"/>
<text text-anchor="start" x="374.5" y="-267.5419" font-family="Helvetica,sans-Serif" font-size="11.00" fill="#000000">prioridad</text>
<polygon fill="none" stroke="#000000" points="477.5,-260.4419 477.5,-282.4419 663.5,-282.4419 663.5,-260.4419 477.5,-260.4419"/>
<text text-anchor="start" x="480.3286" y="-268.1419" font-family="Helvetica,sans-Serif" font-size="11.00" fill="#000000">enum_tareas_prioridad[2147483647]</text>
<polygon fill="none" stroke="#000000" points="354.5,-238.4419 354.5,-260.4419 477.5,-260.4419 477.5,-238.4419 354.5,-238.4419"/>
<image xlink:href="../../images/foreignKeys.png" width="11px" height="12px" preserveAspectRatio="xMinYMin meet" x="359.5" y="-255.442"/>
<text text-anchor="start" x="374.5" y="-245.5419" font-family="Helvetica,sans-Serif" font-size="11.00" fill="#000000">contacto_id</text>
<polygon fill="none" stroke="#000000" points="477.5,-238.4419 477.5,-260.4419 663.5,-260.4419 663.5,-238.4419 477.5,-238.4419"/>
<text text-anchor="start" x="480.5" y="-246.1419" font-family="Helvetica,sans-Serif" font-size="11.00" fill="#000000">int4[10]</text>
<polygon fill="none" stroke="#000000" points="354.5,-216.4419 354.5,-238.4419 477.5,-238.4419 477.5,-216.4419 354.5,-216.4419"/>
<image xlink:href="../../images/foreignKeys.png" width="11px" height="12px" preserveAspectRatio="xMinYMin meet" x="359.5" y="-233.442"/>
<text text-anchor="start" x="374.5" y="-223.5419" font-family="Helvetica,sans-Serif" font-size="11.00" fill="#000000">lead_id</text>
<polygon fill="none" stroke="#000000" points="477.5,-216.4419 477.5,-238.4419 663.5,-238.4419 663.5,-216.4419 477.5,-216.4419"/>
<text text-anchor="start" x="480.5" y="-224.1419" font-family="Helvetica,sans-Serif" font-size="11.00" fill="#000000">int4[10]</text>
<polygon fill="none" stroke="#000000" points="354.5,-194.4419 354.5,-216.4419 477.5,-216.4419 477.5,-194.4419 354.5,-194.4419"/>
<text text-anchor="start" x="374.5" y="-201.5419" font-family="Helvetica,sans-Serif" font-size="11.00" fill="#000000">fec_inicio</text>
<polygon fill="none" stroke="#000000" points="477.5,-194.4419 477.5,-216.4419 663.5,-216.4419 663.5,-194.4419 477.5,-194.4419"/>
<text text-anchor="start" x="480.5" y="-202.1419" font-family="Helvetica,sans-Serif" font-size="11.00" fill="#000000">timestamptz[35,6]</text>
<polygon fill="none" stroke="#000000" points="354.5,-172.4419 354.5,-194.4419 477.5,-194.4419 477.5,-172.4419 354.5,-172.4419"/>
<text text-anchor="start" x="374.5" y="-179.5419" font-family="Helvetica,sans-Serif" font-size="11.00" fill="#000000">fec_fin</text>
<polygon fill="none" stroke="#000000" points="477.5,-172.4419 477.5,-194.4419 663.5,-194.4419 663.5,-172.4419 477.5,-172.4419"/>
<text text-anchor="start" x="480.5" y="-180.1419" font-family="Helvetica,sans-Serif" font-size="11.00" fill="#000000">timestamptz[35,6]</text>
<polygon fill="none" stroke="#000000" points="354.5,-150.4419 354.5,-172.4419 477.5,-172.4419 477.5,-150.4419 354.5,-150.4419"/>
<image xlink:href="../../images/foreignKeys.png" width="11px" height="12px" preserveAspectRatio="xMinYMin meet" x="359.5" y="-167.442"/>
<text text-anchor="start" x="374.5" y="-157.5419" font-family="Helvetica,sans-Serif" font-size="11.00" fill="#000000">usu_asignado_id</text>
<polygon fill="none" stroke="#000000" points="477.5,-150.4419 477.5,-172.4419 663.5,-172.4419 663.5,-150.4419 477.5,-150.4419"/>
<text text-anchor="start" x="480.5" y="-158.1419" font-family="Helvetica,sans-Serif" font-size="11.00" fill="#000000">int4[10]</text>
<polygon fill="none" stroke="#000000" points="354.5,-128.4419 354.5,-150.4419 477.5,-150.4419 477.5,-128.4419 354.5,-128.4419"/>
<text text-anchor="start" x="374.5" y="-135.5419" font-family="Helvetica,sans-Serif" font-size="11.00" fill="#000000">usu_insercion</text>
<polygon fill="none" stroke="#000000" points="477.5,-128.4419 477.5,-150.4419 663.5,-150.4419 663.5,-128.4419 477.5,-128.4419"/>
<text text-anchor="start" x="480.5" y="-136.1419" font-family="Helvetica,sans-Serif" font-size="11.00" fill="#000000">varchar[20]</text>
<polygon fill="none" stroke="#000000" points="354.5,-106.4419 354.5,-128.4419 477.5,-128.4419 477.5,-106.4419 354.5,-106.4419"/>
<text text-anchor="start" x="374.5" y="-113.5419" font-family="Helvetica,sans-Serif" font-size="11.00" fill="#000000">fec_insercion</text>
<polygon fill="none" stroke="#000000" points="477.5,-106.4419 477.5,-128.4419 663.5,-128.4419 663.5,-106.4419 477.5,-106.4419"/>
<text text-anchor="start" x="480.5" y="-114.1419" font-family="Helvetica,sans-Serif" font-size="11.00" fill="#000000">timestamptz[35,6]</text>
<polygon fill="none" stroke="#000000" points="354.5,-84.4419 354.5,-106.4419 477.5,-106.4419 477.5,-84.4419 354.5,-84.4419"/>
<text text-anchor="start" x="374.5" y="-91.5419" font-family="Helvetica,sans-Serif" font-size="11.00" fill="#000000">fec_modificacion</text>
<polygon fill="none" stroke="#000000" points="477.5,-84.4419 477.5,-106.4419 663.5,-106.4419 663.5,-84.4419 477.5,-84.4419"/>
<text text-anchor="start" x="480.5" y="-92.1419" font-family="Helvetica,sans-Serif" font-size="11.00" fill="#000000">timestamptz[35,6]</text>
<polygon fill="none" stroke="#000000" points="354.5,-62.4419 354.5,-84.4419 477.5,-84.4419 477.5,-62.4419 354.5,-62.4419"/>
<text text-anchor="start" x="374.5" y="-69.5419" font-family="Helvetica,sans-Serif" font-size="11.00" fill="#000000">usu_modificacion</text>
<polygon fill="none" stroke="#000000" points="477.5,-62.4419 477.5,-84.4419 663.5,-84.4419 663.5,-62.4419 477.5,-62.4419"/>
<text text-anchor="start" x="480.5" y="-70.1419" font-family="Helvetica,sans-Serif" font-size="11.00" fill="#000000">varchar[20]</text>
<polygon fill="#ffffff" stroke="transparent" points="354.5,-43.4419 354.5,-62.4419 407.5,-62.4419 407.5,-43.4419 354.5,-43.4419"/>
<polygon fill="none" stroke="#000000" points="354.5,-43.4419 354.5,-62.4419 407.5,-62.4419 407.5,-43.4419 354.5,-43.4419"/>
<text text-anchor="start" x="357.5" y="-49.5419" font-family="Helvetica,sans-Serif" font-size="11.00" fill="#000000">&lt; 3</text>
<polygon fill="#ffffff" stroke="transparent" points="407.5,-43.4419 407.5,-62.4419 477.5,-62.4419 477.5,-43.4419 407.5,-43.4419"/>
<polygon fill="none" stroke="#000000" points="407.5,-43.4419 407.5,-62.4419 477.5,-62.4419 477.5,-43.4419 407.5,-43.4419"/>
<text text-anchor="start" x="442.1105" y="-49.5419" font-family="Helvetica,sans-Serif" font-size="11.00" fill="#000000">0 rows</text>
<polygon fill="#ffffff" stroke="transparent" points="477.5,-43.4419 477.5,-62.4419 663.5,-62.4419 663.5,-43.4419 477.5,-43.4419"/>
<polygon fill="none" stroke="#000000" points="477.5,-43.4419 477.5,-62.4419 663.5,-62.4419 663.5,-43.4419 477.5,-43.4419"/>
<text text-anchor="start" x="644.9053" y="-49.5419" font-family="Helvetica,sans-Serif" font-size="11.00" fill="#000000">0 &gt;</text>
<polygon fill="none" stroke="#000000" stroke-width="2" points="353,-42.4419 353,-394.4419 664,-394.4419 664,-42.4419 353,-42.4419"/>
</a>
</g>
</g>
<!-- tareas&#45;&gt;leads -->
<g id="edge3" class="edge">
<title>tareas:w&#45;&gt;leads:e</title>
<path fill="none" stroke="#000000" d="M339.776,-227.4419C327.7815,-227.4419 320.3229,-227.4419 303.5,-227.4419"/>
<polygon fill="#000000" stroke="#000000" points="346.5,-227.442 354.5,-231.0419 350.5,-227.4419 354.5,-227.4419 354.5,-227.4419 354.5,-227.4419 350.5,-227.4419 354.5,-223.8419 346.5,-227.442 346.5,-227.442"/>
<ellipse fill="none" stroke="#000000" cx="343.3" cy="-227.442" rx="3.2" ry="3.2"/>
</g>
<!-- tareas&#45;&gt;usuarios -->
<g id="edge4" class="edge">
<title>tareas:w&#45;&gt;usuarios:e</title>
<path fill="none" stroke="#000000" d="M340.397,-158.3385C315.0314,-143.8532 347.3983,-82.5811 311,-58.4419 259.5154,-24.2976 225.91,-28.2723 172,-58.4419 141.9673,-75.2491 165.9158,-124.4419 131.5,-124.4419"/>
<polygon fill="#000000" stroke="#000000" points="346.6869,-159.7226 353.7263,-164.9578 350.5935,-160.5822 354.5,-161.4419 354.5,-161.4419 354.5,-161.4419 350.5935,-160.5822 355.2737,-157.926 346.6869,-159.7226 346.6869,-159.7226"/>
<ellipse fill="none" stroke="#000000" cx="343.5617" cy="-159.0349" rx="3.2" ry="3.2"/>
</g>
<!-- contactos -->
<g id="node4" class="node">
<title>contactos</title>
<g id="a_node4"><a xlink:href="../../tables/contactos.html" xlink:title="contactos" target="_top">
<polygon fill="#ffffff" stroke="transparent" points="180,-282.9419 180,-409.9419 303,-409.9419 303,-282.9419 180,-282.9419"/>
<polygon fill="#f5f5f5" stroke="transparent" points="180.5,-386.4419 180.5,-409.4419 303.5,-409.4419 303.5,-386.4419 180.5,-386.4419"/>
<polygon fill="none" stroke="#000000" points="180.5,-386.4419 180.5,-409.4419 303.5,-409.4419 303.5,-386.4419 180.5,-386.4419"/>
<text text-anchor="start" x="185.5" y="-395.5419" font-family="Helvetica,sans-Serif" font-weight="bold" font-size="11.00" fill="#000000">contactos</text>
<text text-anchor="start" x="268.5437" y="-394.5419" font-family="Helvetica,sans-Serif" font-size="11.00" fill="#000000">[table]</text>
<polygon fill="none" stroke="#000000" points="180.5,-364.4419 180.5,-386.4419 303.5,-386.4419 303.5,-364.4419 180.5,-364.4419"/>
<image xlink:href="../../images/primaryKeys.png" width="11px" height="12px" preserveAspectRatio="xMinYMin meet" x="185.5" y="-381.442"/>
<text text-anchor="start" x="200.5" y="-371.5419" font-family="Helvetica,sans-Serif" font-size="11.00" fill="#000000">contacto_id</text>
<polygon fill="none" stroke="#000000" points="180.5,-342.4419 180.5,-364.4419 303.5,-364.4419 303.5,-342.4419 180.5,-342.4419"/>
<image xlink:href="../../images/foreignKeys.png" width="11px" height="12px" preserveAspectRatio="xMinYMin meet" x="185.5" y="-359.442"/>
<text text-anchor="start" x="200.5" y="-349.5419" font-family="Helvetica,sans-Serif" font-size="11.00" fill="#000000">persona_id</text>
<polygon fill="none" stroke="#000000" points="180.5,-320.4419 180.5,-342.4419 303.5,-342.4419 303.5,-320.4419 180.5,-320.4419"/>
<image xlink:href="../../images/foreignKeys.png" width="11px" height="12px" preserveAspectRatio="xMinYMin meet" x="185.5" y="-337.442"/>
<text text-anchor="start" x="200.5" y="-327.5419" font-family="Helvetica,sans-Serif" font-size="11.00" fill="#000000">organizacion_id</text>
<polygon fill="none" stroke="#000000" points="180.5,-301.4419 180.5,-320.4419 303.5,-320.4419 303.5,-301.4419 180.5,-301.4419"/>
<text text-anchor="start" x="183.5" y="-307.5419" font-family="Helvetica,sans-Serif" font-size="11.00" fill="#000000">...</text>
<polygon fill="#ffffff" stroke="transparent" points="180.5,-282.4419 180.5,-301.4419 222.5,-301.4419 222.5,-282.4419 180.5,-282.4419"/>
<polygon fill="none" stroke="#000000" points="180.5,-282.4419 180.5,-301.4419 222.5,-301.4419 222.5,-282.4419 180.5,-282.4419"/>
<text text-anchor="start" x="183.5" y="-288.5419" font-family="Helvetica,sans-Serif" font-size="11.00" fill="#000000">&lt; 2</text>
<polygon fill="#ffffff" stroke="transparent" points="222.5,-282.4419 222.5,-301.4419 271.5,-301.4419 271.5,-282.4419 222.5,-282.4419"/>
<polygon fill="none" stroke="#000000" points="222.5,-282.4419 222.5,-301.4419 271.5,-301.4419 271.5,-282.4419 222.5,-282.4419"/>
<text text-anchor="start" x="236.1105" y="-288.5419" font-family="Helvetica,sans-Serif" font-size="11.00" fill="#000000">5 rows</text>
<polygon fill="#ffffff" stroke="transparent" points="271.5,-282.4419 271.5,-301.4419 303.5,-301.4419 303.5,-282.4419 271.5,-282.4419"/>
<polygon fill="none" stroke="#000000" points="271.5,-282.4419 271.5,-301.4419 303.5,-301.4419 303.5,-282.4419 271.5,-282.4419"/>
<text text-anchor="start" x="284.9053" y="-288.5419" font-family="Helvetica,sans-Serif" font-size="11.00" fill="#000000">5 &gt;</text>
</a>
</g>
</g>
<!-- tareas&#45;&gt;contactos -->
<g id="edge2" class="edge">
<title>tareas:w&#45;&gt;contactos:e</title>
<path fill="none" stroke="#000000" d="M340.2844,-252.8121C306.4826,-272.8496 358.0136,-375.4419 303.5,-375.4419"/>
<polygon fill="#000000" stroke="#000000" points="346.7158,-251.2874 355.3305,-252.9448 350.6079,-250.3647 354.5,-249.4419 354.5,-249.4419 354.5,-249.4419 350.6079,-250.3647 353.6695,-245.939 346.7158,-251.2874 346.7158,-251.2874"/>
<ellipse fill="none" stroke="#000000" cx="343.6021" cy="-252.0256" rx="3.2" ry="3.2"/>
</g>
</g>
</svg>
