<?xml version="1.0" encoding="UTF-8" standalone="no"?>
<!DOCTYPE svg PUBLIC "-//W3C//DTD SVG 1.1//EN"
 "http://www.w3.org/Graphics/SVG/1.1/DTD/svg11.dtd">
<!-- Generated by graphviz version 2.40.1 (20161225.0304)
 -->
<!-- Title: twoDegreesRelationshipsDiagram Pages: 1 -->
<svg width="509pt" height="689pt"
 viewBox="0.00 0.00 509.00 688.70" xmlns="http://www.w3.org/2000/svg" xmlns:xlink="http://www.w3.org/1999/xlink">
<g id="graph0" class="graph" transform="scale(1 1) rotate(0) translate(4 684.7)">
<title>twoDegreesRelationshipsDiagram</title>
<polygon fill="#ffffff" stroke="transparent" points="-4,4 -4,-684.7 505,-684.7 505,4 -4,4"/>
<text text-anchor="middle" x="72.4936" y="-7.3" font-family="Helvetica,sans-Serif" font-size="11.00" fill="#000000">Generated by SchemaSpy</text>
<!-- casos -->
<g id="node1" class="node">
<title>casos</title>
<g id="a_node1"><a xlink:href="../../tables/casos.html" xlink:title="casos" target="_top">
<polygon fill="#ffffff" stroke="transparent" points="301,-615.7 301,-676.7 372,-676.7 372,-615.7 301,-615.7"/>
<polygon fill="#f5f5f5" stroke="transparent" points="301.5,-653.2 301.5,-676.2 372.5,-676.2 372.5,-653.2 301.5,-653.2"/>
<polygon fill="none" stroke="#000000" points="301.5,-653.2 301.5,-676.2 372.5,-676.2 372.5,-653.2 301.5,-653.2"/>
<text text-anchor="start" x="306.1351" y="-662.3" font-family="Helvetica,sans-Serif" font-weight="bold" font-size="11.00" fill="#000000">casos</text>
<text text-anchor="start" x="338.0219" y="-661.3" font-family="Helvetica,sans-Serif" font-size="11.00" fill="#000000">[table]</text>
<polygon fill="none" stroke="#000000" points="301.5,-634.2 301.5,-653.2 372.5,-653.2 372.5,-634.2 301.5,-634.2"/>
<text text-anchor="start" x="304.5" y="-640.3" font-family="Helvetica,sans-Serif" font-size="11.00" fill="#000000">...</text>
<polygon fill="#ffffff" stroke="transparent" points="301.5,-615.2 301.5,-634.2 325.5,-634.2 325.5,-615.2 301.5,-615.2"/>
<polygon fill="none" stroke="#000000" points="301.5,-615.2 301.5,-634.2 325.5,-634.2 325.5,-615.2 301.5,-615.2"/>
<text text-anchor="start" x="304.5" y="-621.3" font-family="Helvetica,sans-Serif" font-size="11.00" fill="#000000">&lt; 1</text>
<polygon fill="#ffffff" stroke="transparent" points="325.5,-615.2 325.5,-634.2 358.5,-634.2 358.5,-615.2 325.5,-615.2"/>
<polygon fill="none" stroke="#000000" points="325.5,-615.2 325.5,-634.2 358.5,-634.2 358.5,-615.2 325.5,-615.2"/>
<text text-anchor="start" x="328.6105" y="-621.3" font-family="Helvetica,sans-Serif" font-size="11.00" fill="#000000">1 row</text>
<polygon fill="#ffffff" stroke="transparent" points="358.5,-615.2 358.5,-634.2 372.5,-634.2 372.5,-615.2 358.5,-615.2"/>
<polygon fill="none" stroke="#000000" points="358.5,-615.2 358.5,-634.2 372.5,-634.2 372.5,-615.2 358.5,-615.2"/>
<text text-anchor="start" x="363.3862" y="-621.3" font-family="Helvetica,sans-Serif" font-size="11.00" fill="#000000"> &#160;</text>
</a>
</g>
</g>
<!-- usuarios -->
<g id="node2" class="node">
<title>usuarios</title>
<g id="a_node2"><a xlink:href="../../tables/usuarios.html" xlink:title="usuarios" target="_top">
<polygon fill="#ffffff" stroke="transparent" points="8,-408.7 8,-513.7 131,-513.7 131,-408.7 8,-408.7"/>
<polygon fill="#f5f5f5" stroke="transparent" points="8.5,-490.2 8.5,-513.2 131.5,-513.2 131.5,-490.2 8.5,-490.2"/>
<polygon fill="none" stroke="#000000" points="8.5,-490.2 8.5,-513.2 131.5,-513.2 131.5,-490.2 8.5,-490.2"/>
<text text-anchor="start" x="13.5" y="-499.3" font-family="Helvetica,sans-Serif" font-weight="bold" font-size="11.00" fill="#000000">usuarios</text>
<text text-anchor="start" x="96.5437" y="-498.3" font-family="Helvetica,sans-Serif" font-size="11.00" fill="#000000">[table]</text>
<polygon fill="none" stroke="#000000" points="8.5,-468.2 8.5,-490.2 131.5,-490.2 131.5,-468.2 8.5,-468.2"/>
<image xlink:href="../../images/primaryKeys.png" width="11px" height="12px" preserveAspectRatio="xMinYMin meet" x="13.5" y="-485.2"/>
<text text-anchor="start" x="28.5" y="-475.3" font-family="Helvetica,sans-Serif" font-size="11.00" fill="#000000">usuario_id</text>
<polygon fill="#ffffff" stroke="transparent" points="8.5,-446.2 8.5,-468.2 131.5,-468.2 131.5,-446.2 8.5,-446.2"/>
<polygon fill="none" stroke="#000000" points="8.5,-446.2 8.5,-468.2 131.5,-468.2 131.5,-446.2 8.5,-446.2"/>
<text text-anchor="start" x="28.5" y="-453.3" font-family="Helvetica,sans-Serif" font-size="11.00" fill="#000000">nom_usuario</text>
<polygon fill="none" stroke="#000000" points="8.5,-427.2 8.5,-446.2 131.5,-446.2 131.5,-427.2 8.5,-427.2"/>
<text text-anchor="start" x="11.5" y="-433.3" font-family="Helvetica,sans-Serif" font-size="11.00" fill="#000000">...</text>
<polygon fill="#ffffff" stroke="transparent" points="8.5,-408.2 8.5,-427.2 49.5,-427.2 49.5,-408.2 8.5,-408.2"/>
<polygon fill="none" stroke="#000000" points="8.5,-408.2 8.5,-427.2 49.5,-427.2 49.5,-408.2 8.5,-408.2"/>
<text text-anchor="start" x="11.5" y="-414.3" font-family="Helvetica,sans-Serif" font-size="11.00" fill="#000000"> &#160;</text>
<polygon fill="#ffffff" stroke="transparent" points="49.5,-408.2 49.5,-427.2 95.5,-427.2 95.5,-408.2 49.5,-408.2"/>
<polygon fill="none" stroke="#000000" points="49.5,-408.2 49.5,-427.2 95.5,-427.2 95.5,-408.2 49.5,-408.2"/>
<text text-anchor="start" x="65.6105" y="-414.3" font-family="Helvetica,sans-Serif" font-size="11.00" fill="#000000">1 row</text>
<polygon fill="#ffffff" stroke="transparent" points="95.5,-408.2 95.5,-427.2 131.5,-427.2 131.5,-408.2 95.5,-408.2"/>
<polygon fill="none" stroke="#000000" points="95.5,-408.2 95.5,-427.2 131.5,-427.2 131.5,-408.2 95.5,-408.2"/>
<text text-anchor="start" x="112.9053" y="-414.3" font-family="Helvetica,sans-Serif" font-size="11.00" fill="#000000">5 &gt;</text>
</a>
</g>
</g>
<!-- casos&#45;&gt;usuarios -->
<g id="edge1" class="edge">
<title>casos:w&#45;&gt;usuarios:e</title>
<path fill="none" stroke="#000000" d="M287.0649,-643.2525C236.94,-643.5271 211.3454,-643.5518 172,-605.2 129.8783,-564.142 190.3218,-479.2 131.5,-479.2"/>
<polygon fill="#000000" stroke="#000000" points="293.5001,-643.2291 301.5131,-646.8 297.5,-643.2146 301.5,-643.2 301.5,-643.2 301.5,-643.2 297.5,-643.2146 301.4869,-639.6 293.5001,-643.2291 293.5001,-643.2291"/>
<ellipse fill="none" stroke="#000000" cx="290.3001" cy="-643.2408" rx="3.2" ry="3.2"/>
</g>
<!-- empleados -->
<g id="node3" class="node">
<title>empleados</title>
<g id="a_node3"><a xlink:href="../../tables/empleados.html" xlink:title="empleados" target="_top">
<polygon fill="#ffffff" stroke="transparent" points="288.5,-533.7 288.5,-594.7 384.5,-594.7 384.5,-533.7 288.5,-533.7"/>
<polygon fill="#f5f5f5" stroke="transparent" points="288.5,-571.2 288.5,-594.2 384.5,-594.2 384.5,-571.2 288.5,-571.2"/>
<polygon fill="none" stroke="#000000" points="288.5,-571.2 288.5,-594.2 384.5,-594.2 384.5,-571.2 288.5,-571.2"/>
<text text-anchor="start" x="293.1039" y="-580.3" font-family="Helvetica,sans-Serif" font-weight="bold" font-size="11.00" fill="#000000">empleados</text>
<text text-anchor="start" x="350.0219" y="-579.3" font-family="Helvetica,sans-Serif" font-size="11.00" fill="#000000">[table]</text>
<polygon fill="none" stroke="#000000" points="288.5,-552.2 288.5,-571.2 384.5,-571.2 384.5,-552.2 288.5,-552.2"/>
<text text-anchor="start" x="291.5" y="-558.3" font-family="Helvetica,sans-Serif" font-size="11.00" fill="#000000">...</text>
<polygon fill="#ffffff" stroke="transparent" points="288.5,-533.2 288.5,-552.2 324.5,-552.2 324.5,-533.2 288.5,-533.2"/>
<polygon fill="none" stroke="#000000" points="288.5,-533.2 288.5,-552.2 324.5,-552.2 324.5,-533.2 288.5,-533.2"/>
<text text-anchor="start" x="291.5" y="-539.3" font-family="Helvetica,sans-Serif" font-size="11.00" fill="#000000">&lt; 2</text>
<polygon fill="#ffffff" stroke="transparent" points="324.5,-533.2 324.5,-552.2 364.5,-552.2 364.5,-533.2 324.5,-533.2"/>
<polygon fill="none" stroke="#000000" points="324.5,-533.2 324.5,-552.2 364.5,-552.2 364.5,-533.2 324.5,-533.2"/>
<text text-anchor="start" x="334.6105" y="-539.3" font-family="Helvetica,sans-Serif" font-size="11.00" fill="#000000">1 row</text>
<polygon fill="#ffffff" stroke="transparent" points="364.5,-533.2 364.5,-552.2 384.5,-552.2 384.5,-533.2 364.5,-533.2"/>
<polygon fill="none" stroke="#000000" points="364.5,-533.2 364.5,-552.2 384.5,-552.2 384.5,-533.2 364.5,-533.2"/>
<text text-anchor="start" x="375.3862" y="-539.3" font-family="Helvetica,sans-Serif" font-size="11.00" fill="#000000"> &#160;</text>
</a>
</g>
</g>
<!-- empleados&#45;&gt;usuarios -->
<g id="edge2" class="edge">
<title>empleados:w&#45;&gt;usuarios:e</title>
<path fill="none" stroke="#000000" d="M273.8547,-560.9539C230.6624,-559.3699 213.4361,-549.8205 172,-523.2 149.6385,-508.8339 158.0786,-479.2 131.5,-479.2"/>
<polygon fill="#000000" stroke="#000000" points="280.5011,-561.0656 288.4395,-564.7995 284.5006,-561.1328 288.5,-561.2 288.5,-561.2 288.5,-561.2 284.5006,-561.1328 288.5605,-557.6005 280.5011,-561.0656 280.5011,-561.0656"/>
<ellipse fill="none" stroke="#000000" cx="277.3016" cy="-561.0118" rx="3.2" ry="3.2"/>
</g>
<!-- leads -->
<g id="node4" class="node">
<title>leads</title>
<g id="a_node4"><a xlink:href="../../tables/leads.html" xlink:title="leads" target="_top">
<polygon fill="#ffffff" stroke="transparent" points="301,-451.7 301,-512.7 372,-512.7 372,-451.7 301,-451.7"/>
<polygon fill="#f5f5f5" stroke="transparent" points="301.5,-489.2 301.5,-512.2 372.5,-512.2 372.5,-489.2 301.5,-489.2"/>
<polygon fill="none" stroke="#000000" points="301.5,-489.2 301.5,-512.2 372.5,-512.2 372.5,-489.2 301.5,-489.2"/>
<text text-anchor="start" x="306.5" y="-498.3" font-family="Helvetica,sans-Serif" font-weight="bold" font-size="11.00" fill="#000000">leads</text>
<text text-anchor="start" x="337.5437" y="-497.3" font-family="Helvetica,sans-Serif" font-size="11.00" fill="#000000">[table]</text>
<polygon fill="none" stroke="#000000" points="301.5,-470.2 301.5,-489.2 372.5,-489.2 372.5,-470.2 301.5,-470.2"/>
<text text-anchor="start" x="304.5" y="-476.3" font-family="Helvetica,sans-Serif" font-size="11.00" fill="#000000">...</text>
<polygon fill="#ffffff" stroke="transparent" points="301.5,-451.2 301.5,-470.2 322.5,-470.2 322.5,-451.2 301.5,-451.2"/>
<polygon fill="none" stroke="#000000" points="301.5,-451.2 301.5,-470.2 322.5,-470.2 322.5,-451.2 301.5,-451.2"/>
<text text-anchor="start" x="304.2027" y="-457.3" font-family="Helvetica,sans-Serif" font-size="11.00" fill="#000000">&lt; 4</text>
<polygon fill="#ffffff" stroke="transparent" points="322.5,-451.2 322.5,-470.2 360.5,-470.2 360.5,-451.2 322.5,-451.2"/>
<polygon fill="none" stroke="#000000" points="322.5,-451.2 322.5,-470.2 360.5,-470.2 360.5,-451.2 322.5,-451.2"/>
<text text-anchor="start" x="325.3053" y="-457.3" font-family="Helvetica,sans-Serif" font-size="11.00" fill="#000000">0 rows</text>
<polygon fill="#ffffff" stroke="transparent" points="360.5,-451.2 360.5,-470.2 372.5,-470.2 372.5,-451.2 360.5,-451.2"/>
<polygon fill="none" stroke="#000000" points="360.5,-451.2 360.5,-470.2 372.5,-470.2 372.5,-451.2 360.5,-451.2"/>
<text text-anchor="start" x="363.4431" y="-457.3" font-family="Helvetica,sans-Serif" font-size="11.00" fill="#000000"> &#160;</text>
</a>
</g>
</g>
<!-- leads&#45;&gt;usuarios -->
<g id="edge3" class="edge">
<title>leads:w&#45;&gt;usuarios:e</title>
<path fill="none" stroke="#000000" d="M286.7634,-479.2C223.0972,-479.2 201.8906,-479.2 131.5,-479.2"/>
<polygon fill="#000000" stroke="#000000" points="293.5,-479.2001 301.5,-482.8 297.5,-479.2 301.5,-479.2 301.5,-479.2 301.5,-479.2 297.5,-479.2 301.5,-475.6 293.5,-479.2001 293.5,-479.2001"/>
<ellipse fill="none" stroke="#000000" cx="290.3" cy="-479.2001" rx="3.2" ry="3.2"/>
</g>
<!-- oportunidades -->
<g id="node5" class="node">
<title>oportunidades</title>
<g id="a_node5"><a xlink:href="../../tables/oportunidades.html" xlink:title="oportunidades" target="_top">
<polygon fill="#ffffff" stroke="transparent" points="280.5,-369.7 280.5,-430.7 392.5,-430.7 392.5,-369.7 280.5,-369.7"/>
<polygon fill="#f5f5f5" stroke="transparent" points="280.5,-407.2 280.5,-430.2 392.5,-430.2 392.5,-407.2 280.5,-407.2"/>
<polygon fill="none" stroke="#000000" points="280.5,-407.2 280.5,-430.2 392.5,-430.2 392.5,-407.2 280.5,-407.2"/>
<text text-anchor="start" x="285.1531" y="-416.3" font-family="Helvetica,sans-Serif" font-weight="bold" font-size="11.00" fill="#000000">oportunidades</text>
<text text-anchor="start" x="358.0219" y="-415.3" font-family="Helvetica,sans-Serif" font-size="11.00" fill="#000000">[table]</text>
<polygon fill="none" stroke="#000000" points="280.5,-388.2 280.5,-407.2 392.5,-407.2 392.5,-388.2 280.5,-388.2"/>
<text text-anchor="start" x="283.5" y="-394.3" font-family="Helvetica,sans-Serif" font-size="11.00" fill="#000000">...</text>
<polygon fill="#ffffff" stroke="transparent" points="280.5,-369.2 280.5,-388.2 320.5,-388.2 320.5,-369.2 280.5,-369.2"/>
<polygon fill="none" stroke="#000000" points="280.5,-369.2 280.5,-388.2 320.5,-388.2 320.5,-369.2 280.5,-369.2"/>
<text text-anchor="start" x="283.5" y="-375.3" font-family="Helvetica,sans-Serif" font-size="11.00" fill="#000000">&lt; 4</text>
<polygon fill="#ffffff" stroke="transparent" points="320.5,-369.2 320.5,-388.2 361.5,-388.2 361.5,-369.2 320.5,-369.2"/>
<polygon fill="none" stroke="#000000" points="320.5,-369.2 320.5,-388.2 361.5,-388.2 361.5,-369.2 320.5,-369.2"/>
<text text-anchor="start" x="331.6105" y="-375.3" font-family="Helvetica,sans-Serif" font-size="11.00" fill="#000000">1 row</text>
<polygon fill="#ffffff" stroke="transparent" points="361.5,-369.2 361.5,-388.2 392.5,-388.2 392.5,-369.2 361.5,-369.2"/>
<polygon fill="none" stroke="#000000" points="361.5,-369.2 361.5,-388.2 392.5,-388.2 392.5,-369.2 361.5,-369.2"/>
<text text-anchor="start" x="373.9053" y="-375.3" font-family="Helvetica,sans-Serif" font-size="11.00" fill="#000000">1 &gt;</text>
</a>
</g>
</g>
<!-- oportunidades&#45;&gt;usuarios -->
<g id="edge4" class="edge">
<title>oportunidades:w&#45;&gt;usuarios:e</title>
<path fill="none" stroke="#000000" d="M266.053,-397.6708C225.6364,-400.4967 211.4606,-415.9397 172,-441.2 151.2118,-454.5074 156.1827,-479.2 131.5,-479.2"/>
<polygon fill="#000000" stroke="#000000" points="272.5042,-397.4606 280.6173,-400.7981 276.5021,-397.3303 280.5,-397.2 280.5,-397.2 280.5,-397.2 276.5021,-397.3303 280.3827,-393.6019 272.5042,-397.4606 272.5042,-397.4606"/>
<ellipse fill="none" stroke="#000000" cx="269.3059" cy="-397.5649" rx="3.2" ry="3.2"/>
</g>
<!-- tareas -->
<g id="node6" class="node">
<title>tareas</title>
<g id="a_node6"><a xlink:href="../../tables/tareas.html" xlink:title="tareas" target="_top">
<polygon fill="#ffffff" stroke="transparent" points="180,-38.2 180,-348.2 493,-348.2 493,-38.2 180,-38.2"/>
<polygon fill="#f5f5f5" stroke="transparent" points="182.5,-323.2 182.5,-346.2 491.5,-346.2 491.5,-323.2 182.5,-323.2"/>
<polygon fill="none" stroke="#000000" points="182.5,-323.2 182.5,-346.2 491.5,-346.2 491.5,-323.2 182.5,-323.2"/>
<text text-anchor="start" x="187.5" y="-332.3" font-family="Helvetica,sans-Serif" font-weight="bold" font-size="11.00" fill="#000000">tareas</text>
<text text-anchor="start" x="456.5437" y="-331.3" font-family="Helvetica,sans-Serif" font-size="11.00" fill="#000000">[table]</text>
<polygon fill="none" stroke="#000000" points="182.5,-301.2 182.5,-323.2 305.5,-323.2 305.5,-301.2 182.5,-301.2"/>
<image xlink:href="../../images/primaryKeys.png" width="11px" height="12px" preserveAspectRatio="xMinYMin meet" x="187.5" y="-318.2"/>
<text text-anchor="start" x="202.5" y="-308.3" font-family="Helvetica,sans-Serif" font-size="11.00" fill="#000000">tarea_id</text>
<polygon fill="none" stroke="#000000" points="305.5,-301.2 305.5,-323.2 491.5,-323.2 491.5,-301.2 305.5,-301.2"/>
<text text-anchor="start" x="308.5" y="-308.9" font-family="Helvetica,sans-Serif" font-size="11.00" fill="#000000">serial[10]</text>
<polygon fill="none" stroke="#000000" points="182.5,-279.2 182.5,-301.2 305.5,-301.2 305.5,-279.2 182.5,-279.2"/>
<text text-anchor="start" x="202.5" y="-286.3" font-family="Helvetica,sans-Serif" font-size="11.00" fill="#000000">asunto</text>
<polygon fill="none" stroke="#000000" points="305.5,-279.2 305.5,-301.2 491.5,-301.2 491.5,-279.2 305.5,-279.2"/>
<text text-anchor="start" x="308.5" y="-286.9" font-family="Helvetica,sans-Serif" font-size="11.00" fill="#000000">varchar[255]</text>
<polygon fill="none" stroke="#000000" points="182.5,-257.2 182.5,-279.2 305.5,-279.2 305.5,-257.2 182.5,-257.2"/>
<text text-anchor="start" x="202.5" y="-264.3" font-family="Helvetica,sans-Serif" font-size="11.00" fill="#000000">descripcion</text>
<polygon fill="none" stroke="#000000" points="305.5,-257.2 305.5,-279.2 491.5,-279.2 491.5,-257.2 305.5,-257.2"/>
<text text-anchor="start" x="308.5" y="-264.9" font-family="Helvetica,sans-Serif" font-size="11.00" fill="#000000">text[2147483647]</text>
<polygon fill="none" stroke="#000000" points="182.5,-235.2 182.5,-257.2 305.5,-257.2 305.5,-235.2 182.5,-235.2"/>
<text text-anchor="start" x="202.5" y="-242.3" font-family="Helvetica,sans-Serif" font-size="11.00" fill="#000000">estado</text>
<polygon fill="none" stroke="#000000" points="305.5,-235.2 305.5,-257.2 491.5,-257.2 491.5,-235.2 305.5,-235.2"/>
<text text-anchor="start" x="308.5" y="-242.9" font-family="Helvetica,sans-Serif" font-size="11.00" fill="#000000">enum_tareas_estado[2147483647]</text>
<polygon fill="none" stroke="#000000" points="182.5,-213.2 182.5,-235.2 305.5,-235.2 305.5,-213.2 182.5,-213.2"/>
<text text-anchor="start" x="202.5" y="-220.3" font-family="Helvetica,sans-Serif" font-size="11.00" fill="#000000">prioridad</text>
<polygon fill="none" stroke="#000000" points="305.5,-213.2 305.5,-235.2 491.5,-235.2 491.5,-213.2 305.5,-213.2"/>
<text text-anchor="start" x="308.3286" y="-220.9" font-family="Helvetica,sans-Serif" font-size="11.00" fill="#000000">enum_tareas_prioridad[2147483647]</text>
<polygon fill="none" stroke="#000000" points="182.5,-191.2 182.5,-213.2 305.5,-213.2 305.5,-191.2 182.5,-191.2"/>
<text text-anchor="start" x="202.5" y="-198.3" font-family="Helvetica,sans-Serif" font-size="11.00" fill="#000000">fec_inicio</text>
<polygon fill="none" stroke="#000000" points="305.5,-191.2 305.5,-213.2 491.5,-213.2 491.5,-191.2 305.5,-191.2"/>
<text text-anchor="start" x="308.5" y="-198.9" font-family="Helvetica,sans-Serif" font-size="11.00" fill="#000000">timestamptz[35,6]</text>
<polygon fill="none" stroke="#000000" points="182.5,-169.2 182.5,-191.2 305.5,-191.2 305.5,-169.2 182.5,-169.2"/>
<text text-anchor="start" x="202.5" y="-176.3" font-family="Helvetica,sans-Serif" font-size="11.00" fill="#000000">fec_fin</text>
<polygon fill="none" stroke="#000000" points="305.5,-169.2 305.5,-191.2 491.5,-191.2 491.5,-169.2 305.5,-169.2"/>
<text text-anchor="start" x="308.5" y="-176.9" font-family="Helvetica,sans-Serif" font-size="11.00" fill="#000000">timestamptz[35,6]</text>
<polygon fill="none" stroke="#000000" points="182.5,-147.2 182.5,-169.2 305.5,-169.2 305.5,-147.2 182.5,-147.2"/>
<image xlink:href="../../images/foreignKeys.png" width="11px" height="12px" preserveAspectRatio="xMinYMin meet" x="187.5" y="-164.2"/>
<text text-anchor="start" x="202.5" y="-154.3" font-family="Helvetica,sans-Serif" font-size="11.00" fill="#000000">usu_asignado_id</text>
<polygon fill="none" stroke="#000000" points="305.5,-147.2 305.5,-169.2 491.5,-169.2 491.5,-147.2 305.5,-147.2"/>
<text text-anchor="start" x="308.5" y="-154.9" font-family="Helvetica,sans-Serif" font-size="11.00" fill="#000000">int4[10]</text>
<polygon fill="none" stroke="#000000" points="182.5,-125.2 182.5,-147.2 305.5,-147.2 305.5,-125.2 182.5,-125.2"/>
<text text-anchor="start" x="202.5" y="-132.3" font-family="Helvetica,sans-Serif" font-size="11.00" fill="#000000">usu_insercion</text>
<polygon fill="none" stroke="#000000" points="305.5,-125.2 305.5,-147.2 491.5,-147.2 491.5,-125.2 305.5,-125.2"/>
<text text-anchor="start" x="308.5" y="-132.9" font-family="Helvetica,sans-Serif" font-size="11.00" fill="#000000">varchar[20]</text>
<polygon fill="none" stroke="#000000" points="182.5,-103.2 182.5,-125.2 305.5,-125.2 305.5,-103.2 182.5,-103.2"/>
<text text-anchor="start" x="202.5" y="-110.3" font-family="Helvetica,sans-Serif" font-size="11.00" fill="#000000">fec_insercion</text>
<polygon fill="none" stroke="#000000" points="305.5,-103.2 305.5,-125.2 491.5,-125.2 491.5,-103.2 305.5,-103.2"/>
<text text-anchor="start" x="308.5" y="-110.9" font-family="Helvetica,sans-Serif" font-size="11.00" fill="#000000">timestamptz[35,6]</text>
<polygon fill="none" stroke="#000000" points="182.5,-81.2 182.5,-103.2 305.5,-103.2 305.5,-81.2 182.5,-81.2"/>
<text text-anchor="start" x="202.5" y="-88.3" font-family="Helvetica,sans-Serif" font-size="11.00" fill="#000000">fec_modificacion</text>
<polygon fill="none" stroke="#000000" points="305.5,-81.2 305.5,-103.2 491.5,-103.2 491.5,-81.2 305.5,-81.2"/>
<text text-anchor="start" x="308.5" y="-88.9" font-family="Helvetica,sans-Serif" font-size="11.00" fill="#000000">timestamptz[35,6]</text>
<polygon fill="none" stroke="#000000" points="182.5,-59.2 182.5,-81.2 305.5,-81.2 305.5,-59.2 182.5,-59.2"/>
<text text-anchor="start" x="202.5" y="-66.3" font-family="Helvetica,sans-Serif" font-size="11.00" fill="#000000">usu_modificacion</text>
<polygon fill="none" stroke="#000000" points="305.5,-59.2 305.5,-81.2 491.5,-81.2 491.5,-59.2 305.5,-59.2"/>
<text text-anchor="start" x="308.5" y="-66.9" font-family="Helvetica,sans-Serif" font-size="11.00" fill="#000000">varchar[20]</text>
<polygon fill="#ffffff" stroke="transparent" points="182.5,-40.2 182.5,-59.2 235.5,-59.2 235.5,-40.2 182.5,-40.2"/>
<polygon fill="none" stroke="#000000" points="182.5,-40.2 182.5,-59.2 235.5,-59.2 235.5,-40.2 182.5,-40.2"/>
<text text-anchor="start" x="185.5" y="-46.3" font-family="Helvetica,sans-Serif" font-size="11.00" fill="#000000">&lt; 1</text>
<polygon fill="#ffffff" stroke="transparent" points="235.5,-40.2 235.5,-59.2 305.5,-59.2 305.5,-40.2 235.5,-40.2"/>
<polygon fill="none" stroke="#000000" points="235.5,-40.2 235.5,-59.2 305.5,-59.2 305.5,-40.2 235.5,-40.2"/>
<text text-anchor="start" x="270.1105" y="-46.3" font-family="Helvetica,sans-Serif" font-size="11.00" fill="#000000">0 rows</text>
<polygon fill="#ffffff" stroke="transparent" points="305.5,-40.2 305.5,-59.2 491.5,-59.2 491.5,-40.2 305.5,-40.2"/>
<polygon fill="none" stroke="#000000" points="305.5,-40.2 305.5,-59.2 491.5,-59.2 491.5,-40.2 305.5,-40.2"/>
<text text-anchor="start" x="472.9053" y="-46.3" font-family="Helvetica,sans-Serif" font-size="11.00" fill="#000000">0 &gt;</text>
<polygon fill="none" stroke="#000000" stroke-width="2" points="181,-39.2 181,-347.2 492,-347.2 492,-39.2 181,-39.2"/>
</a>
</g>
</g>
<!-- tareas&#45;&gt;usuarios -->
<g id="edge5" class="edge">
<title>tareas:w&#45;&gt;usuarios:e</title>
<path fill="none" stroke="#000000" d="M168.7323,-163.5037C123.5481,-205.2399 198.2263,-479.2 131.5,-479.2"/>
<polygon fill="#000000" stroke="#000000" points="175.0348,-161.0759 183.7941,-161.5594 178.7674,-159.6379 182.5,-158.2 182.5,-158.2 182.5,-158.2 178.7674,-159.6379 181.2059,-154.8406 175.0348,-161.0759 175.0348,-161.0759"/>
<ellipse fill="none" stroke="#000000" cx="172.0487" cy="-162.2262" rx="3.2" ry="3.2"/>
</g>
</g>
</svg>
