<?xml version="1.0" encoding="UTF-8" standalone="no"?>
<!DOCTYPE svg PUBLIC "-//W3C//DTD SVG 1.1//EN"
 "http://www.w3.org/Graphics/SVG/1.1/DTD/svg11.dtd">
<!-- Generated by graphviz version 2.40.1 (20161225.0304)
 -->
<!-- Title: oneDegreeRelationshipsDiagram Pages: 1 -->
<svg width="509pt" height="360pt"
 viewBox="0.00 0.00 509.00 360.20" xmlns="http://www.w3.org/2000/svg" xmlns:xlink="http://www.w3.org/1999/xlink">
<g id="graph0" class="graph" transform="scale(1 1) rotate(0) translate(4 356.2)">
<title>oneDegreeRelationshipsDiagram</title>
<polygon fill="#ffffff" stroke="transparent" points="-4,4 -4,-356.2 505,-356.2 505,4 -4,4"/>
<text text-anchor="middle" x="72.4936" y="-7.3" font-family="Helvetica,sans-Serif" font-size="11.00" fill="#000000">Generated by SchemaSpy</text>
<!-- tareas -->
<g id="node1" class="node">
<title>tareas</title>
<g id="a_node1"><a xlink:href="../../tables/tareas.html" xlink:title="tareas" target="_top">
<polygon fill="#ffffff" stroke="transparent" points="180,-38.2 180,-348.2 493,-348.2 493,-38.2 180,-38.2"/>
<polygon fill="#f5f5f5" stroke="transparent" points="182.5,-323.2 182.5,-346.2 491.5,-346.2 491.5,-323.2 182.5,-323.2"/>
<polygon fill="none" stroke="#000000" points="182.5,-323.2 182.5,-346.2 491.5,-346.2 491.5,-323.2 182.5,-323.2"/>
<text text-anchor="start" x="187.5" y="-332.3" font-family="Helvetica,sans-Serif" font-weight="bold" font-size="11.00" fill="#000000">tareas</text>
<text text-anchor="start" x="456.5437" y="-331.3" font-family="Helvetica,sans-Serif" font-size="11.00" fill="#000000">[table]</text>
<polygon fill="none" stroke="#000000" points="182.5,-301.2 182.5,-323.2 305.5,-323.2 305.5,-301.2 182.5,-301.2"/>
<image xlink:href="../../images/primaryKeys.png" width="11px" height="12px" preserveAspectRatio="xMinYMin meet" x="187.5" y="-318.2"/>
<text text-anchor="start" x="202.5" y="-308.3" font-family="Helvetica,sans-Serif" font-size="11.00" fill="#000000">tarea_id</text>
<polygon fill="none" stroke="#000000" points="305.5,-301.2 305.5,-323.2 491.5,-323.2 491.5,-301.2 305.5,-301.2"/>
<text text-anchor="start" x="308.5" y="-308.9" font-family="Helvetica,sans-Serif" font-size="11.00" fill="#000000">serial[10]</text>
<polygon fill="none" stroke="#000000" points="182.5,-279.2 182.5,-301.2 305.5,-301.2 305.5,-279.2 182.5,-279.2"/>
<text text-anchor="start" x="202.5" y="-286.3" font-family="Helvetica,sans-Serif" font-size="11.00" fill="#000000">asunto</text>
<polygon fill="none" stroke="#000000" points="305.5,-279.2 305.5,-301.2 491.5,-301.2 491.5,-279.2 305.5,-279.2"/>
<text text-anchor="start" x="308.5" y="-286.9" font-family="Helvetica,sans-Serif" font-size="11.00" fill="#000000">varchar[255]</text>
<polygon fill="none" stroke="#000000" points="182.5,-257.2 182.5,-279.2 305.5,-279.2 305.5,-257.2 182.5,-257.2"/>
<text text-anchor="start" x="202.5" y="-264.3" font-family="Helvetica,sans-Serif" font-size="11.00" fill="#000000">descripcion</text>
<polygon fill="none" stroke="#000000" points="305.5,-257.2 305.5,-279.2 491.5,-279.2 491.5,-257.2 305.5,-257.2"/>
<text text-anchor="start" x="308.5" y="-264.9" font-family="Helvetica,sans-Serif" font-size="11.00" fill="#000000">text[2147483647]</text>
<polygon fill="none" stroke="#000000" points="182.5,-235.2 182.5,-257.2 305.5,-257.2 305.5,-235.2 182.5,-235.2"/>
<text text-anchor="start" x="202.5" y="-242.3" font-family="Helvetica,sans-Serif" font-size="11.00" fill="#000000">estado</text>
<polygon fill="none" stroke="#000000" points="305.5,-235.2 305.5,-257.2 491.5,-257.2 491.5,-235.2 305.5,-235.2"/>
<text text-anchor="start" x="308.5" y="-242.9" font-family="Helvetica,sans-Serif" font-size="11.00" fill="#000000">enum_tareas_estado[2147483647]</text>
<polygon fill="none" stroke="#000000" points="182.5,-213.2 182.5,-235.2 305.5,-235.2 305.5,-213.2 182.5,-213.2"/>
<text text-anchor="start" x="202.5" y="-220.3" font-family="Helvetica,sans-Serif" font-size="11.00" fill="#000000">prioridad</text>
<polygon fill="none" stroke="#000000" points="305.5,-213.2 305.5,-235.2 491.5,-235.2 491.5,-213.2 305.5,-213.2"/>
<text text-anchor="start" x="308.3286" y="-220.9" font-family="Helvetica,sans-Serif" font-size="11.00" fill="#000000">enum_tareas_prioridad[2147483647]</text>
<polygon fill="none" stroke="#000000" points="182.5,-191.2 182.5,-213.2 305.5,-213.2 305.5,-191.2 182.5,-191.2"/>
<text text-anchor="start" x="202.5" y="-198.3" font-family="Helvetica,sans-Serif" font-size="11.00" fill="#000000">fec_inicio</text>
<polygon fill="none" stroke="#000000" points="305.5,-191.2 305.5,-213.2 491.5,-213.2 491.5,-191.2 305.5,-191.2"/>
<text text-anchor="start" x="308.5" y="-198.9" font-family="Helvetica,sans-Serif" font-size="11.00" fill="#000000">timestamptz[35,6]</text>
<polygon fill="none" stroke="#000000" points="182.5,-169.2 182.5,-191.2 305.5,-191.2 305.5,-169.2 182.5,-169.2"/>
<text text-anchor="start" x="202.5" y="-176.3" font-family="Helvetica,sans-Serif" font-size="11.00" fill="#000000">fec_fin</text>
<polygon fill="none" stroke="#000000" points="305.5,-169.2 305.5,-191.2 491.5,-191.2 491.5,-169.2 305.5,-169.2"/>
<text text-anchor="start" x="308.5" y="-176.9" font-family="Helvetica,sans-Serif" font-size="11.00" fill="#000000">timestamptz[35,6]</text>
<polygon fill="none" stroke="#000000" points="182.5,-147.2 182.5,-169.2 305.5,-169.2 305.5,-147.2 182.5,-147.2"/>
<image xlink:href="../../images/foreignKeys.png" width="11px" height="12px" preserveAspectRatio="xMinYMin meet" x="187.5" y="-164.2"/>
<text text-anchor="start" x="202.5" y="-154.3" font-family="Helvetica,sans-Serif" font-size="11.00" fill="#000000">usu_asignado_id</text>
<polygon fill="none" stroke="#000000" points="305.5,-147.2 305.5,-169.2 491.5,-169.2 491.5,-147.2 305.5,-147.2"/>
<text text-anchor="start" x="308.5" y="-154.9" font-family="Helvetica,sans-Serif" font-size="11.00" fill="#000000">int4[10]</text>
<polygon fill="none" stroke="#000000" points="182.5,-125.2 182.5,-147.2 305.5,-147.2 305.5,-125.2 182.5,-125.2"/>
<text text-anchor="start" x="202.5" y="-132.3" font-family="Helvetica,sans-Serif" font-size="11.00" fill="#000000">usu_insercion</text>
<polygon fill="none" stroke="#000000" points="305.5,-125.2 305.5,-147.2 491.5,-147.2 491.5,-125.2 305.5,-125.2"/>
<text text-anchor="start" x="308.5" y="-132.9" font-family="Helvetica,sans-Serif" font-size="11.00" fill="#000000">varchar[20]</text>
<polygon fill="none" stroke="#000000" points="182.5,-103.2 182.5,-125.2 305.5,-125.2 305.5,-103.2 182.5,-103.2"/>
<text text-anchor="start" x="202.5" y="-110.3" font-family="Helvetica,sans-Serif" font-size="11.00" fill="#000000">fec_insercion</text>
<polygon fill="none" stroke="#000000" points="305.5,-103.2 305.5,-125.2 491.5,-125.2 491.5,-103.2 305.5,-103.2"/>
<text text-anchor="start" x="308.5" y="-110.9" font-family="Helvetica,sans-Serif" font-size="11.00" fill="#000000">timestamptz[35,6]</text>
<polygon fill="none" stroke="#000000" points="182.5,-81.2 182.5,-103.2 305.5,-103.2 305.5,-81.2 182.5,-81.2"/>
<text text-anchor="start" x="202.5" y="-88.3" font-family="Helvetica,sans-Serif" font-size="11.00" fill="#000000">fec_modificacion</text>
<polygon fill="none" stroke="#000000" points="305.5,-81.2 305.5,-103.2 491.5,-103.2 491.5,-81.2 305.5,-81.2"/>
<text text-anchor="start" x="308.5" y="-88.9" font-family="Helvetica,sans-Serif" font-size="11.00" fill="#000000">timestamptz[35,6]</text>
<polygon fill="none" stroke="#000000" points="182.5,-59.2 182.5,-81.2 305.5,-81.2 305.5,-59.2 182.5,-59.2"/>
<text text-anchor="start" x="202.5" y="-66.3" font-family="Helvetica,sans-Serif" font-size="11.00" fill="#000000">usu_modificacion</text>
<polygon fill="none" stroke="#000000" points="305.5,-59.2 305.5,-81.2 491.5,-81.2 491.5,-59.2 305.5,-59.2"/>
<text text-anchor="start" x="308.5" y="-66.9" font-family="Helvetica,sans-Serif" font-size="11.00" fill="#000000">varchar[20]</text>
<polygon fill="#ffffff" stroke="transparent" points="182.5,-40.2 182.5,-59.2 235.5,-59.2 235.5,-40.2 182.5,-40.2"/>
<polygon fill="none" stroke="#000000" points="182.5,-40.2 182.5,-59.2 235.5,-59.2 235.5,-40.2 182.5,-40.2"/>
<text text-anchor="start" x="185.5" y="-46.3" font-family="Helvetica,sans-Serif" font-size="11.00" fill="#000000">&lt; 1</text>
<polygon fill="#ffffff" stroke="transparent" points="235.5,-40.2 235.5,-59.2 305.5,-59.2 305.5,-40.2 235.5,-40.2"/>
<polygon fill="none" stroke="#000000" points="235.5,-40.2 235.5,-59.2 305.5,-59.2 305.5,-40.2 235.5,-40.2"/>
<text text-anchor="start" x="270.1105" y="-46.3" font-family="Helvetica,sans-Serif" font-size="11.00" fill="#000000">0 rows</text>
<polygon fill="#ffffff" stroke="transparent" points="305.5,-40.2 305.5,-59.2 491.5,-59.2 491.5,-40.2 305.5,-40.2"/>
<polygon fill="none" stroke="#000000" points="305.5,-40.2 305.5,-59.2 491.5,-59.2 491.5,-40.2 305.5,-40.2"/>
<text text-anchor="start" x="472.9053" y="-46.3" font-family="Helvetica,sans-Serif" font-size="11.00" fill="#000000">0 &gt;</text>
<polygon fill="none" stroke="#000000" stroke-width="2" points="181,-39.2 181,-347.2 492,-347.2 492,-39.2 181,-39.2"/>
</a>
</g>
</g>
<!-- usuarios -->
<g id="node2" class="node">
<title>usuarios</title>
<g id="a_node2"><a xlink:href="../../tables/usuarios.html" xlink:title="usuarios" target="_top">
<polygon fill="#ffffff" stroke="transparent" points="8,-87.7 8,-192.7 131,-192.7 131,-87.7 8,-87.7"/>
<polygon fill="#f5f5f5" stroke="transparent" points="8.5,-169.2 8.5,-192.2 131.5,-192.2 131.5,-169.2 8.5,-169.2"/>
<polygon fill="none" stroke="#000000" points="8.5,-169.2 8.5,-192.2 131.5,-192.2 131.5,-169.2 8.5,-169.2"/>
<text text-anchor="start" x="13.5" y="-178.3" font-family="Helvetica,sans-Serif" font-weight="bold" font-size="11.00" fill="#000000">usuarios</text>
<text text-anchor="start" x="96.5437" y="-177.3" font-family="Helvetica,sans-Serif" font-size="11.00" fill="#000000">[table]</text>
<polygon fill="none" stroke="#000000" points="8.5,-147.2 8.5,-169.2 131.5,-169.2 131.5,-147.2 8.5,-147.2"/>
<image xlink:href="../../images/primaryKeys.png" width="11px" height="12px" preserveAspectRatio="xMinYMin meet" x="13.5" y="-164.2"/>
<text text-anchor="start" x="28.5" y="-154.3" font-family="Helvetica,sans-Serif" font-size="11.00" fill="#000000">usuario_id</text>
<polygon fill="#ffffff" stroke="transparent" points="8.5,-125.2 8.5,-147.2 131.5,-147.2 131.5,-125.2 8.5,-125.2"/>
<polygon fill="none" stroke="#000000" points="8.5,-125.2 8.5,-147.2 131.5,-147.2 131.5,-125.2 8.5,-125.2"/>
<text text-anchor="start" x="28.5" y="-132.3" font-family="Helvetica,sans-Serif" font-size="11.00" fill="#000000">nom_usuario</text>
<polygon fill="none" stroke="#000000" points="8.5,-106.2 8.5,-125.2 131.5,-125.2 131.5,-106.2 8.5,-106.2"/>
<text text-anchor="start" x="11.5" y="-112.3" font-family="Helvetica,sans-Serif" font-size="11.00" fill="#000000">...</text>
<polygon fill="#ffffff" stroke="transparent" points="8.5,-87.2 8.5,-106.2 49.5,-106.2 49.5,-87.2 8.5,-87.2"/>
<polygon fill="none" stroke="#000000" points="8.5,-87.2 8.5,-106.2 49.5,-106.2 49.5,-87.2 8.5,-87.2"/>
<text text-anchor="start" x="11.5" y="-93.3" font-family="Helvetica,sans-Serif" font-size="11.00" fill="#000000"> &#160;</text>
<polygon fill="#ffffff" stroke="transparent" points="49.5,-87.2 49.5,-106.2 95.5,-106.2 95.5,-87.2 49.5,-87.2"/>
<polygon fill="none" stroke="#000000" points="49.5,-87.2 49.5,-106.2 95.5,-106.2 95.5,-87.2 49.5,-87.2"/>
<text text-anchor="start" x="65.6105" y="-93.3" font-family="Helvetica,sans-Serif" font-size="11.00" fill="#000000">1 row</text>
<polygon fill="#ffffff" stroke="transparent" points="95.5,-87.2 95.5,-106.2 131.5,-106.2 131.5,-87.2 95.5,-87.2"/>
<polygon fill="none" stroke="#000000" points="95.5,-87.2 95.5,-106.2 131.5,-106.2 131.5,-87.2 95.5,-87.2"/>
<text text-anchor="start" x="112.9053" y="-93.3" font-family="Helvetica,sans-Serif" font-size="11.00" fill="#000000">5 &gt;</text>
</a>
</g>
</g>
<!-- tareas&#45;&gt;usuarios -->
<g id="edge1" class="edge">
<title>tareas:w&#45;&gt;usuarios:e</title>
<path fill="none" stroke="#000000" d="M167.776,-158.2C155.7815,-158.2 148.3229,-158.2 131.5,-158.2"/>
<polygon fill="#000000" stroke="#000000" points="174.5,-158.2001 182.5,-161.8 178.5,-158.2 182.5,-158.2 182.5,-158.2 182.5,-158.2 178.5,-158.2 182.5,-154.6 174.5,-158.2001 174.5,-158.2001"/>
<ellipse fill="none" stroke="#000000" cx="171.3" cy="-158.2001" rx="3.2" ry="3.2"/>
</g>
</g>
</svg>
