<?xml version="1.0" encoding="UTF-8" standalone="no"?>
<!DOCTYPE svg PUBLIC "-//W3C//DTD SVG 1.1//EN"
 "http://www.w3.org/Graphics/SVG/1.1/DTD/svg11.dtd">
<!-- Generated by graphviz version 2.40.1 (20161225.0304)
 -->
<!-- Title: twoDegreesRelationshipsDiagram Pages: 1 -->
<svg width="637pt" height="777pt"
 viewBox="0.00 0.00 637.00 777.20" xmlns="http://www.w3.org/2000/svg" xmlns:xlink="http://www.w3.org/1999/xlink">
<g id="graph0" class="graph" transform="scale(1 1) rotate(0) translate(4 773.2)">
<title>twoDegreesRelationshipsDiagram</title>
<polygon fill="#ffffff" stroke="transparent" points="-4,4 -4,-773.2 633,-773.2 633,4 -4,4"/>
<text text-anchor="middle" x="72.4936" y="-7.3" font-family="Helvetica,sans-Serif" font-size="11.00" fill="#000000">Generated by SchemaSpy</text>
<!-- contactos -->
<g id="node1" class="node">
<title>contactos</title>
<g id="a_node1"><a xlink:href="../../tables/contactos.html" xlink:title="contactos" target="_top">
<polygon fill="#ffffff" stroke="transparent" points="531,-596.2 531,-657.2 621,-657.2 621,-596.2 531,-596.2"/>
<polygon fill="#f5f5f5" stroke="transparent" points="531,-633.7 531,-656.7 621,-656.7 621,-633.7 531,-633.7"/>
<polygon fill="none" stroke="#000000" points="531,-633.7 531,-656.7 621,-656.7 621,-633.7 531,-633.7"/>
<text text-anchor="start" x="535.9633" y="-642.8" font-family="Helvetica,sans-Serif" font-weight="bold" font-size="11.00" fill="#000000">contactos</text>
<text text-anchor="start" x="586.5219" y="-641.8" font-family="Helvetica,sans-Serif" font-size="11.00" fill="#000000">[table]</text>
<polygon fill="none" stroke="#000000" points="531,-614.7 531,-633.7 621,-633.7 621,-614.7 531,-614.7"/>
<text text-anchor="start" x="534" y="-620.8" font-family="Helvetica,sans-Serif" font-size="11.00" fill="#000000">...</text>
<polygon fill="#ffffff" stroke="transparent" points="531,-595.7 531,-614.7 557,-614.7 557,-595.7 531,-595.7"/>
<polygon fill="none" stroke="#000000" points="531,-595.7 531,-614.7 557,-614.7 557,-595.7 531,-595.7"/>
<text text-anchor="start" x="534" y="-601.8" font-family="Helvetica,sans-Serif" font-size="11.00" fill="#000000">&lt; 2</text>
<polygon fill="#ffffff" stroke="transparent" points="557,-595.7 557,-614.7 597,-614.7 597,-595.7 557,-595.7"/>
<polygon fill="none" stroke="#000000" points="557,-595.7 557,-614.7 597,-614.7 597,-595.7 557,-595.7"/>
<text text-anchor="start" x="561.6105" y="-601.8" font-family="Helvetica,sans-Serif" font-size="11.00" fill="#000000">2 rows</text>
<polygon fill="#ffffff" stroke="transparent" points="597,-595.7 597,-614.7 621,-614.7 621,-595.7 597,-595.7"/>
<polygon fill="none" stroke="#000000" points="597,-595.7 597,-614.7 621,-614.7 621,-595.7 597,-595.7"/>
<text text-anchor="start" x="602.4053" y="-601.8" font-family="Helvetica,sans-Serif" font-size="11.00" fill="#000000">5 &gt;</text>
</a>
</g>
</g>
<!-- organizaciones -->
<g id="node2" class="node">
<title>organizaciones</title>
<g id="a_node2"><a xlink:href="../../tables/organizaciones.html" xlink:title="organizaciones" target="_top">
<polygon fill="#ffffff" stroke="transparent" points="273,-622.2 273,-683.2 389,-683.2 389,-622.2 273,-622.2"/>
<polygon fill="#f5f5f5" stroke="transparent" points="273,-659.7 273,-682.7 389,-682.7 389,-659.7 273,-659.7"/>
<polygon fill="none" stroke="#000000" points="273,-659.7 273,-682.7 389,-682.7 389,-659.7 273,-659.7"/>
<text text-anchor="start" x="277.5186" y="-668.8" font-family="Helvetica,sans-Serif" font-weight="bold" font-size="11.00" fill="#000000">organizaciones</text>
<text text-anchor="start" x="354.5219" y="-667.8" font-family="Helvetica,sans-Serif" font-size="11.00" fill="#000000">[table]</text>
<polygon fill="none" stroke="#000000" points="273,-640.7 273,-659.7 389,-659.7 389,-640.7 273,-640.7"/>
<text text-anchor="start" x="276" y="-646.8" font-family="Helvetica,sans-Serif" font-size="11.00" fill="#000000">...</text>
<polygon fill="#ffffff" stroke="transparent" points="273,-621.7 273,-640.7 312,-640.7 312,-621.7 273,-621.7"/>
<polygon fill="none" stroke="#000000" points="273,-621.7 273,-640.7 312,-640.7 312,-621.7 273,-621.7"/>
<text text-anchor="start" x="276" y="-627.8" font-family="Helvetica,sans-Serif" font-size="11.00" fill="#000000">&lt; 1</text>
<polygon fill="#ffffff" stroke="transparent" points="312,-621.7 312,-640.7 359,-640.7 359,-621.7 312,-621.7"/>
<polygon fill="none" stroke="#000000" points="312,-621.7 312,-640.7 359,-640.7 359,-621.7 312,-621.7"/>
<text text-anchor="start" x="323.6105" y="-627.8" font-family="Helvetica,sans-Serif" font-size="11.00" fill="#000000">0 rows</text>
<polygon fill="#ffffff" stroke="transparent" points="359,-621.7 359,-640.7 389,-640.7 389,-621.7 359,-621.7"/>
<polygon fill="none" stroke="#000000" points="359,-621.7 359,-640.7 389,-640.7 389,-621.7 359,-621.7"/>
<text text-anchor="start" x="370.4053" y="-627.8" font-family="Helvetica,sans-Serif" font-size="11.00" fill="#000000">1 &gt;</text>
</a>
</g>
</g>
<!-- contactos&#45;&gt;organizaciones -->
<g id="edge1" class="edge">
<title>contactos:w&#45;&gt;organizaciones:e</title>
<path fill="none" stroke="#000000" d="M516.5058,-624.1735C464.3252,-627.6973 448.0225,-649.7 389,-649.7"/>
<polygon fill="#000000" stroke="#000000" points="523.0043,-623.9612 531.1176,-627.2981 527.0021,-623.8306 531,-623.7 531,-623.7 531,-623.7 527.0021,-623.8306 530.8824,-620.1019 523.0043,-623.9612 523.0043,-623.9612"/>
<ellipse fill="none" stroke="#000000" cx="519.806" cy="-624.0657" rx="3.2" ry="3.2"/>
</g>
<!-- personas -->
<g id="node3" class="node">
<title>personas</title>
<g id="a_node3"><a xlink:href="../../tables/personas.html" xlink:title="personas" target="_top">
<polygon fill="#ffffff" stroke="transparent" points="8,-491.2 8,-574.2 131,-574.2 131,-491.2 8,-491.2"/>
<polygon fill="#f5f5f5" stroke="transparent" points="8.5,-550.7 8.5,-573.7 131.5,-573.7 131.5,-550.7 8.5,-550.7"/>
<polygon fill="none" stroke="#000000" points="8.5,-550.7 8.5,-573.7 131.5,-573.7 131.5,-550.7 8.5,-550.7"/>
<text text-anchor="start" x="13.5" y="-559.8" font-family="Helvetica,sans-Serif" font-weight="bold" font-size="11.00" fill="#000000">personas</text>
<text text-anchor="start" x="96.5437" y="-558.8" font-family="Helvetica,sans-Serif" font-size="11.00" fill="#000000">[table]</text>
<polygon fill="none" stroke="#000000" points="8.5,-528.7 8.5,-550.7 131.5,-550.7 131.5,-528.7 8.5,-528.7"/>
<image xlink:href="../../images/primaryKeys.png" width="11px" height="12px" preserveAspectRatio="xMinYMin meet" x="13.5" y="-545.7"/>
<text text-anchor="start" x="28.5" y="-535.8" font-family="Helvetica,sans-Serif" font-size="11.00" fill="#000000">persona_id</text>
<polygon fill="none" stroke="#000000" points="8.5,-509.7 8.5,-528.7 131.5,-528.7 131.5,-509.7 8.5,-509.7"/>
<text text-anchor="start" x="11.5" y="-515.8" font-family="Helvetica,sans-Serif" font-size="11.00" fill="#000000">...</text>
<polygon fill="#ffffff" stroke="transparent" points="8.5,-490.7 8.5,-509.7 46.5,-509.7 46.5,-490.7 8.5,-490.7"/>
<polygon fill="none" stroke="#000000" points="8.5,-490.7 8.5,-509.7 46.5,-509.7 46.5,-490.7 8.5,-490.7"/>
<text text-anchor="start" x="11.5" y="-496.8" font-family="Helvetica,sans-Serif" font-size="11.00" fill="#000000"> &#160;</text>
<polygon fill="#ffffff" stroke="transparent" points="46.5,-490.7 46.5,-509.7 97.5,-509.7 97.5,-490.7 46.5,-490.7"/>
<polygon fill="none" stroke="#000000" points="46.5,-490.7 46.5,-509.7 97.5,-509.7 97.5,-490.7 46.5,-490.7"/>
<text text-anchor="start" x="62.1105" y="-496.8" font-family="Helvetica,sans-Serif" font-size="11.00" fill="#000000">7 rows</text>
<polygon fill="#ffffff" stroke="transparent" points="97.5,-490.7 97.5,-509.7 131.5,-509.7 131.5,-490.7 97.5,-490.7"/>
<polygon fill="none" stroke="#000000" points="97.5,-490.7 97.5,-509.7 131.5,-509.7 131.5,-490.7 97.5,-490.7"/>
<text text-anchor="start" x="112.9053" y="-496.8" font-family="Helvetica,sans-Serif" font-size="11.00" fill="#000000">7 &gt;</text>
</a>
</g>
</g>
<!-- contactos&#45;&gt;personas -->
<g id="edge2" class="edge">
<title>contactos:w&#45;&gt;personas:e</title>
<path fill="none" stroke="#000000" d="M516.5498,-621.5308C508.2939,-618.7748 502.6818,-614.09 490,-611.7 420.2872,-598.5618 235.6505,-615.0226 172,-583.7 148.1526,-571.9646 158.0786,-539.7 131.5,-539.7"/>
<polygon fill="#000000" stroke="#000000" points="523.0886,-622.5123 530.4655,-627.2601 527.0443,-623.1062 531,-623.7 531,-623.7 531,-623.7 527.0443,-623.1062 531.5345,-620.1399 523.0886,-622.5123 523.0886,-622.5123"/>
<ellipse fill="none" stroke="#000000" cx="519.9241" cy="-622.0373" rx="3.2" ry="3.2"/>
</g>
<!-- organizaciones&#45;&gt;personas -->
<g id="edge7" class="edge">
<title>organizaciones:w&#45;&gt;personas:e</title>
<path fill="none" stroke="#000000" d="M258.1608,-649.32C220.7111,-647.2164 204.7265,-636.0496 172,-607.7 145.4122,-584.6681 166.6765,-539.7 131.5,-539.7"/>
<polygon fill="#000000" stroke="#000000" points="265.0026,-649.4952 272.9078,-653.2988 269.0013,-649.5976 273,-649.7 273,-649.7 273,-649.7 269.0013,-649.5976 273.0922,-646.1012 265.0026,-649.4952 265.0026,-649.4952"/>
<ellipse fill="none" stroke="#000000" cx="261.8037" cy="-649.4132" rx="3.2" ry="3.2"/>
</g>
<!-- direcciones -->
<g id="node4" class="node">
<title>direcciones</title>
<g id="a_node4"><a xlink:href="../../tables/direcciones.html" xlink:title="direcciones" target="_top">
<polygon fill="#ffffff" stroke="transparent" points="282,-38.2 282,-99.2 380,-99.2 380,-38.2 282,-38.2"/>
<polygon fill="#f5f5f5" stroke="transparent" points="282,-75.7 282,-98.7 380,-98.7 380,-75.7 282,-75.7"/>
<polygon fill="none" stroke="#000000" points="282,-75.7 282,-98.7 380,-98.7 380,-75.7 282,-75.7"/>
<text text-anchor="start" x="286.6909" y="-84.8" font-family="Helvetica,sans-Serif" font-weight="bold" font-size="11.00" fill="#000000">direcciones</text>
<text text-anchor="start" x="345.5219" y="-83.8" font-family="Helvetica,sans-Serif" font-size="11.00" fill="#000000">[table]</text>
<polygon fill="none" stroke="#000000" points="282,-56.7 282,-75.7 380,-75.7 380,-56.7 282,-56.7"/>
<text text-anchor="start" x="285" y="-62.8" font-family="Helvetica,sans-Serif" font-size="11.00" fill="#000000">...</text>
<polygon fill="#ffffff" stroke="transparent" points="282,-37.7 282,-56.7 316,-56.7 316,-37.7 282,-37.7"/>
<polygon fill="none" stroke="#000000" points="282,-37.7 282,-56.7 316,-56.7 316,-37.7 282,-37.7"/>
<text text-anchor="start" x="285" y="-43.8" font-family="Helvetica,sans-Serif" font-size="11.00" fill="#000000">&lt; 2</text>
<polygon fill="#ffffff" stroke="transparent" points="316,-37.7 316,-56.7 361,-56.7 361,-37.7 316,-37.7"/>
<polygon fill="none" stroke="#000000" points="316,-37.7 316,-56.7 361,-56.7 361,-37.7 316,-37.7"/>
<text text-anchor="start" x="325.6105" y="-43.8" font-family="Helvetica,sans-Serif" font-size="11.00" fill="#000000">4 rows</text>
<polygon fill="#ffffff" stroke="transparent" points="361,-37.7 361,-56.7 380,-56.7 380,-37.7 361,-37.7"/>
<polygon fill="none" stroke="#000000" points="361,-37.7 361,-56.7 380,-56.7 380,-37.7 361,-37.7"/>
<text text-anchor="start" x="370.8862" y="-43.8" font-family="Helvetica,sans-Serif" font-size="11.00" fill="#000000"> &#160;</text>
</a>
</g>
</g>
<!-- direcciones&#45;&gt;personas -->
<g id="edge3" class="edge">
<title>direcciones:w&#45;&gt;personas:e</title>
<path fill="none" stroke="#000000" d="M267.5913,-65.7841C224.3522,-66.4201 200.516,-71.5674 172,-109.7 114.5206,-186.5634 227.4785,-539.7 131.5,-539.7"/>
<polygon fill="#000000" stroke="#000000" points="274.0001,-65.7467 282.021,-69.2999 278.0001,-65.7234 282,-65.7 282,-65.7 282,-65.7 278.0001,-65.7234 281.979,-62.1001 274.0001,-65.7467 274.0001,-65.7467"/>
<ellipse fill="none" stroke="#000000" cx="270.8002" cy="-65.7654" rx="3.2" ry="3.2"/>
</g>
<!-- sedes -->
<g id="node5" class="node">
<title>sedes</title>
<g id="a_node5"><a xlink:href="../../tables/sedes.html" xlink:title="sedes" target="_top">
<polygon fill="#ffffff" stroke="transparent" points="8,-148.2 8,-231.2 131,-231.2 131,-148.2 8,-148.2"/>
<polygon fill="#f5f5f5" stroke="transparent" points="8.5,-207.7 8.5,-230.7 131.5,-230.7 131.5,-207.7 8.5,-207.7"/>
<polygon fill="none" stroke="#000000" points="8.5,-207.7 8.5,-230.7 131.5,-230.7 131.5,-207.7 8.5,-207.7"/>
<text text-anchor="start" x="13.5" y="-216.8" font-family="Helvetica,sans-Serif" font-weight="bold" font-size="11.00" fill="#000000">sedes</text>
<text text-anchor="start" x="96.5437" y="-215.8" font-family="Helvetica,sans-Serif" font-size="11.00" fill="#000000">[table]</text>
<polygon fill="none" stroke="#000000" points="8.5,-185.7 8.5,-207.7 131.5,-207.7 131.5,-185.7 8.5,-185.7"/>
<image xlink:href="../../images/primaryKeys.png" width="11px" height="12px" preserveAspectRatio="xMinYMin meet" x="13.5" y="-202.7"/>
<text text-anchor="start" x="28.5" y="-192.8" font-family="Helvetica,sans-Serif" font-size="11.00" fill="#000000">sede_id</text>
<polygon fill="none" stroke="#000000" points="8.5,-166.7 8.5,-185.7 131.5,-185.7 131.5,-166.7 8.5,-166.7"/>
<text text-anchor="start" x="11.5" y="-172.8" font-family="Helvetica,sans-Serif" font-size="11.00" fill="#000000">...</text>
<polygon fill="#ffffff" stroke="transparent" points="8.5,-147.7 8.5,-166.7 49.5,-166.7 49.5,-147.7 8.5,-147.7"/>
<polygon fill="none" stroke="#000000" points="8.5,-147.7 8.5,-166.7 49.5,-166.7 49.5,-147.7 8.5,-147.7"/>
<text text-anchor="start" x="11.5" y="-153.8" font-family="Helvetica,sans-Serif" font-size="11.00" fill="#000000"> &#160;</text>
<polygon fill="#ffffff" stroke="transparent" points="49.5,-147.7 49.5,-166.7 95.5,-166.7 95.5,-147.7 49.5,-147.7"/>
<polygon fill="none" stroke="#000000" points="49.5,-147.7 49.5,-166.7 95.5,-166.7 95.5,-147.7 49.5,-147.7"/>
<text text-anchor="start" x="65.6105" y="-153.8" font-family="Helvetica,sans-Serif" font-size="11.00" fill="#000000">1 row</text>
<polygon fill="#ffffff" stroke="transparent" points="95.5,-147.7 95.5,-166.7 131.5,-166.7 131.5,-147.7 95.5,-147.7"/>
<polygon fill="none" stroke="#000000" points="95.5,-147.7 95.5,-166.7 131.5,-166.7 131.5,-147.7 95.5,-147.7"/>
<text text-anchor="start" x="112.9053" y="-153.8" font-family="Helvetica,sans-Serif" font-size="11.00" fill="#000000">2 &gt;</text>
</a>
</g>
</g>
<!-- direcciones&#45;&gt;sedes -->
<g id="edge4" class="edge">
<title>direcciones:w&#45;&gt;sedes:e</title>
<path fill="none" stroke="#000000" d="M267.4847,-65.9426C225.4321,-67.4958 206.5106,-77.0429 172,-109.7 141.0207,-139.0154 174.151,-196.7 131.5,-196.7"/>
<polygon fill="#000000" stroke="#000000" points="274.0011,-65.8337 282.0602,-69.2995 278.0006,-65.7669 282,-65.7 282,-65.7 282,-65.7 278.0006,-65.7669 281.9398,-62.1005 274.0011,-65.8337 274.0011,-65.8337"/>
<ellipse fill="none" stroke="#000000" cx="270.8016" cy="-65.8872" rx="3.2" ry="3.2"/>
</g>
<!-- empleados -->
<g id="node6" class="node">
<title>empleados</title>
<g id="a_node6"><a xlink:href="../../tables/empleados.html" xlink:title="empleados" target="_top">
<polygon fill="#ffffff" stroke="transparent" points="283,-512.2 283,-573.2 379,-573.2 379,-512.2 283,-512.2"/>
<polygon fill="#f5f5f5" stroke="transparent" points="283,-549.7 283,-572.7 379,-572.7 379,-549.7 283,-549.7"/>
<polygon fill="none" stroke="#000000" points="283,-549.7 283,-572.7 379,-572.7 379,-549.7 283,-549.7"/>
<text text-anchor="start" x="287.6039" y="-558.8" font-family="Helvetica,sans-Serif" font-weight="bold" font-size="11.00" fill="#000000">empleados</text>
<text text-anchor="start" x="344.5219" y="-557.8" font-family="Helvetica,sans-Serif" font-size="11.00" fill="#000000">[table]</text>
<polygon fill="none" stroke="#000000" points="283,-530.7 283,-549.7 379,-549.7 379,-530.7 283,-530.7"/>
<text text-anchor="start" x="286" y="-536.8" font-family="Helvetica,sans-Serif" font-size="11.00" fill="#000000">...</text>
<polygon fill="#ffffff" stroke="transparent" points="283,-511.7 283,-530.7 319,-530.7 319,-511.7 283,-511.7"/>
<polygon fill="none" stroke="#000000" points="283,-511.7 283,-530.7 319,-530.7 319,-511.7 283,-511.7"/>
<text text-anchor="start" x="286" y="-517.8" font-family="Helvetica,sans-Serif" font-size="11.00" fill="#000000">&lt; 2</text>
<polygon fill="#ffffff" stroke="transparent" points="319,-511.7 319,-530.7 359,-530.7 359,-511.7 319,-511.7"/>
<polygon fill="none" stroke="#000000" points="319,-511.7 319,-530.7 359,-530.7 359,-511.7 319,-511.7"/>
<text text-anchor="start" x="329.1105" y="-517.8" font-family="Helvetica,sans-Serif" font-size="11.00" fill="#000000">1 row</text>
<polygon fill="#ffffff" stroke="transparent" points="359,-511.7 359,-530.7 379,-530.7 379,-511.7 359,-511.7"/>
<polygon fill="none" stroke="#000000" points="359,-511.7 359,-530.7 379,-530.7 379,-511.7 359,-511.7"/>
<text text-anchor="start" x="369.8862" y="-517.8" font-family="Helvetica,sans-Serif" font-size="11.00" fill="#000000"> &#160;</text>
</a>
</g>
</g>
<!-- empleados&#45;&gt;personas -->
<g id="edge5" class="edge">
<title>empleados:w&#45;&gt;personas:e</title>
<path fill="none" stroke="#000000" d="M268.4477,-539.7C212.8092,-539.7 193.7044,-539.7 131.5,-539.7"/>
<polygon fill="#000000" stroke="#000000" points="275,-539.7001 283,-543.3 279,-539.7 283,-539.7 283,-539.7 283,-539.7 279,-539.7 283,-536.1 275,-539.7001 275,-539.7001"/>
<ellipse fill="none" stroke="#000000" cx="271.8" cy="-539.7001" rx="3.2" ry="3.2"/>
</g>
<!-- leads -->
<g id="node7" class="node">
<title>leads</title>
<g id="a_node7"><a xlink:href="../../tables/leads.html" xlink:title="leads" target="_top">
<polygon fill="#ffffff" stroke="transparent" points="291,-430.2 291,-491.2 371,-491.2 371,-430.2 291,-430.2"/>
<polygon fill="#f5f5f5" stroke="transparent" points="291,-467.7 291,-490.7 371,-490.7 371,-467.7 291,-467.7"/>
<polygon fill="none" stroke="#000000" points="291,-467.7 291,-490.7 371,-490.7 371,-467.7 291,-467.7"/>
<text text-anchor="start" x="296" y="-476.8" font-family="Helvetica,sans-Serif" font-weight="bold" font-size="11.00" fill="#000000">leads</text>
<text text-anchor="start" x="336.0437" y="-475.8" font-family="Helvetica,sans-Serif" font-size="11.00" fill="#000000">[table]</text>
<polygon fill="none" stroke="#000000" points="291,-448.7 291,-467.7 371,-467.7 371,-448.7 291,-448.7"/>
<text text-anchor="start" x="294" y="-454.8" font-family="Helvetica,sans-Serif" font-size="11.00" fill="#000000">...</text>
<polygon fill="#ffffff" stroke="transparent" points="291,-429.7 291,-448.7 312,-448.7 312,-429.7 291,-429.7"/>
<polygon fill="none" stroke="#000000" points="291,-429.7 291,-448.7 312,-448.7 312,-429.7 291,-429.7"/>
<text text-anchor="start" x="293.7027" y="-435.8" font-family="Helvetica,sans-Serif" font-size="11.00" fill="#000000">&lt; 4</text>
<polygon fill="#ffffff" stroke="transparent" points="312,-429.7 312,-448.7 350,-448.7 350,-429.7 312,-429.7"/>
<polygon fill="none" stroke="#000000" points="312,-429.7 312,-448.7 350,-448.7 350,-429.7 312,-429.7"/>
<text text-anchor="start" x="314.8053" y="-435.8" font-family="Helvetica,sans-Serif" font-size="11.00" fill="#000000">2 rows</text>
<polygon fill="#ffffff" stroke="transparent" points="350,-429.7 350,-448.7 371,-448.7 371,-429.7 350,-429.7"/>
<polygon fill="none" stroke="#000000" points="350,-429.7 350,-448.7 371,-448.7 371,-429.7 350,-429.7"/>
<text text-anchor="start" x="352.7027" y="-435.8" font-family="Helvetica,sans-Serif" font-size="11.00" fill="#000000">3 &gt;</text>
</a>
</g>
</g>
<!-- leads&#45;&gt;personas -->
<g id="edge6" class="edge">
<title>leads:w&#45;&gt;personas:e</title>
<path fill="none" stroke="#000000" d="M276.4682,-458.0633C231.6407,-460.462 215.556,-474.7637 172,-501.7 151.0074,-514.6824 156.1827,-539.7 131.5,-539.7"/>
<polygon fill="#000000" stroke="#000000" points="283.0025,-457.9 291.09,-461.2989 287.0012,-457.8 291,-457.7 291,-457.7 291,-457.7 287.0012,-457.8 290.91,-454.1011 283.0025,-457.9 283.0025,-457.9"/>
<ellipse fill="none" stroke="#000000" cx="279.8035" cy="-457.98" rx="3.2" ry="3.2"/>
</g>
<!-- profesores -->
<g id="node8" class="node">
<title>profesores</title>
<g id="a_node8"><a xlink:href="../../tables/profesores.html" xlink:title="profesores" target="_top">
<polygon fill="#ffffff" stroke="transparent" points="284,-704.2 284,-765.2 378,-765.2 378,-704.2 284,-704.2"/>
<polygon fill="#f5f5f5" stroke="transparent" points="284,-741.7 284,-764.7 378,-764.7 378,-741.7 284,-741.7"/>
<polygon fill="none" stroke="#000000" points="284,-741.7 284,-764.7 378,-764.7 378,-741.7 284,-741.7"/>
<text text-anchor="start" x="288.5224" y="-750.8" font-family="Helvetica,sans-Serif" font-weight="bold" font-size="11.00" fill="#000000">profesores</text>
<text text-anchor="start" x="343.5219" y="-749.8" font-family="Helvetica,sans-Serif" font-size="11.00" fill="#000000">[table]</text>
<polygon fill="none" stroke="#000000" points="284,-722.7 284,-741.7 378,-741.7 378,-722.7 284,-722.7"/>
<text text-anchor="start" x="287" y="-728.8" font-family="Helvetica,sans-Serif" font-size="11.00" fill="#000000">...</text>
<polygon fill="#ffffff" stroke="transparent" points="284,-703.7 284,-722.7 315,-722.7 315,-703.7 284,-703.7"/>
<polygon fill="none" stroke="#000000" points="284,-703.7 284,-722.7 315,-722.7 315,-703.7 284,-703.7"/>
<text text-anchor="start" x="287" y="-709.8" font-family="Helvetica,sans-Serif" font-size="11.00" fill="#000000">&lt; 1</text>
<polygon fill="#ffffff" stroke="transparent" points="315,-703.7 315,-722.7 352,-722.7 352,-703.7 315,-703.7"/>
<polygon fill="none" stroke="#000000" points="315,-703.7 315,-722.7 352,-722.7 352,-703.7 315,-703.7"/>
<text text-anchor="start" x="322.1105" y="-709.8" font-family="Helvetica,sans-Serif" font-size="11.00" fill="#000000">1 row</text>
<polygon fill="#ffffff" stroke="transparent" points="352,-703.7 352,-722.7 378,-722.7 378,-703.7 352,-703.7"/>
<polygon fill="none" stroke="#000000" points="352,-703.7 352,-722.7 378,-722.7 378,-703.7 352,-703.7"/>
<text text-anchor="start" x="359.4053" y="-709.8" font-family="Helvetica,sans-Serif" font-size="11.00" fill="#000000">1 &gt;</text>
</a>
</g>
</g>
<!-- profesores&#45;&gt;personas -->
<g id="edge8" class="edge">
<title>profesores:w&#45;&gt;personas:e</title>
<path fill="none" stroke="#000000" d="M269.3908,-731.6761C226.7112,-731.4161 204.3461,-728.3912 172,-693.7 123.7369,-641.9379 202.2718,-539.7 131.5,-539.7"/>
<polygon fill="#000000" stroke="#000000" points="276,-731.6869 283.9941,-735.3 280,-731.6934 284,-731.7 284,-731.7 284,-731.7 280,-731.6934 284.0059,-728.1 276,-731.6869 276,-731.6869"/>
<ellipse fill="none" stroke="#000000" cx="272.8" cy="-731.6816" rx="3.2" ry="3.2"/>
</g>
<!-- telefonos -->
<g id="node9" class="node">
<title>telefonos</title>
<g id="a_node9"><a xlink:href="../../tables/telefonos.html" xlink:title="telefonos" target="_top">
<polygon fill="#ffffff" stroke="transparent" points="180,-120.7 180,-408.7 482,-408.7 482,-120.7 180,-120.7"/>
<polygon fill="#f5f5f5" stroke="transparent" points="182,-383.7 182,-406.7 480,-406.7 480,-383.7 182,-383.7"/>
<polygon fill="none" stroke="#000000" points="182,-383.7 182,-406.7 480,-406.7 480,-383.7 182,-383.7"/>
<text text-anchor="start" x="187" y="-392.8" font-family="Helvetica,sans-Serif" font-weight="bold" font-size="11.00" fill="#000000">telefonos</text>
<text text-anchor="start" x="445.0437" y="-391.8" font-family="Helvetica,sans-Serif" font-size="11.00" fill="#000000">[table]</text>
<polygon fill="none" stroke="#000000" points="182,-361.7 182,-383.7 305,-383.7 305,-361.7 182,-361.7"/>
<image xlink:href="../../images/primaryKeys.png" width="11px" height="12px" preserveAspectRatio="xMinYMin meet" x="187" y="-378.7"/>
<text text-anchor="start" x="202" y="-368.8" font-family="Helvetica,sans-Serif" font-size="11.00" fill="#000000">telefono_id</text>
<polygon fill="none" stroke="#000000" points="305,-361.7 305,-383.7 480,-383.7 480,-361.7 305,-361.7"/>
<text text-anchor="start" x="308" y="-369.4" font-family="Helvetica,sans-Serif" font-size="11.00" fill="#000000">serial[10]</text>
<polygon fill="none" stroke="#000000" points="182,-339.7 182,-361.7 305,-361.7 305,-339.7 182,-339.7"/>
<image xlink:href="../../images/foreignKeys.png" width="11px" height="12px" preserveAspectRatio="xMinYMin meet" x="187" y="-356.7"/>
<text text-anchor="start" x="202" y="-346.8" font-family="Helvetica,sans-Serif" font-size="11.00" fill="#000000">persona_id</text>
<polygon fill="none" stroke="#000000" points="305,-339.7 305,-361.7 480,-361.7 480,-339.7 305,-339.7"/>
<text text-anchor="start" x="308" y="-347.4" font-family="Helvetica,sans-Serif" font-size="11.00" fill="#000000">int4[10]</text>
<polygon fill="none" stroke="#000000" points="182,-317.7 182,-339.7 305,-339.7 305,-317.7 182,-317.7"/>
<image xlink:href="../../images/foreignKeys.png" width="11px" height="12px" preserveAspectRatio="xMinYMin meet" x="187" y="-334.7"/>
<text text-anchor="start" x="202" y="-324.8" font-family="Helvetica,sans-Serif" font-size="11.00" fill="#000000">sede_id</text>
<polygon fill="none" stroke="#000000" points="305,-317.7 305,-339.7 480,-339.7 480,-317.7 305,-317.7"/>
<text text-anchor="start" x="308" y="-325.4" font-family="Helvetica,sans-Serif" font-size="11.00" fill="#000000">int4[10]</text>
<polygon fill="none" stroke="#000000" points="182,-295.7 182,-317.7 305,-317.7 305,-295.7 182,-295.7"/>
<text text-anchor="start" x="202" y="-302.8" font-family="Helvetica,sans-Serif" font-size="11.00" fill="#000000">tipo</text>
<polygon fill="none" stroke="#000000" points="305,-295.7 305,-317.7 480,-317.7 480,-295.7 305,-295.7"/>
<text text-anchor="start" x="307.822" y="-303.4" font-family="Helvetica,sans-Serif" font-size="11.00" fill="#000000">enum_telefonos_tipo[2147483647]</text>
<polygon fill="none" stroke="#000000" points="182,-273.7 182,-295.7 305,-295.7 305,-273.7 182,-273.7"/>
<text text-anchor="start" x="202" y="-280.8" font-family="Helvetica,sans-Serif" font-size="11.00" fill="#000000">principal</text>
<polygon fill="none" stroke="#000000" points="305,-273.7 305,-295.7 480,-295.7 480,-273.7 305,-273.7"/>
<text text-anchor="start" x="308" y="-281.4" font-family="Helvetica,sans-Serif" font-size="11.00" fill="#000000">bool[1]</text>
<polygon fill="none" stroke="#000000" points="182,-251.7 182,-273.7 305,-273.7 305,-251.7 182,-251.7"/>
<text text-anchor="start" x="202" y="-258.8" font-family="Helvetica,sans-Serif" font-size="11.00" fill="#000000">numero</text>
<polygon fill="none" stroke="#000000" points="305,-251.7 305,-273.7 480,-273.7 480,-251.7 305,-251.7"/>
<text text-anchor="start" x="308" y="-259.4" font-family="Helvetica,sans-Serif" font-size="11.00" fill="#000000">varchar[20]</text>
<polygon fill="none" stroke="#000000" points="182,-229.7 182,-251.7 305,-251.7 305,-229.7 182,-229.7"/>
<text text-anchor="start" x="202" y="-236.8" font-family="Helvetica,sans-Serif" font-size="11.00" fill="#000000">comentario</text>
<polygon fill="none" stroke="#000000" points="305,-229.7 305,-251.7 480,-251.7 480,-229.7 305,-229.7"/>
<text text-anchor="start" x="308" y="-237.4" font-family="Helvetica,sans-Serif" font-size="11.00" fill="#000000">varchar[20]</text>
<polygon fill="none" stroke="#000000" points="182,-207.7 182,-229.7 305,-229.7 305,-207.7 182,-207.7"/>
<text text-anchor="start" x="202" y="-214.8" font-family="Helvetica,sans-Serif" font-size="11.00" fill="#000000">usu_insercion</text>
<polygon fill="none" stroke="#000000" points="305,-207.7 305,-229.7 480,-229.7 480,-207.7 305,-207.7"/>
<text text-anchor="start" x="308" y="-215.4" font-family="Helvetica,sans-Serif" font-size="11.00" fill="#000000">varchar[20]</text>
<polygon fill="none" stroke="#000000" points="182,-185.7 182,-207.7 305,-207.7 305,-185.7 182,-185.7"/>
<text text-anchor="start" x="202" y="-192.8" font-family="Helvetica,sans-Serif" font-size="11.00" fill="#000000">fec_insercion</text>
<polygon fill="none" stroke="#000000" points="305,-185.7 305,-207.7 480,-207.7 480,-185.7 305,-185.7"/>
<text text-anchor="start" x="308" y="-193.4" font-family="Helvetica,sans-Serif" font-size="11.00" fill="#000000">timestamptz[35,6]</text>
<polygon fill="none" stroke="#000000" points="182,-163.7 182,-185.7 305,-185.7 305,-163.7 182,-163.7"/>
<text text-anchor="start" x="202" y="-170.8" font-family="Helvetica,sans-Serif" font-size="11.00" fill="#000000">fec_modificacion</text>
<polygon fill="none" stroke="#000000" points="305,-163.7 305,-185.7 480,-185.7 480,-163.7 305,-163.7"/>
<text text-anchor="start" x="308" y="-171.4" font-family="Helvetica,sans-Serif" font-size="11.00" fill="#000000">timestamptz[35,6]</text>
<polygon fill="none" stroke="#000000" points="182,-141.7 182,-163.7 305,-163.7 305,-141.7 182,-141.7"/>
<text text-anchor="start" x="202" y="-148.8" font-family="Helvetica,sans-Serif" font-size="11.00" fill="#000000">usu_modificacion</text>
<polygon fill="none" stroke="#000000" points="305,-141.7 305,-163.7 480,-163.7 480,-141.7 305,-141.7"/>
<text text-anchor="start" x="308" y="-149.4" font-family="Helvetica,sans-Serif" font-size="11.00" fill="#000000">varchar[20]</text>
<polygon fill="#ffffff" stroke="transparent" points="182,-122.7 182,-141.7 238,-141.7 238,-122.7 182,-122.7"/>
<polygon fill="none" stroke="#000000" points="182,-122.7 182,-141.7 238,-141.7 238,-122.7 182,-122.7"/>
<text text-anchor="start" x="185" y="-128.8" font-family="Helvetica,sans-Serif" font-size="11.00" fill="#000000">&lt; 2</text>
<polygon fill="#ffffff" stroke="transparent" points="238,-122.7 238,-141.7 305,-141.7 305,-122.7 238,-122.7"/>
<polygon fill="none" stroke="#000000" points="238,-122.7 238,-141.7 305,-141.7 305,-122.7 238,-122.7"/>
<text text-anchor="start" x="275.1105" y="-128.8" font-family="Helvetica,sans-Serif" font-size="11.00" fill="#000000">1 row</text>
<polygon fill="#ffffff" stroke="transparent" points="305,-122.7 305,-141.7 480,-141.7 480,-122.7 305,-122.7"/>
<polygon fill="none" stroke="#000000" points="305,-122.7 305,-141.7 480,-141.7 480,-122.7 305,-122.7"/>
<text text-anchor="start" x="461.4053" y="-128.8" font-family="Helvetica,sans-Serif" font-size="11.00" fill="#000000">0 &gt;</text>
<polygon fill="none" stroke="#000000" stroke-width="2" points="181,-121.7 181,-407.7 481,-407.7 481,-121.7 181,-121.7"/>
</a>
</g>
</g>
<!-- telefonos&#45;&gt;personas -->
<g id="edge9" class="edge">
<title>telefonos:w&#45;&gt;personas:e</title>
<path fill="none" stroke="#000000" d="M167.6968,-352.9542C110.0856,-374.2781 212.8428,-539.7 131.5,-539.7"/>
<polygon fill="#000000" stroke="#000000" points="174.0975,-351.9455 182.5605,-354.2561 178.0488,-351.3227 182,-350.7 182,-350.7 182,-350.7 178.0488,-351.3227 181.4395,-347.1439 174.0975,-351.9455 174.0975,-351.9455"/>
<ellipse fill="none" stroke="#000000" cx="170.9366" cy="-352.4437" rx="3.2" ry="3.2"/>
</g>
<!-- telefonos&#45;&gt;sedes -->
<g id="edge10" class="edge">
<title>telefonos:w&#45;&gt;sedes:e</title>
<path fill="none" stroke="#000000" d="M167.7435,-325.4371C132.0605,-305.1102 188.4247,-196.7 131.5,-196.7"/>
<polygon fill="#000000" stroke="#000000" points="174.2016,-326.9151 181.1968,-332.2093 178.1008,-327.8076 182,-328.7 182,-328.7 182,-328.7 178.1008,-327.8076 182.8032,-325.1907 174.2016,-326.9151 174.2016,-326.9151"/>
<ellipse fill="none" stroke="#000000" cx="171.0823" cy="-326.2012" rx="3.2" ry="3.2"/>
</g>
</g>
</svg>
