<?xml version="1.0" encoding="UTF-8" standalone="no"?>
<!DOCTYPE svg PUBLIC "-//W3C//DTD SVG 1.1//EN"
 "http://www.w3.org/Graphics/SVG/1.1/DTD/svg11.dtd">
<!-- Generated by graphviz version 2.40.1 (20161225.0304)
 -->
<!-- Title: twoDegreesRelationshipsDiagram Pages: 1 -->
<svg width="637pt" height="673pt"
 viewBox="0.00 0.00 637.00 672.70" xmlns="http://www.w3.org/2000/svg" xmlns:xlink="http://www.w3.org/1999/xlink">
<g id="graph0" class="graph" transform="scale(1 1) rotate(0) translate(4 668.7)">
<title>twoDegreesRelationshipsDiagram</title>
<polygon fill="#ffffff" stroke="transparent" points="-4,4 -4,-668.7 633,-668.7 633,4 -4,4"/>
<text text-anchor="middle" x="72.4936" y="-7.3" font-family="Helvetica,sans-Serif" font-size="11.00" fill="#000000">Generated by SchemaSpy</text>
<!-- contactos -->
<g id="node1" class="node">
<title>contactos</title>
<g id="a_node1"><a xlink:href="../../tables/contactos.html" xlink:title="contactos" target="_top">
<polygon fill="#ffffff" stroke="transparent" points="531,-573.7 531,-634.7 621,-634.7 621,-573.7 531,-573.7"/>
<polygon fill="#f5f5f5" stroke="transparent" points="531,-611.2 531,-634.2 621,-634.2 621,-611.2 531,-611.2"/>
<polygon fill="none" stroke="#000000" points="531,-611.2 531,-634.2 621,-634.2 621,-611.2 531,-611.2"/>
<text text-anchor="start" x="535.9633" y="-620.3" font-family="Helvetica,sans-Serif" font-weight="bold" font-size="11.00" fill="#000000">contactos</text>
<text text-anchor="start" x="586.5219" y="-619.3" font-family="Helvetica,sans-Serif" font-size="11.00" fill="#000000">[table]</text>
<polygon fill="none" stroke="#000000" points="531,-592.2 531,-611.2 621,-611.2 621,-592.2 531,-592.2"/>
<text text-anchor="start" x="534" y="-598.3" font-family="Helvetica,sans-Serif" font-size="11.00" fill="#000000">...</text>
<polygon fill="#ffffff" stroke="transparent" points="531,-573.2 531,-592.2 557,-592.2 557,-573.2 531,-573.2"/>
<polygon fill="none" stroke="#000000" points="531,-573.2 531,-592.2 557,-592.2 557,-573.2 531,-573.2"/>
<text text-anchor="start" x="534" y="-579.3" font-family="Helvetica,sans-Serif" font-size="11.00" fill="#000000">&lt; 2</text>
<polygon fill="#ffffff" stroke="transparent" points="557,-573.2 557,-592.2 597,-592.2 597,-573.2 557,-573.2"/>
<polygon fill="none" stroke="#000000" points="557,-573.2 557,-592.2 597,-592.2 597,-573.2 557,-573.2"/>
<text text-anchor="start" x="561.6105" y="-579.3" font-family="Helvetica,sans-Serif" font-size="11.00" fill="#000000">5 rows</text>
<polygon fill="#ffffff" stroke="transparent" points="597,-573.2 597,-592.2 621,-592.2 621,-573.2 597,-573.2"/>
<polygon fill="none" stroke="#000000" points="597,-573.2 597,-592.2 621,-592.2 621,-573.2 597,-573.2"/>
<text text-anchor="start" x="602.4053" y="-579.3" font-family="Helvetica,sans-Serif" font-size="11.00" fill="#000000">5 &gt;</text>
</a>
</g>
</g>
<!-- organizaciones -->
<g id="node2" class="node">
<title>organizaciones</title>
<g id="a_node2"><a xlink:href="../../tables/organizaciones.html" xlink:title="organizaciones" target="_top">
<polygon fill="#ffffff" stroke="transparent" points="273,-599.7 273,-660.7 389,-660.7 389,-599.7 273,-599.7"/>
<polygon fill="#f5f5f5" stroke="transparent" points="273,-637.2 273,-660.2 389,-660.2 389,-637.2 273,-637.2"/>
<polygon fill="none" stroke="#000000" points="273,-637.2 273,-660.2 389,-660.2 389,-637.2 273,-637.2"/>
<text text-anchor="start" x="277.5186" y="-646.3" font-family="Helvetica,sans-Serif" font-weight="bold" font-size="11.00" fill="#000000">organizaciones</text>
<text text-anchor="start" x="354.5219" y="-645.3" font-family="Helvetica,sans-Serif" font-size="11.00" fill="#000000">[table]</text>
<polygon fill="none" stroke="#000000" points="273,-618.2 273,-637.2 389,-637.2 389,-618.2 273,-618.2"/>
<text text-anchor="start" x="276" y="-624.3" font-family="Helvetica,sans-Serif" font-size="11.00" fill="#000000">...</text>
<polygon fill="#ffffff" stroke="transparent" points="273,-599.2 273,-618.2 312,-618.2 312,-599.2 273,-599.2"/>
<polygon fill="none" stroke="#000000" points="273,-599.2 273,-618.2 312,-618.2 312,-599.2 273,-599.2"/>
<text text-anchor="start" x="276" y="-605.3" font-family="Helvetica,sans-Serif" font-size="11.00" fill="#000000">&lt; 1</text>
<polygon fill="#ffffff" stroke="transparent" points="312,-599.2 312,-618.2 359,-618.2 359,-599.2 312,-599.2"/>
<polygon fill="none" stroke="#000000" points="312,-599.2 312,-618.2 359,-618.2 359,-599.2 312,-599.2"/>
<text text-anchor="start" x="323.6105" y="-605.3" font-family="Helvetica,sans-Serif" font-size="11.00" fill="#000000">0 rows</text>
<polygon fill="#ffffff" stroke="transparent" points="359,-599.2 359,-618.2 389,-618.2 389,-599.2 359,-599.2"/>
<polygon fill="none" stroke="#000000" points="359,-599.2 359,-618.2 389,-618.2 389,-599.2 359,-599.2"/>
<text text-anchor="start" x="370.4053" y="-605.3" font-family="Helvetica,sans-Serif" font-size="11.00" fill="#000000">1 &gt;</text>
</a>
</g>
</g>
<!-- contactos&#45;&gt;organizaciones -->
<g id="edge1" class="edge">
<title>contactos:w&#45;&gt;organizaciones:e</title>
<path fill="none" stroke="#000000" d="M516.5058,-601.6735C464.3252,-605.1973 448.0225,-627.2 389,-627.2"/>
<polygon fill="#000000" stroke="#000000" points="523.0043,-601.4612 531.1176,-604.7981 527.0021,-601.3306 531,-601.2 531,-601.2 531,-601.2 527.0021,-601.3306 530.8824,-597.6019 523.0043,-601.4612 523.0043,-601.4612"/>
<ellipse fill="none" stroke="#000000" cx="519.806" cy="-601.5657" rx="3.2" ry="3.2"/>
</g>
<!-- personas -->
<g id="node3" class="node">
<title>personas</title>
<g id="a_node3"><a xlink:href="../../tables/personas.html" xlink:title="personas" target="_top">
<polygon fill="#ffffff" stroke="transparent" points="8,-427.7 8,-510.7 131,-510.7 131,-427.7 8,-427.7"/>
<polygon fill="#f5f5f5" stroke="transparent" points="8.5,-487.2 8.5,-510.2 131.5,-510.2 131.5,-487.2 8.5,-487.2"/>
<polygon fill="none" stroke="#000000" points="8.5,-487.2 8.5,-510.2 131.5,-510.2 131.5,-487.2 8.5,-487.2"/>
<text text-anchor="start" x="13.5" y="-496.3" font-family="Helvetica,sans-Serif" font-weight="bold" font-size="11.00" fill="#000000">personas</text>
<text text-anchor="start" x="96.5437" y="-495.3" font-family="Helvetica,sans-Serif" font-size="11.00" fill="#000000">[table]</text>
<polygon fill="none" stroke="#000000" points="8.5,-465.2 8.5,-487.2 131.5,-487.2 131.5,-465.2 8.5,-465.2"/>
<image xlink:href="../../images/primaryKeys.png" width="11px" height="12px" preserveAspectRatio="xMinYMin meet" x="13.5" y="-482.2"/>
<text text-anchor="start" x="28.5" y="-472.3" font-family="Helvetica,sans-Serif" font-size="11.00" fill="#000000">persona_id</text>
<polygon fill="none" stroke="#000000" points="8.5,-446.2 8.5,-465.2 131.5,-465.2 131.5,-446.2 8.5,-446.2"/>
<text text-anchor="start" x="11.5" y="-452.3" font-family="Helvetica,sans-Serif" font-size="11.00" fill="#000000">...</text>
<polygon fill="#ffffff" stroke="transparent" points="8.5,-427.2 8.5,-446.2 46.5,-446.2 46.5,-427.2 8.5,-427.2"/>
<polygon fill="none" stroke="#000000" points="8.5,-427.2 8.5,-446.2 46.5,-446.2 46.5,-427.2 8.5,-427.2"/>
<text text-anchor="start" x="11.5" y="-433.3" font-family="Helvetica,sans-Serif" font-size="11.00" fill="#000000"> &#160;</text>
<polygon fill="#ffffff" stroke="transparent" points="46.5,-427.2 46.5,-446.2 97.5,-446.2 97.5,-427.2 46.5,-427.2"/>
<polygon fill="none" stroke="#000000" points="46.5,-427.2 46.5,-446.2 97.5,-446.2 97.5,-427.2 46.5,-427.2"/>
<text text-anchor="start" x="62.1105" y="-433.3" font-family="Helvetica,sans-Serif" font-size="11.00" fill="#000000">5 rows</text>
<polygon fill="#ffffff" stroke="transparent" points="97.5,-427.2 97.5,-446.2 131.5,-446.2 131.5,-427.2 97.5,-427.2"/>
<polygon fill="none" stroke="#000000" points="97.5,-427.2 97.5,-446.2 131.5,-446.2 131.5,-427.2 97.5,-427.2"/>
<text text-anchor="start" x="112.9053" y="-433.3" font-family="Helvetica,sans-Serif" font-size="11.00" fill="#000000">6 &gt;</text>
</a>
</g>
</g>
<!-- contactos&#45;&gt;personas -->
<g id="edge2" class="edge">
<title>contactos:w&#45;&gt;personas:e</title>
<path fill="none" stroke="#000000" d="M516.5498,-599.0308C508.2939,-596.2748 502.6818,-591.59 490,-589.2 420.2872,-576.0618 230.2681,-601.6638 172,-561.2 137.6282,-537.3308 173.3469,-476.2 131.5,-476.2"/>
<polygon fill="#000000" stroke="#000000" points="523.0886,-600.0123 530.4655,-604.7601 527.0443,-600.6062 531,-601.2 531,-601.2 531,-601.2 527.0443,-600.6062 531.5345,-597.6399 523.0886,-600.0123 523.0886,-600.0123"/>
<ellipse fill="none" stroke="#000000" cx="519.9241" cy="-599.5373" rx="3.2" ry="3.2"/>
</g>
<!-- organizaciones&#45;&gt;personas -->
<g id="edge6" class="edge">
<title>organizaciones:w&#45;&gt;personas:e</title>
<path fill="none" stroke="#000000" d="M258.5642,-626.9426C220.2784,-625.4174 202.1556,-616.5344 172,-585.2 136.1636,-547.9627 183.1804,-476.2 131.5,-476.2"/>
<polygon fill="#000000" stroke="#000000" points="265.0013,-627.0573 272.9358,-630.7994 269.0006,-627.1287 273,-627.2 273,-627.2 273,-627.2 269.0006,-627.1287 273.0642,-623.6006 265.0013,-627.0573 265.0013,-627.0573"/>
<ellipse fill="none" stroke="#000000" cx="261.8018" cy="-627.0003" rx="3.2" ry="3.2"/>
</g>
<!-- direcciones -->
<g id="node4" class="node">
<title>direcciones</title>
<g id="a_node4"><a xlink:href="../../tables/direcciones.html" xlink:title="direcciones" target="_top">
<polygon fill="#ffffff" stroke="transparent" points="282,-489.7 282,-550.7 380,-550.7 380,-489.7 282,-489.7"/>
<polygon fill="#f5f5f5" stroke="transparent" points="282,-527.2 282,-550.2 380,-550.2 380,-527.2 282,-527.2"/>
<polygon fill="none" stroke="#000000" points="282,-527.2 282,-550.2 380,-550.2 380,-527.2 282,-527.2"/>
<text text-anchor="start" x="286.6909" y="-536.3" font-family="Helvetica,sans-Serif" font-weight="bold" font-size="11.00" fill="#000000">direcciones</text>
<text text-anchor="start" x="345.5219" y="-535.3" font-family="Helvetica,sans-Serif" font-size="11.00" fill="#000000">[table]</text>
<polygon fill="none" stroke="#000000" points="282,-508.2 282,-527.2 380,-527.2 380,-508.2 282,-508.2"/>
<text text-anchor="start" x="285" y="-514.3" font-family="Helvetica,sans-Serif" font-size="11.00" fill="#000000">...</text>
<polygon fill="#ffffff" stroke="transparent" points="282,-489.2 282,-508.2 319,-508.2 319,-489.2 282,-489.2"/>
<polygon fill="none" stroke="#000000" points="282,-489.2 282,-508.2 319,-508.2 319,-489.2 282,-489.2"/>
<text text-anchor="start" x="285" y="-495.3" font-family="Helvetica,sans-Serif" font-size="11.00" fill="#000000">&lt; 1</text>
<polygon fill="#ffffff" stroke="transparent" points="319,-489.2 319,-508.2 359,-508.2 359,-489.2 319,-489.2"/>
<polygon fill="none" stroke="#000000" points="319,-489.2 319,-508.2 359,-508.2 359,-489.2 319,-489.2"/>
<text text-anchor="start" x="329.1105" y="-495.3" font-family="Helvetica,sans-Serif" font-size="11.00" fill="#000000">1 row</text>
<polygon fill="#ffffff" stroke="transparent" points="359,-489.2 359,-508.2 380,-508.2 380,-489.2 359,-489.2"/>
<polygon fill="none" stroke="#000000" points="359,-489.2 359,-508.2 380,-508.2 380,-489.2 359,-489.2"/>
<text text-anchor="start" x="370.8862" y="-495.3" font-family="Helvetica,sans-Serif" font-size="11.00" fill="#000000"> &#160;</text>
</a>
</g>
</g>
<!-- direcciones&#45;&gt;personas -->
<g id="edge3" class="edge">
<title>direcciones:w&#45;&gt;personas:e</title>
<path fill="none" stroke="#000000" d="M267.4669,-516.556C210.5983,-511.3399 195.6812,-476.2 131.5,-476.2"/>
<polygon fill="#000000" stroke="#000000" points="274.0078,-516.8458 281.8406,-520.7965 278.0039,-517.0229 282,-517.2 282,-517.2 282,-517.2 278.0039,-517.0229 282.1594,-513.6035 274.0078,-516.8458 274.0078,-516.8458"/>
<ellipse fill="none" stroke="#000000" cx="270.811" cy="-516.7041" rx="3.2" ry="3.2"/>
</g>
<!-- empleados -->
<g id="node5" class="node">
<title>empleados</title>
<g id="a_node5"><a xlink:href="../../tables/empleados.html" xlink:title="empleados" target="_top">
<polygon fill="#ffffff" stroke="transparent" points="283,-407.7 283,-468.7 379,-468.7 379,-407.7 283,-407.7"/>
<polygon fill="#f5f5f5" stroke="transparent" points="283,-445.2 283,-468.2 379,-468.2 379,-445.2 283,-445.2"/>
<polygon fill="none" stroke="#000000" points="283,-445.2 283,-468.2 379,-468.2 379,-445.2 283,-445.2"/>
<text text-anchor="start" x="287.6039" y="-454.3" font-family="Helvetica,sans-Serif" font-weight="bold" font-size="11.00" fill="#000000">empleados</text>
<text text-anchor="start" x="344.5219" y="-453.3" font-family="Helvetica,sans-Serif" font-size="11.00" fill="#000000">[table]</text>
<polygon fill="none" stroke="#000000" points="283,-426.2 283,-445.2 379,-445.2 379,-426.2 283,-426.2"/>
<text text-anchor="start" x="286" y="-432.3" font-family="Helvetica,sans-Serif" font-size="11.00" fill="#000000">...</text>
<polygon fill="#ffffff" stroke="transparent" points="283,-407.2 283,-426.2 319,-426.2 319,-407.2 283,-407.2"/>
<polygon fill="none" stroke="#000000" points="283,-407.2 283,-426.2 319,-426.2 319,-407.2 283,-407.2"/>
<text text-anchor="start" x="286" y="-413.3" font-family="Helvetica,sans-Serif" font-size="11.00" fill="#000000">&lt; 2</text>
<polygon fill="#ffffff" stroke="transparent" points="319,-407.2 319,-426.2 359,-426.2 359,-407.2 319,-407.2"/>
<polygon fill="none" stroke="#000000" points="319,-407.2 319,-426.2 359,-426.2 359,-407.2 319,-407.2"/>
<text text-anchor="start" x="329.1105" y="-413.3" font-family="Helvetica,sans-Serif" font-size="11.00" fill="#000000">1 row</text>
<polygon fill="#ffffff" stroke="transparent" points="359,-407.2 359,-426.2 379,-426.2 379,-407.2 359,-407.2"/>
<polygon fill="none" stroke="#000000" points="359,-407.2 359,-426.2 379,-426.2 379,-407.2 359,-407.2"/>
<text text-anchor="start" x="369.8862" y="-413.3" font-family="Helvetica,sans-Serif" font-size="11.00" fill="#000000"> &#160;</text>
</a>
</g>
</g>
<!-- empleados&#45;&gt;personas -->
<g id="edge4" class="edge">
<title>empleados:w&#45;&gt;personas:e</title>
<path fill="none" stroke="#000000" d="M268.3759,-435.844C211.1467,-441.0601 196.0783,-476.2 131.5,-476.2"/>
<polygon fill="#000000" stroke="#000000" points="275.0077,-435.552 283.1584,-438.7965 279.0039,-435.376 283,-435.2 283,-435.2 283,-435.2 279.0039,-435.376 282.8416,-431.6035 275.0077,-435.552 275.0077,-435.552"/>
<ellipse fill="none" stroke="#000000" cx="271.8108" cy="-435.6928" rx="3.2" ry="3.2"/>
</g>
<!-- leads -->
<g id="node6" class="node">
<title>leads</title>
<g id="a_node6"><a xlink:href="../../tables/leads.html" xlink:title="leads" target="_top">
<polygon fill="#ffffff" stroke="transparent" points="291,-325.7 291,-386.7 371,-386.7 371,-325.7 291,-325.7"/>
<polygon fill="#f5f5f5" stroke="transparent" points="291,-363.2 291,-386.2 371,-386.2 371,-363.2 291,-363.2"/>
<polygon fill="none" stroke="#000000" points="291,-363.2 291,-386.2 371,-386.2 371,-363.2 291,-363.2"/>
<text text-anchor="start" x="296" y="-372.3" font-family="Helvetica,sans-Serif" font-weight="bold" font-size="11.00" fill="#000000">leads</text>
<text text-anchor="start" x="336.0437" y="-371.3" font-family="Helvetica,sans-Serif" font-size="11.00" fill="#000000">[table]</text>
<polygon fill="none" stroke="#000000" points="291,-344.2 291,-363.2 371,-363.2 371,-344.2 291,-344.2"/>
<text text-anchor="start" x="294" y="-350.3" font-family="Helvetica,sans-Serif" font-size="11.00" fill="#000000">...</text>
<polygon fill="#ffffff" stroke="transparent" points="291,-325.2 291,-344.2 312,-344.2 312,-325.2 291,-325.2"/>
<polygon fill="none" stroke="#000000" points="291,-325.2 291,-344.2 312,-344.2 312,-325.2 291,-325.2"/>
<text text-anchor="start" x="293.7027" y="-331.3" font-family="Helvetica,sans-Serif" font-size="11.00" fill="#000000">&lt; 5</text>
<polygon fill="#ffffff" stroke="transparent" points="312,-325.2 312,-344.2 350,-344.2 350,-325.2 312,-325.2"/>
<polygon fill="none" stroke="#000000" points="312,-325.2 312,-344.2 350,-344.2 350,-325.2 312,-325.2"/>
<text text-anchor="start" x="314.8053" y="-331.3" font-family="Helvetica,sans-Serif" font-size="11.00" fill="#000000">4 rows</text>
<polygon fill="#ffffff" stroke="transparent" points="350,-325.2 350,-344.2 371,-344.2 371,-325.2 350,-325.2"/>
<polygon fill="none" stroke="#000000" points="350,-325.2 350,-344.2 371,-344.2 371,-325.2 350,-325.2"/>
<text text-anchor="start" x="352.7027" y="-331.3" font-family="Helvetica,sans-Serif" font-size="11.00" fill="#000000">3 &gt;</text>
</a>
</g>
</g>
<!-- leads&#45;&gt;personas -->
<g id="edge5" class="edge">
<title>leads:w&#45;&gt;personas:e</title>
<path fill="none" stroke="#000000" d="M276.3356,-353.3851C230.6778,-354.6681 210.3113,-363.2158 172,-397.2 142.4832,-423.383 170.9562,-476.2 131.5,-476.2"/>
<polygon fill="#000000" stroke="#000000" points="283.0006,-353.301 291.0455,-356.7997 287.0003,-353.2505 291,-353.2 291,-353.2 291,-353.2 287.0003,-353.2505 290.9545,-349.6003 283.0006,-353.301 283.0006,-353.301"/>
<ellipse fill="none" stroke="#000000" cx="279.8009" cy="-353.3415" rx="3.2" ry="3.2"/>
</g>
<!-- telefonos -->
<g id="node7" class="node">
<title>telefonos</title>
<g id="a_node7"><a xlink:href="../../tables/telefonos.html" xlink:title="telefonos" target="_top">
<polygon fill="#ffffff" stroke="transparent" points="180,-38.2 180,-304.2 482,-304.2 482,-38.2 180,-38.2"/>
<polygon fill="#f5f5f5" stroke="transparent" points="182,-279.2 182,-302.2 480,-302.2 480,-279.2 182,-279.2"/>
<polygon fill="none" stroke="#000000" points="182,-279.2 182,-302.2 480,-302.2 480,-279.2 182,-279.2"/>
<text text-anchor="start" x="187" y="-288.3" font-family="Helvetica,sans-Serif" font-weight="bold" font-size="11.00" fill="#000000">telefonos</text>
<text text-anchor="start" x="445.0437" y="-287.3" font-family="Helvetica,sans-Serif" font-size="11.00" fill="#000000">[table]</text>
<polygon fill="none" stroke="#000000" points="182,-257.2 182,-279.2 305,-279.2 305,-257.2 182,-257.2"/>
<image xlink:href="../../images/primaryKeys.png" width="11px" height="12px" preserveAspectRatio="xMinYMin meet" x="187" y="-274.2"/>
<text text-anchor="start" x="202" y="-264.3" font-family="Helvetica,sans-Serif" font-size="11.00" fill="#000000">telefono_id</text>
<polygon fill="none" stroke="#000000" points="305,-257.2 305,-279.2 480,-279.2 480,-257.2 305,-257.2"/>
<text text-anchor="start" x="308" y="-264.9" font-family="Helvetica,sans-Serif" font-size="11.00" fill="#000000">serial[10]</text>
<polygon fill="none" stroke="#000000" points="182,-235.2 182,-257.2 305,-257.2 305,-235.2 182,-235.2"/>
<image xlink:href="../../images/foreignKeys.png" width="11px" height="12px" preserveAspectRatio="xMinYMin meet" x="187" y="-252.2"/>
<text text-anchor="start" x="202" y="-242.3" font-family="Helvetica,sans-Serif" font-size="11.00" fill="#000000">persona_id</text>
<polygon fill="none" stroke="#000000" points="305,-235.2 305,-257.2 480,-257.2 480,-235.2 305,-235.2"/>
<text text-anchor="start" x="308" y="-242.9" font-family="Helvetica,sans-Serif" font-size="11.00" fill="#000000">int4[10]</text>
<polygon fill="none" stroke="#000000" points="182,-213.2 182,-235.2 305,-235.2 305,-213.2 182,-213.2"/>
<text text-anchor="start" x="202" y="-220.3" font-family="Helvetica,sans-Serif" font-size="11.00" fill="#000000">tipo</text>
<polygon fill="none" stroke="#000000" points="305,-213.2 305,-235.2 480,-235.2 480,-213.2 305,-213.2"/>
<text text-anchor="start" x="307.822" y="-220.9" font-family="Helvetica,sans-Serif" font-size="11.00" fill="#000000">enum_telefonos_tipo[2147483647]</text>
<polygon fill="none" stroke="#000000" points="182,-191.2 182,-213.2 305,-213.2 305,-191.2 182,-191.2"/>
<text text-anchor="start" x="202" y="-198.3" font-family="Helvetica,sans-Serif" font-size="11.00" fill="#000000">principal</text>
<polygon fill="none" stroke="#000000" points="305,-191.2 305,-213.2 480,-213.2 480,-191.2 305,-191.2"/>
<text text-anchor="start" x="308" y="-198.9" font-family="Helvetica,sans-Serif" font-size="11.00" fill="#000000">bool[1]</text>
<polygon fill="none" stroke="#000000" points="182,-169.2 182,-191.2 305,-191.2 305,-169.2 182,-169.2"/>
<text text-anchor="start" x="202" y="-176.3" font-family="Helvetica,sans-Serif" font-size="11.00" fill="#000000">numero</text>
<polygon fill="none" stroke="#000000" points="305,-169.2 305,-191.2 480,-191.2 480,-169.2 305,-169.2"/>
<text text-anchor="start" x="308" y="-176.9" font-family="Helvetica,sans-Serif" font-size="11.00" fill="#000000">varchar[20]</text>
<polygon fill="none" stroke="#000000" points="182,-147.2 182,-169.2 305,-169.2 305,-147.2 182,-147.2"/>
<text text-anchor="start" x="202" y="-154.3" font-family="Helvetica,sans-Serif" font-size="11.00" fill="#000000">comentario</text>
<polygon fill="none" stroke="#000000" points="305,-147.2 305,-169.2 480,-169.2 480,-147.2 305,-147.2"/>
<text text-anchor="start" x="308" y="-154.9" font-family="Helvetica,sans-Serif" font-size="11.00" fill="#000000">text[2147483647]</text>
<polygon fill="none" stroke="#000000" points="182,-125.2 182,-147.2 305,-147.2 305,-125.2 182,-125.2"/>
<text text-anchor="start" x="202" y="-132.3" font-family="Helvetica,sans-Serif" font-size="11.00" fill="#000000">usu_insercion</text>
<polygon fill="none" stroke="#000000" points="305,-125.2 305,-147.2 480,-147.2 480,-125.2 305,-125.2"/>
<text text-anchor="start" x="308" y="-132.9" font-family="Helvetica,sans-Serif" font-size="11.00" fill="#000000">varchar[20]</text>
<polygon fill="none" stroke="#000000" points="182,-103.2 182,-125.2 305,-125.2 305,-103.2 182,-103.2"/>
<text text-anchor="start" x="202" y="-110.3" font-family="Helvetica,sans-Serif" font-size="11.00" fill="#000000">fec_insercion</text>
<polygon fill="none" stroke="#000000" points="305,-103.2 305,-125.2 480,-125.2 480,-103.2 305,-103.2"/>
<text text-anchor="start" x="308" y="-110.9" font-family="Helvetica,sans-Serif" font-size="11.00" fill="#000000">timestamptz[35,6]</text>
<polygon fill="none" stroke="#000000" points="182,-81.2 182,-103.2 305,-103.2 305,-81.2 182,-81.2"/>
<text text-anchor="start" x="202" y="-88.3" font-family="Helvetica,sans-Serif" font-size="11.00" fill="#000000">fec_modificacion</text>
<polygon fill="none" stroke="#000000" points="305,-81.2 305,-103.2 480,-103.2 480,-81.2 305,-81.2"/>
<text text-anchor="start" x="308" y="-88.9" font-family="Helvetica,sans-Serif" font-size="11.00" fill="#000000">timestamptz[35,6]</text>
<polygon fill="none" stroke="#000000" points="182,-59.2 182,-81.2 305,-81.2 305,-59.2 182,-59.2"/>
<text text-anchor="start" x="202" y="-66.3" font-family="Helvetica,sans-Serif" font-size="11.00" fill="#000000">usu_modificacion</text>
<polygon fill="none" stroke="#000000" points="305,-59.2 305,-81.2 480,-81.2 480,-59.2 305,-59.2"/>
<text text-anchor="start" x="308" y="-66.9" font-family="Helvetica,sans-Serif" font-size="11.00" fill="#000000">varchar[20]</text>
<polygon fill="#ffffff" stroke="transparent" points="182,-40.2 182,-59.2 238,-59.2 238,-40.2 182,-40.2"/>
<polygon fill="none" stroke="#000000" points="182,-40.2 182,-59.2 238,-59.2 238,-40.2 182,-40.2"/>
<text text-anchor="start" x="185" y="-46.3" font-family="Helvetica,sans-Serif" font-size="11.00" fill="#000000">&lt; 1</text>
<polygon fill="#ffffff" stroke="transparent" points="238,-40.2 238,-59.2 305,-59.2 305,-40.2 238,-40.2"/>
<polygon fill="none" stroke="#000000" points="238,-40.2 238,-59.2 305,-59.2 305,-40.2 238,-40.2"/>
<text text-anchor="start" x="275.1105" y="-46.3" font-family="Helvetica,sans-Serif" font-size="11.00" fill="#000000">1 row</text>
<polygon fill="#ffffff" stroke="transparent" points="305,-40.2 305,-59.2 480,-59.2 480,-40.2 305,-40.2"/>
<polygon fill="none" stroke="#000000" points="305,-40.2 305,-59.2 480,-59.2 480,-40.2 305,-40.2"/>
<text text-anchor="start" x="461.4053" y="-46.3" font-family="Helvetica,sans-Serif" font-size="11.00" fill="#000000">0 &gt;</text>
<polygon fill="none" stroke="#000000" stroke-width="2" points="181,-39.2 181,-303.2 481,-303.2 481,-39.2 181,-39.2"/>
</a>
</g>
</g>
<!-- telefonos&#45;&gt;personas -->
<g id="edge7" class="edge">
<title>telefonos:w&#45;&gt;personas:e</title>
<path fill="none" stroke="#000000" d="M167.5637,-248.0514C93.36,-269.8182 230.6382,-476.2 131.5,-476.2"/>
<polygon fill="#000000" stroke="#000000" points="174.065,-247.2177 182.458,-249.7708 178.0325,-246.7088 182,-246.2 182,-246.2 182,-246.2 178.0325,-246.7088 181.542,-242.6292 174.065,-247.2177 174.065,-247.2177"/>
<ellipse fill="none" stroke="#000000" cx="170.891" cy="-247.6247" rx="3.2" ry="3.2"/>
</g>
</g>
</svg>
