<?xml version="1.0" encoding="UTF-8" standalone="no"?>
<!DOCTYPE svg PUBLIC "-//W3C//DTD SVG 1.1//EN"
 "http://www.w3.org/Graphics/SVG/1.1/DTD/svg11.dtd">
<!-- Generated by graphviz version 2.40.1 (20161225.0304)
 -->
<!-- Title: oneDegreeRelationshipsDiagram Pages: 1 -->
<svg width="498pt" height="356pt"
 viewBox="0.00 0.00 498.00 355.70" xmlns="http://www.w3.org/2000/svg" xmlns:xlink="http://www.w3.org/1999/xlink">
<g id="graph0" class="graph" transform="scale(1 1) rotate(0) translate(4 351.7)">
<title>oneDegreeRelationshipsDiagram</title>
<polygon fill="#ffffff" stroke="transparent" points="-4,4 -4,-351.7 494,-351.7 494,4 -4,4"/>
<text text-anchor="middle" x="72.4936" y="-7.3" font-family="Helvetica,sans-Serif" font-size="11.00" fill="#000000">Generated by SchemaSpy</text>
<!-- telefonos -->
<g id="node1" class="node">
<title>telefonos</title>
<g id="a_node1"><a xlink:href="../../tables/telefonos.html" xlink:title="telefonos" target="_top">
<polygon fill="#ffffff" stroke="transparent" points="180,-38.2 180,-326.2 482,-326.2 482,-38.2 180,-38.2"/>
<polygon fill="#f5f5f5" stroke="transparent" points="182,-301.2 182,-324.2 480,-324.2 480,-301.2 182,-301.2"/>
<polygon fill="none" stroke="#000000" points="182,-301.2 182,-324.2 480,-324.2 480,-301.2 182,-301.2"/>
<text text-anchor="start" x="187" y="-310.3" font-family="Helvetica,sans-Serif" font-weight="bold" font-size="11.00" fill="#000000">telefonos</text>
<text text-anchor="start" x="445.0437" y="-309.3" font-family="Helvetica,sans-Serif" font-size="11.00" fill="#000000">[table]</text>
<polygon fill="none" stroke="#000000" points="182,-279.2 182,-301.2 305,-301.2 305,-279.2 182,-279.2"/>
<image xlink:href="../../images/primaryKeys.png" width="11px" height="12px" preserveAspectRatio="xMinYMin meet" x="187" y="-296.2"/>
<text text-anchor="start" x="202" y="-286.3" font-family="Helvetica,sans-Serif" font-size="11.00" fill="#000000">telefono_id</text>
<polygon fill="none" stroke="#000000" points="305,-279.2 305,-301.2 480,-301.2 480,-279.2 305,-279.2"/>
<text text-anchor="start" x="308" y="-286.9" font-family="Helvetica,sans-Serif" font-size="11.00" fill="#000000">serial[10]</text>
<polygon fill="none" stroke="#000000" points="182,-257.2 182,-279.2 305,-279.2 305,-257.2 182,-257.2"/>
<image xlink:href="../../images/foreignKeys.png" width="11px" height="12px" preserveAspectRatio="xMinYMin meet" x="187" y="-274.2"/>
<text text-anchor="start" x="202" y="-264.3" font-family="Helvetica,sans-Serif" font-size="11.00" fill="#000000">persona_id</text>
<polygon fill="none" stroke="#000000" points="305,-257.2 305,-279.2 480,-279.2 480,-257.2 305,-257.2"/>
<text text-anchor="start" x="308" y="-264.9" font-family="Helvetica,sans-Serif" font-size="11.00" fill="#000000">int4[10]</text>
<polygon fill="none" stroke="#000000" points="182,-235.2 182,-257.2 305,-257.2 305,-235.2 182,-235.2"/>
<image xlink:href="../../images/foreignKeys.png" width="11px" height="12px" preserveAspectRatio="xMinYMin meet" x="187" y="-252.2"/>
<text text-anchor="start" x="202" y="-242.3" font-family="Helvetica,sans-Serif" font-size="11.00" fill="#000000">sede_id</text>
<polygon fill="none" stroke="#000000" points="305,-235.2 305,-257.2 480,-257.2 480,-235.2 305,-235.2"/>
<text text-anchor="start" x="308" y="-242.9" font-family="Helvetica,sans-Serif" font-size="11.00" fill="#000000">int4[10]</text>
<polygon fill="none" stroke="#000000" points="182,-213.2 182,-235.2 305,-235.2 305,-213.2 182,-213.2"/>
<text text-anchor="start" x="202" y="-220.3" font-family="Helvetica,sans-Serif" font-size="11.00" fill="#000000">tipo</text>
<polygon fill="none" stroke="#000000" points="305,-213.2 305,-235.2 480,-235.2 480,-213.2 305,-213.2"/>
<text text-anchor="start" x="307.822" y="-220.9" font-family="Helvetica,sans-Serif" font-size="11.00" fill="#000000">enum_telefonos_tipo[2147483647]</text>
<polygon fill="none" stroke="#000000" points="182,-191.2 182,-213.2 305,-213.2 305,-191.2 182,-191.2"/>
<text text-anchor="start" x="202" y="-198.3" font-family="Helvetica,sans-Serif" font-size="11.00" fill="#000000">principal</text>
<polygon fill="none" stroke="#000000" points="305,-191.2 305,-213.2 480,-213.2 480,-191.2 305,-191.2"/>
<text text-anchor="start" x="308" y="-198.9" font-family="Helvetica,sans-Serif" font-size="11.00" fill="#000000">bool[1]</text>
<polygon fill="none" stroke="#000000" points="182,-169.2 182,-191.2 305,-191.2 305,-169.2 182,-169.2"/>
<text text-anchor="start" x="202" y="-176.3" font-family="Helvetica,sans-Serif" font-size="11.00" fill="#000000">numero</text>
<polygon fill="none" stroke="#000000" points="305,-169.2 305,-191.2 480,-191.2 480,-169.2 305,-169.2"/>
<text text-anchor="start" x="308" y="-176.9" font-family="Helvetica,sans-Serif" font-size="11.00" fill="#000000">varchar[20]</text>
<polygon fill="none" stroke="#000000" points="182,-147.2 182,-169.2 305,-169.2 305,-147.2 182,-147.2"/>
<text text-anchor="start" x="202" y="-154.3" font-family="Helvetica,sans-Serif" font-size="11.00" fill="#000000">comentario</text>
<polygon fill="none" stroke="#000000" points="305,-147.2 305,-169.2 480,-169.2 480,-147.2 305,-147.2"/>
<text text-anchor="start" x="308" y="-154.9" font-family="Helvetica,sans-Serif" font-size="11.00" fill="#000000">varchar[20]</text>
<polygon fill="none" stroke="#000000" points="182,-125.2 182,-147.2 305,-147.2 305,-125.2 182,-125.2"/>
<text text-anchor="start" x="202" y="-132.3" font-family="Helvetica,sans-Serif" font-size="11.00" fill="#000000">usu_insercion</text>
<polygon fill="none" stroke="#000000" points="305,-125.2 305,-147.2 480,-147.2 480,-125.2 305,-125.2"/>
<text text-anchor="start" x="308" y="-132.9" font-family="Helvetica,sans-Serif" font-size="11.00" fill="#000000">varchar[20]</text>
<polygon fill="none" stroke="#000000" points="182,-103.2 182,-125.2 305,-125.2 305,-103.2 182,-103.2"/>
<text text-anchor="start" x="202" y="-110.3" font-family="Helvetica,sans-Serif" font-size="11.00" fill="#000000">fec_insercion</text>
<polygon fill="none" stroke="#000000" points="305,-103.2 305,-125.2 480,-125.2 480,-103.2 305,-103.2"/>
<text text-anchor="start" x="308" y="-110.9" font-family="Helvetica,sans-Serif" font-size="11.00" fill="#000000">timestamptz[35,6]</text>
<polygon fill="none" stroke="#000000" points="182,-81.2 182,-103.2 305,-103.2 305,-81.2 182,-81.2"/>
<text text-anchor="start" x="202" y="-88.3" font-family="Helvetica,sans-Serif" font-size="11.00" fill="#000000">fec_modificacion</text>
<polygon fill="none" stroke="#000000" points="305,-81.2 305,-103.2 480,-103.2 480,-81.2 305,-81.2"/>
<text text-anchor="start" x="308" y="-88.9" font-family="Helvetica,sans-Serif" font-size="11.00" fill="#000000">timestamptz[35,6]</text>
<polygon fill="none" stroke="#000000" points="182,-59.2 182,-81.2 305,-81.2 305,-59.2 182,-59.2"/>
<text text-anchor="start" x="202" y="-66.3" font-family="Helvetica,sans-Serif" font-size="11.00" fill="#000000">usu_modificacion</text>
<polygon fill="none" stroke="#000000" points="305,-59.2 305,-81.2 480,-81.2 480,-59.2 305,-59.2"/>
<text text-anchor="start" x="308" y="-66.9" font-family="Helvetica,sans-Serif" font-size="11.00" fill="#000000">varchar[20]</text>
<polygon fill="#ffffff" stroke="transparent" points="182,-40.2 182,-59.2 238,-59.2 238,-40.2 182,-40.2"/>
<polygon fill="none" stroke="#000000" points="182,-40.2 182,-59.2 238,-59.2 238,-40.2 182,-40.2"/>
<text text-anchor="start" x="185" y="-46.3" font-family="Helvetica,sans-Serif" font-size="11.00" fill="#000000">&lt; 2</text>
<polygon fill="#ffffff" stroke="transparent" points="238,-40.2 238,-59.2 305,-59.2 305,-40.2 238,-40.2"/>
<polygon fill="none" stroke="#000000" points="238,-40.2 238,-59.2 305,-59.2 305,-40.2 238,-40.2"/>
<text text-anchor="start" x="275.1105" y="-46.3" font-family="Helvetica,sans-Serif" font-size="11.00" fill="#000000">1 row</text>
<polygon fill="#ffffff" stroke="transparent" points="305,-40.2 305,-59.2 480,-59.2 480,-40.2 305,-40.2"/>
<polygon fill="none" stroke="#000000" points="305,-40.2 305,-59.2 480,-59.2 480,-40.2 305,-40.2"/>
<text text-anchor="start" x="461.4053" y="-46.3" font-family="Helvetica,sans-Serif" font-size="11.00" fill="#000000">0 &gt;</text>
<polygon fill="none" stroke="#000000" stroke-width="2" points="181,-39.2 181,-325.2 481,-325.2 481,-39.2 181,-39.2"/>
</a>
</g>
</g>
<!-- personas -->
<g id="node2" class="node">
<title>personas</title>
<g id="a_node2"><a xlink:href="../../tables/personas.html" xlink:title="personas" target="_top">
<polygon fill="#ffffff" stroke="transparent" points="8,-260.7 8,-343.7 131,-343.7 131,-260.7 8,-260.7"/>
<polygon fill="#f5f5f5" stroke="transparent" points="8.5,-320.2 8.5,-343.2 131.5,-343.2 131.5,-320.2 8.5,-320.2"/>
<polygon fill="none" stroke="#000000" points="8.5,-320.2 8.5,-343.2 131.5,-343.2 131.5,-320.2 8.5,-320.2"/>
<text text-anchor="start" x="13.5" y="-329.3" font-family="Helvetica,sans-Serif" font-weight="bold" font-size="11.00" fill="#000000">personas</text>
<text text-anchor="start" x="96.5437" y="-328.3" font-family="Helvetica,sans-Serif" font-size="11.00" fill="#000000">[table]</text>
<polygon fill="none" stroke="#000000" points="8.5,-298.2 8.5,-320.2 131.5,-320.2 131.5,-298.2 8.5,-298.2"/>
<image xlink:href="../../images/primaryKeys.png" width="11px" height="12px" preserveAspectRatio="xMinYMin meet" x="13.5" y="-315.2"/>
<text text-anchor="start" x="28.5" y="-305.3" font-family="Helvetica,sans-Serif" font-size="11.00" fill="#000000">persona_id</text>
<polygon fill="none" stroke="#000000" points="8.5,-279.2 8.5,-298.2 131.5,-298.2 131.5,-279.2 8.5,-279.2"/>
<text text-anchor="start" x="11.5" y="-285.3" font-family="Helvetica,sans-Serif" font-size="11.00" fill="#000000">...</text>
<polygon fill="#ffffff" stroke="transparent" points="8.5,-260.2 8.5,-279.2 46.5,-279.2 46.5,-260.2 8.5,-260.2"/>
<polygon fill="none" stroke="#000000" points="8.5,-260.2 8.5,-279.2 46.5,-279.2 46.5,-260.2 8.5,-260.2"/>
<text text-anchor="start" x="11.5" y="-266.3" font-family="Helvetica,sans-Serif" font-size="11.00" fill="#000000"> &#160;</text>
<polygon fill="#ffffff" stroke="transparent" points="46.5,-260.2 46.5,-279.2 97.5,-279.2 97.5,-260.2 46.5,-260.2"/>
<polygon fill="none" stroke="#000000" points="46.5,-260.2 46.5,-279.2 97.5,-279.2 97.5,-260.2 46.5,-260.2"/>
<text text-anchor="start" x="62.1105" y="-266.3" font-family="Helvetica,sans-Serif" font-size="11.00" fill="#000000">7 rows</text>
<polygon fill="#ffffff" stroke="transparent" points="97.5,-260.2 97.5,-279.2 131.5,-279.2 131.5,-260.2 97.5,-260.2"/>
<polygon fill="none" stroke="#000000" points="97.5,-260.2 97.5,-279.2 131.5,-279.2 131.5,-260.2 97.5,-260.2"/>
<text text-anchor="start" x="112.9053" y="-266.3" font-family="Helvetica,sans-Serif" font-size="11.00" fill="#000000">7 &gt;</text>
</a>
</g>
</g>
<!-- telefonos&#45;&gt;personas -->
<g id="edge1" class="edge">
<title>telefonos:w&#45;&gt;personas:e</title>
<path fill="none" stroke="#000000" d="M168.2601,-272.5877C154.5688,-283.1646 154.5379,-309.2 131.5,-309.2"/>
<polygon fill="#000000" stroke="#000000" points="174.3792,-270.6337 183.0952,-271.6294 178.1896,-269.4168 182,-268.2 182,-268.2 182,-268.2 178.1896,-269.4168 180.9048,-264.7706 174.3792,-270.6337 174.3792,-270.6337"/>
<ellipse fill="none" stroke="#000000" cx="171.3308" cy="-271.6072" rx="3.2" ry="3.2"/>
</g>
<!-- sedes -->
<g id="node3" class="node">
<title>sedes</title>
<g id="a_node3"><a xlink:href="../../tables/sedes.html" xlink:title="sedes" target="_top">
<polygon fill="#ffffff" stroke="transparent" points="8,-156.7 8,-239.7 131,-239.7 131,-156.7 8,-156.7"/>
<polygon fill="#f5f5f5" stroke="transparent" points="8.5,-216.2 8.5,-239.2 131.5,-239.2 131.5,-216.2 8.5,-216.2"/>
<polygon fill="none" stroke="#000000" points="8.5,-216.2 8.5,-239.2 131.5,-239.2 131.5,-216.2 8.5,-216.2"/>
<text text-anchor="start" x="13.5" y="-225.3" font-family="Helvetica,sans-Serif" font-weight="bold" font-size="11.00" fill="#000000">sedes</text>
<text text-anchor="start" x="96.5437" y="-224.3" font-family="Helvetica,sans-Serif" font-size="11.00" fill="#000000">[table]</text>
<polygon fill="none" stroke="#000000" points="8.5,-194.2 8.5,-216.2 131.5,-216.2 131.5,-194.2 8.5,-194.2"/>
<image xlink:href="../../images/primaryKeys.png" width="11px" height="12px" preserveAspectRatio="xMinYMin meet" x="13.5" y="-211.2"/>
<text text-anchor="start" x="28.5" y="-201.3" font-family="Helvetica,sans-Serif" font-size="11.00" fill="#000000">sede_id</text>
<polygon fill="none" stroke="#000000" points="8.5,-175.2 8.5,-194.2 131.5,-194.2 131.5,-175.2 8.5,-175.2"/>
<text text-anchor="start" x="11.5" y="-181.3" font-family="Helvetica,sans-Serif" font-size="11.00" fill="#000000">...</text>
<polygon fill="#ffffff" stroke="transparent" points="8.5,-156.2 8.5,-175.2 49.5,-175.2 49.5,-156.2 8.5,-156.2"/>
<polygon fill="none" stroke="#000000" points="8.5,-156.2 8.5,-175.2 49.5,-175.2 49.5,-156.2 8.5,-156.2"/>
<text text-anchor="start" x="11.5" y="-162.3" font-family="Helvetica,sans-Serif" font-size="11.00" fill="#000000"> &#160;</text>
<polygon fill="#ffffff" stroke="transparent" points="49.5,-156.2 49.5,-175.2 95.5,-175.2 95.5,-156.2 49.5,-156.2"/>
<polygon fill="none" stroke="#000000" points="49.5,-156.2 49.5,-175.2 95.5,-175.2 95.5,-156.2 49.5,-156.2"/>
<text text-anchor="start" x="65.6105" y="-162.3" font-family="Helvetica,sans-Serif" font-size="11.00" fill="#000000">1 row</text>
<polygon fill="#ffffff" stroke="transparent" points="95.5,-156.2 95.5,-175.2 131.5,-175.2 131.5,-156.2 95.5,-156.2"/>
<polygon fill="none" stroke="#000000" points="95.5,-156.2 95.5,-175.2 131.5,-175.2 131.5,-156.2 95.5,-156.2"/>
<text text-anchor="start" x="112.9053" y="-162.3" font-family="Helvetica,sans-Serif" font-size="11.00" fill="#000000">2 &gt;</text>
</a>
</g>
</g>
<!-- telefonos&#45;&gt;sedes -->
<g id="edge2" class="edge">
<title>telefonos:w&#45;&gt;sedes:e</title>
<path fill="none" stroke="#000000" d="M168.2601,-241.8123C154.5688,-231.2354 154.5379,-205.2 131.5,-205.2"/>
<polygon fill="#000000" stroke="#000000" points="174.3792,-243.7663 180.9048,-249.6294 178.1896,-244.9832 182,-246.2 182,-246.2 182,-246.2 178.1896,-244.9832 183.0952,-242.7706 174.3792,-243.7663 174.3792,-243.7663"/>
<ellipse fill="none" stroke="#000000" cx="171.3308" cy="-242.7928" rx="3.2" ry="3.2"/>
</g>
</g>
</svg>
