<?xml version="1.0" encoding="UTF-8" standalone="no"?>
<!DOCTYPE svg PUBLIC "-//W3C//DTD SVG 1.1//EN"
 "http://www.w3.org/Graphics/SVG/1.1/DTD/svg11.dtd">
<!-- Generated by graphviz version 2.40.1 (20161225.0304)
 -->
<!-- Title: twoDegreesRelationshipsDiagram Pages: 1 -->
<svg width="637pt" height="870pt"
 viewBox="0.00 0.00 637.00 870.36" xmlns="http://www.w3.org/2000/svg" xmlns:xlink="http://www.w3.org/1999/xlink">
<g id="graph0" class="graph" transform="scale(1 1) rotate(0) translate(4 866.3628)">
<title>twoDegreesRelationshipsDiagram</title>
<polygon fill="#ffffff" stroke="transparent" points="-4,4 -4,-866.3628 633,-866.3628 633,4 -4,4"/>
<text text-anchor="middle" x="72.4936" y="-7.3" font-family="Helvetica,sans-Serif" font-size="11.00" fill="#000000">Generated by SchemaSpy</text>
<!-- ciclo_aulas -->
<g id="node1" class="node">
<title>ciclo_aulas</title>
<g id="a_node1"><a xlink:href="../../tables/ciclo_aulas.html" xlink:title="ciclo_aulas" target="_top">
<polygon fill="#ffffff" stroke="transparent" points="282.5,-797.3628 282.5,-858.3628 379.5,-858.3628 379.5,-797.3628 282.5,-797.3628"/>
<polygon fill="#f5f5f5" stroke="transparent" points="283,-834.8628 283,-857.8628 380,-857.8628 380,-834.8628 283,-834.8628"/>
<polygon fill="none" stroke="#000000" points="283,-834.8628 283,-857.8628 380,-857.8628 380,-834.8628 283,-834.8628"/>
<text text-anchor="start" x="287.8014" y="-843.9628" font-family="Helvetica,sans-Serif" font-weight="bold" font-size="11.00" fill="#000000">ciclo_aulas</text>
<text text-anchor="start" x="345.5219" y="-842.9628" font-family="Helvetica,sans-Serif" font-size="11.00" fill="#000000">[table]</text>
<polygon fill="none" stroke="#000000" points="283,-815.8628 283,-834.8628 380,-834.8628 380,-815.8628 283,-815.8628"/>
<text text-anchor="start" x="286" y="-821.9628" font-family="Helvetica,sans-Serif" font-size="11.00" fill="#000000">...</text>
<polygon fill="#ffffff" stroke="transparent" points="283,-796.8628 283,-815.8628 312,-815.8628 312,-796.8628 283,-796.8628"/>
<polygon fill="none" stroke="#000000" points="283,-796.8628 283,-815.8628 312,-815.8628 312,-796.8628 283,-796.8628"/>
<text text-anchor="start" x="286" y="-802.9628" font-family="Helvetica,sans-Serif" font-size="11.00" fill="#000000">&lt; 3</text>
<polygon fill="#ffffff" stroke="transparent" points="312,-796.8628 312,-815.8628 354,-815.8628 354,-796.8628 312,-796.8628"/>
<polygon fill="none" stroke="#000000" points="312,-796.8628 312,-815.8628 354,-815.8628 354,-796.8628 312,-796.8628"/>
<text text-anchor="start" x="318.6105" y="-802.9628" font-family="Helvetica,sans-Serif" font-size="11.00" fill="#000000">0 rows</text>
<polygon fill="#ffffff" stroke="transparent" points="354,-796.8628 354,-815.8628 380,-815.8628 380,-796.8628 354,-796.8628"/>
<polygon fill="none" stroke="#000000" points="354,-796.8628 354,-815.8628 380,-815.8628 380,-796.8628 354,-796.8628"/>
<text text-anchor="start" x="361.4053" y="-802.9628" font-family="Helvetica,sans-Serif" font-size="11.00" fill="#000000">1 &gt;</text>
</a>
</g>
</g>
<!-- sedes -->
<g id="node2" class="node">
<title>sedes</title>
<g id="a_node2"><a xlink:href="../../tables/sedes.html" xlink:title="sedes" target="_top">
<polygon fill="#ffffff" stroke="transparent" points="8,-694.3628 8,-777.3628 131,-777.3628 131,-694.3628 8,-694.3628"/>
<polygon fill="#f5f5f5" stroke="transparent" points="8.5,-753.8628 8.5,-776.8628 131.5,-776.8628 131.5,-753.8628 8.5,-753.8628"/>
<polygon fill="none" stroke="#000000" points="8.5,-753.8628 8.5,-776.8628 131.5,-776.8628 131.5,-753.8628 8.5,-753.8628"/>
<text text-anchor="start" x="13.5" y="-762.9628" font-family="Helvetica,sans-Serif" font-weight="bold" font-size="11.00" fill="#000000">sedes</text>
<text text-anchor="start" x="96.5437" y="-761.9628" font-family="Helvetica,sans-Serif" font-size="11.00" fill="#000000">[table]</text>
<polygon fill="none" stroke="#000000" points="8.5,-731.8628 8.5,-753.8628 131.5,-753.8628 131.5,-731.8628 8.5,-731.8628"/>
<image xlink:href="../../images/primaryKeys.png" width="11px" height="12px" preserveAspectRatio="xMinYMin meet" x="13.5" y="-748.863"/>
<text text-anchor="start" x="28.5" y="-738.9628" font-family="Helvetica,sans-Serif" font-size="11.00" fill="#000000">sede_id</text>
<polygon fill="none" stroke="#000000" points="8.5,-712.8628 8.5,-731.8628 131.5,-731.8628 131.5,-712.8628 8.5,-712.8628"/>
<text text-anchor="start" x="11.5" y="-718.9628" font-family="Helvetica,sans-Serif" font-size="11.00" fill="#000000">...</text>
<polygon fill="#ffffff" stroke="transparent" points="8.5,-693.8628 8.5,-712.8628 46.5,-712.8628 46.5,-693.8628 8.5,-693.8628"/>
<polygon fill="none" stroke="#000000" points="8.5,-693.8628 8.5,-712.8628 46.5,-712.8628 46.5,-693.8628 8.5,-693.8628"/>
<text text-anchor="start" x="11.5" y="-699.9628" font-family="Helvetica,sans-Serif" font-size="11.00" fill="#000000"> &#160;</text>
<polygon fill="#ffffff" stroke="transparent" points="46.5,-693.8628 46.5,-712.8628 97.5,-712.8628 97.5,-693.8628 46.5,-693.8628"/>
<polygon fill="none" stroke="#000000" points="46.5,-693.8628 46.5,-712.8628 97.5,-712.8628 97.5,-693.8628 46.5,-693.8628"/>
<text text-anchor="start" x="62.1105" y="-699.9628" font-family="Helvetica,sans-Serif" font-size="11.00" fill="#000000">0 rows</text>
<polygon fill="#ffffff" stroke="transparent" points="97.5,-693.8628 97.5,-712.8628 131.5,-712.8628 131.5,-693.8628 97.5,-693.8628"/>
<polygon fill="none" stroke="#000000" points="97.5,-693.8628 97.5,-712.8628 131.5,-712.8628 131.5,-693.8628 97.5,-693.8628"/>
<text text-anchor="start" x="112.9053" y="-699.9628" font-family="Helvetica,sans-Serif" font-size="11.00" fill="#000000">3 &gt;</text>
</a>
</g>
</g>
<!-- ciclo_aulas&#45;&gt;sedes -->
<g id="edge1" class="edge">
<title>ciclo_aulas:w&#45;&gt;sedes:e</title>
<path fill="none" stroke="#000000" d="M268.4531,-824.5707C227.547,-822.7822 211.3153,-812.5264 172,-786.8628 149.7435,-772.3346 158.0786,-742.8628 131.5,-742.8628"/>
<polygon fill="#000000" stroke="#000000" points="275.0016,-824.7022 282.9277,-828.4621 279.0008,-824.7825 283,-824.8628 283,-824.8628 283,-824.8628 279.0008,-824.7825 283.0723,-821.2635 275.0016,-824.7022 275.0016,-824.7022"/>
<ellipse fill="none" stroke="#000000" cx="271.8023" cy="-824.6379" rx="3.2" ry="3.2"/>
</g>
<!-- contactos -->
<g id="node3" class="node">
<title>contactos</title>
<g id="a_node3"><a xlink:href="../../tables/contactos.html" xlink:title="contactos" target="_top">
<polygon fill="#ffffff" stroke="transparent" points="531,-174.3628 531,-235.3628 621,-235.3628 621,-174.3628 531,-174.3628"/>
<polygon fill="#f5f5f5" stroke="transparent" points="531,-211.8628 531,-234.8628 621,-234.8628 621,-211.8628 531,-211.8628"/>
<polygon fill="none" stroke="#000000" points="531,-211.8628 531,-234.8628 621,-234.8628 621,-211.8628 531,-211.8628"/>
<text text-anchor="start" x="535.9633" y="-220.9628" font-family="Helvetica,sans-Serif" font-weight="bold" font-size="11.00" fill="#000000">contactos</text>
<text text-anchor="start" x="586.5219" y="-219.9628" font-family="Helvetica,sans-Serif" font-size="11.00" fill="#000000">[table]</text>
<polygon fill="none" stroke="#000000" points="531,-192.8628 531,-211.8628 621,-211.8628 621,-192.8628 531,-192.8628"/>
<text text-anchor="start" x="534" y="-198.9628" font-family="Helvetica,sans-Serif" font-size="11.00" fill="#000000">...</text>
<polygon fill="#ffffff" stroke="transparent" points="531,-173.8628 531,-192.8628 557,-192.8628 557,-173.8628 531,-173.8628"/>
<polygon fill="none" stroke="#000000" points="531,-173.8628 531,-192.8628 557,-192.8628 557,-173.8628 531,-173.8628"/>
<text text-anchor="start" x="534" y="-179.9628" font-family="Helvetica,sans-Serif" font-size="11.00" fill="#000000">&lt; 2</text>
<polygon fill="#ffffff" stroke="transparent" points="557,-173.8628 557,-192.8628 597,-192.8628 597,-173.8628 557,-173.8628"/>
<polygon fill="none" stroke="#000000" points="557,-173.8628 557,-192.8628 597,-192.8628 597,-173.8628 557,-173.8628"/>
<text text-anchor="start" x="561.6105" y="-179.9628" font-family="Helvetica,sans-Serif" font-size="11.00" fill="#000000">0 rows</text>
<polygon fill="#ffffff" stroke="transparent" points="597,-173.8628 597,-192.8628 621,-192.8628 621,-173.8628 597,-173.8628"/>
<polygon fill="none" stroke="#000000" points="597,-173.8628 597,-192.8628 621,-192.8628 621,-173.8628 597,-173.8628"/>
<text text-anchor="start" x="602.4053" y="-179.9628" font-family="Helvetica,sans-Serif" font-size="11.00" fill="#000000">2 &gt;</text>
</a>
</g>
</g>
<!-- organizaciones -->
<g id="node4" class="node">
<title>organizaciones</title>
<g id="a_node4"><a xlink:href="../../tables/organizaciones.html" xlink:title="organizaciones" target="_top">
<polygon fill="#ffffff" stroke="transparent" points="273,-323.3628 273,-384.3628 389,-384.3628 389,-323.3628 273,-323.3628"/>
<polygon fill="#f5f5f5" stroke="transparent" points="273,-360.8628 273,-383.8628 389,-383.8628 389,-360.8628 273,-360.8628"/>
<polygon fill="none" stroke="#000000" points="273,-360.8628 273,-383.8628 389,-383.8628 389,-360.8628 273,-360.8628"/>
<text text-anchor="start" x="277.5186" y="-369.9628" font-family="Helvetica,sans-Serif" font-weight="bold" font-size="11.00" fill="#000000">organizaciones</text>
<text text-anchor="start" x="354.5219" y="-368.9628" font-family="Helvetica,sans-Serif" font-size="11.00" fill="#000000">[table]</text>
<polygon fill="none" stroke="#000000" points="273,-341.8628 273,-360.8628 389,-360.8628 389,-341.8628 273,-341.8628"/>
<text text-anchor="start" x="276" y="-347.9628" font-family="Helvetica,sans-Serif" font-size="11.00" fill="#000000">...</text>
<polygon fill="#ffffff" stroke="transparent" points="273,-322.8628 273,-341.8628 312,-341.8628 312,-322.8628 273,-322.8628"/>
<polygon fill="none" stroke="#000000" points="273,-322.8628 273,-341.8628 312,-341.8628 312,-322.8628 273,-322.8628"/>
<text text-anchor="start" x="276" y="-328.9628" font-family="Helvetica,sans-Serif" font-size="11.00" fill="#000000">&lt; 1</text>
<polygon fill="#ffffff" stroke="transparent" points="312,-322.8628 312,-341.8628 359,-341.8628 359,-322.8628 312,-322.8628"/>
<polygon fill="none" stroke="#000000" points="312,-322.8628 312,-341.8628 359,-341.8628 359,-322.8628 312,-322.8628"/>
<text text-anchor="start" x="323.6105" y="-328.9628" font-family="Helvetica,sans-Serif" font-size="11.00" fill="#000000">0 rows</text>
<polygon fill="#ffffff" stroke="transparent" points="359,-322.8628 359,-341.8628 389,-341.8628 389,-322.8628 359,-322.8628"/>
<polygon fill="none" stroke="#000000" points="359,-322.8628 359,-341.8628 389,-341.8628 389,-322.8628 359,-322.8628"/>
<text text-anchor="start" x="370.4053" y="-328.9628" font-family="Helvetica,sans-Serif" font-size="11.00" fill="#000000">1 &gt;</text>
</a>
</g>
</g>
<!-- contactos&#45;&gt;organizaciones -->
<g id="edge2" class="edge">
<title>contactos:w&#45;&gt;organizaciones:e</title>
<path fill="none" stroke="#000000" d="M516.7536,-204.5401C488.3346,-218.0935 522.8753,-279.7887 490,-312.8628 456.1889,-346.8784 436.9609,-350.8628 389,-350.8628"/>
<polygon fill="#000000" stroke="#000000" points="523.1376,-203.3404 531.6649,-205.4009 527.0688,-202.6016 531,-201.8628 531,-201.8628 531,-201.8628 527.0688,-202.6016 530.3351,-198.3248 523.1376,-203.3404 523.1376,-203.3404"/>
<ellipse fill="none" stroke="#000000" cx="519.9927" cy="-203.9314" rx="3.2" ry="3.2"/>
</g>
<!-- personas -->
<g id="node5" class="node">
<title>personas</title>
<g id="a_node5"><a xlink:href="../../tables/personas.html" xlink:title="personas" target="_top">
<polygon fill="#ffffff" stroke="transparent" points="8,-220.3628 8,-303.3628 131,-303.3628 131,-220.3628 8,-220.3628"/>
<polygon fill="#f5f5f5" stroke="transparent" points="8.5,-279.8628 8.5,-302.8628 131.5,-302.8628 131.5,-279.8628 8.5,-279.8628"/>
<polygon fill="none" stroke="#000000" points="8.5,-279.8628 8.5,-302.8628 131.5,-302.8628 131.5,-279.8628 8.5,-279.8628"/>
<text text-anchor="start" x="13.5" y="-288.9628" font-family="Helvetica,sans-Serif" font-weight="bold" font-size="11.00" fill="#000000">personas</text>
<text text-anchor="start" x="96.5437" y="-287.9628" font-family="Helvetica,sans-Serif" font-size="11.00" fill="#000000">[table]</text>
<polygon fill="none" stroke="#000000" points="8.5,-257.8628 8.5,-279.8628 131.5,-279.8628 131.5,-257.8628 8.5,-257.8628"/>
<image xlink:href="../../images/primaryKeys.png" width="11px" height="12px" preserveAspectRatio="xMinYMin meet" x="13.5" y="-274.863"/>
<text text-anchor="start" x="28.5" y="-264.9628" font-family="Helvetica,sans-Serif" font-size="11.00" fill="#000000">persona_id</text>
<polygon fill="none" stroke="#000000" points="8.5,-238.8628 8.5,-257.8628 131.5,-257.8628 131.5,-238.8628 8.5,-238.8628"/>
<text text-anchor="start" x="11.5" y="-244.9628" font-family="Helvetica,sans-Serif" font-size="11.00" fill="#000000">...</text>
<polygon fill="#ffffff" stroke="transparent" points="8.5,-219.8628 8.5,-238.8628 46.5,-238.8628 46.5,-219.8628 8.5,-219.8628"/>
<polygon fill="none" stroke="#000000" points="8.5,-219.8628 8.5,-238.8628 46.5,-238.8628 46.5,-219.8628 8.5,-219.8628"/>
<text text-anchor="start" x="11.5" y="-225.9628" font-family="Helvetica,sans-Serif" font-size="11.00" fill="#000000"> &#160;</text>
<polygon fill="#ffffff" stroke="transparent" points="46.5,-219.8628 46.5,-238.8628 97.5,-238.8628 97.5,-219.8628 46.5,-219.8628"/>
<polygon fill="none" stroke="#000000" points="46.5,-219.8628 46.5,-238.8628 97.5,-238.8628 97.5,-219.8628 46.5,-219.8628"/>
<text text-anchor="start" x="62.1105" y="-225.9628" font-family="Helvetica,sans-Serif" font-size="11.00" fill="#000000">0 rows</text>
<polygon fill="#ffffff" stroke="transparent" points="97.5,-219.8628 97.5,-238.8628 131.5,-238.8628 131.5,-219.8628 97.5,-219.8628"/>
<polygon fill="none" stroke="#000000" points="97.5,-219.8628 97.5,-238.8628 131.5,-238.8628 131.5,-219.8628 97.5,-219.8628"/>
<text text-anchor="start" x="112.9053" y="-225.9628" font-family="Helvetica,sans-Serif" font-size="11.00" fill="#000000">7 &gt;</text>
</a>
</g>
</g>
<!-- contactos&#45;&gt;personas -->
<g id="edge3" class="edge">
<title>contactos:w&#45;&gt;personas:e</title>
<path fill="none" stroke="#000000" d="M516.7058,-199.4181C480.7324,-184.0827 535.6497,-100.7074 490,-66.8628 433.2331,-24.776 226.6602,-22.0739 172,-66.8628 101.1755,-124.8968 223.0645,-268.8628 131.5,-268.8628"/>
<polygon fill="#000000" stroke="#000000" points="523.1145,-200.5141 530.3931,-205.4113 527.0572,-201.1885 531,-201.8628 531,-201.8628 531,-201.8628 527.0572,-201.1885 531.6069,-198.3143 523.1145,-200.5141 523.1145,-200.5141"/>
<ellipse fill="none" stroke="#000000" cx="519.9603" cy="-199.9746" rx="3.2" ry="3.2"/>
</g>
<!-- organizaciones&#45;&gt;personas -->
<g id="edge8" class="edge">
<title>organizaciones:w&#45;&gt;personas:e</title>
<path fill="none" stroke="#000000" d="M258.4276,-350.4556C221.8182,-348.2293 207.4146,-336.7458 172,-312.8628 149.9641,-298.0022 158.0786,-268.8628 131.5,-268.8628"/>
<polygon fill="#000000" stroke="#000000" points="265.0031,-350.6393 272.8994,-354.4614 269.0016,-350.7511 273,-350.8628 273,-350.8628 273,-350.8628 269.0016,-350.7511 273.1006,-347.2642 265.0031,-350.6393 265.0031,-350.6393"/>
<ellipse fill="none" stroke="#000000" cx="261.8044" cy="-350.5499" rx="3.2" ry="3.2"/>
</g>
<!-- direcciones -->
<g id="node6" class="node">
<title>direcciones</title>
<g id="a_node6"><a xlink:href="../../tables/direcciones.html" xlink:title="direcciones" target="_top">
<polygon fill="#ffffff" stroke="transparent" points="282,-715.3628 282,-776.3628 380,-776.3628 380,-715.3628 282,-715.3628"/>
<polygon fill="#f5f5f5" stroke="transparent" points="282,-752.8628 282,-775.8628 380,-775.8628 380,-752.8628 282,-752.8628"/>
<polygon fill="none" stroke="#000000" points="282,-752.8628 282,-775.8628 380,-775.8628 380,-752.8628 282,-752.8628"/>
<text text-anchor="start" x="286.6909" y="-761.9628" font-family="Helvetica,sans-Serif" font-weight="bold" font-size="11.00" fill="#000000">direcciones</text>
<text text-anchor="start" x="345.5219" y="-760.9628" font-family="Helvetica,sans-Serif" font-size="11.00" fill="#000000">[table]</text>
<polygon fill="none" stroke="#000000" points="282,-733.8628 282,-752.8628 380,-752.8628 380,-733.8628 282,-733.8628"/>
<text text-anchor="start" x="285" y="-739.9628" font-family="Helvetica,sans-Serif" font-size="11.00" fill="#000000">...</text>
<polygon fill="#ffffff" stroke="transparent" points="282,-714.8628 282,-733.8628 316,-733.8628 316,-714.8628 282,-714.8628"/>
<polygon fill="none" stroke="#000000" points="282,-714.8628 282,-733.8628 316,-733.8628 316,-714.8628 282,-714.8628"/>
<text text-anchor="start" x="285" y="-720.9628" font-family="Helvetica,sans-Serif" font-size="11.00" fill="#000000">&lt; 3</text>
<polygon fill="#ffffff" stroke="transparent" points="316,-714.8628 316,-733.8628 361,-733.8628 361,-714.8628 316,-714.8628"/>
<polygon fill="none" stroke="#000000" points="316,-714.8628 316,-733.8628 361,-733.8628 361,-714.8628 316,-714.8628"/>
<text text-anchor="start" x="325.6105" y="-720.9628" font-family="Helvetica,sans-Serif" font-size="11.00" fill="#000000">0 rows</text>
<polygon fill="#ffffff" stroke="transparent" points="361,-714.8628 361,-733.8628 380,-733.8628 380,-714.8628 361,-714.8628"/>
<polygon fill="none" stroke="#000000" points="361,-714.8628 361,-733.8628 380,-733.8628 380,-714.8628 361,-714.8628"/>
<text text-anchor="start" x="370.8862" y="-720.9628" font-family="Helvetica,sans-Serif" font-size="11.00" fill="#000000"> &#160;</text>
</a>
</g>
</g>
<!-- direcciones&#45;&gt;sedes -->
<g id="edge5" class="edge">
<title>direcciones:w&#45;&gt;sedes:e</title>
<path fill="none" stroke="#000000" d="M267.5437,-742.8628C212.2725,-742.8628 193.2938,-742.8628 131.5,-742.8628"/>
<polygon fill="#000000" stroke="#000000" points="274,-742.8629 282,-746.4628 278,-742.8628 282,-742.8628 282,-742.8628 282,-742.8628 278,-742.8628 282,-739.2628 274,-742.8629 274,-742.8629"/>
<ellipse fill="none" stroke="#000000" cx="270.8" cy="-742.8629" rx="3.2" ry="3.2"/>
</g>
<!-- direcciones&#45;&gt;personas -->
<g id="edge4" class="edge">
<title>direcciones:w&#45;&gt;personas:e</title>
<path fill="none" stroke="#000000" d="M267.5438,-742.8969C225.0777,-742.9744 200.8145,-741.5788 172,-704.8628 111.9258,-628.3151 228.806,-268.8628 131.5,-268.8628"/>
<polygon fill="#000000" stroke="#000000" points="274,-742.8817 282.0085,-746.4628 278,-742.8723 282,-742.8628 282,-742.8628 282,-742.8628 278,-742.8723 281.9915,-739.2628 274,-742.8817 274,-742.8817"/>
<ellipse fill="none" stroke="#000000" cx="270.8" cy="-742.8893" rx="3.2" ry="3.2"/>
</g>
<!-- empleados -->
<g id="node7" class="node">
<title>empleados</title>
<g id="a_node7"><a xlink:href="../../tables/empleados.html" xlink:title="empleados" target="_top">
<polygon fill="#ffffff" stroke="transparent" points="283,-241.3628 283,-302.3628 379,-302.3628 379,-241.3628 283,-241.3628"/>
<polygon fill="#f5f5f5" stroke="transparent" points="283,-278.8628 283,-301.8628 379,-301.8628 379,-278.8628 283,-278.8628"/>
<polygon fill="none" stroke="#000000" points="283,-278.8628 283,-301.8628 379,-301.8628 379,-278.8628 283,-278.8628"/>
<text text-anchor="start" x="287.6039" y="-287.9628" font-family="Helvetica,sans-Serif" font-weight="bold" font-size="11.00" fill="#000000">empleados</text>
<text text-anchor="start" x="344.5219" y="-286.9628" font-family="Helvetica,sans-Serif" font-size="11.00" fill="#000000">[table]</text>
<polygon fill="none" stroke="#000000" points="283,-259.8628 283,-278.8628 379,-278.8628 379,-259.8628 283,-259.8628"/>
<text text-anchor="start" x="286" y="-265.9628" font-family="Helvetica,sans-Serif" font-size="11.00" fill="#000000">...</text>
<polygon fill="#ffffff" stroke="transparent" points="283,-240.8628 283,-259.8628 316,-259.8628 316,-240.8628 283,-240.8628"/>
<polygon fill="none" stroke="#000000" points="283,-240.8628 283,-259.8628 316,-259.8628 316,-240.8628 283,-240.8628"/>
<text text-anchor="start" x="286" y="-246.9628" font-family="Helvetica,sans-Serif" font-size="11.00" fill="#000000">&lt; 2</text>
<polygon fill="#ffffff" stroke="transparent" points="316,-240.8628 316,-259.8628 360,-259.8628 360,-240.8628 316,-240.8628"/>
<polygon fill="none" stroke="#000000" points="316,-240.8628 316,-259.8628 360,-259.8628 360,-240.8628 316,-240.8628"/>
<text text-anchor="start" x="324.6105" y="-246.9628" font-family="Helvetica,sans-Serif" font-size="11.00" fill="#000000">0 rows</text>
<polygon fill="#ffffff" stroke="transparent" points="360,-240.8628 360,-259.8628 379,-259.8628 379,-240.8628 360,-240.8628"/>
<polygon fill="none" stroke="#000000" points="360,-240.8628 360,-259.8628 379,-259.8628 379,-240.8628 360,-240.8628"/>
<text text-anchor="start" x="369.8862" y="-246.9628" font-family="Helvetica,sans-Serif" font-size="11.00" fill="#000000"> &#160;</text>
</a>
</g>
</g>
<!-- empleados&#45;&gt;personas -->
<g id="edge6" class="edge">
<title>empleados:w&#45;&gt;personas:e</title>
<path fill="none" stroke="#000000" d="M268.4477,-268.8628C212.8092,-268.8628 193.7044,-268.8628 131.5,-268.8628"/>
<polygon fill="#000000" stroke="#000000" points="275,-268.8629 283,-272.4628 279,-268.8628 283,-268.8628 283,-268.8628 283,-268.8628 279,-268.8628 283,-265.2628 275,-268.8629 275,-268.8629"/>
<ellipse fill="none" stroke="#000000" cx="271.8" cy="-268.8629" rx="3.2" ry="3.2"/>
</g>
<!-- leads -->
<g id="node8" class="node">
<title>leads</title>
<g id="a_node8"><a xlink:href="../../tables/leads.html" xlink:title="leads" target="_top">
<polygon fill="#ffffff" stroke="transparent" points="295.5,-159.3628 295.5,-220.3628 366.5,-220.3628 366.5,-159.3628 295.5,-159.3628"/>
<polygon fill="#f5f5f5" stroke="transparent" points="296,-196.8628 296,-219.8628 367,-219.8628 367,-196.8628 296,-196.8628"/>
<polygon fill="none" stroke="#000000" points="296,-196.8628 296,-219.8628 367,-219.8628 367,-196.8628 296,-196.8628"/>
<text text-anchor="start" x="301" y="-205.9628" font-family="Helvetica,sans-Serif" font-weight="bold" font-size="11.00" fill="#000000">leads</text>
<text text-anchor="start" x="332.0437" y="-204.9628" font-family="Helvetica,sans-Serif" font-size="11.00" fill="#000000">[table]</text>
<polygon fill="none" stroke="#000000" points="296,-177.8628 296,-196.8628 367,-196.8628 367,-177.8628 296,-177.8628"/>
<text text-anchor="start" x="299" y="-183.9628" font-family="Helvetica,sans-Serif" font-size="11.00" fill="#000000">...</text>
<polygon fill="#ffffff" stroke="transparent" points="296,-158.8628 296,-177.8628 317,-177.8628 317,-158.8628 296,-158.8628"/>
<polygon fill="none" stroke="#000000" points="296,-158.8628 296,-177.8628 317,-177.8628 317,-158.8628 296,-158.8628"/>
<text text-anchor="start" x="298.7027" y="-164.9628" font-family="Helvetica,sans-Serif" font-size="11.00" fill="#000000">&lt; 4</text>
<polygon fill="#ffffff" stroke="transparent" points="317,-158.8628 317,-177.8628 355,-177.8628 355,-158.8628 317,-158.8628"/>
<polygon fill="none" stroke="#000000" points="317,-158.8628 317,-177.8628 355,-177.8628 355,-158.8628 317,-158.8628"/>
<text text-anchor="start" x="319.8053" y="-164.9628" font-family="Helvetica,sans-Serif" font-size="11.00" fill="#000000">0 rows</text>
<polygon fill="#ffffff" stroke="transparent" points="355,-158.8628 355,-177.8628 367,-177.8628 367,-158.8628 355,-158.8628"/>
<polygon fill="none" stroke="#000000" points="355,-158.8628 355,-177.8628 367,-177.8628 367,-158.8628 355,-158.8628"/>
<text text-anchor="start" x="357.9431" y="-164.9628" font-family="Helvetica,sans-Serif" font-size="11.00" fill="#000000"> &#160;</text>
</a>
</g>
</g>
<!-- leads&#45;&gt;personas -->
<g id="edge7" class="edge">
<title>leads:w&#45;&gt;personas:e</title>
<path fill="none" stroke="#000000" d="M281.5226,-187.1795C234.5172,-189.3785 217.548,-203.1079 172,-230.8628 150.9223,-243.7067 156.1827,-268.8628 131.5,-268.8628"/>
<polygon fill="#000000" stroke="#000000" points="288.0019,-187.0378 296.0788,-190.462 292.001,-186.9503 296,-186.8628 296,-186.8628 296,-186.8628 292.001,-186.9503 295.9212,-183.2637 288.0019,-187.0378 288.0019,-187.0378"/>
<ellipse fill="none" stroke="#000000" cx="284.8027" cy="-187.1079" rx="3.2" ry="3.2"/>
</g>
<!-- profesores -->
<g id="node9" class="node">
<title>profesores</title>
<g id="a_node9"><a xlink:href="../../tables/profesores.html" xlink:title="profesores" target="_top">
<polygon fill="#ffffff" stroke="transparent" points="284,-77.3628 284,-138.3628 378,-138.3628 378,-77.3628 284,-77.3628"/>
<polygon fill="#f5f5f5" stroke="transparent" points="284,-114.8628 284,-137.8628 378,-137.8628 378,-114.8628 284,-114.8628"/>
<polygon fill="none" stroke="#000000" points="284,-114.8628 284,-137.8628 378,-137.8628 378,-114.8628 284,-114.8628"/>
<text text-anchor="start" x="288.5224" y="-123.9628" font-family="Helvetica,sans-Serif" font-weight="bold" font-size="11.00" fill="#000000">profesores</text>
<text text-anchor="start" x="343.5219" y="-122.9628" font-family="Helvetica,sans-Serif" font-size="11.00" fill="#000000">[table]</text>
<polygon fill="none" stroke="#000000" points="284,-95.8628 284,-114.8628 378,-114.8628 378,-95.8628 284,-95.8628"/>
<text text-anchor="start" x="287" y="-101.9628" font-family="Helvetica,sans-Serif" font-size="11.00" fill="#000000">...</text>
<polygon fill="#ffffff" stroke="transparent" points="284,-76.8628 284,-95.8628 312,-95.8628 312,-76.8628 284,-76.8628"/>
<polygon fill="none" stroke="#000000" points="284,-76.8628 284,-95.8628 312,-95.8628 312,-76.8628 284,-76.8628"/>
<text text-anchor="start" x="287" y="-82.9628" font-family="Helvetica,sans-Serif" font-size="11.00" fill="#000000">&lt; 1</text>
<polygon fill="#ffffff" stroke="transparent" points="312,-76.8628 312,-95.8628 353,-95.8628 353,-76.8628 312,-76.8628"/>
<polygon fill="none" stroke="#000000" points="312,-76.8628 312,-95.8628 353,-95.8628 353,-76.8628 312,-76.8628"/>
<text text-anchor="start" x="317.6105" y="-82.9628" font-family="Helvetica,sans-Serif" font-size="11.00" fill="#000000">0 rows</text>
<polygon fill="#ffffff" stroke="transparent" points="353,-76.8628 353,-95.8628 378,-95.8628 378,-76.8628 353,-76.8628"/>
<polygon fill="none" stroke="#000000" points="353,-76.8628 353,-95.8628 378,-95.8628 378,-76.8628 353,-76.8628"/>
<text text-anchor="start" x="359.4053" y="-82.9628" font-family="Helvetica,sans-Serif" font-size="11.00" fill="#000000">1 &gt;</text>
</a>
</g>
</g>
<!-- profesores&#45;&gt;personas -->
<g id="edge9" class="edge">
<title>profesores:w&#45;&gt;personas:e</title>
<path fill="none" stroke="#000000" d="M269.4788,-105.0324C226.2377,-106.1782 205.3526,-113.8403 172,-148.8628 133.1814,-189.6251 187.7889,-268.8628 131.5,-268.8628"/>
<polygon fill="#000000" stroke="#000000" points="276.0005,-104.9563 284.0421,-108.4626 280.0003,-104.9095 284,-104.8628 284,-104.8628 284,-104.8628 280.0003,-104.9095 283.9579,-101.2631 276.0005,-104.9563 276.0005,-104.9563"/>
<ellipse fill="none" stroke="#000000" cx="272.8008" cy="-104.9937" rx="3.2" ry="3.2"/>
</g>
<!-- telefonos -->
<g id="node10" class="node">
<title>telefonos</title>
<g id="a_node10"><a xlink:href="../../tables/telefonos.html" xlink:title="telefonos" target="_top">
<polygon fill="#ffffff" stroke="transparent" points="180,-405.8628 180,-693.8628 482,-693.8628 482,-405.8628 180,-405.8628"/>
<polygon fill="#f5f5f5" stroke="transparent" points="182,-668.8628 182,-691.8628 480,-691.8628 480,-668.8628 182,-668.8628"/>
<polygon fill="none" stroke="#000000" points="182,-668.8628 182,-691.8628 480,-691.8628 480,-668.8628 182,-668.8628"/>
<text text-anchor="start" x="187" y="-677.9628" font-family="Helvetica,sans-Serif" font-weight="bold" font-size="11.00" fill="#000000">telefonos</text>
<text text-anchor="start" x="445.0437" y="-676.9628" font-family="Helvetica,sans-Serif" font-size="11.00" fill="#000000">[table]</text>
<polygon fill="none" stroke="#000000" points="182,-646.8628 182,-668.8628 305,-668.8628 305,-646.8628 182,-646.8628"/>
<image xlink:href="../../images/primaryKeys.png" width="11px" height="12px" preserveAspectRatio="xMinYMin meet" x="187" y="-663.863"/>
<text text-anchor="start" x="202" y="-653.9628" font-family="Helvetica,sans-Serif" font-size="11.00" fill="#000000">telefono_id</text>
<polygon fill="none" stroke="#000000" points="305,-646.8628 305,-668.8628 480,-668.8628 480,-646.8628 305,-646.8628"/>
<text text-anchor="start" x="308" y="-654.5628" font-family="Helvetica,sans-Serif" font-size="11.00" fill="#000000">serial[10]</text>
<polygon fill="none" stroke="#000000" points="182,-624.8628 182,-646.8628 305,-646.8628 305,-624.8628 182,-624.8628"/>
<image xlink:href="../../images/foreignKeys.png" width="11px" height="12px" preserveAspectRatio="xMinYMin meet" x="187" y="-641.863"/>
<text text-anchor="start" x="202" y="-631.9628" font-family="Helvetica,sans-Serif" font-size="11.00" fill="#000000">persona_id</text>
<polygon fill="none" stroke="#000000" points="305,-624.8628 305,-646.8628 480,-646.8628 480,-624.8628 305,-624.8628"/>
<text text-anchor="start" x="308" y="-632.5628" font-family="Helvetica,sans-Serif" font-size="11.00" fill="#000000">int4[10]</text>
<polygon fill="none" stroke="#000000" points="182,-602.8628 182,-624.8628 305,-624.8628 305,-602.8628 182,-602.8628"/>
<image xlink:href="../../images/foreignKeys.png" width="11px" height="12px" preserveAspectRatio="xMinYMin meet" x="187" y="-619.863"/>
<text text-anchor="start" x="202" y="-609.9628" font-family="Helvetica,sans-Serif" font-size="11.00" fill="#000000">sede_id</text>
<polygon fill="none" stroke="#000000" points="305,-602.8628 305,-624.8628 480,-624.8628 480,-602.8628 305,-602.8628"/>
<text text-anchor="start" x="308" y="-610.5628" font-family="Helvetica,sans-Serif" font-size="11.00" fill="#000000">int4[10]</text>
<polygon fill="none" stroke="#000000" points="182,-580.8628 182,-602.8628 305,-602.8628 305,-580.8628 182,-580.8628"/>
<text text-anchor="start" x="202" y="-587.9628" font-family="Helvetica,sans-Serif" font-size="11.00" fill="#000000">tipo</text>
<polygon fill="none" stroke="#000000" points="305,-580.8628 305,-602.8628 480,-602.8628 480,-580.8628 305,-580.8628"/>
<text text-anchor="start" x="307.822" y="-588.5628" font-family="Helvetica,sans-Serif" font-size="11.00" fill="#000000">enum_telefonos_tipo[2147483647]</text>
<polygon fill="none" stroke="#000000" points="182,-558.8628 182,-580.8628 305,-580.8628 305,-558.8628 182,-558.8628"/>
<text text-anchor="start" x="202" y="-565.9628" font-family="Helvetica,sans-Serif" font-size="11.00" fill="#000000">principal</text>
<polygon fill="none" stroke="#000000" points="305,-558.8628 305,-580.8628 480,-580.8628 480,-558.8628 305,-558.8628"/>
<text text-anchor="start" x="308" y="-566.5628" font-family="Helvetica,sans-Serif" font-size="11.00" fill="#000000">bool[1]</text>
<polygon fill="none" stroke="#000000" points="182,-536.8628 182,-558.8628 305,-558.8628 305,-536.8628 182,-536.8628"/>
<text text-anchor="start" x="202" y="-543.9628" font-family="Helvetica,sans-Serif" font-size="11.00" fill="#000000">numero</text>
<polygon fill="none" stroke="#000000" points="305,-536.8628 305,-558.8628 480,-558.8628 480,-536.8628 305,-536.8628"/>
<text text-anchor="start" x="308" y="-544.5628" font-family="Helvetica,sans-Serif" font-size="11.00" fill="#000000">varchar[20]</text>
<polygon fill="none" stroke="#000000" points="182,-514.8628 182,-536.8628 305,-536.8628 305,-514.8628 182,-514.8628"/>
<text text-anchor="start" x="202" y="-521.9628" font-family="Helvetica,sans-Serif" font-size="11.00" fill="#000000">comentario</text>
<polygon fill="none" stroke="#000000" points="305,-514.8628 305,-536.8628 480,-536.8628 480,-514.8628 305,-514.8628"/>
<text text-anchor="start" x="308" y="-522.5628" font-family="Helvetica,sans-Serif" font-size="11.00" fill="#000000">varchar[20]</text>
<polygon fill="none" stroke="#000000" points="182,-492.8628 182,-514.8628 305,-514.8628 305,-492.8628 182,-492.8628"/>
<text text-anchor="start" x="202" y="-499.9628" font-family="Helvetica,sans-Serif" font-size="11.00" fill="#000000">usu_insercion</text>
<polygon fill="none" stroke="#000000" points="305,-492.8628 305,-514.8628 480,-514.8628 480,-492.8628 305,-492.8628"/>
<text text-anchor="start" x="308" y="-500.5628" font-family="Helvetica,sans-Serif" font-size="11.00" fill="#000000">varchar[20]</text>
<polygon fill="none" stroke="#000000" points="182,-470.8628 182,-492.8628 305,-492.8628 305,-470.8628 182,-470.8628"/>
<text text-anchor="start" x="202" y="-477.9628" font-family="Helvetica,sans-Serif" font-size="11.00" fill="#000000">fec_insercion</text>
<polygon fill="none" stroke="#000000" points="305,-470.8628 305,-492.8628 480,-492.8628 480,-470.8628 305,-470.8628"/>
<text text-anchor="start" x="308" y="-478.5628" font-family="Helvetica,sans-Serif" font-size="11.00" fill="#000000">timestamptz[35,6]</text>
<polygon fill="none" stroke="#000000" points="182,-448.8628 182,-470.8628 305,-470.8628 305,-448.8628 182,-448.8628"/>
<text text-anchor="start" x="202" y="-455.9628" font-family="Helvetica,sans-Serif" font-size="11.00" fill="#000000">fec_modificacion</text>
<polygon fill="none" stroke="#000000" points="305,-448.8628 305,-470.8628 480,-470.8628 480,-448.8628 305,-448.8628"/>
<text text-anchor="start" x="308" y="-456.5628" font-family="Helvetica,sans-Serif" font-size="11.00" fill="#000000">timestamptz[35,6]</text>
<polygon fill="none" stroke="#000000" points="182,-426.8628 182,-448.8628 305,-448.8628 305,-426.8628 182,-426.8628"/>
<text text-anchor="start" x="202" y="-433.9628" font-family="Helvetica,sans-Serif" font-size="11.00" fill="#000000">usu_modificacion</text>
<polygon fill="none" stroke="#000000" points="305,-426.8628 305,-448.8628 480,-448.8628 480,-426.8628 305,-426.8628"/>
<text text-anchor="start" x="308" y="-434.5628" font-family="Helvetica,sans-Serif" font-size="11.00" fill="#000000">varchar[20]</text>
<polygon fill="#ffffff" stroke="transparent" points="182,-407.8628 182,-426.8628 235,-426.8628 235,-407.8628 182,-407.8628"/>
<polygon fill="none" stroke="#000000" points="182,-407.8628 182,-426.8628 235,-426.8628 235,-407.8628 182,-407.8628"/>
<text text-anchor="start" x="185" y="-413.9628" font-family="Helvetica,sans-Serif" font-size="11.00" fill="#000000">&lt; 2</text>
<polygon fill="#ffffff" stroke="transparent" points="235,-407.8628 235,-426.8628 305,-426.8628 305,-407.8628 235,-407.8628"/>
<polygon fill="none" stroke="#000000" points="235,-407.8628 235,-426.8628 305,-426.8628 305,-407.8628 235,-407.8628"/>
<text text-anchor="start" x="269.6105" y="-413.9628" font-family="Helvetica,sans-Serif" font-size="11.00" fill="#000000">0 rows</text>
<polygon fill="#ffffff" stroke="transparent" points="305,-407.8628 305,-426.8628 480,-426.8628 480,-407.8628 305,-407.8628"/>
<polygon fill="none" stroke="#000000" points="305,-407.8628 305,-426.8628 480,-426.8628 480,-407.8628 305,-407.8628"/>
<text text-anchor="start" x="461.4053" y="-413.9628" font-family="Helvetica,sans-Serif" font-size="11.00" fill="#000000">0 &gt;</text>
<polygon fill="none" stroke="#000000" stroke-width="2" points="181,-406.8628 181,-692.8628 481,-692.8628 481,-406.8628 181,-406.8628"/>
</a>
</g>
</g>
<!-- telefonos&#45;&gt;sedes -->
<g id="edge11" class="edge">
<title>telefonos:w&#45;&gt;sedes:e</title>
<path fill="none" stroke="#000000" d="M167.5517,-617.3133C133.3376,-637.8279 187.0573,-742.8628 131.5,-742.8628"/>
<polygon fill="#000000" stroke="#000000" points="174.2188,-615.7211 182.8362,-617.3644 178.1094,-614.792 182,-613.8628 182,-613.8628 182,-613.8628 178.1094,-614.792 181.1638,-610.3613 174.2188,-615.7211 174.2188,-615.7211"/>
<ellipse fill="none" stroke="#000000" cx="171.1063" cy="-616.4644" rx="3.2" ry="3.2"/>
</g>
<!-- telefonos&#45;&gt;personas -->
<g id="edge10" class="edge">
<title>telefonos:w&#45;&gt;personas:e</title>
<path fill="none" stroke="#000000" d="M168.0836,-631.2226C113.9699,-588.739 208.3572,-268.8628 131.5,-268.8628"/>
<polygon fill="#000000" stroke="#000000" points="174.4108,-633.3322 180.8612,-639.278 178.2054,-634.5975 182,-635.8628 182,-635.8628 182,-635.8628 178.2054,-634.5975 183.1388,-632.4477 174.4108,-633.3322 174.4108,-633.3322"/>
<ellipse fill="none" stroke="#000000" cx="171.3751" cy="-632.32" rx="3.2" ry="3.2"/>
</g>
</g>
</svg>
