<?xml version="1.0" encoding="UTF-8" standalone="no"?>
<!DOCTYPE svg PUBLIC "-//W3C//DTD SVG 1.1//EN"
 "http://www.w3.org/Graphics/SVG/1.1/DTD/svg11.dtd">
<!-- Generated by graphviz version 2.40.1 (20161225.0304)
 -->
<!-- Title: twoDegreesRelationshipsDiagram Pages: 1 -->
<svg width="415pt" height="415pt"
 viewBox="0.00 0.00 415.00 415.20" xmlns="http://www.w3.org/2000/svg" xmlns:xlink="http://www.w3.org/1999/xlink">
<g id="graph0" class="graph" transform="scale(1 1) rotate(0) translate(4 411.2)">
<title>twoDegreesRelationshipsDiagram</title>
<polygon fill="#ffffff" stroke="transparent" points="-4,4 -4,-411.2 411,-411.2 411,4 -4,4"/>
<text text-anchor="middle" x="72.4936" y="-7.3" font-family="Helvetica,sans-Serif" font-size="11.00" fill="#000000">Generated by SchemaSpy</text>
<!-- empleados -->
<g id="node1" class="node">
<title>empleados</title>
<g id="a_node1"><a xlink:href="../../tables/empleados.html" xlink:title="empleados" target="_top">
<polygon fill="#ffffff" stroke="transparent" points="276,-276.2 276,-403.2 399,-403.2 399,-276.2 276,-276.2"/>
<polygon fill="#f5f5f5" stroke="transparent" points="276.5,-379.7 276.5,-402.7 399.5,-402.7 399.5,-379.7 276.5,-379.7"/>
<polygon fill="none" stroke="#000000" points="276.5,-379.7 276.5,-402.7 399.5,-402.7 399.5,-379.7 276.5,-379.7"/>
<text text-anchor="start" x="281.5" y="-388.8" font-family="Helvetica,sans-Serif" font-weight="bold" font-size="11.00" fill="#000000">empleados</text>
<text text-anchor="start" x="364.5437" y="-387.8" font-family="Helvetica,sans-Serif" font-size="11.00" fill="#000000">[table]</text>
<polygon fill="none" stroke="#000000" points="276.5,-357.7 276.5,-379.7 399.5,-379.7 399.5,-357.7 276.5,-357.7"/>
<image xlink:href="../../images/primaryKeys.png" width="11px" height="12px" preserveAspectRatio="xMinYMin meet" x="281.5" y="-374.7"/>
<text text-anchor="start" x="296.5" y="-364.8" font-family="Helvetica,sans-Serif" font-size="11.00" fill="#000000">empleado_id</text>
<polygon fill="none" stroke="#000000" points="276.5,-335.7 276.5,-357.7 399.5,-357.7 399.5,-335.7 276.5,-335.7"/>
<image xlink:href="../../images/foreignKeys.png" width="11px" height="12px" preserveAspectRatio="xMinYMin meet" x="281.5" y="-352.7"/>
<text text-anchor="start" x="296.5" y="-342.8" font-family="Helvetica,sans-Serif" font-size="11.00" fill="#000000">persona_id</text>
<polygon fill="none" stroke="#000000" points="276.5,-313.7 276.5,-335.7 399.5,-335.7 399.5,-313.7 276.5,-313.7"/>
<image xlink:href="../../images/foreignKeys.png" width="11px" height="12px" preserveAspectRatio="xMinYMin meet" x="281.5" y="-330.7"/>
<text text-anchor="start" x="296.5" y="-320.8" font-family="Helvetica,sans-Serif" font-size="11.00" fill="#000000">usuario_id</text>
<polygon fill="none" stroke="#000000" points="276.5,-294.7 276.5,-313.7 399.5,-313.7 399.5,-294.7 276.5,-294.7"/>
<text text-anchor="start" x="279.5" y="-300.8" font-family="Helvetica,sans-Serif" font-size="11.00" fill="#000000">...</text>
<polygon fill="#ffffff" stroke="transparent" points="276.5,-275.7 276.5,-294.7 323.5,-294.7 323.5,-275.7 276.5,-275.7"/>
<polygon fill="none" stroke="#000000" points="276.5,-275.7 276.5,-294.7 323.5,-294.7 323.5,-275.7 276.5,-275.7"/>
<text text-anchor="start" x="279.5" y="-281.8" font-family="Helvetica,sans-Serif" font-size="11.00" fill="#000000">&lt; 2</text>
<polygon fill="#ffffff" stroke="transparent" points="323.5,-275.7 323.5,-294.7 374.5,-294.7 374.5,-275.7 323.5,-275.7"/>
<polygon fill="none" stroke="#000000" points="323.5,-275.7 323.5,-294.7 374.5,-294.7 374.5,-275.7 323.5,-275.7"/>
<text text-anchor="start" x="339.1105" y="-281.8" font-family="Helvetica,sans-Serif" font-size="11.00" fill="#000000">0 rows</text>
<polygon fill="#ffffff" stroke="transparent" points="374.5,-275.7 374.5,-294.7 399.5,-294.7 399.5,-275.7 374.5,-275.7"/>
<polygon fill="none" stroke="#000000" points="374.5,-275.7 374.5,-294.7 399.5,-294.7 399.5,-275.7 374.5,-275.7"/>
<text text-anchor="start" x="390.3862" y="-281.8" font-family="Helvetica,sans-Serif" font-size="11.00" fill="#000000"> &#160;</text>
</a>
</g>
</g>
<!-- personas -->
<g id="node2" class="node">
<title>personas</title>
<g id="a_node2"><a xlink:href="../../tables/personas.html" xlink:title="personas" target="_top">
<polygon fill="#ffffff" stroke="transparent" points="73.5,-58.2 73.5,-119.2 161.5,-119.2 161.5,-58.2 73.5,-58.2"/>
<polygon fill="#f5f5f5" stroke="transparent" points="73.5,-95.7 73.5,-118.7 161.5,-118.7 161.5,-95.7 73.5,-95.7"/>
<polygon fill="none" stroke="#000000" points="73.5,-95.7 73.5,-118.7 161.5,-118.7 161.5,-95.7 73.5,-95.7"/>
<text text-anchor="start" x="78.3818" y="-104.8" font-family="Helvetica,sans-Serif" font-weight="bold" font-size="11.00" fill="#000000">personas</text>
<text text-anchor="start" x="127.0219" y="-103.8" font-family="Helvetica,sans-Serif" font-size="11.00" fill="#000000">[table]</text>
<polygon fill="none" stroke="#000000" points="73.5,-76.7 73.5,-95.7 161.5,-95.7 161.5,-76.7 73.5,-76.7"/>
<text text-anchor="start" x="76.5" y="-82.8" font-family="Helvetica,sans-Serif" font-size="11.00" fill="#000000">...</text>
<polygon fill="#ffffff" stroke="transparent" points="73.5,-57.7 73.5,-76.7 90.5,-76.7 90.5,-57.7 73.5,-57.7"/>
<polygon fill="none" stroke="#000000" points="73.5,-57.7 73.5,-76.7 90.5,-76.7 90.5,-57.7 73.5,-57.7"/>
<text text-anchor="start" x="76.5" y="-63.8" font-family="Helvetica,sans-Serif" font-size="11.00" fill="#000000"> &#160;</text>
<polygon fill="#ffffff" stroke="transparent" points="90.5,-57.7 90.5,-76.7 137.5,-76.7 137.5,-57.7 90.5,-57.7"/>
<polygon fill="none" stroke="#000000" points="90.5,-57.7 90.5,-76.7 137.5,-76.7 137.5,-57.7 90.5,-57.7"/>
<text text-anchor="start" x="95.9956" y="-63.8" font-family="Helvetica,sans-Serif" font-size="11.00" fill="#000000">22 rows</text>
<polygon fill="#ffffff" stroke="transparent" points="137.5,-57.7 137.5,-76.7 161.5,-76.7 161.5,-57.7 137.5,-57.7"/>
<polygon fill="none" stroke="#000000" points="137.5,-57.7 137.5,-76.7 161.5,-76.7 161.5,-57.7 137.5,-57.7"/>
<text text-anchor="start" x="142.9053" y="-63.8" font-family="Helvetica,sans-Serif" font-size="11.00" fill="#000000">2 &gt;</text>
</a>
</g>
</g>
<!-- empleados&#45;&gt;personas -->
<g id="edge1" class="edge">
<title>empleados:w&#45;&gt;personas:e</title>
<path fill="none" stroke="#000000" d="M263.287,-340.7977C234.5687,-309.863 259.7814,-166.4897 235,-130.7 213.1953,-99.2093 199.8029,-85.7 161.5,-85.7"/>
<polygon fill="#000000" stroke="#000000" points="269.1956,-343.4371 275.0317,-349.987 272.8478,-345.0686 276.5,-346.7 276.5,-346.7 276.5,-346.7 272.8478,-345.0686 277.9683,-343.413 269.1956,-343.4371 269.1956,-343.4371"/>
<ellipse fill="none" stroke="#000000" cx="266.2739" cy="-342.1319" rx="3.2" ry="3.2"/>
</g>
<!-- usuarios -->
<g id="node3" class="node">
<title>usuarios</title>
<g id="a_node3"><a xlink:href="../../tables/usuarios.html" xlink:title="usuarios" target="_top">
<polygon fill="#ffffff" stroke="transparent" points="8,-140.7 8,-384.7 227,-384.7 227,-140.7 8,-140.7"/>
<polygon fill="#f5f5f5" stroke="transparent" points="10.5,-359.7 10.5,-382.7 225.5,-382.7 225.5,-359.7 10.5,-359.7"/>
<polygon fill="none" stroke="#000000" points="10.5,-359.7 10.5,-382.7 225.5,-382.7 225.5,-359.7 10.5,-359.7"/>
<text text-anchor="start" x="15.5" y="-368.8" font-family="Helvetica,sans-Serif" font-weight="bold" font-size="11.00" fill="#000000">usuarios</text>
<text text-anchor="start" x="190.5437" y="-367.8" font-family="Helvetica,sans-Serif" font-size="11.00" fill="#000000">[table]</text>
<polygon fill="none" stroke="#000000" points="10.5,-337.7 10.5,-359.7 133.5,-359.7 133.5,-337.7 10.5,-337.7"/>
<image xlink:href="../../images/primaryKeys.png" width="11px" height="12px" preserveAspectRatio="xMinYMin meet" x="15.5" y="-354.7"/>
<text text-anchor="start" x="30.5" y="-344.8" font-family="Helvetica,sans-Serif" font-size="11.00" fill="#000000">usuario_id</text>
<polygon fill="none" stroke="#000000" points="133.5,-337.7 133.5,-359.7 225.5,-359.7 225.5,-337.7 133.5,-337.7"/>
<text text-anchor="start" x="136.5" y="-345.4" font-family="Helvetica,sans-Serif" font-size="11.00" fill="#000000">serial[10]</text>
<polygon fill="#ffffff" stroke="transparent" points="10.5,-315.7 10.5,-337.7 133.5,-337.7 133.5,-315.7 10.5,-315.7"/>
<polygon fill="none" stroke="#000000" points="10.5,-315.7 10.5,-337.7 133.5,-337.7 133.5,-315.7 10.5,-315.7"/>
<text text-anchor="start" x="30.5" y="-322.8" font-family="Helvetica,sans-Serif" font-size="11.00" fill="#000000">nom_usuario</text>
<polygon fill="none" stroke="#000000" points="133.5,-315.7 133.5,-337.7 225.5,-337.7 225.5,-315.7 133.5,-315.7"/>
<text text-anchor="start" x="136.5" y="-323.4" font-family="Helvetica,sans-Serif" font-size="11.00" fill="#000000">varchar[20]</text>
<polygon fill="none" stroke="#000000" points="10.5,-293.7 10.5,-315.7 133.5,-315.7 133.5,-293.7 10.5,-293.7"/>
<text text-anchor="start" x="30.5" y="-300.8" font-family="Helvetica,sans-Serif" font-size="11.00" fill="#000000">activo</text>
<polygon fill="none" stroke="#000000" points="133.5,-293.7 133.5,-315.7 225.5,-315.7 225.5,-293.7 133.5,-293.7"/>
<text text-anchor="start" x="136.5" y="-301.4" font-family="Helvetica,sans-Serif" font-size="11.00" fill="#000000">bool[1]</text>
<polygon fill="none" stroke="#000000" points="10.5,-271.7 10.5,-293.7 133.5,-293.7 133.5,-271.7 10.5,-271.7"/>
<text text-anchor="start" x="30.5" y="-278.8" font-family="Helvetica,sans-Serif" font-size="11.00" fill="#000000">password</text>
<polygon fill="none" stroke="#000000" points="133.5,-271.7 133.5,-293.7 225.5,-293.7 225.5,-271.7 133.5,-271.7"/>
<text text-anchor="start" x="136.5" y="-279.4" font-family="Helvetica,sans-Serif" font-size="11.00" fill="#000000">varchar[255]</text>
<polygon fill="none" stroke="#000000" points="10.5,-249.7 10.5,-271.7 133.5,-271.7 133.5,-249.7 10.5,-249.7"/>
<text text-anchor="start" x="30.5" y="-256.8" font-family="Helvetica,sans-Serif" font-size="11.00" fill="#000000">email</text>
<polygon fill="none" stroke="#000000" points="133.5,-249.7 133.5,-271.7 225.5,-271.7 225.5,-249.7 133.5,-249.7"/>
<text text-anchor="start" x="136.5" y="-257.4" font-family="Helvetica,sans-Serif" font-size="11.00" fill="#000000">varchar[60]</text>
<polygon fill="none" stroke="#000000" points="10.5,-227.7 10.5,-249.7 133.5,-249.7 133.5,-227.7 10.5,-227.7"/>
<text text-anchor="start" x="30.5" y="-234.8" font-family="Helvetica,sans-Serif" font-size="11.00" fill="#000000">usu_insercion</text>
<polygon fill="none" stroke="#000000" points="133.5,-227.7 133.5,-249.7 225.5,-249.7 225.5,-227.7 133.5,-227.7"/>
<text text-anchor="start" x="136.5" y="-235.4" font-family="Helvetica,sans-Serif" font-size="11.00" fill="#000000">varchar[20]</text>
<polygon fill="none" stroke="#000000" points="10.5,-205.7 10.5,-227.7 133.5,-227.7 133.5,-205.7 10.5,-205.7"/>
<text text-anchor="start" x="30.5" y="-212.8" font-family="Helvetica,sans-Serif" font-size="11.00" fill="#000000">fec_insercion</text>
<polygon fill="none" stroke="#000000" points="133.5,-205.7 133.5,-227.7 225.5,-227.7 225.5,-205.7 133.5,-205.7"/>
<text text-anchor="start" x="136.1023" y="-213.4" font-family="Helvetica,sans-Serif" font-size="11.00" fill="#000000">timestamptz[35,6]</text>
<polygon fill="none" stroke="#000000" points="10.5,-183.7 10.5,-205.7 133.5,-205.7 133.5,-183.7 10.5,-183.7"/>
<text text-anchor="start" x="30.5" y="-190.8" font-family="Helvetica,sans-Serif" font-size="11.00" fill="#000000">fec_modificacion</text>
<polygon fill="none" stroke="#000000" points="133.5,-183.7 133.5,-205.7 225.5,-205.7 225.5,-183.7 133.5,-183.7"/>
<text text-anchor="start" x="136.1023" y="-191.4" font-family="Helvetica,sans-Serif" font-size="11.00" fill="#000000">timestamptz[35,6]</text>
<polygon fill="none" stroke="#000000" points="10.5,-161.7 10.5,-183.7 133.5,-183.7 133.5,-161.7 10.5,-161.7"/>
<text text-anchor="start" x="30.5" y="-168.8" font-family="Helvetica,sans-Serif" font-size="11.00" fill="#000000">usu_modificacion</text>
<polygon fill="none" stroke="#000000" points="133.5,-161.7 133.5,-183.7 225.5,-183.7 225.5,-161.7 133.5,-161.7"/>
<text text-anchor="start" x="136.5" y="-169.4" font-family="Helvetica,sans-Serif" font-size="11.00" fill="#000000">varchar[20]</text>
<polygon fill="#ffffff" stroke="transparent" points="10.5,-142.7 10.5,-161.7 63.5,-161.7 63.5,-142.7 10.5,-142.7"/>
<polygon fill="none" stroke="#000000" points="10.5,-142.7 10.5,-161.7 63.5,-161.7 63.5,-142.7 10.5,-142.7"/>
<text text-anchor="start" x="13.5" y="-148.8" font-family="Helvetica,sans-Serif" font-size="11.00" fill="#000000">&lt; 0</text>
<polygon fill="#ffffff" stroke="transparent" points="63.5,-142.7 63.5,-161.7 133.5,-161.7 133.5,-142.7 63.5,-142.7"/>
<polygon fill="none" stroke="#000000" points="63.5,-142.7 63.5,-161.7 133.5,-161.7 133.5,-142.7 63.5,-142.7"/>
<text text-anchor="start" x="98.1105" y="-148.8" font-family="Helvetica,sans-Serif" font-size="11.00" fill="#000000">2 rows</text>
<polygon fill="#ffffff" stroke="transparent" points="133.5,-142.7 133.5,-161.7 225.5,-161.7 225.5,-142.7 133.5,-142.7"/>
<polygon fill="none" stroke="#000000" points="133.5,-142.7 133.5,-161.7 225.5,-161.7 225.5,-142.7 133.5,-142.7"/>
<text text-anchor="start" x="206.9053" y="-148.8" font-family="Helvetica,sans-Serif" font-size="11.00" fill="#000000">2 &gt;</text>
<polygon fill="none" stroke="#000000" stroke-width="2" points="9,-141.7 9,-383.7 226,-383.7 226,-141.7 9,-141.7"/>
</a>
</g>
</g>
<!-- empleados&#45;&gt;usuarios -->
<g id="edge2" class="edge">
<title>empleados:w&#45;&gt;usuarios:e</title>
<path fill="none" stroke="#000000" d="M262.2444,-328.0371C249.7013,-334.6316 244.6797,-348.7 225.5,-348.7"/>
<polygon fill="#000000" stroke="#000000" points="268.7106,-326.5235 277.3206,-328.2052 272.6053,-325.6117 276.5,-324.7 276.5,-324.7 276.5,-324.7 272.6053,-325.6117 275.6794,-321.1948 268.7106,-326.5235 268.7106,-326.5235"/>
<ellipse fill="none" stroke="#000000" cx="265.5948" cy="-327.2529" rx="3.2" ry="3.2"/>
</g>
<!-- leads -->
<g id="node4" class="node">
<title>leads</title>
<g id="a_node4"><a xlink:href="../../tables/leads.html" xlink:title="leads" target="_top">
<polygon fill="#ffffff" stroke="transparent" points="276,-38.2 276,-209.2 399,-209.2 399,-38.2 276,-38.2"/>
<polygon fill="#f5f5f5" stroke="transparent" points="276.5,-185.7 276.5,-208.7 399.5,-208.7 399.5,-185.7 276.5,-185.7"/>
<polygon fill="none" stroke="#000000" points="276.5,-185.7 276.5,-208.7 399.5,-208.7 399.5,-185.7 276.5,-185.7"/>
<text text-anchor="start" x="281.5" y="-194.8" font-family="Helvetica,sans-Serif" font-weight="bold" font-size="11.00" fill="#000000">leads</text>
<text text-anchor="start" x="364.5437" y="-193.8" font-family="Helvetica,sans-Serif" font-size="11.00" fill="#000000">[table]</text>
<polygon fill="none" stroke="#000000" points="276.5,-163.7 276.5,-185.7 399.5,-185.7 399.5,-163.7 276.5,-163.7"/>
<image xlink:href="../../images/primaryKeys.png" width="11px" height="12px" preserveAspectRatio="xMinYMin meet" x="281.5" y="-180.7"/>
<text text-anchor="start" x="296.5" y="-170.8" font-family="Helvetica,sans-Serif" font-size="11.00" fill="#000000">lead_id</text>
<polygon fill="none" stroke="#000000" points="276.5,-141.7 276.5,-163.7 399.5,-163.7 399.5,-141.7 276.5,-141.7"/>
<image xlink:href="../../images/foreignKeys.png" width="11px" height="12px" preserveAspectRatio="xMinYMin meet" x="281.5" y="-158.7"/>
<text text-anchor="start" x="296.5" y="-148.8" font-family="Helvetica,sans-Serif" font-size="11.00" fill="#000000">usu_asignado_id</text>
<polygon fill="none" stroke="#000000" points="276.5,-119.7 276.5,-141.7 399.5,-141.7 399.5,-119.7 276.5,-119.7"/>
<image xlink:href="../../images/foreignKeys.png" width="11px" height="12px" preserveAspectRatio="xMinYMin meet" x="281.5" y="-136.7"/>
<text text-anchor="start" x="296.5" y="-126.8" font-family="Helvetica,sans-Serif" font-size="11.00" fill="#000000">campana_id</text>
<polygon fill="none" stroke="#000000" points="276.5,-97.7 276.5,-119.7 399.5,-119.7 399.5,-97.7 276.5,-97.7"/>
<image xlink:href="../../images/foreignKeys.png" width="11px" height="12px" preserveAspectRatio="xMinYMin meet" x="281.5" y="-114.7"/>
<text text-anchor="start" x="296.5" y="-104.8" font-family="Helvetica,sans-Serif" font-size="11.00" fill="#000000">persona_id</text>
<polygon fill="none" stroke="#000000" points="276.5,-75.7 276.5,-97.7 399.5,-97.7 399.5,-75.7 276.5,-75.7"/>
<image xlink:href="../../images/foreignKeys.png" width="11px" height="12px" preserveAspectRatio="xMinYMin meet" x="281.5" y="-92.7"/>
<text text-anchor="start" x="296.5" y="-82.8" font-family="Helvetica,sans-Serif" font-size="11.00" fill="#000000">curso_id</text>
<polygon fill="none" stroke="#000000" points="276.5,-56.7 276.5,-75.7 399.5,-75.7 399.5,-56.7 276.5,-56.7"/>
<text text-anchor="start" x="279.5" y="-62.8" font-family="Helvetica,sans-Serif" font-size="11.00" fill="#000000">...</text>
<polygon fill="#ffffff" stroke="transparent" points="276.5,-37.7 276.5,-56.7 323.5,-56.7 323.5,-37.7 276.5,-37.7"/>
<polygon fill="none" stroke="#000000" points="276.5,-37.7 276.5,-56.7 323.5,-56.7 323.5,-37.7 276.5,-37.7"/>
<text text-anchor="start" x="279.5" y="-43.8" font-family="Helvetica,sans-Serif" font-size="11.00" fill="#000000">&lt; 2</text>
<polygon fill="#ffffff" stroke="transparent" points="323.5,-37.7 323.5,-56.7 374.5,-56.7 374.5,-37.7 323.5,-37.7"/>
<polygon fill="none" stroke="#000000" points="323.5,-37.7 323.5,-56.7 374.5,-56.7 374.5,-37.7 323.5,-37.7"/>
<text text-anchor="start" x="339.1105" y="-43.8" font-family="Helvetica,sans-Serif" font-size="11.00" fill="#000000">0 rows</text>
<polygon fill="#ffffff" stroke="transparent" points="374.5,-37.7 374.5,-56.7 399.5,-56.7 399.5,-37.7 374.5,-37.7"/>
<polygon fill="none" stroke="#000000" points="374.5,-37.7 374.5,-56.7 399.5,-56.7 399.5,-37.7 374.5,-37.7"/>
<text text-anchor="start" x="390.3862" y="-43.8" font-family="Helvetica,sans-Serif" font-size="11.00" fill="#000000"> &#160;</text>
</a>
</g>
</g>
<!-- leads&#45;&gt;personas -->
<g id="edge3" class="edge">
<title>leads:w&#45;&gt;personas:e</title>
<path fill="none" stroke="#000000" d="M262.0737,-108.0608C221.8239,-104.3462 208.4313,-85.7 161.5,-85.7"/>
<polygon fill="#000000" stroke="#000000" points="268.5078,-108.3459 276.3406,-112.2965 272.5039,-108.5229 276.5,-108.7 276.5,-108.7 276.5,-108.7 272.5039,-108.5229 276.6594,-105.1035 268.5078,-108.3459 268.5078,-108.3459"/>
<ellipse fill="none" stroke="#000000" cx="265.311" cy="-108.2042" rx="3.2" ry="3.2"/>
</g>
<!-- leads&#45;&gt;usuarios -->
<g id="edge4" class="edge">
<title>leads:w&#45;&gt;usuarios:e</title>
<path fill="none" stroke="#000000" d="M262.0827,-154.9012C201.7605,-176.4344 309.8861,-348.7 225.5,-348.7"/>
<polygon fill="#000000" stroke="#000000" points="268.5916,-153.9075 277.0434,-156.2588 272.5458,-153.3037 276.5,-152.7 276.5,-152.7 276.5,-152.7 272.5458,-153.3037 275.9566,-149.1412 268.5916,-153.9075 268.5916,-153.9075"/>
<ellipse fill="none" stroke="#000000" cx="265.4283" cy="-154.3904" rx="3.2" ry="3.2"/>
</g>
</g>
</svg>
