<?xml version="1.0" encoding="UTF-8" standalone="no"?>
<!DOCTYPE svg PUBLIC "-//W3C//DTD SVG 1.1//EN"
 "http://www.w3.org/Graphics/SVG/1.1/DTD/svg11.dtd">
<!-- Generated by graphviz version 2.40.1 (20161225.0304)
 -->
<!-- Title: oneDegreeRelationshipsDiagram Pages: 1 -->
<svg width="587pt" height="658pt"
 viewBox="0.00 0.00 587.00 658.40" xmlns="http://www.w3.org/2000/svg" xmlns:xlink="http://www.w3.org/1999/xlink">
<g id="graph0" class="graph" transform="scale(1 1) rotate(0) translate(4 654.4047)">
<title>oneDegreeRelationshipsDiagram</title>
<polygon fill="#ffffff" stroke="transparent" points="-4,4 -4,-654.4047 583,-654.4047 583,4 -4,4"/>
<text text-anchor="middle" x="72.4936" y="-7.3" font-family="Helvetica,sans-Serif" font-size="11.00" fill="#000000">Generated by SchemaSpy</text>
<!-- casos -->
<g id="node1" class="node">
<title>casos</title>
<g id="a_node1"><a xlink:href="../../tables/casos.html" xlink:title="casos" target="_top">
<polygon fill="#ffffff" stroke="transparent" points="448,-497.4047 448,-646.4047 571,-646.4047 571,-497.4047 448,-497.4047"/>
<polygon fill="#f5f5f5" stroke="transparent" points="448.5,-622.9047 448.5,-645.9047 571.5,-645.9047 571.5,-622.9047 448.5,-622.9047"/>
<polygon fill="none" stroke="#000000" points="448.5,-622.9047 448.5,-645.9047 571.5,-645.9047 571.5,-622.9047 448.5,-622.9047"/>
<text text-anchor="start" x="453.5" y="-632.0047" font-family="Helvetica,sans-Serif" font-weight="bold" font-size="11.00" fill="#000000">casos</text>
<text text-anchor="start" x="536.5437" y="-631.0047" font-family="Helvetica,sans-Serif" font-size="11.00" fill="#000000">[table]</text>
<polygon fill="none" stroke="#000000" points="448.5,-600.9047 448.5,-622.9047 571.5,-622.9047 571.5,-600.9047 448.5,-600.9047"/>
<image xlink:href="../../images/primaryKeys.png" width="11px" height="12px" preserveAspectRatio="xMinYMin meet" x="453.5" y="-617.905"/>
<text text-anchor="start" x="468.5" y="-608.0047" font-family="Helvetica,sans-Serif" font-size="11.00" fill="#000000">caso_id</text>
<polygon fill="none" stroke="#000000" points="448.5,-578.9047 448.5,-600.9047 571.5,-600.9047 571.5,-578.9047 448.5,-578.9047"/>
<image xlink:href="../../images/foreignKeys.png" width="11px" height="12px" preserveAspectRatio="xMinYMin meet" x="453.5" y="-595.905"/>
<text text-anchor="start" x="468.5" y="-586.0047" font-family="Helvetica,sans-Serif" font-size="11.00" fill="#000000">lead_id</text>
<polygon fill="none" stroke="#000000" points="448.5,-556.9047 448.5,-578.9047 571.5,-578.9047 571.5,-556.9047 448.5,-556.9047"/>
<image xlink:href="../../images/foreignKeys.png" width="11px" height="12px" preserveAspectRatio="xMinYMin meet" x="453.5" y="-573.905"/>
<text text-anchor="start" x="468.5" y="-564.0047" font-family="Helvetica,sans-Serif" font-size="11.00" fill="#000000">usu_asignado_id</text>
<polygon fill="none" stroke="#000000" points="448.5,-534.9047 448.5,-556.9047 571.5,-556.9047 571.5,-534.9047 448.5,-534.9047"/>
<image xlink:href="../../images/foreignKeys.png" width="11px" height="12px" preserveAspectRatio="xMinYMin meet" x="453.5" y="-551.905"/>
<text text-anchor="start" x="468.5" y="-542.0047" font-family="Helvetica,sans-Serif" font-size="11.00" fill="#000000">contacto_id</text>
<polygon fill="none" stroke="#000000" points="448.5,-515.9047 448.5,-534.9047 571.5,-534.9047 571.5,-515.9047 448.5,-515.9047"/>
<text text-anchor="start" x="451.5" y="-522.0047" font-family="Helvetica,sans-Serif" font-size="11.00" fill="#000000">...</text>
<polygon fill="#ffffff" stroke="transparent" points="448.5,-496.9047 448.5,-515.9047 495.5,-515.9047 495.5,-496.9047 448.5,-496.9047"/>
<polygon fill="none" stroke="#000000" points="448.5,-496.9047 448.5,-515.9047 495.5,-515.9047 495.5,-496.9047 448.5,-496.9047"/>
<text text-anchor="start" x="451.5" y="-503.0047" font-family="Helvetica,sans-Serif" font-size="11.00" fill="#000000">&lt; 3</text>
<polygon fill="#ffffff" stroke="transparent" points="495.5,-496.9047 495.5,-515.9047 546.5,-515.9047 546.5,-496.9047 495.5,-496.9047"/>
<polygon fill="none" stroke="#000000" points="495.5,-496.9047 495.5,-515.9047 546.5,-515.9047 546.5,-496.9047 495.5,-496.9047"/>
<text text-anchor="start" x="511.1105" y="-503.0047" font-family="Helvetica,sans-Serif" font-size="11.00" fill="#000000">0 rows</text>
<polygon fill="#ffffff" stroke="transparent" points="546.5,-496.9047 546.5,-515.9047 571.5,-515.9047 571.5,-496.9047 546.5,-496.9047"/>
<polygon fill="none" stroke="#000000" points="546.5,-496.9047 546.5,-515.9047 571.5,-515.9047 571.5,-496.9047 546.5,-496.9047"/>
<text text-anchor="start" x="562.3862" y="-503.0047" font-family="Helvetica,sans-Serif" font-size="11.00" fill="#000000"> &#160;</text>
</a>
</g>
</g>
<!-- leads -->
<g id="node2" class="node">
<title>leads</title>
<g id="a_node2"><a xlink:href="../../tables/leads.html" xlink:title="leads" target="_top">
<polygon fill="#ffffff" stroke="transparent" points="276,-413.4047 276,-584.4047 399,-584.4047 399,-413.4047 276,-413.4047"/>
<polygon fill="#f5f5f5" stroke="transparent" points="276.5,-560.9047 276.5,-583.9047 399.5,-583.9047 399.5,-560.9047 276.5,-560.9047"/>
<polygon fill="none" stroke="#000000" points="276.5,-560.9047 276.5,-583.9047 399.5,-583.9047 399.5,-560.9047 276.5,-560.9047"/>
<text text-anchor="start" x="281.5" y="-570.0047" font-family="Helvetica,sans-Serif" font-weight="bold" font-size="11.00" fill="#000000">leads</text>
<text text-anchor="start" x="364.5437" y="-569.0047" font-family="Helvetica,sans-Serif" font-size="11.00" fill="#000000">[table]</text>
<polygon fill="none" stroke="#000000" points="276.5,-538.9047 276.5,-560.9047 399.5,-560.9047 399.5,-538.9047 276.5,-538.9047"/>
<image xlink:href="../../images/primaryKeys.png" width="11px" height="12px" preserveAspectRatio="xMinYMin meet" x="281.5" y="-555.905"/>
<text text-anchor="start" x="296.5" y="-546.0047" font-family="Helvetica,sans-Serif" font-size="11.00" fill="#000000">lead_id</text>
<polygon fill="none" stroke="#000000" points="276.5,-516.9047 276.5,-538.9047 399.5,-538.9047 399.5,-516.9047 276.5,-516.9047"/>
<image xlink:href="../../images/foreignKeys.png" width="11px" height="12px" preserveAspectRatio="xMinYMin meet" x="281.5" y="-533.905"/>
<text text-anchor="start" x="296.5" y="-524.0047" font-family="Helvetica,sans-Serif" font-size="11.00" fill="#000000">usu_asignado_id</text>
<polygon fill="none" stroke="#000000" points="276.5,-494.9047 276.5,-516.9047 399.5,-516.9047 399.5,-494.9047 276.5,-494.9047"/>
<image xlink:href="../../images/foreignKeys.png" width="11px" height="12px" preserveAspectRatio="xMinYMin meet" x="281.5" y="-511.905"/>
<text text-anchor="start" x="296.5" y="-502.0047" font-family="Helvetica,sans-Serif" font-size="11.00" fill="#000000">campana_id</text>
<polygon fill="none" stroke="#000000" points="276.5,-472.9047 276.5,-494.9047 399.5,-494.9047 399.5,-472.9047 276.5,-472.9047"/>
<image xlink:href="../../images/foreignKeys.png" width="11px" height="12px" preserveAspectRatio="xMinYMin meet" x="281.5" y="-489.905"/>
<text text-anchor="start" x="296.5" y="-480.0047" font-family="Helvetica,sans-Serif" font-size="11.00" fill="#000000">persona_id</text>
<polygon fill="none" stroke="#000000" points="276.5,-450.9047 276.5,-472.9047 399.5,-472.9047 399.5,-450.9047 276.5,-450.9047"/>
<image xlink:href="../../images/foreignKeys.png" width="11px" height="12px" preserveAspectRatio="xMinYMin meet" x="281.5" y="-467.905"/>
<text text-anchor="start" x="296.5" y="-458.0047" font-family="Helvetica,sans-Serif" font-size="11.00" fill="#000000">curso_id</text>
<polygon fill="none" stroke="#000000" points="276.5,-431.9047 276.5,-450.9047 399.5,-450.9047 399.5,-431.9047 276.5,-431.9047"/>
<text text-anchor="start" x="279.5" y="-438.0047" font-family="Helvetica,sans-Serif" font-size="11.00" fill="#000000">...</text>
<polygon fill="#ffffff" stroke="transparent" points="276.5,-412.9047 276.5,-431.9047 318.5,-431.9047 318.5,-412.9047 276.5,-412.9047"/>
<polygon fill="none" stroke="#000000" points="276.5,-412.9047 276.5,-431.9047 318.5,-431.9047 318.5,-412.9047 276.5,-412.9047"/>
<text text-anchor="start" x="279.5" y="-419.0047" font-family="Helvetica,sans-Serif" font-size="11.00" fill="#000000">&lt; 4</text>
<polygon fill="#ffffff" stroke="transparent" points="318.5,-412.9047 318.5,-431.9047 367.5,-431.9047 367.5,-412.9047 318.5,-412.9047"/>
<polygon fill="none" stroke="#000000" points="318.5,-412.9047 318.5,-431.9047 367.5,-431.9047 367.5,-412.9047 318.5,-412.9047"/>
<text text-anchor="start" x="332.1105" y="-419.0047" font-family="Helvetica,sans-Serif" font-size="11.00" fill="#000000">0 rows</text>
<polygon fill="#ffffff" stroke="transparent" points="367.5,-412.9047 367.5,-431.9047 399.5,-431.9047 399.5,-412.9047 367.5,-412.9047"/>
<polygon fill="none" stroke="#000000" points="367.5,-412.9047 367.5,-431.9047 399.5,-431.9047 399.5,-412.9047 367.5,-412.9047"/>
<text text-anchor="start" x="380.9053" y="-419.0047" font-family="Helvetica,sans-Serif" font-size="11.00" fill="#000000">3 &gt;</text>
</a>
</g>
</g>
<!-- casos&#45;&gt;leads -->
<g id="edge1" class="edge">
<title>casos:w&#45;&gt;leads:e</title>
<path fill="none" stroke="#000000" d="M434.7637,-585.3162C421.8632,-574.8095 421.6826,-549.9047 399.5,-549.9047"/>
<polygon fill="#000000" stroke="#000000" points="440.9121,-587.37 447.3594,-593.3193 444.7061,-588.6374 448.5,-589.9047 448.5,-589.9047 448.5,-589.9047 444.7061,-588.6374 449.6406,-586.4902 440.9121,-587.37 440.9121,-587.37"/>
<ellipse fill="none" stroke="#000000" cx="437.877" cy="-586.3561" rx="3.2" ry="3.2"/>
</g>
<!-- usuarios -->
<g id="node3" class="node">
<title>usuarios</title>
<g id="a_node3"><a xlink:href="../../tables/usuarios.html" xlink:title="usuarios" target="_top">
<polygon fill="#ffffff" stroke="transparent" points="8,-127.9047 8,-349.9047 227,-349.9047 227,-127.9047 8,-127.9047"/>
<polygon fill="#f5f5f5" stroke="transparent" points="10.5,-324.9047 10.5,-347.9047 225.5,-347.9047 225.5,-324.9047 10.5,-324.9047"/>
<polygon fill="none" stroke="#000000" points="10.5,-324.9047 10.5,-347.9047 225.5,-347.9047 225.5,-324.9047 10.5,-324.9047"/>
<text text-anchor="start" x="15.5" y="-334.0047" font-family="Helvetica,sans-Serif" font-weight="bold" font-size="11.00" fill="#000000">usuarios</text>
<text text-anchor="start" x="190.5437" y="-333.0047" font-family="Helvetica,sans-Serif" font-size="11.00" fill="#000000">[table]</text>
<polygon fill="none" stroke="#000000" points="10.5,-302.9047 10.5,-324.9047 133.5,-324.9047 133.5,-302.9047 10.5,-302.9047"/>
<image xlink:href="../../images/primaryKeys.png" width="11px" height="12px" preserveAspectRatio="xMinYMin meet" x="15.5" y="-319.905"/>
<text text-anchor="start" x="30.5" y="-310.0047" font-family="Helvetica,sans-Serif" font-size="11.00" fill="#000000">usuario_id</text>
<polygon fill="none" stroke="#000000" points="133.5,-302.9047 133.5,-324.9047 225.5,-324.9047 225.5,-302.9047 133.5,-302.9047"/>
<text text-anchor="start" x="136.5" y="-310.6047" font-family="Helvetica,sans-Serif" font-size="11.00" fill="#000000">serial[10]</text>
<polygon fill="#ffffff" stroke="transparent" points="10.5,-280.9047 10.5,-302.9047 133.5,-302.9047 133.5,-280.9047 10.5,-280.9047"/>
<polygon fill="none" stroke="#000000" points="10.5,-280.9047 10.5,-302.9047 133.5,-302.9047 133.5,-280.9047 10.5,-280.9047"/>
<text text-anchor="start" x="30.5" y="-288.0047" font-family="Helvetica,sans-Serif" font-size="11.00" fill="#000000">nom_usuario</text>
<polygon fill="none" stroke="#000000" points="133.5,-280.9047 133.5,-302.9047 225.5,-302.9047 225.5,-280.9047 133.5,-280.9047"/>
<text text-anchor="start" x="136.5" y="-288.6047" font-family="Helvetica,sans-Serif" font-size="11.00" fill="#000000">varchar[20]</text>
<polygon fill="none" stroke="#000000" points="10.5,-258.9047 10.5,-280.9047 133.5,-280.9047 133.5,-258.9047 10.5,-258.9047"/>
<text text-anchor="start" x="30.5" y="-266.0047" font-family="Helvetica,sans-Serif" font-size="11.00" fill="#000000">password</text>
<polygon fill="none" stroke="#000000" points="133.5,-258.9047 133.5,-280.9047 225.5,-280.9047 225.5,-258.9047 133.5,-258.9047"/>
<text text-anchor="start" x="136.5" y="-266.6047" font-family="Helvetica,sans-Serif" font-size="11.00" fill="#000000">varchar[255]</text>
<polygon fill="none" stroke="#000000" points="10.5,-236.9047 10.5,-258.9047 133.5,-258.9047 133.5,-236.9047 10.5,-236.9047"/>
<text text-anchor="start" x="30.5" y="-244.0047" font-family="Helvetica,sans-Serif" font-size="11.00" fill="#000000">email</text>
<polygon fill="none" stroke="#000000" points="133.5,-236.9047 133.5,-258.9047 225.5,-258.9047 225.5,-236.9047 133.5,-236.9047"/>
<text text-anchor="start" x="136.5" y="-244.6047" font-family="Helvetica,sans-Serif" font-size="11.00" fill="#000000">varchar[60]</text>
<polygon fill="none" stroke="#000000" points="10.5,-214.9047 10.5,-236.9047 133.5,-236.9047 133.5,-214.9047 10.5,-214.9047"/>
<text text-anchor="start" x="30.5" y="-222.0047" font-family="Helvetica,sans-Serif" font-size="11.00" fill="#000000">usu_insercion</text>
<polygon fill="none" stroke="#000000" points="133.5,-214.9047 133.5,-236.9047 225.5,-236.9047 225.5,-214.9047 133.5,-214.9047"/>
<text text-anchor="start" x="136.5" y="-222.6047" font-family="Helvetica,sans-Serif" font-size="11.00" fill="#000000">varchar[20]</text>
<polygon fill="none" stroke="#000000" points="10.5,-192.9047 10.5,-214.9047 133.5,-214.9047 133.5,-192.9047 10.5,-192.9047"/>
<text text-anchor="start" x="30.5" y="-200.0047" font-family="Helvetica,sans-Serif" font-size="11.00" fill="#000000">fec_insercion</text>
<polygon fill="none" stroke="#000000" points="133.5,-192.9047 133.5,-214.9047 225.5,-214.9047 225.5,-192.9047 133.5,-192.9047"/>
<text text-anchor="start" x="136.1023" y="-200.6047" font-family="Helvetica,sans-Serif" font-size="11.00" fill="#000000">timestamptz[35,6]</text>
<polygon fill="none" stroke="#000000" points="10.5,-170.9047 10.5,-192.9047 133.5,-192.9047 133.5,-170.9047 10.5,-170.9047"/>
<text text-anchor="start" x="30.5" y="-178.0047" font-family="Helvetica,sans-Serif" font-size="11.00" fill="#000000">fec_modificacion</text>
<polygon fill="none" stroke="#000000" points="133.5,-170.9047 133.5,-192.9047 225.5,-192.9047 225.5,-170.9047 133.5,-170.9047"/>
<text text-anchor="start" x="136.1023" y="-178.6047" font-family="Helvetica,sans-Serif" font-size="11.00" fill="#000000">timestamptz[35,6]</text>
<polygon fill="none" stroke="#000000" points="10.5,-148.9047 10.5,-170.9047 133.5,-170.9047 133.5,-148.9047 10.5,-148.9047"/>
<text text-anchor="start" x="30.5" y="-156.0047" font-family="Helvetica,sans-Serif" font-size="11.00" fill="#000000">usu_modificacion</text>
<polygon fill="none" stroke="#000000" points="133.5,-148.9047 133.5,-170.9047 225.5,-170.9047 225.5,-148.9047 133.5,-148.9047"/>
<text text-anchor="start" x="136.5" y="-156.6047" font-family="Helvetica,sans-Serif" font-size="11.00" fill="#000000">varchar[20]</text>
<polygon fill="#ffffff" stroke="transparent" points="10.5,-129.9047 10.5,-148.9047 66.5,-148.9047 66.5,-129.9047 10.5,-129.9047"/>
<polygon fill="none" stroke="#000000" points="10.5,-129.9047 10.5,-148.9047 66.5,-148.9047 66.5,-129.9047 10.5,-129.9047"/>
<text text-anchor="start" x="13.5" y="-136.0047" font-family="Helvetica,sans-Serif" font-size="11.00" fill="#000000">&lt; 0</text>
<polygon fill="#ffffff" stroke="transparent" points="66.5,-129.9047 66.5,-148.9047 133.5,-148.9047 133.5,-129.9047 66.5,-129.9047"/>
<polygon fill="none" stroke="#000000" points="66.5,-129.9047 66.5,-148.9047 133.5,-148.9047 133.5,-129.9047 66.5,-129.9047"/>
<text text-anchor="start" x="103.6105" y="-136.0047" font-family="Helvetica,sans-Serif" font-size="11.00" fill="#000000">1 row</text>
<polygon fill="#ffffff" stroke="transparent" points="133.5,-129.9047 133.5,-148.9047 225.5,-148.9047 225.5,-129.9047 133.5,-129.9047"/>
<polygon fill="none" stroke="#000000" points="133.5,-129.9047 133.5,-148.9047 225.5,-148.9047 225.5,-129.9047 133.5,-129.9047"/>
<text text-anchor="start" x="206.9053" y="-136.0047" font-family="Helvetica,sans-Serif" font-size="11.00" fill="#000000">5 &gt;</text>
<polygon fill="none" stroke="#000000" stroke-width="2" points="9,-128.9047 9,-348.9047 226,-348.9047 226,-128.9047 9,-128.9047"/>
</a>
</g>
</g>
<!-- casos&#45;&gt;usuarios -->
<g id="edge2" class="edge">
<title>casos:w&#45;&gt;usuarios:e</title>
<path fill="none" stroke="#000000" d="M434.5052,-572.0431C425.6003,-578.4262 422.1625,-590.4064 407,-594.9047 347.7736,-612.4754 314.836,-635.1897 268,-594.9047 220.1201,-553.7219 288.6546,-313.9047 225.5,-313.9047"/>
<polygon fill="#000000" stroke="#000000" points="440.8284,-570.1733 449.5209,-571.357 444.6642,-569.039 448.5,-567.9047 448.5,-567.9047 448.5,-567.9047 444.6642,-569.039 447.4791,-564.4525 440.8284,-570.1733 440.8284,-570.1733"/>
<ellipse fill="none" stroke="#000000" cx="437.7597" cy="-571.0808" rx="3.2" ry="3.2"/>
</g>
<!-- leads&#45;&gt;usuarios -->
<g id="edge4" class="edge">
<title>leads:w&#45;&gt;usuarios:e</title>
<path fill="none" stroke="#000000" d="M262.1301,-525.9229C194.3226,-504.3491 317.7367,-313.9047 225.5,-313.9047"/>
<polygon fill="#000000" stroke="#000000" points="268.575,-526.8117 276.0081,-531.471 272.5375,-527.3582 276.5,-527.9047 276.5,-527.9047 276.5,-527.9047 272.5375,-527.3582 276.9919,-524.3385 268.575,-526.8117 268.575,-526.8117"/>
<ellipse fill="none" stroke="#000000" cx="265.405" cy="-526.3745" rx="3.2" ry="3.2"/>
</g>
<!-- empleados -->
<g id="node4" class="node">
<title>empleados</title>
<g id="a_node4"><a xlink:href="../../tables/empleados.html" xlink:title="empleados" target="_top">
<polygon fill="#ffffff" stroke="transparent" points="276,-265.4047 276,-392.4047 399,-392.4047 399,-265.4047 276,-265.4047"/>
<polygon fill="#f5f5f5" stroke="transparent" points="276.5,-368.9047 276.5,-391.9047 399.5,-391.9047 399.5,-368.9047 276.5,-368.9047"/>
<polygon fill="none" stroke="#000000" points="276.5,-368.9047 276.5,-391.9047 399.5,-391.9047 399.5,-368.9047 276.5,-368.9047"/>
<text text-anchor="start" x="281.5" y="-378.0047" font-family="Helvetica,sans-Serif" font-weight="bold" font-size="11.00" fill="#000000">empleados</text>
<text text-anchor="start" x="364.5437" y="-377.0047" font-family="Helvetica,sans-Serif" font-size="11.00" fill="#000000">[table]</text>
<polygon fill="none" stroke="#000000" points="276.5,-346.9047 276.5,-368.9047 399.5,-368.9047 399.5,-346.9047 276.5,-346.9047"/>
<image xlink:href="../../images/primaryKeys.png" width="11px" height="12px" preserveAspectRatio="xMinYMin meet" x="281.5" y="-363.905"/>
<text text-anchor="start" x="296.5" y="-354.0047" font-family="Helvetica,sans-Serif" font-size="11.00" fill="#000000">empleado_id</text>
<polygon fill="none" stroke="#000000" points="276.5,-324.9047 276.5,-346.9047 399.5,-346.9047 399.5,-324.9047 276.5,-324.9047"/>
<image xlink:href="../../images/foreignKeys.png" width="11px" height="12px" preserveAspectRatio="xMinYMin meet" x="281.5" y="-341.905"/>
<text text-anchor="start" x="296.5" y="-332.0047" font-family="Helvetica,sans-Serif" font-size="11.00" fill="#000000">persona_id</text>
<polygon fill="none" stroke="#000000" points="276.5,-302.9047 276.5,-324.9047 399.5,-324.9047 399.5,-302.9047 276.5,-302.9047"/>
<image xlink:href="../../images/foreignKeys.png" width="11px" height="12px" preserveAspectRatio="xMinYMin meet" x="281.5" y="-319.905"/>
<text text-anchor="start" x="296.5" y="-310.0047" font-family="Helvetica,sans-Serif" font-size="11.00" fill="#000000">usuario_id</text>
<polygon fill="none" stroke="#000000" points="276.5,-283.9047 276.5,-302.9047 399.5,-302.9047 399.5,-283.9047 276.5,-283.9047"/>
<text text-anchor="start" x="279.5" y="-290.0047" font-family="Helvetica,sans-Serif" font-size="11.00" fill="#000000">...</text>
<polygon fill="#ffffff" stroke="transparent" points="276.5,-264.9047 276.5,-283.9047 326.5,-283.9047 326.5,-264.9047 276.5,-264.9047"/>
<polygon fill="none" stroke="#000000" points="276.5,-264.9047 276.5,-283.9047 326.5,-283.9047 326.5,-264.9047 276.5,-264.9047"/>
<text text-anchor="start" x="279.5" y="-271.0047" font-family="Helvetica,sans-Serif" font-size="11.00" fill="#000000">&lt; 2</text>
<polygon fill="#ffffff" stroke="transparent" points="326.5,-264.9047 326.5,-283.9047 372.5,-283.9047 372.5,-264.9047 326.5,-264.9047"/>
<polygon fill="none" stroke="#000000" points="326.5,-264.9047 326.5,-283.9047 372.5,-283.9047 372.5,-264.9047 326.5,-264.9047"/>
<text text-anchor="start" x="342.6105" y="-271.0047" font-family="Helvetica,sans-Serif" font-size="11.00" fill="#000000">1 row</text>
<polygon fill="#ffffff" stroke="transparent" points="372.5,-264.9047 372.5,-283.9047 399.5,-283.9047 399.5,-264.9047 372.5,-264.9047"/>
<polygon fill="none" stroke="#000000" points="372.5,-264.9047 372.5,-283.9047 399.5,-283.9047 399.5,-264.9047 372.5,-264.9047"/>
<text text-anchor="start" x="390.3862" y="-271.0047" font-family="Helvetica,sans-Serif" font-size="11.00" fill="#000000"> &#160;</text>
</a>
</g>
</g>
<!-- empleados&#45;&gt;usuarios -->
<g id="edge3" class="edge">
<title>empleados:w&#45;&gt;usuarios:e</title>
<path fill="none" stroke="#000000" d="M261.776,-313.9047C249.7815,-313.9047 242.3229,-313.9047 225.5,-313.9047"/>
<polygon fill="#000000" stroke="#000000" points="268.5,-313.9048 276.5,-317.5047 272.5,-313.9048 276.5,-313.9047 276.5,-313.9047 276.5,-313.9047 272.5,-313.9048 276.5,-310.3047 268.5,-313.9048 268.5,-313.9048"/>
<ellipse fill="none" stroke="#000000" cx="265.3" cy="-313.9048" rx="3.2" ry="3.2"/>
</g>
<!-- oportunidades -->
<g id="node5" class="node">
<title>oportunidades</title>
<g id="a_node5"><a xlink:href="../../tables/oportunidades.html" xlink:title="oportunidades" target="_top">
<polygon fill="#ffffff" stroke="transparent" points="276,-73.4047 276,-244.4047 399,-244.4047 399,-73.4047 276,-73.4047"/>
<polygon fill="#f5f5f5" stroke="transparent" points="276.5,-220.9047 276.5,-243.9047 399.5,-243.9047 399.5,-220.9047 276.5,-220.9047"/>
<polygon fill="none" stroke="#000000" points="276.5,-220.9047 276.5,-243.9047 399.5,-243.9047 399.5,-220.9047 276.5,-220.9047"/>
<text text-anchor="start" x="281.5" y="-230.0047" font-family="Helvetica,sans-Serif" font-weight="bold" font-size="11.00" fill="#000000">oportunidades</text>
<text text-anchor="start" x="364.5437" y="-229.0047" font-family="Helvetica,sans-Serif" font-size="11.00" fill="#000000">[table]</text>
<polygon fill="none" stroke="#000000" points="276.5,-198.9047 276.5,-220.9047 399.5,-220.9047 399.5,-198.9047 276.5,-198.9047"/>
<image xlink:href="../../images/primaryKeys.png" width="11px" height="12px" preserveAspectRatio="xMinYMin meet" x="281.5" y="-215.905"/>
<text text-anchor="start" x="296.5" y="-206.0047" font-family="Helvetica,sans-Serif" font-size="11.00" fill="#000000">oportunidad_id</text>
<polygon fill="none" stroke="#000000" points="276.5,-176.9047 276.5,-198.9047 399.5,-198.9047 399.5,-176.9047 276.5,-176.9047"/>
<image xlink:href="../../images/foreignKeys.png" width="11px" height="12px" preserveAspectRatio="xMinYMin meet" x="281.5" y="-193.905"/>
<text text-anchor="start" x="296.5" y="-184.0047" font-family="Helvetica,sans-Serif" font-size="11.00" fill="#000000">campana_id</text>
<polygon fill="none" stroke="#000000" points="276.5,-154.9047 276.5,-176.9047 399.5,-176.9047 399.5,-154.9047 276.5,-154.9047"/>
<image xlink:href="../../images/foreignKeys.png" width="11px" height="12px" preserveAspectRatio="xMinYMin meet" x="281.5" y="-171.905"/>
<text text-anchor="start" x="296.5" y="-162.0047" font-family="Helvetica,sans-Serif" font-size="11.00" fill="#000000">contacto_id</text>
<polygon fill="none" stroke="#000000" points="276.5,-132.9047 276.5,-154.9047 399.5,-154.9047 399.5,-132.9047 276.5,-132.9047"/>
<image xlink:href="../../images/foreignKeys.png" width="11px" height="12px" preserveAspectRatio="xMinYMin meet" x="281.5" y="-149.905"/>
<text text-anchor="start" x="296.5" y="-140.0047" font-family="Helvetica,sans-Serif" font-size="11.00" fill="#000000">curso_id</text>
<polygon fill="none" stroke="#000000" points="276.5,-110.9047 276.5,-132.9047 399.5,-132.9047 399.5,-110.9047 276.5,-110.9047"/>
<image xlink:href="../../images/foreignKeys.png" width="11px" height="12px" preserveAspectRatio="xMinYMin meet" x="281.5" y="-127.905"/>
<text text-anchor="start" x="296.5" y="-118.0047" font-family="Helvetica,sans-Serif" font-size="11.00" fill="#000000">usu_asignado_id</text>
<polygon fill="none" stroke="#000000" points="276.5,-91.9047 276.5,-110.9047 399.5,-110.9047 399.5,-91.9047 276.5,-91.9047"/>
<text text-anchor="start" x="279.5" y="-98.0047" font-family="Helvetica,sans-Serif" font-size="11.00" fill="#000000">...</text>
<polygon fill="#ffffff" stroke="transparent" points="276.5,-72.9047 276.5,-91.9047 318.5,-91.9047 318.5,-72.9047 276.5,-72.9047"/>
<polygon fill="none" stroke="#000000" points="276.5,-72.9047 276.5,-91.9047 318.5,-91.9047 318.5,-72.9047 276.5,-72.9047"/>
<text text-anchor="start" x="279.5" y="-79.0047" font-family="Helvetica,sans-Serif" font-size="11.00" fill="#000000">&lt; 4</text>
<polygon fill="#ffffff" stroke="transparent" points="318.5,-72.9047 318.5,-91.9047 367.5,-91.9047 367.5,-72.9047 318.5,-72.9047"/>
<polygon fill="none" stroke="#000000" points="318.5,-72.9047 318.5,-91.9047 367.5,-91.9047 367.5,-72.9047 318.5,-72.9047"/>
<text text-anchor="start" x="332.1105" y="-79.0047" font-family="Helvetica,sans-Serif" font-size="11.00" fill="#000000">0 rows</text>
<polygon fill="#ffffff" stroke="transparent" points="367.5,-72.9047 367.5,-91.9047 399.5,-91.9047 399.5,-72.9047 367.5,-72.9047"/>
<polygon fill="none" stroke="#000000" points="367.5,-72.9047 367.5,-91.9047 399.5,-91.9047 399.5,-72.9047 367.5,-72.9047"/>
<text text-anchor="start" x="380.9053" y="-79.0047" font-family="Helvetica,sans-Serif" font-size="11.00" fill="#000000">1 &gt;</text>
</a>
</g>
</g>
<!-- oportunidades&#45;&gt;usuarios -->
<g id="edge5" class="edge">
<title>oportunidades:w&#45;&gt;usuarios:e</title>
<path fill="none" stroke="#000000" d="M261.9788,-124.1947C203.5077,-145.8571 308.1017,-313.9047 225.5,-313.9047"/>
<polygon fill="#000000" stroke="#000000" points="268.5977,-123.151 277.0608,-125.4608 272.5488,-122.5279 276.5,-121.9047 276.5,-121.9047 276.5,-121.9047 272.5488,-122.5279 275.9392,-118.3487 268.5977,-123.151 268.5977,-123.151"/>
<ellipse fill="none" stroke="#000000" cx="265.4367" cy="-123.6495" rx="3.2" ry="3.2"/>
</g>
<!-- tareas -->
<g id="node6" class="node">
<title>tareas</title>
<g id="a_node6"><a xlink:href="../../tables/tareas.html" xlink:title="tareas" target="_top">
<polygon fill="#ffffff" stroke="transparent" points="448,-143.4047 448,-292.4047 571,-292.4047 571,-143.4047 448,-143.4047"/>
<polygon fill="#f5f5f5" stroke="transparent" points="448.5,-268.9047 448.5,-291.9047 571.5,-291.9047 571.5,-268.9047 448.5,-268.9047"/>
<polygon fill="none" stroke="#000000" points="448.5,-268.9047 448.5,-291.9047 571.5,-291.9047 571.5,-268.9047 448.5,-268.9047"/>
<text text-anchor="start" x="453.5" y="-278.0047" font-family="Helvetica,sans-Serif" font-weight="bold" font-size="11.00" fill="#000000">tareas</text>
<text text-anchor="start" x="536.5437" y="-277.0047" font-family="Helvetica,sans-Serif" font-size="11.00" fill="#000000">[table]</text>
<polygon fill="none" stroke="#000000" points="448.5,-246.9047 448.5,-268.9047 571.5,-268.9047 571.5,-246.9047 448.5,-246.9047"/>
<image xlink:href="../../images/primaryKeys.png" width="11px" height="12px" preserveAspectRatio="xMinYMin meet" x="453.5" y="-263.905"/>
<text text-anchor="start" x="468.5" y="-254.0047" font-family="Helvetica,sans-Serif" font-size="11.00" fill="#000000">tarea_id</text>
<polygon fill="none" stroke="#000000" points="448.5,-224.9047 448.5,-246.9047 571.5,-246.9047 571.5,-224.9047 448.5,-224.9047"/>
<image xlink:href="../../images/foreignKeys.png" width="11px" height="12px" preserveAspectRatio="xMinYMin meet" x="453.5" y="-241.905"/>
<text text-anchor="start" x="468.5" y="-232.0047" font-family="Helvetica,sans-Serif" font-size="11.00" fill="#000000">contacto_id</text>
<polygon fill="none" stroke="#000000" points="448.5,-202.9047 448.5,-224.9047 571.5,-224.9047 571.5,-202.9047 448.5,-202.9047"/>
<image xlink:href="../../images/foreignKeys.png" width="11px" height="12px" preserveAspectRatio="xMinYMin meet" x="453.5" y="-219.905"/>
<text text-anchor="start" x="468.5" y="-210.0047" font-family="Helvetica,sans-Serif" font-size="11.00" fill="#000000">lead_id</text>
<polygon fill="none" stroke="#000000" points="448.5,-180.9047 448.5,-202.9047 571.5,-202.9047 571.5,-180.9047 448.5,-180.9047"/>
<image xlink:href="../../images/foreignKeys.png" width="11px" height="12px" preserveAspectRatio="xMinYMin meet" x="453.5" y="-197.905"/>
<text text-anchor="start" x="468.5" y="-188.0047" font-family="Helvetica,sans-Serif" font-size="11.00" fill="#000000">usu_asignado_id</text>
<polygon fill="none" stroke="#000000" points="448.5,-161.9047 448.5,-180.9047 571.5,-180.9047 571.5,-161.9047 448.5,-161.9047"/>
<text text-anchor="start" x="451.5" y="-168.0047" font-family="Helvetica,sans-Serif" font-size="11.00" fill="#000000">...</text>
<polygon fill="#ffffff" stroke="transparent" points="448.5,-142.9047 448.5,-161.9047 495.5,-161.9047 495.5,-142.9047 448.5,-142.9047"/>
<polygon fill="none" stroke="#000000" points="448.5,-142.9047 448.5,-161.9047 495.5,-161.9047 495.5,-142.9047 448.5,-142.9047"/>
<text text-anchor="start" x="451.5" y="-149.0047" font-family="Helvetica,sans-Serif" font-size="11.00" fill="#000000">&lt; 3</text>
<polygon fill="#ffffff" stroke="transparent" points="495.5,-142.9047 495.5,-161.9047 546.5,-161.9047 546.5,-142.9047 495.5,-142.9047"/>
<polygon fill="none" stroke="#000000" points="495.5,-142.9047 495.5,-161.9047 546.5,-161.9047 546.5,-142.9047 495.5,-142.9047"/>
<text text-anchor="start" x="511.1105" y="-149.0047" font-family="Helvetica,sans-Serif" font-size="11.00" fill="#000000">0 rows</text>
<polygon fill="#ffffff" stroke="transparent" points="546.5,-142.9047 546.5,-161.9047 571.5,-161.9047 571.5,-142.9047 546.5,-142.9047"/>
<polygon fill="none" stroke="#000000" points="546.5,-142.9047 546.5,-161.9047 571.5,-161.9047 571.5,-142.9047 546.5,-142.9047"/>
<text text-anchor="start" x="562.3862" y="-149.0047" font-family="Helvetica,sans-Serif" font-size="11.00" fill="#000000"> &#160;</text>
</a>
</g>
</g>
<!-- tareas&#45;&gt;leads -->
<g id="edge6" class="edge">
<title>tareas:w&#45;&gt;leads:e</title>
<path fill="none" stroke="#000000" d="M434.7862,-218.9152C386.8469,-260.7125 469.5036,-549.9047 399.5,-549.9047"/>
<polygon fill="#000000" stroke="#000000" points="440.9858,-216.6502 449.7354,-217.2861 444.7429,-215.2774 448.5,-213.9047 448.5,-213.9047 448.5,-213.9047 444.7429,-215.2774 447.2646,-210.5233 440.9858,-216.6502 440.9858,-216.6502"/>
<ellipse fill="none" stroke="#000000" cx="437.9802" cy="-217.7483" rx="3.2" ry="3.2"/>
</g>
<!-- tareas&#45;&gt;usuarios -->
<g id="edge7" class="edge">
<title>tareas:w&#45;&gt;usuarios:e</title>
<path fill="none" stroke="#000000" d="M434.2798,-189.37C400.33,-174.1911 450.92,-94.9122 407,-62.9047 357.0736,-26.52 315.1892,-23.034 268,-62.9047 224.7875,-99.4155 282.0717,-313.9047 225.5,-313.9047"/>
<polygon fill="#000000" stroke="#000000" points="440.6241,-190.5008 447.8682,-195.4489 444.5621,-191.2028 448.5,-191.9047 448.5,-191.9047 448.5,-191.9047 444.5621,-191.2028 449.1318,-188.3606 440.6241,-190.5008 440.6241,-190.5008"/>
<ellipse fill="none" stroke="#000000" cx="437.4738" cy="-189.9393" rx="3.2" ry="3.2"/>
</g>
</g>
</svg>
