<?xml version="1.0" encoding="UTF-8" standalone="no"?>
<!DOCTYPE svg PUBLIC "-//W3C//DTD SVG 1.1//EN"
 "http://www.w3.org/Graphics/SVG/1.1/DTD/svg11.dtd">
<!-- Generated by graphviz version 2.40.1 (20161225.0304)
 -->
<!-- Title: twoDegreesRelationshipsDiagramImplied Pages: 1 -->
<svg width="415pt" height="541pt"
 viewBox="0.00 0.00 415.00 541.20" xmlns="http://www.w3.org/2000/svg" xmlns:xlink="http://www.w3.org/1999/xlink">
<g id="graph0" class="graph" transform="scale(1 1) rotate(0) translate(4 537.2)">
<title>twoDegreesRelationshipsDiagramImplied</title>
<polygon fill="#ffffff" stroke="transparent" points="-4,4 -4,-537.2 411,-537.2 411,4 -4,4"/>
<text text-anchor="middle" x="72.4936" y="-7.3" font-family="Helvetica,sans-Serif" font-size="11.00" fill="#000000">Generated by SchemaSpy</text>
<!-- empleados -->
<g id="node1" class="node">
<title>empleados</title>
<g id="a_node1"><a xlink:href="../../tables/empleados.html" xlink:title="empleados" target="_top">
<polygon fill="#ffffff" stroke="transparent" points="276,-393.2 276,-520.2 399,-520.2 399,-393.2 276,-393.2"/>
<polygon fill="#f5f5f5" stroke="transparent" points="276.5,-496.7 276.5,-519.7 399.5,-519.7 399.5,-496.7 276.5,-496.7"/>
<polygon fill="none" stroke="#000000" points="276.5,-496.7 276.5,-519.7 399.5,-519.7 399.5,-496.7 276.5,-496.7"/>
<text text-anchor="start" x="281.5" y="-505.8" font-family="Helvetica,sans-Serif" font-weight="bold" font-size="11.00" fill="#000000">empleados</text>
<text text-anchor="start" x="364.5437" y="-504.8" font-family="Helvetica,sans-Serif" font-size="11.00" fill="#000000">[table]</text>
<polygon fill="none" stroke="#000000" points="276.5,-474.7 276.5,-496.7 399.5,-496.7 399.5,-474.7 276.5,-474.7"/>
<image xlink:href="../../images/primaryKeys.png" width="11px" height="12px" preserveAspectRatio="xMinYMin meet" x="281.5" y="-491.7"/>
<text text-anchor="start" x="296.5" y="-481.8" font-family="Helvetica,sans-Serif" font-size="11.00" fill="#000000">empleado_id</text>
<polygon fill="none" stroke="#000000" points="276.5,-452.7 276.5,-474.7 399.5,-474.7 399.5,-452.7 276.5,-452.7"/>
<image xlink:href="../../images/foreignKeys.png" width="11px" height="12px" preserveAspectRatio="xMinYMin meet" x="281.5" y="-469.7"/>
<text text-anchor="start" x="296.5" y="-459.8" font-family="Helvetica,sans-Serif" font-size="11.00" fill="#000000">persona_id</text>
<polygon fill="none" stroke="#000000" points="276.5,-430.7 276.5,-452.7 399.5,-452.7 399.5,-430.7 276.5,-430.7"/>
<image xlink:href="../../images/foreignKeys.png" width="11px" height="12px" preserveAspectRatio="xMinYMin meet" x="281.5" y="-447.7"/>
<text text-anchor="start" x="296.5" y="-437.8" font-family="Helvetica,sans-Serif" font-size="11.00" fill="#000000">usuario_id</text>
<polygon fill="none" stroke="#000000" points="276.5,-411.7 276.5,-430.7 399.5,-430.7 399.5,-411.7 276.5,-411.7"/>
<text text-anchor="start" x="279.5" y="-417.8" font-family="Helvetica,sans-Serif" font-size="11.00" fill="#000000">...</text>
<polygon fill="#ffffff" stroke="transparent" points="276.5,-392.7 276.5,-411.7 323.5,-411.7 323.5,-392.7 276.5,-392.7"/>
<polygon fill="none" stroke="#000000" points="276.5,-392.7 276.5,-411.7 323.5,-411.7 323.5,-392.7 276.5,-392.7"/>
<text text-anchor="start" x="279.5" y="-398.8" font-family="Helvetica,sans-Serif" font-size="11.00" fill="#000000">&lt; 2</text>
<polygon fill="#ffffff" stroke="transparent" points="323.5,-392.7 323.5,-411.7 374.5,-411.7 374.5,-392.7 323.5,-392.7"/>
<polygon fill="none" stroke="#000000" points="323.5,-392.7 323.5,-411.7 374.5,-411.7 374.5,-392.7 323.5,-392.7"/>
<text text-anchor="start" x="339.1105" y="-398.8" font-family="Helvetica,sans-Serif" font-size="11.00" fill="#000000">0 rows</text>
<polygon fill="#ffffff" stroke="transparent" points="374.5,-392.7 374.5,-411.7 399.5,-411.7 399.5,-392.7 374.5,-392.7"/>
<polygon fill="none" stroke="#000000" points="374.5,-392.7 374.5,-411.7 399.5,-411.7 399.5,-392.7 374.5,-392.7"/>
<text text-anchor="start" x="390.3862" y="-398.8" font-family="Helvetica,sans-Serif" font-size="11.00" fill="#000000"> &#160;</text>
</a>
</g>
</g>
<!-- personas -->
<g id="node2" class="node">
<title>personas</title>
<g id="a_node2"><a xlink:href="../../tables/personas.html" xlink:title="personas" target="_top">
<polygon fill="#ffffff" stroke="transparent" points="73.5,-468.2 73.5,-529.2 161.5,-529.2 161.5,-468.2 73.5,-468.2"/>
<polygon fill="#f5f5f5" stroke="transparent" points="73.5,-505.7 73.5,-528.7 161.5,-528.7 161.5,-505.7 73.5,-505.7"/>
<polygon fill="none" stroke="#000000" points="73.5,-505.7 73.5,-528.7 161.5,-528.7 161.5,-505.7 73.5,-505.7"/>
<text text-anchor="start" x="78.3818" y="-514.8" font-family="Helvetica,sans-Serif" font-weight="bold" font-size="11.00" fill="#000000">personas</text>
<text text-anchor="start" x="127.0219" y="-513.8" font-family="Helvetica,sans-Serif" font-size="11.00" fill="#000000">[table]</text>
<polygon fill="none" stroke="#000000" points="73.5,-486.7 73.5,-505.7 161.5,-505.7 161.5,-486.7 73.5,-486.7"/>
<text text-anchor="start" x="76.5" y="-492.8" font-family="Helvetica,sans-Serif" font-size="11.00" fill="#000000">...</text>
<polygon fill="#ffffff" stroke="transparent" points="73.5,-467.7 73.5,-486.7 90.5,-486.7 90.5,-467.7 73.5,-467.7"/>
<polygon fill="none" stroke="#000000" points="73.5,-467.7 73.5,-486.7 90.5,-486.7 90.5,-467.7 73.5,-467.7"/>
<text text-anchor="start" x="76.5" y="-473.8" font-family="Helvetica,sans-Serif" font-size="11.00" fill="#000000"> &#160;</text>
<polygon fill="#ffffff" stroke="transparent" points="90.5,-467.7 90.5,-486.7 137.5,-486.7 137.5,-467.7 90.5,-467.7"/>
<polygon fill="none" stroke="#000000" points="90.5,-467.7 90.5,-486.7 137.5,-486.7 137.5,-467.7 90.5,-467.7"/>
<text text-anchor="start" x="95.9956" y="-473.8" font-family="Helvetica,sans-Serif" font-size="11.00" fill="#000000">22 rows</text>
<polygon fill="#ffffff" stroke="transparent" points="137.5,-467.7 137.5,-486.7 161.5,-486.7 161.5,-467.7 137.5,-467.7"/>
<polygon fill="none" stroke="#000000" points="137.5,-467.7 137.5,-486.7 161.5,-486.7 161.5,-467.7 137.5,-467.7"/>
<text text-anchor="start" x="142.9053" y="-473.8" font-family="Helvetica,sans-Serif" font-size="11.00" fill="#000000">2 &gt;</text>
</a>
</g>
</g>
<!-- empleados&#45;&gt;personas -->
<g id="edge1" class="edge">
<title>empleados:w&#45;&gt;personas:e</title>
<path fill="none" stroke="#000000" d="M261.8734,-464.5893C221.237,-469.7575 209.2684,-495.7 161.5,-495.7"/>
<polygon fill="#000000" stroke="#000000" points="268.5147,-464.1855 276.7185,-467.2934 272.5074,-463.9428 276.5,-463.7 276.5,-463.7 276.5,-463.7 272.5074,-463.9428 276.2815,-460.1066 268.5147,-464.1855 268.5147,-464.1855"/>
<ellipse fill="none" stroke="#000000" cx="265.3206" cy="-464.3798" rx="3.2" ry="3.2"/>
</g>
<!-- usuarios -->
<g id="node3" class="node">
<title>usuarios</title>
<g id="a_node3"><a xlink:href="../../tables/usuarios.html" xlink:title="usuarios" target="_top">
<polygon fill="#ffffff" stroke="transparent" points="8,-202.7 8,-446.7 227,-446.7 227,-202.7 8,-202.7"/>
<polygon fill="#f5f5f5" stroke="transparent" points="10.5,-421.7 10.5,-444.7 225.5,-444.7 225.5,-421.7 10.5,-421.7"/>
<polygon fill="none" stroke="#000000" points="10.5,-421.7 10.5,-444.7 225.5,-444.7 225.5,-421.7 10.5,-421.7"/>
<text text-anchor="start" x="15.5" y="-430.8" font-family="Helvetica,sans-Serif" font-weight="bold" font-size="11.00" fill="#000000">usuarios</text>
<text text-anchor="start" x="190.5437" y="-429.8" font-family="Helvetica,sans-Serif" font-size="11.00" fill="#000000">[table]</text>
<polygon fill="none" stroke="#000000" points="10.5,-399.7 10.5,-421.7 133.5,-421.7 133.5,-399.7 10.5,-399.7"/>
<image xlink:href="../../images/primaryKeys.png" width="11px" height="12px" preserveAspectRatio="xMinYMin meet" x="15.5" y="-416.7"/>
<text text-anchor="start" x="30.5" y="-406.8" font-family="Helvetica,sans-Serif" font-size="11.00" fill="#000000">usuario_id</text>
<polygon fill="none" stroke="#000000" points="133.5,-399.7 133.5,-421.7 225.5,-421.7 225.5,-399.7 133.5,-399.7"/>
<text text-anchor="start" x="136.5" y="-407.4" font-family="Helvetica,sans-Serif" font-size="11.00" fill="#000000">serial[10]</text>
<polygon fill="#ffffff" stroke="transparent" points="10.5,-377.7 10.5,-399.7 133.5,-399.7 133.5,-377.7 10.5,-377.7"/>
<polygon fill="none" stroke="#000000" points="10.5,-377.7 10.5,-399.7 133.5,-399.7 133.5,-377.7 10.5,-377.7"/>
<text text-anchor="start" x="30.5" y="-384.8" font-family="Helvetica,sans-Serif" font-size="11.00" fill="#000000">nom_usuario</text>
<polygon fill="none" stroke="#000000" points="133.5,-377.7 133.5,-399.7 225.5,-399.7 225.5,-377.7 133.5,-377.7"/>
<text text-anchor="start" x="136.5" y="-385.4" font-family="Helvetica,sans-Serif" font-size="11.00" fill="#000000">varchar[20]</text>
<polygon fill="none" stroke="#000000" points="10.5,-355.7 10.5,-377.7 133.5,-377.7 133.5,-355.7 10.5,-355.7"/>
<text text-anchor="start" x="30.5" y="-362.8" font-family="Helvetica,sans-Serif" font-size="11.00" fill="#000000">activo</text>
<polygon fill="none" stroke="#000000" points="133.5,-355.7 133.5,-377.7 225.5,-377.7 225.5,-355.7 133.5,-355.7"/>
<text text-anchor="start" x="136.5" y="-363.4" font-family="Helvetica,sans-Serif" font-size="11.00" fill="#000000">bool[1]</text>
<polygon fill="none" stroke="#000000" points="10.5,-333.7 10.5,-355.7 133.5,-355.7 133.5,-333.7 10.5,-333.7"/>
<text text-anchor="start" x="30.5" y="-340.8" font-family="Helvetica,sans-Serif" font-size="11.00" fill="#000000">password</text>
<polygon fill="none" stroke="#000000" points="133.5,-333.7 133.5,-355.7 225.5,-355.7 225.5,-333.7 133.5,-333.7"/>
<text text-anchor="start" x="136.5" y="-341.4" font-family="Helvetica,sans-Serif" font-size="11.00" fill="#000000">varchar[255]</text>
<polygon fill="none" stroke="#000000" points="10.5,-311.7 10.5,-333.7 133.5,-333.7 133.5,-311.7 10.5,-311.7"/>
<text text-anchor="start" x="30.5" y="-318.8" font-family="Helvetica,sans-Serif" font-size="11.00" fill="#000000">email</text>
<polygon fill="none" stroke="#000000" points="133.5,-311.7 133.5,-333.7 225.5,-333.7 225.5,-311.7 133.5,-311.7"/>
<text text-anchor="start" x="136.5" y="-319.4" font-family="Helvetica,sans-Serif" font-size="11.00" fill="#000000">varchar[60]</text>
<polygon fill="none" stroke="#000000" points="10.5,-289.7 10.5,-311.7 133.5,-311.7 133.5,-289.7 10.5,-289.7"/>
<text text-anchor="start" x="30.5" y="-296.8" font-family="Helvetica,sans-Serif" font-size="11.00" fill="#000000">usu_insercion</text>
<polygon fill="none" stroke="#000000" points="133.5,-289.7 133.5,-311.7 225.5,-311.7 225.5,-289.7 133.5,-289.7"/>
<text text-anchor="start" x="136.5" y="-297.4" font-family="Helvetica,sans-Serif" font-size="11.00" fill="#000000">varchar[20]</text>
<polygon fill="none" stroke="#000000" points="10.5,-267.7 10.5,-289.7 133.5,-289.7 133.5,-267.7 10.5,-267.7"/>
<text text-anchor="start" x="30.5" y="-274.8" font-family="Helvetica,sans-Serif" font-size="11.00" fill="#000000">fec_insercion</text>
<polygon fill="none" stroke="#000000" points="133.5,-267.7 133.5,-289.7 225.5,-289.7 225.5,-267.7 133.5,-267.7"/>
<text text-anchor="start" x="136.1023" y="-275.4" font-family="Helvetica,sans-Serif" font-size="11.00" fill="#000000">timestamptz[35,6]</text>
<polygon fill="none" stroke="#000000" points="10.5,-245.7 10.5,-267.7 133.5,-267.7 133.5,-245.7 10.5,-245.7"/>
<text text-anchor="start" x="30.5" y="-252.8" font-family="Helvetica,sans-Serif" font-size="11.00" fill="#000000">fec_modificacion</text>
<polygon fill="none" stroke="#000000" points="133.5,-245.7 133.5,-267.7 225.5,-267.7 225.5,-245.7 133.5,-245.7"/>
<text text-anchor="start" x="136.1023" y="-253.4" font-family="Helvetica,sans-Serif" font-size="11.00" fill="#000000">timestamptz[35,6]</text>
<polygon fill="none" stroke="#000000" points="10.5,-223.7 10.5,-245.7 133.5,-245.7 133.5,-223.7 10.5,-223.7"/>
<text text-anchor="start" x="30.5" y="-230.8" font-family="Helvetica,sans-Serif" font-size="11.00" fill="#000000">usu_modificacion</text>
<polygon fill="none" stroke="#000000" points="133.5,-223.7 133.5,-245.7 225.5,-245.7 225.5,-223.7 133.5,-223.7"/>
<text text-anchor="start" x="136.5" y="-231.4" font-family="Helvetica,sans-Serif" font-size="11.00" fill="#000000">varchar[20]</text>
<polygon fill="#ffffff" stroke="transparent" points="10.5,-204.7 10.5,-223.7 63.5,-223.7 63.5,-204.7 10.5,-204.7"/>
<polygon fill="none" stroke="#000000" points="10.5,-204.7 10.5,-223.7 63.5,-223.7 63.5,-204.7 10.5,-204.7"/>
<text text-anchor="start" x="13.5" y="-210.8" font-family="Helvetica,sans-Serif" font-size="11.00" fill="#000000">&lt; 0</text>
<polygon fill="#ffffff" stroke="transparent" points="63.5,-204.7 63.5,-223.7 133.5,-223.7 133.5,-204.7 63.5,-204.7"/>
<polygon fill="none" stroke="#000000" points="63.5,-204.7 63.5,-223.7 133.5,-223.7 133.5,-204.7 63.5,-204.7"/>
<text text-anchor="start" x="98.1105" y="-210.8" font-family="Helvetica,sans-Serif" font-size="11.00" fill="#000000">2 rows</text>
<polygon fill="#ffffff" stroke="transparent" points="133.5,-204.7 133.5,-223.7 225.5,-223.7 225.5,-204.7 133.5,-204.7"/>
<polygon fill="none" stroke="#000000" points="133.5,-204.7 133.5,-223.7 225.5,-223.7 225.5,-204.7 133.5,-204.7"/>
<text text-anchor="start" x="206.9053" y="-210.8" font-family="Helvetica,sans-Serif" font-size="11.00" fill="#000000">2 &gt;</text>
<polygon fill="none" stroke="#000000" stroke-width="2" points="9,-203.7 9,-445.7 226,-445.7 226,-203.7 9,-203.7"/>
</a>
</g>
</g>
<!-- empleados&#45;&gt;usuarios -->
<g id="edge2" class="edge">
<title>empleados:w&#45;&gt;usuarios:e</title>
<path fill="none" stroke="#000000" d="M262.5967,-437.8988C249.5044,-429.6209 246.2231,-410.7 225.5,-410.7"/>
<polygon fill="#000000" stroke="#000000" points="268.7832,-439.5902 275.5506,-445.1726 272.6416,-440.6451 276.5,-441.7 276.5,-441.7 276.5,-441.7 272.6416,-440.6451 277.4494,-438.2274 268.7832,-439.5902 268.7832,-439.5902"/>
<ellipse fill="none" stroke="#000000" cx="265.6965" cy="-438.7462" rx="3.2" ry="3.2"/>
</g>
<!-- leads -->
<g id="node4" class="node">
<title>leads</title>
<g id="a_node4"><a xlink:href="../../tables/leads.html" xlink:title="leads" target="_top">
<polygon fill="#ffffff" stroke="transparent" points="276,-128.2 276,-299.2 399,-299.2 399,-128.2 276,-128.2"/>
<polygon fill="#f5f5f5" stroke="transparent" points="276.5,-275.7 276.5,-298.7 399.5,-298.7 399.5,-275.7 276.5,-275.7"/>
<polygon fill="none" stroke="#000000" points="276.5,-275.7 276.5,-298.7 399.5,-298.7 399.5,-275.7 276.5,-275.7"/>
<text text-anchor="start" x="281.5" y="-284.8" font-family="Helvetica,sans-Serif" font-weight="bold" font-size="11.00" fill="#000000">leads</text>
<text text-anchor="start" x="364.5437" y="-283.8" font-family="Helvetica,sans-Serif" font-size="11.00" fill="#000000">[table]</text>
<polygon fill="none" stroke="#000000" points="276.5,-253.7 276.5,-275.7 399.5,-275.7 399.5,-253.7 276.5,-253.7"/>
<image xlink:href="../../images/primaryKeys.png" width="11px" height="12px" preserveAspectRatio="xMinYMin meet" x="281.5" y="-270.7"/>
<text text-anchor="start" x="296.5" y="-260.8" font-family="Helvetica,sans-Serif" font-size="11.00" fill="#000000">lead_id</text>
<polygon fill="none" stroke="#000000" points="276.5,-231.7 276.5,-253.7 399.5,-253.7 399.5,-231.7 276.5,-231.7"/>
<image xlink:href="../../images/foreignKeys.png" width="11px" height="12px" preserveAspectRatio="xMinYMin meet" x="281.5" y="-248.7"/>
<text text-anchor="start" x="296.5" y="-238.8" font-family="Helvetica,sans-Serif" font-size="11.00" fill="#000000">usu_asignado_id</text>
<polygon fill="none" stroke="#000000" points="276.5,-209.7 276.5,-231.7 399.5,-231.7 399.5,-209.7 276.5,-209.7"/>
<image xlink:href="../../images/foreignKeys.png" width="11px" height="12px" preserveAspectRatio="xMinYMin meet" x="281.5" y="-226.7"/>
<text text-anchor="start" x="296.5" y="-216.8" font-family="Helvetica,sans-Serif" font-size="11.00" fill="#000000">campana_id</text>
<polygon fill="none" stroke="#000000" points="276.5,-187.7 276.5,-209.7 399.5,-209.7 399.5,-187.7 276.5,-187.7"/>
<image xlink:href="../../images/foreignKeys.png" width="11px" height="12px" preserveAspectRatio="xMinYMin meet" x="281.5" y="-204.7"/>
<text text-anchor="start" x="296.5" y="-194.8" font-family="Helvetica,sans-Serif" font-size="11.00" fill="#000000">persona_id</text>
<polygon fill="none" stroke="#000000" points="276.5,-165.7 276.5,-187.7 399.5,-187.7 399.5,-165.7 276.5,-165.7"/>
<image xlink:href="../../images/foreignKeys.png" width="11px" height="12px" preserveAspectRatio="xMinYMin meet" x="281.5" y="-182.7"/>
<text text-anchor="start" x="296.5" y="-172.8" font-family="Helvetica,sans-Serif" font-size="11.00" fill="#000000">curso_id</text>
<polygon fill="none" stroke="#000000" points="276.5,-146.7 276.5,-165.7 399.5,-165.7 399.5,-146.7 276.5,-146.7"/>
<text text-anchor="start" x="279.5" y="-152.8" font-family="Helvetica,sans-Serif" font-size="11.00" fill="#000000">...</text>
<polygon fill="#ffffff" stroke="transparent" points="276.5,-127.7 276.5,-146.7 323.5,-146.7 323.5,-127.7 276.5,-127.7"/>
<polygon fill="none" stroke="#000000" points="276.5,-127.7 276.5,-146.7 323.5,-146.7 323.5,-127.7 276.5,-127.7"/>
<text text-anchor="start" x="279.5" y="-133.8" font-family="Helvetica,sans-Serif" font-size="11.00" fill="#000000">&lt; 4</text>
<polygon fill="#ffffff" stroke="transparent" points="323.5,-127.7 323.5,-146.7 374.5,-146.7 374.5,-127.7 323.5,-127.7"/>
<polygon fill="none" stroke="#000000" points="323.5,-127.7 323.5,-146.7 374.5,-146.7 374.5,-127.7 323.5,-127.7"/>
<text text-anchor="start" x="339.1105" y="-133.8" font-family="Helvetica,sans-Serif" font-size="11.00" fill="#000000">0 rows</text>
<polygon fill="#ffffff" stroke="transparent" points="374.5,-127.7 374.5,-146.7 399.5,-146.7 399.5,-127.7 374.5,-127.7"/>
<polygon fill="none" stroke="#000000" points="374.5,-127.7 374.5,-146.7 399.5,-146.7 399.5,-127.7 374.5,-127.7"/>
<text text-anchor="start" x="390.3862" y="-133.8" font-family="Helvetica,sans-Serif" font-size="11.00" fill="#000000"> &#160;</text>
</a>
</g>
</g>
<!-- leads&#45;&gt;personas -->
<g id="edge5" class="edge">
<title>leads:w&#45;&gt;personas:e</title>
<path fill="none" stroke="#000000" d="M262.8263,-203.9738C227.0161,-236.9611 265.9617,-414.8998 235,-457.7 213.446,-487.4955 198.2743,-495.7 161.5,-495.7"/>
<polygon fill="#000000" stroke="#000000" points="269.0359,-201.5788 277.7955,-202.0588 272.768,-200.1394 276.5,-198.7 276.5,-198.7 276.5,-198.7 272.768,-200.1394 275.2045,-195.3412 269.0359,-201.5788 269.0359,-201.5788"/>
<ellipse fill="none" stroke="#000000" cx="266.0503" cy="-202.7304" rx="3.2" ry="3.2"/>
</g>
<!-- leads&#45;&gt;usuarios -->
<g id="edge6" class="edge">
<title>leads:w&#45;&gt;usuarios:e</title>
<path fill="none" stroke="#000000" d="M262.3134,-245.2052C212.6973,-266.1039 297.8923,-410.7 225.5,-410.7"/>
<polygon fill="#000000" stroke="#000000" points="268.6219,-244.0913 277.1261,-246.2451 272.5609,-243.3956 276.5,-242.7 276.5,-242.7 276.5,-242.7 272.5609,-243.3956 275.8739,-239.1549 268.6219,-244.0913 268.6219,-244.0913"/>
<ellipse fill="none" stroke="#000000" cx="265.4707" cy="-244.6478" rx="3.2" ry="3.2"/>
</g>
<!-- campanas -->
<g id="node5" class="node">
<title>campanas</title>
<g id="a_node5"><a xlink:href="../../tables/campanas.html" xlink:title="campanas" target="_top">
<polygon fill="#ffffff" stroke="transparent" points="71,-120.2 71,-181.2 164,-181.2 164,-120.2 71,-120.2"/>
<polygon fill="#f5f5f5" stroke="transparent" points="71.5,-157.7 71.5,-180.7 164.5,-180.7 164.5,-157.7 71.5,-157.7"/>
<polygon fill="none" stroke="#000000" points="71.5,-157.7 71.5,-180.7 164.5,-180.7 164.5,-157.7 71.5,-157.7"/>
<text text-anchor="start" x="76.1318" y="-166.8" font-family="Helvetica,sans-Serif" font-weight="bold" font-size="11.00" fill="#000000">campanas</text>
<text text-anchor="start" x="130.0219" y="-165.8" font-family="Helvetica,sans-Serif" font-size="11.00" fill="#000000">[table]</text>
<polygon fill="none" stroke="#000000" points="71.5,-138.7 71.5,-157.7 164.5,-157.7 164.5,-138.7 71.5,-138.7"/>
<text text-anchor="start" x="74.5" y="-144.8" font-family="Helvetica,sans-Serif" font-size="11.00" fill="#000000">...</text>
<polygon fill="#ffffff" stroke="transparent" points="71.5,-119.7 71.5,-138.7 94.5,-138.7 94.5,-119.7 71.5,-119.7"/>
<polygon fill="none" stroke="#000000" points="71.5,-119.7 71.5,-138.7 94.5,-138.7 94.5,-119.7 71.5,-119.7"/>
<text text-anchor="start" x="74.5" y="-125.8" font-family="Helvetica,sans-Serif" font-size="11.00" fill="#000000"> &#160;</text>
<polygon fill="#ffffff" stroke="transparent" points="94.5,-119.7 94.5,-138.7 137.5,-138.7 137.5,-119.7 94.5,-119.7"/>
<polygon fill="none" stroke="#000000" points="94.5,-119.7 94.5,-138.7 137.5,-138.7 137.5,-119.7 94.5,-119.7"/>
<text text-anchor="start" x="102.1105" y="-125.8" font-family="Helvetica,sans-Serif" font-size="11.00" fill="#000000">4 rows</text>
<polygon fill="#ffffff" stroke="transparent" points="137.5,-119.7 137.5,-138.7 164.5,-138.7 164.5,-119.7 137.5,-119.7"/>
<polygon fill="none" stroke="#000000" points="137.5,-119.7 137.5,-138.7 164.5,-138.7 164.5,-119.7 137.5,-119.7"/>
<text text-anchor="start" x="145.9053" y="-125.8" font-family="Helvetica,sans-Serif" font-size="11.00" fill="#000000">3 &gt;</text>
</a>
</g>
</g>
<!-- leads&#45;&gt;campanas -->
<g id="edge3" class="edge">
<title>leads:w&#45;&gt;campanas:e</title>
<path fill="none" stroke="#000000" stroke-dasharray="5,2" d="M262.2846,-217.5541C252.5529,-212.3321 248.515,-201.5705 235,-192.7 203.9236,-172.3031 201.6723,-147.7 164.5,-147.7"/>
<polygon fill="#000000" stroke="#000000" points="268.689,-218.9713 275.7221,-224.215 272.5945,-219.8357 276.5,-220.7 276.5,-220.7 276.5,-220.7 272.5945,-219.8357 277.2779,-217.185 268.689,-218.9713 268.689,-218.9713"/>
<ellipse fill="none" stroke="#000000" cx="265.5646" cy="-218.2799" rx="3.2" ry="3.2"/>
</g>
<!-- cursos -->
<g id="node6" class="node">
<title>cursos</title>
<g id="a_node6"><a xlink:href="../../tables/cursos.html" xlink:title="cursos" target="_top">
<polygon fill="#ffffff" stroke="transparent" points="80,-38.2 80,-99.2 155,-99.2 155,-38.2 80,-38.2"/>
<polygon fill="#f5f5f5" stroke="transparent" points="80.5,-75.7 80.5,-98.7 155.5,-98.7 155.5,-75.7 80.5,-75.7"/>
<polygon fill="none" stroke="#000000" points="80.5,-75.7 80.5,-98.7 155.5,-98.7 155.5,-75.7 80.5,-75.7"/>
<text text-anchor="start" x="85.3042" y="-84.8" font-family="Helvetica,sans-Serif" font-weight="bold" font-size="11.00" fill="#000000">cursos</text>
<text text-anchor="start" x="121.0219" y="-83.8" font-family="Helvetica,sans-Serif" font-size="11.00" fill="#000000">[table]</text>
<polygon fill="none" stroke="#000000" points="80.5,-56.7 80.5,-75.7 155.5,-75.7 155.5,-56.7 80.5,-56.7"/>
<text text-anchor="start" x="83.5" y="-62.8" font-family="Helvetica,sans-Serif" font-size="11.00" fill="#000000">...</text>
<polygon fill="#ffffff" stroke="transparent" points="80.5,-37.7 80.5,-56.7 94.5,-56.7 94.5,-37.7 80.5,-37.7"/>
<polygon fill="none" stroke="#000000" points="80.5,-37.7 80.5,-56.7 94.5,-56.7 94.5,-37.7 80.5,-37.7"/>
<text text-anchor="start" x="83.5" y="-43.8" font-family="Helvetica,sans-Serif" font-size="11.00" fill="#000000"> &#160;</text>
<polygon fill="#ffffff" stroke="transparent" points="94.5,-37.7 94.5,-56.7 133.5,-56.7 133.5,-37.7 94.5,-37.7"/>
<polygon fill="none" stroke="#000000" points="94.5,-37.7 94.5,-56.7 133.5,-56.7 133.5,-37.7 94.5,-37.7"/>
<text text-anchor="start" x="98.1105" y="-43.8" font-family="Helvetica,sans-Serif" font-size="11.00" fill="#000000">0 rows</text>
<polygon fill="#ffffff" stroke="transparent" points="133.5,-37.7 133.5,-56.7 155.5,-56.7 155.5,-37.7 133.5,-37.7"/>
<polygon fill="none" stroke="#000000" points="133.5,-37.7 133.5,-56.7 155.5,-56.7 155.5,-37.7 133.5,-37.7"/>
<text text-anchor="start" x="136.9053" y="-43.8" font-family="Helvetica,sans-Serif" font-size="11.00" fill="#000000">1 &gt;</text>
</a>
</g>
</g>
<!-- leads&#45;&gt;cursos -->
<g id="edge4" class="edge">
<title>leads:w&#45;&gt;cursos:e</title>
<path fill="none" stroke="#000000" stroke-dasharray="5,2" d="M262.2716,-172.9068C246.8341,-161.9054 255.8099,-129.513 235,-109.7 205.7523,-81.8534 195.884,-65.7 155.5,-65.7"/>
<polygon fill="#000000" stroke="#000000" points="268.77,-174.6392 275.5726,-180.1785 272.635,-175.6696 276.5,-176.7 276.5,-176.7 276.5,-176.7 272.635,-175.6696 277.4274,-173.2215 268.77,-174.6392 268.77,-174.6392"/>
<ellipse fill="none" stroke="#000000" cx="265.678" cy="-173.8148" rx="3.2" ry="3.2"/>
</g>
</g>
</svg>
