<?xml version="1.0" encoding="UTF-8" standalone="no"?>
<!DOCTYPE svg PUBLIC "-//W3C//DTD SVG 1.1//EN"
 "http://www.w3.org/Graphics/SVG/1.1/DTD/svg11.dtd">
<!-- Generated by graphviz version 2.40.1 (20161225.0304)
 -->
<!-- Title: oneDegreeRelationshipsDiagram Pages: 1 -->
<svg width="415pt" height="813pt"
 viewBox="0.00 0.00 415.00 813.20" xmlns="http://www.w3.org/2000/svg" xmlns:xlink="http://www.w3.org/1999/xlink">
<g id="graph0" class="graph" transform="scale(1 1) rotate(0) translate(4 809.2)">
<title>oneDegreeRelationshipsDiagram</title>
<polygon fill="#ffffff" stroke="transparent" points="-4,4 -4,-809.2 411,-809.2 411,4 -4,4"/>
<text text-anchor="middle" x="72.4936" y="-7.3" font-family="Helvetica,sans-Serif" font-size="11.00" fill="#000000">Generated by SchemaSpy</text>
<!-- casos -->
<g id="node1" class="node">
<title>casos</title>
<g id="a_node1"><a xlink:href="../../tables/casos.html" xlink:title="casos" target="_top">
<polygon fill="#ffffff" stroke="transparent" points="276,-696.2 276,-801.2 399,-801.2 399,-696.2 276,-696.2"/>
<polygon fill="#f5f5f5" stroke="transparent" points="276.5,-777.7 276.5,-800.7 399.5,-800.7 399.5,-777.7 276.5,-777.7"/>
<polygon fill="none" stroke="#000000" points="276.5,-777.7 276.5,-800.7 399.5,-800.7 399.5,-777.7 276.5,-777.7"/>
<text text-anchor="start" x="281.5" y="-786.8" font-family="Helvetica,sans-Serif" font-weight="bold" font-size="11.00" fill="#000000">casos</text>
<text text-anchor="start" x="364.5437" y="-785.8" font-family="Helvetica,sans-Serif" font-size="11.00" fill="#000000">[table]</text>
<polygon fill="none" stroke="#000000" points="276.5,-755.7 276.5,-777.7 399.5,-777.7 399.5,-755.7 276.5,-755.7"/>
<image xlink:href="../../images/primaryKeys.png" width="11px" height="12px" preserveAspectRatio="xMinYMin meet" x="281.5" y="-772.7"/>
<text text-anchor="start" x="296.5" y="-762.8" font-family="Helvetica,sans-Serif" font-size="11.00" fill="#000000">caso_id</text>
<polygon fill="none" stroke="#000000" points="276.5,-733.7 276.5,-755.7 399.5,-755.7 399.5,-733.7 276.5,-733.7"/>
<image xlink:href="../../images/foreignKeys.png" width="11px" height="12px" preserveAspectRatio="xMinYMin meet" x="281.5" y="-750.7"/>
<text text-anchor="start" x="296.5" y="-740.8" font-family="Helvetica,sans-Serif" font-size="11.00" fill="#000000">usu_asignado_id</text>
<polygon fill="none" stroke="#000000" points="276.5,-714.7 276.5,-733.7 399.5,-733.7 399.5,-714.7 276.5,-714.7"/>
<text text-anchor="start" x="279.5" y="-720.8" font-family="Helvetica,sans-Serif" font-size="11.00" fill="#000000">...</text>
<polygon fill="#ffffff" stroke="transparent" points="276.5,-695.7 276.5,-714.7 323.5,-714.7 323.5,-695.7 276.5,-695.7"/>
<polygon fill="none" stroke="#000000" points="276.5,-695.7 276.5,-714.7 323.5,-714.7 323.5,-695.7 276.5,-695.7"/>
<text text-anchor="start" x="279.5" y="-701.8" font-family="Helvetica,sans-Serif" font-size="11.00" fill="#000000">&lt; 1</text>
<polygon fill="#ffffff" stroke="transparent" points="323.5,-695.7 323.5,-714.7 374.5,-714.7 374.5,-695.7 323.5,-695.7"/>
<polygon fill="none" stroke="#000000" points="323.5,-695.7 323.5,-714.7 374.5,-714.7 374.5,-695.7 323.5,-695.7"/>
<text text-anchor="start" x="339.1105" y="-701.8" font-family="Helvetica,sans-Serif" font-size="11.00" fill="#000000">0 rows</text>
<polygon fill="#ffffff" stroke="transparent" points="374.5,-695.7 374.5,-714.7 399.5,-714.7 399.5,-695.7 374.5,-695.7"/>
<polygon fill="none" stroke="#000000" points="374.5,-695.7 374.5,-714.7 399.5,-714.7 399.5,-695.7 374.5,-695.7"/>
<text text-anchor="start" x="390.3862" y="-701.8" font-family="Helvetica,sans-Serif" font-size="11.00" fill="#000000"> &#160;</text>
</a>
</g>
</g>
<!-- usuarios -->
<g id="node2" class="node">
<title>usuarios</title>
<g id="a_node2"><a xlink:href="../../tables/usuarios.html" xlink:title="usuarios" target="_top">
<polygon fill="#ffffff" stroke="transparent" points="8,-284.7 8,-506.7 227,-506.7 227,-284.7 8,-284.7"/>
<polygon fill="#f5f5f5" stroke="transparent" points="10.5,-481.7 10.5,-504.7 225.5,-504.7 225.5,-481.7 10.5,-481.7"/>
<polygon fill="none" stroke="#000000" points="10.5,-481.7 10.5,-504.7 225.5,-504.7 225.5,-481.7 10.5,-481.7"/>
<text text-anchor="start" x="15.5" y="-490.8" font-family="Helvetica,sans-Serif" font-weight="bold" font-size="11.00" fill="#000000">usuarios</text>
<text text-anchor="start" x="190.5437" y="-489.8" font-family="Helvetica,sans-Serif" font-size="11.00" fill="#000000">[table]</text>
<polygon fill="none" stroke="#000000" points="10.5,-459.7 10.5,-481.7 133.5,-481.7 133.5,-459.7 10.5,-459.7"/>
<image xlink:href="../../images/primaryKeys.png" width="11px" height="12px" preserveAspectRatio="xMinYMin meet" x="15.5" y="-476.7"/>
<text text-anchor="start" x="30.5" y="-466.8" font-family="Helvetica,sans-Serif" font-size="11.00" fill="#000000">usuario_id</text>
<polygon fill="none" stroke="#000000" points="133.5,-459.7 133.5,-481.7 225.5,-481.7 225.5,-459.7 133.5,-459.7"/>
<text text-anchor="start" x="136.5" y="-467.4" font-family="Helvetica,sans-Serif" font-size="11.00" fill="#000000">serial[10]</text>
<polygon fill="#ffffff" stroke="transparent" points="10.5,-437.7 10.5,-459.7 133.5,-459.7 133.5,-437.7 10.5,-437.7"/>
<polygon fill="none" stroke="#000000" points="10.5,-437.7 10.5,-459.7 133.5,-459.7 133.5,-437.7 10.5,-437.7"/>
<text text-anchor="start" x="30.5" y="-444.8" font-family="Helvetica,sans-Serif" font-size="11.00" fill="#000000">nom_usuario</text>
<polygon fill="none" stroke="#000000" points="133.5,-437.7 133.5,-459.7 225.5,-459.7 225.5,-437.7 133.5,-437.7"/>
<text text-anchor="start" x="136.5" y="-445.4" font-family="Helvetica,sans-Serif" font-size="11.00" fill="#000000">varchar[20]</text>
<polygon fill="none" stroke="#000000" points="10.5,-415.7 10.5,-437.7 133.5,-437.7 133.5,-415.7 10.5,-415.7"/>
<text text-anchor="start" x="30.5" y="-422.8" font-family="Helvetica,sans-Serif" font-size="11.00" fill="#000000">password</text>
<polygon fill="none" stroke="#000000" points="133.5,-415.7 133.5,-437.7 225.5,-437.7 225.5,-415.7 133.5,-415.7"/>
<text text-anchor="start" x="136.5" y="-423.4" font-family="Helvetica,sans-Serif" font-size="11.00" fill="#000000">varchar[255]</text>
<polygon fill="none" stroke="#000000" points="10.5,-393.7 10.5,-415.7 133.5,-415.7 133.5,-393.7 10.5,-393.7"/>
<text text-anchor="start" x="30.5" y="-400.8" font-family="Helvetica,sans-Serif" font-size="11.00" fill="#000000">email</text>
<polygon fill="none" stroke="#000000" points="133.5,-393.7 133.5,-415.7 225.5,-415.7 225.5,-393.7 133.5,-393.7"/>
<text text-anchor="start" x="136.5" y="-401.4" font-family="Helvetica,sans-Serif" font-size="11.00" fill="#000000">varchar[60]</text>
<polygon fill="none" stroke="#000000" points="10.5,-371.7 10.5,-393.7 133.5,-393.7 133.5,-371.7 10.5,-371.7"/>
<text text-anchor="start" x="30.5" y="-378.8" font-family="Helvetica,sans-Serif" font-size="11.00" fill="#000000">usu_insercion</text>
<polygon fill="none" stroke="#000000" points="133.5,-371.7 133.5,-393.7 225.5,-393.7 225.5,-371.7 133.5,-371.7"/>
<text text-anchor="start" x="136.5" y="-379.4" font-family="Helvetica,sans-Serif" font-size="11.00" fill="#000000">varchar[20]</text>
<polygon fill="none" stroke="#000000" points="10.5,-349.7 10.5,-371.7 133.5,-371.7 133.5,-349.7 10.5,-349.7"/>
<text text-anchor="start" x="30.5" y="-356.8" font-family="Helvetica,sans-Serif" font-size="11.00" fill="#000000">fec_insercion</text>
<polygon fill="none" stroke="#000000" points="133.5,-349.7 133.5,-371.7 225.5,-371.7 225.5,-349.7 133.5,-349.7"/>
<text text-anchor="start" x="136.1023" y="-357.4" font-family="Helvetica,sans-Serif" font-size="11.00" fill="#000000">timestamptz[35,6]</text>
<polygon fill="none" stroke="#000000" points="10.5,-327.7 10.5,-349.7 133.5,-349.7 133.5,-327.7 10.5,-327.7"/>
<text text-anchor="start" x="30.5" y="-334.8" font-family="Helvetica,sans-Serif" font-size="11.00" fill="#000000">fec_modificacion</text>
<polygon fill="none" stroke="#000000" points="133.5,-327.7 133.5,-349.7 225.5,-349.7 225.5,-327.7 133.5,-327.7"/>
<text text-anchor="start" x="136.1023" y="-335.4" font-family="Helvetica,sans-Serif" font-size="11.00" fill="#000000">timestamptz[35,6]</text>
<polygon fill="none" stroke="#000000" points="10.5,-305.7 10.5,-327.7 133.5,-327.7 133.5,-305.7 10.5,-305.7"/>
<text text-anchor="start" x="30.5" y="-312.8" font-family="Helvetica,sans-Serif" font-size="11.00" fill="#000000">usu_modificacion</text>
<polygon fill="none" stroke="#000000" points="133.5,-305.7 133.5,-327.7 225.5,-327.7 225.5,-305.7 133.5,-305.7"/>
<text text-anchor="start" x="136.5" y="-313.4" font-family="Helvetica,sans-Serif" font-size="11.00" fill="#000000">varchar[20]</text>
<polygon fill="#ffffff" stroke="transparent" points="10.5,-286.7 10.5,-305.7 63.5,-305.7 63.5,-286.7 10.5,-286.7"/>
<polygon fill="none" stroke="#000000" points="10.5,-286.7 10.5,-305.7 63.5,-305.7 63.5,-286.7 10.5,-286.7"/>
<text text-anchor="start" x="13.5" y="-292.8" font-family="Helvetica,sans-Serif" font-size="11.00" fill="#000000">&lt; 0</text>
<polygon fill="#ffffff" stroke="transparent" points="63.5,-286.7 63.5,-305.7 133.5,-305.7 133.5,-286.7 63.5,-286.7"/>
<polygon fill="none" stroke="#000000" points="63.5,-286.7 63.5,-305.7 133.5,-305.7 133.5,-286.7 63.5,-286.7"/>
<text text-anchor="start" x="98.1105" y="-292.8" font-family="Helvetica,sans-Serif" font-size="11.00" fill="#000000">0 rows</text>
<polygon fill="#ffffff" stroke="transparent" points="133.5,-286.7 133.5,-305.7 225.5,-305.7 225.5,-286.7 133.5,-286.7"/>
<polygon fill="none" stroke="#000000" points="133.5,-286.7 133.5,-305.7 225.5,-305.7 225.5,-286.7 133.5,-286.7"/>
<text text-anchor="start" x="206.9053" y="-292.8" font-family="Helvetica,sans-Serif" font-size="11.00" fill="#000000">5 &gt;</text>
<polygon fill="none" stroke="#000000" stroke-width="2" points="9,-285.7 9,-505.7 226,-505.7 226,-285.7 9,-285.7"/>
</a>
</g>
</g>
<!-- casos&#45;&gt;usuarios -->
<g id="edge1" class="edge">
<title>casos:w&#45;&gt;usuarios:e</title>
<path fill="none" stroke="#000000" d="M263.1105,-738.7223C226.3331,-698.6525 281.9912,-470.7 225.5,-470.7"/>
<polygon fill="#000000" stroke="#000000" points="269.1949,-741.4386 275.0324,-747.9873 272.8475,-743.0693 276.5,-744.7 276.5,-744.7 276.5,-744.7 272.8475,-743.0693 277.9676,-741.4127 269.1949,-741.4386 269.1949,-741.4386"/>
<ellipse fill="none" stroke="#000000" cx="266.2729" cy="-740.1341" rx="3.2" ry="3.2"/>
</g>
<!-- empleados -->
<g id="node3" class="node">
<title>empleados</title>
<g id="a_node3"><a xlink:href="../../tables/empleados.html" xlink:title="empleados" target="_top">
<polygon fill="#ffffff" stroke="transparent" points="276,-548.2 276,-675.2 399,-675.2 399,-548.2 276,-548.2"/>
<polygon fill="#f5f5f5" stroke="transparent" points="276.5,-651.7 276.5,-674.7 399.5,-674.7 399.5,-651.7 276.5,-651.7"/>
<polygon fill="none" stroke="#000000" points="276.5,-651.7 276.5,-674.7 399.5,-674.7 399.5,-651.7 276.5,-651.7"/>
<text text-anchor="start" x="281.5" y="-660.8" font-family="Helvetica,sans-Serif" font-weight="bold" font-size="11.00" fill="#000000">empleados</text>
<text text-anchor="start" x="364.5437" y="-659.8" font-family="Helvetica,sans-Serif" font-size="11.00" fill="#000000">[table]</text>
<polygon fill="none" stroke="#000000" points="276.5,-629.7 276.5,-651.7 399.5,-651.7 399.5,-629.7 276.5,-629.7"/>
<image xlink:href="../../images/primaryKeys.png" width="11px" height="12px" preserveAspectRatio="xMinYMin meet" x="281.5" y="-646.7"/>
<text text-anchor="start" x="296.5" y="-636.8" font-family="Helvetica,sans-Serif" font-size="11.00" fill="#000000">empleado_id</text>
<polygon fill="none" stroke="#000000" points="276.5,-607.7 276.5,-629.7 399.5,-629.7 399.5,-607.7 276.5,-607.7"/>
<image xlink:href="../../images/foreignKeys.png" width="11px" height="12px" preserveAspectRatio="xMinYMin meet" x="281.5" y="-624.7"/>
<text text-anchor="start" x="296.5" y="-614.8" font-family="Helvetica,sans-Serif" font-size="11.00" fill="#000000">persona_id</text>
<polygon fill="none" stroke="#000000" points="276.5,-585.7 276.5,-607.7 399.5,-607.7 399.5,-585.7 276.5,-585.7"/>
<image xlink:href="../../images/foreignKeys.png" width="11px" height="12px" preserveAspectRatio="xMinYMin meet" x="281.5" y="-602.7"/>
<text text-anchor="start" x="296.5" y="-592.8" font-family="Helvetica,sans-Serif" font-size="11.00" fill="#000000">usuario_id</text>
<polygon fill="none" stroke="#000000" points="276.5,-566.7 276.5,-585.7 399.5,-585.7 399.5,-566.7 276.5,-566.7"/>
<text text-anchor="start" x="279.5" y="-572.8" font-family="Helvetica,sans-Serif" font-size="11.00" fill="#000000">...</text>
<polygon fill="#ffffff" stroke="transparent" points="276.5,-547.7 276.5,-566.7 323.5,-566.7 323.5,-547.7 276.5,-547.7"/>
<polygon fill="none" stroke="#000000" points="276.5,-547.7 276.5,-566.7 323.5,-566.7 323.5,-547.7 276.5,-547.7"/>
<text text-anchor="start" x="279.5" y="-553.8" font-family="Helvetica,sans-Serif" font-size="11.00" fill="#000000">&lt; 2</text>
<polygon fill="#ffffff" stroke="transparent" points="323.5,-547.7 323.5,-566.7 374.5,-566.7 374.5,-547.7 323.5,-547.7"/>
<polygon fill="none" stroke="#000000" points="323.5,-547.7 323.5,-566.7 374.5,-566.7 374.5,-547.7 323.5,-547.7"/>
<text text-anchor="start" x="339.1105" y="-553.8" font-family="Helvetica,sans-Serif" font-size="11.00" fill="#000000">0 rows</text>
<polygon fill="#ffffff" stroke="transparent" points="374.5,-547.7 374.5,-566.7 399.5,-566.7 399.5,-547.7 374.5,-547.7"/>
<polygon fill="none" stroke="#000000" points="374.5,-547.7 374.5,-566.7 399.5,-566.7 399.5,-547.7 374.5,-547.7"/>
<text text-anchor="start" x="390.3862" y="-553.8" font-family="Helvetica,sans-Serif" font-size="11.00" fill="#000000"> &#160;</text>
</a>
</g>
</g>
<!-- empleados&#45;&gt;usuarios -->
<g id="edge2" class="edge">
<title>empleados:w&#45;&gt;usuarios:e</title>
<path fill="none" stroke="#000000" d="M262.2844,-593.3298C228.4826,-573.2923 280.0136,-470.7 225.5,-470.7"/>
<polygon fill="#000000" stroke="#000000" points="268.7158,-594.8545 275.6695,-600.2029 272.6079,-595.7772 276.5,-596.7 276.5,-596.7 276.5,-596.7 272.6079,-595.7772 277.3305,-593.1971 268.7158,-594.8545 268.7158,-594.8545"/>
<ellipse fill="none" stroke="#000000" cx="265.6021" cy="-594.1163" rx="3.2" ry="3.2"/>
</g>
<!-- leads -->
<g id="node4" class="node">
<title>leads</title>
<g id="a_node4"><a xlink:href="../../tables/leads.html" xlink:title="leads" target="_top">
<polygon fill="#ffffff" stroke="transparent" points="276,-356.2 276,-527.2 399,-527.2 399,-356.2 276,-356.2"/>
<polygon fill="#f5f5f5" stroke="transparent" points="276.5,-503.7 276.5,-526.7 399.5,-526.7 399.5,-503.7 276.5,-503.7"/>
<polygon fill="none" stroke="#000000" points="276.5,-503.7 276.5,-526.7 399.5,-526.7 399.5,-503.7 276.5,-503.7"/>
<text text-anchor="start" x="281.5" y="-512.8" font-family="Helvetica,sans-Serif" font-weight="bold" font-size="11.00" fill="#000000">leads</text>
<text text-anchor="start" x="364.5437" y="-511.8" font-family="Helvetica,sans-Serif" font-size="11.00" fill="#000000">[table]</text>
<polygon fill="none" stroke="#000000" points="276.5,-481.7 276.5,-503.7 399.5,-503.7 399.5,-481.7 276.5,-481.7"/>
<image xlink:href="../../images/primaryKeys.png" width="11px" height="12px" preserveAspectRatio="xMinYMin meet" x="281.5" y="-498.7"/>
<text text-anchor="start" x="296.5" y="-488.8" font-family="Helvetica,sans-Serif" font-size="11.00" fill="#000000">lead_id</text>
<polygon fill="none" stroke="#000000" points="276.5,-459.7 276.5,-481.7 399.5,-481.7 399.5,-459.7 276.5,-459.7"/>
<image xlink:href="../../images/foreignKeys.png" width="11px" height="12px" preserveAspectRatio="xMinYMin meet" x="281.5" y="-476.7"/>
<text text-anchor="start" x="296.5" y="-466.8" font-family="Helvetica,sans-Serif" font-size="11.00" fill="#000000">usu_asignado_id</text>
<polygon fill="none" stroke="#000000" points="276.5,-437.7 276.5,-459.7 399.5,-459.7 399.5,-437.7 276.5,-437.7"/>
<image xlink:href="../../images/foreignKeys.png" width="11px" height="12px" preserveAspectRatio="xMinYMin meet" x="281.5" y="-454.7"/>
<text text-anchor="start" x="296.5" y="-444.8" font-family="Helvetica,sans-Serif" font-size="11.00" fill="#000000">campana_id</text>
<polygon fill="none" stroke="#000000" points="276.5,-415.7 276.5,-437.7 399.5,-437.7 399.5,-415.7 276.5,-415.7"/>
<image xlink:href="../../images/foreignKeys.png" width="11px" height="12px" preserveAspectRatio="xMinYMin meet" x="281.5" y="-432.7"/>
<text text-anchor="start" x="296.5" y="-422.8" font-family="Helvetica,sans-Serif" font-size="11.00" fill="#000000">persona_id</text>
<polygon fill="none" stroke="#000000" points="276.5,-393.7 276.5,-415.7 399.5,-415.7 399.5,-393.7 276.5,-393.7"/>
<image xlink:href="../../images/foreignKeys.png" width="11px" height="12px" preserveAspectRatio="xMinYMin meet" x="281.5" y="-410.7"/>
<text text-anchor="start" x="296.5" y="-400.8" font-family="Helvetica,sans-Serif" font-size="11.00" fill="#000000">curso_id</text>
<polygon fill="none" stroke="#000000" points="276.5,-374.7 276.5,-393.7 399.5,-393.7 399.5,-374.7 276.5,-374.7"/>
<text text-anchor="start" x="279.5" y="-380.8" font-family="Helvetica,sans-Serif" font-size="11.00" fill="#000000">...</text>
<polygon fill="#ffffff" stroke="transparent" points="276.5,-355.7 276.5,-374.7 323.5,-374.7 323.5,-355.7 276.5,-355.7"/>
<polygon fill="none" stroke="#000000" points="276.5,-355.7 276.5,-374.7 323.5,-374.7 323.5,-355.7 276.5,-355.7"/>
<text text-anchor="start" x="279.5" y="-361.8" font-family="Helvetica,sans-Serif" font-size="11.00" fill="#000000">&lt; 4</text>
<polygon fill="#ffffff" stroke="transparent" points="323.5,-355.7 323.5,-374.7 374.5,-374.7 374.5,-355.7 323.5,-355.7"/>
<polygon fill="none" stroke="#000000" points="323.5,-355.7 323.5,-374.7 374.5,-374.7 374.5,-355.7 323.5,-355.7"/>
<text text-anchor="start" x="339.1105" y="-361.8" font-family="Helvetica,sans-Serif" font-size="11.00" fill="#000000">0 rows</text>
<polygon fill="#ffffff" stroke="transparent" points="374.5,-355.7 374.5,-374.7 399.5,-374.7 399.5,-355.7 374.5,-355.7"/>
<polygon fill="none" stroke="#000000" points="374.5,-355.7 374.5,-374.7 399.5,-374.7 399.5,-355.7 374.5,-355.7"/>
<text text-anchor="start" x="390.3862" y="-361.8" font-family="Helvetica,sans-Serif" font-size="11.00" fill="#000000"> &#160;</text>
</a>
</g>
</g>
<!-- leads&#45;&gt;usuarios -->
<g id="edge3" class="edge">
<title>leads:w&#45;&gt;usuarios:e</title>
<path fill="none" stroke="#000000" d="M261.776,-470.7C249.7815,-470.7 242.3229,-470.7 225.5,-470.7"/>
<polygon fill="#000000" stroke="#000000" points="268.5,-470.7001 276.5,-474.3 272.5,-470.7 276.5,-470.7 276.5,-470.7 276.5,-470.7 272.5,-470.7 276.5,-467.1 268.5,-470.7001 268.5,-470.7001"/>
<ellipse fill="none" stroke="#000000" cx="265.3" cy="-470.7001" rx="3.2" ry="3.2"/>
</g>
<!-- oportunidades -->
<g id="node5" class="node">
<title>oportunidades</title>
<g id="a_node5"><a xlink:href="../../tables/oportunidades.html" xlink:title="oportunidades" target="_top">
<polygon fill="#ffffff" stroke="transparent" points="276,-164.2 276,-335.2 399,-335.2 399,-164.2 276,-164.2"/>
<polygon fill="#f5f5f5" stroke="transparent" points="276.5,-311.7 276.5,-334.7 399.5,-334.7 399.5,-311.7 276.5,-311.7"/>
<polygon fill="none" stroke="#000000" points="276.5,-311.7 276.5,-334.7 399.5,-334.7 399.5,-311.7 276.5,-311.7"/>
<text text-anchor="start" x="281.5" y="-320.8" font-family="Helvetica,sans-Serif" font-weight="bold" font-size="11.00" fill="#000000">oportunidades</text>
<text text-anchor="start" x="364.5437" y="-319.8" font-family="Helvetica,sans-Serif" font-size="11.00" fill="#000000">[table]</text>
<polygon fill="none" stroke="#000000" points="276.5,-289.7 276.5,-311.7 399.5,-311.7 399.5,-289.7 276.5,-289.7"/>
<image xlink:href="../../images/primaryKeys.png" width="11px" height="12px" preserveAspectRatio="xMinYMin meet" x="281.5" y="-306.7"/>
<text text-anchor="start" x="296.5" y="-296.8" font-family="Helvetica,sans-Serif" font-size="11.00" fill="#000000">oportunidad_id</text>
<polygon fill="none" stroke="#000000" points="276.5,-267.7 276.5,-289.7 399.5,-289.7 399.5,-267.7 276.5,-267.7"/>
<image xlink:href="../../images/foreignKeys.png" width="11px" height="12px" preserveAspectRatio="xMinYMin meet" x="281.5" y="-284.7"/>
<text text-anchor="start" x="296.5" y="-274.8" font-family="Helvetica,sans-Serif" font-size="11.00" fill="#000000">campana_id</text>
<polygon fill="none" stroke="#000000" points="276.5,-245.7 276.5,-267.7 399.5,-267.7 399.5,-245.7 276.5,-245.7"/>
<image xlink:href="../../images/foreignKeys.png" width="11px" height="12px" preserveAspectRatio="xMinYMin meet" x="281.5" y="-262.7"/>
<text text-anchor="start" x="296.5" y="-252.8" font-family="Helvetica,sans-Serif" font-size="11.00" fill="#000000">contacto_id</text>
<polygon fill="none" stroke="#000000" points="276.5,-223.7 276.5,-245.7 399.5,-245.7 399.5,-223.7 276.5,-223.7"/>
<image xlink:href="../../images/foreignKeys.png" width="11px" height="12px" preserveAspectRatio="xMinYMin meet" x="281.5" y="-240.7"/>
<text text-anchor="start" x="296.5" y="-230.8" font-family="Helvetica,sans-Serif" font-size="11.00" fill="#000000">curso_id</text>
<polygon fill="none" stroke="#000000" points="276.5,-201.7 276.5,-223.7 399.5,-223.7 399.5,-201.7 276.5,-201.7"/>
<image xlink:href="../../images/foreignKeys.png" width="11px" height="12px" preserveAspectRatio="xMinYMin meet" x="281.5" y="-218.7"/>
<text text-anchor="start" x="296.5" y="-208.8" font-family="Helvetica,sans-Serif" font-size="11.00" fill="#000000">usu_asignado_id</text>
<polygon fill="none" stroke="#000000" points="276.5,-182.7 276.5,-201.7 399.5,-201.7 399.5,-182.7 276.5,-182.7"/>
<text text-anchor="start" x="279.5" y="-188.8" font-family="Helvetica,sans-Serif" font-size="11.00" fill="#000000">...</text>
<polygon fill="#ffffff" stroke="transparent" points="276.5,-163.7 276.5,-182.7 318.5,-182.7 318.5,-163.7 276.5,-163.7"/>
<polygon fill="none" stroke="#000000" points="276.5,-163.7 276.5,-182.7 318.5,-182.7 318.5,-163.7 276.5,-163.7"/>
<text text-anchor="start" x="279.5" y="-169.8" font-family="Helvetica,sans-Serif" font-size="11.00" fill="#000000">&lt; 4</text>
<polygon fill="#ffffff" stroke="transparent" points="318.5,-163.7 318.5,-182.7 367.5,-182.7 367.5,-163.7 318.5,-163.7"/>
<polygon fill="none" stroke="#000000" points="318.5,-163.7 318.5,-182.7 367.5,-182.7 367.5,-163.7 318.5,-163.7"/>
<text text-anchor="start" x="332.1105" y="-169.8" font-family="Helvetica,sans-Serif" font-size="11.00" fill="#000000">0 rows</text>
<polygon fill="#ffffff" stroke="transparent" points="367.5,-163.7 367.5,-182.7 399.5,-182.7 399.5,-163.7 367.5,-163.7"/>
<polygon fill="none" stroke="#000000" points="367.5,-163.7 367.5,-182.7 399.5,-182.7 399.5,-163.7 367.5,-163.7"/>
<text text-anchor="start" x="380.9053" y="-169.8" font-family="Helvetica,sans-Serif" font-size="11.00" fill="#000000">1 &gt;</text>
</a>
</g>
</g>
<!-- oportunidades&#45;&gt;usuarios -->
<g id="edge4" class="edge">
<title>oportunidades:w&#45;&gt;usuarios:e</title>
<path fill="none" stroke="#000000" d="M261.9765,-214.3475C176.0908,-236.3206 336.9065,-470.7 225.5,-470.7"/>
<polygon fill="#000000" stroke="#000000" points="268.551,-213.6018 276.9058,-216.2771 272.5255,-213.1509 276.5,-212.7 276.5,-212.7 276.5,-212.7 272.5255,-213.1509 276.0942,-209.1229 268.551,-213.6018 268.551,-213.6018"/>
<ellipse fill="none" stroke="#000000" cx="265.3714" cy="-213.9625" rx="3.2" ry="3.2"/>
</g>
<!-- tareas -->
<g id="node6" class="node">
<title>tareas</title>
<g id="a_node6"><a xlink:href="../../tables/tareas.html" xlink:title="tareas" target="_top">
<polygon fill="#ffffff" stroke="transparent" points="276,-38.2 276,-143.2 399,-143.2 399,-38.2 276,-38.2"/>
<polygon fill="#f5f5f5" stroke="transparent" points="276.5,-119.7 276.5,-142.7 399.5,-142.7 399.5,-119.7 276.5,-119.7"/>
<polygon fill="none" stroke="#000000" points="276.5,-119.7 276.5,-142.7 399.5,-142.7 399.5,-119.7 276.5,-119.7"/>
<text text-anchor="start" x="281.5" y="-128.8" font-family="Helvetica,sans-Serif" font-weight="bold" font-size="11.00" fill="#000000">tareas</text>
<text text-anchor="start" x="364.5437" y="-127.8" font-family="Helvetica,sans-Serif" font-size="11.00" fill="#000000">[table]</text>
<polygon fill="none" stroke="#000000" points="276.5,-97.7 276.5,-119.7 399.5,-119.7 399.5,-97.7 276.5,-97.7"/>
<image xlink:href="../../images/primaryKeys.png" width="11px" height="12px" preserveAspectRatio="xMinYMin meet" x="281.5" y="-114.7"/>
<text text-anchor="start" x="296.5" y="-104.8" font-family="Helvetica,sans-Serif" font-size="11.00" fill="#000000">tarea_id</text>
<polygon fill="none" stroke="#000000" points="276.5,-75.7 276.5,-97.7 399.5,-97.7 399.5,-75.7 276.5,-75.7"/>
<image xlink:href="../../images/foreignKeys.png" width="11px" height="12px" preserveAspectRatio="xMinYMin meet" x="281.5" y="-92.7"/>
<text text-anchor="start" x="296.5" y="-82.8" font-family="Helvetica,sans-Serif" font-size="11.00" fill="#000000">usu_asignado_id</text>
<polygon fill="none" stroke="#000000" points="276.5,-56.7 276.5,-75.7 399.5,-75.7 399.5,-56.7 276.5,-56.7"/>
<text text-anchor="start" x="279.5" y="-62.8" font-family="Helvetica,sans-Serif" font-size="11.00" fill="#000000">...</text>
<polygon fill="#ffffff" stroke="transparent" points="276.5,-37.7 276.5,-56.7 323.5,-56.7 323.5,-37.7 276.5,-37.7"/>
<polygon fill="none" stroke="#000000" points="276.5,-37.7 276.5,-56.7 323.5,-56.7 323.5,-37.7 276.5,-37.7"/>
<text text-anchor="start" x="279.5" y="-43.8" font-family="Helvetica,sans-Serif" font-size="11.00" fill="#000000">&lt; 1</text>
<polygon fill="#ffffff" stroke="transparent" points="323.5,-37.7 323.5,-56.7 374.5,-56.7 374.5,-37.7 323.5,-37.7"/>
<polygon fill="none" stroke="#000000" points="323.5,-37.7 323.5,-56.7 374.5,-56.7 374.5,-37.7 323.5,-37.7"/>
<text text-anchor="start" x="339.1105" y="-43.8" font-family="Helvetica,sans-Serif" font-size="11.00" fill="#000000">0 rows</text>
<polygon fill="#ffffff" stroke="transparent" points="374.5,-37.7 374.5,-56.7 399.5,-56.7 399.5,-37.7 374.5,-37.7"/>
<polygon fill="none" stroke="#000000" points="374.5,-37.7 374.5,-56.7 399.5,-56.7 399.5,-37.7 374.5,-37.7"/>
<text text-anchor="start" x="390.3862" y="-43.8" font-family="Helvetica,sans-Serif" font-size="11.00" fill="#000000"> &#160;</text>
</a>
</g>
</g>
<!-- tareas&#45;&gt;usuarios -->
<g id="edge5" class="edge">
<title>tareas:w&#45;&gt;usuarios:e</title>
<path fill="none" stroke="#000000" d="M262.687,-91.0125C204.7535,-133.2 306.2025,-470.7 225.5,-470.7"/>
<polygon fill="#000000" stroke="#000000" points="268.8635,-89.0842 277.5729,-90.1364 272.6818,-87.8921 276.5,-86.7 276.5,-86.7 276.5,-86.7 272.6818,-87.8921 275.4271,-83.2636 268.8635,-89.0842 268.8635,-89.0842"/>
<ellipse fill="none" stroke="#000000" cx="265.8089" cy="-90.0379" rx="3.2" ry="3.2"/>
</g>
</g>
</svg>
