<?xml version="1.0" encoding="UTF-8" standalone="no"?>
<!DOCTYPE svg PUBLIC "-//W3C//DTD SVG 1.1//EN"
 "http://www.w3.org/Graphics/SVG/1.1/DTD/svg11.dtd">
<!-- Generated by graphviz version 2.40.1 (20161225.0304)
 -->
<!-- Title: twoDegreesRelationshipsDiagramImplied Pages: 1 -->
<svg width="783pt" height="666pt"
 viewBox="0.00 0.00 783.00 666.20" xmlns="http://www.w3.org/2000/svg" xmlns:xlink="http://www.w3.org/1999/xlink">
<g id="graph0" class="graph" transform="scale(1 1) rotate(0) translate(4 662.2)">
<title>twoDegreesRelationshipsDiagramImplied</title>
<polygon fill="#ffffff" stroke="transparent" points="-4,4 -4,-662.2 779,-662.2 779,4 -4,4"/>
<text text-anchor="middle" x="72.4936" y="-7.3" font-family="Helvetica,sans-Serif" font-size="11.00" fill="#000000">Generated by SchemaSpy</text>
<!-- casos -->
<g id="node1" class="node">
<title>casos</title>
<g id="a_node1"><a xlink:href="../../tables/casos.html" xlink:title="casos" target="_top">
<polygon fill="#ffffff" stroke="transparent" points="276,-549.2 276,-654.2 399,-654.2 399,-549.2 276,-549.2"/>
<polygon fill="#f5f5f5" stroke="transparent" points="276.5,-630.7 276.5,-653.7 399.5,-653.7 399.5,-630.7 276.5,-630.7"/>
<polygon fill="none" stroke="#000000" points="276.5,-630.7 276.5,-653.7 399.5,-653.7 399.5,-630.7 276.5,-630.7"/>
<text text-anchor="start" x="281.5" y="-639.8" font-family="Helvetica,sans-Serif" font-weight="bold" font-size="11.00" fill="#000000">casos</text>
<text text-anchor="start" x="364.5437" y="-638.8" font-family="Helvetica,sans-Serif" font-size="11.00" fill="#000000">[table]</text>
<polygon fill="none" stroke="#000000" points="276.5,-608.7 276.5,-630.7 399.5,-630.7 399.5,-608.7 276.5,-608.7"/>
<image xlink:href="../../images/primaryKeys.png" width="11px" height="12px" preserveAspectRatio="xMinYMin meet" x="281.5" y="-625.7"/>
<text text-anchor="start" x="296.5" y="-615.8" font-family="Helvetica,sans-Serif" font-size="11.00" fill="#000000">caso_id</text>
<polygon fill="none" stroke="#000000" points="276.5,-586.7 276.5,-608.7 399.5,-608.7 399.5,-586.7 276.5,-586.7"/>
<image xlink:href="../../images/foreignKeys.png" width="11px" height="12px" preserveAspectRatio="xMinYMin meet" x="281.5" y="-603.7"/>
<text text-anchor="start" x="296.5" y="-593.8" font-family="Helvetica,sans-Serif" font-size="11.00" fill="#000000">usu_asignado_id</text>
<polygon fill="none" stroke="#000000" points="276.5,-567.7 276.5,-586.7 399.5,-586.7 399.5,-567.7 276.5,-567.7"/>
<text text-anchor="start" x="279.5" y="-573.8" font-family="Helvetica,sans-Serif" font-size="11.00" fill="#000000">...</text>
<polygon fill="#ffffff" stroke="transparent" points="276.5,-548.7 276.5,-567.7 326.5,-567.7 326.5,-548.7 276.5,-548.7"/>
<polygon fill="none" stroke="#000000" points="276.5,-548.7 276.5,-567.7 326.5,-567.7 326.5,-548.7 276.5,-548.7"/>
<text text-anchor="start" x="279.5" y="-554.8" font-family="Helvetica,sans-Serif" font-size="11.00" fill="#000000">&lt; 1</text>
<polygon fill="#ffffff" stroke="transparent" points="326.5,-548.7 326.5,-567.7 372.5,-567.7 372.5,-548.7 326.5,-548.7"/>
<polygon fill="none" stroke="#000000" points="326.5,-548.7 326.5,-567.7 372.5,-567.7 372.5,-548.7 326.5,-548.7"/>
<text text-anchor="start" x="342.6105" y="-554.8" font-family="Helvetica,sans-Serif" font-size="11.00" fill="#000000">1 row</text>
<polygon fill="#ffffff" stroke="transparent" points="372.5,-548.7 372.5,-567.7 399.5,-567.7 399.5,-548.7 372.5,-548.7"/>
<polygon fill="none" stroke="#000000" points="372.5,-548.7 372.5,-567.7 399.5,-567.7 399.5,-548.7 372.5,-548.7"/>
<text text-anchor="start" x="390.3862" y="-554.8" font-family="Helvetica,sans-Serif" font-size="11.00" fill="#000000"> &#160;</text>
</a>
</g>
</g>
<!-- usuarios -->
<g id="node2" class="node">
<title>usuarios</title>
<g id="a_node2"><a xlink:href="../../tables/usuarios.html" xlink:title="usuarios" target="_top">
<polygon fill="#ffffff" stroke="transparent" points="8,-284.7 8,-506.7 227,-506.7 227,-284.7 8,-284.7"/>
<polygon fill="#f5f5f5" stroke="transparent" points="10.5,-481.7 10.5,-504.7 225.5,-504.7 225.5,-481.7 10.5,-481.7"/>
<polygon fill="none" stroke="#000000" points="10.5,-481.7 10.5,-504.7 225.5,-504.7 225.5,-481.7 10.5,-481.7"/>
<text text-anchor="start" x="15.5" y="-490.8" font-family="Helvetica,sans-Serif" font-weight="bold" font-size="11.00" fill="#000000">usuarios</text>
<text text-anchor="start" x="190.5437" y="-489.8" font-family="Helvetica,sans-Serif" font-size="11.00" fill="#000000">[table]</text>
<polygon fill="none" stroke="#000000" points="10.5,-459.7 10.5,-481.7 133.5,-481.7 133.5,-459.7 10.5,-459.7"/>
<image xlink:href="../../images/primaryKeys.png" width="11px" height="12px" preserveAspectRatio="xMinYMin meet" x="15.5" y="-476.7"/>
<text text-anchor="start" x="30.5" y="-466.8" font-family="Helvetica,sans-Serif" font-size="11.00" fill="#000000">usuario_id</text>
<polygon fill="none" stroke="#000000" points="133.5,-459.7 133.5,-481.7 225.5,-481.7 225.5,-459.7 133.5,-459.7"/>
<text text-anchor="start" x="136.5" y="-467.4" font-family="Helvetica,sans-Serif" font-size="11.00" fill="#000000">serial[10]</text>
<polygon fill="#ffffff" stroke="transparent" points="10.5,-437.7 10.5,-459.7 133.5,-459.7 133.5,-437.7 10.5,-437.7"/>
<polygon fill="none" stroke="#000000" points="10.5,-437.7 10.5,-459.7 133.5,-459.7 133.5,-437.7 10.5,-437.7"/>
<text text-anchor="start" x="30.5" y="-444.8" font-family="Helvetica,sans-Serif" font-size="11.00" fill="#000000">nom_usuario</text>
<polygon fill="none" stroke="#000000" points="133.5,-437.7 133.5,-459.7 225.5,-459.7 225.5,-437.7 133.5,-437.7"/>
<text text-anchor="start" x="136.5" y="-445.4" font-family="Helvetica,sans-Serif" font-size="11.00" fill="#000000">varchar[20]</text>
<polygon fill="none" stroke="#000000" points="10.5,-415.7 10.5,-437.7 133.5,-437.7 133.5,-415.7 10.5,-415.7"/>
<text text-anchor="start" x="30.5" y="-422.8" font-family="Helvetica,sans-Serif" font-size="11.00" fill="#000000">password</text>
<polygon fill="none" stroke="#000000" points="133.5,-415.7 133.5,-437.7 225.5,-437.7 225.5,-415.7 133.5,-415.7"/>
<text text-anchor="start" x="136.5" y="-423.4" font-family="Helvetica,sans-Serif" font-size="11.00" fill="#000000">varchar[255]</text>
<polygon fill="none" stroke="#000000" points="10.5,-393.7 10.5,-415.7 133.5,-415.7 133.5,-393.7 10.5,-393.7"/>
<text text-anchor="start" x="30.5" y="-400.8" font-family="Helvetica,sans-Serif" font-size="11.00" fill="#000000">email</text>
<polygon fill="none" stroke="#000000" points="133.5,-393.7 133.5,-415.7 225.5,-415.7 225.5,-393.7 133.5,-393.7"/>
<text text-anchor="start" x="136.5" y="-401.4" font-family="Helvetica,sans-Serif" font-size="11.00" fill="#000000">varchar[60]</text>
<polygon fill="none" stroke="#000000" points="10.5,-371.7 10.5,-393.7 133.5,-393.7 133.5,-371.7 10.5,-371.7"/>
<text text-anchor="start" x="30.5" y="-378.8" font-family="Helvetica,sans-Serif" font-size="11.00" fill="#000000">usu_insercion</text>
<polygon fill="none" stroke="#000000" points="133.5,-371.7 133.5,-393.7 225.5,-393.7 225.5,-371.7 133.5,-371.7"/>
<text text-anchor="start" x="136.5" y="-379.4" font-family="Helvetica,sans-Serif" font-size="11.00" fill="#000000">varchar[20]</text>
<polygon fill="none" stroke="#000000" points="10.5,-349.7 10.5,-371.7 133.5,-371.7 133.5,-349.7 10.5,-349.7"/>
<text text-anchor="start" x="30.5" y="-356.8" font-family="Helvetica,sans-Serif" font-size="11.00" fill="#000000">fec_insercion</text>
<polygon fill="none" stroke="#000000" points="133.5,-349.7 133.5,-371.7 225.5,-371.7 225.5,-349.7 133.5,-349.7"/>
<text text-anchor="start" x="136.1023" y="-357.4" font-family="Helvetica,sans-Serif" font-size="11.00" fill="#000000">timestamptz[35,6]</text>
<polygon fill="none" stroke="#000000" points="10.5,-327.7 10.5,-349.7 133.5,-349.7 133.5,-327.7 10.5,-327.7"/>
<text text-anchor="start" x="30.5" y="-334.8" font-family="Helvetica,sans-Serif" font-size="11.00" fill="#000000">fec_modificacion</text>
<polygon fill="none" stroke="#000000" points="133.5,-327.7 133.5,-349.7 225.5,-349.7 225.5,-327.7 133.5,-327.7"/>
<text text-anchor="start" x="136.1023" y="-335.4" font-family="Helvetica,sans-Serif" font-size="11.00" fill="#000000">timestamptz[35,6]</text>
<polygon fill="none" stroke="#000000" points="10.5,-305.7 10.5,-327.7 133.5,-327.7 133.5,-305.7 10.5,-305.7"/>
<text text-anchor="start" x="30.5" y="-312.8" font-family="Helvetica,sans-Serif" font-size="11.00" fill="#000000">usu_modificacion</text>
<polygon fill="none" stroke="#000000" points="133.5,-305.7 133.5,-327.7 225.5,-327.7 225.5,-305.7 133.5,-305.7"/>
<text text-anchor="start" x="136.5" y="-313.4" font-family="Helvetica,sans-Serif" font-size="11.00" fill="#000000">varchar[20]</text>
<polygon fill="#ffffff" stroke="transparent" points="10.5,-286.7 10.5,-305.7 60.5,-305.7 60.5,-286.7 10.5,-286.7"/>
<polygon fill="none" stroke="#000000" points="10.5,-286.7 10.5,-305.7 60.5,-305.7 60.5,-286.7 10.5,-286.7"/>
<text text-anchor="start" x="13.5" y="-292.8" font-family="Helvetica,sans-Serif" font-size="11.00" fill="#000000">&lt; 0</text>
<polygon fill="#ffffff" stroke="transparent" points="60.5,-286.7 60.5,-305.7 133.5,-305.7 133.5,-286.7 60.5,-286.7"/>
<polygon fill="none" stroke="#000000" points="60.5,-286.7 60.5,-305.7 133.5,-305.7 133.5,-286.7 60.5,-286.7"/>
<text text-anchor="start" x="91.9956" y="-292.8" font-family="Helvetica,sans-Serif" font-size="11.00" fill="#000000">22 rows</text>
<polygon fill="#ffffff" stroke="transparent" points="133.5,-286.7 133.5,-305.7 225.5,-305.7 225.5,-286.7 133.5,-286.7"/>
<polygon fill="none" stroke="#000000" points="133.5,-286.7 133.5,-305.7 225.5,-305.7 225.5,-286.7 133.5,-286.7"/>
<text text-anchor="start" x="206.9053" y="-292.8" font-family="Helvetica,sans-Serif" font-size="11.00" fill="#000000">5 &gt;</text>
<polygon fill="none" stroke="#000000" stroke-width="2" points="9,-285.7 9,-505.7 226,-505.7 226,-285.7 9,-285.7"/>
</a>
</g>
</g>
<!-- casos&#45;&gt;usuarios -->
<g id="edge1" class="edge">
<title>casos:w&#45;&gt;usuarios:e</title>
<path fill="none" stroke="#000000" d="M262.1967,-594.3031C228.2196,-574.1065 280.3856,-470.7 225.5,-470.7"/>
<polygon fill="#000000" stroke="#000000" points="268.7165,-595.8514 275.6681,-601.2026 272.6082,-596.7757 276.5,-597.7 276.5,-597.7 276.5,-597.7 272.6082,-596.7757 277.3319,-594.1974 268.7165,-595.8514 268.7165,-595.8514"/>
<ellipse fill="none" stroke="#000000" cx="265.6031" cy="-595.112" rx="3.2" ry="3.2"/>
</g>
<!-- empleados -->
<g id="node3" class="node">
<title>empleados</title>
<g id="a_node3"><a xlink:href="../../tables/empleados.html" xlink:title="empleados" target="_top">
<polygon fill="#ffffff" stroke="transparent" points="276,-247.2 276,-374.2 399,-374.2 399,-247.2 276,-247.2"/>
<polygon fill="#f5f5f5" stroke="transparent" points="276.5,-350.7 276.5,-373.7 399.5,-373.7 399.5,-350.7 276.5,-350.7"/>
<polygon fill="none" stroke="#000000" points="276.5,-350.7 276.5,-373.7 399.5,-373.7 399.5,-350.7 276.5,-350.7"/>
<text text-anchor="start" x="281.5" y="-359.8" font-family="Helvetica,sans-Serif" font-weight="bold" font-size="11.00" fill="#000000">empleados</text>
<text text-anchor="start" x="364.5437" y="-358.8" font-family="Helvetica,sans-Serif" font-size="11.00" fill="#000000">[table]</text>
<polygon fill="none" stroke="#000000" points="276.5,-328.7 276.5,-350.7 399.5,-350.7 399.5,-328.7 276.5,-328.7"/>
<image xlink:href="../../images/primaryKeys.png" width="11px" height="12px" preserveAspectRatio="xMinYMin meet" x="281.5" y="-345.7"/>
<text text-anchor="start" x="296.5" y="-335.8" font-family="Helvetica,sans-Serif" font-size="11.00" fill="#000000">empleado_id</text>
<polygon fill="none" stroke="#000000" points="276.5,-306.7 276.5,-328.7 399.5,-328.7 399.5,-306.7 276.5,-306.7"/>
<image xlink:href="../../images/foreignKeys.png" width="11px" height="12px" preserveAspectRatio="xMinYMin meet" x="281.5" y="-323.7"/>
<text text-anchor="start" x="296.5" y="-313.8" font-family="Helvetica,sans-Serif" font-size="11.00" fill="#000000">persona_id</text>
<polygon fill="none" stroke="#000000" points="276.5,-284.7 276.5,-306.7 399.5,-306.7 399.5,-284.7 276.5,-284.7"/>
<image xlink:href="../../images/foreignKeys.png" width="11px" height="12px" preserveAspectRatio="xMinYMin meet" x="281.5" y="-301.7"/>
<text text-anchor="start" x="296.5" y="-291.8" font-family="Helvetica,sans-Serif" font-size="11.00" fill="#000000">usuario_id</text>
<polygon fill="none" stroke="#000000" points="276.5,-265.7 276.5,-284.7 399.5,-284.7 399.5,-265.7 276.5,-265.7"/>
<text text-anchor="start" x="279.5" y="-271.8" font-family="Helvetica,sans-Serif" font-size="11.00" fill="#000000">...</text>
<polygon fill="#ffffff" stroke="transparent" points="276.5,-246.7 276.5,-265.7 320.5,-265.7 320.5,-246.7 276.5,-246.7"/>
<polygon fill="none" stroke="#000000" points="276.5,-246.7 276.5,-265.7 320.5,-265.7 320.5,-246.7 276.5,-246.7"/>
<text text-anchor="start" x="279.5" y="-252.8" font-family="Helvetica,sans-Serif" font-size="11.00" fill="#000000">&lt; 2</text>
<polygon fill="#ffffff" stroke="transparent" points="320.5,-246.7 320.5,-265.7 375.5,-265.7 375.5,-246.7 320.5,-246.7"/>
<polygon fill="none" stroke="#000000" points="320.5,-246.7 320.5,-265.7 375.5,-265.7 375.5,-246.7 320.5,-246.7"/>
<text text-anchor="start" x="333.9956" y="-252.8" font-family="Helvetica,sans-Serif" font-size="11.00" fill="#000000">17 rows</text>
<polygon fill="#ffffff" stroke="transparent" points="375.5,-246.7 375.5,-265.7 399.5,-265.7 399.5,-246.7 375.5,-246.7"/>
<polygon fill="none" stroke="#000000" points="375.5,-246.7 375.5,-265.7 399.5,-265.7 399.5,-246.7 375.5,-246.7"/>
<text text-anchor="start" x="390.3862" y="-252.8" font-family="Helvetica,sans-Serif" font-size="11.00" fill="#000000"> &#160;</text>
</a>
</g>
</g>
<!-- empleados&#45;&gt;usuarios -->
<g id="edge3" class="edge">
<title>empleados:w&#45;&gt;usuarios:e</title>
<path fill="none" stroke="#000000" d="M262.126,-298.1739C210.1504,-319.4442 300.8171,-470.7 225.5,-470.7"/>
<polygon fill="#000000" stroke="#000000" points="268.6159,-297.0569 277.1106,-299.2478 272.558,-296.3785 276.5,-295.7 276.5,-295.7 276.5,-295.7 272.558,-296.3785 275.8894,-292.1522 268.6159,-297.0569 268.6159,-297.0569"/>
<ellipse fill="none" stroke="#000000" cx="265.4623" cy="-297.5997" rx="3.2" ry="3.2"/>
</g>
<!-- personas -->
<g id="node4" class="node">
<title>personas</title>
<g id="a_node4"><a xlink:href="../../tables/personas.html" xlink:title="personas" target="_top">
<polygon fill="#ffffff" stroke="transparent" points="73.5,-202.2 73.5,-263.2 161.5,-263.2 161.5,-202.2 73.5,-202.2"/>
<polygon fill="#f5f5f5" stroke="transparent" points="73.5,-239.7 73.5,-262.7 161.5,-262.7 161.5,-239.7 73.5,-239.7"/>
<polygon fill="none" stroke="#000000" points="73.5,-239.7 73.5,-262.7 161.5,-262.7 161.5,-239.7 73.5,-239.7"/>
<text text-anchor="start" x="78.3818" y="-248.8" font-family="Helvetica,sans-Serif" font-weight="bold" font-size="11.00" fill="#000000">personas</text>
<text text-anchor="start" x="127.0219" y="-247.8" font-family="Helvetica,sans-Serif" font-size="11.00" fill="#000000">[table]</text>
<polygon fill="none" stroke="#000000" points="73.5,-220.7 73.5,-239.7 161.5,-239.7 161.5,-220.7 73.5,-220.7"/>
<text text-anchor="start" x="76.5" y="-226.8" font-family="Helvetica,sans-Serif" font-size="11.00" fill="#000000">...</text>
<polygon fill="#ffffff" stroke="transparent" points="73.5,-201.7 73.5,-220.7 90.5,-220.7 90.5,-201.7 73.5,-201.7"/>
<polygon fill="none" stroke="#000000" points="73.5,-201.7 73.5,-220.7 90.5,-220.7 90.5,-201.7 73.5,-201.7"/>
<text text-anchor="start" x="76.5" y="-207.8" font-family="Helvetica,sans-Serif" font-size="11.00" fill="#000000"> &#160;</text>
<polygon fill="#ffffff" stroke="transparent" points="90.5,-201.7 90.5,-220.7 137.5,-220.7 137.5,-201.7 90.5,-201.7"/>
<polygon fill="none" stroke="#000000" points="90.5,-201.7 90.5,-220.7 137.5,-220.7 137.5,-201.7 90.5,-201.7"/>
<text text-anchor="start" x="95.9956" y="-207.8" font-family="Helvetica,sans-Serif" font-size="11.00" fill="#000000">31 rows</text>
<polygon fill="#ffffff" stroke="transparent" points="137.5,-201.7 137.5,-220.7 161.5,-220.7 161.5,-201.7 137.5,-201.7"/>
<polygon fill="none" stroke="#000000" points="137.5,-201.7 137.5,-220.7 161.5,-220.7 161.5,-201.7 137.5,-201.7"/>
<text text-anchor="start" x="142.9053" y="-207.8" font-family="Helvetica,sans-Serif" font-size="11.00" fill="#000000">7 &gt;</text>
</a>
</g>
</g>
<!-- empleados&#45;&gt;personas -->
<g id="edge2" class="edge">
<title>empleados:w&#45;&gt;personas:e</title>
<path fill="none" stroke="#000000" d="M262.3963,-313.8184C251.1918,-305.8717 250.8596,-287.4273 235,-274.7 205.1269,-250.7269 199.8029,-229.7 161.5,-229.7"/>
<polygon fill="#000000" stroke="#000000" points="268.7868,-315.5772 275.5447,-321.1709 272.6434,-316.6386 276.5,-317.7 276.5,-317.7 276.5,-317.7 272.6434,-316.6386 277.4553,-314.2291 268.7868,-315.5772 268.7868,-315.5772"/>
<ellipse fill="none" stroke="#000000" cx="265.7015" cy="-314.728" rx="3.2" ry="3.2"/>
</g>
<!-- encuesta_respuestas -->
<g id="node5" class="node">
<title>encuesta_respuestas</title>
<g id="a_node5"><a xlink:href="../../tables/encuesta_respuestas.html" xlink:title="encuesta_respuestas" target="_top">
<polygon fill="#ffffff" stroke="transparent" points="620,-363.2 620,-424.2 767,-424.2 767,-363.2 620,-363.2"/>
<polygon fill="#f5f5f5" stroke="transparent" points="620.5,-400.7 620.5,-423.7 767.5,-423.7 767.5,-400.7 620.5,-400.7"/>
<polygon fill="none" stroke="#000000" points="620.5,-400.7 620.5,-423.7 767.5,-423.7 767.5,-400.7 620.5,-400.7"/>
<text text-anchor="start" x="625.2302" y="-409.8" font-family="Helvetica,sans-Serif" font-weight="bold" font-size="11.00" fill="#000000">encuesta_respuestas</text>
<text text-anchor="start" x="733.0219" y="-408.8" font-family="Helvetica,sans-Serif" font-size="11.00" fill="#000000">[table]</text>
<polygon fill="none" stroke="#000000" points="620.5,-381.7 620.5,-400.7 767.5,-400.7 767.5,-381.7 620.5,-381.7"/>
<text text-anchor="start" x="623.5" y="-387.8" font-family="Helvetica,sans-Serif" font-size="11.00" fill="#000000">...</text>
<polygon fill="#ffffff" stroke="transparent" points="620.5,-362.7 620.5,-381.7 674.5,-381.7 674.5,-362.7 620.5,-362.7"/>
<polygon fill="none" stroke="#000000" points="620.5,-362.7 620.5,-381.7 674.5,-381.7 674.5,-362.7 620.5,-362.7"/>
<text text-anchor="start" x="623.5" y="-368.8" font-family="Helvetica,sans-Serif" font-size="11.00" fill="#000000">&lt; 2</text>
<polygon fill="#ffffff" stroke="transparent" points="674.5,-362.7 674.5,-381.7 729.5,-381.7 729.5,-362.7 674.5,-362.7"/>
<polygon fill="none" stroke="#000000" points="674.5,-362.7 674.5,-381.7 729.5,-381.7 729.5,-362.7 674.5,-362.7"/>
<text text-anchor="start" x="694.1105" y="-368.8" font-family="Helvetica,sans-Serif" font-size="11.00" fill="#000000">0 rows</text>
<polygon fill="#ffffff" stroke="transparent" points="729.5,-362.7 729.5,-381.7 767.5,-381.7 767.5,-362.7 729.5,-362.7"/>
<polygon fill="none" stroke="#000000" points="729.5,-362.7 729.5,-381.7 767.5,-381.7 767.5,-362.7 729.5,-362.7"/>
<text text-anchor="start" x="748.9053" y="-368.8" font-family="Helvetica,sans-Serif" font-size="11.00" fill="#000000">1 &gt;</text>
</a>
</g>
</g>
<!-- oportunidades -->
<g id="node6" class="node">
<title>oportunidades</title>
<g id="a_node6"><a xlink:href="../../tables/oportunidades.html" xlink:title="oportunidades" target="_top">
<polygon fill="#ffffff" stroke="transparent" points="448,-298.2 448,-425.2 571,-425.2 571,-298.2 448,-298.2"/>
<polygon fill="#f5f5f5" stroke="transparent" points="448.5,-401.7 448.5,-424.7 571.5,-424.7 571.5,-401.7 448.5,-401.7"/>
<polygon fill="none" stroke="#000000" points="448.5,-401.7 448.5,-424.7 571.5,-424.7 571.5,-401.7 448.5,-401.7"/>
<text text-anchor="start" x="453.5" y="-410.8" font-family="Helvetica,sans-Serif" font-weight="bold" font-size="11.00" fill="#000000">oportunidades</text>
<text text-anchor="start" x="536.5437" y="-409.8" font-family="Helvetica,sans-Serif" font-size="11.00" fill="#000000">[table]</text>
<polygon fill="none" stroke="#000000" points="448.5,-379.7 448.5,-401.7 571.5,-401.7 571.5,-379.7 448.5,-379.7"/>
<image xlink:href="../../images/primaryKeys.png" width="11px" height="12px" preserveAspectRatio="xMinYMin meet" x="453.5" y="-396.7"/>
<text text-anchor="start" x="468.5" y="-386.8" font-family="Helvetica,sans-Serif" font-size="11.00" fill="#000000">oportunidad_id</text>
<polygon fill="none" stroke="#000000" points="448.5,-357.7 448.5,-379.7 571.5,-379.7 571.5,-357.7 448.5,-357.7"/>
<image xlink:href="../../images/foreignKeys.png" width="11px" height="12px" preserveAspectRatio="xMinYMin meet" x="453.5" y="-374.7"/>
<text text-anchor="start" x="468.5" y="-364.8" font-family="Helvetica,sans-Serif" font-size="11.00" fill="#000000">lead_id</text>
<polygon fill="none" stroke="#000000" points="448.5,-335.7 448.5,-357.7 571.5,-357.7 571.5,-335.7 448.5,-335.7"/>
<image xlink:href="../../images/foreignKeys.png" width="11px" height="12px" preserveAspectRatio="xMinYMin meet" x="453.5" y="-352.7"/>
<text text-anchor="start" x="468.5" y="-342.8" font-family="Helvetica,sans-Serif" font-size="11.00" fill="#000000">usu_asignado_id</text>
<polygon fill="none" stroke="#000000" points="448.5,-316.7 448.5,-335.7 571.5,-335.7 571.5,-316.7 448.5,-316.7"/>
<text text-anchor="start" x="451.5" y="-322.8" font-family="Helvetica,sans-Serif" font-size="11.00" fill="#000000">...</text>
<polygon fill="#ffffff" stroke="transparent" points="448.5,-297.7 448.5,-316.7 490.5,-316.7 490.5,-297.7 448.5,-297.7"/>
<polygon fill="none" stroke="#000000" points="448.5,-297.7 448.5,-316.7 490.5,-316.7 490.5,-297.7 448.5,-297.7"/>
<text text-anchor="start" x="451.5" y="-303.8" font-family="Helvetica,sans-Serif" font-size="11.00" fill="#000000">&lt; 2</text>
<polygon fill="#ffffff" stroke="transparent" points="490.5,-297.7 490.5,-316.7 539.5,-316.7 539.5,-297.7 490.5,-297.7"/>
<polygon fill="none" stroke="#000000" points="490.5,-297.7 490.5,-316.7 539.5,-316.7 539.5,-297.7 490.5,-297.7"/>
<text text-anchor="start" x="504.1105" y="-303.8" font-family="Helvetica,sans-Serif" font-size="11.00" fill="#000000">0 rows</text>
<polygon fill="#ffffff" stroke="transparent" points="539.5,-297.7 539.5,-316.7 571.5,-316.7 571.5,-297.7 539.5,-297.7"/>
<polygon fill="none" stroke="#000000" points="539.5,-297.7 539.5,-316.7 571.5,-316.7 571.5,-297.7 539.5,-297.7"/>
<text text-anchor="start" x="552.9053" y="-303.8" font-family="Helvetica,sans-Serif" font-size="11.00" fill="#000000">1 &gt;</text>
</a>
</g>
</g>
<!-- encuesta_respuestas&#45;&gt;oportunidades -->
<g id="edge4" class="edge">
<title>encuesta_respuestas:w&#45;&gt;oportunidades:e</title>
<path fill="none" stroke="#000000" d="M605.9909,-390.7C594.6774,-390.7 587.4931,-390.7 571.5,-390.7"/>
<polygon fill="#000000" stroke="#000000" points="612.5,-390.7001 620.5,-394.3 616.5,-390.7 620.5,-390.7 620.5,-390.7 620.5,-390.7 616.5,-390.7 620.5,-387.1 612.5,-390.7001 612.5,-390.7001"/>
<ellipse fill="none" stroke="#000000" cx="609.3" cy="-390.7001" rx="3.2" ry="3.2"/>
</g>
<!-- oportunidades&#45;&gt;usuarios -->
<g id="edge10" class="edge">
<title>oportunidades:w&#45;&gt;usuarios:e</title>
<path fill="none" stroke="#000000" d="M434.1049,-348.667C386.6,-364.2327 461.8094,-468.0325 407,-510.7 358.252,-548.6489 325.4268,-533.4741 268,-510.7 243.8877,-501.1376 251.4392,-470.7 225.5,-470.7"/>
<polygon fill="#000000" stroke="#000000" points="440.5737,-347.7831 448.9874,-350.2669 444.5368,-347.2416 448.5,-346.7 448.5,-346.7 448.5,-346.7 444.5368,-347.2416 448.0126,-343.1331 440.5737,-347.7831 440.5737,-347.7831"/>
<ellipse fill="none" stroke="#000000" cx="437.4031" cy="-348.2164" rx="3.2" ry="3.2"/>
</g>
<!-- leads -->
<g id="node7" class="node">
<title>leads</title>
<g id="a_node7"><a xlink:href="../../tables/leads.html" xlink:title="leads" target="_top">
<polygon fill="#ffffff" stroke="transparent" points="276,-55.2 276,-226.2 399,-226.2 399,-55.2 276,-55.2"/>
<polygon fill="#f5f5f5" stroke="transparent" points="276.5,-202.7 276.5,-225.7 399.5,-225.7 399.5,-202.7 276.5,-202.7"/>
<polygon fill="none" stroke="#000000" points="276.5,-202.7 276.5,-225.7 399.5,-225.7 399.5,-202.7 276.5,-202.7"/>
<text text-anchor="start" x="281.5" y="-211.8" font-family="Helvetica,sans-Serif" font-weight="bold" font-size="11.00" fill="#000000">leads</text>
<text text-anchor="start" x="364.5437" y="-210.8" font-family="Helvetica,sans-Serif" font-size="11.00" fill="#000000">[table]</text>
<polygon fill="none" stroke="#000000" points="276.5,-180.7 276.5,-202.7 399.5,-202.7 399.5,-180.7 276.5,-180.7"/>
<image xlink:href="../../images/primaryKeys.png" width="11px" height="12px" preserveAspectRatio="xMinYMin meet" x="281.5" y="-197.7"/>
<text text-anchor="start" x="296.5" y="-187.8" font-family="Helvetica,sans-Serif" font-size="11.00" fill="#000000">lead_id</text>
<polygon fill="none" stroke="#000000" points="276.5,-158.7 276.5,-180.7 399.5,-180.7 399.5,-158.7 276.5,-158.7"/>
<image xlink:href="../../images/foreignKeys.png" width="11px" height="12px" preserveAspectRatio="xMinYMin meet" x="281.5" y="-175.7"/>
<text text-anchor="start" x="296.5" y="-165.8" font-family="Helvetica,sans-Serif" font-size="11.00" fill="#000000">usu_asignado_id</text>
<polygon fill="none" stroke="#000000" points="276.5,-136.7 276.5,-158.7 399.5,-158.7 399.5,-136.7 276.5,-136.7"/>
<image xlink:href="../../images/foreignKeys.png" width="11px" height="12px" preserveAspectRatio="xMinYMin meet" x="281.5" y="-153.7"/>
<text text-anchor="start" x="296.5" y="-143.8" font-family="Helvetica,sans-Serif" font-size="11.00" fill="#000000">campana_id</text>
<polygon fill="none" stroke="#000000" points="276.5,-114.7 276.5,-136.7 399.5,-136.7 399.5,-114.7 276.5,-114.7"/>
<image xlink:href="../../images/foreignKeys.png" width="11px" height="12px" preserveAspectRatio="xMinYMin meet" x="281.5" y="-131.7"/>
<text text-anchor="start" x="296.5" y="-121.8" font-family="Helvetica,sans-Serif" font-size="11.00" fill="#000000">persona_id</text>
<polygon fill="none" stroke="#000000" points="276.5,-92.7 276.5,-114.7 399.5,-114.7 399.5,-92.7 276.5,-92.7"/>
<image xlink:href="../../images/foreignKeys.png" width="11px" height="12px" preserveAspectRatio="xMinYMin meet" x="281.5" y="-109.7"/>
<text text-anchor="start" x="296.5" y="-99.8" font-family="Helvetica,sans-Serif" font-size="11.00" fill="#000000">curso_id</text>
<polygon fill="none" stroke="#000000" points="276.5,-73.7 276.5,-92.7 399.5,-92.7 399.5,-73.7 276.5,-73.7"/>
<text text-anchor="start" x="279.5" y="-79.8" font-family="Helvetica,sans-Serif" font-size="11.00" fill="#000000">...</text>
<polygon fill="#ffffff" stroke="transparent" points="276.5,-54.7 276.5,-73.7 318.5,-73.7 318.5,-54.7 276.5,-54.7"/>
<polygon fill="none" stroke="#000000" points="276.5,-54.7 276.5,-73.7 318.5,-73.7 318.5,-54.7 276.5,-54.7"/>
<text text-anchor="start" x="279.5" y="-60.8" font-family="Helvetica,sans-Serif" font-size="11.00" fill="#000000">&lt; 4</text>
<polygon fill="#ffffff" stroke="transparent" points="318.5,-54.7 318.5,-73.7 367.5,-73.7 367.5,-54.7 318.5,-54.7"/>
<polygon fill="none" stroke="#000000" points="318.5,-54.7 318.5,-73.7 367.5,-73.7 367.5,-54.7 318.5,-54.7"/>
<text text-anchor="start" x="332.1105" y="-60.8" font-family="Helvetica,sans-Serif" font-size="11.00" fill="#000000">0 rows</text>
<polygon fill="#ffffff" stroke="transparent" points="367.5,-54.7 367.5,-73.7 399.5,-73.7 399.5,-54.7 367.5,-54.7"/>
<polygon fill="none" stroke="#000000" points="367.5,-54.7 367.5,-73.7 399.5,-73.7 399.5,-54.7 367.5,-54.7"/>
<text text-anchor="start" x="380.9053" y="-60.8" font-family="Helvetica,sans-Serif" font-size="11.00" fill="#000000">1 &gt;</text>
</a>
</g>
</g>
<!-- oportunidades&#45;&gt;leads -->
<g id="edge9" class="edge">
<title>oportunidades:w&#45;&gt;leads:e</title>
<path fill="none" stroke="#000000" d="M434.0511,-366.1979C381.9727,-344.6844 475.3862,-191.7 399.5,-191.7"/>
<polygon fill="#000000" stroke="#000000" points="440.6173,-367.3349 447.8857,-372.2472 444.5587,-368.0175 448.5,-368.7 448.5,-368.7 448.5,-368.7 444.5587,-368.0175 449.1143,-365.1528 440.6173,-367.3349 440.6173,-367.3349"/>
<ellipse fill="none" stroke="#000000" cx="437.4642" cy="-366.7889" rx="3.2" ry="3.2"/>
</g>
<!-- leads&#45;&gt;usuarios -->
<g id="edge8" class="edge">
<title>leads:w&#45;&gt;usuarios:e</title>
<path fill="none" stroke="#000000" d="M262.9796,-175.1814C221.2424,-215.9769 287.9095,-470.7 225.5,-470.7"/>
<polygon fill="#000000" stroke="#000000" points="269.0861,-172.7057 277.8526,-173.0363 272.7931,-171.2029 276.5,-169.7 276.5,-169.7 276.5,-169.7 272.7931,-171.2029 275.1474,-166.3637 269.0861,-172.7057 269.0861,-172.7057"/>
<ellipse fill="none" stroke="#000000" cx="266.1205" cy="-173.908" rx="3.2" ry="3.2"/>
</g>
<!-- leads&#45;&gt;personas -->
<g id="edge7" class="edge">
<title>leads:w&#45;&gt;personas:e</title>
<path fill="none" stroke="#000000" d="M262.4196,-129.4639C247.1297,-140.375 255.9265,-172.4644 235,-191.7 207.9258,-216.5864 198.2743,-229.7 161.5,-229.7"/>
<polygon fill="#000000" stroke="#000000" points="268.7714,-127.766 277.4297,-129.1779 272.6357,-126.733 276.5,-125.7 276.5,-125.7 276.5,-125.7 272.6357,-126.733 275.5703,-122.2221 268.7714,-127.766 268.7714,-127.766"/>
<ellipse fill="none" stroke="#000000" cx="265.6799" cy="-128.5924" rx="3.2" ry="3.2"/>
</g>
<!-- campanas -->
<g id="node8" class="node">
<title>campanas</title>
<g id="a_node8"><a xlink:href="../../tables/campanas.html" xlink:title="campanas" target="_top">
<polygon fill="#ffffff" stroke="transparent" points="71,-120.2 71,-181.2 164,-181.2 164,-120.2 71,-120.2"/>
<polygon fill="#f5f5f5" stroke="transparent" points="71.5,-157.7 71.5,-180.7 164.5,-180.7 164.5,-157.7 71.5,-157.7"/>
<polygon fill="none" stroke="#000000" points="71.5,-157.7 71.5,-180.7 164.5,-180.7 164.5,-157.7 71.5,-157.7"/>
<text text-anchor="start" x="76.1318" y="-166.8" font-family="Helvetica,sans-Serif" font-weight="bold" font-size="11.00" fill="#000000">campanas</text>
<text text-anchor="start" x="130.0219" y="-165.8" font-family="Helvetica,sans-Serif" font-size="11.00" fill="#000000">[table]</text>
<polygon fill="none" stroke="#000000" points="71.5,-138.7 71.5,-157.7 164.5,-157.7 164.5,-138.7 71.5,-138.7"/>
<text text-anchor="start" x="74.5" y="-144.8" font-family="Helvetica,sans-Serif" font-size="11.00" fill="#000000">...</text>
<polygon fill="#ffffff" stroke="transparent" points="71.5,-119.7 71.5,-138.7 94.5,-138.7 94.5,-119.7 71.5,-119.7"/>
<polygon fill="none" stroke="#000000" points="71.5,-119.7 71.5,-138.7 94.5,-138.7 94.5,-119.7 71.5,-119.7"/>
<text text-anchor="start" x="74.5" y="-125.8" font-family="Helvetica,sans-Serif" font-size="11.00" fill="#000000"> &#160;</text>
<polygon fill="#ffffff" stroke="transparent" points="94.5,-119.7 94.5,-138.7 137.5,-138.7 137.5,-119.7 94.5,-119.7"/>
<polygon fill="none" stroke="#000000" points="94.5,-119.7 94.5,-138.7 137.5,-138.7 137.5,-119.7 94.5,-119.7"/>
<text text-anchor="start" x="102.1105" y="-125.8" font-family="Helvetica,sans-Serif" font-size="11.00" fill="#000000">0 rows</text>
<polygon fill="#ffffff" stroke="transparent" points="137.5,-119.7 137.5,-138.7 164.5,-138.7 164.5,-119.7 137.5,-119.7"/>
<polygon fill="none" stroke="#000000" points="137.5,-119.7 137.5,-138.7 164.5,-138.7 164.5,-119.7 137.5,-119.7"/>
<text text-anchor="start" x="145.9053" y="-125.8" font-family="Helvetica,sans-Serif" font-size="11.00" fill="#000000">3 &gt;</text>
</a>
</g>
</g>
<!-- leads&#45;&gt;campanas -->
<g id="edge5" class="edge">
<title>leads:w&#45;&gt;campanas:e</title>
<path fill="none" stroke="#000000" stroke-dasharray="5,2" d="M261.9083,-147.7C223.6819,-147.7 209.0278,-147.7 164.5,-147.7"/>
<polygon fill="#000000" stroke="#000000" points="268.5,-147.7001 276.5,-151.3 272.5,-147.7 276.5,-147.7 276.5,-147.7 276.5,-147.7 272.5,-147.7 276.5,-144.1 268.5,-147.7001 268.5,-147.7001"/>
<ellipse fill="none" stroke="#000000" cx="265.3" cy="-147.7001" rx="3.2" ry="3.2"/>
</g>
<!-- cursos -->
<g id="node9" class="node">
<title>cursos</title>
<g id="a_node9"><a xlink:href="../../tables/cursos.html" xlink:title="cursos" target="_top">
<polygon fill="#ffffff" stroke="transparent" points="80,-38.2 80,-99.2 155,-99.2 155,-38.2 80,-38.2"/>
<polygon fill="#f5f5f5" stroke="transparent" points="80.5,-75.7 80.5,-98.7 155.5,-98.7 155.5,-75.7 80.5,-75.7"/>
<polygon fill="none" stroke="#000000" points="80.5,-75.7 80.5,-98.7 155.5,-98.7 155.5,-75.7 80.5,-75.7"/>
<text text-anchor="start" x="85.3042" y="-84.8" font-family="Helvetica,sans-Serif" font-weight="bold" font-size="11.00" fill="#000000">cursos</text>
<text text-anchor="start" x="121.0219" y="-83.8" font-family="Helvetica,sans-Serif" font-size="11.00" fill="#000000">[table]</text>
<polygon fill="none" stroke="#000000" points="80.5,-56.7 80.5,-75.7 155.5,-75.7 155.5,-56.7 80.5,-56.7"/>
<text text-anchor="start" x="83.5" y="-62.8" font-family="Helvetica,sans-Serif" font-size="11.00" fill="#000000">...</text>
<polygon fill="#ffffff" stroke="transparent" points="80.5,-37.7 80.5,-56.7 94.5,-56.7 94.5,-37.7 80.5,-37.7"/>
<polygon fill="none" stroke="#000000" points="80.5,-37.7 80.5,-56.7 94.5,-56.7 94.5,-37.7 80.5,-37.7"/>
<text text-anchor="start" x="83.5" y="-43.8" font-family="Helvetica,sans-Serif" font-size="11.00" fill="#000000"> &#160;</text>
<polygon fill="#ffffff" stroke="transparent" points="94.5,-37.7 94.5,-56.7 133.5,-56.7 133.5,-37.7 94.5,-37.7"/>
<polygon fill="none" stroke="#000000" points="94.5,-37.7 94.5,-56.7 133.5,-56.7 133.5,-37.7 94.5,-37.7"/>
<text text-anchor="start" x="98.1105" y="-43.8" font-family="Helvetica,sans-Serif" font-size="11.00" fill="#000000">0 rows</text>
<polygon fill="#ffffff" stroke="transparent" points="133.5,-37.7 133.5,-56.7 155.5,-56.7 155.5,-37.7 133.5,-37.7"/>
<polygon fill="none" stroke="#000000" points="133.5,-37.7 133.5,-56.7 155.5,-56.7 155.5,-37.7 133.5,-37.7"/>
<text text-anchor="start" x="136.9053" y="-43.8" font-family="Helvetica,sans-Serif" font-size="11.00" fill="#000000">1 &gt;</text>
</a>
</g>
</g>
<!-- leads&#45;&gt;cursos -->
<g id="edge6" class="edge">
<title>leads:w&#45;&gt;cursos:e</title>
<path fill="none" stroke="#000000" stroke-dasharray="5,2" d="M262.1186,-102.7981C218.2098,-97.0437 206.6931,-65.7 155.5,-65.7"/>
<polygon fill="#000000" stroke="#000000" points="268.5157,-103.1993 276.2747,-107.2929 272.5078,-103.4496 276.5,-103.7 276.5,-103.7 276.5,-103.7 272.5078,-103.4496 276.7253,-100.1071 268.5157,-103.1993 268.5157,-103.1993"/>
<ellipse fill="none" stroke="#000000" cx="265.322" cy="-102.999" rx="3.2" ry="3.2"/>
</g>
<!-- tareas -->
<g id="node10" class="node">
<title>tareas</title>
<g id="a_node10"><a xlink:href="../../tables/tareas.html" xlink:title="tareas" target="_top">
<polygon fill="#ffffff" stroke="transparent" points="276,-395.2 276,-500.2 399,-500.2 399,-395.2 276,-395.2"/>
<polygon fill="#f5f5f5" stroke="transparent" points="276.5,-476.7 276.5,-499.7 399.5,-499.7 399.5,-476.7 276.5,-476.7"/>
<polygon fill="none" stroke="#000000" points="276.5,-476.7 276.5,-499.7 399.5,-499.7 399.5,-476.7 276.5,-476.7"/>
<text text-anchor="start" x="281.5" y="-485.8" font-family="Helvetica,sans-Serif" font-weight="bold" font-size="11.00" fill="#000000">tareas</text>
<text text-anchor="start" x="364.5437" y="-484.8" font-family="Helvetica,sans-Serif" font-size="11.00" fill="#000000">[table]</text>
<polygon fill="none" stroke="#000000" points="276.5,-454.7 276.5,-476.7 399.5,-476.7 399.5,-454.7 276.5,-454.7"/>
<image xlink:href="../../images/primaryKeys.png" width="11px" height="12px" preserveAspectRatio="xMinYMin meet" x="281.5" y="-471.7"/>
<text text-anchor="start" x="296.5" y="-461.8" font-family="Helvetica,sans-Serif" font-size="11.00" fill="#000000">tarea_id</text>
<polygon fill="none" stroke="#000000" points="276.5,-432.7 276.5,-454.7 399.5,-454.7 399.5,-432.7 276.5,-432.7"/>
<image xlink:href="../../images/foreignKeys.png" width="11px" height="12px" preserveAspectRatio="xMinYMin meet" x="281.5" y="-449.7"/>
<text text-anchor="start" x="296.5" y="-439.8" font-family="Helvetica,sans-Serif" font-size="11.00" fill="#000000">usu_asignado_id</text>
<polygon fill="none" stroke="#000000" points="276.5,-413.7 276.5,-432.7 399.5,-432.7 399.5,-413.7 276.5,-413.7"/>
<text text-anchor="start" x="279.5" y="-419.8" font-family="Helvetica,sans-Serif" font-size="11.00" fill="#000000">...</text>
<polygon fill="#ffffff" stroke="transparent" points="276.5,-394.7 276.5,-413.7 323.5,-413.7 323.5,-394.7 276.5,-394.7"/>
<polygon fill="none" stroke="#000000" points="276.5,-394.7 276.5,-413.7 323.5,-413.7 323.5,-394.7 276.5,-394.7"/>
<text text-anchor="start" x="279.5" y="-400.8" font-family="Helvetica,sans-Serif" font-size="11.00" fill="#000000">&lt; 1</text>
<polygon fill="#ffffff" stroke="transparent" points="323.5,-394.7 323.5,-413.7 374.5,-413.7 374.5,-394.7 323.5,-394.7"/>
<polygon fill="none" stroke="#000000" points="323.5,-394.7 323.5,-413.7 374.5,-413.7 374.5,-394.7 323.5,-394.7"/>
<text text-anchor="start" x="339.1105" y="-400.8" font-family="Helvetica,sans-Serif" font-size="11.00" fill="#000000">0 rows</text>
<polygon fill="#ffffff" stroke="transparent" points="374.5,-394.7 374.5,-413.7 399.5,-413.7 399.5,-394.7 374.5,-394.7"/>
<polygon fill="none" stroke="#000000" points="374.5,-394.7 374.5,-413.7 399.5,-413.7 399.5,-394.7 374.5,-394.7"/>
<text text-anchor="start" x="390.3862" y="-400.8" font-family="Helvetica,sans-Serif" font-size="11.00" fill="#000000"> &#160;</text>
</a>
</g>
</g>
<!-- tareas&#45;&gt;usuarios -->
<g id="edge11" class="edge">
<title>tareas:w&#45;&gt;usuarios:e</title>
<path fill="none" stroke="#000000" d="M262.4593,-447.2298C249.6546,-454.5484 245.3365,-470.7 225.5,-470.7"/>
<polygon fill="#000000" stroke="#000000" points="268.7414,-445.6505 277.3777,-447.1914 272.6207,-444.6753 276.5,-443.7 276.5,-443.7 276.5,-443.7 272.6207,-444.6753 275.6223,-440.2086 268.7414,-445.6505 268.7414,-445.6505"/>
<ellipse fill="none" stroke="#000000" cx="265.638" cy="-446.4307" rx="3.2" ry="3.2"/>
</g>
</g>
</svg>
