<?xml version="1.0" encoding="UTF-8" standalone="no"?>
<!DOCTYPE svg PUBLIC "-//W3C//DTD SVG 1.1//EN"
 "http://www.w3.org/Graphics/SVG/1.1/DTD/svg11.dtd">
<!-- Generated by graphviz version 2.40.1 (20161225.0304)
 -->
<!-- Title: oneDegreeRelationshipsDiagramImplied Pages: 1 -->
<svg width="587pt" height="649pt"
 viewBox="0.00 0.00 587.00 649.20" xmlns="http://www.w3.org/2000/svg" xmlns:xlink="http://www.w3.org/1999/xlink">
<g id="graph0" class="graph" transform="scale(1 1) rotate(0) translate(4 645.2)">
<title>oneDegreeRelationshipsDiagramImplied</title>
<polygon fill="#ffffff" stroke="transparent" points="-4,4 -4,-645.2 583,-645.2 583,4 -4,4"/>
<text text-anchor="middle" x="72.4936" y="-7.3" font-family="Helvetica,sans-Serif" font-size="11.00" fill="#000000">Generated by SchemaSpy</text>
<!-- casos -->
<g id="node1" class="node">
<title>casos</title>
<g id="a_node1"><a xlink:href="../../tables/casos.html" xlink:title="casos" target="_top">
<polygon fill="#ffffff" stroke="transparent" points="276,-532.2 276,-637.2 399,-637.2 399,-532.2 276,-532.2"/>
<polygon fill="#f5f5f5" stroke="transparent" points="276.5,-613.7 276.5,-636.7 399.5,-636.7 399.5,-613.7 276.5,-613.7"/>
<polygon fill="none" stroke="#000000" points="276.5,-613.7 276.5,-636.7 399.5,-636.7 399.5,-613.7 276.5,-613.7"/>
<text text-anchor="start" x="281.5" y="-622.8" font-family="Helvetica,sans-Serif" font-weight="bold" font-size="11.00" fill="#000000">casos</text>
<text text-anchor="start" x="364.5437" y="-621.8" font-family="Helvetica,sans-Serif" font-size="11.00" fill="#000000">[table]</text>
<polygon fill="none" stroke="#000000" points="276.5,-591.7 276.5,-613.7 399.5,-613.7 399.5,-591.7 276.5,-591.7"/>
<image xlink:href="../../images/primaryKeys.png" width="11px" height="12px" preserveAspectRatio="xMinYMin meet" x="281.5" y="-608.7"/>
<text text-anchor="start" x="296.5" y="-598.8" font-family="Helvetica,sans-Serif" font-size="11.00" fill="#000000">caso_id</text>
<polygon fill="none" stroke="#000000" points="276.5,-569.7 276.5,-591.7 399.5,-591.7 399.5,-569.7 276.5,-569.7"/>
<image xlink:href="../../images/foreignKeys.png" width="11px" height="12px" preserveAspectRatio="xMinYMin meet" x="281.5" y="-586.7"/>
<text text-anchor="start" x="296.5" y="-576.8" font-family="Helvetica,sans-Serif" font-size="11.00" fill="#000000">usu_asignado_id</text>
<polygon fill="none" stroke="#000000" points="276.5,-550.7 276.5,-569.7 399.5,-569.7 399.5,-550.7 276.5,-550.7"/>
<text text-anchor="start" x="279.5" y="-556.8" font-family="Helvetica,sans-Serif" font-size="11.00" fill="#000000">...</text>
<polygon fill="#ffffff" stroke="transparent" points="276.5,-531.7 276.5,-550.7 326.5,-550.7 326.5,-531.7 276.5,-531.7"/>
<polygon fill="none" stroke="#000000" points="276.5,-531.7 276.5,-550.7 326.5,-550.7 326.5,-531.7 276.5,-531.7"/>
<text text-anchor="start" x="279.5" y="-537.8" font-family="Helvetica,sans-Serif" font-size="11.00" fill="#000000">&lt; 1</text>
<polygon fill="#ffffff" stroke="transparent" points="326.5,-531.7 326.5,-550.7 372.5,-550.7 372.5,-531.7 326.5,-531.7"/>
<polygon fill="none" stroke="#000000" points="326.5,-531.7 326.5,-550.7 372.5,-550.7 372.5,-531.7 326.5,-531.7"/>
<text text-anchor="start" x="342.6105" y="-537.8" font-family="Helvetica,sans-Serif" font-size="11.00" fill="#000000">1 row</text>
<polygon fill="#ffffff" stroke="transparent" points="372.5,-531.7 372.5,-550.7 399.5,-550.7 399.5,-531.7 372.5,-531.7"/>
<polygon fill="none" stroke="#000000" points="372.5,-531.7 372.5,-550.7 399.5,-550.7 399.5,-531.7 372.5,-531.7"/>
<text text-anchor="start" x="390.3862" y="-537.8" font-family="Helvetica,sans-Serif" font-size="11.00" fill="#000000"> &#160;</text>
</a>
</g>
</g>
<!-- usuarios -->
<g id="node2" class="node">
<title>usuarios</title>
<g id="a_node2"><a xlink:href="../../tables/usuarios.html" xlink:title="usuarios" target="_top">
<polygon fill="#ffffff" stroke="transparent" points="8,-120.7 8,-342.7 227,-342.7 227,-120.7 8,-120.7"/>
<polygon fill="#f5f5f5" stroke="transparent" points="10.5,-317.7 10.5,-340.7 225.5,-340.7 225.5,-317.7 10.5,-317.7"/>
<polygon fill="none" stroke="#000000" points="10.5,-317.7 10.5,-340.7 225.5,-340.7 225.5,-317.7 10.5,-317.7"/>
<text text-anchor="start" x="15.5" y="-326.8" font-family="Helvetica,sans-Serif" font-weight="bold" font-size="11.00" fill="#000000">usuarios</text>
<text text-anchor="start" x="190.5437" y="-325.8" font-family="Helvetica,sans-Serif" font-size="11.00" fill="#000000">[table]</text>
<polygon fill="none" stroke="#000000" points="10.5,-295.7 10.5,-317.7 133.5,-317.7 133.5,-295.7 10.5,-295.7"/>
<image xlink:href="../../images/primaryKeys.png" width="11px" height="12px" preserveAspectRatio="xMinYMin meet" x="15.5" y="-312.7"/>
<text text-anchor="start" x="30.5" y="-302.8" font-family="Helvetica,sans-Serif" font-size="11.00" fill="#000000">usuario_id</text>
<polygon fill="none" stroke="#000000" points="133.5,-295.7 133.5,-317.7 225.5,-317.7 225.5,-295.7 133.5,-295.7"/>
<text text-anchor="start" x="136.5" y="-303.4" font-family="Helvetica,sans-Serif" font-size="11.00" fill="#000000">serial[10]</text>
<polygon fill="#ffffff" stroke="transparent" points="10.5,-273.7 10.5,-295.7 133.5,-295.7 133.5,-273.7 10.5,-273.7"/>
<polygon fill="none" stroke="#000000" points="10.5,-273.7 10.5,-295.7 133.5,-295.7 133.5,-273.7 10.5,-273.7"/>
<text text-anchor="start" x="30.5" y="-280.8" font-family="Helvetica,sans-Serif" font-size="11.00" fill="#000000">nom_usuario</text>
<polygon fill="none" stroke="#000000" points="133.5,-273.7 133.5,-295.7 225.5,-295.7 225.5,-273.7 133.5,-273.7"/>
<text text-anchor="start" x="136.5" y="-281.4" font-family="Helvetica,sans-Serif" font-size="11.00" fill="#000000">varchar[20]</text>
<polygon fill="none" stroke="#000000" points="10.5,-251.7 10.5,-273.7 133.5,-273.7 133.5,-251.7 10.5,-251.7"/>
<text text-anchor="start" x="30.5" y="-258.8" font-family="Helvetica,sans-Serif" font-size="11.00" fill="#000000">password</text>
<polygon fill="none" stroke="#000000" points="133.5,-251.7 133.5,-273.7 225.5,-273.7 225.5,-251.7 133.5,-251.7"/>
<text text-anchor="start" x="136.5" y="-259.4" font-family="Helvetica,sans-Serif" font-size="11.00" fill="#000000">varchar[255]</text>
<polygon fill="none" stroke="#000000" points="10.5,-229.7 10.5,-251.7 133.5,-251.7 133.5,-229.7 10.5,-229.7"/>
<text text-anchor="start" x="30.5" y="-236.8" font-family="Helvetica,sans-Serif" font-size="11.00" fill="#000000">email</text>
<polygon fill="none" stroke="#000000" points="133.5,-229.7 133.5,-251.7 225.5,-251.7 225.5,-229.7 133.5,-229.7"/>
<text text-anchor="start" x="136.5" y="-237.4" font-family="Helvetica,sans-Serif" font-size="11.00" fill="#000000">varchar[60]</text>
<polygon fill="none" stroke="#000000" points="10.5,-207.7 10.5,-229.7 133.5,-229.7 133.5,-207.7 10.5,-207.7"/>
<text text-anchor="start" x="30.5" y="-214.8" font-family="Helvetica,sans-Serif" font-size="11.00" fill="#000000">usu_insercion</text>
<polygon fill="none" stroke="#000000" points="133.5,-207.7 133.5,-229.7 225.5,-229.7 225.5,-207.7 133.5,-207.7"/>
<text text-anchor="start" x="136.5" y="-215.4" font-family="Helvetica,sans-Serif" font-size="11.00" fill="#000000">varchar[20]</text>
<polygon fill="none" stroke="#000000" points="10.5,-185.7 10.5,-207.7 133.5,-207.7 133.5,-185.7 10.5,-185.7"/>
<text text-anchor="start" x="30.5" y="-192.8" font-family="Helvetica,sans-Serif" font-size="11.00" fill="#000000">fec_insercion</text>
<polygon fill="none" stroke="#000000" points="133.5,-185.7 133.5,-207.7 225.5,-207.7 225.5,-185.7 133.5,-185.7"/>
<text text-anchor="start" x="136.1023" y="-193.4" font-family="Helvetica,sans-Serif" font-size="11.00" fill="#000000">timestamptz[35,6]</text>
<polygon fill="none" stroke="#000000" points="10.5,-163.7 10.5,-185.7 133.5,-185.7 133.5,-163.7 10.5,-163.7"/>
<text text-anchor="start" x="30.5" y="-170.8" font-family="Helvetica,sans-Serif" font-size="11.00" fill="#000000">fec_modificacion</text>
<polygon fill="none" stroke="#000000" points="133.5,-163.7 133.5,-185.7 225.5,-185.7 225.5,-163.7 133.5,-163.7"/>
<text text-anchor="start" x="136.1023" y="-171.4" font-family="Helvetica,sans-Serif" font-size="11.00" fill="#000000">timestamptz[35,6]</text>
<polygon fill="none" stroke="#000000" points="10.5,-141.7 10.5,-163.7 133.5,-163.7 133.5,-141.7 10.5,-141.7"/>
<text text-anchor="start" x="30.5" y="-148.8" font-family="Helvetica,sans-Serif" font-size="11.00" fill="#000000">usu_modificacion</text>
<polygon fill="none" stroke="#000000" points="133.5,-141.7 133.5,-163.7 225.5,-163.7 225.5,-141.7 133.5,-141.7"/>
<text text-anchor="start" x="136.5" y="-149.4" font-family="Helvetica,sans-Serif" font-size="11.00" fill="#000000">varchar[20]</text>
<polygon fill="#ffffff" stroke="transparent" points="10.5,-122.7 10.5,-141.7 60.5,-141.7 60.5,-122.7 10.5,-122.7"/>
<polygon fill="none" stroke="#000000" points="10.5,-122.7 10.5,-141.7 60.5,-141.7 60.5,-122.7 10.5,-122.7"/>
<text text-anchor="start" x="13.5" y="-128.8" font-family="Helvetica,sans-Serif" font-size="11.00" fill="#000000">&lt; 0</text>
<polygon fill="#ffffff" stroke="transparent" points="60.5,-122.7 60.5,-141.7 133.5,-141.7 133.5,-122.7 60.5,-122.7"/>
<polygon fill="none" stroke="#000000" points="60.5,-122.7 60.5,-141.7 133.5,-141.7 133.5,-122.7 60.5,-122.7"/>
<text text-anchor="start" x="91.9956" y="-128.8" font-family="Helvetica,sans-Serif" font-size="11.00" fill="#000000">22 rows</text>
<polygon fill="#ffffff" stroke="transparent" points="133.5,-122.7 133.5,-141.7 225.5,-141.7 225.5,-122.7 133.5,-122.7"/>
<polygon fill="none" stroke="#000000" points="133.5,-122.7 133.5,-141.7 225.5,-141.7 225.5,-122.7 133.5,-122.7"/>
<text text-anchor="start" x="206.9053" y="-128.8" font-family="Helvetica,sans-Serif" font-size="11.00" fill="#000000">5 &gt;</text>
<polygon fill="none" stroke="#000000" stroke-width="2" points="9,-121.7 9,-341.7 226,-341.7 226,-121.7 9,-121.7"/>
</a>
</g>
</g>
<!-- casos&#45;&gt;usuarios -->
<g id="edge1" class="edge">
<title>casos:w&#45;&gt;usuarios:e</title>
<path fill="none" stroke="#000000" d="M263.1105,-574.7223C226.3331,-534.6525 281.9912,-306.7 225.5,-306.7"/>
<polygon fill="#000000" stroke="#000000" points="269.1949,-577.4386 275.0324,-583.9873 272.8475,-579.0693 276.5,-580.7 276.5,-580.7 276.5,-580.7 272.8475,-579.0693 277.9676,-577.4127 269.1949,-577.4386 269.1949,-577.4386"/>
<ellipse fill="none" stroke="#000000" cx="266.2729" cy="-576.1341" rx="3.2" ry="3.2"/>
</g>
<!-- empleados -->
<g id="node3" class="node">
<title>empleados</title>
<g id="a_node3"><a xlink:href="../../tables/empleados.html" xlink:title="empleados" target="_top">
<polygon fill="#ffffff" stroke="transparent" points="276,-384.2 276,-511.2 399,-511.2 399,-384.2 276,-384.2"/>
<polygon fill="#f5f5f5" stroke="transparent" points="276.5,-487.7 276.5,-510.7 399.5,-510.7 399.5,-487.7 276.5,-487.7"/>
<polygon fill="none" stroke="#000000" points="276.5,-487.7 276.5,-510.7 399.5,-510.7 399.5,-487.7 276.5,-487.7"/>
<text text-anchor="start" x="281.5" y="-496.8" font-family="Helvetica,sans-Serif" font-weight="bold" font-size="11.00" fill="#000000">empleados</text>
<text text-anchor="start" x="364.5437" y="-495.8" font-family="Helvetica,sans-Serif" font-size="11.00" fill="#000000">[table]</text>
<polygon fill="none" stroke="#000000" points="276.5,-465.7 276.5,-487.7 399.5,-487.7 399.5,-465.7 276.5,-465.7"/>
<image xlink:href="../../images/primaryKeys.png" width="11px" height="12px" preserveAspectRatio="xMinYMin meet" x="281.5" y="-482.7"/>
<text text-anchor="start" x="296.5" y="-472.8" font-family="Helvetica,sans-Serif" font-size="11.00" fill="#000000">empleado_id</text>
<polygon fill="none" stroke="#000000" points="276.5,-443.7 276.5,-465.7 399.5,-465.7 399.5,-443.7 276.5,-443.7"/>
<image xlink:href="../../images/foreignKeys.png" width="11px" height="12px" preserveAspectRatio="xMinYMin meet" x="281.5" y="-460.7"/>
<text text-anchor="start" x="296.5" y="-450.8" font-family="Helvetica,sans-Serif" font-size="11.00" fill="#000000">persona_id</text>
<polygon fill="none" stroke="#000000" points="276.5,-421.7 276.5,-443.7 399.5,-443.7 399.5,-421.7 276.5,-421.7"/>
<image xlink:href="../../images/foreignKeys.png" width="11px" height="12px" preserveAspectRatio="xMinYMin meet" x="281.5" y="-438.7"/>
<text text-anchor="start" x="296.5" y="-428.8" font-family="Helvetica,sans-Serif" font-size="11.00" fill="#000000">usuario_id</text>
<polygon fill="none" stroke="#000000" points="276.5,-402.7 276.5,-421.7 399.5,-421.7 399.5,-402.7 276.5,-402.7"/>
<text text-anchor="start" x="279.5" y="-408.8" font-family="Helvetica,sans-Serif" font-size="11.00" fill="#000000">...</text>
<polygon fill="#ffffff" stroke="transparent" points="276.5,-383.7 276.5,-402.7 320.5,-402.7 320.5,-383.7 276.5,-383.7"/>
<polygon fill="none" stroke="#000000" points="276.5,-383.7 276.5,-402.7 320.5,-402.7 320.5,-383.7 276.5,-383.7"/>
<text text-anchor="start" x="279.5" y="-389.8" font-family="Helvetica,sans-Serif" font-size="11.00" fill="#000000">&lt; 2</text>
<polygon fill="#ffffff" stroke="transparent" points="320.5,-383.7 320.5,-402.7 375.5,-402.7 375.5,-383.7 320.5,-383.7"/>
<polygon fill="none" stroke="#000000" points="320.5,-383.7 320.5,-402.7 375.5,-402.7 375.5,-383.7 320.5,-383.7"/>
<text text-anchor="start" x="333.9956" y="-389.8" font-family="Helvetica,sans-Serif" font-size="11.00" fill="#000000">17 rows</text>
<polygon fill="#ffffff" stroke="transparent" points="375.5,-383.7 375.5,-402.7 399.5,-402.7 399.5,-383.7 375.5,-383.7"/>
<polygon fill="none" stroke="#000000" points="375.5,-383.7 375.5,-402.7 399.5,-402.7 399.5,-383.7 375.5,-383.7"/>
<text text-anchor="start" x="390.3862" y="-389.8" font-family="Helvetica,sans-Serif" font-size="11.00" fill="#000000"> &#160;</text>
</a>
</g>
</g>
<!-- empleados&#45;&gt;usuarios -->
<g id="edge2" class="edge">
<title>empleados:w&#45;&gt;usuarios:e</title>
<path fill="none" stroke="#000000" d="M262.2844,-429.3298C228.4826,-409.2923 280.0136,-306.7 225.5,-306.7"/>
<polygon fill="#000000" stroke="#000000" points="268.7158,-430.8545 275.6695,-436.2029 272.6079,-431.7772 276.5,-432.7 276.5,-432.7 276.5,-432.7 272.6079,-431.7772 277.3305,-429.1971 268.7158,-430.8545 268.7158,-430.8545"/>
<ellipse fill="none" stroke="#000000" cx="265.6021" cy="-430.1163" rx="3.2" ry="3.2"/>
</g>
<!-- leads -->
<g id="node4" class="node">
<title>leads</title>
<g id="a_node4"><a xlink:href="../../tables/leads.html" xlink:title="leads" target="_top">
<polygon fill="#ffffff" stroke="transparent" points="276,-192.2 276,-363.2 399,-363.2 399,-192.2 276,-192.2"/>
<polygon fill="#f5f5f5" stroke="transparent" points="276.5,-339.7 276.5,-362.7 399.5,-362.7 399.5,-339.7 276.5,-339.7"/>
<polygon fill="none" stroke="#000000" points="276.5,-339.7 276.5,-362.7 399.5,-362.7 399.5,-339.7 276.5,-339.7"/>
<text text-anchor="start" x="281.5" y="-348.8" font-family="Helvetica,sans-Serif" font-weight="bold" font-size="11.00" fill="#000000">leads</text>
<text text-anchor="start" x="364.5437" y="-347.8" font-family="Helvetica,sans-Serif" font-size="11.00" fill="#000000">[table]</text>
<polygon fill="none" stroke="#000000" points="276.5,-317.7 276.5,-339.7 399.5,-339.7 399.5,-317.7 276.5,-317.7"/>
<image xlink:href="../../images/primaryKeys.png" width="11px" height="12px" preserveAspectRatio="xMinYMin meet" x="281.5" y="-334.7"/>
<text text-anchor="start" x="296.5" y="-324.8" font-family="Helvetica,sans-Serif" font-size="11.00" fill="#000000">lead_id</text>
<polygon fill="none" stroke="#000000" points="276.5,-295.7 276.5,-317.7 399.5,-317.7 399.5,-295.7 276.5,-295.7"/>
<image xlink:href="../../images/foreignKeys.png" width="11px" height="12px" preserveAspectRatio="xMinYMin meet" x="281.5" y="-312.7"/>
<text text-anchor="start" x="296.5" y="-302.8" font-family="Helvetica,sans-Serif" font-size="11.00" fill="#000000">usu_asignado_id</text>
<polygon fill="none" stroke="#000000" points="276.5,-273.7 276.5,-295.7 399.5,-295.7 399.5,-273.7 276.5,-273.7"/>
<image xlink:href="../../images/foreignKeys.png" width="11px" height="12px" preserveAspectRatio="xMinYMin meet" x="281.5" y="-290.7"/>
<text text-anchor="start" x="296.5" y="-280.8" font-family="Helvetica,sans-Serif" font-size="11.00" fill="#000000">campana_id</text>
<polygon fill="none" stroke="#000000" points="276.5,-251.7 276.5,-273.7 399.5,-273.7 399.5,-251.7 276.5,-251.7"/>
<image xlink:href="../../images/foreignKeys.png" width="11px" height="12px" preserveAspectRatio="xMinYMin meet" x="281.5" y="-268.7"/>
<text text-anchor="start" x="296.5" y="-258.8" font-family="Helvetica,sans-Serif" font-size="11.00" fill="#000000">persona_id</text>
<polygon fill="none" stroke="#000000" points="276.5,-229.7 276.5,-251.7 399.5,-251.7 399.5,-229.7 276.5,-229.7"/>
<image xlink:href="../../images/foreignKeys.png" width="11px" height="12px" preserveAspectRatio="xMinYMin meet" x="281.5" y="-246.7"/>
<text text-anchor="start" x="296.5" y="-236.8" font-family="Helvetica,sans-Serif" font-size="11.00" fill="#000000">curso_id</text>
<polygon fill="none" stroke="#000000" points="276.5,-210.7 276.5,-229.7 399.5,-229.7 399.5,-210.7 276.5,-210.7"/>
<text text-anchor="start" x="279.5" y="-216.8" font-family="Helvetica,sans-Serif" font-size="11.00" fill="#000000">...</text>
<polygon fill="#ffffff" stroke="transparent" points="276.5,-191.7 276.5,-210.7 318.5,-210.7 318.5,-191.7 276.5,-191.7"/>
<polygon fill="none" stroke="#000000" points="276.5,-191.7 276.5,-210.7 318.5,-210.7 318.5,-191.7 276.5,-191.7"/>
<text text-anchor="start" x="279.5" y="-197.8" font-family="Helvetica,sans-Serif" font-size="11.00" fill="#000000">&lt; 2</text>
<polygon fill="#ffffff" stroke="transparent" points="318.5,-191.7 318.5,-210.7 367.5,-210.7 367.5,-191.7 318.5,-191.7"/>
<polygon fill="none" stroke="#000000" points="318.5,-191.7 318.5,-210.7 367.5,-210.7 367.5,-191.7 318.5,-191.7"/>
<text text-anchor="start" x="332.1105" y="-197.8" font-family="Helvetica,sans-Serif" font-size="11.00" fill="#000000">0 rows</text>
<polygon fill="#ffffff" stroke="transparent" points="367.5,-191.7 367.5,-210.7 399.5,-210.7 399.5,-191.7 367.5,-191.7"/>
<polygon fill="none" stroke="#000000" points="367.5,-191.7 367.5,-210.7 399.5,-210.7 399.5,-191.7 367.5,-191.7"/>
<text text-anchor="start" x="380.9053" y="-197.8" font-family="Helvetica,sans-Serif" font-size="11.00" fill="#000000">1 &gt;</text>
</a>
</g>
</g>
<!-- leads&#45;&gt;usuarios -->
<g id="edge3" class="edge">
<title>leads:w&#45;&gt;usuarios:e</title>
<path fill="none" stroke="#000000" d="M261.776,-306.7C249.7815,-306.7 242.3229,-306.7 225.5,-306.7"/>
<polygon fill="#000000" stroke="#000000" points="268.5,-306.7001 276.5,-310.3 272.5,-306.7 276.5,-306.7 276.5,-306.7 276.5,-306.7 272.5,-306.7 276.5,-303.1 268.5,-306.7001 268.5,-306.7001"/>
<ellipse fill="none" stroke="#000000" cx="265.3" cy="-306.7001" rx="3.2" ry="3.2"/>
</g>
<!-- oportunidades -->
<g id="node5" class="node">
<title>oportunidades</title>
<g id="a_node5"><a xlink:href="../../tables/oportunidades.html" xlink:title="oportunidades" target="_top">
<polygon fill="#ffffff" stroke="transparent" points="448,-188.2 448,-315.2 571,-315.2 571,-188.2 448,-188.2"/>
<polygon fill="#f5f5f5" stroke="transparent" points="448.5,-291.7 448.5,-314.7 571.5,-314.7 571.5,-291.7 448.5,-291.7"/>
<polygon fill="none" stroke="#000000" points="448.5,-291.7 448.5,-314.7 571.5,-314.7 571.5,-291.7 448.5,-291.7"/>
<text text-anchor="start" x="453.5" y="-300.8" font-family="Helvetica,sans-Serif" font-weight="bold" font-size="11.00" fill="#000000">oportunidades</text>
<text text-anchor="start" x="536.5437" y="-299.8" font-family="Helvetica,sans-Serif" font-size="11.00" fill="#000000">[table]</text>
<polygon fill="none" stroke="#000000" points="448.5,-269.7 448.5,-291.7 571.5,-291.7 571.5,-269.7 448.5,-269.7"/>
<image xlink:href="../../images/primaryKeys.png" width="11px" height="12px" preserveAspectRatio="xMinYMin meet" x="453.5" y="-286.7"/>
<text text-anchor="start" x="468.5" y="-276.8" font-family="Helvetica,sans-Serif" font-size="11.00" fill="#000000">oportunidad_id</text>
<polygon fill="none" stroke="#000000" points="448.5,-247.7 448.5,-269.7 571.5,-269.7 571.5,-247.7 448.5,-247.7"/>
<image xlink:href="../../images/foreignKeys.png" width="11px" height="12px" preserveAspectRatio="xMinYMin meet" x="453.5" y="-264.7"/>
<text text-anchor="start" x="468.5" y="-254.8" font-family="Helvetica,sans-Serif" font-size="11.00" fill="#000000">lead_id</text>
<polygon fill="none" stroke="#000000" points="448.5,-225.7 448.5,-247.7 571.5,-247.7 571.5,-225.7 448.5,-225.7"/>
<image xlink:href="../../images/foreignKeys.png" width="11px" height="12px" preserveAspectRatio="xMinYMin meet" x="453.5" y="-242.7"/>
<text text-anchor="start" x="468.5" y="-232.8" font-family="Helvetica,sans-Serif" font-size="11.00" fill="#000000">usu_asignado_id</text>
<polygon fill="none" stroke="#000000" points="448.5,-206.7 448.5,-225.7 571.5,-225.7 571.5,-206.7 448.5,-206.7"/>
<text text-anchor="start" x="451.5" y="-212.8" font-family="Helvetica,sans-Serif" font-size="11.00" fill="#000000">...</text>
<polygon fill="#ffffff" stroke="transparent" points="448.5,-187.7 448.5,-206.7 490.5,-206.7 490.5,-187.7 448.5,-187.7"/>
<polygon fill="none" stroke="#000000" points="448.5,-187.7 448.5,-206.7 490.5,-206.7 490.5,-187.7 448.5,-187.7"/>
<text text-anchor="start" x="451.5" y="-193.8" font-family="Helvetica,sans-Serif" font-size="11.00" fill="#000000">&lt; 2</text>
<polygon fill="#ffffff" stroke="transparent" points="490.5,-187.7 490.5,-206.7 539.5,-206.7 539.5,-187.7 490.5,-187.7"/>
<polygon fill="none" stroke="#000000" points="490.5,-187.7 490.5,-206.7 539.5,-206.7 539.5,-187.7 490.5,-187.7"/>
<text text-anchor="start" x="504.1105" y="-193.8" font-family="Helvetica,sans-Serif" font-size="11.00" fill="#000000">0 rows</text>
<polygon fill="#ffffff" stroke="transparent" points="539.5,-187.7 539.5,-206.7 571.5,-206.7 571.5,-187.7 539.5,-187.7"/>
<polygon fill="none" stroke="#000000" points="539.5,-187.7 539.5,-206.7 571.5,-206.7 571.5,-187.7 539.5,-187.7"/>
<text text-anchor="start" x="552.9053" y="-193.8" font-family="Helvetica,sans-Serif" font-size="11.00" fill="#000000">1 &gt;</text>
</a>
</g>
</g>
<!-- oportunidades&#45;&gt;usuarios -->
<g id="edge5" class="edge">
<title>oportunidades:w&#45;&gt;usuarios:e</title>
<path fill="none" stroke="#000000" d="M434.5611,-231.829C422.8968,-220.4896 428.6277,-192.4746 407,-181.7 351.7042,-154.1524 318.2247,-145.7281 268,-181.7 220.2947,-215.8675 284.1789,-306.7 225.5,-306.7"/>
<polygon fill="#000000" stroke="#000000" points="440.9478,-234.0609 447.3124,-240.0985 444.7239,-235.3804 448.5,-236.7 448.5,-236.7 448.5,-236.7 444.7239,-235.3804 449.6876,-233.3015 440.9478,-234.0609 440.9478,-234.0609"/>
<ellipse fill="none" stroke="#000000" cx="437.927" cy="-233.0052" rx="3.2" ry="3.2"/>
</g>
<!-- oportunidades&#45;&gt;leads -->
<g id="edge4" class="edge">
<title>oportunidades:w&#45;&gt;leads:e</title>
<path fill="none" stroke="#000000" d="M434.4782,-263.7342C417.62,-279.7846 431.2455,-328.7 399.5,-328.7"/>
<polygon fill="#000000" stroke="#000000" points="440.9706,-261.4033 449.7165,-262.0882 444.7353,-260.0517 448.5,-258.7 448.5,-258.7 448.5,-258.7 444.7353,-260.0517 447.2835,-255.3118 440.9706,-261.4033 440.9706,-261.4033"/>
<ellipse fill="none" stroke="#000000" cx="437.9588" cy="-262.4846" rx="3.2" ry="3.2"/>
</g>
<!-- tareas -->
<g id="node6" class="node">
<title>tareas</title>
<g id="a_node6"><a xlink:href="../../tables/tareas.html" xlink:title="tareas" target="_top">
<polygon fill="#ffffff" stroke="transparent" points="276,-38.2 276,-143.2 399,-143.2 399,-38.2 276,-38.2"/>
<polygon fill="#f5f5f5" stroke="transparent" points="276.5,-119.7 276.5,-142.7 399.5,-142.7 399.5,-119.7 276.5,-119.7"/>
<polygon fill="none" stroke="#000000" points="276.5,-119.7 276.5,-142.7 399.5,-142.7 399.5,-119.7 276.5,-119.7"/>
<text text-anchor="start" x="281.5" y="-128.8" font-family="Helvetica,sans-Serif" font-weight="bold" font-size="11.00" fill="#000000">tareas</text>
<text text-anchor="start" x="364.5437" y="-127.8" font-family="Helvetica,sans-Serif" font-size="11.00" fill="#000000">[table]</text>
<polygon fill="none" stroke="#000000" points="276.5,-97.7 276.5,-119.7 399.5,-119.7 399.5,-97.7 276.5,-97.7"/>
<image xlink:href="../../images/primaryKeys.png" width="11px" height="12px" preserveAspectRatio="xMinYMin meet" x="281.5" y="-114.7"/>
<text text-anchor="start" x="296.5" y="-104.8" font-family="Helvetica,sans-Serif" font-size="11.00" fill="#000000">tarea_id</text>
<polygon fill="none" stroke="#000000" points="276.5,-75.7 276.5,-97.7 399.5,-97.7 399.5,-75.7 276.5,-75.7"/>
<image xlink:href="../../images/foreignKeys.png" width="11px" height="12px" preserveAspectRatio="xMinYMin meet" x="281.5" y="-92.7"/>
<text text-anchor="start" x="296.5" y="-82.8" font-family="Helvetica,sans-Serif" font-size="11.00" fill="#000000">usu_asignado_id</text>
<polygon fill="none" stroke="#000000" points="276.5,-56.7 276.5,-75.7 399.5,-75.7 399.5,-56.7 276.5,-56.7"/>
<text text-anchor="start" x="279.5" y="-62.8" font-family="Helvetica,sans-Serif" font-size="11.00" fill="#000000">...</text>
<polygon fill="#ffffff" stroke="transparent" points="276.5,-37.7 276.5,-56.7 323.5,-56.7 323.5,-37.7 276.5,-37.7"/>
<polygon fill="none" stroke="#000000" points="276.5,-37.7 276.5,-56.7 323.5,-56.7 323.5,-37.7 276.5,-37.7"/>
<text text-anchor="start" x="279.5" y="-43.8" font-family="Helvetica,sans-Serif" font-size="11.00" fill="#000000">&lt; 1</text>
<polygon fill="#ffffff" stroke="transparent" points="323.5,-37.7 323.5,-56.7 374.5,-56.7 374.5,-37.7 323.5,-37.7"/>
<polygon fill="none" stroke="#000000" points="323.5,-37.7 323.5,-56.7 374.5,-56.7 374.5,-37.7 323.5,-37.7"/>
<text text-anchor="start" x="339.1105" y="-43.8" font-family="Helvetica,sans-Serif" font-size="11.00" fill="#000000">0 rows</text>
<polygon fill="#ffffff" stroke="transparent" points="374.5,-37.7 374.5,-56.7 399.5,-56.7 399.5,-37.7 374.5,-37.7"/>
<polygon fill="none" stroke="#000000" points="374.5,-37.7 374.5,-56.7 399.5,-56.7 399.5,-37.7 374.5,-37.7"/>
<text text-anchor="start" x="390.3862" y="-43.8" font-family="Helvetica,sans-Serif" font-size="11.00" fill="#000000"> &#160;</text>
</a>
</g>
</g>
<!-- tareas&#45;&gt;usuarios -->
<g id="edge6" class="edge">
<title>tareas:w&#45;&gt;usuarios:e</title>
<path fill="none" stroke="#000000" d="M262.1952,-88.6019C191.7593,-110.1045 320.3816,-306.7 225.5,-306.7"/>
<polygon fill="#000000" stroke="#000000" points="268.5698,-87.7544 276.9745,-90.2686 272.5349,-87.2272 276.5,-86.7 276.5,-86.7 276.5,-86.7 272.5349,-87.2272 276.0255,-83.1314 268.5698,-87.7544 268.5698,-87.7544"/>
<ellipse fill="none" stroke="#000000" cx="265.3977" cy="-88.1762" rx="3.2" ry="3.2"/>
</g>
</g>
</svg>
