<?xml version="1.0" encoding="UTF-8" standalone="no"?>
<!DOCTYPE svg PUBLIC "-//W3C//DTD SVG 1.1//EN"
 "http://www.w3.org/Graphics/SVG/1.1/DTD/svg11.dtd">
<!-- Generated by graphviz version 2.40.1 (20161225.0304)
 -->
<!-- Title: oneDegreeRelationshipsDiagramImplied Pages: 1 -->
<svg width="802pt" height="736pt"
 viewBox="0.00 0.00 802.00 736.20" xmlns="http://www.w3.org/2000/svg" xmlns:xlink="http://www.w3.org/1999/xlink">
<g id="graph0" class="graph" transform="scale(1 1) rotate(0) translate(4 732.2)">
<title>oneDegreeRelationshipsDiagramImplied</title>
<polygon fill="#ffffff" stroke="transparent" points="-4,4 -4,-732.2 798,-732.2 798,4 -4,4"/>
<text text-anchor="middle" x="72.4936" y="-7.3" font-family="Helvetica,sans-Serif" font-size="11.00" fill="#000000">Generated by SchemaSpy</text>
<!-- actividades -->
<g id="node1" class="node">
<title>actividades</title>
<g id="a_node1"><a xlink:href="../../tables/actividades.html" xlink:title="actividades" target="_top">
<polygon fill="#ffffff" stroke="transparent" points="457,-553.2 457,-724.2 597,-724.2 597,-553.2 457,-553.2"/>
<polygon fill="#f5f5f5" stroke="transparent" points="457,-700.7 457,-723.7 597,-723.7 597,-700.7 457,-700.7"/>
<polygon fill="none" stroke="#000000" points="457,-700.7 457,-723.7 597,-723.7 597,-700.7 457,-700.7"/>
<text text-anchor="start" x="462" y="-709.8" font-family="Helvetica,sans-Serif" font-weight="bold" font-size="11.00" fill="#000000">actividades</text>
<text text-anchor="start" x="562.0437" y="-708.8" font-family="Helvetica,sans-Serif" font-size="11.00" fill="#000000">[table]</text>
<polygon fill="none" stroke="#000000" points="457,-678.7 457,-700.7 597,-700.7 597,-678.7 457,-678.7"/>
<image xlink:href="../../images/primaryKeys.png" width="11px" height="12px" preserveAspectRatio="xMinYMin meet" x="462" y="-695.7"/>
<text text-anchor="start" x="477" y="-685.8" font-family="Helvetica,sans-Serif" font-size="11.00" fill="#000000">actividad_id</text>
<polygon fill="none" stroke="#000000" points="457,-656.7 457,-678.7 597,-678.7 597,-656.7 457,-656.7"/>
<image xlink:href="../../images/foreignKeys.png" width="11px" height="12px" preserveAspectRatio="xMinYMin meet" x="462" y="-673.7"/>
<text text-anchor="start" x="477" y="-663.8" font-family="Helvetica,sans-Serif" font-size="11.00" fill="#000000">usu_asignado_id</text>
<polygon fill="none" stroke="#000000" points="457,-634.7 457,-656.7 597,-656.7 597,-634.7 457,-634.7"/>
<image xlink:href="../../images/foreignKeys.png" width="11px" height="12px" preserveAspectRatio="xMinYMin meet" x="462" y="-651.7"/>
<text text-anchor="start" x="477" y="-641.8" font-family="Helvetica,sans-Serif" font-size="11.00" fill="#000000">usu_insercion_id</text>
<polygon fill="none" stroke="#000000" points="457,-612.7 457,-634.7 597,-634.7 597,-612.7 457,-612.7"/>
<image xlink:href="../../images/foreignKeys.png" width="11px" height="12px" preserveAspectRatio="xMinYMin meet" x="462" y="-629.7"/>
<text text-anchor="start" x="477" y="-619.8" font-family="Helvetica,sans-Serif" font-size="11.00" fill="#000000">usu_modificacion_id</text>
<polygon fill="none" stroke="#000000" points="457,-590.7 457,-612.7 597,-612.7 597,-590.7 457,-590.7"/>
<image xlink:href="../../images/foreignKeys.png" width="11px" height="12px" preserveAspectRatio="xMinYMin meet" x="462" y="-607.7"/>
<text text-anchor="start" x="477" y="-597.8" font-family="Helvetica,sans-Serif" font-size="11.00" fill="#000000">usu_eliminacion_id</text>
<polygon fill="none" stroke="#000000" points="457,-571.7 457,-590.7 597,-590.7 597,-571.7 457,-571.7"/>
<text text-anchor="start" x="460" y="-577.8" font-family="Helvetica,sans-Serif" font-size="11.00" fill="#000000">...</text>
<polygon fill="#ffffff" stroke="transparent" points="457,-552.7 457,-571.7 508,-571.7 508,-552.7 457,-552.7"/>
<polygon fill="none" stroke="#000000" points="457,-552.7 457,-571.7 508,-571.7 508,-552.7 457,-552.7"/>
<text text-anchor="start" x="460" y="-558.8" font-family="Helvetica,sans-Serif" font-size="11.00" fill="#000000">&lt; 4</text>
<polygon fill="#ffffff" stroke="transparent" points="508,-552.7 508,-571.7 561,-571.7 561,-552.7 508,-552.7"/>
<polygon fill="none" stroke="#000000" points="508,-552.7 508,-571.7 561,-571.7 561,-552.7 508,-552.7"/>
<text text-anchor="start" x="525.6105" y="-558.8" font-family="Helvetica,sans-Serif" font-size="11.00" fill="#000000">0 rows</text>
<polygon fill="#ffffff" stroke="transparent" points="561,-552.7 561,-571.7 597,-571.7 597,-552.7 561,-552.7"/>
<polygon fill="none" stroke="#000000" points="561,-552.7 561,-571.7 597,-571.7 597,-552.7 561,-552.7"/>
<text text-anchor="start" x="578.4053" y="-558.8" font-family="Helvetica,sans-Serif" font-size="11.00" fill="#000000">2 &gt;</text>
</a>
</g>
</g>
<!-- usuarios -->
<g id="node2" class="node">
<title>usuarios</title>
<g id="a_node2"><a xlink:href="../../tables/usuarios.html" xlink:title="usuarios" target="_top">
<polygon fill="#ffffff" stroke="transparent" points="180,-142.7 180,-408.7 408,-408.7 408,-142.7 180,-142.7"/>
<polygon fill="#f5f5f5" stroke="transparent" points="182,-383.7 182,-406.7 406,-406.7 406,-383.7 182,-383.7"/>
<polygon fill="none" stroke="#000000" points="182,-383.7 182,-406.7 406,-406.7 406,-383.7 182,-383.7"/>
<text text-anchor="start" x="187" y="-392.8" font-family="Helvetica,sans-Serif" font-weight="bold" font-size="11.00" fill="#000000">usuarios</text>
<text text-anchor="start" x="371.0437" y="-391.8" font-family="Helvetica,sans-Serif" font-size="11.00" fill="#000000">[table]</text>
<polygon fill="none" stroke="#000000" points="182,-361.7 182,-383.7 322,-383.7 322,-361.7 182,-361.7"/>
<image xlink:href="../../images/primaryKeys.png" width="11px" height="12px" preserveAspectRatio="xMinYMin meet" x="187" y="-378.7"/>
<text text-anchor="start" x="202" y="-368.8" font-family="Helvetica,sans-Serif" font-size="11.00" fill="#000000">usuario_id</text>
<polygon fill="none" stroke="#000000" points="322,-361.7 322,-383.7 406,-383.7 406,-361.7 322,-361.7"/>
<text text-anchor="start" x="325" y="-369.4" font-family="Helvetica,sans-Serif" font-size="11.00" fill="#000000">int4[10]</text>
<polygon fill="none" stroke="#000000" points="182,-339.7 182,-361.7 322,-361.7 322,-339.7 182,-339.7"/>
<image xlink:href="../../images/foreignKeys.png" width="11px" height="12px" preserveAspectRatio="xMinYMin meet" x="187" y="-356.7"/>
<text text-anchor="start" x="202" y="-346.8" font-family="Helvetica,sans-Serif" font-size="11.00" fill="#000000">persona_id</text>
<polygon fill="none" stroke="#000000" points="322,-339.7 322,-361.7 406,-361.7 406,-339.7 322,-339.7"/>
<text text-anchor="start" x="325" y="-347.4" font-family="Helvetica,sans-Serif" font-size="11.00" fill="#000000">int4[10]</text>
<polygon fill="none" stroke="#000000" points="182,-317.7 182,-339.7 322,-339.7 322,-317.7 182,-317.7"/>
<text text-anchor="start" x="202" y="-324.8" font-family="Helvetica,sans-Serif" font-size="11.00" fill="#000000">admin</text>
<polygon fill="none" stroke="#000000" points="322,-317.7 322,-339.7 406,-339.7 406,-317.7 322,-317.7"/>
<text text-anchor="start" x="325" y="-325.4" font-family="Helvetica,sans-Serif" font-size="11.00" fill="#000000">bool[1]</text>
<polygon fill="none" stroke="#000000" points="182,-295.7 182,-317.7 322,-317.7 322,-295.7 182,-295.7"/>
<text text-anchor="start" x="202" y="-302.8" font-family="Helvetica,sans-Serif" font-size="11.00" fill="#000000">activo</text>
<polygon fill="none" stroke="#000000" points="322,-295.7 322,-317.7 406,-317.7 406,-295.7 322,-295.7"/>
<text text-anchor="start" x="325" y="-303.4" font-family="Helvetica,sans-Serif" font-size="11.00" fill="#000000">bool[1]</text>
<polygon fill="none" stroke="#000000" points="182,-273.7 182,-295.7 322,-295.7 322,-273.7 182,-273.7"/>
<text text-anchor="start" x="202" y="-280.8" font-family="Helvetica,sans-Serif" font-size="11.00" fill="#000000">fec_insercion</text>
<polygon fill="none" stroke="#000000" points="322,-273.7 322,-295.7 406,-295.7 406,-273.7 322,-273.7"/>
<text text-anchor="start" x="324.8807" y="-281.4" font-family="Helvetica,sans-Serif" font-size="11.00" fill="#000000">timestamp[29,6]</text>
<polygon fill="none" stroke="#000000" points="182,-251.7 182,-273.7 322,-273.7 322,-251.7 182,-251.7"/>
<image xlink:href="../../images/foreignKeys.png" width="11px" height="12px" preserveAspectRatio="xMinYMin meet" x="187" y="-268.7"/>
<text text-anchor="start" x="202" y="-258.8" font-family="Helvetica,sans-Serif" font-size="11.00" fill="#000000">usu_insercion_id</text>
<polygon fill="none" stroke="#000000" points="322,-251.7 322,-273.7 406,-273.7 406,-251.7 322,-251.7"/>
<text text-anchor="start" x="325" y="-259.4" font-family="Helvetica,sans-Serif" font-size="11.00" fill="#000000">int4[10]</text>
<polygon fill="none" stroke="#000000" points="182,-229.7 182,-251.7 322,-251.7 322,-229.7 182,-229.7"/>
<text text-anchor="start" x="202" y="-236.8" font-family="Helvetica,sans-Serif" font-size="11.00" fill="#000000">fec_modificacion</text>
<polygon fill="none" stroke="#000000" points="322,-229.7 322,-251.7 406,-251.7 406,-229.7 322,-229.7"/>
<text text-anchor="start" x="324.8807" y="-237.4" font-family="Helvetica,sans-Serif" font-size="11.00" fill="#000000">timestamp[29,6]</text>
<polygon fill="none" stroke="#000000" points="182,-207.7 182,-229.7 322,-229.7 322,-207.7 182,-207.7"/>
<image xlink:href="../../images/foreignKeys.png" width="11px" height="12px" preserveAspectRatio="xMinYMin meet" x="187" y="-224.7"/>
<text text-anchor="start" x="202" y="-214.8" font-family="Helvetica,sans-Serif" font-size="11.00" fill="#000000">usu_modificacion_id</text>
<polygon fill="none" stroke="#000000" points="322,-207.7 322,-229.7 406,-229.7 406,-207.7 322,-207.7"/>
<text text-anchor="start" x="325" y="-215.4" font-family="Helvetica,sans-Serif" font-size="11.00" fill="#000000">int4[10]</text>
<polygon fill="none" stroke="#000000" points="182,-185.7 182,-207.7 322,-207.7 322,-185.7 182,-185.7"/>
<text text-anchor="start" x="202" y="-192.8" font-family="Helvetica,sans-Serif" font-size="11.00" fill="#000000">fec_eliminacion</text>
<polygon fill="none" stroke="#000000" points="322,-185.7 322,-207.7 406,-207.7 406,-185.7 322,-185.7"/>
<text text-anchor="start" x="324.8807" y="-193.4" font-family="Helvetica,sans-Serif" font-size="11.00" fill="#000000">timestamp[29,6]</text>
<polygon fill="none" stroke="#000000" points="182,-163.7 182,-185.7 322,-185.7 322,-163.7 182,-163.7"/>
<image xlink:href="../../images/foreignKeys.png" width="11px" height="12px" preserveAspectRatio="xMinYMin meet" x="187" y="-180.7"/>
<text text-anchor="start" x="202" y="-170.8" font-family="Helvetica,sans-Serif" font-size="11.00" fill="#000000">usu_eliminacion_id</text>
<polygon fill="none" stroke="#000000" points="322,-163.7 322,-185.7 406,-185.7 406,-163.7 322,-163.7"/>
<text text-anchor="start" x="325" y="-171.4" font-family="Helvetica,sans-Serif" font-size="11.00" fill="#000000">int4[10]</text>
<polygon fill="#ffffff" stroke="transparent" points="182,-144.7 182,-163.7 243,-163.7 243,-144.7 182,-144.7"/>
<polygon fill="none" stroke="#000000" points="182,-144.7 182,-163.7 243,-163.7 243,-144.7 182,-144.7"/>
<text text-anchor="start" x="185" y="-150.8" font-family="Helvetica,sans-Serif" font-size="11.00" fill="#000000">&lt; 4</text>
<polygon fill="#ffffff" stroke="transparent" points="243,-144.7 243,-163.7 322,-163.7 322,-144.7 243,-144.7"/>
<polygon fill="none" stroke="#000000" points="243,-144.7 243,-163.7 322,-163.7 322,-144.7 243,-144.7"/>
<text text-anchor="start" x="286.6105" y="-150.8" font-family="Helvetica,sans-Serif" font-size="11.00" fill="#000000">0 rows</text>
<polygon fill="#ffffff" stroke="transparent" points="322,-144.7 322,-163.7 406,-163.7 406,-144.7 322,-144.7"/>
<polygon fill="none" stroke="#000000" points="322,-144.7 322,-163.7 406,-163.7 406,-144.7 322,-144.7"/>
<text text-anchor="start" x="381.2904" y="-150.8" font-family="Helvetica,sans-Serif" font-size="11.00" fill="#000000">19 &gt;</text>
<polygon fill="none" stroke="#000000" stroke-width="2" points="181,-143.7 181,-407.7 407,-407.7 407,-143.7 181,-143.7"/>
</a>
</g>
</g>
<!-- actividades&#45;&gt;usuarios -->
<g id="edge1" class="edge">
<title>actividades:w&#45;&gt;usuarios:e</title>
<path fill="none" stroke="#000000" d="M443.4634,-662.0704C402.9345,-621.2867 467.0706,-372.7 406,-372.7"/>
<polygon fill="#000000" stroke="#000000" points="449.6133,-664.628 455.6176,-671.024 453.3067,-666.164 457,-667.7 457,-667.7 457,-667.7 453.3067,-666.164 458.3824,-664.376 449.6133,-664.628 449.6133,-664.628"/>
<ellipse fill="none" stroke="#000000" cx="446.6586" cy="-663.3992" rx="3.2" ry="3.2"/>
</g>
<!-- actividades&#45;&gt;usuarios -->
<g id="edge2" class="edge">
<title>actividades:w&#45;&gt;usuarios:e</title>
<path fill="none" stroke="#000000" d="M442.6114,-599.8567C368.6165,-578.1845 504.7726,-372.7 406,-372.7"/>
<polygon fill="#000000" stroke="#000000" points="449.0649,-600.6834 456.5425,-605.2708 453.0324,-601.1917 457,-601.7 457,-601.7 457,-601.7 453.0324,-601.1917 457.4575,-598.1292 449.0649,-600.6834 449.0649,-600.6834"/>
<ellipse fill="none" stroke="#000000" cx="445.8908" cy="-600.2767" rx="3.2" ry="3.2"/>
</g>
<!-- actividades&#45;&gt;usuarios -->
<g id="edge3" class="edge">
<title>actividades:w&#45;&gt;usuarios:e</title>
<path fill="none" stroke="#000000" d="M442.5229,-644.1647C350.1657,-622.2331 524.0081,-372.7 406,-372.7"/>
<polygon fill="#000000" stroke="#000000" points="449.0446,-644.8563 456.6203,-649.2799 453.0223,-645.2781 457,-645.7 457,-645.7 457,-645.7 453.0223,-645.2781 457.3797,-642.1201 449.0446,-644.8563 449.0446,-644.8563"/>
<ellipse fill="none" stroke="#000000" cx="445.8625" cy="-644.5188" rx="3.2" ry="3.2"/>
</g>
<!-- actividades&#45;&gt;usuarios -->
<g id="edge4" class="edge">
<title>actividades:w&#45;&gt;usuarios:e</title>
<path fill="none" stroke="#000000" d="M442.5904,-622.0308C359.4076,-600.2532 514.3879,-372.7 406,-372.7"/>
<polygon fill="#000000" stroke="#000000" points="449.0531,-622.7794 456.5857,-627.2761 453.0266,-623.2397 457,-623.7 457,-623.7 457,-623.7 453.0266,-623.2397 457.4143,-620.1239 449.0531,-622.7794 449.0531,-622.7794"/>
<ellipse fill="none" stroke="#000000" cx="445.8744" cy="-622.4112" rx="3.2" ry="3.2"/>
</g>
<!-- usuarios&#45;&gt;usuarios -->
<g id="edge19" class="edge">
<title>usuarios:w&#45;&gt;usuarios:e</title>
<path fill="none" stroke="#000000" d="M172.1836,-185.7586C126.6563,-249.0398 136.5,-425.7 294,-425.7 462,-425.7 462,-417.0333 406,-372.7"/>
<polygon fill="#000000" stroke="#000000" points="176.6891,-180.6829 184.6923,-177.0899 179.3446,-177.6915 182,-174.7 182,-174.7 182,-174.7 179.3446,-177.6915 179.3077,-172.3101 176.6891,-180.6829 176.6891,-180.6829"/>
<ellipse fill="none" stroke="#000000" cx="174.5648" cy="-183.0761" rx="3.2" ry="3.2"/>
</g>
<!-- usuarios&#45;&gt;usuarios -->
<g id="edge20" class="edge">
<title>usuarios:w&#45;&gt;usuarios:e</title>
<path fill="none" stroke="#000000" d="M171.8998,-273.106C126.6979,-326.797 136.8281,-425.7 294,-425.7 462,-425.7 462,-417.0333 406,-372.7"/>
<polygon fill="#000000" stroke="#000000" points="176.4281,-268.4406 184.5833,-265.2074 179.214,-265.5703 182,-262.7 182,-262.7 182,-262.7 179.214,-265.5703 179.4167,-260.1926 176.4281,-268.4406 176.4281,-268.4406"/>
<ellipse fill="none" stroke="#000000" cx="174.1993" cy="-270.7368" rx="3.2" ry="3.2"/>
</g>
<!-- usuarios&#45;&gt;usuarios -->
<g id="edge21" class="edge">
<title>usuarios:w&#45;&gt;usuarios:e</title>
<path fill="none" stroke="#000000" d="M172.1836,-229.2645C126.6563,-287.7117 136.5,-425.7 294,-425.7 462,-425.7 462,-417.0333 406,-372.7"/>
<polygon fill="#000000" stroke="#000000" points="176.5544,-224.5605 184.6372,-221.1505 179.2772,-221.6303 182,-218.7 182,-218.7 182,-218.7 179.2772,-221.6303 179.3628,-216.2495 176.5544,-224.5605 176.5544,-224.5605"/>
<ellipse fill="none" stroke="#000000" cx="174.3762" cy="-226.9048" rx="3.2" ry="3.2"/>
</g>
<!-- personas -->
<g id="node6" class="node">
<title>personas</title>
<g id="a_node6"><a xlink:href="../../tables/personas.html" xlink:title="personas" target="_top">
<polygon fill="#ffffff" stroke="transparent" points="8,-302.2 8,-385.2 131,-385.2 131,-302.2 8,-302.2"/>
<polygon fill="#f5f5f5" stroke="transparent" points="8.5,-361.7 8.5,-384.7 131.5,-384.7 131.5,-361.7 8.5,-361.7"/>
<polygon fill="none" stroke="#000000" points="8.5,-361.7 8.5,-384.7 131.5,-384.7 131.5,-361.7 8.5,-361.7"/>
<text text-anchor="start" x="13.5" y="-370.8" font-family="Helvetica,sans-Serif" font-weight="bold" font-size="11.00" fill="#000000">personas</text>
<text text-anchor="start" x="96.5437" y="-369.8" font-family="Helvetica,sans-Serif" font-size="11.00" fill="#000000">[table]</text>
<polygon fill="none" stroke="#000000" points="8.5,-339.7 8.5,-361.7 131.5,-361.7 131.5,-339.7 8.5,-339.7"/>
<image xlink:href="../../images/primaryKeys.png" width="11px" height="12px" preserveAspectRatio="xMinYMin meet" x="13.5" y="-356.7"/>
<text text-anchor="start" x="28.5" y="-346.8" font-family="Helvetica,sans-Serif" font-size="11.00" fill="#000000">persona_id</text>
<polygon fill="none" stroke="#000000" points="8.5,-320.7 8.5,-339.7 131.5,-339.7 131.5,-320.7 8.5,-320.7"/>
<text text-anchor="start" x="11.5" y="-326.8" font-family="Helvetica,sans-Serif" font-size="11.00" fill="#000000">...</text>
<polygon fill="#ffffff" stroke="transparent" points="8.5,-301.7 8.5,-320.7 46.5,-320.7 46.5,-301.7 8.5,-301.7"/>
<polygon fill="none" stroke="#000000" points="8.5,-301.7 8.5,-320.7 46.5,-320.7 46.5,-301.7 8.5,-301.7"/>
<text text-anchor="start" x="11.5" y="-307.8" font-family="Helvetica,sans-Serif" font-size="11.00" fill="#000000"> &#160;</text>
<polygon fill="#ffffff" stroke="transparent" points="46.5,-301.7 46.5,-320.7 97.5,-320.7 97.5,-301.7 46.5,-301.7"/>
<polygon fill="none" stroke="#000000" points="46.5,-301.7 46.5,-320.7 97.5,-320.7 97.5,-301.7 46.5,-301.7"/>
<text text-anchor="start" x="62.1105" y="-307.8" font-family="Helvetica,sans-Serif" font-size="11.00" fill="#000000">0 rows</text>
<polygon fill="#ffffff" stroke="transparent" points="97.5,-301.7 97.5,-320.7 131.5,-320.7 131.5,-301.7 97.5,-301.7"/>
<polygon fill="none" stroke="#000000" points="97.5,-301.7 97.5,-320.7 131.5,-320.7 131.5,-301.7 97.5,-301.7"/>
<text text-anchor="start" x="112.9053" y="-307.8" font-family="Helvetica,sans-Serif" font-size="11.00" fill="#000000">4 &gt;</text>
</a>
</g>
</g>
<!-- usuarios&#45;&gt;personas -->
<g id="edge18" class="edge">
<title>usuarios:w&#45;&gt;personas:e</title>
<path fill="none" stroke="#000000" d="M167.4203,-350.7C155.5435,-350.7 148.158,-350.7 131.5,-350.7"/>
<polygon fill="#000000" stroke="#000000" points="174,-350.7001 182,-354.3 178,-350.7 182,-350.7 182,-350.7 182,-350.7 178,-350.7 182,-347.1 174,-350.7001 174,-350.7001"/>
<ellipse fill="none" stroke="#000000" cx="170.8" cy="-350.7001" rx="3.2" ry="3.2"/>
</g>
<!-- campanas -->
<g id="node3" class="node">
<title>campanas</title>
<g id="a_node3"><a xlink:href="../../tables/campanas.html" xlink:title="campanas" target="_top">
<polygon fill="#ffffff" stroke="transparent" points="457,-361.2 457,-532.2 597,-532.2 597,-361.2 457,-361.2"/>
<polygon fill="#f5f5f5" stroke="transparent" points="457,-508.7 457,-531.7 597,-531.7 597,-508.7 457,-508.7"/>
<polygon fill="none" stroke="#000000" points="457,-508.7 457,-531.7 597,-531.7 597,-508.7 457,-508.7"/>
<text text-anchor="start" x="462" y="-517.8" font-family="Helvetica,sans-Serif" font-weight="bold" font-size="11.00" fill="#000000">campanas</text>
<text text-anchor="start" x="562.0437" y="-516.8" font-family="Helvetica,sans-Serif" font-size="11.00" fill="#000000">[table]</text>
<polygon fill="none" stroke="#000000" points="457,-486.7 457,-508.7 597,-508.7 597,-486.7 457,-486.7"/>
<image xlink:href="../../images/primaryKeys.png" width="11px" height="12px" preserveAspectRatio="xMinYMin meet" x="462" y="-503.7"/>
<text text-anchor="start" x="477" y="-493.8" font-family="Helvetica,sans-Serif" font-size="11.00" fill="#000000">campana_id</text>
<polygon fill="none" stroke="#000000" points="457,-464.7 457,-486.7 597,-486.7 597,-464.7 457,-464.7"/>
<image xlink:href="../../images/foreignKeys.png" width="11px" height="12px" preserveAspectRatio="xMinYMin meet" x="462" y="-481.7"/>
<text text-anchor="start" x="477" y="-471.8" font-family="Helvetica,sans-Serif" font-size="11.00" fill="#000000">usu_asignado_id</text>
<polygon fill="none" stroke="#000000" points="457,-442.7 457,-464.7 597,-464.7 597,-442.7 457,-442.7"/>
<image xlink:href="../../images/foreignKeys.png" width="11px" height="12px" preserveAspectRatio="xMinYMin meet" x="462" y="-459.7"/>
<text text-anchor="start" x="477" y="-449.8" font-family="Helvetica,sans-Serif" font-size="11.00" fill="#000000">usu_insercion_id</text>
<polygon fill="none" stroke="#000000" points="457,-420.7 457,-442.7 597,-442.7 597,-420.7 457,-420.7"/>
<image xlink:href="../../images/foreignKeys.png" width="11px" height="12px" preserveAspectRatio="xMinYMin meet" x="462" y="-437.7"/>
<text text-anchor="start" x="477" y="-427.8" font-family="Helvetica,sans-Serif" font-size="11.00" fill="#000000">usu_modificacion_id</text>
<polygon fill="none" stroke="#000000" points="457,-398.7 457,-420.7 597,-420.7 597,-398.7 457,-398.7"/>
<image xlink:href="../../images/foreignKeys.png" width="11px" height="12px" preserveAspectRatio="xMinYMin meet" x="462" y="-415.7"/>
<text text-anchor="start" x="477" y="-405.8" font-family="Helvetica,sans-Serif" font-size="11.00" fill="#000000">usu_eliminacion_id</text>
<polygon fill="none" stroke="#000000" points="457,-379.7 457,-398.7 597,-398.7 597,-379.7 457,-379.7"/>
<text text-anchor="start" x="460" y="-385.8" font-family="Helvetica,sans-Serif" font-size="11.00" fill="#000000">...</text>
<polygon fill="#ffffff" stroke="transparent" points="457,-360.7 457,-379.7 508,-379.7 508,-360.7 457,-360.7"/>
<polygon fill="none" stroke="#000000" points="457,-360.7 457,-379.7 508,-379.7 508,-360.7 457,-360.7"/>
<text text-anchor="start" x="460" y="-366.8" font-family="Helvetica,sans-Serif" font-size="11.00" fill="#000000">&lt; 4</text>
<polygon fill="#ffffff" stroke="transparent" points="508,-360.7 508,-379.7 561,-379.7 561,-360.7 508,-360.7"/>
<polygon fill="none" stroke="#000000" points="508,-360.7 508,-379.7 561,-379.7 561,-360.7 508,-360.7"/>
<text text-anchor="start" x="525.6105" y="-366.8" font-family="Helvetica,sans-Serif" font-size="11.00" fill="#000000">0 rows</text>
<polygon fill="#ffffff" stroke="transparent" points="561,-360.7 561,-379.7 597,-379.7 597,-360.7 561,-360.7"/>
<polygon fill="none" stroke="#000000" points="561,-360.7 561,-379.7 597,-379.7 597,-360.7 561,-360.7"/>
<text text-anchor="start" x="578.4053" y="-366.8" font-family="Helvetica,sans-Serif" font-size="11.00" fill="#000000">1 &gt;</text>
</a>
</g>
</g>
<!-- campanas&#45;&gt;usuarios -->
<g id="edge5" class="edge">
<title>campanas:w&#45;&gt;usuarios:e</title>
<path fill="none" stroke="#000000" d="M442.9248,-471.7881C416.5054,-452.9739 451.0959,-372.7 406,-372.7"/>
<polygon fill="#000000" stroke="#000000" points="449.2922,-473.5577 456.036,-479.1685 453.1461,-474.6289 457,-475.7 457,-475.7 457,-475.7 453.1461,-474.6289 457.964,-472.2315 449.2922,-473.5577 449.2922,-473.5577"/>
<ellipse fill="none" stroke="#000000" cx="446.209" cy="-472.7008" rx="3.2" ry="3.2"/>
</g>
<!-- campanas&#45;&gt;usuarios -->
<g id="edge6" class="edge">
<title>campanas:w&#45;&gt;usuarios:e</title>
<path fill="none" stroke="#000000" d="M443.0658,-405.4556C429.64,-395.7369 428.0965,-372.7 406,-372.7"/>
<polygon fill="#000000" stroke="#000000" points="449.3471,-407.3689 455.951,-413.1438 453.1736,-408.5345 457,-409.7 457,-409.7 457,-409.7 453.1736,-408.5345 458.049,-406.2562 449.3471,-407.3689 449.3471,-407.3689"/>
<ellipse fill="none" stroke="#000000" cx="446.286" cy="-406.4365" rx="3.2" ry="3.2"/>
</g>
<!-- campanas&#45;&gt;usuarios -->
<g id="edge7" class="edge">
<title>campanas:w&#45;&gt;usuarios:e</title>
<path fill="none" stroke="#000000" d="M443.1725,-449.3451C422.5291,-432.5206 442.5591,-372.7 406,-372.7"/>
<polygon fill="#000000" stroke="#000000" points="449.3695,-451.2968 455.9185,-457.1337 453.1847,-452.4984 457,-453.7 457,-453.7 457,-453.7 453.1847,-452.4984 458.0815,-450.2663 449.3695,-451.2968 449.3695,-451.2968"/>
<ellipse fill="none" stroke="#000000" cx="446.3173" cy="-450.3355" rx="3.2" ry="3.2"/>
</g>
<!-- campanas&#45;&gt;usuarios -->
<g id="edge8" class="edge">
<title>campanas:w&#45;&gt;usuarios:e</title>
<path fill="none" stroke="#000000" d="M443.2854,-427.0704C427.072,-413.1617 434.7036,-372.7 406,-372.7"/>
<polygon fill="#000000" stroke="#000000" points="449.4202,-429.1413 455.8486,-435.1109 453.2101,-430.4206 457,-431.7 457,-431.7 457,-431.7 453.2101,-430.4206 458.1514,-428.2891 449.4202,-429.1413 449.4202,-429.1413"/>
<ellipse fill="none" stroke="#000000" cx="446.3883" cy="-428.1178" rx="3.2" ry="3.2"/>
</g>
<!-- casos -->
<g id="node4" class="node">
<title>casos</title>
<g id="a_node4"><a xlink:href="../../tables/casos.html" xlink:title="casos" target="_top">
<polygon fill="#ffffff" stroke="transparent" points="457,-38.2 457,-231.2 597,-231.2 597,-38.2 457,-38.2"/>
<polygon fill="#f5f5f5" stroke="transparent" points="457,-207.7 457,-230.7 597,-230.7 597,-207.7 457,-207.7"/>
<polygon fill="none" stroke="#000000" points="457,-207.7 457,-230.7 597,-230.7 597,-207.7 457,-207.7"/>
<text text-anchor="start" x="462" y="-216.8" font-family="Helvetica,sans-Serif" font-weight="bold" font-size="11.00" fill="#000000">casos</text>
<text text-anchor="start" x="562.0437" y="-215.8" font-family="Helvetica,sans-Serif" font-size="11.00" fill="#000000">[table]</text>
<polygon fill="none" stroke="#000000" points="457,-185.7 457,-207.7 597,-207.7 597,-185.7 457,-185.7"/>
<image xlink:href="../../images/primaryKeys.png" width="11px" height="12px" preserveAspectRatio="xMinYMin meet" x="462" y="-202.7"/>
<text text-anchor="start" x="477" y="-192.8" font-family="Helvetica,sans-Serif" font-size="11.00" fill="#000000">caso_id</text>
<polygon fill="none" stroke="#000000" points="457,-163.7 457,-185.7 597,-185.7 597,-163.7 457,-163.7"/>
<image xlink:href="../../images/foreignKeys.png" width="11px" height="12px" preserveAspectRatio="xMinYMin meet" x="462" y="-180.7"/>
<text text-anchor="start" x="477" y="-170.8" font-family="Helvetica,sans-Serif" font-size="11.00" fill="#000000">contacto_id</text>
<polygon fill="none" stroke="#000000" points="457,-141.7 457,-163.7 597,-163.7 597,-141.7 457,-141.7"/>
<image xlink:href="../../images/foreignKeys.png" width="11px" height="12px" preserveAspectRatio="xMinYMin meet" x="462" y="-158.7"/>
<text text-anchor="start" x="477" y="-148.8" font-family="Helvetica,sans-Serif" font-size="11.00" fill="#000000">usu_insercion_id</text>
<polygon fill="none" stroke="#000000" points="457,-119.7 457,-141.7 597,-141.7 597,-119.7 457,-119.7"/>
<image xlink:href="../../images/foreignKeys.png" width="11px" height="12px" preserveAspectRatio="xMinYMin meet" x="462" y="-136.7"/>
<text text-anchor="start" x="477" y="-126.8" font-family="Helvetica,sans-Serif" font-size="11.00" fill="#000000">usu_modificacion_id</text>
<polygon fill="none" stroke="#000000" points="457,-97.7 457,-119.7 597,-119.7 597,-97.7 457,-97.7"/>
<image xlink:href="../../images/foreignKeys.png" width="11px" height="12px" preserveAspectRatio="xMinYMin meet" x="462" y="-114.7"/>
<text text-anchor="start" x="477" y="-104.8" font-family="Helvetica,sans-Serif" font-size="11.00" fill="#000000">usu_eliminacion_id</text>
<polygon fill="none" stroke="#000000" points="457,-75.7 457,-97.7 597,-97.7 597,-75.7 457,-75.7"/>
<image xlink:href="../../images/foreignKeys.png" width="11px" height="12px" preserveAspectRatio="xMinYMin meet" x="462" y="-92.7"/>
<text text-anchor="start" x="477" y="-82.8" font-family="Helvetica,sans-Serif" font-size="11.00" fill="#000000">usu_asignado_id</text>
<polygon fill="none" stroke="#000000" points="457,-56.7 457,-75.7 597,-75.7 597,-56.7 457,-56.7"/>
<text text-anchor="start" x="460" y="-62.8" font-family="Helvetica,sans-Serif" font-size="11.00" fill="#000000">...</text>
<polygon fill="#ffffff" stroke="transparent" points="457,-37.7 457,-56.7 512,-56.7 512,-37.7 457,-37.7"/>
<polygon fill="none" stroke="#000000" points="457,-37.7 457,-56.7 512,-56.7 512,-37.7 457,-37.7"/>
<text text-anchor="start" x="460" y="-43.8" font-family="Helvetica,sans-Serif" font-size="11.00" fill="#000000">&lt; 5</text>
<polygon fill="#ffffff" stroke="transparent" points="512,-37.7 512,-56.7 567,-56.7 567,-37.7 512,-37.7"/>
<polygon fill="none" stroke="#000000" points="512,-37.7 512,-56.7 567,-56.7 567,-37.7 512,-37.7"/>
<text text-anchor="start" x="531.6105" y="-43.8" font-family="Helvetica,sans-Serif" font-size="11.00" fill="#000000">0 rows</text>
<polygon fill="#ffffff" stroke="transparent" points="567,-37.7 567,-56.7 597,-56.7 597,-37.7 567,-37.7"/>
<polygon fill="none" stroke="#000000" points="567,-37.7 567,-56.7 597,-56.7 597,-37.7 567,-37.7"/>
<text text-anchor="start" x="587.8862" y="-43.8" font-family="Helvetica,sans-Serif" font-size="11.00" fill="#000000"> &#160;</text>
</a>
</g>
</g>
<!-- casos&#45;&gt;usuarios -->
<g id="edge9" class="edge">
<title>casos:w&#45;&gt;usuarios:e</title>
<path fill="none" stroke="#000000" d="M443.5844,-92.413C404.5566,-132.7218 465.1363,-372.7 406,-372.7"/>
<polygon fill="#000000" stroke="#000000" points="449.6396,-89.8344 458.4105,-90.0122 453.3198,-88.2672 457,-86.7 457,-86.7 457,-86.7 453.3198,-88.2672 455.5895,-83.3878 449.6396,-89.8344 449.6396,-89.8344"/>
<ellipse fill="none" stroke="#000000" cx="446.6954" cy="-91.0882" rx="3.2" ry="3.2"/>
</g>
<!-- casos&#45;&gt;usuarios -->
<g id="edge10" class="edge">
<title>casos:w&#45;&gt;usuarios:e</title>
<path fill="none" stroke="#000000" d="M442.429,-110.3174C354.1078,-132.3782 520.0177,-372.7 406,-372.7"/>
<polygon fill="#000000" stroke="#000000" points="449.0488,-109.5827 457.3972,-112.278 453.0244,-109.1413 457,-108.7 457,-108.7 457,-108.7 453.0244,-109.1413 456.6028,-105.122 449.0488,-109.5827 449.0488,-109.5827"/>
<ellipse fill="none" stroke="#000000" cx="445.8684" cy="-109.9357" rx="3.2" ry="3.2"/>
</g>
<!-- casos&#45;&gt;usuarios -->
<g id="edge11" class="edge">
<title>casos:w&#45;&gt;usuarios:e</title>
<path fill="none" stroke="#000000" d="M442.6952,-154.6019C372.2593,-176.1045 500.8816,-372.7 406,-372.7"/>
<polygon fill="#000000" stroke="#000000" points="449.0698,-153.7544 457.4745,-156.2686 453.0349,-153.2272 457,-152.7 457,-152.7 457,-152.7 453.0349,-153.2272 456.5255,-149.1314 449.0698,-153.7544 449.0698,-153.7544"/>
<ellipse fill="none" stroke="#000000" cx="445.8977" cy="-154.1762" rx="3.2" ry="3.2"/>
</g>
<!-- casos&#45;&gt;usuarios -->
<g id="edge12" class="edge">
<title>casos:w&#45;&gt;usuarios:e</title>
<path fill="none" stroke="#000000" d="M442.3382,-132.5088C363.5105,-154.6541 510.3363,-372.7 406,-372.7"/>
<polygon fill="#000000" stroke="#000000" points="449.0602,-131.6796 457.4408,-134.2729 453.0301,-131.1898 457,-130.7 457,-130.7 457,-130.7 453.0301,-131.1898 456.5592,-127.1271 449.0602,-131.6796 449.0602,-131.6796"/>
<ellipse fill="none" stroke="#000000" cx="445.8843" cy="-132.0714" rx="3.2" ry="3.2"/>
</g>
<!-- oportunidades -->
<g id="node5" class="node">
<title>oportunidades</title>
<g id="a_node5"><a xlink:href="../../tables/oportunidades.html" xlink:title="oportunidades" target="_top">
<polygon fill="#ffffff" stroke="transparent" points="646,-217.2 646,-410.2 786,-410.2 786,-217.2 646,-217.2"/>
<polygon fill="#f5f5f5" stroke="transparent" points="646,-386.7 646,-409.7 786,-409.7 786,-386.7 646,-386.7"/>
<polygon fill="none" stroke="#000000" points="646,-386.7 646,-409.7 786,-409.7 786,-386.7 646,-386.7"/>
<text text-anchor="start" x="651" y="-395.8" font-family="Helvetica,sans-Serif" font-weight="bold" font-size="11.00" fill="#000000">oportunidades</text>
<text text-anchor="start" x="751.0437" y="-394.8" font-family="Helvetica,sans-Serif" font-size="11.00" fill="#000000">[table]</text>
<polygon fill="none" stroke="#000000" points="646,-364.7 646,-386.7 786,-386.7 786,-364.7 646,-364.7"/>
<image xlink:href="../../images/primaryKeys.png" width="11px" height="12px" preserveAspectRatio="xMinYMin meet" x="651" y="-381.7"/>
<text text-anchor="start" x="666" y="-371.8" font-family="Helvetica,sans-Serif" font-size="11.00" fill="#000000">oportunidad_id</text>
<polygon fill="none" stroke="#000000" points="646,-342.7 646,-364.7 786,-364.7 786,-342.7 646,-342.7"/>
<image xlink:href="../../images/foreignKeys.png" width="11px" height="12px" preserveAspectRatio="xMinYMin meet" x="651" y="-359.7"/>
<text text-anchor="start" x="666" y="-349.8" font-family="Helvetica,sans-Serif" font-size="11.00" fill="#000000">campana_id</text>
<polygon fill="none" stroke="#000000" points="646,-320.7 646,-342.7 786,-342.7 786,-320.7 646,-320.7"/>
<image xlink:href="../../images/foreignKeys.png" width="11px" height="12px" preserveAspectRatio="xMinYMin meet" x="651" y="-337.7"/>
<text text-anchor="start" x="666" y="-327.8" font-family="Helvetica,sans-Serif" font-size="11.00" fill="#000000">usu_asignado_id</text>
<polygon fill="none" stroke="#000000" points="646,-298.7 646,-320.7 786,-320.7 786,-298.7 646,-298.7"/>
<image xlink:href="../../images/foreignKeys.png" width="11px" height="12px" preserveAspectRatio="xMinYMin meet" x="651" y="-315.7"/>
<text text-anchor="start" x="666" y="-305.8" font-family="Helvetica,sans-Serif" font-size="11.00" fill="#000000">usu_insercion_id</text>
<polygon fill="none" stroke="#000000" points="646,-276.7 646,-298.7 786,-298.7 786,-276.7 646,-276.7"/>
<image xlink:href="../../images/foreignKeys.png" width="11px" height="12px" preserveAspectRatio="xMinYMin meet" x="651" y="-293.7"/>
<text text-anchor="start" x="666" y="-283.8" font-family="Helvetica,sans-Serif" font-size="11.00" fill="#000000">usu_modificacion_id</text>
<polygon fill="none" stroke="#000000" points="646,-254.7 646,-276.7 786,-276.7 786,-254.7 646,-254.7"/>
<image xlink:href="../../images/foreignKeys.png" width="11px" height="12px" preserveAspectRatio="xMinYMin meet" x="651" y="-271.7"/>
<text text-anchor="start" x="666" y="-261.8" font-family="Helvetica,sans-Serif" font-size="11.00" fill="#000000">usu_eliminacion_id</text>
<polygon fill="none" stroke="#000000" points="646,-235.7 646,-254.7 786,-254.7 786,-235.7 646,-235.7"/>
<text text-anchor="start" x="649" y="-241.8" font-family="Helvetica,sans-Serif" font-size="11.00" fill="#000000">...</text>
<polygon fill="#ffffff" stroke="transparent" points="646,-216.7 646,-235.7 701,-235.7 701,-216.7 646,-216.7"/>
<polygon fill="none" stroke="#000000" points="646,-216.7 646,-235.7 701,-235.7 701,-216.7 646,-216.7"/>
<text text-anchor="start" x="649" y="-222.8" font-family="Helvetica,sans-Serif" font-size="11.00" fill="#000000">&lt; 5</text>
<polygon fill="#ffffff" stroke="transparent" points="701,-216.7 701,-235.7 756,-235.7 756,-216.7 701,-216.7"/>
<polygon fill="none" stroke="#000000" points="701,-216.7 701,-235.7 756,-235.7 756,-216.7 701,-216.7"/>
<text text-anchor="start" x="720.6105" y="-222.8" font-family="Helvetica,sans-Serif" font-size="11.00" fill="#000000">0 rows</text>
<polygon fill="#ffffff" stroke="transparent" points="756,-216.7 756,-235.7 786,-235.7 786,-216.7 756,-216.7"/>
<polygon fill="none" stroke="#000000" points="756,-216.7 756,-235.7 786,-235.7 786,-216.7 756,-216.7"/>
<text text-anchor="start" x="776.8862" y="-222.8" font-family="Helvetica,sans-Serif" font-size="11.00" fill="#000000"> &#160;</text>
</a>
</g>
</g>
<!-- oportunidades&#45;&gt;usuarios -->
<g id="edge14" class="edge">
<title>oportunidades:w&#45;&gt;usuarios:e</title>
<path fill="none" stroke="#000000" d="M631.1657,-331.6486C554.9485,-331.1374 528.4785,-327.4555 449,-350.7 428.3959,-356.7259 427.4672,-372.7 406,-372.7"/>
<polygon fill="#000000" stroke="#000000" points="638,-331.6722 645.9875,-335.3 642,-331.6861 646,-331.7 646,-331.7 646,-331.7 642,-331.6861 646.0125,-328.1 638,-331.6722 638,-331.6722"/>
<ellipse fill="none" stroke="#000000" cx="634.8001" cy="-331.6611" rx="3.2" ry="3.2"/>
</g>
<!-- oportunidades&#45;&gt;usuarios -->
<g id="edge15" class="edge">
<title>oportunidades:w&#45;&gt;usuarios:e</title>
<path fill="none" stroke="#000000" d="M631.5837,-265.3156C554.075,-261.1832 517.2077,-226.0258 449,-272.7 409.0739,-300.0212 454.3792,-372.7 406,-372.7"/>
<polygon fill="#000000" stroke="#000000" points="638.0028,-265.4867 645.904,-269.2987 642.0014,-265.5934 646,-265.7 646,-265.7 646,-265.7 642.0014,-265.5934 646.096,-262.1013 638.0028,-265.4867 638.0028,-265.4867"/>
<ellipse fill="none" stroke="#000000" cx="634.804" cy="-265.4014" rx="3.2" ry="3.2"/>
</g>
<!-- oportunidades&#45;&gt;usuarios -->
<g id="edge16" class="edge">
<title>oportunidades:w&#45;&gt;usuarios:e</title>
<path fill="none" stroke="#000000" d="M631.5945,-309.5311C554.5144,-307.7322 523.8439,-292.8669 449,-328.7 424.3376,-340.5076 433.3433,-372.7 406,-372.7"/>
<polygon fill="#000000" stroke="#000000" points="638.0005,-309.6061 645.9578,-313.2998 642.0003,-309.6531 646,-309.7 646,-309.7 646,-309.7 642.0003,-309.6531 646.0422,-306.1002 638.0005,-309.6061 638.0005,-309.6061"/>
<ellipse fill="none" stroke="#000000" cx="634.8008" cy="-309.5686" rx="3.2" ry="3.2"/>
</g>
<!-- oportunidades&#45;&gt;usuarios -->
<g id="edge17" class="edge">
<title>oportunidades:w&#45;&gt;usuarios:e</title>
<path fill="none" stroke="#000000" d="M631.5778,-287.4236C554.1818,-284.4626 519.7071,-259.5466 449,-302.7 417.8338,-321.7211 442.5121,-372.7 406,-372.7"/>
<polygon fill="#000000" stroke="#000000" points="638.0015,-287.5466 645.931,-291.2993 642.0007,-287.6233 646,-287.7 646,-287.7 646,-287.7 642.0007,-287.6233 646.069,-284.1007 638.0015,-287.5466 638.0015,-287.5466"/>
<ellipse fill="none" stroke="#000000" cx="634.8021" cy="-287.4853" rx="3.2" ry="3.2"/>
</g>
<!-- oportunidades&#45;&gt;campanas -->
<g id="edge13" class="edge">
<title>oportunidades:w&#45;&gt;campanas:e</title>
<path fill="none" stroke="#000000" d="M631.7835,-356.7076C592.0772,-377.3865 658.7941,-497.7 597,-497.7"/>
<polygon fill="#000000" stroke="#000000" points="638.1732,-355.3559 646.7451,-357.222 642.0866,-354.5279 646,-353.7 646,-353.7 646,-353.7 642.0866,-354.5279 645.2549,-350.178 638.1732,-355.3559 638.1732,-355.3559"/>
<ellipse fill="none" stroke="#000000" cx="635.0425" cy="-356.0182" rx="3.2" ry="3.2"/>
</g>
</g>
</svg>
