<?xml version="1.0" encoding="UTF-8" standalone="no"?>
<!DOCTYPE svg PUBLIC "-//W3C//DTD SVG 1.1//EN"
 "http://www.w3.org/Graphics/SVG/1.1/DTD/svg11.dtd">
<!-- Generated by graphviz version 2.40.1 (20161225.0304)
 -->
<!-- Title: oneDegreeRelationshipsDiagram Pages: 1 -->
<svg width="587pt" height="732pt"
 viewBox="0.00 0.00 587.00 732.20" xmlns="http://www.w3.org/2000/svg" xmlns:xlink="http://www.w3.org/1999/xlink">
<g id="graph0" class="graph" transform="scale(1 1) rotate(0) translate(4 728.2)">
<title>oneDegreeRelationshipsDiagram</title>
<polygon fill="#ffffff" stroke="transparent" points="-4,4 -4,-728.2 583,-728.2 583,4 -4,4"/>
<text text-anchor="middle" x="72.4936" y="-7.3" font-family="Helvetica,sans-Serif" font-size="11.00" fill="#000000">Generated by SchemaSpy</text>
<!-- casos -->
<g id="node1" class="node">
<title>casos</title>
<g id="a_node1"><a xlink:href="../../tables/casos.html" xlink:title="casos" target="_top">
<polygon fill="#ffffff" stroke="transparent" points="448,-571.2 448,-720.2 571,-720.2 571,-571.2 448,-571.2"/>
<polygon fill="#f5f5f5" stroke="transparent" points="448.5,-696.7 448.5,-719.7 571.5,-719.7 571.5,-696.7 448.5,-696.7"/>
<polygon fill="none" stroke="#000000" points="448.5,-696.7 448.5,-719.7 571.5,-719.7 571.5,-696.7 448.5,-696.7"/>
<text text-anchor="start" x="453.5" y="-705.8" font-family="Helvetica,sans-Serif" font-weight="bold" font-size="11.00" fill="#000000">casos</text>
<text text-anchor="start" x="536.5437" y="-704.8" font-family="Helvetica,sans-Serif" font-size="11.00" fill="#000000">[table]</text>
<polygon fill="none" stroke="#000000" points="448.5,-674.7 448.5,-696.7 571.5,-696.7 571.5,-674.7 448.5,-674.7"/>
<image xlink:href="../../images/primaryKeys.png" width="11px" height="12px" preserveAspectRatio="xMinYMin meet" x="453.5" y="-691.7"/>
<text text-anchor="start" x="468.5" y="-681.8" font-family="Helvetica,sans-Serif" font-size="11.00" fill="#000000">caso_id</text>
<polygon fill="none" stroke="#000000" points="448.5,-652.7 448.5,-674.7 571.5,-674.7 571.5,-652.7 448.5,-652.7"/>
<image xlink:href="../../images/foreignKeys.png" width="11px" height="12px" preserveAspectRatio="xMinYMin meet" x="453.5" y="-669.7"/>
<text text-anchor="start" x="468.5" y="-659.8" font-family="Helvetica,sans-Serif" font-size="11.00" fill="#000000">lead_id</text>
<polygon fill="none" stroke="#000000" points="448.5,-630.7 448.5,-652.7 571.5,-652.7 571.5,-630.7 448.5,-630.7"/>
<image xlink:href="../../images/foreignKeys.png" width="11px" height="12px" preserveAspectRatio="xMinYMin meet" x="453.5" y="-647.7"/>
<text text-anchor="start" x="468.5" y="-637.8" font-family="Helvetica,sans-Serif" font-size="11.00" fill="#000000">usu_asignado_id</text>
<polygon fill="none" stroke="#000000" points="448.5,-608.7 448.5,-630.7 571.5,-630.7 571.5,-608.7 448.5,-608.7"/>
<image xlink:href="../../images/foreignKeys.png" width="11px" height="12px" preserveAspectRatio="xMinYMin meet" x="453.5" y="-625.7"/>
<text text-anchor="start" x="468.5" y="-615.8" font-family="Helvetica,sans-Serif" font-size="11.00" fill="#000000">contacto_id</text>
<polygon fill="none" stroke="#000000" points="448.5,-589.7 448.5,-608.7 571.5,-608.7 571.5,-589.7 448.5,-589.7"/>
<text text-anchor="start" x="451.5" y="-595.8" font-family="Helvetica,sans-Serif" font-size="11.00" fill="#000000">...</text>
<polygon fill="#ffffff" stroke="transparent" points="448.5,-570.7 448.5,-589.7 495.5,-589.7 495.5,-570.7 448.5,-570.7"/>
<polygon fill="none" stroke="#000000" points="448.5,-570.7 448.5,-589.7 495.5,-589.7 495.5,-570.7 448.5,-570.7"/>
<text text-anchor="start" x="451.5" y="-576.8" font-family="Helvetica,sans-Serif" font-size="11.00" fill="#000000">&lt; 3</text>
<polygon fill="#ffffff" stroke="transparent" points="495.5,-570.7 495.5,-589.7 546.5,-589.7 546.5,-570.7 495.5,-570.7"/>
<polygon fill="none" stroke="#000000" points="495.5,-570.7 495.5,-589.7 546.5,-589.7 546.5,-570.7 495.5,-570.7"/>
<text text-anchor="start" x="511.1105" y="-576.8" font-family="Helvetica,sans-Serif" font-size="11.00" fill="#000000">0 rows</text>
<polygon fill="#ffffff" stroke="transparent" points="546.5,-570.7 546.5,-589.7 571.5,-589.7 571.5,-570.7 546.5,-570.7"/>
<polygon fill="none" stroke="#000000" points="546.5,-570.7 546.5,-589.7 571.5,-589.7 571.5,-570.7 546.5,-570.7"/>
<text text-anchor="start" x="562.3862" y="-576.8" font-family="Helvetica,sans-Serif" font-size="11.00" fill="#000000"> &#160;</text>
</a>
</g>
</g>
<!-- leads -->
<g id="node2" class="node">
<title>leads</title>
<g id="a_node2"><a xlink:href="../../tables/leads.html" xlink:title="leads" target="_top">
<polygon fill="#ffffff" stroke="transparent" points="276,-465.2 276,-658.2 399,-658.2 399,-465.2 276,-465.2"/>
<polygon fill="#f5f5f5" stroke="transparent" points="276.5,-634.7 276.5,-657.7 399.5,-657.7 399.5,-634.7 276.5,-634.7"/>
<polygon fill="none" stroke="#000000" points="276.5,-634.7 276.5,-657.7 399.5,-657.7 399.5,-634.7 276.5,-634.7"/>
<text text-anchor="start" x="281.5" y="-643.8" font-family="Helvetica,sans-Serif" font-weight="bold" font-size="11.00" fill="#000000">leads</text>
<text text-anchor="start" x="364.5437" y="-642.8" font-family="Helvetica,sans-Serif" font-size="11.00" fill="#000000">[table]</text>
<polygon fill="none" stroke="#000000" points="276.5,-612.7 276.5,-634.7 399.5,-634.7 399.5,-612.7 276.5,-612.7"/>
<image xlink:href="../../images/primaryKeys.png" width="11px" height="12px" preserveAspectRatio="xMinYMin meet" x="281.5" y="-629.7"/>
<text text-anchor="start" x="296.5" y="-619.8" font-family="Helvetica,sans-Serif" font-size="11.00" fill="#000000">lead_id</text>
<polygon fill="none" stroke="#000000" points="276.5,-590.7 276.5,-612.7 399.5,-612.7 399.5,-590.7 276.5,-590.7"/>
<image xlink:href="../../images/foreignKeys.png" width="11px" height="12px" preserveAspectRatio="xMinYMin meet" x="281.5" y="-607.7"/>
<text text-anchor="start" x="296.5" y="-597.8" font-family="Helvetica,sans-Serif" font-size="11.00" fill="#000000">usu_asignado_id</text>
<polygon fill="none" stroke="#000000" points="276.5,-568.7 276.5,-590.7 399.5,-590.7 399.5,-568.7 276.5,-568.7"/>
<image xlink:href="../../images/foreignKeys.png" width="11px" height="12px" preserveAspectRatio="xMinYMin meet" x="281.5" y="-585.7"/>
<text text-anchor="start" x="296.5" y="-575.8" font-family="Helvetica,sans-Serif" font-size="11.00" fill="#000000">campana_id</text>
<polygon fill="none" stroke="#000000" points="276.5,-546.7 276.5,-568.7 399.5,-568.7 399.5,-546.7 276.5,-546.7"/>
<image xlink:href="../../images/foreignKeys.png" width="11px" height="12px" preserveAspectRatio="xMinYMin meet" x="281.5" y="-563.7"/>
<text text-anchor="start" x="296.5" y="-553.8" font-family="Helvetica,sans-Serif" font-size="11.00" fill="#000000">persona_id</text>
<polygon fill="none" stroke="#000000" points="276.5,-524.7 276.5,-546.7 399.5,-546.7 399.5,-524.7 276.5,-524.7"/>
<image xlink:href="../../images/foreignKeys.png" width="11px" height="12px" preserveAspectRatio="xMinYMin meet" x="281.5" y="-541.7"/>
<text text-anchor="start" x="296.5" y="-531.8" font-family="Helvetica,sans-Serif" font-size="11.00" fill="#000000">curso_id</text>
<polygon fill="none" stroke="#000000" points="276.5,-502.7 276.5,-524.7 399.5,-524.7 399.5,-502.7 276.5,-502.7"/>
<image xlink:href="../../images/foreignKeys.png" width="11px" height="12px" preserveAspectRatio="xMinYMin meet" x="281.5" y="-519.7"/>
<text text-anchor="start" x="296.5" y="-509.8" font-family="Helvetica,sans-Serif" font-size="11.00" fill="#000000">ciclo_id</text>
<polygon fill="none" stroke="#000000" points="276.5,-483.7 276.5,-502.7 399.5,-502.7 399.5,-483.7 276.5,-483.7"/>
<text text-anchor="start" x="279.5" y="-489.8" font-family="Helvetica,sans-Serif" font-size="11.00" fill="#000000">...</text>
<polygon fill="#ffffff" stroke="transparent" points="276.5,-464.7 276.5,-483.7 318.5,-483.7 318.5,-464.7 276.5,-464.7"/>
<polygon fill="none" stroke="#000000" points="276.5,-464.7 276.5,-483.7 318.5,-483.7 318.5,-464.7 276.5,-464.7"/>
<text text-anchor="start" x="279.5" y="-470.8" font-family="Helvetica,sans-Serif" font-size="11.00" fill="#000000">&lt; 5</text>
<polygon fill="#ffffff" stroke="transparent" points="318.5,-464.7 318.5,-483.7 367.5,-483.7 367.5,-464.7 318.5,-464.7"/>
<polygon fill="none" stroke="#000000" points="318.5,-464.7 318.5,-483.7 367.5,-483.7 367.5,-464.7 318.5,-464.7"/>
<text text-anchor="start" x="332.1105" y="-470.8" font-family="Helvetica,sans-Serif" font-size="11.00" fill="#000000">4 rows</text>
<polygon fill="#ffffff" stroke="transparent" points="367.5,-464.7 367.5,-483.7 399.5,-483.7 399.5,-464.7 367.5,-464.7"/>
<polygon fill="none" stroke="#000000" points="367.5,-464.7 367.5,-483.7 399.5,-483.7 399.5,-464.7 367.5,-464.7"/>
<text text-anchor="start" x="380.9053" y="-470.8" font-family="Helvetica,sans-Serif" font-size="11.00" fill="#000000">3 &gt;</text>
</a>
</g>
</g>
<!-- casos&#45;&gt;leads -->
<g id="edge1" class="edge">
<title>casos:w&#45;&gt;leads:e</title>
<path fill="none" stroke="#000000" d="M434.7637,-659.1115C421.8632,-648.6048 421.6826,-623.7 399.5,-623.7"/>
<polygon fill="#000000" stroke="#000000" points="440.9121,-661.1653 447.3594,-667.1145 444.7061,-662.4327 448.5,-663.7 448.5,-663.7 448.5,-663.7 444.7061,-662.4327 449.6406,-660.2855 440.9121,-661.1653 440.9121,-661.1653"/>
<ellipse fill="none" stroke="#000000" cx="437.877" cy="-660.1514" rx="3.2" ry="3.2"/>
</g>
<!-- usuarios -->
<g id="node3" class="node">
<title>usuarios</title>
<g id="a_node3"><a xlink:href="../../tables/usuarios.html" xlink:title="usuarios" target="_top">
<polygon fill="#ffffff" stroke="transparent" points="8,-142.7 8,-364.7 227,-364.7 227,-142.7 8,-142.7"/>
<polygon fill="#f5f5f5" stroke="transparent" points="10.5,-339.7 10.5,-362.7 225.5,-362.7 225.5,-339.7 10.5,-339.7"/>
<polygon fill="none" stroke="#000000" points="10.5,-339.7 10.5,-362.7 225.5,-362.7 225.5,-339.7 10.5,-339.7"/>
<text text-anchor="start" x="15.5" y="-348.8" font-family="Helvetica,sans-Serif" font-weight="bold" font-size="11.00" fill="#000000">usuarios</text>
<text text-anchor="start" x="190.5437" y="-347.8" font-family="Helvetica,sans-Serif" font-size="11.00" fill="#000000">[table]</text>
<polygon fill="none" stroke="#000000" points="10.5,-317.7 10.5,-339.7 133.5,-339.7 133.5,-317.7 10.5,-317.7"/>
<image xlink:href="../../images/primaryKeys.png" width="11px" height="12px" preserveAspectRatio="xMinYMin meet" x="15.5" y="-334.7"/>
<text text-anchor="start" x="30.5" y="-324.8" font-family="Helvetica,sans-Serif" font-size="11.00" fill="#000000">usuario_id</text>
<polygon fill="none" stroke="#000000" points="133.5,-317.7 133.5,-339.7 225.5,-339.7 225.5,-317.7 133.5,-317.7"/>
<text text-anchor="start" x="136.5" y="-325.4" font-family="Helvetica,sans-Serif" font-size="11.00" fill="#000000">serial[10]</text>
<polygon fill="#ffffff" stroke="transparent" points="10.5,-295.7 10.5,-317.7 133.5,-317.7 133.5,-295.7 10.5,-295.7"/>
<polygon fill="none" stroke="#000000" points="10.5,-295.7 10.5,-317.7 133.5,-317.7 133.5,-295.7 10.5,-295.7"/>
<text text-anchor="start" x="30.5" y="-302.8" font-family="Helvetica,sans-Serif" font-size="11.00" fill="#000000">nom_usuario</text>
<polygon fill="none" stroke="#000000" points="133.5,-295.7 133.5,-317.7 225.5,-317.7 225.5,-295.7 133.5,-295.7"/>
<text text-anchor="start" x="136.5" y="-303.4" font-family="Helvetica,sans-Serif" font-size="11.00" fill="#000000">varchar[20]</text>
<polygon fill="none" stroke="#000000" points="10.5,-273.7 10.5,-295.7 133.5,-295.7 133.5,-273.7 10.5,-273.7"/>
<text text-anchor="start" x="30.5" y="-280.8" font-family="Helvetica,sans-Serif" font-size="11.00" fill="#000000">password</text>
<polygon fill="none" stroke="#000000" points="133.5,-273.7 133.5,-295.7 225.5,-295.7 225.5,-273.7 133.5,-273.7"/>
<text text-anchor="start" x="136.5" y="-281.4" font-family="Helvetica,sans-Serif" font-size="11.00" fill="#000000">varchar[255]</text>
<polygon fill="none" stroke="#000000" points="10.5,-251.7 10.5,-273.7 133.5,-273.7 133.5,-251.7 10.5,-251.7"/>
<text text-anchor="start" x="30.5" y="-258.8" font-family="Helvetica,sans-Serif" font-size="11.00" fill="#000000">email</text>
<polygon fill="none" stroke="#000000" points="133.5,-251.7 133.5,-273.7 225.5,-273.7 225.5,-251.7 133.5,-251.7"/>
<text text-anchor="start" x="136.5" y="-259.4" font-family="Helvetica,sans-Serif" font-size="11.00" fill="#000000">varchar[60]</text>
<polygon fill="none" stroke="#000000" points="10.5,-229.7 10.5,-251.7 133.5,-251.7 133.5,-229.7 10.5,-229.7"/>
<text text-anchor="start" x="30.5" y="-236.8" font-family="Helvetica,sans-Serif" font-size="11.00" fill="#000000">usu_insercion</text>
<polygon fill="none" stroke="#000000" points="133.5,-229.7 133.5,-251.7 225.5,-251.7 225.5,-229.7 133.5,-229.7"/>
<text text-anchor="start" x="136.5" y="-237.4" font-family="Helvetica,sans-Serif" font-size="11.00" fill="#000000">varchar[20]</text>
<polygon fill="none" stroke="#000000" points="10.5,-207.7 10.5,-229.7 133.5,-229.7 133.5,-207.7 10.5,-207.7"/>
<text text-anchor="start" x="30.5" y="-214.8" font-family="Helvetica,sans-Serif" font-size="11.00" fill="#000000">fec_insercion</text>
<polygon fill="none" stroke="#000000" points="133.5,-207.7 133.5,-229.7 225.5,-229.7 225.5,-207.7 133.5,-207.7"/>
<text text-anchor="start" x="136.1023" y="-215.4" font-family="Helvetica,sans-Serif" font-size="11.00" fill="#000000">timestamptz[35,6]</text>
<polygon fill="none" stroke="#000000" points="10.5,-185.7 10.5,-207.7 133.5,-207.7 133.5,-185.7 10.5,-185.7"/>
<text text-anchor="start" x="30.5" y="-192.8" font-family="Helvetica,sans-Serif" font-size="11.00" fill="#000000">fec_modificacion</text>
<polygon fill="none" stroke="#000000" points="133.5,-185.7 133.5,-207.7 225.5,-207.7 225.5,-185.7 133.5,-185.7"/>
<text text-anchor="start" x="136.1023" y="-193.4" font-family="Helvetica,sans-Serif" font-size="11.00" fill="#000000">timestamptz[35,6]</text>
<polygon fill="none" stroke="#000000" points="10.5,-163.7 10.5,-185.7 133.5,-185.7 133.5,-163.7 10.5,-163.7"/>
<text text-anchor="start" x="30.5" y="-170.8" font-family="Helvetica,sans-Serif" font-size="11.00" fill="#000000">usu_modificacion</text>
<polygon fill="none" stroke="#000000" points="133.5,-163.7 133.5,-185.7 225.5,-185.7 225.5,-163.7 133.5,-163.7"/>
<text text-anchor="start" x="136.5" y="-171.4" font-family="Helvetica,sans-Serif" font-size="11.00" fill="#000000">varchar[20]</text>
<polygon fill="#ffffff" stroke="transparent" points="10.5,-144.7 10.5,-163.7 66.5,-163.7 66.5,-144.7 10.5,-144.7"/>
<polygon fill="none" stroke="#000000" points="10.5,-144.7 10.5,-163.7 66.5,-163.7 66.5,-144.7 10.5,-144.7"/>
<text text-anchor="start" x="13.5" y="-150.8" font-family="Helvetica,sans-Serif" font-size="11.00" fill="#000000">&lt; 0</text>
<polygon fill="#ffffff" stroke="transparent" points="66.5,-144.7 66.5,-163.7 133.5,-163.7 133.5,-144.7 66.5,-144.7"/>
<polygon fill="none" stroke="#000000" points="66.5,-144.7 66.5,-163.7 133.5,-163.7 133.5,-144.7 66.5,-144.7"/>
<text text-anchor="start" x="103.6105" y="-150.8" font-family="Helvetica,sans-Serif" font-size="11.00" fill="#000000">1 row</text>
<polygon fill="#ffffff" stroke="transparent" points="133.5,-144.7 133.5,-163.7 225.5,-163.7 225.5,-144.7 133.5,-144.7"/>
<polygon fill="none" stroke="#000000" points="133.5,-144.7 133.5,-163.7 225.5,-163.7 225.5,-144.7 133.5,-144.7"/>
<text text-anchor="start" x="206.9053" y="-150.8" font-family="Helvetica,sans-Serif" font-size="11.00" fill="#000000">6 &gt;</text>
<polygon fill="none" stroke="#000000" stroke-width="2" points="9,-143.7 9,-363.7 226,-363.7 226,-143.7 9,-143.7"/>
</a>
</g>
</g>
<!-- casos&#45;&gt;usuarios -->
<g id="edge2" class="edge">
<title>casos:w&#45;&gt;usuarios:e</title>
<path fill="none" stroke="#000000" d="M434.5052,-645.8384C425.6003,-652.2215 422.1625,-664.2017 407,-668.7 347.7736,-686.2707 314.3135,-709.5847 268,-668.7 210.9168,-618.308 301.6435,-328.7 225.5,-328.7"/>
<polygon fill="#000000" stroke="#000000" points="440.8284,-643.9686 449.5209,-645.1522 444.6642,-642.8343 448.5,-641.7 448.5,-641.7 448.5,-641.7 444.6642,-642.8343 447.4791,-638.2478 440.8284,-643.9686 440.8284,-643.9686"/>
<ellipse fill="none" stroke="#000000" cx="437.7597" cy="-644.876" rx="3.2" ry="3.2"/>
</g>
<!-- leads&#45;&gt;usuarios -->
<g id="edge4" class="edge">
<title>leads:w&#45;&gt;usuarios:e</title>
<path fill="none" stroke="#000000" d="M263.1538,-595.7441C226.4798,-555.8206 281.7919,-328.7 225.5,-328.7"/>
<polygon fill="#000000" stroke="#000000" points="269.1944,-598.4398 275.0329,-604.9875 272.8472,-600.0699 276.5,-601.7 276.5,-601.7 276.5,-601.7 272.8472,-600.0699 277.9671,-598.4125 269.1944,-598.4398 269.1944,-598.4398"/>
<ellipse fill="none" stroke="#000000" cx="266.2722" cy="-597.1357" rx="3.2" ry="3.2"/>
</g>
<!-- empleados -->
<g id="node4" class="node">
<title>empleados</title>
<g id="a_node4"><a xlink:href="../../tables/empleados.html" xlink:title="empleados" target="_top">
<polygon fill="#ffffff" stroke="transparent" points="276,-317.2 276,-444.2 399,-444.2 399,-317.2 276,-317.2"/>
<polygon fill="#f5f5f5" stroke="transparent" points="276.5,-420.7 276.5,-443.7 399.5,-443.7 399.5,-420.7 276.5,-420.7"/>
<polygon fill="none" stroke="#000000" points="276.5,-420.7 276.5,-443.7 399.5,-443.7 399.5,-420.7 276.5,-420.7"/>
<text text-anchor="start" x="281.5" y="-429.8" font-family="Helvetica,sans-Serif" font-weight="bold" font-size="11.00" fill="#000000">empleados</text>
<text text-anchor="start" x="364.5437" y="-428.8" font-family="Helvetica,sans-Serif" font-size="11.00" fill="#000000">[table]</text>
<polygon fill="none" stroke="#000000" points="276.5,-398.7 276.5,-420.7 399.5,-420.7 399.5,-398.7 276.5,-398.7"/>
<image xlink:href="../../images/primaryKeys.png" width="11px" height="12px" preserveAspectRatio="xMinYMin meet" x="281.5" y="-415.7"/>
<text text-anchor="start" x="296.5" y="-405.8" font-family="Helvetica,sans-Serif" font-size="11.00" fill="#000000">empleado_id</text>
<polygon fill="none" stroke="#000000" points="276.5,-376.7 276.5,-398.7 399.5,-398.7 399.5,-376.7 276.5,-376.7"/>
<image xlink:href="../../images/foreignKeys.png" width="11px" height="12px" preserveAspectRatio="xMinYMin meet" x="281.5" y="-393.7"/>
<text text-anchor="start" x="296.5" y="-383.8" font-family="Helvetica,sans-Serif" font-size="11.00" fill="#000000">persona_id</text>
<polygon fill="none" stroke="#000000" points="276.5,-354.7 276.5,-376.7 399.5,-376.7 399.5,-354.7 276.5,-354.7"/>
<image xlink:href="../../images/foreignKeys.png" width="11px" height="12px" preserveAspectRatio="xMinYMin meet" x="281.5" y="-371.7"/>
<text text-anchor="start" x="296.5" y="-361.8" font-family="Helvetica,sans-Serif" font-size="11.00" fill="#000000">usuario_id</text>
<polygon fill="none" stroke="#000000" points="276.5,-335.7 276.5,-354.7 399.5,-354.7 399.5,-335.7 276.5,-335.7"/>
<text text-anchor="start" x="279.5" y="-341.8" font-family="Helvetica,sans-Serif" font-size="11.00" fill="#000000">...</text>
<polygon fill="#ffffff" stroke="transparent" points="276.5,-316.7 276.5,-335.7 326.5,-335.7 326.5,-316.7 276.5,-316.7"/>
<polygon fill="none" stroke="#000000" points="276.5,-316.7 276.5,-335.7 326.5,-335.7 326.5,-316.7 276.5,-316.7"/>
<text text-anchor="start" x="279.5" y="-322.8" font-family="Helvetica,sans-Serif" font-size="11.00" fill="#000000">&lt; 2</text>
<polygon fill="#ffffff" stroke="transparent" points="326.5,-316.7 326.5,-335.7 372.5,-335.7 372.5,-316.7 326.5,-316.7"/>
<polygon fill="none" stroke="#000000" points="326.5,-316.7 326.5,-335.7 372.5,-335.7 372.5,-316.7 326.5,-316.7"/>
<text text-anchor="start" x="342.6105" y="-322.8" font-family="Helvetica,sans-Serif" font-size="11.00" fill="#000000">1 row</text>
<polygon fill="#ffffff" stroke="transparent" points="372.5,-316.7 372.5,-335.7 399.5,-335.7 399.5,-316.7 372.5,-316.7"/>
<polygon fill="none" stroke="#000000" points="372.5,-316.7 372.5,-335.7 399.5,-335.7 399.5,-316.7 372.5,-316.7"/>
<text text-anchor="start" x="390.3862" y="-322.8" font-family="Helvetica,sans-Serif" font-size="11.00" fill="#000000"> &#160;</text>
</a>
</g>
</g>
<!-- empleados&#45;&gt;usuarios -->
<g id="edge3" class="edge">
<title>empleados:w&#45;&gt;usuarios:e</title>
<path fill="none" stroke="#000000" d="M262.5658,-361.4556C249.14,-351.7369 247.5965,-328.7 225.5,-328.7"/>
<polygon fill="#000000" stroke="#000000" points="268.8471,-363.3689 275.451,-369.1438 272.6736,-364.5345 276.5,-365.7 276.5,-365.7 276.5,-365.7 272.6736,-364.5345 277.549,-362.2562 268.8471,-363.3689 268.8471,-363.3689"/>
<ellipse fill="none" stroke="#000000" cx="265.786" cy="-362.4365" rx="3.2" ry="3.2"/>
</g>
<!-- llamadas -->
<g id="node5" class="node">
<title>llamadas</title>
<g id="a_node5"><a xlink:href="../../tables/llamadas.html" xlink:title="llamadas" target="_top">
<polygon fill="#ffffff" stroke="transparent" points="448,-322.2 448,-471.2 571,-471.2 571,-322.2 448,-322.2"/>
<polygon fill="#f5f5f5" stroke="transparent" points="448.5,-447.7 448.5,-470.7 571.5,-470.7 571.5,-447.7 448.5,-447.7"/>
<polygon fill="none" stroke="#000000" points="448.5,-447.7 448.5,-470.7 571.5,-470.7 571.5,-447.7 448.5,-447.7"/>
<text text-anchor="start" x="453.5" y="-456.8" font-family="Helvetica,sans-Serif" font-weight="bold" font-size="11.00" fill="#000000">llamadas</text>
<text text-anchor="start" x="536.5437" y="-455.8" font-family="Helvetica,sans-Serif" font-size="11.00" fill="#000000">[table]</text>
<polygon fill="none" stroke="#000000" points="448.5,-425.7 448.5,-447.7 571.5,-447.7 571.5,-425.7 448.5,-425.7"/>
<image xlink:href="../../images/primaryKeys.png" width="11px" height="12px" preserveAspectRatio="xMinYMin meet" x="453.5" y="-442.7"/>
<text text-anchor="start" x="468.5" y="-432.8" font-family="Helvetica,sans-Serif" font-size="11.00" fill="#000000">llamada_id</text>
<polygon fill="none" stroke="#000000" points="448.5,-403.7 448.5,-425.7 571.5,-425.7 571.5,-403.7 448.5,-403.7"/>
<image xlink:href="../../images/foreignKeys.png" width="11px" height="12px" preserveAspectRatio="xMinYMin meet" x="453.5" y="-420.7"/>
<text text-anchor="start" x="468.5" y="-410.8" font-family="Helvetica,sans-Serif" font-size="11.00" fill="#000000">contacto_id</text>
<polygon fill="none" stroke="#000000" points="448.5,-381.7 448.5,-403.7 571.5,-403.7 571.5,-381.7 448.5,-381.7"/>
<image xlink:href="../../images/foreignKeys.png" width="11px" height="12px" preserveAspectRatio="xMinYMin meet" x="453.5" y="-398.7"/>
<text text-anchor="start" x="468.5" y="-388.8" font-family="Helvetica,sans-Serif" font-size="11.00" fill="#000000">lead_id</text>
<polygon fill="none" stroke="#000000" points="448.5,-359.7 448.5,-381.7 571.5,-381.7 571.5,-359.7 448.5,-359.7"/>
<image xlink:href="../../images/foreignKeys.png" width="11px" height="12px" preserveAspectRatio="xMinYMin meet" x="453.5" y="-376.7"/>
<text text-anchor="start" x="468.5" y="-366.8" font-family="Helvetica,sans-Serif" font-size="11.00" fill="#000000">usu_asignado_id</text>
<polygon fill="none" stroke="#000000" points="448.5,-340.7 448.5,-359.7 571.5,-359.7 571.5,-340.7 448.5,-340.7"/>
<text text-anchor="start" x="451.5" y="-346.8" font-family="Helvetica,sans-Serif" font-size="11.00" fill="#000000">...</text>
<polygon fill="#ffffff" stroke="transparent" points="448.5,-321.7 448.5,-340.7 495.5,-340.7 495.5,-321.7 448.5,-321.7"/>
<polygon fill="none" stroke="#000000" points="448.5,-321.7 448.5,-340.7 495.5,-340.7 495.5,-321.7 448.5,-321.7"/>
<text text-anchor="start" x="451.5" y="-327.8" font-family="Helvetica,sans-Serif" font-size="11.00" fill="#000000">&lt; 3</text>
<polygon fill="#ffffff" stroke="transparent" points="495.5,-321.7 495.5,-340.7 546.5,-340.7 546.5,-321.7 495.5,-321.7"/>
<polygon fill="none" stroke="#000000" points="495.5,-321.7 495.5,-340.7 546.5,-340.7 546.5,-321.7 495.5,-321.7"/>
<text text-anchor="start" x="511.1105" y="-327.8" font-family="Helvetica,sans-Serif" font-size="11.00" fill="#000000">0 rows</text>
<polygon fill="#ffffff" stroke="transparent" points="546.5,-321.7 546.5,-340.7 571.5,-340.7 571.5,-321.7 546.5,-321.7"/>
<polygon fill="none" stroke="#000000" points="546.5,-321.7 546.5,-340.7 571.5,-340.7 571.5,-321.7 546.5,-321.7"/>
<text text-anchor="start" x="562.3862" y="-327.8" font-family="Helvetica,sans-Serif" font-size="11.00" fill="#000000"> &#160;</text>
</a>
</g>
</g>
<!-- llamadas&#45;&gt;leads -->
<g id="edge5" class="edge">
<title>llamadas:w&#45;&gt;leads:e</title>
<path fill="none" stroke="#000000" d="M434.0364,-394.5594C359.7798,-416.4209 498.9165,-623.7 399.5,-623.7"/>
<polygon fill="#000000" stroke="#000000" points="440.5653,-393.7201 448.9591,-396.2706 444.5327,-393.2101 448.5,-392.7 448.5,-392.7 448.5,-392.7 444.5327,-393.2101 448.0409,-389.1294 440.5653,-393.7201 440.5653,-393.7201"/>
<ellipse fill="none" stroke="#000000" cx="437.3914" cy="-394.1282" rx="3.2" ry="3.2"/>
</g>
<!-- llamadas&#45;&gt;usuarios -->
<g id="edge6" class="edge">
<title>llamadas:w&#45;&gt;usuarios:e</title>
<path fill="none" stroke="#000000" d="M434.634,-366.1808C421.0923,-353.8818 431.2022,-319.8514 407,-306.7 352.7187,-277.2037 328.0242,-292.0853 268,-306.7 247.3342,-311.7317 246.7696,-328.7 225.5,-328.7"/>
<polygon fill="#000000" stroke="#000000" points="440.8938,-368.221 447.3844,-374.1228 444.6969,-369.4605 448.5,-370.7 448.5,-370.7 448.5,-370.7 444.6969,-369.4605 449.6156,-367.2772 440.8938,-368.221 440.8938,-368.221"/>
<ellipse fill="none" stroke="#000000" cx="437.8513" cy="-367.2293" rx="3.2" ry="3.2"/>
</g>
<!-- oportunidades -->
<g id="node6" class="node">
<title>oportunidades</title>
<g id="a_node6"><a xlink:href="../../tables/oportunidades.html" xlink:title="oportunidades" target="_top">
<polygon fill="#ffffff" stroke="transparent" points="276,-75.2 276,-268.2 399,-268.2 399,-75.2 276,-75.2"/>
<polygon fill="#f5f5f5" stroke="transparent" points="276.5,-244.7 276.5,-267.7 399.5,-267.7 399.5,-244.7 276.5,-244.7"/>
<polygon fill="none" stroke="#000000" points="276.5,-244.7 276.5,-267.7 399.5,-267.7 399.5,-244.7 276.5,-244.7"/>
<text text-anchor="start" x="281.5" y="-253.8" font-family="Helvetica,sans-Serif" font-weight="bold" font-size="11.00" fill="#000000">oportunidades</text>
<text text-anchor="start" x="364.5437" y="-252.8" font-family="Helvetica,sans-Serif" font-size="11.00" fill="#000000">[table]</text>
<polygon fill="none" stroke="#000000" points="276.5,-222.7 276.5,-244.7 399.5,-244.7 399.5,-222.7 276.5,-222.7"/>
<image xlink:href="../../images/primaryKeys.png" width="11px" height="12px" preserveAspectRatio="xMinYMin meet" x="281.5" y="-239.7"/>
<text text-anchor="start" x="296.5" y="-229.8" font-family="Helvetica,sans-Serif" font-size="11.00" fill="#000000">oportunidad_id</text>
<polygon fill="none" stroke="#000000" points="276.5,-200.7 276.5,-222.7 399.5,-222.7 399.5,-200.7 276.5,-200.7"/>
<image xlink:href="../../images/foreignKeys.png" width="11px" height="12px" preserveAspectRatio="xMinYMin meet" x="281.5" y="-217.7"/>
<text text-anchor="start" x="296.5" y="-207.8" font-family="Helvetica,sans-Serif" font-size="11.00" fill="#000000">campana_id</text>
<polygon fill="none" stroke="#000000" points="276.5,-178.7 276.5,-200.7 399.5,-200.7 399.5,-178.7 276.5,-178.7"/>
<image xlink:href="../../images/foreignKeys.png" width="11px" height="12px" preserveAspectRatio="xMinYMin meet" x="281.5" y="-195.7"/>
<text text-anchor="start" x="296.5" y="-185.8" font-family="Helvetica,sans-Serif" font-size="11.00" fill="#000000">contacto_id</text>
<polygon fill="none" stroke="#000000" points="276.5,-156.7 276.5,-178.7 399.5,-178.7 399.5,-156.7 276.5,-156.7"/>
<image xlink:href="../../images/foreignKeys.png" width="11px" height="12px" preserveAspectRatio="xMinYMin meet" x="281.5" y="-173.7"/>
<text text-anchor="start" x="296.5" y="-163.8" font-family="Helvetica,sans-Serif" font-size="11.00" fill="#000000">curso_id</text>
<polygon fill="none" stroke="#000000" points="276.5,-134.7 276.5,-156.7 399.5,-156.7 399.5,-134.7 276.5,-134.7"/>
<image xlink:href="../../images/foreignKeys.png" width="11px" height="12px" preserveAspectRatio="xMinYMin meet" x="281.5" y="-151.7"/>
<text text-anchor="start" x="296.5" y="-141.8" font-family="Helvetica,sans-Serif" font-size="11.00" fill="#000000">usu_asignado_id</text>
<polygon fill="none" stroke="#000000" points="276.5,-112.7 276.5,-134.7 399.5,-134.7 399.5,-112.7 276.5,-112.7"/>
<image xlink:href="../../images/foreignKeys.png" width="11px" height="12px" preserveAspectRatio="xMinYMin meet" x="281.5" y="-129.7"/>
<text text-anchor="start" x="296.5" y="-119.8" font-family="Helvetica,sans-Serif" font-size="11.00" fill="#000000">ciclo_id</text>
<polygon fill="none" stroke="#000000" points="276.5,-93.7 276.5,-112.7 399.5,-112.7 399.5,-93.7 276.5,-93.7"/>
<text text-anchor="start" x="279.5" y="-99.8" font-family="Helvetica,sans-Serif" font-size="11.00" fill="#000000">...</text>
<polygon fill="#ffffff" stroke="transparent" points="276.5,-74.7 276.5,-93.7 315.5,-93.7 315.5,-74.7 276.5,-74.7"/>
<polygon fill="none" stroke="#000000" points="276.5,-74.7 276.5,-93.7 315.5,-93.7 315.5,-74.7 276.5,-74.7"/>
<text text-anchor="start" x="279.5" y="-80.8" font-family="Helvetica,sans-Serif" font-size="11.00" fill="#000000">&lt; 5</text>
<polygon fill="#ffffff" stroke="transparent" points="315.5,-74.7 315.5,-93.7 368.5,-93.7 368.5,-74.7 315.5,-74.7"/>
<polygon fill="none" stroke="#000000" points="315.5,-74.7 315.5,-93.7 368.5,-93.7 368.5,-74.7 315.5,-74.7"/>
<text text-anchor="start" x="326.9956" y="-80.8" font-family="Helvetica,sans-Serif" font-size="11.00" fill="#000000">14 rows</text>
<polygon fill="#ffffff" stroke="transparent" points="368.5,-74.7 368.5,-93.7 399.5,-93.7 399.5,-74.7 368.5,-74.7"/>
<polygon fill="none" stroke="#000000" points="368.5,-74.7 368.5,-93.7 399.5,-93.7 399.5,-74.7 368.5,-74.7"/>
<text text-anchor="start" x="380.9053" y="-80.8" font-family="Helvetica,sans-Serif" font-size="11.00" fill="#000000">1 &gt;</text>
</a>
</g>
</g>
<!-- oportunidades&#45;&gt;usuarios -->
<g id="edge7" class="edge">
<title>oportunidades:w&#45;&gt;usuarios:e</title>
<path fill="none" stroke="#000000" d="M262.2372,-148.0138C206.8292,-169.1977 304.3259,-328.7 225.5,-328.7"/>
<polygon fill="#000000" stroke="#000000" points="268.6032,-146.9811 277.0765,-149.2535 272.5516,-146.3406 276.5,-145.7 276.5,-145.7 276.5,-145.7 272.5516,-146.3406 275.9235,-142.1465 268.6032,-146.9811 268.6032,-146.9811"/>
<ellipse fill="none" stroke="#000000" cx="265.4445" cy="-147.4936" rx="3.2" ry="3.2"/>
</g>
<!-- tareas -->
<g id="node7" class="node">
<title>tareas</title>
<g id="a_node7"><a xlink:href="../../tables/tareas.html" xlink:title="tareas" target="_top">
<polygon fill="#ffffff" stroke="transparent" points="448,-38.2 448,-187.2 571,-187.2 571,-38.2 448,-38.2"/>
<polygon fill="#f5f5f5" stroke="transparent" points="448.5,-163.7 448.5,-186.7 571.5,-186.7 571.5,-163.7 448.5,-163.7"/>
<polygon fill="none" stroke="#000000" points="448.5,-163.7 448.5,-186.7 571.5,-186.7 571.5,-163.7 448.5,-163.7"/>
<text text-anchor="start" x="453.5" y="-172.8" font-family="Helvetica,sans-Serif" font-weight="bold" font-size="11.00" fill="#000000">tareas</text>
<text text-anchor="start" x="536.5437" y="-171.8" font-family="Helvetica,sans-Serif" font-size="11.00" fill="#000000">[table]</text>
<polygon fill="none" stroke="#000000" points="448.5,-141.7 448.5,-163.7 571.5,-163.7 571.5,-141.7 448.5,-141.7"/>
<image xlink:href="../../images/primaryKeys.png" width="11px" height="12px" preserveAspectRatio="xMinYMin meet" x="453.5" y="-158.7"/>
<text text-anchor="start" x="468.5" y="-148.8" font-family="Helvetica,sans-Serif" font-size="11.00" fill="#000000">tarea_id</text>
<polygon fill="none" stroke="#000000" points="448.5,-119.7 448.5,-141.7 571.5,-141.7 571.5,-119.7 448.5,-119.7"/>
<image xlink:href="../../images/foreignKeys.png" width="11px" height="12px" preserveAspectRatio="xMinYMin meet" x="453.5" y="-136.7"/>
<text text-anchor="start" x="468.5" y="-126.8" font-family="Helvetica,sans-Serif" font-size="11.00" fill="#000000">contacto_id</text>
<polygon fill="none" stroke="#000000" points="448.5,-97.7 448.5,-119.7 571.5,-119.7 571.5,-97.7 448.5,-97.7"/>
<image xlink:href="../../images/foreignKeys.png" width="11px" height="12px" preserveAspectRatio="xMinYMin meet" x="453.5" y="-114.7"/>
<text text-anchor="start" x="468.5" y="-104.8" font-family="Helvetica,sans-Serif" font-size="11.00" fill="#000000">lead_id</text>
<polygon fill="none" stroke="#000000" points="448.5,-75.7 448.5,-97.7 571.5,-97.7 571.5,-75.7 448.5,-75.7"/>
<image xlink:href="../../images/foreignKeys.png" width="11px" height="12px" preserveAspectRatio="xMinYMin meet" x="453.5" y="-92.7"/>
<text text-anchor="start" x="468.5" y="-82.8" font-family="Helvetica,sans-Serif" font-size="11.00" fill="#000000">usu_asignado_id</text>
<polygon fill="none" stroke="#000000" points="448.5,-56.7 448.5,-75.7 571.5,-75.7 571.5,-56.7 448.5,-56.7"/>
<text text-anchor="start" x="451.5" y="-62.8" font-family="Helvetica,sans-Serif" font-size="11.00" fill="#000000">...</text>
<polygon fill="#ffffff" stroke="transparent" points="448.5,-37.7 448.5,-56.7 495.5,-56.7 495.5,-37.7 448.5,-37.7"/>
<polygon fill="none" stroke="#000000" points="448.5,-37.7 448.5,-56.7 495.5,-56.7 495.5,-37.7 448.5,-37.7"/>
<text text-anchor="start" x="451.5" y="-43.8" font-family="Helvetica,sans-Serif" font-size="11.00" fill="#000000">&lt; 3</text>
<polygon fill="#ffffff" stroke="transparent" points="495.5,-37.7 495.5,-56.7 546.5,-56.7 546.5,-37.7 495.5,-37.7"/>
<polygon fill="none" stroke="#000000" points="495.5,-37.7 495.5,-56.7 546.5,-56.7 546.5,-37.7 495.5,-37.7"/>
<text text-anchor="start" x="511.1105" y="-43.8" font-family="Helvetica,sans-Serif" font-size="11.00" fill="#000000">0 rows</text>
<polygon fill="#ffffff" stroke="transparent" points="546.5,-37.7 546.5,-56.7 571.5,-56.7 571.5,-37.7 546.5,-37.7"/>
<polygon fill="none" stroke="#000000" points="546.5,-37.7 546.5,-56.7 571.5,-56.7 571.5,-37.7 546.5,-37.7"/>
<text text-anchor="start" x="562.3862" y="-43.8" font-family="Helvetica,sans-Serif" font-size="11.00" fill="#000000"> &#160;</text>
</a>
</g>
</g>
<!-- tareas&#45;&gt;leads -->
<g id="edge8" class="edge">
<title>tareas:w&#45;&gt;leads:e</title>
<path fill="none" stroke="#000000" d="M434.223,-111.9887C349.8501,-155.8497 509.0725,-623.7 399.5,-623.7"/>
<polygon fill="#000000" stroke="#000000" points="440.7042,-110.4958 449.3081,-112.2081 444.6021,-109.5979 448.5,-108.7 448.5,-108.7 448.5,-108.7 444.6021,-109.5979 447.6919,-105.1919 440.7042,-110.4958 440.7042,-110.4958"/>
<ellipse fill="none" stroke="#000000" cx="437.5858" cy="-111.2141" rx="3.2" ry="3.2"/>
</g>
<!-- tareas&#45;&gt;usuarios -->
<g id="edge9" class="edge">
<title>tareas:w&#45;&gt;usuarios:e</title>
<path fill="none" stroke="#000000" d="M434.2733,-82.9709C425.6539,-77.6796 421.2445,-68.2422 407,-64.7 347.048,-49.7918 315.027,-24.6381 268,-64.7 222.7663,-103.2342 284.922,-328.7 225.5,-328.7"/>
<polygon fill="#000000" stroke="#000000" points="440.7614,-84.6715 447.5872,-90.1824 444.6307,-85.6858 448.5,-86.7 448.5,-86.7 448.5,-86.7 444.6307,-85.6858 449.4128,-83.2176 440.7614,-84.6715 440.7614,-84.6715"/>
<ellipse fill="none" stroke="#000000" cx="437.666" cy="-83.8602" rx="3.2" ry="3.2"/>
</g>
</g>
</svg>
