<?xml version="1.0" encoding="UTF-8" standalone="no"?>
<!DOCTYPE svg PUBLIC "-//W3C//DTD SVG 1.1//EN"
 "http://www.w3.org/Graphics/SVG/1.1/DTD/svg11.dtd">
<!-- Generated by graphviz version 2.40.1 (20161225.0304)
 -->
<!-- Title: twoDegreesRelationshipsDiagram Pages: 1 -->
<svg width="748pt" height="841pt"
 viewBox="0.00 0.00 748.00 841.20" xmlns="http://www.w3.org/2000/svg" xmlns:xlink="http://www.w3.org/1999/xlink">
<g id="graph0" class="graph" transform="scale(1 1) rotate(0) translate(4 837.2)">
<title>twoDegreesRelationshipsDiagram</title>
<polygon fill="#ffffff" stroke="transparent" points="-4,4 -4,-837.2 744,-837.2 744,4 -4,4"/>
<text text-anchor="middle" x="72.4936" y="-7.3" font-family="Helvetica,sans-Serif" font-size="11.00" fill="#000000">Generated by SchemaSpy</text>
<!-- casos -->
<g id="node1" class="node">
<title>casos</title>
<g id="a_node1"><a xlink:href="../../tables/casos.html" xlink:title="casos" target="_top">
<polygon fill="#ffffff" stroke="transparent" points="413,-576.2 413,-681.2 536,-681.2 536,-576.2 413,-576.2"/>
<polygon fill="#f5f5f5" stroke="transparent" points="413.5,-657.7 413.5,-680.7 536.5,-680.7 536.5,-657.7 413.5,-657.7"/>
<polygon fill="none" stroke="#000000" points="413.5,-657.7 413.5,-680.7 536.5,-680.7 536.5,-657.7 413.5,-657.7"/>
<text text-anchor="start" x="418.5" y="-666.8" font-family="Helvetica,sans-Serif" font-weight="bold" font-size="11.00" fill="#000000">casos</text>
<text text-anchor="start" x="501.5437" y="-665.8" font-family="Helvetica,sans-Serif" font-size="11.00" fill="#000000">[table]</text>
<polygon fill="none" stroke="#000000" points="413.5,-635.7 413.5,-657.7 536.5,-657.7 536.5,-635.7 413.5,-635.7"/>
<image xlink:href="../../images/primaryKeys.png" width="11px" height="12px" preserveAspectRatio="xMinYMin meet" x="418.5" y="-652.7"/>
<text text-anchor="start" x="433.5" y="-642.8" font-family="Helvetica,sans-Serif" font-size="11.00" fill="#000000">caso_id</text>
<polygon fill="none" stroke="#000000" points="413.5,-613.7 413.5,-635.7 536.5,-635.7 536.5,-613.7 413.5,-613.7"/>
<image xlink:href="../../images/foreignKeys.png" width="11px" height="12px" preserveAspectRatio="xMinYMin meet" x="418.5" y="-630.7"/>
<text text-anchor="start" x="433.5" y="-620.8" font-family="Helvetica,sans-Serif" font-size="11.00" fill="#000000">usu_asignado_id</text>
<polygon fill="none" stroke="#000000" points="413.5,-594.7 413.5,-613.7 536.5,-613.7 536.5,-594.7 413.5,-594.7"/>
<text text-anchor="start" x="416.5" y="-600.8" font-family="Helvetica,sans-Serif" font-size="11.00" fill="#000000">...</text>
<polygon fill="#ffffff" stroke="transparent" points="413.5,-575.7 413.5,-594.7 460.5,-594.7 460.5,-575.7 413.5,-575.7"/>
<polygon fill="none" stroke="#000000" points="413.5,-575.7 413.5,-594.7 460.5,-594.7 460.5,-575.7 413.5,-575.7"/>
<text text-anchor="start" x="416.5" y="-581.8" font-family="Helvetica,sans-Serif" font-size="11.00" fill="#000000">&lt; 1</text>
<polygon fill="#ffffff" stroke="transparent" points="460.5,-575.7 460.5,-594.7 511.5,-594.7 511.5,-575.7 460.5,-575.7"/>
<polygon fill="none" stroke="#000000" points="460.5,-575.7 460.5,-594.7 511.5,-594.7 511.5,-575.7 460.5,-575.7"/>
<text text-anchor="start" x="476.1105" y="-581.8" font-family="Helvetica,sans-Serif" font-size="11.00" fill="#000000">0 rows</text>
<polygon fill="#ffffff" stroke="transparent" points="511.5,-575.7 511.5,-594.7 536.5,-594.7 536.5,-575.7 511.5,-575.7"/>
<polygon fill="none" stroke="#000000" points="511.5,-575.7 511.5,-594.7 536.5,-594.7 536.5,-575.7 511.5,-575.7"/>
<text text-anchor="start" x="527.3862" y="-581.8" font-family="Helvetica,sans-Serif" font-size="11.00" fill="#000000"> &#160;</text>
</a>
</g>
</g>
<!-- usuarios -->
<g id="node2" class="node">
<title>usuarios</title>
<g id="a_node2"><a xlink:href="../../tables/usuarios.html" xlink:title="usuarios" target="_top">
<polygon fill="#ffffff" stroke="transparent" points="145,-379.7 145,-601.7 364,-601.7 364,-379.7 145,-379.7"/>
<polygon fill="#f5f5f5" stroke="transparent" points="147.5,-576.7 147.5,-599.7 362.5,-599.7 362.5,-576.7 147.5,-576.7"/>
<polygon fill="none" stroke="#000000" points="147.5,-576.7 147.5,-599.7 362.5,-599.7 362.5,-576.7 147.5,-576.7"/>
<text text-anchor="start" x="152.5" y="-585.8" font-family="Helvetica,sans-Serif" font-weight="bold" font-size="11.00" fill="#000000">usuarios</text>
<text text-anchor="start" x="327.5437" y="-584.8" font-family="Helvetica,sans-Serif" font-size="11.00" fill="#000000">[table]</text>
<polygon fill="none" stroke="#000000" points="147.5,-554.7 147.5,-576.7 270.5,-576.7 270.5,-554.7 147.5,-554.7"/>
<image xlink:href="../../images/primaryKeys.png" width="11px" height="12px" preserveAspectRatio="xMinYMin meet" x="152.5" y="-571.7"/>
<text text-anchor="start" x="167.5" y="-561.8" font-family="Helvetica,sans-Serif" font-size="11.00" fill="#000000">usuario_id</text>
<polygon fill="none" stroke="#000000" points="270.5,-554.7 270.5,-576.7 362.5,-576.7 362.5,-554.7 270.5,-554.7"/>
<text text-anchor="start" x="273.5" y="-562.4" font-family="Helvetica,sans-Serif" font-size="11.00" fill="#000000">serial[10]</text>
<polygon fill="#ffffff" stroke="transparent" points="147.5,-532.7 147.5,-554.7 270.5,-554.7 270.5,-532.7 147.5,-532.7"/>
<polygon fill="none" stroke="#000000" points="147.5,-532.7 147.5,-554.7 270.5,-554.7 270.5,-532.7 147.5,-532.7"/>
<text text-anchor="start" x="167.5" y="-539.8" font-family="Helvetica,sans-Serif" font-size="11.00" fill="#000000">nom_usuario</text>
<polygon fill="none" stroke="#000000" points="270.5,-532.7 270.5,-554.7 362.5,-554.7 362.5,-532.7 270.5,-532.7"/>
<text text-anchor="start" x="273.5" y="-540.4" font-family="Helvetica,sans-Serif" font-size="11.00" fill="#000000">varchar[20]</text>
<polygon fill="none" stroke="#000000" points="147.5,-510.7 147.5,-532.7 270.5,-532.7 270.5,-510.7 147.5,-510.7"/>
<text text-anchor="start" x="167.5" y="-517.8" font-family="Helvetica,sans-Serif" font-size="11.00" fill="#000000">password</text>
<polygon fill="none" stroke="#000000" points="270.5,-510.7 270.5,-532.7 362.5,-532.7 362.5,-510.7 270.5,-510.7"/>
<text text-anchor="start" x="273.5" y="-518.4" font-family="Helvetica,sans-Serif" font-size="11.00" fill="#000000">varchar[255]</text>
<polygon fill="none" stroke="#000000" points="147.5,-488.7 147.5,-510.7 270.5,-510.7 270.5,-488.7 147.5,-488.7"/>
<text text-anchor="start" x="167.5" y="-495.8" font-family="Helvetica,sans-Serif" font-size="11.00" fill="#000000">email</text>
<polygon fill="none" stroke="#000000" points="270.5,-488.7 270.5,-510.7 362.5,-510.7 362.5,-488.7 270.5,-488.7"/>
<text text-anchor="start" x="273.5" y="-496.4" font-family="Helvetica,sans-Serif" font-size="11.00" fill="#000000">varchar[60]</text>
<polygon fill="none" stroke="#000000" points="147.5,-466.7 147.5,-488.7 270.5,-488.7 270.5,-466.7 147.5,-466.7"/>
<text text-anchor="start" x="167.5" y="-473.8" font-family="Helvetica,sans-Serif" font-size="11.00" fill="#000000">usu_insercion</text>
<polygon fill="none" stroke="#000000" points="270.5,-466.7 270.5,-488.7 362.5,-488.7 362.5,-466.7 270.5,-466.7"/>
<text text-anchor="start" x="273.5" y="-474.4" font-family="Helvetica,sans-Serif" font-size="11.00" fill="#000000">varchar[20]</text>
<polygon fill="none" stroke="#000000" points="147.5,-444.7 147.5,-466.7 270.5,-466.7 270.5,-444.7 147.5,-444.7"/>
<text text-anchor="start" x="167.5" y="-451.8" font-family="Helvetica,sans-Serif" font-size="11.00" fill="#000000">fec_insercion</text>
<polygon fill="none" stroke="#000000" points="270.5,-444.7 270.5,-466.7 362.5,-466.7 362.5,-444.7 270.5,-444.7"/>
<text text-anchor="start" x="273.1023" y="-452.4" font-family="Helvetica,sans-Serif" font-size="11.00" fill="#000000">timestamptz[35,6]</text>
<polygon fill="none" stroke="#000000" points="147.5,-422.7 147.5,-444.7 270.5,-444.7 270.5,-422.7 147.5,-422.7"/>
<text text-anchor="start" x="167.5" y="-429.8" font-family="Helvetica,sans-Serif" font-size="11.00" fill="#000000">fec_modificacion</text>
<polygon fill="none" stroke="#000000" points="270.5,-422.7 270.5,-444.7 362.5,-444.7 362.5,-422.7 270.5,-422.7"/>
<text text-anchor="start" x="273.1023" y="-430.4" font-family="Helvetica,sans-Serif" font-size="11.00" fill="#000000">timestamptz[35,6]</text>
<polygon fill="none" stroke="#000000" points="147.5,-400.7 147.5,-422.7 270.5,-422.7 270.5,-400.7 147.5,-400.7"/>
<text text-anchor="start" x="167.5" y="-407.8" font-family="Helvetica,sans-Serif" font-size="11.00" fill="#000000">usu_modificacion</text>
<polygon fill="none" stroke="#000000" points="270.5,-400.7 270.5,-422.7 362.5,-422.7 362.5,-400.7 270.5,-400.7"/>
<text text-anchor="start" x="273.5" y="-408.4" font-family="Helvetica,sans-Serif" font-size="11.00" fill="#000000">varchar[20]</text>
<polygon fill="#ffffff" stroke="transparent" points="147.5,-381.7 147.5,-400.7 200.5,-400.7 200.5,-381.7 147.5,-381.7"/>
<polygon fill="none" stroke="#000000" points="147.5,-381.7 147.5,-400.7 200.5,-400.7 200.5,-381.7 147.5,-381.7"/>
<text text-anchor="start" x="150.5" y="-387.8" font-family="Helvetica,sans-Serif" font-size="11.00" fill="#000000">&lt; 0</text>
<polygon fill="#ffffff" stroke="transparent" points="200.5,-381.7 200.5,-400.7 270.5,-400.7 270.5,-381.7 200.5,-381.7"/>
<polygon fill="none" stroke="#000000" points="200.5,-381.7 200.5,-400.7 270.5,-400.7 270.5,-381.7 200.5,-381.7"/>
<text text-anchor="start" x="235.1105" y="-387.8" font-family="Helvetica,sans-Serif" font-size="11.00" fill="#000000">0 rows</text>
<polygon fill="#ffffff" stroke="transparent" points="270.5,-381.7 270.5,-400.7 362.5,-400.7 362.5,-381.7 270.5,-381.7"/>
<polygon fill="none" stroke="#000000" points="270.5,-381.7 270.5,-400.7 362.5,-400.7 362.5,-381.7 270.5,-381.7"/>
<text text-anchor="start" x="343.9053" y="-387.8" font-family="Helvetica,sans-Serif" font-size="11.00" fill="#000000">5 &gt;</text>
<polygon fill="none" stroke="#000000" stroke-width="2" points="146,-380.7 146,-600.7 363,-600.7 363,-380.7 146,-380.7"/>
</a>
</g>
</g>
<!-- casos&#45;&gt;usuarios -->
<g id="edge1" class="edge">
<title>casos:w&#45;&gt;usuarios:e</title>
<path fill="none" stroke="#000000" d="M399.7854,-620.0704C383.572,-606.1617 391.2036,-565.7 362.5,-565.7"/>
<polygon fill="#000000" stroke="#000000" points="405.9202,-622.1413 412.3486,-628.1109 409.7101,-623.4206 413.5,-624.7 413.5,-624.7 413.5,-624.7 409.7101,-623.4206 414.6514,-621.2891 405.9202,-622.1413 405.9202,-622.1413"/>
<ellipse fill="none" stroke="#000000" cx="402.8883" cy="-621.1178" rx="3.2" ry="3.2"/>
</g>
<!-- contactos -->
<g id="node3" class="node">
<title>contactos</title>
<g id="a_node3"><a xlink:href="../../tables/contactos.html" xlink:title="contactos" target="_top">
<polygon fill="#ffffff" stroke="transparent" points="209.5,-297.2 209.5,-358.2 299.5,-358.2 299.5,-297.2 209.5,-297.2"/>
<polygon fill="#f5f5f5" stroke="transparent" points="209.5,-334.7 209.5,-357.7 299.5,-357.7 299.5,-334.7 209.5,-334.7"/>
<polygon fill="none" stroke="#000000" points="209.5,-334.7 209.5,-357.7 299.5,-357.7 299.5,-334.7 209.5,-334.7"/>
<text text-anchor="start" x="214.4633" y="-343.8" font-family="Helvetica,sans-Serif" font-weight="bold" font-size="11.00" fill="#000000">contactos</text>
<text text-anchor="start" x="265.0219" y="-342.8" font-family="Helvetica,sans-Serif" font-size="11.00" fill="#000000">[table]</text>
<polygon fill="none" stroke="#000000" points="209.5,-315.7 209.5,-334.7 299.5,-334.7 299.5,-315.7 209.5,-315.7"/>
<text text-anchor="start" x="212.5" y="-321.8" font-family="Helvetica,sans-Serif" font-size="11.00" fill="#000000">...</text>
<polygon fill="#ffffff" stroke="transparent" points="209.5,-296.7 209.5,-315.7 235.5,-315.7 235.5,-296.7 209.5,-296.7"/>
<polygon fill="none" stroke="#000000" points="209.5,-296.7 209.5,-315.7 235.5,-315.7 235.5,-296.7 209.5,-296.7"/>
<text text-anchor="start" x="212.5" y="-302.8" font-family="Helvetica,sans-Serif" font-size="11.00" fill="#000000">&lt; 2</text>
<polygon fill="#ffffff" stroke="transparent" points="235.5,-296.7 235.5,-315.7 275.5,-315.7 275.5,-296.7 235.5,-296.7"/>
<polygon fill="none" stroke="#000000" points="235.5,-296.7 235.5,-315.7 275.5,-315.7 275.5,-296.7 235.5,-296.7"/>
<text text-anchor="start" x="240.1105" y="-302.8" font-family="Helvetica,sans-Serif" font-size="11.00" fill="#000000">0 rows</text>
<polygon fill="#ffffff" stroke="transparent" points="275.5,-296.7 275.5,-315.7 299.5,-315.7 299.5,-296.7 275.5,-296.7"/>
<polygon fill="none" stroke="#000000" points="275.5,-296.7 275.5,-315.7 299.5,-315.7 299.5,-296.7 275.5,-296.7"/>
<text text-anchor="start" x="280.9053" y="-302.8" font-family="Helvetica,sans-Serif" font-size="11.00" fill="#000000">2 &gt;</text>
</a>
</g>
</g>
<!-- personas -->
<g id="node4" class="node">
<title>personas</title>
<g id="a_node4"><a xlink:href="../../tables/personas.html" xlink:title="personas" target="_top">
<polygon fill="#ffffff" stroke="transparent" points="8,-297.2 8,-358.2 96,-358.2 96,-297.2 8,-297.2"/>
<polygon fill="#f5f5f5" stroke="transparent" points="8,-334.7 8,-357.7 96,-357.7 96,-334.7 8,-334.7"/>
<polygon fill="none" stroke="#000000" points="8,-334.7 8,-357.7 96,-357.7 96,-334.7 8,-334.7"/>
<text text-anchor="start" x="12.8818" y="-343.8" font-family="Helvetica,sans-Serif" font-weight="bold" font-size="11.00" fill="#000000">personas</text>
<text text-anchor="start" x="61.5219" y="-342.8" font-family="Helvetica,sans-Serif" font-size="11.00" fill="#000000">[table]</text>
<polygon fill="none" stroke="#000000" points="8,-315.7 8,-334.7 96,-334.7 96,-315.7 8,-315.7"/>
<text text-anchor="start" x="11" y="-321.8" font-family="Helvetica,sans-Serif" font-size="11.00" fill="#000000">...</text>
<polygon fill="#ffffff" stroke="transparent" points="8,-296.7 8,-315.7 28,-315.7 28,-296.7 8,-296.7"/>
<polygon fill="none" stroke="#000000" points="8,-296.7 8,-315.7 28,-315.7 28,-296.7 8,-296.7"/>
<text text-anchor="start" x="11" y="-302.8" font-family="Helvetica,sans-Serif" font-size="11.00" fill="#000000"> &#160;</text>
<polygon fill="#ffffff" stroke="transparent" points="28,-296.7 28,-315.7 70,-315.7 70,-296.7 28,-296.7"/>
<polygon fill="none" stroke="#000000" points="28,-296.7 28,-315.7 70,-315.7 70,-296.7 28,-296.7"/>
<text text-anchor="start" x="34.6105" y="-302.8" font-family="Helvetica,sans-Serif" font-size="11.00" fill="#000000">0 rows</text>
<polygon fill="#ffffff" stroke="transparent" points="70,-296.7 70,-315.7 96,-315.7 96,-296.7 70,-296.7"/>
<polygon fill="none" stroke="#000000" points="70,-296.7 70,-315.7 96,-315.7 96,-296.7 70,-296.7"/>
<text text-anchor="start" x="77.4053" y="-302.8" font-family="Helvetica,sans-Serif" font-size="11.00" fill="#000000">7 &gt;</text>
</a>
</g>
</g>
<!-- contactos&#45;&gt;personas -->
<g id="edge2" class="edge">
<title>contactos:w&#45;&gt;personas:e</title>
<path fill="none" stroke="#000000" d="M194.9669,-324.7C156.0393,-324.7 141.2227,-324.7 96,-324.7"/>
<polygon fill="#000000" stroke="#000000" points="201.5,-324.7001 209.5,-328.3 205.5,-324.7 209.5,-324.7 209.5,-324.7 209.5,-324.7 205.5,-324.7 209.5,-321.1 201.5,-324.7001 201.5,-324.7001"/>
<ellipse fill="none" stroke="#000000" cx="198.3" cy="-324.7001" rx="3.2" ry="3.2"/>
</g>
<!-- empleados -->
<g id="node5" class="node">
<title>empleados</title>
<g id="a_node5"><a xlink:href="../../tables/empleados.html" xlink:title="empleados" target="_top">
<polygon fill="#ffffff" stroke="transparent" points="413,-702.2 413,-829.2 536,-829.2 536,-702.2 413,-702.2"/>
<polygon fill="#f5f5f5" stroke="transparent" points="413.5,-805.7 413.5,-828.7 536.5,-828.7 536.5,-805.7 413.5,-805.7"/>
<polygon fill="none" stroke="#000000" points="413.5,-805.7 413.5,-828.7 536.5,-828.7 536.5,-805.7 413.5,-805.7"/>
<text text-anchor="start" x="418.5" y="-814.8" font-family="Helvetica,sans-Serif" font-weight="bold" font-size="11.00" fill="#000000">empleados</text>
<text text-anchor="start" x="501.5437" y="-813.8" font-family="Helvetica,sans-Serif" font-size="11.00" fill="#000000">[table]</text>
<polygon fill="none" stroke="#000000" points="413.5,-783.7 413.5,-805.7 536.5,-805.7 536.5,-783.7 413.5,-783.7"/>
<image xlink:href="../../images/primaryKeys.png" width="11px" height="12px" preserveAspectRatio="xMinYMin meet" x="418.5" y="-800.7"/>
<text text-anchor="start" x="433.5" y="-790.8" font-family="Helvetica,sans-Serif" font-size="11.00" fill="#000000">empleado_id</text>
<polygon fill="none" stroke="#000000" points="413.5,-761.7 413.5,-783.7 536.5,-783.7 536.5,-761.7 413.5,-761.7"/>
<image xlink:href="../../images/foreignKeys.png" width="11px" height="12px" preserveAspectRatio="xMinYMin meet" x="418.5" y="-778.7"/>
<text text-anchor="start" x="433.5" y="-768.8" font-family="Helvetica,sans-Serif" font-size="11.00" fill="#000000">persona_id</text>
<polygon fill="none" stroke="#000000" points="413.5,-739.7 413.5,-761.7 536.5,-761.7 536.5,-739.7 413.5,-739.7"/>
<image xlink:href="../../images/foreignKeys.png" width="11px" height="12px" preserveAspectRatio="xMinYMin meet" x="418.5" y="-756.7"/>
<text text-anchor="start" x="433.5" y="-746.8" font-family="Helvetica,sans-Serif" font-size="11.00" fill="#000000">usuario_id</text>
<polygon fill="none" stroke="#000000" points="413.5,-720.7 413.5,-739.7 536.5,-739.7 536.5,-720.7 413.5,-720.7"/>
<text text-anchor="start" x="416.5" y="-726.8" font-family="Helvetica,sans-Serif" font-size="11.00" fill="#000000">...</text>
<polygon fill="#ffffff" stroke="transparent" points="413.5,-701.7 413.5,-720.7 460.5,-720.7 460.5,-701.7 413.5,-701.7"/>
<polygon fill="none" stroke="#000000" points="413.5,-701.7 413.5,-720.7 460.5,-720.7 460.5,-701.7 413.5,-701.7"/>
<text text-anchor="start" x="416.5" y="-707.8" font-family="Helvetica,sans-Serif" font-size="11.00" fill="#000000">&lt; 2</text>
<polygon fill="#ffffff" stroke="transparent" points="460.5,-701.7 460.5,-720.7 511.5,-720.7 511.5,-701.7 460.5,-701.7"/>
<polygon fill="none" stroke="#000000" points="460.5,-701.7 460.5,-720.7 511.5,-720.7 511.5,-701.7 460.5,-701.7"/>
<text text-anchor="start" x="476.1105" y="-707.8" font-family="Helvetica,sans-Serif" font-size="11.00" fill="#000000">0 rows</text>
<polygon fill="#ffffff" stroke="transparent" points="511.5,-701.7 511.5,-720.7 536.5,-720.7 536.5,-701.7 511.5,-701.7"/>
<polygon fill="none" stroke="#000000" points="511.5,-701.7 511.5,-720.7 536.5,-720.7 536.5,-701.7 511.5,-701.7"/>
<text text-anchor="start" x="527.3862" y="-707.8" font-family="Helvetica,sans-Serif" font-size="11.00" fill="#000000"> &#160;</text>
</a>
</g>
</g>
<!-- empleados&#45;&gt;usuarios -->
<g id="edge4" class="edge">
<title>empleados:w&#45;&gt;usuarios:e</title>
<path fill="none" stroke="#000000" d="M399.0991,-748.3609C343.1888,-726.9455 442.1256,-565.7 362.5,-565.7"/>
<polygon fill="#000000" stroke="#000000" points="405.6035,-749.4174 412.9228,-754.2534 409.5517,-750.0587 413.5,-750.7 413.5,-750.7 413.5,-750.7 409.5517,-750.0587 414.0772,-747.1466 405.6035,-749.4174 405.6035,-749.4174"/>
<ellipse fill="none" stroke="#000000" cx="402.4449" cy="-748.9043" rx="3.2" ry="3.2"/>
</g>
<!-- empleados&#45;&gt;personas -->
<g id="edge3" class="edge">
<title>empleados:w&#45;&gt;personas:e</title>
<path fill="none" stroke="#000000" d="M398.8429,-772.5416C267.6167,-769.6309 213.6488,-726.2383 137,-612.7 100.8293,-559.1211 160.6453,-324.7 96,-324.7"/>
<polygon fill="#000000" stroke="#000000" points="405.5005,-772.6135 413.4611,-776.2998 409.5002,-772.6568 413.5,-772.7 413.5,-772.7 413.5,-772.7 409.5002,-772.6568 413.5389,-769.1002 405.5005,-772.6135 405.5005,-772.6135"/>
<ellipse fill="none" stroke="#000000" cx="402.3007" cy="-772.5789" rx="3.2" ry="3.2"/>
</g>
<!-- encuesta_respuestas -->
<g id="node6" class="node">
<title>encuesta_respuestas</title>
<g id="a_node6"><a xlink:href="../../tables/encuesta_respuestas.html" xlink:title="encuesta_respuestas" target="_top">
<polygon fill="#ffffff" stroke="transparent" points="585,-368.2 585,-429.2 732,-429.2 732,-368.2 585,-368.2"/>
<polygon fill="#f5f5f5" stroke="transparent" points="585.5,-405.7 585.5,-428.7 732.5,-428.7 732.5,-405.7 585.5,-405.7"/>
<polygon fill="none" stroke="#000000" points="585.5,-405.7 585.5,-428.7 732.5,-428.7 732.5,-405.7 585.5,-405.7"/>
<text text-anchor="start" x="590.2302" y="-414.8" font-family="Helvetica,sans-Serif" font-weight="bold" font-size="11.00" fill="#000000">encuesta_respuestas</text>
<text text-anchor="start" x="698.0219" y="-413.8" font-family="Helvetica,sans-Serif" font-size="11.00" fill="#000000">[table]</text>
<polygon fill="none" stroke="#000000" points="585.5,-386.7 585.5,-405.7 732.5,-405.7 732.5,-386.7 585.5,-386.7"/>
<text text-anchor="start" x="588.5" y="-392.8" font-family="Helvetica,sans-Serif" font-size="11.00" fill="#000000">...</text>
<polygon fill="#ffffff" stroke="transparent" points="585.5,-367.7 585.5,-386.7 639.5,-386.7 639.5,-367.7 585.5,-367.7"/>
<polygon fill="none" stroke="#000000" points="585.5,-367.7 585.5,-386.7 639.5,-386.7 639.5,-367.7 585.5,-367.7"/>
<text text-anchor="start" x="588.5" y="-373.8" font-family="Helvetica,sans-Serif" font-size="11.00" fill="#000000">&lt; 2</text>
<polygon fill="#ffffff" stroke="transparent" points="639.5,-367.7 639.5,-386.7 694.5,-386.7 694.5,-367.7 639.5,-367.7"/>
<polygon fill="none" stroke="#000000" points="639.5,-367.7 639.5,-386.7 694.5,-386.7 694.5,-367.7 639.5,-367.7"/>
<text text-anchor="start" x="659.1105" y="-373.8" font-family="Helvetica,sans-Serif" font-size="11.00" fill="#000000">0 rows</text>
<polygon fill="#ffffff" stroke="transparent" points="694.5,-367.7 694.5,-386.7 732.5,-386.7 732.5,-367.7 694.5,-367.7"/>
<polygon fill="none" stroke="#000000" points="694.5,-367.7 694.5,-386.7 732.5,-386.7 732.5,-367.7 694.5,-367.7"/>
<text text-anchor="start" x="713.9053" y="-373.8" font-family="Helvetica,sans-Serif" font-size="11.00" fill="#000000">1 &gt;</text>
</a>
</g>
</g>
<!-- encuesta_respuestas&#45;&gt;contactos -->
<g id="edge5" class="edge">
<title>encuesta_respuestas:w&#45;&gt;contactos:e</title>
<path fill="none" stroke="#000000" d="M571.3175,-398.5506C562.741,-402.4323 557.5128,-409.1853 544,-411.7 483.2649,-423.0025 460.5626,-438.7054 405,-411.7 383.649,-401.3226 389.6874,-385.5339 372,-369.7 343.7437,-344.4047 337.4246,-324.7 299.5,-324.7"/>
<polygon fill="#000000" stroke="#000000" points="577.6569,-397.2765 586.2094,-399.2294 581.5784,-396.4882 585.5,-395.7 585.5,-395.7 585.5,-395.7 581.5784,-396.4882 584.7906,-392.1706 577.6569,-397.2765 577.6569,-397.2765"/>
<ellipse fill="none" stroke="#000000" cx="574.5196" cy="-397.907" rx="3.2" ry="3.2"/>
</g>
<!-- oportunidades -->
<g id="node7" class="node">
<title>oportunidades</title>
<g id="a_node7"><a xlink:href="../../tables/oportunidades.html" xlink:title="oportunidades" target="_top">
<polygon fill="#ffffff" stroke="transparent" points="413,-230.2 413,-401.2 536,-401.2 536,-230.2 413,-230.2"/>
<polygon fill="#f5f5f5" stroke="transparent" points="413.5,-377.7 413.5,-400.7 536.5,-400.7 536.5,-377.7 413.5,-377.7"/>
<polygon fill="none" stroke="#000000" points="413.5,-377.7 413.5,-400.7 536.5,-400.7 536.5,-377.7 413.5,-377.7"/>
<text text-anchor="start" x="418.5" y="-386.8" font-family="Helvetica,sans-Serif" font-weight="bold" font-size="11.00" fill="#000000">oportunidades</text>
<text text-anchor="start" x="501.5437" y="-385.8" font-family="Helvetica,sans-Serif" font-size="11.00" fill="#000000">[table]</text>
<polygon fill="none" stroke="#000000" points="413.5,-355.7 413.5,-377.7 536.5,-377.7 536.5,-355.7 413.5,-355.7"/>
<image xlink:href="../../images/primaryKeys.png" width="11px" height="12px" preserveAspectRatio="xMinYMin meet" x="418.5" y="-372.7"/>
<text text-anchor="start" x="433.5" y="-362.8" font-family="Helvetica,sans-Serif" font-size="11.00" fill="#000000">oportunidad_id</text>
<polygon fill="none" stroke="#000000" points="413.5,-333.7 413.5,-355.7 536.5,-355.7 536.5,-333.7 413.5,-333.7"/>
<image xlink:href="../../images/foreignKeys.png" width="11px" height="12px" preserveAspectRatio="xMinYMin meet" x="418.5" y="-350.7"/>
<text text-anchor="start" x="433.5" y="-340.8" font-family="Helvetica,sans-Serif" font-size="11.00" fill="#000000">campana_id</text>
<polygon fill="none" stroke="#000000" points="413.5,-311.7 413.5,-333.7 536.5,-333.7 536.5,-311.7 413.5,-311.7"/>
<image xlink:href="../../images/foreignKeys.png" width="11px" height="12px" preserveAspectRatio="xMinYMin meet" x="418.5" y="-328.7"/>
<text text-anchor="start" x="433.5" y="-318.8" font-family="Helvetica,sans-Serif" font-size="11.00" fill="#000000">contacto_id</text>
<polygon fill="none" stroke="#000000" points="413.5,-289.7 413.5,-311.7 536.5,-311.7 536.5,-289.7 413.5,-289.7"/>
<image xlink:href="../../images/foreignKeys.png" width="11px" height="12px" preserveAspectRatio="xMinYMin meet" x="418.5" y="-306.7"/>
<text text-anchor="start" x="433.5" y="-296.8" font-family="Helvetica,sans-Serif" font-size="11.00" fill="#000000">curso_id</text>
<polygon fill="none" stroke="#000000" points="413.5,-267.7 413.5,-289.7 536.5,-289.7 536.5,-267.7 413.5,-267.7"/>
<image xlink:href="../../images/foreignKeys.png" width="11px" height="12px" preserveAspectRatio="xMinYMin meet" x="418.5" y="-284.7"/>
<text text-anchor="start" x="433.5" y="-274.8" font-family="Helvetica,sans-Serif" font-size="11.00" fill="#000000">usu_asignado_id</text>
<polygon fill="none" stroke="#000000" points="413.5,-248.7 413.5,-267.7 536.5,-267.7 536.5,-248.7 413.5,-248.7"/>
<text text-anchor="start" x="416.5" y="-254.8" font-family="Helvetica,sans-Serif" font-size="11.00" fill="#000000">...</text>
<polygon fill="#ffffff" stroke="transparent" points="413.5,-229.7 413.5,-248.7 455.5,-248.7 455.5,-229.7 413.5,-229.7"/>
<polygon fill="none" stroke="#000000" points="413.5,-229.7 413.5,-248.7 455.5,-248.7 455.5,-229.7 413.5,-229.7"/>
<text text-anchor="start" x="416.5" y="-235.8" font-family="Helvetica,sans-Serif" font-size="11.00" fill="#000000">&lt; 4</text>
<polygon fill="#ffffff" stroke="transparent" points="455.5,-229.7 455.5,-248.7 504.5,-248.7 504.5,-229.7 455.5,-229.7"/>
<polygon fill="none" stroke="#000000" points="455.5,-229.7 455.5,-248.7 504.5,-248.7 504.5,-229.7 455.5,-229.7"/>
<text text-anchor="start" x="469.1105" y="-235.8" font-family="Helvetica,sans-Serif" font-size="11.00" fill="#000000">0 rows</text>
<polygon fill="#ffffff" stroke="transparent" points="504.5,-229.7 504.5,-248.7 536.5,-248.7 536.5,-229.7 504.5,-229.7"/>
<polygon fill="none" stroke="#000000" points="504.5,-229.7 504.5,-248.7 536.5,-248.7 536.5,-229.7 504.5,-229.7"/>
<text text-anchor="start" x="517.9053" y="-235.8" font-family="Helvetica,sans-Serif" font-size="11.00" fill="#000000">1 &gt;</text>
</a>
</g>
</g>
<!-- encuesta_respuestas&#45;&gt;oportunidades -->
<g id="edge6" class="edge">
<title>encuesta_respuestas:w&#45;&gt;oportunidades:e</title>
<path fill="none" stroke="#000000" d="M571.4495,-391.6677C559.471,-383.6993 555.8749,-366.7 536.5,-366.7"/>
<polygon fill="#000000" stroke="#000000" points="577.8104,-393.4931 584.5069,-399.1603 581.6552,-394.5966 585.5,-395.7 585.5,-395.7 585.5,-395.7 581.6552,-394.5966 586.4931,-392.2397 577.8104,-393.4931 577.8104,-393.4931"/>
<ellipse fill="none" stroke="#000000" cx="574.7346" cy="-392.6104" rx="3.2" ry="3.2"/>
</g>
<!-- oportunidades&#45;&gt;usuarios -->
<g id="edge14" class="edge">
<title>oportunidades:w&#45;&gt;usuarios:e</title>
<path fill="none" stroke="#000000" d="M400.0423,-284.4329C360.9067,-324.8827 421.8367,-565.7 362.5,-565.7"/>
<polygon fill="#000000" stroke="#000000" points="406.14,-281.8354 414.9109,-282.012 409.82,-280.2677 413.5,-278.7 413.5,-278.7 413.5,-278.7 409.82,-280.2677 412.0891,-275.388 406.14,-281.8354 406.14,-281.8354"/>
<ellipse fill="none" stroke="#000000" cx="403.196" cy="-283.0895" rx="3.2" ry="3.2"/>
</g>
<!-- oportunidades&#45;&gt;contactos -->
<g id="edge12" class="edge">
<title>oportunidades:w&#45;&gt;contactos:e</title>
<path fill="none" stroke="#000000" d="M398.9012,-322.7599C359.7989,-323.0926 344.9289,-324.7 299.5,-324.7"/>
<polygon fill="#000000" stroke="#000000" points="405.5001,-322.7329 413.5148,-326.3 409.5,-322.7164 413.5,-322.7 413.5,-322.7 413.5,-322.7 409.5,-322.7164 413.4852,-319.1 405.5001,-322.7329 405.5001,-322.7329"/>
<ellipse fill="none" stroke="#000000" cx="402.3001" cy="-322.746" rx="3.2" ry="3.2"/>
</g>
<!-- campanas -->
<g id="node9" class="node">
<title>campanas</title>
<g id="a_node9"><a xlink:href="../../tables/campanas.html" xlink:title="campanas" target="_top">
<polygon fill="#ffffff" stroke="transparent" points="208,-215.2 208,-276.2 301,-276.2 301,-215.2 208,-215.2"/>
<polygon fill="#f5f5f5" stroke="transparent" points="208.5,-252.7 208.5,-275.7 301.5,-275.7 301.5,-252.7 208.5,-252.7"/>
<polygon fill="none" stroke="#000000" points="208.5,-252.7 208.5,-275.7 301.5,-275.7 301.5,-252.7 208.5,-252.7"/>
<text text-anchor="start" x="213.1318" y="-261.8" font-family="Helvetica,sans-Serif" font-weight="bold" font-size="11.00" fill="#000000">campanas</text>
<text text-anchor="start" x="267.0219" y="-260.8" font-family="Helvetica,sans-Serif" font-size="11.00" fill="#000000">[table]</text>
<polygon fill="none" stroke="#000000" points="208.5,-233.7 208.5,-252.7 301.5,-252.7 301.5,-233.7 208.5,-233.7"/>
<text text-anchor="start" x="211.5" y="-239.8" font-family="Helvetica,sans-Serif" font-size="11.00" fill="#000000">...</text>
<polygon fill="#ffffff" stroke="transparent" points="208.5,-214.7 208.5,-233.7 231.5,-233.7 231.5,-214.7 208.5,-214.7"/>
<polygon fill="none" stroke="#000000" points="208.5,-214.7 208.5,-233.7 231.5,-233.7 231.5,-214.7 208.5,-214.7"/>
<text text-anchor="start" x="211.5" y="-220.8" font-family="Helvetica,sans-Serif" font-size="11.00" fill="#000000"> &#160;</text>
<polygon fill="#ffffff" stroke="transparent" points="231.5,-214.7 231.5,-233.7 274.5,-233.7 274.5,-214.7 231.5,-214.7"/>
<polygon fill="none" stroke="#000000" points="231.5,-214.7 231.5,-233.7 274.5,-233.7 274.5,-214.7 231.5,-214.7"/>
<text text-anchor="start" x="239.1105" y="-220.8" font-family="Helvetica,sans-Serif" font-size="11.00" fill="#000000">0 rows</text>
<polygon fill="#ffffff" stroke="transparent" points="274.5,-214.7 274.5,-233.7 301.5,-233.7 301.5,-214.7 274.5,-214.7"/>
<polygon fill="none" stroke="#000000" points="274.5,-214.7 274.5,-233.7 301.5,-233.7 301.5,-214.7 274.5,-214.7"/>
<text text-anchor="start" x="282.9053" y="-220.8" font-family="Helvetica,sans-Serif" font-size="11.00" fill="#000000">3 &gt;</text>
</a>
</g>
</g>
<!-- oportunidades&#45;&gt;campanas -->
<g id="edge11" class="edge">
<title>oportunidades:w&#45;&gt;campanas:e</title>
<path fill="none" stroke="#000000" d="M399.4712,-340.9246C385.6116,-331.0756 390.5955,-304.1576 372,-286.7 345.0721,-261.4199 338.435,-242.7 301.5,-242.7"/>
<polygon fill="#000000" stroke="#000000" points="405.7749,-342.621 412.5644,-348.1763 409.6374,-343.6605 413.5,-344.7 413.5,-344.7 413.5,-344.7 409.6374,-343.6605 414.4356,-341.2237 405.7749,-342.621 405.7749,-342.621"/>
<ellipse fill="none" stroke="#000000" cx="402.6848" cy="-341.7894" rx="3.2" ry="3.2"/>
</g>
<!-- cursos -->
<g id="node10" class="node">
<title>cursos</title>
<g id="a_node10"><a xlink:href="../../tables/cursos.html" xlink:title="cursos" target="_top">
<polygon fill="#ffffff" stroke="transparent" points="217,-133.2 217,-194.2 292,-194.2 292,-133.2 217,-133.2"/>
<polygon fill="#f5f5f5" stroke="transparent" points="217.5,-170.7 217.5,-193.7 292.5,-193.7 292.5,-170.7 217.5,-170.7"/>
<polygon fill="none" stroke="#000000" points="217.5,-170.7 217.5,-193.7 292.5,-193.7 292.5,-170.7 217.5,-170.7"/>
<text text-anchor="start" x="222.3042" y="-179.8" font-family="Helvetica,sans-Serif" font-weight="bold" font-size="11.00" fill="#000000">cursos</text>
<text text-anchor="start" x="258.0219" y="-178.8" font-family="Helvetica,sans-Serif" font-size="11.00" fill="#000000">[table]</text>
<polygon fill="none" stroke="#000000" points="217.5,-151.7 217.5,-170.7 292.5,-170.7 292.5,-151.7 217.5,-151.7"/>
<text text-anchor="start" x="220.5" y="-157.8" font-family="Helvetica,sans-Serif" font-size="11.00" fill="#000000">...</text>
<polygon fill="#ffffff" stroke="transparent" points="217.5,-132.7 217.5,-151.7 234.5,-151.7 234.5,-132.7 217.5,-132.7"/>
<polygon fill="none" stroke="#000000" points="217.5,-132.7 217.5,-151.7 234.5,-151.7 234.5,-132.7 217.5,-132.7"/>
<text text-anchor="start" x="220.5" y="-138.8" font-family="Helvetica,sans-Serif" font-size="11.00" fill="#000000"> &#160;</text>
<polygon fill="#ffffff" stroke="transparent" points="234.5,-132.7 234.5,-151.7 268.5,-151.7 268.5,-132.7 234.5,-132.7"/>
<polygon fill="none" stroke="#000000" points="234.5,-132.7 234.5,-151.7 268.5,-151.7 268.5,-132.7 234.5,-132.7"/>
<text text-anchor="start" x="238.6105" y="-138.8" font-family="Helvetica,sans-Serif" font-size="11.00" fill="#000000">1 row</text>
<polygon fill="#ffffff" stroke="transparent" points="268.5,-132.7 268.5,-151.7 292.5,-151.7 292.5,-132.7 268.5,-132.7"/>
<polygon fill="none" stroke="#000000" points="268.5,-132.7 268.5,-151.7 292.5,-151.7 292.5,-132.7 268.5,-132.7"/>
<text text-anchor="start" x="273.9053" y="-138.8" font-family="Helvetica,sans-Serif" font-size="11.00" fill="#000000">4 &gt;</text>
</a>
</g>
</g>
<!-- oportunidades&#45;&gt;cursos -->
<g id="edge13" class="edge">
<title>oportunidades:w&#45;&gt;cursos:e</title>
<path fill="none" stroke="#000000" d="M399.325,-297.8207C375.2323,-285.2775 399.2026,-234.692 372,-204.7 344.8692,-174.7871 332.884,-160.7 292.5,-160.7"/>
<polygon fill="#000000" stroke="#000000" points="405.6601,-299.1075 412.7834,-304.228 409.58,-299.9037 413.5,-300.7 413.5,-300.7 413.5,-300.7 409.58,-299.9037 414.2166,-297.172 405.6601,-299.1075 405.6601,-299.1075"/>
<ellipse fill="none" stroke="#000000" cx="402.5241" cy="-298.4705" rx="3.2" ry="3.2"/>
</g>
<!-- leads -->
<g id="node8" class="node">
<title>leads</title>
<g id="a_node8"><a xlink:href="../../tables/leads.html" xlink:title="leads" target="_top">
<polygon fill="#ffffff" stroke="transparent" points="413,-38.2 413,-209.2 536,-209.2 536,-38.2 413,-38.2"/>
<polygon fill="#f5f5f5" stroke="transparent" points="413.5,-185.7 413.5,-208.7 536.5,-208.7 536.5,-185.7 413.5,-185.7"/>
<polygon fill="none" stroke="#000000" points="413.5,-185.7 413.5,-208.7 536.5,-208.7 536.5,-185.7 413.5,-185.7"/>
<text text-anchor="start" x="418.5" y="-194.8" font-family="Helvetica,sans-Serif" font-weight="bold" font-size="11.00" fill="#000000">leads</text>
<text text-anchor="start" x="501.5437" y="-193.8" font-family="Helvetica,sans-Serif" font-size="11.00" fill="#000000">[table]</text>
<polygon fill="none" stroke="#000000" points="413.5,-163.7 413.5,-185.7 536.5,-185.7 536.5,-163.7 413.5,-163.7"/>
<image xlink:href="../../images/primaryKeys.png" width="11px" height="12px" preserveAspectRatio="xMinYMin meet" x="418.5" y="-180.7"/>
<text text-anchor="start" x="433.5" y="-170.8" font-family="Helvetica,sans-Serif" font-size="11.00" fill="#000000">lead_id</text>
<polygon fill="none" stroke="#000000" points="413.5,-141.7 413.5,-163.7 536.5,-163.7 536.5,-141.7 413.5,-141.7"/>
<image xlink:href="../../images/foreignKeys.png" width="11px" height="12px" preserveAspectRatio="xMinYMin meet" x="418.5" y="-158.7"/>
<text text-anchor="start" x="433.5" y="-148.8" font-family="Helvetica,sans-Serif" font-size="11.00" fill="#000000">usu_asignado_id</text>
<polygon fill="none" stroke="#000000" points="413.5,-119.7 413.5,-141.7 536.5,-141.7 536.5,-119.7 413.5,-119.7"/>
<image xlink:href="../../images/foreignKeys.png" width="11px" height="12px" preserveAspectRatio="xMinYMin meet" x="418.5" y="-136.7"/>
<text text-anchor="start" x="433.5" y="-126.8" font-family="Helvetica,sans-Serif" font-size="11.00" fill="#000000">campana_id</text>
<polygon fill="none" stroke="#000000" points="413.5,-97.7 413.5,-119.7 536.5,-119.7 536.5,-97.7 413.5,-97.7"/>
<image xlink:href="../../images/foreignKeys.png" width="11px" height="12px" preserveAspectRatio="xMinYMin meet" x="418.5" y="-114.7"/>
<text text-anchor="start" x="433.5" y="-104.8" font-family="Helvetica,sans-Serif" font-size="11.00" fill="#000000">persona_id</text>
<polygon fill="none" stroke="#000000" points="413.5,-75.7 413.5,-97.7 536.5,-97.7 536.5,-75.7 413.5,-75.7"/>
<image xlink:href="../../images/foreignKeys.png" width="11px" height="12px" preserveAspectRatio="xMinYMin meet" x="418.5" y="-92.7"/>
<text text-anchor="start" x="433.5" y="-82.8" font-family="Helvetica,sans-Serif" font-size="11.00" fill="#000000">curso_id</text>
<polygon fill="none" stroke="#000000" points="413.5,-56.7 413.5,-75.7 536.5,-75.7 536.5,-56.7 413.5,-56.7"/>
<text text-anchor="start" x="416.5" y="-62.8" font-family="Helvetica,sans-Serif" font-size="11.00" fill="#000000">...</text>
<polygon fill="#ffffff" stroke="transparent" points="413.5,-37.7 413.5,-56.7 460.5,-56.7 460.5,-37.7 413.5,-37.7"/>
<polygon fill="none" stroke="#000000" points="413.5,-37.7 413.5,-56.7 460.5,-56.7 460.5,-37.7 413.5,-37.7"/>
<text text-anchor="start" x="416.5" y="-43.8" font-family="Helvetica,sans-Serif" font-size="11.00" fill="#000000">&lt; 4</text>
<polygon fill="#ffffff" stroke="transparent" points="460.5,-37.7 460.5,-56.7 511.5,-56.7 511.5,-37.7 460.5,-37.7"/>
<polygon fill="none" stroke="#000000" points="460.5,-37.7 460.5,-56.7 511.5,-56.7 511.5,-37.7 460.5,-37.7"/>
<text text-anchor="start" x="476.1105" y="-43.8" font-family="Helvetica,sans-Serif" font-size="11.00" fill="#000000">0 rows</text>
<polygon fill="#ffffff" stroke="transparent" points="511.5,-37.7 511.5,-56.7 536.5,-56.7 536.5,-37.7 511.5,-37.7"/>
<polygon fill="none" stroke="#000000" points="511.5,-37.7 511.5,-56.7 536.5,-56.7 536.5,-37.7 511.5,-37.7"/>
<text text-anchor="start" x="527.3862" y="-43.8" font-family="Helvetica,sans-Serif" font-size="11.00" fill="#000000"> &#160;</text>
</a>
</g>
</g>
<!-- leads&#45;&gt;usuarios -->
<g id="edge10" class="edge">
<title>leads:w&#45;&gt;usuarios:e</title>
<path fill="none" stroke="#000000" d="M399.4857,-156.7876C335.945,-199.6805 449.5564,-565.7 362.5,-565.7"/>
<polygon fill="#000000" stroke="#000000" points="405.82,-154.9401 414.508,-156.156 409.66,-153.82 413.5,-152.7 413.5,-152.7 413.5,-152.7 409.66,-153.82 412.492,-149.244 405.82,-154.9401 405.82,-154.9401"/>
<ellipse fill="none" stroke="#000000" cx="402.748" cy="-155.8361" rx="3.2" ry="3.2"/>
</g>
<!-- leads&#45;&gt;personas -->
<g id="edge9" class="edge">
<title>leads:w&#45;&gt;personas:e</title>
<path fill="none" stroke="#000000" d="M399.0162,-108.395C285.5811,-103.629 226.5337,-45.6548 137,-122.7 67.5616,-182.4529 187.6084,-324.7 96,-324.7"/>
<polygon fill="#000000" stroke="#000000" points="405.5018,-108.5315 413.4242,-112.2992 409.5009,-108.6158 413.5,-108.7 413.5,-108.7 413.5,-108.7 409.5009,-108.6158 413.5758,-105.1008 405.5018,-108.5315 405.5018,-108.5315"/>
<ellipse fill="none" stroke="#000000" cx="402.3025" cy="-108.4641" rx="3.2" ry="3.2"/>
</g>
<!-- leads&#45;&gt;campanas -->
<g id="edge7" class="edge">
<title>leads:w&#45;&gt;campanas:e</title>
<path fill="none" stroke="#000000" d="M399.3612,-134.2372C382.0245,-145.7373 394.4747,-182.5984 372,-204.7 346.6207,-229.658 337.0951,-242.7 301.5,-242.7"/>
<polygon fill="#000000" stroke="#000000" points="405.7392,-132.6416 414.3737,-134.1924 409.6196,-131.6708 413.5,-130.7 413.5,-130.7 413.5,-130.7 409.6196,-131.6708 412.6263,-127.2076 405.7392,-132.6416 405.7392,-132.6416"/>
<ellipse fill="none" stroke="#000000" cx="402.6349" cy="-133.4183" rx="3.2" ry="3.2"/>
</g>
<!-- leads&#45;&gt;cursos -->
<g id="edge8" class="edge">
<title>leads:w&#45;&gt;cursos:e</title>
<path fill="none" stroke="#000000" d="M399.307,-90.3159C389.4632,-96.5277 386.3868,-109.4492 372,-118.7 338.3879,-140.3129 332.4611,-160.7 292.5,-160.7"/>
<polygon fill="#000000" stroke="#000000" points="405.7476,-88.6751 414.3888,-90.1886 409.6238,-87.6875 413.5,-86.7 413.5,-86.7 413.5,-86.7 409.6238,-87.6875 412.6112,-83.2114 405.7476,-88.6751 405.7476,-88.6751"/>
<ellipse fill="none" stroke="#000000" cx="402.6467" cy="-89.4651" rx="3.2" ry="3.2"/>
</g>
<!-- tareas -->
<g id="node11" class="node">
<title>tareas</title>
<g id="a_node11"><a xlink:href="../../tables/tareas.html" xlink:title="tareas" target="_top">
<polygon fill="#ffffff" stroke="transparent" points="413,-450.2 413,-555.2 536,-555.2 536,-450.2 413,-450.2"/>
<polygon fill="#f5f5f5" stroke="transparent" points="413.5,-531.7 413.5,-554.7 536.5,-554.7 536.5,-531.7 413.5,-531.7"/>
<polygon fill="none" stroke="#000000" points="413.5,-531.7 413.5,-554.7 536.5,-554.7 536.5,-531.7 413.5,-531.7"/>
<text text-anchor="start" x="418.5" y="-540.8" font-family="Helvetica,sans-Serif" font-weight="bold" font-size="11.00" fill="#000000">tareas</text>
<text text-anchor="start" x="501.5437" y="-539.8" font-family="Helvetica,sans-Serif" font-size="11.00" fill="#000000">[table]</text>
<polygon fill="none" stroke="#000000" points="413.5,-509.7 413.5,-531.7 536.5,-531.7 536.5,-509.7 413.5,-509.7"/>
<image xlink:href="../../images/primaryKeys.png" width="11px" height="12px" preserveAspectRatio="xMinYMin meet" x="418.5" y="-526.7"/>
<text text-anchor="start" x="433.5" y="-516.8" font-family="Helvetica,sans-Serif" font-size="11.00" fill="#000000">tarea_id</text>
<polygon fill="none" stroke="#000000" points="413.5,-487.7 413.5,-509.7 536.5,-509.7 536.5,-487.7 413.5,-487.7"/>
<image xlink:href="../../images/foreignKeys.png" width="11px" height="12px" preserveAspectRatio="xMinYMin meet" x="418.5" y="-504.7"/>
<text text-anchor="start" x="433.5" y="-494.8" font-family="Helvetica,sans-Serif" font-size="11.00" fill="#000000">usu_asignado_id</text>
<polygon fill="none" stroke="#000000" points="413.5,-468.7 413.5,-487.7 536.5,-487.7 536.5,-468.7 413.5,-468.7"/>
<text text-anchor="start" x="416.5" y="-474.8" font-family="Helvetica,sans-Serif" font-size="11.00" fill="#000000">...</text>
<polygon fill="#ffffff" stroke="transparent" points="413.5,-449.7 413.5,-468.7 460.5,-468.7 460.5,-449.7 413.5,-449.7"/>
<polygon fill="none" stroke="#000000" points="413.5,-449.7 413.5,-468.7 460.5,-468.7 460.5,-449.7 413.5,-449.7"/>
<text text-anchor="start" x="416.5" y="-455.8" font-family="Helvetica,sans-Serif" font-size="11.00" fill="#000000">&lt; 1</text>
<polygon fill="#ffffff" stroke="transparent" points="460.5,-449.7 460.5,-468.7 511.5,-468.7 511.5,-449.7 460.5,-449.7"/>
<polygon fill="none" stroke="#000000" points="460.5,-449.7 460.5,-468.7 511.5,-468.7 511.5,-449.7 460.5,-449.7"/>
<text text-anchor="start" x="476.1105" y="-455.8" font-family="Helvetica,sans-Serif" font-size="11.00" fill="#000000">0 rows</text>
<polygon fill="#ffffff" stroke="transparent" points="511.5,-449.7 511.5,-468.7 536.5,-468.7 536.5,-449.7 511.5,-449.7"/>
<polygon fill="none" stroke="#000000" points="511.5,-449.7 511.5,-468.7 536.5,-468.7 536.5,-449.7 511.5,-449.7"/>
<text text-anchor="start" x="527.3862" y="-455.8" font-family="Helvetica,sans-Serif" font-size="11.00" fill="#000000"> &#160;</text>
</a>
</g>
</g>
<!-- tareas&#45;&gt;usuarios -->
<g id="edge15" class="edge">
<title>tareas:w&#45;&gt;usuarios:e</title>
<path fill="none" stroke="#000000" d="M399.4871,-503.5185C382.2522,-518.881 393.7834,-565.7 362.5,-565.7"/>
<polygon fill="#000000" stroke="#000000" points="405.9348,-501.3014 414.6706,-502.1044 409.7174,-500.0007 413.5,-498.7 413.5,-498.7 413.5,-498.7 409.7174,-500.0007 412.3294,-495.2956 405.9348,-501.3014 405.9348,-501.3014"/>
<ellipse fill="none" stroke="#000000" cx="402.9087" cy="-502.342" rx="3.2" ry="3.2"/>
</g>
</g>
</svg>
