<?xml version="1.0" encoding="UTF-8" standalone="no"?>
<!DOCTYPE svg PUBLIC "-//W3C//DTD SVG 1.1//EN"
 "http://www.w3.org/Graphics/SVG/1.1/DTD/svg11.dtd">
<!-- Generated by graphviz version 2.40.1 (20161225.0304)
 -->
<!-- Title: campanas Pages: 1 -->
<svg width="160pt" height="84pt"
 viewBox="0.00 0.00 160.00 84.00" xmlns="http://www.w3.org/2000/svg" xmlns:xlink="http://www.w3.org/1999/xlink">
<g id="graph0" class="graph" transform="scale(1 1) rotate(0) translate(4 80)">
<title>campanas</title>
<polygon fill="#ffffff" stroke="transparent" points="-4,4 -4,-80 156,-80 156,4 -4,4"/>
<!-- campanas -->
<g id="node1" class="node">
<title>campanas</title>
<g id="a_node1"><a xlink:href="../../tables/campanas.html" xlink:title="campanas" target="_top">
<polygon fill="#ffffff" stroke="transparent" points="8,-4 8,-72 144,-72 144,-4 8,-4"/>
<polygon fill="#f5f5f5" stroke="transparent" points="10,-47 10,-70 142,-70 142,-47 10,-47"/>
<polygon fill="none" stroke="#000000" points="10,-47 10,-70 142,-70 142,-47 10,-47"/>
<text text-anchor="start" x="15" y="-56.1" font-family="Helvetica,sans-Serif" font-weight="bold" font-size="11.00" fill="#000000">campanas</text>
<text text-anchor="start" x="107.0437" y="-55.1" font-family="Helvetica,sans-Serif" font-size="11.00" fill="#000000">[table]</text>
<polygon fill="none" stroke="#000000" points="10,-25 10,-47 100,-47 100,-25 10,-25"/>
<image xlink:href="../../images/primaryKeys.png" width="11px" height="12px" preserveAspectRatio="xMinYMin meet" x="15" y="-42"/>
<text text-anchor="start" x="30" y="-32.1" font-family="Helvetica,sans-Serif" font-size="11.00" fill="#000000">campana_id</text>
<polygon fill="none" stroke="#000000" points="100,-25 100,-47 142,-47 142,-25 100,-25"/>
<text text-anchor="start" x="102.9644" y="-32.7" font-family="Helvetica,sans-Serif" font-size="11.00" fill="#000000">int4[10]</text>
<polygon fill="#ffffff" stroke="transparent" points="10,-6 10,-25 46,-25 46,-6 10,-6"/>
<polygon fill="none" stroke="#000000" points="10,-6 10,-25 46,-25 46,-6 10,-6"/>
<text text-anchor="start" x="13" y="-12.1" font-family="Helvetica,sans-Serif" font-size="11.00" fill="#000000">&lt; 0</text>
<polygon fill="#ffffff" stroke="transparent" points="46,-6 46,-25 100,-25 100,-6 46,-6"/>
<polygon fill="none" stroke="#000000" points="46,-6 46,-25 100,-25 100,-6 46,-6"/>
<text text-anchor="start" x="64.6105" y="-12.1" font-family="Helvetica,sans-Serif" font-size="11.00" fill="#000000">0 rows</text>
<polygon fill="#ffffff" stroke="transparent" points="100,-6 100,-25 142,-25 142,-6 100,-6"/>
<polygon fill="none" stroke="#000000" points="100,-6 100,-25 142,-25 142,-6 100,-6"/>
<text text-anchor="start" x="123.4053" y="-12.1" font-family="Helvetica,sans-Serif" font-size="11.00" fill="#000000">0 &gt;</text>
<polygon fill="none" stroke="#000000" stroke-width="2" points="9,-5 9,-71 143,-71 143,-5 9,-5"/>
</a>
</g>
</g>
</g>
</svg>
