<?xml version="1.0" encoding="UTF-8" standalone="no"?>
<!DOCTYPE svg PUBLIC "-//W3C//DTD SVG 1.1//EN"
 "http://www.w3.org/Graphics/SVG/1.1/DTD/svg11.dtd">
<!-- Generated by graphviz version 2.40.1 (20161225.0304)
 -->
<!-- Title: contactos_oportunidades Pages: 1 -->
<svg width="279pt" height="172pt"
 viewBox="0.00 0.00 279.00 172.00" xmlns="http://www.w3.org/2000/svg" xmlns:xlink="http://www.w3.org/1999/xlink">
<g id="graph0" class="graph" transform="scale(1 1) rotate(0) translate(4 168)">
<title>contactos_oportunidades</title>
<polygon fill="#ffffff" stroke="transparent" points="-4,4 -4,-168 275,-168 275,4 -4,4"/>
<!-- contactos_oportunidades -->
<g id="node1" class="node">
<title>contactos_oportunidades</title>
<g id="a_node1"><a xlink:href="../../tables/contactos_oportunidades.html" xlink:title="contactos_oportunidades" target="_top">
<polygon fill="#ffffff" stroke="transparent" points="8,-4 8,-160 263,-160 263,-4 8,-4"/>
<polygon fill="#f5f5f5" stroke="transparent" points="10.5,-135 10.5,-158 261.5,-158 261.5,-135 10.5,-135"/>
<polygon fill="none" stroke="#000000" points="10.5,-135 10.5,-158 261.5,-158 261.5,-135 10.5,-135"/>
<text text-anchor="start" x="15.5" y="-144.1" font-family="Helvetica,sans-Serif" font-weight="bold" font-size="11.00" fill="#000000">contactos_oportunidades</text>
<text text-anchor="start" x="226.5437" y="-143.1" font-family="Helvetica,sans-Serif" font-size="11.00" fill="#000000">[table]</text>
<polygon fill="none" stroke="#000000" points="10.5,-113 10.5,-135 177.5,-135 177.5,-113 10.5,-113"/>
<image xlink:href="../../images/foreignKeys.png" width="11px" height="12px" preserveAspectRatio="xMinYMin meet" x="15.5" y="-130"/>
<text text-anchor="start" x="30.5" y="-120.1" font-family="Helvetica,sans-Serif" font-size="11.00" fill="#000000">contacto_id</text>
<polygon fill="none" stroke="#000000" points="177.5,-113 177.5,-135 261.5,-135 261.5,-113 177.5,-113"/>
<text text-anchor="start" x="180.5" y="-120.7" font-family="Helvetica,sans-Serif" font-size="11.00" fill="#000000">int4[10]</text>
<polygon fill="none" stroke="#000000" points="10.5,-91 10.5,-113 177.5,-113 177.5,-91 10.5,-91"/>
<image xlink:href="../../images/foreignKeys.png" width="11px" height="12px" preserveAspectRatio="xMinYMin meet" x="15.5" y="-108"/>
<text text-anchor="start" x="30.5" y="-98.1" font-family="Helvetica,sans-Serif" font-size="11.00" fill="#000000">oportunidad_id</text>
<polygon fill="none" stroke="#000000" points="177.5,-91 177.5,-113 261.5,-113 261.5,-91 177.5,-91"/>
<text text-anchor="start" x="180.5" y="-98.7" font-family="Helvetica,sans-Serif" font-size="11.00" fill="#000000">int4[10]</text>
<polygon fill="none" stroke="#000000" points="10.5,-69 10.5,-91 177.5,-91 177.5,-69 10.5,-69"/>
<text text-anchor="start" x="30.5" y="-76.1" font-family="Helvetica,sans-Serif" font-size="11.00" fill="#000000">fec_insercion</text>
<polygon fill="none" stroke="#000000" points="177.5,-69 177.5,-91 261.5,-91 261.5,-69 177.5,-69"/>
<text text-anchor="start" x="180.3807" y="-76.7" font-family="Helvetica,sans-Serif" font-size="11.00" fill="#000000">timestamp[29,6]</text>
<polygon fill="none" stroke="#000000" points="10.5,-47 10.5,-69 177.5,-69 177.5,-47 10.5,-47"/>
<text text-anchor="start" x="30.5" y="-54.1" font-family="Helvetica,sans-Serif" font-size="11.00" fill="#000000">fec_modificacion</text>
<polygon fill="none" stroke="#000000" points="177.5,-47 177.5,-69 261.5,-69 261.5,-47 177.5,-47"/>
<text text-anchor="start" x="180.3807" y="-54.7" font-family="Helvetica,sans-Serif" font-size="11.00" fill="#000000">timestamp[29,6]</text>
<polygon fill="none" stroke="#000000" points="10.5,-25 10.5,-47 177.5,-47 177.5,-25 10.5,-25"/>
<text text-anchor="start" x="30.5" y="-32.1" font-family="Helvetica,sans-Serif" font-size="11.00" fill="#000000">fec_eliminacion</text>
<polygon fill="none" stroke="#000000" points="177.5,-25 177.5,-47 261.5,-47 261.5,-25 177.5,-25"/>
<text text-anchor="start" x="180.3807" y="-32.7" font-family="Helvetica,sans-Serif" font-size="11.00" fill="#000000">timestamp[29,6]</text>
<polygon fill="#ffffff" stroke="transparent" points="10.5,-6 10.5,-25 85.5,-25 85.5,-6 10.5,-6"/>
<polygon fill="none" stroke="#000000" points="10.5,-6 10.5,-25 85.5,-25 85.5,-6 10.5,-6"/>
<text text-anchor="start" x="13.5" y="-12.1" font-family="Helvetica,sans-Serif" font-size="11.00" fill="#000000">&lt; 0</text>
<polygon fill="#ffffff" stroke="transparent" points="85.5,-6 85.5,-25 177.5,-25 177.5,-6 85.5,-6"/>
<polygon fill="none" stroke="#000000" points="85.5,-6 85.5,-25 177.5,-25 177.5,-6 85.5,-6"/>
<text text-anchor="start" x="142.1105" y="-12.1" font-family="Helvetica,sans-Serif" font-size="11.00" fill="#000000">0 rows</text>
<polygon fill="#ffffff" stroke="transparent" points="177.5,-6 177.5,-25 261.5,-25 261.5,-6 177.5,-6"/>
<polygon fill="none" stroke="#000000" points="177.5,-6 177.5,-25 261.5,-25 261.5,-6 177.5,-6"/>
<text text-anchor="start" x="242.9053" y="-12.1" font-family="Helvetica,sans-Serif" font-size="11.00" fill="#000000">0 &gt;</text>
<polygon fill="none" stroke="#000000" stroke-width="2" points="9,-5 9,-159 262,-159 262,-5 9,-5"/>
</a>
</g>
</g>
</g>
</svg>
