<?xml version="1.0" encoding="UTF-8" standalone="no"?>
<!DOCTYPE svg PUBLIC "-//W3C//DTD SVG 1.1//EN"
 "http://www.w3.org/Graphics/SVG/1.1/DTD/svg11.dtd">
<!-- Generated by graphviz version 2.40.1 (20161225.0304)
 -->
<!-- Title: llamadas Pages: 1 -->
<svg width="115pt" height="62pt"
 viewBox="0.00 0.00 115.00 62.00" xmlns="http://www.w3.org/2000/svg" xmlns:xlink="http://www.w3.org/1999/xlink">
<g id="graph0" class="graph" transform="scale(1 1) rotate(0) translate(4 58)">
<title>llamadas</title>
<polygon fill="#ffffff" stroke="transparent" points="-4,4 -4,-58 111,-58 111,4 -4,4"/>
<!-- llamadas -->
<g id="node1" class="node">
<title>llamadas</title>
<g id="a_node1"><a xlink:href="../../tables/llamadas.html" xlink:title="llamadas" target="_top">
<polygon fill="#ffffff" stroke="transparent" points="8,-4 8,-50 99,-50 99,-4 8,-4"/>
<polygon fill="#f5f5f5" stroke="transparent" points="10.5,-25 10.5,-48 97.5,-48 97.5,-25 10.5,-25"/>
<polygon fill="none" stroke="#000000" points="10.5,-25 10.5,-48 97.5,-48 97.5,-25 10.5,-25"/>
<text text-anchor="start" x="15.4984" y="-34.1" font-family="Helvetica,sans-Serif" font-weight="bold" font-size="11.00" fill="#000000">llamadas</text>
<text text-anchor="start" x="63.0219" y="-33.1" font-family="Helvetica,sans-Serif" font-size="11.00" fill="#000000">[table]</text>
<polygon fill="#ffffff" stroke="transparent" points="10.5,-6 10.5,-25 34.5,-25 34.5,-6 10.5,-6"/>
<polygon fill="none" stroke="#000000" points="10.5,-6 10.5,-25 34.5,-25 34.5,-6 10.5,-6"/>
<text text-anchor="start" x="13.5" y="-12.1" font-family="Helvetica,sans-Serif" font-size="11.00" fill="#000000">&lt; 0</text>
<polygon fill="#ffffff" stroke="transparent" points="34.5,-6 34.5,-25 74.5,-25 74.5,-6 34.5,-6"/>
<polygon fill="none" stroke="#000000" points="34.5,-6 34.5,-25 74.5,-25 74.5,-6 34.5,-6"/>
<text text-anchor="start" x="39.1105" y="-12.1" font-family="Helvetica,sans-Serif" font-size="11.00" fill="#000000">0 rows</text>
<polygon fill="#ffffff" stroke="transparent" points="74.5,-6 74.5,-25 96.5,-25 96.5,-6 74.5,-6"/>
<polygon fill="none" stroke="#000000" points="74.5,-6 74.5,-25 96.5,-25 96.5,-6 74.5,-6"/>
<text text-anchor="start" x="77.9053" y="-12.1" font-family="Helvetica,sans-Serif" font-size="11.00" fill="#000000">0 &gt;</text>
<polygon fill="none" stroke="#000000" stroke-width="2" points="9,-5 9,-49 98,-49 98,-5 9,-5"/>
</a>
</g>
</g>
</g>
</svg>
