<?xml version="1.0" encoding="UTF-8" standalone="no"?>
<!DOCTYPE svg PUBLIC "-//W3C//DTD SVG 1.1//EN"
 "http://www.w3.org/Graphics/SVG/1.1/DTD/svg11.dtd">
<!-- Generated by graphviz version 2.40.1 (20161225.0304)
 -->
<!-- Title: oportunidades Pages: 1 -->
<svg width="140pt" height="62pt"
 viewBox="0.00 0.00 140.00 62.00" xmlns="http://www.w3.org/2000/svg" xmlns:xlink="http://www.w3.org/1999/xlink">
<g id="graph0" class="graph" transform="scale(1 1) rotate(0) translate(4 58)">
<title>oportunidades</title>
<polygon fill="#ffffff" stroke="transparent" points="-4,4 -4,-58 136,-58 136,4 -4,4"/>
<!-- oportunidades -->
<g id="node1" class="node">
<title>oportunidades</title>
<g id="a_node1"><a xlink:href="../../tables/oportunidades.html" xlink:title="oportunidades" target="_top">
<polygon fill="#ffffff" stroke="transparent" points="8,-4 8,-50 124,-50 124,-4 8,-4"/>
<polygon fill="#f5f5f5" stroke="transparent" points="10,-25 10,-48 122,-48 122,-25 10,-25"/>
<polygon fill="none" stroke="#000000" points="10,-25 10,-48 122,-48 122,-25 10,-25"/>
<text text-anchor="start" x="14.6531" y="-34.1" font-family="Helvetica,sans-Serif" font-weight="bold" font-size="11.00" fill="#000000">oportunidades</text>
<text text-anchor="start" x="87.5219" y="-33.1" font-family="Helvetica,sans-Serif" font-size="11.00" fill="#000000">[table]</text>
<polygon fill="#ffffff" stroke="transparent" points="10,-6 10,-25 47,-25 47,-6 10,-6"/>
<polygon fill="none" stroke="#000000" points="10,-6 10,-25 47,-25 47,-6 10,-6"/>
<text text-anchor="start" x="13" y="-12.1" font-family="Helvetica,sans-Serif" font-size="11.00" fill="#000000">&lt; 0</text>
<polygon fill="#ffffff" stroke="transparent" points="47,-6 47,-25 93,-25 93,-6 47,-6"/>
<polygon fill="none" stroke="#000000" points="47,-6 47,-25 93,-25 93,-6 47,-6"/>
<text text-anchor="start" x="57.6105" y="-12.1" font-family="Helvetica,sans-Serif" font-size="11.00" fill="#000000">0 rows</text>
<polygon fill="#ffffff" stroke="transparent" points="93,-6 93,-25 118,-25 118,-6 93,-6"/>
<polygon fill="none" stroke="#000000" points="93,-6 93,-25 118,-25 118,-6 93,-6"/>
<text text-anchor="start" x="99.4053" y="-12.1" font-family="Helvetica,sans-Serif" font-size="11.00" fill="#000000">0 &gt;</text>
<polygon fill="none" stroke="#000000" stroke-width="2" points="9,-5 9,-49 123,-49 123,-5 9,-5"/>
</a>
</g>
</g>
</g>
</svg>
