<?xml version="1.0" encoding="UTF-8" standalone="no"?>
<!DOCTYPE svg PUBLIC "-//W3C//DTD SVG 1.1//EN"
 "http://www.w3.org/Graphics/SVG/1.1/DTD/svg11.dtd">
<!-- Generated by graphviz version 2.40.1 (20161225.0304)
 -->
<!-- Title: paises Pages: 1 -->
<svg width="243pt" height="238pt"
 viewBox="0.00 0.00 243.00 238.00" xmlns="http://www.w3.org/2000/svg" xmlns:xlink="http://www.w3.org/1999/xlink">
<g id="graph0" class="graph" transform="scale(1 1) rotate(0) translate(4 234)">
<title>paises</title>
<polygon fill="#ffffff" stroke="transparent" points="-4,4 -4,-234 239,-234 239,4 -4,4"/>
<!-- paises -->
<g id="node1" class="node">
<title>paises</title>
<g id="a_node1"><a xlink:href="../../tables/paises.html" xlink:title="paises" target="_top">
<polygon fill="#ffffff" stroke="transparent" points="8,-4 8,-226 227,-226 227,-4 8,-4"/>
<polygon fill="#f5f5f5" stroke="transparent" points="10.5,-201 10.5,-224 225.5,-224 225.5,-201 10.5,-201"/>
<polygon fill="none" stroke="#000000" points="10.5,-201 10.5,-224 225.5,-224 225.5,-201 10.5,-201"/>
<text text-anchor="start" x="15.5" y="-210.1" font-family="Helvetica,sans-Serif" font-weight="bold" font-size="11.00" fill="#000000">paises</text>
<text text-anchor="start" x="190.5437" y="-209.1" font-family="Helvetica,sans-Serif" font-size="11.00" fill="#000000">[table]</text>
<polygon fill="none" stroke="#000000" points="10.5,-179 10.5,-201 133.5,-201 133.5,-179 10.5,-179"/>
<image xlink:href="../../images/primaryKeys.png" width="11px" height="12px" preserveAspectRatio="xMinYMin meet" x="15.5" y="-196"/>
<text text-anchor="start" x="30.5" y="-186.1" font-family="Helvetica,sans-Serif" font-size="11.00" fill="#000000">pais_id</text>
<polygon fill="none" stroke="#000000" points="133.5,-179 133.5,-201 225.5,-201 225.5,-179 133.5,-179"/>
<text text-anchor="start" x="136.5" y="-186.7" font-family="Helvetica,sans-Serif" font-size="11.00" fill="#000000">serial[10]</text>
<polygon fill="none" stroke="#000000" points="10.5,-157 10.5,-179 133.5,-179 133.5,-157 10.5,-157"/>
<text text-anchor="start" x="30.5" y="-164.1" font-family="Helvetica,sans-Serif" font-size="11.00" fill="#000000">nombre</text>
<polygon fill="none" stroke="#000000" points="133.5,-157 133.5,-179 225.5,-179 225.5,-157 133.5,-157"/>
<text text-anchor="start" x="136.5" y="-164.7" font-family="Helvetica,sans-Serif" font-size="11.00" fill="#000000">varchar[1000]</text>
<polygon fill="none" stroke="#000000" points="10.5,-135 10.5,-157 133.5,-157 133.5,-135 10.5,-135"/>
<text text-anchor="start" x="30.5" y="-142.1" font-family="Helvetica,sans-Serif" font-size="11.00" fill="#000000">nom_corto</text>
<polygon fill="none" stroke="#000000" points="133.5,-135 133.5,-157 225.5,-157 225.5,-135 133.5,-135"/>
<text text-anchor="start" x="136.5" y="-142.7" font-family="Helvetica,sans-Serif" font-size="11.00" fill="#000000">varchar[10]</text>
<polygon fill="none" stroke="#000000" points="10.5,-113 10.5,-135 133.5,-135 133.5,-113 10.5,-113"/>
<text text-anchor="start" x="30.5" y="-120.1" font-family="Helvetica,sans-Serif" font-size="11.00" fill="#000000">cod_telefono</text>
<polygon fill="none" stroke="#000000" points="133.5,-113 133.5,-135 225.5,-135 225.5,-113 133.5,-113"/>
<text text-anchor="start" x="136.5" y="-120.7" font-family="Helvetica,sans-Serif" font-size="11.00" fill="#000000">varchar[10]</text>
<polygon fill="none" stroke="#000000" points="10.5,-91 10.5,-113 133.5,-113 133.5,-91 10.5,-91"/>
<text text-anchor="start" x="30.5" y="-98.1" font-family="Helvetica,sans-Serif" font-size="11.00" fill="#000000">usu_insercion</text>
<polygon fill="none" stroke="#000000" points="133.5,-91 133.5,-113 225.5,-113 225.5,-91 133.5,-91"/>
<text text-anchor="start" x="136.5" y="-98.7" font-family="Helvetica,sans-Serif" font-size="11.00" fill="#000000">varchar[20]</text>
<polygon fill="none" stroke="#000000" points="10.5,-69 10.5,-91 133.5,-91 133.5,-69 10.5,-69"/>
<text text-anchor="start" x="30.5" y="-76.1" font-family="Helvetica,sans-Serif" font-size="11.00" fill="#000000">fec_insercion</text>
<polygon fill="none" stroke="#000000" points="133.5,-69 133.5,-91 225.5,-91 225.5,-69 133.5,-69"/>
<text text-anchor="start" x="136.1023" y="-76.7" font-family="Helvetica,sans-Serif" font-size="11.00" fill="#000000">timestamptz[35,6]</text>
<polygon fill="none" stroke="#000000" points="10.5,-47 10.5,-69 133.5,-69 133.5,-47 10.5,-47"/>
<text text-anchor="start" x="30.5" y="-54.1" font-family="Helvetica,sans-Serif" font-size="11.00" fill="#000000">fec_modificacion</text>
<polygon fill="none" stroke="#000000" points="133.5,-47 133.5,-69 225.5,-69 225.5,-47 133.5,-47"/>
<text text-anchor="start" x="136.1023" y="-54.7" font-family="Helvetica,sans-Serif" font-size="11.00" fill="#000000">timestamptz[35,6]</text>
<polygon fill="none" stroke="#000000" points="10.5,-25 10.5,-47 133.5,-47 133.5,-25 10.5,-25"/>
<text text-anchor="start" x="30.5" y="-32.1" font-family="Helvetica,sans-Serif" font-size="11.00" fill="#000000">usu_modificacion</text>
<polygon fill="none" stroke="#000000" points="133.5,-25 133.5,-47 225.5,-47 225.5,-25 133.5,-25"/>
<text text-anchor="start" x="136.5" y="-32.7" font-family="Helvetica,sans-Serif" font-size="11.00" fill="#000000">varchar[20]</text>
<polygon fill="#ffffff" stroke="transparent" points="10.5,-6 10.5,-25 66.5,-25 66.5,-6 10.5,-6"/>
<polygon fill="none" stroke="#000000" points="10.5,-6 10.5,-25 66.5,-25 66.5,-6 10.5,-6"/>
<text text-anchor="start" x="13.5" y="-12.1" font-family="Helvetica,sans-Serif" font-size="11.00" fill="#000000">&lt; 0</text>
<polygon fill="#ffffff" stroke="transparent" points="66.5,-6 66.5,-25 133.5,-25 133.5,-6 66.5,-6"/>
<polygon fill="none" stroke="#000000" points="66.5,-6 66.5,-25 133.5,-25 133.5,-6 66.5,-6"/>
<text text-anchor="start" x="103.6105" y="-12.1" font-family="Helvetica,sans-Serif" font-size="11.00" fill="#000000">1 row</text>
<polygon fill="#ffffff" stroke="transparent" points="133.5,-6 133.5,-25 225.5,-25 225.5,-6 133.5,-6"/>
<polygon fill="none" stroke="#000000" points="133.5,-6 133.5,-25 225.5,-25 225.5,-6 133.5,-6"/>
<text text-anchor="start" x="206.9053" y="-12.1" font-family="Helvetica,sans-Serif" font-size="11.00" fill="#000000">0 &gt;</text>
<polygon fill="none" stroke="#000000" stroke-width="2" points="9,-5 9,-225 226,-225 226,-5 9,-5"/>
</a>
</g>
</g>
</g>
</svg>
