<?xml version="1.0" encoding="UTF-8" standalone="no"?>
<!DOCTYPE svg PUBLIC "-//W3C//DTD SVG 1.1//EN"
 "http://www.w3.org/Graphics/SVG/1.1/DTD/svg11.dtd">
<!-- Generated by graphviz version 2.40.1 (20161225.0304)
 -->
<!-- Title: roles Pages: 1 -->
<svg width="243pt" height="216pt"
 viewBox="0.00 0.00 243.00 216.00" xmlns="http://www.w3.org/2000/svg" xmlns:xlink="http://www.w3.org/1999/xlink">
<g id="graph0" class="graph" transform="scale(1 1) rotate(0) translate(4 212)">
<title>roles</title>
<polygon fill="#ffffff" stroke="transparent" points="-4,4 -4,-212 239,-212 239,4 -4,4"/>
<!-- roles -->
<g id="node1" class="node">
<title>roles</title>
<g id="a_node1"><a xlink:href="../../tables/roles.html" xlink:title="roles" target="_top">
<polygon fill="#ffffff" stroke="transparent" points="8,-4 8,-204 227,-204 227,-4 8,-4"/>
<polygon fill="#f5f5f5" stroke="transparent" points="10.5,-179 10.5,-202 225.5,-202 225.5,-179 10.5,-179"/>
<polygon fill="none" stroke="#000000" points="10.5,-179 10.5,-202 225.5,-202 225.5,-179 10.5,-179"/>
<text text-anchor="start" x="15.5" y="-188.1" font-family="Helvetica,sans-Serif" font-weight="bold" font-size="11.00" fill="#000000">roles</text>
<text text-anchor="start" x="190.5437" y="-187.1" font-family="Helvetica,sans-Serif" font-size="11.00" fill="#000000">[table]</text>
<polygon fill="none" stroke="#000000" points="10.5,-157 10.5,-179 133.5,-179 133.5,-157 10.5,-157"/>
<image xlink:href="../../images/primaryKeys.png" width="11px" height="12px" preserveAspectRatio="xMinYMin meet" x="15.5" y="-174"/>
<text text-anchor="start" x="30.5" y="-164.1" font-family="Helvetica,sans-Serif" font-size="11.00" fill="#000000">rol_id</text>
<polygon fill="none" stroke="#000000" points="133.5,-157 133.5,-179 225.5,-179 225.5,-157 133.5,-157"/>
<text text-anchor="start" x="136.5" y="-164.7" font-family="Helvetica,sans-Serif" font-size="11.00" fill="#000000">serial[10]</text>
<polygon fill="none" stroke="#000000" points="10.5,-135 10.5,-157 133.5,-157 133.5,-135 10.5,-135"/>
<text text-anchor="start" x="30.5" y="-142.1" font-family="Helvetica,sans-Serif" font-size="11.00" fill="#000000">nombre</text>
<polygon fill="none" stroke="#000000" points="133.5,-135 133.5,-157 225.5,-157 225.5,-135 133.5,-135"/>
<text text-anchor="start" x="136.5" y="-142.7" font-family="Helvetica,sans-Serif" font-size="11.00" fill="#000000">varchar[255]</text>
<polygon fill="none" stroke="#000000" points="10.5,-113 10.5,-135 133.5,-135 133.5,-113 10.5,-113"/>
<text text-anchor="start" x="30.5" y="-120.1" font-family="Helvetica,sans-Serif" font-size="11.00" fill="#000000">descripcion</text>
<polygon fill="none" stroke="#000000" points="133.5,-113 133.5,-135 225.5,-135 225.5,-113 133.5,-113"/>
<text text-anchor="start" x="136.5" y="-120.7" font-family="Helvetica,sans-Serif" font-size="11.00" fill="#000000">text[2147483647]</text>
<polygon fill="none" stroke="#000000" points="10.5,-91 10.5,-113 133.5,-113 133.5,-91 10.5,-91"/>
<text text-anchor="start" x="30.5" y="-98.1" font-family="Helvetica,sans-Serif" font-size="11.00" fill="#000000">usu_insercion</text>
<polygon fill="none" stroke="#000000" points="133.5,-91 133.5,-113 225.5,-113 225.5,-91 133.5,-91"/>
<text text-anchor="start" x="136.5" y="-98.7" font-family="Helvetica,sans-Serif" font-size="11.00" fill="#000000">varchar[20]</text>
<polygon fill="none" stroke="#000000" points="10.5,-69 10.5,-91 133.5,-91 133.5,-69 10.5,-69"/>
<text text-anchor="start" x="30.5" y="-76.1" font-family="Helvetica,sans-Serif" font-size="11.00" fill="#000000">fec_insercion</text>
<polygon fill="none" stroke="#000000" points="133.5,-69 133.5,-91 225.5,-91 225.5,-69 133.5,-69"/>
<text text-anchor="start" x="136.1023" y="-76.7" font-family="Helvetica,sans-Serif" font-size="11.00" fill="#000000">timestamptz[35,6]</text>
<polygon fill="none" stroke="#000000" points="10.5,-47 10.5,-69 133.5,-69 133.5,-47 10.5,-47"/>
<text text-anchor="start" x="30.5" y="-54.1" font-family="Helvetica,sans-Serif" font-size="11.00" fill="#000000">fec_modificacion</text>
<polygon fill="none" stroke="#000000" points="133.5,-47 133.5,-69 225.5,-69 225.5,-47 133.5,-47"/>
<text text-anchor="start" x="136.1023" y="-54.7" font-family="Helvetica,sans-Serif" font-size="11.00" fill="#000000">timestamptz[35,6]</text>
<polygon fill="none" stroke="#000000" points="10.5,-25 10.5,-47 133.5,-47 133.5,-25 10.5,-25"/>
<text text-anchor="start" x="30.5" y="-32.1" font-family="Helvetica,sans-Serif" font-size="11.00" fill="#000000">usu_modificacion</text>
<polygon fill="none" stroke="#000000" points="133.5,-25 133.5,-47 225.5,-47 225.5,-25 133.5,-25"/>
<text text-anchor="start" x="136.5" y="-32.7" font-family="Helvetica,sans-Serif" font-size="11.00" fill="#000000">varchar[20]</text>
<polygon fill="#ffffff" stroke="transparent" points="10.5,-6 10.5,-25 63.5,-25 63.5,-6 10.5,-6"/>
<polygon fill="none" stroke="#000000" points="10.5,-6 10.5,-25 63.5,-25 63.5,-6 10.5,-6"/>
<text text-anchor="start" x="13.5" y="-12.1" font-family="Helvetica,sans-Serif" font-size="11.00" fill="#000000">&lt; 0</text>
<polygon fill="#ffffff" stroke="transparent" points="63.5,-6 63.5,-25 133.5,-25 133.5,-6 63.5,-6"/>
<polygon fill="none" stroke="#000000" points="63.5,-6 63.5,-25 133.5,-25 133.5,-6 63.5,-6"/>
<text text-anchor="start" x="98.1105" y="-12.1" font-family="Helvetica,sans-Serif" font-size="11.00" fill="#000000">0 rows</text>
<polygon fill="#ffffff" stroke="transparent" points="133.5,-6 133.5,-25 225.5,-25 225.5,-6 133.5,-6"/>
<polygon fill="none" stroke="#000000" points="133.5,-6 133.5,-25 225.5,-25 225.5,-6 133.5,-6"/>
<text text-anchor="start" x="206.9053" y="-12.1" font-family="Helvetica,sans-Serif" font-size="11.00" fill="#000000">0 &gt;</text>
<polygon fill="none" stroke="#000000" stroke-width="2" points="9,-5 9,-203 226,-203 226,-5 9,-5"/>
</a>
</g>
</g>
</g>
</svg>
