<?xml version="1.0" encoding="UTF-8" standalone="no"?>
<!DOCTYPE svg PUBLIC "-//W3C//DTD SVG 1.1//EN"
 "http://www.w3.org/Graphics/SVG/1.1/DTD/svg11.dtd">
<!-- Generated by graphviz version 2.40.1 (20161225.0304)
 -->
<!-- Title: SequelizeMeta Pages: 1 -->
<svg width="198pt" height="84pt"
 viewBox="0.00 0.00 198.00 84.00" xmlns="http://www.w3.org/2000/svg" xmlns:xlink="http://www.w3.org/1999/xlink">
<g id="graph0" class="graph" transform="scale(1 1) rotate(0) translate(4 80)">
<title>SequelizeMeta</title>
<polygon fill="#ffffff" stroke="transparent" points="-4,4 -4,-80 194,-80 194,4 -4,4"/>
<!-- SequelizeMeta -->
<g id="node1" class="node">
<title>SequelizeMeta</title>
<g id="a_node1"><a xlink:href="../../tables/SequelizeMeta.html" xlink:title="SequelizeMeta" target="_top">
<polygon fill="#ffffff" stroke="transparent" points="8,-4 8,-72 182,-72 182,-4 8,-4"/>
<polygon fill="#f5f5f5" stroke="transparent" points="10,-47 10,-70 180,-70 180,-47 10,-47"/>
<polygon fill="none" stroke="#000000" points="10,-47 10,-70 180,-70 180,-47 10,-47"/>
<text text-anchor="start" x="15" y="-56.1" font-family="Helvetica,sans-Serif" font-weight="bold" font-size="11.00" fill="#000000">SequelizeMeta</text>
<text text-anchor="start" x="145.0437" y="-55.1" font-family="Helvetica,sans-Serif" font-size="11.00" fill="#000000">[table]</text>
<polygon fill="none" stroke="#000000" points="10,-25 10,-47 113,-47 113,-25 10,-25"/>
<image xlink:href="../../images/primaryKeys.png" width="11px" height="12px" preserveAspectRatio="xMinYMin meet" x="15" y="-42"/>
<text text-anchor="start" x="30" y="-32.1" font-family="Helvetica,sans-Serif" font-size="11.00" fill="#000000">name</text>
<polygon fill="none" stroke="#000000" points="113,-25 113,-47 180,-47 180,-25 113,-25"/>
<text text-anchor="start" x="115.9365" y="-32.7" font-family="Helvetica,sans-Serif" font-size="11.00" fill="#000000">varchar[255]</text>
<polygon fill="#ffffff" stroke="transparent" points="10,-6 10,-25 50,-25 50,-6 10,-6"/>
<polygon fill="none" stroke="#000000" points="10,-6 10,-25 50,-25 50,-6 10,-6"/>
<text text-anchor="start" x="13" y="-12.1" font-family="Helvetica,sans-Serif" font-size="11.00" fill="#000000">&lt; 0</text>
<polygon fill="#ffffff" stroke="transparent" points="50,-6 50,-25 113,-25 113,-6 50,-6"/>
<polygon fill="none" stroke="#000000" points="50,-6 50,-25 113,-25 113,-6 50,-6"/>
<text text-anchor="start" x="71.4956" y="-12.1" font-family="Helvetica,sans-Serif" font-size="11.00" fill="#000000">33 rows</text>
<polygon fill="#ffffff" stroke="transparent" points="113,-6 113,-25 180,-25 180,-6 113,-6"/>
<polygon fill="none" stroke="#000000" points="113,-6 113,-25 180,-25 180,-6 113,-6"/>
<text text-anchor="start" x="161.4053" y="-12.1" font-family="Helvetica,sans-Serif" font-size="11.00" fill="#000000">0 &gt;</text>
<polygon fill="none" stroke="#000000" stroke-width="2" points="9,-5 9,-71 181,-71 181,-5 9,-5"/>
</a>
</g>
</g>
</g>
</svg>
