<?xml version="1.0" encoding="UTF-8" standalone="no"?>
<!DOCTYPE svg PUBLIC "-//W3C//DTD SVG 1.1//EN"
 "http://www.w3.org/Graphics/SVG/1.1/DTD/svg11.dtd">
<!-- Generated by graphviz version 2.40.1 (20161225.0304)
 -->
<!-- Title: largeRelationshipsDiagram Pages: 1 -->
<svg width="281pt" height="334pt"
 viewBox="0.00 0.00 281.00 334.20" xmlns="http://www.w3.org/2000/svg" xmlns:xlink="http://www.w3.org/1999/xlink">
<g id="graph0" class="graph" transform="scale(1 1) rotate(0) translate(4 330.2)">
<title>largeRelationshipsDiagram</title>
<polygon fill="#ffffff" stroke="transparent" points="-4,4 -4,-330.2 277,-330.2 277,4 -4,4"/>
<text text-anchor="middle" x="72.4936" y="-7.3" font-family="Helvetica,sans-Serif" font-size="11.00" fill="#000000">Generated by SchemaSpy</text>
<!-- leads -->
<g id="node1" class="node">
<title>leads</title>
<g id="a_node1"><a xlink:href="../../tables/leads.html" xlink:title="leads" target="_top">
<polygon fill="#ffffff" stroke="transparent" points="180,-214.2 180,-322.2 265,-322.2 265,-214.2 180,-214.2"/>
<polygon fill="#f5f5f5" stroke="transparent" points="180.5,-299.2 180.5,-322.2 265.5,-322.2 265.5,-299.2 180.5,-299.2"/>
<polygon fill="none" stroke="#000000" points="180.5,-299.2 180.5,-322.2 265.5,-322.2 265.5,-299.2 180.5,-299.2"/>
<text text-anchor="start" x="185.5" y="-308.3" font-family="Helvetica,sans-Serif" font-weight="bold" font-size="11.00" fill="#000000">leads</text>
<text text-anchor="start" x="230.5437" y="-307.3" font-family="Helvetica,sans-Serif" font-size="11.00" fill="#000000">[table]</text>
<polygon fill="none" stroke="#000000" points="180.5,-277.2 180.5,-299.2 265.5,-299.2 265.5,-277.2 180.5,-277.2"/>
<image xlink:href="../../images/primaryKeys.png" width="11px" height="12px" preserveAspectRatio="xMinYMin meet" x="185.5" y="-294.2"/>
<text text-anchor="start" x="200.5" y="-284.3" font-family="Helvetica,sans-Serif" font-size="11.00" fill="#000000">lead_id</text>
<polygon fill="none" stroke="#000000" points="180.5,-255.2 180.5,-277.2 265.5,-277.2 265.5,-255.2 180.5,-255.2"/>
<image xlink:href="../../images/foreignKeys.png" width="11px" height="12px" preserveAspectRatio="xMinYMin meet" x="185.5" y="-272.2"/>
<text text-anchor="start" x="200.5" y="-262.3" font-family="Helvetica,sans-Serif" font-size="11.00" fill="#000000">persona_id</text>
<polygon fill="none" stroke="#000000" points="180.5,-233.2 180.5,-255.2 265.5,-255.2 265.5,-233.2 180.5,-233.2"/>
<text text-anchor="start" x="200.5" y="-240.3" font-family="Helvetica,sans-Serif" font-size="11.00" fill="#000000">estado</text>
<polygon fill="#ffffff" stroke="transparent" points="180.5,-214.2 180.5,-233.2 208.5,-233.2 208.5,-214.2 180.5,-214.2"/>
<polygon fill="none" stroke="#000000" points="180.5,-214.2 180.5,-233.2 208.5,-233.2 208.5,-214.2 180.5,-214.2"/>
<text text-anchor="start" x="183.5" y="-220.3" font-family="Helvetica,sans-Serif" font-size="11.00" fill="#000000">&lt; 1</text>
<polygon fill="#ffffff" stroke="transparent" points="208.5,-214.2 208.5,-233.2 249.5,-233.2 249.5,-214.2 208.5,-214.2"/>
<polygon fill="none" stroke="#000000" points="208.5,-214.2 208.5,-233.2 249.5,-233.2 249.5,-214.2 208.5,-214.2"/>
<text text-anchor="start" x="214.1105" y="-220.3" font-family="Helvetica,sans-Serif" font-size="11.00" fill="#000000">0 rows</text>
<polygon fill="#ffffff" stroke="transparent" points="249.5,-214.2 249.5,-233.2 265.5,-233.2 265.5,-214.2 249.5,-214.2"/>
<polygon fill="none" stroke="#000000" points="249.5,-214.2 249.5,-233.2 265.5,-233.2 265.5,-214.2 249.5,-214.2"/>
<text text-anchor="start" x="256.3862" y="-220.3" font-family="Helvetica,sans-Serif" font-size="11.00" fill="#000000"> &#160;</text>
</a>
</g>
</g>
<!-- personas -->
<g id="node2" class="node">
<title>personas</title>
<g id="a_node2"><a xlink:href="../../tables/personas.html" xlink:title="personas" target="_top">
<polygon fill="#ffffff" stroke="transparent" points="8,-38.2 8,-300.2 131,-300.2 131,-38.2 8,-38.2"/>
<polygon fill="#f5f5f5" stroke="transparent" points="8.5,-277.2 8.5,-300.2 131.5,-300.2 131.5,-277.2 8.5,-277.2"/>
<polygon fill="none" stroke="#000000" points="8.5,-277.2 8.5,-300.2 131.5,-300.2 131.5,-277.2 8.5,-277.2"/>
<text text-anchor="start" x="13.5" y="-286.3" font-family="Helvetica,sans-Serif" font-weight="bold" font-size="11.00" fill="#000000">personas</text>
<text text-anchor="start" x="96.5437" y="-285.3" font-family="Helvetica,sans-Serif" font-size="11.00" fill="#000000">[table]</text>
<polygon fill="none" stroke="#000000" points="8.5,-255.2 8.5,-277.2 131.5,-277.2 131.5,-255.2 8.5,-255.2"/>
<image xlink:href="../../images/primaryKeys.png" width="11px" height="12px" preserveAspectRatio="xMinYMin meet" x="13.5" y="-272.2"/>
<text text-anchor="start" x="28.5" y="-262.3" font-family="Helvetica,sans-Serif" font-size="11.00" fill="#000000">persona_id</text>
<polygon fill="none" stroke="#000000" points="8.5,-233.2 8.5,-255.2 131.5,-255.2 131.5,-233.2 8.5,-233.2"/>
<text text-anchor="start" x="28.5" y="-240.3" font-family="Helvetica,sans-Serif" font-size="11.00" fill="#000000">nombre</text>
<polygon fill="none" stroke="#000000" points="8.5,-211.2 8.5,-233.2 131.5,-233.2 131.5,-211.2 8.5,-211.2"/>
<text text-anchor="start" x="28.5" y="-218.3" font-family="Helvetica,sans-Serif" font-size="11.00" fill="#000000">apellido</text>
<polygon fill="none" stroke="#000000" points="8.5,-189.2 8.5,-211.2 131.5,-211.2 131.5,-189.2 8.5,-189.2"/>
<text text-anchor="start" x="28.5" y="-196.3" font-family="Helvetica,sans-Serif" font-size="11.00" fill="#000000">email</text>
<polygon fill="none" stroke="#000000" points="8.5,-167.2 8.5,-189.2 131.5,-189.2 131.5,-167.2 8.5,-167.2"/>
<text text-anchor="start" x="28.5" y="-174.3" font-family="Helvetica,sans-Serif" font-size="11.00" fill="#000000">fec_insercion</text>
<polygon fill="none" stroke="#000000" points="8.5,-145.2 8.5,-167.2 131.5,-167.2 131.5,-145.2 8.5,-145.2"/>
<text text-anchor="start" x="28.5" y="-152.3" font-family="Helvetica,sans-Serif" font-size="11.00" fill="#000000">usu_insercion</text>
<polygon fill="none" stroke="#000000" points="8.5,-123.2 8.5,-145.2 131.5,-145.2 131.5,-123.2 8.5,-123.2"/>
<text text-anchor="start" x="28.5" y="-130.3" font-family="Helvetica,sans-Serif" font-size="11.00" fill="#000000">fec_modificacion</text>
<polygon fill="none" stroke="#000000" points="8.5,-101.2 8.5,-123.2 131.5,-123.2 131.5,-101.2 8.5,-101.2"/>
<text text-anchor="start" x="28.5" y="-108.3" font-family="Helvetica,sans-Serif" font-size="11.00" fill="#000000">usu_modificacion</text>
<polygon fill="none" stroke="#000000" points="8.5,-79.2 8.5,-101.2 131.5,-101.2 131.5,-79.2 8.5,-79.2"/>
<text text-anchor="start" x="28.5" y="-86.3" font-family="Helvetica,sans-Serif" font-size="11.00" fill="#000000">fec_eliminacion</text>
<polygon fill="none" stroke="#000000" points="8.5,-57.2 8.5,-79.2 131.5,-79.2 131.5,-57.2 8.5,-57.2"/>
<text text-anchor="start" x="28.5" y="-64.3" font-family="Helvetica,sans-Serif" font-size="11.00" fill="#000000">usu_eliminacion</text>
<polygon fill="#ffffff" stroke="transparent" points="8.5,-38.2 8.5,-57.2 46.5,-57.2 46.5,-38.2 8.5,-38.2"/>
<polygon fill="none" stroke="#000000" points="8.5,-38.2 8.5,-57.2 46.5,-57.2 46.5,-38.2 8.5,-38.2"/>
<text text-anchor="start" x="11.5" y="-44.3" font-family="Helvetica,sans-Serif" font-size="11.00" fill="#000000"> &#160;</text>
<polygon fill="#ffffff" stroke="transparent" points="46.5,-38.2 46.5,-57.2 97.5,-57.2 97.5,-38.2 46.5,-38.2"/>
<polygon fill="none" stroke="#000000" points="46.5,-38.2 46.5,-57.2 97.5,-57.2 97.5,-38.2 46.5,-38.2"/>
<text text-anchor="start" x="62.1105" y="-44.3" font-family="Helvetica,sans-Serif" font-size="11.00" fill="#000000">0 rows</text>
<polygon fill="#ffffff" stroke="transparent" points="97.5,-38.2 97.5,-57.2 131.5,-57.2 131.5,-38.2 97.5,-38.2"/>
<polygon fill="none" stroke="#000000" points="97.5,-38.2 97.5,-57.2 131.5,-57.2 131.5,-38.2 97.5,-38.2"/>
<text text-anchor="start" x="112.9053" y="-44.3" font-family="Helvetica,sans-Serif" font-size="11.00" fill="#000000">1 &gt;</text>
</a>
</g>
</g>
<!-- leads&#45;&gt;personas -->
<g id="edge1" class="edge">
<title>leads:w&#45;&gt;personas:e</title>
<path fill="none" stroke="#000000" d="M165.9909,-266.2C154.6774,-266.2 147.4931,-266.2 131.5,-266.2"/>
<polygon fill="#000000" stroke="#000000" points="172.5,-266.2001 180.5,-269.8 176.5,-266.2 180.5,-266.2 180.5,-266.2 180.5,-266.2 176.5,-266.2 180.5,-262.6 172.5,-266.2001 172.5,-266.2001"/>
<ellipse fill="none" stroke="#000000" cx="169.3" cy="-266.2001" rx="3.2" ry="3.2"/>
</g>
</g>
</svg>
