<?xml version="1.0" encoding="UTF-8" standalone="no"?>
<!DOCTYPE svg PUBLIC "-//W3C//DTD SVG 1.1//EN"
 "http://www.w3.org/Graphics/SVG/1.1/DTD/svg11.dtd">
<!-- Generated by graphviz version 2.40.1 (20161225.0304)
 -->
<!-- Title: compactImpliedRelationshipsDiagram Pages: 1 -->
<svg width="491pt" height="637pt"
 viewBox="0.00 0.00 491.00 637.20" xmlns="http://www.w3.org/2000/svg" xmlns:xlink="http://www.w3.org/1999/xlink">
<g id="graph0" class="graph" transform="scale(1 1) rotate(0) translate(4 633.2)">
<title>compactImpliedRelationshipsDiagram</title>
<polygon fill="#ffffff" stroke="transparent" points="-4,4 -4,-633.2 487,-633.2 487,4 -4,4"/>
<text text-anchor="middle" x="72.4936" y="-7.3" font-family="Helvetica,sans-Serif" font-size="11.00" fill="#000000">Generated by SchemaSpy</text>
<!-- campana_tipos -->
<g id="node1" class="node">
<title>campana_tipos</title>
<g id="a_node1"><a xlink:href="../../tables/campana_tipos.html" xlink:title="campana_tipos" target="_top">
<polygon fill="#ffffff" stroke="transparent" points="352,-394.2 352,-499.2 475,-499.2 475,-394.2 352,-394.2"/>
<polygon fill="#f5f5f5" stroke="transparent" points="352.5,-475.7 352.5,-498.7 475.5,-498.7 475.5,-475.7 352.5,-475.7"/>
<polygon fill="none" stroke="#000000" points="352.5,-475.7 352.5,-498.7 475.5,-498.7 475.5,-475.7 352.5,-475.7"/>
<text text-anchor="start" x="357.5" y="-484.8" font-family="Helvetica,sans-Serif" font-weight="bold" font-size="11.00" fill="#000000">campana_tipos</text>
<text text-anchor="start" x="440.5437" y="-483.8" font-family="Helvetica,sans-Serif" font-size="11.00" fill="#000000">[table]</text>
<polygon fill="none" stroke="#000000" points="352.5,-453.7 352.5,-475.7 475.5,-475.7 475.5,-453.7 352.5,-453.7"/>
<image xlink:href="../../images/foreignKeys.png" width="11px" height="12px" preserveAspectRatio="xMinYMin meet" x="357.5" y="-470.7"/>
<text text-anchor="start" x="372.5" y="-460.8" font-family="Helvetica,sans-Serif" font-size="11.00" fill="#000000">campana_id</text>
<polygon fill="none" stroke="#000000" points="352.5,-431.7 352.5,-453.7 475.5,-453.7 475.5,-431.7 352.5,-431.7"/>
<image xlink:href="../../images/foreignKeys.png" width="11px" height="12px" preserveAspectRatio="xMinYMin meet" x="357.5" y="-448.7"/>
<text text-anchor="start" x="372.5" y="-438.8" font-family="Helvetica,sans-Serif" font-size="11.00" fill="#000000">tip_campana_id</text>
<polygon fill="none" stroke="#000000" points="352.5,-412.7 352.5,-431.7 475.5,-431.7 475.5,-412.7 352.5,-412.7"/>
<text text-anchor="start" x="355.5" y="-418.8" font-family="Helvetica,sans-Serif" font-size="11.00" fill="#000000">...</text>
<polygon fill="#ffffff" stroke="transparent" points="352.5,-393.7 352.5,-412.7 399.5,-412.7 399.5,-393.7 352.5,-393.7"/>
<polygon fill="none" stroke="#000000" points="352.5,-393.7 352.5,-412.7 399.5,-412.7 399.5,-393.7 352.5,-393.7"/>
<text text-anchor="start" x="355.5" y="-399.8" font-family="Helvetica,sans-Serif" font-size="11.00" fill="#000000">&lt; 1</text>
<polygon fill="#ffffff" stroke="transparent" points="399.5,-393.7 399.5,-412.7 450.5,-412.7 450.5,-393.7 399.5,-393.7"/>
<polygon fill="none" stroke="#000000" points="399.5,-393.7 399.5,-412.7 450.5,-412.7 450.5,-393.7 399.5,-393.7"/>
<text text-anchor="start" x="415.1105" y="-399.8" font-family="Helvetica,sans-Serif" font-size="11.00" fill="#000000">0 rows</text>
<polygon fill="#ffffff" stroke="transparent" points="450.5,-393.7 450.5,-412.7 475.5,-412.7 475.5,-393.7 450.5,-393.7"/>
<polygon fill="none" stroke="#000000" points="450.5,-393.7 450.5,-412.7 475.5,-412.7 475.5,-393.7 450.5,-393.7"/>
<text text-anchor="start" x="466.3862" y="-399.8" font-family="Helvetica,sans-Serif" font-size="11.00" fill="#000000"> &#160;</text>
</a>
</g>
</g>
<!-- campanas -->
<g id="node2" class="node">
<title>campanas</title>
<g id="a_node2"><a xlink:href="../../tables/campanas.html" xlink:title="campanas" target="_top">
<polygon fill="#ffffff" stroke="transparent" points="180,-394.2 180,-477.2 303,-477.2 303,-394.2 180,-394.2"/>
<polygon fill="#f5f5f5" stroke="transparent" points="180.5,-453.7 180.5,-476.7 303.5,-476.7 303.5,-453.7 180.5,-453.7"/>
<polygon fill="none" stroke="#000000" points="180.5,-453.7 180.5,-476.7 303.5,-476.7 303.5,-453.7 180.5,-453.7"/>
<text text-anchor="start" x="185.5" y="-462.8" font-family="Helvetica,sans-Serif" font-weight="bold" font-size="11.00" fill="#000000">campanas</text>
<text text-anchor="start" x="268.5437" y="-461.8" font-family="Helvetica,sans-Serif" font-size="11.00" fill="#000000">[table]</text>
<polygon fill="none" stroke="#000000" points="180.5,-431.7 180.5,-453.7 303.5,-453.7 303.5,-431.7 180.5,-431.7"/>
<image xlink:href="../../images/primaryKeys.png" width="11px" height="12px" preserveAspectRatio="xMinYMin meet" x="185.5" y="-448.7"/>
<text text-anchor="start" x="200.5" y="-438.8" font-family="Helvetica,sans-Serif" font-size="11.00" fill="#000000">campana_id</text>
<polygon fill="none" stroke="#000000" points="180.5,-412.7 180.5,-431.7 303.5,-431.7 303.5,-412.7 180.5,-412.7"/>
<text text-anchor="start" x="183.5" y="-418.8" font-family="Helvetica,sans-Serif" font-size="11.00" fill="#000000">...</text>
<polygon fill="#ffffff" stroke="transparent" points="180.5,-393.7 180.5,-412.7 218.5,-412.7 218.5,-393.7 180.5,-393.7"/>
<polygon fill="none" stroke="#000000" points="180.5,-393.7 180.5,-412.7 218.5,-412.7 218.5,-393.7 180.5,-393.7"/>
<text text-anchor="start" x="183.5" y="-399.8" font-family="Helvetica,sans-Serif" font-size="11.00" fill="#000000"> &#160;</text>
<polygon fill="#ffffff" stroke="transparent" points="218.5,-393.7 218.5,-412.7 269.5,-412.7 269.5,-393.7 218.5,-393.7"/>
<polygon fill="none" stroke="#000000" points="218.5,-393.7 218.5,-412.7 269.5,-412.7 269.5,-393.7 218.5,-393.7"/>
<text text-anchor="start" x="234.1105" y="-399.8" font-family="Helvetica,sans-Serif" font-size="11.00" fill="#000000">4 rows</text>
<polygon fill="#ffffff" stroke="transparent" points="269.5,-393.7 269.5,-412.7 303.5,-412.7 303.5,-393.7 269.5,-393.7"/>
<polygon fill="none" stroke="#000000" points="269.5,-393.7 269.5,-412.7 303.5,-412.7 303.5,-393.7 269.5,-393.7"/>
<text text-anchor="start" x="284.9053" y="-399.8" font-family="Helvetica,sans-Serif" font-size="11.00" fill="#000000">1 &gt;</text>
</a>
</g>
</g>
<!-- campana_tipos&#45;&gt;campanas -->
<g id="edge1" class="edge">
<title>campana_tipos:w&#45;&gt;campanas:e</title>
<path fill="none" stroke="#000000" d="M338.1297,-461.2625C326.5865,-455.075 321.4041,-442.7 303.5,-442.7"/>
<polygon fill="#000000" stroke="#000000" points="344.7195,-462.8388 351.6625,-468.2012 348.6098,-463.7694 352.5,-464.7 352.5,-464.7 352.5,-464.7 348.6098,-463.7694 353.3375,-461.1988 344.7195,-462.8388 344.7195,-462.8388"/>
<ellipse fill="none" stroke="#000000" cx="341.6073" cy="-462.0943" rx="3.2" ry="3.2"/>
</g>
<!-- campana_tipos&#45;&gt;campanas -->
<g id="edge2" class="edge">
<title>campana_tipos:w&#45;&gt;campanas:e</title>
<path fill="none" stroke="#000000" stroke-dasharray="5,2" d="M337.9909,-442.7C326.6774,-442.7 319.4931,-442.7 303.5,-442.7"/>
<polygon fill="#000000" stroke="#000000" points="344.5,-442.7001 352.5,-446.3 348.5,-442.7 352.5,-442.7 352.5,-442.7 352.5,-442.7 348.5,-442.7 352.5,-439.1 344.5,-442.7001 344.5,-442.7001"/>
<ellipse fill="none" stroke="#000000" cx="341.3" cy="-442.7001" rx="3.2" ry="3.2"/>
</g>
<!-- ciudades -->
<g id="node3" class="node">
<title>ciudades</title>
<g id="a_node3"><a xlink:href="../../tables/ciudades.html" xlink:title="ciudades" target="_top">
<polygon fill="#ffffff" stroke="transparent" points="180,-498.2 180,-603.2 303,-603.2 303,-498.2 180,-498.2"/>
<polygon fill="#f5f5f5" stroke="transparent" points="180.5,-579.7 180.5,-602.7 303.5,-602.7 303.5,-579.7 180.5,-579.7"/>
<polygon fill="none" stroke="#000000" points="180.5,-579.7 180.5,-602.7 303.5,-602.7 303.5,-579.7 180.5,-579.7"/>
<text text-anchor="start" x="185.5" y="-588.8" font-family="Helvetica,sans-Serif" font-weight="bold" font-size="11.00" fill="#000000">ciudades</text>
<text text-anchor="start" x="268.5437" y="-587.8" font-family="Helvetica,sans-Serif" font-size="11.00" fill="#000000">[table]</text>
<polygon fill="none" stroke="#000000" points="180.5,-557.7 180.5,-579.7 303.5,-579.7 303.5,-557.7 180.5,-557.7"/>
<image xlink:href="../../images/primaryKeys.png" width="11px" height="12px" preserveAspectRatio="xMinYMin meet" x="185.5" y="-574.7"/>
<text text-anchor="start" x="200.5" y="-564.8" font-family="Helvetica,sans-Serif" font-size="11.00" fill="#000000">ciudad_id</text>
<polygon fill="none" stroke="#000000" points="180.5,-535.7 180.5,-557.7 303.5,-557.7 303.5,-535.7 180.5,-535.7"/>
<image xlink:href="../../images/foreignKeys.png" width="11px" height="12px" preserveAspectRatio="xMinYMin meet" x="185.5" y="-552.7"/>
<text text-anchor="start" x="200.5" y="-542.8" font-family="Helvetica,sans-Serif" font-size="11.00" fill="#000000">pais_id</text>
<polygon fill="none" stroke="#000000" points="180.5,-516.7 180.5,-535.7 303.5,-535.7 303.5,-516.7 180.5,-516.7"/>
<text text-anchor="start" x="183.5" y="-522.8" font-family="Helvetica,sans-Serif" font-size="11.00" fill="#000000">...</text>
<polygon fill="#ffffff" stroke="transparent" points="180.5,-497.7 180.5,-516.7 222.5,-516.7 222.5,-497.7 180.5,-497.7"/>
<polygon fill="none" stroke="#000000" points="180.5,-497.7 180.5,-516.7 222.5,-516.7 222.5,-497.7 180.5,-497.7"/>
<text text-anchor="start" x="183.5" y="-503.8" font-family="Helvetica,sans-Serif" font-size="11.00" fill="#000000">&lt; 1</text>
<polygon fill="#ffffff" stroke="transparent" points="222.5,-497.7 222.5,-516.7 271.5,-516.7 271.5,-497.7 222.5,-497.7"/>
<polygon fill="none" stroke="#000000" points="222.5,-497.7 222.5,-516.7 271.5,-516.7 271.5,-497.7 222.5,-497.7"/>
<text text-anchor="start" x="236.1105" y="-503.8" font-family="Helvetica,sans-Serif" font-size="11.00" fill="#000000">0 rows</text>
<polygon fill="#ffffff" stroke="transparent" points="271.5,-497.7 271.5,-516.7 303.5,-516.7 303.5,-497.7 271.5,-497.7"/>
<polygon fill="none" stroke="#000000" points="271.5,-497.7 271.5,-516.7 303.5,-516.7 303.5,-497.7 271.5,-497.7"/>
<text text-anchor="start" x="284.9053" y="-503.8" font-family="Helvetica,sans-Serif" font-size="11.00" fill="#000000">1 &gt;</text>
</a>
</g>
</g>
<!-- paises -->
<g id="node8" class="node">
<title>paises</title>
<g id="a_node8"><a xlink:href="../../tables/paises.html" xlink:title="paises" target="_top">
<polygon fill="#ffffff" stroke="transparent" points="8,-498.2 8,-581.2 131,-581.2 131,-498.2 8,-498.2"/>
<polygon fill="#f5f5f5" stroke="transparent" points="8.5,-557.7 8.5,-580.7 131.5,-580.7 131.5,-557.7 8.5,-557.7"/>
<polygon fill="none" stroke="#000000" points="8.5,-557.7 8.5,-580.7 131.5,-580.7 131.5,-557.7 8.5,-557.7"/>
<text text-anchor="start" x="13.5" y="-566.8" font-family="Helvetica,sans-Serif" font-weight="bold" font-size="11.00" fill="#000000">paises</text>
<text text-anchor="start" x="96.5437" y="-565.8" font-family="Helvetica,sans-Serif" font-size="11.00" fill="#000000">[table]</text>
<polygon fill="none" stroke="#000000" points="8.5,-535.7 8.5,-557.7 131.5,-557.7 131.5,-535.7 8.5,-535.7"/>
<image xlink:href="../../images/primaryKeys.png" width="11px" height="12px" preserveAspectRatio="xMinYMin meet" x="13.5" y="-552.7"/>
<text text-anchor="start" x="28.5" y="-542.8" font-family="Helvetica,sans-Serif" font-size="11.00" fill="#000000">pais_id</text>
<polygon fill="none" stroke="#000000" points="8.5,-516.7 8.5,-535.7 131.5,-535.7 131.5,-516.7 8.5,-516.7"/>
<text text-anchor="start" x="11.5" y="-522.8" font-family="Helvetica,sans-Serif" font-size="11.00" fill="#000000">...</text>
<polygon fill="#ffffff" stroke="transparent" points="8.5,-497.7 8.5,-516.7 46.5,-516.7 46.5,-497.7 8.5,-497.7"/>
<polygon fill="none" stroke="#000000" points="8.5,-497.7 8.5,-516.7 46.5,-516.7 46.5,-497.7 8.5,-497.7"/>
<text text-anchor="start" x="11.5" y="-503.8" font-family="Helvetica,sans-Serif" font-size="11.00" fill="#000000"> &#160;</text>
<polygon fill="#ffffff" stroke="transparent" points="46.5,-497.7 46.5,-516.7 97.5,-516.7 97.5,-497.7 46.5,-497.7"/>
<polygon fill="none" stroke="#000000" points="46.5,-497.7 46.5,-516.7 97.5,-516.7 97.5,-497.7 46.5,-497.7"/>
<text text-anchor="start" x="62.1105" y="-503.8" font-family="Helvetica,sans-Serif" font-size="11.00" fill="#000000">0 rows</text>
<polygon fill="#ffffff" stroke="transparent" points="97.5,-497.7 97.5,-516.7 131.5,-516.7 131.5,-497.7 97.5,-497.7"/>
<polygon fill="none" stroke="#000000" points="97.5,-497.7 97.5,-516.7 131.5,-516.7 131.5,-497.7 97.5,-497.7"/>
<text text-anchor="start" x="112.9053" y="-503.8" font-family="Helvetica,sans-Serif" font-size="11.00" fill="#000000">1 &gt;</text>
</a>
</g>
</g>
<!-- ciudades&#45;&gt;paises -->
<g id="edge3" class="edge">
<title>ciudades:w&#45;&gt;paises:e</title>
<path fill="none" stroke="#000000" d="M165.9909,-546.7C154.6774,-546.7 147.4931,-546.7 131.5,-546.7"/>
<polygon fill="#000000" stroke="#000000" points="172.5,-546.7001 180.5,-550.3 176.5,-546.7 180.5,-546.7 180.5,-546.7 180.5,-546.7 176.5,-546.7 180.5,-543.1 172.5,-546.7001 172.5,-546.7001"/>
<ellipse fill="none" stroke="#000000" cx="169.3" cy="-546.7001" rx="3.2" ry="3.2"/>
</g>
<!-- cursos -->
<g id="node4" class="node">
<title>cursos</title>
<g id="a_node4"><a xlink:href="../../tables/cursos.html" xlink:title="cursos" target="_top">
<polygon fill="#ffffff" stroke="transparent" points="180,-38.2 180,-121.2 303,-121.2 303,-38.2 180,-38.2"/>
<polygon fill="#f5f5f5" stroke="transparent" points="180.5,-97.7 180.5,-120.7 303.5,-120.7 303.5,-97.7 180.5,-97.7"/>
<polygon fill="none" stroke="#000000" points="180.5,-97.7 180.5,-120.7 303.5,-120.7 303.5,-97.7 180.5,-97.7"/>
<text text-anchor="start" x="185.5" y="-106.8" font-family="Helvetica,sans-Serif" font-weight="bold" font-size="11.00" fill="#000000">cursos</text>
<text text-anchor="start" x="268.5437" y="-105.8" font-family="Helvetica,sans-Serif" font-size="11.00" fill="#000000">[table]</text>
<polygon fill="none" stroke="#000000" points="180.5,-75.7 180.5,-97.7 303.5,-97.7 303.5,-75.7 180.5,-75.7"/>
<image xlink:href="../../images/primaryKeys.png" width="11px" height="12px" preserveAspectRatio="xMinYMin meet" x="185.5" y="-92.7"/>
<text text-anchor="start" x="200.5" y="-82.8" font-family="Helvetica,sans-Serif" font-size="11.00" fill="#000000">curso_id</text>
<polygon fill="none" stroke="#000000" points="180.5,-56.7 180.5,-75.7 303.5,-75.7 303.5,-56.7 180.5,-56.7"/>
<text text-anchor="start" x="183.5" y="-62.8" font-family="Helvetica,sans-Serif" font-size="11.00" fill="#000000">...</text>
<polygon fill="#ffffff" stroke="transparent" points="180.5,-37.7 180.5,-56.7 222.5,-56.7 222.5,-37.7 180.5,-37.7"/>
<polygon fill="none" stroke="#000000" points="180.5,-37.7 180.5,-56.7 222.5,-56.7 222.5,-37.7 180.5,-37.7"/>
<text text-anchor="start" x="183.5" y="-43.8" font-family="Helvetica,sans-Serif" font-size="11.00" fill="#000000"> &#160;</text>
<polygon fill="#ffffff" stroke="transparent" points="222.5,-37.7 222.5,-56.7 275.5,-56.7 275.5,-37.7 222.5,-37.7"/>
<polygon fill="none" stroke="#000000" points="222.5,-37.7 222.5,-56.7 275.5,-56.7 275.5,-37.7 222.5,-37.7"/>
<text text-anchor="start" x="240.1105" y="-43.8" font-family="Helvetica,sans-Serif" font-size="11.00" fill="#000000">0 rows</text>
<polygon fill="#ffffff" stroke="transparent" points="275.5,-37.7 275.5,-56.7 303.5,-56.7 303.5,-37.7 275.5,-37.7"/>
<polygon fill="none" stroke="#000000" points="275.5,-37.7 275.5,-56.7 303.5,-56.7 303.5,-37.7 275.5,-37.7"/>
<text text-anchor="start" x="294.3862" y="-43.8" font-family="Helvetica,sans-Serif" font-size="11.00" fill="#000000"> &#160;</text>
</a>
</g>
</g>
<!-- direcciones -->
<g id="node5" class="node">
<title>direcciones</title>
<g id="a_node5"><a xlink:href="../../tables/direcciones.html" xlink:title="direcciones" target="_top">
<polygon fill="#ffffff" stroke="transparent" points="352,-520.2 352,-625.2 475,-625.2 475,-520.2 352,-520.2"/>
<polygon fill="#f5f5f5" stroke="transparent" points="352.5,-601.7 352.5,-624.7 475.5,-624.7 475.5,-601.7 352.5,-601.7"/>
<polygon fill="none" stroke="#000000" points="352.5,-601.7 352.5,-624.7 475.5,-624.7 475.5,-601.7 352.5,-601.7"/>
<text text-anchor="start" x="357.5" y="-610.8" font-family="Helvetica,sans-Serif" font-weight="bold" font-size="11.00" fill="#000000">direcciones</text>
<text text-anchor="start" x="440.5437" y="-609.8" font-family="Helvetica,sans-Serif" font-size="11.00" fill="#000000">[table]</text>
<polygon fill="none" stroke="#000000" points="352.5,-579.7 352.5,-601.7 475.5,-601.7 475.5,-579.7 352.5,-579.7"/>
<image xlink:href="../../images/primaryKeys.png" width="11px" height="12px" preserveAspectRatio="xMinYMin meet" x="357.5" y="-596.7"/>
<text text-anchor="start" x="372.5" y="-586.8" font-family="Helvetica,sans-Serif" font-size="11.00" fill="#000000">direccion_id</text>
<polygon fill="none" stroke="#000000" points="352.5,-557.7 352.5,-579.7 475.5,-579.7 475.5,-557.7 352.5,-557.7"/>
<image xlink:href="../../images/foreignKeys.png" width="11px" height="12px" preserveAspectRatio="xMinYMin meet" x="357.5" y="-574.7"/>
<text text-anchor="start" x="372.5" y="-564.8" font-family="Helvetica,sans-Serif" font-size="11.00" fill="#000000">ciudad_id</text>
<polygon fill="none" stroke="#000000" points="352.5,-538.7 352.5,-557.7 475.5,-557.7 475.5,-538.7 352.5,-538.7"/>
<text text-anchor="start" x="355.5" y="-544.8" font-family="Helvetica,sans-Serif" font-size="11.00" fill="#000000">...</text>
<polygon fill="#ffffff" stroke="transparent" points="352.5,-519.7 352.5,-538.7 399.5,-538.7 399.5,-519.7 352.5,-519.7"/>
<polygon fill="none" stroke="#000000" points="352.5,-519.7 352.5,-538.7 399.5,-538.7 399.5,-519.7 352.5,-519.7"/>
<text text-anchor="start" x="355.5" y="-525.8" font-family="Helvetica,sans-Serif" font-size="11.00" fill="#000000">&lt; 1</text>
<polygon fill="#ffffff" stroke="transparent" points="399.5,-519.7 399.5,-538.7 450.5,-538.7 450.5,-519.7 399.5,-519.7"/>
<polygon fill="none" stroke="#000000" points="399.5,-519.7 399.5,-538.7 450.5,-538.7 450.5,-519.7 399.5,-519.7"/>
<text text-anchor="start" x="415.1105" y="-525.8" font-family="Helvetica,sans-Serif" font-size="11.00" fill="#000000">0 rows</text>
<polygon fill="#ffffff" stroke="transparent" points="450.5,-519.7 450.5,-538.7 475.5,-538.7 475.5,-519.7 450.5,-519.7"/>
<polygon fill="none" stroke="#000000" points="450.5,-519.7 450.5,-538.7 475.5,-538.7 475.5,-519.7 450.5,-519.7"/>
<text text-anchor="start" x="466.3862" y="-525.8" font-family="Helvetica,sans-Serif" font-size="11.00" fill="#000000"> &#160;</text>
</a>
</g>
</g>
<!-- direcciones&#45;&gt;ciudades -->
<g id="edge4" class="edge">
<title>direcciones:w&#45;&gt;ciudades:e</title>
<path fill="none" stroke="#000000" d="M337.9909,-568.7C326.6774,-568.7 319.4931,-568.7 303.5,-568.7"/>
<polygon fill="#000000" stroke="#000000" points="344.5,-568.7001 352.5,-572.3 348.5,-568.7 352.5,-568.7 352.5,-568.7 352.5,-568.7 348.5,-568.7 352.5,-565.1 344.5,-568.7001 344.5,-568.7001"/>
<ellipse fill="none" stroke="#000000" cx="341.3" cy="-568.7001" rx="3.2" ry="3.2"/>
</g>
<!-- empleados -->
<g id="node6" class="node">
<title>empleados</title>
<g id="a_node6"><a xlink:href="../../tables/empleados.html" xlink:title="empleados" target="_top">
<polygon fill="#ffffff" stroke="transparent" points="352,-54.2 352,-181.2 475,-181.2 475,-54.2 352,-54.2"/>
<polygon fill="#f5f5f5" stroke="transparent" points="352.5,-157.7 352.5,-180.7 475.5,-180.7 475.5,-157.7 352.5,-157.7"/>
<polygon fill="none" stroke="#000000" points="352.5,-157.7 352.5,-180.7 475.5,-180.7 475.5,-157.7 352.5,-157.7"/>
<text text-anchor="start" x="357.5" y="-166.8" font-family="Helvetica,sans-Serif" font-weight="bold" font-size="11.00" fill="#000000">empleados</text>
<text text-anchor="start" x="440.5437" y="-165.8" font-family="Helvetica,sans-Serif" font-size="11.00" fill="#000000">[table]</text>
<polygon fill="none" stroke="#000000" points="352.5,-135.7 352.5,-157.7 475.5,-157.7 475.5,-135.7 352.5,-135.7"/>
<image xlink:href="../../images/primaryKeys.png" width="11px" height="12px" preserveAspectRatio="xMinYMin meet" x="357.5" y="-152.7"/>
<text text-anchor="start" x="372.5" y="-142.8" font-family="Helvetica,sans-Serif" font-size="11.00" fill="#000000">empleado_id</text>
<polygon fill="none" stroke="#000000" points="352.5,-113.7 352.5,-135.7 475.5,-135.7 475.5,-113.7 352.5,-113.7"/>
<image xlink:href="../../images/foreignKeys.png" width="11px" height="12px" preserveAspectRatio="xMinYMin meet" x="357.5" y="-130.7"/>
<text text-anchor="start" x="372.5" y="-120.8" font-family="Helvetica,sans-Serif" font-size="11.00" fill="#000000">persona_id</text>
<polygon fill="none" stroke="#000000" points="352.5,-91.7 352.5,-113.7 475.5,-113.7 475.5,-91.7 352.5,-91.7"/>
<image xlink:href="../../images/foreignKeys.png" width="11px" height="12px" preserveAspectRatio="xMinYMin meet" x="357.5" y="-108.7"/>
<text text-anchor="start" x="372.5" y="-98.8" font-family="Helvetica,sans-Serif" font-size="11.00" fill="#000000">usuario_id</text>
<polygon fill="none" stroke="#000000" points="352.5,-72.7 352.5,-91.7 475.5,-91.7 475.5,-72.7 352.5,-72.7"/>
<text text-anchor="start" x="355.5" y="-78.8" font-family="Helvetica,sans-Serif" font-size="11.00" fill="#000000">...</text>
<polygon fill="#ffffff" stroke="transparent" points="352.5,-53.7 352.5,-72.7 399.5,-72.7 399.5,-53.7 352.5,-53.7"/>
<polygon fill="none" stroke="#000000" points="352.5,-53.7 352.5,-72.7 399.5,-72.7 399.5,-53.7 352.5,-53.7"/>
<text text-anchor="start" x="355.5" y="-59.8" font-family="Helvetica,sans-Serif" font-size="11.00" fill="#000000">&lt; 2</text>
<polygon fill="#ffffff" stroke="transparent" points="399.5,-53.7 399.5,-72.7 450.5,-72.7 450.5,-53.7 399.5,-53.7"/>
<polygon fill="none" stroke="#000000" points="399.5,-53.7 399.5,-72.7 450.5,-72.7 450.5,-53.7 399.5,-53.7"/>
<text text-anchor="start" x="415.1105" y="-59.8" font-family="Helvetica,sans-Serif" font-size="11.00" fill="#000000">0 rows</text>
<polygon fill="#ffffff" stroke="transparent" points="450.5,-53.7 450.5,-72.7 475.5,-72.7 475.5,-53.7 450.5,-53.7"/>
<polygon fill="none" stroke="#000000" points="450.5,-53.7 450.5,-72.7 475.5,-72.7 475.5,-53.7 450.5,-53.7"/>
<text text-anchor="start" x="466.3862" y="-59.8" font-family="Helvetica,sans-Serif" font-size="11.00" fill="#000000"> &#160;</text>
</a>
</g>
</g>
<!-- personas -->
<g id="node9" class="node">
<title>personas</title>
<g id="a_node9"><a xlink:href="../../tables/personas.html" xlink:title="personas" target="_top">
<polygon fill="#ffffff" stroke="transparent" points="180,-142.2 180,-225.2 303,-225.2 303,-142.2 180,-142.2"/>
<polygon fill="#f5f5f5" stroke="transparent" points="180.5,-201.7 180.5,-224.7 303.5,-224.7 303.5,-201.7 180.5,-201.7"/>
<polygon fill="none" stroke="#000000" points="180.5,-201.7 180.5,-224.7 303.5,-224.7 303.5,-201.7 180.5,-201.7"/>
<text text-anchor="start" x="185.5" y="-210.8" font-family="Helvetica,sans-Serif" font-weight="bold" font-size="11.00" fill="#000000">personas</text>
<text text-anchor="start" x="268.5437" y="-209.8" font-family="Helvetica,sans-Serif" font-size="11.00" fill="#000000">[table]</text>
<polygon fill="none" stroke="#000000" points="180.5,-179.7 180.5,-201.7 303.5,-201.7 303.5,-179.7 180.5,-179.7"/>
<image xlink:href="../../images/primaryKeys.png" width="11px" height="12px" preserveAspectRatio="xMinYMin meet" x="185.5" y="-196.7"/>
<text text-anchor="start" x="200.5" y="-186.8" font-family="Helvetica,sans-Serif" font-size="11.00" fill="#000000">persona_id</text>
<polygon fill="none" stroke="#000000" points="180.5,-160.7 180.5,-179.7 303.5,-179.7 303.5,-160.7 180.5,-160.7"/>
<text text-anchor="start" x="183.5" y="-166.8" font-family="Helvetica,sans-Serif" font-size="11.00" fill="#000000">...</text>
<polygon fill="#ffffff" stroke="transparent" points="180.5,-141.7 180.5,-160.7 215.5,-160.7 215.5,-141.7 180.5,-141.7"/>
<polygon fill="none" stroke="#000000" points="180.5,-141.7 180.5,-160.7 215.5,-160.7 215.5,-141.7 180.5,-141.7"/>
<text text-anchor="start" x="183.5" y="-147.8" font-family="Helvetica,sans-Serif" font-size="11.00" fill="#000000"> &#160;</text>
<polygon fill="#ffffff" stroke="transparent" points="215.5,-141.7 215.5,-160.7 270.5,-160.7 270.5,-141.7 215.5,-141.7"/>
<polygon fill="none" stroke="#000000" points="215.5,-141.7 215.5,-160.7 270.5,-160.7 270.5,-141.7 215.5,-141.7"/>
<text text-anchor="start" x="228.9956" y="-147.8" font-family="Helvetica,sans-Serif" font-size="11.00" fill="#000000">22 rows</text>
<polygon fill="#ffffff" stroke="transparent" points="270.5,-141.7 270.5,-160.7 303.5,-160.7 303.5,-141.7 270.5,-141.7"/>
<polygon fill="none" stroke="#000000" points="270.5,-141.7 270.5,-160.7 303.5,-160.7 303.5,-141.7 270.5,-141.7"/>
<text text-anchor="start" x="284.9053" y="-147.8" font-family="Helvetica,sans-Serif" font-size="11.00" fill="#000000">2 &gt;</text>
</a>
</g>
</g>
<!-- empleados&#45;&gt;personas -->
<g id="edge5" class="edge">
<title>empleados:w&#45;&gt;personas:e</title>
<path fill="none" stroke="#000000" d="M338.8768,-129.4466C322.2322,-144.5798 334.0399,-190.7 303.5,-190.7"/>
<polygon fill="#000000" stroke="#000000" points="344.9454,-127.3322 353.6845,-128.0996 348.7227,-126.0161 352.5,-124.7 352.5,-124.7 352.5,-124.7 348.7227,-126.0161 351.3155,-121.3004 344.9454,-127.3322 344.9454,-127.3322"/>
<ellipse fill="none" stroke="#000000" cx="341.9236" cy="-128.3851" rx="3.2" ry="3.2"/>
</g>
<!-- usuarios -->
<g id="node10" class="node">
<title>usuarios</title>
<g id="a_node10"><a xlink:href="../../tables/usuarios.html" xlink:title="usuarios" target="_top">
<polygon fill="#ffffff" stroke="transparent" points="180,-246.2 180,-351.2 303,-351.2 303,-246.2 180,-246.2"/>
<polygon fill="#f5f5f5" stroke="transparent" points="180.5,-327.7 180.5,-350.7 303.5,-350.7 303.5,-327.7 180.5,-327.7"/>
<polygon fill="none" stroke="#000000" points="180.5,-327.7 180.5,-350.7 303.5,-350.7 303.5,-327.7 180.5,-327.7"/>
<text text-anchor="start" x="185.5" y="-336.8" font-family="Helvetica,sans-Serif" font-weight="bold" font-size="11.00" fill="#000000">usuarios</text>
<text text-anchor="start" x="268.5437" y="-335.8" font-family="Helvetica,sans-Serif" font-size="11.00" fill="#000000">[table]</text>
<polygon fill="none" stroke="#000000" points="180.5,-305.7 180.5,-327.7 303.5,-327.7 303.5,-305.7 180.5,-305.7"/>
<image xlink:href="../../images/primaryKeys.png" width="11px" height="12px" preserveAspectRatio="xMinYMin meet" x="185.5" y="-322.7"/>
<text text-anchor="start" x="200.5" y="-312.8" font-family="Helvetica,sans-Serif" font-size="11.00" fill="#000000">usuario_id</text>
<polygon fill="#ffffff" stroke="transparent" points="180.5,-283.7 180.5,-305.7 303.5,-305.7 303.5,-283.7 180.5,-283.7"/>
<polygon fill="none" stroke="#000000" points="180.5,-283.7 180.5,-305.7 303.5,-305.7 303.5,-283.7 180.5,-283.7"/>
<text text-anchor="start" x="200.5" y="-290.8" font-family="Helvetica,sans-Serif" font-size="11.00" fill="#000000">nom_usuario</text>
<polygon fill="none" stroke="#000000" points="180.5,-264.7 180.5,-283.7 303.5,-283.7 303.5,-264.7 180.5,-264.7"/>
<text text-anchor="start" x="183.5" y="-270.8" font-family="Helvetica,sans-Serif" font-size="11.00" fill="#000000">...</text>
<polygon fill="#ffffff" stroke="transparent" points="180.5,-245.7 180.5,-264.7 218.5,-264.7 218.5,-245.7 180.5,-245.7"/>
<polygon fill="none" stroke="#000000" points="180.5,-245.7 180.5,-264.7 218.5,-264.7 218.5,-245.7 180.5,-245.7"/>
<text text-anchor="start" x="183.5" y="-251.8" font-family="Helvetica,sans-Serif" font-size="11.00" fill="#000000"> &#160;</text>
<polygon fill="#ffffff" stroke="transparent" points="218.5,-245.7 218.5,-264.7 269.5,-264.7 269.5,-245.7 218.5,-245.7"/>
<polygon fill="none" stroke="#000000" points="218.5,-245.7 218.5,-264.7 269.5,-264.7 269.5,-245.7 218.5,-245.7"/>
<text text-anchor="start" x="234.1105" y="-251.8" font-family="Helvetica,sans-Serif" font-size="11.00" fill="#000000">2 rows</text>
<polygon fill="#ffffff" stroke="transparent" points="269.5,-245.7 269.5,-264.7 303.5,-264.7 303.5,-245.7 269.5,-245.7"/>
<polygon fill="none" stroke="#000000" points="269.5,-245.7 269.5,-264.7 303.5,-264.7 303.5,-245.7 269.5,-245.7"/>
<text text-anchor="start" x="284.9053" y="-251.8" font-family="Helvetica,sans-Serif" font-size="11.00" fill="#000000">2 &gt;</text>
</a>
</g>
</g>
<!-- empleados&#45;&gt;usuarios -->
<g id="edge6" class="edge">
<title>empleados:w&#45;&gt;usuarios:e</title>
<path fill="none" stroke="#000000" d="M338.1774,-104.6819C270.7011,-126.2556 395.5459,-316.7 303.5,-316.7"/>
<polygon fill="#000000" stroke="#000000" points="344.5755,-103.7966 352.9935,-106.266 348.5378,-103.2483 352.5,-102.7 352.5,-102.7 352.5,-102.7 348.5378,-103.2483 352.0065,-99.134 344.5755,-103.7966 344.5755,-103.7966"/>
<ellipse fill="none" stroke="#000000" cx="341.4057" cy="-104.2352" rx="3.2" ry="3.2"/>
</g>
<!-- leads -->
<g id="node7" class="node">
<title>leads</title>
<g id="a_node7"><a xlink:href="../../tables/leads.html" xlink:title="leads" target="_top">
<polygon fill="#ffffff" stroke="transparent" points="352,-202.2 352,-373.2 475,-373.2 475,-202.2 352,-202.2"/>
<polygon fill="#f5f5f5" stroke="transparent" points="352.5,-349.7 352.5,-372.7 475.5,-372.7 475.5,-349.7 352.5,-349.7"/>
<polygon fill="none" stroke="#000000" points="352.5,-349.7 352.5,-372.7 475.5,-372.7 475.5,-349.7 352.5,-349.7"/>
<text text-anchor="start" x="357.5" y="-358.8" font-family="Helvetica,sans-Serif" font-weight="bold" font-size="11.00" fill="#000000">leads</text>
<text text-anchor="start" x="440.5437" y="-357.8" font-family="Helvetica,sans-Serif" font-size="11.00" fill="#000000">[table]</text>
<polygon fill="none" stroke="#000000" points="352.5,-327.7 352.5,-349.7 475.5,-349.7 475.5,-327.7 352.5,-327.7"/>
<image xlink:href="../../images/primaryKeys.png" width="11px" height="12px" preserveAspectRatio="xMinYMin meet" x="357.5" y="-344.7"/>
<text text-anchor="start" x="372.5" y="-334.8" font-family="Helvetica,sans-Serif" font-size="11.00" fill="#000000">lead_id</text>
<polygon fill="none" stroke="#000000" points="352.5,-305.7 352.5,-327.7 475.5,-327.7 475.5,-305.7 352.5,-305.7"/>
<image xlink:href="../../images/foreignKeys.png" width="11px" height="12px" preserveAspectRatio="xMinYMin meet" x="357.5" y="-322.7"/>
<text text-anchor="start" x="372.5" y="-312.8" font-family="Helvetica,sans-Serif" font-size="11.00" fill="#000000">usu_asignado_id</text>
<polygon fill="none" stroke="#000000" points="352.5,-283.7 352.5,-305.7 475.5,-305.7 475.5,-283.7 352.5,-283.7"/>
<image xlink:href="../../images/foreignKeys.png" width="11px" height="12px" preserveAspectRatio="xMinYMin meet" x="357.5" y="-300.7"/>
<text text-anchor="start" x="372.5" y="-290.8" font-family="Helvetica,sans-Serif" font-size="11.00" fill="#000000">campana_id</text>
<polygon fill="none" stroke="#000000" points="352.5,-261.7 352.5,-283.7 475.5,-283.7 475.5,-261.7 352.5,-261.7"/>
<image xlink:href="../../images/foreignKeys.png" width="11px" height="12px" preserveAspectRatio="xMinYMin meet" x="357.5" y="-278.7"/>
<text text-anchor="start" x="372.5" y="-268.8" font-family="Helvetica,sans-Serif" font-size="11.00" fill="#000000">persona_id</text>
<polygon fill="none" stroke="#000000" points="352.5,-239.7 352.5,-261.7 475.5,-261.7 475.5,-239.7 352.5,-239.7"/>
<image xlink:href="../../images/foreignKeys.png" width="11px" height="12px" preserveAspectRatio="xMinYMin meet" x="357.5" y="-256.7"/>
<text text-anchor="start" x="372.5" y="-246.8" font-family="Helvetica,sans-Serif" font-size="11.00" fill="#000000">curso_id</text>
<polygon fill="none" stroke="#000000" points="352.5,-220.7 352.5,-239.7 475.5,-239.7 475.5,-220.7 352.5,-220.7"/>
<text text-anchor="start" x="355.5" y="-226.8" font-family="Helvetica,sans-Serif" font-size="11.00" fill="#000000">...</text>
<polygon fill="#ffffff" stroke="transparent" points="352.5,-201.7 352.5,-220.7 399.5,-220.7 399.5,-201.7 352.5,-201.7"/>
<polygon fill="none" stroke="#000000" points="352.5,-201.7 352.5,-220.7 399.5,-220.7 399.5,-201.7 352.5,-201.7"/>
<text text-anchor="start" x="355.5" y="-207.8" font-family="Helvetica,sans-Serif" font-size="11.00" fill="#000000">&lt; 2</text>
<polygon fill="#ffffff" stroke="transparent" points="399.5,-201.7 399.5,-220.7 450.5,-220.7 450.5,-201.7 399.5,-201.7"/>
<polygon fill="none" stroke="#000000" points="399.5,-201.7 399.5,-220.7 450.5,-220.7 450.5,-201.7 399.5,-201.7"/>
<text text-anchor="start" x="415.1105" y="-207.8" font-family="Helvetica,sans-Serif" font-size="11.00" fill="#000000">0 rows</text>
<polygon fill="#ffffff" stroke="transparent" points="450.5,-201.7 450.5,-220.7 475.5,-220.7 475.5,-201.7 450.5,-201.7"/>
<polygon fill="none" stroke="#000000" points="450.5,-201.7 450.5,-220.7 475.5,-220.7 475.5,-201.7 450.5,-201.7"/>
<text text-anchor="start" x="466.3862" y="-207.8" font-family="Helvetica,sans-Serif" font-size="11.00" fill="#000000"> &#160;</text>
</a>
</g>
</g>
<!-- leads&#45;&gt;campanas -->
<g id="edge7" class="edge">
<title>leads:w&#45;&gt;campanas:e</title>
<path fill="none" stroke="#000000" stroke-dasharray="5,2" d="M338.2158,-297.6564C297.1366,-318.5155 366.97,-442.7 303.5,-442.7"/>
<polygon fill="#000000" stroke="#000000" points="344.666,-296.3214 353.2296,-298.2253 348.583,-295.5107 352.5,-294.7 352.5,-294.7 352.5,-294.7 348.583,-295.5107 351.7704,-291.1747 344.666,-296.3214 344.666,-296.3214"/>
<ellipse fill="none" stroke="#000000" cx="341.5324" cy="-296.97" rx="3.2" ry="3.2"/>
</g>
<!-- leads&#45;&gt;cursos -->
<g id="edge8" class="edge">
<title>leads:w&#45;&gt;cursos:e</title>
<path fill="none" stroke="#000000" stroke-dasharray="5,2" d="M338.0773,-247.9903C291.101,-226.6672 373.7781,-86.7 303.5,-86.7"/>
<polygon fill="#000000" stroke="#000000" points="344.6376,-249.2228 351.8353,-254.2381 348.5688,-249.9614 352.5,-250.7 352.5,-250.7 352.5,-250.7 348.5688,-249.9614 353.1647,-247.1619 344.6376,-249.2228 344.6376,-249.2228"/>
<ellipse fill="none" stroke="#000000" cx="341.4926" cy="-248.6319" rx="3.2" ry="3.2"/>
</g>
<!-- leads&#45;&gt;personas -->
<g id="edge9" class="edge">
<title>leads:w&#45;&gt;personas:e</title>
<path fill="none" stroke="#000000" d="M338.5294,-268.0564C318.788,-250.7098 339.8194,-190.7 303.5,-190.7"/>
<polygon fill="#000000" stroke="#000000" points="344.9084,-270.1766 351.3645,-276.1162 348.7042,-271.4383 352.5,-272.7 352.5,-272.7 352.5,-272.7 348.7042,-271.4383 353.6355,-269.2838 344.9084,-270.1766 344.9084,-270.1766"/>
<ellipse fill="none" stroke="#000000" cx="341.8717" cy="-269.1673" rx="3.2" ry="3.2"/>
</g>
<!-- leads&#45;&gt;usuarios -->
<g id="edge10" class="edge">
<title>leads:w&#45;&gt;usuarios:e</title>
<path fill="none" stroke="#000000" d="M337.9909,-316.7C326.6774,-316.7 319.4931,-316.7 303.5,-316.7"/>
<polygon fill="#000000" stroke="#000000" points="344.5,-316.7001 352.5,-320.3 348.5,-316.7 352.5,-316.7 352.5,-316.7 352.5,-316.7 348.5,-316.7 352.5,-313.1 344.5,-316.7001 344.5,-316.7001"/>
<ellipse fill="none" stroke="#000000" cx="341.3" cy="-316.7001" rx="3.2" ry="3.2"/>
</g>
</g>
</svg>
