<?xml version="1.0" encoding="UTF-8" standalone="no"?>
<!DOCTYPE svg PUBLIC "-//W3C//DTD SVG 1.1//EN"
 "http://www.w3.org/Graphics/SVG/1.1/DTD/svg11.dtd">
<!-- Generated by graphviz version 2.40.1 (20161225.0304)
 -->
<!-- Title: largeRelationshipsDiagram Pages: 1 -->
<svg width="319pt" height="551pt"
 viewBox="0.00 0.00 319.00 551.20" xmlns="http://www.w3.org/2000/svg" xmlns:xlink="http://www.w3.org/1999/xlink">
<g id="graph0" class="graph" transform="scale(1 1) rotate(0) translate(4 547.2)">
<title>largeRelationshipsDiagram</title>
<polygon fill="#ffffff" stroke="transparent" points="-4,4 -4,-547.2 315,-547.2 315,4 -4,4"/>
<text text-anchor="middle" x="72.4936" y="-7.3" font-family="Helvetica,sans-Serif" font-size="11.00" fill="#000000">Generated by SchemaSpy</text>
<!-- empleados -->
<g id="node1" class="node">
<title>empleados</title>
<g id="a_node1"><a xlink:href="../../tables/empleados.html" xlink:title="empleados" target="_top">
<polygon fill="#ffffff" stroke="transparent" points="180,-223.2 180,-441.2 303,-441.2 303,-223.2 180,-223.2"/>
<polygon fill="#f5f5f5" stroke="transparent" points="180.5,-418.2 180.5,-441.2 303.5,-441.2 303.5,-418.2 180.5,-418.2"/>
<polygon fill="none" stroke="#000000" points="180.5,-418.2 180.5,-441.2 303.5,-441.2 303.5,-418.2 180.5,-418.2"/>
<text text-anchor="start" x="185.5" y="-427.3" font-family="Helvetica,sans-Serif" font-weight="bold" font-size="11.00" fill="#000000">empleados</text>
<text text-anchor="start" x="268.5437" y="-426.3" font-family="Helvetica,sans-Serif" font-size="11.00" fill="#000000">[table]</text>
<polygon fill="none" stroke="#000000" points="180.5,-396.2 180.5,-418.2 303.5,-418.2 303.5,-396.2 180.5,-396.2"/>
<image xlink:href="../../images/primaryKeys.png" width="11px" height="12px" preserveAspectRatio="xMinYMin meet" x="185.5" y="-413.2"/>
<text text-anchor="start" x="200.5" y="-403.3" font-family="Helvetica,sans-Serif" font-size="11.00" fill="#000000">empleado_id</text>
<polygon fill="none" stroke="#000000" points="180.5,-374.2 180.5,-396.2 303.5,-396.2 303.5,-374.2 180.5,-374.2"/>
<image xlink:href="../../images/foreignKeys.png" width="11px" height="12px" preserveAspectRatio="xMinYMin meet" x="185.5" y="-391.2"/>
<text text-anchor="start" x="200.5" y="-381.3" font-family="Helvetica,sans-Serif" font-size="11.00" fill="#000000">persona_id</text>
<polygon fill="none" stroke="#000000" points="180.5,-352.2 180.5,-374.2 303.5,-374.2 303.5,-352.2 180.5,-352.2"/>
<image xlink:href="../../images/foreignKeys.png" width="11px" height="12px" preserveAspectRatio="xMinYMin meet" x="185.5" y="-369.2"/>
<text text-anchor="start" x="200.5" y="-359.3" font-family="Helvetica,sans-Serif" font-size="11.00" fill="#000000">usuario_id</text>
<polygon fill="none" stroke="#000000" points="180.5,-330.2 180.5,-352.2 303.5,-352.2 303.5,-330.2 180.5,-330.2"/>
<text text-anchor="start" x="200.5" y="-337.3" font-family="Helvetica,sans-Serif" font-size="11.00" fill="#000000">activo</text>
<polygon fill="none" stroke="#000000" points="180.5,-308.2 180.5,-330.2 303.5,-330.2 303.5,-308.2 180.5,-308.2"/>
<text text-anchor="start" x="200.5" y="-315.3" font-family="Helvetica,sans-Serif" font-size="11.00" fill="#000000">usu_insercion</text>
<polygon fill="none" stroke="#000000" points="180.5,-286.2 180.5,-308.2 303.5,-308.2 303.5,-286.2 180.5,-286.2"/>
<text text-anchor="start" x="200.5" y="-293.3" font-family="Helvetica,sans-Serif" font-size="11.00" fill="#000000">fec_insercion</text>
<polygon fill="none" stroke="#000000" points="180.5,-264.2 180.5,-286.2 303.5,-286.2 303.5,-264.2 180.5,-264.2"/>
<text text-anchor="start" x="200.5" y="-271.3" font-family="Helvetica,sans-Serif" font-size="11.00" fill="#000000">fec_modificacion</text>
<polygon fill="none" stroke="#000000" points="180.5,-242.2 180.5,-264.2 303.5,-264.2 303.5,-242.2 180.5,-242.2"/>
<text text-anchor="start" x="200.5" y="-249.3" font-family="Helvetica,sans-Serif" font-size="11.00" fill="#000000">usu_modificacion</text>
<polygon fill="#ffffff" stroke="transparent" points="180.5,-223.2 180.5,-242.2 227.5,-242.2 227.5,-223.2 180.5,-223.2"/>
<polygon fill="none" stroke="#000000" points="180.5,-223.2 180.5,-242.2 227.5,-242.2 227.5,-223.2 180.5,-223.2"/>
<text text-anchor="start" x="183.5" y="-229.3" font-family="Helvetica,sans-Serif" font-size="11.00" fill="#000000">&lt; 2</text>
<polygon fill="#ffffff" stroke="transparent" points="227.5,-223.2 227.5,-242.2 278.5,-242.2 278.5,-223.2 227.5,-223.2"/>
<polygon fill="none" stroke="#000000" points="227.5,-223.2 227.5,-242.2 278.5,-242.2 278.5,-223.2 227.5,-223.2"/>
<text text-anchor="start" x="243.1105" y="-229.3" font-family="Helvetica,sans-Serif" font-size="11.00" fill="#000000">0 rows</text>
<polygon fill="#ffffff" stroke="transparent" points="278.5,-223.2 278.5,-242.2 303.5,-242.2 303.5,-223.2 278.5,-223.2"/>
<polygon fill="none" stroke="#000000" points="278.5,-223.2 278.5,-242.2 303.5,-242.2 303.5,-223.2 278.5,-223.2"/>
<text text-anchor="start" x="294.3862" y="-229.3" font-family="Helvetica,sans-Serif" font-size="11.00" fill="#000000"> &#160;</text>
</a>
</g>
</g>
<!-- personas -->
<g id="node2" class="node">
<title>personas</title>
<g id="a_node2"><a xlink:href="../../tables/personas.html" xlink:title="personas" target="_top">
<polygon fill="#ffffff" stroke="transparent" points="8,-299.2 8,-539.2 131,-539.2 131,-299.2 8,-299.2"/>
<polygon fill="#f5f5f5" stroke="transparent" points="8.5,-516.2 8.5,-539.2 131.5,-539.2 131.5,-516.2 8.5,-516.2"/>
<polygon fill="none" stroke="#000000" points="8.5,-516.2 8.5,-539.2 131.5,-539.2 131.5,-516.2 8.5,-516.2"/>
<text text-anchor="start" x="13.5" y="-525.3" font-family="Helvetica,sans-Serif" font-weight="bold" font-size="11.00" fill="#000000">personas</text>
<text text-anchor="start" x="96.5437" y="-524.3" font-family="Helvetica,sans-Serif" font-size="11.00" fill="#000000">[table]</text>
<polygon fill="none" stroke="#000000" points="8.5,-494.2 8.5,-516.2 131.5,-516.2 131.5,-494.2 8.5,-494.2"/>
<image xlink:href="../../images/primaryKeys.png" width="11px" height="12px" preserveAspectRatio="xMinYMin meet" x="13.5" y="-511.2"/>
<text text-anchor="start" x="28.5" y="-501.3" font-family="Helvetica,sans-Serif" font-size="11.00" fill="#000000">persona_id</text>
<polygon fill="none" stroke="#000000" points="8.5,-472.2 8.5,-494.2 131.5,-494.2 131.5,-472.2 8.5,-472.2"/>
<text text-anchor="start" x="28.5" y="-479.3" font-family="Helvetica,sans-Serif" font-size="11.00" fill="#000000">nombre</text>
<polygon fill="none" stroke="#000000" points="8.5,-450.2 8.5,-472.2 131.5,-472.2 131.5,-450.2 8.5,-450.2"/>
<text text-anchor="start" x="28.5" y="-457.3" font-family="Helvetica,sans-Serif" font-size="11.00" fill="#000000">email</text>
<polygon fill="none" stroke="#000000" points="8.5,-428.2 8.5,-450.2 131.5,-450.2 131.5,-428.2 8.5,-428.2"/>
<text text-anchor="start" x="28.5" y="-435.3" font-family="Helvetica,sans-Serif" font-size="11.00" fill="#000000">nro_documento</text>
<polygon fill="none" stroke="#000000" points="8.5,-406.2 8.5,-428.2 131.5,-428.2 131.5,-406.2 8.5,-406.2"/>
<text text-anchor="start" x="28.5" y="-413.3" font-family="Helvetica,sans-Serif" font-size="11.00" fill="#000000">tip_documento</text>
<polygon fill="none" stroke="#000000" points="8.5,-384.2 8.5,-406.2 131.5,-406.2 131.5,-384.2 8.5,-384.2"/>
<text text-anchor="start" x="28.5" y="-391.3" font-family="Helvetica,sans-Serif" font-size="11.00" fill="#000000">usu_insercion</text>
<polygon fill="none" stroke="#000000" points="8.5,-362.2 8.5,-384.2 131.5,-384.2 131.5,-362.2 8.5,-362.2"/>
<text text-anchor="start" x="28.5" y="-369.3" font-family="Helvetica,sans-Serif" font-size="11.00" fill="#000000">fec_insercion</text>
<polygon fill="none" stroke="#000000" points="8.5,-340.2 8.5,-362.2 131.5,-362.2 131.5,-340.2 8.5,-340.2"/>
<text text-anchor="start" x="28.5" y="-347.3" font-family="Helvetica,sans-Serif" font-size="11.00" fill="#000000">fec_modificacion</text>
<polygon fill="none" stroke="#000000" points="8.5,-318.2 8.5,-340.2 131.5,-340.2 131.5,-318.2 8.5,-318.2"/>
<text text-anchor="start" x="28.5" y="-325.3" font-family="Helvetica,sans-Serif" font-size="11.00" fill="#000000">usu_modificacion</text>
<polygon fill="#ffffff" stroke="transparent" points="8.5,-299.2 8.5,-318.2 46.5,-318.2 46.5,-299.2 8.5,-299.2"/>
<polygon fill="none" stroke="#000000" points="8.5,-299.2 8.5,-318.2 46.5,-318.2 46.5,-299.2 8.5,-299.2"/>
<text text-anchor="start" x="11.5" y="-305.3" font-family="Helvetica,sans-Serif" font-size="11.00" fill="#000000"> &#160;</text>
<polygon fill="#ffffff" stroke="transparent" points="46.5,-299.2 46.5,-318.2 97.5,-318.2 97.5,-299.2 46.5,-299.2"/>
<polygon fill="none" stroke="#000000" points="46.5,-299.2 46.5,-318.2 97.5,-318.2 97.5,-299.2 46.5,-299.2"/>
<text text-anchor="start" x="62.1105" y="-305.3" font-family="Helvetica,sans-Serif" font-size="11.00" fill="#000000">0 rows</text>
<polygon fill="#ffffff" stroke="transparent" points="97.5,-299.2 97.5,-318.2 131.5,-318.2 131.5,-299.2 97.5,-299.2"/>
<polygon fill="none" stroke="#000000" points="97.5,-299.2 97.5,-318.2 131.5,-318.2 131.5,-299.2 97.5,-299.2"/>
<text text-anchor="start" x="112.9053" y="-305.3" font-family="Helvetica,sans-Serif" font-size="11.00" fill="#000000">1 &gt;</text>
</a>
</g>
</g>
<!-- empleados&#45;&gt;personas -->
<g id="edge1" class="edge">
<title>empleados:w&#45;&gt;personas:e</title>
<path fill="none" stroke="#000000" d="M166.5198,-388.662C135.0647,-408.3372 183.2575,-505.2 131.5,-505.2"/>
<polygon fill="#000000" stroke="#000000" points="172.7346,-387.123 181.3654,-388.6945 176.6173,-386.1615 180.5,-385.2 180.5,-385.2 180.5,-385.2 176.6173,-386.1615 179.6346,-381.7055 172.7346,-387.123 172.7346,-387.123"/>
<ellipse fill="none" stroke="#000000" cx="169.6284" cy="-387.8922" rx="3.2" ry="3.2"/>
</g>
<!-- usuarios -->
<g id="node3" class="node">
<title>usuarios</title>
<g id="a_node3"><a xlink:href="../../tables/usuarios.html" xlink:title="usuarios" target="_top">
<polygon fill="#ffffff" stroke="transparent" points="8,-38.2 8,-278.2 131,-278.2 131,-38.2 8,-38.2"/>
<polygon fill="#f5f5f5" stroke="transparent" points="8.5,-255.2 8.5,-278.2 131.5,-278.2 131.5,-255.2 8.5,-255.2"/>
<polygon fill="none" stroke="#000000" points="8.5,-255.2 8.5,-278.2 131.5,-278.2 131.5,-255.2 8.5,-255.2"/>
<text text-anchor="start" x="13.5" y="-264.3" font-family="Helvetica,sans-Serif" font-weight="bold" font-size="11.00" fill="#000000">usuarios</text>
<text text-anchor="start" x="96.5437" y="-263.3" font-family="Helvetica,sans-Serif" font-size="11.00" fill="#000000">[table]</text>
<polygon fill="none" stroke="#000000" points="8.5,-233.2 8.5,-255.2 131.5,-255.2 131.5,-233.2 8.5,-233.2"/>
<image xlink:href="../../images/primaryKeys.png" width="11px" height="12px" preserveAspectRatio="xMinYMin meet" x="13.5" y="-250.2"/>
<text text-anchor="start" x="28.5" y="-240.3" font-family="Helvetica,sans-Serif" font-size="11.00" fill="#000000">usuario_id</text>
<polygon fill="#ffffff" stroke="transparent" points="8.5,-211.2 8.5,-233.2 131.5,-233.2 131.5,-211.2 8.5,-211.2"/>
<polygon fill="none" stroke="#000000" points="8.5,-211.2 8.5,-233.2 131.5,-233.2 131.5,-211.2 8.5,-211.2"/>
<text text-anchor="start" x="28.5" y="-218.3" font-family="Helvetica,sans-Serif" font-size="11.00" fill="#000000">nom_usuario</text>
<polygon fill="none" stroke="#000000" points="8.5,-189.2 8.5,-211.2 131.5,-211.2 131.5,-189.2 8.5,-189.2"/>
<text text-anchor="start" x="28.5" y="-196.3" font-family="Helvetica,sans-Serif" font-size="11.00" fill="#000000">activo</text>
<polygon fill="none" stroke="#000000" points="8.5,-167.2 8.5,-189.2 131.5,-189.2 131.5,-167.2 8.5,-167.2"/>
<text text-anchor="start" x="28.5" y="-174.3" font-family="Helvetica,sans-Serif" font-size="11.00" fill="#000000">password</text>
<polygon fill="none" stroke="#000000" points="8.5,-145.2 8.5,-167.2 131.5,-167.2 131.5,-145.2 8.5,-145.2"/>
<text text-anchor="start" x="28.5" y="-152.3" font-family="Helvetica,sans-Serif" font-size="11.00" fill="#000000">email</text>
<polygon fill="none" stroke="#000000" points="8.5,-123.2 8.5,-145.2 131.5,-145.2 131.5,-123.2 8.5,-123.2"/>
<text text-anchor="start" x="28.5" y="-130.3" font-family="Helvetica,sans-Serif" font-size="11.00" fill="#000000">usu_insercion</text>
<polygon fill="none" stroke="#000000" points="8.5,-101.2 8.5,-123.2 131.5,-123.2 131.5,-101.2 8.5,-101.2"/>
<text text-anchor="start" x="28.5" y="-108.3" font-family="Helvetica,sans-Serif" font-size="11.00" fill="#000000">fec_insercion</text>
<polygon fill="none" stroke="#000000" points="8.5,-79.2 8.5,-101.2 131.5,-101.2 131.5,-79.2 8.5,-79.2"/>
<text text-anchor="start" x="28.5" y="-86.3" font-family="Helvetica,sans-Serif" font-size="11.00" fill="#000000">fec_modificacion</text>
<polygon fill="none" stroke="#000000" points="8.5,-57.2 8.5,-79.2 131.5,-79.2 131.5,-57.2 8.5,-57.2"/>
<text text-anchor="start" x="28.5" y="-64.3" font-family="Helvetica,sans-Serif" font-size="11.00" fill="#000000">usu_modificacion</text>
<polygon fill="#ffffff" stroke="transparent" points="8.5,-38.2 8.5,-57.2 49.5,-57.2 49.5,-38.2 8.5,-38.2"/>
<polygon fill="none" stroke="#000000" points="8.5,-38.2 8.5,-57.2 49.5,-57.2 49.5,-38.2 8.5,-38.2"/>
<text text-anchor="start" x="11.5" y="-44.3" font-family="Helvetica,sans-Serif" font-size="11.00" fill="#000000"> &#160;</text>
<polygon fill="#ffffff" stroke="transparent" points="49.5,-38.2 49.5,-57.2 95.5,-57.2 95.5,-38.2 49.5,-38.2"/>
<polygon fill="none" stroke="#000000" points="49.5,-38.2 49.5,-57.2 95.5,-57.2 95.5,-38.2 49.5,-38.2"/>
<text text-anchor="start" x="65.6105" y="-44.3" font-family="Helvetica,sans-Serif" font-size="11.00" fill="#000000">1 row</text>
<polygon fill="#ffffff" stroke="transparent" points="95.5,-38.2 95.5,-57.2 131.5,-57.2 131.5,-38.2 95.5,-38.2"/>
<polygon fill="none" stroke="#000000" points="95.5,-38.2 95.5,-57.2 131.5,-57.2 131.5,-38.2 95.5,-38.2"/>
<text text-anchor="start" x="112.9053" y="-44.3" font-family="Helvetica,sans-Serif" font-size="11.00" fill="#000000">1 &gt;</text>
</a>
</g>
</g>
<!-- empleados&#45;&gt;usuarios -->
<g id="edge2" class="edge">
<title>empleados:w&#45;&gt;usuarios:e</title>
<path fill="none" stroke="#000000" d="M166.2058,-359.5081C135.7333,-339.4222 182.6646,-244.2 131.5,-244.2"/>
<polygon fill="#000000" stroke="#000000" points="172.7542,-361.1994 179.5997,-366.6856 176.6271,-362.1997 180.5,-363.2 180.5,-363.2 180.5,-363.2 176.6271,-362.1997 181.4003,-359.7144 172.7542,-361.1994 172.7542,-361.1994"/>
<ellipse fill="none" stroke="#000000" cx="169.6559" cy="-360.3991" rx="3.2" ry="3.2"/>
</g>
</g>
</svg>
