<?xml version="1.0" encoding="UTF-8" standalone="no"?>
<!DOCTYPE svg PUBLIC "-//W3C//DTD SVG 1.1//EN"
 "http://www.w3.org/Graphics/SVG/1.1/DTD/svg11.dtd">
<!-- Generated by graphviz version 2.40.1 (20161225.0304)
 -->
<!-- Title: largeRelationshipsDiagram Pages: 1 -->
<svg width="491pt" height="1205pt"
 viewBox="0.00 0.00 491.00 1205.20" xmlns="http://www.w3.org/2000/svg" xmlns:xlink="http://www.w3.org/1999/xlink">
<g id="graph0" class="graph" transform="scale(1 1) rotate(0) translate(4 1201.2)">
<title>largeRelationshipsDiagram</title>
<polygon fill="#ffffff" stroke="transparent" points="-4,4 -4,-1201.2 487,-1201.2 487,4 -4,4"/>
<text text-anchor="middle" x="72.4936" y="-7.3" font-family="Helvetica,sans-Serif" font-size="11.00" fill="#000000">Generated by SchemaSpy</text>
<!-- campana_tipos -->
<g id="node1" class="node">
<title>campana_tipos</title>
<g id="a_node1"><a xlink:href="../../tables/campana_tipos.html" xlink:title="campana_tipos" target="_top">
<polygon fill="#ffffff" stroke="transparent" points="352,-82.2 352,-256.2 475,-256.2 475,-82.2 352,-82.2"/>
<polygon fill="#f5f5f5" stroke="transparent" points="352.5,-233.2 352.5,-256.2 475.5,-256.2 475.5,-233.2 352.5,-233.2"/>
<polygon fill="none" stroke="#000000" points="352.5,-233.2 352.5,-256.2 475.5,-256.2 475.5,-233.2 352.5,-233.2"/>
<text text-anchor="start" x="357.5" y="-242.3" font-family="Helvetica,sans-Serif" font-weight="bold" font-size="11.00" fill="#000000">campana_tipos</text>
<text text-anchor="start" x="440.5437" y="-241.3" font-family="Helvetica,sans-Serif" font-size="11.00" fill="#000000">[table]</text>
<polygon fill="none" stroke="#000000" points="352.5,-211.2 352.5,-233.2 475.5,-233.2 475.5,-211.2 352.5,-211.2"/>
<image xlink:href="../../images/foreignKeys.png" width="11px" height="12px" preserveAspectRatio="xMinYMin meet" x="357.5" y="-228.2"/>
<text text-anchor="start" x="372.5" y="-218.3" font-family="Helvetica,sans-Serif" font-size="11.00" fill="#000000">campana_id</text>
<polygon fill="none" stroke="#000000" points="352.5,-189.2 352.5,-211.2 475.5,-211.2 475.5,-189.2 352.5,-189.2"/>
<text text-anchor="start" x="372.5" y="-196.3" font-family="Helvetica,sans-Serif" font-size="11.00" fill="#000000">tip_campana_id</text>
<polygon fill="none" stroke="#000000" points="352.5,-167.2 352.5,-189.2 475.5,-189.2 475.5,-167.2 352.5,-167.2"/>
<text text-anchor="start" x="372.5" y="-174.3" font-family="Helvetica,sans-Serif" font-size="11.00" fill="#000000">usu_insercion</text>
<polygon fill="none" stroke="#000000" points="352.5,-145.2 352.5,-167.2 475.5,-167.2 475.5,-145.2 352.5,-145.2"/>
<text text-anchor="start" x="372.5" y="-152.3" font-family="Helvetica,sans-Serif" font-size="11.00" fill="#000000">fec_insercion</text>
<polygon fill="none" stroke="#000000" points="352.5,-123.2 352.5,-145.2 475.5,-145.2 475.5,-123.2 352.5,-123.2"/>
<text text-anchor="start" x="372.5" y="-130.3" font-family="Helvetica,sans-Serif" font-size="11.00" fill="#000000">fec_modificacion</text>
<polygon fill="none" stroke="#000000" points="352.5,-101.2 352.5,-123.2 475.5,-123.2 475.5,-101.2 352.5,-101.2"/>
<text text-anchor="start" x="372.5" y="-108.3" font-family="Helvetica,sans-Serif" font-size="11.00" fill="#000000">usu_modificacion</text>
<polygon fill="#ffffff" stroke="transparent" points="352.5,-82.2 352.5,-101.2 399.5,-101.2 399.5,-82.2 352.5,-82.2"/>
<polygon fill="none" stroke="#000000" points="352.5,-82.2 352.5,-101.2 399.5,-101.2 399.5,-82.2 352.5,-82.2"/>
<text text-anchor="start" x="355.5" y="-88.3" font-family="Helvetica,sans-Serif" font-size="11.00" fill="#000000">&lt; 1</text>
<polygon fill="#ffffff" stroke="transparent" points="399.5,-82.2 399.5,-101.2 450.5,-101.2 450.5,-82.2 399.5,-82.2"/>
<polygon fill="none" stroke="#000000" points="399.5,-82.2 399.5,-101.2 450.5,-101.2 450.5,-82.2 399.5,-82.2"/>
<text text-anchor="start" x="415.1105" y="-88.3" font-family="Helvetica,sans-Serif" font-size="11.00" fill="#000000">0 rows</text>
<polygon fill="#ffffff" stroke="transparent" points="450.5,-82.2 450.5,-101.2 475.5,-101.2 475.5,-82.2 450.5,-82.2"/>
<polygon fill="none" stroke="#000000" points="450.5,-82.2 450.5,-101.2 475.5,-101.2 475.5,-82.2 450.5,-82.2"/>
<text text-anchor="start" x="466.3862" y="-88.3" font-family="Helvetica,sans-Serif" font-size="11.00" fill="#000000"> &#160;</text>
</a>
</g>
</g>
<!-- campanas -->
<g id="node2" class="node">
<title>campanas</title>
<g id="a_node2"><a xlink:href="../../tables/campanas.html" xlink:title="campanas" target="_top">
<polygon fill="#ffffff" stroke="transparent" points="180,-38.2 180,-256.2 303,-256.2 303,-38.2 180,-38.2"/>
<polygon fill="#f5f5f5" stroke="transparent" points="180.5,-233.2 180.5,-256.2 303.5,-256.2 303.5,-233.2 180.5,-233.2"/>
<polygon fill="none" stroke="#000000" points="180.5,-233.2 180.5,-256.2 303.5,-256.2 303.5,-233.2 180.5,-233.2"/>
<text text-anchor="start" x="185.5" y="-242.3" font-family="Helvetica,sans-Serif" font-weight="bold" font-size="11.00" fill="#000000">campanas</text>
<text text-anchor="start" x="268.5437" y="-241.3" font-family="Helvetica,sans-Serif" font-size="11.00" fill="#000000">[table]</text>
<polygon fill="none" stroke="#000000" points="180.5,-211.2 180.5,-233.2 303.5,-233.2 303.5,-211.2 180.5,-211.2"/>
<image xlink:href="../../images/primaryKeys.png" width="11px" height="12px" preserveAspectRatio="xMinYMin meet" x="185.5" y="-228.2"/>
<text text-anchor="start" x="200.5" y="-218.3" font-family="Helvetica,sans-Serif" font-size="11.00" fill="#000000">campana_id</text>
<polygon fill="none" stroke="#000000" points="180.5,-189.2 180.5,-211.2 303.5,-211.2 303.5,-189.2 180.5,-189.2"/>
<text text-anchor="start" x="200.5" y="-196.3" font-family="Helvetica,sans-Serif" font-size="11.00" fill="#000000">nombre</text>
<polygon fill="none" stroke="#000000" points="180.5,-167.2 180.5,-189.2 303.5,-189.2 303.5,-167.2 180.5,-167.2"/>
<text text-anchor="start" x="200.5" y="-174.3" font-family="Helvetica,sans-Serif" font-size="11.00" fill="#000000">fec_inicio</text>
<polygon fill="none" stroke="#000000" points="180.5,-145.2 180.5,-167.2 303.5,-167.2 303.5,-145.2 180.5,-145.2"/>
<text text-anchor="start" x="200.5" y="-152.3" font-family="Helvetica,sans-Serif" font-size="11.00" fill="#000000">fec_fin</text>
<polygon fill="none" stroke="#000000" points="180.5,-123.2 180.5,-145.2 303.5,-145.2 303.5,-123.2 180.5,-123.2"/>
<text text-anchor="start" x="200.5" y="-130.3" font-family="Helvetica,sans-Serif" font-size="11.00" fill="#000000">usu_insercion</text>
<polygon fill="none" stroke="#000000" points="180.5,-101.2 180.5,-123.2 303.5,-123.2 303.5,-101.2 180.5,-101.2"/>
<text text-anchor="start" x="200.5" y="-108.3" font-family="Helvetica,sans-Serif" font-size="11.00" fill="#000000">fec_insercion</text>
<polygon fill="none" stroke="#000000" points="180.5,-79.2 180.5,-101.2 303.5,-101.2 303.5,-79.2 180.5,-79.2"/>
<text text-anchor="start" x="200.5" y="-86.3" font-family="Helvetica,sans-Serif" font-size="11.00" fill="#000000">fec_modificacion</text>
<polygon fill="none" stroke="#000000" points="180.5,-57.2 180.5,-79.2 303.5,-79.2 303.5,-57.2 180.5,-57.2"/>
<text text-anchor="start" x="200.5" y="-64.3" font-family="Helvetica,sans-Serif" font-size="11.00" fill="#000000">usu_modificacion</text>
<polygon fill="#ffffff" stroke="transparent" points="180.5,-38.2 180.5,-57.2 218.5,-57.2 218.5,-38.2 180.5,-38.2"/>
<polygon fill="none" stroke="#000000" points="180.5,-38.2 180.5,-57.2 218.5,-57.2 218.5,-38.2 180.5,-38.2"/>
<text text-anchor="start" x="183.5" y="-44.3" font-family="Helvetica,sans-Serif" font-size="11.00" fill="#000000"> &#160;</text>
<polygon fill="#ffffff" stroke="transparent" points="218.5,-38.2 218.5,-57.2 269.5,-57.2 269.5,-38.2 218.5,-38.2"/>
<polygon fill="none" stroke="#000000" points="218.5,-38.2 218.5,-57.2 269.5,-57.2 269.5,-38.2 218.5,-38.2"/>
<text text-anchor="start" x="234.1105" y="-44.3" font-family="Helvetica,sans-Serif" font-size="11.00" fill="#000000">4 rows</text>
<polygon fill="#ffffff" stroke="transparent" points="269.5,-38.2 269.5,-57.2 303.5,-57.2 303.5,-38.2 269.5,-38.2"/>
<polygon fill="none" stroke="#000000" points="269.5,-38.2 269.5,-57.2 303.5,-57.2 303.5,-38.2 269.5,-38.2"/>
<text text-anchor="start" x="284.9053" y="-44.3" font-family="Helvetica,sans-Serif" font-size="11.00" fill="#000000">1 &gt;</text>
</a>
</g>
</g>
<!-- campana_tipos&#45;&gt;campanas -->
<g id="edge1" class="edge">
<title>campana_tipos:w&#45;&gt;campanas:e</title>
<path fill="none" stroke="#000000" d="M337.9909,-222.2C326.6774,-222.2 319.4931,-222.2 303.5,-222.2"/>
<polygon fill="#000000" stroke="#000000" points="344.5,-222.2001 352.5,-225.8 348.5,-222.2 352.5,-222.2 352.5,-222.2 352.5,-222.2 348.5,-222.2 352.5,-218.6 344.5,-222.2001 344.5,-222.2001"/>
<ellipse fill="none" stroke="#000000" cx="341.3" cy="-222.2001" rx="3.2" ry="3.2"/>
</g>
<!-- ciudades -->
<g id="node3" class="node">
<title>ciudades</title>
<g id="a_node3"><a xlink:href="../../tables/ciudades.html" xlink:title="ciudades" target="_top">
<polygon fill="#ffffff" stroke="transparent" points="180,-277.2 180,-473.2 303,-473.2 303,-277.2 180,-277.2"/>
<polygon fill="#f5f5f5" stroke="transparent" points="180.5,-450.2 180.5,-473.2 303.5,-473.2 303.5,-450.2 180.5,-450.2"/>
<polygon fill="none" stroke="#000000" points="180.5,-450.2 180.5,-473.2 303.5,-473.2 303.5,-450.2 180.5,-450.2"/>
<text text-anchor="start" x="185.5" y="-459.3" font-family="Helvetica,sans-Serif" font-weight="bold" font-size="11.00" fill="#000000">ciudades</text>
<text text-anchor="start" x="268.5437" y="-458.3" font-family="Helvetica,sans-Serif" font-size="11.00" fill="#000000">[table]</text>
<polygon fill="none" stroke="#000000" points="180.5,-428.2 180.5,-450.2 303.5,-450.2 303.5,-428.2 180.5,-428.2"/>
<image xlink:href="../../images/primaryKeys.png" width="11px" height="12px" preserveAspectRatio="xMinYMin meet" x="185.5" y="-445.2"/>
<text text-anchor="start" x="200.5" y="-435.3" font-family="Helvetica,sans-Serif" font-size="11.00" fill="#000000">ciudad_id</text>
<polygon fill="none" stroke="#000000" points="180.5,-406.2 180.5,-428.2 303.5,-428.2 303.5,-406.2 180.5,-406.2"/>
<text text-anchor="start" x="200.5" y="-413.3" font-family="Helvetica,sans-Serif" font-size="11.00" fill="#000000">nombre</text>
<polygon fill="none" stroke="#000000" points="180.5,-384.2 180.5,-406.2 303.5,-406.2 303.5,-384.2 180.5,-384.2"/>
<image xlink:href="../../images/foreignKeys.png" width="11px" height="12px" preserveAspectRatio="xMinYMin meet" x="185.5" y="-401.2"/>
<text text-anchor="start" x="200.5" y="-391.3" font-family="Helvetica,sans-Serif" font-size="11.00" fill="#000000">pais_id</text>
<polygon fill="none" stroke="#000000" points="180.5,-362.2 180.5,-384.2 303.5,-384.2 303.5,-362.2 180.5,-362.2"/>
<text text-anchor="start" x="200.5" y="-369.3" font-family="Helvetica,sans-Serif" font-size="11.00" fill="#000000">usu_insercion</text>
<polygon fill="none" stroke="#000000" points="180.5,-340.2 180.5,-362.2 303.5,-362.2 303.5,-340.2 180.5,-340.2"/>
<text text-anchor="start" x="200.5" y="-347.3" font-family="Helvetica,sans-Serif" font-size="11.00" fill="#000000">fec_insercion</text>
<polygon fill="none" stroke="#000000" points="180.5,-318.2 180.5,-340.2 303.5,-340.2 303.5,-318.2 180.5,-318.2"/>
<text text-anchor="start" x="200.5" y="-325.3" font-family="Helvetica,sans-Serif" font-size="11.00" fill="#000000">fec_modificacion</text>
<polygon fill="none" stroke="#000000" points="180.5,-296.2 180.5,-318.2 303.5,-318.2 303.5,-296.2 180.5,-296.2"/>
<text text-anchor="start" x="200.5" y="-303.3" font-family="Helvetica,sans-Serif" font-size="11.00" fill="#000000">usu_modificacion</text>
<polygon fill="#ffffff" stroke="transparent" points="180.5,-277.2 180.5,-296.2 222.5,-296.2 222.5,-277.2 180.5,-277.2"/>
<polygon fill="none" stroke="#000000" points="180.5,-277.2 180.5,-296.2 222.5,-296.2 222.5,-277.2 180.5,-277.2"/>
<text text-anchor="start" x="183.5" y="-283.3" font-family="Helvetica,sans-Serif" font-size="11.00" fill="#000000">&lt; 1</text>
<polygon fill="#ffffff" stroke="transparent" points="222.5,-277.2 222.5,-296.2 271.5,-296.2 271.5,-277.2 222.5,-277.2"/>
<polygon fill="none" stroke="#000000" points="222.5,-277.2 222.5,-296.2 271.5,-296.2 271.5,-277.2 222.5,-277.2"/>
<text text-anchor="start" x="236.1105" y="-283.3" font-family="Helvetica,sans-Serif" font-size="11.00" fill="#000000">0 rows</text>
<polygon fill="#ffffff" stroke="transparent" points="271.5,-277.2 271.5,-296.2 303.5,-296.2 303.5,-277.2 271.5,-277.2"/>
<polygon fill="none" stroke="#000000" points="271.5,-277.2 271.5,-296.2 303.5,-296.2 303.5,-277.2 271.5,-277.2"/>
<text text-anchor="start" x="284.9053" y="-283.3" font-family="Helvetica,sans-Serif" font-size="11.00" fill="#000000">1 &gt;</text>
</a>
</g>
</g>
<!-- paises -->
<g id="node7" class="node">
<title>paises</title>
<g id="a_node7"><a xlink:href="../../tables/paises.html" xlink:title="paises" target="_top">
<polygon fill="#ffffff" stroke="transparent" points="8,-211.2 8,-429.2 131,-429.2 131,-211.2 8,-211.2"/>
<polygon fill="#f5f5f5" stroke="transparent" points="8.5,-406.2 8.5,-429.2 131.5,-429.2 131.5,-406.2 8.5,-406.2"/>
<polygon fill="none" stroke="#000000" points="8.5,-406.2 8.5,-429.2 131.5,-429.2 131.5,-406.2 8.5,-406.2"/>
<text text-anchor="start" x="13.5" y="-415.3" font-family="Helvetica,sans-Serif" font-weight="bold" font-size="11.00" fill="#000000">paises</text>
<text text-anchor="start" x="96.5437" y="-414.3" font-family="Helvetica,sans-Serif" font-size="11.00" fill="#000000">[table]</text>
<polygon fill="none" stroke="#000000" points="8.5,-384.2 8.5,-406.2 131.5,-406.2 131.5,-384.2 8.5,-384.2"/>
<image xlink:href="../../images/primaryKeys.png" width="11px" height="12px" preserveAspectRatio="xMinYMin meet" x="13.5" y="-401.2"/>
<text text-anchor="start" x="28.5" y="-391.3" font-family="Helvetica,sans-Serif" font-size="11.00" fill="#000000">pais_id</text>
<polygon fill="none" stroke="#000000" points="8.5,-362.2 8.5,-384.2 131.5,-384.2 131.5,-362.2 8.5,-362.2"/>
<text text-anchor="start" x="28.5" y="-369.3" font-family="Helvetica,sans-Serif" font-size="11.00" fill="#000000">nombre</text>
<polygon fill="none" stroke="#000000" points="8.5,-340.2 8.5,-362.2 131.5,-362.2 131.5,-340.2 8.5,-340.2"/>
<text text-anchor="start" x="28.5" y="-347.3" font-family="Helvetica,sans-Serif" font-size="11.00" fill="#000000">nom_corto</text>
<polygon fill="none" stroke="#000000" points="8.5,-318.2 8.5,-340.2 131.5,-340.2 131.5,-318.2 8.5,-318.2"/>
<text text-anchor="start" x="28.5" y="-325.3" font-family="Helvetica,sans-Serif" font-size="11.00" fill="#000000">cod_telefono</text>
<polygon fill="none" stroke="#000000" points="8.5,-296.2 8.5,-318.2 131.5,-318.2 131.5,-296.2 8.5,-296.2"/>
<text text-anchor="start" x="28.5" y="-303.3" font-family="Helvetica,sans-Serif" font-size="11.00" fill="#000000">usu_insercion</text>
<polygon fill="none" stroke="#000000" points="8.5,-274.2 8.5,-296.2 131.5,-296.2 131.5,-274.2 8.5,-274.2"/>
<text text-anchor="start" x="28.5" y="-281.3" font-family="Helvetica,sans-Serif" font-size="11.00" fill="#000000">fec_insercion</text>
<polygon fill="none" stroke="#000000" points="8.5,-252.2 8.5,-274.2 131.5,-274.2 131.5,-252.2 8.5,-252.2"/>
<text text-anchor="start" x="28.5" y="-259.3" font-family="Helvetica,sans-Serif" font-size="11.00" fill="#000000">fec_modificacion</text>
<polygon fill="none" stroke="#000000" points="8.5,-230.2 8.5,-252.2 131.5,-252.2 131.5,-230.2 8.5,-230.2"/>
<text text-anchor="start" x="28.5" y="-237.3" font-family="Helvetica,sans-Serif" font-size="11.00" fill="#000000">usu_modificacion</text>
<polygon fill="#ffffff" stroke="transparent" points="8.5,-211.2 8.5,-230.2 46.5,-230.2 46.5,-211.2 8.5,-211.2"/>
<polygon fill="none" stroke="#000000" points="8.5,-211.2 8.5,-230.2 46.5,-230.2 46.5,-211.2 8.5,-211.2"/>
<text text-anchor="start" x="11.5" y="-217.3" font-family="Helvetica,sans-Serif" font-size="11.00" fill="#000000"> &#160;</text>
<polygon fill="#ffffff" stroke="transparent" points="46.5,-211.2 46.5,-230.2 97.5,-230.2 97.5,-211.2 46.5,-211.2"/>
<polygon fill="none" stroke="#000000" points="46.5,-211.2 46.5,-230.2 97.5,-230.2 97.5,-211.2 46.5,-211.2"/>
<text text-anchor="start" x="62.1105" y="-217.3" font-family="Helvetica,sans-Serif" font-size="11.00" fill="#000000">0 rows</text>
<polygon fill="#ffffff" stroke="transparent" points="97.5,-211.2 97.5,-230.2 131.5,-230.2 131.5,-211.2 97.5,-211.2"/>
<polygon fill="none" stroke="#000000" points="97.5,-211.2 97.5,-230.2 131.5,-230.2 131.5,-211.2 97.5,-211.2"/>
<text text-anchor="start" x="112.9053" y="-217.3" font-family="Helvetica,sans-Serif" font-size="11.00" fill="#000000">1 &gt;</text>
</a>
</g>
</g>
<!-- ciudades&#45;&gt;paises -->
<g id="edge2" class="edge">
<title>ciudades:w&#45;&gt;paises:e</title>
<path fill="none" stroke="#000000" d="M165.9909,-395.2C154.6774,-395.2 147.4931,-395.2 131.5,-395.2"/>
<polygon fill="#000000" stroke="#000000" points="172.5,-395.2001 180.5,-398.8 176.5,-395.2 180.5,-395.2 180.5,-395.2 180.5,-395.2 176.5,-395.2 180.5,-391.6 172.5,-395.2001 172.5,-395.2001"/>
<ellipse fill="none" stroke="#000000" cx="169.3" cy="-395.2001" rx="3.2" ry="3.2"/>
</g>
<!-- direcciones -->
<g id="node4" class="node">
<title>direcciones</title>
<g id="a_node4"><a xlink:href="../../tables/direcciones.html" xlink:title="direcciones" target="_top">
<polygon fill="#ffffff" stroke="transparent" points="352,-299.2 352,-649.2 475,-649.2 475,-299.2 352,-299.2"/>
<polygon fill="#f5f5f5" stroke="transparent" points="352.5,-626.2 352.5,-649.2 475.5,-649.2 475.5,-626.2 352.5,-626.2"/>
<polygon fill="none" stroke="#000000" points="352.5,-626.2 352.5,-649.2 475.5,-649.2 475.5,-626.2 352.5,-626.2"/>
<text text-anchor="start" x="357.5" y="-635.3" font-family="Helvetica,sans-Serif" font-weight="bold" font-size="11.00" fill="#000000">direcciones</text>
<text text-anchor="start" x="440.5437" y="-634.3" font-family="Helvetica,sans-Serif" font-size="11.00" fill="#000000">[table]</text>
<polygon fill="none" stroke="#000000" points="352.5,-604.2 352.5,-626.2 475.5,-626.2 475.5,-604.2 352.5,-604.2"/>
<image xlink:href="../../images/primaryKeys.png" width="11px" height="12px" preserveAspectRatio="xMinYMin meet" x="357.5" y="-621.2"/>
<text text-anchor="start" x="372.5" y="-611.3" font-family="Helvetica,sans-Serif" font-size="11.00" fill="#000000">direccion_id</text>
<polygon fill="none" stroke="#000000" points="352.5,-582.2 352.5,-604.2 475.5,-604.2 475.5,-582.2 352.5,-582.2"/>
<text text-anchor="start" x="372.5" y="-589.3" font-family="Helvetica,sans-Serif" font-size="11.00" fill="#000000">calle_1</text>
<polygon fill="none" stroke="#000000" points="352.5,-560.2 352.5,-582.2 475.5,-582.2 475.5,-560.2 352.5,-560.2"/>
<text text-anchor="start" x="372.5" y="-567.3" font-family="Helvetica,sans-Serif" font-size="11.00" fill="#000000">calle_2</text>
<polygon fill="none" stroke="#000000" points="352.5,-538.2 352.5,-560.2 475.5,-560.2 475.5,-538.2 352.5,-538.2"/>
<text text-anchor="start" x="372.5" y="-545.3" font-family="Helvetica,sans-Serif" font-size="11.00" fill="#000000">referencia_id</text>
<polygon fill="none" stroke="#000000" points="352.5,-516.2 352.5,-538.2 475.5,-538.2 475.5,-516.2 352.5,-516.2"/>
<text text-anchor="start" x="372.5" y="-523.3" font-family="Helvetica,sans-Serif" font-size="11.00" fill="#000000">cod_postal</text>
<polygon fill="none" stroke="#000000" points="352.5,-494.2 352.5,-516.2 475.5,-516.2 475.5,-494.2 352.5,-494.2"/>
<text text-anchor="start" x="372.5" y="-501.3" font-family="Helvetica,sans-Serif" font-size="11.00" fill="#000000">tip_referencia</text>
<polygon fill="none" stroke="#000000" points="352.5,-472.2 352.5,-494.2 475.5,-494.2 475.5,-472.2 352.5,-472.2"/>
<text text-anchor="start" x="372.5" y="-479.3" font-family="Helvetica,sans-Serif" font-size="11.00" fill="#000000">tipo</text>
<polygon fill="none" stroke="#000000" points="352.5,-450.2 352.5,-472.2 475.5,-472.2 475.5,-450.2 352.5,-450.2"/>
<text text-anchor="start" x="372.5" y="-457.3" font-family="Helvetica,sans-Serif" font-size="11.00" fill="#000000">referencia</text>
<polygon fill="none" stroke="#000000" points="352.5,-428.2 352.5,-450.2 475.5,-450.2 475.5,-428.2 352.5,-428.2"/>
<image xlink:href="../../images/foreignKeys.png" width="11px" height="12px" preserveAspectRatio="xMinYMin meet" x="357.5" y="-445.2"/>
<text text-anchor="start" x="372.5" y="-435.3" font-family="Helvetica,sans-Serif" font-size="11.00" fill="#000000">ciudad_id</text>
<polygon fill="none" stroke="#000000" points="352.5,-406.2 352.5,-428.2 475.5,-428.2 475.5,-406.2 352.5,-406.2"/>
<text text-anchor="start" x="372.5" y="-413.3" font-family="Helvetica,sans-Serif" font-size="11.00" fill="#000000">principal</text>
<polygon fill="none" stroke="#000000" points="352.5,-384.2 352.5,-406.2 475.5,-406.2 475.5,-384.2 352.5,-384.2"/>
<text text-anchor="start" x="372.5" y="-391.3" font-family="Helvetica,sans-Serif" font-size="11.00" fill="#000000">usu_insercion</text>
<polygon fill="none" stroke="#000000" points="352.5,-362.2 352.5,-384.2 475.5,-384.2 475.5,-362.2 352.5,-362.2"/>
<text text-anchor="start" x="372.5" y="-369.3" font-family="Helvetica,sans-Serif" font-size="11.00" fill="#000000">fec_insercion</text>
<polygon fill="none" stroke="#000000" points="352.5,-340.2 352.5,-362.2 475.5,-362.2 475.5,-340.2 352.5,-340.2"/>
<text text-anchor="start" x="372.5" y="-347.3" font-family="Helvetica,sans-Serif" font-size="11.00" fill="#000000">fec_modificacion</text>
<polygon fill="none" stroke="#000000" points="352.5,-318.2 352.5,-340.2 475.5,-340.2 475.5,-318.2 352.5,-318.2"/>
<text text-anchor="start" x="372.5" y="-325.3" font-family="Helvetica,sans-Serif" font-size="11.00" fill="#000000">usu_modificacion</text>
<polygon fill="#ffffff" stroke="transparent" points="352.5,-299.2 352.5,-318.2 399.5,-318.2 399.5,-299.2 352.5,-299.2"/>
<polygon fill="none" stroke="#000000" points="352.5,-299.2 352.5,-318.2 399.5,-318.2 399.5,-299.2 352.5,-299.2"/>
<text text-anchor="start" x="355.5" y="-305.3" font-family="Helvetica,sans-Serif" font-size="11.00" fill="#000000">&lt; 1</text>
<polygon fill="#ffffff" stroke="transparent" points="399.5,-299.2 399.5,-318.2 450.5,-318.2 450.5,-299.2 399.5,-299.2"/>
<polygon fill="none" stroke="#000000" points="399.5,-299.2 399.5,-318.2 450.5,-318.2 450.5,-299.2 399.5,-299.2"/>
<text text-anchor="start" x="415.1105" y="-305.3" font-family="Helvetica,sans-Serif" font-size="11.00" fill="#000000">0 rows</text>
<polygon fill="#ffffff" stroke="transparent" points="450.5,-299.2 450.5,-318.2 475.5,-318.2 475.5,-299.2 450.5,-299.2"/>
<polygon fill="none" stroke="#000000" points="450.5,-299.2 450.5,-318.2 475.5,-318.2 475.5,-299.2 450.5,-299.2"/>
<text text-anchor="start" x="466.3862" y="-305.3" font-family="Helvetica,sans-Serif" font-size="11.00" fill="#000000"> &#160;</text>
</a>
</g>
</g>
<!-- direcciones&#45;&gt;ciudades -->
<g id="edge3" class="edge">
<title>direcciones:w&#45;&gt;ciudades:e</title>
<path fill="none" stroke="#000000" d="M337.9909,-439.2C326.6774,-439.2 319.4931,-439.2 303.5,-439.2"/>
<polygon fill="#000000" stroke="#000000" points="344.5,-439.2001 352.5,-442.8 348.5,-439.2 352.5,-439.2 352.5,-439.2 352.5,-439.2 348.5,-439.2 352.5,-435.6 344.5,-439.2001 344.5,-439.2001"/>
<ellipse fill="none" stroke="#000000" cx="341.3" cy="-439.2001" rx="3.2" ry="3.2"/>
</g>
<!-- empleados -->
<g id="node5" class="node">
<title>empleados</title>
<g id="a_node5"><a xlink:href="../../tables/empleados.html" xlink:title="empleados" target="_top">
<polygon fill="#ffffff" stroke="transparent" points="352,-975.2 352,-1193.2 475,-1193.2 475,-975.2 352,-975.2"/>
<polygon fill="#f5f5f5" stroke="transparent" points="352.5,-1170.2 352.5,-1193.2 475.5,-1193.2 475.5,-1170.2 352.5,-1170.2"/>
<polygon fill="none" stroke="#000000" points="352.5,-1170.2 352.5,-1193.2 475.5,-1193.2 475.5,-1170.2 352.5,-1170.2"/>
<text text-anchor="start" x="357.5" y="-1179.3" font-family="Helvetica,sans-Serif" font-weight="bold" font-size="11.00" fill="#000000">empleados</text>
<text text-anchor="start" x="440.5437" y="-1178.3" font-family="Helvetica,sans-Serif" font-size="11.00" fill="#000000">[table]</text>
<polygon fill="none" stroke="#000000" points="352.5,-1148.2 352.5,-1170.2 475.5,-1170.2 475.5,-1148.2 352.5,-1148.2"/>
<image xlink:href="../../images/primaryKeys.png" width="11px" height="12px" preserveAspectRatio="xMinYMin meet" x="357.5" y="-1165.2"/>
<text text-anchor="start" x="372.5" y="-1155.3" font-family="Helvetica,sans-Serif" font-size="11.00" fill="#000000">empleado_id</text>
<polygon fill="none" stroke="#000000" points="352.5,-1126.2 352.5,-1148.2 475.5,-1148.2 475.5,-1126.2 352.5,-1126.2"/>
<image xlink:href="../../images/foreignKeys.png" width="11px" height="12px" preserveAspectRatio="xMinYMin meet" x="357.5" y="-1143.2"/>
<text text-anchor="start" x="372.5" y="-1133.3" font-family="Helvetica,sans-Serif" font-size="11.00" fill="#000000">persona_id</text>
<polygon fill="none" stroke="#000000" points="352.5,-1104.2 352.5,-1126.2 475.5,-1126.2 475.5,-1104.2 352.5,-1104.2"/>
<image xlink:href="../../images/foreignKeys.png" width="11px" height="12px" preserveAspectRatio="xMinYMin meet" x="357.5" y="-1121.2"/>
<text text-anchor="start" x="372.5" y="-1111.3" font-family="Helvetica,sans-Serif" font-size="11.00" fill="#000000">usuario_id</text>
<polygon fill="none" stroke="#000000" points="352.5,-1082.2 352.5,-1104.2 475.5,-1104.2 475.5,-1082.2 352.5,-1082.2"/>
<text text-anchor="start" x="372.5" y="-1089.3" font-family="Helvetica,sans-Serif" font-size="11.00" fill="#000000">activo</text>
<polygon fill="none" stroke="#000000" points="352.5,-1060.2 352.5,-1082.2 475.5,-1082.2 475.5,-1060.2 352.5,-1060.2"/>
<text text-anchor="start" x="372.5" y="-1067.3" font-family="Helvetica,sans-Serif" font-size="11.00" fill="#000000">usu_insercion</text>
<polygon fill="none" stroke="#000000" points="352.5,-1038.2 352.5,-1060.2 475.5,-1060.2 475.5,-1038.2 352.5,-1038.2"/>
<text text-anchor="start" x="372.5" y="-1045.3" font-family="Helvetica,sans-Serif" font-size="11.00" fill="#000000">fec_insercion</text>
<polygon fill="none" stroke="#000000" points="352.5,-1016.2 352.5,-1038.2 475.5,-1038.2 475.5,-1016.2 352.5,-1016.2"/>
<text text-anchor="start" x="372.5" y="-1023.3" font-family="Helvetica,sans-Serif" font-size="11.00" fill="#000000">fec_modificacion</text>
<polygon fill="none" stroke="#000000" points="352.5,-994.2 352.5,-1016.2 475.5,-1016.2 475.5,-994.2 352.5,-994.2"/>
<text text-anchor="start" x="372.5" y="-1001.3" font-family="Helvetica,sans-Serif" font-size="11.00" fill="#000000">usu_modificacion</text>
<polygon fill="#ffffff" stroke="transparent" points="352.5,-975.2 352.5,-994.2 399.5,-994.2 399.5,-975.2 352.5,-975.2"/>
<polygon fill="none" stroke="#000000" points="352.5,-975.2 352.5,-994.2 399.5,-994.2 399.5,-975.2 352.5,-975.2"/>
<text text-anchor="start" x="355.5" y="-981.3" font-family="Helvetica,sans-Serif" font-size="11.00" fill="#000000">&lt; 2</text>
<polygon fill="#ffffff" stroke="transparent" points="399.5,-975.2 399.5,-994.2 450.5,-994.2 450.5,-975.2 399.5,-975.2"/>
<polygon fill="none" stroke="#000000" points="399.5,-975.2 399.5,-994.2 450.5,-994.2 450.5,-975.2 399.5,-975.2"/>
<text text-anchor="start" x="415.1105" y="-981.3" font-family="Helvetica,sans-Serif" font-size="11.00" fill="#000000">0 rows</text>
<polygon fill="#ffffff" stroke="transparent" points="450.5,-975.2 450.5,-994.2 475.5,-994.2 475.5,-975.2 450.5,-975.2"/>
<polygon fill="none" stroke="#000000" points="450.5,-975.2 450.5,-994.2 475.5,-994.2 475.5,-975.2 450.5,-975.2"/>
<text text-anchor="start" x="466.3862" y="-981.3" font-family="Helvetica,sans-Serif" font-size="11.00" fill="#000000"> &#160;</text>
</a>
</g>
</g>
<!-- personas -->
<g id="node8" class="node">
<title>personas</title>
<g id="a_node8"><a xlink:href="../../tables/personas.html" xlink:title="personas" target="_top">
<polygon fill="#ffffff" stroke="transparent" points="180,-626.2 180,-866.2 303,-866.2 303,-626.2 180,-626.2"/>
<polygon fill="#f5f5f5" stroke="transparent" points="180.5,-843.2 180.5,-866.2 303.5,-866.2 303.5,-843.2 180.5,-843.2"/>
<polygon fill="none" stroke="#000000" points="180.5,-843.2 180.5,-866.2 303.5,-866.2 303.5,-843.2 180.5,-843.2"/>
<text text-anchor="start" x="185.5" y="-852.3" font-family="Helvetica,sans-Serif" font-weight="bold" font-size="11.00" fill="#000000">personas</text>
<text text-anchor="start" x="268.5437" y="-851.3" font-family="Helvetica,sans-Serif" font-size="11.00" fill="#000000">[table]</text>
<polygon fill="none" stroke="#000000" points="180.5,-821.2 180.5,-843.2 303.5,-843.2 303.5,-821.2 180.5,-821.2"/>
<image xlink:href="../../images/primaryKeys.png" width="11px" height="12px" preserveAspectRatio="xMinYMin meet" x="185.5" y="-838.2"/>
<text text-anchor="start" x="200.5" y="-828.3" font-family="Helvetica,sans-Serif" font-size="11.00" fill="#000000">persona_id</text>
<polygon fill="none" stroke="#000000" points="180.5,-799.2 180.5,-821.2 303.5,-821.2 303.5,-799.2 180.5,-799.2"/>
<text text-anchor="start" x="200.5" y="-806.3" font-family="Helvetica,sans-Serif" font-size="11.00" fill="#000000">nombre</text>
<polygon fill="none" stroke="#000000" points="180.5,-777.2 180.5,-799.2 303.5,-799.2 303.5,-777.2 180.5,-777.2"/>
<text text-anchor="start" x="200.5" y="-784.3" font-family="Helvetica,sans-Serif" font-size="11.00" fill="#000000">email</text>
<polygon fill="none" stroke="#000000" points="180.5,-755.2 180.5,-777.2 303.5,-777.2 303.5,-755.2 180.5,-755.2"/>
<text text-anchor="start" x="200.5" y="-762.3" font-family="Helvetica,sans-Serif" font-size="11.00" fill="#000000">nro_documento</text>
<polygon fill="none" stroke="#000000" points="180.5,-733.2 180.5,-755.2 303.5,-755.2 303.5,-733.2 180.5,-733.2"/>
<text text-anchor="start" x="200.5" y="-740.3" font-family="Helvetica,sans-Serif" font-size="11.00" fill="#000000">tip_documento</text>
<polygon fill="none" stroke="#000000" points="180.5,-711.2 180.5,-733.2 303.5,-733.2 303.5,-711.2 180.5,-711.2"/>
<text text-anchor="start" x="200.5" y="-718.3" font-family="Helvetica,sans-Serif" font-size="11.00" fill="#000000">usu_insercion</text>
<polygon fill="none" stroke="#000000" points="180.5,-689.2 180.5,-711.2 303.5,-711.2 303.5,-689.2 180.5,-689.2"/>
<text text-anchor="start" x="200.5" y="-696.3" font-family="Helvetica,sans-Serif" font-size="11.00" fill="#000000">fec_insercion</text>
<polygon fill="none" stroke="#000000" points="180.5,-667.2 180.5,-689.2 303.5,-689.2 303.5,-667.2 180.5,-667.2"/>
<text text-anchor="start" x="200.5" y="-674.3" font-family="Helvetica,sans-Serif" font-size="11.00" fill="#000000">fec_modificacion</text>
<polygon fill="none" stroke="#000000" points="180.5,-645.2 180.5,-667.2 303.5,-667.2 303.5,-645.2 180.5,-645.2"/>
<text text-anchor="start" x="200.5" y="-652.3" font-family="Helvetica,sans-Serif" font-size="11.00" fill="#000000">usu_modificacion</text>
<polygon fill="#ffffff" stroke="transparent" points="180.5,-626.2 180.5,-645.2 215.5,-645.2 215.5,-626.2 180.5,-626.2"/>
<polygon fill="none" stroke="#000000" points="180.5,-626.2 180.5,-645.2 215.5,-645.2 215.5,-626.2 180.5,-626.2"/>
<text text-anchor="start" x="183.5" y="-632.3" font-family="Helvetica,sans-Serif" font-size="11.00" fill="#000000"> &#160;</text>
<polygon fill="#ffffff" stroke="transparent" points="215.5,-626.2 215.5,-645.2 270.5,-645.2 270.5,-626.2 215.5,-626.2"/>
<polygon fill="none" stroke="#000000" points="215.5,-626.2 215.5,-645.2 270.5,-645.2 270.5,-626.2 215.5,-626.2"/>
<text text-anchor="start" x="228.9956" y="-632.3" font-family="Helvetica,sans-Serif" font-size="11.00" fill="#000000">22 rows</text>
<polygon fill="#ffffff" stroke="transparent" points="270.5,-626.2 270.5,-645.2 303.5,-645.2 303.5,-626.2 270.5,-626.2"/>
<polygon fill="none" stroke="#000000" points="270.5,-626.2 270.5,-645.2 303.5,-645.2 303.5,-626.2 270.5,-626.2"/>
<text text-anchor="start" x="284.9053" y="-632.3" font-family="Helvetica,sans-Serif" font-size="11.00" fill="#000000">2 &gt;</text>
</a>
</g>
</g>
<!-- empleados&#45;&gt;personas -->
<g id="edge4" class="edge">
<title>empleados:w&#45;&gt;personas:e</title>
<path fill="none" stroke="#000000" d="M338.8666,-1131.6458C296.9875,-1090.3082 366.6498,-832.2 303.5,-832.2"/>
<polygon fill="#000000" stroke="#000000" points="345.0912,-1134.1817 351.1417,-1140.5339 348.7956,-1135.6908 352.5,-1137.2 352.5,-1137.2 352.5,-1137.2 348.7956,-1135.6908 353.8583,-1133.8661 345.0912,-1134.1817 345.0912,-1134.1817"/>
<ellipse fill="none" stroke="#000000" cx="342.1277" cy="-1132.9743" rx="3.2" ry="3.2"/>
</g>
<!-- usuarios -->
<g id="node9" class="node">
<title>usuarios</title>
<g id="a_node9"><a xlink:href="../../tables/usuarios.html" xlink:title="usuarios" target="_top">
<polygon fill="#ffffff" stroke="transparent" points="180,-898.2 180,-1138.2 303,-1138.2 303,-898.2 180,-898.2"/>
<polygon fill="#f5f5f5" stroke="transparent" points="180.5,-1115.2 180.5,-1138.2 303.5,-1138.2 303.5,-1115.2 180.5,-1115.2"/>
<polygon fill="none" stroke="#000000" points="180.5,-1115.2 180.5,-1138.2 303.5,-1138.2 303.5,-1115.2 180.5,-1115.2"/>
<text text-anchor="start" x="185.5" y="-1124.3" font-family="Helvetica,sans-Serif" font-weight="bold" font-size="11.00" fill="#000000">usuarios</text>
<text text-anchor="start" x="268.5437" y="-1123.3" font-family="Helvetica,sans-Serif" font-size="11.00" fill="#000000">[table]</text>
<polygon fill="none" stroke="#000000" points="180.5,-1093.2 180.5,-1115.2 303.5,-1115.2 303.5,-1093.2 180.5,-1093.2"/>
<image xlink:href="../../images/primaryKeys.png" width="11px" height="12px" preserveAspectRatio="xMinYMin meet" x="185.5" y="-1110.2"/>
<text text-anchor="start" x="200.5" y="-1100.3" font-family="Helvetica,sans-Serif" font-size="11.00" fill="#000000">usuario_id</text>
<polygon fill="#ffffff" stroke="transparent" points="180.5,-1071.2 180.5,-1093.2 303.5,-1093.2 303.5,-1071.2 180.5,-1071.2"/>
<polygon fill="none" stroke="#000000" points="180.5,-1071.2 180.5,-1093.2 303.5,-1093.2 303.5,-1071.2 180.5,-1071.2"/>
<text text-anchor="start" x="200.5" y="-1078.3" font-family="Helvetica,sans-Serif" font-size="11.00" fill="#000000">nom_usuario</text>
<polygon fill="none" stroke="#000000" points="180.5,-1049.2 180.5,-1071.2 303.5,-1071.2 303.5,-1049.2 180.5,-1049.2"/>
<text text-anchor="start" x="200.5" y="-1056.3" font-family="Helvetica,sans-Serif" font-size="11.00" fill="#000000">activo</text>
<polygon fill="none" stroke="#000000" points="180.5,-1027.2 180.5,-1049.2 303.5,-1049.2 303.5,-1027.2 180.5,-1027.2"/>
<text text-anchor="start" x="200.5" y="-1034.3" font-family="Helvetica,sans-Serif" font-size="11.00" fill="#000000">password</text>
<polygon fill="none" stroke="#000000" points="180.5,-1005.2 180.5,-1027.2 303.5,-1027.2 303.5,-1005.2 180.5,-1005.2"/>
<text text-anchor="start" x="200.5" y="-1012.3" font-family="Helvetica,sans-Serif" font-size="11.00" fill="#000000">email</text>
<polygon fill="none" stroke="#000000" points="180.5,-983.2 180.5,-1005.2 303.5,-1005.2 303.5,-983.2 180.5,-983.2"/>
<text text-anchor="start" x="200.5" y="-990.3" font-family="Helvetica,sans-Serif" font-size="11.00" fill="#000000">usu_insercion</text>
<polygon fill="none" stroke="#000000" points="180.5,-961.2 180.5,-983.2 303.5,-983.2 303.5,-961.2 180.5,-961.2"/>
<text text-anchor="start" x="200.5" y="-968.3" font-family="Helvetica,sans-Serif" font-size="11.00" fill="#000000">fec_insercion</text>
<polygon fill="none" stroke="#000000" points="180.5,-939.2 180.5,-961.2 303.5,-961.2 303.5,-939.2 180.5,-939.2"/>
<text text-anchor="start" x="200.5" y="-946.3" font-family="Helvetica,sans-Serif" font-size="11.00" fill="#000000">fec_modificacion</text>
<polygon fill="none" stroke="#000000" points="180.5,-917.2 180.5,-939.2 303.5,-939.2 303.5,-917.2 180.5,-917.2"/>
<text text-anchor="start" x="200.5" y="-924.3" font-family="Helvetica,sans-Serif" font-size="11.00" fill="#000000">usu_modificacion</text>
<polygon fill="#ffffff" stroke="transparent" points="180.5,-898.2 180.5,-917.2 218.5,-917.2 218.5,-898.2 180.5,-898.2"/>
<polygon fill="none" stroke="#000000" points="180.5,-898.2 180.5,-917.2 218.5,-917.2 218.5,-898.2 180.5,-898.2"/>
<text text-anchor="start" x="183.5" y="-904.3" font-family="Helvetica,sans-Serif" font-size="11.00" fill="#000000"> &#160;</text>
<polygon fill="#ffffff" stroke="transparent" points="218.5,-898.2 218.5,-917.2 269.5,-917.2 269.5,-898.2 218.5,-898.2"/>
<polygon fill="none" stroke="#000000" points="218.5,-898.2 218.5,-917.2 269.5,-917.2 269.5,-898.2 218.5,-898.2"/>
<text text-anchor="start" x="234.1105" y="-904.3" font-family="Helvetica,sans-Serif" font-size="11.00" fill="#000000">2 rows</text>
<polygon fill="#ffffff" stroke="transparent" points="269.5,-898.2 269.5,-917.2 303.5,-917.2 303.5,-898.2 269.5,-898.2"/>
<polygon fill="none" stroke="#000000" points="269.5,-898.2 269.5,-917.2 303.5,-917.2 303.5,-898.2 269.5,-898.2"/>
<text text-anchor="start" x="284.9053" y="-904.3" font-family="Helvetica,sans-Serif" font-size="11.00" fill="#000000">2 &gt;</text>
</a>
</g>
</g>
<!-- empleados&#45;&gt;usuarios -->
<g id="edge5" class="edge">
<title>empleados:w&#45;&gt;usuarios:e</title>
<path fill="none" stroke="#000000" d="M338.2027,-1113.3836C326.7382,-1110.2593 320.0655,-1104.2 303.5,-1104.2"/>
<polygon fill="#000000" stroke="#000000" points="344.5638,-1114.1917 352.0463,-1118.7713 348.5319,-1114.6958 352.5,-1115.2 352.5,-1115.2 352.5,-1115.2 348.5319,-1114.6958 352.9537,-1111.6287 344.5638,-1114.1917 344.5638,-1114.1917"/>
<ellipse fill="none" stroke="#000000" cx="341.3893" cy="-1113.7884" rx="3.2" ry="3.2"/>
</g>
<!-- leads -->
<g id="node6" class="node">
<title>leads</title>
<g id="a_node6"><a xlink:href="../../tables/leads.html" xlink:title="leads" target="_top">
<polygon fill="#ffffff" stroke="transparent" points="352,-670.2 352,-954.2 475,-954.2 475,-670.2 352,-670.2"/>
<polygon fill="#f5f5f5" stroke="transparent" points="352.5,-931.2 352.5,-954.2 475.5,-954.2 475.5,-931.2 352.5,-931.2"/>
<polygon fill="none" stroke="#000000" points="352.5,-931.2 352.5,-954.2 475.5,-954.2 475.5,-931.2 352.5,-931.2"/>
<text text-anchor="start" x="357.5" y="-940.3" font-family="Helvetica,sans-Serif" font-weight="bold" font-size="11.00" fill="#000000">leads</text>
<text text-anchor="start" x="440.5437" y="-939.3" font-family="Helvetica,sans-Serif" font-size="11.00" fill="#000000">[table]</text>
<polygon fill="none" stroke="#000000" points="352.5,-909.2 352.5,-931.2 475.5,-931.2 475.5,-909.2 352.5,-909.2"/>
<image xlink:href="../../images/primaryKeys.png" width="11px" height="12px" preserveAspectRatio="xMinYMin meet" x="357.5" y="-926.2"/>
<text text-anchor="start" x="372.5" y="-916.3" font-family="Helvetica,sans-Serif" font-size="11.00" fill="#000000">lead_id</text>
<polygon fill="none" stroke="#000000" points="352.5,-887.2 352.5,-909.2 475.5,-909.2 475.5,-887.2 352.5,-887.2"/>
<text text-anchor="start" x="372.5" y="-894.3" font-family="Helvetica,sans-Serif" font-size="11.00" fill="#000000">estado</text>
<polygon fill="none" stroke="#000000" points="352.5,-865.2 352.5,-887.2 475.5,-887.2 475.5,-865.2 352.5,-865.2"/>
<image xlink:href="../../images/foreignKeys.png" width="11px" height="12px" preserveAspectRatio="xMinYMin meet" x="357.5" y="-882.2"/>
<text text-anchor="start" x="372.5" y="-872.3" font-family="Helvetica,sans-Serif" font-size="11.00" fill="#000000">usu_asignado_id</text>
<polygon fill="none" stroke="#000000" points="352.5,-843.2 352.5,-865.2 475.5,-865.2 475.5,-843.2 352.5,-843.2"/>
<text text-anchor="start" x="372.5" y="-850.3" font-family="Helvetica,sans-Serif" font-size="11.00" fill="#000000">campana_id</text>
<polygon fill="none" stroke="#000000" points="352.5,-821.2 352.5,-843.2 475.5,-843.2 475.5,-821.2 352.5,-821.2"/>
<text text-anchor="start" x="372.5" y="-828.3" font-family="Helvetica,sans-Serif" font-size="11.00" fill="#000000">origen</text>
<polygon fill="none" stroke="#000000" points="352.5,-799.2 352.5,-821.2 475.5,-821.2 475.5,-799.2 352.5,-799.2"/>
<image xlink:href="../../images/foreignKeys.png" width="11px" height="12px" preserveAspectRatio="xMinYMin meet" x="357.5" y="-816.2"/>
<text text-anchor="start" x="372.5" y="-806.3" font-family="Helvetica,sans-Serif" font-size="11.00" fill="#000000">persona_id</text>
<polygon fill="none" stroke="#000000" points="352.5,-777.2 352.5,-799.2 475.5,-799.2 475.5,-777.2 352.5,-777.2"/>
<text text-anchor="start" x="372.5" y="-784.3" font-family="Helvetica,sans-Serif" font-size="11.00" fill="#000000">curso_id</text>
<polygon fill="none" stroke="#000000" points="352.5,-755.2 352.5,-777.2 475.5,-777.2 475.5,-755.2 352.5,-755.2"/>
<text text-anchor="start" x="372.5" y="-762.3" font-family="Helvetica,sans-Serif" font-size="11.00" fill="#000000">usu_insercion</text>
<polygon fill="none" stroke="#000000" points="352.5,-733.2 352.5,-755.2 475.5,-755.2 475.5,-733.2 352.5,-733.2"/>
<text text-anchor="start" x="372.5" y="-740.3" font-family="Helvetica,sans-Serif" font-size="11.00" fill="#000000">fec_insercion</text>
<polygon fill="none" stroke="#000000" points="352.5,-711.2 352.5,-733.2 475.5,-733.2 475.5,-711.2 352.5,-711.2"/>
<text text-anchor="start" x="372.5" y="-718.3" font-family="Helvetica,sans-Serif" font-size="11.00" fill="#000000">fec_modificacion</text>
<polygon fill="none" stroke="#000000" points="352.5,-689.2 352.5,-711.2 475.5,-711.2 475.5,-689.2 352.5,-689.2"/>
<text text-anchor="start" x="372.5" y="-696.3" font-family="Helvetica,sans-Serif" font-size="11.00" fill="#000000">usu_modificacion</text>
<polygon fill="#ffffff" stroke="transparent" points="352.5,-670.2 352.5,-689.2 399.5,-689.2 399.5,-670.2 352.5,-670.2"/>
<polygon fill="none" stroke="#000000" points="352.5,-670.2 352.5,-689.2 399.5,-689.2 399.5,-670.2 352.5,-670.2"/>
<text text-anchor="start" x="355.5" y="-676.3" font-family="Helvetica,sans-Serif" font-size="11.00" fill="#000000">&lt; 2</text>
<polygon fill="#ffffff" stroke="transparent" points="399.5,-670.2 399.5,-689.2 450.5,-689.2 450.5,-670.2 399.5,-670.2"/>
<polygon fill="none" stroke="#000000" points="399.5,-670.2 399.5,-689.2 450.5,-689.2 450.5,-670.2 399.5,-670.2"/>
<text text-anchor="start" x="415.1105" y="-676.3" font-family="Helvetica,sans-Serif" font-size="11.00" fill="#000000">0 rows</text>
<polygon fill="#ffffff" stroke="transparent" points="450.5,-670.2 450.5,-689.2 475.5,-689.2 475.5,-670.2 450.5,-670.2"/>
<polygon fill="none" stroke="#000000" points="450.5,-670.2 450.5,-689.2 475.5,-689.2 475.5,-670.2 450.5,-670.2"/>
<text text-anchor="start" x="466.3862" y="-676.3" font-family="Helvetica,sans-Serif" font-size="11.00" fill="#000000"> &#160;</text>
</a>
</g>
</g>
<!-- leads&#45;&gt;personas -->
<g id="edge6" class="edge">
<title>leads:w&#45;&gt;personas:e</title>
<path fill="none" stroke="#000000" d="M338.1297,-813.6375C326.5865,-819.825 321.4041,-832.2 303.5,-832.2"/>
<polygon fill="#000000" stroke="#000000" points="344.7195,-812.0612 353.3375,-813.7012 348.6098,-811.1306 352.5,-810.2 352.5,-810.2 352.5,-810.2 348.6098,-811.1306 351.6625,-806.6988 344.7195,-812.0612 344.7195,-812.0612"/>
<ellipse fill="none" stroke="#000000" cx="341.6073" cy="-812.8057" rx="3.2" ry="3.2"/>
</g>
<!-- leads&#45;&gt;usuarios -->
<g id="edge7" class="edge">
<title>leads:w&#45;&gt;usuarios:e</title>
<path fill="none" stroke="#000000" d="M338.2112,-878.0353C264.8196,-899.6128 401.6813,-1104.2 303.5,-1104.2"/>
<polygon fill="#000000" stroke="#000000" points="344.5652,-877.2192 352.9586,-879.7707 348.5326,-876.7096 352.5,-876.2 352.5,-876.2 352.5,-876.2 348.5326,-876.7096 352.0414,-872.6293 344.5652,-877.2192 344.5652,-877.2192"/>
<ellipse fill="none" stroke="#000000" cx="341.3913" cy="-877.6269" rx="3.2" ry="3.2"/>
</g>
</g>
</svg>
