<?xml version="1.0" encoding="UTF-8" standalone="no"?>
<!DOCTYPE svg PUBLIC "-//W3C//DTD SVG 1.1//EN"
 "http://www.w3.org/Graphics/SVG/1.1/DTD/svg11.dtd">
<!-- Generated by graphviz version 2.40.1 (20161225.0304)
 -->
<!-- Title: compactRelationshipsDiagram Pages: 1 -->
<svg width="281pt" height="155pt"
 viewBox="0.00 0.00 281.00 155.20" xmlns="http://www.w3.org/2000/svg" xmlns:xlink="http://www.w3.org/1999/xlink">
<g id="graph0" class="graph" transform="scale(1 1) rotate(0) translate(4 151.2)">
<title>compactRelationshipsDiagram</title>
<polygon fill="#ffffff" stroke="transparent" points="-4,4 -4,-151.2 277,-151.2 277,4 -4,4"/>
<text text-anchor="middle" x="72.4936" y="-7.3" font-family="Helvetica,sans-Serif" font-size="11.00" fill="#000000">Generated by SchemaSpy</text>
<!-- leads -->
<g id="node1" class="node">
<title>leads</title>
<g id="a_node1"><a xlink:href="../../tables/leads.html" xlink:title="leads" target="_top">
<polygon fill="#ffffff" stroke="transparent" points="180,-38.2 180,-143.2 265,-143.2 265,-38.2 180,-38.2"/>
<polygon fill="#f5f5f5" stroke="transparent" points="180.5,-119.7 180.5,-142.7 265.5,-142.7 265.5,-119.7 180.5,-119.7"/>
<polygon fill="none" stroke="#000000" points="180.5,-119.7 180.5,-142.7 265.5,-142.7 265.5,-119.7 180.5,-119.7"/>
<text text-anchor="start" x="185.5" y="-128.8" font-family="Helvetica,sans-Serif" font-weight="bold" font-size="11.00" fill="#000000">leads</text>
<text text-anchor="start" x="230.5437" y="-127.8" font-family="Helvetica,sans-Serif" font-size="11.00" fill="#000000">[table]</text>
<polygon fill="none" stroke="#000000" points="180.5,-97.7 180.5,-119.7 265.5,-119.7 265.5,-97.7 180.5,-97.7"/>
<image xlink:href="../../images/primaryKeys.png" width="11px" height="12px" preserveAspectRatio="xMinYMin meet" x="185.5" y="-114.7"/>
<text text-anchor="start" x="200.5" y="-104.8" font-family="Helvetica,sans-Serif" font-size="11.00" fill="#000000">lead_id</text>
<polygon fill="none" stroke="#000000" points="180.5,-75.7 180.5,-97.7 265.5,-97.7 265.5,-75.7 180.5,-75.7"/>
<image xlink:href="../../images/foreignKeys.png" width="11px" height="12px" preserveAspectRatio="xMinYMin meet" x="185.5" y="-92.7"/>
<text text-anchor="start" x="200.5" y="-82.8" font-family="Helvetica,sans-Serif" font-size="11.00" fill="#000000">persona_id</text>
<polygon fill="none" stroke="#000000" points="180.5,-56.7 180.5,-75.7 265.5,-75.7 265.5,-56.7 180.5,-56.7"/>
<text text-anchor="start" x="183.5" y="-62.8" font-family="Helvetica,sans-Serif" font-size="11.00" fill="#000000">...</text>
<polygon fill="#ffffff" stroke="transparent" points="180.5,-37.7 180.5,-56.7 208.5,-56.7 208.5,-37.7 180.5,-37.7"/>
<polygon fill="none" stroke="#000000" points="180.5,-37.7 180.5,-56.7 208.5,-56.7 208.5,-37.7 180.5,-37.7"/>
<text text-anchor="start" x="183.5" y="-43.8" font-family="Helvetica,sans-Serif" font-size="11.00" fill="#000000">&lt; 1</text>
<polygon fill="#ffffff" stroke="transparent" points="208.5,-37.7 208.5,-56.7 249.5,-56.7 249.5,-37.7 208.5,-37.7"/>
<polygon fill="none" stroke="#000000" points="208.5,-37.7 208.5,-56.7 249.5,-56.7 249.5,-37.7 208.5,-37.7"/>
<text text-anchor="start" x="214.1105" y="-43.8" font-family="Helvetica,sans-Serif" font-size="11.00" fill="#000000">0 rows</text>
<polygon fill="#ffffff" stroke="transparent" points="249.5,-37.7 249.5,-56.7 265.5,-56.7 265.5,-37.7 249.5,-37.7"/>
<polygon fill="none" stroke="#000000" points="249.5,-37.7 249.5,-56.7 265.5,-56.7 265.5,-37.7 249.5,-37.7"/>
<text text-anchor="start" x="256.3862" y="-43.8" font-family="Helvetica,sans-Serif" font-size="11.00" fill="#000000"> &#160;</text>
</a>
</g>
</g>
<!-- personas -->
<g id="node2" class="node">
<title>personas</title>
<g id="a_node2"><a xlink:href="../../tables/personas.html" xlink:title="personas" target="_top">
<polygon fill="#ffffff" stroke="transparent" points="8,-38.2 8,-121.2 131,-121.2 131,-38.2 8,-38.2"/>
<polygon fill="#f5f5f5" stroke="transparent" points="8.5,-97.7 8.5,-120.7 131.5,-120.7 131.5,-97.7 8.5,-97.7"/>
<polygon fill="none" stroke="#000000" points="8.5,-97.7 8.5,-120.7 131.5,-120.7 131.5,-97.7 8.5,-97.7"/>
<text text-anchor="start" x="13.5" y="-106.8" font-family="Helvetica,sans-Serif" font-weight="bold" font-size="11.00" fill="#000000">personas</text>
<text text-anchor="start" x="96.5437" y="-105.8" font-family="Helvetica,sans-Serif" font-size="11.00" fill="#000000">[table]</text>
<polygon fill="none" stroke="#000000" points="8.5,-75.7 8.5,-97.7 131.5,-97.7 131.5,-75.7 8.5,-75.7"/>
<image xlink:href="../../images/primaryKeys.png" width="11px" height="12px" preserveAspectRatio="xMinYMin meet" x="13.5" y="-92.7"/>
<text text-anchor="start" x="28.5" y="-82.8" font-family="Helvetica,sans-Serif" font-size="11.00" fill="#000000">persona_id</text>
<polygon fill="none" stroke="#000000" points="8.5,-56.7 8.5,-75.7 131.5,-75.7 131.5,-56.7 8.5,-56.7"/>
<text text-anchor="start" x="11.5" y="-62.8" font-family="Helvetica,sans-Serif" font-size="11.00" fill="#000000">...</text>
<polygon fill="#ffffff" stroke="transparent" points="8.5,-37.7 8.5,-56.7 46.5,-56.7 46.5,-37.7 8.5,-37.7"/>
<polygon fill="none" stroke="#000000" points="8.5,-37.7 8.5,-56.7 46.5,-56.7 46.5,-37.7 8.5,-37.7"/>
<text text-anchor="start" x="11.5" y="-43.8" font-family="Helvetica,sans-Serif" font-size="11.00" fill="#000000"> &#160;</text>
<polygon fill="#ffffff" stroke="transparent" points="46.5,-37.7 46.5,-56.7 97.5,-56.7 97.5,-37.7 46.5,-37.7"/>
<polygon fill="none" stroke="#000000" points="46.5,-37.7 46.5,-56.7 97.5,-56.7 97.5,-37.7 46.5,-37.7"/>
<text text-anchor="start" x="62.1105" y="-43.8" font-family="Helvetica,sans-Serif" font-size="11.00" fill="#000000">0 rows</text>
<polygon fill="#ffffff" stroke="transparent" points="97.5,-37.7 97.5,-56.7 131.5,-56.7 131.5,-37.7 97.5,-37.7"/>
<polygon fill="none" stroke="#000000" points="97.5,-37.7 97.5,-56.7 131.5,-56.7 131.5,-37.7 97.5,-37.7"/>
<text text-anchor="start" x="112.9053" y="-43.8" font-family="Helvetica,sans-Serif" font-size="11.00" fill="#000000">1 &gt;</text>
</a>
</g>
</g>
<!-- leads&#45;&gt;personas -->
<g id="edge1" class="edge">
<title>leads:w&#45;&gt;personas:e</title>
<path fill="none" stroke="#000000" d="M165.9909,-86.7C154.6774,-86.7 147.4931,-86.7 131.5,-86.7"/>
<polygon fill="#000000" stroke="#000000" points="172.5,-86.7001 180.5,-90.3 176.5,-86.7 180.5,-86.7 180.5,-86.7 180.5,-86.7 176.5,-86.7 180.5,-83.1 172.5,-86.7001 172.5,-86.7001"/>
<ellipse fill="none" stroke="#000000" cx="169.3" cy="-86.7001" rx="3.2" ry="3.2"/>
</g>
</g>
</svg>
