<?xml version="1.0" encoding="UTF-8" standalone="no"?>
<!DOCTYPE svg PUBLIC "-//W3C//DTD SVG 1.1//EN"
 "http://www.w3.org/Graphics/SVG/1.1/DTD/svg11.dtd">
<!-- Generated by graphviz version 2.40.1 (20161225.0304)
 -->
<!-- Title: compactRelationshipsDiagram Pages: 1 -->
<svg width="491pt" height="577pt"
 viewBox="0.00 0.00 491.00 577.20" xmlns="http://www.w3.org/2000/svg" xmlns:xlink="http://www.w3.org/1999/xlink">
<g id="graph0" class="graph" transform="scale(1 1) rotate(0) translate(4 573.2)">
<title>compactRelationshipsDiagram</title>
<polygon fill="#ffffff" stroke="transparent" points="-4,4 -4,-573.2 487,-573.2 487,4 -4,4"/>
<text text-anchor="middle" x="72.4936" y="-7.3" font-family="Helvetica,sans-Serif" font-size="11.00" fill="#000000">Generated by SchemaSpy</text>
<!-- campana_tipos -->
<g id="node1" class="node">
<title>campana_tipos</title>
<g id="a_node1"><a xlink:href="../../tables/campana_tipos.html" xlink:title="campana_tipos" target="_top">
<polygon fill="#ffffff" stroke="transparent" points="352,-38.2 352,-121.2 475,-121.2 475,-38.2 352,-38.2"/>
<polygon fill="#f5f5f5" stroke="transparent" points="352.5,-97.7 352.5,-120.7 475.5,-120.7 475.5,-97.7 352.5,-97.7"/>
<polygon fill="none" stroke="#000000" points="352.5,-97.7 352.5,-120.7 475.5,-120.7 475.5,-97.7 352.5,-97.7"/>
<text text-anchor="start" x="357.5" y="-106.8" font-family="Helvetica,sans-Serif" font-weight="bold" font-size="11.00" fill="#000000">campana_tipos</text>
<text text-anchor="start" x="440.5437" y="-105.8" font-family="Helvetica,sans-Serif" font-size="11.00" fill="#000000">[table]</text>
<polygon fill="none" stroke="#000000" points="352.5,-75.7 352.5,-97.7 475.5,-97.7 475.5,-75.7 352.5,-75.7"/>
<image xlink:href="../../images/foreignKeys.png" width="11px" height="12px" preserveAspectRatio="xMinYMin meet" x="357.5" y="-92.7"/>
<text text-anchor="start" x="372.5" y="-82.8" font-family="Helvetica,sans-Serif" font-size="11.00" fill="#000000">campana_id</text>
<polygon fill="none" stroke="#000000" points="352.5,-56.7 352.5,-75.7 475.5,-75.7 475.5,-56.7 352.5,-56.7"/>
<text text-anchor="start" x="355.5" y="-62.8" font-family="Helvetica,sans-Serif" font-size="11.00" fill="#000000">...</text>
<polygon fill="#ffffff" stroke="transparent" points="352.5,-37.7 352.5,-56.7 399.5,-56.7 399.5,-37.7 352.5,-37.7"/>
<polygon fill="none" stroke="#000000" points="352.5,-37.7 352.5,-56.7 399.5,-56.7 399.5,-37.7 352.5,-37.7"/>
<text text-anchor="start" x="355.5" y="-43.8" font-family="Helvetica,sans-Serif" font-size="11.00" fill="#000000">&lt; 1</text>
<polygon fill="#ffffff" stroke="transparent" points="399.5,-37.7 399.5,-56.7 450.5,-56.7 450.5,-37.7 399.5,-37.7"/>
<polygon fill="none" stroke="#000000" points="399.5,-37.7 399.5,-56.7 450.5,-56.7 450.5,-37.7 399.5,-37.7"/>
<text text-anchor="start" x="415.1105" y="-43.8" font-family="Helvetica,sans-Serif" font-size="11.00" fill="#000000">0 rows</text>
<polygon fill="#ffffff" stroke="transparent" points="450.5,-37.7 450.5,-56.7 475.5,-56.7 475.5,-37.7 450.5,-37.7"/>
<polygon fill="none" stroke="#000000" points="450.5,-37.7 450.5,-56.7 475.5,-56.7 475.5,-37.7 450.5,-37.7"/>
<text text-anchor="start" x="466.3862" y="-43.8" font-family="Helvetica,sans-Serif" font-size="11.00" fill="#000000"> &#160;</text>
</a>
</g>
</g>
<!-- campanas -->
<g id="node2" class="node">
<title>campanas</title>
<g id="a_node2"><a xlink:href="../../tables/campanas.html" xlink:title="campanas" target="_top">
<polygon fill="#ffffff" stroke="transparent" points="180,-38.2 180,-121.2 303,-121.2 303,-38.2 180,-38.2"/>
<polygon fill="#f5f5f5" stroke="transparent" points="180.5,-97.7 180.5,-120.7 303.5,-120.7 303.5,-97.7 180.5,-97.7"/>
<polygon fill="none" stroke="#000000" points="180.5,-97.7 180.5,-120.7 303.5,-120.7 303.5,-97.7 180.5,-97.7"/>
<text text-anchor="start" x="185.5" y="-106.8" font-family="Helvetica,sans-Serif" font-weight="bold" font-size="11.00" fill="#000000">campanas</text>
<text text-anchor="start" x="268.5437" y="-105.8" font-family="Helvetica,sans-Serif" font-size="11.00" fill="#000000">[table]</text>
<polygon fill="none" stroke="#000000" points="180.5,-75.7 180.5,-97.7 303.5,-97.7 303.5,-75.7 180.5,-75.7"/>
<image xlink:href="../../images/primaryKeys.png" width="11px" height="12px" preserveAspectRatio="xMinYMin meet" x="185.5" y="-92.7"/>
<text text-anchor="start" x="200.5" y="-82.8" font-family="Helvetica,sans-Serif" font-size="11.00" fill="#000000">campana_id</text>
<polygon fill="none" stroke="#000000" points="180.5,-56.7 180.5,-75.7 303.5,-75.7 303.5,-56.7 180.5,-56.7"/>
<text text-anchor="start" x="183.5" y="-62.8" font-family="Helvetica,sans-Serif" font-size="11.00" fill="#000000">...</text>
<polygon fill="#ffffff" stroke="transparent" points="180.5,-37.7 180.5,-56.7 218.5,-56.7 218.5,-37.7 180.5,-37.7"/>
<polygon fill="none" stroke="#000000" points="180.5,-37.7 180.5,-56.7 218.5,-56.7 218.5,-37.7 180.5,-37.7"/>
<text text-anchor="start" x="183.5" y="-43.8" font-family="Helvetica,sans-Serif" font-size="11.00" fill="#000000"> &#160;</text>
<polygon fill="#ffffff" stroke="transparent" points="218.5,-37.7 218.5,-56.7 269.5,-56.7 269.5,-37.7 218.5,-37.7"/>
<polygon fill="none" stroke="#000000" points="218.5,-37.7 218.5,-56.7 269.5,-56.7 269.5,-37.7 218.5,-37.7"/>
<text text-anchor="start" x="234.1105" y="-43.8" font-family="Helvetica,sans-Serif" font-size="11.00" fill="#000000">4 rows</text>
<polygon fill="#ffffff" stroke="transparent" points="269.5,-37.7 269.5,-56.7 303.5,-56.7 303.5,-37.7 269.5,-37.7"/>
<polygon fill="none" stroke="#000000" points="269.5,-37.7 269.5,-56.7 303.5,-56.7 303.5,-37.7 269.5,-37.7"/>
<text text-anchor="start" x="284.9053" y="-43.8" font-family="Helvetica,sans-Serif" font-size="11.00" fill="#000000">1 &gt;</text>
</a>
</g>
</g>
<!-- campana_tipos&#45;&gt;campanas -->
<g id="edge1" class="edge">
<title>campana_tipos:w&#45;&gt;campanas:e</title>
<path fill="none" stroke="#000000" d="M337.9909,-86.7C326.6774,-86.7 319.4931,-86.7 303.5,-86.7"/>
<polygon fill="#000000" stroke="#000000" points="344.5,-86.7001 352.5,-90.3 348.5,-86.7 352.5,-86.7 352.5,-86.7 352.5,-86.7 348.5,-86.7 352.5,-83.1 344.5,-86.7001 344.5,-86.7001"/>
<ellipse fill="none" stroke="#000000" cx="341.3" cy="-86.7001" rx="3.2" ry="3.2"/>
</g>
<!-- ciudades -->
<g id="node3" class="node">
<title>ciudades</title>
<g id="a_node3"><a xlink:href="../../tables/ciudades.html" xlink:title="ciudades" target="_top">
<polygon fill="#ffffff" stroke="transparent" points="180,-142.2 180,-247.2 303,-247.2 303,-142.2 180,-142.2"/>
<polygon fill="#f5f5f5" stroke="transparent" points="180.5,-223.7 180.5,-246.7 303.5,-246.7 303.5,-223.7 180.5,-223.7"/>
<polygon fill="none" stroke="#000000" points="180.5,-223.7 180.5,-246.7 303.5,-246.7 303.5,-223.7 180.5,-223.7"/>
<text text-anchor="start" x="185.5" y="-232.8" font-family="Helvetica,sans-Serif" font-weight="bold" font-size="11.00" fill="#000000">ciudades</text>
<text text-anchor="start" x="268.5437" y="-231.8" font-family="Helvetica,sans-Serif" font-size="11.00" fill="#000000">[table]</text>
<polygon fill="none" stroke="#000000" points="180.5,-201.7 180.5,-223.7 303.5,-223.7 303.5,-201.7 180.5,-201.7"/>
<image xlink:href="../../images/primaryKeys.png" width="11px" height="12px" preserveAspectRatio="xMinYMin meet" x="185.5" y="-218.7"/>
<text text-anchor="start" x="200.5" y="-208.8" font-family="Helvetica,sans-Serif" font-size="11.00" fill="#000000">ciudad_id</text>
<polygon fill="none" stroke="#000000" points="180.5,-179.7 180.5,-201.7 303.5,-201.7 303.5,-179.7 180.5,-179.7"/>
<image xlink:href="../../images/foreignKeys.png" width="11px" height="12px" preserveAspectRatio="xMinYMin meet" x="185.5" y="-196.7"/>
<text text-anchor="start" x="200.5" y="-186.8" font-family="Helvetica,sans-Serif" font-size="11.00" fill="#000000">pais_id</text>
<polygon fill="none" stroke="#000000" points="180.5,-160.7 180.5,-179.7 303.5,-179.7 303.5,-160.7 180.5,-160.7"/>
<text text-anchor="start" x="183.5" y="-166.8" font-family="Helvetica,sans-Serif" font-size="11.00" fill="#000000">...</text>
<polygon fill="#ffffff" stroke="transparent" points="180.5,-141.7 180.5,-160.7 222.5,-160.7 222.5,-141.7 180.5,-141.7"/>
<polygon fill="none" stroke="#000000" points="180.5,-141.7 180.5,-160.7 222.5,-160.7 222.5,-141.7 180.5,-141.7"/>
<text text-anchor="start" x="183.5" y="-147.8" font-family="Helvetica,sans-Serif" font-size="11.00" fill="#000000">&lt; 1</text>
<polygon fill="#ffffff" stroke="transparent" points="222.5,-141.7 222.5,-160.7 271.5,-160.7 271.5,-141.7 222.5,-141.7"/>
<polygon fill="none" stroke="#000000" points="222.5,-141.7 222.5,-160.7 271.5,-160.7 271.5,-141.7 222.5,-141.7"/>
<text text-anchor="start" x="236.1105" y="-147.8" font-family="Helvetica,sans-Serif" font-size="11.00" fill="#000000">0 rows</text>
<polygon fill="#ffffff" stroke="transparent" points="271.5,-141.7 271.5,-160.7 303.5,-160.7 303.5,-141.7 271.5,-141.7"/>
<polygon fill="none" stroke="#000000" points="271.5,-141.7 271.5,-160.7 303.5,-160.7 303.5,-141.7 271.5,-141.7"/>
<text text-anchor="start" x="284.9053" y="-147.8" font-family="Helvetica,sans-Serif" font-size="11.00" fill="#000000">1 &gt;</text>
</a>
</g>
</g>
<!-- paises -->
<g id="node7" class="node">
<title>paises</title>
<g id="a_node7"><a xlink:href="../../tables/paises.html" xlink:title="paises" target="_top">
<polygon fill="#ffffff" stroke="transparent" points="8,-142.2 8,-225.2 131,-225.2 131,-142.2 8,-142.2"/>
<polygon fill="#f5f5f5" stroke="transparent" points="8.5,-201.7 8.5,-224.7 131.5,-224.7 131.5,-201.7 8.5,-201.7"/>
<polygon fill="none" stroke="#000000" points="8.5,-201.7 8.5,-224.7 131.5,-224.7 131.5,-201.7 8.5,-201.7"/>
<text text-anchor="start" x="13.5" y="-210.8" font-family="Helvetica,sans-Serif" font-weight="bold" font-size="11.00" fill="#000000">paises</text>
<text text-anchor="start" x="96.5437" y="-209.8" font-family="Helvetica,sans-Serif" font-size="11.00" fill="#000000">[table]</text>
<polygon fill="none" stroke="#000000" points="8.5,-179.7 8.5,-201.7 131.5,-201.7 131.5,-179.7 8.5,-179.7"/>
<image xlink:href="../../images/primaryKeys.png" width="11px" height="12px" preserveAspectRatio="xMinYMin meet" x="13.5" y="-196.7"/>
<text text-anchor="start" x="28.5" y="-186.8" font-family="Helvetica,sans-Serif" font-size="11.00" fill="#000000">pais_id</text>
<polygon fill="none" stroke="#000000" points="8.5,-160.7 8.5,-179.7 131.5,-179.7 131.5,-160.7 8.5,-160.7"/>
<text text-anchor="start" x="11.5" y="-166.8" font-family="Helvetica,sans-Serif" font-size="11.00" fill="#000000">...</text>
<polygon fill="#ffffff" stroke="transparent" points="8.5,-141.7 8.5,-160.7 46.5,-160.7 46.5,-141.7 8.5,-141.7"/>
<polygon fill="none" stroke="#000000" points="8.5,-141.7 8.5,-160.7 46.5,-160.7 46.5,-141.7 8.5,-141.7"/>
<text text-anchor="start" x="11.5" y="-147.8" font-family="Helvetica,sans-Serif" font-size="11.00" fill="#000000"> &#160;</text>
<polygon fill="#ffffff" stroke="transparent" points="46.5,-141.7 46.5,-160.7 97.5,-160.7 97.5,-141.7 46.5,-141.7"/>
<polygon fill="none" stroke="#000000" points="46.5,-141.7 46.5,-160.7 97.5,-160.7 97.5,-141.7 46.5,-141.7"/>
<text text-anchor="start" x="62.1105" y="-147.8" font-family="Helvetica,sans-Serif" font-size="11.00" fill="#000000">0 rows</text>
<polygon fill="#ffffff" stroke="transparent" points="97.5,-141.7 97.5,-160.7 131.5,-160.7 131.5,-141.7 97.5,-141.7"/>
<polygon fill="none" stroke="#000000" points="97.5,-141.7 97.5,-160.7 131.5,-160.7 131.5,-141.7 97.5,-141.7"/>
<text text-anchor="start" x="112.9053" y="-147.8" font-family="Helvetica,sans-Serif" font-size="11.00" fill="#000000">1 &gt;</text>
</a>
</g>
</g>
<!-- ciudades&#45;&gt;paises -->
<g id="edge2" class="edge">
<title>ciudades:w&#45;&gt;paises:e</title>
<path fill="none" stroke="#000000" d="M165.9909,-190.7C154.6774,-190.7 147.4931,-190.7 131.5,-190.7"/>
<polygon fill="#000000" stroke="#000000" points="172.5,-190.7001 180.5,-194.3 176.5,-190.7 180.5,-190.7 180.5,-190.7 180.5,-190.7 176.5,-190.7 180.5,-187.1 172.5,-190.7001 172.5,-190.7001"/>
<ellipse fill="none" stroke="#000000" cx="169.3" cy="-190.7001" rx="3.2" ry="3.2"/>
</g>
<!-- direcciones -->
<g id="node4" class="node">
<title>direcciones</title>
<g id="a_node4"><a xlink:href="../../tables/direcciones.html" xlink:title="direcciones" target="_top">
<polygon fill="#ffffff" stroke="transparent" points="352,-164.2 352,-269.2 475,-269.2 475,-164.2 352,-164.2"/>
<polygon fill="#f5f5f5" stroke="transparent" points="352.5,-245.7 352.5,-268.7 475.5,-268.7 475.5,-245.7 352.5,-245.7"/>
<polygon fill="none" stroke="#000000" points="352.5,-245.7 352.5,-268.7 475.5,-268.7 475.5,-245.7 352.5,-245.7"/>
<text text-anchor="start" x="357.5" y="-254.8" font-family="Helvetica,sans-Serif" font-weight="bold" font-size="11.00" fill="#000000">direcciones</text>
<text text-anchor="start" x="440.5437" y="-253.8" font-family="Helvetica,sans-Serif" font-size="11.00" fill="#000000">[table]</text>
<polygon fill="none" stroke="#000000" points="352.5,-223.7 352.5,-245.7 475.5,-245.7 475.5,-223.7 352.5,-223.7"/>
<image xlink:href="../../images/primaryKeys.png" width="11px" height="12px" preserveAspectRatio="xMinYMin meet" x="357.5" y="-240.7"/>
<text text-anchor="start" x="372.5" y="-230.8" font-family="Helvetica,sans-Serif" font-size="11.00" fill="#000000">direccion_id</text>
<polygon fill="none" stroke="#000000" points="352.5,-201.7 352.5,-223.7 475.5,-223.7 475.5,-201.7 352.5,-201.7"/>
<image xlink:href="../../images/foreignKeys.png" width="11px" height="12px" preserveAspectRatio="xMinYMin meet" x="357.5" y="-218.7"/>
<text text-anchor="start" x="372.5" y="-208.8" font-family="Helvetica,sans-Serif" font-size="11.00" fill="#000000">ciudad_id</text>
<polygon fill="none" stroke="#000000" points="352.5,-182.7 352.5,-201.7 475.5,-201.7 475.5,-182.7 352.5,-182.7"/>
<text text-anchor="start" x="355.5" y="-188.8" font-family="Helvetica,sans-Serif" font-size="11.00" fill="#000000">...</text>
<polygon fill="#ffffff" stroke="transparent" points="352.5,-163.7 352.5,-182.7 399.5,-182.7 399.5,-163.7 352.5,-163.7"/>
<polygon fill="none" stroke="#000000" points="352.5,-163.7 352.5,-182.7 399.5,-182.7 399.5,-163.7 352.5,-163.7"/>
<text text-anchor="start" x="355.5" y="-169.8" font-family="Helvetica,sans-Serif" font-size="11.00" fill="#000000">&lt; 1</text>
<polygon fill="#ffffff" stroke="transparent" points="399.5,-163.7 399.5,-182.7 450.5,-182.7 450.5,-163.7 399.5,-163.7"/>
<polygon fill="none" stroke="#000000" points="399.5,-163.7 399.5,-182.7 450.5,-182.7 450.5,-163.7 399.5,-163.7"/>
<text text-anchor="start" x="415.1105" y="-169.8" font-family="Helvetica,sans-Serif" font-size="11.00" fill="#000000">0 rows</text>
<polygon fill="#ffffff" stroke="transparent" points="450.5,-163.7 450.5,-182.7 475.5,-182.7 475.5,-163.7 450.5,-163.7"/>
<polygon fill="none" stroke="#000000" points="450.5,-163.7 450.5,-182.7 475.5,-182.7 475.5,-163.7 450.5,-163.7"/>
<text text-anchor="start" x="466.3862" y="-169.8" font-family="Helvetica,sans-Serif" font-size="11.00" fill="#000000"> &#160;</text>
</a>
</g>
</g>
<!-- direcciones&#45;&gt;ciudades -->
<g id="edge3" class="edge">
<title>direcciones:w&#45;&gt;ciudades:e</title>
<path fill="none" stroke="#000000" d="M337.9909,-212.7C326.6774,-212.7 319.4931,-212.7 303.5,-212.7"/>
<polygon fill="#000000" stroke="#000000" points="344.5,-212.7001 352.5,-216.3 348.5,-212.7 352.5,-212.7 352.5,-212.7 352.5,-212.7 348.5,-212.7 352.5,-209.1 344.5,-212.7001 344.5,-212.7001"/>
<ellipse fill="none" stroke="#000000" cx="341.3" cy="-212.7001" rx="3.2" ry="3.2"/>
</g>
<!-- empleados -->
<g id="node5" class="node">
<title>empleados</title>
<g id="a_node5"><a xlink:href="../../tables/empleados.html" xlink:title="empleados" target="_top">
<polygon fill="#ffffff" stroke="transparent" points="352,-438.2 352,-565.2 475,-565.2 475,-438.2 352,-438.2"/>
<polygon fill="#f5f5f5" stroke="transparent" points="352.5,-541.7 352.5,-564.7 475.5,-564.7 475.5,-541.7 352.5,-541.7"/>
<polygon fill="none" stroke="#000000" points="352.5,-541.7 352.5,-564.7 475.5,-564.7 475.5,-541.7 352.5,-541.7"/>
<text text-anchor="start" x="357.5" y="-550.8" font-family="Helvetica,sans-Serif" font-weight="bold" font-size="11.00" fill="#000000">empleados</text>
<text text-anchor="start" x="440.5437" y="-549.8" font-family="Helvetica,sans-Serif" font-size="11.00" fill="#000000">[table]</text>
<polygon fill="none" stroke="#000000" points="352.5,-519.7 352.5,-541.7 475.5,-541.7 475.5,-519.7 352.5,-519.7"/>
<image xlink:href="../../images/primaryKeys.png" width="11px" height="12px" preserveAspectRatio="xMinYMin meet" x="357.5" y="-536.7"/>
<text text-anchor="start" x="372.5" y="-526.8" font-family="Helvetica,sans-Serif" font-size="11.00" fill="#000000">empleado_id</text>
<polygon fill="none" stroke="#000000" points="352.5,-497.7 352.5,-519.7 475.5,-519.7 475.5,-497.7 352.5,-497.7"/>
<image xlink:href="../../images/foreignKeys.png" width="11px" height="12px" preserveAspectRatio="xMinYMin meet" x="357.5" y="-514.7"/>
<text text-anchor="start" x="372.5" y="-504.8" font-family="Helvetica,sans-Serif" font-size="11.00" fill="#000000">persona_id</text>
<polygon fill="none" stroke="#000000" points="352.5,-475.7 352.5,-497.7 475.5,-497.7 475.5,-475.7 352.5,-475.7"/>
<image xlink:href="../../images/foreignKeys.png" width="11px" height="12px" preserveAspectRatio="xMinYMin meet" x="357.5" y="-492.7"/>
<text text-anchor="start" x="372.5" y="-482.8" font-family="Helvetica,sans-Serif" font-size="11.00" fill="#000000">usuario_id</text>
<polygon fill="none" stroke="#000000" points="352.5,-456.7 352.5,-475.7 475.5,-475.7 475.5,-456.7 352.5,-456.7"/>
<text text-anchor="start" x="355.5" y="-462.8" font-family="Helvetica,sans-Serif" font-size="11.00" fill="#000000">...</text>
<polygon fill="#ffffff" stroke="transparent" points="352.5,-437.7 352.5,-456.7 399.5,-456.7 399.5,-437.7 352.5,-437.7"/>
<polygon fill="none" stroke="#000000" points="352.5,-437.7 352.5,-456.7 399.5,-456.7 399.5,-437.7 352.5,-437.7"/>
<text text-anchor="start" x="355.5" y="-443.8" font-family="Helvetica,sans-Serif" font-size="11.00" fill="#000000">&lt; 2</text>
<polygon fill="#ffffff" stroke="transparent" points="399.5,-437.7 399.5,-456.7 450.5,-456.7 450.5,-437.7 399.5,-437.7"/>
<polygon fill="none" stroke="#000000" points="399.5,-437.7 399.5,-456.7 450.5,-456.7 450.5,-437.7 399.5,-437.7"/>
<text text-anchor="start" x="415.1105" y="-443.8" font-family="Helvetica,sans-Serif" font-size="11.00" fill="#000000">0 rows</text>
<polygon fill="#ffffff" stroke="transparent" points="450.5,-437.7 450.5,-456.7 475.5,-456.7 475.5,-437.7 450.5,-437.7"/>
<polygon fill="none" stroke="#000000" points="450.5,-437.7 450.5,-456.7 475.5,-456.7 475.5,-437.7 450.5,-437.7"/>
<text text-anchor="start" x="466.3862" y="-443.8" font-family="Helvetica,sans-Serif" font-size="11.00" fill="#000000"> &#160;</text>
</a>
</g>
</g>
<!-- personas -->
<g id="node8" class="node">
<title>personas</title>
<g id="a_node8"><a xlink:href="../../tables/personas.html" xlink:title="personas" target="_top">
<polygon fill="#ffffff" stroke="transparent" points="180,-449.2 180,-532.2 303,-532.2 303,-449.2 180,-449.2"/>
<polygon fill="#f5f5f5" stroke="transparent" points="180.5,-508.7 180.5,-531.7 303.5,-531.7 303.5,-508.7 180.5,-508.7"/>
<polygon fill="none" stroke="#000000" points="180.5,-508.7 180.5,-531.7 303.5,-531.7 303.5,-508.7 180.5,-508.7"/>
<text text-anchor="start" x="185.5" y="-517.8" font-family="Helvetica,sans-Serif" font-weight="bold" font-size="11.00" fill="#000000">personas</text>
<text text-anchor="start" x="268.5437" y="-516.8" font-family="Helvetica,sans-Serif" font-size="11.00" fill="#000000">[table]</text>
<polygon fill="none" stroke="#000000" points="180.5,-486.7 180.5,-508.7 303.5,-508.7 303.5,-486.7 180.5,-486.7"/>
<image xlink:href="../../images/primaryKeys.png" width="11px" height="12px" preserveAspectRatio="xMinYMin meet" x="185.5" y="-503.7"/>
<text text-anchor="start" x="200.5" y="-493.8" font-family="Helvetica,sans-Serif" font-size="11.00" fill="#000000">persona_id</text>
<polygon fill="none" stroke="#000000" points="180.5,-467.7 180.5,-486.7 303.5,-486.7 303.5,-467.7 180.5,-467.7"/>
<text text-anchor="start" x="183.5" y="-473.8" font-family="Helvetica,sans-Serif" font-size="11.00" fill="#000000">...</text>
<polygon fill="#ffffff" stroke="transparent" points="180.5,-448.7 180.5,-467.7 215.5,-467.7 215.5,-448.7 180.5,-448.7"/>
<polygon fill="none" stroke="#000000" points="180.5,-448.7 180.5,-467.7 215.5,-467.7 215.5,-448.7 180.5,-448.7"/>
<text text-anchor="start" x="183.5" y="-454.8" font-family="Helvetica,sans-Serif" font-size="11.00" fill="#000000"> &#160;</text>
<polygon fill="#ffffff" stroke="transparent" points="215.5,-448.7 215.5,-467.7 270.5,-467.7 270.5,-448.7 215.5,-448.7"/>
<polygon fill="none" stroke="#000000" points="215.5,-448.7 215.5,-467.7 270.5,-467.7 270.5,-448.7 215.5,-448.7"/>
<text text-anchor="start" x="228.9956" y="-454.8" font-family="Helvetica,sans-Serif" font-size="11.00" fill="#000000">22 rows</text>
<polygon fill="#ffffff" stroke="transparent" points="270.5,-448.7 270.5,-467.7 303.5,-467.7 303.5,-448.7 270.5,-448.7"/>
<polygon fill="none" stroke="#000000" points="270.5,-448.7 270.5,-467.7 303.5,-467.7 303.5,-448.7 270.5,-448.7"/>
<text text-anchor="start" x="284.9053" y="-454.8" font-family="Helvetica,sans-Serif" font-size="11.00" fill="#000000">2 &gt;</text>
</a>
</g>
</g>
<!-- empleados&#45;&gt;personas -->
<g id="edge4" class="edge">
<title>empleados:w&#45;&gt;personas:e</title>
<path fill="none" stroke="#000000" d="M338.2027,-506.8836C326.7382,-503.7593 320.0655,-497.7 303.5,-497.7"/>
<polygon fill="#000000" stroke="#000000" points="344.5638,-507.6917 352.0463,-512.2713 348.5319,-508.1958 352.5,-508.7 352.5,-508.7 352.5,-508.7 348.5319,-508.1958 352.9537,-505.1287 344.5638,-507.6917 344.5638,-507.6917"/>
<ellipse fill="none" stroke="#000000" cx="341.3893" cy="-507.2884" rx="3.2" ry="3.2"/>
</g>
<!-- usuarios -->
<g id="node9" class="node">
<title>usuarios</title>
<g id="a_node9"><a xlink:href="../../tables/usuarios.html" xlink:title="usuarios" target="_top">
<polygon fill="#ffffff" stroke="transparent" points="180,-312.2 180,-417.2 303,-417.2 303,-312.2 180,-312.2"/>
<polygon fill="#f5f5f5" stroke="transparent" points="180.5,-393.7 180.5,-416.7 303.5,-416.7 303.5,-393.7 180.5,-393.7"/>
<polygon fill="none" stroke="#000000" points="180.5,-393.7 180.5,-416.7 303.5,-416.7 303.5,-393.7 180.5,-393.7"/>
<text text-anchor="start" x="185.5" y="-402.8" font-family="Helvetica,sans-Serif" font-weight="bold" font-size="11.00" fill="#000000">usuarios</text>
<text text-anchor="start" x="268.5437" y="-401.8" font-family="Helvetica,sans-Serif" font-size="11.00" fill="#000000">[table]</text>
<polygon fill="none" stroke="#000000" points="180.5,-371.7 180.5,-393.7 303.5,-393.7 303.5,-371.7 180.5,-371.7"/>
<image xlink:href="../../images/primaryKeys.png" width="11px" height="12px" preserveAspectRatio="xMinYMin meet" x="185.5" y="-388.7"/>
<text text-anchor="start" x="200.5" y="-378.8" font-family="Helvetica,sans-Serif" font-size="11.00" fill="#000000">usuario_id</text>
<polygon fill="#ffffff" stroke="transparent" points="180.5,-349.7 180.5,-371.7 303.5,-371.7 303.5,-349.7 180.5,-349.7"/>
<polygon fill="none" stroke="#000000" points="180.5,-349.7 180.5,-371.7 303.5,-371.7 303.5,-349.7 180.5,-349.7"/>
<text text-anchor="start" x="200.5" y="-356.8" font-family="Helvetica,sans-Serif" font-size="11.00" fill="#000000">nom_usuario</text>
<polygon fill="none" stroke="#000000" points="180.5,-330.7 180.5,-349.7 303.5,-349.7 303.5,-330.7 180.5,-330.7"/>
<text text-anchor="start" x="183.5" y="-336.8" font-family="Helvetica,sans-Serif" font-size="11.00" fill="#000000">...</text>
<polygon fill="#ffffff" stroke="transparent" points="180.5,-311.7 180.5,-330.7 218.5,-330.7 218.5,-311.7 180.5,-311.7"/>
<polygon fill="none" stroke="#000000" points="180.5,-311.7 180.5,-330.7 218.5,-330.7 218.5,-311.7 180.5,-311.7"/>
<text text-anchor="start" x="183.5" y="-317.8" font-family="Helvetica,sans-Serif" font-size="11.00" fill="#000000"> &#160;</text>
<polygon fill="#ffffff" stroke="transparent" points="218.5,-311.7 218.5,-330.7 269.5,-330.7 269.5,-311.7 218.5,-311.7"/>
<polygon fill="none" stroke="#000000" points="218.5,-311.7 218.5,-330.7 269.5,-330.7 269.5,-311.7 218.5,-311.7"/>
<text text-anchor="start" x="234.1105" y="-317.8" font-family="Helvetica,sans-Serif" font-size="11.00" fill="#000000">2 rows</text>
<polygon fill="#ffffff" stroke="transparent" points="269.5,-311.7 269.5,-330.7 303.5,-330.7 303.5,-311.7 269.5,-311.7"/>
<polygon fill="none" stroke="#000000" points="269.5,-311.7 269.5,-330.7 303.5,-330.7 303.5,-311.7 269.5,-311.7"/>
<text text-anchor="start" x="284.9053" y="-317.8" font-family="Helvetica,sans-Serif" font-size="11.00" fill="#000000">2 &gt;</text>
</a>
</g>
</g>
<!-- empleados&#45;&gt;usuarios -->
<g id="edge5" class="edge">
<title>empleados:w&#45;&gt;usuarios:e</title>
<path fill="none" stroke="#000000" d="M338.4975,-482.7501C312.4389,-463.7532 348.6079,-382.7 303.5,-382.7"/>
<polygon fill="#000000" stroke="#000000" points="344.8005,-484.528 351.5226,-490.1648 348.6502,-485.614 352.5,-486.7 352.5,-486.7 352.5,-486.7 348.6502,-485.614 353.4774,-483.2352 344.8005,-484.528 344.8005,-484.528"/>
<ellipse fill="none" stroke="#000000" cx="341.7207" cy="-483.6592" rx="3.2" ry="3.2"/>
</g>
<!-- leads -->
<g id="node6" class="node">
<title>leads</title>
<g id="a_node6"><a xlink:href="../../tables/leads.html" xlink:title="leads" target="_top">
<polygon fill="#ffffff" stroke="transparent" points="352,-290.2 352,-417.2 475,-417.2 475,-290.2 352,-290.2"/>
<polygon fill="#f5f5f5" stroke="transparent" points="352.5,-393.7 352.5,-416.7 475.5,-416.7 475.5,-393.7 352.5,-393.7"/>
<polygon fill="none" stroke="#000000" points="352.5,-393.7 352.5,-416.7 475.5,-416.7 475.5,-393.7 352.5,-393.7"/>
<text text-anchor="start" x="357.5" y="-402.8" font-family="Helvetica,sans-Serif" font-weight="bold" font-size="11.00" fill="#000000">leads</text>
<text text-anchor="start" x="440.5437" y="-401.8" font-family="Helvetica,sans-Serif" font-size="11.00" fill="#000000">[table]</text>
<polygon fill="none" stroke="#000000" points="352.5,-371.7 352.5,-393.7 475.5,-393.7 475.5,-371.7 352.5,-371.7"/>
<image xlink:href="../../images/primaryKeys.png" width="11px" height="12px" preserveAspectRatio="xMinYMin meet" x="357.5" y="-388.7"/>
<text text-anchor="start" x="372.5" y="-378.8" font-family="Helvetica,sans-Serif" font-size="11.00" fill="#000000">lead_id</text>
<polygon fill="none" stroke="#000000" points="352.5,-349.7 352.5,-371.7 475.5,-371.7 475.5,-349.7 352.5,-349.7"/>
<image xlink:href="../../images/foreignKeys.png" width="11px" height="12px" preserveAspectRatio="xMinYMin meet" x="357.5" y="-366.7"/>
<text text-anchor="start" x="372.5" y="-356.8" font-family="Helvetica,sans-Serif" font-size="11.00" fill="#000000">usu_asignado_id</text>
<polygon fill="none" stroke="#000000" points="352.5,-327.7 352.5,-349.7 475.5,-349.7 475.5,-327.7 352.5,-327.7"/>
<image xlink:href="../../images/foreignKeys.png" width="11px" height="12px" preserveAspectRatio="xMinYMin meet" x="357.5" y="-344.7"/>
<text text-anchor="start" x="372.5" y="-334.8" font-family="Helvetica,sans-Serif" font-size="11.00" fill="#000000">persona_id</text>
<polygon fill="none" stroke="#000000" points="352.5,-308.7 352.5,-327.7 475.5,-327.7 475.5,-308.7 352.5,-308.7"/>
<text text-anchor="start" x="355.5" y="-314.8" font-family="Helvetica,sans-Serif" font-size="11.00" fill="#000000">...</text>
<polygon fill="#ffffff" stroke="transparent" points="352.5,-289.7 352.5,-308.7 399.5,-308.7 399.5,-289.7 352.5,-289.7"/>
<polygon fill="none" stroke="#000000" points="352.5,-289.7 352.5,-308.7 399.5,-308.7 399.5,-289.7 352.5,-289.7"/>
<text text-anchor="start" x="355.5" y="-295.8" font-family="Helvetica,sans-Serif" font-size="11.00" fill="#000000">&lt; 2</text>
<polygon fill="#ffffff" stroke="transparent" points="399.5,-289.7 399.5,-308.7 450.5,-308.7 450.5,-289.7 399.5,-289.7"/>
<polygon fill="none" stroke="#000000" points="399.5,-289.7 399.5,-308.7 450.5,-308.7 450.5,-289.7 399.5,-289.7"/>
<text text-anchor="start" x="415.1105" y="-295.8" font-family="Helvetica,sans-Serif" font-size="11.00" fill="#000000">0 rows</text>
<polygon fill="#ffffff" stroke="transparent" points="450.5,-289.7 450.5,-308.7 475.5,-308.7 475.5,-289.7 450.5,-289.7"/>
<polygon fill="none" stroke="#000000" points="450.5,-289.7 450.5,-308.7 475.5,-308.7 475.5,-289.7 450.5,-289.7"/>
<text text-anchor="start" x="466.3862" y="-295.8" font-family="Helvetica,sans-Serif" font-size="11.00" fill="#000000"> &#160;</text>
</a>
</g>
</g>
<!-- leads&#45;&gt;personas -->
<g id="edge6" class="edge">
<title>leads:w&#45;&gt;personas:e</title>
<path fill="none" stroke="#000000" d="M338.1688,-341.4597C292.9508,-362.5733 371.6692,-497.7 303.5,-497.7"/>
<polygon fill="#000000" stroke="#000000" points="344.6443,-340.2128 353.1808,-342.2351 348.5722,-339.4564 352.5,-338.7 352.5,-338.7 352.5,-338.7 348.5722,-339.4564 351.8192,-335.1649 344.6443,-340.2128 344.6443,-340.2128"/>
<ellipse fill="none" stroke="#000000" cx="341.5021" cy="-340.8179" rx="3.2" ry="3.2"/>
</g>
<!-- leads&#45;&gt;usuarios -->
<g id="edge7" class="edge">
<title>leads:w&#45;&gt;usuarios:e</title>
<path fill="none" stroke="#000000" d="M338.1297,-364.1375C326.5865,-370.325 321.4041,-382.7 303.5,-382.7"/>
<polygon fill="#000000" stroke="#000000" points="344.7195,-362.5612 353.3375,-364.2012 348.6098,-361.6306 352.5,-360.7 352.5,-360.7 352.5,-360.7 348.6098,-361.6306 351.6625,-357.1988 344.7195,-362.5612 344.7195,-362.5612"/>
<ellipse fill="none" stroke="#000000" cx="341.6073" cy="-363.3057" rx="3.2" ry="3.2"/>
</g>
</g>
</svg>
