<?xml version="1.0" encoding="UTF-8" standalone="no"?>
<!DOCTYPE svg PUBLIC "-//W3C//DTD SVG 1.1//EN"
 "http://www.w3.org/Graphics/SVG/1.1/DTD/svg11.dtd">
<!-- Generated by graphviz version 2.40.1 (20161225.0304)
 -->
<!-- Title: compactRelationshipsDiagram Pages: 1 -->
<svg width="319pt" height="259pt"
 viewBox="0.00 0.00 319.00 259.20" xmlns="http://www.w3.org/2000/svg" xmlns:xlink="http://www.w3.org/1999/xlink">
<g id="graph0" class="graph" transform="scale(1 1) rotate(0) translate(4 255.2)">
<title>compactRelationshipsDiagram</title>
<polygon fill="#ffffff" stroke="transparent" points="-4,4 -4,-255.2 315,-255.2 315,4 -4,4"/>
<text text-anchor="middle" x="72.4936" y="-7.3" font-family="Helvetica,sans-Serif" font-size="11.00" fill="#000000">Generated by SchemaSpy</text>
<!-- empleados -->
<g id="node1" class="node">
<title>empleados</title>
<g id="a_node1"><a xlink:href="../../tables/empleados.html" xlink:title="empleados" target="_top">
<polygon fill="#ffffff" stroke="transparent" points="180,-101.2 180,-228.2 303,-228.2 303,-101.2 180,-101.2"/>
<polygon fill="#f5f5f5" stroke="transparent" points="180.5,-204.7 180.5,-227.7 303.5,-227.7 303.5,-204.7 180.5,-204.7"/>
<polygon fill="none" stroke="#000000" points="180.5,-204.7 180.5,-227.7 303.5,-227.7 303.5,-204.7 180.5,-204.7"/>
<text text-anchor="start" x="185.5" y="-213.8" font-family="Helvetica,sans-Serif" font-weight="bold" font-size="11.00" fill="#000000">empleados</text>
<text text-anchor="start" x="268.5437" y="-212.8" font-family="Helvetica,sans-Serif" font-size="11.00" fill="#000000">[table]</text>
<polygon fill="none" stroke="#000000" points="180.5,-182.7 180.5,-204.7 303.5,-204.7 303.5,-182.7 180.5,-182.7"/>
<image xlink:href="../../images/primaryKeys.png" width="11px" height="12px" preserveAspectRatio="xMinYMin meet" x="185.5" y="-199.7"/>
<text text-anchor="start" x="200.5" y="-189.8" font-family="Helvetica,sans-Serif" font-size="11.00" fill="#000000">empleado_id</text>
<polygon fill="none" stroke="#000000" points="180.5,-160.7 180.5,-182.7 303.5,-182.7 303.5,-160.7 180.5,-160.7"/>
<image xlink:href="../../images/foreignKeys.png" width="11px" height="12px" preserveAspectRatio="xMinYMin meet" x="185.5" y="-177.7"/>
<text text-anchor="start" x="200.5" y="-167.8" font-family="Helvetica,sans-Serif" font-size="11.00" fill="#000000">persona_id</text>
<polygon fill="none" stroke="#000000" points="180.5,-138.7 180.5,-160.7 303.5,-160.7 303.5,-138.7 180.5,-138.7"/>
<image xlink:href="../../images/foreignKeys.png" width="11px" height="12px" preserveAspectRatio="xMinYMin meet" x="185.5" y="-155.7"/>
<text text-anchor="start" x="200.5" y="-145.8" font-family="Helvetica,sans-Serif" font-size="11.00" fill="#000000">usuario_id</text>
<polygon fill="none" stroke="#000000" points="180.5,-119.7 180.5,-138.7 303.5,-138.7 303.5,-119.7 180.5,-119.7"/>
<text text-anchor="start" x="183.5" y="-125.8" font-family="Helvetica,sans-Serif" font-size="11.00" fill="#000000">...</text>
<polygon fill="#ffffff" stroke="transparent" points="180.5,-100.7 180.5,-119.7 227.5,-119.7 227.5,-100.7 180.5,-100.7"/>
<polygon fill="none" stroke="#000000" points="180.5,-100.7 180.5,-119.7 227.5,-119.7 227.5,-100.7 180.5,-100.7"/>
<text text-anchor="start" x="183.5" y="-106.8" font-family="Helvetica,sans-Serif" font-size="11.00" fill="#000000">&lt; 2</text>
<polygon fill="#ffffff" stroke="transparent" points="227.5,-100.7 227.5,-119.7 278.5,-119.7 278.5,-100.7 227.5,-100.7"/>
<polygon fill="none" stroke="#000000" points="227.5,-100.7 227.5,-119.7 278.5,-119.7 278.5,-100.7 227.5,-100.7"/>
<text text-anchor="start" x="243.1105" y="-106.8" font-family="Helvetica,sans-Serif" font-size="11.00" fill="#000000">0 rows</text>
<polygon fill="#ffffff" stroke="transparent" points="278.5,-100.7 278.5,-119.7 303.5,-119.7 303.5,-100.7 278.5,-100.7"/>
<polygon fill="none" stroke="#000000" points="278.5,-100.7 278.5,-119.7 303.5,-119.7 303.5,-100.7 278.5,-100.7"/>
<text text-anchor="start" x="294.3862" y="-106.8" font-family="Helvetica,sans-Serif" font-size="11.00" fill="#000000"> &#160;</text>
</a>
</g>
</g>
<!-- personas -->
<g id="node2" class="node">
<title>personas</title>
<g id="a_node2"><a xlink:href="../../tables/personas.html" xlink:title="personas" target="_top">
<polygon fill="#ffffff" stroke="transparent" points="8,-164.2 8,-247.2 131,-247.2 131,-164.2 8,-164.2"/>
<polygon fill="#f5f5f5" stroke="transparent" points="8.5,-223.7 8.5,-246.7 131.5,-246.7 131.5,-223.7 8.5,-223.7"/>
<polygon fill="none" stroke="#000000" points="8.5,-223.7 8.5,-246.7 131.5,-246.7 131.5,-223.7 8.5,-223.7"/>
<text text-anchor="start" x="13.5" y="-232.8" font-family="Helvetica,sans-Serif" font-weight="bold" font-size="11.00" fill="#000000">personas</text>
<text text-anchor="start" x="96.5437" y="-231.8" font-family="Helvetica,sans-Serif" font-size="11.00" fill="#000000">[table]</text>
<polygon fill="none" stroke="#000000" points="8.5,-201.7 8.5,-223.7 131.5,-223.7 131.5,-201.7 8.5,-201.7"/>
<image xlink:href="../../images/primaryKeys.png" width="11px" height="12px" preserveAspectRatio="xMinYMin meet" x="13.5" y="-218.7"/>
<text text-anchor="start" x="28.5" y="-208.8" font-family="Helvetica,sans-Serif" font-size="11.00" fill="#000000">persona_id</text>
<polygon fill="none" stroke="#000000" points="8.5,-182.7 8.5,-201.7 131.5,-201.7 131.5,-182.7 8.5,-182.7"/>
<text text-anchor="start" x="11.5" y="-188.8" font-family="Helvetica,sans-Serif" font-size="11.00" fill="#000000">...</text>
<polygon fill="#ffffff" stroke="transparent" points="8.5,-163.7 8.5,-182.7 46.5,-182.7 46.5,-163.7 8.5,-163.7"/>
<polygon fill="none" stroke="#000000" points="8.5,-163.7 8.5,-182.7 46.5,-182.7 46.5,-163.7 8.5,-163.7"/>
<text text-anchor="start" x="11.5" y="-169.8" font-family="Helvetica,sans-Serif" font-size="11.00" fill="#000000"> &#160;</text>
<polygon fill="#ffffff" stroke="transparent" points="46.5,-163.7 46.5,-182.7 97.5,-182.7 97.5,-163.7 46.5,-163.7"/>
<polygon fill="none" stroke="#000000" points="46.5,-163.7 46.5,-182.7 97.5,-182.7 97.5,-163.7 46.5,-163.7"/>
<text text-anchor="start" x="62.1105" y="-169.8" font-family="Helvetica,sans-Serif" font-size="11.00" fill="#000000">0 rows</text>
<polygon fill="#ffffff" stroke="transparent" points="97.5,-163.7 97.5,-182.7 131.5,-182.7 131.5,-163.7 97.5,-163.7"/>
<polygon fill="none" stroke="#000000" points="97.5,-163.7 97.5,-182.7 131.5,-182.7 131.5,-163.7 97.5,-163.7"/>
<text text-anchor="start" x="112.9053" y="-169.8" font-family="Helvetica,sans-Serif" font-size="11.00" fill="#000000">1 &gt;</text>
</a>
</g>
</g>
<!-- empleados&#45;&gt;personas -->
<g id="edge1" class="edge">
<title>empleados:w&#45;&gt;personas:e</title>
<path fill="none" stroke="#000000" d="M166.6819,-176.4032C153.7811,-187.1726 153.9061,-212.7 131.5,-212.7"/>
<polygon fill="#000000" stroke="#000000" points="172.9267,-174.2778 181.66,-175.108 176.7133,-172.9889 180.5,-171.7 180.5,-171.7 180.5,-171.7 176.7133,-172.9889 179.34,-168.292 172.9267,-174.2778 172.9267,-174.2778"/>
<ellipse fill="none" stroke="#000000" cx="169.8973" cy="-175.3089" rx="3.2" ry="3.2"/>
</g>
<!-- usuarios -->
<g id="node3" class="node">
<title>usuarios</title>
<g id="a_node3"><a xlink:href="../../tables/usuarios.html" xlink:title="usuarios" target="_top">
<polygon fill="#ffffff" stroke="transparent" points="8,-38.2 8,-143.2 131,-143.2 131,-38.2 8,-38.2"/>
<polygon fill="#f5f5f5" stroke="transparent" points="8.5,-119.7 8.5,-142.7 131.5,-142.7 131.5,-119.7 8.5,-119.7"/>
<polygon fill="none" stroke="#000000" points="8.5,-119.7 8.5,-142.7 131.5,-142.7 131.5,-119.7 8.5,-119.7"/>
<text text-anchor="start" x="13.5" y="-128.8" font-family="Helvetica,sans-Serif" font-weight="bold" font-size="11.00" fill="#000000">usuarios</text>
<text text-anchor="start" x="96.5437" y="-127.8" font-family="Helvetica,sans-Serif" font-size="11.00" fill="#000000">[table]</text>
<polygon fill="none" stroke="#000000" points="8.5,-97.7 8.5,-119.7 131.5,-119.7 131.5,-97.7 8.5,-97.7"/>
<image xlink:href="../../images/primaryKeys.png" width="11px" height="12px" preserveAspectRatio="xMinYMin meet" x="13.5" y="-114.7"/>
<text text-anchor="start" x="28.5" y="-104.8" font-family="Helvetica,sans-Serif" font-size="11.00" fill="#000000">usuario_id</text>
<polygon fill="#ffffff" stroke="transparent" points="8.5,-75.7 8.5,-97.7 131.5,-97.7 131.5,-75.7 8.5,-75.7"/>
<polygon fill="none" stroke="#000000" points="8.5,-75.7 8.5,-97.7 131.5,-97.7 131.5,-75.7 8.5,-75.7"/>
<text text-anchor="start" x="28.5" y="-82.8" font-family="Helvetica,sans-Serif" font-size="11.00" fill="#000000">nom_usuario</text>
<polygon fill="none" stroke="#000000" points="8.5,-56.7 8.5,-75.7 131.5,-75.7 131.5,-56.7 8.5,-56.7"/>
<text text-anchor="start" x="11.5" y="-62.8" font-family="Helvetica,sans-Serif" font-size="11.00" fill="#000000">...</text>
<polygon fill="#ffffff" stroke="transparent" points="8.5,-37.7 8.5,-56.7 49.5,-56.7 49.5,-37.7 8.5,-37.7"/>
<polygon fill="none" stroke="#000000" points="8.5,-37.7 8.5,-56.7 49.5,-56.7 49.5,-37.7 8.5,-37.7"/>
<text text-anchor="start" x="11.5" y="-43.8" font-family="Helvetica,sans-Serif" font-size="11.00" fill="#000000"> &#160;</text>
<polygon fill="#ffffff" stroke="transparent" points="49.5,-37.7 49.5,-56.7 95.5,-56.7 95.5,-37.7 49.5,-37.7"/>
<polygon fill="none" stroke="#000000" points="49.5,-37.7 49.5,-56.7 95.5,-56.7 95.5,-37.7 49.5,-37.7"/>
<text text-anchor="start" x="65.6105" y="-43.8" font-family="Helvetica,sans-Serif" font-size="11.00" fill="#000000">1 row</text>
<polygon fill="#ffffff" stroke="transparent" points="95.5,-37.7 95.5,-56.7 131.5,-56.7 131.5,-37.7 95.5,-37.7"/>
<polygon fill="none" stroke="#000000" points="95.5,-37.7 95.5,-56.7 131.5,-56.7 131.5,-37.7 95.5,-37.7"/>
<text text-anchor="start" x="112.9053" y="-43.8" font-family="Helvetica,sans-Serif" font-size="11.00" fill="#000000">1 &gt;</text>
</a>
</g>
</g>
<!-- empleados&#45;&gt;usuarios -->
<g id="edge2" class="edge">
<title>empleados:w&#45;&gt;usuarios:e</title>
<path fill="none" stroke="#000000" d="M166.6819,-144.9968C153.7811,-134.2274 153.9061,-108.7 131.5,-108.7"/>
<polygon fill="#000000" stroke="#000000" points="172.9267,-147.1222 179.34,-153.108 176.7133,-148.4111 180.5,-149.7 180.5,-149.7 180.5,-149.7 176.7133,-148.4111 181.66,-146.292 172.9267,-147.1222 172.9267,-147.1222"/>
<ellipse fill="none" stroke="#000000" cx="169.8973" cy="-146.0911" rx="3.2" ry="3.2"/>
</g>
</g>
</svg>
