<?xml version="1.0" encoding="UTF-8" standalone="no"?>
<!DOCTYPE svg PUBLIC "-//W3C//DTD SVG 1.1//EN"
 "http://www.w3.org/Graphics/SVG/1.1/DTD/svg11.dtd">
<!-- Generated by graphviz version 2.40.1 (20161225.0304)
 -->
<!-- Title: largeImpliedRelationshipsDiagram Pages: 1 -->
<svg width="491pt" height="1378pt"
 viewBox="0.00 0.00 491.00 1378.20" xmlns="http://www.w3.org/2000/svg" xmlns:xlink="http://www.w3.org/1999/xlink">
<g id="graph0" class="graph" transform="scale(1 1) rotate(0) translate(4 1374.2)">
<title>largeImpliedRelationshipsDiagram</title>
<polygon fill="#ffffff" stroke="transparent" points="-4,4 -4,-1374.2 487,-1374.2 487,4 -4,4"/>
<text text-anchor="middle" x="72.4936" y="-7.3" font-family="Helvetica,sans-Serif" font-size="11.00" fill="#000000">Generated by SchemaSpy</text>
<!-- campana_tipos -->
<g id="node1" class="node">
<title>campana_tipos</title>
<g id="a_node1"><a xlink:href="../../tables/campana_tipos.html" xlink:title="campana_tipos" target="_top">
<polygon fill="#ffffff" stroke="transparent" points="352,-810.2 352,-984.2 475,-984.2 475,-810.2 352,-810.2"/>
<polygon fill="#f5f5f5" stroke="transparent" points="352.5,-961.2 352.5,-984.2 475.5,-984.2 475.5,-961.2 352.5,-961.2"/>
<polygon fill="none" stroke="#000000" points="352.5,-961.2 352.5,-984.2 475.5,-984.2 475.5,-961.2 352.5,-961.2"/>
<text text-anchor="start" x="357.5" y="-970.3" font-family="Helvetica,sans-Serif" font-weight="bold" font-size="11.00" fill="#000000">campana_tipos</text>
<text text-anchor="start" x="440.5437" y="-969.3" font-family="Helvetica,sans-Serif" font-size="11.00" fill="#000000">[table]</text>
<polygon fill="none" stroke="#000000" points="352.5,-939.2 352.5,-961.2 475.5,-961.2 475.5,-939.2 352.5,-939.2"/>
<image xlink:href="../../images/foreignKeys.png" width="11px" height="12px" preserveAspectRatio="xMinYMin meet" x="357.5" y="-956.2"/>
<text text-anchor="start" x="372.5" y="-946.3" font-family="Helvetica,sans-Serif" font-size="11.00" fill="#000000">campana_id</text>
<polygon fill="none" stroke="#000000" points="352.5,-917.2 352.5,-939.2 475.5,-939.2 475.5,-917.2 352.5,-917.2"/>
<image xlink:href="../../images/foreignKeys.png" width="11px" height="12px" preserveAspectRatio="xMinYMin meet" x="357.5" y="-934.2"/>
<text text-anchor="start" x="372.5" y="-924.3" font-family="Helvetica,sans-Serif" font-size="11.00" fill="#000000">tip_campana_id</text>
<polygon fill="none" stroke="#000000" points="352.5,-895.2 352.5,-917.2 475.5,-917.2 475.5,-895.2 352.5,-895.2"/>
<text text-anchor="start" x="372.5" y="-902.3" font-family="Helvetica,sans-Serif" font-size="11.00" fill="#000000">usu_insercion</text>
<polygon fill="none" stroke="#000000" points="352.5,-873.2 352.5,-895.2 475.5,-895.2 475.5,-873.2 352.5,-873.2"/>
<text text-anchor="start" x="372.5" y="-880.3" font-family="Helvetica,sans-Serif" font-size="11.00" fill="#000000">fec_insercion</text>
<polygon fill="none" stroke="#000000" points="352.5,-851.2 352.5,-873.2 475.5,-873.2 475.5,-851.2 352.5,-851.2"/>
<text text-anchor="start" x="372.5" y="-858.3" font-family="Helvetica,sans-Serif" font-size="11.00" fill="#000000">fec_modificacion</text>
<polygon fill="none" stroke="#000000" points="352.5,-829.2 352.5,-851.2 475.5,-851.2 475.5,-829.2 352.5,-829.2"/>
<text text-anchor="start" x="372.5" y="-836.3" font-family="Helvetica,sans-Serif" font-size="11.00" fill="#000000">usu_modificacion</text>
<polygon fill="#ffffff" stroke="transparent" points="352.5,-810.2 352.5,-829.2 399.5,-829.2 399.5,-810.2 352.5,-810.2"/>
<polygon fill="none" stroke="#000000" points="352.5,-810.2 352.5,-829.2 399.5,-829.2 399.5,-810.2 352.5,-810.2"/>
<text text-anchor="start" x="355.5" y="-816.3" font-family="Helvetica,sans-Serif" font-size="11.00" fill="#000000">&lt; 1</text>
<polygon fill="#ffffff" stroke="transparent" points="399.5,-810.2 399.5,-829.2 450.5,-829.2 450.5,-810.2 399.5,-810.2"/>
<polygon fill="none" stroke="#000000" points="399.5,-810.2 399.5,-829.2 450.5,-829.2 450.5,-810.2 399.5,-810.2"/>
<text text-anchor="start" x="415.1105" y="-816.3" font-family="Helvetica,sans-Serif" font-size="11.00" fill="#000000">0 rows</text>
<polygon fill="#ffffff" stroke="transparent" points="450.5,-810.2 450.5,-829.2 475.5,-829.2 475.5,-810.2 450.5,-810.2"/>
<polygon fill="none" stroke="#000000" points="450.5,-810.2 450.5,-829.2 475.5,-829.2 475.5,-810.2 450.5,-810.2"/>
<text text-anchor="start" x="466.3862" y="-816.3" font-family="Helvetica,sans-Serif" font-size="11.00" fill="#000000"> &#160;</text>
</a>
</g>
</g>
<!-- campanas -->
<g id="node2" class="node">
<title>campanas</title>
<g id="a_node2"><a xlink:href="../../tables/campanas.html" xlink:title="campanas" target="_top">
<polygon fill="#ffffff" stroke="transparent" points="180,-755.2 180,-973.2 303,-973.2 303,-755.2 180,-755.2"/>
<polygon fill="#f5f5f5" stroke="transparent" points="180.5,-950.2 180.5,-973.2 303.5,-973.2 303.5,-950.2 180.5,-950.2"/>
<polygon fill="none" stroke="#000000" points="180.5,-950.2 180.5,-973.2 303.5,-973.2 303.5,-950.2 180.5,-950.2"/>
<text text-anchor="start" x="185.5" y="-959.3" font-family="Helvetica,sans-Serif" font-weight="bold" font-size="11.00" fill="#000000">campanas</text>
<text text-anchor="start" x="268.5437" y="-958.3" font-family="Helvetica,sans-Serif" font-size="11.00" fill="#000000">[table]</text>
<polygon fill="none" stroke="#000000" points="180.5,-928.2 180.5,-950.2 303.5,-950.2 303.5,-928.2 180.5,-928.2"/>
<image xlink:href="../../images/primaryKeys.png" width="11px" height="12px" preserveAspectRatio="xMinYMin meet" x="185.5" y="-945.2"/>
<text text-anchor="start" x="200.5" y="-935.3" font-family="Helvetica,sans-Serif" font-size="11.00" fill="#000000">campana_id</text>
<polygon fill="none" stroke="#000000" points="180.5,-906.2 180.5,-928.2 303.5,-928.2 303.5,-906.2 180.5,-906.2"/>
<text text-anchor="start" x="200.5" y="-913.3" font-family="Helvetica,sans-Serif" font-size="11.00" fill="#000000">nombre</text>
<polygon fill="none" stroke="#000000" points="180.5,-884.2 180.5,-906.2 303.5,-906.2 303.5,-884.2 180.5,-884.2"/>
<text text-anchor="start" x="200.5" y="-891.3" font-family="Helvetica,sans-Serif" font-size="11.00" fill="#000000">fec_inicio</text>
<polygon fill="none" stroke="#000000" points="180.5,-862.2 180.5,-884.2 303.5,-884.2 303.5,-862.2 180.5,-862.2"/>
<text text-anchor="start" x="200.5" y="-869.3" font-family="Helvetica,sans-Serif" font-size="11.00" fill="#000000">fec_fin</text>
<polygon fill="none" stroke="#000000" points="180.5,-840.2 180.5,-862.2 303.5,-862.2 303.5,-840.2 180.5,-840.2"/>
<text text-anchor="start" x="200.5" y="-847.3" font-family="Helvetica,sans-Serif" font-size="11.00" fill="#000000">usu_insercion</text>
<polygon fill="none" stroke="#000000" points="180.5,-818.2 180.5,-840.2 303.5,-840.2 303.5,-818.2 180.5,-818.2"/>
<text text-anchor="start" x="200.5" y="-825.3" font-family="Helvetica,sans-Serif" font-size="11.00" fill="#000000">fec_insercion</text>
<polygon fill="none" stroke="#000000" points="180.5,-796.2 180.5,-818.2 303.5,-818.2 303.5,-796.2 180.5,-796.2"/>
<text text-anchor="start" x="200.5" y="-803.3" font-family="Helvetica,sans-Serif" font-size="11.00" fill="#000000">fec_modificacion</text>
<polygon fill="none" stroke="#000000" points="180.5,-774.2 180.5,-796.2 303.5,-796.2 303.5,-774.2 180.5,-774.2"/>
<text text-anchor="start" x="200.5" y="-781.3" font-family="Helvetica,sans-Serif" font-size="11.00" fill="#000000">usu_modificacion</text>
<polygon fill="#ffffff" stroke="transparent" points="180.5,-755.2 180.5,-774.2 218.5,-774.2 218.5,-755.2 180.5,-755.2"/>
<polygon fill="none" stroke="#000000" points="180.5,-755.2 180.5,-774.2 218.5,-774.2 218.5,-755.2 180.5,-755.2"/>
<text text-anchor="start" x="183.5" y="-761.3" font-family="Helvetica,sans-Serif" font-size="11.00" fill="#000000"> &#160;</text>
<polygon fill="#ffffff" stroke="transparent" points="218.5,-755.2 218.5,-774.2 269.5,-774.2 269.5,-755.2 218.5,-755.2"/>
<polygon fill="none" stroke="#000000" points="218.5,-755.2 218.5,-774.2 269.5,-774.2 269.5,-755.2 218.5,-755.2"/>
<text text-anchor="start" x="234.1105" y="-761.3" font-family="Helvetica,sans-Serif" font-size="11.00" fill="#000000">4 rows</text>
<polygon fill="#ffffff" stroke="transparent" points="269.5,-755.2 269.5,-774.2 303.5,-774.2 303.5,-755.2 269.5,-755.2"/>
<polygon fill="none" stroke="#000000" points="269.5,-755.2 269.5,-774.2 303.5,-774.2 303.5,-755.2 269.5,-755.2"/>
<text text-anchor="start" x="284.9053" y="-761.3" font-family="Helvetica,sans-Serif" font-size="11.00" fill="#000000">1 &gt;</text>
</a>
</g>
</g>
<!-- campana_tipos&#45;&gt;campanas -->
<g id="edge1" class="edge">
<title>campana_tipos:w&#45;&gt;campanas:e</title>
<path fill="none" stroke="#000000" d="M338.2027,-948.3836C326.7382,-945.2593 320.0655,-939.2 303.5,-939.2"/>
<polygon fill="#000000" stroke="#000000" points="344.5638,-949.1917 352.0463,-953.7713 348.5319,-949.6958 352.5,-950.2 352.5,-950.2 352.5,-950.2 348.5319,-949.6958 352.9537,-946.6287 344.5638,-949.1917 344.5638,-949.1917"/>
<ellipse fill="none" stroke="#000000" cx="341.3893" cy="-948.7884" rx="3.2" ry="3.2"/>
</g>
<!-- campana_tipos&#45;&gt;campanas -->
<g id="edge2" class="edge">
<title>campana_tipos:w&#45;&gt;campanas:e</title>
<path fill="none" stroke="#000000" stroke-dasharray="5,2" d="M338.2027,-930.0164C326.7382,-933.1407 320.0655,-939.2 303.5,-939.2"/>
<polygon fill="#000000" stroke="#000000" points="344.5638,-929.2083 352.9537,-931.7713 348.5319,-928.7042 352.5,-928.2 352.5,-928.2 352.5,-928.2 348.5319,-928.7042 352.0463,-924.6287 344.5638,-929.2083 344.5638,-929.2083"/>
<ellipse fill="none" stroke="#000000" cx="341.3893" cy="-929.6116" rx="3.2" ry="3.2"/>
</g>
<!-- ciudades -->
<g id="node3" class="node">
<title>ciudades</title>
<g id="a_node3"><a xlink:href="../../tables/ciudades.html" xlink:title="ciudades" target="_top">
<polygon fill="#ffffff" stroke="transparent" points="180,-994.2 180,-1190.2 303,-1190.2 303,-994.2 180,-994.2"/>
<polygon fill="#f5f5f5" stroke="transparent" points="180.5,-1167.2 180.5,-1190.2 303.5,-1190.2 303.5,-1167.2 180.5,-1167.2"/>
<polygon fill="none" stroke="#000000" points="180.5,-1167.2 180.5,-1190.2 303.5,-1190.2 303.5,-1167.2 180.5,-1167.2"/>
<text text-anchor="start" x="185.5" y="-1176.3" font-family="Helvetica,sans-Serif" font-weight="bold" font-size="11.00" fill="#000000">ciudades</text>
<text text-anchor="start" x="268.5437" y="-1175.3" font-family="Helvetica,sans-Serif" font-size="11.00" fill="#000000">[table]</text>
<polygon fill="none" stroke="#000000" points="180.5,-1145.2 180.5,-1167.2 303.5,-1167.2 303.5,-1145.2 180.5,-1145.2"/>
<image xlink:href="../../images/primaryKeys.png" width="11px" height="12px" preserveAspectRatio="xMinYMin meet" x="185.5" y="-1162.2"/>
<text text-anchor="start" x="200.5" y="-1152.3" font-family="Helvetica,sans-Serif" font-size="11.00" fill="#000000">ciudad_id</text>
<polygon fill="none" stroke="#000000" points="180.5,-1123.2 180.5,-1145.2 303.5,-1145.2 303.5,-1123.2 180.5,-1123.2"/>
<text text-anchor="start" x="200.5" y="-1130.3" font-family="Helvetica,sans-Serif" font-size="11.00" fill="#000000">nombre</text>
<polygon fill="none" stroke="#000000" points="180.5,-1101.2 180.5,-1123.2 303.5,-1123.2 303.5,-1101.2 180.5,-1101.2"/>
<image xlink:href="../../images/foreignKeys.png" width="11px" height="12px" preserveAspectRatio="xMinYMin meet" x="185.5" y="-1118.2"/>
<text text-anchor="start" x="200.5" y="-1108.3" font-family="Helvetica,sans-Serif" font-size="11.00" fill="#000000">pais_id</text>
<polygon fill="none" stroke="#000000" points="180.5,-1079.2 180.5,-1101.2 303.5,-1101.2 303.5,-1079.2 180.5,-1079.2"/>
<text text-anchor="start" x="200.5" y="-1086.3" font-family="Helvetica,sans-Serif" font-size="11.00" fill="#000000">usu_insercion</text>
<polygon fill="none" stroke="#000000" points="180.5,-1057.2 180.5,-1079.2 303.5,-1079.2 303.5,-1057.2 180.5,-1057.2"/>
<text text-anchor="start" x="200.5" y="-1064.3" font-family="Helvetica,sans-Serif" font-size="11.00" fill="#000000">fec_insercion</text>
<polygon fill="none" stroke="#000000" points="180.5,-1035.2 180.5,-1057.2 303.5,-1057.2 303.5,-1035.2 180.5,-1035.2"/>
<text text-anchor="start" x="200.5" y="-1042.3" font-family="Helvetica,sans-Serif" font-size="11.00" fill="#000000">fec_modificacion</text>
<polygon fill="none" stroke="#000000" points="180.5,-1013.2 180.5,-1035.2 303.5,-1035.2 303.5,-1013.2 180.5,-1013.2"/>
<text text-anchor="start" x="200.5" y="-1020.3" font-family="Helvetica,sans-Serif" font-size="11.00" fill="#000000">usu_modificacion</text>
<polygon fill="#ffffff" stroke="transparent" points="180.5,-994.2 180.5,-1013.2 222.5,-1013.2 222.5,-994.2 180.5,-994.2"/>
<polygon fill="none" stroke="#000000" points="180.5,-994.2 180.5,-1013.2 222.5,-1013.2 222.5,-994.2 180.5,-994.2"/>
<text text-anchor="start" x="183.5" y="-1000.3" font-family="Helvetica,sans-Serif" font-size="11.00" fill="#000000">&lt; 1</text>
<polygon fill="#ffffff" stroke="transparent" points="222.5,-994.2 222.5,-1013.2 271.5,-1013.2 271.5,-994.2 222.5,-994.2"/>
<polygon fill="none" stroke="#000000" points="222.5,-994.2 222.5,-1013.2 271.5,-1013.2 271.5,-994.2 222.5,-994.2"/>
<text text-anchor="start" x="236.1105" y="-1000.3" font-family="Helvetica,sans-Serif" font-size="11.00" fill="#000000">0 rows</text>
<polygon fill="#ffffff" stroke="transparent" points="271.5,-994.2 271.5,-1013.2 303.5,-1013.2 303.5,-994.2 271.5,-994.2"/>
<polygon fill="none" stroke="#000000" points="271.5,-994.2 271.5,-1013.2 303.5,-1013.2 303.5,-994.2 271.5,-994.2"/>
<text text-anchor="start" x="284.9053" y="-1000.3" font-family="Helvetica,sans-Serif" font-size="11.00" fill="#000000">1 &gt;</text>
</a>
</g>
</g>
<!-- paises -->
<g id="node8" class="node">
<title>paises</title>
<g id="a_node8"><a xlink:href="../../tables/paises.html" xlink:title="paises" target="_top">
<polygon fill="#ffffff" stroke="transparent" points="8,-928.2 8,-1146.2 131,-1146.2 131,-928.2 8,-928.2"/>
<polygon fill="#f5f5f5" stroke="transparent" points="8.5,-1123.2 8.5,-1146.2 131.5,-1146.2 131.5,-1123.2 8.5,-1123.2"/>
<polygon fill="none" stroke="#000000" points="8.5,-1123.2 8.5,-1146.2 131.5,-1146.2 131.5,-1123.2 8.5,-1123.2"/>
<text text-anchor="start" x="13.5" y="-1132.3" font-family="Helvetica,sans-Serif" font-weight="bold" font-size="11.00" fill="#000000">paises</text>
<text text-anchor="start" x="96.5437" y="-1131.3" font-family="Helvetica,sans-Serif" font-size="11.00" fill="#000000">[table]</text>
<polygon fill="none" stroke="#000000" points="8.5,-1101.2 8.5,-1123.2 131.5,-1123.2 131.5,-1101.2 8.5,-1101.2"/>
<image xlink:href="../../images/primaryKeys.png" width="11px" height="12px" preserveAspectRatio="xMinYMin meet" x="13.5" y="-1118.2"/>
<text text-anchor="start" x="28.5" y="-1108.3" font-family="Helvetica,sans-Serif" font-size="11.00" fill="#000000">pais_id</text>
<polygon fill="none" stroke="#000000" points="8.5,-1079.2 8.5,-1101.2 131.5,-1101.2 131.5,-1079.2 8.5,-1079.2"/>
<text text-anchor="start" x="28.5" y="-1086.3" font-family="Helvetica,sans-Serif" font-size="11.00" fill="#000000">nombre</text>
<polygon fill="none" stroke="#000000" points="8.5,-1057.2 8.5,-1079.2 131.5,-1079.2 131.5,-1057.2 8.5,-1057.2"/>
<text text-anchor="start" x="28.5" y="-1064.3" font-family="Helvetica,sans-Serif" font-size="11.00" fill="#000000">nom_corto</text>
<polygon fill="none" stroke="#000000" points="8.5,-1035.2 8.5,-1057.2 131.5,-1057.2 131.5,-1035.2 8.5,-1035.2"/>
<text text-anchor="start" x="28.5" y="-1042.3" font-family="Helvetica,sans-Serif" font-size="11.00" fill="#000000">cod_telefono</text>
<polygon fill="none" stroke="#000000" points="8.5,-1013.2 8.5,-1035.2 131.5,-1035.2 131.5,-1013.2 8.5,-1013.2"/>
<text text-anchor="start" x="28.5" y="-1020.3" font-family="Helvetica,sans-Serif" font-size="11.00" fill="#000000">usu_insercion</text>
<polygon fill="none" stroke="#000000" points="8.5,-991.2 8.5,-1013.2 131.5,-1013.2 131.5,-991.2 8.5,-991.2"/>
<text text-anchor="start" x="28.5" y="-998.3" font-family="Helvetica,sans-Serif" font-size="11.00" fill="#000000">fec_insercion</text>
<polygon fill="none" stroke="#000000" points="8.5,-969.2 8.5,-991.2 131.5,-991.2 131.5,-969.2 8.5,-969.2"/>
<text text-anchor="start" x="28.5" y="-976.3" font-family="Helvetica,sans-Serif" font-size="11.00" fill="#000000">fec_modificacion</text>
<polygon fill="none" stroke="#000000" points="8.5,-947.2 8.5,-969.2 131.5,-969.2 131.5,-947.2 8.5,-947.2"/>
<text text-anchor="start" x="28.5" y="-954.3" font-family="Helvetica,sans-Serif" font-size="11.00" fill="#000000">usu_modificacion</text>
<polygon fill="#ffffff" stroke="transparent" points="8.5,-928.2 8.5,-947.2 46.5,-947.2 46.5,-928.2 8.5,-928.2"/>
<polygon fill="none" stroke="#000000" points="8.5,-928.2 8.5,-947.2 46.5,-947.2 46.5,-928.2 8.5,-928.2"/>
<text text-anchor="start" x="11.5" y="-934.3" font-family="Helvetica,sans-Serif" font-size="11.00" fill="#000000"> &#160;</text>
<polygon fill="#ffffff" stroke="transparent" points="46.5,-928.2 46.5,-947.2 97.5,-947.2 97.5,-928.2 46.5,-928.2"/>
<polygon fill="none" stroke="#000000" points="46.5,-928.2 46.5,-947.2 97.5,-947.2 97.5,-928.2 46.5,-928.2"/>
<text text-anchor="start" x="62.1105" y="-934.3" font-family="Helvetica,sans-Serif" font-size="11.00" fill="#000000">0 rows</text>
<polygon fill="#ffffff" stroke="transparent" points="97.5,-928.2 97.5,-947.2 131.5,-947.2 131.5,-928.2 97.5,-928.2"/>
<polygon fill="none" stroke="#000000" points="97.5,-928.2 97.5,-947.2 131.5,-947.2 131.5,-928.2 97.5,-928.2"/>
<text text-anchor="start" x="112.9053" y="-934.3" font-family="Helvetica,sans-Serif" font-size="11.00" fill="#000000">1 &gt;</text>
</a>
</g>
</g>
<!-- ciudades&#45;&gt;paises -->
<g id="edge3" class="edge">
<title>ciudades:w&#45;&gt;paises:e</title>
<path fill="none" stroke="#000000" d="M165.9909,-1112.2C154.6774,-1112.2 147.4931,-1112.2 131.5,-1112.2"/>
<polygon fill="#000000" stroke="#000000" points="172.5,-1112.2001 180.5,-1115.8 176.5,-1112.2 180.5,-1112.2 180.5,-1112.2 180.5,-1112.2 176.5,-1112.2 180.5,-1108.6 172.5,-1112.2001 172.5,-1112.2001"/>
<ellipse fill="none" stroke="#000000" cx="169.3" cy="-1112.2001" rx="3.2" ry="3.2"/>
</g>
<!-- cursos -->
<g id="node4" class="node">
<title>cursos</title>
<g id="a_node4"><a xlink:href="../../tables/cursos.html" xlink:title="cursos" target="_top">
<polygon fill="#ffffff" stroke="transparent" points="180,-38.2 180,-212.2 303,-212.2 303,-38.2 180,-38.2"/>
<polygon fill="#f5f5f5" stroke="transparent" points="180.5,-189.2 180.5,-212.2 303.5,-212.2 303.5,-189.2 180.5,-189.2"/>
<polygon fill="none" stroke="#000000" points="180.5,-189.2 180.5,-212.2 303.5,-212.2 303.5,-189.2 180.5,-189.2"/>
<text text-anchor="start" x="185.5" y="-198.3" font-family="Helvetica,sans-Serif" font-weight="bold" font-size="11.00" fill="#000000">cursos</text>
<text text-anchor="start" x="268.5437" y="-197.3" font-family="Helvetica,sans-Serif" font-size="11.00" fill="#000000">[table]</text>
<polygon fill="none" stroke="#000000" points="180.5,-167.2 180.5,-189.2 303.5,-189.2 303.5,-167.2 180.5,-167.2"/>
<image xlink:href="../../images/primaryKeys.png" width="11px" height="12px" preserveAspectRatio="xMinYMin meet" x="185.5" y="-184.2"/>
<text text-anchor="start" x="200.5" y="-174.3" font-family="Helvetica,sans-Serif" font-size="11.00" fill="#000000">curso_id</text>
<polygon fill="none" stroke="#000000" points="180.5,-145.2 180.5,-167.2 303.5,-167.2 303.5,-145.2 180.5,-145.2"/>
<text text-anchor="start" x="200.5" y="-152.3" font-family="Helvetica,sans-Serif" font-size="11.00" fill="#000000">nombre</text>
<polygon fill="none" stroke="#000000" points="180.5,-123.2 180.5,-145.2 303.5,-145.2 303.5,-123.2 180.5,-123.2"/>
<text text-anchor="start" x="200.5" y="-130.3" font-family="Helvetica,sans-Serif" font-size="11.00" fill="#000000">usu_insercion</text>
<polygon fill="none" stroke="#000000" points="180.5,-101.2 180.5,-123.2 303.5,-123.2 303.5,-101.2 180.5,-101.2"/>
<text text-anchor="start" x="200.5" y="-108.3" font-family="Helvetica,sans-Serif" font-size="11.00" fill="#000000">fec_insercion</text>
<polygon fill="none" stroke="#000000" points="180.5,-79.2 180.5,-101.2 303.5,-101.2 303.5,-79.2 180.5,-79.2"/>
<text text-anchor="start" x="200.5" y="-86.3" font-family="Helvetica,sans-Serif" font-size="11.00" fill="#000000">fec_modificacion</text>
<polygon fill="none" stroke="#000000" points="180.5,-57.2 180.5,-79.2 303.5,-79.2 303.5,-57.2 180.5,-57.2"/>
<text text-anchor="start" x="200.5" y="-64.3" font-family="Helvetica,sans-Serif" font-size="11.00" fill="#000000">usu_modificacion</text>
<polygon fill="#ffffff" stroke="transparent" points="180.5,-38.2 180.5,-57.2 222.5,-57.2 222.5,-38.2 180.5,-38.2"/>
<polygon fill="none" stroke="#000000" points="180.5,-38.2 180.5,-57.2 222.5,-57.2 222.5,-38.2 180.5,-38.2"/>
<text text-anchor="start" x="183.5" y="-44.3" font-family="Helvetica,sans-Serif" font-size="11.00" fill="#000000"> &#160;</text>
<polygon fill="#ffffff" stroke="transparent" points="222.5,-38.2 222.5,-57.2 275.5,-57.2 275.5,-38.2 222.5,-38.2"/>
<polygon fill="none" stroke="#000000" points="222.5,-38.2 222.5,-57.2 275.5,-57.2 275.5,-38.2 222.5,-38.2"/>
<text text-anchor="start" x="240.1105" y="-44.3" font-family="Helvetica,sans-Serif" font-size="11.00" fill="#000000">0 rows</text>
<polygon fill="#ffffff" stroke="transparent" points="275.5,-38.2 275.5,-57.2 303.5,-57.2 303.5,-38.2 275.5,-38.2"/>
<polygon fill="none" stroke="#000000" points="275.5,-38.2 275.5,-57.2 303.5,-57.2 303.5,-38.2 275.5,-38.2"/>
<text text-anchor="start" x="294.3862" y="-44.3" font-family="Helvetica,sans-Serif" font-size="11.00" fill="#000000"> &#160;</text>
</a>
</g>
</g>
<!-- direcciones -->
<g id="node5" class="node">
<title>direcciones</title>
<g id="a_node5"><a xlink:href="../../tables/direcciones.html" xlink:title="direcciones" target="_top">
<polygon fill="#ffffff" stroke="transparent" points="352,-1016.2 352,-1366.2 475,-1366.2 475,-1016.2 352,-1016.2"/>
<polygon fill="#f5f5f5" stroke="transparent" points="352.5,-1343.2 352.5,-1366.2 475.5,-1366.2 475.5,-1343.2 352.5,-1343.2"/>
<polygon fill="none" stroke="#000000" points="352.5,-1343.2 352.5,-1366.2 475.5,-1366.2 475.5,-1343.2 352.5,-1343.2"/>
<text text-anchor="start" x="357.5" y="-1352.3" font-family="Helvetica,sans-Serif" font-weight="bold" font-size="11.00" fill="#000000">direcciones</text>
<text text-anchor="start" x="440.5437" y="-1351.3" font-family="Helvetica,sans-Serif" font-size="11.00" fill="#000000">[table]</text>
<polygon fill="none" stroke="#000000" points="352.5,-1321.2 352.5,-1343.2 475.5,-1343.2 475.5,-1321.2 352.5,-1321.2"/>
<image xlink:href="../../images/primaryKeys.png" width="11px" height="12px" preserveAspectRatio="xMinYMin meet" x="357.5" y="-1338.2"/>
<text text-anchor="start" x="372.5" y="-1328.3" font-family="Helvetica,sans-Serif" font-size="11.00" fill="#000000">direccion_id</text>
<polygon fill="none" stroke="#000000" points="352.5,-1299.2 352.5,-1321.2 475.5,-1321.2 475.5,-1299.2 352.5,-1299.2"/>
<text text-anchor="start" x="372.5" y="-1306.3" font-family="Helvetica,sans-Serif" font-size="11.00" fill="#000000">calle_1</text>
<polygon fill="none" stroke="#000000" points="352.5,-1277.2 352.5,-1299.2 475.5,-1299.2 475.5,-1277.2 352.5,-1277.2"/>
<text text-anchor="start" x="372.5" y="-1284.3" font-family="Helvetica,sans-Serif" font-size="11.00" fill="#000000">calle_2</text>
<polygon fill="none" stroke="#000000" points="352.5,-1255.2 352.5,-1277.2 475.5,-1277.2 475.5,-1255.2 352.5,-1255.2"/>
<text text-anchor="start" x="372.5" y="-1262.3" font-family="Helvetica,sans-Serif" font-size="11.00" fill="#000000">referencia_id</text>
<polygon fill="none" stroke="#000000" points="352.5,-1233.2 352.5,-1255.2 475.5,-1255.2 475.5,-1233.2 352.5,-1233.2"/>
<text text-anchor="start" x="372.5" y="-1240.3" font-family="Helvetica,sans-Serif" font-size="11.00" fill="#000000">cod_postal</text>
<polygon fill="none" stroke="#000000" points="352.5,-1211.2 352.5,-1233.2 475.5,-1233.2 475.5,-1211.2 352.5,-1211.2"/>
<text text-anchor="start" x="372.5" y="-1218.3" font-family="Helvetica,sans-Serif" font-size="11.00" fill="#000000">tip_referencia</text>
<polygon fill="none" stroke="#000000" points="352.5,-1189.2 352.5,-1211.2 475.5,-1211.2 475.5,-1189.2 352.5,-1189.2"/>
<text text-anchor="start" x="372.5" y="-1196.3" font-family="Helvetica,sans-Serif" font-size="11.00" fill="#000000">tipo</text>
<polygon fill="none" stroke="#000000" points="352.5,-1167.2 352.5,-1189.2 475.5,-1189.2 475.5,-1167.2 352.5,-1167.2"/>
<text text-anchor="start" x="372.5" y="-1174.3" font-family="Helvetica,sans-Serif" font-size="11.00" fill="#000000">referencia</text>
<polygon fill="none" stroke="#000000" points="352.5,-1145.2 352.5,-1167.2 475.5,-1167.2 475.5,-1145.2 352.5,-1145.2"/>
<image xlink:href="../../images/foreignKeys.png" width="11px" height="12px" preserveAspectRatio="xMinYMin meet" x="357.5" y="-1162.2"/>
<text text-anchor="start" x="372.5" y="-1152.3" font-family="Helvetica,sans-Serif" font-size="11.00" fill="#000000">ciudad_id</text>
<polygon fill="none" stroke="#000000" points="352.5,-1123.2 352.5,-1145.2 475.5,-1145.2 475.5,-1123.2 352.5,-1123.2"/>
<text text-anchor="start" x="372.5" y="-1130.3" font-family="Helvetica,sans-Serif" font-size="11.00" fill="#000000">principal</text>
<polygon fill="none" stroke="#000000" points="352.5,-1101.2 352.5,-1123.2 475.5,-1123.2 475.5,-1101.2 352.5,-1101.2"/>
<text text-anchor="start" x="372.5" y="-1108.3" font-family="Helvetica,sans-Serif" font-size="11.00" fill="#000000">usu_insercion</text>
<polygon fill="none" stroke="#000000" points="352.5,-1079.2 352.5,-1101.2 475.5,-1101.2 475.5,-1079.2 352.5,-1079.2"/>
<text text-anchor="start" x="372.5" y="-1086.3" font-family="Helvetica,sans-Serif" font-size="11.00" fill="#000000">fec_insercion</text>
<polygon fill="none" stroke="#000000" points="352.5,-1057.2 352.5,-1079.2 475.5,-1079.2 475.5,-1057.2 352.5,-1057.2"/>
<text text-anchor="start" x="372.5" y="-1064.3" font-family="Helvetica,sans-Serif" font-size="11.00" fill="#000000">fec_modificacion</text>
<polygon fill="none" stroke="#000000" points="352.5,-1035.2 352.5,-1057.2 475.5,-1057.2 475.5,-1035.2 352.5,-1035.2"/>
<text text-anchor="start" x="372.5" y="-1042.3" font-family="Helvetica,sans-Serif" font-size="11.00" fill="#000000">usu_modificacion</text>
<polygon fill="#ffffff" stroke="transparent" points="352.5,-1016.2 352.5,-1035.2 399.5,-1035.2 399.5,-1016.2 352.5,-1016.2"/>
<polygon fill="none" stroke="#000000" points="352.5,-1016.2 352.5,-1035.2 399.5,-1035.2 399.5,-1016.2 352.5,-1016.2"/>
<text text-anchor="start" x="355.5" y="-1022.3" font-family="Helvetica,sans-Serif" font-size="11.00" fill="#000000">&lt; 1</text>
<polygon fill="#ffffff" stroke="transparent" points="399.5,-1016.2 399.5,-1035.2 450.5,-1035.2 450.5,-1016.2 399.5,-1016.2"/>
<polygon fill="none" stroke="#000000" points="399.5,-1016.2 399.5,-1035.2 450.5,-1035.2 450.5,-1016.2 399.5,-1016.2"/>
<text text-anchor="start" x="415.1105" y="-1022.3" font-family="Helvetica,sans-Serif" font-size="11.00" fill="#000000">0 rows</text>
<polygon fill="#ffffff" stroke="transparent" points="450.5,-1016.2 450.5,-1035.2 475.5,-1035.2 475.5,-1016.2 450.5,-1016.2"/>
<polygon fill="none" stroke="#000000" points="450.5,-1016.2 450.5,-1035.2 475.5,-1035.2 475.5,-1016.2 450.5,-1016.2"/>
<text text-anchor="start" x="466.3862" y="-1022.3" font-family="Helvetica,sans-Serif" font-size="11.00" fill="#000000"> &#160;</text>
</a>
</g>
</g>
<!-- direcciones&#45;&gt;ciudades -->
<g id="edge4" class="edge">
<title>direcciones:w&#45;&gt;ciudades:e</title>
<path fill="none" stroke="#000000" d="M337.9909,-1156.2C326.6774,-1156.2 319.4931,-1156.2 303.5,-1156.2"/>
<polygon fill="#000000" stroke="#000000" points="344.5,-1156.2001 352.5,-1159.8 348.5,-1156.2 352.5,-1156.2 352.5,-1156.2 352.5,-1156.2 348.5,-1156.2 352.5,-1152.6 344.5,-1156.2001 344.5,-1156.2001"/>
<ellipse fill="none" stroke="#000000" cx="341.3" cy="-1156.2001" rx="3.2" ry="3.2"/>
</g>
<!-- empleados -->
<g id="node6" class="node">
<title>empleados</title>
<g id="a_node6"><a xlink:href="../../tables/empleados.html" xlink:title="empleados" target="_top">
<polygon fill="#ffffff" stroke="transparent" points="352,-255.2 352,-473.2 475,-473.2 475,-255.2 352,-255.2"/>
<polygon fill="#f5f5f5" stroke="transparent" points="352.5,-450.2 352.5,-473.2 475.5,-473.2 475.5,-450.2 352.5,-450.2"/>
<polygon fill="none" stroke="#000000" points="352.5,-450.2 352.5,-473.2 475.5,-473.2 475.5,-450.2 352.5,-450.2"/>
<text text-anchor="start" x="357.5" y="-459.3" font-family="Helvetica,sans-Serif" font-weight="bold" font-size="11.00" fill="#000000">empleados</text>
<text text-anchor="start" x="440.5437" y="-458.3" font-family="Helvetica,sans-Serif" font-size="11.00" fill="#000000">[table]</text>
<polygon fill="none" stroke="#000000" points="352.5,-428.2 352.5,-450.2 475.5,-450.2 475.5,-428.2 352.5,-428.2"/>
<image xlink:href="../../images/primaryKeys.png" width="11px" height="12px" preserveAspectRatio="xMinYMin meet" x="357.5" y="-445.2"/>
<text text-anchor="start" x="372.5" y="-435.3" font-family="Helvetica,sans-Serif" font-size="11.00" fill="#000000">empleado_id</text>
<polygon fill="none" stroke="#000000" points="352.5,-406.2 352.5,-428.2 475.5,-428.2 475.5,-406.2 352.5,-406.2"/>
<image xlink:href="../../images/foreignKeys.png" width="11px" height="12px" preserveAspectRatio="xMinYMin meet" x="357.5" y="-423.2"/>
<text text-anchor="start" x="372.5" y="-413.3" font-family="Helvetica,sans-Serif" font-size="11.00" fill="#000000">persona_id</text>
<polygon fill="none" stroke="#000000" points="352.5,-384.2 352.5,-406.2 475.5,-406.2 475.5,-384.2 352.5,-384.2"/>
<image xlink:href="../../images/foreignKeys.png" width="11px" height="12px" preserveAspectRatio="xMinYMin meet" x="357.5" y="-401.2"/>
<text text-anchor="start" x="372.5" y="-391.3" font-family="Helvetica,sans-Serif" font-size="11.00" fill="#000000">usuario_id</text>
<polygon fill="none" stroke="#000000" points="352.5,-362.2 352.5,-384.2 475.5,-384.2 475.5,-362.2 352.5,-362.2"/>
<text text-anchor="start" x="372.5" y="-369.3" font-family="Helvetica,sans-Serif" font-size="11.00" fill="#000000">activo</text>
<polygon fill="none" stroke="#000000" points="352.5,-340.2 352.5,-362.2 475.5,-362.2 475.5,-340.2 352.5,-340.2"/>
<text text-anchor="start" x="372.5" y="-347.3" font-family="Helvetica,sans-Serif" font-size="11.00" fill="#000000">usu_insercion</text>
<polygon fill="none" stroke="#000000" points="352.5,-318.2 352.5,-340.2 475.5,-340.2 475.5,-318.2 352.5,-318.2"/>
<text text-anchor="start" x="372.5" y="-325.3" font-family="Helvetica,sans-Serif" font-size="11.00" fill="#000000">fec_insercion</text>
<polygon fill="none" stroke="#000000" points="352.5,-296.2 352.5,-318.2 475.5,-318.2 475.5,-296.2 352.5,-296.2"/>
<text text-anchor="start" x="372.5" y="-303.3" font-family="Helvetica,sans-Serif" font-size="11.00" fill="#000000">fec_modificacion</text>
<polygon fill="none" stroke="#000000" points="352.5,-274.2 352.5,-296.2 475.5,-296.2 475.5,-274.2 352.5,-274.2"/>
<text text-anchor="start" x="372.5" y="-281.3" font-family="Helvetica,sans-Serif" font-size="11.00" fill="#000000">usu_modificacion</text>
<polygon fill="#ffffff" stroke="transparent" points="352.5,-255.2 352.5,-274.2 399.5,-274.2 399.5,-255.2 352.5,-255.2"/>
<polygon fill="none" stroke="#000000" points="352.5,-255.2 352.5,-274.2 399.5,-274.2 399.5,-255.2 352.5,-255.2"/>
<text text-anchor="start" x="355.5" y="-261.3" font-family="Helvetica,sans-Serif" font-size="11.00" fill="#000000">&lt; 2</text>
<polygon fill="#ffffff" stroke="transparent" points="399.5,-255.2 399.5,-274.2 450.5,-274.2 450.5,-255.2 399.5,-255.2"/>
<polygon fill="none" stroke="#000000" points="399.5,-255.2 399.5,-274.2 450.5,-274.2 450.5,-255.2 399.5,-255.2"/>
<text text-anchor="start" x="415.1105" y="-261.3" font-family="Helvetica,sans-Serif" font-size="11.00" fill="#000000">0 rows</text>
<polygon fill="#ffffff" stroke="transparent" points="450.5,-255.2 450.5,-274.2 475.5,-274.2 475.5,-255.2 450.5,-255.2"/>
<polygon fill="none" stroke="#000000" points="450.5,-255.2 450.5,-274.2 475.5,-274.2 475.5,-255.2 450.5,-255.2"/>
<text text-anchor="start" x="466.3862" y="-261.3" font-family="Helvetica,sans-Serif" font-size="11.00" fill="#000000"> &#160;</text>
</a>
</g>
</g>
<!-- personas -->
<g id="node9" class="node">
<title>personas</title>
<g id="a_node9"><a xlink:href="../../tables/personas.html" xlink:title="personas" target="_top">
<polygon fill="#ffffff" stroke="transparent" points="180,-233.2 180,-473.2 303,-473.2 303,-233.2 180,-233.2"/>
<polygon fill="#f5f5f5" stroke="transparent" points="180.5,-450.2 180.5,-473.2 303.5,-473.2 303.5,-450.2 180.5,-450.2"/>
<polygon fill="none" stroke="#000000" points="180.5,-450.2 180.5,-473.2 303.5,-473.2 303.5,-450.2 180.5,-450.2"/>
<text text-anchor="start" x="185.5" y="-459.3" font-family="Helvetica,sans-Serif" font-weight="bold" font-size="11.00" fill="#000000">personas</text>
<text text-anchor="start" x="268.5437" y="-458.3" font-family="Helvetica,sans-Serif" font-size="11.00" fill="#000000">[table]</text>
<polygon fill="none" stroke="#000000" points="180.5,-428.2 180.5,-450.2 303.5,-450.2 303.5,-428.2 180.5,-428.2"/>
<image xlink:href="../../images/primaryKeys.png" width="11px" height="12px" preserveAspectRatio="xMinYMin meet" x="185.5" y="-445.2"/>
<text text-anchor="start" x="200.5" y="-435.3" font-family="Helvetica,sans-Serif" font-size="11.00" fill="#000000">persona_id</text>
<polygon fill="none" stroke="#000000" points="180.5,-406.2 180.5,-428.2 303.5,-428.2 303.5,-406.2 180.5,-406.2"/>
<text text-anchor="start" x="200.5" y="-413.3" font-family="Helvetica,sans-Serif" font-size="11.00" fill="#000000">nombre</text>
<polygon fill="none" stroke="#000000" points="180.5,-384.2 180.5,-406.2 303.5,-406.2 303.5,-384.2 180.5,-384.2"/>
<text text-anchor="start" x="200.5" y="-391.3" font-family="Helvetica,sans-Serif" font-size="11.00" fill="#000000">email</text>
<polygon fill="none" stroke="#000000" points="180.5,-362.2 180.5,-384.2 303.5,-384.2 303.5,-362.2 180.5,-362.2"/>
<text text-anchor="start" x="200.5" y="-369.3" font-family="Helvetica,sans-Serif" font-size="11.00" fill="#000000">nro_documento</text>
<polygon fill="none" stroke="#000000" points="180.5,-340.2 180.5,-362.2 303.5,-362.2 303.5,-340.2 180.5,-340.2"/>
<text text-anchor="start" x="200.5" y="-347.3" font-family="Helvetica,sans-Serif" font-size="11.00" fill="#000000">tip_documento</text>
<polygon fill="none" stroke="#000000" points="180.5,-318.2 180.5,-340.2 303.5,-340.2 303.5,-318.2 180.5,-318.2"/>
<text text-anchor="start" x="200.5" y="-325.3" font-family="Helvetica,sans-Serif" font-size="11.00" fill="#000000">usu_insercion</text>
<polygon fill="none" stroke="#000000" points="180.5,-296.2 180.5,-318.2 303.5,-318.2 303.5,-296.2 180.5,-296.2"/>
<text text-anchor="start" x="200.5" y="-303.3" font-family="Helvetica,sans-Serif" font-size="11.00" fill="#000000">fec_insercion</text>
<polygon fill="none" stroke="#000000" points="180.5,-274.2 180.5,-296.2 303.5,-296.2 303.5,-274.2 180.5,-274.2"/>
<text text-anchor="start" x="200.5" y="-281.3" font-family="Helvetica,sans-Serif" font-size="11.00" fill="#000000">fec_modificacion</text>
<polygon fill="none" stroke="#000000" points="180.5,-252.2 180.5,-274.2 303.5,-274.2 303.5,-252.2 180.5,-252.2"/>
<text text-anchor="start" x="200.5" y="-259.3" font-family="Helvetica,sans-Serif" font-size="11.00" fill="#000000">usu_modificacion</text>
<polygon fill="#ffffff" stroke="transparent" points="180.5,-233.2 180.5,-252.2 215.5,-252.2 215.5,-233.2 180.5,-233.2"/>
<polygon fill="none" stroke="#000000" points="180.5,-233.2 180.5,-252.2 215.5,-252.2 215.5,-233.2 180.5,-233.2"/>
<text text-anchor="start" x="183.5" y="-239.3" font-family="Helvetica,sans-Serif" font-size="11.00" fill="#000000"> &#160;</text>
<polygon fill="#ffffff" stroke="transparent" points="215.5,-233.2 215.5,-252.2 270.5,-252.2 270.5,-233.2 215.5,-233.2"/>
<polygon fill="none" stroke="#000000" points="215.5,-233.2 215.5,-252.2 270.5,-252.2 270.5,-233.2 215.5,-233.2"/>
<text text-anchor="start" x="228.9956" y="-239.3" font-family="Helvetica,sans-Serif" font-size="11.00" fill="#000000">22 rows</text>
<polygon fill="#ffffff" stroke="transparent" points="270.5,-233.2 270.5,-252.2 303.5,-252.2 303.5,-233.2 270.5,-233.2"/>
<polygon fill="none" stroke="#000000" points="270.5,-233.2 270.5,-252.2 303.5,-252.2 303.5,-233.2 270.5,-233.2"/>
<text text-anchor="start" x="284.9053" y="-239.3" font-family="Helvetica,sans-Serif" font-size="11.00" fill="#000000">2 &gt;</text>
</a>
</g>
</g>
<!-- empleados&#45;&gt;personas -->
<g id="edge5" class="edge">
<title>empleados:w&#45;&gt;personas:e</title>
<path fill="none" stroke="#000000" d="M338.1297,-420.6375C326.5865,-426.825 321.4041,-439.2 303.5,-439.2"/>
<polygon fill="#000000" stroke="#000000" points="344.7195,-419.0612 353.3375,-420.7012 348.6098,-418.1306 352.5,-417.2 352.5,-417.2 352.5,-417.2 348.6098,-418.1306 351.6625,-413.6988 344.7195,-419.0612 344.7195,-419.0612"/>
<ellipse fill="none" stroke="#000000" cx="341.6073" cy="-419.8057" rx="3.2" ry="3.2"/>
</g>
<!-- usuarios -->
<g id="node10" class="node">
<title>usuarios</title>
<g id="a_node10"><a xlink:href="../../tables/usuarios.html" xlink:title="usuarios" target="_top">
<polygon fill="#ffffff" stroke="transparent" points="180,-494.2 180,-734.2 303,-734.2 303,-494.2 180,-494.2"/>
<polygon fill="#f5f5f5" stroke="transparent" points="180.5,-711.2 180.5,-734.2 303.5,-734.2 303.5,-711.2 180.5,-711.2"/>
<polygon fill="none" stroke="#000000" points="180.5,-711.2 180.5,-734.2 303.5,-734.2 303.5,-711.2 180.5,-711.2"/>
<text text-anchor="start" x="185.5" y="-720.3" font-family="Helvetica,sans-Serif" font-weight="bold" font-size="11.00" fill="#000000">usuarios</text>
<text text-anchor="start" x="268.5437" y="-719.3" font-family="Helvetica,sans-Serif" font-size="11.00" fill="#000000">[table]</text>
<polygon fill="none" stroke="#000000" points="180.5,-689.2 180.5,-711.2 303.5,-711.2 303.5,-689.2 180.5,-689.2"/>
<image xlink:href="../../images/primaryKeys.png" width="11px" height="12px" preserveAspectRatio="xMinYMin meet" x="185.5" y="-706.2"/>
<text text-anchor="start" x="200.5" y="-696.3" font-family="Helvetica,sans-Serif" font-size="11.00" fill="#000000">usuario_id</text>
<polygon fill="#ffffff" stroke="transparent" points="180.5,-667.2 180.5,-689.2 303.5,-689.2 303.5,-667.2 180.5,-667.2"/>
<polygon fill="none" stroke="#000000" points="180.5,-667.2 180.5,-689.2 303.5,-689.2 303.5,-667.2 180.5,-667.2"/>
<text text-anchor="start" x="200.5" y="-674.3" font-family="Helvetica,sans-Serif" font-size="11.00" fill="#000000">nom_usuario</text>
<polygon fill="none" stroke="#000000" points="180.5,-645.2 180.5,-667.2 303.5,-667.2 303.5,-645.2 180.5,-645.2"/>
<text text-anchor="start" x="200.5" y="-652.3" font-family="Helvetica,sans-Serif" font-size="11.00" fill="#000000">activo</text>
<polygon fill="none" stroke="#000000" points="180.5,-623.2 180.5,-645.2 303.5,-645.2 303.5,-623.2 180.5,-623.2"/>
<text text-anchor="start" x="200.5" y="-630.3" font-family="Helvetica,sans-Serif" font-size="11.00" fill="#000000">password</text>
<polygon fill="none" stroke="#000000" points="180.5,-601.2 180.5,-623.2 303.5,-623.2 303.5,-601.2 180.5,-601.2"/>
<text text-anchor="start" x="200.5" y="-608.3" font-family="Helvetica,sans-Serif" font-size="11.00" fill="#000000">email</text>
<polygon fill="none" stroke="#000000" points="180.5,-579.2 180.5,-601.2 303.5,-601.2 303.5,-579.2 180.5,-579.2"/>
<text text-anchor="start" x="200.5" y="-586.3" font-family="Helvetica,sans-Serif" font-size="11.00" fill="#000000">usu_insercion</text>
<polygon fill="none" stroke="#000000" points="180.5,-557.2 180.5,-579.2 303.5,-579.2 303.5,-557.2 180.5,-557.2"/>
<text text-anchor="start" x="200.5" y="-564.3" font-family="Helvetica,sans-Serif" font-size="11.00" fill="#000000">fec_insercion</text>
<polygon fill="none" stroke="#000000" points="180.5,-535.2 180.5,-557.2 303.5,-557.2 303.5,-535.2 180.5,-535.2"/>
<text text-anchor="start" x="200.5" y="-542.3" font-family="Helvetica,sans-Serif" font-size="11.00" fill="#000000">fec_modificacion</text>
<polygon fill="none" stroke="#000000" points="180.5,-513.2 180.5,-535.2 303.5,-535.2 303.5,-513.2 180.5,-513.2"/>
<text text-anchor="start" x="200.5" y="-520.3" font-family="Helvetica,sans-Serif" font-size="11.00" fill="#000000">usu_modificacion</text>
<polygon fill="#ffffff" stroke="transparent" points="180.5,-494.2 180.5,-513.2 218.5,-513.2 218.5,-494.2 180.5,-494.2"/>
<polygon fill="none" stroke="#000000" points="180.5,-494.2 180.5,-513.2 218.5,-513.2 218.5,-494.2 180.5,-494.2"/>
<text text-anchor="start" x="183.5" y="-500.3" font-family="Helvetica,sans-Serif" font-size="11.00" fill="#000000"> &#160;</text>
<polygon fill="#ffffff" stroke="transparent" points="218.5,-494.2 218.5,-513.2 269.5,-513.2 269.5,-494.2 218.5,-494.2"/>
<polygon fill="none" stroke="#000000" points="218.5,-494.2 218.5,-513.2 269.5,-513.2 269.5,-494.2 218.5,-494.2"/>
<text text-anchor="start" x="234.1105" y="-500.3" font-family="Helvetica,sans-Serif" font-size="11.00" fill="#000000">2 rows</text>
<polygon fill="#ffffff" stroke="transparent" points="269.5,-494.2 269.5,-513.2 303.5,-513.2 303.5,-494.2 269.5,-494.2"/>
<polygon fill="none" stroke="#000000" points="269.5,-494.2 269.5,-513.2 303.5,-513.2 303.5,-494.2 269.5,-494.2"/>
<text text-anchor="start" x="284.9053" y="-500.3" font-family="Helvetica,sans-Serif" font-size="11.00" fill="#000000">2 &gt;</text>
</a>
</g>
</g>
<!-- empleados&#45;&gt;usuarios -->
<g id="edge6" class="edge">
<title>empleados:w&#45;&gt;usuarios:e</title>
<path fill="none" stroke="#000000" d="M338.8666,-400.7542C296.9875,-442.0918 366.6498,-700.2 303.5,-700.2"/>
<polygon fill="#000000" stroke="#000000" points="345.0912,-398.2183 353.8583,-398.5339 348.7956,-396.7092 352.5,-395.2 352.5,-395.2 352.5,-395.2 348.7956,-396.7092 351.1417,-391.8661 345.0912,-398.2183 345.0912,-398.2183"/>
<ellipse fill="none" stroke="#000000" cx="342.1277" cy="-399.4257" rx="3.2" ry="3.2"/>
</g>
<!-- leads -->
<g id="node7" class="node">
<title>leads</title>
<g id="a_node7"><a xlink:href="../../tables/leads.html" xlink:title="leads" target="_top">
<polygon fill="#ffffff" stroke="transparent" points="352,-494.2 352,-778.2 475,-778.2 475,-494.2 352,-494.2"/>
<polygon fill="#f5f5f5" stroke="transparent" points="352.5,-755.2 352.5,-778.2 475.5,-778.2 475.5,-755.2 352.5,-755.2"/>
<polygon fill="none" stroke="#000000" points="352.5,-755.2 352.5,-778.2 475.5,-778.2 475.5,-755.2 352.5,-755.2"/>
<text text-anchor="start" x="357.5" y="-764.3" font-family="Helvetica,sans-Serif" font-weight="bold" font-size="11.00" fill="#000000">leads</text>
<text text-anchor="start" x="440.5437" y="-763.3" font-family="Helvetica,sans-Serif" font-size="11.00" fill="#000000">[table]</text>
<polygon fill="none" stroke="#000000" points="352.5,-733.2 352.5,-755.2 475.5,-755.2 475.5,-733.2 352.5,-733.2"/>
<image xlink:href="../../images/primaryKeys.png" width="11px" height="12px" preserveAspectRatio="xMinYMin meet" x="357.5" y="-750.2"/>
<text text-anchor="start" x="372.5" y="-740.3" font-family="Helvetica,sans-Serif" font-size="11.00" fill="#000000">lead_id</text>
<polygon fill="none" stroke="#000000" points="352.5,-711.2 352.5,-733.2 475.5,-733.2 475.5,-711.2 352.5,-711.2"/>
<text text-anchor="start" x="372.5" y="-718.3" font-family="Helvetica,sans-Serif" font-size="11.00" fill="#000000">estado</text>
<polygon fill="none" stroke="#000000" points="352.5,-689.2 352.5,-711.2 475.5,-711.2 475.5,-689.2 352.5,-689.2"/>
<image xlink:href="../../images/foreignKeys.png" width="11px" height="12px" preserveAspectRatio="xMinYMin meet" x="357.5" y="-706.2"/>
<text text-anchor="start" x="372.5" y="-696.3" font-family="Helvetica,sans-Serif" font-size="11.00" fill="#000000">usu_asignado_id</text>
<polygon fill="none" stroke="#000000" points="352.5,-667.2 352.5,-689.2 475.5,-689.2 475.5,-667.2 352.5,-667.2"/>
<image xlink:href="../../images/foreignKeys.png" width="11px" height="12px" preserveAspectRatio="xMinYMin meet" x="357.5" y="-684.2"/>
<text text-anchor="start" x="372.5" y="-674.3" font-family="Helvetica,sans-Serif" font-size="11.00" fill="#000000">campana_id</text>
<polygon fill="none" stroke="#000000" points="352.5,-645.2 352.5,-667.2 475.5,-667.2 475.5,-645.2 352.5,-645.2"/>
<text text-anchor="start" x="372.5" y="-652.3" font-family="Helvetica,sans-Serif" font-size="11.00" fill="#000000">origen</text>
<polygon fill="none" stroke="#000000" points="352.5,-623.2 352.5,-645.2 475.5,-645.2 475.5,-623.2 352.5,-623.2"/>
<image xlink:href="../../images/foreignKeys.png" width="11px" height="12px" preserveAspectRatio="xMinYMin meet" x="357.5" y="-640.2"/>
<text text-anchor="start" x="372.5" y="-630.3" font-family="Helvetica,sans-Serif" font-size="11.00" fill="#000000">persona_id</text>
<polygon fill="none" stroke="#000000" points="352.5,-601.2 352.5,-623.2 475.5,-623.2 475.5,-601.2 352.5,-601.2"/>
<image xlink:href="../../images/foreignKeys.png" width="11px" height="12px" preserveAspectRatio="xMinYMin meet" x="357.5" y="-618.2"/>
<text text-anchor="start" x="372.5" y="-608.3" font-family="Helvetica,sans-Serif" font-size="11.00" fill="#000000">curso_id</text>
<polygon fill="none" stroke="#000000" points="352.5,-579.2 352.5,-601.2 475.5,-601.2 475.5,-579.2 352.5,-579.2"/>
<text text-anchor="start" x="372.5" y="-586.3" font-family="Helvetica,sans-Serif" font-size="11.00" fill="#000000">usu_insercion</text>
<polygon fill="none" stroke="#000000" points="352.5,-557.2 352.5,-579.2 475.5,-579.2 475.5,-557.2 352.5,-557.2"/>
<text text-anchor="start" x="372.5" y="-564.3" font-family="Helvetica,sans-Serif" font-size="11.00" fill="#000000">fec_insercion</text>
<polygon fill="none" stroke="#000000" points="352.5,-535.2 352.5,-557.2 475.5,-557.2 475.5,-535.2 352.5,-535.2"/>
<text text-anchor="start" x="372.5" y="-542.3" font-family="Helvetica,sans-Serif" font-size="11.00" fill="#000000">fec_modificacion</text>
<polygon fill="none" stroke="#000000" points="352.5,-513.2 352.5,-535.2 475.5,-535.2 475.5,-513.2 352.5,-513.2"/>
<text text-anchor="start" x="372.5" y="-520.3" font-family="Helvetica,sans-Serif" font-size="11.00" fill="#000000">usu_modificacion</text>
<polygon fill="#ffffff" stroke="transparent" points="352.5,-494.2 352.5,-513.2 399.5,-513.2 399.5,-494.2 352.5,-494.2"/>
<polygon fill="none" stroke="#000000" points="352.5,-494.2 352.5,-513.2 399.5,-513.2 399.5,-494.2 352.5,-494.2"/>
<text text-anchor="start" x="355.5" y="-500.3" font-family="Helvetica,sans-Serif" font-size="11.00" fill="#000000">&lt; 2</text>
<polygon fill="#ffffff" stroke="transparent" points="399.5,-494.2 399.5,-513.2 450.5,-513.2 450.5,-494.2 399.5,-494.2"/>
<polygon fill="none" stroke="#000000" points="399.5,-494.2 399.5,-513.2 450.5,-513.2 450.5,-494.2 399.5,-494.2"/>
<text text-anchor="start" x="415.1105" y="-500.3" font-family="Helvetica,sans-Serif" font-size="11.00" fill="#000000">0 rows</text>
<polygon fill="#ffffff" stroke="transparent" points="450.5,-494.2 450.5,-513.2 475.5,-513.2 475.5,-494.2 450.5,-494.2"/>
<polygon fill="none" stroke="#000000" points="450.5,-494.2 450.5,-513.2 475.5,-513.2 475.5,-494.2 450.5,-494.2"/>
<text text-anchor="start" x="466.3862" y="-500.3" font-family="Helvetica,sans-Serif" font-size="11.00" fill="#000000"> &#160;</text>
</a>
</g>
</g>
<!-- leads&#45;&gt;campanas -->
<g id="edge7" class="edge">
<title>leads:w&#45;&gt;campanas:e</title>
<path fill="none" stroke="#000000" stroke-dasharray="5,2" d="M339.0676,-684.6517C305.3038,-724.8436 356.9808,-939.2 303.5,-939.2"/>
<polygon fill="#000000" stroke="#000000" points="345.2887,-681.6637 354.0587,-681.4451 348.8943,-679.9318 352.5,-678.2 352.5,-678.2 352.5,-678.2 348.8943,-679.9318 350.9413,-674.9549 345.2887,-681.6637 345.2887,-681.6637"/>
<ellipse fill="none" stroke="#000000" cx="342.4042" cy="-683.0492" rx="3.2" ry="3.2"/>
</g>
<!-- leads&#45;&gt;cursos -->
<g id="edge8" class="edge">
<title>leads:w&#45;&gt;cursos:e</title>
<path fill="none" stroke="#000000" stroke-dasharray="5,2" d="M338.2506,-608.1807C271.1046,-564.4283 395.0598,-178.2 303.5,-178.2"/>
<polygon fill="#000000" stroke="#000000" points="344.8004,-610.0282 351.5227,-615.6648 348.6502,-611.1141 352.5,-612.2 352.5,-612.2 352.5,-612.2 348.6502,-611.1141 353.4773,-608.7352 344.8004,-610.0282 344.8004,-610.0282"/>
<ellipse fill="none" stroke="#000000" cx="341.7206" cy="-609.1594" rx="3.2" ry="3.2"/>
</g>
<!-- leads&#45;&gt;personas -->
<g id="edge9" class="edge">
<title>leads:w&#45;&gt;personas:e</title>
<path fill="none" stroke="#000000" d="M338.2052,-632.0101C278.4985,-610.5867 387.2759,-439.2 303.5,-439.2"/>
<polygon fill="#000000" stroke="#000000" points="344.5923,-632.9885 351.9548,-637.7585 348.5461,-633.5942 352.5,-634.2 352.5,-634.2 352.5,-634.2 348.5461,-633.5942 353.0452,-630.6415 344.5923,-632.9885 344.5923,-632.9885"/>
<ellipse fill="none" stroke="#000000" cx="341.4292" cy="-632.5039" rx="3.2" ry="3.2"/>
</g>
<!-- leads&#45;&gt;usuarios -->
<g id="edge10" class="edge">
<title>leads:w&#45;&gt;usuarios:e</title>
<path fill="none" stroke="#000000" d="M337.9909,-700.2C326.6774,-700.2 319.4931,-700.2 303.5,-700.2"/>
<polygon fill="#000000" stroke="#000000" points="344.5,-700.2001 352.5,-703.8 348.5,-700.2 352.5,-700.2 352.5,-700.2 352.5,-700.2 348.5,-700.2 352.5,-696.6 344.5,-700.2001 344.5,-700.2001"/>
<ellipse fill="none" stroke="#000000" cx="341.3" cy="-700.2001" rx="3.2" ry="3.2"/>
</g>
</g>
</svg>
